<?xml version="1.0"?>
<!-- Generator: Adobe Illustrator 10.0, SVG Export Plug-In . SVG Version: 3.0.0 Build 77)  -->
<!DOCTYPE svg PUBLIC "-//W3C//DTD SVG 1.0//EN" "http://www.w3.org/TR/2001/REC-SVG-20010904/DTD/svg10.dtd"[
	<!ENTITY ns_flows "http://ns.adobe.com/Flows/1.0/">
	<!ENTITY ns_svg "http://www.w3.org/2000/svg">
	<!ENTITY ns_xlink "http://www.w3.org/1999/xlink">
	<!ENTITY st0 "fill:none;stroke:#000000;stroke-width:0.3;stroke-linecap:round;stroke-linejoin:round;">
	<!ENTITY st1 "fill:none;stroke:#000000;stroke-width:0.5;">
	<!ENTITY st2 "fill:none;stroke:#FFFFFF;stroke-width:2;">
	<!ENTITY st3 "fill:#B3B3B3;stroke:#000000;stroke-width:0.3;stroke-linecap:round;stroke-linejoin:round;">
	<!ENTITY st4 "fill:#FFFFFF;stroke:#000000;stroke-width:0.3;stroke-linecap:round;stroke-linejoin:round;">
	<!ENTITY st5 "fill:#FFFFFF;">
	<!ENTITY st6 "fill:none;stroke:#000000;stroke-width:0.15;stroke-linecap:round;stroke-linejoin:round;">
	<!ENTITY st7 "fill:none;">
	<!ENTITY st8 "fill:#B2B2B2;stroke:#000000;stroke-width:0.3;stroke-linecap:round;stroke-linejoin:round;">
	<!ENTITY st9 "font-family:'Arial';">
	<!ENTITY st10 "font-size:10px;">
	<!ENTITY st11 "fill:none;stroke:#FFFFFF;stroke-width:0.6;stroke-linecap:round;stroke-linejoin:round;">
	<!ATTLIST svg
		xmlns:ewd CDATA #FIXED "http://shcl.co.jp/ewd"
		xmlns:a CDATA #FIXED "http://ns.adobe.com/AdobeSVGViewerExtensions/3.0/"
		ewd:ver CDATA #IMPLIED>
	<!ATTLIST a
		ewd:innerGroupID CDATA #IMPLIED
		ewd:figtype CDATA #IMPLIED
		ewd:code CDATA #IMPLIED
		ewd:pinNo CDATA #IMPLIED>
]>
<svg width="518.74" height="311.811" viewBox="0 0 518.74 311.811" style="overflow:visible;enable-background:new 0 0 518.74 311.811" xml:space="preserve" onload="call_execInitLoadProc_svg('location')" ewd:ver="2.1.2.9" xmlns="&ns_svg;" xmlns:ewd="http://shcl.co.jp/ewd" xmlns:a="http://ns.adobe.com/AdobeSVGViewerExtensions/3.0/" xmlns:xlink="&ns_xlink;">
<script type="text/javascript" xlink:href="../../../../../system/js/ewd/fig/svgfig.js"/>
<g id="waku">
	<path style="&st7;" d="M0,311.811h518.74V0H0V311.811z"/>
</g>
<g id="イラスト">
	<path style="&st8;" d="M221.688,110.141c-0.464,0.439-0.699,1.035-0.699,1.771c0,0.166,0.134,0.3,0.3,0.3    c0.166,0,0.3-0.135,0.3-0.3c0-0.573,0.167-1.01,0.511-1.335c0.709-0.672,2.244-0.935,4.692-0.802    c0.166,0.009,0.307-0.118,0.316-0.284c0.009-0.166-0.118-0.307-0.283-0.315C224.167,109.031,222.534,109.338,221.688,110.141z"/>
	<path style="&st8;" d="M221.609,109.688c-1.169,0.381-2.419,1.402-2.729,2.231c-0.15,0.402-0.063,0.686,0.038,0.852    c0.085,0.142,0.27,0.188,0.412,0.103s0.188-0.27,0.103-0.412c-0.047-0.078-0.043-0.19,0.01-0.333    c0.246-0.658,1.368-1.55,2.353-1.871c1.3-0.423,3.305-0.618,4.99-0.484c0.166,0.013,0.31-0.11,0.323-0.275    c0.013-0.166-0.11-0.31-0.275-0.323C225.049,109.034,222.998,109.235,221.609,109.688z"/>
	<g>
		<g>
			<path style="&st5;" d="M227.492,110.345l-0.936-0.231l-0.01-0.909l1.105-0.257l0.936,0.232l0.011,0.909L227.492,110.345z"/>
			<path style="&st5;" d="M228.587,109.18l-1.105,0.256"/>
			<path style="&st5;" d="M226.545,109.205l0.936,0.231l0.01,0.909"/>
		</g>
		<g>
			<path style="&st4;" d="M227.492,110.345l-0.936-0.231l-0.01-0.909l1.105-0.257l0.936,0.232l0.011,0.909L227.492,110.345z"/>
			<path style="&st6;" d="M228.587,109.18l-1.105,0.256"/>
			<path style="&st6;" d="M226.545,109.205l0.936,0.231l0.01,0.909"/>
		</g>
	</g>
	<path style="&st8;" d="M246.235,107.633c-1.707,0.374-11.123,2.741-17.354,4.307l-5.417,1.358c-0.972,0.24-1.64-0.069-1.833-0.847    c-0.163-0.655,0.097-1.43,0.516-1.533c0.161-0.04,0.258-0.203,0.218-0.364c-0.041-0.161-0.203-0.258-0.364-0.218    c-0.84,0.21-1.176,1.359-0.952,2.26c0.217,0.873,1.003,1.669,2.559,1.285l5.419-1.358c6.227-1.565,15.638-3.931,17.336-4.302    c1.021-0.224,2.096-0.309,3.022-0.219l0.051-0.602C248.439,107.304,247.312,107.398,246.235,107.633z"/>
	<g>
		<path style="&st0;" d="M163.725,128.864l-0.563,0.038c0,0-0.375,3.712-0.425,4.312c-0.05,0.6-0.013,1.075,0.162,1.55     c0.175,0.475,0.825,1.75,0.925,1.962c0.1,0.213,0.387,0.337,0.5,0.337c0.112,0,1.612-0.212,1.85-0.237     c0.238-0.025,0.475-0.15,0.588-0.35c0.112-0.2,0.3-0.612,0.3-0.612l0.438-0.063l-0.275,1.9l-0.313,0.5"/>
		<path style="&st0;" d="M165.237,136.989l1.763,1.737l1.15-0.5l1.063-3.275l-0.237-1.5l-0.05-0.35l-0.575-0.538"/>
		<path style="&st0;" d="M167.475,136.352c0.237-0.025,0.6-0.063,0.813-0.587s0.275-0.887,0.275-1.188c0-0.3,0-0.637,0-0.875     s-0.012-0.4-0.075-0.625c-0.063-0.225-0.388-1.25-0.388-1.25"/>
		<path style="&st0;" d="M167.975,132.651l0.125-1.212l-1.05-0.975"/>
		<path style="&st0;" d="M165.837,130.227c-0.788,0.138-1.3-0.063-1.3-0.063l-0.85-0.775l0.3-3.312c0,0,0.05-0.3,0.538-0.413"/>
		<path style="&st0;" d="M166.338,125.902c0.027-0.243-0.348-0.486-0.838-0.542c-0.491-0.056-0.911,0.097-0.938,0.34     c-0.009,0.081-0.023,0.205-0.032,0.286c-0.028,0.243,0.347,0.486,0.838,0.542c0.49,0.056,0.911-0.096,0.938-0.34     C166.314,126.107,166.329,125.983,166.338,125.902z"/>
		<path style="&st0;" d="M167.985,121.24l0.361-3.654c0.033-0.33-0.217-0.477-0.547-0.509c-0.33-0.033-0.615,0.061-0.647,0.391     l-1.337,13.538c-0.033,0.33,0.192,0.464,0.522,0.497c0.33,0.032,0.64-0.049,0.672-0.379l0.834-8.44"/>
		<path style="&st6;" d="M166.896,120.069c-0.033,0.33,0.192,0.464,0.522,0.497c0.33,0.033,0.64-0.049,0.672-0.379"/>
		<path style="&st6;" d="M166.998,119.032c-0.033,0.33,0.192,0.464,0.522,0.497c0.33,0.033,0.64-0.049,0.672-0.379"/>
		<path style="&st4;" d="M171.923,74.458l-4.45,42.95c-0.017,0.165,0.099,0.234,0.264,0.251c0.165,0.017,0.316-0.024,0.333-0.189     l4.45-42.95c0.017-0.165-0.103-0.312-0.268-0.329C172.087,74.173,171.94,74.292,171.923,74.458z"/>
		<path style="&st4;" d="M171.787,74.209c-0.005,0.136,0.199,0.255,0.456,0.266c0.257,0.01,0.47-0.092,0.475-0.228     c0.005-0.137-0.184-0.332-0.44-0.342C172.02,73.895,171.792,74.073,171.787,74.209z"/>
		<path style="&st0;" d="M167.24,122.383l0.3,0.234c0,0,0.3,0.094,0.572-0.103l0.103-1.031l-0.319-0.281     c0,0-0.206,0.084-0.534,0.038L167.24,122.383z"/>
		<path style="&st6;" d="M165.337,136.689c0.275-0.4,0.4-0.788,0.475-1.462c0.071-0.633,0.325-3.325,0.325-3.325"/>
		<path style="&st6;" d="M167.912,137.927l-0.587-0.563"/>
		<path style="&st6;" d="M167.375,137.039c0.25,0.25,0.475,0.25,0.575-0.038c0.1-0.287,0.137-0.488,0.212-0.675     c0.075-0.188,0.125-0.45,0.125-0.45"/>
		<path style="&st6;" d="M166.337,131.764l1.7-0.3"/>
		<path style="&st6;" d="M165.962,131.626l-2.587-2.462"/>
		<path style="&st6;" d="M167.512,135.864c0.087-0.225,0.2-0.538,0.225-0.8c0.025-0.263,0.25-2.363,0.25-2.363"/>
		<path style="&st6;" d="M164.162,126.214l0.538,0.5"/>
		<path style="&st6;" d="M164.975,126.852c0.35,0.125,0.813,0.1,1.212,0.025"/>
		<path style="&st6;" d="M164.774,126.964l-0.262,2.887"/>
	</g>
	<path style="&st0;" d="M250.997,101.25l0.268-3.162c0.024-0.285-0.194-0.409-0.479-0.433c-0.285-0.024-0.53,0.061-0.554,0.346    l-1.424,16.861c-0.024,0.285,0.171,0.399,0.457,0.423c0.285,0.024,0.552-0.05,0.576-0.335l1.052-12.452"/>
	<path style="&st6;" d="M250.041,100.251c-0.024,0.286,0.172,0.398,0.457,0.423c0.286,0.024,0.552-0.05,0.576-0.335"/>
	<path style="&st6;" d="M250.116,99.354c-0.024,0.286,0.172,0.398,0.457,0.423c0.285,0.024,0.552-0.05,0.576-0.335"/>
	<path style="&st4;" d="M252.433,76.375l-1.926,21.57c-0.013,0.143,0.088,0.201,0.231,0.214s0.273-0.025,0.285-0.168l1.926-21.57    c0.013-0.143-0.092-0.269-0.235-0.281C252.571,76.127,252.445,76.232,252.433,76.375z"/>
	<path style="&st4;" d="M252.312,76.163c-0.003,0.118,0.175,0.218,0.397,0.224c0.222,0.005,0.405-0.085,0.408-0.203    c0.003-0.118-0.163-0.284-0.385-0.29C252.51,75.888,252.315,76.044,252.312,76.163z"/>
	<path style="&st0;" d="M250.367,102.247l0.262,0.199c0,0,0.26,0.078,0.493-0.096l0.077-0.892l-0.279-0.239    c0,0-0.177,0.076-0.461,0.039L250.367,102.247z"/>
	<path style="&st8;" d="M193.825,129.001c-0.166,0-0.3,0.134-0.3,0.3c0,0.394-0.02,0.833-0.257,1.499    c-0.844,2.363-2.382,4.253-3.21,4.946c-0.896,0.75-1.57,1.077-3.199,1.03c-1.757-0.051-4.877-0.966-5.559-1.208l-0.247-0.085    c-0.702-0.24-1.498-0.511-2.025-1.343l-0.323-0.524c-0.524-0.863-1.066-1.756-2.278-2.861c-1.657-1.512-3.604-2.058-4.712-1.926    c-0.729,0.087-1.308,0.299-1.978,0.545l-1.126,0.391c-0.46,0.145-0.828,0.121-1.062-0.07c-0.204-0.165-0.307-0.46-0.275-0.79    l0.633-6.292c-0.198,0.056-0.366,0.003-0.366,0.003l-0.22-0.172l-0.644,6.402c-0.051,0.53,0.133,1.021,0.494,1.314    c0.277,0.225,0.784,0.438,1.619,0.176l1.154-0.4c0.661-0.243,1.182-0.435,1.842-0.513c0.977-0.117,2.719,0.389,4.237,1.773    c1.147,1.047,1.667,1.902,2.169,2.729l0.329,0.535c0.641,1.009,1.582,1.331,2.338,1.589l0.24,0.083    c0.7,0.249,3.914,1.19,5.742,1.242c1.813,0.052,2.606-0.336,3.602-1.17c0.878-0.736,2.505-2.729,3.39-5.204    c0.27-0.756,0.292-1.274,0.292-1.701C194.125,129.136,193.99,129.001,193.825,129.001z"/>
	<g>
		<path style="&st4;" d="M193.814,130.594l-0.853-0.359v-1.38l0.75-0.202l0.853,0.359v1.38L193.814,130.594z"/>
		<path style="&st6;" d="M194.565,129.013l-0.751,0.201"/>
		<path style="&st6;" d="M192.962,128.855l0.853,0.359v1.38"/>
	</g>
	<g>
		<path style="&st4;" d="M193.814,129.214l-0.853-0.359v-1.38l0.75-0.201l0.853,0.359v1.38L193.814,129.214z"/>
		<path style="&st6;" d="M194.565,127.632l-0.751,0.201"/>
		<path style="&st6;" d="M192.962,127.475l0.853,0.359v1.38"/>
	</g>
	<path style="&st3;" d="M222.338,110.279c-1.582,0.193-2.951,1.006-3.254,1.933c-0.14,0.426-0.039,0.829,0.285,1.134    c0.185,0.173,0.387,0.44,0.309,0.73c-0.102,0.375-0.632,0.705-1.419,0.884c-2.355,0.535-25.318,5.798-25.832,5.926    c-0.373,0.093-1.363,0.341-1.122,1.55c0.2,1,1.663,3.263,1.923,3.638c0.324,0.465,0.322,0.86,0.321,1.319l0,0.084    c0,0.166,0.134,0.3,0.3,0.3c0.166,0,0.3-0.134,0.3-0.3l0-0.083c0.001-0.488,0.003-1.043-0.429-1.663    c-0.457-0.657-1.672-2.637-1.827-3.413c-0.111-0.558,0.109-0.708,0.679-0.85c0.512-0.128,23.465-5.389,25.819-5.924    c1.037-0.235,1.699-0.701,1.865-1.312c0.123-0.45-0.047-0.92-0.476-1.324c-0.153-0.144-0.193-0.306-0.126-0.51    c0.199-0.607,1.285-1.344,2.757-1.523c0.164-0.02,0.281-0.17,0.261-0.334C222.652,110.376,222.502,110.259,222.338,110.279z"/>
	<path style="&st5;" d="M224.15,110.573c0,0-0.058,0.193-0.227,0.24s-1.758,0.33-1.758,0.33s-0.438,0.002-0.499-0.415    c-0.062-0.417,0.197-0.588,0.418-0.62c0.221-0.032,1.367-0.251,1.522-0.28c0.156-0.029,0.438,0.11,0.472,0.205    c0.033,0.094,0.857-0.131,0.857-0.131s0.067-0.204,0.356-0.213c0.29-0.009,0.466,0.021,0.508,0.026    c0.042,0.005,0.207,0.04,0.236,0.235c0.03,0.196-0.057,0.326-0.201,0.39c-0.144,0.064-0.503,0.138-0.546,0.147    s-0.242-0.101-0.252-0.13C225.028,110.33,224.15,110.573,224.15,110.573z"/>
	<path style="&st6;" d="M223.744,109.831c-0.256,0.035-0.433,0.286-0.395,0.56c0.038,0.273,0.275,0.467,0.531,0.432"/>
	<path style="&st0;" d="M225.878,110.313l-0.544,0.139c-0.172,0.033-0.346-0.119-0.387-0.338c-0.042-0.22,0.065-0.424,0.237-0.457    l0.524,0.011"/>
	<path style="&st0;" d="M225.861,110.304c0.138-0.026,0.224-0.189,0.19-0.366c-0.033-0.175-0.172-0.297-0.31-0.271"/>
	<path style="&st0;" d="M223.967,110.083l0.892-0.174"/>
	<path style="&st0;" d="M224.014,110.534l0.893-0.174"/>
	<path style="&st6;" d="M223.938,110.004c-0.072,0.014-0.184,0.201-0.158,0.34s0.134,0.261,0.322,0.241"/>
	<path style="&st0;" d="M224.089,109.958c-0.102-0.107-0.245-0.166-0.396-0.145l-1.601,0.298c-0.256,0.035-0.434,0.286-0.396,0.56    s0.275,0.467,0.531,0.433l1.602-0.298c0.136-0.019,0.249-0.098,0.32-0.208"/>
	<path style="&st8;" d="M255.517,119.234l-0.653-0.755c-0.813-0.915-2.042-2.298-2.335-3.202c-0.051-0.158-0.22-0.244-0.378-0.193    c-0.158,0.051-0.244,0.22-0.193,0.377c0.331,1.024,1.56,2.406,2.458,3.416l0.629,0.728c0.179,0.228,0.204,0.403,0.17,0.484    c-0.006,0.014-0.023,0.058-0.095,0.067c-0.103,0.012-0.285-0.057-0.461-0.296c-0.524-0.709-1.612-1.138-2.872-1.633    c-0.76-0.299-1.622-0.638-2.461-1.079c-1.769-0.929-3.64-3.058-3.852-4.381c-0.057-0.36,0.006-0.631,0.196-0.825    c0.832-0.858,1.846-0.042,2.899,0.946l0.246,0.229c0.288,0.262,0.635,0.349,0.929,0.233c0.27-0.106,0.446-0.366,0.472-0.693    l0.84-10.269c-0.214,0.119-0.429,0.057-0.429,0.057l-0.167-0.127l-0.842,10.291c-0.007,0.096-0.042,0.163-0.095,0.184    c-0.056,0.022-0.169,0.004-0.304-0.119l-0.239-0.223c-0.849-0.797-2.428-2.28-3.74-0.927c-0.321,0.331-0.445,0.793-0.358,1.338    c0.262,1.643,2.415,3.898,4.165,4.818c0.869,0.456,1.746,0.801,2.521,1.106c1.174,0.462,2.188,0.861,2.609,1.432    c0.28,0.379,0.66,0.579,1.017,0.535c0.262-0.032,0.478-0.194,0.576-0.434C255.901,120,255.809,119.606,255.517,119.234z"/>
	<g>
		<path style="&st4;" d="M252.414,116.244l-0.853-0.359v-1.38l0.751-0.201l0.853,0.359v1.38L252.414,116.244z"/>
		<path style="&st6;" d="M253.166,114.663l-0.751,0.201"/>
		<path style="&st6;" d="M251.562,114.505l0.853,0.359v1.38"/>
	</g>
	<g>
		<path style="&st4;" d="M252.414,114.864l-0.853-0.359v-1.38l0.751-0.201l0.853,0.359v1.38L252.414,114.864z"/>
		<path style="&st6;" d="M253.166,113.282l-0.751,0.201"/>
		<path style="&st6;" d="M251.562,113.125l0.853,0.359v1.38"/>
	</g>
	<path style="&st8;" d="M252.358,109.103c-0.256-0.734-0.893-1.205-1.729-1.47l-0.051,0.622c0.6,0.215,1.042,0.555,1.214,1.046    c0.439,1.259,0.351,2.637,0.303,3.376l-0.02,0.425c-0.008,0.166,0.12,0.292,0.285,0.299c0.166,0.008,0.307-0.134,0.315-0.299    l0.019-0.386C252.744,111.933,252.837,110.477,252.358,109.103z"/>
	<g>
		<path style="&st11;" d="M214.958,162.344l104.056,56.195c3.783,1.709,6.409,1.831,10.377,0.61l30.601-9.538l5.723-1.755     l45.175-14.041"/>
		<path style="&st11;" d="M132.088,138.733l3.938-1.271"/>
		<path style="&st11;" d="M161.458,163.571c0,0-0.48,1.152,0.384,1.633c0.864,0.479,34.769,20.457,34.769,20.457     s1.44,0.48,2.017,0.097c0.577-0.384,2.017-1.825,2.594-2.689"/>
		<path style="&st11;" d="M202.278,183.645c0,0-1.729,2.21-2.305,2.594c-0.576,0.384-0.672,0.864-0.672,0.864l0.096,1.248"/>
		<path style="&st11;" d="M160.498,159.537c0,0-0.288,1.633-0.769,2.498c-0.48,0.864-0.768,1.345-0.768,2.017     c0,0.673,0,1.345,0,1.345s0.384,0.769,0.768,1.057s37.747,22.283,37.747,22.283s1.249,0.673,2.401,0.479     c1.152-0.191,5.859-1.729,5.859-1.729s1.152-0.672,1.44-1.345"/>
		<path style="&st11;" d="M155.023,147.627c0,0-0.384,0.48-0.192,1.441c0.192,0.96,4.034,22.474,4.034,22.474     s0.576,1.537,2.497,1.152l5.955-1.824"/>
		<path style="&st11;" d="M213.143,179.988l24.928,14.283"/>
		<path style="&st11;" d="M154.921,147.237l45.484,25.506l10.955,6.23"/>
		<path style="&st11;" d="M215.61,158.854l105.236,56.022"/>
		<path style="&st11;" d="M171.159,114.491c0,0,0.192-1.537,1.729-2.305c1.537-0.768,2.978-1.249,4.226-0.864     s2.305,0.672,2.305,3.074c0,2.401,0,8.068,0,8.068s-0.288,1.633-1.729,2.209s-4.226,1.057-5.187,0.48     c-0.96-0.577-1.44-1.345-1.44-2.594C171.063,121.31,171.159,114.491,171.159,114.491z"/>
		<path style="&st11;" d="M178.651,113.723c0,0-0.384-1.057-1.633-0.96c-1.249,0.096-2.785,0.48-3.554,1.729     c-0.336,0.546-0.384,2.689-0.384,2.689v5.859c0,0,0.096,1.345,1.537,1.633c1.44,0.288,3.649-0.672,3.938-1.825"/>
		<path style="&st11;" d="M177.306,112.954c0,0,0.672,0.576,0.672,1.633s0,7.684,0,7.684s0.192,1.537-1.249,2.017"/>
		<path style="&st11;" d="M176.25,111.033L189.12,92.4c0,0,1.407-1.752,3.65-3.746c2.593-2.305,4.226-3.362,4.226-3.362     s1.345-1.249,5.282-2.401c3.938-1.152,10.875-3.412,26.234-5.167"/>
		<path style="&st11;" d="M277.395,215.106l41.678,24.747"/>
		<path style="&st11;" d="M179.419,122.463l22.139,11.381l0.432-0.144c0,0,5.331-22.907,8.645-32.992c0,0,0.72-1.873-0.721-2.593     c-1.44-0.72-14.839-6.051-14.839-6.051s-2.977-0.96-5.378,2.257l-11.727,17.147"/>
		<path style="&st11;" d="M203.332,183.803c0,0-1.917-3.136-2.926-7.745c0,0-0.576-1.729-0.576-3.458     c0-1.729,0.847-14.938,1.009-16.424s0.864-2.017,0.864-2.017l0.576-0.864c0,0,0.433-0.865,0.433-1.297s0-8.068,0-8.068     s-0.433-0.72-0.433-1.873c0-1.153,0.145-2.593,0.865-5.907c0.72-3.313,5.187-23.916,8.788-35.585c0,0,0.721-2.305-0.144-2.881     c-0.864-0.576-16.712-7.06-16.712-7.06s-3.265-1.489-5.955,1.777"/>
		<path style="&st11;" d="M174.905,125.344c0,0,0,1.152,0.577,1.584c0.576,0.432,3.169,1.441,3.169,1.441s0.432,0.432,0.576-0.144     s0.576-2.737,1.585-3.458c0,0,0.72-0.288,0.288-0.721c-0.432-0.432-1.585-0.864-1.585-0.864"/>
		<path style="&st11;" d="M169.575,120.302c0,0-2.305,1.584-2.737,4.61c0,0,0.144,0.576,0.288,1.152l-1.009,6.627     c0,0-0.576,1.009-1.008,1.441s-1.009,1.441-1.153,2.305c-0.144,0.865-1.44,9.797-0.864,15.127l0.288,0.432     c0,0-0.144,4.034,3.602,10.949"/>
		<path style="&st11;" d="M162.659,151.676l0.144,8.092c0,0,0.144,0.873,0.72,1.305"/>
		<path style="&st11;" d="M193.49,145.946c0,0-0.432-0.72-0.432-1.584c0-0.865-0.144-2.162,0.288-2.594s0.684-0.436,1.153-0.144     s4.898,2.593,4.898,2.593s0.576,0.288,0.721,1.585c0.144,1.296-0.145,2.737-0.721,3.025"/>
		<path style="&st11;" d="M193.058,143.065c0,0,5.042,2.881,5.763,3.313c0.72,0.433,1.297,0.145,1.297,0.145"/>
		<path style="&st11;" d="M250.29,201.878c8.63-2.333,18.886,7.839,22.906,22.718c4.021,14.879,0.285,28.832-8.345,31.164"/>
		<path style="&st11;" d="M275.024,253.199l-10.173,2.561c-8.63,2.332-18.886-7.84-22.907-22.719     c-4.021-14.878-0.285-28.831,8.345-31.163l10.173-2.562"/>
		<path style="&st11;" d="M260.463,199.316c3.803-1.028,7.922,0.373,11.684,3.535"/>
		<path style="&st11;" d="M249.688,204.146c8.002-2.162,17.512,7.27,21.24,21.066c3.729,13.796,0.264,26.733-7.738,28.896"/>
		<path style="&st11;" d="M263.19,254.107c-8.002,2.163-17.512-7.269-21.24-21.065c-3.729-13.796-0.264-26.734,7.738-28.896"/>
		<path style="&st11;" d="M251.168,212.709c5.334-1.441,11.674,4.847,14.159,14.043c2.485,9.196,0.176,17.821-5.158,19.263"/>
		<path style="&st11;" d="M260.169,246.015c-5.334,1.442-11.673-4.846-14.159-14.043c-2.485-9.196-0.176-17.82,5.158-19.263"/>
		<path style="&st11;" d="M242.847,203.137c0.215,0.795,0.015,1.542-0.447,1.667"/>
		<path style="&st11;" d="M242.4,204.804c-0.461,0.125-1.01-0.419-1.225-1.216c-0.215-0.796-0.016-1.542,0.446-1.666"/>
		<path style="&st11;" d="M140.458,133.683c4.289-1.134,9.323,2.935,12.957,9.769"/>
		<path style="&st11;" d="M157.686,168.227c-0.913,4.386-2.956,7.49-5.911,8.271"/>
		<path style="&st11;" d="M164.139,171.924c-0.937,1.186-2.076,1.999-3.398,2.349"/>
		<path style="&st11;" d="M160.741,174.272l-8.966,2.226c-5.911,1.563-13.237-6.757-16.362-18.579     c-3.125-11.822-0.867-22.674,5.045-24.236l7.205-1.851"/>
		<path style="&st11;" d="M140.018,135.674c5.313-1.404,11.869,5.883,14.834,16.373"/>
		<path style="&st11;" d="M156.294,160.693c0.346,7.395-1.837,13.214-5.887,14.285"/>
		<path style="&st11;" d="M150.407,174.978c-5.426,1.435-12.152-6.201-15.021-17.055c-2.869-10.853-0.795-20.814,4.631-22.249"/>
		<path style="&st11;" d="M141.044,142.818c3.511-0.928,7.863,4.012,9.719,11.035c1.856,7.022,0.515,13.469-2.997,14.396"/>
		<path style="&st11;" d="M147.767,168.25c-3.512,0.929-7.863-4.013-9.72-11.036c-1.856-7.022-0.514-13.468,2.997-14.396"/>
		<path style="&st11;" d="M204.372,135.474l8.781,4.514"/>
		<path style="&st11;" d="M204.201,137.076l6.904,3.549"/>
		<path style="&st11;" d="M300.853,118.422v27.471"/>
		<path style="&st11;" d="M290.78,84.847c-10.141-3.756-31.037-8.618-31.037-8.618c-1.396-0.296-3.707-0.506-5.134-0.466     c0,0-0.337,0.009-0.966,0.033c-5.393,0.097-18.969,1.224-25.132,1.928"/>
		<path style="&st11;" d="M289.355,85.05c4.324-0.585,5.266,0.636,6.08,3.688c0.813,3.052,4.908,19.713,5.112,23.579l0.26,2.47     c0.025,0.237,0.045,0.625,0.045,0.863v2.391"/>
		<path style="&st11;" d="M318.709,236.7l-38.168-21.801c-0.413-0.239-0.841-0.812-0.954-1.274l-2.848-12.179     c-0.611-3.357-2.57-5.243-3.815-5.952l-23.121-12.305c-2.239-0.814-3.98,0.213-4.986,1.119l-5.685,6.827     c-0.343,0.33-8.214-3.918-8.631-4.147l-17.556-9.656"/>
		<path style="&st11;" d="M222.443,100.42c0.402-1.991,0.575-2.958,0.575-2.958c1.018-4.07,3.256-4.273,5.698-4.884     c0,0,17.704-3.663,32.151-5.291c14.448-1.628,29.913-2.442,29.913-2.442"/>
		<path style="&st11;" d="M195.75,86.271c2.849-0.61,4.681-0.814,8.75,0.61c4.069,1.424,16.889,5.901,16.889,5.901"/>
		<path style="&st11;" d="M280.492,91.897c6.604-1.111,11.051-1.862,11.051-1.862"/>
		<path style="&st11;" d="M263.299,94.783c4.699-0.787,9.255-1.551,13.288-2.229"/>
		<path style="&st11;" d="M232.379,99.906c2.636-0.427,5.791-0.945,9.252-1.516"/>
		<path style="&st11;" d="M189.646,91.562c2.689-3.266,5.955-1.777,5.955-1.777s24.453,10.266,25.382,10.73     c1.221,0.611,2.035,0.611,3.459,0.611"/>
		<path style="&st11;" d="M280.506,92.692c6.759-1.131,11.32-1.897,11.32-1.897"/>
		<path style="&st11;" d="M263.302,95.565c4.666-0.777,9.191-1.533,13.213-2.205"/>
		<path style="&st11;" d="M245.593,98.502c4.634-0.764,9.28-1.535,13.943-2.311"/>
		<path style="&st11;" d="M245.593,97.688c4.634-0.764,9.28-1.535,13.943-2.31"/>
		<path style="&st11;" d="M232.37,100.667c2.64-0.427,5.763-0.937,9.175-1.498"/>
		<path style="&st11;" d="M211.65,97.599c4.598,1.941,8.449,3.575,8.807,3.754c1.221,0.61,2.035,0.61,3.459,0.61"/>
		<path style="&st11;" d="M289.355,85.05l-21.263,2.882l-14.704,2.104l-23.487,3.672c-1.884,0.274-3.877,1.989-4.429,3.811     l-2.968,10.219"/>
		<path style="&st11;" d="M222.505,107.738l-5.554,19.123c-0.552,1.822-1.233,4.869-1.233,6.773v12.845     c0,0.238,0.173,0.521,0.384,0.63l111.379,57.801c0.211,0.11,0.385,0.394,0.385,0.632v1.703"/>
		<path style="&st11;" d="M219.022,142.274l1.912,6.251c0.139,0.455-0.095,0.653-0.521,0.44l-3.336-1.668     c-0.426-0.213-0.774-0.776-0.774-1.252v-2.356"/>
		<path style="&st11;" d="M223.171,150.93l-3.116-8.252"/>
		<path style="&st11;" d="M218.783,135.477l5.647,14.957"/>
		<path style="&st11;" d="M217.524,135.21l1.526-0.458"/>
		<path style="&st11;" d="M217.524,137.042v-3.56c0-1.903,0.441-4.955,0.981-6.78l1.155-3.899l2.443-8.241l3.967-13.385     c0,0,1.146-3.62,1.846-4.718c0.699-1.098,2.169-1.862,3.409-2.045l20.538-3.309"/>
		<path style="&st11;" d="M218.44,133.913l1.679-0.496c0,0,0.39-0.36,1.106-0.763c0.61-0.343,1.335-0.534,1.335-0.534v-2.862     l-1.488-1.412l-1.87,0.191"/>
		<path style="&st11;" d="M221.072,127.846l7.898-27.585c0.307-1.417,1.972-2.907,2.742-3.229c0.601-0.252,1.158-0.565,1.747-0.656     l55.427-8.559c1.881-0.291,3.766,0.991,4.187,2.847l4.881,21.502"/>
		<path style="&st11;" d="M288.033,87.899c1.849-0.29,2.899,0.305,3.51,2.137l4.982,21.763c0.053,0.232,0.097,0.617,0.097,0.854     v0.733"/>
		<path style="&st11;" d="M259.583,98.2l-13.978,2.401"/>
		<path style="&st11;" d="M276.595,95.279l-13.278,2.28"/>
		<path style="&st11;" d="M280.351,115.134l5.316-1.061l2.534-0.564c1.866-0.375,3.218-2.229,3.003-4.121l-1.458-12.861     c-0.215-1.891-1.926-3.175-3.802-2.853l-5.688,0.977"/>
		<path style="&st11;" d="M245.661,122.057l8.083-1.613l11.752-2.345l10.93-2.181"/>
		<path style="&st11;" d="M241.555,101.296l-9.225,1.584c0,0-2.801,0.281-3.411,3.537l-1.376,15.879     c-0.139,1.898,1.275,3.145,3.141,2.77l10.721-2.154"/>
		<path style="&st11;" d="M259.646,99.806l-13.956,2.413"/>
		<path style="&st11;" d="M276.495,96.893l-13.031,2.283"/>
		<path style="&st11;" d="M280.354,113.471l7.171-1.458c0,0,2.322-0.424,1.976-3.061l-1.334-11.447     c-0.16-1.418-1.442-2.38-2.85-2.137l-5.063,0.875"/>
		<path style="&st11;" d="M263.31,116.812l0.105-0.021l13.174-2.608"/>
		<path style="&st11;" d="M245.682,120.327l8.242-1.675l5.723-1.122"/>
		<path style="&st11;" d="M241.469,121.167l-9.747,1.944c-1.4,0.279-2.46-0.657-2.357-2.081l1.182-13.596c0,0,0-2.442,1.832-2.849     l9.336-1.696"/>
		<path style="&st11;" d="M241.79,95.072v6.563v7.258v10.938v5.715"/>
		<path style="&st11;" d="M245.453,94.461v8.801"/>
		<path style="&st11;" d="M245.453,103.313v7.669v1.293v5.647v3.248v3.748"/>
		<path style="&st11;" d="M242.858,94.975v5.336v8.377v11.447v0.729v4.562"/>
		<path style="&st11;" d="M259.646,95.105v6.3v6.41v10.403"/>
		<path style="&st11;" d="M263.31,94.418v24.116"/>
		<path style="&st11;" d="M276.587,89.84v28.921"/>
		<path style="&st11;" d="M280.249,89.323v28.675"/>
		<path style="&st11;" d="M277.655,89.578v28.98"/>
		<path style="&st11;" d="M260.785,95.029v1.9v8.241v13.869"/>
		<path style="&st11;" d="M224.315,129.201l17.422-3.462l12.447-2.46l27.054-5.346l7.304-1.443l6.938-1.431"/>
		<path style="&st11;" d="M224.315,130.829l17.422-3.462l21.018-4.154l25.787-5.096l6.938-1.431"/>
		<path style="&st11;" d="M220.246,139.351l78.267-16.452"/>
		<path style="&st11;" d="M289.492,119.442l5.596-1.142c0.232-0.048,0.598-0.002,0.812,0.102l0.901,0.44     c0.214,0.104,0.39,0.385,0.39,0.623v2.772"/>
		<path style="&st11;" d="M298.563,118.422v26.403"/>
		<path style="&st11;" d="M221.066,141.525l70.368-14.957l7.078-1.5"/>
		<path style="&st11;" d="M222.597,145.217l73.764-16.183c0.465-0.102,0.845-0.575,0.845-1.051v-1.625"/>
		<path style="&st11;" d="M225.664,151.794l59.837-13.825l5.625-1.299l7.491-1.731"/>
		<path style="&st11;" d="M291.63,134.204l-67.193,15.734"/>
		<path style="&st11;" d="M233.803,155.966l4.189-0.994l42.649-10.119l16.549-3.926v-1.87l-65.931,15.484"/>
		<path style="&st11;" d="M372.439,182.96l8.843,4.445"/>
		<path style="&st11;" d="M240.62,159.73l57.865-13.839c0.463-0.111,1.189-0.026,1.614,0.187l31.127,15.722"/>
		<path style="&st11;" d="M299.174,118.346l1.355-0.251c0.233-0.043,0.594,0.018,0.801,0.136l0.674,0.385     c0.206,0.118,0.438,0.398,0.516,0.624l4.399,12.815c0.077,0.225,0.315,0.494,0.53,0.597l100.914,49.073     c0.214,0.104,0.39,0.382,0.39,0.62v2.213"/>
		<path style="&st11;" d="M212.938,149.769c-0.164-0.173-0.385-0.488-0.491-0.701l-0.437-0.874     c-0.213-0.426-0.387-1.164-0.387-1.639v-3.051c0-0.476,0.297-1.117,0.661-1.424l1.325-1.121c0.363-0.307,0.721-0.943,0.796-1.414     c0,0,1.899-11.965,4.748-24.174c1.249-5.351,2.145-9.45,2.759-12.368"/>
		<path style="&st11;" d="M306.449,130.428l103.541,50.179c0.215,0.101,0.391,0.379,0.391,0.616v2.404     c0,0.238-0.187,0.485-0.416,0.551l-84.124,23.864c-0.229,0.065-0.59,0.03-0.803-0.078l-112.1-58.196"/>
		<path style="&st11;" d="M295.512,114.149v2.595l2.976,0.992l2.289-0.534l0.076-2.67l-0.305-2.824l-2.138,0.458L295.512,114.149     l-8.293,1.628"/>
		<path style="&st11;" d="M301.781,119.268l4.681,13.634"/>
		<path style="&st11;" d="M212.447,148.152l111.597,57.783c0.423,0.217,1.144,0.592,1.601,0.46l84.33-24.483"/>
		<path style="&st11;" d="M326.34,204.192l80.702-23.307"/>
		<path style="&st11;" d="M343.951,180.158l-5.555-2.928l-14.193-7.376"/>
		<path style="&st11;" d="M371.667,182.521l-11.054,2.999c-2.219,0.574-5.667,0.249-7.824-0.718"/>
		<path style="&st11;" d="M327.256,165.226c0,0,1.526-1.781,3.968-0.713c2.442,1.068,16.043,8.316,16.043,8.316     c1.26,0.672,2.736,2.302,3.281,3.621l1.839,5.054"/>
		<path style="&st11;" d="M333.513,162.987l17.856,9.156c1.265,0.662,2.678,2.309,3.141,3.659l2.354,8.55"/>
		<path style="&st11;" d="M338.092,159.477c1.221-0.306,2.594,0,3.51,0.458c0.915,0.458,19.825,10.098,19.825,10.098     c1.268,0.658,2.646,2.313,3.062,3.679l1.989,6.521"/>
		<path style="&st11;" d="M333.607,160.964c1.222-0.305,2.596,0,3.511,0.459c0.916,0.457,19.215,9.945,19.215,9.945     c1.268,0.657,2.646,2.313,3.062,3.679l1.99,6.521"/>
		<path style="&st11;" d="M300.955,135.719l95.911,47.652"/>
		<path style="&st11;" d="M222.179,154.784v2.925c0,0.966,1.012,2.085,1.012,2.085c0.149,0.257,0.382,0.389,0.669,0.389     c0.431,0,0.78-0.35,0.78-0.78c0-0.431-0.349-0.779-0.78-0.779c-0.079,0-0.153,0.016-0.224,0.037"/>
		<path style="&st11;" d="M223.762,159.018c-0.235-0.445-0.248-1.333-0.248-1.583l0.121-2.181"/>
		<path style="&st11;" d="M245.504,166.954v2.974c0,0.982,1.028,2.12,1.028,2.12c0.152,0.26,0.388,0.395,0.68,0.395     c0.438,0,0.792-0.355,0.792-0.793s-0.355-0.792-0.792-0.792c-0.08,0-0.155,0.015-0.228,0.037"/>
		<path style="&st11;" d="M269.131,179.049v3.021c0,0.999,1.044,2.154,1.044,2.154c0.155,0.266,0.395,0.401,0.691,0.401     c0.445,0,0.806-0.36,0.806-0.806c0-0.443-0.36-0.805-0.806-0.805c-0.081,0-0.157,0.016-0.23,0.038"/>
		<path style="&st11;" d="M292.712,191.245v3.068c0,1.016,1.061,2.188,1.061,2.188c0.157,0.27,0.4,0.408,0.703,0.408     c0.451,0,0.817-0.366,0.817-0.818c0-0.451-0.366-0.817-0.817-0.817c-0.082,0-0.161,0.016-0.235,0.038"/>
		<path style="&st11;" d="M316.29,203.469v3.117c0,1.031,1.078,2.224,1.078,2.224c0.16,0.274,0.407,0.413,0.714,0.413     c0.458,0,0.83-0.371,0.83-0.83s-0.372-0.831-0.83-0.831c-0.084,0-0.163,0.017-0.239,0.04"/>
		<path style="&st11;" d="M247.113,171.259c-0.239-0.452-0.252-1.354-0.252-1.609l0.123-2.256"/>
		<path style="&st11;" d="M270.767,183.423c-0.244-0.46-0.257-1.377-0.257-1.635l0.125-1.912"/>
		<path style="&st11;" d="M294.373,195.689c-0.247-0.468-0.261-1.399-0.261-1.662l0.127-1.942"/>
		<path style="&st11;" d="M317.978,207.983c-0.25-0.475-0.264-1.422-0.264-1.688l0.129-1.973"/>
		<path style="&st11;" d="M346.181,202.361v2.747c0,1.031-1.079,2.224-1.079,2.224c-0.159,0.273-0.406,0.413-0.713,0.413     c-0.459,0-0.831-0.372-0.831-0.83c0-0.459,0.372-0.831,0.831-0.831c0.084,0,0.163,0.016,0.239,0.039"/>
		<path style="&st11;" d="M344.492,206.506c0.251-0.475,0.265-1.422,0.265-1.688l-0.129-1.973"/>
		<path style="&st11;" d="M372.762,194.857v2.747c0,1.031-1.078,2.223-1.078,2.223c-0.159,0.274-0.407,0.414-0.714,0.414     c-0.459,0-0.83-0.372-0.83-0.831c0-0.458,0.371-0.83,0.83-0.83c0.084,0,0.163,0.016,0.239,0.039"/>
		<path style="&st11;" d="M371.074,199.001c0.25-0.475,0.264-1.421,0.264-1.688l-0.129-1.972"/>
		<path style="&st11;" d="M395.552,188.321v2.61c0,0.979-1.024,2.112-1.024,2.112c-0.151,0.26-0.387,0.393-0.678,0.393     c-0.437,0-0.79-0.353-0.79-0.789c0-0.436,0.354-0.789,0.79-0.789c0.079,0,0.154,0.015,0.227,0.037"/>
		<path style="&st11;" d="M393.948,192.259c0.238-0.451,0.251-1.351,0.251-1.604l-0.123-1.873"/>
		<path style="&st11;" d="M275.192,217.754c1.089,2.312,3.046,3.181,3.046,3.181c0.435,0.193,1.129,0.543,1.542,0.779     l42.469,24.117c0.414,0.235,1.141,0.452,1.616,0.483l3.85,0.25c0.475,0.031,1.231-0.071,1.682-0.227l34.585-11.949     c0.449-0.155,0.976-0.639,1.17-1.073l1.784-4.093"/>
		<path style="&st11;" d="M371.743,227.544l2.061,2.747c0.305,0.365,0.923,0.538,1.373,0.386l25.736-8.807     c0.451-0.153,1.035-0.604,1.3-0.999l1.329-1.612c0.264-0.396,0.479-1.109,0.479-1.585v-1.348"/>
		<path style="&st11;" d="M293.561,232.722l18.128,8.1"/>
		<path style="&st11;" d="M294.022,238.396l10.951,4.867"/>
		<path style="&st11;" d="M293.555,242.184l8.672,5.048l3.663-2.138"/>
		<path style="&st11;" d="M305.387,241.845v2.314c0,0.238,0.181,0.507,0.4,0.597l1.432,0.582c0.22,0.09,0.571,0.072,0.782-0.04     l0.763-0.407c0.21-0.111,0.557-0.117,0.771-0.014l3.19,1.554c0.214,0.104,0.581,0.162,0.816,0.127l3.489-0.7"/>
		<path style="&st11;" d="M319.015,218.539v19.585c0,0.477,0.025,1.254,0.058,1.729c0,0,0.095,3.257,1.011,4.478"/>
		<path style="&st11;" d="M324.721,207.768v8.539c0,0.951,0.499,1.593,1.108,1.425"/>
		<path style="&st11;" d="M324.813,221.896v17.5c0,0.951-0.373,2.413-0.828,3.249l-0.175,0.319     c-0.455,0.836-0.523,1.824-0.15,2.197s0.679,0.678,0.679,0.678"/>
		<path style="&st11;" d="M409.374,185.65c-0.011-0.862-0.011-1.472-0.011-1.472"/>
		<path style="&st11;" d="M403.65,216.514l3.063-1.051c0.45-0.155,0.992-0.63,1.205-1.056c0,0,2.665-5.331,3.276-10.52     c0.61-5.189,0.61-9.513,0.61-9.513c0-0.476-0.324-1.081-0.721-1.345c0,0-1.11-0.741-1.416-1.962     c-0.121-0.481-0.193-1.885-0.237-3.129"/>
		<path style="&st11;" d="M359.482,231.666l0.618-0.213l26.111-8.958l1.394-0.479"/>
		<path style="&st11;" d="M338.971,238.703l10.409-3.571"/>
		<path style="&st11;" d="M323.897,243.873l9.953-3.414l0.921-0.316"/>
		<path style="&st11;" d="M327.866,213.4c0,0.477,0.163,1.219,0.362,1.651l1.106,2.396c0.199,0.432,0.385,1.175,0.412,1.649     c0,0,0.561,9.819-0.05,15.313s-1.033,7.397-1.033,7.397c-0.103,0.464-0.188,1.233-0.188,1.709v2.492"/>
		<path style="&st11;" d="M327.866,207.551v1.729"/>
		<path style="&st11;" d="M405.091,197.478c0,7.937-1.544,12.31-1.544,12.31c-0.158,0.448-0.657,0.939-1.109,1.09l-69.782,23.261     c-0.452,0.15-0.759-0.11-0.683-0.581c0,0,0.359-2.21,0.777-5.555c0.61-4.884,0.21-6.487,0.21-6.487     c-0.115-0.461,0.16-0.959,0.612-1.106l72.434-23.235"/>
		<path style="&st11;" d="M329.472,237.118l30.225-10.082l41.103-13.591l4.901-1.622"/>
		<path style="&st11;" d="M321.062,206.133v7.28c0,0.476-0.13,1.232-0.289,1.681l-0.537,1.512"/>
		<path style="&st11;" d="M325.627,211.684v-0.825c0-0.477,0.378-0.961,0.84-1.077l10.035-2.522     c0.462-0.115,1.191-0.377,1.621-0.58l1.679-0.793c0.431-0.203,0.966-0.393,1.189-0.421c0.224-0.027,0.407,0.247,0.407,0.61     c0,0.364-0.318,0.886-0.707,1.161l-2.644,1.869c-0.389,0.274-1.084,0.594-1.546,0.71l-4.266,1.072"/>
		<path style="&st11;" d="M331.427,209.483l0.407,0.406c0.168,0.169,0.306,0.501,0.306,0.739v1.271     c0,0.237-0.188,0.481-0.419,0.542l-1.503,0.392c-0.229,0.06-0.599,0.034-0.817-0.058l-0.357-0.148"/>
		<path style="&st11;" d="M325.627,211.912v1.005c0,0.118,0.069,0.284,0.154,0.368l0.202,0.203c0.084,0.084,0.246,0.125,0.36,0.092     l0.914-0.271c0.114-0.034,0.208-0.159,0.208-0.277v-1.615"/>
		<path style="&st11;" d="M327.466,213.031l2.329-0.767c0.226-0.075,0.411-0.33,0.411-0.568v-0.991"/>
		<path style="&st11;" d="M326.238,211.621l3.357-1.019"/>
		<path style="&st11;" d="M407.677,188.446l1.873-0.545c0.458-0.133,0.831-0.632,0.831-1.107v-0.559     c0-0.477-0.373-0.756-0.831-0.624l-8.156,2.366c-0.457,0.133-1.217,0.295-1.688,0.359l-2.458,0.337     c-0.472,0.064-0.857,0.393-0.857,0.729c0,0.335,0.388,0.649,0.861,0.697l2.653,0.271c0.474,0.048,1.234-0.021,1.691-0.154     l2.537-0.738"/>
		<path style="&st11;" d="M404.226,189.481l0.878,0.438c0.076,0.039,0.207,0.05,0.289,0.026l2.143-0.625     c0.082-0.024,0.149-0.114,0.149-0.199v-1.367c0-0.086-0.062-0.189-0.137-0.229l-0.352-0.187c-0.15-0.081-0.408-0.106-0.572-0.056     l-1.89,0.58"/>
		<path style="&st11;" d="M357.161,206.176l1.005-0.312l48.349-14.49"/>
		<path style="&st11;" d="M330.588,214.323l12.38-3.742l2.27-0.704"/>
		<path style="&st11;" d="M406.515,189.644v1.418c0,0.172,0.065,0.436,0.146,0.587l1.412,2.654c0.08,0.151,0.143,0.415,0.139,0.587     c0,0-0.171,7.65-0.375,10.295c-0.203,2.646-0.305,4.121-1.373,6.639c-0.889,2.095-2.442,4.503-2.442,4.503"/>
		<path style="&st11;" d="M317.945,236.396v2.899"/>
		<path style="&st11;" d="M315.199,241.889c0.183,1.191,2.411,5.373,2.289,5.19c1.221,1.831,4.542,6.162,4.542,6.162     c0.104,0.137,0.328,0.229,0.498,0.208c0,0,0.912-0.113,1.827-1.029c0.916-0.916,1.146-1.834,1.146-1.834     c0.041-0.167-0.015-0.409-0.125-0.541c0,0-1.479-1.44-2.699-3.882"/>
		<path style="&st11;" d="M328.629,245.247l18.104-5.986c0.451-0.149,0.821-0.66,0.821-1.137v-2.187"/>
		<path style="&st11;" d="M343.586,238.379v1.984"/>
		<path style="&st11;" d="M348.317,235.633v3.814"/>
		<path style="&st11;" d="M388.455,222.965v2.034c0,0.476,0.368,0.738,0.818,0.583"/>
		<path style="&st11;" d="M389.065,223.931c0,0.477,0.367,0.735,0.815,0.576l12.105-4.305c0.448-0.159,0.814-0.679,0.814-1.155"/>
		<path style="&st11;" d="M392.423,220.37v3.205"/>
		<path style="&st11;" d="M372.659,227.196l2.061,2.747c0.305,0.365,0.923,0.539,1.373,0.386"/>
		<path style="&st11;" d="M366.478,230.239l0.668-0.16c0.354-0.11,0.895-0.042,1.205,0.152l1.79,1.178"/>
		<path style="&st11;" d="M369.981,231.013c0.311,0.193,0.275,0.443-0.077,0.554l-1.2,0.378c-0.354,0.111-0.896,0.044-1.205-0.15     l-1.326-0.842"/>
		<path style="&st11;" d="M366.886,229.426c0.529-0.209,1.467-0.314,1.933,0.051l2.289,1.425c0.662,0.56,0.326,1.113-0.203,1.322     l-1.679,0.61c-0.925,0.295-1.875,0.162-2.34-0.203l-1.069-0.713"/>
		<path style="&st11;" d="M371.361,231.918l3.511-1.169"/>
		<path style="&st11;" d="M369.95,230.182l2.988-0.959"/>
		<path style="&st11;" d="M406.108,215.703v0.94c0,0.238-0.172,0.526-0.381,0.64l-0.613,0.337c-0.209,0.113-0.54,0.218-0.736,0.232     c-0.195,0.014-0.356,0.025-0.356,0.025"/>
		<path style="&st11;" d="M213.251,150.167v7.732c0,0.476-0.234,1.177-0.52,1.557l-0.793,1.058c-0.286,0.381-0.349,2.1-0.345,2.575     v15.211c0.004,0.476,0.078,1.241,0.199,1.701l2.458,9.315c0.121,0.46,0.461,1.009,0.755,1.219     c0.293,0.21,0.458,0.355,0.458,0.355"/>
		<path style="&st11;" d="M215.794,146.911l-3.154,0.777c-0.231,0.057-0.42,0.298-0.42,0.536"/>
		<path style="&st11;" d="M215.794,151.286v6.156c0,0.476-0.23,1.179-0.512,1.563l-1.818,2.478     c-0.282,0.383-0.512,1.087-0.512,1.563v17.5c0,0.475,0.2,1.198,0.444,1.606l1.241,2.07c0.245,0.409,0.783,0.937,1.195,1.174     l22.123,12.783c0.207,0.119,0.547,0.308,0.757,0.419l0.762,0.407c0.21,0.111,0.447,0.021,0.526-0.204     c0,0,2.247-3.865,3.213-5.188l3.765-4.832c0,0,0.988-1.094,1.984-1.171c0.992-0.076,1.599-0.036,2.289,0.356     c5.331,3.032,15.92,8.899,15.92,8.899s4.178,2.161,5.618,7.491c1.581,5.85,3.026,11.382,3.026,11.382s-1.01,0.576-0.625,2.017     c0.385,1.441,4.898,25.934,4.898,25.934s0.288,3.554,3.266,2.977c2.978-0.575,7.684-2.305,8.356-2.784     c0.672-0.48,1.698-0.495,2.016-3.843c0.193-2.017-0.659-10.714-0.659-10.714"/>
		<path style="&st11;" d="M215.833,185.395v5.928c0,0.476,0.335,1.063,0.746,1.304l10.272,6.041     c0.411,0.241,1.067,0.302,1.458,0.134c0.392-0.169,0.712-0.694,0.712-1.171v-4.73"/>
		<path style="&st11;" d="M218.847,187.202v2.289c0,0.475,0.333,1.065,0.741,1.312l5.945,3.614     c0.408,0.245,0.741,0.066,0.741-0.398"/>
		<path style="&st11;" d="M225.533,195.149c0.408,0.246,0.741,0.058,0.741-0.418v-3.154"/>
		<path style="&st11;" d="M218.134,186.897v3.062c0,0.477,0.333,1.067,0.741,1.313"/>
		<path style="&st11;" d="M229.21,194.856l10.952,6.386"/>
		<path style="&st11;" d="M218.948,188.829l7.402,4.348"/>
		<path style="&st11;" d="M246.674,195.748l0.179,3.13c0.014,0.236-0.044,0.613-0.129,0.836l-2.134,5.601     c-0.085,0.223-0.331,0.488-0.545,0.59l-1.151,0.545c-0.214,0.103-0.532,0.053-0.706-0.11l-1.313-0.925     c-0.173-0.163-0.333-0.49-0.354-0.728l-0.125-1.377c-0.021-0.236-0.001-0.621,0.046-0.854l0.942-3.502"/>
		<path style="&st11;" d="M244.639,193.51l1.107,4.06c0.063,0.229,0.015,0.585-0.106,0.79l-0.882,1.493     c-0.121,0.205-0.394,0.285-0.607,0.179l-0.65-0.325c-0.213-0.105-0.565-0.114-0.783-0.018l-0.933,0.375     c-0.221,0.089-0.48,0.34-0.577,0.557"/>
		<path style="&st11;" d="M239.857,199.004l1.401-0.155c0.237-0.026,0.492-0.232,0.567-0.458c0,0,0.678-2.438,2.916-5.186     c1.682-2.064,3.978-5.094,4.604-5.24"/>
		<path style="&st11;" d="M237.619,197.885c0,0,2.69-4.151,5.494-7.529c2.238-2.695,3.459-4.069,3.459-4.069     c1.068-1.018,2.582-1.45,4.522-0.498l18.676,9.96c2.289,1.629,3.561,3.612,4.018,5.901l4.107,17.273     c0.119,0.46,0.448,1.15,0.729,1.535l2.505,2.174"/>
		<path style="&st11;" d="M245.555,192.441l9.055-2.391"/>
		<path style="&st11;" d="M216.85,151.871v6.639c0,0.238-0.121,0.584-0.27,0.771l-2.042,2.555c-0.148,0.186-0.27,0.532-0.27,0.771     v15.439"/>
		<path style="&st11;" d="M214.625,178.248v1.933c0,0.238-0.138,0.502-0.305,0.586c-0.168,0.084-0.234,0.334-0.146,0.555     l1.132,2.858c0.087,0.221,0.3,0.536,0.474,0.699l1.059,1"/>
		<path style="&st11;" d="M216.971,163.935v15.439"/>
		<path style="&st11;" d="M219.553,153.2v6.639c0,0.238-0.122,0.585-0.271,0.771l-2.042,2.554"/>
		<path style="&st11;" d="M217.327,179.758v1.753c0,0.237-0.137,0.501-0.305,0.585c-0.168,0.083-0.234,0.334-0.146,0.555     l1.131,2.858c0.088,0.222,0.301,0.535,0.474,0.698l1.383,1.401"/>
		<path style="&st11;" d="M253.237,191.831l1.369,2.168c0.254,0.402,0.462,1.122,0.462,1.597v3.561"/>
		<path style="&st11;" d="M258.273,193.205v5.036"/>
		<path style="&st11;" d="M323.796,169.498l3.381-4.382c1.162-1.508,3.582-3.261,5.375-3.898l6.094-2.162     c1.794-0.637,4.656-0.466,6.362,0.38l17.606,8.729c1.705,0.844,3.677,2.984,4.38,4.752l1.793,4.508     c0.703,1.769,1.573,3.576,1.934,4.016"/>
		<path style="&st11;" d="M260.463,199.316c3.803-1.028,7.922,0.373,11.684,3.535"/>
		<path style="&st11;" d="M282.243,246.789c-1.703,3.284-4.151,5.581-7.219,6.41"/>
		<path style="&st11;" d="M131.825,131.519c0.111,0.2,0.141,0.351,0.141,0.351s0.096,7.203-0.192,8.068     c-0.288,0.864-1.537,0.96-1.537,0.96s-1.44-0.576-2.305-0.96c-0.865-0.384-1.297-0.96-1.729-1.825     c-0.432-0.865-0.816-5.235-0.384-6.963c0.19-0.763,0.942-1.357,1.723-1.784"/>
		<path style="&st11;" d="M212.031,160.426l-11.132-5.838l-36.468-19.261c0,0-0.1-0.053-0.287-0.154c0,0-0.67-0.184-1.243-1.481     c-0.573-1.297-2.938-6.563-3.205-7.097s-0.687-1.068-1.526-1.526c-0.839-0.458-19.535-9.653-19.535-9.653"/>
		<path style="&st11;" d="M168.232,99.432c-2.881,0.514-5.418,1.003-7.074,1.32c-5.037,0.967-18.327,3.752-22.842,6.003     c-4.891,2.438-8.191,7.529-9.462,12.769c-1.272,5.24-0.356,10.124,0.051,11.192c0,0,1.755,0.839,2.06,0.954     c0.306,0.114,0.725,0,1.107-0.458c0.381-0.458,4.394-4.727,4.394-4.727s0.961-1.057,1.825-0.576     c0.865,0.48,11.349,7.017,11.349,7.017s2.401,1.345,3.073,4.13c0.672,2.786,1.249,7.492,1.441,7.972     c0.192,0.48,0.576,1.729,0.768,2.209c0.192,0.48,3.458,10.374,3.65,10.758c0.192,0.384,0.96,0.864,0.96,0.864l7.348,3.986     c0,0,4.034,2.305,5.763,3.17c1.103,0.551,25.449,14.7,42.746,24.834"/>
		<path style="&st11;" d="M185.628,97.191c-3.505,0.029-9.182,0.84-14.383,1.717"/>
		<path style="&st11;" d="M131.27,130.716c0.19-0.725,1.526-3.434,2.709-4.54c1.183-1.107,4.54-3.091,6.906-1.641     c2.366,1.45,9.386,5.609,10.531,6.372s3.014,2.137,3.625,5.151c0.61,3.014,1.946,11.599,1.946,11.599"/>
		<path style="&st11;" d="M128.255,123.772c0.535-0.763,4.316-5.944,9.577-8.89c0.954-0.534,2.861-2.061,0.267-3.358     c-2.595-1.297-3.434-1.564-2.823-2.709"/>
		<path style="&st11;" d="M138.786,111.982c0.573,0.381,21.367,10.722,21.367,10.722s1.488,0.458,2.251,2.403     c0.763,1.946,2.938,6.334,3.243,7.059c0.305,0.725,0.61,1.183,1.45,1.64c0.23,0.126,34.682,18.563,36.088,19.241l10.016,5.191"/>
		<path style="&st11;" d="M160.306,122.742l52.082,26.238"/>
		<path style="&st11;" d="M143.021,106.488c3.47,0.739,14.489,3.859,23.351,8.016"/>
		<path style="&st11;" d="M138.863,111.028c7.727,0.166,16.541,1.816,26.811,5.77"/>
	</g>
	<g>
		<path style="&st6;" d="M214.958,162.344l104.056,56.195c3.783,1.709,6.409,1.831,10.377,0.61l30.601-9.538l5.723-1.755     l45.175-14.041"/>
		<path style="&st6;" d="M132.088,138.733l3.938-1.271"/>
		<path style="&st6;" d="M161.458,163.571c0,0-0.48,1.152,0.384,1.633c0.864,0.479,34.769,20.457,34.769,20.457     s1.44,0.48,2.017,0.097c0.577-0.384,2.017-1.825,2.594-2.689"/>
		<path style="&st6;" d="M202.278,183.645c0,0-1.729,2.21-2.305,2.594c-0.576,0.384-0.672,0.864-0.672,0.864l0.096,1.248"/>
		<path style="&st6;" d="M160.498,159.537c0,0-0.288,1.633-0.769,2.498c-0.48,0.864-0.768,1.345-0.768,2.017     c0,0.673,0,1.345,0,1.345s0.384,0.769,0.768,1.057s37.747,22.283,37.747,22.283s1.249,0.673,2.401,0.479     c1.152-0.191,5.859-1.729,5.859-1.729s1.152-0.672,1.44-1.345"/>
		<path style="&st6;" d="M155.023,147.627c0,0-0.384,0.48-0.192,1.441c0.192,0.96,4.034,22.474,4.034,22.474     s0.576,1.537,2.497,1.152l5.955-1.824"/>
		<path style="&st6;" d="M213.143,179.988l24.928,14.283"/>
		<path style="&st6;" d="M154.921,147.237l45.484,25.506l10.955,6.23"/>
		<path style="&st6;" d="M215.61,158.854l105.236,56.022"/>
		<path style="&st6;" d="M171.159,114.491c0,0,0.192-1.537,1.729-2.305c1.537-0.768,2.978-1.249,4.226-0.864     s2.305,0.672,2.305,3.074c0,2.401,0,8.068,0,8.068s-0.288,1.633-1.729,2.209s-4.226,1.057-5.187,0.48     c-0.96-0.577-1.44-1.345-1.44-2.594C171.063,121.31,171.159,114.491,171.159,114.491z"/>
		<path style="&st6;" d="M178.651,113.723c0,0-0.384-1.057-1.633-0.96c-1.249,0.096-2.785,0.48-3.554,1.729     c-0.336,0.546-0.384,2.689-0.384,2.689v5.859c0,0,0.096,1.345,1.537,1.633c1.44,0.288,3.649-0.672,3.938-1.825"/>
		<path style="&st6;" d="M177.306,112.954c0,0,0.672,0.576,0.672,1.633s0,7.684,0,7.684s0.192,1.537-1.249,2.017"/>
		<path style="&st6;" d="M176.25,111.033L189.12,92.4c0,0,1.407-1.752,3.65-3.746c2.593-2.305,4.226-3.362,4.226-3.362     s1.345-1.249,5.282-2.401c3.938-1.152,10.875-3.412,26.234-5.167"/>
		<path style="&st6;" d="M277.395,215.106l41.678,24.747"/>
		<path style="&st6;" d="M179.419,122.463l22.139,11.381l0.432-0.144c0,0,5.331-22.907,8.645-32.992c0,0,0.72-1.873-0.721-2.593     c-1.44-0.72-14.839-6.051-14.839-6.051s-2.977-0.96-5.378,2.257l-11.727,17.147"/>
		<path style="&st6;" d="M203.332,183.803c0,0-1.917-3.136-2.926-7.745c0,0-0.576-1.729-0.576-3.458     c0-1.729,0.847-14.938,1.009-16.424s0.864-2.017,0.864-2.017l0.576-0.864c0,0,0.433-0.865,0.433-1.297s0-8.068,0-8.068     s-0.433-0.72-0.433-1.873c0-1.153,0.145-2.593,0.865-5.907c0.72-3.313,5.187-23.916,8.788-35.585c0,0,0.721-2.305-0.144-2.881     c-0.864-0.576-16.712-7.06-16.712-7.06s-3.265-1.489-5.955,1.777"/>
		<path style="&st6;" d="M174.905,125.344c0,0,0,1.152,0.577,1.584c0.576,0.432,3.169,1.441,3.169,1.441s0.432,0.432,0.576-0.144     s0.576-2.737,1.585-3.458c0,0,0.72-0.288,0.288-0.721c-0.432-0.432-1.585-0.864-1.585-0.864"/>
		<path style="&st6;" d="M169.575,120.302c0,0-2.305,1.584-2.737,4.61c0,0,0.144,0.576,0.288,1.152l-1.009,6.627     c0,0-0.576,1.009-1.008,1.441s-1.009,1.441-1.153,2.305c-0.144,0.865-1.44,9.797-0.864,15.127l0.288,0.432     c0,0-0.144,4.034,3.602,10.949"/>
		<path style="&st6;" d="M162.659,151.676l0.144,8.092c0,0,0.144,0.873,0.72,1.305"/>
		<path style="&st6;" d="M193.49,145.946c0,0-0.432-0.72-0.432-1.584c0-0.865-0.144-2.162,0.288-2.594s0.684-0.436,1.153-0.144     s4.898,2.593,4.898,2.593s0.576,0.288,0.721,1.585c0.144,1.296-0.145,2.737-0.721,3.025"/>
		<path style="&st6;" d="M193.058,143.065c0,0,5.042,2.881,5.763,3.313c0.72,0.433,1.297,0.145,1.297,0.145"/>
		<path style="&st6;" d="M250.29,201.878c8.63-2.333,18.886,7.839,22.906,22.718c4.021,14.879,0.285,28.832-8.345,31.164"/>
		<path style="&st6;" d="M275.024,253.199l-10.173,2.561c-8.63,2.332-18.886-7.84-22.907-22.719     c-4.021-14.878-0.285-28.831,8.345-31.163l10.173-2.562"/>
		<path style="&st6;" d="M260.463,199.316c3.803-1.028,7.922,0.373,11.684,3.535"/>
		<path style="&st6;" d="M249.688,204.146c8.002-2.162,17.512,7.27,21.24,21.066c3.729,13.796,0.264,26.733-7.738,28.896"/>
		<path style="&st6;" d="M263.19,254.107c-8.002,2.163-17.512-7.269-21.24-21.065c-3.729-13.796-0.264-26.734,7.738-28.896"/>
		<path style="&st6;" d="M251.168,212.709c5.334-1.441,11.674,4.847,14.159,14.043c2.485,9.196,0.176,17.821-5.158,19.263"/>
		<path style="&st6;" d="M260.169,246.015c-5.334,1.442-11.673-4.846-14.159-14.043c-2.485-9.196-0.176-17.82,5.158-19.263"/>
		<path style="&st6;" d="M242.847,203.137c0.215,0.795,0.015,1.542-0.447,1.667"/>
		<path style="&st6;" d="M242.4,204.804c-0.461,0.125-1.01-0.419-1.225-1.216c-0.215-0.796-0.016-1.542,0.446-1.666"/>
		<path style="&st6;" d="M140.458,133.683c4.289-1.134,9.323,2.935,12.957,9.769"/>
		<path style="&st6;" d="M157.686,168.227c-0.913,4.386-2.956,7.49-5.911,8.271"/>
		<path style="&st6;" d="M164.139,171.924c-0.937,1.186-2.076,1.999-3.398,2.349"/>
		<path style="&st6;" d="M160.741,174.272l-8.966,2.226c-5.911,1.563-13.237-6.757-16.362-18.579     c-3.125-11.822-0.867-22.674,5.045-24.236l7.205-1.851"/>
		<path style="&st6;" d="M140.018,135.674c5.313-1.404,11.869,5.883,14.834,16.373"/>
		<path style="&st6;" d="M156.294,160.693c0.346,7.395-1.837,13.214-5.887,14.285"/>
		<path style="&st6;" d="M150.407,174.978c-5.426,1.435-12.152-6.201-15.021-17.055c-2.869-10.853-0.795-20.814,4.631-22.249"/>
		<path style="&st6;" d="M141.044,142.818c3.511-0.928,7.863,4.012,9.719,11.035c1.856,7.022,0.515,13.469-2.997,14.396"/>
		<path style="&st6;" d="M147.767,168.25c-3.512,0.929-7.863-4.013-9.72-11.036c-1.856-7.022-0.514-13.468,2.997-14.396"/>
		<path style="&st6;" d="M204.372,135.474l8.781,4.514"/>
		<path style="&st6;" d="M204.201,137.076l6.904,3.549"/>
		<path style="&st6;" d="M300.853,118.422v27.471"/>
		<path style="&st6;" d="M290.78,84.847c-10.141-3.756-31.037-8.618-31.037-8.618c-1.396-0.296-3.707-0.506-5.134-0.466     c0,0-0.337,0.009-0.966,0.033c-5.393,0.097-18.969,1.224-25.132,1.928"/>
		<path style="&st6;" d="M289.355,85.05c4.324-0.585,5.266,0.636,6.08,3.688c0.813,3.052,4.908,19.713,5.112,23.579l0.26,2.47     c0.025,0.237,0.045,0.625,0.045,0.863v2.391"/>
		<path style="&st6;" d="M318.709,236.7l-38.168-21.801c-0.413-0.239-0.841-0.812-0.954-1.274l-2.848-12.179     c-0.611-3.357-2.57-5.243-3.815-5.952l-23.121-12.305c-2.239-0.814-3.98,0.213-4.986,1.119l-5.685,6.827     c-0.343,0.33-8.214-3.918-8.631-4.147l-17.556-9.656"/>
		<path style="&st6;" d="M222.443,100.42c0.402-1.991,0.575-2.958,0.575-2.958c1.018-4.07,3.256-4.273,5.698-4.884     c0,0,17.704-3.663,32.151-5.291c14.448-1.628,29.913-2.442,29.913-2.442"/>
		<path style="&st6;" d="M195.75,86.271c2.849-0.61,4.681-0.814,8.75,0.61c4.069,1.424,16.889,5.901,16.889,5.901"/>
		<path style="&st6;" d="M280.492,91.897c6.604-1.111,11.051-1.862,11.051-1.862"/>
		<path style="&st6;" d="M263.299,94.783c4.699-0.787,9.255-1.551,13.288-2.229"/>
		<path style="&st6;" d="M232.379,99.906c2.636-0.427,5.791-0.945,9.252-1.516"/>
		<path style="&st6;" d="M189.646,91.562c2.689-3.266,5.955-1.777,5.955-1.777s24.453,10.266,25.382,10.73     c1.221,0.611,2.035,0.611,3.459,0.611"/>
		<path style="&st6;" d="M280.506,92.692c6.759-1.131,11.32-1.897,11.32-1.897"/>
		<path style="&st6;" d="M263.302,95.565c4.666-0.777,9.191-1.533,13.213-2.205"/>
		<path style="&st6;" d="M245.593,98.502c4.634-0.764,9.28-1.535,13.943-2.311"/>
		<path style="&st6;" d="M245.593,97.688c4.634-0.764,9.28-1.535,13.943-2.31"/>
		<path style="&st6;" d="M232.37,100.667c2.64-0.427,5.763-0.937,9.175-1.498"/>
		<path style="&st6;" d="M211.65,97.599c4.598,1.941,8.449,3.575,8.807,3.754c1.221,0.61,2.035,0.61,3.459,0.61"/>
		<path style="&st6;" d="M289.355,85.05l-21.263,2.882l-14.704,2.104l-23.487,3.672c-1.884,0.274-3.877,1.989-4.429,3.811     l-2.968,10.219"/>
		<path style="&st6;" d="M222.505,107.738l-5.554,19.123c-0.552,1.822-1.233,4.869-1.233,6.773v12.845     c0,0.238,0.173,0.521,0.384,0.63l111.379,57.801c0.211,0.11,0.385,0.394,0.385,0.632v1.703"/>
		<path style="&st6;" d="M219.022,142.274l1.912,6.251c0.139,0.455-0.095,0.653-0.521,0.44l-3.336-1.668     c-0.426-0.213-0.774-0.776-0.774-1.252v-2.356"/>
		<path style="&st6;" d="M223.171,150.93l-3.116-8.252"/>
		<path style="&st6;" d="M218.783,135.477l5.647,14.957"/>
		<path style="&st6;" d="M217.524,135.21l1.526-0.458"/>
		<path style="&st6;" d="M217.524,137.042v-3.56c0-1.903,0.441-4.955,0.981-6.78l1.155-3.899l2.443-8.241l3.967-13.385     c0,0,1.146-3.62,1.846-4.718c0.699-1.098,2.169-1.862,3.409-2.045l20.538-3.309"/>
		<path style="&st6;" d="M218.44,133.913l1.679-0.496c0,0,0.39-0.36,1.106-0.763c0.61-0.343,1.335-0.534,1.335-0.534v-2.862     l-1.488-1.412l-1.87,0.191"/>
		<path style="&st6;" d="M221.072,127.846l7.898-27.585c0.307-1.417,1.972-2.907,2.742-3.229c0.601-0.252,1.158-0.565,1.747-0.656     l55.427-8.559c1.881-0.291,3.766,0.991,4.187,2.847l4.881,21.502"/>
		<path style="&st6;" d="M288.033,87.899c1.849-0.29,2.899,0.305,3.51,2.137l4.982,21.763c0.053,0.232,0.097,0.617,0.097,0.854     v0.733"/>
		<path style="&st6;" d="M259.583,98.2l-13.978,2.401"/>
		<path style="&st6;" d="M276.595,95.279l-13.278,2.28"/>
		<path style="&st6;" d="M280.351,115.134l5.316-1.061l2.534-0.564c1.866-0.375,3.218-2.229,3.003-4.121l-1.458-12.861     c-0.215-1.891-1.926-3.175-3.802-2.853l-5.688,0.977"/>
		<path style="&st6;" d="M245.661,122.057l8.083-1.613l11.752-2.345l10.93-2.181"/>
		<path style="&st6;" d="M241.555,101.296l-9.225,1.584c0,0-2.801,0.281-3.411,3.537l-1.376,15.879     c-0.139,1.898,1.275,3.145,3.141,2.77l10.721-2.154"/>
		<path style="&st6;" d="M259.646,99.806l-13.956,2.413"/>
		<path style="&st6;" d="M276.495,96.893l-13.031,2.283"/>
		<path style="&st6;" d="M280.354,113.471l7.171-1.458c0,0,2.322-0.424,1.976-3.061l-1.334-11.447     c-0.16-1.418-1.442-2.38-2.85-2.137l-5.063,0.875"/>
		<path style="&st6;" d="M263.31,116.812l0.105-0.021l13.174-2.608"/>
		<path style="&st6;" d="M245.682,120.327l8.242-1.675l5.723-1.122"/>
		<path style="&st6;" d="M241.469,121.167l-9.747,1.944c-1.4,0.279-2.46-0.657-2.357-2.081l1.182-13.596c0,0,0-2.442,1.832-2.849     l9.336-1.696"/>
		<path style="&st6;" d="M241.79,95.072v6.563v7.258v10.938v5.715"/>
		<path style="&st6;" d="M245.453,94.461v8.801"/>
		<path style="&st6;" d="M245.453,103.313v7.669v1.293v5.647v3.248v3.748"/>
		<path style="&st6;" d="M242.858,94.975v5.336v8.377v11.447v0.729v4.562"/>
		<path style="&st6;" d="M259.646,95.105v6.3v6.41v10.403"/>
		<path style="&st6;" d="M263.31,94.418v24.116"/>
		<path style="&st6;" d="M276.587,89.84v28.921"/>
		<path style="&st6;" d="M280.249,89.323v28.675"/>
		<path style="&st6;" d="M277.655,89.578v28.98"/>
		<path style="&st6;" d="M260.785,95.029v1.9v8.241v13.869"/>
		<path style="&st6;" d="M224.315,129.201l17.422-3.462l12.447-2.46l27.054-5.346l7.304-1.443l6.938-1.431"/>
		<path style="&st6;" d="M224.315,130.829l17.422-3.462l21.018-4.154l25.787-5.096l6.938-1.431"/>
		<path style="&st6;" d="M220.246,139.351l78.267-16.452"/>
		<path style="&st6;" d="M289.492,119.442l5.596-1.142c0.232-0.048,0.598-0.002,0.812,0.102l0.901,0.44     c0.214,0.104,0.39,0.385,0.39,0.623v2.772"/>
		<path style="&st6;" d="M298.563,118.422v26.403"/>
		<path style="&st6;" d="M221.066,141.525l70.368-14.957l7.078-1.5"/>
		<path style="&st6;" d="M222.597,145.217l73.764-16.183c0.465-0.102,0.845-0.575,0.845-1.051v-1.625"/>
		<path style="&st6;" d="M225.664,151.794l59.837-13.825l5.625-1.299l7.491-1.731"/>
		<path style="&st6;" d="M291.63,134.204l-67.193,15.734"/>
		<path style="&st6;" d="M233.803,155.966l4.189-0.994l42.649-10.119l16.549-3.926v-1.87l-65.931,15.484"/>
		<path style="&st6;" d="M372.439,182.96l8.843,4.445"/>
		<path style="&st6;" d="M240.62,159.73l57.865-13.839c0.463-0.111,1.189-0.026,1.614,0.187l31.127,15.722"/>
		<path style="&st6;" d="M299.174,118.346l1.355-0.251c0.233-0.043,0.594,0.018,0.801,0.136l0.674,0.385     c0.206,0.118,0.438,0.398,0.516,0.624l4.399,12.815c0.077,0.225,0.315,0.494,0.53,0.597l100.914,49.073     c0.214,0.104,0.39,0.382,0.39,0.62v2.213"/>
		<path style="&st6;" d="M212.938,149.769c-0.164-0.173-0.385-0.488-0.491-0.701l-0.437-0.874     c-0.213-0.426-0.387-1.164-0.387-1.639v-3.051c0-0.476,0.297-1.117,0.661-1.424l1.325-1.121c0.363-0.307,0.721-0.943,0.796-1.414     c0,0,1.899-11.965,4.748-24.174c1.249-5.351,2.145-9.45,2.759-12.368"/>
		<path style="&st6;" d="M306.449,130.428l103.541,50.179c0.215,0.101,0.391,0.379,0.391,0.616v2.404     c0,0.238-0.187,0.485-0.416,0.551l-84.124,23.864c-0.229,0.065-0.59,0.03-0.803-0.078l-112.1-58.196"/>
		<path style="&st6;" d="M295.512,114.149v2.595l2.976,0.992l2.289-0.534l0.076-2.67l-0.305-2.824l-2.138,0.458L295.512,114.149     l-8.293,1.628"/>
		<path style="&st6;" d="M301.781,119.268l4.681,13.634"/>
		<path style="&st6;" d="M212.447,148.152l111.597,57.783c0.423,0.217,1.144,0.592,1.601,0.46l84.33-24.483"/>
		<path style="&st6;" d="M326.34,204.192l80.702-23.307"/>
		<path style="&st6;" d="M343.951,180.158l-5.555-2.928l-14.193-7.376"/>
		<path style="&st6;" d="M371.667,182.521l-11.054,2.999c-2.219,0.574-5.667,0.249-7.824-0.718"/>
		<path style="&st6;" d="M327.256,165.226c0,0,1.526-1.781,3.968-0.713c2.442,1.068,16.043,8.316,16.043,8.316     c1.26,0.672,2.736,2.302,3.281,3.621l1.839,5.054"/>
		<path style="&st6;" d="M333.513,162.987l17.856,9.156c1.265,0.662,2.678,2.309,3.141,3.659l2.354,8.55"/>
		<path style="&st6;" d="M338.092,159.477c1.221-0.306,2.594,0,3.51,0.458c0.915,0.458,19.825,10.098,19.825,10.098     c1.268,0.658,2.646,2.313,3.062,3.679l1.989,6.521"/>
		<path style="&st6;" d="M333.607,160.964c1.222-0.305,2.596,0,3.511,0.459c0.916,0.457,19.215,9.945,19.215,9.945     c1.268,0.657,2.646,2.313,3.062,3.679l1.99,6.521"/>
		<path style="&st6;" d="M300.955,135.719l95.911,47.652"/>
		<path style="&st6;" d="M222.179,154.784v2.925c0,0.966,1.012,2.085,1.012,2.085c0.149,0.257,0.382,0.389,0.669,0.389     c0.431,0,0.78-0.35,0.78-0.78c0-0.431-0.349-0.779-0.78-0.779c-0.079,0-0.153,0.016-0.224,0.037"/>
		<path style="&st6;" d="M223.762,159.018c-0.235-0.445-0.248-1.333-0.248-1.583l0.121-2.181"/>
		<path style="&st6;" d="M245.504,166.954v2.974c0,0.982,1.028,2.12,1.028,2.12c0.152,0.26,0.388,0.395,0.68,0.395     c0.438,0,0.792-0.355,0.792-0.793s-0.355-0.792-0.792-0.792c-0.08,0-0.155,0.015-0.228,0.037"/>
		<path style="&st6;" d="M269.131,179.049v3.021c0,0.999,1.044,2.154,1.044,2.154c0.155,0.266,0.395,0.401,0.691,0.401     c0.445,0,0.806-0.36,0.806-0.806c0-0.443-0.36-0.805-0.806-0.805c-0.081,0-0.157,0.016-0.23,0.038"/>
		<path style="&st6;" d="M292.712,191.245v3.068c0,1.016,1.061,2.188,1.061,2.188c0.157,0.27,0.4,0.408,0.703,0.408     c0.451,0,0.817-0.366,0.817-0.818c0-0.451-0.366-0.817-0.817-0.817c-0.082,0-0.161,0.016-0.235,0.038"/>
		<path style="&st6;" d="M316.29,203.469v3.117c0,1.031,1.078,2.224,1.078,2.224c0.16,0.274,0.407,0.413,0.714,0.413     c0.458,0,0.83-0.371,0.83-0.83s-0.372-0.831-0.83-0.831c-0.084,0-0.163,0.017-0.239,0.04"/>
		<path style="&st6;" d="M247.113,171.259c-0.239-0.452-0.252-1.354-0.252-1.609l0.123-2.256"/>
		<path style="&st6;" d="M270.767,183.423c-0.244-0.46-0.257-1.377-0.257-1.635l0.125-1.912"/>
		<path style="&st6;" d="M294.373,195.689c-0.247-0.468-0.261-1.399-0.261-1.662l0.127-1.942"/>
		<path style="&st6;" d="M317.978,207.983c-0.25-0.475-0.264-1.422-0.264-1.688l0.129-1.973"/>
		<path style="&st6;" d="M346.181,202.361v2.747c0,1.031-1.079,2.224-1.079,2.224c-0.159,0.273-0.406,0.413-0.713,0.413     c-0.459,0-0.831-0.372-0.831-0.83c0-0.459,0.372-0.831,0.831-0.831c0.084,0,0.163,0.016,0.239,0.039"/>
		<path style="&st6;" d="M344.492,206.506c0.251-0.475,0.265-1.422,0.265-1.688l-0.129-1.973"/>
		<path style="&st6;" d="M372.762,194.857v2.747c0,1.031-1.078,2.223-1.078,2.223c-0.159,0.274-0.407,0.414-0.714,0.414     c-0.459,0-0.83-0.372-0.83-0.831c0-0.458,0.371-0.83,0.83-0.83c0.084,0,0.163,0.016,0.239,0.039"/>
		<path style="&st6;" d="M371.074,199.001c0.25-0.475,0.264-1.421,0.264-1.688l-0.129-1.972"/>
		<path style="&st6;" d="M395.552,188.321v2.61c0,0.979-1.024,2.112-1.024,2.112c-0.151,0.26-0.387,0.393-0.678,0.393     c-0.437,0-0.79-0.353-0.79-0.789c0-0.436,0.354-0.789,0.79-0.789c0.079,0,0.154,0.015,0.227,0.037"/>
		<path style="&st6;" d="M393.948,192.259c0.238-0.451,0.251-1.351,0.251-1.604l-0.123-1.873"/>
		<path style="&st6;" d="M275.192,217.754c1.089,2.312,3.046,3.181,3.046,3.181c0.435,0.193,1.129,0.543,1.542,0.779l42.469,24.117     c0.414,0.235,1.141,0.452,1.616,0.483l3.85,0.25c0.475,0.031,1.231-0.071,1.682-0.227l34.585-11.949     c0.449-0.155,0.976-0.639,1.17-1.073l1.784-4.093"/>
		<path style="&st6;" d="M371.743,227.544l2.061,2.747c0.305,0.365,0.923,0.538,1.373,0.386l25.736-8.807     c0.451-0.153,1.035-0.604,1.3-0.999l1.329-1.612c0.264-0.396,0.479-1.109,0.479-1.585v-1.348"/>
		<path style="&st6;" d="M293.561,232.722l18.128,8.1"/>
		<path style="&st6;" d="M294.022,238.396l10.951,4.867"/>
		<path style="&st6;" d="M293.555,242.184l8.672,5.048l3.663-2.138"/>
		<path style="&st6;" d="M305.387,241.845v2.314c0,0.238,0.181,0.507,0.4,0.597l1.432,0.582c0.22,0.09,0.571,0.072,0.782-0.04     l0.763-0.407c0.21-0.111,0.557-0.117,0.771-0.014l3.19,1.554c0.214,0.104,0.581,0.162,0.816,0.127l3.489-0.7"/>
		<path style="&st6;" d="M319.015,218.539v19.585c0,0.477,0.025,1.254,0.058,1.729c0,0,0.095,3.257,1.011,4.478"/>
		<path style="&st6;" d="M324.721,207.768v8.539c0,0.951,0.499,1.593,1.108,1.425"/>
		<path style="&st6;" d="M324.813,221.896v17.5c0,0.951-0.373,2.413-0.828,3.249l-0.175,0.319c-0.455,0.836-0.523,1.824-0.15,2.197     s0.679,0.678,0.679,0.678"/>
		<path style="&st6;" d="M409.374,185.65c-0.011-0.862-0.011-1.472-0.011-1.472"/>
		<path style="&st6;" d="M403.65,216.514l3.063-1.051c0.45-0.155,0.992-0.63,1.205-1.056c0,0,2.665-5.331,3.276-10.52     c0.61-5.189,0.61-9.513,0.61-9.513c0-0.476-0.324-1.081-0.721-1.345c0,0-1.11-0.741-1.416-1.962     c-0.121-0.481-0.193-1.885-0.237-3.129"/>
		<path style="&st6;" d="M359.482,231.666l0.618-0.213l26.111-8.958l1.394-0.479"/>
		<path style="&st6;" d="M338.971,238.703l10.409-3.571"/>
		<path style="&st6;" d="M323.897,243.873l9.953-3.414l0.921-0.316"/>
		<path style="&st6;" d="M327.866,213.4c0,0.477,0.163,1.219,0.362,1.651l1.106,2.396c0.199,0.432,0.385,1.175,0.412,1.649     c0,0,0.561,9.819-0.05,15.313s-1.033,7.397-1.033,7.397c-0.103,0.464-0.188,1.233-0.188,1.709v2.492"/>
		<path style="&st6;" d="M327.866,207.551v1.729"/>
		<path style="&st6;" d="M405.091,197.478c0,7.937-1.544,12.31-1.544,12.31c-0.158,0.448-0.657,0.939-1.109,1.09l-69.782,23.261     c-0.452,0.15-0.759-0.11-0.683-0.581c0,0,0.359-2.21,0.777-5.555c0.61-4.884,0.21-6.487,0.21-6.487     c-0.115-0.461,0.16-0.959,0.612-1.106l72.434-23.235"/>
		<path style="&st6;" d="M329.472,237.118l30.225-10.082l41.103-13.591l4.901-1.622"/>
		<path style="&st6;" d="M321.062,206.133v7.28c0,0.476-0.13,1.232-0.289,1.681l-0.537,1.512"/>
		<path style="&st6;" d="M325.627,211.684v-0.825c0-0.477,0.378-0.961,0.84-1.077l10.035-2.522c0.462-0.115,1.191-0.377,1.621-0.58     l1.679-0.793c0.431-0.203,0.966-0.393,1.189-0.421c0.224-0.027,0.407,0.247,0.407,0.61c0,0.364-0.318,0.886-0.707,1.161     l-2.644,1.869c-0.389,0.274-1.084,0.594-1.546,0.71l-4.266,1.072"/>
		<path style="&st6;" d="M331.427,209.483l0.407,0.406c0.168,0.169,0.306,0.501,0.306,0.739v1.271c0,0.237-0.188,0.481-0.419,0.542     l-1.503,0.392c-0.229,0.06-0.599,0.034-0.817-0.058l-0.357-0.148"/>
		<path style="&st6;" d="M325.627,211.912v1.005c0,0.118,0.069,0.284,0.154,0.368l0.202,0.203c0.084,0.084,0.246,0.125,0.36,0.092     l0.914-0.271c0.114-0.034,0.208-0.159,0.208-0.277v-1.615"/>
		<path style="&st6;" d="M327.466,213.031l2.329-0.767c0.226-0.075,0.411-0.33,0.411-0.568v-0.991"/>
		<path style="&st6;" d="M326.238,211.621l3.357-1.019"/>
		<path style="&st6;" d="M407.677,188.446l1.873-0.545c0.458-0.133,0.831-0.632,0.831-1.107v-0.559     c0-0.477-0.373-0.756-0.831-0.624l-8.156,2.366c-0.457,0.133-1.217,0.295-1.688,0.359l-2.458,0.337     c-0.472,0.064-0.857,0.393-0.857,0.729c0,0.335,0.388,0.649,0.861,0.697l2.653,0.271c0.474,0.048,1.234-0.021,1.691-0.154     l2.537-0.738"/>
		<path style="&st6;" d="M404.226,189.481l0.878,0.438c0.076,0.039,0.207,0.05,0.289,0.026l2.143-0.625     c0.082-0.024,0.149-0.114,0.149-0.199v-1.367c0-0.086-0.062-0.189-0.137-0.229l-0.352-0.187c-0.15-0.081-0.408-0.106-0.572-0.056     l-1.89,0.58"/>
		<path style="&st6;" d="M357.161,206.176l1.005-0.312l48.349-14.49"/>
		<path style="&st6;" d="M330.588,214.323l12.38-3.742l2.27-0.704"/>
		<path style="&st6;" d="M406.515,189.644v1.418c0,0.172,0.065,0.436,0.146,0.587l1.412,2.654c0.08,0.151,0.143,0.415,0.139,0.587     c0,0-0.171,7.65-0.375,10.295c-0.203,2.646-0.305,4.121-1.373,6.639c-0.889,2.095-2.442,4.503-2.442,4.503"/>
		<path style="&st6;" d="M317.945,236.396v2.899"/>
		<path style="&st6;" d="M315.199,241.889c0.183,1.191,2.411,5.373,2.289,5.19c1.221,1.831,4.542,6.162,4.542,6.162     c0.104,0.137,0.328,0.229,0.498,0.208c0,0,0.912-0.113,1.827-1.029c0.916-0.916,1.146-1.834,1.146-1.834     c0.041-0.167-0.015-0.409-0.125-0.541c0,0-1.479-1.44-2.699-3.882"/>
		<path style="&st6;" d="M328.629,245.247l18.104-5.986c0.451-0.149,0.821-0.66,0.821-1.137v-2.187"/>
		<path style="&st6;" d="M343.586,238.379v1.984"/>
		<path style="&st6;" d="M348.317,235.633v3.814"/>
		<path style="&st6;" d="M388.455,222.965v2.034c0,0.476,0.368,0.738,0.818,0.583"/>
		<path style="&st6;" d="M389.065,223.931c0,0.477,0.367,0.735,0.815,0.576l12.105-4.305c0.448-0.159,0.814-0.679,0.814-1.155"/>
		<path style="&st6;" d="M392.423,220.37v3.205"/>
		<path style="&st6;" d="M372.659,227.196l2.061,2.747c0.305,0.365,0.923,0.539,1.373,0.386"/>
		<path style="&st6;" d="M366.478,230.239l0.668-0.16c0.354-0.11,0.895-0.042,1.205,0.152l1.79,1.178"/>
		<path style="&st6;" d="M369.981,231.013c0.311,0.193,0.275,0.443-0.077,0.554l-1.2,0.378c-0.354,0.111-0.896,0.044-1.205-0.15     l-1.326-0.842"/>
		<path style="&st6;" d="M366.886,229.426c0.529-0.209,1.467-0.314,1.933,0.051l2.289,1.425c0.662,0.56,0.326,1.113-0.203,1.322     l-1.679,0.61c-0.925,0.295-1.875,0.162-2.34-0.203l-1.069-0.713"/>
		<path style="&st6;" d="M371.361,231.918l3.511-1.169"/>
		<path style="&st6;" d="M369.95,230.182l2.988-0.959"/>
		<path style="&st6;" d="M406.108,215.703v0.94c0,0.238-0.172,0.526-0.381,0.64l-0.613,0.337c-0.209,0.113-0.54,0.218-0.736,0.232     c-0.195,0.014-0.356,0.025-0.356,0.025"/>
		<path style="&st6;" d="M213.251,150.167v7.732c0,0.476-0.234,1.177-0.52,1.557l-0.793,1.058c-0.286,0.381-0.349,2.1-0.345,2.575     v15.211c0.004,0.476,0.078,1.241,0.199,1.701l2.458,9.315c0.121,0.46,0.461,1.009,0.755,1.219     c0.293,0.21,0.458,0.355,0.458,0.355"/>
		<path style="&st6;" d="M215.794,146.911l-3.154,0.777c-0.231,0.057-0.42,0.298-0.42,0.536"/>
		<path style="&st6;" d="M215.794,151.286v6.156c0,0.476-0.23,1.179-0.512,1.563l-1.818,2.478     c-0.282,0.383-0.512,1.087-0.512,1.563v17.5c0,0.475,0.2,1.198,0.444,1.606l1.241,2.07c0.245,0.409,0.783,0.937,1.195,1.174     l22.123,12.783c0.207,0.119,0.547,0.308,0.757,0.419l0.762,0.407c0.21,0.111,0.447,0.021,0.526-0.204     c0,0,2.247-3.865,3.213-5.188l3.765-4.832c0,0,0.988-1.094,1.984-1.171c0.992-0.076,1.599-0.036,2.289,0.356     c5.331,3.032,15.92,8.899,15.92,8.899s4.178,2.161,5.618,7.491c1.581,5.85,3.026,11.382,3.026,11.382s-1.01,0.576-0.625,2.017     c0.385,1.441,4.898,25.934,4.898,25.934s0.288,3.554,3.266,2.977c2.978-0.575,7.684-2.305,8.356-2.784     c0.672-0.48,1.698-0.495,2.016-3.843c0.193-2.017-0.659-10.714-0.659-10.714"/>
		<path style="&st6;" d="M215.833,185.395v5.928c0,0.476,0.335,1.063,0.746,1.304l10.272,6.041     c0.411,0.241,1.067,0.302,1.458,0.134c0.392-0.169,0.712-0.694,0.712-1.171v-4.73"/>
		<path style="&st6;" d="M218.847,187.202v2.289c0,0.475,0.333,1.065,0.741,1.312l5.945,3.614c0.408,0.245,0.741,0.066,0.741-0.398     "/>
		<path style="&st6;" d="M225.533,195.149c0.408,0.246,0.741,0.058,0.741-0.418v-3.154"/>
		<path style="&st6;" d="M218.134,186.897v3.062c0,0.477,0.333,1.067,0.741,1.313"/>
		<path style="&st6;" d="M229.21,194.856l10.952,6.386"/>
		<path style="&st6;" d="M218.948,188.829l7.402,4.348"/>
		<path style="&st6;" d="M246.674,195.748l0.179,3.13c0.014,0.236-0.044,0.613-0.129,0.836l-2.134,5.601     c-0.085,0.223-0.331,0.488-0.545,0.59l-1.151,0.545c-0.214,0.103-0.532,0.053-0.706-0.11l-1.313-0.925     c-0.173-0.163-0.333-0.49-0.354-0.728l-0.125-1.377c-0.021-0.236-0.001-0.621,0.046-0.854l0.942-3.502"/>
		<path style="&st6;" d="M244.639,193.51l1.107,4.06c0.063,0.229,0.015,0.585-0.106,0.79l-0.882,1.493     c-0.121,0.205-0.394,0.285-0.607,0.179l-0.65-0.325c-0.213-0.105-0.565-0.114-0.783-0.018l-0.933,0.375     c-0.221,0.089-0.48,0.34-0.577,0.557"/>
		<path style="&st6;" d="M239.857,199.004l1.401-0.155c0.237-0.026,0.492-0.232,0.567-0.458c0,0,0.678-2.438,2.916-5.186     c1.682-2.064,3.978-5.094,4.604-5.24"/>
		<path style="&st6;" d="M237.619,197.885c0,0,2.69-4.151,5.494-7.529c2.238-2.695,3.459-4.069,3.459-4.069     c1.068-1.018,2.582-1.45,4.522-0.498l18.676,9.96c2.289,1.629,3.561,3.612,4.018,5.901l4.107,17.273     c0.119,0.46,0.448,1.15,0.729,1.535l2.505,2.174"/>
		<path style="&st6;" d="M245.555,192.441l9.055-2.391"/>
		<path style="&st6;" d="M216.85,151.871v6.639c0,0.238-0.121,0.584-0.27,0.771l-2.042,2.555c-0.148,0.186-0.27,0.532-0.27,0.771     v15.439"/>
		<path style="&st6;" d="M214.625,178.248v1.933c0,0.238-0.138,0.502-0.305,0.586c-0.168,0.084-0.234,0.334-0.146,0.555     l1.132,2.858c0.087,0.221,0.3,0.536,0.474,0.699l1.059,1"/>
		<path style="&st6;" d="M216.971,163.935v15.439"/>
		<path style="&st6;" d="M219.553,153.2v6.639c0,0.238-0.122,0.585-0.271,0.771l-2.042,2.554"/>
		<path style="&st6;" d="M217.327,179.758v1.753c0,0.237-0.137,0.501-0.305,0.585c-0.168,0.083-0.234,0.334-0.146,0.555     l1.131,2.858c0.088,0.222,0.301,0.535,0.474,0.698l1.383,1.401"/>
		<path style="&st6;" d="M253.237,191.831l1.369,2.168c0.254,0.402,0.462,1.122,0.462,1.597v3.561"/>
		<path style="&st6;" d="M258.273,193.205v5.036"/>
		<path style="&st6;" d="M323.796,169.498l3.381-4.382c1.162-1.508,3.582-3.261,5.375-3.898l6.094-2.162     c1.794-0.637,4.656-0.466,6.362,0.38l17.606,8.729c1.705,0.844,3.677,2.984,4.38,4.752l1.793,4.508     c0.703,1.769,1.573,3.576,1.934,4.016"/>
		<path style="&st6;" d="M260.463,199.316c3.803-1.028,7.922,0.373,11.684,3.535"/>
		<path style="&st6;" d="M282.243,246.789c-1.703,3.284-4.151,5.581-7.219,6.41"/>
		<path style="&st6;" d="M131.825,131.519c0.111,0.2,0.141,0.351,0.141,0.351s0.096,7.203-0.192,8.068     c-0.288,0.864-1.537,0.96-1.537,0.96s-1.44-0.576-2.305-0.96c-0.865-0.384-1.297-0.96-1.729-1.825     c-0.432-0.865-0.816-5.235-0.384-6.963c0.19-0.763,0.942-1.357,1.723-1.784"/>
		<path style="&st6;" d="M212.031,160.426l-11.132-5.838l-36.468-19.261c0,0-0.1-0.053-0.287-0.154c0,0-0.67-0.184-1.243-1.481     c-0.573-1.297-2.938-6.563-3.205-7.097s-0.687-1.068-1.526-1.526c-0.839-0.458-19.535-9.653-19.535-9.653"/>
		<path style="&st6;" d="M168.232,99.432c-2.881,0.514-5.418,1.003-7.074,1.32c-5.037,0.967-18.327,3.752-22.842,6.003     c-4.891,2.438-8.191,7.529-9.462,12.769c-1.272,5.24-0.356,10.124,0.051,11.192c0,0,1.755,0.839,2.06,0.954     c0.306,0.114,0.725,0,1.107-0.458c0.381-0.458,4.394-4.727,4.394-4.727s0.961-1.057,1.825-0.576     c0.865,0.48,11.349,7.017,11.349,7.017s2.401,1.345,3.073,4.13c0.672,2.786,1.249,7.492,1.441,7.972     c0.192,0.48,0.576,1.729,0.768,2.209c0.192,0.48,3.458,10.374,3.65,10.758c0.192,0.384,0.96,0.864,0.96,0.864l7.348,3.986     c0,0,4.034,2.305,5.763,3.17c1.103,0.551,25.449,14.7,42.746,24.834"/>
		<path style="&st6;" d="M185.628,97.191c-3.506,0.029-9.182,0.84-14.383,1.717"/>
		<path style="&st6;" d="M131.27,130.716c0.19-0.725,1.526-3.434,2.709-4.54c1.183-1.107,4.54-3.091,6.906-1.641     c2.366,1.45,9.386,5.609,10.531,6.372s3.014,2.137,3.625,5.151c0.61,3.014,1.946,11.599,1.946,11.599"/>
		<path style="&st6;" d="M128.255,123.772c0.535-0.763,4.316-5.944,9.577-8.89c0.954-0.534,2.861-2.061,0.267-3.358     c-2.595-1.297-3.434-1.564-2.823-2.709"/>
		<path style="&st6;" d="M138.786,111.982c0.573,0.381,21.367,10.722,21.367,10.722s1.488,0.458,2.251,2.403     c0.763,1.946,2.938,6.334,3.243,7.059c0.305,0.725,0.61,1.183,1.45,1.64c0.23,0.126,34.682,18.563,36.088,19.241l10.016,5.191"/>
		<path style="&st6;" d="M160.306,122.742l52.082,26.238"/>
		<path style="&st6;" d="M143.021,106.488c3.47,0.739,14.489,3.859,23.351,8.016"/>
		<path style="&st6;" d="M138.863,111.028c7.727,0.166,16.541,1.816,26.811,5.77"/>
	</g>
</g>
<g id="Code">
	<text transform="matrix(1 0 0 1 134.2129 17.1392)"><tspan x="0" y="0" style="&st9; &st10;">Antenna Cord</tspan><tspan x="0" y="10" style="&st9; &st10;">Sub-Assembly</tspan></text>
	<path style="&st2;" d="M163.452,32.91v8.747l36.195,77.667"/>
	<path style="&st1;" d="M163.452,32.91v8.747l36.195,77.667"/>
	<text transform="matrix(1 0 0 1 221.8794 17.1392)"><tspan x="0" y="0" style="&st9; &st10;">Antenna Cord</tspan><tspan x="0" y="10" style="&st9; &st10;">Sub-Assembly</tspan></text>
	<path style="&st2;" d="M251.119,32.91v8.747l-17.082,69.415"/>
	<path style="&st1;" d="M251.119,32.91v8.747l-17.082,69.415"/>
	<text transform="matrix(1 0 0 1 311.5459 17.1392)"><tspan x="0" y="0" style="&st9; &st10;">Pillar Antenna</tspan><tspan x="0" y="10" style="&st9; &st10;">Pole Sub-Assembly</tspan></text>
	<path style="&st2;" d="M352.032,32.91v8.747l-101.778,63.254"/>
	<path style="&st1;" d="M352.032,32.91v8.747l-101.778,63.254"/>
	<text transform="matrix(1 0 0 1 3.3208 115.6953)"><tspan x="0" y="0" style="&st9; &st10;">Pillar Antenna</tspan><tspan x="0" y="10" style="&st9; &st10;">Pole Sub-Assembly</tspan></text>
	<path style="&st2;" d="M164.547,132.851l-63.51-15.322h-11"/>
	<path style="&st1;" d="M164.547,132.851l-63.51-15.322h-11"/>
</g>
</svg>