<?xml version="1.0"?>
<!-- Generator: Adobe Illustrator 10.0, SVG Export Plug-In . SVG Version: 3.0.0 Build 77)  -->
<!DOCTYPE svg PUBLIC "-//W3C//DTD SVG 1.0//EN" "http://www.w3.org/TR/2001/REC-SVG-20010904/DTD/svg10.dtd"[
	<!ENTITY ns_flows "http://ns.adobe.com/Flows/1.0/">
	<!ENTITY ns_svg "http://www.w3.org/2000/svg">
	<!ENTITY ns_xlink "http://www.w3.org/1999/xlink">
	<!ENTITY st0 "fill:none;stroke:#000000;stroke-linecap:round;stroke-linejoin:round;">
	<!ENTITY st1 "fill:none;stroke:#000000;stroke-width:0.6;stroke-linecap:round;stroke-linejoin:round;">
	<!ENTITY st2 "font-size:6px;">
	<!ENTITY st3 "font-family:'Arial';">
	<!ATTLIST svg
		ewd:ver CDATA #IMPLIED
		xmlns:ewd CDATA #FIXED "http://shcl.co.jp/ewd"
		xmlns:a CDATA #FIXED "http://ns.adobe.com/AdobeSVGViewerExtensions/3.0/">
	<!ATTLIST g
		ewd:pinNo CDATA #IMPLIED>
]>
<svg width="265.588" height="86.553" viewBox="0 0 265.588 86.553" style="overflow:visible;enable-background:new 0 0 265.588 86.553" xml:space="preserve" onload="call_execInitLoadProc_svg('connector')" ewd:ver="2.1.2.9" xmlns="&ns_svg;" xmlns:ewd="http://shcl.co.jp/ewd" xmlns:a="http://ns.adobe.com/AdobeSVGViewerExtensions/3.0/" xmlns:xlink="&ns_xlink;">
<script type="text/javascript" xlink:href="../../../../../system/js/ewd/fig/svgfig.js"/>
<g id="レイヤー_1">
	<path style="&st0;" d="M140.727,17.498c-3.129,0-5.666,2.537-5.666,5.666"/>
	<path style="&st0;" d="M135.061,69.056c0,3.129,2.537,5.666,5.666,5.666"/>
	<path style="&st0;" d="M259.423,74.721c3.129,0,5.665-2.537,5.665-5.666"/>
	<path style="&st0;" d="M265.088,23.163c0-3.129-2.536-5.666-5.665-5.666"/>
	<path style="&st0;" d="M165.373,83.22c0,1.564,1.268,2.833,2.833,2.833"/>
	<path style="&st0;" d="M231.945,86.053c1.564,0,2.832-1.269,2.832-2.833"/>
	<path style="&st1;" d="M151.774,43.56c0-0.704-0.57-1.274-1.274-1.274"/>
	<path style="&st1;" d="M150.5,42.285c-0.704,0-1.275,0.57-1.275,1.274"/>
	<path style="&st1;" d="M149.225,43.56c0,0.704,0.571,1.275,1.275,1.275"/>
	<path style="&st1;" d="M150.5,44.834c0.704,0,1.274-0.571,1.274-1.275"/>
	<path style="&st1;" d="M151.455,43.56c0-0.527-0.427-0.955-0.955-0.955"/>
	<path style="&st1;" d="M150.5,42.605c-0.527,0-0.955,0.427-0.955,0.955"/>
	<path style="&st1;" d="M149.545,43.56c0,0.527,0.427,0.955,0.955,0.955"/>
	<path style="&st1;" d="M150.5,44.514c0.527,0,0.955-0.427,0.955-0.955"/>
	<path style="&st1;" d="M161.689,43.56c0-0.704-0.57-1.274-1.274-1.274"/>
	<path style="&st1;" d="M160.415,42.285c-0.704,0-1.275,0.57-1.275,1.274"/>
	<path style="&st1;" d="M159.14,43.56c0,0.704,0.571,1.275,1.275,1.275"/>
	<path style="&st1;" d="M160.415,44.834c0.704,0,1.274-0.571,1.274-1.275"/>
	<path style="&st1;" d="M161.37,43.56c0-0.527-0.428-0.955-0.955-0.955"/>
	<path style="&st1;" d="M160.415,42.605c-0.527,0-0.955,0.427-0.955,0.955"/>
	<path style="&st1;" d="M159.46,43.56c0,0.527,0.427,0.955,0.955,0.955"/>
	<path style="&st1;" d="M160.415,44.514c0.527,0,0.955-0.427,0.955-0.955"/>
	<path style="&st1;" d="M171.604,43.56c0-0.704-0.571-1.274-1.274-1.274"/>
	<path style="&st1;" d="M170.33,42.285c-0.704,0-1.275,0.57-1.275,1.274"/>
	<path style="&st1;" d="M169.055,43.56c0,0.704,0.571,1.275,1.275,1.275"/>
	<path style="&st1;" d="M170.33,44.834c0.704,0,1.274-0.571,1.274-1.275"/>
	<path style="&st1;" d="M171.285,43.56c0-0.527-0.428-0.955-0.955-0.955"/>
	<path style="&st1;" d="M170.33,42.605c-0.527,0-0.955,0.427-0.955,0.955"/>
	<path style="&st1;" d="M169.375,43.56c0,0.527,0.428,0.955,0.955,0.955"/>
	<path style="&st1;" d="M170.33,44.514c0.527,0,0.955-0.427,0.955-0.955"/>
	<path style="&st1;" d="M181.52,43.56c0-0.704-0.571-1.274-1.274-1.274"/>
	<path style="&st1;" d="M180.245,42.285c-0.704,0-1.275,0.57-1.275,1.274"/>
	<path style="&st1;" d="M178.97,43.56c0,0.704,0.571,1.275,1.275,1.275"/>
	<path style="&st1;" d="M180.245,44.834c0.704,0,1.274-0.571,1.274-1.275"/>
	<path style="&st1;" d="M181.2,43.56c0-0.527-0.428-0.955-0.955-0.955"/>
	<path style="&st1;" d="M180.245,42.605c-0.527,0-0.955,0.427-0.955,0.955"/>
	<path style="&st1;" d="M179.29,43.56c0,0.527,0.428,0.955,0.955,0.955"/>
	<path style="&st1;" d="M180.245,44.514c0.527,0,0.955-0.427,0.955-0.955"/>
	<path style="&st1;" d="M191.435,43.56c0-0.704-0.571-1.274-1.274-1.274"/>
	<path style="&st1;" d="M190.16,42.285c-0.704,0-1.275,0.57-1.275,1.274"/>
	<path style="&st1;" d="M188.885,43.56c0,0.704,0.571,1.275,1.275,1.275"/>
	<path style="&st1;" d="M190.16,44.834c0.704,0,1.274-0.571,1.274-1.275"/>
	<path style="&st1;" d="M191.115,43.56c0-0.527-0.428-0.955-0.955-0.955"/>
	<path style="&st1;" d="M190.16,42.605c-0.527,0-0.955,0.427-0.955,0.955"/>
	<path style="&st1;" d="M189.205,43.56c0,0.527,0.428,0.955,0.955,0.955"/>
	<path style="&st1;" d="M190.16,44.514c0.527,0,0.955-0.427,0.955-0.955"/>
	<path style="&st1;" d="M201.35,43.56c0-0.704-0.571-1.274-1.275-1.274"/>
	<path style="&st1;" d="M200.075,42.285c-0.704,0-1.274,0.57-1.274,1.274"/>
	<path style="&st1;" d="M198.8,43.56c0,0.704,0.571,1.275,1.274,1.275"/>
	<path style="&st1;" d="M200.075,44.834c0.704,0,1.275-0.571,1.275-1.275"/>
	<path style="&st1;" d="M201.03,43.56c0-0.527-0.428-0.955-0.955-0.955"/>
	<path style="&st1;" d="M200.075,42.605c-0.527,0-0.955,0.427-0.955,0.955"/>
	<path style="&st1;" d="M199.12,43.56c0,0.527,0.428,0.955,0.955,0.955"/>
	<path style="&st1;" d="M200.075,44.514c0.527,0,0.955-0.427,0.955-0.955"/>
	<path style="&st1;" d="M211.265,43.56c0-0.704-0.571-1.274-1.275-1.274"/>
	<path style="&st1;" d="M209.99,42.285c-0.704,0-1.274,0.57-1.274,1.274"/>
	<path style="&st1;" d="M208.715,43.56c0,0.704,0.571,1.275,1.274,1.275"/>
	<path style="&st1;" d="M209.99,44.834c0.704,0,1.275-0.571,1.275-1.275"/>
	<path style="&st1;" d="M210.945,43.56c0-0.527-0.428-0.955-0.955-0.955"/>
	<path style="&st1;" d="M209.99,42.605c-0.527,0-0.955,0.427-0.955,0.955"/>
	<path style="&st1;" d="M209.035,43.56c0,0.527,0.428,0.955,0.955,0.955"/>
	<path style="&st1;" d="M209.99,44.514c0.527,0,0.955-0.427,0.955-0.955"/>
	<path style="&st1;" d="M221.18,43.56c0-0.704-0.571-1.274-1.275-1.274"/>
	<path style="&st1;" d="M219.905,42.285c-0.704,0-1.274,0.57-1.274,1.274"/>
	<path style="&st1;" d="M218.63,43.56c0,0.704,0.57,1.275,1.274,1.275"/>
	<path style="&st1;" d="M219.905,44.834c0.704,0,1.275-0.571,1.275-1.275"/>
	<path style="&st1;" d="M220.86,43.56c0-0.527-0.428-0.955-0.955-0.955"/>
	<path style="&st1;" d="M219.905,42.605c-0.527,0-0.955,0.427-0.955,0.955"/>
	<path style="&st1;" d="M218.95,43.56c0,0.527,0.428,0.955,0.955,0.955"/>
	<path style="&st1;" d="M219.905,44.514c0.527,0,0.955-0.427,0.955-0.955"/>
	<path style="&st1;" d="M231.095,43.56c0-0.704-0.571-1.274-1.275-1.274"/>
	<path style="&st1;" d="M229.82,42.285c-0.704,0-1.275,0.57-1.275,1.274"/>
	<path style="&st1;" d="M228.545,43.56c0,0.704,0.571,1.275,1.275,1.275"/>
	<path style="&st1;" d="M229.82,44.834c0.704,0,1.275-0.571,1.275-1.275"/>
	<path style="&st1;" d="M230.774,43.56c0-0.527-0.427-0.955-0.955-0.955"/>
	<path style="&st1;" d="M229.82,42.605c-0.527,0-0.955,0.427-0.955,0.955"/>
	<path style="&st1;" d="M228.865,43.56c0,0.527,0.427,0.955,0.955,0.955"/>
	<path style="&st1;" d="M229.82,44.514c0.527,0,0.955-0.427,0.955-0.955"/>
	<path style="&st1;" d="M241.009,43.56c0-0.704-0.57-1.274-1.274-1.274"/>
	<path style="&st1;" d="M239.735,42.285c-0.704,0-1.275,0.57-1.275,1.274"/>
	<path style="&st1;" d="M238.459,43.56c0,0.704,0.571,1.275,1.275,1.275"/>
	<path style="&st1;" d="M239.735,44.834c0.704,0,1.274-0.571,1.274-1.275"/>
	<path style="&st1;" d="M240.689,43.56c0-0.527-0.427-0.955-0.954-0.955"/>
	<path style="&st1;" d="M239.735,42.605c-0.527,0-0.954,0.427-0.954,0.955"/>
	<path style="&st1;" d="M238.781,43.56c0,0.527,0.427,0.955,0.954,0.955"/>
	<path style="&st1;" d="M239.735,44.514c0.527,0,0.954-0.427,0.954-0.955"/>
	<path style="&st1;" d="M250.925,43.56c0-0.704-0.571-1.274-1.275-1.274"/>
	<path style="&st1;" d="M249.65,42.285c-0.704,0-1.274,0.57-1.274,1.274"/>
	<path style="&st1;" d="M248.375,43.56c0,0.704,0.57,1.275,1.274,1.275"/>
	<path style="&st1;" d="M249.65,44.834c0.704,0,1.275-0.571,1.275-1.275"/>
	<path style="&st1;" d="M250.605,43.56c0-0.527-0.428-0.955-0.955-0.955"/>
	<path style="&st1;" d="M249.65,42.605c-0.527,0-0.954,0.427-0.954,0.955"/>
	<path style="&st1;" d="M248.696,43.56c0,0.527,0.427,0.955,0.954,0.955"/>
	<path style="&st1;" d="M249.65,44.514c0.527,0,0.955-0.427,0.955-0.955"/>
	<path style="&st1;" d="M250.925,57.724c0-0.704-0.571-1.275-1.275-1.275"/>
	<path style="&st1;" d="M249.65,56.449c-0.704,0-1.274,0.571-1.274,1.275"/>
	<path style="&st1;" d="M248.375,57.724c0,0.704,0.57,1.275,1.274,1.275"/>
	<path style="&st1;" d="M249.65,58.999c0.704,0,1.275-0.571,1.275-1.275"/>
	<path style="&st1;" d="M250.605,57.724c0-0.527-0.428-0.955-0.955-0.955"/>
	<path style="&st1;" d="M249.65,56.77c-0.527,0-0.954,0.427-0.954,0.955"/>
	<path style="&st1;" d="M248.696,57.724c0,0.527,0.427,0.955,0.954,0.955"/>
	<path style="&st1;" d="M249.65,58.679c0.527,0,0.955-0.428,0.955-0.955"/>
	<path style="&st1;" d="M241.009,57.724c0-0.704-0.57-1.275-1.274-1.275"/>
	<path style="&st1;" d="M239.735,56.449c-0.704,0-1.275,0.571-1.275,1.275"/>
	<path style="&st1;" d="M238.459,57.724c0,0.704,0.571,1.275,1.275,1.275"/>
	<path style="&st1;" d="M239.735,58.999c0.704,0,1.274-0.571,1.274-1.275"/>
	<path style="&st1;" d="M240.689,57.724c0-0.527-0.427-0.955-0.954-0.955"/>
	<path style="&st1;" d="M239.735,56.77c-0.527,0-0.954,0.427-0.954,0.955"/>
	<path style="&st1;" d="M238.781,57.724c0,0.527,0.427,0.955,0.954,0.955"/>
	<path style="&st1;" d="M239.735,58.679c0.527,0,0.954-0.428,0.954-0.955"/>
	<path style="&st1;" d="M231.095,57.724c0-0.704-0.571-1.275-1.275-1.275"/>
	<path style="&st1;" d="M229.82,56.449c-0.704,0-1.275,0.571-1.275,1.275"/>
	<path style="&st1;" d="M228.545,57.724c0,0.704,0.571,1.275,1.275,1.275"/>
	<path style="&st1;" d="M229.82,58.999c0.704,0,1.275-0.571,1.275-1.275"/>
	<path style="&st1;" d="M230.774,57.724c0-0.527-0.427-0.955-0.955-0.955"/>
	<path style="&st1;" d="M229.82,56.77c-0.527,0-0.955,0.427-0.955,0.955"/>
	<path style="&st1;" d="M228.865,57.724c0,0.527,0.427,0.955,0.955,0.955"/>
	<path style="&st1;" d="M229.82,58.679c0.527,0,0.955-0.428,0.955-0.955"/>
	<path style="&st1;" d="M221.18,57.724c0-0.704-0.571-1.275-1.275-1.275"/>
	<path style="&st1;" d="M219.905,56.449c-0.704,0-1.274,0.571-1.274,1.275"/>
	<path style="&st1;" d="M218.63,57.724c0,0.704,0.57,1.275,1.274,1.275"/>
	<path style="&st1;" d="M219.905,58.999c0.704,0,1.275-0.571,1.275-1.275"/>
	<path style="&st1;" d="M220.86,57.724c0-0.527-0.428-0.955-0.955-0.955"/>
	<path style="&st1;" d="M219.905,56.77c-0.527,0-0.955,0.427-0.955,0.955"/>
	<path style="&st1;" d="M218.95,57.724c0,0.527,0.428,0.955,0.955,0.955"/>
	<path style="&st1;" d="M219.905,58.679c0.527,0,0.955-0.428,0.955-0.955"/>
	<path style="&st1;" d="M211.265,57.724c0-0.704-0.571-1.275-1.275-1.275"/>
	<path style="&st1;" d="M209.99,56.449c-0.704,0-1.274,0.571-1.274,1.275"/>
	<path style="&st1;" d="M208.715,57.724c0,0.704,0.571,1.275,1.274,1.275"/>
	<path style="&st1;" d="M209.99,58.999c0.704,0,1.275-0.571,1.275-1.275"/>
	<path style="&st1;" d="M210.945,57.724c0-0.527-0.428-0.955-0.955-0.955"/>
	<path style="&st1;" d="M209.99,56.77c-0.527,0-0.955,0.427-0.955,0.955"/>
	<path style="&st1;" d="M209.035,57.724c0,0.527,0.428,0.955,0.955,0.955"/>
	<path style="&st1;" d="M209.99,58.679c0.527,0,0.955-0.428,0.955-0.955"/>
	<path style="&st1;" d="M201.35,57.724c0-0.704-0.571-1.275-1.275-1.275"/>
	<path style="&st1;" d="M200.075,56.449c-0.704,0-1.274,0.571-1.274,1.275"/>
	<path style="&st1;" d="M198.8,57.724c0,0.704,0.571,1.275,1.274,1.275"/>
	<path style="&st1;" d="M200.075,58.999c0.704,0,1.275-0.571,1.275-1.275"/>
	<path style="&st1;" d="M201.03,57.724c0-0.527-0.428-0.955-0.955-0.955"/>
	<path style="&st1;" d="M200.075,56.77c-0.527,0-0.955,0.427-0.955,0.955"/>
	<path style="&st1;" d="M199.12,57.724c0,0.527,0.428,0.955,0.955,0.955"/>
	<path style="&st1;" d="M200.075,58.679c0.527,0,0.955-0.428,0.955-0.955"/>
	<path style="&st1;" d="M191.435,57.724c0-0.704-0.571-1.275-1.274-1.275"/>
	<path style="&st1;" d="M190.16,56.449c-0.704,0-1.275,0.571-1.275,1.275"/>
	<path style="&st1;" d="M188.885,57.724c0,0.704,0.571,1.275,1.275,1.275"/>
	<path style="&st1;" d="M190.16,58.999c0.704,0,1.274-0.571,1.274-1.275"/>
	<path style="&st1;" d="M191.115,57.724c0-0.527-0.428-0.955-0.955-0.955"/>
	<path style="&st1;" d="M190.16,56.77c-0.527,0-0.955,0.427-0.955,0.955"/>
	<path style="&st1;" d="M189.205,57.724c0,0.527,0.428,0.955,0.955,0.955"/>
	<path style="&st1;" d="M190.16,58.679c0.527,0,0.955-0.428,0.955-0.955"/>
	<path style="&st1;" d="M181.52,57.724c0-0.704-0.571-1.275-1.274-1.275"/>
	<path style="&st1;" d="M180.245,56.449c-0.704,0-1.275,0.571-1.275,1.275"/>
	<path style="&st1;" d="M178.97,57.724c0,0.704,0.571,1.275,1.275,1.275"/>
	<path style="&st1;" d="M180.245,58.999c0.704,0,1.274-0.571,1.274-1.275"/>
	<path style="&st1;" d="M181.2,57.724c0-0.527-0.428-0.955-0.955-0.955"/>
	<path style="&st1;" d="M180.245,56.77c-0.527,0-0.955,0.427-0.955,0.955"/>
	<path style="&st1;" d="M179.29,57.724c0,0.527,0.428,0.955,0.955,0.955"/>
	<path style="&st1;" d="M180.245,58.679c0.527,0,0.955-0.428,0.955-0.955"/>
	<path style="&st1;" d="M171.604,57.724c0-0.704-0.571-1.275-1.274-1.275"/>
	<path style="&st1;" d="M170.33,56.449c-0.704,0-1.275,0.571-1.275,1.275"/>
	<path style="&st1;" d="M169.055,57.724c0,0.704,0.571,1.275,1.275,1.275"/>
	<path style="&st1;" d="M170.33,58.999c0.704,0,1.274-0.571,1.274-1.275"/>
	<path style="&st1;" d="M171.285,57.724c0-0.527-0.428-0.955-0.955-0.955"/>
	<path style="&st1;" d="M170.33,56.77c-0.527,0-0.955,0.427-0.955,0.955"/>
	<path style="&st1;" d="M169.375,57.724c0,0.527,0.428,0.955,0.955,0.955"/>
	<path style="&st1;" d="M170.33,58.679c0.527,0,0.955-0.428,0.955-0.955"/>
	<path style="&st1;" d="M161.689,57.724c0-0.704-0.57-1.275-1.274-1.275"/>
	<path style="&st1;" d="M160.415,56.449c-0.704,0-1.275,0.571-1.275,1.275"/>
	<path style="&st1;" d="M159.14,57.724c0,0.704,0.571,1.275,1.275,1.275"/>
	<path style="&st1;" d="M160.415,58.999c0.704,0,1.274-0.571,1.274-1.275"/>
	<path style="&st1;" d="M161.37,57.724c0-0.527-0.428-0.955-0.955-0.955"/>
	<path style="&st1;" d="M160.415,56.77c-0.527,0-0.955,0.427-0.955,0.955"/>
	<path style="&st1;" d="M159.46,57.724c0,0.527,0.427,0.955,0.955,0.955"/>
	<path style="&st1;" d="M160.415,58.679c0.527,0,0.955-0.428,0.955-0.955"/>
	<path style="&st1;" d="M151.774,57.724c0-0.704-0.57-1.275-1.274-1.275"/>
	<path style="&st1;" d="M150.5,56.449c-0.704,0-1.275,0.571-1.275,1.275"/>
	<path style="&st1;" d="M149.225,57.724c0,0.704,0.571,1.275,1.275,1.275"/>
	<path style="&st1;" d="M150.5,58.999c0.704,0,1.274-0.571,1.274-1.275"/>
	<path style="&st1;" d="M151.455,57.724c0-0.527-0.427-0.955-0.955-0.955"/>
	<path style="&st1;" d="M150.5,56.77c-0.527,0-0.955,0.427-0.955,0.955"/>
	<path style="&st1;" d="M149.545,57.724c0,0.527,0.427,0.955,0.955,0.955"/>
	<path style="&st1;" d="M150.5,58.679c0.527,0,0.955-0.428,0.955-0.955"/>
	<path style="&st1;" d="M89.027,20.33c0-1.564-1.269-2.833-2.833-2.833"/>
	<path style="&st1;" d="M29.537,17.498c-1.564,0-2.833,1.268-2.833,2.833"/>
	<path style="&st1;" d="M217.78,28.687h-17.706"/>
	<path style="&st1;" d="M259.423,69.056h-59.349"/>
	<path style="&st1;" d="M140.727,69.056V22.313"/>
	<path style="&st1;" d="M259.423,37.894h-2.833v31.162"/>
	<path style="&st1;" d="M140.727,74.721h59.348"/>
	<path style="&st1;" d="M140.727,69.056h59.348"/>
	<path style="&st0;" d="M135.061,23.163v45.893"/>
	<path style="&st1;" d="M226.279,25.146l-5.666-5.666"/>
	<path style="&st1;" d="M220.613,19.48h-20.539"/>
	<path style="&st1;" d="M140.727,37.894h2.833v31.162"/>
	<path style="&st1;" d="M226.279,33.645h-8.499v-9.915h-17.706"/>
	<path style="&st1;" d="M259.423,74.721h-59.349"/>
	<path style="&st1;" d="M145.542,36.478v28.329h109.065V36.478H145.542"/>
	<path style="&st1;" d="M259.423,69.056V22.313"/>
	<path style="&st1;" d="M165.373,36.478v28.329"/>
	<path style="&st1;" d="M145.542,50.642h109.065"/>
	<path style="&st1;" d="M175.288,36.478v28.329"/>
	<path style="&st1;" d="M185.203,36.478v28.329"/>
	<path style="&st1;" d="M195.117,36.478v28.329"/>
	<path style="&st1;" d="M205.032,36.478v28.329"/>
	<path style="&st1;" d="M214.947,36.478v28.329"/>
	<path style="&st1;" d="M224.862,36.478v28.329"/>
	<path style="&st1;" d="M234.777,36.478v28.329"/>
	<path style="&st1;" d="M178.687,25.996l-2.833,2.833v2.833h4.533v-5.666H178.687"/>
	<path style="&st0;" d="M265.088,23.163v45.893"/>
	<path style="&st1;" d="M140.727,22.313h11.19v11.331"/>
	<path style="&st0;" d="M200.075,17.498h-59.348"/>
	<path style="&st1;" d="M221.463,25.996l2.833,2.833v2.833h-4.533v-5.666H221.463"/>
	<path style="&st1;" d="M248.234,33.645h-14.873V17.498"/>
	<path style="&st1;" d="M182.37,28.687h17.705"/>
	<path style="&st1;" d="M151.917,33.645h14.872V17.498"/>
	<path style="&st1;" d="M259.423,22.313h-11.189v11.331"/>
	<path style="&st1;" d="M166.789,23.729h7.083v9.915"/>
	<path style="&st1;" d="M182.37,25.712h13.456v2.975"/>
	<path style="&st1;" d="M233.361,23.729h-7.082v9.915"/>
	<path style="&st1;" d="M173.871,25.146l5.666-5.666"/>
	<path style="&st1;" d="M179.537,19.48h20.538"/>
	<path style="&st1;" d="M217.78,25.712h-13.456v2.975"/>
	<path style="&st1;" d="M173.871,33.645h8.499v-9.915h17.705"/>
	<path style="&st0;" d="M200.075,17.498h59.349"/>
	<path style="&st0;" d="M140.727,74.721v2.833h24.646"/>
	<path style="&st1;" d="M165.373,74.721v2.833"/>
	<path style="&st1;" d="M234.777,74.721v2.833"/>
	<path style="&st0;" d="M168.205,86.053h31.87"/>
	<path style="&st1;" d="M175.288,86.053V78.97h17.139"/>
	<path style="&st0;" d="M165.373,77.554v5.666"/>
	<path style="&st0;" d="M234.777,77.554v5.666"/>
	<path style="&st1;" d="M193.843,77.554v-2.833"/>
	<path style="&st1;" d="M200.075,84.353h2.833v-3.966"/>
	<path style="&st1;" d="M202.908,82.37h-2.833"/>
	<path style="&st1;" d="M224.862,80.387h-19.972"/>
	<path style="&st1;" d="M200.075,76.138h4.816v4.249h-4.816"/>
	<path style="&st1;" d="M200.075,76.138h-4.816v4.249h4.816"/>
	<path style="&st1;" d="M206.307,77.554v-2.833"/>
	<path style="&st1;" d="M175.288,80.387h19.971"/>
	<path style="&st1;" d="M224.862,86.053V78.97h-17.139"/>
	<path style="&st1;" d="M197.242,82.37h2.833"/>
	<path style="&st0;" d="M231.945,86.053h-31.87"/>
	<path style="&st0;" d="M259.423,74.721v2.833h-24.646"/>
	<path style="&st1;" d="M200.075,84.353h-2.833v-3.966"/>
	<path style="&st1;" d="M244.693,36.478v28.329"/>
	<path style="&st1;" d="M254.608,77.554v-2.833"/>
	<path style="&st1;" d="M145.542,77.554v-2.833"/>
	<path style="&st1;" d="M206.307,77.554l1.417,1.416"/>
	<path style="&st1;" d="M192.426,78.97l1.417-1.416"/>
	<path style="&st1;" d="M153.899,23.163v8.499h10.906v-8.499H153.899"/>
	<path style="&st1;" d="M235.344,23.163v8.499h10.906v-8.499H235.344"/>
	<path style="&st1;" d="M155.458,36.478v28.329"/>
	<path style="&st0;" d="M57.865,8.999V0.5h142.209v8.499"/>
	<path style="&st1;" d="M150.177,44.458v-1.796h0.646v1.796"/>
	<path style="&st1;" d="M160.092,44.458v-1.796h0.646v1.796"/>
	<path style="&st1;" d="M170.007,44.458v-1.796h0.646v1.796"/>
	<path style="&st1;" d="M179.922,44.458v-1.796h0.646v1.796"/>
	<path style="&st1;" d="M189.837,44.458v-1.796h0.646v1.796"/>
	<path style="&st1;" d="M199.752,44.458v-1.796h0.646v1.796"/>
	<path style="&st1;" d="M209.667,44.458v-1.796h0.646v1.796"/>
	<path style="&st1;" d="M219.582,44.458v-1.796h0.646v1.796"/>
	<path style="&st1;" d="M229.497,44.458v-1.796h0.646v1.796"/>
	<path style="&st1;" d="M239.413,44.458v-1.796h0.646v1.796"/>
	<path style="&st1;" d="M249.327,44.458v-1.796h0.646v1.796"/>
	<path style="&st1;" d="M249.327,58.622v-1.796h0.646v1.796"/>
	<path style="&st1;" d="M239.413,58.622v-1.796h0.646v1.796"/>
	<path style="&st1;" d="M229.497,58.622v-1.796h0.646v1.796"/>
	<path style="&st1;" d="M219.582,58.622v-1.796h0.646v1.796"/>
	<path style="&st1;" d="M209.667,58.622v-1.796h0.646v1.796"/>
	<path style="&st1;" d="M199.752,58.622v-1.796h0.646v1.796"/>
	<path style="&st1;" d="M189.837,58.622v-1.796h0.646v1.796"/>
	<path style="&st1;" d="M179.922,58.622v-1.796h0.646v1.796"/>
	<path style="&st1;" d="M170.007,58.622v-1.796h0.646v1.796"/>
	<path style="&st1;" d="M160.092,58.622v-1.796h0.646v1.796"/>
	<path style="&st1;" d="M150.177,58.622v-1.796h0.646v1.796"/>
	<path style="&st1;" d="M150.5,43.56h29.745"/>
	<path style="&st1;" d="M150.5,57.724h29.745"/>
	<path style="&st1;" d="M190.16,43.56h29.745"/>
	<path style="&st1;" d="M190.16,57.724h29.745"/>
	<path style="&st1;" d="M229.82,43.56h19.83"/>
	<path style="&st1;" d="M229.82,57.724h19.83"/>
	<path style="&st1;" d="M13.248,38.744v28.329"/>
	<path style="&st1;" d="M23.163,38.744v28.329"/>
	<path style="&st1;" d="M62.115,30.245h-4.25"/>
	<path style="&st1;" d="M33.078,38.744v28.329"/>
	<path style="&st1;" d="M42.993,38.744v28.329"/>
	<path style="&st1;" d="M52.908,38.744v28.329"/>
	<path style="&st1;" d="M62.823,38.744v28.329"/>
	<path style="&st1;" d="M72.738,38.744v28.329"/>
	<path style="&st1;" d="M82.653,38.744v28.329"/>
	<path style="&st1;" d="M92.568,38.744v28.329"/>
	<path style="&st1;" d="M102.483,38.744v28.329"/>
	<path style="&st1;" d="M3.333,52.908h109.065"/>
	<path style="&st1;" d="M87.752,74.155v-5.666"/>
	<path style="&st1;" d="M115.231,27.413h-7.791v9.915"/>
	<path style="&st1;" d="M101.917,74.155v-5.666"/>
	<path style="&st1;" d="M110.415,74.155v-5.666"/>
	<path style="&st1;" d="M41.435,24.58h16.431"/>
	<path style="&st1;" d="M41.435,38.744V24.58"/>
	<path style="&st0;" d="M115.231,27.413l-26.204-9.915"/>
	<path style="&st1;" d="M89.027,30.245V20.33"/>
	<path style="&st0;" d="M112.398,68.489v5.666H57.865"/>
	<path style="&st0;" d="M89.027,17.498H57.865"/>
	<path style="&st1;" d="M39.452,21.747v15.581"/>
	<path style="&st0;" d="M0.5,27.413v41.076"/>
	<path style="&st0;" d="M115.231,27.413v41.076"/>
	<path style="&st1;" d="M3.333,68.489h109.065"/>
	<path style="&st1;" d="M29.537,37.327h11.898"/>
	<path style="&st1;" d="M86.194,38.744H29.537"/>
	<path style="&st0;" d="M112.398,68.489h2.833"/>
	<path style="&st1;" d="M29.537,30.245l8.499-8.499h19.83"/>
	<path style="&st1;" d="M3.333,38.744v28.329h109.065V38.744H89.027"/>
	<path style="&st0;" d="M0.5,68.489h2.833"/>
	<path style="&st1;" d="M26.704,38.744v-8.499h2.833v8.499"/>
	<path style="&st1;" d="M0.5,37.327h26.204"/>
	<path style="&st1;" d="M26.704,38.744H3.333"/>
	<path style="&st1;" d="M41.435,27.413h16.431"/>
	<path style="&st1;" d="M45.684,27.413V24.58"/>
	<path style="&st1;" d="M74.296,24.58H57.865"/>
	<path style="&st1;" d="M74.296,38.744V24.58"/>
	<path style="&st1;" d="M13.814,71.322h14.164"/>
	<path style="&st1;" d="M76.279,21.747v15.581"/>
	<path style="&st1;" d="M86.194,37.327H74.296"/>
	<path style="&st1;" d="M53.616,27.413v5.666h4.249"/>
	<path style="&st1;" d="M53.616,30.245h4.249"/>
	<path style="&st1;" d="M89.027,38.744v-8.499h-2.833v8.499"/>
	<path style="&st1;" d="M27.979,74.155v-5.666"/>
	<path style="&st1;" d="M86.194,30.245l-8.499-8.499h-19.83"/>
	<path style="&st1;" d="M0.5,27.413h7.791v9.915"/>
	<path style="&st1;" d="M13.814,74.155v-5.666"/>
	<path style="&st1;" d="M5.316,74.155v-5.666"/>
	<path style="&st1;" d="M62.115,27.413v5.666h-4.25"/>
	<path style="&st1;" d="M74.296,27.413H57.865"/>
	<path style="&st1;" d="M101.917,71.322H87.752"/>
	<path style="&st0;" d="M0.5,27.413l26.204-9.915"/>
	<path style="&st1;" d="M70.046,27.413V24.58"/>
	<path style="&st1;" d="M26.704,30.245V20.33"/>
	<path style="&st0;" d="M3.333,68.489v5.666h54.533"/>
	<path style="&st0;" d="M26.704,17.498h31.161"/>
	<path style="&st1;" d="M115.231,37.327H89.027"/>
	<g ewd:pinNo="11">
		<text transform="matrix(1 0 0 1 104.0938 48.2783)"><tspan x="0" y="0" style="&st3; &st2;">11</tspan></text>
	</g>
	<g ewd:pinNo="22">
		<text transform="matrix(1 0 0 1 104.1094 62.4424)"><tspan x="0" y="0" style="&st3; &st2;">22</tspan></text>
	</g>
	<g ewd:pinNo="21">
		<text transform="matrix(1 0 0 1 94.1943 62.4424)"><tspan x="0" y="0" style="&st3; &st2;">21</tspan></text>
	</g>
	<g ewd:pinNo="10">
		<text transform="matrix(1 0 0 1 93.9561 48.2783)"><tspan x="0" y="0" style="&st3; &st2;">10</tspan></text>
	</g>
	<g ewd:pinNo="9">
		<text transform="matrix(1 0 0 1 85.8589 48.2783)"><tspan x="0" y="0" style="&st3; &st2;">9</tspan></text>
	</g>
	<g ewd:pinNo="20">
		<text transform="matrix(1 0 0 1 84.2793 62.4424)"><tspan x="0" y="0" style="&st3; &st2;">20</tspan></text>
	</g>
	<g ewd:pinNo="19">
		<text transform="matrix(1 0 0 1 74.126 62.4424)"><tspan x="0" y="0" style="&st3; &st2;">19</tspan></text>
	</g>
	<g ewd:pinNo="8">
		<text transform="matrix(1 0 0 1 75.9438 48.2783)"><tspan x="0" y="0" style="&st3; &st2;">8</tspan></text>
	</g>
	<g ewd:pinNo="7">
		<text transform="matrix(1 0 0 1 66.0288 48.2783)"><tspan x="0" y="0" style="&st3; &st2;">7</tspan></text>
	</g>
	<g ewd:pinNo="18">
		<text transform="matrix(1 0 0 1 64.2109 62.4424)"><tspan x="0" y="0" style="&st3; &st2;">18</tspan></text>
	</g>
	<g ewd:pinNo="17">
		<text transform="matrix(1 0 0 1 54.2964 62.4424)"><tspan x="0" y="0" style="&st3; &st2;">17</tspan></text>
	</g>
	<g ewd:pinNo="6">
		<text transform="matrix(1 0 0 1 56.1138 48.2783)"><tspan x="0" y="0" style="&st3; &st2;">6</tspan></text>
	</g>
	<g ewd:pinNo="5">
		<text transform="matrix(1 0 0 1 46.1987 48.2783)"><tspan x="0" y="0" style="&st3; &st2;">5</tspan></text>
	</g>
	<g ewd:pinNo="16">
		<text transform="matrix(1 0 0 1 44.3813 62.4424)"><tspan x="0" y="0" style="&st3; &st2;">16</tspan></text>
	</g>
	<g ewd:pinNo="15">
		<text transform="matrix(1 0 0 1 34.4663 62.4424)"><tspan x="0" y="0" style="&st3; &st2;">15</tspan></text>
	</g>
	<g ewd:pinNo="4">
		<text transform="matrix(1 0 0 1 36.2837 48.2783)"><tspan x="0" y="0" style="&st3; &st2;">4</tspan></text>
	</g>
	<g ewd:pinNo="3">
		<text transform="matrix(1 0 0 1 26.3687 48.2783)"><tspan x="0" y="0" style="&st3; &st2;">3</tspan></text>
	</g>
	<g ewd:pinNo="14">
		<text transform="matrix(1 0 0 1 24.5513 62.4424)"><tspan x="0" y="0" style="&st3; &st2;">14</tspan></text>
	</g>
	<g ewd:pinNo="13">
		<text transform="matrix(1 0 0 1 14.6362 62.4424)"><tspan x="0" y="0" style="&st3; &st2;">13</tspan></text>
	</g>
	<g ewd:pinNo="1">
		<text transform="matrix(1 0 0 1 6.5386 48.2783)"><tspan x="0" y="0" style="&st3; &st2;">1</tspan></text>
	</g>
	<g ewd:pinNo="2">
		<text transform="matrix(1 0 0 1 16.4536 48.2783)"><tspan x="0" y="0" style="&st3; &st2;">2</tspan></text>
	</g>
	<g ewd:pinNo="12">
		<text transform="matrix(1 0 0 1 4.7207 62.4424)"><tspan x="0" y="0" style="&st3; &st2;">12</tspan></text>
	</g>
</g>
</svg>