<?xml version="1.0"?>
<!-- Generator: Adobe Illustrator 10.0, SVG Export Plug-In . SVG Version: 3.0.0 Build 77)  -->
<!DOCTYPE svg PUBLIC "-//W3C//DTD SVG 1.0//EN" "http://www.w3.org/TR/2001/REC-SVG-20010904/DTD/svg10.dtd"[
	<!ENTITY ns_flows "http://ns.adobe.com/Flows/1.0/">
	<!ENTITY ns_svg "http://www.w3.org/2000/svg">
	<!ENTITY ns_xlink "http://www.w3.org/1999/xlink">
	<!ENTITY st0 "fill:none;stroke:#000000;stroke-linecap:round;stroke-linejoin:round;">
	<!ENTITY st1 "fill:none;stroke:#000000;stroke-width:0.6;stroke-linecap:round;stroke-linejoin:round;">
	<!ENTITY st2 "font-size:6px;">
	<!ENTITY st3 "font-family:'Arial';">
	<!ATTLIST svg
		ewd:ver CDATA #IMPLIED
		xmlns:ewd CDATA #FIXED "http://shcl.co.jp/ewd"
		xmlns:a CDATA #FIXED "http://ns.adobe.com/AdobeSVGViewerExtensions/3.0/">
	<!ATTLIST g
		ewd:pinNo CDATA #IMPLIED>
]>
<svg width="212.332" height="87.119" viewBox="0 0 212.332 87.119" style="overflow:visible;enable-background:new 0 0 212.332 87.119" xml:space="preserve" onload="call_execInitLoadProc_svg('connector')" ewd:ver="2.1.2.9" xmlns="&ns_svg;" xmlns:ewd="http://shcl.co.jp/ewd" xmlns:a="http://ns.adobe.com/AdobeSVGViewerExtensions/3.0/" xmlns:xlink="&ns_xlink;">
<script type="text/javascript" xlink:href="../../../../../system/js/ewd/fig/svgfig.js"/>
<g id="レイヤー_1">
	<path style="&st1;" d="M61.123,54.325h-3.116"/>
	<path style="&st1;" d="M83.273,41.293h-5.72"/>
	<path style="&st1;" d="M83.786,39.877H82.37"/>
	<path style="&st1;" d="M87.469,44.789v5.003"/>
	<path style="&st1;" d="M64.806,41.293H62.54"/>
	<path style="&st1;" d="M88.035,65.656h-1.133"/>
	<path style="&st1;" d="M88.035,49.792h-1.133"/>
	<path style="&st1;" d="M69.984,39.877h-8.861"/>
	<path style="&st0;" d="M82.37,39.877H69.984"/>
	<path style="&st0;" d="M58.007,54.325H56.59"/>
	<path style="&st1;" d="M37.327,54.325h3.116"/>
	<path style="&st1;" d="M6.112,41.293h5.72"/>
	<path style="&st1;" d="M1.916,44.789v5.003"/>
	<path style="&st1;" d="M33.645,41.293h2.266"/>
	<path style="&st1;" d="M1.35,65.656h1.133"/>
	<path style="&st1;" d="M1.35,49.792h1.133"/>
	<path style="&st1;" d="M1.916,65.656v6.232"/>
	<path style="&st0;" d="M40.443,54.325h1.417"/>
	<path style="&st1;" d="M4.749,70.755v0.284"/>
	<path style="&st1;" d="M84.636,70.755v0.284"/>
	<path style="&st1;" d="M14.522,70.755v0.284"/>
	<path style="&st1;" d="M18.772,70.755v0.284"/>
	<path style="&st1;" d="M28.545,70.755v0.284"/>
	<path style="&st1;" d="M32.794,70.755v0.284"/>
	<path style="&st1;" d="M42.568,70.755v0.284"/>
	<path style="&st1;" d="M46.817,70.755v0.284"/>
	<path style="&st1;" d="M56.59,70.755v0.284"/>
	<path style="&st1;" d="M60.84,70.755v0.284"/>
	<path style="&st1;" d="M70.613,70.755v0.284"/>
	<path style="&st1;" d="M74.862,70.755v0.284"/>
	<path style="&st0;" d="M1.916,78.121v-2.833"/>
	<path style="&st0;" d="M87.469,75.288v2.833"/>
	<path style="&st0;" d="M88.885,73.305V36.478"/>
	<path style="&st1;" d="M37.327,39.877h-8.861"/>
	<path style="&st1;" d="M7.016,39.877H5.599"/>
	<path style="&st0;" d="M28.466,39.877H7.016"/>
	<path style="&st1;" d="M122.879,58.291h74.788"/>
	<path style="&st1;" d="M122.879,46.959h18.697"/>
	<path style="&st1;" d="M122.879,69.622h74.788"/>
	<path style="&st1;" d="M169.622,46.959v22.663"/>
	<path style="&st1;" d="M160.273,58.291v11.332"/>
	<path style="&st1;" d="M150.925,58.291v11.332"/>
	<path style="&st1;" d="M178.97,46.959v22.663"/>
	<path style="&st1;" d="M188.318,46.959v22.663"/>
	<path style="&st1;" d="M141.576,46.959v22.663"/>
	<path style="&st1;" d="M132.228,46.959v22.663"/>
	<path style="&st1;" d="M122.879,46.959v22.663"/>
	<path style="&st1;" d="M197.667,46.959v22.663"/>
	<path style="&st1;" d="M169.622,46.959h28.045"/>
	<path style="&st1;" d="M120.046,41.293v9.915"/>
	<path style="&st1;" d="M117.214,41.293v9.915"/>
	<path style="&st1;" d="M120.046,59.707v11.332"/>
	<path style="&st1;" d="M117.214,59.707v11.332"/>
	<path style="&st1;" d="M150.925,55.458h9.349"/>
	<path style="&st1;" d="M150.925,52.625h9.349"/>
	<path style="&st1;" d="M200.5,41.293v9.915"/>
	<path style="&st1;" d="M203.333,41.293v9.915"/>
	<path style="&st1;" d="M200.5,59.707v11.332"/>
	<path style="&st1;" d="M203.333,59.707v11.332"/>
	<path style="&st1;" d="M124.296,42.71h15.864"/>
	<path style="&st1;" d="M124.296,39.877h15.864"/>
	<path style="&st1;" d="M171.038,42.71h25.212"/>
	<path style="&st1;" d="M171.038,39.877h25.212"/>
	<path style="&st1;" d="M114.381,35.628v42.493"/>
	<path style="&st1;" d="M206.166,35.628v42.493"/>
	<path style="&st1;" d="M127.554,35.628v4.249"/>
	<path style="&st1;" d="M117.214,32.795h7.507"/>
	<path style="&st1;" d="M195.826,32.795h7.507"/>
	<path style="&st1;" d="M192.993,35.628v4.249"/>
	<path style="&st1;" d="M117.214,80.954h2.833"/>
	<path style="&st0;" d="M114.381,86.619h91.785"/>
	<path style="&st0;" d="M114.381,27.129h16.006"/>
	<path style="&st0;" d="M108.715,32.795v48.159"/>
	<path style="&st0;" d="M211.832,32.795v48.159"/>
	<path style="&st0;" d="M133.219,29.962v1.417"/>
	<path style="&st0;" d="M187.327,29.962v1.417"/>
	<path style="&st0;" d="M190.16,27.129h16.005"/>
	<path style="&st0;" d="M140.302,18.914v13.881"/>
	<path style="&st0;" d="M180.245,18.914v13.881"/>
	<path style="&st1;" d="M148.8,18.914v3.966"/>
	<path style="&st1;" d="M171.746,18.914v3.966"/>
	<path style="&st1;" d="M153.049,27.129h14.448"/>
	<path style="&st1;" d="M164.522,22.172v3.399"/>
	<path style="&st1;" d="M156.024,22.172v3.399"/>
	<path style="&st1;" d="M163.106,19.339v2.833"/>
	<path style="&st1;" d="M157.44,19.339v2.833"/>
	<path style="&st1;" d="M157.44,19.339h5.666"/>
	<path style="&st1;" d="M157.44,20.755h5.666"/>
	<path style="&st1;" d="M156.024,25.571h8.499"/>
	<path style="&st1;" d="M122.879,72.455v5.666"/>
	<path style="&st1;" d="M197.667,72.455v5.666"/>
	<path style="&st1;" d="M200.5,80.954h2.833"/>
	<path style="&st1;" d="M144.834,72.455v8.499"/>
	<path style="&st1;" d="M147.667,72.455v8.499"/>
	<path style="&st1;" d="M163.531,72.455v8.499"/>
	<path style="&st1;" d="M166.364,72.455v8.499"/>
	<path style="&st1;" d="M182.228,72.455v8.499"/>
	<path style="&st1;" d="M185.061,72.455v8.499"/>
	<path style="&st1;" d="M120.046,80.954H200.5"/>
	<path style="&st1;" d="M124.296,71.039h19.122"/>
	<path style="&st1;" d="M167.78,71.039h13.031"/>
	<path style="&st1;" d="M149.083,71.039h13.031"/>
	<path style="&st1;" d="M186.477,71.039h9.773"/>
	<path style="&st1;" d="M148.092,32.795v19.83"/>
	<path style="&st1;" d="M163.106,32.795v19.83"/>
	<path style="&st1;" d="M142.993,40.727v11.898"/>
	<path style="&st1;" d="M168.205,40.727v11.898"/>
	<path style="&st1;" d="M144.409,54.042h2.266"/>
	<path style="&st1;" d="M164.522,54.042h2.266"/>
	<path style="&st1;" d="M140.16,39.877h1.983"/>
	<path style="&st1;" d="M169.055,39.877h1.983"/>
	<path style="&st1;" d="M150.925,41.293v2.125"/>
	<path style="&st1;" d="M160.273,41.293v2.125"/>
	<path style="&st1;" d="M127.554,38.46h12.606"/>
	<path style="&st1;" d="M171.038,38.46h21.955"/>
	<path style="&st0;" d="M84.636,34.211c-1.251,0-2.266,1.015-2.266,2.266"/>
	<path style="&st0;" d="M88.885,36.478c0-1.251-1.015-2.266-2.267-2.266"/>
	<path style="&st0;" d="M61.525,34.973c-1.18,0.822-1.82,2.049-1.82,3.487"/>
	<path style="&st0;" d="M67.316,37.987c-0.534-1.51-1.538-2.605-2.996-3.269"/>
	<path style="&st0;" d="M64.319,34.721c-0.939-0.427-1.946-0.335-2.792,0.254"/>
	<path style="&st1;" d="M62.823,38.46c0,0.782,0.634,1.417,1.417,1.417"/>
	<path style="&st0;" d="M67.316,37.987c0.408,1.155,1.443,1.887,2.668,1.887"/>
	<path style="&st1;" d="M61.123,39.877c-0.782,0-1.417,0.634-1.417,1.417"/>
	<path style="&st1;" d="M62.54,41.293c-0.782,0-1.417,0.634-1.417,1.417"/>
	<path style="&st0;" d="M58.007,54.325c0.939,0,1.7-0.761,1.7-1.7"/>
	<path style="&st0;" d="M57.735,38.968c0.368-0.335,0.556-0.76,0.556-1.258"/>
	<path style="&st0;" d="M58.29,34.495c0-1.564-1.268-2.833-2.833-2.833"/>
	<path style="&st0;" d="M55.174,52.908c0,0.782,0.634,1.417,1.416,1.417"/>
	<path style="&st0;" d="M87.469,74.721c0.782,0,1.417-0.634,1.417-1.417"/>
	<path style="&st1;" d="M86.052,73.305c0.782,0,1.417-0.634,1.417-1.417"/>
	<path style="&st0;" d="M86.619,78.97c0.47,0,0.85-0.38,0.85-0.85"/>
	<path style="&st1;" d="M86.902,49.792c-0.939,0-1.7,0.761-1.7,1.7"/>
	<path style="&st1;" d="M85.203,63.956c0,0.939,0.761,1.7,1.7,1.7"/>
	<path style="&st1;" d="M88.885,66.506c0-0.469-0.381-0.85-0.85-0.85"/>
	<path style="&st1;" d="M88.035,49.792c0.469,0,0.85-0.38,0.85-0.85"/>
	<path style="&st0;" d="M7.016,36.478c0-1.251-1.015-2.266-2.267-2.266"/>
	<path style="&st0;" d="M2.766,34.211c-1.251,0-2.266,1.015-2.266,2.266"/>
	<path style="&st0;" d="M38.744,38.46c0-1.437-0.641-2.664-1.82-3.486"/>
	<path style="&st0;" d="M34.132,34.721c-1.458,0.663-2.461,1.758-2.995,3.267"/>
	<path style="&st0;" d="M36.925,34.973c-0.847-0.59-1.855-0.682-2.794-0.254"/>
	<path style="&st1;" d="M34.211,39.877c0.782,0,1.417-0.634,1.417-1.417"/>
	<path style="&st0;" d="M28.466,39.877c1.226,0,2.262-0.733,2.671-1.889"/>
	<path style="&st1;" d="M38.744,41.293c0-0.782-0.634-1.417-1.417-1.417"/>
	<path style="&st1;" d="M37.327,42.71c0-0.782-0.634-1.417-1.417-1.417"/>
	<path style="&st0;" d="M38.744,52.625c0,0.938,0.761,1.7,1.7,1.7"/>
	<path style="&st0;" d="M40.16,37.71c0,0.498,0.188,0.922,0.556,1.257"/>
	<path style="&st0;" d="M42.993,31.662c-1.564,0-2.833,1.269-2.833,2.833"/>
	<path style="&st0;" d="M41.86,54.325c0.782,0,1.416-0.634,1.416-1.417"/>
	<path style="&st0;" d="M0.5,73.305c0,0.782,0.634,1.417,1.416,1.417"/>
	<path style="&st1;" d="M1.916,71.888c0,0.782,0.634,1.417,1.417,1.417"/>
	<path style="&st0;" d="M1.916,78.121c0,0.469,0.381,0.85,0.85,0.85"/>
	<path style="&st1;" d="M4.183,51.492c0-0.938-0.761-1.7-1.7-1.7"/>
	<path style="&st1;" d="M2.483,65.656c0.938,0,1.7-0.761,1.7-1.7"/>
	<path style="&st1;" d="M1.35,65.656c-0.469,0-0.85,0.38-0.85,0.85"/>
	<path style="&st1;" d="M0.5,48.942c0,0.469,0.38,0.85,0.85,0.85"/>
	<path style="&st1;" d="M4.749,71.039c0,0.469,0.38,0.85,0.85,0.85"/>
	<path style="&st1;" d="M5.599,69.905c-0.47,0-0.85,0.38-0.85,0.85"/>
	<path style="&st1;" d="M14.522,70.755c0-0.469-0.38-0.85-0.85-0.85"/>
	<path style="&st1;" d="M13.673,71.888c0.469,0,0.85-0.38,0.85-0.85"/>
	<path style="&st1;" d="M18.772,71.039c0,0.469,0.38,0.85,0.85,0.85"/>
	<path style="&st1;" d="M19.622,69.905c-0.469,0-0.85,0.38-0.85,0.85"/>
	<path style="&st1;" d="M28.545,70.755c0-0.469-0.381-0.85-0.85-0.85"/>
	<path style="&st1;" d="M27.695,71.888c0.469,0,0.85-0.38,0.85-0.85"/>
	<path style="&st1;" d="M32.794,71.039c0,0.469,0.38,0.85,0.85,0.85"/>
	<path style="&st1;" d="M33.645,69.905c-0.47,0-0.85,0.38-0.85,0.85"/>
	<path style="&st1;" d="M42.568,70.755c0-0.469-0.38-0.85-0.85-0.85"/>
	<path style="&st1;" d="M41.718,71.888c0.469,0,0.85-0.38,0.85-0.85"/>
	<path style="&st1;" d="M46.817,71.039c0,0.469,0.38,0.85,0.85,0.85"/>
	<path style="&st1;" d="M47.667,69.905c-0.469,0-0.85,0.38-0.85,0.85"/>
	<path style="&st1;" d="M56.59,70.755c0-0.469-0.38-0.85-0.85-0.85"/>
	<path style="&st1;" d="M55.741,71.888c0.469,0,0.85-0.38,0.85-0.85"/>
	<path style="&st1;" d="M60.84,71.039c0,0.469,0.38,0.85,0.85,0.85"/>
	<path style="&st1;" d="M61.69,69.905c-0.47,0-0.85,0.38-0.85,0.85"/>
	<path style="&st1;" d="M70.613,70.755c0-0.469-0.38-0.85-0.85-0.85"/>
	<path style="&st1;" d="M69.763,71.888c0.47,0,0.85-0.38,0.85-0.85"/>
	<path style="&st1;" d="M74.862,71.039c0,0.469,0.381,0.85,0.85,0.85"/>
	<path style="&st1;" d="M75.712,69.905c-0.469,0-0.85,0.38-0.85,0.85"/>
	<path style="&st1;" d="M83.786,71.888c0.469,0,0.85-0.38,0.85-0.85"/>
	<path style="&st1;" d="M84.636,70.755c0-0.469-0.38-0.85-0.85-0.85"/>
	<path style="&st1;" d="M120.046,41.293c0-0.782-0.634-1.417-1.416-1.417"/>
	<path style="&st1;" d="M118.63,39.877c-0.782,0-1.417,0.634-1.417,1.417"/>
	<path style="&st1;" d="M120.046,59.707c0-0.782-0.634-1.417-1.416-1.417"/>
	<path style="&st1;" d="M118.63,58.291c-0.782,0-1.417,0.634-1.417,1.417"/>
	<path style="&st1;" d="M117.214,71.039c0,0.782,0.634,1.417,1.417,1.417"/>
	<path style="&st1;" d="M118.63,72.455c0.782,0,1.416-0.634,1.416-1.417"/>
	<path style="&st1;" d="M117.214,51.208c0,0.782,0.634,1.417,1.417,1.417"/>
	<path style="&st1;" d="M118.63,52.625c0.782,0,1.416-0.634,1.416-1.417"/>
	<path style="&st1;" d="M201.916,39.877c-0.782,0-1.416,0.634-1.416,1.417"/>
	<path style="&st1;" d="M203.333,41.293c0-0.782-0.634-1.417-1.417-1.417"/>
	<path style="&st1;" d="M201.916,58.291c-0.782,0-1.416,0.634-1.416,1.417"/>
	<path style="&st1;" d="M203.333,59.707c0-0.782-0.634-1.417-1.417-1.417"/>
	<path style="&st1;" d="M201.916,72.455c0.783,0,1.417-0.634,1.417-1.417"/>
	<path style="&st1;" d="M200.5,71.039c0,0.782,0.634,1.417,1.416,1.417"/>
	<path style="&st1;" d="M201.916,52.625c0.783,0,1.417-0.634,1.417-1.417"/>
	<path style="&st1;" d="M200.5,51.208c0,0.782,0.634,1.417,1.416,1.417"/>
	<path style="&st1;" d="M124.296,39.877c-0.782,0-1.417,0.634-1.417,1.417"/>
	<path style="&st1;" d="M122.879,41.293c0,0.782,0.634,1.417,1.417,1.417"/>
	<path style="&st1;" d="M141.576,41.293c0-0.782-0.634-1.417-1.416-1.417"/>
	<path style="&st1;" d="M140.16,42.71c0.782,0,1.416-0.634,1.416-1.417"/>
	<path style="&st1;" d="M171.038,39.877c-0.782,0-1.417,0.634-1.417,1.417"/>
	<path style="&st1;" d="M197.667,41.293c0-0.782-0.634-1.417-1.417-1.417"/>
	<path style="&st1;" d="M196.25,42.71c0.782,0,1.417-0.634,1.417-1.417"/>
	<path style="&st1;" d="M169.622,41.293c0,0.782,0.634,1.417,1.417,1.417"/>
	<path style="&st1;" d="M117.214,32.795c-1.564,0-2.833,1.268-2.833,2.833"/>
	<path style="&st1;" d="M127.554,35.628c0-1.565-1.269-2.833-2.833-2.833"/>
	<path style="&st1;" d="M195.826,32.795c-1.564,0-2.833,1.268-2.833,2.833"/>
	<path style="&st1;" d="M206.166,35.628c0-1.565-1.269-2.833-2.833-2.833"/>
	<path style="&st1;" d="M114.381,78.121c0,1.564,1.269,2.833,2.833,2.833"/>
	<path style="&st0;" d="M114.381,27.129c-3.129,0-5.666,2.537-5.666,5.666"/>
	<path style="&st0;" d="M206.166,86.619c3.129,0,5.666-2.537,5.666-5.666"/>
	<path style="&st0;" d="M108.715,80.954c0,3.129,2.537,5.666,5.666,5.666"/>
	<path style="&st0;" d="M133.219,29.962c0-1.564-1.268-2.833-2.833-2.833"/>
	<path style="&st0;" d="M190.16,27.129c-1.565,0-2.833,1.269-2.833,2.833"/>
	<path style="&st0;" d="M211.832,32.795c0-3.129-2.537-5.666-5.666-5.666"/>
	<path style="&st0;" d="M133.219,31.378c0,0.782,0.634,1.417,1.417,1.417"/>
	<path style="&st0;" d="M185.911,32.795c0.782,0,1.417-0.634,1.417-1.417"/>
	<path style="&st1;" d="M148.8,22.88c0,2.347,1.902,4.249,4.249,4.249"/>
	<path style="&st1;" d="M167.497,27.129c2.347,0,4.249-1.902,4.249-4.249"/>
	<path style="&st0;" d="M141.718,17.498c-0.783,0-1.417,0.634-1.417,1.417"/>
	<path style="&st0;" d="M180.245,18.914c0-0.782-0.634-1.417-1.417-1.417"/>
	<path style="&st1;" d="M148.8,18.914c0-0.782-0.634-1.417-1.417-1.417"/>
	<path style="&st1;" d="M173.163,17.498c-0.782,0-1.417,0.634-1.417,1.417"/>
	<path style="&st1;" d="M120.046,80.954c1.565,0,2.833-1.269,2.833-2.833"/>
	<path style="&st1;" d="M197.667,78.121c0,1.564,1.269,2.833,2.833,2.833"/>
	<path style="&st1;" d="M203.333,80.954c1.564,0,2.833-1.269,2.833-2.833"/>
	<path style="&st1;" d="M124.296,71.039c-0.782,0-1.417,0.634-1.417,1.417"/>
	<path style="&st1;" d="M197.667,72.455c0-0.782-0.634-1.417-1.417-1.417"/>
	<path style="&st1;" d="M149.083,71.039c-0.782,0-1.417,0.634-1.417,1.417"/>
	<path style="&st1;" d="M144.834,72.455c0-0.782-0.634-1.417-1.417-1.417"/>
	<path style="&st1;" d="M163.531,72.455c0-0.782-0.634-1.417-1.417-1.417"/>
	<path style="&st1;" d="M167.78,71.039c-0.782,0-1.417,0.634-1.417,1.417"/>
	<path style="&st1;" d="M182.228,72.455c0-0.782-0.634-1.417-1.417-1.417"/>
	<path style="&st1;" d="M186.477,71.039c-0.782,0-1.417,0.634-1.417,1.417"/>
	<path style="&st1;" d="M150.925,52.625c-0.782,0-1.417,0.634-1.417,1.417"/>
	<path style="&st1;" d="M161.689,54.042c0-0.783-0.634-1.417-1.416-1.417"/>
	<path style="&st1;" d="M160.273,55.458c0.782,0,1.416-0.634,1.416-1.416"/>
	<path style="&st1;" d="M149.508,54.042c0,0.782,0.634,1.416,1.417,1.416"/>
	<path style="&st1;" d="M142.993,52.625c0,0.782,0.634,1.417,1.417,1.417"/>
	<path style="&st1;" d="M146.675,54.042c0.782,0,1.417-0.634,1.417-1.417"/>
	<path style="&st1;" d="M163.106,52.625c0,0.782,0.634,1.417,1.417,1.417"/>
	<path style="&st1;" d="M166.789,54.042c0.782,0,1.417-0.634,1.417-1.417"/>
	<path style="&st1;" d="M169.055,39.877c-0.469,0-0.85,0.38-0.85,0.85"/>
	<path style="&st1;" d="M142.993,40.727c0-0.469-0.38-0.85-0.85-0.85"/>
	<path style="&st1;" d="M194.268,52.625c0-0.704-0.571-1.275-1.275-1.275"/>
	<path style="&st1;" d="M192.993,51.35c-0.704,0-1.274,0.571-1.274,1.275"/>
	<path style="&st1;" d="M191.718,52.625c0,0.704,0.57,1.274,1.274,1.274"/>
	<path style="&st1;" d="M192.993,53.899c0.704,0,1.275-0.57,1.275-1.274"/>
	<path style="&st1;" d="M193.947,52.625c0-0.527-0.427-0.955-0.955-0.955"/>
	<path style="&st1;" d="M192.993,51.67c-0.527,0-0.955,0.427-0.955,0.955"/>
	<path style="&st1;" d="M192.038,52.625c0,0.527,0.427,0.955,0.955,0.955"/>
	<path style="&st1;" d="M192.993,53.58c0.527,0,0.955-0.427,0.955-0.955"/>
	<path style="&st1;" d="M184.919,52.625c0-0.704-0.571-1.275-1.274-1.275"/>
	<path style="&st1;" d="M183.645,51.35c-0.704,0-1.275,0.571-1.275,1.275"/>
	<path style="&st1;" d="M182.37,52.625c0,0.704,0.571,1.274,1.275,1.274"/>
	<path style="&st1;" d="M183.645,53.899c0.704,0,1.274-0.57,1.274-1.274"/>
	<path style="&st1;" d="M184.599,52.625c0-0.527-0.428-0.955-0.955-0.955"/>
	<path style="&st1;" d="M183.645,51.67c-0.527,0-0.955,0.427-0.955,0.955"/>
	<path style="&st1;" d="M182.689,52.625c0,0.527,0.428,0.955,0.955,0.955"/>
	<path style="&st1;" d="M183.645,53.58c0.527,0,0.955-0.427,0.955-0.955"/>
	<path style="&st1;" d="M184.919,63.956c0-0.704-0.571-1.274-1.274-1.274"/>
	<path style="&st1;" d="M183.645,62.682c-0.704,0-1.275,0.57-1.275,1.274"/>
	<path style="&st1;" d="M182.37,63.956c0,0.704,0.571,1.275,1.275,1.275"/>
	<path style="&st1;" d="M183.645,65.231c0.704,0,1.274-0.571,1.274-1.275"/>
	<path style="&st1;" d="M184.599,63.956c0-0.527-0.428-0.955-0.955-0.955"/>
	<path style="&st1;" d="M183.645,63.001c-0.527,0-0.955,0.428-0.955,0.955"/>
	<path style="&st1;" d="M182.689,63.956c0,0.527,0.428,0.955,0.955,0.955"/>
	<path style="&st1;" d="M183.645,64.911c0.527,0,0.955-0.428,0.955-0.955"/>
	<path style="&st1;" d="M194.268,63.956c0-0.704-0.571-1.274-1.275-1.274"/>
	<path style="&st1;" d="M192.993,62.682c-0.704,0-1.274,0.57-1.274,1.274"/>
	<path style="&st1;" d="M191.718,63.956c0,0.704,0.57,1.275,1.274,1.275"/>
	<path style="&st1;" d="M192.993,65.231c0.704,0,1.275-0.571,1.275-1.275"/>
	<path style="&st1;" d="M193.947,63.956c0-0.527-0.427-0.955-0.955-0.955"/>
	<path style="&st1;" d="M192.993,63.001c-0.527,0-0.955,0.428-0.955,0.955"/>
	<path style="&st1;" d="M192.038,63.956c0,0.527,0.427,0.955,0.955,0.955"/>
	<path style="&st1;" d="M192.993,64.911c0.527,0,0.955-0.428,0.955-0.955"/>
	<path style="&st1;" d="M175.571,52.625c0-0.704-0.571-1.275-1.275-1.275"/>
	<path style="&st1;" d="M174.296,51.35c-0.704,0-1.275,0.571-1.275,1.275"/>
	<path style="&st1;" d="M173.021,52.625c0,0.704,0.571,1.274,1.275,1.274"/>
	<path style="&st1;" d="M174.296,53.899c0.704,0,1.275-0.57,1.275-1.274"/>
	<path style="&st1;" d="M175.25,52.625c0-0.527-0.427-0.955-0.955-0.955"/>
	<path style="&st1;" d="M174.296,51.67c-0.527,0-0.955,0.427-0.955,0.955"/>
	<path style="&st1;" d="M173.341,52.625c0,0.527,0.427,0.955,0.955,0.955"/>
	<path style="&st1;" d="M174.296,53.58c0.527,0,0.955-0.427,0.955-0.955"/>
	<path style="&st1;" d="M175.571,63.956c0-0.704-0.571-1.274-1.275-1.274"/>
	<path style="&st1;" d="M174.296,62.682c-0.704,0-1.275,0.57-1.275,1.274"/>
	<path style="&st1;" d="M173.021,63.956c0,0.704,0.571,1.275,1.275,1.275"/>
	<path style="&st1;" d="M174.296,65.231c0.704,0,1.275-0.571,1.275-1.275"/>
	<path style="&st1;" d="M175.25,63.956c0-0.527-0.427-0.955-0.955-0.955"/>
	<path style="&st1;" d="M174.296,63.001c-0.527,0-0.955,0.428-0.955,0.955"/>
	<path style="&st1;" d="M173.341,63.956c0,0.527,0.427,0.955,0.955,0.955"/>
	<path style="&st1;" d="M174.296,64.911c0.527,0,0.955-0.428,0.955-0.955"/>
	<path style="&st1;" d="M166.222,63.956c0-0.704-0.571-1.274-1.275-1.274"/>
	<path style="&st1;" d="M164.947,62.682c-0.704,0-1.274,0.57-1.274,1.274"/>
	<path style="&st1;" d="M163.673,63.956c0,0.704,0.571,1.275,1.274,1.275"/>
	<path style="&st1;" d="M164.947,65.231c0.704,0,1.275-0.571,1.275-1.275"/>
	<path style="&st1;" d="M165.902,63.956c0-0.527-0.428-0.955-0.955-0.955"/>
	<path style="&st1;" d="M164.947,63.001c-0.527,0-0.955,0.428-0.955,0.955"/>
	<path style="&st1;" d="M163.993,63.956c0,0.527,0.428,0.955,0.955,0.955"/>
	<path style="&st1;" d="M164.947,64.911c0.527,0,0.955-0.428,0.955-0.955"/>
	<path style="&st1;" d="M156.874,63.956c0-0.704-0.571-1.274-1.275-1.274"/>
	<path style="&st1;" d="M155.599,62.682c-0.704,0-1.275,0.57-1.275,1.274"/>
	<path style="&st1;" d="M154.324,63.956c0,0.704,0.571,1.275,1.275,1.275"/>
	<path style="&st1;" d="M155.599,65.231c0.704,0,1.275-0.571,1.275-1.275"/>
	<path style="&st1;" d="M156.554,63.956c0-0.527-0.427-0.955-0.955-0.955"/>
	<path style="&st1;" d="M155.599,63.001c-0.527,0-0.955,0.428-0.955,0.955"/>
	<path style="&st1;" d="M154.645,63.956c0,0.527,0.427,0.955,0.955,0.955"/>
	<path style="&st1;" d="M155.599,64.911c0.527,0,0.955-0.428,0.955-0.955"/>
	<path style="&st1;" d="M147.525,63.956c0-0.704-0.571-1.274-1.275-1.274"/>
	<path style="&st1;" d="M146.25,62.682c-0.704,0-1.274,0.57-1.274,1.274"/>
	<path style="&st1;" d="M144.976,63.956c0,0.704,0.57,1.275,1.274,1.275"/>
	<path style="&st1;" d="M146.25,65.231c0.704,0,1.275-0.571,1.275-1.275"/>
	<path style="&st1;" d="M147.205,63.956c0-0.527-0.427-0.955-0.955-0.955"/>
	<path style="&st1;" d="M146.25,63.001c-0.527,0-0.955,0.428-0.955,0.955"/>
	<path style="&st1;" d="M145.296,63.956c0,0.527,0.427,0.955,0.955,0.955"/>
	<path style="&st1;" d="M146.25,64.911c0.527,0,0.955-0.428,0.955-0.955"/>
	<path style="&st1;" d="M138.177,63.956c0-0.704-0.571-1.274-1.274-1.274"/>
	<path style="&st1;" d="M136.902,62.682c-0.704,0-1.275,0.57-1.275,1.274"/>
	<path style="&st1;" d="M135.627,63.956c0,0.704,0.571,1.275,1.275,1.275"/>
	<path style="&st1;" d="M136.902,65.231c0.704,0,1.274-0.571,1.274-1.275"/>
	<path style="&st1;" d="M137.857,63.956c0-0.527-0.428-0.955-0.955-0.955"/>
	<path style="&st1;" d="M136.902,63.001c-0.527,0-0.955,0.428-0.955,0.955"/>
	<path style="&st1;" d="M135.947,63.956c0,0.527,0.428,0.955,0.955,0.955"/>
	<path style="&st1;" d="M136.902,64.911c0.527,0,0.955-0.428,0.955-0.955"/>
	<path style="&st1;" d="M128.829,63.956c0-0.704-0.571-1.274-1.275-1.274"/>
	<path style="&st1;" d="M127.554,62.682c-0.704,0-1.275,0.57-1.275,1.274"/>
	<path style="&st1;" d="M126.279,63.956c0,0.704,0.571,1.275,1.275,1.275"/>
	<path style="&st1;" d="M127.554,65.231c0.704,0,1.275-0.571,1.275-1.275"/>
	<path style="&st1;" d="M128.508,63.956c0-0.527-0.427-0.955-0.955-0.955"/>
	<path style="&st1;" d="M127.554,63.001c-0.527,0-0.955,0.428-0.955,0.955"/>
	<path style="&st1;" d="M126.599,63.956c0,0.527,0.427,0.955,0.955,0.955"/>
	<path style="&st1;" d="M127.554,64.911c0.527,0,0.955-0.428,0.955-0.955"/>
	<path style="&st1;" d="M128.829,52.625c0-0.704-0.571-1.275-1.275-1.275"/>
	<path style="&st1;" d="M127.554,51.35c-0.704,0-1.275,0.571-1.275,1.275"/>
	<path style="&st1;" d="M126.279,52.625c0,0.704,0.571,1.274,1.275,1.274"/>
	<path style="&st1;" d="M127.554,53.899c0.704,0,1.275-0.57,1.275-1.274"/>
	<path style="&st1;" d="M128.508,52.625c0-0.527-0.427-0.955-0.955-0.955"/>
	<path style="&st1;" d="M127.554,51.67c-0.527,0-0.955,0.427-0.955,0.955"/>
	<path style="&st1;" d="M126.599,52.625c0,0.527,0.427,0.955,0.955,0.955"/>
	<path style="&st1;" d="M127.554,53.58c0.527,0,0.955-0.427,0.955-0.955"/>
	<path style="&st1;" d="M138.177,52.625c0-0.704-0.571-1.275-1.274-1.275"/>
	<path style="&st1;" d="M136.902,51.35c-0.704,0-1.275,0.571-1.275,1.275"/>
	<path style="&st1;" d="M135.627,52.625c0,0.704,0.571,1.274,1.275,1.274"/>
	<path style="&st1;" d="M136.902,53.899c0.704,0,1.274-0.57,1.274-1.274"/>
	<path style="&st1;" d="M137.857,52.625c0-0.527-0.428-0.955-0.955-0.955"/>
	<path style="&st1;" d="M136.902,51.67c-0.527,0-0.955,0.427-0.955,0.955"/>
	<path style="&st1;" d="M135.947,52.625c0,0.527,0.428,0.955,0.955,0.955"/>
	<path style="&st1;" d="M136.902,53.58c0.527,0,0.955-0.427,0.955-0.955"/>
	<path style="&st1;" d="M53.758,57.724v10.765"/>
	<path style="&st1;" d="M71.888,46.959v21.53"/>
	<path style="&st1;" d="M61.123,42.71v11.615"/>
	<path style="&st0;" d="M59.707,38.46v14.165"/>
	<path style="&st1;" d="M62.823,34.483v3.977"/>
	<path style="&st0;" d="M84.636,34.211h1.983"/>
	<path style="&st0;" d="M82.37,36.478v3.399"/>
	<path style="&st1;" d="M83.786,39.877l5.099,4.249"/>
	<path style="&st1;" d="M83.273,41.293l4.195,3.496"/>
	<path style="&st0;" d="M58.29,34.495v3.215"/>
	<path style="&st0;" d="M55.174,41.293v11.615"/>
	<path style="&st0;" d="M55.174,41.293l2.561-2.326"/>
	<path style="&st1;" d="M66.222,39.877v3.399"/>
	<path style="&st1;" d="M76.137,39.877v3.399"/>
	<path style="&st1;" d="M52.341,37.327h2.833"/>
	<path style="&st1;" d="M55.174,37.327v3.966"/>
	<path style="&st1;" d="M44.692,57.724v10.765"/>
	<path style="&st1;" d="M26.562,46.959v21.53"/>
	<path style="&st1;" d="M37.327,42.71v11.615"/>
	<path style="&st0;" d="M38.744,38.46v14.165"/>
	<path style="&st1;" d="M35.627,34.483v3.977"/>
	<path style="&st0;" d="M4.749,34.211H2.766"/>
	<path style="&st0;" d="M7.016,36.478v3.399"/>
	<path style="&st1;" d="M5.599,39.877L0.5,44.126"/>
	<path style="&st1;" d="M6.112,41.293l-4.196,3.496"/>
	<path style="&st0;" d="M40.16,34.495v3.215"/>
	<path style="&st0;" d="M43.276,41.293v11.615"/>
	<path style="&st0;" d="M43.276,41.293l-2.561-2.326"/>
	<path style="&st1;" d="M32.228,39.877v3.399"/>
	<path style="&st1;" d="M13.248,39.877v3.399"/>
	<path style="&st1;" d="M46.109,37.327h-2.833"/>
	<path style="&st1;" d="M43.276,37.327v3.966"/>
	<path style="&st1;" d="M17.497,46.959v21.53"/>
	<path style="&st1;" d="M75.712,69.905h8.074"/>
	<path style="&st1;" d="M1.916,74.721h85.553"/>
	<path style="&st1;" d="M3.333,73.305h82.72"/>
	<path style="&st1;" d="M75.712,71.888h8.074"/>
	<path style="&st0;" d="M55.458,31.662H42.993"/>
	<path style="&st1;" d="M33.645,71.888h8.074"/>
	<path style="&st1;" d="M33.645,69.905h8.074"/>
	<path style="&st1;" d="M19.622,69.905h8.074"/>
	<path style="&st1;" d="M19.622,71.888h8.074"/>
	<path style="&st1;" d="M5.599,69.905h8.074"/>
	<path style="&st1;" d="M5.599,71.888h8.074"/>
	<path style="&st1;" d="M47.667,69.905h8.074"/>
	<path style="&st1;" d="M47.667,71.888h8.074"/>
	<path style="&st1;" d="M61.69,69.905h8.073"/>
	<path style="&st1;" d="M61.69,71.888h8.073"/>
	<path style="&st1;" d="M4.183,74.721v1.983h3.966v-1.983"/>
	<path style="&st1;" d="M14.098,74.721v1.983h3.966v-1.983"/>
	<path style="&st1;" d="M24.013,74.721v1.983h3.966v-1.983"/>
	<path style="&st1;" d="M35.061,74.721v1.983h3.966v-1.983"/>
	<path style="&st0;" d="M77.837,78.97h8.782"/>
	<path style="&st0;" d="M11.548,78.97l2.266,1.417h61.756l2.266-1.417"/>
	<path style="&st1;" d="M59.423,74.721v1.983h3.966v-1.983"/>
	<path style="&st1;" d="M73.871,74.721v1.983h-3.966v-1.983"/>
	<path style="&st1;" d="M85.203,74.721v1.983h-3.966v-1.983"/>
	<path style="&st1;" d="M51.208,74.721v2.833h-3.966v-2.833"/>
	<path style="&st1;" d="M8.432,57.724h72.521"/>
	<path style="&st1;" d="M62.823,68.489v-21.53h18.13v21.53H8.432v-21.53h27.195v21.53"/>
	<path style="&st1;" d="M33.645,39.877v3.399H11.832v-3.399"/>
	<path style="&st1;" d="M64.806,39.877v3.399h12.748v-3.399"/>
	<path style="&st1;" d="M51.208,76.138h-3.966"/>
	<path style="&st0;" d="M0.5,73.305V36.478"/>
	<path style="&st1;" d="M85.203,63.956V51.492"/>
	<path style="&st1;" d="M87.469,71.888v-6.232"/>
	<path style="&st1;" d="M4.183,63.956V51.492"/>
	<path style="&st0;" d="M2.766,78.97h8.782"/>
	<path style="&st1;" d="M11.548,78.97h66.289"/>
	<path style="&st1;" d="M55.174,39.027H43.276"/>
	<path style="&st1;" d="M53.475,37.327v-3.399h-8.499v3.399"/>
	<path style="&st1;" d="M46.104,35.061h6.238v2.833h-6.232v-2.833"/>
	<path style="&st0;" d="M180.245,32.795h5.666"/>
	<path style="&st1;" d="M148.8,22.172h22.946"/>
	<path style="&st0;" d="M173.163,17.498h5.666"/>
	<path style="&st0;" d="M141.718,17.498h5.666"/>
	<path style="&st0;" d="M147.384,17.498h25.779"/>
	<path style="&st1;" d="M122.879,75.288h21.955"/>
	<path style="&st1;" d="M147.667,75.288h15.864"/>
	<path style="&st1;" d="M166.364,75.288h15.864"/>
	<path style="&st1;" d="M185.061,75.288h12.606"/>
	<path style="&st1;" d="M163.106,39.877h-15.014"/>
	<path style="&st1;" d="M163.106,41.293h-15.014"/>
	<path style="&st1;" d="M160.273,43.418h-9.349"/>
	<path style="&st1;" d="M140.16,32.795v7.082"/>
	<path style="&st1;" d="M171.038,32.795v7.082"/>
	<path style="&st0;" d="M134.636,32.795h5.666"/>
	<path style="&st1;" d="M140.302,32.795h39.943"/>
	<path style="&st0;" d="M49.225,8.999V0.5h111.048v8.499"/>
	<path style="&st1;" d="M136.902,52.625h-9.349v11.331h9.349"/>
	<path style="&st1;" d="M192.67,53.523v-1.796h0.646v1.796"/>
	<path style="&st1;" d="M183.321,53.523v-1.796h0.646v1.796"/>
	<path style="&st1;" d="M183.321,64.854v-1.796h0.646v1.796"/>
	<path style="&st1;" d="M192.67,64.854v-1.796h0.646v1.796"/>
	<path style="&st1;" d="M173.973,53.523v-1.796h0.646v1.796"/>
	<path style="&st1;" d="M173.973,64.854v-1.796h0.646v1.796"/>
	<path style="&st1;" d="M164.625,64.854v-1.796h0.646v1.796"/>
	<path style="&st1;" d="M155.276,64.854v-1.796h0.646v1.796"/>
	<path style="&st1;" d="M145.928,64.854v-1.796h0.646v1.796"/>
	<path style="&st1;" d="M136.579,64.854v-1.796h0.646v1.796"/>
	<path style="&st1;" d="M127.231,64.854v-1.796h0.646v1.796"/>
	<path style="&st1;" d="M127.231,53.523v-1.796h0.646v1.796"/>
	<path style="&st1;" d="M136.579,53.523v-1.796h0.646v1.796"/>
	<path style="&st1;" d="M164.947,63.956H146.25"/>
	<path style="&st1;" d="M183.645,52.625h-9.349v11.331"/>
	<path style="&st1;" d="M183.645,63.956h9.348V52.625"/>
	<g ewd:pinNo="1">
		<text transform="matrix(1 0 0 1 11.3594 54.5454)"><tspan x="0" y="0" style="&st3; &st2;">1</tspan></text>
	</g>
	<g ewd:pinNo="2">
		<text transform="matrix(1 0 0 1 20.4243 54.5454)"><tspan x="0" y="0" style="&st3; &st2;">2</tspan></text>
	</g>
	<g ewd:pinNo="3">
		<text transform="matrix(1 0 0 1 29.4897 54.5454)"><tspan x="0" y="0" style="&st3; &st2;">3</tspan></text>
	</g>
	<g ewd:pinNo="4">
		<text transform="matrix(1 0 0 1 65.7505 54.5454)"><tspan x="0" y="0" style="&st3; &st2;">4</tspan></text>
	</g>
	<g ewd:pinNo="5">
		<text transform="matrix(1 0 0 1 74.8154 54.5454)"><tspan x="0" y="0" style="&st3; &st2;">5</tspan></text>
	</g>
	<g ewd:pinNo="6">
		<text transform="matrix(1 0 0 1 11.3594 65.3105)"><tspan x="0" y="0" style="&st3; &st2;">6</tspan></text>
	</g>
	<g ewd:pinNo="7">
		<text transform="matrix(1 0 0 1 20.4243 65.3105)"><tspan x="0" y="0" style="&st3; &st2;">7</tspan></text>
	</g>
	<g ewd:pinNo="8">
		<text transform="matrix(1 0 0 1 29.4897 65.3105)"><tspan x="0" y="0" style="&st3; &st2;">8</tspan></text>
	</g>
	<g ewd:pinNo="9">
		<text transform="matrix(1 0 0 1 38.5547 65.3105)"><tspan x="0" y="0" style="&st3; &st2;">9</tspan></text>
	</g>
	<g ewd:pinNo="10">
		<text transform="matrix(1 0 0 1 45.6074 65.3105)"><tspan x="0" y="0" style="&st3; &st2;">10</tspan></text>
	</g>
	<g ewd:pinNo="11">
		<text transform="matrix(1 0 0 1 55.1919 65.3105)"><tspan x="0" y="0" style="&st3; &st2;">11</tspan></text>
	</g>
	<g ewd:pinNo="12">
		<text transform="matrix(1 0 0 1 63.7378 65.3105)"><tspan x="0" y="0" style="&st3; &st2;">12</tspan></text>
	</g>
	<g ewd:pinNo="13">
		<text transform="matrix(1 0 0 1 72.8032 65.3105)"><tspan x="0" y="0" style="&st3; &st2;">13</tspan></text>
	</g>
</g>
</svg>