<?xml version="1.0"?>
<!-- Generator: Adobe Illustrator 10.0, SVG Export Plug-In . SVG Version: 3.0.0 Build 77)  -->
<!DOCTYPE svg PUBLIC "-//W3C//DTD SVG 1.0//EN" "http://www.w3.org/TR/2001/REC-SVG-20010904/DTD/svg10.dtd"[
	<!ENTITY ns_flows "http://ns.adobe.com/Flows/1.0/">
	<!ENTITY ns_svg "http://www.w3.org/2000/svg">
	<!ENTITY ns_xlink "http://www.w3.org/1999/xlink">
	<!ENTITY st0 "fill:none;stroke:#000000;stroke-linecap:round;stroke-linejoin:round;">
	<!ENTITY st1 "fill:none;stroke:#000000;stroke-width:0.6;stroke-linecap:round;stroke-linejoin:round;">
	<!ENTITY st2 "font-size:6px;">
	<!ENTITY st3 "font-family:'Arial';">
	<!ATTLIST svg
		ewd:ver CDATA #IMPLIED
		xmlns:ewd CDATA #FIXED "http://shcl.co.jp/ewd"
		xmlns:a CDATA #FIXED "http://ns.adobe.com/AdobeSVGViewerExtensions/3.0/">
	<!ATTLIST g
		ewd:pinNo CDATA #IMPLIED>
]>
<svg width="73.521" height="66.298" viewBox="0 0 73.521 66.298" style="overflow:visible;enable-background:new 0 0 73.521 66.298" xml:space="preserve" onload="call_execInitLoadProc_svg('connector')" ewd:ver="2.1.2.9" xmlns="&ns_svg;" xmlns:ewd="http://shcl.co.jp/ewd" xmlns:a="http://ns.adobe.com/AdobeSVGViewerExtensions/3.0/" xmlns:xlink="&ns_xlink;">
<script type="text/javascript" xlink:href="../../../../../system/js/ewd/fig/svgfig.js"/>
<g id="レイヤー_1">
	<path style="&st1;" d="M14.098,34.919h45.326"/>
	<path style="&st1;" d="M25.429,21.852v25.816"/>
	<path style="&st1;" d="M36.761,21.747v25.921"/>
	<path style="&st1;" d="M48.092,21.852v25.816"/>
	<path style="&st1;" d="M10.415,23.568v26.955"/>
	<path style="&st1;" d="M63.106,23.568v26.955"/>
	<path style="&st1;" d="M6.732,24.798v23.646"/>
	<path style="&st1;" d="M66.789,24.798v23.646"/>
	<path style="&st1;" d="M3.899,33.22v6.799"/>
	<path style="&st1;" d="M69.622,33.22v6.799"/>
	<path style="&st1;" d="M4.749,32.37h1.983"/>
	<path style="&st1;" d="M4.749,40.869h1.983"/>
	<path style="&st1;" d="M66.789,32.37h1.983"/>
	<path style="&st1;" d="M66.789,40.869h1.983"/>
	<path style="&st0;" d="M31.245,65.075h18.414"/>
	<path style="&st0;" d="M52.491,61.489v0.753"/>
	<path style="&st0;" d="M28.412,61.633v0.609"/>
	<path style="&st1;" d="M15.622,61.548v-3.116"/>
	<path style="&st1;" d="M20.721,61.548V58.67"/>
	<path style="&st0;" d="M0.5,30.228V43.01"/>
	<path style="&st0;" d="M73.021,30.228V43.01"/>
	<path style="&st1;" d="M16.472,62.398h3.399"/>
	<path style="&st1;" d="M48.092,10.276v4.227"/>
	<path style="&st1;" d="M25.429,10.276v4.227"/>
	<path style="&st1;" d="M30.387,3.899h12.748"/>
	<path style="&st1;" d="M45.967,6.732v7.706"/>
	<path style="&st1;" d="M27.554,6.732v7.706"/>
	<path style="&st1;" d="M26.279,9.427h1.275"/>
	<path style="&st1;" d="M45.967,9.427h1.275"/>
	<path style="&st0;" d="M27.554,0.5h18.414"/>
	<path style="&st0;" d="M21.888,6.166v1.437"/>
	<path style="&st0;" d="M51.633,6.166v1.437"/>
	<path style="&st1;" d="M29.678,6.732v7.7"/>
	<path style="&st1;" d="M43.843,6.732v7.7"/>
	<path style="&st1;" d="M31.095,5.316h11.332"/>
	<path style="&st1;" d="M29.678,7.441h14.165"/>
	<path style="&st1;" d="M41.01,10.274h2.833"/>
	<path style="&st0;" d="M16.472,65.798h3.399"/>
	<path style="&st1;" d="M32.511,10.274h-2.833"/>
	<path style="&st1;" d="M58.058,22.121c-14.97-0.528-27.625-0.528-42.595,0"/>
	<path style="&st1;" d="M14.511,54.77c15.639,0.569,28.862,0.569,44.501,0"/>
	<path style="&st1;" d="M59.423,23.537c0-0.765-0.602-1.388-1.365-1.416"/>
	<path style="&st1;" d="M15.463,22.121c-0.764,0.028-1.366,0.652-1.366,1.417"/>
	<path style="&st1;" d="M59.013,19.322c-15.64-0.574-28.864-0.574-44.504,0"/>
	<path style="&st1;" d="M10.415,50.523c0,2.292,1.803,4.162,4.093,4.247"/>
	<path style="&st1;" d="M59.013,54.77c2.291-0.084,4.093-1.955,4.093-4.247"/>
	<path style="&st1;" d="M63.106,23.568c0-2.292-1.803-4.163-4.093-4.247"/>
	<path style="&st1;" d="M14.508,19.322c-2.291,0.084-4.093,1.955-4.093,4.247"/>
	<path style="&st1;" d="M57.902,15.597c-14.86-0.515-27.421-0.515-42.281,0"/>
	<path style="&st1;" d="M15.622,57.645c14.858,0.512,27.419,0.512,42.278,0"/>
	<path style="&st0;" d="M28.412,62.242c0,1.564,1.268,2.833,2.833,2.833"/>
	<path style="&st0;" d="M49.659,65.075c1.564,0,2.833-1.269,2.833-2.833"/>
	<path style="&st1;" d="M15.622,15.597c-4.97,0.171-8.889,4.228-8.889,9.201"/>
	<path style="&st1;" d="M6.732,48.443c0,4.973,3.919,9.03,8.889,9.202"/>
	<path style="&st1;" d="M57.899,57.645c4.97-0.171,8.889-4.228,8.889-9.201"/>
	<path style="&st1;" d="M66.789,24.798c0-4.974-3.919-9.03-8.89-9.202"/>
	<path style="&st0;" d="M0.5,43.01c0,7.269,3.886,13.447,10.437,16.596"/>
	<path style="&st0;" d="M55.154,61.415c9.973-0.296,17.866-8.428,17.866-18.405"/>
	<path style="&st0;" d="M17.877,11.846C8.088,12.398,0.502,20.424,0.502,30.228"/>
	<path style="&st0;" d="M73.021,30.228c0-9.804-7.587-17.832-17.376-18.384"/>
	<path style="&st1;" d="M19.871,62.398c0.469,0,0.85-0.381,0.85-0.85"/>
	<path style="&st1;" d="M15.622,61.548c0,0.469,0.381,0.85,0.85,0.85"/>
	<path style="&st1;" d="M30.387,3.899c-1.564,0-2.833,1.269-2.833,2.833"/>
	<path style="&st1;" d="M45.967,6.732c0-1.564-1.268-2.833-2.833-2.833"/>
	<path style="&st1;" d="M26.279,9.427c-0.469,0-0.85,0.38-0.85,0.85"/>
	<path style="&st1;" d="M48.092,10.276c0-0.469-0.38-0.85-0.85-0.85"/>
	<path style="&st0;" d="M27.554,0.5c-3.129,0-5.666,2.537-5.666,5.666"/>
	<path style="&st0;" d="M51.633,6.166c0-3.129-2.537-5.666-5.666-5.666"/>
	<path style="&st0;" d="M51.633,7.603c0,2.263,1.752,4.116,4.012,4.242"/>
	<path style="&st1;" d="M21.59,57.82c-0.469-0.011-0.858,0.361-0.87,0.83"/>
	<path style="&st1;" d="M20.721,58.65c0,0.007,0,0.013,0,0.02"/>
	<path style="&st1;" d="M24.596,15.353c0.463-0.009,0.833-0.387,0.833-0.85"/>
	<path style="&st1;" d="M48.092,14.503c0,0.463,0.37,0.84,0.833,0.85"/>
	<path style="&st1;" d="M15.622,58.432c0-0.435-0.321-0.795-0.753-0.844"/>
	<path style="&st1;" d="M31.095,5.316c-0.782,0-1.417,0.634-1.417,1.417"/>
	<path style="&st1;" d="M43.843,6.732c0-0.782-0.634-1.417-1.417-1.417"/>
	<path style="&st1;" d="M27.554,14.438c0,0.469,0.38,0.85,0.85,0.85"/>
	<path style="&st1;" d="M28.404,15.288c0.004,0,0.007,0,0.011,0"/>
	<path style="&st1;" d="M28.84,15.282c0.465-0.006,0.838-0.385,0.838-0.85"/>
	<path style="&st1;" d="M45.106,15.288c0.47,0.006,0.855-0.369,0.861-0.838"/>
	<path style="&st1;" d="M45.967,14.449c0-0.004,0-0.007,0-0.011"/>
	<path style="&st1;" d="M43.843,14.432c0,0.465,0.373,0.844,0.838,0.85"/>
	<path style="&st0;" d="M25.59,61.588c0.992,0.018,1.83,0.031,2.822,0.044"/>
	<path style="&st1;" d="M4.749,32.37c-0.469,0-0.85,0.38-0.85,0.85"/>
	<path style="&st1;" d="M3.899,40.019c0,0.47,0.38,0.85,0.85,0.85"/>
	<path style="&st1;" d="M69.622,33.22c0-0.469-0.38-0.85-0.85-0.85"/>
	<path style="&st1;" d="M68.772,40.869c0.469,0,0.85-0.38,0.85-0.85"/>
	<path style="&st0;" d="M17.877,11.846c2.26-0.126,4.012-1.98,4.012-4.243"/>
	<path style="&st0;" d="M19.871,65.798c1.903,0,3.506-1.186,4.063-3.006"/>
	<path style="&st0;" d="M12.222,61.613c0.036,2.324,1.925,4.185,4.25,4.185"/>
	<path style="&st0;" d="M12.222,61.613c-0.014-0.882-0.49-1.625-1.286-2.006"/>
	<path style="&st1;" d="M28.412,61.633c8.466,0.114,15.615,0.072,24.079-0.144"/>
	<path style="&st0;" d="M52.491,61.489c0.937-0.024,1.727-0.045,2.663-0.073"/>
	<path style="&st0;" d="M25.59,61.588c-0.772-0.014-1.432,0.465-1.657,1.204"/>
	<path style="&st1;" d="M59.423,23.537v24.13H14.098v-24.13"/>
	<path style="&st1;" d="M41.01,7.441v3.541h-8.499V7.441"/>
	<g ewd:pinNo="1">
		<text transform="matrix(1 0 0 1 18.0811 30.7524)"><tspan x="0" y="0" style="&st3; &st2;">1</tspan></text>
	</g>
	<g ewd:pinNo="2">
		<text transform="matrix(1 0 0 1 29.4126 30.7524)"><tspan x="0" y="0" style="&st3; &st2;">2</tspan></text>
	</g>
	<g ewd:pinNo="3">
		<text transform="matrix(1 0 0 1 40.7441 30.7524)"><tspan x="0" y="0" style="&st3; &st2;">3</tspan></text>
	</g>
	<g ewd:pinNo="4">
		<text transform="matrix(1 0 0 1 52.0757 30.7524)"><tspan x="0" y="0" style="&st3; &st2;">4</tspan></text>
	</g>
	<g ewd:pinNo="5">
		<text transform="matrix(1 0 0 1 18.0811 43.5)"><tspan x="0" y="0" style="&st3; &st2;">5</tspan></text>
	</g>
	<g ewd:pinNo="6">
		<text transform="matrix(1 0 0 1 29.4126 43.5)"><tspan x="0" y="0" style="&st3; &st2;">6</tspan></text>
	</g>
	<g ewd:pinNo="7">
		<text transform="matrix(1 0 0 1 40.7441 43.5)"><tspan x="0" y="0" style="&st3; &st2;">7</tspan></text>
	</g>
	<g ewd:pinNo="8">
		<text transform="matrix(1 0 0 1 52.0757 43.5)"><tspan x="0" y="0" style="&st3; &st2;">8</tspan></text>
	</g>
</g>
</svg>