<?xml version="1.0"?>
<!-- Generator: Adobe Illustrator 10.0, SVG Export Plug-In . SVG Version: 3.0.0 Build 77)  -->
<!DOCTYPE svg PUBLIC "-//W3C//DTD SVG 1.0//EN" "http://www.w3.org/TR/2001/REC-SVG-20010904/DTD/svg10.dtd"[
	<!ENTITY ns_flows "http://ns.adobe.com/Flows/1.0/">
	<!ENTITY ns_svg "http://www.w3.org/2000/svg">
	<!ENTITY ns_xlink "http://www.w3.org/1999/xlink">
	<!ENTITY st0 "fill:none;stroke:#000000;stroke-linecap:round;stroke-linejoin:round;">
	<!ENTITY st1 "fill:none;stroke:#000000;stroke-width:0.6;stroke-linecap:round;stroke-linejoin:round;">
	<!ENTITY st2 "font-size:6px;">
	<!ENTITY st3 "font-family:'Arial';">
	<!ATTLIST svg
		ewd:ver CDATA #IMPLIED
		xmlns:ewd CDATA #FIXED "http://shcl.co.jp/ewd"
		xmlns:a CDATA #FIXED "http://ns.adobe.com/AdobeSVGViewerExtensions/3.0/">
	<!ATTLIST g
		ewd:pinNo CDATA #IMPLIED>
]>
<svg width="61.907" height="54.352" viewBox="0 0 61.907 54.352" style="overflow:visible;enable-background:new 0 0 61.907 54.352" xml:space="preserve" onload="call_execInitLoadProc_svg('connector')" ewd:ver="2.1.2.9" xmlns="&ns_svg;" xmlns:ewd="http://shcl.co.jp/ewd" xmlns:a="http://ns.adobe.com/AdobeSVGViewerExtensions/3.0/" xmlns:xlink="&ns_xlink;">
<script type="text/javascript" xlink:href="../../../../../system/js/ewd/fig/svgfig.js"/>
<g id="レイヤー_1">
	<path style="&st0;" d="M48.211,53.852c1.757,0,3.252-0.453,4.714-1.427"/>
	<path style="&st0;" d="M8.981,52.424c1.462,0.975,2.957,1.427,4.714,1.427"/>
	<path style="&st0;" d="M57.353,2.112c-0.483-1.01-1.435-1.611-2.555-1.611"/>
	<path style="&st1;" d="M57.63,3.333c0-0.444-0.085-0.821-0.277-1.221"/>
	<path style="&st1;" d="M4.554,2.112C4.362,2.513,4.277,2.889,4.277,3.333"/>
	<path style="&st0;" d="M7.109,0.5c-1.121,0-2.073,0.601-2.556,1.612"/>
	<path style="&st1;" d="M52.908,6.166c0-1.564-1.268-2.833-2.833-2.833"/>
	<path style="&st0;" d="M0.5,45.254c0,0.979,0.446,1.813,1.261,2.356"/>
	<path style="&st1;" d="M11.832,3.333c-1.565,0-2.833,1.269-2.833,2.833"/>
	<path style="&st0;" d="M60.146,47.611c0.814-0.543,1.261-1.378,1.261-2.357"/>
	<path style="&st0;" d="M13.695,53.852h34.516"/>
	<path style="&st1;" d="M0.5,43.937h60.906"/>
	<path style="&st1;" d="M6.166,28.355v12.748h49.575V28.355H6.166"/>
	<path style="&st1;" d="M16.081,41.104V28.355"/>
	<path style="&st1;" d="M25.996,41.104V28.355"/>
	<path style="&st1;" d="M35.911,41.104V28.355"/>
	<path style="&st1;" d="M45.826,41.104V28.355"/>
	<path style="&st0;" d="M52.925,52.424l7.221-4.813"/>
	<path style="&st0;" d="M8.981,52.424l-7.221-4.813"/>
	<path style="&st1;" d="M6.166,22.69h12.748v-9.915h24.079v9.915h12.748"/>
	<path style="&st1;" d="M0.5,14.665l1.89-1.89h1.886l1.89,1.89v8.025"/>
	<path style="&st1;" d="M61.406,14.665l-1.889-1.89H57.63l-1.89,1.89v8.025"/>
	<path style="&st0;" d="M0.5,45.254V6.166"/>
	<path style="&st0;" d="M61.406,45.254V6.166"/>
	<path style="&st0;" d="M7.109,0.5h47.688"/>
	<path style="&st1;" d="M4.276,3.333v9.442"/>
	<path style="&st1;" d="M57.63,12.775V3.333"/>
	<path style="&st0;" d="M57.353,2.112l4.054,4.054"/>
	<path style="&st0;" d="M4.554,2.112L0.5,6.166"/>
	<path style="&st1;" d="M8.999,22.69V6.166"/>
	<path style="&st1;" d="M52.908,22.69V6.166"/>
	<path style="&st1;" d="M11.832,3.333h38.244"/>
	<path style="&st1;" d="M24.933,12.775V7.109h12.04v5.666"/>
	<g ewd:pinNo="1">
		<text transform="matrix(1 0 0 1 9.5586 37.0112)"><tspan x="0" y="0" style="&st3; &st2;">1</tspan></text>
	</g>
	<g ewd:pinNo="2">
		<text transform="matrix(1 0 0 1 19.4736 37.0112)"><tspan x="0" y="0" style="&st3; &st2;">2</tspan></text>
	</g>
	<g ewd:pinNo="3">
		<text transform="matrix(1 0 0 1 29.3887 37.0112)"><tspan x="0" y="0" style="&st3; &st2;">3</tspan></text>
	</g>
	<g ewd:pinNo="4">
		<text transform="matrix(1 0 0 1 39.3037 37.0112)"><tspan x="0" y="0" style="&st3; &st2;">4</tspan></text>
	</g>
	<g ewd:pinNo="5">
		<text transform="matrix(1 0 0 1 49.2183 37.0112)"><tspan x="0" y="0" style="&st3; &st2;">5</tspan></text>
	</g>
</g>
</svg>