<?xml version="1.0"?>
<!-- Generator: Adobe Illustrator 10.0, SVG Export Plug-In . SVG Version: 3.0.0 Build 77)  -->
<!DOCTYPE svg PUBLIC "-//W3C//DTD SVG 1.0//EN" "http://www.w3.org/TR/2001/REC-SVG-20010904/DTD/svg10.dtd"[
	<!ENTITY ns_flows "http://ns.adobe.com/Flows/1.0/">
	<!ENTITY ns_svg "http://www.w3.org/2000/svg">
	<!ENTITY ns_xlink "http://www.w3.org/1999/xlink">
	<!ENTITY st0 "fill:none;stroke:#000000;stroke-linecap:round;stroke-linejoin:round;">
	<!ENTITY st1 "fill:none;stroke:#000000;stroke-width:0.6;stroke-linecap:round;stroke-linejoin:round;">
	<!ENTITY st2 "font-size:6px;">
	<!ENTITY st3 "font-family:'Arial';">
	<!ATTLIST svg
		ewd:ver CDATA #IMPLIED
		xmlns:ewd CDATA #FIXED "http://shcl.co.jp/ewd"
		xmlns:a CDATA #FIXED "http://ns.adobe.com/AdobeSVGViewerExtensions/3.0/">
	<!ATTLIST g
		ewd:pinNo CDATA #IMPLIED>
]>
<svg width="42.928" height="35.304" viewBox="0 0 42.928 35.304" style="overflow:visible;enable-background:new 0 0 42.928 35.304" xml:space="preserve" onload="call_execInitLoadProc_svg('connector')" ewd:ver="2.1.2.9" xmlns="&ns_svg;" xmlns:ewd="http://shcl.co.jp/ewd" xmlns:a="http://ns.adobe.com/AdobeSVGViewerExtensions/3.0/" xmlns:xlink="&ns_xlink;">
<script type="text/javascript" xlink:href="../../../../../system/js/ewd/fig/svgfig.js"/>
<g id="レイヤー_1">
	<path style="&st1;" d="M10.133,27.532L4.75,24.425"/>
	<path style="&st1;" d="M38.178,24.425l-5.382,3.107"/>
	<path style="&st1;" d="M13.674,11.903h0.354"/>
	<path style="&st1;" d="M12.257,7.988v2.499"/>
	<path style="&st1;" d="M29.254,11.903H28.9"/>
	<path style="&st1;" d="M30.671,7.988v2.499"/>
	<path style="&st1;" d="M38.886,12.592v10.606"/>
	<path style="&st1;" d="M4.042,12.592v10.606"/>
	<path style="&st1;" d="M13.674,24.085h15.581"/>
	<path style="&st1;" d="M12.257,26.306v-0.805"/>
	<path style="&st1;" d="M30.671,25.501v0.805"/>
	<path style="&st1;" d="M25.713,13.745v8.498"/>
	<path style="&st1;" d="M17.215,13.745v8.498"/>
	<path style="&st1;" d="M9.424,28.759l-5.382-3.107"/>
	<path style="&st1;" d="M38.886,25.651l-5.382,3.107"/>
	<path style="&st1;" d="M2.625,12.592v10.606"/>
	<path style="&st1;" d="M40.303,12.592v10.606"/>
	<path style="&st0;" d="M0.501,12.592v10.606"/>
	<path style="&st0;" d="M14.028,0.501H28.9"/>
	<path style="&st0;" d="M42.427,12.592v10.606"/>
	<path style="&st1;" d="M8.362,30.6l-5.029-2.903"/>
	<path style="&st1;" d="M16.597,27.626h9.734"/>
	<path style="&st1;" d="M36.195,13.388h1.841"/>
	<path style="&st1;" d="M38.036,22.601h-1.841"/>
	<path style="&st1;" d="M6.733,13.388H4.892"/>
	<path style="&st1;" d="M4.892,22.601h1.842"/>
	<path style="&st1;" d="M34.778,21.184v-6.379"/>
	<path style="&st1;" d="M8.15,14.804v6.379"/>
	<path style="&st1;" d="M36.195,21.184v-6.379"/>
	<path style="&st1;" d="M6.733,14.804v6.379"/>
	<path style="&st0;" d="M6.167,34.804h30.595"/>
	<path style="&st1;" d="M17.215,27.626v3.637"/>
	<path style="&st1;" d="M25.713,27.626v3.637"/>
	<path style="&st1;" d="M17.215,29.042h8.499"/>
	<path style="&st1;" d="M39.594,27.697L34.566,30.6"/>
	<path style="&st1;" d="M3.9,12.054c-0.004,0.002-0.008,0.004-0.012,0.007"/>
	<path style="&st1;" d="M15.444,5.634c-4.267,1.12-7.659,2.952-10.935,5.907"/>
	<path style="&st1;" d="M38.418,11.541c-3.275-2.955-6.667-4.787-10.935-5.907"/>
	<path style="&st1;" d="M30.671,25.501c0-0.782-0.634-1.416-1.417-1.416"/>
	<path style="&st1;" d="M13.674,24.085c-0.782,0-1.417,0.634-1.417,1.416"/>
	<path style="&st1;" d="M30.671,26.306c0,0.782,0.634,1.417,1.417,1.417"/>
	<path style="&st1;" d="M32.087,27.722c0.261,0,0.482-0.06,0.708-0.19"/>
	<path style="&st1;" d="M10.133,27.532c0.677,0.391,1.543,0.159,1.935-0.519"/>
	<path style="&st1;" d="M12.067,27.014c0.13-0.226,0.19-0.447,0.19-0.708"/>
	<path style="&st1;" d="M4.509,11.541C4.2,11.82,4.042,12.175,4.042,12.592"/>
	<path style="&st1;" d="M4.042,23.198c0,0.521,0.257,0.966,0.708,1.227"/>
	<path style="&st1;" d="M38.886,12.592c0-0.417-0.158-0.772-0.467-1.051"/>
	<path style="&st1;" d="M38.178,24.425c0.452-0.261,0.708-0.705,0.708-1.227"/>
	<path style="&st1;" d="M14.028,4.563c-4.077,1.245-7.301,3.07-10.466,5.924"/>
	<path style="&st1;" d="M39.368,10.487c-3.166-2.855-6.39-4.68-10.467-5.925"/>
	<path style="&st1;" d="M40.303,12.592c0-0.833-0.317-1.545-0.936-2.104"/>
	<path style="&st1;" d="M29.254,26.306c0,1.564,1.269,2.833,2.833,2.833"/>
	<path style="&st1;" d="M32.087,29.139c0.521,0,0.965-0.119,1.417-0.38"/>
	<path style="&st1;" d="M9.424,28.759c1.355,0.782,3.087,0.318,3.87-1.037"/>
	<path style="&st1;" d="M13.294,27.722c0.261-0.452,0.38-0.895,0.38-1.417"/>
	<path style="&st1;" d="M38.886,25.651c0.903-0.521,1.417-1.41,1.417-2.453"/>
	<path style="&st1;" d="M2.625,23.198c0,1.043,0.513,1.932,1.417,2.453"/>
	<path style="&st1;" d="M3.56,10.487c-0.619,0.559-0.936,1.271-0.936,2.104"/>
	<path style="&st0;" d="M10.453,3.606c-3.206,1.362-5.728,2.97-8.314,5.303"/>
	<path style="&st0;" d="M2.138,8.909C1.054,9.886,0.5,11.133,0.5,12.592"/>
	<path style="&st0;" d="M40.79,8.909c-2.587-2.333-5.109-3.941-8.314-5.303"/>
	<path style="&st0;" d="M42.427,12.592c0-1.459-0.554-2.705-1.638-3.682"/>
	<path style="&st0;" d="M39.949,27.493c1.581-0.913,2.479-2.469,2.479-4.294"/>
	<path style="&st1;" d="M27.608,28.433c1.175,2.474,4.133,3.526,6.606,2.352"/>
	<path style="&st1;" d="M34.215,30.785c0.126-0.06,0.23-0.115,0.351-0.185"/>
	<path style="&st1;" d="M8.362,30.6c2.372,1.369,5.404,0.556,6.773-1.815"/>
	<path style="&st1;" d="M15.135,28.785c0.07-0.121,0.125-0.225,0.184-0.35"/>
	<path style="&st0;" d="M0.501,23.198c0,1.825,0.898,3.381,2.479,4.293"/>
	<path style="&st0;" d="M14.028,0.501c-0.924,0-1.705,0.556-2.007,1.429"/>
	<path style="&st0;" d="M30.909,1.929C30.606,1.056,29.825,0.5,28.9,0.5"/>
	<path style="&st0;" d="M10.453,3.606c0.765-0.325,1.295-0.892,1.567-1.677"/>
	<path style="&st0;" d="M30.909,1.929c0.272,0.784,0.803,1.351,1.567,1.676"/>
	<path style="&st1;" d="M14.028,11.903c0.782,0,1.417-0.634,1.417-1.416"/>
	<path style="&st1;" d="M12.257,10.487c0,0.782,0.634,1.416,1.417,1.416"/>
	<path style="&st1;" d="M29.254,11.903c0.782,0,1.417-0.634,1.417-1.416"/>
	<path style="&st1;" d="M27.484,10.487c0,0.782,0.634,1.416,1.417,1.416"/>
	<path style="&st1;" d="M12.257,7.988c0-0.469-0.38-0.85-0.85-0.85"/>
	<path style="&st1;" d="M11.407,7.139c-0.129,0-0.239,0.024-0.356,0.078"/>
	<path style="&st1;" d="M31.878,7.215c-0.427-0.197-0.934-0.01-1.131,0.417"/>
	<path style="&st1;" d="M30.747,7.631c-0.054,0.118-0.078,0.228-0.078,0.357"/>
	<path style="&st1;" d="M36.195,13.388c-0.782,0-1.417,0.634-1.417,1.417"/>
	<path style="&st1;" d="M34.778,21.184c0,0.783,0.634,1.417,1.417,1.417"/>
	<path style="&st1;" d="M8.15,14.804c0-0.782-0.634-1.417-1.417-1.417"/>
	<path style="&st1;" d="M6.733,22.601c0.782,0,1.417-0.634,1.417-1.417"/>
	<path style="&st1;" d="M6.733,14.804c0-0.782-0.634-1.417-1.417-1.417"/>
	<path style="&st1;" d="M5.317,22.601c0.782,0,1.417-0.634,1.417-1.417"/>
	<path style="&st1;" d="M37.611,13.388c-0.782,0-1.417,0.634-1.417,1.417"/>
	<path style="&st1;" d="M36.195,21.184c0,0.783,0.634,1.417,1.417,1.417"/>
	<path style="&st1;" d="M4.892,13.388c-0.469,0-0.85,0.381-0.85,0.85"/>
	<path style="&st1;" d="M4.042,21.75c0,0.469,0.38,0.85,0.85,0.85"/>
	<path style="&st1;" d="M38.886,14.238c0-0.469-0.38-0.85-0.85-0.85"/>
	<path style="&st1;" d="M38.036,22.601c0.47,0,0.85-0.381,0.85-0.85"/>
	<path style="&st0;" d="M3.333,31.971c0,1.565,1.269,2.833,2.833,2.833"/>
	<path style="&st0;" d="M36.762,34.804c1.564,0,2.833-1.268,2.833-2.833"/>
	<path style="&st1;" d="M10.841,34.804c0.782,0,1.417-0.634,1.417-1.417"/>
	<path style="&st1;" d="M30.671,33.388c0,0.782,0.634,1.417,1.417,1.417"/>
	<path style="&st1;" d="M16.597,27.626c-0.561,0-1.038,0.301-1.279,0.808"/>
	<path style="&st1;" d="M27.611,28.433c-0.241-0.507-0.719-0.809-1.28-0.809"/>
	<path style="&st1;" d="M27.484,10.487V4.042h-12.04v6.445"/>
	<path style="&st1;" d="M28.9,4.563V2.625H14.028v1.938"/>
	<path style="&st1;" d="M29.254,26.306v-0.805H13.674v0.805"/>
	<path style="&st1;" d="M33.362,13.745H9.566v8.498h23.796V13.745"/>
	<path style="&st1;" d="M30.671,33.388v-2.125H12.257v2.125"/>
	<path style="&st1;" d="M23.589,31.263v2.125h-4.25v-2.125"/>
	<path style="&st0;" d="M3.333,31.971v-4.274l-0.354-0.204"/>
	<path style="&st0;" d="M39.594,31.971v-4.274l0.354-0.204"/>
	<g ewd:pinNo="1">
		<text transform="matrix(1 0 0 1 27.8853 20.1509)"><tspan x="0" y="0" style="&st3; &st2;">1</tspan></text>
	</g>
	<g ewd:pinNo="2">
		<text transform="matrix(1 0 0 1 11.8794 20.1509)"><tspan x="0" y="0" style="&st3; &st2;">2</tspan></text>
	</g>
</g>
</svg>