<?xml version="1.0"?>
<!-- Generator: Adobe Illustrator 10.0, SVG Export Plug-In . SVG Version: 3.0.0 Build 77)  -->
<!DOCTYPE svg PUBLIC "-//W3C//DTD SVG 1.0//EN" "http://www.w3.org/TR/2001/REC-SVG-20010904/DTD/svg10.dtd"[
	<!ENTITY ns_flows "http://ns.adobe.com/Flows/1.0/">
	<!ENTITY ns_svg "http://www.w3.org/2000/svg">
	<!ENTITY ns_xlink "http://www.w3.org/1999/xlink">
	<!ENTITY st0 "fill:none;stroke:#000000;stroke-linecap:round;stroke-linejoin:round;">
	<!ENTITY st1 "fill:none;stroke:#000000;stroke-width:0.6;stroke-linecap:round;stroke-linejoin:round;">
	<!ENTITY st2 "font-size:6px;">
	<!ENTITY st3 "font-family:'Arial';">
	<!ATTLIST svg
		ewd:ver CDATA #IMPLIED
		xmlns:ewd CDATA #FIXED "http://shcl.co.jp/ewd"
		xmlns:a CDATA #FIXED "http://ns.adobe.com/AdobeSVGViewerExtensions/3.0/">
	<!ATTLIST g
		ewd:pinNo CDATA #IMPLIED>
]>
<svg width="74.261" height="59.584" viewBox="0 0 74.261 59.584" style="overflow:visible;enable-background:new 0 0 74.261 59.584" xml:space="preserve" onload="call_execInitLoadProc_svg('connector')" ewd:ver="2.1.2.9" xmlns="&ns_svg;" xmlns:ewd="http://shcl.co.jp/ewd" xmlns:a="http://ns.adobe.com/AdobeSVGViewerExtensions/3.0/" xmlns:xlink="&ns_xlink;">
<script type="text/javascript" xlink:href="../../../../../system/js/ewd/fig/svgfig.js"/>
<g id="レイヤー_1">
	<path style="&st1;" d="M61.084,36.446c0.499-0.498,0.748-1.1,0.748-1.805"/>
	<path style="&st1;" d="M18.348,9.565c-6.336,0-11.473,5.137-11.473,11.473"/>
	<path style="&st0;" d="M72.418,46.622c0.885-0.754,1.343-1.747,1.343-2.91"/>
	<path style="&st1;" d="M55.968,49.084c4.224,0,7.649-3.425,7.649-7.649"/>
	<path style="&st1;" d="M67.441,21.038c0-6.336-5.137-11.473-11.473-11.473"/>
	<path style="&st1;" d="M6.875,41.435c0,6.336,5.137,11.473,11.473,11.473"/>
	<path style="&st1;" d="M10.699,41.435c0,4.224,3.424,7.649,7.649,7.649"/>
	<path style="&st1;" d="M13.249,41.435c0,2.816,2.283,5.099,5.099,5.099"/>
	<path style="&st1;" d="M55.458,46.534c2.816,0,5.099-2.283,5.099-5.099"/>
	<path style="&st1;" d="M18.348,15.939c-2.816,0-5.099,2.283-5.099,5.099"/>
	<path style="&st1;" d="M63.617,21.038c0-4.224-3.425-7.648-7.649-7.648"/>
	<path style="&st1;" d="M61.832,27.832c0-0.705-0.25-1.306-0.749-1.804"/>
	<path style="&st1;" d="M55.968,52.908c6.237,0,11.315-4.955,11.47-11.19"/>
	<path style="&st1;" d="M60.557,21.038c0-2.816-2.283-5.099-5.099-5.099"/>
	<path style="&st1;" d="M18.348,13.39c-4.225,0-7.649,3.425-7.649,7.648"/>
	<path style="&st1;" d="M51.563,2.285c0-0.986-0.799-1.785-1.785-1.785"/>
	<path style="&st1;" d="M18.348,5.741c-2.041,0-3.771,0.332-5.666,1.087"/>
	<path style="&st1;" d="M24.027,5.741c-0.986,0-1.785,0.799-1.785,1.784"/>
	<path style="&st0;" d="M3.104,42.704c0.664,7.974,7.243,14.027,15.244,14.027"/>
	<path style="&st1;" d="M49.013,7.525c0-0.985-0.799-1.784-1.785-1.784"/>
	<path style="&st0;" d="M1.249,33.039C0.75,33.537,0.5,34.138,0.5,34.843"/>
	<path style="&st0;" d="M0.5,39.104c0,0.705,0.25,1.307,0.748,1.804"/>
	<path style="&st0;" d="M73.761,17.18c0-0.811-0.337-1.504-0.975-2.005"/>
	<path style="&st1;" d="M21.478,0.5c-0.985,0-1.785,0.799-1.785,1.785"/>
	<path style="&st0;" d="M55.458,56.724c3.606-0.126,6.642-1.305,9.388-3.646"/>
	<path style="&st0;" d="M64.931,9.007c-1.956-1.536-3.922-2.449-6.357-2.951"/>
	<path style="&st0;" d="M58.574,1.775c0-0.704-0.571-1.275-1.275-1.275"/>
	<path style="&st0;" d="M13.957,0.5c-0.704,0-1.275,0.571-1.275,1.275"/>
	<path style="&st1;" d="M58.574,6.056c-1.072-0.221-1.997-0.315-3.091-0.315"/>
	<path style="&st0;" d="M12.682,6.829C6.729,9.202,3.05,14.631,3.05,21.038"/>
	<path style="&st0;" d="M20.407,57.667c0,0.782,0.634,1.417,1.417,1.417"/>
	<path style="&st1;" d="M26.486,59.084c0.782,0,1.417-0.634,1.417-1.417"/>
	<path style="&st0;" d="M54.042,59.084c0.782,0,1.417-0.634,1.417-1.417"/>
	<path style="&st1;" d="M60.557,36.973l0.527-0.527"/>
	<path style="&st1;" d="M18.348,13.39h37.62"/>
	<path style="&st1;" d="M61.832,27.832v6.81"/>
	<path style="&st1;" d="M18.348,49.084h37.62"/>
	<path style="&st1;" d="M13.249,21.038v20.397"/>
	<path style="&st0;" d="M1.249,33.039l1.801-1.802V21.038"/>
	<path style="&st1;" d="M19.693,5.741V2.285"/>
	<path style="&st1;" d="M20.331,23.588v15.298h30.595V23.588H20.331"/>
	<path style="&st1;" d="M27.979,38.886V23.588"/>
	<path style="&st1;" d="M35.628,38.886V23.588"/>
	<path style="&st1;" d="M43.276,38.886V23.588"/>
	<path style="&st1;" d="M18.348,15.939h37.11"/>
	<path style="&st1;" d="M67.441,21.038v14.023"/>
	<path style="&st1;" d="M18.348,52.908h4.022"/>
	<path style="&st1;" d="M60.557,25.5l0.527,0.527"/>
	<path style="&st1;" d="M18.348,46.534h37.11"/>
	<path style="&st1;" d="M22.37,52.908v3.06h3.569v-3.06"/>
	<path style="&st1;" d="M13.249,35.486h2.549V16.622"/>
	<path style="&st1;" d="M63.617,21.038v20.397"/>
	<path style="&st1;" d="M60.557,35.698v5.737"/>
	<path style="&st1;" d="M44.551,13.39V5.741"/>
	<path style="&st1;" d="M60.557,26.775h-5.099v8.923h5.099"/>
	<path style="&st0;" d="M1.249,40.908L3.05,42.71"/>
	<path style="&st1;" d="M6.875,35.061H3.05v3.825h3.825"/>
	<path style="&st1;" d="M51.563,5.741h3.921"/>
	<path style="&st1;" d="M10.699,21.038v20.397"/>
	<path style="&st1;" d="M25.939,52.908h30.028"/>
	<path style="&st1;" d="M26.705,10.33h17.847"/>
	<path style="&st0;" d="M64.931,9.007l7.855,6.167"/>
	<path style="&st1;" d="M24.027,0.5v1.275h23.201V0.5"/>
	<path style="&st1;" d="M67.441,35.061h3.824v3.825h-3.827"/>
	<path style="&st0;" d="M0.5,39.104v-4.261"/>
	<path style="&st1;" d="M18.348,9.565h3.895"/>
	<path style="&st0;" d="M12.682,1.775v5.054"/>
	<path style="&st0;" d="M73.761,43.712V17.18"/>
	<path style="&st1;" d="M26.705,13.39V5.741"/>
	<path style="&st1;" d="M18.348,5.741h1.345"/>
	<path style="&st0;" d="M64.846,53.078l7.572-6.456"/>
	<path style="&st1;" d="M24.027,5.741h23.201"/>
	<path style="&st1;" d="M51.563,5.741V2.285"/>
	<path style="&st0;" d="M13.957,0.5h43.343"/>
	<path style="&st1;" d="M22.243,9.565v-2.04"/>
	<path style="&st1;" d="M49.013,9.565h6.955"/>
	<path style="&st1;" d="M26.705,7.653h17.847"/>
	<path style="&st1;" d="M49.013,9.565v-2.04"/>
	<path style="&st0;" d="M58.574,1.775v4.281"/>
	<path style="&st1;" d="M22.243,9.565h4.462"/>
	<path style="&st1;" d="M24.472,9.565v3.824"/>
	<path style="&st1;" d="M46.781,9.565v3.824"/>
	<path style="&st1;" d="M49.013,9.565h-4.462"/>
	<path style="&st0;" d="M54.042,59.084H21.823"/>
	<path style="&st1;" d="M27.903,56.732h27.555"/>
	<path style="&st1;" d="M6.875,21.038v14.023"/>
	<path style="&st1;" d="M6.875,38.886v2.549"/>
	<path style="&st1;" d="M67.438,41.718v-2.833"/>
	<path style="&st1;" d="M60.557,26.775v-5.737"/>
	<path style="&st1;" d="M20.331,31.237h30.595"/>
	<path style="&st0;" d="M18.348,56.732h2.059"/>
	<path style="&st0;" d="M20.407,57.667v-0.935"/>
	<path style="&st1;" d="M27.903,57.667v-0.935"/>
	<path style="&st0;" d="M55.458,57.667v-0.935"/>
	<g ewd:pinNo="1">
		<text transform="matrix(1 0 0 1 22.5933 29.5605)"><tspan x="0" y="0" style="&st3; &st2;">1</tspan></text>
	</g>
	<g ewd:pinNo="2">
		<text transform="matrix(1 0 0 1 30.2417 29.5605)"><tspan x="0" y="0" style="&st3; &st2;">2</tspan></text>
	</g>
	<g ewd:pinNo="3">
		<text transform="matrix(1 0 0 1 37.8906 29.5605)"><tspan x="0" y="0" style="&st3; &st2;">3</tspan></text>
	</g>
	<g ewd:pinNo="4">
		<text transform="matrix(1 0 0 1 45.5391 29.5605)"><tspan x="0" y="0" style="&st3; &st2;">4</tspan></text>
	</g>
	<g ewd:pinNo="5">
		<text transform="matrix(1 0 0 1 22.5933 37.209)"><tspan x="0" y="0" style="&st3; &st2;">5</tspan></text>
	</g>
	<g ewd:pinNo="6">
		<text transform="matrix(1 0 0 1 30.2417 37.209)"><tspan x="0" y="0" style="&st3; &st2;">6</tspan></text>
	</g>
	<g ewd:pinNo="7">
		<text transform="matrix(1 0 0 1 37.8906 37.209)"><tspan x="0" y="0" style="&st3; &st2;">7</tspan></text>
	</g>
	<g ewd:pinNo="8">
		<text transform="matrix(1 0 0 1 45.5391 37.209)"><tspan x="0" y="0" style="&st3; &st2;">8</tspan></text>
	</g>
</g>
</svg>