<?xml version="1.0"?>
<!-- Generator: Adobe Illustrator 10.0, SVG Export Plug-In . SVG Version: 3.0.0 Build 77)  -->
<!DOCTYPE svg PUBLIC "-//W3C//DTD SVG 1.0//EN" "http://www.w3.org/TR/2001/REC-SVG-20010904/DTD/svg10.dtd"[
	<!ENTITY ns_flows "http://ns.adobe.com/Flows/1.0/">
	<!ENTITY ns_svg "http://www.w3.org/2000/svg">
	<!ENTITY ns_xlink "http://www.w3.org/1999/xlink">
	<!ENTITY st0 "fill:none;stroke:#000000;stroke-linecap:round;stroke-linejoin:round;">
	<!ENTITY st1 "fill:none;stroke:#000000;stroke-width:0.6;stroke-linecap:round;stroke-linejoin:round;">
	<!ENTITY st2 "font-size:6px;">
	<!ENTITY st3 "font-family:'Arial';">
	<!ATTLIST svg
		ewd:ver CDATA #IMPLIED
		xmlns:ewd CDATA #FIXED "http://shcl.co.jp/ewd"
		xmlns:a CDATA #FIXED "http://ns.adobe.com/AdobeSVGViewerExtensions/3.0/">
	<!ATTLIST g
		ewd:pinNo CDATA #IMPLIED>
]>
<svg width="48.096" height="56.133" viewBox="0 0 48.096 56.133" style="overflow:visible;enable-background:new 0 0 48.096 56.133" xml:space="preserve" onload="call_execInitLoadProc_svg('connector')" ewd:ver="2.1.2.9" xmlns="&ns_svg;" xmlns:ewd="http://shcl.co.jp/ewd" xmlns:a="http://ns.adobe.com/AdobeSVGViewerExtensions/3.0/" xmlns:xlink="&ns_xlink;">
<script type="text/javascript" xlink:href="../../../../../system/js/ewd/fig/svgfig.js"/>
<g id="レイヤー_1">
	<path style="&st0;" d="M12.905,51.647l0.793,1.98"/>
	<path style="&st0;" d="M35.217,51.633l-0.796,1.995"/>
	<path style="&st0;" d="M0.5,26.418v9.028"/>
	<path style="&st0;" d="M47.596,26.551v9.031"/>
	<path style="&st1;" d="M14.486,31.707h7.969"/>
	<path style="&st1;" d="M5.879,29.517H4.041"/>
	<path style="&st1;" d="M3.333,33.058v-2.833"/>
	<path style="&st1;" d="M4.041,33.767h1.838"/>
	<path style="&st1;" d="M42.217,29.647h1.838"/>
	<path style="&st1;" d="M42.217,33.897h1.838"/>
	<path style="&st1;" d="M44.763,30.355v2.833"/>
	<path style="&st0;" d="M47.197,36.22l-2.632,1.272"/>
	<path style="&st0;" d="M0.899,36.084l2.624,1.271"/>
	<path style="&st0;" d="M0.899,25.781l2.711-1.312"/>
	<path style="&st1;" d="M33.602,4.75v9.907"/>
	<path style="&st1;" d="M14.48,4.75v9.915"/>
	<path style="&st1;" d="M15.896,3.333h1.841"/>
	<path style="&st0;" d="M13.653,0.5h20.776"/>
	<path style="&st0;" d="M10.981,2.393L4.216,21.628"/>
	<path style="&st0;" d="M37.101,2.393l6.779,19.232"/>
	<path style="&st1;" d="M3.571,38.2h3.192"/>
	<path style="&st1;" d="M41.341,38.2h3.184"/>
	<path style="&st1;" d="M14.48,7.583h3.541"/>
	<path style="&st1;" d="M14.48,10.416h3.541"/>
	<path style="&st1;" d="M30.061,10.416h3.541"/>
	<path style="&st1;" d="M30.061,7.583h3.541"/>
	<path style="&st1;" d="M18.021,11.832h12.04"/>
	<path style="&st1;" d="M30.344,3.333h1.841"/>
	<path style="&st1;" d="M27.936,4.041h-7.79"/>
	<path style="&st1;" d="M18.304,2.625h11.473"/>
	<path style="&st1;" d="M18.021,2.908V3.05"/>
	<path style="&st1;" d="M30.061,2.908V3.05"/>
	<path style="&st1;" d="M12.517,48.121l-4.754,0.623"/>
	<path style="&st1;" d="M35.571,48.121l4.756,0.623"/>
	<path style="&st1;" d="M22.449,22.135v19.153"/>
	<path style="&st1;" d="M25.636,22.135v19.15"/>
	<path style="&st1;" d="M25.636,31.707h7.966"/>
	<path style="&st0;" d="M16.769,55.633H31.46"/>
	<path style="&st0;" d="M47.197,25.914l-2.7-1.309"/>
	<path style="&st1;" d="M32.814,18.517c-6.155-0.526-11.395-0.523-17.549,0.01"/>
	<path style="&st1;" d="M15.282,44.897c6.155,0.526,11.395,0.523,17.549-0.01"/>
	<path style="&st1;" d="M15.265,18.525c-2.391,0.207-4.226,2.094-4.364,4.49"/>
	<path style="&st1;" d="M37.177,22.945c-0.166-2.374-1.992-4.226-4.362-4.428"/>
	<path style="&st1;" d="M10.919,40.469c0.166,2.374,1.992,4.227,4.362,4.428"/>
	<path style="&st1;" d="M32.832,44.888c2.353-0.203,4.167-2.028,4.356-4.382"/>
	<path style="&st1;" d="M6.882,23.313c-0.145,1.938-0.233,3.576-0.296,5.518"/>
	<path style="&st1;" d="M41.214,40.101c0.145-1.938,0.232-3.576,0.295-5.518"/>
	<path style="&st1;" d="M15.681,48.928c5.879,0.461,10.877,0.458,16.756-0.009"/>
	<path style="&st1;" d="M14.48,14.665c-4.253,0.88-7.272,4.318-7.597,8.649"/>
	<path style="&st1;" d="M6.894,40.121c0.361,4.749,4.039,8.436,8.787,8.809"/>
	<path style="&st1;" d="M32.438,48.917c4.746-0.378,8.418-4.068,8.774-8.816"/>
	<path style="&st1;" d="M41.2,23.293c-0.329-4.327-3.348-7.759-7.598-8.637"/>
	<path style="&st1;" d="M15.429,52.104c6.052,0.475,11.197,0.473,17.249-0.009"/>
	<path style="&st1;" d="M3.607,24.469c-0.049,0.767-0.085,1.414-0.122,2.182"/>
	<path style="&st0;" d="M13.698,53.628c0.51,1.274,1.698,2.05,3.071,2.002"/>
	<path style="&st1;" d="M3.486,26.65c-2.757,1.48-3.792,4.915-2.312,7.671"/>
	<path style="&st1;" d="M1.174,34.322c0.552,1.027,1.285,1.76,2.312,2.312"/>
	<path style="&st1;" d="M44.604,36.77c2.76-1.477,3.8-4.912,2.323-7.672"/>
	<path style="&st1;" d="M46.928,29.098c-0.551-1.028-1.283-1.763-2.311-2.316"/>
	<path style="&st0;" d="M3.718,40.361c0.413,5.429,3.954,9.78,9.187,11.285"/>
	<path style="&st1;" d="M44.763,30.355c0-0.391-0.317-0.708-0.708-0.708"/>
	<path style="&st1;" d="M44.055,33.897c0.391,0,0.708-0.317,0.708-0.708"/>
	<path style="&st1;" d="M4.041,29.517c-0.391,0-0.708,0.317-0.708,0.708"/>
	<path style="&st1;" d="M3.333,33.058c0,0.391,0.317,0.708,0.708,0.708"/>
	<path style="&st1;" d="M6.587,34.452c0.065,1.995,0.156,3.678,0.308,5.668"/>
	<path style="&st1;" d="M41.508,28.962c-0.064-1.995-0.156-3.678-0.307-5.668"/>
	<path style="&st0;" d="M47.197,36.22c0.251-0.122,0.399-0.358,0.399-0.637"/>
	<path style="&st0;" d="M0.5,35.446c0,0.279,0.148,0.516,0.399,0.638"/>
	<path style="&st0;" d="M47.596,26.551c0-0.279-0.148-0.516-0.399-0.637"/>
	<path style="&st0;" d="M0.899,25.781C0.648,25.902,0.5,26.139,0.5,26.418"/>
	<path style="&st0;" d="M13.653,0.5c-1.228,0-2.265,0.734-2.672,1.893"/>
	<path style="&st0;" d="M37.101,2.393c-0.408-1.157-1.444-1.892-2.671-1.892"/>
	<path style="&st1;" d="M44.616,26.784c-0.036-0.767-0.072-1.413-0.12-2.179"/>
	<path style="&st1;" d="M20.146,4.041c-1.173,0-2.125,0.951-2.125,2.125"/>
	<path style="&st1;" d="M30.061,6.166c0-1.174-0.952-2.125-2.125-2.125"/>
	<path style="&st1;" d="M12.639,12.188c0-0.782-0.634-1.416-1.417-1.416"/>
	<path style="&st1;" d="M11.222,10.772c-0.782,0-1.417,0.634-1.417,1.416"/>
	<path style="&st1;" d="M9.806,12.188c0,0.782,0.634,1.417,1.417,1.417"/>
	<path style="&st1;" d="M11.222,13.605c0.782,0,1.417-0.634,1.417-1.417"/>
	<path style="&st1;" d="M38.276,12.188c0-0.782-0.634-1.416-1.416-1.416"/>
	<path style="&st1;" d="M36.86,10.772c-0.782,0-1.417,0.634-1.417,1.416"/>
	<path style="&st1;" d="M35.443,12.188c0,0.782,0.634,1.417,1.417,1.417"/>
	<path style="&st1;" d="M36.86,13.605c0.782,0,1.416-0.634,1.416-1.417"/>
	<path style="&st0;" d="M35.217,51.633c5.222-1.514,8.752-5.859,9.164-11.28"/>
	<path style="&st1;" d="M3.486,36.633c0.012,0.254,0.023,0.468,0.037,0.722"/>
	<path style="&st0;" d="M44.497,24.605c-0.074-1.07-0.259-1.966-0.615-2.978"/>
	<path style="&st0;" d="M4.216,21.628c-0.339,0.966-0.521,1.82-0.605,2.841"/>
	<path style="&st1;" d="M12.902,51.639c0.87,0.25,1.627,0.387,2.53,0.458"/>
	<path style="&st1;" d="M32.678,52.095c0.906-0.072,1.665-0.211,2.538-0.464"/>
	<path style="&st0;" d="M44.381,40.353c0.076-1.005,0.132-1.854,0.187-2.861"/>
	<path style="&st1;" d="M15.896,3.333c-0.782,0-1.417,0.634-1.417,1.417"/>
	<path style="&st1;" d="M33.602,4.75c0-0.782-0.634-1.417-1.417-1.417"/>
	<path style="&st1;" d="M18.304,2.625c-0.156,0-0.283,0.127-0.283,0.284"/>
	<path style="&st1;" d="M30.061,2.908c0-0.156-0.127-0.284-0.284-0.284"/>
	<path style="&st1;" d="M30.061,3.05c0,0.156,0.126,0.283,0.283,0.283"/>
	<path style="&st1;" d="M17.738,3.333c0.157,0,0.283-0.127,0.283-0.283"/>
	<path style="&st1;" d="M10.902,23.016c-0.419,6.126-0.415,11.327,0.014,17.453"/>
	<path style="&st1;" d="M37.186,40.506c0.426-6.165,0.425-11.396-0.007-17.561"/>
	<path style="&st0;" d="M3.523,37.355c0.056,1.058,0.114,1.95,0.194,3.006"/>
	<path style="&st0;" d="M31.46,55.633c1.334,0,2.465-0.766,2.96-2.006"/>
	<path style="&st1;" d="M5.879,29.517c0.383,0,0.696-0.302,0.708-0.686"/>
	<path style="&st1;" d="M6.587,34.452c-0.012-0.383-0.325-0.686-0.708-0.686"/>
	<path style="&st1;" d="M41.508,28.962c0.012,0.383,0.325,0.686,0.708,0.686"/>
	<path style="&st1;" d="M42.217,33.897c-0.383,0-0.696,0.302-0.708,0.686"/>
	<path style="&st1;" d="M44.565,37.492c0.014-0.254,0.025-0.468,0.038-0.723"/>
	<path style="&st1;" d="M33.602,22.135H14.48v19.156h19.122V22.135"/>
	<path style="&st1;" d="M18.021,14.665V6.166h3.72v0.708h4.604V6.166h3.717v8.49"/>
	<path style="&st1;" d="M26.344,11.832V9.707h-4.604v2.125"/>
	<g ewd:pinNo="1">
		<text transform="matrix(1 0 0 1 16.855 29.1035)"><tspan x="0" y="0" style="&st3; &st2;">1</tspan></text>
	</g>
	<g ewd:pinNo="2">
		<text transform="matrix(1 0 0 1 28.0107 29.1035)"><tspan x="0" y="0" style="&st3; &st2;">2</tspan></text>
	</g>
	<g ewd:pinNo="3">
		<text transform="matrix(1 0 0 1 16.855 38.6812)"><tspan x="0" y="0" style="&st3; &st2;">3</tspan></text>
	</g>
	<g ewd:pinNo="4">
		<text transform="matrix(1 0 0 1 28.0107 38.6812)"><tspan x="0" y="0" style="&st3; &st2;">4</tspan></text>
	</g>
</g>
</svg>