<?xml version="1.0"?>
<!-- Generator: Adobe Illustrator 10.0, SVG Export Plug-In . SVG Version: 3.0.0 Build 77)  -->
<!DOCTYPE svg PUBLIC "-//W3C//DTD SVG 1.0//EN" "http://www.w3.org/TR/2001/REC-SVG-20010904/DTD/svg10.dtd"[
	<!ENTITY ns_flows "http://ns.adobe.com/Flows/1.0/">
	<!ENTITY ns_svg "http://www.w3.org/2000/svg">
	<!ENTITY ns_xlink "http://www.w3.org/1999/xlink">
	<!ENTITY st0 "fill:none;">
	<!ENTITY st1 "stroke:#000000;">
	<!ENTITY st2 "stroke-linecap:round;">
	<!ENTITY st3 "stroke-linejoin:round;">
	<!ENTITY st4 "stroke-width:0.6;">
	<!ENTITY st5 "font-size:6px;">
	<!ENTITY st6 "font-family:'Arial';">
	<!ENTITY st7 "stroke-width:1.4;">
	<!ATTLIST svg
		ewd:ver CDATA #IMPLIED
		xmlns:ewd CDATA #FIXED "http://shcl.co.jp/ewd"
		xmlns:a CDATA #FIXED "http://ns.adobe.com/AdobeSVGViewerExtensions/3.0/">
	<!ATTLIST g
		ewd:pinNo CDATA #IMPLIED>
]>
<svg width="213.342" height="87.128" viewBox="0 0 213.342 87.128" style="overflow:visible;enable-background:new 0 0 89.385 49.726" xml:space="preserve" onload="call_execInitLoadProc_svg('connector')" ewd:ver="2.1.2.9" xmlns="&ns_svg;" xmlns:ewd="http://shcl.co.jp/ewd" xmlns:a="http://ns.adobe.com/AdobeSVGViewerExtensions/3.0/" xmlns:xlink="&ns_xlink;">
<script type="text/javascript" xlink:href="../../../../../system/js/ewd/fig/svgfig.js"/>
<g id="レイヤー_1" transform="translate(0,17.008)">
	<path style="&st0;&st1;&st4;&st2;&st3;" d="M61.123,23.163h-3.116"/>
	<path style="&st0;&st1;&st4;&st2;&st3;" d="M83.273,10.132h-5.72"/>
	<path style="&st0;&st1;&st4;&st2;&st3;" d="M83.786,8.716H82.37"/>
	<path style="&st0;&st1;&st4;&st2;&st3;" d="M87.469,13.628v5.002"/>
	<path style="&st0;&st1;&st4;&st2;&st3;" d="M64.806,10.132H62.54"/>
	<path style="&st0;&st1;&st4;&st2;&st3;" d="M88.035,34.495h-1.133"/>
	<path style="&st0;&st1;&st4;&st2;&st3;" d="M88.035,18.63h-1.133"/>
	<path style="&st0;&st1;&st4;&st2;&st3;" d="M69.984,8.716h-8.861"/>
	<path style="&st0;&st1;&st2;&st3;" d="M82.37,8.716H69.984"/>
	<path style="&st0;&st1;&st2;&st3;" d="M58.007,23.163H56.59"/>
	<path style="&st0;&st1;&st4;&st2;&st3;" d="M37.327,23.163h3.116"/>
	<path style="&st0;&st1;&st4;&st2;&st3;" d="M6.112,10.132h5.72"/>
	<path style="&st0;&st1;&st4;&st2;&st3;" d="M1.916,13.628v5.002"/>
	<path style="&st0;&st1;&st4;&st2;&st3;" d="M33.645,10.132h2.266"/>
	<path style="&st0;&st1;&st4;&st2;&st3;" d="M1.35,34.495h1.133"/>
	<path style="&st0;&st1;&st4;&st2;&st3;" d="M1.35,18.63h1.133"/>
	<path style="&st0;&st1;&st4;&st2;&st3;" d="M1.916,34.495v6.232"/>
	<path style="&st0;&st1;&st2;&st3;" d="M40.443,23.163h1.417"/>
	<path style="&st0;&st1;&st4;&st2;&st3;" d="M4.749,39.594v0.283"/>
	<path style="&st0;&st1;&st4;&st2;&st3;" d="M84.636,39.594v0.283"/>
	<path style="&st0;&st1;&st4;&st2;&st3;" d="M14.522,39.594v0.283"/>
	<path style="&st0;&st1;&st4;&st2;&st3;" d="M18.772,39.594v0.283"/>
	<path style="&st0;&st1;&st4;&st2;&st3;" d="M28.545,39.594v0.283"/>
	<path style="&st0;&st1;&st4;&st2;&st3;" d="M32.794,39.594v0.283"/>
	<path style="&st0;&st1;&st4;&st2;&st3;" d="M42.568,39.594v0.283"/>
	<path style="&st0;&st1;&st4;&st2;&st3;" d="M46.817,39.594v0.283"/>
	<path style="&st0;&st1;&st4;&st2;&st3;" d="M56.59,39.594v0.283"/>
	<path style="&st0;&st1;&st4;&st2;&st3;" d="M60.84,39.594v0.283"/>
	<path style="&st0;&st1;&st4;&st2;&st3;" d="M70.613,39.594v0.283"/>
	<path style="&st0;&st1;&st4;&st2;&st3;" d="M74.862,39.594v0.283"/>
	<path style="&st0;&st1;&st2;&st3;" d="M1.916,46.959v-2.833"/>
	<path style="&st0;&st1;&st2;&st3;" d="M87.469,44.126v2.833"/>
	<path style="&st0;&st1;&st2;&st3;" d="M88.885,42.143V5.316"/>
	<path style="&st0;&st1;&st4;&st2;&st3;" d="M37.327,8.716h-8.861"/>
	<path style="&st0;&st1;&st4;&st2;&st3;" d="M7.016,8.716H5.599"/>
	<path style="&st0;&st1;&st2;&st3;" d="M28.466,8.716H7.016"/>
	<path style="&st0;&st1;&st2;&st3;" d="M84.636,3.05c-1.251,0-2.266,1.015-2.266,2.266"/>
	<path style="&st0;&st1;&st2;&st3;" d="M88.885,5.316c0-1.251-1.015-2.266-2.267-2.266"/>
	<path style="&st0;&st1;&st2;&st3;" d="M61.525,3.812c-1.18,0.822-1.82,2.049-1.82,3.487"/>
	<path style="&st0;&st1;&st2;&st3;" d="M67.316,6.826c-0.534-1.51-1.538-2.606-2.996-3.269"/>
	<path style="&st0;&st1;&st2;&st3;" d="M64.319,3.56c-0.939-0.427-1.946-0.335-2.792,0.254"/>
	<path style="&st0;&st1;&st4;&st2;&st3;" d="M62.823,7.299c0,0.782,0.634,1.417,1.417,1.417"/>
	<path style="&st0;&st1;&st2;&st3;" d="M67.316,6.826c0.408,1.155,1.443,1.887,2.668,1.887"/>
	<path style="&st0;&st1;&st4;&st2;&st3;" d="M61.123,8.716c-0.782,0-1.417,0.634-1.417,1.416"/>
	<path style="&st0;&st1;&st4;&st2;&st3;" d="M62.54,10.132c-0.782,0-1.417,0.634-1.417,1.417"/>
	<path style="&st0;&st1;&st2;&st3;" d="M58.007,23.163c0.939,0,1.7-0.761,1.7-1.7"/>
	<path style="&st0;&st1;&st2;&st3;" d="M57.735,7.806c0.368-0.335,0.556-0.76,0.556-1.258"/>
	<path style="&st0;&st1;&st2;&st3;" d="M58.29,3.333c0-1.564-1.268-2.833-2.833-2.833"/>
	<path style="&st0;&st1;&st2;&st3;" d="M55.174,21.747c0,0.782,0.634,1.417,1.416,1.417"/>
	<path style="&st0;&st1;&st2;&st3;" d="M87.469,43.56c0.782,0,1.417-0.634,1.417-1.417"/>
	<path style="&st0;&st1;&st4;&st2;&st3;" d="M86.052,42.143c0.782,0,1.417-0.634,1.417-1.417"/>
	<path style="&st0;&st1;&st2;&st3;" d="M86.619,47.809c0.47,0,0.85-0.38,0.85-0.85"/>
	<path style="&st0;&st1;&st4;&st2;&st3;" d="M86.902,18.63c-0.939,0-1.7,0.761-1.7,1.7"/>
	<path style="&st0;&st1;&st4;&st2;&st3;" d="M85.203,32.795c0,0.938,0.761,1.7,1.7,1.7"/>
	<path style="&st0;&st1;&st4;&st2;&st3;" d="M88.885,35.344c0-0.469-0.381-0.85-0.85-0.85"/>
	<path style="&st0;&st1;&st4;&st2;&st3;" d="M88.035,18.63c0.469,0,0.85-0.38,0.85-0.85"/>
	<path style="&st0;&st1;&st2;&st3;" d="M7.016,5.316C7.016,4.064,6,3.05,4.749,3.05"/>
	<path style="&st0;&st1;&st2;&st3;" d="M2.766,3.05C1.515,3.05,0.5,4.064,0.5,5.316"/>
	<path style="&st0;&st1;&st2;&st3;" d="M38.744,7.299c0-1.438-0.641-2.665-1.82-3.486"/>
	<path style="&st0;&st1;&st2;&st3;" d="M34.132,3.56c-1.458,0.663-2.461,1.758-2.995,3.268"/>
	<path style="&st0;&st1;&st2;&st3;" d="M36.925,3.812c-0.847-0.59-1.855-0.682-2.794-0.254"/>
	<path style="&st0;&st1;&st4;&st2;&st3;" d="M34.211,8.716c0.782,0,1.417-0.635,1.417-1.417"/>
	<path style="&st0;&st1;&st2;&st3;" d="M28.466,8.716c1.226,0,2.262-0.733,2.671-1.889"/>
	<path style="&st0;&st1;&st4;&st2;&st3;" d="M38.744,10.132c0-0.782-0.634-1.416-1.417-1.416"/>
	<path style="&st0;&st1;&st4;&st2;&st3;" d="M37.327,11.548c0-0.782-0.634-1.417-1.417-1.417"/>
	<path style="&st0;&st1;&st2;&st3;" d="M38.744,21.463c0,0.939,0.761,1.7,1.7,1.7"/>
	<path style="&st0;&st1;&st2;&st3;" d="M40.16,6.548c0,0.498,0.188,0.922,0.556,1.257"/>
	<path style="&st0;&st1;&st2;&st3;" d="M42.993,0.5c-1.564,0-2.833,1.269-2.833,2.833"/>
	<path style="&st0;&st1;&st2;&st3;" d="M41.86,23.163c0.782,0,1.416-0.634,1.416-1.417"/>
	<path style="&st0;&st1;&st2;&st3;" d="M0.5,42.143c0,0.783,0.634,1.417,1.416,1.417"/>
	<path style="&st0;&st1;&st4;&st2;&st3;" d="M1.916,40.727c0,0.783,0.634,1.417,1.417,1.417"/>
	<path style="&st0;&st1;&st2;&st3;" d="M1.916,46.959c0,0.47,0.381,0.85,0.85,0.85"/>
	<path style="&st0;&st1;&st4;&st2;&st3;" d="M4.183,20.33c0-0.938-0.761-1.7-1.7-1.7"/>
	<path style="&st0;&st1;&st4;&st2;&st3;" d="M2.483,34.495c0.938,0,1.7-0.761,1.7-1.7"/>
	<path style="&st0;&st1;&st4;&st2;&st3;" d="M1.35,34.495c-0.469,0-0.85,0.38-0.85,0.85"/>
	<path style="&st0;&st1;&st4;&st2;&st3;" d="M0.5,17.781c0,0.469,0.38,0.85,0.85,0.85"/>
	<path style="&st0;&st1;&st4;&st2;&st3;" d="M4.749,39.877c0,0.469,0.38,0.85,0.85,0.85"/>
	<path style="&st0;&st1;&st4;&st2;&st3;" d="M5.599,38.744c-0.47,0-0.85,0.381-0.85,0.85"/>
	<path style="&st0;&st1;&st4;&st2;&st3;" d="M14.522,39.594c0-0.469-0.38-0.85-0.85-0.85"/>
	<path style="&st0;&st1;&st4;&st2;&st3;" d="M13.673,40.727c0.469,0,0.85-0.38,0.85-0.85"/>
	<path style="&st0;&st1;&st4;&st2;&st3;" d="M18.772,39.877c0,0.469,0.38,0.85,0.85,0.85"/>
	<path style="&st0;&st1;&st4;&st2;&st3;" d="M19.622,38.744c-0.469,0-0.85,0.381-0.85,0.85"/>
	<path style="&st0;&st1;&st4;&st2;&st3;" d="M28.545,39.594c0-0.469-0.381-0.85-0.85-0.85"/>
	<path style="&st0;&st1;&st4;&st2;&st3;" d="M27.695,40.727c0.469,0,0.85-0.38,0.85-0.85"/>
	<path style="&st0;&st1;&st4;&st2;&st3;" d="M32.794,39.877c0,0.469,0.38,0.85,0.85,0.85"/>
	<path style="&st0;&st1;&st4;&st2;&st3;" d="M33.645,38.744c-0.47,0-0.85,0.381-0.85,0.85"/>
	<path style="&st0;&st1;&st4;&st2;&st3;" d="M42.568,39.594c0-0.469-0.38-0.85-0.85-0.85"/>
	<path style="&st0;&st1;&st4;&st2;&st3;" d="M41.718,40.727c0.469,0,0.85-0.38,0.85-0.85"/>
	<path style="&st0;&st1;&st4;&st2;&st3;" d="M46.817,39.877c0,0.469,0.38,0.85,0.85,0.85"/>
	<path style="&st0;&st1;&st4;&st2;&st3;" d="M47.667,38.744c-0.469,0-0.85,0.381-0.85,0.85"/>
	<path style="&st0;&st1;&st4;&st2;&st3;" d="M56.59,39.594c0-0.469-0.38-0.85-0.85-0.85"/>
	<path style="&st0;&st1;&st4;&st2;&st3;" d="M55.741,40.727c0.469,0,0.85-0.38,0.85-0.85"/>
	<path style="&st0;&st1;&st4;&st2;&st3;" d="M60.84,39.877c0,0.469,0.38,0.85,0.85,0.85"/>
	<path style="&st0;&st1;&st4;&st2;&st3;" d="M61.69,38.744c-0.47,0-0.85,0.381-0.85,0.85"/>
	<path style="&st0;&st1;&st4;&st2;&st3;" d="M70.613,39.594c0-0.469-0.38-0.85-0.85-0.85"/>
	<path style="&st0;&st1;&st4;&st2;&st3;" d="M69.763,40.727c0.47,0,0.85-0.38,0.85-0.85"/>
	<path style="&st0;&st1;&st4;&st2;&st3;" d="M74.862,39.877c0,0.469,0.381,0.85,0.85,0.85"/>
	<path style="&st0;&st1;&st4;&st2;&st3;" d="M75.712,38.744c-0.469,0-0.85,0.381-0.85,0.85"/>
	<path style="&st0;&st1;&st4;&st2;&st3;" d="M83.786,40.727c0.469,0,0.85-0.38,0.85-0.85"/>
	<path style="&st0;&st1;&st4;&st2;&st3;" d="M84.636,39.594c0-0.469-0.38-0.85-0.85-0.85"/>
	<path style="&st0;&st1;&st4;&st2;&st3;" d="M53.758,26.563v10.765"/>
	<path style="&st0;&st1;&st4;&st2;&st3;" d="M71.888,15.798v21.529"/>
	<path style="&st0;&st1;&st4;&st2;&st3;" d="M61.123,11.548v11.615"/>
	<path style="&st0;&st1;&st2;&st3;" d="M59.707,7.299v14.164"/>
	<path style="&st0;&st1;&st4;&st2;&st3;" d="M62.823,3.322v3.978"/>
	<path style="&st0;&st1;&st2;&st3;" d="M84.636,3.05h1.983"/>
	<path style="&st0;&st1;&st2;&st3;" d="M82.37,5.316v3.4"/>
	<path style="&st0;&st1;&st4;&st2;&st3;" d="M83.786,8.716l5.099,4.249"/>
	<path style="&st0;&st1;&st4;&st2;&st3;" d="M83.273,10.132l4.195,3.496"/>
	<path style="&st0;&st1;&st2;&st3;" d="M58.29,3.333v3.215"/>
	<path style="&st0;&st1;&st2;&st3;" d="M55.174,10.132v11.615"/>
	<path style="&st0;&st1;&st2;&st3;" d="M55.174,10.132l2.561-2.326"/>
	<path style="&st0;&st1;&st4;&st2;&st3;" d="M66.222,8.716v3.399"/>
	<path style="&st0;&st1;&st4;&st2;&st3;" d="M76.137,8.716v3.399"/>
	<path style="&st0;&st1;&st4;&st2;&st3;" d="M52.341,6.166h2.833"/>
	<path style="&st0;&st1;&st4;&st2;&st3;" d="M55.174,6.166v3.966"/>
	<path style="&st0;&st1;&st4;&st2;&st3;" d="M44.692,26.563v10.765"/>
	<path style="&st0;&st1;&st4;&st2;&st3;" d="M26.562,15.798v21.529"/>
	<path style="&st0;&st1;&st4;&st2;&st3;" d="M37.327,11.548v11.615"/>
	<path style="&st0;&st1;&st2;&st3;" d="M38.744,7.299v14.164"/>
	<path style="&st0;&st1;&st4;&st2;&st3;" d="M35.627,3.322v3.978"/>
	<path style="&st0;&st1;&st2;&st3;" d="M4.749,3.05H2.766"/>
	<path style="&st0;&st1;&st2;&st3;" d="M7.016,5.316v3.4"/>
	<path style="&st0;&st1;&st4;&st2;&st3;" d="M5.599,8.716L0.5,12.965"/>
	<path style="&st0;&st1;&st4;&st2;&st3;" d="M6.112,10.132l-4.196,3.496"/>
	<path style="&st0;&st1;&st2;&st3;" d="M40.16,3.333v3.215"/>
	<path style="&st0;&st1;&st2;&st3;" d="M43.276,10.132v11.615"/>
	<path style="&st0;&st1;&st2;&st3;" d="M43.276,10.132l-2.561-2.326"/>
	<path style="&st0;&st1;&st4;&st2;&st3;" d="M32.228,8.716v3.399"/>
	<path style="&st0;&st1;&st4;&st2;&st3;" d="M13.248,8.716v3.399"/>
	<path style="&st0;&st1;&st4;&st2;&st3;" d="M46.109,6.166h-2.833"/>
	<path style="&st0;&st1;&st4;&st2;&st3;" d="M43.276,6.166v3.966"/>
	<path style="&st0;&st1;&st4;&st2;&st3;" d="M17.497,15.798v21.529"/>
	<path style="&st0;&st1;&st4;&st2;&st3;" d="M75.712,38.744h8.074"/>
	<path style="&st0;&st1;&st4;&st2;&st3;" d="M1.916,43.56h85.553"/>
	<path style="&st0;&st1;&st4;&st2;&st3;" d="M3.333,42.143h82.72"/>
	<path style="&st0;&st1;&st4;&st2;&st3;" d="M75.712,40.727h8.074"/>
	<path style="&st0;&st1;&st2;&st3;" d="M55.458,0.5H42.993"/>
	<path style="&st0;&st1;&st4;&st2;&st3;" d="M33.645,40.727h8.074"/>
	<path style="&st0;&st1;&st4;&st2;&st3;" d="M33.645,38.744h8.074"/>
	<path style="&st0;&st1;&st4;&st2;&st3;" d="M19.622,38.744h8.074"/>
	<path style="&st0;&st1;&st4;&st2;&st3;" d="M19.622,40.727h8.074"/>
	<path style="&st0;&st1;&st4;&st2;&st3;" d="M5.599,38.744h8.074"/>
	<path style="&st0;&st1;&st4;&st2;&st3;" d="M5.599,40.727h8.074"/>
	<path style="&st0;&st1;&st4;&st2;&st3;" d="M47.667,38.744h8.074"/>
	<path style="&st0;&st1;&st4;&st2;&st3;" d="M47.667,40.727h8.074"/>
	<path style="&st0;&st1;&st4;&st2;&st3;" d="M61.69,38.744h8.073"/>
	<path style="&st0;&st1;&st4;&st2;&st3;" d="M61.69,40.727h8.073"/>
	<path style="&st0;&st1;&st4;&st2;&st3;" d="M4.183,43.56v1.983h3.966V43.56"/>
	<path style="&st0;&st1;&st4;&st2;&st3;" d="M14.098,43.56v1.983h3.966V43.56"/>
	<path style="&st0;&st1;&st4;&st2;&st3;" d="M24.013,43.56v1.983h3.966V43.56"/>
	<path style="&st0;&st1;&st4;&st2;&st3;" d="M35.061,43.56v1.983h3.966V43.56"/>
	<path style="&st0;&st1;&st2;&st3;" d="M77.837,47.809h8.782"/>
	<path style="&st0;&st1;&st2;&st3;" d="M11.548,47.809l2.266,1.417h61.756l2.266-1.417"/>
	<path style="&st0;&st1;&st4;&st2;&st3;" d="M59.423,43.56v1.983h3.966V43.56"/>
	<path style="&st0;&st1;&st4;&st2;&st3;" d="M73.871,43.56v1.983h-3.966V43.56"/>
	<path style="&st0;&st1;&st4;&st2;&st3;" d="M85.203,43.56v1.983h-3.966V43.56"/>
	<path style="&st0;&st1;&st4;&st2;&st3;" d="M51.208,43.56v2.833h-3.966V43.56"/>
	<path style="&st0;&st1;&st4;&st2;&st3;" d="M8.432,26.563h72.521"/>
	<path style="&st0;&st1;&st4;&st2;&st3;" d="M62.823,37.327V15.798h18.13v21.529H8.432V15.798h27.195v21.529"/>
	<path style="&st0;&st1;&st4;&st2;&st3;" d="M33.645,8.716v3.399H11.832V8.716"/>
	<path style="&st0;&st1;&st4;&st2;&st3;" d="M64.806,8.716v3.399h12.748V8.716"/>
	<path style="&st0;&st1;&st4;&st2;&st3;" d="M51.208,44.976h-3.966"/>
	<path style="&st0;&st1;&st2;&st3;" d="M0.5,42.143V5.316"/>
	<path style="&st0;&st1;&st4;&st2;&st3;" d="M85.203,32.795V20.33"/>
	<path style="&st0;&st1;&st4;&st2;&st3;" d="M87.469,40.727v-6.232"/>
	<path style="&st0;&st1;&st4;&st2;&st3;" d="M4.183,32.795V20.33"/>
	<path style="&st0;&st1;&st2;&st3;" d="M2.766,47.809h8.782"/>
	<path style="&st0;&st1;&st4;&st2;&st3;" d="M11.548,47.809h66.289"/>
	<path style="&st0;&st1;&st4;&st2;&st3;" d="M55.174,7.866H43.276"/>
	<path style="&st0;&st1;&st4;&st2;&st3;" d="M53.475,6.166V2.767h-8.499v3.399"/>
	<path style="&st0;&st1;&st4;&st2;&st3;" d="M46.104,3.899h6.238v2.833h-6.232V3.899"/>
	<g ewd:pinNo="1">
		<text transform="matrix(1 0 0 1 11.0356 23.6123)"><tspan x="0" y="0" style="&st6; &st5;">1</tspan></text>
	</g>
	<g ewd:pinNo="2">
		<text transform="matrix(1 0 0 1 20.4229 23.6123)"><tspan x="0" y="0" style="&st6; &st5;">2</tspan></text>
	</g>
	<g ewd:pinNo="3">
		<text transform="matrix(1 0 0 1 29.4883 23.6123)"><tspan x="0" y="0" style="&st6; &st5;">3</tspan></text>
	</g>
	<g ewd:pinNo="4">
		<text transform="matrix(1 0 0 1 65.5459 23.6123)"><tspan x="0" y="0" style="&st6; &st5;">4</tspan></text>
	</g>
	<g ewd:pinNo="5">
		<text transform="matrix(1 0 0 1 74.6108 23.6123)"><tspan x="0" y="0" style="&st6; &st5;">5</tspan></text>
	</g>
	<g ewd:pinNo="6">
		<text transform="matrix(1 0 0 1 11.3579 34.2593)"><tspan x="0" y="0" style="&st6; &st5;">6</tspan></text>
	</g>
	<g ewd:pinNo="7">
		<text transform="matrix(1 0 0 1 20.4229 34.2593)"><tspan x="0" y="0" style="&st6; &st5;">7</tspan></text>
	</g>
	<g ewd:pinNo="8">
		<text transform="matrix(1 0 0 1 29.4883 34.2593)"><tspan x="0" y="0" style="&st6; &st5;">8</tspan></text>
	</g>
	<g ewd:pinNo="9">
		<text transform="matrix(1 0 0 1 38.5532 34.2593)"><tspan x="0" y="0" style="&st6; &st5;">9</tspan></text>
	</g>
	<g ewd:pinNo="10">
		<text transform="matrix(1 0 0 1 45.6792 34.2593)"><tspan x="0" y="0" style="&st6; &st5;">10</tspan></text>
	</g>
	<g ewd:pinNo="11">
		<text transform="matrix(1 0 0 1 54.9673 34.2593)"><tspan x="0" y="0" style="&st6; &st5;">11</tspan></text>
	</g>
	<g ewd:pinNo="12">
		<text transform="matrix(1 0 0 1 63.8096 34.2593)"><tspan x="0" y="0" style="&st6; &st5;">12</tspan></text>
	</g>
	<g ewd:pinNo="13">
		<text transform="matrix(1 0 0 1 72.875 34.2593)"><tspan x="0" y="0" style="&st6; &st5;">13</tspan></text>
	</g>
</g>
<g id="レイヤー_1" transform="translate(109.226,17.008)">
	<path style="&st0;&st1;&st4;&st2;&st3;" d="M14.664,41.293h74.788"/>
	<path style="&st0;&st1;&st4;&st2;&st3;" d="M14.664,29.962h18.697"/>
	<path style="&st0;&st1;&st4;&st2;&st3;" d="M14.664,52.625h74.788"/>
	<path style="&st0;&st1;&st4;&st2;&st3;" d="M61.406,29.962v22.663"/>
	<path style="&st0;&st1;&st4;&st2;&st3;" d="M52.058,41.293v11.332"/>
	<path style="&st0;&st1;&st4;&st2;&st3;" d="M42.709,41.293v11.332"/>
	<path style="&st0;&st1;&st4;&st2;&st3;" d="M70.755,29.962v22.663"/>
	<path style="&st0;&st1;&st4;&st2;&st3;" d="M80.104,29.962v22.663"/>
	<path style="&st0;&st1;&st4;&st2;&st3;" d="M33.361,29.962v22.663"/>
	<path style="&st0;&st1;&st4;&st2;&st3;" d="M24.013,29.962v22.663"/>
	<path style="&st0;&st1;&st4;&st2;&st3;" d="M14.664,29.962v22.663"/>
	<path style="&st0;&st1;&st4;&st2;&st3;" d="M89.452,29.962v22.663"/>
	<path style="&st0;&st1;&st4;&st2;&st3;" d="M61.406,29.962h28.045"/>
	<path style="&st0;&st1;&st4;&st2;&st3;" d="M11.832,24.296v9.916"/>
	<path style="&st0;&st1;&st4;&st2;&st3;" d="M8.999,24.296v9.916"/>
	<path style="&st0;&st1;&st4;&st2;&st3;" d="M11.832,42.71v11.332"/>
	<path style="&st0;&st1;&st4;&st2;&st3;" d="M8.999,42.71v11.332"/>
	<path style="&st0;&st1;&st4;&st2;&st3;" d="M42.709,38.46h9.349"/>
	<path style="&st0;&st1;&st4;&st2;&st3;" d="M42.709,35.628h9.349"/>
	<path style="&st0;&st1;&st4;&st2;&st3;" d="M92.285,24.296v9.916"/>
	<path style="&st0;&st1;&st4;&st2;&st3;" d="M95.117,24.296v9.916"/>
	<path style="&st0;&st1;&st4;&st2;&st3;" d="M92.285,42.71v11.332"/>
	<path style="&st0;&st1;&st4;&st2;&st3;" d="M95.117,42.71v11.332"/>
	<path style="&st0;&st1;&st4;&st2;&st3;" d="M16.081,25.712h15.864"/>
	<path style="&st0;&st1;&st4;&st2;&st3;" d="M16.081,22.88h15.864"/>
	<path style="&st0;&st1;&st4;&st2;&st3;" d="M62.823,25.712h25.212"/>
	<path style="&st0;&st1;&st4;&st2;&st3;" d="M62.823,22.88h25.212"/>
	<path style="&st0;&st1;&st4;&st2;&st3;" d="M6.166,18.63v42.493"/>
	<path style="&st0;&st1;&st4;&st2;&st3;" d="M97.95,18.63v42.493"/>
	<path style="&st0;&st1;&st4;&st2;&st3;" d="M19.338,18.63v4.25"/>
	<path style="&st0;&st1;&st4;&st2;&st3;" d="M8.999,15.798h7.507"/>
	<path style="&st0;&st1;&st4;&st2;&st3;" d="M87.61,15.798h7.507"/>
	<path style="&st0;&st1;&st4;&st2;&st3;" d="M84.777,18.63v4.25"/>
	<path style="&st0;&st1;&st4;&st2;&st3;" d="M8.999,63.956h2.833"/>
	<path style="&st0;&st1;&st2;&st3;" d="M6.166,69.622H97.95"/>
	<path style="&st0;&st1;&st2;&st3;" d="M6.166,10.132h16.006"/>
	<path style="&st0;&st1;&st2;&st3;" d="M0.5,15.798v48.158"/>
	<path style="&st0;&st1;&st2;&st3;" d="M103.616,15.798v48.158"/>
	<path style="&st0;&st1;&st2;&st3;" d="M25.004,12.965v1.417"/>
	<path style="&st0;&st1;&st2;&st3;" d="M79.112,12.965v1.417"/>
	<path style="&st0;&st1;&st2;&st3;" d="M81.945,10.132H97.95"/>
	<path style="&st0;&st1;&st2;&st3;" d="M32.086,1.917v13.881"/>
	<path style="&st0;&st1;&st2;&st3;" d="M72.03,1.917v13.881"/>
	<path style="&st0;&st1;&st4;&st2;&st3;" d="M40.585,1.917v3.966"/>
	<path style="&st0;&st1;&st4;&st2;&st3;" d="M63.531,1.917v3.966"/>
	<path style="&st0;&st1;&st4;&st2;&st3;" d="M44.834,10.132h14.448"/>
	<path style="&st0;&st1;&st4;&st2;&st3;" d="M56.307,5.174v3.4"/>
	<path style="&st0;&st1;&st4;&st2;&st3;" d="M47.809,5.174v3.4"/>
	<path style="&st0;&st1;&st4;&st2;&st3;" d="M54.891,2.341v2.833"/>
	<path style="&st0;&st1;&st4;&st2;&st3;" d="M49.225,2.341v2.833"/>
	<path style="&st0;&st1;&st4;&st2;&st3;" d="M49.225,2.341h5.666"/>
	<path style="&st0;&st1;&st4;&st2;&st3;" d="M49.225,3.758h5.666"/>
	<path style="&st0;&st1;&st4;&st2;&st3;" d="M47.809,8.574h8.499"/>
	<path style="&st0;&st1;&st4;&st2;&st3;" d="M14.664,55.458v5.666"/>
	<path style="&st0;&st1;&st4;&st2;&st3;" d="M89.452,55.458v5.666"/>
	<path style="&st0;&st1;&st4;&st2;&st3;" d="M92.285,63.956h2.833"/>
	<path style="&st0;&st1;&st4;&st2;&st3;" d="M36.619,55.458v8.499"/>
	<path style="&st0;&st1;&st4;&st2;&st3;" d="M39.452,55.458v8.499"/>
	<path style="&st0;&st1;&st4;&st2;&st3;" d="M55.316,55.458v8.499"/>
	<path style="&st0;&st1;&st4;&st2;&st3;" d="M58.148,55.458v8.499"/>
	<path style="&st0;&st1;&st4;&st2;&st3;" d="M74.013,55.458v8.499"/>
	<path style="&st0;&st1;&st4;&st2;&st3;" d="M76.846,55.458v8.499"/>
	<path style="&st0;&st1;&st4;&st2;&st3;" d="M11.832,63.956h80.453"/>
	<path style="&st0;&st1;&st4;&st2;&st3;" d="M16.081,54.042h19.122"/>
	<path style="&st0;&st1;&st4;&st2;&st3;" d="M59.565,54.042h13.031"/>
	<path style="&st0;&st1;&st4;&st2;&st3;" d="M40.868,54.042h13.031"/>
	<path style="&st0;&st1;&st4;&st2;&st3;" d="M78.262,54.042h9.773"/>
	<path style="&st0;&st1;&st4;&st2;&st3;" d="M39.877,15.798v19.83"/>
	<path style="&st0;&st1;&st4;&st2;&st3;" d="M54.891,15.798v19.83"/>
	<path style="&st0;&st1;&st4;&st2;&st3;" d="M34.777,23.729v11.898"/>
	<path style="&st0;&st1;&st4;&st2;&st3;" d="M59.99,23.729v11.898"/>
	<path style="&st0;&st1;&st4;&st2;&st3;" d="M36.194,37.044h2.267"/>
	<path style="&st0;&st1;&st4;&st2;&st3;" d="M56.307,37.044h2.267"/>
	<path style="&st0;&st1;&st4;&st2;&st3;" d="M31.945,22.88h1.983"/>
	<path style="&st0;&st1;&st4;&st2;&st3;" d="M60.84,22.88h1.983"/>
	<path style="&st0;&st1;&st4;&st2;&st3;" d="M42.709,24.296v2.125"/>
	<path style="&st0;&st1;&st4;&st2;&st3;" d="M52.058,24.296v2.125"/>
	<path style="&st0;&st1;&st4;&st2;&st3;" d="M19.338,21.463h12.606"/>
	<path style="&st0;&st1;&st4;&st2;&st3;" d="M62.823,21.463h21.955"/>
	<path style="&st0;&st1;&st4;&st2;&st3;" d="M11.832,24.296c0-0.782-0.634-1.416-1.417-1.416"/>
	<path style="&st0;&st1;&st4;&st2;&st3;" d="M10.415,22.88c-0.782,0-1.417,0.634-1.417,1.416"/>
	<path style="&st0;&st1;&st4;&st2;&st3;" d="M11.832,42.71c0-0.782-0.634-1.417-1.417-1.417"/>
	<path style="&st0;&st1;&st4;&st2;&st3;" d="M10.415,41.293c-0.782,0-1.417,0.634-1.417,1.417"/>
	<path style="&st0;&st1;&st4;&st2;&st3;" d="M8.999,54.042c0,0.782,0.634,1.416,1.417,1.416"/>
	<path style="&st0;&st1;&st4;&st2;&st3;" d="M10.415,55.458c0.782,0,1.417-0.634,1.417-1.416"/>
	<path style="&st0;&st1;&st4;&st2;&st3;" d="M8.999,34.211c0,0.782,0.634,1.417,1.417,1.417"/>
	<path style="&st0;&st1;&st4;&st2;&st3;" d="M10.415,35.628c0.782,0,1.417-0.634,1.417-1.417"/>
	<path style="&st0;&st1;&st4;&st2;&st3;" d="M93.701,22.88c-0.782,0-1.417,0.634-1.417,1.416"/>
	<path style="&st0;&st1;&st4;&st2;&st3;" d="M95.117,24.296c0-0.782-0.634-1.416-1.416-1.416"/>
	<path style="&st0;&st1;&st4;&st2;&st3;" d="M93.701,41.293c-0.782,0-1.417,0.634-1.417,1.417"/>
	<path style="&st0;&st1;&st4;&st2;&st3;" d="M95.117,42.71c0-0.782-0.634-1.417-1.416-1.417"/>
	<path style="&st0;&st1;&st4;&st2;&st3;" d="M93.701,55.458c0.782,0,1.416-0.634,1.416-1.416"/>
	<path style="&st0;&st1;&st4;&st2;&st3;" d="M92.285,54.042c0,0.782,0.634,1.416,1.417,1.416"/>
	<path style="&st0;&st1;&st4;&st2;&st3;" d="M93.701,35.628c0.782,0,1.416-0.634,1.416-1.417"/>
	<path style="&st0;&st1;&st4;&st2;&st3;" d="M92.285,34.211c0,0.782,0.634,1.417,1.417,1.417"/>
	<path style="&st0;&st1;&st4;&st2;&st3;" d="M16.081,22.88c-0.782,0-1.417,0.634-1.417,1.416"/>
	<path style="&st0;&st1;&st4;&st2;&st3;" d="M14.664,24.296c0,0.783,0.634,1.417,1.417,1.417"/>
	<path style="&st0;&st1;&st4;&st2;&st3;" d="M33.361,24.296c0-0.782-0.634-1.416-1.417-1.416"/>
	<path style="&st0;&st1;&st4;&st2;&st3;" d="M31.945,25.712c0.782,0,1.417-0.634,1.417-1.417"/>
	<path style="&st0;&st1;&st4;&st2;&st3;" d="M62.823,22.88c-0.782,0-1.417,0.634-1.417,1.416"/>
	<path style="&st0;&st1;&st4;&st2;&st3;" d="M89.452,24.296c0-0.782-0.634-1.416-1.417-1.416"/>
	<path style="&st0;&st1;&st4;&st2;&st3;" d="M88.035,25.712c0.782,0,1.417-0.634,1.417-1.417"/>
	<path style="&st0;&st1;&st4;&st2;&st3;" d="M61.406,24.296c0,0.783,0.634,1.417,1.417,1.417"/>
	<path style="&st0;&st1;&st4;&st2;&st3;" d="M8.999,15.798c-1.564,0-2.833,1.268-2.833,2.833"/>
	<path style="&st0;&st1;&st4;&st2;&st3;" d="M19.338,18.63c0-1.564-1.268-2.833-2.833-2.833"/>
	<path style="&st0;&st1;&st4;&st2;&st3;" d="M87.61,15.798c-1.564,0-2.833,1.268-2.833,2.833"/>
	<path style="&st0;&st1;&st4;&st2;&st3;" d="M97.95,18.63c0-1.564-1.268-2.833-2.833-2.833"/>
	<path style="&st0;&st1;&st4;&st2;&st3;" d="M6.166,61.124c0,1.564,1.269,2.833,2.833,2.833"/>
	<path style="&st0;&st1;&st2;&st3;" d="M6.166,10.132c-3.129,0-5.666,2.537-5.666,5.666"/>
	<path style="&st0;&st1;&st2;&st3;" d="M97.95,69.622c3.129,0,5.666-2.537,5.666-5.666"/>
	<path style="&st0;&st1;&st2;&st3;" d="M0.5,63.956c0,3.129,2.537,5.666,5.666,5.666"/>
	<path style="&st0;&st1;&st2;&st3;" d="M25.004,12.965c0-1.564-1.268-2.833-2.833-2.833"/>
	<path style="&st0;&st1;&st2;&st3;" d="M81.945,10.132c-1.565,0-2.833,1.269-2.833,2.833"/>
	<path style="&st0;&st1;&st2;&st3;" d="M103.616,15.798c0-3.129-2.537-5.666-5.666-5.666"/>
	<path style="&st0;&st1;&st2;&st3;" d="M25.004,14.381c0,0.782,0.634,1.417,1.417,1.417"/>
	<path style="&st0;&st1;&st2;&st3;" d="M77.695,15.798c0.782,0,1.417-0.634,1.417-1.417"/>
	<path style="&st0;&st1;&st4;&st2;&st3;" d="M40.585,5.883c0,2.347,1.902,4.249,4.249,4.249"/>
	<path style="&st0;&st1;&st4;&st2;&st3;" d="M59.282,10.132c2.347,0,4.25-1.902,4.25-4.249"/>
	<path style="&st0;&st1;&st2;&st3;" d="M33.503,0.5c-0.782,0-1.417,0.634-1.417,1.417"/>
	<path style="&st0;&st1;&st2;&st3;" d="M72.03,1.917c0-0.782-0.634-1.417-1.417-1.417"/>
	<path style="&st0;&st1;&st4;&st2;&st3;" d="M40.585,1.917c0-0.782-0.634-1.417-1.417-1.417"/>
	<path style="&st0;&st1;&st4;&st2;&st3;" d="M64.948,0.5c-0.783,0-1.417,0.634-1.417,1.417"/>
	<path style="&st0;&st1;&st4;&st2;&st3;" d="M11.832,63.956c1.564,0,2.833-1.268,2.833-2.833"/>
	<path style="&st0;&st1;&st4;&st2;&st3;" d="M89.452,61.124c0,1.564,1.269,2.833,2.833,2.833"/>
	<path style="&st0;&st1;&st4;&st2;&st3;" d="M95.117,63.956c1.565,0,2.833-1.268,2.833-2.833"/>
	<path style="&st0;&st1;&st4;&st2;&st3;" d="M16.081,54.042c-0.782,0-1.417,0.634-1.417,1.416"/>
	<path style="&st0;&st1;&st4;&st2;&st3;" d="M89.452,55.458c0-0.782-0.634-1.416-1.417-1.416"/>
	<path style="&st0;&st1;&st4;&st2;&st3;" d="M40.868,54.042c-0.782,0-1.417,0.634-1.417,1.416"/>
	<path style="&st0;&st1;&st4;&st2;&st3;" d="M36.619,55.458c0-0.782-0.634-1.416-1.417-1.416"/>
	<path style="&st0;&st1;&st4;&st2;&st3;" d="M55.316,55.458c0-0.782-0.634-1.416-1.417-1.416"/>
	<path style="&st0;&st1;&st4;&st2;&st3;" d="M59.565,54.042c-0.782,0-1.417,0.634-1.417,1.416"/>
	<path style="&st0;&st1;&st4;&st2;&st3;" d="M74.013,55.458c0-0.782-0.634-1.416-1.417-1.416"/>
	<path style="&st0;&st1;&st4;&st2;&st3;" d="M78.262,54.042c-0.782,0-1.416,0.634-1.416,1.416"/>
	<path style="&st0;&st1;&st4;&st2;&st3;" d="M42.709,35.628c-0.782,0-1.417,0.634-1.417,1.416"/>
	<path style="&st0;&st1;&st4;&st2;&st3;" d="M53.475,37.044c0-0.782-0.634-1.416-1.417-1.416"/>
	<path style="&st0;&st1;&st4;&st2;&st3;" d="M52.058,38.46c0.782,0,1.417-0.634,1.417-1.417"/>
	<path style="&st0;&st1;&st4;&st2;&st3;" d="M41.293,37.044c0,0.782,0.634,1.417,1.417,1.417"/>
	<path style="&st0;&st1;&st4;&st2;&st3;" d="M34.777,35.628c0,0.782,0.634,1.416,1.417,1.416"/>
	<path style="&st0;&st1;&st4;&st2;&st3;" d="M38.46,37.044c0.782,0,1.417-0.634,1.417-1.416"/>
	<path style="&st0;&st1;&st4;&st2;&st3;" d="M54.891,35.628c0,0.782,0.634,1.416,1.417,1.416"/>
	<path style="&st0;&st1;&st4;&st2;&st3;" d="M58.574,37.044c0.782,0,1.417-0.634,1.417-1.416"/>
	<path style="&st0;&st1;&st4;&st2;&st3;" d="M60.84,22.88c-0.469,0-0.85,0.38-0.85,0.85"/>
	<path style="&st0;&st1;&st4;&st2;&st3;" d="M34.777,23.729c0-0.469-0.38-0.85-0.85-0.85"/>
	<path style="&st0;&st1;&st2;&st3;" d="M72.03,15.798h5.666"/>
	<path style="&st0;&st1;&st4;&st2;&st3;" d="M40.585,5.174h22.946"/>
	<path style="&st0;&st1;&st2;&st3;" d="M64.948,0.5h5.666"/>
	<path style="&st0;&st1;&st2;&st3;" d="M33.503,0.5h5.666"/>
	<path style="&st0;&st1;&st2;&st3;" d="M39.168,0.5h25.779"/>
	<path style="&st0;&st1;&st4;&st2;&st3;" d="M14.664,58.291h21.955"/>
	<path style="&st0;&st1;&st4;&st2;&st3;" d="M39.452,58.291h15.864"/>
	<path style="&st0;&st1;&st4;&st2;&st3;" d="M58.148,58.291h15.864"/>
	<path style="&st0;&st1;&st4;&st2;&st3;" d="M76.846,58.291h12.606"/>
	<path style="&st0;&st1;&st4;&st2;&st3;" d="M54.891,22.88H39.877"/>
	<path style="&st0;&st1;&st4;&st2;&st3;" d="M54.891,24.296H39.877"/>
	<path style="&st0;&st1;&st4;&st2;&st3;" d="M52.058,26.421h-9.349"/>
	<path style="&st0;&st1;&st4;&st2;&st3;" d="M31.945,15.798v7.082"/>
	<path style="&st0;&st1;&st4;&st2;&st3;" d="M62.823,15.798v7.082"/>
	<path style="&st0;&st1;&st2;&st3;" d="M26.42,15.798h5.666"/>
	<path style="&st0;&st1;&st4;&st2;&st3;" d="M32.086,15.798H72.03"/>
	<g ewd:pinNo="1">
		<text transform="matrix(1 0 0 1 83.2275 37.7822)"><tspan x="0" y="0" style="&st6; &st5;">1</tspan></text>
	</g>
	<g ewd:pinNo="2">
		<text transform="matrix(1 0 0 1 73.8789 37.7822)"><tspan x="0" y="0" style="&st6; &st5;">2</tspan></text>
	</g>
	<g ewd:pinNo="3">
		<text transform="matrix(1 0 0 1 64.5308 37.7822)"><tspan x="0" y="0" style="&st6; &st5;">3</tspan></text>
	</g>
	<g ewd:pinNo="4">
		<text transform="matrix(1 0 0 1 27.1367 37.7822)"><tspan x="0" y="0" style="&st6; &st5;">4</tspan></text>
	</g>
	<g ewd:pinNo="5">
		<text transform="matrix(1 0 0 1 17.7886 37.7822)"><tspan x="0" y="0" style="&st6; &st5;">5</tspan></text>
	</g>
	<g ewd:pinNo="13">
		<text transform="matrix(1 0 0 1 15.7368 49.1138)"><tspan x="0" y="0" style="&st6; &st5;">13</tspan></text>
	</g>
	<g ewd:pinNo="6">
		<text transform="matrix(1 0 0 1 83.2275 49.1138)"><tspan x="0" y="0" style="&st6; &st5;">6</tspan></text>
	</g>
	<g ewd:pinNo="7">
		<text transform="matrix(1 0 0 1 73.8789 49.1138)"><tspan x="0" y="0" style="&st6; &st5;">7</tspan></text>
	</g>
	<g ewd:pinNo="8">
		<text transform="matrix(1 0 0 1 64.5308 49.1138)"><tspan x="0" y="0" style="&st6; &st5;">8</tspan></text>
	</g>
	<g ewd:pinNo="9">
		<text transform="matrix(1 0 0 1 55.1821 49.1138)"><tspan x="0" y="0" style="&st6; &st5;">9</tspan></text>
	</g>
	<g ewd:pinNo="10">
		<text transform="matrix(1 0 0 1 43.7822 49.1138)"><tspan x="0" y="0" style="&st6; &st5;">10</tspan></text>
	</g>
	<g ewd:pinNo="11">
		<text transform="matrix(1 0 0 1 34.6567 49.1138)"><tspan x="0" y="0" style="&st6; &st5;">11</tspan></text>
	</g>
	<g ewd:pinNo="12">
		<text transform="matrix(1 0 0 1 25.0854 49.1138)"><tspan x="0" y="0" style="&st6; &st5;">12</tspan></text>
	</g>
</g>
<path d="M44.6925,9.069v-8.504h116.5915v8.504" style="&st0;&st1;&st7;&st2;&st3;"/>
</svg>