<?xml version="1.0"?>
<!-- Generator: Adobe Illustrator 10.0, SVG Export Plug-In . SVG Version: 3.0.0 Build 77)  -->
<!DOCTYPE svg PUBLIC "-//W3C//DTD SVG 1.0//EN" "http://www.w3.org/TR/2001/REC-SVG-20010904/DTD/svg10.dtd"[
	<!ENTITY ns_flows "http://ns.adobe.com/Flows/1.0/">
	<!ENTITY ns_svg "http://www.w3.org/2000/svg">
	<!ENTITY ns_xlink "http://www.w3.org/1999/xlink">
	<!ENTITY st0 "fill:none;stroke:#000000;stroke-linecap:round;stroke-linejoin:round;">
	<!ENTITY st1 "fill:none;stroke:#000000;stroke-width:0.6;stroke-linecap:round;stroke-linejoin:round;">
	<!ENTITY st2 "font-size:6px;">
	<!ENTITY st3 "font-family:'Arial';">
	<!ATTLIST svg
		ewd:ver CDATA #IMPLIED
		xmlns:ewd CDATA #FIXED "http://shcl.co.jp/ewd"
		xmlns:a CDATA #FIXED "http://ns.adobe.com/AdobeSVGViewerExtensions/3.0/">
	<!ATTLIST g
		ewd:pinNo CDATA #IMPLIED>
]>
<svg width="73.521" height="65.731" viewBox="0 0 73.521 65.731" style="overflow:visible;enable-background:new 0 0 73.521 65.731" xml:space="preserve" onload="call_execInitLoadProc_svg('connector')" ewd:ver="2.1.2.9" xmlns="&ns_svg;" xmlns:ewd="http://shcl.co.jp/ewd" xmlns:a="http://ns.adobe.com/AdobeSVGViewerExtensions/3.0/" xmlns:xlink="&ns_xlink;">
<script type="text/javascript" xlink:href="../../../../../system/js/ewd/fig/svgfig.js"/>
<g id="レイヤー_1">
	<path style="&st1;" d="M14.098,34.919h45.326"/>
	<path style="&st1;" d="M25.429,21.852v25.816"/>
	<path style="&st1;" d="M36.761,21.747v25.921"/>
	<path style="&st1;" d="M48.092,21.852v25.816"/>
	<path style="&st1;" d="M10.415,23.568v26.955"/>
	<path style="&st1;" d="M63.106,23.568v26.955"/>
	<path style="&st1;" d="M6.732,24.798v23.646"/>
	<path style="&st1;" d="M66.789,24.798v23.646"/>
	<path style="&st0;" d="M27.554,65.231h18.414"/>
	<path style="&st0;" d="M48.8,61.574v0.825"/>
	<path style="&st0;" d="M24.721,61.574v0.825"/>
	<path style="&st1;" d="M15.622,11.693v3.116"/>
	<path style="&st1;" d="M20.721,11.693v2.878"/>
	<path style="&st0;" d="M0.5,30.228V43.01"/>
	<path style="&st0;" d="M73.021,30.228V43.01"/>
	<path style="&st1;" d="M16.472,10.843h3.399"/>
	<path style="&st0;" d="M16.472,7.443h4.566"/>
	<path style="&st1;" d="M48.092,10.276v4.227"/>
	<path style="&st1;" d="M25.429,10.276v4.227"/>
	<path style="&st1;" d="M30.387,3.899h12.748"/>
	<path style="&st1;" d="M45.967,6.732v7.706"/>
	<path style="&st1;" d="M27.554,6.732v7.706"/>
	<path style="&st1;" d="M26.279,9.427h1.275"/>
	<path style="&st1;" d="M45.967,9.427h1.275"/>
	<path style="&st0;" d="M27.554,0.5h18.414"/>
	<path style="&st0;" d="M21.888,6.166v0.428"/>
	<path style="&st0;" d="M51.633,6.166v1.437"/>
	<path style="&st1;" d="M29.678,6.732v7.7"/>
	<path style="&st1;" d="M43.843,6.732v7.7"/>
	<path style="&st1;" d="M31.095,5.316h11.332"/>
	<path style="&st1;" d="M29.678,7.441h14.165"/>
	<path style="&st1;" d="M29.678,10.274h2.833"/>
	<path style="&st1;" d="M41.01,10.274h2.833"/>
	<path style="&st1;" d="M58.058,22.121c-14.97-0.528-27.625-0.528-42.595,0"/>
	<path style="&st1;" d="M14.511,54.77c15.639,0.569,28.862,0.569,44.501,0"/>
	<path style="&st1;" d="M59.423,23.537c0-0.765-0.602-1.388-1.365-1.416"/>
	<path style="&st1;" d="M15.463,22.121c-0.764,0.028-1.366,0.652-1.366,1.417"/>
	<path style="&st1;" d="M59.013,19.322c-15.64-0.574-28.864-0.574-44.504,0"/>
	<path style="&st1;" d="M10.415,50.523c0,2.292,1.803,4.162,4.093,4.247"/>
	<path style="&st1;" d="M59.013,54.77c2.291-0.084,4.093-1.955,4.093-4.247"/>
	<path style="&st1;" d="M63.106,23.568c0-2.292-1.803-4.163-4.093-4.247"/>
	<path style="&st1;" d="M14.508,19.322c-2.291,0.084-4.093,1.955-4.093,4.247"/>
	<path style="&st1;" d="M57.902,15.597c-14.86-0.515-27.421-0.515-42.281,0"/>
	<path style="&st1;" d="M15.622,57.645c14.858,0.512,27.419,0.512,42.278,0"/>
	<path style="&st0;" d="M18.367,61.415c2.234,0.066,4.12,0.113,6.354,0.157"/>
	<path style="&st0;" d="M24.721,62.398c0,1.564,1.269,2.833,2.833,2.833"/>
	<path style="&st0;" d="M45.967,65.231c1.564,0,2.833-1.268,2.833-2.833"/>
	<path style="&st1;" d="M15.622,15.597c-4.97,0.171-8.889,4.228-8.889,9.201"/>
	<path style="&st1;" d="M6.732,48.443c0,4.973,3.919,9.03,8.889,9.202"/>
	<path style="&st1;" d="M57.899,57.645c4.97-0.171,8.889-4.228,8.889-9.201"/>
	<path style="&st1;" d="M66.789,24.798c0-4.974-3.919-9.03-8.89-9.202"/>
	<path style="&st0;" d="M0.5,43.01c0,9.977,7.894,18.109,17.867,18.405"/>
	<path style="&st0;" d="M55.154,61.415c9.973-0.296,17.866-8.428,17.866-18.405"/>
	<path style="&st0;" d="M11.01,13.6C4.42,16.731,0.502,22.932,0.502,30.228"/>
	<path style="&st0;" d="M73.021,30.228c0-9.804-7.587-17.832-17.376-18.384"/>
	<path style="&st1;" d="M20.721,11.693c0-0.469-0.38-0.85-0.85-0.85"/>
	<path style="&st1;" d="M16.472,10.843c-0.469,0-0.85,0.381-0.85,0.85"/>
	<path style="&st0;" d="M16.472,7.443c-2.344,0-4.245,1.897-4.25,4.241"/>
	<path style="&st1;" d="M30.387,3.899c-1.564,0-2.833,1.269-2.833,2.833"/>
	<path style="&st1;" d="M45.967,6.732c0-1.564-1.268-2.833-2.833-2.833"/>
	<path style="&st1;" d="M26.279,9.427c-0.469,0-0.85,0.38-0.85,0.85"/>
	<path style="&st1;" d="M48.092,10.276c0-0.469-0.38-0.85-0.85-0.85"/>
	<path style="&st0;" d="M27.554,0.5c-3.129,0-5.666,2.537-5.666,5.666"/>
	<path style="&st0;" d="M21.038,7.443c0.469,0,0.85-0.38,0.85-0.85"/>
	<path style="&st0;" d="M51.633,6.166c0-3.129-2.537-5.666-5.666-5.666"/>
	<path style="&st0;" d="M51.633,7.603c0,2.263,1.752,4.116,4.012,4.242"/>
	<path style="&st1;" d="M20.721,14.571c0,0.47,0.381,0.85,0.85,0.85"/>
	<path style="&st1;" d="M21.571,15.421c0.007,0,0.013,0,0.02,0"/>
	<path style="&st1;" d="M24.596,15.353c0.463-0.009,0.833-0.387,0.833-0.85"/>
	<path style="&st1;" d="M48.092,14.503c0,0.463,0.37,0.84,0.833,0.85"/>
	<path style="&st1;" d="M14.868,15.653c0.433-0.05,0.753-0.409,0.753-0.844"/>
	<path style="&st1;" d="M31.095,5.316c-0.782,0-1.417,0.634-1.417,1.417"/>
	<path style="&st1;" d="M43.843,6.732c0-0.782-0.634-1.417-1.417-1.417"/>
	<path style="&st0;" d="M11.01,13.6c0.759-0.361,1.21-1.075,1.211-1.915"/>
	<path style="&st1;" d="M27.554,14.438c0,0.469,0.38,0.85,0.85,0.85"/>
	<path style="&st1;" d="M28.404,15.288c0.004,0,0.007,0,0.011,0"/>
	<path style="&st1;" d="M28.84,15.282c0.465-0.006,0.838-0.385,0.838-0.85"/>
	<path style="&st1;" d="M45.106,15.288c0.47,0.006,0.855-0.369,0.861-0.838"/>
	<path style="&st1;" d="M45.967,14.449c0-0.004,0-0.007,0-0.011"/>
	<path style="&st1;" d="M43.843,14.432c0,0.465,0.373,0.844,0.838,0.85"/>
	<path style="&st1;" d="M24.721,61.574c8.465,0.165,15.615,0.165,24.08,0"/>
	<path style="&st0;" d="M48.8,61.574c2.234-0.043,4.12-0.09,6.354-0.156"/>
	<path style="&st1;" d="M41.01,7.441v3.541h-8.499V7.441"/>
	<path style="&st1;" d="M6.732,40.869H3.899V32.37h2.833"/>
	<path style="&st1;" d="M59.423,23.537v24.13H14.098v-24.13"/>
	<path style="&st1;" d="M66.789,40.869h2.833V32.37h-2.833"/>
	<g ewd:pinNo="1">
		<text transform="matrix(1 0 0 1 18.1592 30.6406)"><tspan x="0" y="0" style="&st3; &st2;">1</tspan></text>
	</g>
	<g ewd:pinNo="2">
		<text transform="matrix(1 0 0 1 29.4907 30.6406)"><tspan x="0" y="0" style="&st3; &st2;">2</tspan></text>
	</g>
	<g ewd:pinNo="3">
		<text transform="matrix(1 0 0 1 40.8223 30.6406)"><tspan x="0" y="0" style="&st3; &st2;">3</tspan></text>
	</g>
	<g ewd:pinNo="4">
		<text transform="matrix(1 0 0 1 52.1533 30.6406)"><tspan x="0" y="0" style="&st3; &st2;">4</tspan></text>
	</g>
	<g ewd:pinNo="5">
		<text transform="matrix(1 0 0 1 18.1592 43.3887)"><tspan x="0" y="0" style="&st3; &st2;">5</tspan></text>
	</g>
	<g ewd:pinNo="6">
		<text transform="matrix(1 0 0 1 29.4907 43.3887)"><tspan x="0" y="0" style="&st3; &st2;">6</tspan></text>
	</g>
	<g ewd:pinNo="7">
		<text transform="matrix(1 0 0 1 40.8223 43.3887)"><tspan x="0" y="0" style="&st3; &st2;">7</tspan></text>
	</g>
	<g ewd:pinNo="8">
		<text transform="matrix(1 0 0 1 52.1533 43.3887)"><tspan x="0" y="0" style="&st3; &st2;">8</tspan></text>
	</g>
</g>
</svg>