<?xml version="1.0"?>
<!-- Generator: Adobe Illustrator 10.0, SVG Export Plug-In . SVG Version: 3.0.0 Build 77)  -->
<!DOCTYPE svg PUBLIC "-//W3C//DTD SVG 1.0//EN" "http://www.w3.org/TR/2001/REC-SVG-20010904/DTD/svg10.dtd"[
	<!ENTITY ns_flows "http://ns.adobe.com/Flows/1.0/">
	<!ENTITY ns_svg "http://www.w3.org/2000/svg">
	<!ENTITY ns_xlink "http://www.w3.org/1999/xlink">
	<!ENTITY st0 "fill:none;stroke:#000000;stroke-linecap:round;stroke-linejoin:round;">
	<!ENTITY st1 "fill:none;stroke:#000000;stroke-width:0.6;stroke-linecap:round;stroke-linejoin:round;">
	<!ENTITY st2 "font-size:6px;">
	<!ENTITY st3 "font-family:'Arial';">
	<!ATTLIST svg
		ewd:ver CDATA #IMPLIED
		xmlns:ewd CDATA #FIXED "http://shcl.co.jp/ewd"
		xmlns:a CDATA #FIXED "http://ns.adobe.com/AdobeSVGViewerExtensions/3.0/">
	<!ATTLIST g
		ewd:pinNo CDATA #IMPLIED>
]>
<svg width="58.071" height="52.053" viewBox="0 0 58.071 52.053" style="overflow:visible;enable-background:new 0 0 58.071 52.053" xml:space="preserve" onload="call_execInitLoadProc_svg('connector')" ewd:ver="2.1.2.9" xmlns="&ns_svg;" xmlns:ewd="http://shcl.co.jp/ewd" xmlns:a="http://ns.adobe.com/AdobeSVGViewerExtensions/3.0/" xmlns:xlink="&ns_xlink;">
<script type="text/javascript" xlink:href="../../../../../system/js/ewd/fig/svgfig.js"/>
<g id="レイヤー_1">
	<path style="&st0;" d="M21.359,0.502H36.71"/>
	<path style="&st0;" d="M57.569,26.267v6.363"/>
	<path style="&st0;" d="M0.501,26.267v6.363"/>
	<path style="&st1;" d="M21.413,4.21H36.66"/>
	<path style="&st1;" d="M4.209,26.267v5.952"/>
	<path style="&st1;" d="M53.861,26.267v5.952"/>
	<path style="&st0;" d="M11.625,48.072v1.419"/>
	<path style="&st0;" d="M46.444,48.072v1.419"/>
	<path style="&st1;" d="M23.795,7.199h10.481"/>
	<path style="&st1;" d="M45.62,26.267v5.952"/>
	<path style="&st1;" d="M23.507,22.856V35.63"/>
	<path style="&st1;" d="M34.563,22.856V35.63"/>
	<path style="&st1;" d="M12.45,26.267v5.952"/>
	<path style="&st1;" d="M49.02,26.267v5.952"/>
	<path style="&st1;" d="M9.05,26.267v5.952"/>
	<path style="&st1;" d="M5.625,26.267v5.952"/>
	<path style="&st1;" d="M52.444,26.267v5.952"/>
	<path style="&st1;" d="M15.487,47.876c3.006,0.052,5.545,0.082,8.552,0.101"/>
	<path style="&st1;" d="M15.549,43.757c4.197,0.072,7.742,0.106,11.94,0.114"/>
	<path style="&st0;" d="M0.501,32.63c0,6.695,4.073,12.347,10.425,14.464"/>
	<path style="&st1;" d="M42.586,47.873c1.632-0.028,3.009-0.263,4.558-0.779"/>
	<path style="&st1;" d="M42.523,14.731c-9.483-0.162-17.491-0.162-26.974,0"/>
	<path style="&st0;" d="M10.543,11.936C4.383,14.172,0.5,19.714,0.5,26.267"/>
	<path style="&st0;" d="M57.569,26.267c0-6.552-3.882-12.092-10.041-14.328"/>
	<path style="&st1;" d="M15.549,14.731C9.248,14.84,4.21,19.965,4.21,26.267"/>
	<path style="&st1;" d="M4.209,32.219c0,6.303,5.039,11.428,11.34,11.537"/>
	<path style="&st1;" d="M53.861,26.267c0-6.302-5.039-11.427-11.34-11.534"/>
	<path style="&st1;" d="M42.521,43.754c6.302-0.107,11.342-5.232,11.342-11.536"/>
	<path style="&st0;" d="M10.543,11.936c2.311-0.84,3.821-2.801,4.043-5.25"/>
	<path style="&st0;" d="M43.484,6.687c0.222,2.449,1.733,4.41,4.045,5.249"/>
	<path style="&st0;" d="M21.359,0.502c-3.539,0-6.451,2.66-6.771,6.185"/>
	<path style="&st0;" d="M43.484,6.687C43.164,3.161,40.25,0.5,36.71,0.5"/>
	<path style="&st1;" d="M21.413,4.21c-1.707,0-3.091,1.384-3.091,3.091"/>
	<path style="&st1;" d="M39.75,7.301c0-1.707-1.384-3.091-3.09-3.091"/>
	<path style="&st1;" d="M23.795,7.199c-1.137,0-2.06,0.922-2.06,2.06"/>
	<path style="&st1;" d="M36.336,9.259c0-1.138-0.922-2.06-2.06-2.06"/>
	<path style="&st0;" d="M47.149,47.094c-0.429,0.143-0.704,0.525-0.704,0.978"/>
	<path style="&st0;" d="M11.625,48.072c0-0.452-0.275-0.833-0.703-0.976"/>
	<path style="&st1;" d="M42.382,22.97c-9.383-0.161-17.308-0.161-26.691,0"/>
	<path style="&st1;" d="M15.691,35.516c9.383,0.161,17.308,0.161,26.691,0"/>
	<path style="&st1;" d="M30.58,43.871c4.199-0.008,7.743-0.042,11.94-0.114"/>
	<path style="&st1;" d="M34.031,47.975c3.008-0.019,5.547-0.049,8.555-0.1"/>
	<path style="&st0;" d="M13.648,51.55c10.819,0.209,19.957,0.209,30.776,0"/>
	<path style="&st0;" d="M11.625,49.491c0,1.124,0.896,2.039,2.02,2.062"/>
	<path style="&st0;" d="M44.424,51.55c1.124-0.021,2.021-0.936,2.021-2.06"/>
	<path style="&st1;" d="M25.575,49.57c-0.038,1.137,0.854,2.09,1.991,2.127"/>
	<path style="&st1;" d="M27.566,51.698c0.023,0,0.042,0.001,0.065,0.001"/>
	<path style="&st1;" d="M30.441,51.698c1.137-0.001,2.058-0.925,2.057-2.063"/>
	<path style="&st1;" d="M32.498,49.635c0-0.023,0-0.042-0.001-0.065"/>
	<path style="&st1;" d="M34.031,47.975c-0.853,0.006-1.539,0.703-1.533,1.555"/>
	<path style="&st1;" d="M32.498,49.53c0,0.014,0,0.026,0.001,0.04"/>
	<path style="&st1;" d="M25.575,49.57c0.028-0.853-0.641-1.567-1.493-1.595"/>
	<path style="&st1;" d="M24.082,47.975c-0.015,0-0.027,0-0.042,0"/>
	<path style="&st1;" d="M45.62,26.267c0-1.8-1.439-3.263-3.238-3.294"/>
	<path style="&st1;" d="M42.382,35.514c1.8-0.031,3.238-1.495,3.238-3.295"/>
	<path style="&st1;" d="M12.45,32.219c0,1.801,1.44,3.266,3.241,3.297"/>
	<path style="&st1;" d="M15.691,22.972c-1.8,0.031-3.239,1.495-3.239,3.295"/>
	<path style="&st1;" d="M10.926,47.094c1.549,0.517,2.928,0.752,4.561,0.78"/>
	<path style="&st0;" d="M47.144,47.094c6.353-2.117,10.427-7.768,10.427-14.464"/>
	<path style="&st1;" d="M42.438,38.913c3.657-0.062,6.582-3.037,6.582-6.694"/>
	<path style="&st1;" d="M15.631,38.913c9.424,0.162,17.383,0.162,26.807,0"/>
	<path style="&st1;" d="M9.05,32.219c0,3.658,2.924,6.632,6.581,6.696"/>
	<path style="&st1;" d="M15.631,19.573c-3.656,0.064-6.579,3.038-6.579,6.694"/>
	<path style="&st1;" d="M42.438,19.57c-9.424-0.162-17.383-0.162-26.807,0"/>
	<path style="&st1;" d="M49.02,26.267c0-3.657-2.924-6.631-6.581-6.693"/>
	<path style="&st1;" d="M6.702,21.723c-0.743,1.48-1.077,2.887-1.077,4.544"/>
	<path style="&st1;" d="M5.625,32.219c0,1.657,0.333,3.063,1.077,4.544"/>
	<path style="&st1;" d="M52.444,26.267c0-1.657-0.333-3.063-1.078-4.543"/>
	<path style="&st1;" d="M51.368,36.763c0.744-1.48,1.078-2.887,1.078-4.544"/>
	<path style="&st1;" d="M30.58,43.868v3.609h-3.09v-3.609"/>
	<path style="&st1;" d="M39.75,7.301V17.78h-3.414V9.259"/>
	<path style="&st1;" d="M21.733,9.259v8.521h-3.411V7.301"/>
	<path style="&st1;" d="M26.204,14.621v3.159"/>
	<path style="&st1;" d="M31.869,14.621v3.159"/>
	<path style="&st1;" d="M26.204,17.78h5.666"/>
	<path style="&st1;" d="M23.149,12.667H34.92"/>
	<path style="&st1;" d="M23.149,8.7H34.92"/>
	<path style="&st1;" d="M27.116,8.7v1.983h3.838V8.7"/>
	<path style="&st1;" d="M32.087,10.684h2.833"/>
	<path style="&st1;" d="M23.149,10.684h2.833"/>
	<path style="&st1;" d="M5.869,20.307h6.827"/>
	<path style="&st1;" d="M52.204,20.307h-6.83"/>
	<path style="&st1;" d="M5.869,38.179h6.827"/>
	<path style="&st1;" d="M52.204,38.179h-6.83"/>
	<path style="&st1;" d="M6.702,36.763h4.128"/>
	<path style="&st1;" d="M6.702,21.723h4.128"/>
	<path style="&st1;" d="M51.368,36.763h-4.125"/>
	<path style="&st1;" d="M51.368,21.723h-4.125"/>
	<g ewd:pinNo="1">
		<text transform="matrix(1 0 0 1 16.2954 31.4341)"><tspan x="0" y="0" style="&st3; &st2;">1</tspan></text>
	</g>
	<g ewd:pinNo="2">
		<text transform="matrix(1 0 0 1 27.3521 31.4341)"><tspan x="0" y="0" style="&st3; &st2;">2</tspan></text>
	</g>
	<g ewd:pinNo="3">
		<text transform="matrix(1 0 0 1 38.4087 31.4341)"><tspan x="0" y="0" style="&st3; &st2;">3</tspan></text>
	</g>
</g>
</svg>