<?xml version="1.0"?>
<!-- Generator: Adobe Illustrator 10.0, SVG Export Plug-In . SVG Version: 3.0.0 Build 77)  -->
<!DOCTYPE svg PUBLIC "-//W3C//DTD SVG 1.0//EN" "http://www.w3.org/TR/2001/REC-SVG-20010904/DTD/svg10.dtd"[
	<!ENTITY ns_flows "http://ns.adobe.com/Flows/1.0/">
	<!ENTITY ns_svg "http://www.w3.org/2000/svg">
	<!ENTITY ns_xlink "http://www.w3.org/1999/xlink">
	<!ENTITY st0 "fill:none;">
	<!ENTITY st1 "stroke:#000000;">
	<!ENTITY st2 "stroke-linecap:round;">
	<!ENTITY st3 "stroke-linejoin:round;">
	<!ENTITY st4 "stroke-width:0.6;">
	<!ENTITY st5 "font-size:6px;">
	<!ENTITY st6 "font-family:'Arial';">
	<!ENTITY st7 "stroke-width:1.4;">
	<!ATTLIST svg
		ewd:ver CDATA #IMPLIED
		xmlns:ewd CDATA #FIXED "http://shcl.co.jp/ewd"
		xmlns:a CDATA #FIXED "http://ns.adobe.com/AdobeSVGViewerExtensions/3.0/">
	<!ATTLIST g
		ewd:pinNo CDATA #IMPLIED>
]>
<svg width="99.178" height="58.375" viewBox="0 0 99.178 58.375" style="overflow:visible;enable-background:new 0 0 37.969 41.227" xml:space="preserve" onload="call_execInitLoadProc_svg('connector')" ewd:ver="2.1.2.9" xmlns="&ns_svg;" xmlns:ewd="http://shcl.co.jp/ewd" xmlns:a="http://ns.adobe.com/AdobeSVGViewerExtensions/3.0/" xmlns:xlink="&ns_xlink;">
<script type="text/javascript" xlink:href="../../../../../system/js/ewd/fig/svgfig.js"/>
<g id="レイヤー_1" transform="translate(0,17.008)">
	<path style="&st0;&st1;&st2;&st3;" d="M29.537,40.727H6.308"/>
	<path style="&st0;&st1;&st2;&st3;" d="M25.146,0.5h-2.408"/>
	<path style="&st0;&st1;&st4;&st2;&st3;" d="M17.922,22.172v10.906"/>
	<path style="&st0;&st1;&st2;&st3;" d="M0.5,20.472v10.482"/>
	<path style="&st0;&st1;&st2;&st3;" d="M35.344,20.472v2.408"/>
	<path style="&st0;&st1;&st4;&st2;&st3;" d="M30.953,37.327H4.891"/>
	<path style="&st0;&st1;&st2;&st3;" d="M30.953,5.6h-0.142"/>
	<path style="&st0;&st1;&st2;&st3;" d="M7.157,7.724v8.499"/>
	<path style="&st0;&st1;&st2;&st3;" d="M28.687,7.724v8.499"/>
	<path style="&st0;&st1;&st2;&st3;" d="M5.032,5.6H4.891"/>
	<path style="&st0;&st1;&st2;&st3;" d="M8.574,2.625v1.558"/>
	<path style="&st0;&st1;&st2;&st3;" d="M27.271,2.625v1.558"/>
	<path style="&st0;&st1;&st2;&st3;" d="M13.106,0.5h-2.408"/>
	<path style="&st0;&st1;&st4;&st2;&st3;" d="M22.171,5.6h-8.499"/>
	<path style="&st0;&st1;&st4;&st2;&st3;" d="M30.953,35.911H4.891"/>
	<path style="&st0;&st1;&st4;&st2;&st3;" d="M4.183,20.472v14.731"/>
	<path style="&st0;&st1;&st4;&st2;&st3;" d="M31.662,20.472v14.731"/>
	<path style="&st0;&st1;&st2;&st3;" d="M30.953,37.327v1.983"/>
	<path style="&st0;&st1;&st2;&st3;" d="M4.891,37.327v1.983"/>
	<path style="&st0;&st1;&st4;&st2;&st3;" d="M20.046,37.327v3.399"/>
	<path style="&st0;&st1;&st4;&st2;&st3;" d="M15.797,37.327v3.399"/>
	<path style="&st0;&st1;&st4;&st2;&st3;" d="M15.797,39.027h4.249"/>
	<path style="&st0;&st1;&st2;&st3;" d="M37.469,25.288v0.85"/>
	<path style="&st0;&st1;&st2;&st3;" d="M35.344,28.545v2.408"/>
	<path style="&st0;&st1;&st4;&st2;&st3;" d="M9.282,18.347H4.891"/>
	<path style="&st0;&st1;&st4;&st2;&st3;" d="M30.953,18.347h-4.391"/>
	<path style="&st0;&st1;&st4;&st2;&st3;" d="M14.522,4.183h-0.85"/>
	<path style="&st0;&st1;&st4;&st2;&st3;" d="M22.171,4.183h-0.85"/>
	<path style="&st0;&st1;&st4;&st2;&st3;" d="M33.078,33.072V18.347"/>
	<path style="&st0;&st1;&st4;&st2;&st3;" d="M2.766,18.347v14.731"/>
	<path style="&st0;&st1;&st2;&st3;" d="M35.344,20.472c0-1.173-0.951-2.125-2.125-2.125"/>
	<path style="&st0;&st1;&st2;&st3;" d="M2.625,18.347c-1.173,0-2.125,0.952-2.125,2.125"/>
	<path style="&st0;&st1;&st4;&st2;&st3;" d="M33.078,20.472c0-1.173-0.951-2.125-2.125-2.125"/>
	<path style="&st0;&st1;&st4;&st2;&st3;" d="M4.891,18.347c-1.173,0-2.125,0.952-2.125,2.125"/>
	<path style="&st0;&st1;&st2;&st3;" d="M30.953,37.327c1.173,0,2.125-0.951,2.125-2.125"/>
	<path style="&st0;&st1;&st2;&st3;" d="M2.766,35.203c0,1.173,0.951,2.125,2.125,2.125"/>
	<path style="&st0;&st1;&st4;&st2;&st3;" d="M23.588,5.6c0-0.782-0.634-1.417-1.417-1.417"/>
	<path style="&st0;&st1;&st4;&st2;&st3;" d="M13.673,4.183c-0.782,0-1.417,0.635-1.417,1.417"/>
	<path style="&st0;&st1;&st2;&st3;" d="M27.271,2.625c0-1.173-0.951-2.125-2.125-2.125"/>
	<path style="&st0;&st1;&st2;&st3;" d="M10.698,0.5c-1.173,0-2.125,0.952-2.125,2.125"/>
	<path style="&st0;&st1;&st2;&st3;" d="M22.738,0.5c-0.782,0-1.417,0.634-1.417,1.417"/>
	<path style="&st0;&st1;&st2;&st3;" d="M14.522,1.917c0-0.782-0.634-1.417-1.417-1.417"/>
	<path style="&st0;&st1;&st2;&st3;" d="M25.854,5.6c0.782,0,1.417-0.634,1.417-1.417"/>
	<path style="&st0;&st1;&st2;&st3;" d="M8.574,4.183C8.574,4.965,9.208,5.6,9.99,5.6"/>
	<path style="&st0;&st1;&st4;&st2;&st3;" d="M23.588,7.016c0-0.783-0.634-1.417-1.417-1.417"/>
	<path style="&st0;&st1;&st4;&st2;&st3;" d="M13.673,5.6c-0.782,0-1.417,0.634-1.417,1.417"/>
	<path style="&st0;&st1;&st2;&st3;" d="M33.078,7.724c0-1.173-0.951-2.125-2.125-2.125"/>
	<path style="&st0;&st1;&st2;&st3;" d="M30.812,5.6c-1.173,0-2.125,0.951-2.125,2.125"/>
	<path style="&st0;&st1;&st2;&st3;" d="M7.157,7.724c0-1.173-0.951-2.125-2.125-2.125"/>
	<path style="&st0;&st1;&st2;&st3;" d="M4.891,5.6c-1.173,0-2.125,0.951-2.125,2.125"/>
	<path style="&st0;&st1;&st4;&st2;&st3;" d="M4.891,19.764c-0.391,0-0.708,0.317-0.708,0.708"/>
	<path style="&st0;&st1;&st4;&st2;&st3;" d="M31.662,20.472c0-0.391-0.317-0.708-0.708-0.708"/>
	<path style="&st0;&st1;&st4;&st2;&st3;" d="M30.953,35.911c0.391,0,0.708-0.317,0.708-0.708"/>
	<path style="&st0;&st1;&st4;&st2;&st3;" d="M4.183,35.203c0,0.391,0.317,0.708,0.708,0.708"/>
	<path style="&st0;&st1;&st2;&st3;" d="M26.562,18.347c1.174,0,2.125-0.951,2.125-2.125"/>
	<path style="&st0;&st1;&st2;&st3;" d="M7.157,16.223c0,1.173,0.951,2.125,2.125,2.125"/>
	<path style="&st0;&st1;&st2;&st3;" d="M29.537,40.727c0.782,0,1.417-0.634,1.417-1.416"/>
	<path style="&st0;&st1;&st2;&st3;" d="M4.891,39.311c0,0.782,0.634,1.416,1.417,1.416"/>
	<path style="&st0;&st1;&st2;&st3;" d="M0.5,30.954c0,1.173,0.951,2.125,2.125,2.125"/>
	<path style="&st0;&st1;&st2;&st3;" d="M33.219,33.078c1.174,0,2.125-0.951,2.125-2.125"/>
	<path style="&st0;&st1;&st2;&st3;" d="M37.469,25.288c0-1.231-0.905-2.248-2.127-2.391"/>
	<path style="&st0;&st1;&st2;&st3;" d="M35.341,28.528c1.222-0.143,2.127-1.16,2.127-2.391"/>
	<path style="&st0;&st1;&st4;&st2;&st3;" d="M20.046,33.078h-4.249v2.125h4.249V33.078"/>
	<path style="&st0;&st1;&st4;&st2;&st3;" d="M15.797,34.495H6.591V22.172h22.663v12.323h-9.207"/>
	<path style="&st0;&st1;&st2;&st3;" d="M9.99,5.6h2.266v12.748H9.282"/>
	<path style="&st0;&st1;&st2;&st3;" d="M26.562,18.347h-2.974V5.6h2.266"/>
	<path style="&st0;&st1;&st4;&st2;&st3;" d="M23.588,18.347v1.417h7.365"/>
	<path style="&st0;&st1;&st4;&st2;&st3;" d="M4.891,19.764h7.366v-1.417"/>
	<path style="&st0;&st1;&st2;&st3;" d="M21.321,1.917v2.266h-6.799V1.917"/>
	<path style="&st0;&st1;&st2;&st3;" d="M2.625,18.347h0.142V7.724"/>
	<path style="&st0;&st1;&st2;&st3;" d="M2.766,35.203v-2.125H2.625"/>
	<path style="&st0;&st1;&st2;&st3;" d="M33.219,18.347h-0.142V7.724"/>
	<path style="&st0;&st1;&st2;&st3;" d="M33.078,35.203v-2.125h0.142"/>
	<path style="&st0;&st1;&st4;&st2;&st3;" d="M33.078,28.545h2.267V22.88h-2.267"/>
	<g ewd:pinNo="1">
		<text transform="matrix(1 0 0 1 10.8101 30.6289)"><tspan x="0" y="0" style="&st6; &st5;">1</tspan></text>
	</g>
	<g ewd:pinNo="2">
		<text transform="matrix(1 0 0 1 22.1416 30.6289)"><tspan x="0" y="0" style="&st6; &st5;">2</tspan></text>
	</g>
</g>
<g id="レイヤー_1" transform="translate(57.81,17.008)">
	<path style="&st0;&st1;&st2;&st3;" d="M38.035,3.333v12.623"/>
	<path style="&st0;&st1;&st4;&st2;&st3;" d="M7.724,21.18v1.558"/>
	<path style="&st0;&st1;&st4;&st2;&st3;" d="M9.848,38.036h26.063"/>
	<path style="&st0;&st1;&st4;&st2;&st3;" d="M9.848,19.056h5.241"/>
	<path style="&st0;&st1;&st4;&st2;&st3;" d="M38.035,21.18v14.731"/>
	<path style="&st0;&st1;&st4;&st2;&st3;" d="M30.67,19.056h5.241"/>
	<path style="&st0;&st1;&st4;&st2;&st3;" d="M4.466,23.588h2.408"/>
	<path style="&st0;&st1;&st4;&st2;&st3;" d="M4.466,29.254h2.408"/>
	<path style="&st0;&st1;&st4;&st2;&st3;" d="M3.333,24.721v3.399"/>
	<path style="&st0;&st1;&st4;&st2;&st3;" d="M7.724,30.104v5.822"/>
	<path style="&st0;&st1;&st2;&st3;" d="M40.868,20.047v16.572"/>
	<path style="&st0;&st1;&st2;&st3;" d="M0.5,22.313v7.507"/>
	<path style="&st0;&st1;&st2;&st3;" d="M2.766,32.086h0.283"/>
	<path style="&st0;&st1;&st2;&st3;" d="M8.432,40.869h28.187"/>
	<path style="&st0;&st1;&st2;&st3;" d="M35.203,0.5H10.557"/>
	<path style="&st0;&st1;&st4;&st2;&st3;" d="M15.089,17.639H30.67"/>
	<path style="&st0;&st1;&st2;&st3;" d="M7.724,3.333v12.623"/>
	<path style="&st0;&st1;&st4;&st2;&st3;" d="M15.089,8.432H30.67"/>
	<path style="&st0;&st1;&st4;&st2;&st3;" d="M34.211,2.625V14.67"/>
	<path style="&st0;&st1;&st4;&st2;&st3;" d="M11.548,2.625V14.67"/>
	<path style="&st0;&st1;&st2;&st3;" d="M2.766,20.047h1.53"/>
	<path style="&st0;&st1;&st2;&st3;" d="M4.183,33.22v3.399"/>
	<path style="&st0;&st1;&st4;&st2;&st3;" d="M10.84,15.52h-1.11"/>
	<path style="&st0;&st1;&st4;&st2;&st3;" d="M36.03,15.52h-1.028"/>
	<path style="&st0;&st1;&st4;&st2;&st3;" d="M13.613,17.772v1.284"/>
	<path style="&st0;&st1;&st4;&st2;&st3;" d="M32.316,17.455v1.601"/>
	<path style="&st0;&st1;&st4;&st2;&st3;" d="M22.879,32.869V24.07"/>
	<path style="&st0;&st1;&st4;&st2;&st3;" d="M9.848,19.056c-1.173,0-2.125,0.951-2.125,2.125"/>
	<path style="&st0;&st1;&st4;&st2;&st3;" d="M38.035,21.18c0-1.173-0.951-2.125-2.125-2.125"/>
	<path style="&st0;&st1;&st4;&st2;&st3;" d="M7.724,35.911c0,1.173,0.951,2.125,2.125,2.125"/>
	<path style="&st0;&st1;&st4;&st2;&st3;" d="M35.911,38.036c1.173,0,2.125-0.951,2.125-2.125"/>
	<path style="&st0;&st1;&st4;&st2;&st3;" d="M7.724,30.104c0-0.469-0.38-0.85-0.85-0.85"/>
	<path style="&st0;&st1;&st4;&st2;&st3;" d="M6.874,23.588c0.469,0,0.85-0.38,0.85-0.85"/>
	<path style="&st0;&st1;&st2;&st3;" d="M36.619,40.869c2.347,0,4.249-1.903,4.249-4.25"/>
	<path style="&st0;&st1;&st2;&st3;" d="M38.035,3.333c0-1.564-1.268-2.833-2.833-2.833"/>
	<path style="&st0;&st1;&st2;&st3;" d="M10.557,0.5c-1.564,0-2.833,1.269-2.833,2.833"/>
	<path style="&st0;&st1;&st4;&st2;&st3;" d="M4.466,23.588c-0.625,0-1.133,0.507-1.133,1.133"/>
	<path style="&st0;&st1;&st4;&st2;&st3;" d="M3.333,28.121c0,0.626,0.508,1.133,1.133,1.133"/>
	<path style="&st0;&st1;&st4;&st2;&st3;" d="M34.211,2.625c0-1.173-0.951-2.125-2.125-2.125"/>
	<path style="&st0;&st1;&st4;&st2;&st3;" d="M13.673,0.5c-1.173,0-2.125,0.952-2.125,2.125"/>
	<path style="&st0;&st1;&st2;&st3;" d="M4.183,36.619c0,2.347,1.903,4.25,4.25,4.25"/>
	<path style="&st0;&st1;&st2;&st3;" d="M4.183,33.22c0-0.626-0.507-1.133-1.133-1.133"/>
	<path style="&st0;&st1;&st2;&st3;" d="M2.766,20.047c-1.251,0-2.266,1.015-2.266,2.267"/>
	<path style="&st0;&st1;&st2;&st3;" d="M0.5,29.82c0,1.251,1.015,2.266,2.266,2.266"/>
	<path style="&st0;&st1;&st2;&st3;" d="M7.724,15.956c-1.478,0.677-2.438,1.911-2.732,3.51"/>
	<path style="&st0;&st1;&st2;&st3;" d="M4.296,20.047c0.346,0,0.635-0.24,0.697-0.581"/>
	<path style="&st0;&st1;&st4;&st2;&st3;" d="M38.035,15.956c-0.661-0.303-1.278-0.437-2.005-0.437"/>
	<path style="&st0;&st1;&st4;&st2;&st3;" d="M34.211,14.67c0,0.469,0.38,0.85,0.85,0.85"/>
	<path style="&st0;&st1;&st4;&st2;&st3;" d="M10.698,15.52c0.469,0,0.85-0.38,0.85-0.85"/>
	<path style="&st0;&st1;&st4;&st2;&st3;" d="M13.613,17.772c-0.279-1.33-1.414-2.252-2.773-2.252"/>
	<path style="&st0;&st1;&st4;&st2;&st3;" d="M35.001,15.52c-1.243,0-2.292,0.755-2.687,1.935"/>
	<path style="&st0;&st1;&st2;&st3;" d="M40.837,20.047c-0.11-1.828-1.137-3.327-2.802-4.089"/>
	<path style="&st0;&st1;&st4;&st2;&st3;" d="M9.729,15.52c-0.727,0-1.344,0.134-2.005,0.438"/>
	<path style="&st0;&st1;&st4;&st2;&st3;" d="M21.166,32.869h3.428v1.714h-3.428V32.869"/>
	<path style="&st0;&st1;&st4;&st2;&st3;" d="M24.593,34.01h7.428v-9.94H13.738v9.94h7.428"/>
	<path style="&st0;&st1;&st4;&st2;&st3;" d="M30.67,16.223h-3.589v-1.417h-8.499v1.417h-3.493"/>
	<path style="&st0;&st1;&st4;&st2;&st3;" d="M26.373,8.432V5.883h-7.082v2.549"/>
	<path style="&st0;&st1;&st4;&st2;&st3;" d="M30.67,4.891H15.089V21.18H30.67V4.891"/>
	<g ewd:pinNo="2">
		<text transform="matrix(1 0 0 1 16.5903 31.0635)"><tspan x="0" y="0" style="&st6; &st5;">2</tspan></text>
	</g>
	<g ewd:pinNo="1">
		<text transform="matrix(1 0 0 1 25.729 31.0635)"><tspan x="0" y="0" style="&st6; &st5;">1</tspan></text>
	</g>
</g>
<path d="M18.9845,9.069v-8.504h59.5095v8.504" style="&st0;&st1;&st7;&st2;&st3;"/>
</svg>