<?xml version="1.0"?>
<!-- Generator: Adobe Illustrator 10.0, SVG Export Plug-In . SVG Version: 3.0.0 Build 77)  -->
<!DOCTYPE svg PUBLIC "-//W3C//DTD SVG 1.0//EN" "http://www.w3.org/TR/2001/REC-SVG-20010904/DTD/svg10.dtd"[
	<!ENTITY ns_flows "http://ns.adobe.com/Flows/1.0/">
	<!ENTITY ns_svg "http://www.w3.org/2000/svg">
	<!ENTITY ns_xlink "http://www.w3.org/1999/xlink">
	<!ENTITY st0 "fill:none;stroke:#000000;stroke-linecap:round;stroke-linejoin:round;">
	<!ENTITY st1 "fill:none;stroke:#000000;stroke-width:0.6;stroke-linecap:round;stroke-linejoin:round;">
	<!ENTITY st2 "font-size:6px;">
	<!ENTITY st3 "font-family:'Arial';">
	<!ATTLIST svg
		ewd:ver CDATA #IMPLIED
		xmlns:ewd CDATA #FIXED "http://shcl.co.jp/ewd"
		xmlns:a CDATA #FIXED "http://ns.adobe.com/AdobeSVGViewerExtensions/3.0/">
	<!ATTLIST g
		ewd:pinNo CDATA #IMPLIED>
]>
<svg width="29.472" height="31.386" viewBox="0 0 29.472 31.386" style="overflow:visible;enable-background:new 0 0 29.472 31.386" xml:space="preserve" onload="call_execInitLoadProc_svg('connector')" ewd:ver="2.1.2.9" xmlns="&ns_svg;" xmlns:ewd="http://shcl.co.jp/ewd" xmlns:a="http://ns.adobe.com/AdobeSVGViewerExtensions/3.0/" xmlns:xlink="&ns_xlink;">
<script type="text/javascript" xlink:href="../../../../../system/js/ewd/fig/svgfig.js"/>
<g id="レイヤー_1">
	<path style="&st1;" d="M19.552,13.814H9.92"/>
	<path style="&st1;" d="M19.552,20.899H9.92"/>
	<path style="&st1;" d="M9.07,14.665v5.385"/>
	<path style="&st1;" d="M20.402,14.665v5.385"/>
	<path style="&st1;" d="M22.526,3.991v4.144"/>
	<path style="&st1;" d="M6.946,3.991v4.144"/>
	<path style="&st0;" d="M0.501,18.772v-2.125"/>
	<path style="&st0;" d="M28.971,18.772v-2.125"/>
	<path style="&st0;" d="M9.807,30.886H8.362"/>
	<path style="&st0;" d="M6.237,28.761v-0.235"/>
	<path style="&st0;" d="M24.26,3.109l2.683,10.014"/>
	<path style="&st0;" d="M2.529,13.124L5.212,3.109"/>
	<path style="&st1;" d="M27.555,18.772v-2.125"/>
	<path style="&st1;" d="M25.742,19.48h1.105"/>
	<path style="&st1;" d="M26.847,15.939h-1.105"/>
	<path style="&st1;" d="M1.917,16.647v2.125"/>
	<path style="&st1;" d="M3.73,15.939H2.625"/>
	<path style="&st1;" d="M2.625,19.48H3.73"/>
	<path style="&st1;" d="M8.362,29.469h1.062"/>
	<path style="&st1;" d="M7.654,26.432v2.329"/>
	<path style="&st1;" d="M10.133,28.761v-1.94"/>
	<path style="&st1;" d="M20.047,4.044v4.091"/>
	<path style="&st1;" d="M9.424,4.044v4.091"/>
	<path style="&st1;" d="M12.753,7.37h3.966"/>
	<path style="&st1;" d="M22.526,4.183H6.946"/>
	<path style="&st1;" d="M20.402,14.665c0-0.469-0.381-0.85-0.85-0.85"/>
	<path style="&st1;" d="M19.552,20.899c0.469,0,0.85-0.38,0.85-0.85"/>
	<path style="&st1;" d="M9.92,13.814c-0.47,0-0.85,0.381-0.85,0.85"/>
	<path style="&st1;" d="M9.07,20.05c0,0.47,0.38,0.85,0.85,0.85"/>
	<path style="&st1;" d="M3.73,19.48c0.037,0.782,0.089,1.44,0.173,2.218"/>
	<path style="&st1;" d="M25.742,15.939c-0.038-0.78-0.089-1.438-0.173-2.215"/>
	<path style="&st1;" d="M20.453,26.729c2.721-0.249,4.823-2.314,5.118-5.031"/>
	<path style="&st1;" d="M10.133,26.82c3.623,0.267,6.702,0.239,10.32-0.092"/>
	<path style="&st1;" d="M6.331,25.758c0.432,0.296,0.831,0.499,1.324,0.672"/>
	<path style="&st1;" d="M20.575,1.871c-4.097-0.334-7.581-0.334-11.677,0"/>
	<path style="&st1;" d="M22.526,3.991c0-1.113-0.843-2.028-1.952-2.118"/>
	<path style="&st1;" d="M8.897,1.871c-1.11,0.091-1.953,1.006-1.953,2.12"/>
	<path style="&st1;" d="M25.569,21.699c0.084-0.778,0.136-1.437,0.173-2.218"/>
	<path style="&st1;" d="M3.903,13.724c-0.084,0.777-0.136,1.435-0.173,2.215"/>
	<path style="&st1;" d="M3.903,21.699c0.185,1.706,1.013,3.089,2.427,4.06"/>
	<path style="&st1;" d="M22.039,21.39c0.283-2.55,0.285-4.732,0.008-7.283"/>
	<path style="&st1;" d="M22.047,14.106c-0.11-1.018-0.898-1.792-1.918-1.885"/>
	<path style="&st1;" d="M7.424,21.316c0.111,1.018,0.898,1.792,1.918,1.885"/>
	<path style="&st1;" d="M9.342,12.22c-1.021,0.093-1.809,0.868-1.92,1.887"/>
	<path style="&st1;" d="M7.424,14.106c-0.274,2.525-0.274,4.685,0,7.21"/>
	<path style="&st1;" d="M20.13,23.203c1.021-0.093,1.809-0.868,1.92-1.887"/>
	<path style="&st1;" d="M20.13,12.22c-3.782-0.346-7.005-0.346-10.788,0"/>
	<path style="&st1;" d="M9.342,23.203c3.782,0.346,7.005,0.346,10.788,0"/>
	<path style="&st0;" d="M2.526,22.104c0.285,1.964,1.234,3.538,2.837,4.707"/>
	<path style="&st0;" d="M13.708,28.398c2.419,0.039,4.463-0.038,6.873-0.259"/>
	<path style="&st0;" d="M20.58,28.141c3.313-0.302,5.889-2.745,6.367-6.037"/>
	<path style="&st0;" d="M28.971,16.647c0-0.673-0.278-1.247-0.805-1.665"/>
	<path style="&st0;" d="M27.946,20.591c0.657-0.396,1.026-1.051,1.026-1.818"/>
	<path style="&st0;" d="M13.708,28.398c-0.866-0.014-1.608,0.455-1.967,1.243"/>
	<path style="&st0;" d="M9.807,30.886c0.854,0,1.58-0.467,1.934-1.244"/>
	<path style="&st0;" d="M6.237,28.761c0,1.174,0.951,2.125,2.125,2.125"/>
	<path style="&st0;" d="M6.237,28.526c0-0.703-0.305-1.303-0.873-1.717"/>
	<path style="&st0;" d="M1.305,14.982C0.778,15.4,0.5,15.975,0.5,16.647"/>
	<path style="&st0;" d="M0.501,18.772c0,0.767,0.369,1.421,1.025,1.818"/>
	<path style="&st0;" d="M2.526,22.104c-0.095-0.651-0.438-1.169-1.001-1.511"/>
	<path style="&st0;" d="M27.946,20.591c-0.564,0.342-0.908,0.86-1.002,1.513"/>
	<path style="&st0;" d="M21.149,0.5c-4.498-0.396-8.329-0.396-12.827,0"/>
	<path style="&st0;" d="M8.322,0.5c-1.514,0.133-2.716,1.141-3.11,2.609"/>
	<path style="&st0;" d="M24.26,3.109c-0.394-1.468-1.596-2.477-3.111-2.609"/>
	<path style="&st0;" d="M1.305,14.982c0.624-0.494,1.016-1.09,1.222-1.859"/>
	<path style="&st0;" d="M26.943,13.124c0.206,0.769,0.599,1.366,1.223,1.86"/>
	<path style="&st1;" d="M27.555,16.647c0-0.391-0.317-0.708-0.708-0.708"/>
	<path style="&st1;" d="M26.847,19.48c0.391,0,0.708-0.317,0.708-0.708"/>
	<path style="&st1;" d="M2.625,15.939c-0.391,0-0.708,0.317-0.708,0.708"/>
	<path style="&st1;" d="M1.917,18.772c0,0.391,0.317,0.708,0.708,0.708"/>
	<path style="&st1;" d="M7.654,28.761c0,0.391,0.317,0.708,0.708,0.708"/>
	<path style="&st1;" d="M9.424,29.469c0.391,0,0.708-0.317,0.708-0.708"/>
	<path style="&st1;" d="M20.453,8.693c-4.009-0.367-7.425-0.367-11.433,0"/>
	<path style="&st1;" d="M25.569,13.724c-0.295-2.716-2.396-4.781-5.116-5.029"/>
	<path style="&st1;" d="M9.02,8.693c-2.721,0.249-4.823,2.315-5.118,5.031"/>
	<path style="&st1;" d="M6.107,9.826C6.654,9.41,6.946,8.823,6.946,8.135"/>
	<path style="&st1;" d="M22.526,8.135c0,0.688,0.291,1.275,0.838,1.691"/>
	<path style="&st1;" d="M19.251,3.194c-3.171-0.204-5.86-0.204-9.031,0"/>
	<path style="&st1;" d="M10.22,3.194c-0.45,0.028-0.797,0.398-0.797,0.85"/>
	<path style="&st1;" d="M20.047,4.044c0-0.45-0.346-0.819-0.796-0.848"/>
	<path style="&st1;" d="M11.903,6.52c0,0.469,0.38,0.85,0.85,0.85"/>
	<path style="&st1;" d="M16.719,7.37c0.469,0,0.85-0.381,0.85-0.85"/>
	<path style="&st1;" d="M17.569,6.52V5.6h-5.666v0.92"/>
	<g ewd:pinNo="1">
		<text transform="matrix(1 0 0 1 13.1426 19.5669)"><tspan x="0" y="0" style="&st3; &st2;">1</tspan></text>
	</g>
</g>
</svg>