<?xml version="1.0"?>
<!-- Generator: Adobe Illustrator 10.0, SVG Export Plug-In . SVG Version: 3.0.0 Build 77)  -->
<!DOCTYPE svg PUBLIC "-//W3C//DTD SVG 1.0//EN" "http://www.w3.org/TR/2001/REC-SVG-20010904/DTD/svg10.dtd"[
	<!ENTITY ns_flows "http://ns.adobe.com/Flows/1.0/">
	<!ENTITY ns_svg "http://www.w3.org/2000/svg">
	<!ENTITY ns_xlink "http://www.w3.org/1999/xlink">
	<!ENTITY st0 "fill:none;stroke:#000000;stroke-linecap:round;stroke-linejoin:round;">
	<!ENTITY st1 "fill:none;stroke:#000000;stroke-width:0.6;stroke-linecap:round;stroke-linejoin:round;">
	<!ENTITY st2 "font-size:6px;">
	<!ENTITY st3 "font-family:'Arial';">
	<!ATTLIST svg
		ewd:ver CDATA #IMPLIED
		xmlns:ewd CDATA #FIXED "http://shcl.co.jp/ewd"
		xmlns:a CDATA #FIXED "http://ns.adobe.com/AdobeSVGViewerExtensions/3.0/">
	<!ATTLIST g
		ewd:pinNo CDATA #IMPLIED>
]>
<svg width="38.96" height="66.723" viewBox="0 0 38.96 66.723" style="overflow:visible;enable-background:new 0 0 38.96 66.723" xml:space="preserve" onload="call_execInitLoadProc_svg('connector')" ewd:ver="2.1.2.9" xmlns="&ns_svg;" xmlns:ewd="http://shcl.co.jp/ewd" xmlns:a="http://ns.adobe.com/AdobeSVGViewerExtensions/3.0/" xmlns:xlink="&ns_xlink;">
<script type="text/javascript" xlink:href="../../../../../system/js/ewd/fig/svgfig.js"/>
<g id="レイヤー_1">
	<path style="&st1;" d="M35.627,32.228c1.977-6.271,1.977-12.142,0-18.414"/>
	<path style="&st1;" d="M3.333,13.814c-1.976,6.272-1.976,12.142,0,18.414"/>
	<path style="&st0;" d="M0.5,60.223c0,1.103,0.58,2.041,1.566,2.534"/>
	<path style="&st0;" d="M36.894,62.755c0.986-0.493,1.565-1.43,1.565-2.532"/>
	<path style="&st1;" d="M6.166,13.814c-1.977,6.272-1.977,12.142,0,18.414"/>
	<path style="&st1;" d="M32.794,32.228c1.977-6.271,1.977-12.142,0-18.414"/>
	<path style="&st1;" d="M8.999,13.814c-1.977,6.272-1.977,12.142,0,18.414"/>
	<path style="&st1;" d="M29.961,32.228c1.977-6.271,1.977-12.142,0-18.414"/>
	<path style="&st1;" d="M9.565,16.647v12.748h19.83V16.647H9.565"/>
	<path style="&st1;" d="M19.48,29.396V16.647"/>
	<path style="&st1;" d="M3.333,13.814h32.295"/>
	<path style="&st1;" d="M5.316,8.149v2.833h2.833V8.149H5.316"/>
	<path style="&st1;" d="M33.645,8.149v2.833h-2.833V8.149H33.645"/>
	<path style="&st0;" d="M8.999,66.223h20.963"/>
	<path style="&st0;" d="M13.814,5.883V0.5h11.332v5.383"/>
	<path style="&st0;" d="M4.658,1.917h7.173v3.966"/>
	<path style="&st0;" d="M27.129,5.883V1.917h7.173"/>
	<path style="&st0;" d="M37.134,5.883V0.5h-2.833v1.417"/>
	<path style="&st1;" d="M34.302,1.917v3.966h-7.173"/>
	<path style="&st0;" d="M27.129,5.883h-1.983"/>
	<path style="&st1;" d="M25.146,5.883H13.814"/>
	<path style="&st0;" d="M13.814,5.883h-1.983"/>
	<path style="&st1;" d="M11.832,5.883H4.658V1.917"/>
	<path style="&st0;" d="M4.658,1.917V0.5H1.826v5.383"/>
	<path style="&st0;" d="M1.826,5.883L0.5,15.231"/>
	<path style="&st0;" d="M37.134,5.883l1.326,9.349"/>
	<path style="&st0;" d="M38.46,15.231v44.991"/>
	<path style="&st0;" d="M0.5,60.223V15.231"/>
	<path style="&st0;" d="M2.066,62.755l6.932,3.468"/>
	<path style="&st0;" d="M29.961,66.223l6.932-3.468"/>
	<path style="&st1;" d="M12.398,29.396v2.833h5.099v1.983h3.966v-1.983h5.099v-2.833"/>
	<path style="&st1;" d="M3.333,32.228h5.666"/>
	<path style="&st1;" d="M29.961,32.228h5.666"/>
	<path style="&st1;" d="M0.5,34.211h7.082l4.816-4.816"/>
	<path style="&st1;" d="M38.46,34.211h-7.083l-4.816-4.816"/>
	<path style="&st1;" d="M0.902,12.398h5.83l1.417,1.416"/>
	<path style="&st1;" d="M38.058,12.398h-5.83l-1.417,1.416"/>
	<g ewd:pinNo="2">
		<text transform="matrix(1 0 0 1 22.8564 25.1904)"><tspan x="0" y="0" style="&st3; &st2;">2</tspan></text>
	</g>
	<g ewd:pinNo="1">
		<text transform="matrix(1 0 0 1 12.9414 25.1904)"><tspan x="0" y="0" style="&st3; &st2;">1</tspan></text>
	</g>
</g>
</svg>