<?xml version="1.0"?>
<!-- Generator: Adobe Illustrator 10.0, SVG Export Plug-In . SVG Version: 3.0.0 Build 77)  -->
<!DOCTYPE svg PUBLIC "-//W3C//DTD SVG 1.0//EN" "http://www.w3.org/TR/2001/REC-SVG-20010904/DTD/svg10.dtd"[
	<!ENTITY ns_flows "http://ns.adobe.com/Flows/1.0/">
	<!ENTITY ns_svg "http://www.w3.org/2000/svg">
	<!ENTITY ns_xlink "http://www.w3.org/1999/xlink">
	<!ENTITY st0 "fill:none;">
	<!ENTITY st1 "stroke:#000000;">
	<!ENTITY st2 "stroke-linecap:round;">
	<!ENTITY st3 "stroke-linejoin:round;">
	<!ENTITY st4 "stroke-width:0.6;">
	<!ENTITY st5 "font-size:6px;">
	<!ENTITY st6 "font-family:'Arial';">
	<!ENTITY st7 "stroke-width:1.4;">
	<!ATTLIST svg
		ewd:ver CDATA #IMPLIED
		xmlns:ewd CDATA #FIXED "http://shcl.co.jp/ewd"
		xmlns:a CDATA #FIXED "http://ns.adobe.com/AdobeSVGViewerExtensions/3.0/">
	<!ATTLIST g
		ewd:pinNo CDATA #IMPLIED>
]>
<svg width="367.478" height="105.116" viewBox="0 0 367.478 105.116" style="overflow:visible;enable-background:new 0 0 162.501 80.321" xml:space="preserve" onload="call_execInitLoadProc_svg('connector')" ewd:ver="2.1.2.9" xmlns="&ns_svg;" xmlns:ewd="http://shcl.co.jp/ewd" xmlns:a="http://ns.adobe.com/AdobeSVGViewerExtensions/3.0/" xmlns:xlink="&ns_xlink;">
<script type="text/javascript" xlink:href="../../../../../system/js/ewd/fig/svgfig.js"/>
<g id="レイヤー_1" transform="translate(0,17.008)">
	<path style="&st0;&st1;&st2;&st3;" d="M14.678,0.5C6.855,0.5,0.514,6.842,0.514,14.665"/>
	<path style="&st0;&st1;&st2;&st3;" d="M161.987,14.665c0-7.823-6.342-14.165-14.165-14.165"/>
	<path style="&st0;&st1;&st2;&st3;" d="M6.458,78.299c1.491,1.037,3.037,1.522,4.853,1.522"/>
	<path style="&st0;&st1;&st2;&st3;" d="M151.191,79.82c1.816,0,3.362-0.485,4.853-1.521"/>
	<path style="&st0;&st1;&st4;&st2;&st3;" d="M0.514,38.744H6.18"/>
	<path style="&st0;&st1;&st4;&st2;&st3;" d="M156.321,55.741h5.666"/>
	<path style="&st0;&st1;&st4;&st2;&st3;" d="M156.321,38.744h5.666"/>
	<path style="&st0;&st1;&st4;&st2;&st3;" d="M21.761,50.075V34.495H6.18v15.581h150.142V34.495h-15.581v15.581"/>
	<path style="&st0;&st1;&st4;&st2;&st3;" d="M140.741,37.327H21.761"/>
	<path style="&st0;&st1;&st4;&st2;&st3;" d="M31.676,37.327v25.496"/>
	<path style="&st0;&st1;&st4;&st2;&st3;" d="M41.591,37.327v25.496"/>
	<path style="&st0;&st1;&st4;&st2;&st3;" d="M51.505,37.327v25.496"/>
	<path style="&st0;&st1;&st4;&st2;&st3;" d="M61.42,37.327v12.748"/>
	<path style="&st0;&st1;&st4;&st2;&st3;" d="M71.335,37.327v12.748"/>
	<path style="&st0;&st1;&st4;&st2;&st3;" d="M81.25,37.327v25.496"/>
	<path style="&st0;&st1;&st4;&st2;&st3;" d="M91.166,37.327v12.748"/>
	<path style="&st0;&st1;&st4;&st2;&st3;" d="M101.081,37.327v12.748"/>
	<path style="&st0;&st1;&st4;&st2;&st3;" d="M110.996,37.327v25.496"/>
	<path style="&st0;&st1;&st4;&st2;&st3;" d="M120.911,62.823V37.327"/>
	<path style="&st0;&st1;&st4;&st2;&st3;" d="M130.826,37.327v25.496"/>
	<path style="&st0;&st1;&st4;&st2;&st3;" d="M6.18,50.075v15.581h15.581V50.075"/>
	<path style="&st0;&st1;&st4;&st2;&st3;" d="M156.321,50.075v15.581h-15.581V50.075"/>
	<path style="&st0;&st1;&st4;&st2;&st3;" d="M21.761,62.823h39.66V50.075"/>
	<path style="&st0;&st1;&st4;&st2;&st3;" d="M71.335,50.075v12.748h19.83V50.075"/>
	<path style="&st0;&st1;&st4;&st2;&st3;" d="M101.081,50.075v12.748h39.66"/>
	<path style="&st0;&st1;&st4;&st2;&st3;" d="M0.514,25.996H6.18"/>
	<path style="&st0;&st1;&st4;&st2;&st3;" d="M156.321,25.996h5.666"/>
	<path style="&st0;&st1;&st4;&st2;&st3;" d="M0.514,23.163H6.18v8.499"/>
	<path style="&st0;&st1;&st4;&st2;&st3;" d="M161.987,23.163h-5.666v8.499"/>
	<path style="&st0;&st1;&st2;&st3;" d="M162.001,74.155l-5.958,4.144"/>
	<path style="&st0;&st1;&st2;&st3;" d="M0.5,74.155l5.958,4.144"/>
	<path style="&st0;&st1;&st2;&st3;" d="M11.31,79.82h139.881"/>
	<path style="&st0;&st1;&st4;&st2;&st3;" d="M0.514,69.905h161.473"/>
	<path style="&st0;&st1;&st4;&st2;&st3;" d="M1.93,58.574v7.083h2.833v-7.083H1.93"/>
	<path style="&st0;&st1;&st4;&st2;&st3;" d="M157.738,58.574v7.083h2.833v-7.083H157.738"/>
	<path style="&st0;&st1;&st4;&st2;&st3;" d="M6.888,69.905v4.25"/>
	<path style="&st0;&st1;&st4;&st2;&st3;" d="M155.613,69.905v4.25"/>
	<path style="&st0;&st1;&st4;&st2;&st3;" d="M55.047,31.662h12.748"/>
	<path style="&st0;&st1;&st4;&st2;&st3;" d="M67.794,31.662V13.248"/>
	<path style="&st0;&st1;&st2;&st3;" d="M14.678,0.5h133.145"/>
	<path style="&st0;&st1;&st4;&st2;&st3;" d="M6.18,31.662h43.201"/>
	<path style="&st0;&st1;&st4;&st2;&st3;" d="M94.707,13.248v18.414"/>
	<path style="&st0;&st1;&st2;&st3;" d="M0.514,14.665v59.49"/>
	<path style="&st0;&st1;&st2;&st3;" d="M161.987,14.665v59.49"/>
	<path style="&st0;&st1;&st4;&st2;&st3;" d="M67.794,18.914h26.912"/>
	<path style="&st0;&st1;&st4;&st2;&st3;" d="M94.707,31.662h12.748"/>
	<path style="&st0;&st1;&st4;&st2;&st3;" d="M68.503,74.155h25.496"/>
	<path style="&st0;&st1;&st4;&st2;&st3;" d="M63.545,13.248h35.411"/>
	<path style="&st0;&st1;&st4;&st2;&st3;" d="M67.794,21.747h-4.249V8.999h35.411v12.748h-4.25"/>
	<path style="&st0;&st1;&st4;&st2;&st3;" d="M49.381,31.662V16.081h5.666v15.581"/>
	<path style="&st0;&st1;&st4;&st2;&st3;" d="M107.455,31.662V16.081h5.666v15.581"/>
	<path style="&st0;&st1;&st4;&st2;&st3;" d="M73.46,13.248v-1.417h15.581v1.417"/>
	<path style="&st0;&st1;&st4;&st2;&st3;" d="M67.794,16.081h5.666v-2.833"/>
	<path style="&st0;&st1;&st4;&st2;&st3;" d="M107.455,18.914h5.666"/>
	<path style="&st0;&st1;&st4;&st2;&st3;" d="M49.381,18.914h5.666"/>
	<path style="&st0;&st1;&st4;&st2;&st3;" d="M89.041,13.248v2.833h5.666"/>
	<path style="&st0;&st1;&st4;&st2;&st3;" d="M55.047,16.081V6.166h52.408v9.915"/>
	<path style="&st0;&st1;&st4;&st2;&st3;" d="M64.253,74.155V52.908h4.25v21.247"/>
	<path style="&st0;&st1;&st4;&st2;&st3;" d="M93.999,74.155V52.908h4.249v21.247"/>
	<path style="&st0;&st1;&st4;&st2;&st3;" d="M0.514,74.155h63.739"/>
	<path style="&st0;&st1;&st4;&st2;&st3;" d="M98.248,74.155h63.74"/>
	<path style="&st0;&st1;&st4;&st2;&st3;" d="M0.514,55.741H6.18"/>
	<path style="&st0;&st1;&st4;&st2;&st3;" d="M113.12,31.662h43.201"/>
	<g ewd:pinNo="1">
		<text transform="matrix(1 0 0 1 12.2266 44.4272)"><tspan x="0" y="0" style="&st6; &st5;">1</tspan></text>
	</g>
	<g ewd:pinNo="2">
		<text transform="matrix(1 0 0 1 24.9741 45.8438)"><tspan x="0" y="0" style="&st6; &st5;">2</tspan></text>
	</g>
	<g ewd:pinNo="3">
		<text transform="matrix(1 0 0 1 34.8892 45.8438)"><tspan x="0" y="0" style="&st6; &st5;">3</tspan></text>
	</g>
	<g ewd:pinNo="4">
		<text transform="matrix(1 0 0 1 44.8042 45.8438)"><tspan x="0" y="0" style="&st6; &st5;">4</tspan></text>
	</g>
	<g ewd:pinNo="5">
		<text transform="matrix(1 0 0 1 54.7192 45.8438)"><tspan x="0" y="0" style="&st6; &st5;">5</tspan></text>
	</g>
	<g ewd:pinNo="6">
		<text transform="matrix(1 0 0 1 64.6343 45.8438)"><tspan x="0" y="0" style="&st6; &st5;">6</tspan></text>
	</g>
	<g ewd:pinNo="7">
		<text transform="matrix(1 0 0 1 74.5493 45.8438)"><tspan x="0" y="0" style="&st6; &st5;">7</tspan></text>
	</g>
	<g ewd:pinNo="8">
		<text transform="matrix(1 0 0 1 84.4644 45.8438)"><tspan x="0" y="0" style="&st6; &st5;">8</tspan></text>
	</g>
	<g ewd:pinNo="9">
		<text transform="matrix(1 0 0 1 94.3794 45.8438)"><tspan x="0" y="0" style="&st6; &st5;">9</tspan></text>
	</g>
	<g ewd:pinNo="10">
		<text transform="matrix(1 0 0 1 102.3672 45.8438)"><tspan x="0" y="0" style="&st6; &st5;">10</tspan></text>
	</g>
	<g ewd:pinNo="11">
		<text transform="matrix(1 0 0 1 112.5049 45.8438)"><tspan x="0" y="0" style="&st6; &st5;">11</tspan></text>
	</g>
	<g ewd:pinNo="12">
		<text transform="matrix(1 0 0 1 122.1973 45.8438)"><tspan x="0" y="0" style="&st6; &st5;">12</tspan></text>
	</g>
	<g ewd:pinNo="13">
		<text transform="matrix(1 0 0 1 132.1123 45.8438)"><tspan x="0" y="0" style="&st6; &st5;">13</tspan></text>
	</g>
	<g ewd:pinNo="14">
		<text transform="matrix(1 0 0 1 144.8604 44.4272)"><tspan x="0" y="0" style="&st6; &st5;">14</tspan></text>
	</g>
	<g ewd:pinNo="26">
		<text transform="matrix(1 0 0 1 145.2134 60.0083)"><tspan x="0" y="0" style="&st6; &st5;">26</tspan></text>
	</g>
	<g ewd:pinNo="25">
		<text transform="matrix(1 0 0 1 132.4653 58.5918)"><tspan x="0" y="0" style="&st6; &st5;">25</tspan></text>
	</g>
	<g ewd:pinNo="24">
		<text transform="matrix(1 0 0 1 122.5503 58.5918)"><tspan x="0" y="0" style="&st6; &st5;">24</tspan></text>
	</g>
	<g ewd:pinNo="23">
		<text transform="matrix(1 0 0 1 112.6353 58.5918)"><tspan x="0" y="0" style="&st6; &st5;">23</tspan></text>
	</g>
	<g ewd:pinNo="22">
		<text transform="matrix(1 0 0 1 102.7202 58.5918)"><tspan x="0" y="0" style="&st6; &st5;">22</tspan></text>
	</g>
	<g ewd:pinNo="21">
		<text transform="matrix(1 0 0 1 82.8901 58.5918)"><tspan x="0" y="0" style="&st6; &st5;">21</tspan></text>
	</g>
	<g ewd:pinNo="20">
		<text transform="matrix(1 0 0 1 72.9756 58.5918)"><tspan x="0" y="0" style="&st6; &st5;">20</tspan></text>
	</g>
	<g ewd:pinNo="19">
		<text transform="matrix(1 0 0 1 52.8003 58.5918)"><tspan x="0" y="0" style="&st6; &st5;">19</tspan></text>
	</g>
	<g ewd:pinNo="18">
		<text transform="matrix(1 0 0 1 42.8774 58.5918)"><tspan x="0" y="0" style="&st6; &st5;">18</tspan></text>
	</g>
	<g ewd:pinNo="17">
		<text transform="matrix(1 0 0 1 32.9624 58.5918)"><tspan x="0" y="0" style="&st6; &st5;">17</tspan></text>
	</g>
	<g ewd:pinNo="16">
		<text transform="matrix(1 0 0 1 23.0474 58.5918)"><tspan x="0" y="0" style="&st6; &st5;">16</tspan></text>
	</g>
	<g ewd:pinNo="15">
		<text transform="matrix(1 0 0 1 10.2993 60.0083)"><tspan x="0" y="0" style="&st6; &st5;">15</tspan></text>
	</g>
</g>
<g id="レイヤー_1" transform="translate(182.342,17.008)">
	<path style="&st0;&st1;&st4;&st2;&st3;" d="M101.066,76.279c0,1.564,1.269,2.833,2.833,2.833"/>
	<path style="&st0;&st1;&st4;&st2;&st3;" d="M81.236,79.112c1.564,0,2.833-1.269,2.833-2.833"/>
	<path style="&st0;&st1;&st4;&st2;&st3;" d="M124.438,80.528c0-0.782-0.634-1.416-1.417-1.416"/>
	<path style="&st0;&st1;&st4;&st2;&st3;" d="M62.115,79.112c-0.782,0-1.417,0.634-1.417,1.416"/>
	<path style="&st0;&st1;&st4;&st2;&st3;" d="M124.438,86.194c0,0.782,0.634,1.416,1.417,1.416"/>
	<path style="&st0;&st1;&st4;&st2;&st3;" d="M59.282,87.61c0.782,0,1.417-0.634,1.417-1.416"/>
	<path style="&st0;&st1;&st2;&st3;" d="M137.894,87.61c2.347,0,4.25-1.902,4.25-4.249"/>
	<path style="&st0;&st1;&st2;&st3;" d="M0.5,66.364c0,4.693,3.805,8.499,8.499,8.499"/>
	<path style="&st0;&st1;&st2;&st3;" d="M42.993,83.361c0,2.347,1.903,4.249,4.25,4.249"/>
	<path style="&st0;&st1;&st2;&st3;" d="M8.999,6.166c-4.694,0-8.499,3.805-8.499,8.499"/>
	<path style="&st0;&st1;&st2;&st3;" d="M176.137,74.863c4.694,0,8.499-3.805,8.499-8.499"/>
	<path style="&st0;&st1;&st2;&st3;" d="M184.636,14.665c0-4.694-3.805-8.499-8.499-8.499"/>
	<path style="&st0;&st1;&st4;&st2;&st3;" d="M33.078,45.826V30.245H17.497v15.581h150.142V30.245h-15.581v15.581"/>
	<path style="&st0;&st1;&st4;&st2;&st3;" d="M152.058,33.078H33.078"/>
	<path style="&st0;&st1;&st4;&st2;&st3;" d="M42.993,33.078v25.496"/>
	<path style="&st0;&st1;&st4;&st2;&st3;" d="M52.908,33.078v25.496"/>
	<path style="&st0;&st1;&st4;&st2;&st3;" d="M62.823,33.078v25.496"/>
	<path style="&st0;&st1;&st4;&st2;&st3;" d="M72.738,33.078v12.748"/>
	<path style="&st0;&st1;&st4;&st2;&st3;" d="M82.653,33.078v12.748"/>
	<path style="&st0;&st1;&st4;&st2;&st3;" d="M92.568,33.078v25.496"/>
	<path style="&st0;&st1;&st4;&st2;&st3;" d="M102.483,33.078v12.748"/>
	<path style="&st0;&st1;&st4;&st2;&st3;" d="M112.398,33.078v12.748"/>
	<path style="&st0;&st1;&st4;&st2;&st3;" d="M122.313,33.078v25.496"/>
	<path style="&st0;&st1;&st4;&st2;&st3;" d="M132.228,58.574V33.078"/>
	<path style="&st0;&st1;&st4;&st2;&st3;" d="M142.143,33.078v25.496"/>
	<path style="&st0;&st1;&st4;&st2;&st3;" d="M17.497,45.826v15.581h15.581V45.826"/>
	<path style="&st0;&st1;&st4;&st2;&st3;" d="M167.639,45.826v15.581h-15.581V45.826"/>
	<path style="&st0;&st1;&st4;&st2;&st3;" d="M33.078,58.574h39.66V45.826"/>
	<path style="&st0;&st1;&st4;&st2;&st3;" d="M82.653,45.826v12.748h19.83V45.826"/>
	<path style="&st0;&st1;&st4;&st2;&st3;" d="M112.398,45.826v12.748h39.66"/>
	<path style="&st0;&st1;&st4;&st2;&st3;" d="M130.812,64.239h-18.414v6.374"/>
	<path style="&st0;&st1;&st4;&st2;&st3;" d="M54.324,64.239h18.414v6.374"/>
	<path style="&st0;&st1;&st4;&st2;&st3;" d="M25.288,67.781l5.666,2.833h44.618"/>
	<path style="&st0;&st1;&st4;&st2;&st3;" d="M133.645,64.239v6.374"/>
	<path style="&st0;&st1;&st4;&st2;&st3;" d="M130.812,64.239v6.374"/>
	<path style="&st0;&st1;&st4;&st2;&st3;" d="M54.324,64.239v6.374"/>
	<path style="&st0;&st1;&st4;&st2;&st3;" d="M51.491,64.239v6.374"/>
	<path style="&st0;&st1;&st4;&st2;&st3;" d="M36.619,20.33h14.872v-7.082H36.619"/>
	<path style="&st0;&st1;&st4;&st2;&st3;" d="M33.786,13.248H18.914"/>
	<path style="&st0;&st1;&st4;&st2;&st3;" d="M148.517,13.248h-14.872"/>
	<path style="&st0;&st1;&st4;&st2;&st3;" d="M133.645,13.248v7.082h14.872"/>
	<path style="&st0;&st1;&st4;&st2;&st3;" d="M36.619,13.248v7.082"/>
	<path style="&st0;&st1;&st4;&st2;&st3;" d="M33.786,13.248v7.082"/>
	<path style="&st0;&st1;&st4;&st2;&st3;" d="M6.166,16.081v51.7"/>
	<path style="&st0;&st1;&st2;&st3;" d="M184.636,14.665v51.7"/>
	<path style="&st0;&st1;&st4;&st2;&st3;" d="M69.905,24.58h-5.666"/>
	<path style="&st0;&st1;&st2;&st3;" d="M0.5,14.665v51.7"/>
	<path style="&st0;&st1;&st4;&st2;&st3;" d="M6.166,16.081h8.499v8.499"/>
	<path style="&st0;&st1;&st4;&st2;&st3;" d="M178.97,16.081h-8.499v8.499"/>
	<path style="&st0;&st1;&st4;&st2;&st3;" d="M151.35,13.248v7.082"/>
	<path style="&st0;&st1;&st4;&st2;&st3;" d="M148.517,13.248v7.082"/>
	<path style="&st0;&st1;&st4;&st2;&st3;" d="M75.571,70.613V48.659h4.249v21.955"/>
	<path style="&st0;&st1;&st2;&st3;" d="M142.143,74.863h33.994"/>
	<path style="&st0;&st1;&st2;&st3;" d="M8.999,74.863h33.994"/>
	<path style="&st0;&st1;&st4;&st2;&st3;" d="M105.316,70.613V48.659h4.249v21.955"/>
	<path style="&st0;&st1;&st4;&st2;&st3;" d="M79.82,70.613h25.496"/>
	<path style="&st0;&st1;&st4;&st2;&st3;" d="M178.97,16.081v51.7"/>
	<path style="&st0;&st1;&st4;&st2;&st3;" d="M6.166,47.951h5.666v16.289H6.166"/>
	<path style="&st0;&st1;&st4;&st2;&st3;" d="M6.166,27.413h5.666v16.289H6.166"/>
	<path style="&st0;&st1;&st4;&st2;&st3;" d="M178.97,47.951h-5.666v16.289h5.666"/>
	<path style="&st0;&st1;&st4;&st2;&st3;" d="M178.97,27.413h-5.666v16.289h5.666"/>
	<path style="&st0;&st1;&st4;&st2;&st3;" d="M124.438,80.528v5.666"/>
	<path style="&st0;&st1;&st4;&st2;&st3;" d="M69.905,24.58V10.416h45.326V24.58"/>
	<path style="&st0;&st1;&st2;&st3;" d="M8.999,6.166H47.95"/>
	<path style="&st0;&st1;&st2;&st3;" d="M142.143,74.863v8.499"/>
	<path style="&st0;&st1;&st2;&st3;" d="M137.894,87.61h-12.04"/>
	<path style="&st0;&st1;&st2;&st3;" d="M47.242,87.61h9.207"/>
	<path style="&st0;&st1;&st2;&st3;" d="M42.993,74.863v8.499"/>
	<path style="&st0;&st1;&st4;&st2;&st3;" d="M18.914,13.248v7.082h14.873"/>
	<path style="&st0;&st1;&st4;&st2;&st3;" d="M151.35,20.33h14.873v-7.082H151.35"/>
	<path style="&st0;&st1;&st4;&st2;&st3;" d="M69.905,14.665h45.326"/>
	<path style="&st0;&st1;&st4;&st2;&st3;" d="M84.069,14.665v4.25h16.997v-4.25"/>
	<path style="&st0;&st1;&st4;&st2;&st3;" d="M6.166,67.781h19.122"/>
	<path style="&st0;&st1;&st4;&st2;&st3;" d="M79.112,23.163v5.666h26.912v-5.666H79.112"/>
	<path style="&st0;&st1;&st4;&st2;&st3;" d="M161.265,67.781h17.706"/>
	<path style="&st0;&st1;&st2;&st3;" d="M47.95,6.166L53.616,0.5h77.903l5.666,5.666"/>
	<path style="&st0;&st1;&st4;&st2;&st3;" d="M84.069,74.863v1.417"/>
	<path style="&st0;&st1;&st4;&st2;&st3;" d="M101.066,74.863v1.417"/>
	<path style="&st0;&st1;&st4;&st2;&st3;" d="M109.565,70.613h46.034l5.666-2.833"/>
	<path style="&st0;&st1;&st4;&st2;&st3;" d="M167.639,67.781v-3.542h-33.994"/>
	<path style="&st0;&st1;&st4;&st2;&st3;" d="M62.115,79.112h19.122"/>
	<path style="&st0;&st1;&st2;&st3;" d="M137.186,6.166h38.952"/>
	<path style="&st0;&st1;&st4;&st2;&st3;" d="M103.899,79.112h19.122"/>
	<path style="&st0;&st1;&st4;&st2;&st3;" d="M17.497,67.781v-3.542h33.994"/>
	<path style="&st0;&st1;&st4;&st2;&st3;" d="M89.027,83.361h7.082"/>
	<path style="&st0;&st1;&st4;&st2;&st3;" d="M89.027,81.945v2.833h7.082v-2.833"/>
	<path style="&st0;&st1;&st4;&st2;&st3;" d="M129.395,24.58V6.166h-8.499V24.58"/>
	<path style="&st0;&st1;&st4;&st2;&st3;" d="M55.741,24.58V6.166h8.499V24.58"/>
	<path style="&st0;&st1;&st4;&st2;&st3;" d="M120.896,24.58h-5.666"/>
	<path style="&st0;&st1;&st4;&st2;&st3;" d="M170.472,24.58h-41.077"/>
	<path style="&st0;&st1;&st4;&st2;&st3;" d="M55.741,24.58H14.664"/>
	<path style="&st0;&st1;&st4;&st2;&st3;" d="M60.942,81.945h63.252"/>
	<path style="&st0;&st1;&st4;&st2;&st3;" d="M60.698,80.528v5.666"/>
	<path style="&st0;&st1;&st2;&st3;" d="M56.449,87.61h72.238"/>
	<path style="&st0;&st1;&st4;&st2;&st3;" d="M86.902,77.696v4.249"/>
	<path style="&st0;&st1;&st4;&st2;&st3;" d="M86.902,77.696h11.331"/>
	<path style="&st0;&st1;&st4;&st2;&st3;" d="M98.233,77.696v4.249"/>
	<path style="&st0;&st1;&st4;&st2;&st3;" d="M47.242,74.863h90.651"/>
	<path style="&st0;&st1;&st4;&st2;&st3;" d="M82.653,70.613v-6.374h19.83v6.374"/>
	<g ewd:pinNo="14">
		<text transform="matrix(1 0 0 1 21.6401 40.1401)"><tspan x="0" y="0" style="&st6; &st5;">14</tspan></text>
	</g>
	<g ewd:pinNo="13">
		<text transform="matrix(1 0 0 1 34.3882 41.5566)"><tspan x="0" y="0" style="&st6; &st5;">13</tspan></text>
	</g>
	<g ewd:pinNo="12">
		<text transform="matrix(1 0 0 1 44.3032 41.5566)"><tspan x="0" y="0" style="&st6; &st5;">12</tspan></text>
	</g>
	<g ewd:pinNo="11">
		<text transform="matrix(1 0 0 1 54.7373 41.5566)"><tspan x="0" y="0" style="&st6; &st5;">11</tspan></text>
	</g>
	<g ewd:pinNo="10">
		<text transform="matrix(1 0 0 1 64.1328 41.5566)"><tspan x="0" y="0" style="&st6; &st5;">10</tspan></text>
	</g>
	<g ewd:pinNo="9">
		<text transform="matrix(1 0 0 1 75.9058 41.5566)"><tspan x="0" y="0" style="&st6; &st5;">9</tspan></text>
	</g>
	<g ewd:pinNo="8">
		<text transform="matrix(1 0 0 1 85.8208 41.5566)"><tspan x="0" y="0" style="&st6; &st5;">8</tspan></text>
	</g>
	<g ewd:pinNo="7">
		<text transform="matrix(1 0 0 1 95.7358 41.5566)"><tspan x="0" y="0" style="&st6; &st5;">7</tspan></text>
	</g>
	<g ewd:pinNo="6">
		<text transform="matrix(1 0 0 1 105.6504 41.5566)"><tspan x="0" y="0" style="&st6; &st5;">6</tspan></text>
	</g>
	<g ewd:pinNo="5">
		<text transform="matrix(1 0 0 1 115.5659 41.5566)"><tspan x="0" y="0" style="&st6; &st5;">5</tspan></text>
	</g>
	<g ewd:pinNo="4">
		<text transform="matrix(1 0 0 1 125.4805 41.5566)"><tspan x="0" y="0" style="&st6; &st5;">4</tspan></text>
	</g>
	<g ewd:pinNo="3">
		<text transform="matrix(1 0 0 1 135.3955 41.5566)"><tspan x="0" y="0" style="&st6; &st5;">3</tspan></text>
	</g>
	<g ewd:pinNo="2">
		<text transform="matrix(1 0 0 1 145.3105 41.5566)"><tspan x="0" y="0" style="&st6; &st5;">2</tspan></text>
	</g>
	<g ewd:pinNo="1">
		<text transform="matrix(1 0 0 1 158.0586 40.1401)"><tspan x="0" y="0" style="&st6; &st5;">1</tspan></text>
	</g>
	<g ewd:pinNo="16">
		<text transform="matrix(1 0 0 1 143.4531 54.3042)"><tspan x="0" y="0" style="&st6; &st5;">16</tspan></text>
	</g>
	<g ewd:pinNo="17">
		<text transform="matrix(1 0 0 1 133.5381 54.3042)"><tspan x="0" y="0" style="&st6; &st5;">17</tspan></text>
	</g>
	<g ewd:pinNo="18">
		<text transform="matrix(1 0 0 1 123.623 54.3042)"><tspan x="0" y="0" style="&st6; &st5;">18</tspan></text>
	</g>
	<g ewd:pinNo="19">
		<text transform="matrix(1 0 0 1 113.708 54.3042)"><tspan x="0" y="0" style="&st6; &st5;">19</tspan></text>
	</g>
	<g ewd:pinNo="20">
		<text transform="matrix(1 0 0 1 94.0889 54.3042)"><tspan x="0" y="0" style="&st6; &st5;">20</tspan></text>
	</g>
	<g ewd:pinNo="21">
		<text transform="matrix(1 0 0 1 84.1738 54.3042)"><tspan x="0" y="0" style="&st6; &st5;">21</tspan></text>
	</g>
	<g ewd:pinNo="22">
		<text transform="matrix(1 0 0 1 64.3438 54.3042)"><tspan x="0" y="0" style="&st6; &st5;">22</tspan></text>
	</g>
	<g ewd:pinNo="23">
		<text transform="matrix(1 0 0 1 54.4287 54.3042)"><tspan x="0" y="0" style="&st6; &st5;">23</tspan></text>
	</g>
	<g ewd:pinNo="24">
		<text transform="matrix(1 0 0 1 44.5142 54.3042)"><tspan x="0" y="0" style="&st6; &st5;">24</tspan></text>
	</g>
	<g ewd:pinNo="25">
		<text transform="matrix(1 0 0 1 34.5991 54.3042)"><tspan x="0" y="0" style="&st6; &st5;">25</tspan></text>
	</g>
	<g ewd:pinNo="26">
		<text transform="matrix(1 0 0 1 21.8511 55.7207)"><tspan x="0" y="0" style="&st6; &st5;">26</tspan></text>
	</g>
	<g ewd:pinNo="15">
		<text transform="matrix(1 0 0 1 156.2007 55.7207)"><tspan x="0" y="0" style="&st6; &st5;">15</tspan></text>
	</g>
</g>
<path d="M81.2505,9.069v-8.504h193.6595v8.504" style="&st0;&st1;&st7;&st2;&st3;"/>
</svg>