<?xml version="1.0"?>
<!-- Generator: Adobe Illustrator 10.0, SVG Export Plug-In . SVG Version: 3.0.0 Build 77)  -->
<!DOCTYPE svg PUBLIC "-//W3C//DTD SVG 1.0//EN" "http://www.w3.org/TR/2001/REC-SVG-20010904/DTD/svg10.dtd"[
	<!ENTITY ns_flows "http://ns.adobe.com/Flows/1.0/">
	<!ENTITY ns_svg "http://www.w3.org/2000/svg">
	<!ENTITY ns_xlink "http://www.w3.org/1999/xlink">
	<!ENTITY st0 "fill:none;stroke:#000000;stroke-linecap:round;stroke-linejoin:round;">
	<!ENTITY st1 "fill:none;stroke:#000000;stroke-width:0.6;stroke-linecap:round;stroke-linejoin:round;">
	<!ENTITY st2 "font-size:6px;">
	<!ENTITY st3 "font-family:'Arial';">
	<!ATTLIST svg
		ewd:ver CDATA #IMPLIED
		xmlns:ewd CDATA #FIXED "http://shcl.co.jp/ewd"
		xmlns:a CDATA #FIXED "http://ns.adobe.com/AdobeSVGViewerExtensions/3.0/">
	<!ATTLIST g
		ewd:pinNo CDATA #IMPLIED>
]>
<svg width="57.526" height="36.513" viewBox="0 0 57.526 36.513" style="overflow:visible;enable-background:new 0 0 57.526 36.513" xml:space="preserve" onload="call_execInitLoadProc_svg('connector')" ewd:ver="2.1.2.9" xmlns="&ns_svg;" xmlns:ewd="http://shcl.co.jp/ewd" xmlns:a="http://ns.adobe.com/AdobeSVGViewerExtensions/3.0/" xmlns:xlink="&ns_xlink;">
<script type="text/javascript" xlink:href="../../../../../system/js/ewd/fig/svgfig.js"/>
<g id="レイヤー_1">
	<path style="&st1;" d="M12.531,13.302h32.578"/>
	<path style="&st1;" d="M35.193,13.302v11.332"/>
	<path style="&st1;" d="M22.446,13.302v11.332"/>
	<path style="&st1;" d="M46.729,24.633H10.907"/>
	<path style="&st1;" d="M47.941,16.135v7.686"/>
	<path style="&st1;" d="M9.698,23.82v-7.686"/>
	<path style="&st1;" d="M15.363,5.783v2.15"/>
	<path style="&st1;" d="M42.276,5.783v2.15"/>
	<path style="&st1;" d="M15.363,30.001v2.15"/>
	<path style="&st1;" d="M42.276,30.001v2.15"/>
	<path style="&st0;" d="M10.361,5.968l4.385-4.389"/>
	<path style="&st0;" d="M43.355,34.285l1.901-1.901"/>
	<path style="&st0;" d="M42.891,1.579l4.385,4.389"/>
	<path style="&st0;" d="M12.38,32.384l1.901,1.901"/>
	<path style="&st1;" d="M32.361,3.452v1.419"/>
	<path style="&st1;" d="M25.278,3.452v1.419"/>
	<path style="&st1;" d="M45.001,12.707c-11.245-2.144-21.121-2.144-32.365,0"/>
	<path style="&st1;" d="M12.635,12.707c-3.458,0.659-5.727,3.996-5.068,7.453"/>
	<path style="&st1;" d="M7.567,20.16c0.501,2.629,2.439,4.567,5.068,5.068"/>
	<path style="&st1;" d="M12.635,25.228c11.245,2.144,21.121,2.145,32.366,0"/>
	<path style="&st1;" d="M45.001,25.228c3.458-0.659,5.727-3.996,5.068-7.453"/>
	<path style="&st1;" d="M50.069,17.775c-0.501-2.629-2.439-4.567-5.068-5.068"/>
	<path style="&st1;" d="M47.941,16.135c0-1.565-1.269-2.833-2.833-2.833"/>
	<path style="&st1;" d="M12.531,13.302c-1.564,0-2.833,1.268-2.833,2.833"/>
	<path style="&st1;" d="M12.236,27.316c11.522,2.197,21.643,2.197,33.165,0"/>
	<path style="&st1;" d="M45.4,27.316c4.611-0.879,7.636-5.33,6.756-9.94"/>
	<path style="&st1;" d="M52.157,17.375c-0.668-3.504-3.252-6.088-6.756-6.756"/>
	<path style="&st1;" d="M45.4,10.619c-11.522-2.197-21.643-2.197-33.164,0"/>
	<path style="&st1;" d="M12.236,10.619c-4.61,0.879-7.636,5.33-6.756,9.94"/>
	<path style="&st1;" d="M5.479,20.56c0.668,3.504,3.252,6.088,6.756,6.756"/>
	<path style="&st1;" d="M45.797,8.531c-11.797-2.249-22.16-2.249-33.958,0"/>
	<path style="&st1;" d="M11.839,8.531c-5.764,1.098-9.546,6.661-8.447,12.425"/>
	<path style="&st1;" d="M3.392,20.956c0.834,4.382,4.065,7.613,8.447,8.448"/>
	<path style="&st1;" d="M11.839,29.404c11.797,2.25,22.16,2.25,33.958,0"/>
	<path style="&st1;" d="M45.797,29.404c5.764-1.098,9.546-6.661,8.448-12.425"/>
	<path style="&st1;" d="M54.245,16.979c-0.835-4.382-4.066-7.612-8.448-8.447"/>
	<path style="&st1;" d="M15.363,32.151c9.396,1.377,17.517,1.377,26.913,0"/>
	<path style="&st1;" d="M42.276,5.783c-9.396-1.377-17.517-1.377-26.913,0"/>
	<path style="&st0;" d="M46.33,32.186c7.3-1.393,12.089-8.439,10.697-15.739"/>
	<path style="&st0;" d="M57.026,16.446c-0.994-5.213-4.623-9.113-9.75-10.48"/>
	<path style="&st0;" d="M10.361,5.968c-7.18,1.915-11.448,9.288-9.533,16.467"/>
	<path style="&st0;" d="M0.828,22.435c1.368,5.126,5.267,8.754,10.479,9.749"/>
	<path style="&st1;" d="M44.59,3.279c-10.989-1.838-20.555-1.838-31.544,0"/>
	<path style="&st0;" d="M42.891,1.579C33.065,0.14,24.571,0.14,14.746,1.58"/>
	<path style="&st0;" d="M15.902,35.089c9.027,1.231,16.806,1.231,25.833,0"/>
	<path style="&st0;" d="M11.307,32.186c0.377,0.072,0.696,0.131,1.074,0.198"/>
	<path style="&st0;" d="M45.256,32.384c0.378-0.067,0.697-0.126,1.074-0.198"/>
	<path style="&st1;" d="M32.361,3.452c-2.49-0.094-4.595-0.094-7.085,0"/>
	<path style="&st0;" d="M14.281,34.285c0.458,0.458,0.979,0.716,1.621,0.804"/>
	<path style="&st0;" d="M41.734,35.089c0.642-0.087,1.163-0.346,1.621-0.804"/>
	<g ewd:pinNo="3">
		<text transform="matrix(1 0 0 1 14.5264 21.0249)"><tspan x="0" y="0" style="&st3; &st2;">3</tspan></text>
	</g>
	<g ewd:pinNo="2">
		<text transform="matrix(1 0 0 1 27.2744 21.0249)"><tspan x="0" y="0" style="&st3; &st2;">2</tspan></text>
	</g>
	<g ewd:pinNo="1">
		<text transform="matrix(1 0 0 1 40.0225 21.0249)"><tspan x="0" y="0" style="&st3; &st2;">1</tspan></text>
	</g>
</g>
</svg>