<?xml version="1.0"?>
<!-- Generator: Adobe Illustrator 10.0, SVG Export Plug-In . SVG Version: 3.0.0 Build 77)  -->
<!DOCTYPE svg PUBLIC "-//W3C//DTD SVG 1.0//EN" "http://www.w3.org/TR/2001/REC-SVG-20010904/DTD/svg10.dtd"[
	<!ENTITY ns_flows "http://ns.adobe.com/Flows/1.0/">
	<!ENTITY ns_svg "http://www.w3.org/2000/svg">
	<!ENTITY ns_xlink "http://www.w3.org/1999/xlink">
	<!ENTITY st0 "fill:none;stroke:#000000;stroke-linecap:round;stroke-linejoin:round;">
	<!ENTITY st1 "fill:none;stroke:#000000;stroke-width:0.6;stroke-linecap:round;stroke-linejoin:round;">
	<!ENTITY st2 "font-size:6px;">
	<!ENTITY st3 "font-family:'Arial';">
	<!ATTLIST svg
		ewd:ver CDATA #IMPLIED
		xmlns:ewd CDATA #FIXED "http://shcl.co.jp/ewd"
		xmlns:a CDATA #FIXED "http://ns.adobe.com/AdobeSVGViewerExtensions/3.0/">
	<!ATTLIST g
		ewd:pinNo CDATA #IMPLIED>
]>
<svg width="72.955" height="57.232" viewBox="0 0 72.955 57.232" style="overflow:visible;enable-background:new 0 0 72.955 57.232" xml:space="preserve" onload="call_execInitLoadProc_svg('connector')" ewd:ver="2.1.2.9" xmlns="&ns_svg;" xmlns:ewd="http://shcl.co.jp/ewd" xmlns:a="http://ns.adobe.com/AdobeSVGViewerExtensions/3.0/" xmlns:xlink="&ns_xlink;">
<script type="text/javascript" xlink:href="../../../../../system/js/ewd/fig/svgfig.js"/>
<g id="レイヤー_1">
	<path style="&st1;" d="M2.483,16.789h67.989"/>
	<path style="&st0;" d="M1.916,6.166h13.032"/>
	<path style="&st1;" d="M3.333,53.191h66.289"/>
	<path style="&st1;" d="M22.313,1.917h28.329"/>
	<path style="&st0;" d="M22.313,0.5h28.329"/>
	<path style="&st1;" d="M3.333,49.65v2.833"/>
	<path style="&st1;" d="M25.146,16.789V5.458"/>
	<path style="&st1;" d="M47.809,5.458v11.332"/>
	<path style="&st0;" d="M53.475,3.333v6.374"/>
	<path style="&st0;" d="M19.48,3.333v6.374"/>
	<path style="&st1;" d="M31.475,11.124h9.96"/>
	<path style="&st1;" d="M36.477,16.789v30.595"/>
	<path style="&st1;" d="M27.979,16.789v30.595"/>
	<path style="&st1;" d="M19.48,16.789v30.595"/>
	<path style="&st1;" d="M10.981,16.789v30.595"/>
	<path style="&st1;" d="M44.976,16.789v30.595"/>
	<path style="&st1;" d="M53.475,16.789v30.595"/>
	<path style="&st1;" d="M61.973,16.789v30.595"/>
	<path style="&st1;" d="M15.231,47.384v4.391"/>
	<path style="&st1;" d="M18.063,47.384v4.391"/>
	<path style="&st1;" d="M20.896,49.65v3.541"/>
	<path style="&st1;" d="M26.562,49.65v3.541"/>
	<path style="&st1;" d="M52.058,49.65v3.541"/>
	<path style="&st1;" d="M46.392,49.65v3.541"/>
	<path style="&st1;" d="M10.981,16.789v5.949"/>
	<path style="&st1;" d="M69.905,32.512H3.049"/>
	<path style="&st0;" d="M58.007,6.166h13.031"/>
	<path style="&st0;" d="M0.5,49.65V7.583"/>
	<path style="&st1;" d="M15.231,49.65H2.483"/>
	<path style="&st1;" d="M2.483,30.387V14.523"/>
	<path style="&st0;" d="M3.333,52.483v2.119"/>
	<path style="&st1;" d="M70.477,49.65H57.724"/>
	<path style="&st1;" d="M69.622,49.65v2.833"/>
	<path style="&st0;" d="M72.455,49.65V7.583"/>
	<path style="&st1;" d="M70.472,30.387V14.523"/>
	<path style="&st0;" d="M69.622,52.483v2.119"/>
	<path style="&st1;" d="M2.483,15.373h14.165"/>
	<path style="&st1;" d="M70.472,15.373H56.307"/>
	<path style="&st1;" d="M3.899,13.106h12.748"/>
	<path style="&st1;" d="M67.072,49.65v-2.267"/>
	<path style="&st1;" d="M54.891,49.65H18.063"/>
	<path style="&st1;" d="M56.307,13.106h12.748"/>
	<path style="&st1;" d="M57.724,51.775v-4.391"/>
	<path style="&st1;" d="M54.891,51.775v-4.391"/>
	<path style="&st1;" d="M59.848,7.583v5.524"/>
	<path style="&st1;" d="M13.106,7.583v5.524"/>
	<path style="&st0;" d="M3.333,54.602c0,0.417,0.292,0.765,0.703,0.837"/>
	<path style="&st0;" d="M53.475,3.333c0-1.564-1.269-2.833-2.833-2.833"/>
	<path style="&st0;" d="M22.313,0.5c-1.564,0-2.833,1.269-2.833,2.833"/>
	<path style="&st1;" d="M53.475,4.75c0-1.564-1.269-2.833-2.833-2.833"/>
	<path style="&st1;" d="M22.313,1.917c-1.564,0-2.833,1.269-2.833,2.833"/>
	<path style="&st0;" d="M19.48,9.707c0,0.782,0.634,1.417,1.417,1.417"/>
	<path style="&st0;" d="M52.058,11.124c0.782,0,1.417-0.634,1.417-1.417"/>
	<path style="&st0;" d="M16.647,7.866c0-0.939-0.761-1.7-1.7-1.7"/>
	<path style="&st0;" d="M58.007,6.166c-0.938,0-1.7,0.761-1.7,1.7"/>
	<path style="&st1;" d="M56.307,53.191c0.782,0,1.417-0.634,1.417-1.417"/>
	<path style="&st1;" d="M54.891,51.775c0,0.782,0.634,1.417,1.417,1.417"/>
	<path style="&st1;" d="M15.231,51.775c0,0.782,0.634,1.417,1.417,1.417"/>
	<path style="&st1;" d="M16.647,53.191c0.782,0,1.416-0.634,1.416-1.417"/>
	<path style="&st0;" d="M1.916,6.166C1.134,6.166,0.5,6.8,0.5,7.583"/>
	<path style="&st1;" d="M0.5,47.667c0,1.095,0.888,1.983,1.983,1.983"/>
	<path style="&st0;" d="M0.5,49.65c0,1.564,1.269,2.833,2.833,2.833"/>
	<path style="&st0;" d="M68.919,55.441c0.412-0.073,0.704-0.42,0.704-0.839"/>
	<path style="&st0;" d="M72.455,7.583c0-0.783-0.634-1.417-1.417-1.417"/>
	<path style="&st1;" d="M70.472,49.65c1.095,0,1.983-0.888,1.983-1.983"/>
	<path style="&st0;" d="M69.622,52.483c1.564,0,2.833-1.269,2.833-2.833"/>
	<path style="&st1;" d="M3.899,13.106c-0.782,0-1.417,0.634-1.417,1.417"/>
	<path style="&st1;" d="M70.472,14.523c0-0.782-0.634-1.417-1.417-1.417"/>
	<path style="&st1;" d="M59.848,7.583c0-0.783-0.634-1.417-1.416-1.417"/>
	<path style="&st1;" d="M14.522,6.166c-0.782,0-1.417,0.634-1.417,1.417"/>
	<path style="&st1;" d="M49.225,11.124v-4.25l-1.417-1.417h-2.125"/>
	<path style="&st1;" d="M27.271,5.458h-2.125l-1.417,1.417v4.25"/>
	<path style="&st1;" d="M34.353,4.75h-7.082v4.958h7.082V4.75"/>
	<path style="&st1;" d="M45.684,4.75h-7.082v4.958h7.082V4.75"/>
	<path style="&st1;" d="M41.435,9.707v5.666H31.52V9.707"/>
	<path style="&st1;" d="M0.5,30.387h2.549v2.833H0.5"/>
	<path style="&st1;" d="M72.455,30.387h-2.55v2.833h2.55"/>
	<path style="&st0;" d="M4.036,55.441l7.331,1.292h50.221l7.331-1.292"/>
	<path style="&st1;" d="M5.882,47.384l-3.399-3.399V33.22"/>
	<path style="&st0;" d="M16.647,7.866v7.507h5.666l1.417-1.417v-2.833h-2.833"/>
	<path style="&st0;" d="M56.307,7.866v7.507h-5.666l-1.417-1.417v-2.833h2.833"/>
	<path style="&st1;" d="M4.607,13.106V8.058h0.896l1.326-1.892"/>
	<path style="&st1;" d="M10.463,13.106V8.058H9.568L8.245,6.166"/>
	<path style="&st1;" d="M5.882,49.65v-2.267h61.19l3.399-3.399V33.22"/>
	<path style="&st1;" d="M62.443,13.106V8.058h0.898l1.323-1.892"/>
	<path style="&st1;" d="M68.302,13.106V8.058h-0.898l-1.323-1.892"/>
	<g ewd:pinNo="1">
		<text transform="matrix(1 0 0 1 4.7749 26.7817)"><tspan x="0" y="0" style="&st3; &st2;">1</tspan></text>
	</g>
	<g ewd:pinNo="2">
		<text transform="matrix(1 0 0 1 13.2734 26.7817)"><tspan x="0" y="0" style="&st3; &st2;">2</tspan></text>
	</g>
	<g ewd:pinNo="3">
		<text transform="matrix(1 0 0 1 21.772 26.7817)"><tspan x="0" y="0" style="&st3; &st2;">3</tspan></text>
	</g>
	<g ewd:pinNo="4">
		<text transform="matrix(1 0 0 1 30.2705 26.7817)"><tspan x="0" y="0" style="&st3; &st2;">4</tspan></text>
	</g>
	<g ewd:pinNo="5">
		<text transform="matrix(1 0 0 1 38.7695 26.7817)"><tspan x="0" y="0" style="&st3; &st2;">5</tspan></text>
	</g>
	<g ewd:pinNo="6">
		<text transform="matrix(1 0 0 1 47.2681 26.7817)"><tspan x="0" y="0" style="&st3; &st2;">6</tspan></text>
	</g>
	<g ewd:pinNo="7">
		<text transform="matrix(1 0 0 1 55.7666 26.7817)"><tspan x="0" y="0" style="&st3; &st2;">7</tspan></text>
	</g>
	<g ewd:pinNo="8">
		<text transform="matrix(1 0 0 1 64.2651 26.7817)"><tspan x="0" y="0" style="&st3; &st2;">8</tspan></text>
	</g>
	<g ewd:pinNo="9">
		<text transform="matrix(1 0 0 1 4.7749 41.8823)"><tspan x="0" y="0" style="&st3; &st2;">9</tspan></text>
	</g>
	<g ewd:pinNo="10">
		<text transform="matrix(1 0 0 1 11.5742 41.8823)"><tspan x="0" y="0" style="&st3; &st2;">10</tspan></text>
	</g>
	<g ewd:pinNo="11">
		<text transform="matrix(1 0 0 1 20.2954 41.8823)"><tspan x="0" y="0" style="&st3; &st2;">11</tspan></text>
	</g>
	<g ewd:pinNo="12">
		<text transform="matrix(1 0 0 1 28.5713 41.8823)"><tspan x="0" y="0" style="&st3; &st2;">12</tspan></text>
	</g>
	<g ewd:pinNo="13">
		<text transform="matrix(1 0 0 1 37.0698 41.8823)"><tspan x="0" y="0" style="&st3; &st2;">13</tspan></text>
	</g>
	<g ewd:pinNo="14">
		<text transform="matrix(1 0 0 1 45.5684 41.8823)"><tspan x="0" y="0" style="&st3; &st2;">14</tspan></text>
	</g>
	<g ewd:pinNo="15">
		<text transform="matrix(1 0 0 1 54.0669 41.8823)"><tspan x="0" y="0" style="&st3; &st2;">15</tspan></text>
	</g>
	<g ewd:pinNo="16">
		<text transform="matrix(1 0 0 1 62.5654 41.8823)"><tspan x="0" y="0" style="&st3; &st2;">16</tspan></text>
	</g>
</g>
</svg>