<?xml version="1.0"?>
<!-- Generator: Adobe Illustrator 10.0, SVG Export Plug-In . SVG Version: 3.0.0 Build 77)  -->
<!DOCTYPE svg PUBLIC "-//W3C//DTD SVG 1.0//EN" "http://www.w3.org/TR/2001/REC-SVG-20010904/DTD/svg10.dtd"[
	<!ENTITY ns_flows "http://ns.adobe.com/Flows/1.0/">
	<!ENTITY ns_svg "http://www.w3.org/2000/svg">
	<!ENTITY ns_xlink "http://www.w3.org/1999/xlink">
	<!ENTITY st0 "fill:none;">
	<!ENTITY st1 "stroke:#000000;">
	<!ENTITY st2 "stroke-linecap:round;">
	<!ENTITY st3 "stroke-linejoin:round;">
	<!ENTITY st4 "stroke-width:0.6;">
	<!ENTITY st5 "font-size:6px;">
	<!ENTITY st6 "font-family:'Arial';">
	<!ENTITY st7 "stroke-width:1.4;">
	<!ATTLIST svg
		ewd:ver CDATA #IMPLIED
		xmlns:ewd CDATA #FIXED "http://shcl.co.jp/ewd"
		xmlns:a CDATA #FIXED "http://ns.adobe.com/AdobeSVGViewerExtensions/3.0/">
	<!ATTLIST g
		ewd:pinNo CDATA #IMPLIED>
]>
<svg width="160.084" height="82.737" viewBox="0 0 160.084 82.737" style="overflow:visible;enable-background:new 0 0 73.521 65.731" xml:space="preserve" onload="call_execInitLoadProc_svg('connector')" ewd:ver="2.1.2.9" xmlns="&ns_svg;" xmlns:ewd="http://shcl.co.jp/ewd" xmlns:a="http://ns.adobe.com/AdobeSVGViewerExtensions/3.0/" xmlns:xlink="&ns_xlink;">
<script type="text/javascript" xlink:href="../../../../../system/js/ewd/fig/svgfig.js"/>
<g id="レイヤー_1" transform="translate(0,17.008)">
	<path style="&st0;&st1;&st4;&st2;&st3;" d="M14.098,34.919h45.326"/>
	<path style="&st0;&st1;&st4;&st2;&st3;" d="M25.429,21.852v25.816"/>
	<path style="&st0;&st1;&st4;&st2;&st3;" d="M36.761,21.747v25.921"/>
	<path style="&st0;&st1;&st4;&st2;&st3;" d="M48.092,21.852v25.816"/>
	<path style="&st0;&st1;&st4;&st2;&st3;" d="M10.415,23.568v26.955"/>
	<path style="&st0;&st1;&st4;&st2;&st3;" d="M63.106,23.568v26.955"/>
	<path style="&st0;&st1;&st4;&st2;&st3;" d="M6.732,24.798v23.646"/>
	<path style="&st0;&st1;&st4;&st2;&st3;" d="M66.789,24.798v23.646"/>
	<path style="&st0;&st1;&st2;&st3;" d="M27.554,65.231h18.414"/>
	<path style="&st0;&st1;&st2;&st3;" d="M48.8,61.574v0.825"/>
	<path style="&st0;&st1;&st2;&st3;" d="M24.721,61.574v0.825"/>
	<path style="&st0;&st1;&st4;&st2;&st3;" d="M15.622,11.693v3.116"/>
	<path style="&st0;&st1;&st4;&st2;&st3;" d="M20.721,11.693v2.878"/>
	<path style="&st0;&st1;&st2;&st3;" d="M0.5,30.228V43.01"/>
	<path style="&st0;&st1;&st2;&st3;" d="M73.021,30.228V43.01"/>
	<path style="&st0;&st1;&st4;&st2;&st3;" d="M16.472,10.843h3.399"/>
	<path style="&st0;&st1;&st2;&st3;" d="M16.472,7.443h4.566"/>
	<path style="&st0;&st1;&st4;&st2;&st3;" d="M48.092,10.276v4.227"/>
	<path style="&st0;&st1;&st4;&st2;&st3;" d="M25.429,10.276v4.227"/>
	<path style="&st0;&st1;&st4;&st2;&st3;" d="M30.387,3.899h12.748"/>
	<path style="&st0;&st1;&st4;&st2;&st3;" d="M45.967,6.732v7.706"/>
	<path style="&st0;&st1;&st4;&st2;&st3;" d="M27.554,6.732v7.706"/>
	<path style="&st0;&st1;&st4;&st2;&st3;" d="M26.279,9.427h1.275"/>
	<path style="&st0;&st1;&st4;&st2;&st3;" d="M45.967,9.427h1.275"/>
	<path style="&st0;&st1;&st2;&st3;" d="M27.554,0.5h18.414"/>
	<path style="&st0;&st1;&st2;&st3;" d="M21.888,6.166v0.428"/>
	<path style="&st0;&st1;&st2;&st3;" d="M51.633,6.166v1.437"/>
	<path style="&st0;&st1;&st4;&st2;&st3;" d="M29.678,6.732v7.7"/>
	<path style="&st0;&st1;&st4;&st2;&st3;" d="M43.843,6.732v7.7"/>
	<path style="&st0;&st1;&st4;&st2;&st3;" d="M31.095,5.316h11.332"/>
	<path style="&st0;&st1;&st4;&st2;&st3;" d="M29.678,7.441h14.165"/>
	<path style="&st0;&st1;&st4;&st2;&st3;" d="M29.678,10.274h2.833"/>
	<path style="&st0;&st1;&st4;&st2;&st3;" d="M41.01,10.274h2.833"/>
	<path style="&st0;&st1;&st4;&st2;&st3;" d="M58.058,22.121c-14.97-0.528-27.625-0.528-42.595,0"/>
	<path style="&st0;&st1;&st4;&st2;&st3;" d="M14.511,54.77c15.639,0.569,28.862,0.569,44.501,0"/>
	<path style="&st0;&st1;&st4;&st2;&st3;" d="M59.423,23.537c0-0.765-0.602-1.388-1.365-1.416"/>
	<path style="&st0;&st1;&st4;&st2;&st3;" d="M15.463,22.121c-0.764,0.028-1.366,0.652-1.366,1.417"/>
	<path style="&st0;&st1;&st4;&st2;&st3;" d="M59.013,19.322c-15.64-0.574-28.864-0.574-44.504,0"/>
	<path style="&st0;&st1;&st4;&st2;&st3;" d="M10.415,50.523c0,2.292,1.803,4.162,4.093,4.247"/>
	<path style="&st0;&st1;&st4;&st2;&st3;" d="M59.013,54.77c2.291-0.084,4.093-1.955,4.093-4.247"/>
	<path style="&st0;&st1;&st4;&st2;&st3;" d="M63.106,23.568c0-2.292-1.803-4.163-4.093-4.247"/>
	<path style="&st0;&st1;&st4;&st2;&st3;" d="M14.508,19.322c-2.291,0.084-4.093,1.955-4.093,4.247"/>
	<path style="&st0;&st1;&st4;&st2;&st3;" d="M57.902,15.597c-14.86-0.515-27.421-0.515-42.281,0"/>
	<path style="&st0;&st1;&st4;&st2;&st3;" d="M15.622,57.645c14.858,0.512,27.419,0.512,42.278,0"/>
	<path style="&st0;&st1;&st2;&st3;" d="M18.367,61.415c2.234,0.066,4.12,0.113,6.354,0.157"/>
	<path style="&st0;&st1;&st2;&st3;" d="M24.721,62.398c0,1.564,1.269,2.833,2.833,2.833"/>
	<path style="&st0;&st1;&st2;&st3;" d="M45.967,65.231c1.564,0,2.833-1.268,2.833-2.833"/>
	<path style="&st0;&st1;&st4;&st2;&st3;" d="M15.622,15.597c-4.97,0.171-8.889,4.228-8.889,9.201"/>
	<path style="&st0;&st1;&st4;&st2;&st3;" d="M6.732,48.443c0,4.973,3.919,9.03,8.889,9.202"/>
	<path style="&st0;&st1;&st4;&st2;&st3;" d="M57.899,57.645c4.97-0.171,8.889-4.228,8.889-9.201"/>
	<path style="&st0;&st1;&st4;&st2;&st3;" d="M66.789,24.798c0-4.974-3.919-9.03-8.89-9.202"/>
	<path style="&st0;&st1;&st2;&st3;" d="M0.5,43.01c0,9.977,7.894,18.109,17.867,18.405"/>
	<path style="&st0;&st1;&st2;&st3;" d="M55.154,61.415c9.973-0.296,17.866-8.428,17.866-18.405"/>
	<path style="&st0;&st1;&st2;&st3;" d="M11.01,13.6C4.42,16.731,0.502,22.932,0.502,30.228"/>
	<path style="&st0;&st1;&st2;&st3;" d="M73.021,30.228c0-9.804-7.587-17.832-17.376-18.384"/>
	<path style="&st0;&st1;&st4;&st2;&st3;" d="M20.721,11.693c0-0.469-0.38-0.85-0.85-0.85"/>
	<path style="&st0;&st1;&st4;&st2;&st3;" d="M16.472,10.843c-0.469,0-0.85,0.381-0.85,0.85"/>
	<path style="&st0;&st1;&st2;&st3;" d="M16.472,7.443c-2.344,0-4.245,1.897-4.25,4.241"/>
	<path style="&st0;&st1;&st4;&st2;&st3;" d="M30.387,3.899c-1.564,0-2.833,1.269-2.833,2.833"/>
	<path style="&st0;&st1;&st4;&st2;&st3;" d="M45.967,6.732c0-1.564-1.268-2.833-2.833-2.833"/>
	<path style="&st0;&st1;&st4;&st2;&st3;" d="M26.279,9.427c-0.469,0-0.85,0.38-0.85,0.85"/>
	<path style="&st0;&st1;&st4;&st2;&st3;" d="M48.092,10.276c0-0.469-0.38-0.85-0.85-0.85"/>
	<path style="&st0;&st1;&st2;&st3;" d="M27.554,0.5c-3.129,0-5.666,2.537-5.666,5.666"/>
	<path style="&st0;&st1;&st2;&st3;" d="M21.038,7.443c0.469,0,0.85-0.38,0.85-0.85"/>
	<path style="&st0;&st1;&st2;&st3;" d="M51.633,6.166c0-3.129-2.537-5.666-5.666-5.666"/>
	<path style="&st0;&st1;&st2;&st3;" d="M51.633,7.603c0,2.263,1.752,4.116,4.012,4.242"/>
	<path style="&st0;&st1;&st4;&st2;&st3;" d="M20.721,14.571c0,0.47,0.381,0.85,0.85,0.85"/>
	<path style="&st0;&st1;&st4;&st2;&st3;" d="M21.571,15.421c0.007,0,0.013,0,0.02,0"/>
	<path style="&st0;&st1;&st4;&st2;&st3;" d="M24.596,15.353c0.463-0.009,0.833-0.387,0.833-0.85"/>
	<path style="&st0;&st1;&st4;&st2;&st3;" d="M48.092,14.503c0,0.463,0.37,0.84,0.833,0.85"/>
	<path style="&st0;&st1;&st4;&st2;&st3;" d="M14.868,15.653c0.433-0.05,0.753-0.409,0.753-0.844"/>
	<path style="&st0;&st1;&st4;&st2;&st3;" d="M31.095,5.316c-0.782,0-1.417,0.634-1.417,1.417"/>
	<path style="&st0;&st1;&st4;&st2;&st3;" d="M43.843,6.732c0-0.782-0.634-1.417-1.417-1.417"/>
	<path style="&st0;&st1;&st2;&st3;" d="M11.01,13.6c0.759-0.361,1.21-1.075,1.211-1.915"/>
	<path style="&st0;&st1;&st4;&st2;&st3;" d="M27.554,14.438c0,0.469,0.38,0.85,0.85,0.85"/>
	<path style="&st0;&st1;&st4;&st2;&st3;" d="M28.404,15.288c0.004,0,0.007,0,0.011,0"/>
	<path style="&st0;&st1;&st4;&st2;&st3;" d="M28.84,15.282c0.465-0.006,0.838-0.385,0.838-0.85"/>
	<path style="&st0;&st1;&st4;&st2;&st3;" d="M45.106,15.288c0.47,0.006,0.855-0.369,0.861-0.838"/>
	<path style="&st0;&st1;&st4;&st2;&st3;" d="M45.967,14.449c0-0.004,0-0.007,0-0.011"/>
	<path style="&st0;&st1;&st4;&st2;&st3;" d="M43.843,14.432c0,0.465,0.373,0.844,0.838,0.85"/>
	<path style="&st0;&st1;&st4;&st2;&st3;" d="M24.721,61.574c8.465,0.165,15.615,0.165,24.08,0"/>
	<path style="&st0;&st1;&st2;&st3;" d="M48.8,61.574c2.234-0.043,4.12-0.09,6.354-0.156"/>
	<path style="&st0;&st1;&st4;&st2;&st3;" d="M41.01,7.441v3.541h-8.499V7.441"/>
	<path style="&st0;&st1;&st4;&st2;&st3;" d="M6.732,40.869H3.899V32.37h2.833"/>
	<path style="&st0;&st1;&st4;&st2;&st3;" d="M59.423,23.537v24.13H14.098v-24.13"/>
	<path style="&st0;&st1;&st4;&st2;&st3;" d="M66.789,40.869h2.833V32.37h-2.833"/>
	<g ewd:pinNo="1">
		<text transform="matrix(1 0 0 1 18.1592 30.6406)"><tspan x="0" y="0" style="&st6; &st5;">1</tspan></text>
	</g>
	<g ewd:pinNo="2">
		<text transform="matrix(1 0 0 1 29.4907 30.6406)"><tspan x="0" y="0" style="&st6; &st5;">2</tspan></text>
	</g>
	<g ewd:pinNo="3">
		<text transform="matrix(1 0 0 1 40.8223 30.6406)"><tspan x="0" y="0" style="&st6; &st5;">3</tspan></text>
	</g>
	<g ewd:pinNo="4">
		<text transform="matrix(1 0 0 1 52.1533 30.6406)"><tspan x="0" y="0" style="&st6; &st5;">4</tspan></text>
	</g>
	<g ewd:pinNo="5">
		<text transform="matrix(1 0 0 1 18.1592 43.3887)"><tspan x="0" y="0" style="&st6; &st5;">5</tspan></text>
	</g>
	<g ewd:pinNo="6">
		<text transform="matrix(1 0 0 1 29.4907 43.3887)"><tspan x="0" y="0" style="&st6; &st5;">6</tspan></text>
	</g>
	<g ewd:pinNo="7">
		<text transform="matrix(1 0 0 1 40.8223 43.3887)"><tspan x="0" y="0" style="&st6; &st5;">7</tspan></text>
	</g>
	<g ewd:pinNo="8">
		<text transform="matrix(1 0 0 1 52.1533 43.3887)"><tspan x="0" y="0" style="&st6; &st5;">8</tspan></text>
	</g>
</g>
<g id="レイヤー_1" transform="translate(93.362,17.008)">
	<path style="&st0;&st1;&st4;&st2;&st3;" d="M59.707,25.993H7.016"/>
	<path style="&st0;&st1;&st4;&st2;&st3;" d="M33.361,12.82v25.921"/>
	<path style="&st0;&st1;&st2;&st3;" d="M63.39,16.557v6.04"/>
	<path style="&st0;&st1;&st2;&st3;" d="M3.333,16.557v6.04"/>
	<path style="&st0;&st1;&st2;&st3;" d="M66.222,24.58v6.232"/>
	<path style="&st0;&st1;&st2;&st3;" d="M0.5,24.58v6.232"/>
	<path style="&st0;&st1;&st2;&st3;" d="M65.089,23.446h-0.85"/>
	<path style="&st0;&st1;&st2;&st3;" d="M65.089,31.945h-0.85"/>
	<path style="&st0;&st1;&st2;&st3;" d="M2.483,23.446h-0.85"/>
	<path style="&st0;&st1;&st2;&st3;" d="M2.483,31.945h-0.85"/>
	<path style="&st0;&st1;&st2;&st3;" d="M54.5,4.183v1.773"/>
	<path style="&st0;&st1;&st2;&st3;" d="M22.03,1.35v5.059"/>
	<path style="&st0;&st1;&st2;&st3;" d="M44.692,1.35v5.059"/>
	<path style="&st0;&st1;&st2;&st3;" d="M43.843,0.5h-1.133"/>
	<path style="&st0;&st1;&st2;&st3;" d="M24.013,0.5h-1.133"/>
	<path style="&st0;&st1;&st4;&st2;&st3;" d="M20.188,12.928v25.813"/>
	<path style="&st0;&st1;&st4;&st2;&st3;" d="M46.534,12.928v25.813"/>
	<path style="&st0;&st1;&st2;&st3;" d="M49.967,4.183v1.476"/>
	<path style="&st0;&st1;&st2;&st3;" d="M16.319,55.88h34.085"/>
	<path style="&st0;&st1;&st2;&st3;" d="M12.919,48.741v3.739"/>
	<path style="&st0;&st1;&st2;&st3;" d="M53.803,48.741v3.739"/>
	<path style="&st0;&st1;&st4;&st2;&st3;" d="M37.894,49.064v3.417"/>
	<path style="&st0;&st1;&st4;&st2;&st3;" d="M28.829,49.064v3.417"/>
	<path style="&st0;&st1;&st4;&st2;&st3;" d="M46.109,52.48v3.399"/>
	<path style="&st0;&st1;&st4;&st2;&st3;" d="M20.613,52.48v3.399"/>
	<path style="&st0;&st1;&st4;&st2;&st3;" d="M3.333,22.597v10.198"/>
	<path style="&st0;&st1;&st2;&st3;" d="M3.333,32.795v6.037"/>
	<path style="&st0;&st1;&st4;&st2;&st3;" d="M63.39,22.597v10.198"/>
	<path style="&st0;&st1;&st2;&st3;" d="M63.39,32.795v6.037"/>
	<path style="&st0;&st1;&st4;&st2;&st3;" d="M58.823,13.358c-17.894-0.754-33.03-0.754-50.923,0"/>
	<path style="&st0;&st1;&st2;&st3;" d="M49.098,6.509c-1.549-0.04-2.856-0.069-4.405-0.098"/>
	<path style="&st0;&st1;&st4;&st2;&st3;" d="M12.919,48.741c14.369,0.478,26.515,0.478,40.884,0"/>
	<path style="&st0;&st1;&st2;&st3;" d="M44.692,1.35c0-0.469-0.38-0.85-0.85-0.85"/>
	<path style="&st0;&st1;&st2;&st3;" d="M22.879,0.5c-0.469,0-0.85,0.381-0.85,0.85"/>
	<path style="&st0;&st1;&st2;&st3;" d="M63.39,16.557c0-4.865-3.396-8.915-8.187-9.763"/>
	<path style="&st0;&st1;&st2;&st3;" d="M12.917,6.647c-5.356,0.179-9.583,4.55-9.583,9.909"/>
	<path style="&st0;&st1;&st2;&st3;" d="M3.333,38.832c0,5.36,4.229,9.732,9.587,9.91"/>
	<path style="&st0;&st1;&st2;&st3;" d="M53.803,48.741c5.357-0.178,9.586-4.549,9.586-9.91"/>
	<path style="&st0;&st1;&st4;&st2;&st3;" d="M13.038,10.327c-3.367,0.114-6.023,2.861-6.023,6.229"/>
	<path style="&st0;&st1;&st4;&st2;&st3;" d="M7.016,38.832c0,3.37,2.658,6.117,6.025,6.229"/>
	<path style="&st0;&st1;&st4;&st2;&st3;" d="M13.041,45.061c14.283,0.476,26.357,0.476,40.64,0"/>
	<path style="&st0;&st1;&st4;&st2;&st3;" d="M53.681,45.061c3.368-0.112,6.026-2.86,6.026-6.229"/>
	<path style="&st0;&st1;&st4;&st2;&st3;" d="M59.707,16.557c0-3.368-2.656-6.115-6.022-6.229"/>
	<path style="&st0;&st1;&st4;&st2;&st3;" d="M53.684,10.327c-14.285-0.478-26.359-0.478-40.643,0"/>
	<path style="&st0;&st1;&st2;&st3;" d="M54.5,5.956c0,0.418,0.292,0.765,0.703,0.837"/>
	<path style="&st0;&st1;&st2;&st3;" d="M49.098,6.509c0.469,0.011,0.859-0.361,0.87-0.83"/>
	<path style="&st0;&st1;&st2;&st3;" d="M49.967,5.679c0-0.007,0-0.013,0-0.02"/>
	<path style="&st0;&st1;&st2;&st3;" d="M54.5,4.183c0-1.251-1.015-2.266-2.267-2.266"/>
	<path style="&st0;&st1;&st2;&st3;" d="M52.233,1.917c-1.251,0-2.266,1.015-2.266,2.266"/>
	<path style="&st0;&st1;&st2;&st3;" d="M1.633,23.446c-0.625,0-1.133,0.507-1.133,1.133"/>
	<path style="&st0;&st1;&st2;&st3;" d="M0.5,30.812c0,0.625,0.507,1.133,1.133,1.133"/>
	<path style="&st0;&st1;&st2;&st3;" d="M66.222,24.58c0-0.626-0.507-1.133-1.133-1.133"/>
	<path style="&st0;&st1;&st2;&st3;" d="M65.089,31.945c0.625,0,1.133-0.507,1.133-1.133"/>
	<path style="&st0;&st1;&st2;&st3;" d="M12.919,52.48c0,1.877,1.522,3.399,3.399,3.399"/>
	<path style="&st0;&st1;&st2;&st3;" d="M50.404,55.88c1.877,0,3.399-1.522,3.399-3.399"/>
	<path style="&st0;&st1;&st2;&st3;" d="M22.03,6.409c-3.205,0.06-5.91,0.13-9.113,0.237"/>
	<path style="&st0;&st1;&st2;&st3;" d="M24.862,1.35c0-0.469-0.38-0.85-0.85-0.85"/>
	<path style="&st0;&st1;&st2;&st3;" d="M42.709,0.5c-0.469,0-0.85,0.381-0.85,0.85"/>
	<path style="&st0;&st1;&st2;&st3;" d="M2.483,23.446c0.47,0,0.85-0.38,0.85-0.85"/>
	<path style="&st0;&st1;&st2;&st3;" d="M3.333,32.795c0-0.47-0.38-0.85-0.85-0.85"/>
	<path style="&st0;&st1;&st2;&st3;" d="M63.39,22.597c0,0.469,0.38,0.85,0.85,0.85"/>
	<path style="&st0;&st1;&st2;&st3;" d="M64.239,31.945c-0.469,0-0.85,0.38-0.85,0.85"/>
	<path style="&st0;&st1;&st2;&st3;" d="M24.862,1.35v4.53h3.825V2.056h9.348V5.88h3.825V1.35"/>
	<path style="&st0;&st1;&st4;&st2;&st3;" d="M50.404,48.846v3.635H16.319v-3.635"/>
	<path style="&st0;&st1;&st4;&st2;&st3;" d="M7.016,38.832V16.557"/>
	<path style="&st0;&st1;&st4;&st2;&st3;" d="M59.707,38.741H7.016"/>
	<path style="&st0;&st1;&st4;&st2;&st3;" d="M59.707,38.832V16.557"/>
	<g ewd:pinNo="1">
		<text transform="matrix(1 0 0 1 51.3301 21.6909)"><tspan x="0" y="0" style="&st6; &st5;">1</tspan></text>
	</g>
	<g ewd:pinNo="2">
		<text transform="matrix(1 0 0 1 38.1572 21.6909)"><tspan x="0" y="0" style="&st6; &st5;">2</tspan></text>
	</g>
	<g ewd:pinNo="3">
		<text transform="matrix(1 0 0 1 24.9844 21.6909)"><tspan x="0" y="0" style="&st6; &st5;">3</tspan></text>
	</g>
	<g ewd:pinNo="4">
		<text transform="matrix(1 0 0 1 11.8115 21.6909)"><tspan x="0" y="0" style="&st6; &st5;">4</tspan></text>
	</g>
	<g ewd:pinNo="5">
		<text transform="matrix(1 0 0 1 51.3301 34.5977)"><tspan x="0" y="0" style="&st6; &st5;">5</tspan></text>
	</g>
	<g ewd:pinNo="6">
		<text transform="matrix(1 0 0 1 38.1572 34.5977)"><tspan x="0" y="0" style="&st6; &st5;">6</tspan></text>
	</g>
	<g ewd:pinNo="7">
		<text transform="matrix(1 0 0 1 24.9844 34.5977)"><tspan x="0" y="0" style="&st6; &st5;">7</tspan></text>
	</g>
	<g ewd:pinNo="8">
		<text transform="matrix(1 0 0 1 11.8115 34.5977)"><tspan x="0" y="0" style="&st6; &st5;">8</tspan></text>
	</g>
</g>
<path d="M36.7605,9.069v-8.504h89.9625v8.504" style="&st0;&st1;&st7;&st2;&st3;"/>
</svg>