<?xml version="1.0"?>
<!-- Generator: Adobe Illustrator 10.0, SVG Export Plug-In . SVG Version: 3.0.0 Build 77)  -->
<!DOCTYPE svg PUBLIC "-//W3C//DTD SVG 1.0//EN" "http://www.w3.org/TR/2001/REC-SVG-20010904/DTD/svg10.dtd"[
	<!ENTITY ns_flows "http://ns.adobe.com/Flows/1.0/">
	<!ENTITY ns_svg "http://www.w3.org/2000/svg">
	<!ENTITY ns_xlink "http://www.w3.org/1999/xlink">
	<!ENTITY st0 "fill:none;stroke:#000000;stroke-linecap:round;stroke-linejoin:round;">
	<!ENTITY st1 "fill:none;stroke:#000000;stroke-width:0.6;stroke-linecap:round;stroke-linejoin:round;">
	<!ENTITY st2 "font-size:6px;">
	<!ENTITY st3 "font-family:'Arial';">
	<!ATTLIST svg
		ewd:ver CDATA #IMPLIED
		xmlns:ewd CDATA #FIXED "http://shcl.co.jp/ewd"
		xmlns:a CDATA #FIXED "http://ns.adobe.com/AdobeSVGViewerExtensions/3.0/">
	<!ATTLIST g
		ewd:pinNo CDATA #IMPLIED>
]>
<svg width="53.36" height="61.175" viewBox="0 0 53.36 61.175" style="overflow:visible;enable-background:new 0 0 53.36 61.175" xml:space="preserve" onload="call_execInitLoadProc_svg('connector')" ewd:ver="2.1.2.9" xmlns="&ns_svg;" xmlns:ewd="http://shcl.co.jp/ewd" xmlns:a="http://ns.adobe.com/AdobeSVGViewerExtensions/3.0/" xmlns:xlink="&ns_xlink;">
<script type="text/javascript" xlink:href="../../../../../system/js/ewd/fig/svgfig.js"/>
<g id="レイヤー_1">
	<path style="&st1;" d="M18.89,51.956V40.16"/>
	<path style="&st1;" d="M16.057,37.327h-2.833"/>
	<path style="&st1;" d="M10.391,34.495V24.58"/>
	<path style="&st1;" d="M21.723,20.33h-7.89"/>
	<path style="&st1;" d="M24.555,31.662v-8.499"/>
	<path style="&st1;" d="M28.805,31.662v-8.499"/>
	<path style="&st1;" d="M42.969,34.495V24.58"/>
	<path style="&st1;" d="M31.638,20.33h7.889"/>
	<path style="&st1;" d="M37.303,37.327h2.833"/>
	<path style="&st1;" d="M34.47,51.956V40.16"/>
	<path style="&st1;" d="M45.802,34.495c0-10.561-8.561-19.122-19.122-19.122"/>
	<path style="&st1;" d="M26.68,15.373c-10.561,0-19.122,8.561-19.122,19.122"/>
	<path style="&st1;" d="M7.558,34.495c0,10.561,8.562,19.122,19.122,19.122"/>
	<path style="&st1;" d="M26.68,53.616c10.561,0,19.122-8.561,19.122-19.122"/>
	<path style="&st1;" d="M40.136,37.327c1.564,0,2.833-1.268,2.833-2.833"/>
	<path style="&st1;" d="M37.303,37.327c-1.564,0-2.833,1.269-2.833,2.833"/>
	<path style="&st1;" d="M31.638,20.33c-1.565,0-2.833,1.269-2.833,2.833"/>
	<path style="&st1;" d="M24.555,23.163c0-1.564-1.268-2.833-2.833-2.833"/>
	<path style="&st1;" d="M18.89,40.16c0-1.564-1.269-2.833-2.833-2.833"/>
	<path style="&st1;" d="M10.391,34.495c0,1.564,1.268,2.833,2.833,2.833"/>
	<path style="&st1;" d="M50.051,34.495c0-12.908-10.463-23.371-23.371-23.371"/>
	<path style="&st1;" d="M26.68,11.124c-12.908,0-23.372,10.463-23.372,23.371"/>
	<path style="&st1;" d="M3.309,34.495c0,12.907,10.464,23.371,23.372,23.371"/>
	<path style="&st1;" d="M26.68,57.866c12.907,0,23.371-10.464,23.371-23.371"/>
	<path style="&st1;" d="M24.555,31.662c-0.342,1.173,0.331,2.402,1.504,2.745"/>
	<path style="&st1;" d="M26.06,34.407c1.173,0.343,2.402-0.331,2.745-1.504"/>
	<path style="&st1;" d="M28.805,32.902c0.124-0.424,0.124-0.816,0-1.241"/>
	<path style="&st0;" d="M15.349,10.869c2.164-2.767,3.474-5.526,4.249-8.952"/>
	<path style="&st0;" d="M33.762,1.917c0.775,3.426,2.085,6.186,4.249,8.952"/>
	<path style="&st1;" d="M38.011,10.869c-7.429-3.563-15.233-3.563-22.663,0"/>
	<path style="&st0;" d="M15.349,10.869C2.3,17.126-3.204,32.778,3.054,45.826"/>
	<path style="&st0;" d="M3.054,45.826c6.258,13.048,21.909,18.553,34.957,12.294"/>
	<path style="&st0;" d="M38.011,58.121c13.048-6.258,18.553-21.909,12.295-34.958"/>
	<path style="&st0;" d="M50.306,23.163c-2.695-5.618-6.676-9.6-12.295-12.294"/>
	<path style="&st1;" d="M13.224,23.163h8.499v11.332h-8.499V23.163"/>
	<path style="&st1;" d="M31.638,34.495h8.499V23.163h-8.499V34.495"/>
	<path style="&st1;" d="M30.929,37.327h-8.499v11.332h8.499V37.327"/>
	<path style="&st0;" d="M19.598,1.917h2.833V0.5h8.499v1.417h2.833"/>
	<g ewd:pinNo="1">
		<text transform="matrix(1 0 0 1 15.772 30.9233)"><tspan x="0" y="0" style="&st3; &st2;">1</tspan></text>
	</g>
	<g ewd:pinNo="2">
		<text transform="matrix(1 0 0 1 34.1855 30.9233)"><tspan x="0" y="0" style="&st3; &st2;">2</tspan></text>
	</g>
	<g ewd:pinNo="3">
		<text transform="matrix(1 0 0 1 24.9785 45.0879)"><tspan x="0" y="0" style="&st3; &st2;">3</tspan></text>
	</g>
</g>
</svg>