<?xml version="1.0"?>
<!-- Generator: Adobe Illustrator 10.0, SVG Export Plug-In . SVG Version: 3.0.0 Build 77)  -->
<!DOCTYPE svg PUBLIC "-//W3C//DTD SVG 1.0//EN" "http://www.w3.org/TR/2001/REC-SVG-20010904/DTD/svg10.dtd"[
	<!ENTITY ns_flows "http://ns.adobe.com/Flows/1.0/">
	<!ENTITY ns_svg "http://www.w3.org/2000/svg">
	<!ENTITY ns_xlink "http://www.w3.org/1999/xlink">
	<!ENTITY st0 "fill:none;stroke:#000000;stroke-linecap:round;stroke-linejoin:round;">
	<!ENTITY st1 "fill:none;stroke:#000000;stroke-width:0.6;stroke-linecap:round;stroke-linejoin:round;">
	<!ENTITY st2 "font-size:6px;">
	<!ENTITY st3 "font-family:'Arial';">
	<!ATTLIST svg
		ewd:ver CDATA #IMPLIED
		xmlns:ewd CDATA #FIXED "http://shcl.co.jp/ewd"
		xmlns:a CDATA #FIXED "http://ns.adobe.com/AdobeSVGViewerExtensions/3.0/">
	<!ATTLIST g
		ewd:pinNo CDATA #IMPLIED>
]>
<svg width="53.408" height="53.765" viewBox="0 0 53.408 53.765" style="overflow:visible;enable-background:new 0 0 53.408 53.765" xml:space="preserve" onload="call_execInitLoadProc_svg('connector')" ewd:ver="2.1.2.9" xmlns="&ns_svg;" xmlns:ewd="http://shcl.co.jp/ewd" xmlns:a="http://ns.adobe.com/AdobeSVGViewerExtensions/3.0/" xmlns:xlink="&ns_xlink;">
<script type="text/javascript" xlink:href="../../../../../system/js/ewd/fig/svgfig.js"/>
<g id="レイヤー_1">
	<path style="&st1;" d="M11.299,26.417v10.847"/>
	<path style="&st1;" d="M43.168,26.417v10.847"/>
	<path style="&st1;" d="M47.596,26.417v10.847"/>
	<path style="&st0;" d="M0.5,26.862v9.958"/>
	<path style="&st0;" d="M18.568,53.265h17.334"/>
	<path style="&st1;" d="M32.191,49.599v1.895"/>
	<path style="&st1;" d="M22.276,49.599v1.895"/>
	<path style="&st1;" d="M18.381,2.627h17.706"/>
	<path style="&st0;" d="M52.908,26.25v11.182"/>
	<path style="&st0;" d="M49.914,40.692l1.666-0.96"/>
	<path style="&st0;" d="M1.829,24.562l2.147-1.241"/>
	<path style="&st0;" d="M49.914,22.987l1.666,0.963"/>
	<path style="&st0;" d="M1.829,39.12l2.147,1.241"/>
	<path style="&st0;" d="M41.577,4.927v7.663"/>
	<path style="&st0;" d="M12.894,4.927v7.663"/>
	<path style="&st0;" d="M17.319,0.502h19.83"/>
	<path style="&st0;" d="M38.967,51.494l1.547-2.68"/>
	<path style="&st0;" d="M13.956,48.814l1.547,2.68"/>
	<path style="&st1;" d="M25.463,26.707v10.269"/>
	<path style="&st1;" d="M29.004,26.707v10.269"/>
	<path style="&st1;" d="M26.525,25.644h1.417"/>
	<path style="&st1;" d="M26.525,38.038h1.417"/>
	<path style="&st1;" d="M27.233,21.216v4.428"/>
	<path style="&st1;" d="M19.268,6.168v9.739"/>
	<path style="&st1;" d="M21.038,4.398h12.394"/>
	<path style="&st1;" d="M15.727,7.939h3.541"/>
	<path style="&st1;" d="M19.268,14.134h15.935"/>
	<path style="&st1;" d="M19.268,11.038h15.935"/>
	<path style="&st1;" d="M24.137,7.939h6.195"/>
	<path style="&st1;" d="M27.233,38.038v4.425"/>
	<path style="&st1;" d="M38.744,7.939h-3.541"/>
	<path style="&st1;" d="M35.203,15.908V6.168"/>
	<path style="&st1;" d="M39.335,22.032c-8.458-1.143-15.743-1.143-24.201,0"/>
	<path style="&st1;" d="M15.134,41.65c8.458,1.143,15.744,1.143,24.201,0"/>
	<path style="&st1;" d="M15.134,22.032c-2.215,0.299-3.833,2.15-3.833,4.385"/>
	<path style="&st1;" d="M11.299,37.265c0,2.236,1.619,4.089,3.835,4.388"/>
	<path style="&st1;" d="M43.168,26.417c0-2.235-1.618-4.086-3.833-4.385"/>
	<path style="&st1;" d="M39.335,41.65c2.215-0.299,3.833-2.15,3.833-4.385"/>
	<path style="&st1;" d="M14.54,46.038c3.697,0.5,6.843,0.747,10.572,0.83"/>
	<path style="&st1;" d="M14.54,17.644c-4.431,0.6-7.666,4.303-7.666,8.773"/>
	<path style="&st1;" d="M6.874,37.265c0,4.471,3.235,8.173,7.666,8.773"/>
	<path style="&st1;" d="M47.596,26.417c0-4.47-3.235-8.173-7.666-8.772"/>
	<path style="&st1;" d="M39.931,46.038c4.43-0.6,7.666-4.303,7.666-8.773"/>
	<path style="&st0;" d="M10.834,15.806c-2.938,1.355-4.966,3.554-6.08,6.592"/>
	<path style="&st0;" d="M4.755,41.285c1.534,4.186,4.987,6.961,9.405,7.56"/>
	<path style="&st0;" d="M49.914,22.99c-1.014-3.303-3.141-5.736-6.278-7.183"/>
	<path style="&st0;" d="M40.31,48.842c4.634-0.627,8.229-3.678,9.602-8.147"/>
	<path style="&st1;" d="M29.361,46.868c3.729-0.084,6.874-0.331,10.569-0.831"/>
	<path style="&st1;" d="M14.16,48.842c2.841,0.384,5.253,0.608,8.116,0.754"/>
	<path style="&st1;" d="M32.191,49.599c2.864-0.146,5.278-0.37,8.12-0.754"/>
	<path style="&st1;" d="M30.42,53.265c0.978,0,1.771-0.792,1.771-1.771"/>
	<path style="&st1;" d="M22.276,51.494c0,0.978,0.793,1.771,1.771,1.771"/>
	<path style="&st0;" d="M52.908,26.25c0-0.978-0.481-1.812-1.328-2.301"/>
	<path style="&st0;" d="M51.579,39.732c0.847-0.489,1.328-1.322,1.328-2.3"/>
	<path style="&st0;" d="M1.829,24.562c-0.847,0.489-1.328,1.323-1.328,2.3"/>
	<path style="&st0;" d="M0.5,36.82c0,0.978,0.481,1.812,1.328,2.301"/>
	<path style="&st0;" d="M3.976,23.321c0.376-0.216,0.628-0.517,0.778-0.924"/>
	<path style="&st0;" d="M4.755,41.285c-0.149-0.407-0.402-0.708-0.778-0.925"/>
	<path style="&st0;" d="M10.834,15.806c1.288-0.593,2.059-1.797,2.059-3.215"/>
	<path style="&st0;" d="M41.577,12.59c0,1.418,0.771,2.623,2.059,3.216"/>
	<path style="&st0;" d="M41.577,4.927c0-2.445-1.982-4.427-4.428-4.427"/>
	<path style="&st0;" d="M17.319,0.502c-2.444,0-4.425,1.981-4.425,4.425"/>
	<path style="&st1;" d="M39.931,17.644c-0.417-0.056-0.769-0.102-1.187-0.152"/>
	<path style="&st1;" d="M15.727,17.494c-0.417,0.051-0.77,0.096-1.187,0.153"/>
	<path style="&st0;" d="M15.503,51.494c0.651,1.128,1.762,1.769,3.065,1.769"/>
	<path style="&st0;" d="M35.902,53.265c1.303,0,2.414-0.641,3.066-1.77"/>
	<path style="&st1;" d="M26.525,25.644c-0.586,0-1.063,0.476-1.063,1.063"/>
	<path style="&st1;" d="M29.004,26.707c0-0.587-0.476-1.063-1.062-1.063"/>
	<path style="&st1;" d="M25.463,36.976c0,0.587,0.476,1.063,1.063,1.063"/>
	<path style="&st1;" d="M27.942,38.038c0.586,0,1.062-0.476,1.062-1.063"/>
	<path style="&st1;" d="M21.038,4.398c-0.978,0-1.771,0.792-1.771,1.771"/>
	<path style="&st1;" d="M35.203,6.168c0-0.978-0.793-1.771-1.771-1.771"/>
	<path style="&st1;" d="M18.381,2.627c-1.467,0-2.657,1.19-2.657,2.658"/>
	<path style="&st1;" d="M38.744,5.285c0-1.468-1.19-2.658-2.657-2.658"/>
	<path style="&st1;" d="M6.874,37.265v-3.3H3.333v-4.249h3.542v-3.298"/>
	<path style="&st1;" d="M29.358,46.868v3.564h-4.25v-3.564"/>
	<path style="&st1;" d="M38.744,5.285v13.277H15.727V5.285"/>
	<path style="&st1;" d="M24.137,15.908V7.052h-4.87"/>
	<path style="&st1;" d="M35.203,7.052h-4.87v8.855"/>
	<g ewd:pinNo="1">
		<text transform="matrix(1 0 0 1 16.397 34.0513)"><tspan x="0" y="0" style="&st3; &st2;">1</tspan></text>
	</g>
	<g ewd:pinNo="2">
		<text transform="matrix(1 0 0 1 34.1021 34.0513)"><tspan x="0" y="0" style="&st3; &st2;">2</tspan></text>
	</g>
</g>
</svg>