<?xml version="1.0"?>
<!-- Generator: Adobe Illustrator 10.0, SVG Export Plug-In . SVG Version: 3.0.0 Build 77)  -->
<!DOCTYPE svg PUBLIC "-//W3C//DTD SVG 1.0//EN" "http://www.w3.org/TR/2001/REC-SVG-20010904/DTD/svg10.dtd"[
	<!ENTITY ns_flows "http://ns.adobe.com/Flows/1.0/">
	<!ENTITY ns_svg "http://www.w3.org/2000/svg">
	<!ENTITY ns_xlink "http://www.w3.org/1999/xlink">
	<!ENTITY st0 "fill:none;stroke:#000000;stroke-linecap:round;stroke-linejoin:round;">
	<!ENTITY st1 "fill:none;stroke:#000000;stroke-width:0.6;stroke-linecap:round;stroke-linejoin:round;">
	<!ENTITY st2 "font-size:6px;">
	<!ENTITY st3 "font-family:'Arial';">
	<!ATTLIST svg
		ewd:ver CDATA #IMPLIED
		xmlns:ewd CDATA #FIXED "http://shcl.co.jp/ewd"
		xmlns:a CDATA #FIXED "http://ns.adobe.com/AdobeSVGViewerExtensions/3.0/">
	<!ATTLIST g
		ewd:pinNo CDATA #IMPLIED>
]>
<svg width="53.13" height="60.491" viewBox="0 0 53.13 60.491" style="overflow:visible;enable-background:new 0 0 53.13 60.491" xml:space="preserve" onload="call_execInitLoadProc_svg('connector')" ewd:ver="2.1.2.9" xmlns="&ns_svg;" xmlns:ewd="http://shcl.co.jp/ewd" xmlns:a="http://ns.adobe.com/AdobeSVGViewerExtensions/3.0/" xmlns:xlink="&ns_xlink;">
<script type="text/javascript" xlink:href="../../../../../system/js/ewd/fig/svgfig.js"/>
<g id="レイヤー_1">
	<path style="&st1;" d="M13.109,35.911h26.912"/>
	<path style="&st1;" d="M13.109,23.163h26.912"/>
	<path style="&st1;" d="M17.619,48.659h17.893"/>
	<path style="&st1;" d="M31.522,23.163v12.748"/>
	<path style="&st1;" d="M21.607,23.163v12.748"/>
	<path style="&st1;" d="M11.692,24.58v9.915"/>
	<path style="&st1;" d="M41.438,24.58v9.915"/>
	<path style="&st1;" d="M18.055,20.33h17.017"/>
	<path style="&st1;" d="M17.619,54.325h17.893"/>
	<path style="&st1;" d="M20.525,57.157h12.079"/>
	<path style="&st0;" d="M23.565,59.99h6"/>
	<path style="&st1;" d="M11.692,34.495c0,0.782,0.634,1.417,1.417,1.417"/>
	<path style="&st1;" d="M40.021,35.911c0.782,0,1.417-0.634,1.417-1.417"/>
	<path style="&st1;" d="M41.438,24.58c0-0.782-0.634-1.417-1.417-1.417"/>
	<path style="&st1;" d="M13.109,23.163c-0.782,0-1.417,0.634-1.417,1.417"/>
	<path style="&st1;" d="M16.65,47.242c0,0.783,0.634,1.417,1.417,1.417"/>
	<path style="&st1;" d="M35.063,48.659c0.782,0,1.417-0.634,1.417-1.417"/>
	<path style="&st1;" d="M18.055,20.33c-4.693,0-8.498,3.805-8.498,8.499"/>
	<path style="&st1;" d="M9.557,28.829c0,1.108,0.176,2.047,0.577,3.08"/>
	<path style="&st1;" d="M42.993,31.908c1.701-4.375-0.467-9.299-4.841-11"/>
	<path style="&st1;" d="M38.151,20.908c-1.033-0.401-1.972-0.578-3.08-0.578"/>
	<path style="&st1;" d="M16.299,47.755c0.216,0.558,0.722,0.904,1.32,0.904"/>
	<path style="&st1;" d="M35.511,48.659c0.598,0,1.104-0.346,1.32-0.903"/>
	<path style="&st1;" d="M35.511,54.325c2.988,0,5.518-1.731,6.601-4.516"/>
	<path style="&st1;" d="M11.018,49.809c1.083,2.785,3.613,4.515,6.601,4.515"/>
	<path style="&st1;" d="M16.639,3.333c-0.782,0-1.417,0.634-1.417,1.417"/>
	<path style="&st1;" d="M37.905,4.75c0-0.782-0.634-1.417-1.417-1.417"/>
	<path style="&st1;" d="M15.222,15.231c0,0.469,0.38,0.85,0.85,0.85"/>
	<path style="&st1;" d="M17.205,16.081c0.469,0,0.85-0.381,0.85-0.85"/>
	<path style="&st1;" d="M20.888,15.231c0,0.469,0.381,0.85,0.85,0.85"/>
	<path style="&st1;" d="M31.389,16.081c0.469,0,0.85-0.381,0.85-0.85"/>
	<path style="&st1;" d="M35.072,15.231c0,0.469,0.381,0.85,0.85,0.85"/>
	<path style="&st1;" d="M37.055,16.081c0.47,0,0.85-0.381,0.85-0.85"/>
	<path style="&st1;" d="M19.471,5.316c-0.782,0-1.417,0.634-1.417,1.417"/>
	<path style="&st1;" d="M35.072,6.732c0-0.782-0.634-1.417-1.416-1.417"/>
	<path style="&st1;" d="M19.471,11.548c-0.782,0-1.417,0.634-1.417,1.417"/>
	<path style="&st1;" d="M35.072,12.965c0-0.782-0.634-1.417-1.416-1.417"/>
	<path style="&st1;" d="M48.826,32.545c2.835-7.291-0.777-15.5-8.068-18.334"/>
	<path style="&st1;" d="M40.757,14.211c-0.971-0.377-1.825-0.611-2.853-0.778"/>
	<path style="&st1;" d="M15.222,13.432C7.501,14.693,2.264,21.975,3.525,29.696"/>
	<path style="&st1;" d="M3.525,29.696c0.168,1.027,0.401,1.88,0.778,2.85"/>
	<path style="&st0;" d="M10.692,11.84C2.319,15.503-1.649,25.056,1.664,33.574"/>
	<path style="&st0;" d="M10.692,11.84c1.057-0.462,1.697-1.441,1.697-2.595"/>
	<path style="&st1;" d="M7.324,48.126c2.166,5.57,7.225,9.031,13.201,9.031"/>
	<path style="&st1;" d="M32.604,57.157c5.976,0,11.036-3.461,13.202-9.031"/>
	<path style="&st0;" d="M51.466,33.574c3.313-8.519-0.656-18.072-9.031-21.735"/>
	<path style="&st0;" d="M40.738,9.245c0,1.154,0.64,2.133,1.697,2.595"/>
	<path style="&st0;" d="M18.055,0.5c-3.129,0-5.666,2.537-5.666,5.666"/>
	<path style="&st0;" d="M40.738,6.166c0-3.129-2.537-5.666-5.666-5.666"/>
	<path style="&st0;" d="M7.724,49.155c2.599,6.683,8.671,10.836,15.841,10.836"/>
	<path style="&st0;" d="M29.565,59.99c7.17,0,13.242-4.153,15.841-10.836"/>
	<path style="&st1;" d="M16.65,35.911v11.331"/>
	<path style="&st1;" d="M26.565,35.911v12.748"/>
	<path style="&st1;" d="M36.48,35.911v11.331"/>
	<path style="&st1;" d="M10.134,31.908l6.165,15.847"/>
	<path style="&st1;" d="M42.993,31.908l-6.162,15.847"/>
	<path style="&st1;" d="M48.826,32.545l-6.714,17.264"/>
	<path style="&st1;" d="M15.222,4.75v8.499"/>
	<path style="&st1;" d="M37.905,13.248V4.75"/>
	<path style="&st1;" d="M16.639,3.333h19.85"/>
	<path style="&st1;" d="M37.905,13.248v1.983"/>
	<path style="&st1;" d="M35.072,12.965v2.267"/>
	<path style="&st1;" d="M35.922,16.081h1.133"/>
	<path style="&st1;" d="M32.239,13.432v1.799"/>
	<path style="&st1;" d="M20.888,13.432v1.799"/>
	<path style="&st1;" d="M21.738,16.081h9.651"/>
	<path style="&st1;" d="M15.222,13.248v1.983"/>
	<path style="&st1;" d="M18.055,12.965v2.267"/>
	<path style="&st1;" d="M16.072,16.081h1.133"/>
	<path style="&st1;" d="M15.222,10.698h2.833"/>
	<path style="&st1;" d="M35.072,10.698h2.833"/>
	<path style="&st1;" d="M18.055,9.849h17.017"/>
	<path style="&st1;" d="M18.055,7.866h17.017"/>
	<path style="&st1;" d="M19.471,11.548h14.185"/>
	<path style="&st1;" d="M19.471,5.316h14.185"/>
	<path style="&st1;" d="M20.888,7.866v1.983"/>
	<path style="&st1;" d="M32.239,7.866v1.983"/>
	<path style="&st1;" d="M18.055,6.591h17.017"/>
	<path style="&st1;" d="M18.055,6.732v6.232"/>
	<path style="&st1;" d="M35.072,6.732v6.232"/>
	<path style="&st1;" d="M37.905,13.432H15.222"/>
	<path style="&st1;" d="M4.304,32.545l6.714,17.264"/>
	<path style="&st0;" d="M12.389,6.166v3.079"/>
	<path style="&st0;" d="M1.664,33.574l6.06,15.581"/>
	<path style="&st0;" d="M51.466,33.574l-6.06,15.581"/>
	<path style="&st0;" d="M40.738,9.245V6.166"/>
	<path style="&st0;" d="M18.055,0.5h17.017"/>
	<g ewd:pinNo="1">
		<text transform="matrix(1 0 0 1 15.0645 31.6577)"><tspan x="0" y="0" style="&st3; &st2;">1</tspan></text>
	</g>
	<g ewd:pinNo="2">
		<text transform="matrix(1 0 0 1 24.9795 31.6577)"><tspan x="0" y="0" style="&st3; &st2;">2</tspan></text>
	</g>
	<g ewd:pinNo="3">
		<text transform="matrix(1 0 0 1 34.8945 31.6577)"><tspan x="0" y="0" style="&st3; &st2;">3</tspan></text>
	</g>
	<g ewd:pinNo="4">
		<text transform="matrix(1 0 0 1 20.022 44.4053)"><tspan x="0" y="0" style="&st3; &st2;">4</tspan></text>
	</g>
	<g ewd:pinNo="5">
		<text transform="matrix(1 0 0 1 29.937 44.4053)"><tspan x="0" y="0" style="&st3; &st2;">5</tspan></text>
	</g>
</g>
</svg>