<?xml version="1.0"?>
<!-- Generator: Adobe Illustrator 10.0, SVG Export Plug-In . SVG Version: 3.0.0 Build 77)  -->
<!DOCTYPE svg PUBLIC "-//W3C//DTD SVG 1.0//EN" "http://www.w3.org/TR/2001/REC-SVG-20010904/DTD/svg10.dtd"[
	<!ENTITY ns_flows "http://ns.adobe.com/Flows/1.0/">
	<!ENTITY ns_svg "http://www.w3.org/2000/svg">
	<!ENTITY ns_xlink "http://www.w3.org/1999/xlink">
	<!ENTITY st0 "fill:none;stroke:#000000;stroke-linecap:round;stroke-linejoin:round;">
	<!ENTITY st1 "fill:none;stroke:#000000;stroke-width:0.6;stroke-linecap:round;stroke-linejoin:round;">
	<!ENTITY st2 "font-size:6px;">
	<!ENTITY st3 "font-family:'Arial';">
	<!ATTLIST svg
		ewd:ver CDATA #IMPLIED
		xmlns:ewd CDATA #FIXED "http://shcl.co.jp/ewd"
		xmlns:a CDATA #FIXED "http://ns.adobe.com/AdobeSVGViewerExtensions/3.0/">
	<!ATTLIST g
		ewd:pinNo CDATA #IMPLIED>
]>
<svg width="125.929" height="57.232" viewBox="0 0 125.929 57.232" style="overflow:visible;enable-background:new 0 0 125.929 57.232" xml:space="preserve" onload="call_execInitLoadProc_svg('connector')" ewd:ver="2.1.2.9" xmlns="&ns_svg;" xmlns:ewd="http://shcl.co.jp/ewd" xmlns:a="http://ns.adobe.com/AdobeSVGViewerExtensions/3.0/" xmlns:xlink="&ns_xlink;">
<script type="text/javascript" xlink:href="../../../../../system/js/ewd/fig/svgfig.js"/>
<g id="レイヤー_1">
	<path style="&st1;" d="M24.013,16.789h67.989"/>
	<path style="&st0;" d="M1.916,6.166H39.31"/>
	<path style="&st1;" d="M3.333,53.191h119.264"/>
	<path style="&st1;" d="M46.675,1.917h31.162"/>
	<path style="&st0;" d="M46.675,0.5h31.162"/>
	<path style="&st1;" d="M3.333,49.65v2.833"/>
	<path style="&st1;" d="M24.013,15.373v32.011"/>
	<path style="&st1;" d="M49.508,16.789V5.458"/>
	<path style="&st1;" d="M75.004,5.458v11.332"/>
	<path style="&st0;" d="M80.67,3.333v6.374"/>
	<path style="&st0;" d="M43.843,3.333v6.374"/>
	<path style="&st1;" d="M57.253,11.124h9.96"/>
	<path style="&st1;" d="M92.001,47.384V15.373"/>
	<path style="&st1;" d="M87.752,15.373V7.866"/>
	<path style="&st1;" d="M58.007,16.789v30.595"/>
	<path style="&st1;" d="M49.508,16.789v30.595"/>
	<path style="&st1;" d="M41.01,16.789v30.595"/>
	<path style="&st1;" d="M32.511,16.789v30.595"/>
	<path style="&st1;" d="M66.505,16.789v30.595"/>
	<path style="&st1;" d="M75.004,16.789v30.595"/>
	<path style="&st1;" d="M83.503,16.789v30.595"/>
	<path style="&st1;" d="M26.846,47.384v4.391"/>
	<path style="&st1;" d="M29.678,47.384v4.391"/>
	<path style="&st1;" d="M33.928,49.65v3.541"/>
	<path style="&st1;" d="M39.593,49.65v3.541"/>
	<path style="&st1;" d="M91.293,49.65v3.541"/>
	<path style="&st1;" d="M85.627,49.65v3.541"/>
	<path style="&st1;" d="M32.511,16.789v5.949"/>
	<path style="&st1;" d="M92.001,32.512H24.013"/>
	<path style="&st1;" d="M2.483,28.121h21.53"/>
	<path style="&st1;" d="M92.001,28.121h31.444"/>
	<path style="&st1;" d="M36.761,15.373V7.866"/>
	<path style="&st0;" d="M85.203,6.166h38.81"/>
	<path style="&st1;" d="M24.013,31.095H3.049"/>
	<path style="&st1;" d="M122.879,31.095H92.001"/>
	<path style="&st0;" d="M0.5,49.65V7.583"/>
	<path style="&st1;" d="M26.846,49.65H2.483"/>
	<path style="&st1;" d="M2.483,30.387V14.523"/>
	<path style="&st0;" d="M3.333,52.483v2.119"/>
	<path style="&st1;" d="M123.452,49.65H98.375"/>
	<path style="&st1;" d="M122.596,49.65v2.833"/>
	<path style="&st0;" d="M125.429,49.65V7.583"/>
	<path style="&st1;" d="M123.446,30.387V14.523"/>
	<path style="&st0;" d="M122.596,52.483v2.119"/>
	<path style="&st1;" d="M2.483,15.373H41.01"/>
	<path style="&st1;" d="M24.013,43.984H2.483"/>
	<path style="&st1;" d="M13.248,15.373v12.748"/>
	<path style="&st1;" d="M13.248,31.095v12.889"/>
	<path style="&st1;" d="M92.001,43.984h31.444"/>
	<path style="&st1;" d="M123.446,15.373H83.503"/>
	<path style="&st1;" d="M102.483,28.121V15.373"/>
	<path style="&st1;" d="M112.964,28.121V15.373"/>
	<path style="&st1;" d="M102.483,43.984V31.095"/>
	<path style="&st1;" d="M112.964,43.984V31.095"/>
	<path style="&st1;" d="M3.899,13.106h32.861"/>
	<path style="&st1;" d="M120.046,49.65v-2.267"/>
	<path style="&st1;" d="M95.542,49.65H29.678"/>
	<path style="&st1;" d="M87.752,13.106h34.278"/>
	<path style="&st0;" d="M3.333,54.602c0,0.417,0.292,0.765,0.703,0.837"/>
	<path style="&st0;" d="M80.67,3.333c0-1.564-1.269-2.833-2.833-2.833"/>
	<path style="&st0;" d="M46.675,0.5c-1.564,0-2.833,1.269-2.833,2.833"/>
	<path style="&st1;" d="M80.67,4.75c0-1.564-1.269-2.833-2.833-2.833"/>
	<path style="&st1;" d="M46.675,1.917c-1.564,0-2.833,1.269-2.833,2.833"/>
	<path style="&st0;" d="M43.843,9.707c0,0.782,0.634,1.417,1.417,1.417"/>
	<path style="&st0;" d="M79.253,11.124c0.782,0,1.417-0.634,1.417-1.417"/>
	<path style="&st1;" d="M87.752,7.866c0-0.939-0.761-1.7-1.7-1.7"/>
	<path style="&st0;" d="M41.01,7.866c0-0.939-0.761-1.7-1.7-1.7"/>
	<path style="&st1;" d="M38.46,6.166c-0.939,0-1.7,0.761-1.7,1.7"/>
	<path style="&st0;" d="M85.203,6.166c-0.939,0-1.7,0.761-1.7,1.7"/>
	<path style="&st1;" d="M96.959,53.191c0.782,0,1.416-0.634,1.416-1.417"/>
	<path style="&st1;" d="M95.542,51.775c0,0.782,0.634,1.417,1.417,1.417"/>
	<path style="&st1;" d="M26.846,51.775c0,0.782,0.634,1.417,1.416,1.417"/>
	<path style="&st1;" d="M28.262,53.191c0.783,0,1.417-0.634,1.417-1.417"/>
	<path style="&st0;" d="M1.916,6.166C1.134,6.166,0.5,6.8,0.5,7.583"/>
	<path style="&st1;" d="M0.5,47.667c0,1.095,0.888,1.983,1.983,1.983"/>
	<path style="&st0;" d="M0.5,49.65c0,1.564,1.269,2.833,2.833,2.833"/>
	<path style="&st0;" d="M121.894,55.441c0.412-0.073,0.704-0.42,0.704-0.839"/>
	<path style="&st0;" d="M125.429,7.583c0-0.783-0.634-1.417-1.417-1.417"/>
	<path style="&st1;" d="M123.446,49.65c1.095,0,1.983-0.888,1.983-1.983"/>
	<path style="&st0;" d="M122.596,52.483c1.564,0,2.833-1.269,2.833-2.833"/>
	<path style="&st1;" d="M3.899,13.106c-0.782,0-1.417,0.634-1.417,1.417"/>
	<path style="&st1;" d="M123.446,14.523c0-0.782-0.634-1.417-1.416-1.417"/>
	<path style="&st1;" d="M76.42,11.124v-4.25l-1.417-1.417h-2.125"/>
	<path style="&st1;" d="M51.633,5.458h-2.125l-1.417,1.417v4.25"/>
	<path style="&st1;" d="M60.132,4.75h-8.499v4.958h8.499V4.75"/>
	<path style="&st1;" d="M72.879,4.75h-8.499v4.958h8.499V4.75"/>
	<path style="&st1;" d="M67.214,9.707v5.666h-9.915V9.707"/>
	<path style="&st1;" d="M0.5,30.387h2.549v2.833H0.5"/>
	<path style="&st1;" d="M125.429,30.387h-2.55v2.833h2.55"/>
	<path style="&st0;" d="M4.036,55.441l7.331,1.292h103.195l7.332-1.292"/>
	<path style="&st1;" d="M5.882,47.384l-3.399-3.399V33.22"/>
	<path style="&st0;" d="M41.01,7.866v7.507h5.666l1.417-1.417v-2.833h-2.833"/>
	<path style="&st0;" d="M83.503,7.866v7.507h-5.666l-1.417-1.417v-2.833h2.833"/>
	<path style="&st1;" d="M98.375,51.775v-4.391h21.671l3.399-3.399V33.22"/>
	<path style="&st1;" d="M95.542,51.775v-4.391H5.882v2.267"/>
	<path style="&st1;" d="M5.316,13.106V8.058h1.793l1.323-1.892"/>
	<path style="&st1;" d="M12.964,13.106V8.058h-1.793L9.848,6.166"/>
	<path style="&st1;" d="M101.917,13.106V8.058h-1.793L98.8,6.166"/>
	<path style="&st1;" d="M94.268,13.106V8.058h1.793l1.323-1.892"/>
	<path style="&st1;" d="M112.964,13.106V8.058h1.793l1.323-1.892"/>
	<path style="&st1;" d="M120.613,13.106V8.058h-1.793l-1.323-1.892"/>
	<path style="&st1;" d="M24.013,13.106V8.058h1.793l1.323-1.892"/>
	<path style="&st1;" d="M31.662,13.106V8.058h-1.793l-1.323-1.892"/>
	<g ewd:pinNo="1">
		<text transform="matrix(1 0 0 1 6.3042 23.7837)"><tspan x="0" y="0" style="&st3; &st2;">1</tspan></text>
	</g>
	<g ewd:pinNo="2">
		<text transform="matrix(1 0 0 1 17.0688 23.7837)"><tspan x="0" y="0" style="&st3; &st2;">2</tspan></text>
	</g>
	<g ewd:pinNo="3">
		<text transform="matrix(1 0 0 1 26.7007 26.6875)"><tspan x="0" y="0" style="&st3; &st2;">3</tspan></text>
	</g>
	<g ewd:pinNo="4">
		<text transform="matrix(1 0 0 1 35.1992 26.6875)"><tspan x="0" y="0" style="&st3; &st2;">4</tspan></text>
	</g>
	<g ewd:pinNo="5">
		<text transform="matrix(1 0 0 1 43.6978 26.6875)"><tspan x="0" y="0" style="&st3; &st2;">5</tspan></text>
	</g>
	<g ewd:pinNo="6">
		<text transform="matrix(1 0 0 1 52.1963 26.6875)"><tspan x="0" y="0" style="&st3; &st2;">6</tspan></text>
	</g>
	<g ewd:pinNo="7">
		<text transform="matrix(1 0 0 1 60.6948 26.6875)"><tspan x="0" y="0" style="&st3; &st2;">7</tspan></text>
	</g>
	<g ewd:pinNo="8">
		<text transform="matrix(1 0 0 1 69.1938 26.6875)"><tspan x="0" y="0" style="&st3; &st2;">8</tspan></text>
	</g>
	<g ewd:pinNo="9">
		<text transform="matrix(1 0 0 1 77.6924 26.6875)"><tspan x="0" y="0" style="&st3; &st2;">9</tspan></text>
	</g>
	<g ewd:pinNo="10">
		<text transform="matrix(1 0 0 1 84.1499 26.6875)"><tspan x="0" y="0" style="&st3; &st2;">10</tspan></text>
	</g>
	<g ewd:pinNo="11">
		<text transform="matrix(1 0 0 1 93.8628 23.7837)"><tspan x="0" y="0" style="&st3; &st2;">11</tspan></text>
	</g>
	<g ewd:pinNo="12">
		<text transform="matrix(1 0 0 1 104.1216 23.7837)"><tspan x="0" y="0" style="&st3; &st2;">12</tspan></text>
	</g>
	<g ewd:pinNo="13">
		<text transform="matrix(1 0 0 1 114.6035 23.7837)"><tspan x="0" y="0" style="&st3; &st2;">13</tspan></text>
	</g>
	<g ewd:pinNo="14">
		<text transform="matrix(1 0 0 1 4.2632 39.5771)"><tspan x="0" y="0" style="&st3; &st2;">14</tspan></text>
	</g>
	<g ewd:pinNo="15">
		<text transform="matrix(1 0 0 1 15.0283 39.5771)"><tspan x="0" y="0" style="&st3; &st2;">15</tspan></text>
	</g>
	<g ewd:pinNo="16">
		<text transform="matrix(1 0 0 1 24.6602 42.4097)"><tspan x="0" y="0" style="&st3; &st2;">16</tspan></text>
	</g>
	<g ewd:pinNo="17">
		<text transform="matrix(1 0 0 1 33.1587 42.4097)"><tspan x="0" y="0" style="&st3; &st2;">17</tspan></text>
	</g>
	<g ewd:pinNo="18">
		<text transform="matrix(1 0 0 1 41.6572 42.4097)"><tspan x="0" y="0" style="&st3; &st2;">18</tspan></text>
	</g>
	<g ewd:pinNo="19">
		<text transform="matrix(1 0 0 1 50.1558 42.4097)"><tspan x="0" y="0" style="&st3; &st2;">19</tspan></text>
	</g>
	<g ewd:pinNo="20">
		<text transform="matrix(1 0 0 1 58.9873 42.4097)"><tspan x="0" y="0" style="&st3; &st2;">20</tspan></text>
	</g>
	<g ewd:pinNo="21">
		<text transform="matrix(1 0 0 1 67.4858 42.4097)"><tspan x="0" y="0" style="&st3; &st2;">21</tspan></text>
	</g>
	<g ewd:pinNo="22">
		<text transform="matrix(1 0 0 1 75.9844 42.4097)"><tspan x="0" y="0" style="&st3; &st2;">22</tspan></text>
	</g>
	<g ewd:pinNo="23">
		<text transform="matrix(1 0 0 1 84.4829 42.4097)"><tspan x="0" y="0" style="&st3; &st2;">23</tspan></text>
	</g>
	<g ewd:pinNo="24">
		<text transform="matrix(1 0 0 1 93.7837 39.5771)"><tspan x="0" y="0" style="&st3; &st2;">24</tspan></text>
	</g>
	<g ewd:pinNo="25">
		<text transform="matrix(1 0 0 1 104.2656 39.5771)"><tspan x="0" y="0" style="&st3; &st2;">25</tspan></text>
	</g>
	<g ewd:pinNo="26">
		<text transform="matrix(1 0 0 1 114.7476 39.5771)"><tspan x="0" y="0" style="&st3; &st2;">26</tspan></text>
	</g>
</g>
</svg>