<?xml version="1.0"?>
<!-- Generator: Adobe Illustrator 10.0, SVG Export Plug-In . SVG Version: 3.0.0 Build 77)  -->
<!DOCTYPE svg PUBLIC "-//W3C//DTD SVG 1.0//EN" "http://www.w3.org/TR/2001/REC-SVG-20010904/DTD/svg10.dtd"[
	<!ENTITY ns_flows "http://ns.adobe.com/Flows/1.0/">
	<!ENTITY ns_svg "http://www.w3.org/2000/svg">
	<!ENTITY ns_xlink "http://www.w3.org/1999/xlink">
	<!ENTITY st0 "fill:none;">
	<!ENTITY st1 "stroke:#000000;">
	<!ENTITY st2 "stroke-linecap:round;">
	<!ENTITY st3 "stroke-linejoin:round;">
	<!ENTITY st4 "stroke-width:0.6;">
	<!ENTITY st5 "font-size:6px;">
	<!ENTITY st6 "font-family:'Arial';">
	<!ENTITY st7 "stroke-width:1.4;">
	<!ATTLIST svg
		ewd:ver CDATA #IMPLIED
		xmlns:ewd CDATA #FIXED "http://shcl.co.jp/ewd"
		xmlns:a CDATA #FIXED "http://ns.adobe.com/AdobeSVGViewerExtensions/3.0/">
	<!ATTLIST g
		ewd:pinNo CDATA #IMPLIED>
]>
<svg width="119.58" height="75.372" viewBox="0 0 119.58 75.372" style="overflow:visible;enable-background:new 0 0 63.324 58.366" xml:space="preserve" onload="call_execInitLoadProc_svg('connector')" ewd:ver="2.1.2.9" xmlns="&ns_svg;" xmlns:ewd="http://shcl.co.jp/ewd" xmlns:a="http://ns.adobe.com/AdobeSVGViewerExtensions/3.0/" xmlns:xlink="&ns_xlink;">
<script type="text/javascript" xlink:href="../../../../../system/js/ewd/fig/svgfig.js"/>
<g id="レイヤー_1" transform="translate(0,17.008)">
	<path style="&st0;&st1;&st4;&st2;&st3;" d="M48.659,29.704v6.394"/>
	<path style="&st0;&st1;&st4;&st2;&st3;" d="M14.665,29.704v6.394"/>
	<path style="&st0;&st1;&st4;&st2;&st3;" d="M31.662,23.871v18.06"/>
	<path style="&st0;&st1;&st4;&st2;&st3;" d="M58.22,29.704v6.394"/>
	<path style="&st0;&st1;&st4;&st2;&st3;" d="M5.104,29.704v6.394"/>
	<path style="&st0;&st1;&st2;&st3;" d="M62.823,29.704v6.394"/>
	<path style="&st0;&st1;&st2;&st3;" d="M0.5,29.704v6.394"/>
	<path style="&st0;&st1;&st2;&st3;" d="M26.705,57.866h-9.207"/>
	<path style="&st0;&st1;&st2;&st3;" d="M61.132,22.072L53.931,6.633"/>
	<path style="&st0;&st1;&st2;&st3;" d="M9.393,6.633L2.191,22.072"/>
	<path style="&st0;&st1;&st4;&st2;&st3;" d="M40.798,10.061H22.526"/>
	<path style="&st0;&st1;&st2;&st3;" d="M44.305,0.5H19.019"/>
	<path style="&st0;&st1;&st4;&st2;&st3;" d="M42.957,3.687H20.367"/>
	<path style="&st0;&st1;&st4;&st2;&st3;" d="M43.348,7.937H21.563"/>
	<path style="&st0;&st1;&st4;&st2;&st3;" d="M34.849,14.345v0.827"/>
	<path style="&st0;&st1;&st4;&st2;&st3;" d="M28.475,14.345v0.827"/>
	<path style="&st0;&st1;&st4;&st2;&st3;" d="M46.534,11.124v5.312"/>
	<path style="&st0;&st1;&st4;&st2;&st3;" d="M16.79,11.124v5.312"/>
	<path style="&st0;&st1;&st4;&st2;&st3;" d="M19.976,12.611v2.549"/>
	<path style="&st0;&st1;&st4;&st2;&st3;" d="M43.348,12.611v2.549"/>
	<path style="&st0;&st1;&st4;&st2;&st3;" d="M21.563,7.937h-1.586"/>
	<path style="&st0;&st1;&st4;&st2;&st3;" d="M23.007,10.061L22.818,8.99"/>
	<path style="&st0;&st1;&st4;&st2;&st3;" d="M40.506,8.99l-0.189,1.071"/>
	<path style="&st0;&st1;&st4;&st2;&st3;" d="M3.688,29.704v6.394"/>
	<path style="&st0;&st1;&st4;&st2;&st3;" d="M59.636,29.704v6.394"/>
	<path style="&st0;&st1;&st4;&st2;&st3;" d="M52.342,29.704v6.394"/>
	<path style="&st0;&st1;&st4;&st2;&st3;" d="M10.982,29.704v6.394"/>
	<path style="&st0;&st1;&st4;&st2;&st3;" d="M43.82,24.416c-8.527-0.763-15.79-0.763-24.317,0"/>
	<path style="&st0;&st1;&st4;&st2;&st3;" d="M19.503,41.387c8.527,0.763,15.79,0.763,24.317,0"/>
	<path style="&st0;&st1;&st4;&st2;&st3;" d="M48.659,29.704c0-2.767-2.083-5.044-4.838-5.291"/>
	<path style="&st0;&st1;&st4;&st2;&st3;" d="M43.82,41.387c2.755-0.246,4.837-2.522,4.837-5.289"/>
	<path style="&st0;&st1;&st4;&st2;&st3;" d="M19.503,24.416c-2.755,0.246-4.837,2.522-4.837,5.289"/>
	<path style="&st0;&st1;&st4;&st2;&st3;" d="M14.665,36.098c0,2.767,2.083,5.044,4.838,5.291"/>
	<path style="&st0;&st1;&st4;&st2;&st3;" d="M24.226,51.302c7.187,0.366,13.28,0.25,20.448-0.391"/>
	<path style="&st0;&st1;&st4;&st2;&st3;" d="M44.673,50.911c7.716-0.691,13.546-7.066,13.546-14.813"/>
	<path style="&st0;&st1;&st4;&st2;&st3;" d="M58.22,29.704c0-6.304-3.672-11.64-9.561-13.892"/>
	<path style="&st0;&st1;&st4;&st2;&st3;" d="M14.665,15.812c-5.889,2.251-9.561,7.587-9.561,13.892"/>
	<path style="&st0;&st1;&st4;&st2;&st3;" d="M5.104,36.098c0,7.747,5.831,14.123,13.547,14.813"/>
	<path style="&st0;&st1;&st4;&st2;&st3;" d="M43.348,14.778c-8.2-0.658-15.172-0.658-23.372,0"/>
	<path style="&st0;&st1;&st2;&st3;" d="M30.854,54.662c5.462,0.082,10.078-0.09,15.519-0.577"/>
	<path style="&st0;&st1;&st2;&st3;" d="M46.373,54.086c9.37-0.838,16.451-8.581,16.451-17.989"/>
	<path style="&st0;&st1;&st2;&st3;" d="M62.823,29.704c0-2.77-0.521-5.121-1.691-7.631"/>
	<path style="&st0;&st1;&st2;&st3;" d="M2.191,22.072C1.021,24.583,0.5,26.934,0.5,29.704"/>
	<path style="&st0;&st1;&st2;&st3;" d="M0.5,36.098c0,8.284,5.317,15.245,13.309,17.424"/>
	<path style="&st0;&st1;&st4;&st2;&st3;" d="M18.65,50.911c0.466,0.042,0.859,0.075,1.326,0.112"/>
	<path style="&st0;&st1;&st2;&st3;" d="M26.705,57.866c0.987,0,1.815-0.644,2.059-1.601"/>
	<path style="&st0;&st1;&st2;&st3;" d="M15.375,55.656c-0.047,1.171,0.865,2.16,2.037,2.207"/>
	<path style="&st0;&st1;&st2;&st3;" d="M17.413,57.863c0.03,0.001,0.055,0.001,0.085,0.001"/>
	<path style="&st0;&st1;&st2;&st3;" d="M30.854,54.662c-0.999-0.015-1.846,0.635-2.091,1.603"/>
	<path style="&st0;&st1;&st2;&st3;" d="M15.375,55.656c0.041-1.005-0.595-1.873-1.565-2.137"/>
	<path style="&st0;&st1;&st4;&st2;&st3;" d="M33.557,16.446c-1.333-0.018-2.458-0.018-3.791,0"/>
	<path style="&st0;&st1;&st2;&st3;" d="M53.931,6.633c-1.791-3.839-5.39-6.131-9.626-6.131"/>
	<path style="&st0;&st1;&st2;&st3;" d="M19.019,0.5c-4.237,0-7.836,2.293-9.627,6.133"/>
	<path style="&st0;&st1;&st4;&st2;&st3;" d="M47.141,7.2c-0.362-2.054-2.098-3.512-4.184-3.512"/>
	<path style="&st0;&st1;&st4;&st2;&st3;" d="M20.367,3.687c-2.086,0-3.823,1.458-4.185,3.513"/>
	<path style="&st0;&st1;&st4;&st2;&st3;" d="M33.557,16.446c0.704,0.01,1.282-0.554,1.292-1.258"/>
	<path style="&st0;&st1;&st4;&st2;&st3;" d="M34.849,15.188c0-0.006,0-0.011,0-0.017"/>
	<path style="&st0;&st1;&st4;&st2;&st3;" d="M28.475,15.172c0,0.704,0.57,1.274,1.274,1.274"/>
	<path style="&st0;&st1;&st4;&st2;&st3;" d="M29.75,16.446c0.006,0,0.011,0,0.017,0"/>
	<path style="&st0;&st1;&st4;&st2;&st3;" d="M43.348,15.16c0,0.704,0.57,1.275,1.274,1.275"/>
	<path style="&st0;&st1;&st4;&st2;&st3;" d="M46.534,11.124c0-1.76-1.427-3.187-3.187-3.187"/>
	<path style="&st0;&st1;&st4;&st2;&st3;" d="M19.976,7.937c-1.76,0-3.187,1.427-3.187,3.187"/>
	<path style="&st0;&st1;&st4;&st2;&st3;" d="M41.761,7.937c-0.626,0-1.147,0.438-1.256,1.054"/>
	<path style="&st0;&st1;&st4;&st2;&st3;" d="M22.818,8.99c-0.109-0.616-0.629-1.053-1.255-1.053"/>
	<path style="&st0;&st1;&st4;&st2;&st3;" d="M18.702,16.435c0.704,0,1.274-0.571,1.274-1.275"/>
	<path style="&st0;&st1;&st4;&st2;&st3;" d="M43.348,12.611c0-1.408-1.142-2.55-2.55-2.55"/>
	<path style="&st0;&st1;&st4;&st2;&st3;" d="M22.526,10.061c-1.408,0-2.55,1.142-2.55,2.55"/>
	<path style="&st0;&st1;&st4;&st2;&st3;" d="M14.948,14.211C8.101,16.433,3.688,22.506,3.688,29.704"/>
	<path style="&st0;&st1;&st4;&st2;&st3;" d="M3.688,36.098c0,8.486,6.387,15.469,14.838,16.225"/>
	<path style="&st0;&st1;&st4;&st2;&st3;" d="M25.642,52.786c6.736,0.275,12.441,0.137,19.156-0.463"/>
	<path style="&st0;&st1;&st4;&st2;&st3;" d="M44.798,52.322c8.451-0.756,14.838-7.739,14.838-16.224"/>
	<path style="&st0;&st1;&st4;&st2;&st3;" d="M59.636,29.704c0-7.199-4.413-13.271-11.26-15.493"/>
	<path style="&st0;&st1;&st4;&st2;&st3;" d="M18.56,54.679c0,0.782,0.634,1.417,1.416,1.417"/>
	<path style="&st0;&st1;&st4;&st2;&st3;" d="M24.226,56.095c0.782,0,1.417-0.634,1.417-1.417"/>
	<path style="&st0;&st1;&st4;&st2;&st3;" d="M8.656,28.996c-0.782,0-1.417,0.634-1.417,1.417"/>
	<path style="&st0;&st1;&st4;&st2;&st3;" d="M7.24,35.39c0,0.782,0.634,1.417,1.417,1.417"/>
	<path style="&st0;&st1;&st4;&st2;&st3;" d="M56.084,30.413c0-0.783-0.634-1.417-1.417-1.417"/>
	<path style="&st0;&st1;&st4;&st2;&st3;" d="M54.667,36.806c0.782,0,1.417-0.634,1.417-1.417"/>
	<path style="&st0;&st1;&st4;&st2;&st3;" d="M44.149,20.747c-8.757-0.783-16.217-0.783-24.974,0"/>
	<path style="&st0;&st1;&st4;&st2;&st3;" d="M52.342,29.704c0-4.685-3.526-8.541-8.192-8.958"/>
	<path style="&st0;&st1;&st4;&st2;&st3;" d="M44.149,45.056c4.666-0.418,8.192-4.273,8.192-8.958"/>
	<path style="&st0;&st1;&st4;&st2;&st3;" d="M19.175,45.056c8.757,0.783,16.217,0.783,24.974,0"/>
	<path style="&st0;&st1;&st4;&st2;&st3;" d="M10.982,36.098c0,4.686,3.526,8.541,8.192,8.959"/>
	<path style="&st0;&st1;&st4;&st2;&st3;" d="M19.175,20.747c-4.666,0.417-8.192,4.273-8.192,8.958"/>
	<path style="&st0;&st1;&st4;&st2;&st3;" d="M44.622,16.435h2.958l1.08-0.623L47.141,7.2"/>
	<path style="&st0;&st1;&st4;&st2;&st3;" d="M16.183,7.2l-1.519,8.612l1.08,0.623h2.958"/>
	<path style="&st0;&st1;&st4;&st2;&st3;" d="M19.976,51.024v3.654h4.25v-3.377"/>
	<path style="&st0;&st1;&st4;&st2;&st3;" d="M11.237,27.58h-5.98"/>
	<path style="&st0;&st1;&st4;&st2;&st3;" d="M11.237,38.223h-5.98"/>
	<path style="&st0;&st1;&st4;&st2;&st3;" d="M52.087,27.58h5.98"/>
	<path style="&st0;&st1;&st4;&st2;&st3;" d="M52.087,38.223h5.98"/>
	<path style="&st0;&st1;&st4;&st2;&st3;" d="M18.56,52.325v2.354"/>
	<path style="&st0;&st1;&st4;&st2;&st3;" d="M19.976,56.095h4.25"/>
	<path style="&st0;&st1;&st4;&st2;&st3;" d="M25.642,54.679v-1.893"/>
	<path style="&st0;&st1;&st4;&st2;&st3;" d="M10.982,28.996H8.656"/>
	<path style="&st0;&st1;&st4;&st2;&st3;" d="M11.01,36.806H8.656"/>
	<path style="&st0;&st1;&st4;&st2;&st3;" d="M7.24,30.413v4.977"/>
	<path style="&st0;&st1;&st4;&st2;&st3;" d="M7.24,30.413l-2.136,1.073"/>
	<path style="&st0;&st1;&st4;&st2;&st3;" d="M5.104,34.319L7.24,35.39"/>
	<path style="&st0;&st1;&st4;&st2;&st3;" d="M52.342,28.996h2.326"/>
	<path style="&st0;&st1;&st4;&st2;&st3;" d="M52.313,36.806h2.354"/>
	<path style="&st0;&st1;&st4;&st2;&st3;" d="M56.084,30.413v4.977"/>
	<path style="&st0;&st1;&st4;&st2;&st3;" d="M56.084,30.413l2.136,1.073"/>
	<path style="&st0;&st1;&st4;&st2;&st3;" d="M58.22,34.319l-2.136,1.071"/>
	<g ewd:pinNo="1">
		<text transform="matrix(1 0 0 1 21.4951 34.7339)"><tspan x="0" y="0" style="&st6; &st5;">1</tspan></text>
	</g>
	<g ewd:pinNo="2">
		<text transform="matrix(1 0 0 1 38.4922 34.7339)"><tspan x="0" y="0" style="&st6; &st5;">2</tspan></text>
	</g>
</g>
<g id="レイヤー_1" transform="translate(83.165,17.008)">
	<path style="&st0;&st1;&st4;&st2;&st3;" d="M6.876,14.305v4.261"/>
	<path style="&st0;&st1;&st4;&st2;&st3;" d="M29.539,14.305v4.261"/>
	<path style="&st0;&st1;&st4;&st2;&st3;" d="M18.208,10.416v12.04"/>
	<path style="&st0;&st1;&st2;&st3;" d="M0.502,14.305v4.261"/>
	<path style="&st0;&st1;&st2;&st3;" d="M35.913,14.305v4.261"/>
	<path style="&st0;&st1;&st4;&st2;&st3;" d="M33.08,14.305v4.261"/>
	<path style="&st0;&st1;&st4;&st2;&st3;" d="M3.335,14.305v4.261"/>
	<path style="&st0;&st1;&st2;&st3;" d="M6.876,34.141h22.663"/>
	<path style="&st0;&st1;&st4;&st2;&st3;" d="M24.582,31.308v1.983"/>
	<path style="&st0;&st1;&st2;&st3;" d="M31.664,26.704v5.312"/>
	<path style="&st0;&st1;&st2;&st3;" d="M4.751,26.704v5.312"/>
	<path style="&st0;&st1;&st4;&st2;&st3;" d="M23.165,31.308v-2.606"/>
	<path style="&st0;&st1;&st4;&st2;&st3;" d="M21.041,31.308v-2.521"/>
	<path style="&st0;&st1;&st4;&st2;&st3;" d="M15.375,28.786v2.521"/>
	<path style="&st0;&st1;&st4;&st2;&st3;" d="M26.313,10.778c-5.684-0.508-10.525-0.508-16.209,0"/>
	<path style="&st0;&st1;&st4;&st2;&st3;" d="M10.103,22.092c5.684,0.508,10.525,0.508,16.209,0"/>
	<path style="&st0;&st1;&st4;&st2;&st3;" d="M10.103,10.778c-1.838,0.164-3.227,1.682-3.227,3.527"/>
	<path style="&st0;&st1;&st4;&st2;&st3;" d="M6.876,18.565c0,1.845,1.389,3.363,3.227,3.527"/>
	<path style="&st0;&st1;&st4;&st2;&st3;" d="M29.539,14.305c0-1.845-1.389-3.363-3.227-3.527"/>
	<path style="&st0;&st1;&st4;&st2;&st3;" d="M26.313,22.092c1.838-0.164,3.227-1.682,3.227-3.527"/>
	<path style="&st0;&st1;&st4;&st2;&st3;" d="M9.534,28.441c4.778,0.427,8.84,0.505,13.631,0.261"/>
	<path style="&st0;&st1;&st2;&st3;" d="M0.502,18.565c0,3.355,1.496,6.22,4.25,8.137"/>
	<path style="&st0;&st1;&st4;&st2;&st3;" d="M26.876,28.443c1.804-0.16,3.301-0.704,4.788-1.739"/>
	<path style="&st0;&st1;&st4;&st2;&st3;" d="M25.998,28.517c0.309-0.025,0.569-0.047,0.878-0.074"/>
	<path style="&st0;&st1;&st2;&st3;" d="M26.446,4.39c-2.145-0.182-3.961-0.279-6.113-0.326"/>
	<path style="&st0;&st1;&st2;&st3;" d="M7.845,4.727C3.439,5.91,0.5,9.742,0.5,14.305"/>
	<path style="&st0;&st1;&st2;&st3;" d="M35.913,14.305c0-4.561-2.938-8.393-7.343-9.576"/>
	<path style="&st0;&st1;&st4;&st2;&st3;" d="M26.63,7.251c-5.907-0.528-10.938-0.528-16.844,0"/>
	<path style="&st0;&st1;&st4;&st2;&st3;" d="M33.08,14.305c0-3.689-2.776-6.725-6.45-7.054"/>
	<path style="&st0;&st1;&st4;&st2;&st3;" d="M26.63,25.619c3.674-0.329,6.45-3.365,6.45-7.054"/>
	<path style="&st0;&st1;&st4;&st2;&st3;" d="M9.786,25.619c5.907,0.528,10.938,0.528,16.844,0"/>
	<path style="&st0;&st1;&st4;&st2;&st3;" d="M3.335,18.565c0,3.688,2.776,6.725,6.451,7.054"/>
	<path style="&st0;&st1;&st4;&st2;&st3;" d="M9.786,7.251c-3.674,0.329-6.45,3.365-6.45,7.054"/>
	<path style="&st0;&st1;&st2;&st3;" d="M4.751,32.016c0,1.174,0.951,2.125,2.125,2.125"/>
	<path style="&st0;&st1;&st2;&st3;" d="M29.539,34.141c1.173,0,2.125-0.951,2.125-2.125"/>
	<path style="&st0;&st1;&st4;&st2;&st3;" d="M10.984,34.141c0.469,0,0.85-0.381,0.85-0.85"/>
	<path style="&st0;&st1;&st4;&st2;&st3;" d="M24.582,33.291c0,0.469,0.381,0.85,0.85,0.85"/>
	<path style="&st0;&st1;&st2;&st3;" d="M16.083,4.064C13.931,4.111,12.115,4.208,9.97,4.39"/>
	<path style="&st0;&st1;&st4;&st2;&st3;" d="M20.333,4.064c-1.494-0.033-2.756-0.033-4.25,0"/>
	<path style="&st0;&st1;&st4;&st2;&st3;" d="M4.751,26.704c1.485,1.034,2.98,1.577,4.782,1.738"/>
	<path style="&st0;&st1;&st2;&st3;" d="M31.664,26.704c2.754-1.917,4.25-4.782,4.25-8.139"/>
	<path style="&st0;&st1;&st2;&st3;" d="M20.333,4.064V0.5h-4.25v3.564"/>
	<path style="&st0;&st1;&st2;&st3;" d="M9.97,4.39V0.5H7.845v4.227"/>
	<path style="&st0;&st1;&st2;&st3;" d="M28.57,4.727V0.5h-2.125v3.89"/>
	<path style="&st0;&st1;&st4;&st2;&st3;" d="M11.834,33.291v-1.983h14.164v-2.791"/>
	<path style="&st0;&st1;&st4;&st2;&st3;" d="M16.792,31.308v1.417h2.833v-1.417"/>
	<g ewd:pinNo="1">
		<text transform="matrix(1 0 0 1 22.5776 18.6846)"><tspan x="0" y="0" style="&st6; &st5;">1</tspan></text>
	</g>
	<g ewd:pinNo="2">
		<text transform="matrix(1 0 0 1 11.2461 18.6846)"><tspan x="0" y="0" style="&st6; &st5;">2</tspan></text>
	</g>
</g>
<path d="M31.662,9.069v-8.504h69.7105v8.504" style="&st0;&st1;&st7;&st2;&st3;"/>
</svg>