<?xml version="1.0"?>
<!-- Generator: Adobe Illustrator 10.0, SVG Export Plug-In . SVG Version: 3.0.0 Build 77)  -->
<!DOCTYPE svg PUBLIC "-//W3C//DTD SVG 1.0//EN" "http://www.w3.org/TR/2001/REC-SVG-20010904/DTD/svg10.dtd"[
	<!ENTITY ns_flows "http://ns.adobe.com/Flows/1.0/">
	<!ENTITY ns_svg "http://www.w3.org/2000/svg">
	<!ENTITY ns_xlink "http://www.w3.org/1999/xlink">
	<!ENTITY st0 "fill:none;">
	<!ENTITY st1 "stroke:#000000;">
	<!ENTITY st2 "stroke-linecap:round;">
	<!ENTITY st3 "stroke-linejoin:round;">
	<!ENTITY st4 "stroke-width:0.6;">
	<!ENTITY st5 "font-size:6px;">
	<!ENTITY st6 "font-family:'Arial';">
	<!ENTITY st7 "stroke-width:1.4;">
	<!ATTLIST svg
		ewd:ver CDATA #IMPLIED
		xmlns:ewd CDATA #FIXED "http://shcl.co.jp/ewd"
		xmlns:a CDATA #FIXED "http://ns.adobe.com/AdobeSVGViewerExtensions/3.0/">
	<!ATTLIST g
		ewd:pinNo CDATA #IMPLIED>
]>
<svg width="126.844" height="71.446" viewBox="0 0 126.844 71.446" style="overflow:visible;enable-background:new 0 0 54.915 54.44" xml:space="preserve" onload="call_execInitLoadProc_svg('connector')" ewd:ver="2.1.2.9" xmlns="&ns_svg;" xmlns:ewd="http://shcl.co.jp/ewd" xmlns:a="http://ns.adobe.com/AdobeSVGViewerExtensions/3.0/" xmlns:xlink="&ns_xlink;">
<script type="text/javascript" xlink:href="../../../../../system/js/ewd/fig/svgfig.js"/>
<g id="レイヤー_1" transform="translate(0,17.008)">
	<path style="&st0;&st1;&st2;&st3;" d="M39.59,53.94h5.658"/>
	<path style="&st0;&st1;&st2;&st3;" d="M54.415,23.407v14.272"/>
	<path style="&st0;&st1;&st2;&st3;" d="M0.5,23.407v14.272"/>
	<path style="&st0;&st1;&st4;&st2;&st3;" d="M53.001,29.478v2.542"/>
	<path style="&st0;&st1;&st4;&st2;&st3;" d="M1.914,29.478v2.542"/>
	<path style="&st0;&st1;&st4;&st2;&st3;" d="M50.879,23.81v13.875"/>
	<path style="&st0;&st1;&st4;&st2;&st3;" d="M4.036,23.81v13.875"/>
	<path style="&st0;&st1;&st4;&st2;&st3;" d="M46.194,24.92v15.063"/>
	<path style="&st0;&st1;&st4;&st2;&st3;" d="M8.721,24.92v15.063"/>
	<path style="&st0;&st1;&st4;&st2;&st3;" d="M40.715,9.693v2.68"/>
	<path style="&st0;&st1;&st4;&st2;&st3;" d="M14.2,9.693v2.68"/>
	<path style="&st0;&st1;&st4;&st2;&st3;" d="M2.763,28.628h1.272"/>
	<path style="&st0;&st1;&st4;&st2;&st3;" d="M2.763,32.869h1.272"/>
	<path style="&st0;&st1;&st4;&st2;&st3;" d="M50.879,28.628h1.272"/>
	<path style="&st0;&st1;&st4;&st2;&st3;" d="M50.879,32.869h1.272"/>
	<path style="&st0;&st1;&st4;&st2;&st3;" d="M18.619,8.263v4.25"/>
	<path style="&st0;&st1;&st4;&st2;&st3;" d="M36.296,8.263v4.25"/>
	<path style="&st0;&st1;&st2;&st3;" d="M47.899,50.056v1.232"/>
	<path style="&st0;&st1;&st4;&st2;&st3;" d="M14.2,9.693h1.7"/>
	<path style="&st0;&st1;&st4;&st2;&st3;" d="M16.749,8.263h21.417"/>
	<path style="&st0;&st1;&st4;&st2;&st3;" d="M15.899,9.113v0.581"/>
	<path style="&st0;&st1;&st4;&st2;&st3;" d="M39.016,9.113v0.581"/>
	<path style="&st0;&st1;&st4;&st2;&st3;" d="M39.016,9.693h1.7"/>
	<path style="&st0;&st1;&st4;&st2;&st3;" d="M22.449,17.699v21.887"/>
	<path style="&st0;&st1;&st4;&st2;&st3;" d="M32.466,17.699v21.887"/>
	<path style="&st0;&st1;&st4;&st2;&st3;" d="M12.432,29h30.051"/>
	<path style="&st0;&st1;&st4;&st2;&st3;" d="M40.953,52.24h2.932"/>
	<path style="&st0;&st1;&st4;&st2;&st3;" d="M44.735,47.317v4.074"/>
	<path style="&st0;&st1;&st4;&st2;&st3;" d="M40.104,48.317v3.074"/>
	<path style="&st0;&st1;&st2;&st3;" d="M37.2,52.436c0.453,0.944,1.343,1.505,2.391,1.505"/>
	<path style="&st0;&st1;&st2;&st3;" d="M45.248,53.94c1.464,0,2.651-1.187,2.651-2.651"/>
	<path style="&st0;&st1;&st4;&st2;&st3;" d="M40.596,13.192c-9.236-0.295-17.042-0.295-26.277,0"/>
	<path style="&st0;&st1;&st2;&st3;" d="M14.208,51.835c7.805,0.251,14.4,0.286,22.207,0.116"/>
	<path style="&st0;&st1;&st4;&st2;&st3;" d="M14.316,48.303c9.063,0.292,16.724,0.296,25.788,0.016"/>
	<path style="&st0;&st1;&st4;&st2;&st3;" d="M35.857,4.41c-5.893-0.497-10.907-0.497-16.799,0"/>
	<path style="&st0;&st1;&st4;&st2;&st3;" d="M39.319,17.841c-8.338-0.243-15.384-0.243-23.723,0"/>
	<path style="&st0;&st1;&st4;&st2;&st3;" d="M40.715,9.693c0-2.772-2.096-5.052-4.858-5.284"/>
	<path style="&st0;&st1;&st4;&st2;&st3;" d="M19.058,4.41c-2.762,0.232-4.857,2.512-4.857,5.283"/>
	<path style="&st0;&st1;&st2;&st3;" d="M44.208,8.821c-0.426-4.292-3.755-7.573-8.053-7.936"/>
	<path style="&st0;&st1;&st2;&st3;" d="M36.154,0.886c-6.101-0.515-11.293-0.515-17.394,0"/>
	<path style="&st0;&st1;&st2;&st3;" d="M18.761,0.889c-4.296,0.362-7.625,3.642-8.051,7.932"/>
	<path style="&st0;&st1;&st4;&st2;&st3;" d="M14.2,45.646c9.319,0.305,17.196,0.305,26.516,0"/>
	<path style="&st0;&st1;&st4;&st2;&st3;" d="M34.239,6.059c-4.761-0.33-8.802-0.33-13.564,0"/>
	<path style="&st0;&st1;&st4;&st2;&st3;" d="M20.675,6.059c-1.163,0.081-2.056,1.038-2.056,2.204"/>
	<path style="&st0;&st1;&st4;&st2;&st3;" d="M36.296,8.263c0-1.166-0.893-2.123-2.057-2.204"/>
	<path style="&st0;&st1;&st4;&st2;&st3;" d="M2.763,28.628c-0.469,0-0.85,0.38-0.85,0.85"/>
	<path style="&st0;&st1;&st4;&st2;&st3;" d="M1.914,32.02c0,0.469,0.38,0.85,0.85,0.85"/>
	<path style="&st0;&st1;&st4;&st2;&st3;" d="M53.001,29.478c0-0.469-0.381-0.85-0.85-0.85"/>
	<path style="&st0;&st1;&st4;&st2;&st3;" d="M52.151,32.869c0.469,0,0.85-0.38,0.85-0.85"/>
	<path style="&st0;&st1;&st4;&st2;&st3;" d="M13.378,13.223c0.459-0.015,0.822-0.39,0.822-0.85"/>
	<path style="&st0;&st1;&st4;&st2;&st3;" d="M40.715,12.374c0,0.459,0.362,0.834,0.821,0.849"/>
	<path style="&st0;&st1;&st4;&st2;&st3;" d="M16.749,8.263c-0.469,0-0.85,0.381-0.85,0.85"/>
	<path style="&st0;&st1;&st4;&st2;&st3;" d="M39.016,9.113c0-0.469-0.38-0.85-0.85-0.85"/>
	<path style="&st0;&st1;&st2;&st3;" d="M0.5,37.679c0,7.662,6.05,13.91,13.708,14.157"/>
	<path style="&st0;&st1;&st2;&st3;" d="M48.268,49.356c3.979-2.732,6.147-6.851,6.147-11.677"/>
	<path style="&st0;&st1;&st2;&st3;" d="M48.268,49.356c-0.238,0.164-0.368,0.411-0.368,0.7"/>
	<path style="&st0;&st1;&st2;&st3;" d="M37.2,52.436c-0.148-0.31-0.444-0.492-0.788-0.484"/>
	<path style="&st0;&st1;&st4;&st2;&st3;" d="M4.036,37.685c0,5.747,4.537,10.432,10.28,10.618"/>
	<path style="&st0;&st1;&st4;&st2;&st3;" d="M44.735,47.317c3.846-1.788,6.144-5.391,6.144-9.632"/>
	<path style="&st0;&st1;&st4;&st2;&st3;" d="M8.721,39.982c0,3.063,2.417,5.562,5.479,5.663"/>
	<path style="&st0;&st1;&st4;&st2;&st3;" d="M40.715,45.646c3.062-0.101,5.479-2.6,5.479-5.663"/>
	<path style="&st0;&st1;&st4;&st2;&st3;" d="M14.319,13.192C8.574,13.376,4.036,18.062,4.036,23.81"/>
	<path style="&st0;&st1;&st4;&st2;&st3;" d="M50.879,23.81c0-5.748-4.539-10.434-10.283-10.618"/>
	<path style="&st0;&st1;&st4;&st2;&st3;" d="M43.885,52.24c0.469,0,0.85-0.38,0.85-0.85"/>
	<path style="&st0;&st1;&st4;&st2;&st3;" d="M40.104,51.391c0,0.469,0.38,0.85,0.85,0.85"/>
	<path style="&st0;&st1;&st2;&st3;" d="M54.415,23.407c-0.164-5.75-3.482-10.539-8.807-12.712"/>
	<path style="&st0;&st1;&st2;&st3;" d="M9.307,10.696c-5.325,2.173-8.643,6.962-8.806,12.711"/>
	<path style="&st0;&st1;&st2;&st3;" d="M44.208,8.821c0.085,0.86,0.6,1.548,1.4,1.874"/>
	<path style="&st0;&st1;&st2;&st3;" d="M9.307,10.696c0.801-0.326,1.315-1.015,1.4-1.875"/>
	<path style="&st0;&st1;&st4;&st2;&st3;" d="M46.194,24.92c0-3.838-3.038-6.967-6.875-7.079"/>
	<path style="&st0;&st1;&st4;&st2;&st3;" d="M15.596,17.841c-3.837,0.112-6.875,3.241-6.875,7.079"/>
	<path style="&st0;&st1;&st4;&st2;&st3;" d="M42.483,18.691v20.895H12.432V18.691"/>
	<path style="&st0;&st1;&st4;&st2;&st3;" d="M22.925,10.104h9.065v2.408h-9.065V10.104"/>
	<g ewd:pinNo="1">
		<text transform="matrix(1 0 0 1 15.8262 25.4907)"><tspan x="0" y="0" style="&st6; &st5;">1</tspan></text>
	</g>
	<g ewd:pinNo="2">
		<text transform="matrix(1 0 0 1 25.8428 25.4907)"><tspan x="0" y="0" style="&st6; &st5;">2</tspan></text>
	</g>
	<g ewd:pinNo="3">
		<text transform="matrix(1 0 0 1 35.8599 25.4907)"><tspan x="0" y="0" style="&st6; &st5;">3</tspan></text>
	</g>
	<g ewd:pinNo="4">
		<text transform="matrix(1 0 0 1 15.8262 36.4507)"><tspan x="0" y="0" style="&st6; &st5;">4</tspan></text>
	</g>
	<g ewd:pinNo="5">
		<text transform="matrix(1 0 0 1 25.8428 36.4507)"><tspan x="0" y="0" style="&st6; &st5;">5</tspan></text>
	</g>
	<g ewd:pinNo="6">
		<text transform="matrix(1 0 0 1 35.8599 36.4507)"><tspan x="0" y="0" style="&st6; &st5;">6</tspan></text>
	</g>
</g>
<g id="レイヤー_1" transform="translate(74.756,17.008)">
	<path style="&st0;&st1;&st2;&st3;" d="M12.786,5.968v3.484"/>
	<path style="&st0;&st1;&st2;&st3;" d="M39.302,5.968v3.484"/>
	<path style="&st0;&st1;&st4;&st2;&st3;" d="M30.814,14.583v20.992"/>
	<path style="&st0;&st1;&st4;&st2;&st3;" d="M21.273,14.583v20.992"/>
	<path style="&st0;&st1;&st4;&st2;&st3;" d="M40.353,25.493h-28.62"/>
	<path style="&st0;&st1;&st2;&st3;" d="M18.355,51.22h15.365"/>
	<path style="&st0;&st1;&st2;&st3;" d="M14.814,45.399v2.28"/>
	<path style="&st0;&st1;&st2;&st3;" d="M37.262,45.399v2.28"/>
	<path style="&st0;&st1;&st4;&st2;&st3;" d="M5.455,20.85v13.875"/>
	<path style="&st0;&st1;&st4;&st2;&st3;" d="M46.633,20.85v13.875"/>
	<path style="&st0;&st1;&st4;&st2;&st3;" d="M7.154,20.85v13.875"/>
	<path style="&st0;&st1;&st4;&st2;&st3;" d="M44.933,20.85v13.875"/>
	<path style="&st0;&st1;&st4;&st2;&st3;" d="M28.877,45.543v2.844"/>
	<path style="&st0;&st1;&st4;&st2;&st3;" d="M23.211,45.543v2.844"/>
	<path style="&st0;&st1;&st4;&st2;&st3;" d="M23.211,46.971h5.666"/>
	<path style="&st0;&st1;&st4;&st2;&st3;" d="M15.619,5.26v4.025"/>
	<path style="&st0;&st1;&st4;&st2;&st3;" d="M36.469,5.26v4.025"/>
	<path style="&st0;&st1;&st4;&st2;&st3;" d="M2.622,25.668v4.241"/>
	<path style="&st0;&st1;&st4;&st2;&st3;" d="M49.466,25.668v4.241"/>
	<path style="&st0;&st1;&st4;&st2;&st3;" d="M13.709,4.41h1.06"/>
	<path style="&st0;&st1;&st4;&st2;&st3;" d="M37.319,4.41h1.056"/>
	<path style="&st0;&st1;&st4;&st2;&st3;" d="M35.599,10.133c-6.718-0.156-12.393-0.156-19.11,0"/>
	<path style="&st0;&st1;&st2;&st3;" d="M14.265,45.385c0.193,0.005,0.356,0.01,0.55,0.016"/>
	<path style="&st0;&st1;&st2;&st3;" d="M39.186,45.342c5.743-0.186,10.28-4.871,10.28-10.618"/>
	<path style="&st0;&st1;&st2;&st3;" d="M2.622,34.725c0,4.512,2.635,8.331,6.853,9.932"/>
	<path style="&st0;&st1;&st2;&st3;" d="M49.466,20.85c0-5.44-4.006-9.933-9.411-10.554"/>
	<path style="&st0;&st1;&st2;&st3;" d="M12.033,10.297c-5.404,0.621-9.41,5.113-9.41,10.553"/>
	<path style="&st0;&st1;&st4;&st2;&st3;" d="M13.001,13.064c-4.214,0.132-7.545,3.569-7.545,7.785"/>
	<path style="&st0;&st1;&st4;&st2;&st3;" d="M5.455,34.725c0,4.214,3.327,7.65,7.538,7.786"/>
	<path style="&st0;&st1;&st4;&st2;&st3;" d="M39.092,42.509c4.212-0.135,7.54-3.571,7.54-7.785"/>
	<path style="&st0;&st1;&st4;&st2;&st3;" d="M12.993,42.509c9.173,0.296,16.926,0.296,26.099,0"/>
	<path style="&st0;&st1;&st4;&st2;&st3;" d="M46.633,20.85c0-4.215-3.328-7.652-7.541-7.787"/>
	<path style="&st0;&st1;&st4;&st2;&st3;" d="M39.092,13.064c-9.17-0.292-16.92-0.292-26.09,0"/>
	<path style="&st0;&st1;&st4;&st2;&st3;" d="M39.052,14.764c-9.144-0.292-16.873-0.292-26.017,0"/>
	<path style="&st0;&st1;&st4;&st2;&st3;" d="M13.035,14.764c-3.287,0.113-5.879,2.796-5.879,6.085"/>
	<path style="&st0;&st1;&st4;&st2;&st3;" d="M7.154,34.725c0,3.299,2.609,5.988,5.907,6.088"/>
	<path style="&st0;&st1;&st4;&st2;&st3;" d="M13.061,40.813c9.125,0.294,16.838,0.294,25.963,0"/>
	<path style="&st0;&st1;&st4;&st2;&st3;" d="M39.024,40.813c3.298-0.098,5.909-2.788,5.909-6.088"/>
	<path style="&st0;&st1;&st4;&st2;&st3;" d="M44.933,20.85c0-3.291-2.593-5.974-5.881-6.087"/>
	<path style="&st0;&st1;&st2;&st3;" d="M14.814,47.679c0,1.956,1.585,3.541,3.541,3.541"/>
	<path style="&st0;&st1;&st2;&st3;" d="M33.721,51.22c1.956,0,3.541-1.585,3.541-3.541"/>
	<path style="&st0;&st1;&st4;&st2;&st3;" d="M19.812,51.22c0.626,0,1.133-0.507,1.133-1.133"/>
	<path style="&st0;&st1;&st4;&st2;&st3;" d="M31.143,50.087c0,0.625,0.507,1.133,1.133,1.133"/>
	<path style="&st0;&st1;&st2;&st3;" d="M36.126,1.858c-6.935-1.811-13.229-1.811-20.165,0"/>
	<path style="&st0;&st1;&st2;&st3;" d="M15.961,1.858c-1.9,0.496-3.174,2.146-3.174,4.11"/>
	<path style="&st0;&st1;&st2;&st3;" d="M39.302,5.968c0-1.965-1.274-3.615-3.175-4.111"/>
	<path style="&st0;&st1;&st4;&st2;&st3;" d="M15.619,9.286c0,0.469,0.38,0.85,0.85,0.85"/>
	<path style="&st0;&st1;&st4;&st2;&st3;" d="M16.469,10.135c0.007,0,0.013,0,0.02,0"/>
	<path style="&st0;&st1;&st4;&st2;&st3;" d="M16.469,4.41c-0.469,0-0.85,0.381-0.85,0.85"/>
	<path style="&st0;&st1;&st4;&st2;&st3;" d="M36.469,5.26c0-0.469-0.38-0.85-0.85-0.85"/>
	<path style="&st0;&st1;&st4;&st2;&st3;" d="M35.599,10.133c0.468,0.011,0.856-0.36,0.867-0.828"/>
	<path style="&st0;&st1;&st4;&st2;&st3;" d="M36.466,9.305c0-0.007,0-0.013,0-0.02"/>
	<path style="&st0;&st1;&st2;&st3;" d="M39.302,9.453c0,0.436,0.321,0.795,0.753,0.845"/>
	<path style="&st0;&st1;&st2;&st3;" d="M12.033,10.297c0.432-0.049,0.753-0.409,0.753-0.844"/>
	<path style="&st0;&st1;&st2;&st3;" d="M14.273,45.385c-0.468-0.014-0.858,0.354-0.873,0.821"/>
	<path style="&st0;&st1;&st2;&st3;" d="M13.401,46.206c0,0.009,0,0.017,0,0.026"/>
	<path style="&st0;&st1;&st4;&st2;&st3;" d="M14.814,45.399c7.89,0.217,14.557,0.217,22.447,0"/>
	<path style="&st0;&st1;&st2;&st3;" d="M37.262,45.399c0.676-0.019,1.248-0.036,1.924-0.058"/>
	<path style="&st0;&st1;&st4;&st2;&st3;" d="M15.619,5.26c0-0.469-0.381-0.85-0.85-0.85"/>
	<path style="&st0;&st1;&st4;&st2;&st3;" d="M13.709,4.41c-0.407,0-0.747,0.276-0.832,0.674"/>
	<path style="&st0;&st1;&st4;&st2;&st3;" d="M37.319,4.41c-0.47,0-0.85,0.381-0.85,0.85"/>
	<path style="&st0;&st1;&st4;&st2;&st3;" d="M39.208,5.084c-0.084-0.399-0.425-0.676-0.833-0.676"/>
	<path style="&st0;&st1;&st4;&st2;&st3;" d="M11.732,14.951v20.624h28.62V14.951"/>
	<path style="&st0;&st1;&st4;&st2;&st3;" d="M31.143,50.087v-1.7H20.945v1.7"/>
	<path style="&st0;&st1;&st2;&st3;" d="M9.475,44.657v4.623h3.923v-3.048"/>
	<path style="&st0;&st1;&st2;&st3;" d="M2.622,34.725v-4.816H0.5v-4.241h2.122V20.85"/>
	<path style="&st0;&st1;&st2;&st3;" d="M49.466,20.85v4.818h2.122v4.241h-2.122v4.816"/>
	<path style="&st0;&st1;&st4;&st2;&st3;" d="M35.619,4.41h-6.034v1.884l-0.85,0.85h-5.382l-0.85-0.85V4.41h-6.034"/>
	<g ewd:pinNo="1">
		<text transform="matrix(1 0 0 1 33.9468 22.395)"><tspan x="0" y="0" style="&st6; &st5;">1</tspan></text>
	</g>
	<g ewd:pinNo="2">
		<text transform="matrix(1 0 0 1 24.4082 22.395)"><tspan x="0" y="0" style="&st6; &st5;">2</tspan></text>
	</g>
	<g ewd:pinNo="3">
		<text transform="matrix(1 0 0 1 14.8672 22.395)"><tspan x="0" y="0" style="&st6; &st5;">3</tspan></text>
	</g>
	<g ewd:pinNo="4">
		<text transform="matrix(1 0 0 1 33.9468 32.834)"><tspan x="0" y="0" style="&st6; &st5;">4</tspan></text>
	</g>
	<g ewd:pinNo="5">
		<text transform="matrix(1 0 0 1 24.4082 32.834)"><tspan x="0" y="0" style="&st6; &st5;">5</tspan></text>
	</g>
	<g ewd:pinNo="6">
		<text transform="matrix(1 0 0 1 14.8672 32.834)"><tspan x="0" y="0" style="&st6; &st5;">6</tspan></text>
	</g>
</g>
<path d="M27.4575,9.069v-8.504h73.3425v8.504" style="&st0;&st1;&st7;&st2;&st3;"/>
</svg>