<?xml version="1.0"?>
<!-- Generator: Adobe Illustrator 10.0, SVG Export Plug-In . SVG Version: 3.0.0 Build 77)  -->
<!DOCTYPE svg PUBLIC "-//W3C//DTD SVG 1.0//EN" "http://www.w3.org/TR/2001/REC-SVG-20010904/DTD/svg10.dtd"[
	<!ENTITY ns_flows "http://ns.adobe.com/Flows/1.0/">
	<!ENTITY ns_svg "http://www.w3.org/2000/svg">
	<!ENTITY ns_xlink "http://www.w3.org/1999/xlink">
	<!ENTITY st0 "fill:none;stroke:#000000;stroke-linecap:round;stroke-linejoin:round;">
	<!ENTITY st1 "fill:none;stroke:#000000;stroke-width:0.6;stroke-linecap:round;stroke-linejoin:round;">
	<!ENTITY st2 "font-size:6px;">
	<!ENTITY st3 "font-family:'Arial';">
	<!ATTLIST svg
		ewd:ver CDATA #IMPLIED
		xmlns:ewd CDATA #FIXED "http://shcl.co.jp/ewd"
		xmlns:a CDATA #FIXED "http://ns.adobe.com/AdobeSVGViewerExtensions/3.0/">
	<!ATTLIST g
		ewd:pinNo CDATA #IMPLIED>
]>
<svg width="37.827" height="53.833" viewBox="0 0 37.827 53.833" style="overflow:visible;enable-background:new 0 0 37.827 53.833" xml:space="preserve" onload="call_execInitLoadProc_svg('connector')" ewd:ver="2.1.2.9" xmlns="&ns_svg;" xmlns:ewd="http://shcl.co.jp/ewd" xmlns:a="http://ns.adobe.com/AdobeSVGViewerExtensions/3.0/" xmlns:xlink="&ns_xlink;">
<script type="text/javascript" xlink:href="../../../../../system/js/ewd/fig/svgfig.js"/>
<g id="レイヤー_1">
	<path style="&st1;" d="M10.415,49.084h16.997"/>
	<path style="&st1;" d="M27.412,18.206h-1.949"/>
	<path style="&st0;" d="M7.582,53.333h22.663"/>
	<path style="&st1;" d="M27.446,13.956v4.25"/>
	<path style="&st0;" d="M0.5,19.622v26.629"/>
	<path style="&st0;" d="M37.327,19.622v26.629"/>
	<path style="&st0;" d="M6.024,0.5h25.779"/>
	<path style="&st0;" d="M2.625,3.899v10.666"/>
	<path style="&st0;" d="M35.203,3.899v10.666"/>
	<path style="&st1;" d="M27.412,33.645H10.415"/>
	<path style="&st1;" d="M18.914,23.871V42.71"/>
	<path style="&st1;" d="M10.415,18.206h1.949"/>
	<path style="&st1;" d="M10.378,13.956v4.25"/>
	<path style="&st1;" d="M10.415,18.206c-2.347,0-4.25,1.902-4.25,4.25"/>
	<path style="&st1;" d="M31.662,22.455c0-2.347-1.903-4.25-4.25-4.25"/>
	<path style="&st1;" d="M6.166,44.834c0,2.347,1.903,4.25,4.25,4.25"/>
	<path style="&st1;" d="M27.412,49.084c2.347,0,4.25-1.903,4.25-4.25"/>
	<path style="&st1;" d="M28.862,12.54c-0.782,0-1.416,0.634-1.416,1.416"/>
	<path style="&st1;" d="M10.378,13.956c0-0.782-0.634-1.416-1.416-1.416"/>
	<path style="&st0;" d="M30.245,53.333c3.911,0,7.082-3.171,7.082-7.082"/>
	<path style="&st0;" d="M0.5,46.251c0,3.911,3.17,7.082,7.082,7.082"/>
	<path style="&st0;" d="M37.327,19.622c0-1.98-0.71-3.671-2.124-5.057"/>
	<path style="&st1;" d="M10.415,0.5c-1.564,0-2.833,1.269-2.833,2.833"/>
	<path style="&st1;" d="M30.245,3.333c0-1.564-1.269-2.833-2.833-2.833"/>
	<path style="&st0;" d="M6.024,0.5c-1.877,0-3.399,1.522-3.399,3.399"/>
	<path style="&st0;" d="M35.203,3.899c0-1.877-1.522-3.399-3.399-3.399"/>
	<path style="&st1;" d="M7.582,12.54c-1.931,0-3.579,0.673-4.958,2.025"/>
	<path style="&st0;" d="M2.625,14.565C1.211,15.952,0.5,17.642,0.5,19.622"/>
	<path style="&st1;" d="M35.203,14.565c-1.379-1.352-3.027-2.025-4.958-2.025"/>
	<path style="&st1;" d="M21.571,42.71h-5.314v2.125h5.314V42.71"/>
	<path style="&st1;" d="M6.166,44.834v-2.833l-1.417-1.417V26.704l1.417-1.417v-2.833"/>
	<path style="&st1;" d="M31.662,44.834v-2.833l1.416-1.417V26.704l-1.416-1.417v-2.833"/>
	<path style="&st1;" d="M12.364,21.038h13.099V6.166H12.364V21.038"/>
	<path style="&st1;" d="M12.364,16.789h1.946v-1.416h9.207v1.416h1.946"/>
	<path style="&st1;" d="M25.463,10.416h-2.92v2.125h-7.258v-2.125h-2.921"/>
	<path style="&st1;" d="M21.571,43.418h5.841V23.871H10.415v19.547h5.841"/>
	<path style="&st1;" d="M8.999,12.54H7.582V3.333"/>
	<path style="&st1;" d="M28.829,12.54h1.417V3.333"/>
	<g ewd:pinNo="1">
		<text transform="matrix(1 0 0 1 21.4824 30.7974)"><tspan x="0" y="0" style="&st3; &st2;">1</tspan></text>
	</g>
	<g ewd:pinNo="2">
		<text transform="matrix(1 0 0 1 12.9839 30.7974)"><tspan x="0" y="0" style="&st3; &st2;">2</tspan></text>
	</g>
	<g ewd:pinNo="4">
		<text transform="matrix(1 0 0 1 12.9839 40.5708)"><tspan x="0" y="0" style="&st3; &st2;">4</tspan></text>
	</g>
	<g ewd:pinNo="3">
		<text transform="matrix(1 0 0 1 21.4824 40.5708)"><tspan x="0" y="0" style="&st3; &st2;">3</tspan></text>
	</g>
</g>
</svg>