<?xml version="1.0"?>
<!-- Generator: Adobe Illustrator 10.0, SVG Export Plug-In . SVG Version: 3.0.0 Build 77)  -->
<!DOCTYPE svg PUBLIC "-//W3C//DTD SVG 1.0//EN" "http://www.w3.org/TR/2001/REC-SVG-20010904/DTD/svg10.dtd"[
	<!ENTITY ns_flows "http://ns.adobe.com/Flows/1.0/">
	<!ENTITY ns_svg "http://www.w3.org/2000/svg">
	<!ENTITY ns_xlink "http://www.w3.org/1999/xlink">
	<!ENTITY st0 "fill:none;stroke:#000000;stroke-linecap:round;stroke-linejoin:round;">
	<!ENTITY st1 "fill:none;stroke:#000000;stroke-width:0.6;stroke-linecap:round;stroke-linejoin:round;">
	<!ENTITY st2 "font-size:6px;">
	<!ENTITY st3 "font-family:'Arial';">
	<!ATTLIST svg
		ewd:ver CDATA #IMPLIED
		xmlns:ewd CDATA #FIXED "http://shcl.co.jp/ewd"
		xmlns:a CDATA #FIXED "http://ns.adobe.com/AdobeSVGViewerExtensions/3.0/">
	<!ATTLIST g
		ewd:pinNo CDATA #IMPLIED>
]>
<svg width="29.346" height="38.473" viewBox="0 0 29.346 38.473" style="overflow:visible;enable-background:new 0 0 29.346 38.473" xml:space="preserve" onload="call_execInitLoadProc_svg('connector')" ewd:ver="2.1.2.9" xmlns="&ns_svg;" xmlns:ewd="http://shcl.co.jp/ewd" xmlns:a="http://ns.adobe.com/AdobeSVGViewerExtensions/3.0/" xmlns:xlink="&ns_xlink;">
<script type="text/javascript" xlink:href="../../../../../system/js/ewd/fig/svgfig.js"/>
<g id="レイヤー_1">
	<path style="&st1;" d="M6.174,20.33v9.711"/>
	<path style="&st0;" d="M4.466,7.378h0.286"/>
	<path style="&st1;" d="M6.174,8.512v3.604"/>
	<path style="&st1;" d="M4.752,7.378h0.289"/>
	<path style="&st1;" d="M23.171,30.042V20.33"/>
	<path style="&st0;" d="M24.59,7.378h0.289"/>
	<path style="&st1;" d="M23.171,12.115V8.512"/>
	<path style="&st1;" d="M24.304,7.378h0.286"/>
	<path style="&st1;" d="M9.007,17.498c-1.564,0-2.833,1.268-2.833,2.833"/>
	<path style="&st1;" d="M23.171,20.33c0-1.564-1.269-2.833-2.833-2.833"/>
	<path style="&st1;" d="M6.174,30.042c0,1.564,1.269,2.833,2.833,2.833"/>
	<path style="&st0;" d="M3.333,30.042c0,2.387,1.38,4.408,3.604,5.277"/>
	<path style="&st0;" d="M4.466,7.378c-0.625,0-1.133,0.507-1.133,1.133"/>
	<path style="&st1;" d="M6.174,8.512c0-0.626-0.507-1.133-1.133-1.133"/>
	<path style="&st1;" d="M10.423,7.378c0,0.625,0.507,1.133,1.133,1.133"/>
	<path style="&st1;" d="M6.174,12.115c0,1.408,1.142,2.549,2.55,2.549"/>
	<path style="&st1;" d="M7.438,14.316c-2.474,0.709-4.105,2.874-4.105,5.448"/>
	<path style="&st0;" d="M6.937,35.319c0.755,1.658,2.302,2.654,4.125,2.654"/>
	<path style="&st1;" d="M20.338,32.874c1.564,0,2.833-1.268,2.833-2.833"/>
	<path style="&st1;" d="M20.347,35.707c0.742,0,1.371-0.119,2.062-0.389"/>
	<path style="&st0;" d="M26.013,8.512c0-0.626-0.507-1.133-1.133-1.133"/>
	<path style="&st1;" d="M24.304,7.378c-0.625,0-1.133,0.507-1.133,1.133"/>
	<path style="&st1;" d="M17.789,8.512c0.625,0,1.133-0.508,1.133-1.133"/>
	<path style="&st1;" d="M20.622,14.665c1.408,0,2.55-1.142,2.55-2.549"/>
	<path style="&st1;" d="M26.013,19.764c0-2.573-1.631-4.738-4.105-5.446"/>
	<path style="&st0;" d="M18.285,37.973c1.822,0,3.37-0.996,4.125-2.654"/>
	<path style="&st0;" d="M11.84,0.5c-0.782,0-1.417,0.634-1.417,1.417"/>
	<path style="&st0;" d="M18.922,1.917c0-0.782-0.634-1.417-1.416-1.417"/>
	<path style="&st1;" d="M6.937,35.319c0.691,0.27,1.32,0.389,2.062,0.389"/>
	<path style="&st0;" d="M22.409,35.319c2.224-0.869,3.604-2.89,3.604-5.277"/>
	<path style="&st1;" d="M10.021,22.313v7.586h9.303v-7.586"/>
	<path style="&st1;" d="M7.607,17.866v4.448h14.13v-4.448"/>
	<path style="&st1;" d="M12.548,10.211v1.417h2.125"/>
	<path style="&st0;" d="M10.423,7.378V1.917"/>
	<path style="&st1;" d="M11.557,8.512h3.116"/>
	<path style="&st1;" d="M10.423,6.245h4.25"/>
	<path style="&st1;" d="M12.548,6.245V4.121h2.125"/>
	<path style="&st1;" d="M16.797,10.211v1.417h-2.125"/>
	<path style="&st0;" d="M17.506,0.5h-2.833"/>
	<path style="&st1;" d="M17.789,8.512h-3.116"/>
	<path style="&st1;" d="M18.922,6.245h-4.249"/>
	<path style="&st1;" d="M16.797,6.245V4.121h-2.125"/>
	<path style="&st0;" d="M3.333,22.313H0.5v4.249h2.833"/>
	<path style="&st0;" d="M26.013,22.313h2.833v4.249h-2.833"/>
	<path style="&st1;" d="M20.338,17.498H9.007"/>
	<path style="&st0;" d="M10.423,7.378H4.752"/>
	<path style="&st1;" d="M6.174,10.211h8.499"/>
	<path style="&st1;" d="M9.007,32.874h11.332"/>
	<path style="&st1;" d="M14.673,10.211h8.499"/>
	<path style="&st1;" d="M20.622,14.665H8.724"/>
	<path style="&st1;" d="M8.999,35.707h11.349"/>
	<path style="&st1;" d="M18.922,7.378v2.833"/>
	<path style="&st0;" d="M14.673,37.973h-3.612"/>
	<path style="&st0;" d="M18.285,37.973h-3.612"/>
	<path style="&st0;" d="M3.333,22.313V8.512"/>
	<path style="&st0;" d="M26.013,26.563v3.479"/>
	<path style="&st0;" d="M24.59,7.378h-5.668"/>
	<path style="&st1;" d="M10.423,10.211V7.378"/>
	<path style="&st0;" d="M18.922,1.917v5.462"/>
	<path style="&st1;" d="M3.333,26.563v-4.249"/>
	<path style="&st0;" d="M26.013,8.512v13.802"/>
	<path style="&st0;" d="M3.333,30.042v-3.479"/>
	<path style="&st1;" d="M26.013,22.313v4.249"/>
	<path style="&st0;" d="M14.673,0.5H11.84"/>
	<g ewd:pinNo="1">
		<text transform="matrix(1 0 0 1 12.9961 28.3496)"><tspan x="0" y="0" style="&st3; &st2;">1</tspan></text>
	</g>
</g>
</svg>