<?xml version="1.0"?>
<!-- Generator: Adobe Illustrator 10.0, SVG Export Plug-In . SVG Version: 3.0.0 Build 77)  -->
<!DOCTYPE svg PUBLIC "-//W3C//DTD SVG 1.0//EN" "http://www.w3.org/TR/2001/REC-SVG-20010904/DTD/svg10.dtd"[
	<!ENTITY ns_flows "http://ns.adobe.com/Flows/1.0/">
	<!ENTITY ns_svg "http://www.w3.org/2000/svg">
	<!ENTITY ns_xlink "http://www.w3.org/1999/xlink">
	<!ENTITY st0 "fill:none;stroke:#000000;stroke-linecap:round;stroke-linejoin:round;">
	<!ENTITY st1 "fill:none;stroke:#000000;stroke-width:0.6;stroke-linecap:round;stroke-linejoin:round;">
	<!ENTITY st2 "font-size:6px;">
	<!ENTITY st3 "font-family:'Arial';">
	<!ATTLIST svg
		ewd:ver CDATA #IMPLIED
		xmlns:ewd CDATA #FIXED "http://shcl.co.jp/ewd"
		xmlns:a CDATA #FIXED "http://ns.adobe.com/AdobeSVGViewerExtensions/3.0/">
	<!ATTLIST g
		ewd:pinNo CDATA #IMPLIED>
]>
<svg width="46.327" height="54.118" viewBox="0 0 46.327 54.118" style="overflow:visible;enable-background:new 0 0 46.327 54.118" xml:space="preserve" onload="call_execInitLoadProc_svg('connector')" ewd:ver="2.1.2.9" xmlns="&ns_svg;" xmlns:ewd="http://shcl.co.jp/ewd" xmlns:a="http://ns.adobe.com/AdobeSVGViewerExtensions/3.0/" xmlns:xlink="&ns_xlink;">
<script type="text/javascript" xlink:href="../../../../../system/js/ewd/fig/svgfig.js"/>
<g id="レイヤー_1">
	<path style="&st1;" d="M23.163,19.622V32.37"/>
	<path style="&st1;" d="M27.886,36.619v9.915"/>
	<path style="&st1;" d="M18.441,36.619v9.915"/>
	<path style="&st0;" d="M35.911,8.007v6.099"/>
	<path style="&st0;" d="M10.416,8.007v6.099"/>
	<path style="&st1;" d="M10.416,35.203h9.915"/>
	<path style="&st1;" d="M13.249,8.007v7.346"/>
	<path style="&st1;" d="M33.078,8.007v7.346"/>
	<path style="&st1;" d="M21.039,33.078v1.417"/>
	<path style="&st1;" d="M25.288,33.078v1.417"/>
	<path style="&st1;" d="M25.996,35.203h9.915"/>
	<path style="&st1;" d="M36.62,33.078v1.417"/>
	<path style="&st1;" d="M9.707,33.078v1.417"/>
	<path style="&st0;" d="M0.5,38.415v-12.09"/>
	<path style="&st0;" d="M45.826,38.415v-12.09"/>
	<path style="&st0;" d="M1.163,24.503l3.649-4.349"/>
	<path style="&st0;" d="M41.515,44.585l3.648-4.348"/>
	<path style="&st0;" d="M45.163,24.503l-3.648-4.349"/>
	<path style="&st0;" d="M4.812,44.585l-3.649-4.348"/>
	<path style="&st0;" d="M18.914,0.5h8.499"/>
	<path style="&st1;" d="M29.537,9.707h3.541"/>
	<path style="&st1;" d="M13.249,9.707h3.541"/>
	<path style="&st1;" d="M16.79,10.416h12.748"/>
	<path style="&st0;" d="M18.336,53.616h9.655"/>
	<path style="&st0;" d="M16.331,52.786l-1.666-1.666"/>
	<path style="&st0;" d="M29.993,52.786l1.669-1.666"/>
	<path style="&st1;" d="M16.79,6.874v6.583"/>
	<path style="&st1;" d="M29.537,6.874v6.583"/>
	<path style="&st1;" d="M29.537,8.999H16.79"/>
	<path style="&st1;" d="M45.826,30.954h-3.552"/>
	<path style="&st1;" d="M42.274,33.786h3.552"/>
	<path style="&st1;" d="M0.5,30.954h3.552"/>
	<path style="&st1;" d="M4.053,33.786H0.5"/>
	<path style="&st1;" d="M35.911,14.087c-8.912-1.179-16.583-1.179-25.496,0"/>
	<path style="&st1;" d="M41.515,44.585c1.082-8.544,1.082-15.886,0-24.431"/>
	<path style="&st0;" d="M35.378,50.721c3.258-0.413,5.724-2.878,6.136-6.136"/>
	<path style="&st0;" d="M4.812,44.585c0.413,3.258,2.878,5.724,6.136,6.136"/>
	<path style="&st1;" d="M4.812,20.154c-1.083,8.544-1.083,15.887,0,24.431"/>
	<path style="&st1;" d="M10.948,14.019c-0.188,0.024-0.347,0.05-0.533,0.088"/>
	<path style="&st0;" d="M10.948,50.721c1.304,0.165,2.407,0.284,3.717,0.398"/>
	<path style="&st0;" d="M41.515,20.154c-0.389-3.069-2.573-5.426-5.604-6.047"/>
	<path style="&st0;" d="M11.549,6.874c-0.626,0-1.133,0.508-1.133,1.133"/>
	<path style="&st0;" d="M35.911,8.007c0-0.625-0.507-1.133-1.133-1.133"/>
	<path style="&st1;" d="M13.249,8.007c0-0.625-0.508-1.133-1.133-1.133"/>
	<path style="&st1;" d="M34.211,6.874c-0.626,0-1.133,0.508-1.133,1.133"/>
	<path style="&st1;" d="M35.021,16.829c-8.294-1.05-15.422-1.05-23.717,0"/>
	<path style="&st1;" d="M11.305,16.829c-1.955,0.248-3.435,1.728-3.683,3.683"/>
	<path style="&st1;" d="M7.622,20.512c-1.051,8.294-1.051,15.422,0,23.716"/>
	<path style="&st1;" d="M7.622,44.228c0.248,1.956,1.728,3.436,3.683,3.683"/>
	<path style="&st1;" d="M11.305,47.911c8.294,1.05,15.422,1.05,23.717,0"/>
	<path style="&st1;" d="M35.021,47.911c1.956-0.247,3.436-1.728,3.683-3.683"/>
	<path style="&st1;" d="M38.704,44.228c1.051-8.294,1.051-15.422,0-23.716"/>
	<path style="&st1;" d="M38.704,20.512c-0.247-1.956-1.727-3.436-3.683-3.683"/>
	<path style="&st1;" d="M35.911,35.203c0.391,0,0.708-0.317,0.708-0.708"/>
	<path style="&st1;" d="M25.288,34.495c0,0.391,0.317,0.708,0.708,0.708"/>
	<path style="&st1;" d="M20.331,35.203c0.391,0,0.708-0.317,0.708-0.708"/>
	<path style="&st1;" d="M9.707,34.495c0,0.391,0.317,0.708,0.708,0.708"/>
	<path style="&st1;" d="M10.416,32.37c-0.391,0-0.708,0.317-0.708,0.708"/>
	<path style="&st1;" d="M21.039,33.078c0-0.391-0.317-0.708-0.708-0.708"/>
	<path style="&st1;" d="M25.996,32.37c-0.391,0-0.708,0.317-0.708,0.708"/>
	<path style="&st1;" d="M36.62,33.078c0-0.391-0.317-0.708-0.708-0.708"/>
	<path style="&st0;" d="M1.163,24.503C0.716,25.036,0.5,25.629,0.5,26.325"/>
	<path style="&st0;" d="M0.5,38.415c0,0.696,0.216,1.289,0.663,1.821"/>
	<path style="&st0;" d="M45.826,26.325c0-0.696-0.216-1.289-0.663-1.821"/>
	<path style="&st0;" d="M45.163,40.237c0.447-0.533,0.664-1.126,0.664-1.822"/>
	<path style="&st0;" d="M18.914,0.5c-1.173,0-2.125,0.952-2.125,2.125"/>
	<path style="&st0;" d="M29.537,2.625c0-1.173-0.951-2.125-2.125-2.125"/>
	<path style="&st0;" d="M27.991,53.616c0.782,0,1.45-0.276,2.003-0.83"/>
	<path style="&st0;" d="M16.331,52.786c0.553,0.555,1.222,0.832,2.005,0.832"/>
	<path style="&st1;" d="M13.249,15.353c0,0.625,0.507,1.133,1.133,1.133"/>
	<path style="&st1;" d="M14.381,16.486c0.037,0,0.068-0.002,0.105-0.005"/>
	<path style="&st1;" d="M31.84,16.48c0.623,0.058,1.174-0.4,1.232-1.023"/>
	<path style="&st1;" d="M33.073,15.458c0.003-0.037,0.005-0.068,0.005-0.104"/>
	<path style="&st0;" d="M31.662,51.121c1.309-0.115,2.413-0.233,3.717-0.398"/>
	<path style="&st1;" d="M14.665,51.121c5.961,0.523,11.037,0.523,16.998,0"/>
	<path style="&st0;" d="M10.416,14.106c-3.031,0.622-5.215,2.979-5.604,6.048"/>
	<path style="&st1;" d="M35.911,14.106c-0.186-0.038-0.344-0.064-0.533-0.088"/>
	<path style="&st1;" d="M37.328,36.619H8.999v9.915h28.329V36.619"/>
	<path style="&st1;" d="M25.642,3.333h-4.958v3.541h4.958V3.333"/>
	<path style="&st1;" d="M25.642,13.279v-1.448h-4.958v1.448"/>
	<path style="&st1;" d="M10.633,19.622h25.06l1.635,2.833v9.915H8.999v-9.915L10.633,19.622"/>
	<path style="&st0;" d="M16.79,2.625v4.25h-5.241"/>
	<path style="&st0;" d="M29.537,2.625v4.25h5.241"/>
	<g ewd:pinNo="1">
		<text transform="matrix(1 0 0 1 14.7646 28.2505)"><tspan x="0" y="0" style="&st3; &st2;">1</tspan></text>
	</g>
	<g ewd:pinNo="2">
		<text transform="matrix(1 0 0 1 28.2207 28.2505)"><tspan x="0" y="0" style="&st3; &st2;">2</tspan></text>
	</g>
	<g ewd:pinNo="3">
		<text transform="matrix(1 0 0 1 12.0508 43.8311)"><tspan x="0" y="0" style="&st3; &st2;">3</tspan></text>
	</g>
	<g ewd:pinNo="4">
		<text transform="matrix(1 0 0 1 21.4927 43.8311)"><tspan x="0" y="0" style="&st3; &st2;">4</tspan></text>
	</g>
	<g ewd:pinNo="5">
		<text transform="matrix(1 0 0 1 30.9346 43.8311)"><tspan x="0" y="0" style="&st3; &st2;">5</tspan></text>
	</g>
</g>
</svg>