<?xml version="1.0"?>
<!-- Generator: Adobe Illustrator 10.0, SVG Export Plug-In . SVG Version: 3.0.0 Build 77)  -->
<!DOCTYPE svg PUBLIC "-//W3C//DTD SVG 1.0//EN" "http://www.w3.org/TR/2001/REC-SVG-20010904/DTD/svg10.dtd"[
	<!ENTITY ns_flows "http://ns.adobe.com/Flows/1.0/">
	<!ENTITY ns_svg "http://www.w3.org/2000/svg">
	<!ENTITY ns_xlink "http://www.w3.org/1999/xlink">
	<!ENTITY st0 "fill:none;">
	<!ENTITY st1 "stroke:#000000;">
	<!ENTITY st2 "stroke-linecap:round;">
	<!ENTITY st3 "stroke-linejoin:round;">
	<!ENTITY st4 "stroke-width:0.6;">
	<!ENTITY st5 "font-size:6px;">
	<!ENTITY st6 "font-family:'Arial';">
	<!ENTITY st7 "stroke-width:1.4;">
	<!ATTLIST svg
		ewd:ver CDATA #IMPLIED
		xmlns:ewd CDATA #FIXED "http://shcl.co.jp/ewd"
		xmlns:a CDATA #FIXED "http://ns.adobe.com/AdobeSVGViewerExtensions/3.0/">
	<!ATTLIST g
		ewd:pinNo CDATA #IMPLIED>
]>
<svg width="218.555" height="85.712" viewBox="0 0 218.555 85.712" style="overflow:visible;enable-background:new 0 0 87.119 47.894" xml:space="preserve" onload="call_execInitLoadProc_svg('connector')" ewd:ver="2.1.2.9" xmlns="&ns_svg;" xmlns:ewd="http://shcl.co.jp/ewd" xmlns:a="http://ns.adobe.com/AdobeSVGViewerExtensions/3.0/" xmlns:xlink="&ns_xlink;">
<script type="text/javascript" xlink:href="../../../../../system/js/ewd/fig/svgfig.js"/>
<g id="レイヤー_1" transform="translate(0,17.008)">
	<path style="&st0;&st1;&st2;&st3;" d="M0.5,5.531v11.978"/>
	<path style="&st0;&st1;&st4;&st2;&st3;" d="M41.52,8.293v3.133"/>
	<path style="&st0;&st1;&st4;&st2;&st3;" d="M35.239,22.319h1.337"/>
	<path style="&st0;&st1;&st2;&st3;" d="M36.545,2.767v19.552"/>
	<path style="&st0;&st1;&st2;&st3;" d="M38.409,4.568V8.6"/>
	<path style="&st0;&st1;&st4;&st2;&st3;" d="M5.517,8.401H7.16"/>
	<path style="&st0;&st1;&st2;&st3;" d="M2.171,3.86h3.317"/>
	<path style="&st0;&st1;&st2;&st3;" d="M7.16,5.531v2.87"/>
	<path style="&st0;&st1;&st4;&st2;&st3;" d="M1.837,13.974v3.85"/>
	<path style="&st0;&st1;&st4;&st2;&st3;" d="M6.072,9.738h28.165"/>
	<path style="&st0;&st1;&st4;&st2;&st3;" d="M35.239,10.741v11.578"/>
	<path style="&st0;&st1;&st4;&st2;&st3;" d="M41.52,8.293h2.176"/>
	<path style="&st0;&st1;&st4;&st2;&st3;" d="M43.695,5.571v2.723"/>
	<path style="&st0;&st1;&st4;&st2;&st3;" d="M6.279,39.696h13.791"/>
	<path style="&st0;&st1;&st4;&st2;&st3;" d="M6.279,37.355h13.791"/>
	<path style="&st0;&st1;&st4;&st2;&st3;" d="M5.276,38.358v0.334"/>
	<path style="&st0;&st1;&st4;&st2;&st3;" d="M21.072,38.358v0.334"/>
	<path style="&st0;&st1;&st4;&st2;&st3;" d="M23.602,39.696h15.207"/>
	<path style="&st0;&st1;&st4;&st2;&st3;" d="M23.602,37.355h15.207"/>
	<path style="&st0;&st1;&st4;&st2;&st3;" d="M22.599,38.358v0.334"/>
	<path style="&st0;&st1;&st4;&st2;&st3;" d="M39.812,38.358v0.334"/>
	<path style="&st0;&st1;&st2;&st3;" d="M7.16,8.401h24.484"/>
	<path style="&st0;&st1;&st4;&st2;&st3;" d="M31.645,8.401h3.26"/>
	<path style="&st0;&st1;&st2;&st3;" d="M36.577,22.319h4.943"/>
	<path style="&st0;&st1;&st2;&st3;" d="M41.52,11.427v10.892"/>
	<path style="&st0;&st1;&st2;&st3;" d="M86.596,5.531v11.983"/>
	<path style="&st0;&st1;&st2;&st3;" d="M57.675,3.899H39.078"/>
	<path style="&st0;&st1;&st2;&st3;" d="M76.616,47.393H10.48"/>
	<path style="&st0;&st1;&st4;&st2;&st3;" d="M55.236,8.293v3.133"/>
	<path style="&st0;&st1;&st4;&st2;&st3;" d="M61.517,22.319h-1.34"/>
	<path style="&st0;&st1;&st2;&st3;" d="M60.211,2.767v19.552"/>
	<path style="&st0;&st1;&st2;&st3;" d="M58.344,4.568V8.6"/>
	<path style="&st0;&st1;&st4;&st2;&st3;" d="M81.577,8.401h-1.641"/>
	<path style="&st0;&st1;&st2;&st3;" d="M84.922,3.86h-3.314"/>
	<path style="&st0;&st1;&st2;&st3;" d="M79.936,5.531v2.87"/>
	<path style="&st0;&st1;&st4;&st2;&st3;" d="M84.42,42.373H2.673"/>
	<path style="&st0;&st1;&st4;&st2;&st3;" d="M85.256,13.974v3.855"/>
	<path style="&st0;&st1;&st4;&st2;&st3;" d="M79.358,41.036H7.761"/>
	<path style="&st0;&st1;&st4;&st2;&st3;" d="M81.021,9.738H62.52"/>
	<path style="&st0;&st1;&st4;&st2;&st3;" d="M61.517,10.741v11.578"/>
	<path style="&st0;&st1;&st4;&st2;&st3;" d="M53.061,5.571h-9.366"/>
	<path style="&st0;&st1;&st4;&st2;&st3;" d="M55.236,8.293h-2.175"/>
	<path style="&st0;&st1;&st4;&st2;&st3;" d="M53.061,5.571v2.723"/>
	<path style="&st0;&st1;&st4;&st2;&st3;" d="M55.236,10.115H41.52"/>
	<path style="&st0;&st1;&st4;&st2;&st3;" d="M54.293,39.696H42.486"/>
	<path style="&st0;&st1;&st4;&st2;&st3;" d="M54.293,37.355H42.486"/>
	<path style="&st0;&st1;&st4;&st2;&st3;" d="M55.296,38.358v0.334"/>
	<path style="&st0;&st1;&st4;&st2;&st3;" d="M41.483,38.358v0.334"/>
	<path style="&st0;&st1;&st2;&st3;" d="M79.936,8.401H65.134"/>
	<path style="&st0;&st1;&st4;&st2;&st3;" d="M65.134,8.401h-3.283"/>
	<path style="&st0;&st1;&st2;&st3;" d="M60.177,22.319h-4.94"/>
	<path style="&st0;&st1;&st2;&st3;" d="M55.236,11.427v10.892"/>
	<path style="&st0;&st1;&st4;&st2;&st3;" d="M4.928,25.004h77.241"/>
	<path style="&st0;&st1;&st4;&st2;&st3;" d="M14.582,14.265v21.487"/>
	<path style="&st0;&st1;&st4;&st2;&st3;" d="M33.902,25.004v10.748"/>
	<path style="&st0;&st1;&st4;&st2;&st3;" d="M43.56,25.004v10.748"/>
	<path style="&st0;&st1;&st4;&st2;&st3;" d="M53.219,25.004v10.748"/>
	<path style="&st0;&st1;&st4;&st2;&st3;" d="M62.879,25.004v10.748"/>
	<path style="&st0;&st1;&st4;&st2;&st3;" d="M72.537,14.265v21.487"/>
	<path style="&st0;&st1;&st4;&st2;&st3;" d="M1.837,32.188v3.147"/>
	<path style="&st0;&st1;&st2;&st3;" d="M0.5,32.503v7.53"/>
	<path style="&st0;&st1;&st4;&st2;&st3;" d="M49.098,38.358v0.334"/>
	<path style="&st0;&st1;&st4;&st2;&st3;" d="M47.681,38.358v0.334"/>
	<path style="&st0;&st1;&st4;&st2;&st3;" d="M80.84,39.696h-8.975"/>
	<path style="&st0;&st1;&st4;&st2;&st3;" d="M80.84,37.355h-8.975"/>
	<path style="&st0;&st1;&st4;&st2;&st3;" d="M81.843,38.358v0.334"/>
	<path style="&st0;&st1;&st4;&st2;&st3;" d="M70.862,38.358v0.334"/>
	<path style="&st0;&st1;&st4;&st2;&st3;" d="M68.361,39.696H57.97"/>
	<path style="&st0;&st1;&st4;&st2;&st3;" d="M68.361,37.355H57.97"/>
	<path style="&st0;&st1;&st4;&st2;&st3;" d="M69.364,38.358v0.334"/>
	<path style="&st0;&st1;&st4;&st2;&st3;" d="M56.967,38.358v0.334"/>
	<path style="&st0;&st1;&st4;&st2;&st3;" d="M85.256,32.183v3.153"/>
	<path style="&st0;&st1;&st2;&st3;" d="M86.596,32.498v7.535"/>
	<path style="&st0;&st1;&st4;&st2;&st3;" d="M24.242,14.265v21.487"/>
	<path style="&st0;&st1;&st2;&st3;" d="M2.171,3.86C1.249,3.86,0.5,4.608,0.5,5.531"/>
	<path style="&st0;&st1;&st2;&st3;" d="M7.16,5.531c0-0.923-0.749-1.671-1.672-1.671"/>
	<path style="&st0;&st1;&st2;&st3;" d="M0.5,40.033c0,1.234,0.942,2.247,2.173,2.336"/>
	<path style="&st0;&st1;&st4;&st2;&st3;" d="M35.239,10.741c0-0.554-0.449-1.003-1.003-1.003"/>
	<path style="&st0;&st1;&st4;&st2;&st3;" d="M6.279,37.355c-0.554,0-1.003,0.449-1.003,1.003"/>
	<path style="&st0;&st1;&st4;&st2;&st3;" d="M5.276,38.693c0,0.554,0.449,1.003,1.003,1.003"/>
	<path style="&st0;&st1;&st4;&st2;&st3;" d="M21.072,38.358c0-0.554-0.449-1.003-1.003-1.003"/>
	<path style="&st0;&st1;&st4;&st2;&st3;" d="M20.069,39.696c0.554,0,1.003-0.449,1.003-1.003"/>
	<path style="&st0;&st1;&st4;&st2;&st3;" d="M23.602,37.355c-0.554,0-1.003,0.449-1.003,1.003"/>
	<path style="&st0;&st1;&st4;&st2;&st3;" d="M22.599,38.693c0,0.554,0.449,1.003,1.003,1.003"/>
	<path style="&st0;&st1;&st4;&st2;&st3;" d="M39.812,38.358c0-0.554-0.449-1.003-1.003-1.003"/>
	<path style="&st0;&st1;&st4;&st2;&st3;" d="M38.809,39.696c0.554,0,1.003-0.449,1.003-1.003"/>
	<path style="&st0;&st1;&st4;&st2;&st3;" d="M36.545,9.744c-0.159-0.792-0.833-1.345-1.641-1.345"/>
	<path style="&st0;&st1;&st2;&st3;" d="M86.596,5.531c0-0.925-0.75-1.674-1.674-1.674"/>
	<path style="&st0;&st1;&st2;&st3;" d="M81.607,3.86c-0.923,0-1.671,0.749-1.671,1.671"/>
	<path style="&st0;&st1;&st2;&st3;" d="M84.42,42.367c1.23-0.088,2.173-1.101,2.173-2.334"/>
	<path style="&st0;&st1;&st4;&st2;&st3;" d="M62.52,9.738c-0.554,0-1.002,0.449-1.002,1.003"/>
	<path style="&st0;&st1;&st4;&st2;&st3;" d="M55.296,38.358c0-0.554-0.449-1.003-1.003-1.003"/>
	<path style="&st0;&st1;&st4;&st2;&st3;" d="M54.293,39.696c0.554,0,1.003-0.449,1.003-1.003"/>
	<path style="&st0;&st1;&st4;&st2;&st3;" d="M42.486,37.355c-0.554,0-1.003,0.449-1.003,1.003"/>
	<path style="&st0;&st1;&st4;&st2;&st3;" d="M41.483,38.693c0,0.554,0.449,1.003,1.003,1.003"/>
	<path style="&st0;&st1;&st4;&st2;&st3;" d="M61.851,8.401c-0.807,0-1.48,0.552-1.639,1.343"/>
	<path style="&st0;&st1;&st2;&st3;" d="M39.078,3.899c-0.369,0-0.668,0.3-0.668,0.669"/>
	<path style="&st0;&st1;&st2;&st3;" d="M58.344,4.568c0-0.369-0.299-0.669-0.669-0.669"/>
	<path style="&st0;&st1;&st2;&st3;" d="M38.409,8.6c0,0.209,0.085,0.388,0.248,0.52"/>
	<path style="&st0;&st1;&st2;&st3;" d="M58.098,9.118c0.162-0.131,0.247-0.31,0.247-0.518"/>
	<path style="&st0;&st1;&st2;&st3;" d="M8.472,46.724c0.606,0.455,1.251,0.669,2.008,0.669"/>
	<path style="&st0;&st1;&st2;&st3;" d="M76.616,47.393c0.756,0,1.4-0.215,2.006-0.668"/>
	<path style="&st0;&st1;&st2;&st3;" d="M33.911,0.5c-1.251,0-2.266,1.015-2.266,2.267"/>
	<path style="&st0;&st1;&st2;&st3;" d="M36.545,2.767c0-1.252-1.015-2.267-2.267-2.267"/>
	<path style="&st0;&st1;&st2;&st3;" d="M62.5,0.5c-1.251,0-2.267,1.015-2.267,2.267"/>
	<path style="&st0;&st1;&st2;&st3;" d="M65.134,2.767c0-1.252-1.015-2.267-2.266-2.267"/>
	<path style="&st0;&st1;&st4;&st2;&st3;" d="M50.101,37.355c-0.554,0-1.003,0.449-1.003,1.003"/>
	<path style="&st0;&st1;&st4;&st2;&st3;" d="M49.098,38.693c0,0.554,0.449,1.003,1.003,1.003"/>
	<path style="&st0;&st1;&st4;&st2;&st3;" d="M47.681,38.358c0-0.554-0.449-1.003-1.003-1.003"/>
	<path style="&st0;&st1;&st4;&st2;&st3;" d="M46.678,39.696c0.554,0,1.003-0.449,1.003-1.003"/>
	<path style="&st0;&st1;&st4;&st2;&st3;" d="M81.843,38.358c0-0.554-0.449-1.003-1.003-1.003"/>
	<path style="&st0;&st1;&st4;&st2;&st3;" d="M80.84,39.696c0.554,0,1.003-0.449,1.003-1.003"/>
	<path style="&st0;&st1;&st4;&st2;&st3;" d="M71.865,37.355c-0.554,0-1.003,0.449-1.003,1.003"/>
	<path style="&st0;&st1;&st4;&st2;&st3;" d="M70.862,38.693c0,0.554,0.449,1.003,1.003,1.003"/>
	<path style="&st0;&st1;&st4;&st2;&st3;" d="M69.364,38.358c0-0.554-0.449-1.003-1.002-1.003"/>
	<path style="&st0;&st1;&st4;&st2;&st3;" d="M68.361,39.696c0.554,0,1.002-0.449,1.002-1.003"/>
	<path style="&st0;&st1;&st4;&st2;&st3;" d="M57.97,37.355c-0.554,0-1.003,0.449-1.003,1.003"/>
	<path style="&st0;&st1;&st4;&st2;&st3;" d="M56.967,38.693c0,0.554,0.449,1.003,1.003,1.003"/>
	<path style="&st0;&st1;&st2;&st3;" d="M38.659,9.118l2.861,2.309"/>
	<path style="&st0;&st1;&st4;&st2;&st3;" d="M5.517,8.401L0.5,13.418"/>
	<path style="&st0;&st1;&st2;&st3;" d="M2.673,42.373l5.799,4.352"/>
	<path style="&st0;&st1;&st4;&st2;&st3;" d="M6.072,9.738l-4.235,4.235"/>
	<path style="&st0;&st1;&st2;&st3;" d="M58.098,9.118l-2.861,2.309"/>
	<path style="&st0;&st1;&st4;&st2;&st3;" d="M81.577,8.401l5.02,5.017"/>
	<path style="&st0;&st1;&st2;&st3;" d="M84.42,42.373l-5.799,4.352"/>
	<path style="&st0;&st1;&st4;&st2;&st3;" d="M81.021,9.738l4.235,4.235"/>
	<path style="&st0;&st1;&st4;&st2;&st3;" d="M33.902,25.004l-0.006-10.739H4.928v21.487h77.241V14.265H62.86l0.017,10.739"/>
	<path style="&st0;&st1;&st2;&st3;" d="M31.645,8.401V2.767"/>
	<path style="&st0;&st1;&st2;&st3;" d="M33.911,0.5h0.368"/>
	<path style="&st0;&st1;&st2;&st3;" d="M62.868,0.5H62.5"/>
	<path style="&st0;&st1;&st2;&st3;" d="M65.134,8.401V2.767"/>
	<path style="&st0;&st1;&st4;&st2;&st3;" d="M4.809,8.401V6.418H7.16"/>
	<path style="&st0;&st1;&st4;&st2;&st3;" d="M4.809,8.401h0.708"/>
	<path style="&st0;&st1;&st4;&st2;&st3;" d="M82.31,8.401V6.418h-2.351"/>
	<path style="&st0;&st1;&st4;&st2;&st3;" d="M82.31,8.401h-0.708"/>
	<path style="&st0;&st1;&st2;&st3;" d="M0.5,17.509l3.011,0.708"/>
	<path style="&st0;&st1;&st2;&st3;" d="M0.5,32.503l3.011-0.708"/>
	<path style="&st0;&st1;&st2;&st3;" d="M3.511,31.795V18.217"/>
	<path style="&st0;&st1;&st4;&st2;&st3;" d="M0.5,35.336h1.337l3.439,3.309"/>
	<path style="&st0;&st1;&st4;&st2;&st3;" d="M6.37,39.696l1.391,1.34v1.337"/>
	<path style="&st0;&st1;&st4;&st2;&st3;" d="M80.749,39.696l-1.391,1.34v1.337"/>
	<path style="&st0;&st1;&st2;&st3;" d="M86.619,17.509l-3.011,0.708"/>
	<path style="&st0;&st1;&st4;&st2;&st3;" d="M86.619,35.336h-1.337l-3.439,3.309"/>
	<path style="&st0;&st1;&st2;&st3;" d="M86.619,32.503l-3.011-0.708"/>
	<path style="&st0;&st1;&st2;&st3;" d="M83.607,31.795V18.217"/>
	<g ewd:pinNo="1">
		<text transform="matrix(1 0 0 1 8.1021 21.6958)"><tspan x="0" y="0" style="&st6; &st5;">1</tspan></text>
	</g>
	<g ewd:pinNo="3">
		<text transform="matrix(1 0 0 1 27.4165 21.6958)"><tspan x="0" y="0" style="&st6; &st5;">3</tspan></text>
	</g>
	<g ewd:pinNo="4">
		<text transform="matrix(1 0 0 1 66.0454 21.6958)"><tspan x="0" y="0" style="&st6; &st5;">4</tspan></text>
	</g>
	<g ewd:pinNo="5">
		<text transform="matrix(1 0 0 1 75.6997 21.6958)"><tspan x="0" y="0" style="&st6; &st5;">5</tspan></text>
	</g>
	<g ewd:pinNo="6">
		<text transform="matrix(1 0 0 1 8.1021 32.4409)"><tspan x="0" y="0" style="&st6; &st5;">6</tspan></text>
	</g>
	<g ewd:pinNo="8">
		<text transform="matrix(1 0 0 1 27.4189 32.4409)"><tspan x="0" y="0" style="&st6; &st5;">8</tspan></text>
	</g>
	<g ewd:pinNo="9">
		<text transform="matrix(1 0 0 1 37.0762 32.4409)"><tspan x="0" y="0" style="&st6; &st5;">9</tspan></text>
	</g>
	<g ewd:pinNo="10">
		<text transform="matrix(1 0 0 1 44.8721 32.4409)"><tspan x="0" y="0" style="&st6; &st5;">10</tspan></text>
	</g>
	<g ewd:pinNo="11">
		<text transform="matrix(1 0 0 1 54.8833 32.4409)"><tspan x="0" y="0" style="&st6; &st5;">11</tspan></text>
	</g>
	<g ewd:pinNo="12">
		<text transform="matrix(1 0 0 1 63.855 32.4409)"><tspan x="0" y="0" style="&st6; &st5;">12</tspan></text>
	</g>
	<g ewd:pinNo="13">
		<text transform="matrix(1 0 0 1 73.835 32.4409)"><tspan x="0" y="0" style="&st6; &st5;">13</tspan></text>
	</g>
	<g ewd:pinNo="2">
		<text transform="matrix(1 0 0 1 17.7617 21.6958)"><tspan x="0" y="0" style="&st6; &st5;">2</tspan></text>
	</g>
	<g ewd:pinNo="7">
		<text transform="matrix(1 0 0 1 17.7617 32.4409)"><tspan x="0" y="0" style="&st6; &st5;">7</tspan></text>
	</g>
</g>
<g id="レイヤー_1" transform="translate(106.96,17.008)">
	<path style="&st0;&st1;&st4;&st2;&st3;" d="M103.163,24.296v12.748"/>
	<path style="&st0;&st1;&st4;&st2;&st3;" d="M100.046,42.71v11.332"/>
	<path style="&st0;&st1;&st4;&st2;&st3;" d="M14.664,41.293h82.267"/>
	<path style="&st0;&st1;&st4;&st2;&st3;" d="M14.664,29.962h20.567"/>
	<path style="&st0;&st1;&st4;&st2;&st3;" d="M14.664,52.625h82.267"/>
	<path style="&st0;&st1;&st4;&st2;&st3;" d="M66.081,29.962v22.663"/>
	<path style="&st0;&st1;&st4;&st2;&st3;" d="M55.797,41.293v11.332"/>
	<path style="&st0;&st1;&st4;&st2;&st3;" d="M45.514,41.293v11.332"/>
	<path style="&st0;&st1;&st4;&st2;&st3;" d="M76.364,29.962v22.663"/>
	<path style="&st0;&st1;&st4;&st2;&st3;" d="M86.647,29.962v22.663"/>
	<path style="&st0;&st1;&st4;&st2;&st3;" d="M35.231,29.962v22.663"/>
	<path style="&st0;&st1;&st4;&st2;&st3;" d="M24.948,29.962v22.663"/>
	<path style="&st0;&st1;&st4;&st2;&st3;" d="M14.664,29.962v22.663"/>
	<path style="&st0;&st1;&st4;&st2;&st3;" d="M96.931,29.962v22.663"/>
	<path style="&st0;&st1;&st4;&st2;&st3;" d="M66.081,29.962h30.85"/>
	<path style="&st0;&st1;&st4;&st2;&st3;" d="M11.548,24.296v12.748"/>
	<path style="&st0;&st1;&st4;&st2;&st3;" d="M8.432,24.296v12.748"/>
	<path style="&st0;&st1;&st4;&st2;&st3;" d="M11.548,42.71v11.332"/>
	<path style="&st0;&st1;&st4;&st2;&st3;" d="M8.432,42.71v11.332"/>
	<path style="&st0;&st1;&st4;&st2;&st3;" d="M44.098,38.46h13.116"/>
	<path style="&st0;&st1;&st4;&st2;&st3;" d="M44.098,35.628h13.116"/>
	<path style="&st0;&st1;&st4;&st2;&st3;" d="M100.046,24.296v12.748"/>
	<path style="&st0;&st1;&st4;&st2;&st3;" d="M103.163,42.71v11.332"/>
	<path style="&st0;&st1;&st4;&st2;&st3;" d="M16.222,25.712h17.451"/>
	<path style="&st0;&st1;&st4;&st2;&st3;" d="M16.222,22.88h17.451"/>
	<path style="&st0;&st1;&st4;&st2;&st3;" d="M67.639,25.712h27.734"/>
	<path style="&st0;&st1;&st4;&st2;&st3;" d="M67.639,22.88h27.734"/>
	<path style="&st0;&st1;&st4;&st2;&st3;" d="M5.316,17.214v42.493"/>
	<path style="&st0;&st1;&st4;&st2;&st3;" d="M106.279,17.214v42.493"/>
	<path style="&st0;&st1;&st4;&st2;&st3;" d="M19.806,17.214v5.666"/>
	<path style="&st0;&st1;&st4;&st2;&st3;" d="M8.149,14.381h8.824"/>
	<path style="&st0;&st1;&st4;&st2;&st3;" d="M94.622,14.381h8.824"/>
	<path style="&st0;&st1;&st4;&st2;&st3;" d="M91.789,17.214v5.666"/>
	<path style="&st0;&st1;&st2;&st3;" d="M8.999,68.206h93.598"/>
	<path style="&st0;&st1;&st2;&st3;" d="M8.999,10.132h12.649"/>
	<path style="&st0;&st1;&st2;&st3;" d="M0.5,18.63v41.077"/>
	<path style="&st0;&st1;&st2;&st3;" d="M111.095,18.63v41.077"/>
	<path style="&st0;&st1;&st2;&st3;" d="M24.48,12.965v2.833"/>
	<path style="&st0;&st1;&st2;&st3;" d="M85.557,12.965v2.833"/>
	<path style="&st0;&st1;&st2;&st3;" d="M88.39,10.132h14.207"/>
	<path style="&st0;&st1;&st2;&st3;" d="M30.712,6.166v9.632"/>
	<path style="&st0;&st1;&st2;&st3;" d="M79.324,6.166v9.632"/>
	<path style="&st0;&st1;&st4;&st2;&st3;" d="M41.619,1.917v5.383"/>
	<path style="&st0;&st1;&st4;&st2;&st3;" d="M69.976,1.917v5.383"/>
	<path style="&st0;&st1;&st4;&st2;&st3;" d="M30.712,10.132h48.612"/>
	<path style="&st0;&st1;&st4;&st2;&st3;" d="M60.472,5.174v3.4"/>
	<path style="&st0;&st1;&st4;&st2;&st3;" d="M51.123,5.174v3.4"/>
	<path style="&st0;&st1;&st4;&st2;&st3;" d="M58.914,2.341v2.833"/>
	<path style="&st0;&st1;&st4;&st2;&st3;" d="M52.681,2.341v2.833"/>
	<path style="&st0;&st1;&st4;&st2;&st3;" d="M52.681,2.341h6.232"/>
	<path style="&st0;&st1;&st4;&st2;&st3;" d="M52.681,3.758h6.232"/>
	<path style="&st0;&st1;&st4;&st2;&st3;" d="M51.123,8.574h9.349"/>
	<path style="&st0;&st1;&st4;&st2;&st3;" d="M14.664,54.042v7.082"/>
	<path style="&st0;&st1;&st4;&st2;&st3;" d="M96.931,54.042v7.082"/>
	<path style="&st0;&st1;&st4;&st2;&st3;" d="M38.814,54.042v7.082"/>
	<path style="&st0;&st1;&st4;&st2;&st3;" d="M41.931,54.042v7.082"/>
	<path style="&st0;&st1;&st4;&st2;&st3;" d="M59.381,54.042v7.082"/>
	<path style="&st0;&st1;&st4;&st2;&st3;" d="M62.497,54.042v7.082"/>
	<path style="&st0;&st1;&st4;&st2;&st3;" d="M79.948,54.042v7.082"/>
	<path style="&st0;&st1;&st4;&st2;&st3;" d="M83.063,54.042v7.082"/>
	<path style="&st0;&st1;&st4;&st2;&st3;" d="M8.149,62.54h95.297"/>
	<path style="&st0;&st1;&st4;&st2;&st3;" d="M14.664,54.042h24.15"/>
	<path style="&st0;&st1;&st4;&st2;&st3;" d="M62.497,54.042h17.451"/>
	<path style="&st0;&st1;&st4;&st2;&st3;" d="M41.931,54.042h17.45"/>
	<path style="&st0;&st1;&st4;&st2;&st3;" d="M83.063,54.042h13.867"/>
	<path style="&st0;&st1;&st4;&st2;&st3;" d="M40.981,15.798v19.83"/>
	<path style="&st0;&st1;&st4;&st2;&st3;" d="M60.33,15.798v19.83"/>
	<path style="&st0;&st1;&st4;&st2;&st3;" d="M36.789,22.88v12.748"/>
	<path style="&st0;&st1;&st4;&st2;&st3;" d="M64.522,22.88v12.748"/>
	<path style="&st0;&st1;&st4;&st2;&st3;" d="M38.206,37.044h1.359"/>
	<path style="&st0;&st1;&st4;&st2;&st3;" d="M61.746,37.044h1.36"/>
	<path style="&st0;&st1;&st4;&st2;&st3;" d="M33.673,22.88h4.674"/>
	<path style="&st0;&st1;&st4;&st2;&st3;" d="M62.964,22.88h4.674"/>
	<path style="&st0;&st1;&st4;&st2;&st3;" d="M44.098,24.296v2.125"/>
	<path style="&st0;&st1;&st4;&st2;&st3;" d="M57.214,24.296v2.125"/>
	<path style="&st0;&st1;&st4;&st2;&st3;" d="M19.806,21.463h13.867"/>
	<path style="&st0;&st1;&st4;&st2;&st3;" d="M67.639,21.463h24.15"/>
	<path style="&st0;&st1;&st4;&st2;&st3;" d="M63.106,37.044c0.782,0,1.417-0.634,1.417-1.416"/>
	<path style="&st0;&st1;&st4;&st2;&st3;" d="M96.789,24.296c0-0.782-0.634-1.416-1.416-1.416"/>
	<path style="&st0;&st1;&st4;&st2;&st3;" d="M95.373,25.712c0.782,0,1.416-0.634,1.416-1.417"/>
	<path style="&st0;&st1;&st4;&st2;&st3;" d="M103.163,24.296c0-0.782-0.634-1.416-1.417-1.416"/>
	<path style="&st0;&st1;&st4;&st2;&st3;" d="M35.089,24.296c0-0.782-0.634-1.416-1.417-1.416"/>
	<path style="&st0;&st1;&st4;&st2;&st3;" d="M16.222,22.88c-0.782,0-1.417,0.634-1.417,1.416"/>
	<path style="&st0;&st1;&st4;&st2;&st3;" d="M8.432,37.044c0,0.782,0.634,1.417,1.416,1.417"/>
	<path style="&st0;&st1;&st4;&st2;&st3;" d="M101.746,38.46c0.783,0,1.417-0.634,1.417-1.417"/>
	<path style="&st0;&st1;&st4;&st2;&st3;" d="M8.432,54.042c0,0.782,0.634,1.416,1.416,1.416"/>
	<path style="&st0;&st1;&st4;&st2;&st3;" d="M9.848,22.88c-0.782,0-1.416,0.634-1.416,1.416"/>
	<path style="&st0;&st1;&st4;&st2;&st3;" d="M58.63,37.044c0-0.782-0.634-1.416-1.417-1.416"/>
	<path style="&st0;&st1;&st4;&st2;&st3;" d="M10.132,55.458c0.782,0,1.417-0.634,1.417-1.416"/>
	<path style="&st0;&st1;&st4;&st2;&st3;" d="M67.639,22.88c-0.782,0-1.417,0.634-1.417,1.416"/>
	<path style="&st0;&st1;&st4;&st2;&st3;" d="M10.132,38.46c0.782,0,1.417-0.634,1.417-1.417"/>
	<path style="&st0;&st1;&st4;&st2;&st3;" d="M57.214,38.46c0.782,0,1.417-0.634,1.417-1.417"/>
	<path style="&st0;&st1;&st4;&st2;&st3;" d="M66.222,24.296c0,0.783,0.634,1.417,1.417,1.417"/>
	<path style="&st0;&st1;&st2;&st3;" d="M79.324,6.166c0-3.129-2.537-5.666-5.666-5.666"/>
	<path style="&st0;&st1;&st4;&st2;&st3;" d="M11.548,24.296c0-0.782-0.634-1.416-1.417-1.416"/>
	<path style="&st0;&st1;&st4;&st2;&st3;" d="M11.548,42.71c0-0.782-0.634-1.417-1.417-1.417"/>
	<path style="&st0;&st1;&st4;&st2;&st3;" d="M9.848,41.293c-0.782,0-1.416,0.634-1.416,1.417"/>
	<path style="&st0;&st1;&st4;&st2;&st3;" d="M101.463,22.88c-0.782,0-1.417,0.634-1.417,1.416"/>
	<path style="&st0;&st1;&st4;&st2;&st3;" d="M101.463,41.293c-0.782,0-1.417,0.634-1.417,1.417"/>
	<path style="&st0;&st1;&st4;&st2;&st3;" d="M39.565,37.044c0.782,0,1.417-0.634,1.417-1.416"/>
	<path style="&st0;&st1;&st4;&st2;&st3;" d="M33.673,25.712c0.782,0,1.417-0.634,1.417-1.417"/>
	<path style="&st0;&st1;&st4;&st2;&st3;" d="M101.746,55.458c0.783,0,1.417-0.634,1.417-1.416"/>
	<path style="&st0;&st1;&st4;&st2;&st3;" d="M36.789,35.628c0,0.782,0.634,1.416,1.417,1.416"/>
	<path style="&st0;&st1;&st4;&st2;&st3;" d="M14.806,24.296c0,0.783,0.634,1.417,1.417,1.417"/>
	<path style="&st0;&st1;&st4;&st2;&st3;" d="M42.681,37.044c0,0.782,0.634,1.417,1.417,1.417"/>
	<path style="&st0;&st1;&st4;&st2;&st3;" d="M100.046,37.044c0,0.782,0.634,1.417,1.417,1.417"/>
	<path style="&st0;&st1;&st4;&st2;&st3;" d="M100.046,54.042c0,0.782,0.634,1.416,1.417,1.416"/>
	<path style="&st0;&st1;&st4;&st2;&st3;" d="M44.098,35.628c-0.782,0-1.417,0.634-1.417,1.416"/>
	<path style="&st0;&st1;&st4;&st2;&st3;" d="M60.33,35.628c0,0.782,0.634,1.416,1.416,1.416"/>
	<path style="&st0;&st1;&st2;&st3;" d="M36.378,0.5c-3.129,0-5.666,2.537-5.666,5.666"/>
	<path style="&st0;&st1;&st4;&st2;&st3;" d="M103.163,42.71c0-0.782-0.634-1.417-1.417-1.417"/>
	<path style="&st0;&st1;&st2;&st3;" d="M8.999,10.132c-4.694,0-8.499,3.805-8.499,8.499"/>
	<path style="&st0;&st1;&st2;&st3;" d="M24.48,12.965c0-1.564-1.268-2.833-2.833-2.833"/>
	<path style="&st0;&st1;&st2;&st3;" d="M111.095,18.63c0-4.693-3.805-8.499-8.499-8.499"/>
	<path style="&st0;&st1;&st2;&st3;" d="M102.596,68.206c4.693,0,8.499-3.805,8.499-8.499"/>
	<path style="&st0;&st1;&st2;&st3;" d="M0.5,59.707c0,4.693,3.805,8.499,8.499,8.499"/>
	<path style="&st0;&st1;&st2;&st3;" d="M88.39,10.132c-1.565,0-2.833,1.269-2.833,2.833"/>
	<path style="&st0;&st1;&st4;&st2;&st3;" d="M94.622,14.381c-1.564,0-2.833,1.268-2.833,2.833"/>
	<path style="&st0;&st1;&st4;&st2;&st3;" d="M106.279,17.214c0-1.564-1.268-2.833-2.833-2.833"/>
	<path style="&st0;&st1;&st4;&st2;&st3;" d="M103.446,62.54c1.565,0,2.833-1.269,2.833-2.833"/>
	<path style="&st0;&st1;&st4;&st2;&st3;" d="M5.316,59.707c0,1.564,1.268,2.833,2.833,2.833"/>
	<path style="&st0;&st1;&st4;&st2;&st3;" d="M8.149,14.381c-1.565,0-2.833,1.268-2.833,2.833"/>
	<path style="&st0;&st1;&st4;&st2;&st3;" d="M19.806,17.214c0-1.564-1.268-2.833-2.833-2.833"/>
	<path style="&st0;&st1;&st4;&st2;&st3;" d="M41.619,1.917c0-0.783-0.698-1.417-1.558-1.417"/>
	<path style="&st0;&st1;&st4;&st2;&st3;" d="M66.86,10.132c1.721,0,3.116-1.269,3.116-2.833"/>
	<path style="&st0;&st1;&st4;&st2;&st3;" d="M71.534,0.5c-0.86,0-1.558,0.634-1.558,1.417"/>
	<path style="&st0;&st1;&st4;&st2;&st3;" d="M41.619,7.299c0,1.564,1.395,2.833,3.116,2.833"/>
	<path style="&st0;&st1;&st4;&st2;&st3;" d="M33.39,25.712h0.283"/>
	<path style="&st0;&st1;&st4;&st2;&st3;" d="M9.848,38.46h0.284"/>
	<path style="&st0;&st1;&st4;&st2;&st3;" d="M9.848,22.88h0.284"/>
	<path style="&st0;&st1;&st4;&st2;&st3;" d="M9.848,55.458h0.284"/>
	<path style="&st0;&st1;&st4;&st2;&st3;" d="M9.848,41.293h0.284"/>
	<path style="&st0;&st1;&st4;&st2;&st3;" d="M101.746,38.46h-0.283"/>
	<path style="&st0;&st1;&st4;&st2;&st3;" d="M101.746,22.88h-0.283"/>
	<path style="&st0;&st1;&st4;&st2;&st3;" d="M101.746,55.458h-0.283"/>
	<path style="&st0;&st1;&st4;&st2;&st3;" d="M101.746,41.293h-0.283"/>
	<path style="&st0;&st1;&st2;&st3;" d="M79.324,15.798h6.232"/>
	<path style="&st0;&st1;&st4;&st2;&st3;" d="M41.619,5.174h28.356"/>
	<path style="&st0;&st1;&st2;&st3;" d="M71.534,0.5h2.125"/>
	<path style="&st0;&st1;&st2;&st3;" d="M36.378,0.5h3.683"/>
	<path style="&st0;&st1;&st2;&st3;" d="M40.061,0.5h31.473"/>
	<path style="&st0;&st1;&st4;&st2;&st3;" d="M14.664,56.874h24.15"/>
	<path style="&st0;&st1;&st4;&st2;&st3;" d="M41.931,56.874h17.45"/>
	<path style="&st0;&st1;&st4;&st2;&st3;" d="M62.497,56.874h17.451"/>
	<path style="&st0;&st1;&st4;&st2;&st3;" d="M83.063,56.874h13.867"/>
	<path style="&st0;&st1;&st4;&st2;&st3;" d="M60.33,22.88H40.981"/>
	<path style="&st0;&st1;&st4;&st2;&st3;" d="M60.33,24.296H40.981"/>
	<path style="&st0;&st1;&st4;&st2;&st3;" d="M57.214,26.421H44.098"/>
	<path style="&st0;&st1;&st4;&st2;&st3;" d="M33.673,15.798v7.082"/>
	<path style="&st0;&st1;&st4;&st2;&st3;" d="M67.639,15.798v7.082"/>
	<path style="&st0;&st1;&st2;&st3;" d="M24.48,15.798h6.232"/>
	<path style="&st0;&st1;&st4;&st2;&st3;" d="M30.712,15.798h48.612"/>
	<path style="&st0;&st1;&st4;&st2;&st3;" d="M14.664,61.124h24.15"/>
	<path style="&st0;&st1;&st4;&st2;&st3;" d="M41.931,61.124h17.45"/>
	<path style="&st0;&st1;&st4;&st2;&st3;" d="M62.497,61.124h17.451"/>
	<path style="&st0;&st1;&st4;&st2;&st3;" d="M83.063,61.124h13.867"/>
	<g ewd:pinNo="11">
		<text transform="matrix(1 0 0 1 37.0527 49.1343)"><tspan x="0" y="0" style="&st6; &st5;">11</tspan></text>
	</g>
	<g ewd:pinNo="12">
		<text transform="matrix(1 0 0 1 26.5469 49.1343)"><tspan x="0" y="0" style="&st6; &st5;">12</tspan></text>
	</g>
	<g ewd:pinNo="2">
		<text transform="matrix(1 0 0 1 80.0161 37.8027)"><tspan x="0" y="0" style="&st6; &st5;">2</tspan></text>
	</g>
	<g ewd:pinNo="3">
		<text transform="matrix(1 0 0 1 69.7329 37.8027)"><tspan x="0" y="0" style="&st6; &st5;">3</tspan></text>
	</g>
	<g ewd:pinNo="4">
		<text transform="matrix(1 0 0 1 28.5996 37.8027)"><tspan x="0" y="0" style="&st6; &st5;">4</tspan></text>
	</g>
	<g ewd:pinNo="5">
		<text transform="matrix(1 0 0 1 18.3164 37.8027)"><tspan x="0" y="0" style="&st6; &st5;">5</tspan></text>
	</g>
	<g ewd:pinNo="13">
		<text transform="matrix(1 0 0 1 16.2637 49.1343)"><tspan x="0" y="0" style="&st6; &st5;">13</tspan></text>
	</g>
	<g ewd:pinNo="7">
		<text transform="matrix(1 0 0 1 80.0161 49.1343)"><tspan x="0" y="0" style="&st6; &st5;">7</tspan></text>
	</g>
	<g ewd:pinNo="8">
		<text transform="matrix(1 0 0 1 69.7329 49.1343)"><tspan x="0" y="0" style="&st6; &st5;">8</tspan></text>
	</g>
	<g ewd:pinNo="9">
		<text transform="matrix(1 0 0 1 59.4497 49.1343)"><tspan x="0" y="0" style="&st6; &st5;">9</tspan></text>
	</g>
	<g ewd:pinNo="10">
		<text transform="matrix(1 0 0 1 47.1133 49.1343)"><tspan x="0" y="0" style="&st6; &st5;">10</tspan></text>
	</g>
	<g ewd:pinNo="1">
		<text transform="matrix(1 0 0 1 90.2993 37.8027)"><tspan x="0" y="0" style="&st6; &st5;">1</tspan></text>
	</g>
	<g ewd:pinNo="6">
		<text transform="matrix(1 0 0 1 90.2993 49.1343)"><tspan x="0" y="0" style="&st6; &st5;">6</tspan></text>
	</g>
</g>
<path d="M43.5595,9.069v-8.504h119.198v8.504" style="&st0;&st1;&st7;&st2;&st3;"/>
</svg>