<?xml version="1.0"?>
<!-- Generator: Adobe Illustrator 10.0, SVG Export Plug-In . SVG Version: 3.0.0 Build 77)  -->
<!DOCTYPE svg PUBLIC "-//W3C//DTD SVG 1.0//EN" "http://www.w3.org/TR/2001/REC-SVG-20010904/DTD/svg10.dtd"[
	<!ENTITY ns_flows "http://ns.adobe.com/Flows/1.0/">
	<!ENTITY ns_svg "http://www.w3.org/2000/svg">
	<!ENTITY ns_xlink "http://www.w3.org/1999/xlink">
	<!ENTITY st0 "fill:none;stroke:#000000;stroke-linecap:round;stroke-linejoin:round;">
	<!ENTITY st1 "fill:none;stroke:#000000;stroke-width:0.6;stroke-linecap:round;stroke-linejoin:round;">
	<!ENTITY st2 "font-size:6px;">
	<!ENTITY st3 "font-family:'Arial';">
	<!ATTLIST svg
		ewd:ver CDATA #IMPLIED
		xmlns:ewd CDATA #FIXED "http://shcl.co.jp/ewd"
		xmlns:a CDATA #FIXED "http://ns.adobe.com/AdobeSVGViewerExtensions/3.0/">
	<!ATTLIST g
		ewd:pinNo CDATA #IMPLIED>
]>
<svg width="59.074" height="62.773" viewBox="0 0 59.074 62.773" style="overflow:visible;enable-background:new 0 0 59.074 62.773" xml:space="preserve" onload="call_execInitLoadProc_svg('connector')" ewd:ver="2.1.2.9" xmlns="&ns_svg;" xmlns:ewd="http://shcl.co.jp/ewd" xmlns:a="http://ns.adobe.com/AdobeSVGViewerExtensions/3.0/" xmlns:xlink="&ns_xlink;">
<script type="text/javascript" xlink:href="../../../../../system/js/ewd/fig/svgfig.js"/>
<g id="レイヤー_1">
	<path style="&st0;" d="M14.979,62.273h14.558"/>
	<path style="&st0;" d="M44.095,62.273H29.537"/>
	<path style="&st1;" d="M31.662,19.498c0-0.626-0.508-1.133-1.133-1.133"/>
	<path style="&st1;" d="M28.546,18.364c-0.626,0-1.133,0.507-1.133,1.133"/>
	<path style="&st1;" d="M27.413,42.727c0,0.626,0.507,1.133,1.133,1.133"/>
	<path style="&st1;" d="M30.529,43.86c0.625,0,1.133-0.507,1.133-1.133"/>
	<path style="&st1;" d="M7.583,40.673c0,6.695,5.092,12.195,11.768,12.71"/>
	<path style="&st1;" d="M19.35,53.384c7.149,0.552,13.225,0.552,20.374,0"/>
	<path style="&st1;" d="M39.724,53.384c6.676-0.515,11.769-6.015,11.769-12.711"/>
	<path style="&st0;" d="M17.962,0.5c-2.101,0-3.89,1.042-4.927,2.869"/>
	<path style="&st1;" d="M39.724,8.843c-7.149-0.551-13.225-0.551-20.374,0"/>
	<path style="&st1;" d="M39.398,13.078c-6.92-0.534-12.802-0.534-19.723,0"/>
	<path style="&st1;" d="M19.35,8.843C12.674,9.358,7.582,14.858,7.582,21.554"/>
	<path style="&st1;" d="M19.676,49.146c6.921,0.534,12.802,0.534,19.723,0"/>
	<path style="&st1;" d="M19.676,13.078c-4.451,0.344-7.847,4.011-7.847,8.476"/>
	<path style="&st1;" d="M39.398,49.146c4.45-0.344,7.844-4.01,7.844-8.473"/>
	<path style="&st1;" d="M11.832,40.673c0,4.463,3.394,8.13,7.844,8.474"/>
	<path style="&st1;" d="M47.243,21.554c0-4.463-3.395-8.129-7.844-8.473"/>
	<path style="&st0;" d="M0.5,35.398c0,1.25,0.133,2.308,0.444,3.519"/>
	<path style="&st1;" d="M51.492,21.554c0-6.695-5.092-12.195-11.768-12.71"/>
	<path style="&st1;" d="M41.577,4.75c0-0.782-0.634-1.417-1.417-1.417"/>
	<path style="&st1;" d="M18.914,3.333c-0.782,0-1.417,0.634-1.417,1.417"/>
	<path style="&st0;" d="M2.716,21.545C1.192,24.229,0.5,26.851,0.5,29.937"/>
	<path style="&st0;" d="M49.761,51.69c4.312-3.36,7.009-7.478,8.367-12.773"/>
	<path style="&st1;" d="M19.132,56.208c7.302,0.563,13.508,0.563,20.81,0"/>
	<path style="&st0;" d="M0.945,38.917C2.303,44.212,5,48.331,9.313,51.691"/>
	<path style="&st1;" d="M9.313,51.69c3.024,2.356,6.062,3.754,9.819,4.518"/>
	<path style="&st0;" d="M46.039,3.37c-1.037-1.827-2.826-2.869-4.926-2.869"/>
	<path style="&st0;" d="M58.129,38.917c0.311-1.211,0.444-2.268,0.444-3.518"/>
	<path style="&st0;" d="M58.574,29.937c0-3.085-0.692-5.708-2.216-8.391"/>
	<path style="&st1;" d="M39.942,56.208c3.757-0.764,6.794-2.162,9.819-4.518"/>
	<path style="&st1;" d="M17.498,31.112h9.915"/>
	<path style="&st1;" d="M17.498,18.364V43.86h9.915V18.364H17.498"/>
	<path style="&st1;" d="M28.546,18.364h1.983"/>
	<path style="&st1;" d="M28.546,43.86h1.983"/>
	<path style="&st1;" d="M31.662,18.364V43.86h9.915V18.364H31.662"/>
	<path style="&st1;" d="M31.662,31.112h9.915"/>
	<path style="&st1;" d="M17.498,8.999V4.75"/>
	<path style="&st1;" d="M51.492,25.446h2.833v4.25h-2.833"/>
	<path style="&st1;" d="M51.492,32.528h2.833v4.25h-2.833"/>
	<path style="&st1;" d="M7.583,29.696v2.833"/>
	<path style="&st1;" d="M7.583,25.446H4.75v4.25h2.833"/>
	<path style="&st1;" d="M51.492,21.554v3.893"/>
	<path style="&st1;" d="M7.583,32.528H4.75v4.25h2.833"/>
	<path style="&st1;" d="M51.492,29.696v2.833"/>
	<path style="&st1;" d="M11.832,21.554v19.119"/>
	<path style="&st1;" d="M7.583,21.554v3.893"/>
	<path style="&st1;" d="M7.583,36.778v3.895"/>
	<path style="&st1;" d="M47.243,21.554v19.119"/>
	<path style="&st1;" d="M21.747,8.679V3.333"/>
	<path style="&st0;" d="M0.5,29.937v5.462"/>
	<path style="&st1;" d="M18.914,3.333h21.247"/>
	<path style="&st1;" d="M41.577,9.124V4.75"/>
	<path style="&st1;" d="M51.492,36.778v3.895"/>
	<path style="&st1;" d="M37.328,8.679v2.833h4.25V9.124"/>
	<path style="&st0;" d="M9.313,51.69l5.666,10.583"/>
	<path style="&st1;" d="M37.328,8.679V3.333"/>
	<path style="&st1;" d="M17.498,9.124v2.388h4.25V8.679"/>
	<path style="&st1;" d="M16.217,14.115h26.64"/>
	<path style="&st1;" d="M14.333,46.693h30.408"/>
	<path style="&st1;" d="M26.705,11.512V8.48"/>
	<path style="&st1;" d="M26.705,11.512h5.666"/>
	<path style="&st0;" d="M17.962,0.5h23.15"/>
	<path style="&st1;" d="M32.37,11.512V8.48"/>
	<path style="&st0;" d="M13.036,3.37L2.716,21.545"/>
	<path style="&st0;" d="M58.574,29.937v5.462"/>
	<path style="&st0;" d="M49.761,51.69l-5.666,10.583"/>
	<path style="&st0;" d="M46.039,3.37l10.32,18.175"/>
	<g ewd:pinNo="2">
		<text transform="matrix(1 0 0 1 34.814 26.8042)"><tspan x="0" y="0" style="&st3; &st2;">2</tspan></text>
	</g>
	<g ewd:pinNo="1">
		<text transform="matrix(1 0 0 1 20.6499 26.8042)"><tspan x="0" y="0" style="&st3; &st2;">1</tspan></text>
	</g>
	<g ewd:pinNo="3">
		<text transform="matrix(1 0 0 1 20.6499 39.5518)"><tspan x="0" y="0" style="&st3; &st2;">3</tspan></text>
	</g>
	<g ewd:pinNo="4">
		<text transform="matrix(1 0 0 1 34.814 39.5518)"><tspan x="0" y="0" style="&st3; &st2;">4</tspan></text>
	</g>
</g>
</svg>