<?xml version="1.0"?>
<!-- Generator: Adobe Illustrator 10.0, SVG Export Plug-In . SVG Version: 3.0.0 Build 77)  -->
<!DOCTYPE svg PUBLIC "-//W3C//DTD SVG 1.0//EN" "http://www.w3.org/TR/2001/REC-SVG-20010904/DTD/svg10.dtd"[
	<!ENTITY ns_flows "http://ns.adobe.com/Flows/1.0/">
	<!ENTITY ns_svg "http://www.w3.org/2000/svg">
	<!ENTITY ns_xlink "http://www.w3.org/1999/xlink">
	<!ENTITY st0 "fill:none;">
	<!ENTITY st1 "stroke:#000000;">
	<!ENTITY st2 "stroke-linecap:round;">
	<!ENTITY st3 "stroke-linejoin:round;">
	<!ENTITY st4 "stroke-width:0.6;">
	<!ENTITY st5 "font-size:6px;">
	<!ENTITY st6 "font-family:'Arial';">
	<!ENTITY st7 "stroke-width:1.4;">
	<!ATTLIST svg
		ewd:ver CDATA #IMPLIED
		xmlns:ewd CDATA #FIXED "http://shcl.co.jp/ewd"
		xmlns:a CDATA #FIXED "http://ns.adobe.com/AdobeSVGViewerExtensions/3.0/">
	<!ATTLIST g
		ewd:pinNo CDATA #IMPLIED>
]>
<svg width="384.164" height="118.573" viewBox="0 0 384.164 118.573" style="overflow:visible;enable-background:new 0 0 180.887 101.567" xml:space="preserve" onload="call_execInitLoadProc_svg('connector')" ewd:ver="2.1.2.9" xmlns="&ns_svg;" xmlns:ewd="http://shcl.co.jp/ewd" xmlns:a="http://ns.adobe.com/AdobeSVGViewerExtensions/3.0/" xmlns:xlink="&ns_xlink;">
<script type="text/javascript" xlink:href="../../../../../system/js/ewd/fig/svgfig.js"/>
<g id="レイヤー_1" transform="translate(0,17.008)">
	<path style="&st0;&st1;&st4;&st2;&st3;" d="M146.392,82.653c4.694,0,8.499-3.805,8.499-8.499"/>
	<path style="&st0;&st1;&st4;&st2;&st3;" d="M34.494,28.829c-7.04,0-12.748,5.708-12.748,12.748"/>
	<path style="&st0;&st1;&st4;&st2;&st3;" d="M159.14,41.577c0-7.041-5.708-12.748-12.748-12.748"/>
	<path style="&st0;&st1;&st4;&st2;&st3;" d="M21.747,74.155c0,7.04,5.708,12.748,12.748,12.748"/>
	<path style="&st0;&st1;&st4;&st2;&st3;" d="M146.392,86.902c7.041,0,12.748-5.708,12.748-12.748"/>
	<path style="&st0;&st1;&st2;&st3;" d="M20.69,84.07c3.304,4.601,8.14,7.081,13.804,7.081"/>
	<path style="&st0;&st1;&st4;&st2;&st3;" d="M25.996,74.155c0,4.693,3.805,8.499,8.499,8.499"/>
	<path style="&st0;&st1;&st4;&st2;&st3;" d="M154.891,41.577c0-4.693-3.805-8.499-8.499-8.499"/>
	<path style="&st0;&st1;&st4;&st2;&st3;" d="M34.494,33.078c-4.693,0-8.499,3.805-8.499,8.499"/>
	<path style="&st0;&st1;&st4;&st2;&st3;" d="M160.197,84.07c2.171-3.023,3.191-6.193,3.191-9.915"/>
	<path style="&st0;&st1;&st2;&st3;" d="M103.191,101.067c3.129,0,5.666-2.537,5.666-5.666"/>
	<path style="&st0;&st1;&st4;&st2;&st3;" d="M36.194,21.747c0-0.939-0.761-1.7-1.7-1.7"/>
	<path style="&st0;&st1;&st4;&st2;&st3;" d="M34.494,20.047c-0.938,0-1.7,0.761-1.7,1.7"/>
	<path style="&st0;&st1;&st4;&st2;&st3;" d="M32.794,21.747c0,0.939,0.761,1.7,1.7,1.7"/>
	<path style="&st0;&st1;&st4;&st2;&st3;" d="M34.494,23.446c0.939,0,1.7-0.761,1.7-1.7"/>
	<path style="&st0;&st1;&st2;&st3;" d="M72.03,95.401c0,3.129,2.537,5.666,5.666,5.666"/>
	<path style="&st0;&st1;&st4;&st2;&st3;" d="M62.823,21.747c0,0.782,0.634,1.417,1.417,1.417"/>
	<path style="&st0;&st1;&st4;&st2;&st3;" d="M63.792,18.591c-0.589,0.196-0.968,0.721-0.968,1.343"/>
	<path style="&st0;&st1;&st4;&st2;&st3;" d="M116.647,23.163c0.782,0,1.417-0.634,1.417-1.417"/>
	<path style="&st0;&st1;&st4;&st2;&st3;" d="M148.092,21.747c0-0.939-0.761-1.7-1.7-1.7"/>
	<path style="&st0;&st1;&st4;&st2;&st3;" d="M146.392,20.047c-0.938,0-1.7,0.761-1.7,1.7"/>
	<path style="&st0;&st1;&st4;&st2;&st3;" d="M144.692,21.747c0,0.939,0.761,1.7,1.7,1.7"/>
	<path style="&st0;&st1;&st4;&st2;&st3;" d="M146.392,23.446c0.939,0,1.7-0.761,1.7-1.7"/>
	<path style="&st0;&st1;&st4;&st2;&st3;" d="M118.063,19.934c0-0.622-0.378-1.147-0.968-1.344"/>
	<path style="&st0;&st1;&st2;&st3;" d="M180.387,31.299c0-3.372-1.813-6.237-4.861-7.681"/>
	<path style="&st0;&st1;&st2;&st3;" d="M5.361,23.619C2.314,25.062,0.5,27.928,0.5,31.299"/>
	<path style="&st0;&st1;&st4;&st2;&st3;" d="M111.429,16.701c-0.743-0.247-1.546,0.155-1.793,0.898"/>
	<path style="&st0;&st1;&st4;&st2;&st3;" d="M109.636,17.6c-0.05,0.152-0.072,0.287-0.072,0.447"/>
	<path style="&st0;&st1;&st4;&st2;&st3;" d="M109.565,21.747c0,0.782,0.634,1.417,1.417,1.417"/>
	<path style="&st0;&st1;&st4;&st2;&st3;" d="M71.321,18.047c0-0.782-0.634-1.417-1.417-1.417"/>
	<path style="&st0;&st1;&st4;&st2;&st3;" d="M69.905,16.63c-0.16,0-0.295,0.022-0.447,0.073"/>
	<path style="&st0;&st1;&st4;&st2;&st3;" d="M69.905,23.163c0.782,0,1.417-0.634,1.417-1.417"/>
	<path style="&st0;&st1;&st2;&st3;" d="M150.905,11.956c-0.183-0.086-0.353-0.128-0.555-0.135"/>
	<path style="&st0;&st1;&st2;&st3;" d="M109.565,8.5c0,1.071,0.845,1.945,1.915,1.982"/>
	<path style="&st0;&st1;&st4;&st2;&st3;" d="M24.834,22.231c0-0.783-0.634-1.417-1.417-1.417"/>
	<path style="&st0;&st1;&st4;&st2;&st3;" d="M23.417,20.814c-0.22,0-0.407,0.042-0.606,0.137"/>
	<path style="&st0;&st1;&st4;&st2;&st3;" d="M13.659,25.288c-0.71,0.337-1.132,1.005-1.132,1.791"/>
	<path style="&st0;&st1;&st2;&st3;" d="M69.406,10.48c1.07-0.037,1.914-0.91,1.914-1.98"/>
	<path style="&st0;&st1;&st2;&st3;" d="M32.001,11.772c-1.218,0.042-2.244,0.292-3.345,0.814"/>
	<path style="&st0;&st1;&st4;&st2;&st3;" d="M163.39,41.577c0-5.068-1.954-9.395-5.754-12.748"/>
	<path style="&st0;&st1;&st4;&st2;&st3;" d="M23.25,28.829c-3.801,3.353-5.754,7.68-5.754,12.748"/>
	<path style="&st0;&st1;&st4;&st2;&st3;" d="M17.497,74.155c0,3.722,1.021,6.892,3.192,9.916"/>
	<path style="&st0;&st1;&st2;&st3;" d="M146.392,91.152c5.665,0,10.501-2.48,13.806-7.082"/>
	<path style="&st0;&st1;&st4;&st2;&st3;" d="M158.075,20.951c-0.707-0.335-1.552-0.033-1.887,0.674"/>
	<path style="&st0;&st1;&st4;&st2;&st3;" d="M156.188,21.625c-0.094,0.2-0.136,0.386-0.136,0.607"/>
	<path style="&st0;&st1;&st4;&st2;&st3;" d="M168.361,27.078c0-0.786-0.422-1.454-1.132-1.792"/>
	<path style="&st0;&st1;&st4;&st2;&st3;" d="M25.996,60.698h5.666"/>
	<path style="&st0;&st1;&st4;&st2;&st3;" d="M146.392,82.653H34.494"/>
	<path style="&st0;&st1;&st4;&st2;&st3;" d="M31.662,60.698v13.457"/>
	<path style="&st0;&st1;&st4;&st2;&st3;" d="M108.857,91.152H72.03"/>
	<path style="&st0;&st1;&st4;&st2;&st3;" d="M31.662,74.155h-5.666"/>
	<path style="&st0;&st1;&st4;&st2;&st3;" d="M21.747,41.577v32.578"/>
	<path style="&st0;&st1;&st4;&st2;&st3;" d="M159.14,41.577v32.578"/>
	<path style="&st0;&st1;&st4;&st2;&st3;" d="M25.996,41.577h5.666v13.456h-5.666"/>
	<path style="&st0;&st1;&st4;&st2;&st3;" d="M146.392,86.902H34.494"/>
	<path style="&st0;&st1;&st4;&st2;&st3;" d="M146.392,33.078H34.494"/>
	<path style="&st0;&st1;&st4;&st2;&st3;" d="M154.891,60.698h-5.666"/>
	<path style="&st0;&st1;&st4;&st2;&st3;" d="M154.891,41.577v32.578"/>
	<path style="&st0;&st1;&st4;&st2;&st3;" d="M25.996,41.577v32.578"/>
	<path style="&st0;&st1;&st4;&st2;&st3;" d="M149.225,60.698v13.457"/>
	<path style="&st0;&st1;&st4;&st2;&st3;" d="M149.225,74.155h5.666"/>
	<path style="&st0;&st1;&st4;&st2;&st3;" d="M154.891,41.577h-5.666v13.456h5.666"/>
	<path style="&st0;&st1;&st4;&st2;&st3;" d="M111.429,16.701l5.666,1.89"/>
	<path style="&st0;&st1;&st4;&st2;&st3;" d="M123.729,18.914v4.249h11.332V20.33L123.729,18.914"/>
	<path style="&st0;&st1;&st4;&st2;&st3;" d="M157.636,28.829H23.25"/>
	<path style="&st0;&st1;&st4;&st2;&st3;" d="M174.721,67.072V84.07"/>
	<path style="&st0;&st1;&st4;&st2;&st3;" d="M21.747,68.489h-4.25"/>
	<path style="&st0;&st1;&st4;&st2;&st3;" d="M21.747,47.242h-4.25"/>
	<path style="&st0;&st1;&st4;&st2;&st3;" d="M57.157,18.914v4.249H45.826V20.33L57.157,18.914"/>
	<path style="&st0;&st1;&st4;&st2;&st3;" d="M163.39,51.492h8.498v12.748"/>
	<path style="&st0;&st1;&st4;&st2;&st3;" d="M163.39,47.242h-4.25"/>
	<path style="&st0;&st1;&st4;&st2;&st3;" d="M163.39,68.489h-4.25"/>
	<path style="&st0;&st1;&st4;&st2;&st3;" d="M116.647,23.163h-5.666"/>
	<path style="&st0;&st1;&st4;&st2;&st3;" d="M118.063,19.934v1.813"/>
	<path style="&st0;&st1;&st2;&st3;" d="M177.554,67.072V84.07h-2.833v5.666H163.39"/>
	<path style="&st0;&st1;&st4;&st2;&st3;" d="M104.607,91.152v5.666H93.276v-5.666"/>
	<path style="&st0;&st1;&st4;&st2;&st3;" d="M177.554,67.072h-2.833"/>
	<path style="&st0;&st1;&st2;&st3;" d="M175.525,23.619l-24.621-11.663"/>
	<path style="&st0;&st1;&st4;&st2;&st3;" d="M17.497,41.577v32.578"/>
	<path style="&st0;&st1;&st4;&st2;&st3;" d="M87.61,91.152v5.666H76.279v-5.666"/>
	<path style="&st0;&st1;&st4;&st2;&st3;" d="M64.239,23.163h5.666"/>
	<path style="&st0;&st1;&st2;&st3;" d="M108.857,91.152v4.249"/>
	<path style="&st0;&st1;&st2;&st3;" d="M72.03,91.152v4.249"/>
	<path style="&st0;&st1;&st4;&st2;&st3;" d="M62.823,19.934v1.813"/>
	<path style="&st0;&st1;&st2;&st3;" d="M103.191,101.067H77.695"/>
	<path style="&st0;&st1;&st4;&st2;&st3;" d="M69.458,16.701l-5.666,1.89"/>
	<path style="&st0;&st1;&st4;&st2;&st3;" d="M109.565,11.832v16.997"/>
	<path style="&st0;&st1;&st4;&st2;&st3;" d="M90.443,18.914H79.82v4.249h10.624"/>
	<path style="&st0;&st1;&st4;&st2;&st3;" d="M88.319,18.914v2.124h2.125"/>
	<path style="&st0;&st1;&st2;&st3;" d="M72.03,91.152H34.494"/>
	<path style="&st0;&st1;&st2;&st3;" d="M109.565,8.5v-8h-5.666v11.332"/>
	<path style="&st0;&st1;&st2;&st3;" d="M90.443,6.166H79.82v5.666"/>
	<path style="&st0;&st1;&st2;&st3;" d="M90.443,6.166h10.623v5.666"/>
	<path style="&st0;&st1;&st4;&st2;&st3;" d="M71.321,11.832v16.997"/>
	<path style="&st0;&st1;&st4;&st2;&st3;" d="M109.565,11.832h-5.666"/>
	<path style="&st0;&st1;&st2;&st3;" d="M5.361,23.619l23.294-11.034"/>
	<path style="&st0;&st1;&st4;&st2;&st3;" d="M90.443,18.914h10.623v4.249H90.443"/>
	<path style="&st0;&st1;&st4;&st2;&st3;" d="M92.568,18.914v2.124h-2.125"/>
	<path style="&st0;&st1;&st2;&st3;" d="M146.392,91.152h-37.535"/>
	<path style="&st0;&st1;&st4;&st2;&st3;" d="M163.39,41.577v32.578"/>
	<path style="&st0;&st1;&st4;&st2;&st3;" d="M71.321,11.832h5.666"/>
	<path style="&st0;&st1;&st2;&st3;" d="M79.82,11.832h-2.833"/>
	<path style="&st0;&st1;&st4;&st2;&st3;" d="M101.066,11.832H79.82"/>
	<path style="&st0;&st1;&st2;&st3;" d="M103.899,11.832h-2.833"/>
	<path style="&st0;&st1;&st4;&st2;&st3;" d="M171.888,64.239h-8.498"/>
	<path style="&st0;&st1;&st2;&st3;" d="M180.387,31.299v35.773h-2.833"/>
	<path style="&st0;&st1;&st4;&st2;&st3;" d="M6.166,67.072V84.07"/>
	<path style="&st0;&st1;&st2;&st3;" d="M3.333,67.072V84.07h2.833v5.666h11.332"/>
	<path style="&st0;&st1;&st2;&st3;" d="M0.5,31.299v35.773h2.833"/>
	<path style="&st0;&st1;&st4;&st2;&st3;" d="M6.166,67.072H3.333"/>
	<path style="&st0;&st1;&st2;&st3;" d="M150.35,11.82l-38.87-1.34"/>
	<path style="&st0;&st1;&st4;&st2;&st3;" d="M109.565,11.832V8.5"/>
	<path style="&st0;&st1;&st4;&st2;&st3;" d="M22.812,20.951l-9.153,4.337"/>
	<path style="&st0;&st1;&st4;&st2;&st3;" d="M12.525,32.186l12.309-9.059"/>
	<path style="&st0;&st1;&st4;&st2;&st3;" d="M24.834,22.231v0.895"/>
	<path style="&st0;&st1;&st4;&st2;&st3;" d="M12.525,27.078v5.107"/>
	<path style="&st0;&st1;&st2;&st3;" d="M32.001,11.772l37.405-1.292"/>
	<path style="&st0;&st1;&st4;&st2;&st3;" d="M71.321,11.832V8.5"/>
	<path style="&st0;&st1;&st2;&st3;" d="M71.321,8.5v-8h5.666v11.332"/>
	<path style="&st0;&st1;&st4;&st2;&st3;" d="M17.497,51.492h-5.666v12.748"/>
	<path style="&st0;&st1;&st4;&st2;&st3;" d="M11.832,64.239h5.666"/>
	<path style="&st0;&st1;&st2;&st3;" d="M20.69,84.07h-3.193"/>
	<path style="&st0;&st1;&st4;&st2;&st3;" d="M17.497,74.155v9.915"/>
	<path style="&st0;&st1;&st2;&st3;" d="M17.497,84.07v5.666"/>
	<path style="&st0;&st1;&st2;&st3;" d="M163.39,84.07h-3.193"/>
	<path style="&st0;&st1;&st4;&st2;&st3;" d="M163.39,74.155v9.915"/>
	<path style="&st0;&st1;&st2;&st3;" d="M163.39,84.07v5.666"/>
	<path style="&st0;&st1;&st4;&st2;&st3;" d="M146.392,35.911v12.748h-9.915V35.911H146.392"/>
	<path style="&st0;&st1;&st4;&st2;&st3;" d="M132.228,35.911v12.748h-19.83V35.911H132.228"/>
	<path style="&st0;&st1;&st4;&st2;&st3;" d="M122.313,48.659V35.911"/>
	<path style="&st0;&st1;&st4;&st2;&st3;" d="M98.233,48.659V35.911"/>
	<path style="&st0;&st1;&st4;&st2;&st3;" d="M108.148,35.911v12.748h-19.83V35.911H108.148"/>
	<path style="&st0;&st1;&st4;&st2;&st3;" d="M84.069,35.911v12.748h-19.83V35.911H84.069"/>
	<path style="&st0;&st1;&st4;&st2;&st3;" d="M74.154,48.659V35.911"/>
	<path style="&st0;&st1;&st4;&st2;&st3;" d="M59.99,42.993v12.748H34.494V42.993H59.99"/>
	<path style="&st0;&st1;&st4;&st2;&st3;" d="M47.242,55.741V42.993"/>
	<path style="&st0;&st1;&st4;&st2;&st3;" d="M117.355,51.492v12.748h-19.83V51.492H117.355"/>
	<path style="&st0;&st1;&st4;&st2;&st3;" d="M93.276,51.492v12.748h-19.83V51.492H93.276"/>
	<path style="&st0;&st1;&st4;&st2;&st3;" d="M131.52,64.239V51.492"/>
	<path style="&st0;&st1;&st4;&st2;&st3;" d="M141.435,51.492v12.748h-19.83V51.492H141.435"/>
	<path style="&st0;&st1;&st4;&st2;&st3;" d="M107.44,64.239V51.492"/>
	<path style="&st0;&st1;&st4;&st2;&st3;" d="M83.361,64.239V51.492"/>
	<path style="&st0;&st1;&st4;&st2;&st3;" d="M146.392,67.072V79.82h-9.915V67.072H146.392"/>
	<path style="&st0;&st1;&st4;&st2;&st3;" d="M108.148,67.072V79.82h-19.83V67.072H108.148"/>
	<path style="&st0;&st1;&st4;&st2;&st3;" d="M84.069,67.072V79.82h-19.83V67.072H84.069"/>
	<path style="&st0;&st1;&st4;&st2;&st3;" d="M122.313,79.82V67.072"/>
	<path style="&st0;&st1;&st4;&st2;&st3;" d="M132.228,67.072V79.82h-19.83V67.072H132.228"/>
	<path style="&st0;&st1;&st4;&st2;&st3;" d="M98.233,79.82V67.072"/>
	<path style="&st0;&st1;&st4;&st2;&st3;" d="M74.154,79.82V67.072"/>
	<path style="&st0;&st1;&st4;&st2;&st3;" d="M59.99,59.99v12.748H34.494V59.99H59.99"/>
	<path style="&st0;&st1;&st4;&st2;&st3;" d="M47.242,72.738V59.99"/>
	<path style="&st0;&st1;&st4;&st2;&st3;" d="M158.075,20.951l9.153,4.337"/>
	<path style="&st0;&st1;&st4;&st2;&st3;" d="M168.361,32.186l-12.309-9.059"/>
	<path style="&st0;&st1;&st4;&st2;&st3;" d="M156.052,22.231v0.895"/>
	<path style="&st0;&st1;&st4;&st2;&st3;" d="M168.361,27.078v5.107"/>
	<path style="&st0;&st1;&st4;&st2;&st3;" d="M129.395,13.248H51.491"/>
	<path style="&st0;&st1;&st4;&st2;&st3;" d="M51.491,28.829v-5.666"/>
	<path style="&st0;&st1;&st4;&st2;&st3;" d="M51.491,19.622v-8.524"/>
	<path style="&st0;&st1;&st4;&st2;&st3;" d="M129.395,28.829v-5.666"/>
	<path style="&st0;&st1;&st4;&st2;&st3;" d="M129.395,19.622v-8.524"/>
	<path style="&st0;&st1;&st4;&st2;&st3;" d="M129.395,14.665H51.491"/>
	<path style="&st0;&st1;&st4;&st2;&st3;" d="M129.395,16.081H51.491"/>
	<path style="&st0;&st1;&st4;&st2;&st3;" d="M129.395,24.58H51.491"/>
	<path style="&st0;&st1;&st4;&st2;&st3;" d="M129.395,25.996H51.491"/>
	<path style="&st0;&st1;&st4;&st2;&st3;" d="M129.395,27.413H51.491"/>
	<path style="&st0;&st1;&st4;&st2;&st3;" d="M64.239,23.163H51.491"/>
	<path style="&st0;&st1;&st4;&st2;&st3;" d="M67.072,17.498H51.491"/>
	<path style="&st0;&st1;&st4;&st2;&st3;" d="M63.256,18.914h-6.099"/>
	<path style="&st0;&st1;&st4;&st2;&st3;" d="M62.823,20.33h-5.666"/>
	<path style="&st0;&st1;&st4;&st2;&st3;" d="M62.823,21.747h-5.666"/>
	<path style="&st0;&st1;&st4;&st2;&st3;" d="M79.82,20.33h-8.499"/>
	<path style="&st0;&st1;&st4;&st2;&st3;" d="M79.82,21.747h-8.499"/>
	<path style="&st0;&st1;&st4;&st2;&st3;" d="M79.82,18.914h-8.499"/>
	<path style="&st0;&st1;&st4;&st2;&st3;" d="M79.82,23.163h-9.915"/>
	<path style="&st0;&st1;&st4;&st2;&st3;" d="M129.395,17.498h-15.581"/>
	<path style="&st0;&st1;&st4;&st2;&st3;" d="M109.675,17.498H71.211"/>
	<path style="&st0;&st1;&st4;&st2;&st3;" d="M123.729,18.914h-6.099"/>
	<path style="&st0;&st1;&st4;&st2;&st3;" d="M109.565,18.914h-8.499"/>
	<path style="&st0;&st1;&st4;&st2;&st3;" d="M123.729,20.33h-5.666"/>
	<path style="&st0;&st1;&st4;&st2;&st3;" d="M109.565,20.33h-8.499"/>
	<path style="&st0;&st1;&st4;&st2;&st3;" d="M123.729,21.747h-5.666"/>
	<path style="&st0;&st1;&st4;&st2;&st3;" d="M109.565,21.747h-8.499"/>
	<path style="&st0;&st1;&st4;&st2;&st3;" d="M123.729,23.163h-7.083"/>
	<path style="&st0;&st1;&st4;&st2;&st3;" d="M110.981,23.163h-9.915"/>
	<g ewd:pinNo="9">
		<text transform="matrix(1 0 0 1 139.7007 44.3457)"><tspan x="0" y="0" style="&st6; &st5;">9</tspan></text>
	</g>
	<g ewd:pinNo="8">
		<text transform="matrix(1 0 0 1 125.5361 44.3457)"><tspan x="0" y="0" style="&st6; &st5;">8</tspan></text>
	</g>
	<g ewd:pinNo="7">
		<text transform="matrix(1 0 0 1 115.6216 44.3457)"><tspan x="0" y="0" style="&st6; &st5;">7</tspan></text>
	</g>
	<g ewd:pinNo="6">
		<text transform="matrix(1 0 0 1 101.457 44.3457)"><tspan x="0" y="0" style="&st6; &st5;">6</tspan></text>
	</g>
	<g ewd:pinNo="5">
		<text transform="matrix(1 0 0 1 91.542 44.3457)"><tspan x="0" y="0" style="&st6; &st5;">5</tspan></text>
	</g>
	<g ewd:pinNo="4">
		<text transform="matrix(1 0 0 1 77.3774 44.3457)"><tspan x="0" y="0" style="&st6; &st5;">4</tspan></text>
	</g>
	<g ewd:pinNo="3">
		<text transform="matrix(1 0 0 1 67.4629 44.3457)"><tspan x="0" y="0" style="&st6; &st5;">3</tspan></text>
	</g>
	<g ewd:pinNo="2">
		<text transform="matrix(1 0 0 1 51.8818 51.4282)"><tspan x="0" y="0" style="&st6; &st5;">2</tspan></text>
	</g>
	<g ewd:pinNo="1">
		<text transform="matrix(1 0 0 1 39.1343 51.4282)"><tspan x="0" y="0" style="&st6; &st5;">1</tspan></text>
	</g>
	<g ewd:pinNo="15">
		<text transform="matrix(1 0 0 1 132.8086 59.9268)"><tspan x="0" y="0" style="&st6; &st5;">15</tspan></text>
	</g>
	<g ewd:pinNo="14">
		<text transform="matrix(1 0 0 1 122.894 59.9268)"><tspan x="0" y="0" style="&st6; &st5;">14</tspan></text>
	</g>
	<g ewd:pinNo="13">
		<text transform="matrix(1 0 0 1 108.7295 59.9268)"><tspan x="0" y="0" style="&st6; &st5;">13</tspan></text>
	</g>
	<g ewd:pinNo="12">
		<text transform="matrix(1 0 0 1 98.8145 59.9268)"><tspan x="0" y="0" style="&st6; &st5;">12</tspan></text>
	</g>
	<g ewd:pinNo="11">
		<text transform="matrix(1 0 0 1 84.873 59.9268)"><tspan x="0" y="0" style="&st6; &st5;">11</tspan></text>
	</g>
	<g ewd:pinNo="10">
		<text transform="matrix(1 0 0 1 74.7354 59.9268)"><tspan x="0" y="0" style="&st6; &st5;">10</tspan></text>
	</g>
	<g ewd:pinNo="24">
		<text transform="matrix(1 0 0 1 138.1665 75.5073)"><tspan x="0" y="0" style="&st6; &st5;">24</tspan></text>
	</g>
	<g ewd:pinNo="23">
		<text transform="matrix(1 0 0 1 124.0024 75.5073)"><tspan x="0" y="0" style="&st6; &st5;">23</tspan></text>
	</g>
	<g ewd:pinNo="22">
		<text transform="matrix(1 0 0 1 114.0874 75.5073)"><tspan x="0" y="0" style="&st6; &st5;">22</tspan></text>
	</g>
	<g ewd:pinNo="21">
		<text transform="matrix(1 0 0 1 99.9233 75.5073)"><tspan x="0" y="0" style="&st6; &st5;">21</tspan></text>
	</g>
	<g ewd:pinNo="20">
		<text transform="matrix(1 0 0 1 90.0083 75.5073)"><tspan x="0" y="0" style="&st6; &st5;">20</tspan></text>
	</g>
	<g ewd:pinNo="19">
		<text transform="matrix(1 0 0 1 75.4434 75.5073)"><tspan x="0" y="0" style="&st6; &st5;">19</tspan></text>
	</g>
	<g ewd:pinNo="18">
		<text transform="matrix(1 0 0 1 65.5283 75.5073)"><tspan x="0" y="0" style="&st6; &st5;">18</tspan></text>
	</g>
	<g ewd:pinNo="17">
		<text transform="matrix(1 0 0 1 49.9478 68.4253)"><tspan x="0" y="0" style="&st6; &st5;">17</tspan></text>
	</g>
	<g ewd:pinNo="16">
		<text transform="matrix(1 0 0 1 37.1997 68.4253)"><tspan x="0" y="0" style="&st6; &st5;">16</tspan></text>
	</g>
</g>
<g id="レイヤー_1" transform="translate(200.728,17.008)">
	<path style="&st0;&st1;&st2;&st3;" d="M18.914,4.75c-4.694,0-8.499,3.805-8.499,8.499"/>
	<path style="&st0;&st1;&st4;&st2;&st3;" d="M17.497,55.741c0,7.822,6.342,14.164,14.165,14.164"/>
	<path style="&st0;&st1;&st2;&st3;" d="M173.021,13.248c0-4.693-3.805-8.499-8.499-8.499"/>
	<path style="&st0;&st1;&st4;&st2;&st3;" d="M25.996,7.583c-7.04,0-12.748,5.708-12.748,12.748"/>
	<path style="&st0;&st1;&st4;&st2;&st3;" d="M147.525,74.155c12.516,0,22.663-10.147,22.663-22.663"/>
	<path style="&st0;&st1;&st4;&st2;&st3;" d="M151.774,69.905c7.823,0,14.165-6.342,14.165-14.164"/>
	<path style="&st0;&st1;&st4;&st2;&st3;" d="M165.939,20.33c0-4.693-3.805-8.499-8.499-8.499"/>
	<path style="&st0;&st1;&st4;&st2;&st3;" d="M25.996,11.832c-4.693,0-8.499,3.805-8.499,8.499"/>
	<path style="&st0;&st1;&st4;&st2;&st3;" d="M17.497,55.741c0,4.693,3.805,8.498,8.499,8.498"/>
	<path style="&st0;&st1;&st4;&st2;&st3;" d="M157.44,64.239c4.693,0,8.499-3.805,8.499-8.498"/>
	<path style="&st0;&st1;&st4;&st2;&st3;" d="M170.188,20.33c0-7.04-5.707-12.748-12.748-12.748"/>
	<path style="&st0;&st1;&st4;&st2;&st3;" d="M13.248,51.492c0,12.516,10.146,22.663,22.663,22.663"/>
	<path style="&st0;&st1;&st4;&st2;&st3;" d="M150.358,74.155c2.849,0,5.263-0.437,7.932-1.434"/>
	<path style="&st0;&st1;&st2;&st3;" d="M10.415,51.492c0,9.667,5.675,17.846,14.731,21.229"/>
	<path style="&st0;&st1;&st2;&st3;" d="M158.29,72.721c9.056-3.383,14.731-11.563,14.731-21.229"/>
	<path style="&st0;&st1;&st4;&st2;&st3;" d="M25.146,72.721c2.669,0.997,5.083,1.434,7.932,1.434"/>
	<path style="&st0;&st1;&st2;&st3;" d="M60.557,88.319c0,1.564,1.268,2.833,2.833,2.833"/>
	<path style="&st0;&st1;&st2;&st3;" d="M120.046,91.152c1.565,0,2.833-1.269,2.833-2.833"/>
	<path style="&st0;&st1;&st4;&st2;&st3;" d="M114.381,87.469c0-1.095-0.888-1.983-1.983-1.983"/>
	<path style="&st0;&st1;&st4;&st2;&st3;" d="M71.038,85.486c-1.095,0-1.983,0.888-1.983,1.983"/>
	<path style="&st0;&st1;&st4;&st2;&st3;" d="M40.727,16.081v11.332H63.39V16.081H40.727"/>
	<path style="&st0;&st1;&st4;&st2;&st3;" d="M105.882,27.413V16.081"/>
	<path style="&st0;&st1;&st4;&st2;&st3;" d="M94.551,16.081v11.332h22.663V16.081H94.551"/>
	<path style="&st0;&st1;&st4;&st2;&st3;" d="M78.97,27.413V16.081"/>
	<path style="&st0;&st1;&st4;&st2;&st3;" d="M25.146,16.081v11.332h11.331V16.081H25.146"/>
	<path style="&st0;&st1;&st2;&st3;" d="M158.29,4.75V0.5h-11.331v4.25"/>
	<path style="&st0;&st1;&st4;&st2;&st3;" d="M61.973,31.662v11.332h22.663V31.662H61.973"/>
	<path style="&st0;&st1;&st4;&st2;&st3;" d="M73.304,42.993V31.662"/>
	<path style="&st0;&st1;&st4;&st2;&st3;" d="M142.709,32.228V18.064"/>
	<path style="&st0;&st1;&st4;&st2;&st3;" d="M67.639,16.081v11.332h22.663V16.081H67.639"/>
	<path style="&st0;&st1;&st4;&st2;&st3;" d="M88.885,31.662v11.332h22.663V31.662H88.885"/>
	<path style="&st0;&st1;&st4;&st2;&st3;" d="M100.217,42.993V31.662"/>
	<path style="&st0;&st1;&st2;&st3;" d="M10.415,13.248v16.289"/>
	<path style="&st0;&st1;&st4;&st2;&st3;" d="M35.061,31.662v11.332h22.663V31.662H35.061"/>
	<path style="&st0;&st1;&st4;&st2;&st3;" d="M46.392,42.993V31.662"/>
	<path style="&st0;&st1;&st4;&st2;&st3;" d="M52.058,27.413V16.081"/>
	<path style="&st0;&st1;&st4;&st2;&st3;" d="M90.302,58.574h4.249"/>
	<path style="&st0;&st1;&st4;&st2;&st3;" d="M121.463,66.223V49.226"/>
	<path style="&st0;&st1;&st4;&st2;&st3;" d="M124.296,41.01v14.164h36.827V41.01H124.296"/>
	<path style="&st0;&st1;&st4;&st2;&st3;" d="M40.727,47.242v11.332H63.39V47.242H40.727"/>
	<path style="&st0;&st1;&st4;&st2;&st3;" d="M105.882,58.574V47.242"/>
	<path style="&st0;&st1;&st4;&st2;&st3;" d="M94.551,47.242v11.332h22.663V47.242H94.551"/>
	<path style="&st0;&st1;&st4;&st2;&st3;" d="M78.97,58.574V47.242"/>
	<path style="&st0;&st1;&st4;&st2;&st3;" d="M67.639,47.242v11.332h22.663V47.242H67.639"/>
	<path style="&st0;&st1;&st4;&st2;&st3;" d="M52.058,58.574V47.242"/>
	<path style="&st0;&st1;&st4;&st2;&st3;" d="M25.146,47.242v11.332h11.331V47.242H25.146"/>
	<path style="&st0;&st1;&st4;&st2;&st3;" d="M142.709,55.174V41.01"/>
	<path style="&st0;&st1;&st4;&st2;&st3;" d="M36.477,18.064h4.25"/>
	<path style="&st0;&st1;&st4;&st2;&st3;" d="M117.214,18.064h4.249"/>
	<path style="&st0;&st1;&st4;&st2;&st3;" d="M114.381,31.662v11.332"/>
	<path style="&st0;&st1;&st4;&st2;&st3;" d="M63.39,18.064h4.249"/>
	<path style="&st0;&st1;&st4;&st2;&st3;" d="M13.248,20.33v31.162"/>
	<path style="&st0;&st1;&st4;&st2;&st3;" d="M90.302,18.064h4.249"/>
	<path style="&st0;&st1;&st4;&st2;&st3;" d="M50.642,69.905v-3.683"/>
	<path style="&st0;&st1;&st4;&st2;&st3;" d="M63.39,58.574h4.249"/>
	<path style="&st0;&st1;&st4;&st2;&st3;" d="M117.214,49.226h4.249"/>
	<path style="&st0;&st1;&st4;&st2;&st3;" d="M81.803,69.905v-3.683"/>
	<path style="&st0;&st1;&st4;&st2;&st3;" d="M165.939,23.729l-2.833,2.833v28.612l2.589,2.589"/>
	<path style="&st0;&st1;&st4;&st2;&st3;" d="M57.724,33.645h4.25"/>
	<path style="&st0;&st1;&st2;&st3;" d="M10.415,46.534v4.958"/>
	<path style="&st0;&st1;&st4;&st2;&st3;" d="M84.636,33.645h4.25"/>
	<path style="&st0;&st1;&st4;&st2;&st3;" d="M36.477,49.226h4.25"/>
	<path style="&st0;&st1;&st2;&st3;" d="M6.166,33.786v-4.249h4.25"/>
	<path style="&st0;&st1;&st4;&st2;&st3;" d="M63.39,49.226h4.249"/>
	<path style="&st0;&st1;&st2;&st3;" d="M145.542,4.75h1.417"/>
	<path style="&st0;&st1;&st4;&st2;&st3;" d="M90.302,49.226h4.249"/>
	<path style="&st0;&st1;&st4;&st2;&st3;" d="M117.214,58.574h4.249"/>
	<path style="&st0;&st1;&st4;&st2;&st3;" d="M121.463,18.064v24.929"/>
	<path style="&st0;&st1;&st4;&st2;&st3;" d="M124.296,18.064v14.164h36.827V18.064H124.296"/>
	<path style="&st0;&st1;&st4;&st2;&st3;" d="M114.381,31.662h2.833v-4.249"/>
	<path style="&st0;&st1;&st4;&st2;&st3;" d="M125.712,4.75h11.332"/>
	<path style="&st0;&st1;&st4;&st2;&st3;" d="M114.381,42.993h7.082"/>
	<path style="&st0;&st1;&st2;&st3;" d="M18.914,4.75h6.232"/>
	<path style="&st0;&st1;&st4;&st2;&st3;" d="M138.46,4.75h7.082"/>
	<path style="&st0;&st1;&st2;&st3;" d="M137.044,4.75h1.417"/>
	<path style="&st0;&st1;&st4;&st2;&st3;" d="M36.477,58.574h4.25"/>
	<path style="&st0;&st1;&st2;&st3;" d="M145.542,4.75V0.5h-7.082v4.25"/>
	<path style="&st0;&st1;&st4;&st2;&st3;" d="M17.497,23.729l2.833,2.833v28.612l-2.589,2.589"/>
	<path style="&st0;&st1;&st4;&st2;&st3;" d="M146.959,74.155h3.399"/>
	<path style="&st0;&st1;&st2;&st3;" d="M76.987,7.583V4.75"/>
	<path style="&st0;&st1;&st4;&st2;&st3;" d="M84.636,42.993h4.25"/>
	<path style="&st0;&st1;&st4;&st2;&st3;" d="M57.724,42.993h4.25"/>
	<path style="&st0;&st1;&st4;&st2;&st3;" d="M90.302,27.413h4.249"/>
	<path style="&st0;&st1;&st4;&st2;&st3;" d="M63.39,27.413h4.249"/>
	<path style="&st0;&st1;&st4;&st2;&st3;" d="M36.477,27.413h4.25"/>
	<path style="&st0;&st1;&st4;&st2;&st3;" d="M25.996,11.832H157.44"/>
	<path style="&st0;&st1;&st2;&st3;" d="M46.392,74.155v1.416h11.332v-1.416"/>
	<path style="&st0;&st1;&st4;&st2;&st3;" d="M17.497,20.33v35.411"/>
	<path style="&st0;&st1;&st4;&st2;&st3;" d="M165.939,55.741V20.33"/>
	<path style="&st0;&st1;&st2;&st3;" d="M177.271,33.786h5.666v8.499h-5.666"/>
	<path style="&st0;&st1;&st2;&st3;" d="M137.044,74.155v1.416h-11.332v-1.416"/>
	<path style="&st0;&st1;&st2;&st3;" d="M106.449,7.583V4.75"/>
	<path style="&st0;&st1;&st2;&st3;" d="M173.021,29.537V13.248"/>
	<path style="&st0;&st1;&st2;&st3;" d="M106.449,4.75h19.264"/>
	<path style="&st0;&st1;&st4;&st2;&st3;" d="M170.188,51.492V20.33"/>
	<path style="&st0;&st1;&st4;&st2;&st3;" d="M173.021,46.534h-2.833"/>
	<path style="&st0;&st1;&st2;&st3;" d="M137.044,4.75V0.5h-11.332v4.25"/>
	<path style="&st0;&st1;&st2;&st3;" d="M76.987,7.583h29.461"/>
	<path style="&st0;&st1;&st4;&st2;&st3;" d="M10.415,29.537h2.833"/>
	<path style="&st0;&st1;&st4;&st2;&st3;" d="M177.271,42.285h-1.983l-5.1-2.833"/>
	<path style="&st0;&st1;&st4;&st2;&st3;" d="M177.271,33.786h-1.983l-5.1,2.833"/>
	<path style="&st0;&st1;&st2;&st3;" d="M173.021,46.534h4.25v-4.249"/>
	<path style="&st0;&st1;&st4;&st2;&st3;" d="M10.415,46.534h2.833"/>
	<path style="&st0;&st1;&st4;&st2;&st3;" d="M173.021,29.537h-2.833"/>
	<path style="&st0;&st1;&st2;&st3;" d="M10.415,46.534h-4.25v-4.249"/>
	<path style="&st0;&st1;&st2;&st3;" d="M177.271,33.786v-4.249h-4.25"/>
	<path style="&st0;&st1;&st4;&st2;&st3;" d="M56.307,69.905v-3.683"/>
	<path style="&st0;&st1;&st2;&st3;" d="M173.021,51.492v-4.958"/>
	<path style="&st0;&st1;&st2;&st3;" d="M25.146,4.75V0.5h11.331v4.25"/>
	<path style="&st0;&st1;&st4;&st2;&st3;" d="M146.959,4.75h11.331"/>
	<path style="&st0;&st1;&st4;&st2;&st3;" d="M6.166,33.786h1.983l5.099,2.833"/>
	<path style="&st0;&st1;&st4;&st2;&st3;" d="M6.166,42.285h1.983l5.099-2.833"/>
	<path style="&st0;&st1;&st2;&st3;" d="M6.166,33.786H0.5v8.499h5.666"/>
	<path style="&st0;&st1;&st4;&st2;&st3;" d="M76.137,69.905v-3.683"/>
	<path style="&st0;&st1;&st2;&st3;" d="M37.894,4.75V0.5h7.082v4.25"/>
	<path style="&st0;&st1;&st2;&st3;" d="M46.392,4.75V0.5h11.332v4.25"/>
	<path style="&st0;&st1;&st2;&st3;" d="M158.29,4.75h6.232"/>
	<path style="&st0;&st1;&st2;&st3;" d="M57.724,4.75h19.264"/>
	<path style="&st0;&st1;&st4;&st2;&st3;" d="M46.392,4.75h11.332"/>
	<path style="&st0;&st1;&st2;&st3;" d="M44.976,4.75h1.417"/>
	<path style="&st0;&st1;&st4;&st2;&st3;" d="M37.894,4.75h7.082"/>
	<path style="&st0;&st1;&st2;&st3;" d="M36.477,4.75h1.417"/>
	<path style="&st0;&st1;&st4;&st2;&st3;" d="M25.146,4.75h11.331"/>
	<path style="&st0;&st1;&st4;&st2;&st3;" d="M56.307,66.223h19.83"/>
	<path style="&st0;&st1;&st4;&st2;&st3;" d="M30.812,69.905v-3.683"/>
	<path style="&st0;&st1;&st4;&st2;&st3;" d="M81.803,66.223h19.83"/>
	<path style="&st0;&st1;&st4;&st2;&st3;" d="M101.633,69.905v-3.683"/>
	<path style="&st0;&st1;&st4;&st2;&st3;" d="M107.299,69.905v-3.683"/>
	<path style="&st0;&st1;&st4;&st2;&st3;" d="M31.662,69.905h120.113"/>
	<path style="&st0;&st1;&st2;&st3;" d="M25.146,72.721v2.85h11.331v-1.416"/>
	<path style="&st0;&st1;&st2;&st3;" d="M37.894,74.155v1.416h7.082v-1.416"/>
	<path style="&st0;&st1;&st4;&st2;&st3;" d="M30.812,66.223h19.83"/>
	<path style="&st0;&st1;&st4;&st2;&st3;" d="M25.996,64.239h91.218"/>
	<path style="&st0;&st1;&st4;&st2;&st3;" d="M127.129,69.905v-3.683"/>
	<path style="&st0;&st1;&st4;&st2;&st3;" d="M132.794,69.905v-3.683"/>
	<path style="&st0;&st1;&st4;&st2;&st3;" d="M132.794,66.223h19.83"/>
	<path style="&st0;&st1;&st4;&st2;&st3;" d="M152.625,69.905v-3.683"/>
	<path style="&st0;&st1;&st2;&st3;" d="M145.542,74.155v1.416h-7.082v-1.416"/>
	<path style="&st0;&st1;&st2;&st3;" d="M158.29,72.721v2.85h-11.331v-1.416"/>
	<path style="&st0;&st1;&st2;&st3;" d="M145.542,74.155h1.417"/>
	<path style="&st0;&st1;&st4;&st2;&st3;" d="M117.214,66.223v-7.649"/>
	<path style="&st0;&st1;&st2;&st3;" d="M57.724,74.155h2.833"/>
	<path style="&st0;&st1;&st4;&st2;&st3;" d="M138.46,74.155h7.082"/>
	<path style="&st0;&st1;&st4;&st2;&st3;" d="M117.214,66.223v2.266h4.249v-2.266"/>
	<path style="&st0;&st1;&st2;&st3;" d="M137.044,74.155h1.417"/>
	<path style="&st0;&st1;&st4;&st2;&st3;" d="M107.299,66.223h9.915"/>
	<path style="&st0;&st1;&st4;&st2;&st3;" d="M121.463,66.223h5.666"/>
	<path style="&st0;&st1;&st4;&st2;&st3;" d="M121.463,64.239h35.978"/>
	<path style="&st0;&st1;&st4;&st2;&st3;" d="M33.078,74.155h3.399"/>
	<path style="&st0;&st1;&st4;&st2;&st3;" d="M46.392,74.155h11.332"/>
	<path style="&st0;&st1;&st2;&st3;" d="M44.976,74.155h1.417"/>
	<path style="&st0;&st1;&st4;&st2;&st3;" d="M37.894,74.155h7.082"/>
	<path style="&st0;&st1;&st2;&st3;" d="M36.477,74.155h1.417"/>
	<path style="&st0;&st1;&st4;&st2;&st3;" d="M125.712,74.155h11.332"/>
	<path style="&st0;&st1;&st2;&st3;" d="M63.39,91.152h56.657"/>
	<path style="&st0;&st1;&st2;&st3;" d="M60.557,88.319V74.155"/>
	<path style="&st0;&st1;&st2;&st3;" d="M122.879,88.319V74.155"/>
	<path style="&st0;&st1;&st2;&st3;" d="M122.879,74.155h2.833"/>
	<path style="&st0;&st1;&st4;&st2;&st3;" d="M60.557,74.155h62.323"/>
	<path style="&st0;&st1;&st4;&st2;&st3;" d="M62.54,82.653h58.357"/>
	<path style="&st0;&st1;&st4;&st2;&st3;" d="M69.055,87.469h45.326"/>
	<path style="&st0;&st1;&st4;&st2;&st3;" d="M69.055,91.152v-3.683"/>
	<path style="&st0;&st1;&st4;&st2;&st3;" d="M71.038,85.486h15.014"/>
	<path style="&st0;&st1;&st4;&st2;&st3;" d="M86.052,85.486v-2.833"/>
	<path style="&st0;&st1;&st4;&st2;&st3;" d="M97.384,82.653v2.833"/>
	<path style="&st0;&st1;&st4;&st2;&st3;" d="M97.384,85.486h15.014"/>
	<path style="&st0;&st1;&st4;&st2;&st3;" d="M114.381,91.152v-3.683"/>
	<path style="&st0;&st1;&st4;&st2;&st3;" d="M88.035,87.469V84.07h7.366v3.399"/>
	<path style="&st0;&st1;&st4;&st2;&st3;" d="M106.449,7.583h50.992"/>
	<path style="&st0;&st1;&st4;&st2;&st3;" d="M89.452,91.152v-2.267h4.533v2.267"/>
	<path style="&st0;&st1;&st4;&st2;&st3;" d="M25.996,7.583h50.992"/>
	<path style="&st0;&st1;&st4;&st2;&st3;" d="M89.452,90.019h4.533"/>
	<g ewd:pinNo="7">
		<text transform="matrix(1 0 0 1 56.0425 23.7207)"><tspan x="0" y="0" style="&st6; &st5;">7</tspan></text>
	</g>
	<g ewd:pinNo="6">
		<text transform="matrix(1 0 0 1 71.623 23.7207)"><tspan x="0" y="0" style="&st6; &st5;">6</tspan></text>
	</g>
	<g ewd:pinNo="5">
		<text transform="matrix(1 0 0 1 82.9546 23.7207)"><tspan x="0" y="0" style="&st6; &st5;">5</tspan></text>
	</g>
	<g ewd:pinNo="3">
		<text transform="matrix(1 0 0 1 109.8667 23.7207)"><tspan x="0" y="0" style="&st6; &st5;">3</tspan></text>
	</g>
	<g ewd:pinNo="4">
		<text transform="matrix(1 0 0 1 98.5352 23.7207)"><tspan x="0" y="0" style="&st6; &st5;">4</tspan></text>
	</g>
	<g ewd:pinNo="2">
		<text transform="matrix(1 0 0 1 131.8213 27.1201)"><tspan x="0" y="0" style="&st6; &st5;">2</tspan></text>
	</g>
	<g ewd:pinNo="1">
		<text transform="matrix(1 0 0 1 150.2349 27.1201)"><tspan x="0" y="0" style="&st6; &st5;">1</tspan></text>
	</g>
	<g ewd:pinNo="8">
		<text transform="matrix(1 0 0 1 44.7109 23.7207)"><tspan x="0" y="0" style="&st6; &st5;">8</tspan></text>
	</g>
	<g ewd:pinNo="9">
		<text transform="matrix(1 0 0 1 29.1304 23.7207)"><tspan x="0" y="0" style="&st6; &st5;">9</tspan></text>
	</g>
	<g ewd:pinNo="10">
		<text transform="matrix(1 0 0 1 102.1753 39.3018)"><tspan x="0" y="0" style="&st6; &st5;">10</tspan></text>
	</g>
	<g ewd:pinNo="11">
		<text transform="matrix(1 0 0 1 91.0664 39.3018)"><tspan x="0" y="0" style="&st6; &st5;">11</tspan></text>
	</g>
	<g ewd:pinNo="12">
		<text transform="matrix(1 0 0 1 75.2632 39.3018)"><tspan x="0" y="0" style="&st6; &st5;">12</tspan></text>
	</g>
	<g ewd:pinNo="13">
		<text transform="matrix(1 0 0 1 63.9316 39.3018)"><tspan x="0" y="0" style="&st6; &st5;">13</tspan></text>
	</g>
	<g ewd:pinNo="14">
		<text transform="matrix(1 0 0 1 48.3511 39.3018)"><tspan x="0" y="0" style="&st6; &st5;">14</tspan></text>
	</g>
	<g ewd:pinNo="15">
		<text transform="matrix(1 0 0 1 37.0195 39.3018)"><tspan x="0" y="0" style="&st6; &st5;">15</tspan></text>
	</g>
	<g ewd:pinNo="16">
		<text transform="matrix(1 0 0 1 148.2095 50.0664)"><tspan x="0" y="0" style="&st6; &st5;">16</tspan></text>
	</g>
	<g ewd:pinNo="17">
		<text transform="matrix(1 0 0 1 129.7959 50.0664)"><tspan x="0" y="0" style="&st6; &st5;">17</tspan></text>
	</g>
	<g ewd:pinNo="18">
		<text transform="matrix(1 0 0 1 107.8413 54.8823)"><tspan x="0" y="0" style="&st6; &st5;">18</tspan></text>
	</g>
	<g ewd:pinNo="19">
		<text transform="matrix(1 0 0 1 96.5098 54.8823)"><tspan x="0" y="0" style="&st6; &st5;">19</tspan></text>
	</g>
	<g ewd:pinNo="20">
		<text transform="matrix(1 0 0 1 81.3096 54.8823)"><tspan x="0" y="0" style="&st6; &st5;">20</tspan></text>
	</g>
	<g ewd:pinNo="21">
		<text transform="matrix(1 0 0 1 69.9785 54.8823)"><tspan x="0" y="0" style="&st6; &st5;">21</tspan></text>
	</g>
	<g ewd:pinNo="22">
		<text transform="matrix(1 0 0 1 54.5449 54.8823)"><tspan x="0" y="0" style="&st6; &st5;">22</tspan></text>
	</g>
	<g ewd:pinNo="23">
		<text transform="matrix(1 0 0 1 43.0664 54.8823)"><tspan x="0" y="0" style="&st6; &st5;">23</tspan></text>
	</g>
	<g ewd:pinNo="24">
		<text transform="matrix(1 0 0 1 27.4854 54.8823)"><tspan x="0" y="0" style="&st6; &st5;">24</tspan></text>
	</g>
</g>
<path d="M90.4435,9.069v-8.504h202.0025v8.504" style="&st0;&st1;&st7;&st2;&st3;"/>
</svg>