<?xml version="1.0"?>
<!-- Generator: Adobe Illustrator 10.0, SVG Export Plug-In . SVG Version: 3.0.0 Build 77)  -->
<!DOCTYPE svg PUBLIC "-//W3C//DTD SVG 1.0//EN" "http://www.w3.org/TR/2001/REC-SVG-20010904/DTD/svg10.dtd"[
	<!ENTITY ns_flows "http://ns.adobe.com/Flows/1.0/">
	<!ENTITY ns_svg "http://www.w3.org/2000/svg">
	<!ENTITY ns_xlink "http://www.w3.org/1999/xlink">
	<!ENTITY st0 "fill:none;stroke:#000000;stroke-linecap:round;stroke-linejoin:round;">
	<!ENTITY st1 "fill:none;stroke:#000000;stroke-width:0.6;stroke-linecap:round;stroke-linejoin:round;">
	<!ENTITY st2 "font-size:6px;">
	<!ENTITY st3 "font-family:'Arial';">
	<!ATTLIST svg
		ewd:ver CDATA #IMPLIED
		xmlns:ewd CDATA #FIXED "http://shcl.co.jp/ewd"
		xmlns:a CDATA #FIXED "http://ns.adobe.com/AdobeSVGViewerExtensions/3.0/">
	<!ATTLIST g
		ewd:pinNo CDATA #IMPLIED>
]>
<svg width="42.02" height="44.911" viewBox="0 0 42.02 44.911" style="overflow:visible;enable-background:new 0 0 42.02 44.911" xml:space="preserve" onload="call_execInitLoadProc_svg('connector')" ewd:ver="2.1.2.9" xmlns="&ns_svg;" xmlns:ewd="http://shcl.co.jp/ewd" xmlns:a="http://ns.adobe.com/AdobeSVGViewerExtensions/3.0/" xmlns:xlink="&ns_xlink;">
<script type="text/javascript" xlink:href="../../../../../system/js/ewd/fig/svgfig.js"/>
<g id="レイヤー_1">
	<path style="&st0;" d="M12.137,44.41h17.745"/>
	<path style="&st0;" d="M0.5,22.823v11.104"/>
	<path style="&st0;" d="M16.335,0.5h9.349"/>
	<path style="&st0;" d="M41.52,22.823v11.104"/>
	<path style="&st1;" d="M21.01,21.747v12.748"/>
	<path style="&st1;" d="M2.562,37.327h36.896"/>
	<path style="&st0;" d="M4.579,19.424h3.74"/>
	<path style="&st0;" d="M39.707,16.591v5.099"/>
	<path style="&st1;" d="M2.313,21.69v13.371"/>
	<path style="&st0;" d="M3.44,38.43l7.332,5.524"/>
	<path style="&st0;" d="M31.248,43.954l7.331-5.524"/>
	<path style="&st0;" d="M1.633,21.69h0.68"/>
	<path style="&st0;" d="M1.633,35.061h0.68"/>
	<path style="&st0;" d="M39.707,21.69h0.68"/>
	<path style="&st0;" d="M39.707,35.061h0.68"/>
	<path style="&st1;" d="M25.542,7.242v1.757"/>
	<path style="&st1;" d="M16.477,7.242v1.757"/>
	<path style="&st0;" d="M26.392,19.424h3.91"/>
	<path style="&st0;" d="M33.701,7.525v11.898"/>
	<path style="&st0;" d="M8.319,7.525v11.898"/>
	<path style="&st0;" d="M27.809,2.625v4.25"/>
	<path style="&st0;" d="M14.211,2.625v4.25"/>
	<path style="&st0;" d="M36.307,16.591v2.125"/>
	<path style="&st0;" d="M30.302,7.525v11.898"/>
	<path style="&st0;" d="M11.718,7.525v11.898"/>
	<path style="&st0;" d="M16.335,8.999h0.142"/>
	<path style="&st0;" d="M25.542,8.999h0.142"/>
	<path style="&st1;" d="M8.319,19.424h3.399"/>
	<path style="&st0;" d="M11.718,19.424h3.909"/>
	<path style="&st1;" d="M30.302,19.424h3.399"/>
	<path style="&st0;" d="M33.701,19.424h1.898"/>
	<path style="&st0;" d="M25.542,8.999v9.575"/>
	<path style="&st0;" d="M16.477,8.993v9.581"/>
	<path style="&st1;" d="M39.707,21.69v13.371"/>
	<path style="&st0;" d="M39.707,35.061v1.105"/>
	<path style="&st0;" d="M4.579,19.424c-1.251,0-2.266,1.015-2.266,2.266"/>
	<path style="&st0;" d="M1.633,21.69c-0.625,0-1.133,0.507-1.133,1.133"/>
	<path style="&st0;" d="M0.5,33.928c0,0.626,0.507,1.133,1.133,1.133"/>
	<path style="&st0;" d="M40.387,35.061c0.625,0,1.133-0.507,1.133-1.133"/>
	<path style="&st0;" d="M41.52,22.823c0-0.626-0.507-1.133-1.133-1.133"/>
	<path style="&st0;" d="M10.772,43.954c0.411,0.31,0.85,0.457,1.365,0.457"/>
	<path style="&st0;" d="M29.882,44.41c0.515,0,0.954-0.147,1.365-0.457"/>
	<path style="&st0;" d="M11.718,7.525c0-0.938-0.761-1.699-1.7-1.699"/>
	<path style="&st0;" d="M10.019,5.826c-0.939,0-1.7,0.761-1.7,1.699"/>
	<path style="&st0;" d="M33.701,7.525c0-0.938-0.761-1.699-1.7-1.699"/>
	<path style="&st0;" d="M32.001,5.826c-0.939,0-1.7,0.761-1.7,1.699"/>
	<path style="&st0;" d="M39.707,16.591c0-0.938-0.761-1.7-1.7-1.7"/>
	<path style="&st0;" d="M38.007,14.891c-0.938,0-1.7,0.761-1.7,1.7"/>
	<path style="&st1;" d="M25.542,7.242c0-0.782-0.634-1.416-1.417-1.416"/>
	<path style="&st1;" d="M17.894,5.826c-0.782,0-1.417,0.634-1.417,1.416"/>
	<path style="&st1;" d="M17.894,7.242c-0.782,0-1.417,0.634-1.417,1.417"/>
	<path style="&st1;" d="M25.542,8.659c0-0.782-0.634-1.417-1.417-1.417"/>
	<path style="&st0;" d="M27.809,2.625c0-1.173-0.951-2.125-2.125-2.125"/>
	<path style="&st0;" d="M16.335,0.5c-1.173,0-2.125,0.952-2.125,2.125"/>
	<path style="&st0;" d="M14.211,6.874c0,1.173,0.951,2.125,2.125,2.125"/>
	<path style="&st0;" d="M25.684,8.999c1.173,0,2.125-0.952,2.125-2.125"/>
	<path style="&st0;" d="M15.627,19.424c0.469,0,0.85-0.381,0.85-0.85"/>
	<path style="&st0;" d="M25.542,18.574c0,0.469,0.38,0.85,0.85,0.85"/>
	<path style="&st0;" d="M35.599,19.424c0.391,0,0.708-0.317,0.708-0.708"/>
	<path style="&st0;" d="M38.579,38.43c0.736-0.555,1.129-1.342,1.129-2.264"/>
	<path style="&st0;" d="M2.313,36.166c0,0.921,0.393,1.708,1.128,2.263"/>
	<path style="&st1;" d="M21.01,34.495h14.873V21.747H6.137v12.748H21.01"/>
	<path style="&st1;" d="M24.126,3.701h-6.232v3.541h6.232V3.701"/>
	<path style="&st1;" d="M2.313,22.682l1.7,0.85v9.688l-1.7,0.85"/>
	<path style="&st1;" d="M39.707,22.682l-1.7,0.85v9.688l1.7,0.85"/>
	<path style="&st1;" d="M9.678,37.327v1.983h9.915v-1.983"/>
	<path style="&st1;" d="M22.426,37.327v1.983h9.915v-1.983"/>
	<path style="&st0;" d="M2.313,36.166v-1.105"/>
	<g ewd:pinNo="1">
		<text transform="matrix(1 0 0 1 11.9229 30.2495)"><tspan x="0" y="0" style="&st3; &st2;">1</tspan></text>
	</g>
	<g ewd:pinNo="2">
		<text transform="matrix(1 0 0 1 26.7954 30.2495)"><tspan x="0" y="0" style="&st3; &st2;">2</tspan></text>
	</g>
</g>
</svg>