<?xml version="1.0"?>
<!-- Generator: Adobe Illustrator 10.0, SVG Export Plug-In . SVG Version: 3.0.0 Build 77)  -->
<!DOCTYPE svg PUBLIC "-//W3C//DTD SVG 1.0//EN" "http://www.w3.org/TR/2001/REC-SVG-20010904/DTD/svg10.dtd"[
	<!ENTITY ns_flows "http://ns.adobe.com/Flows/1.0/">
	<!ENTITY ns_svg "http://www.w3.org/2000/svg">
	<!ENTITY ns_xlink "http://www.w3.org/1999/xlink">
	<!ENTITY st0 "fill:none;stroke:#000000;stroke-linecap:round;stroke-linejoin:round;">
	<!ENTITY st1 "fill:none;stroke:#000000;stroke-width:0.6;stroke-linecap:round;stroke-linejoin:round;">
	<!ENTITY st2 "font-size:6px;">
	<!ENTITY st3 "font-family:'Arial';">
	<!ATTLIST svg
		ewd:ver CDATA #IMPLIED
		xmlns:ewd CDATA #FIXED "http://shcl.co.jp/ewd"
		xmlns:a CDATA #FIXED "http://ns.adobe.com/AdobeSVGViewerExtensions/3.0/">
	<!ATTLIST g
		ewd:pinNo CDATA #IMPLIED>
]>
<svg width="72.453" height="52.578" viewBox="0 0 72.453 52.578" style="overflow:visible;enable-background:new 0 0 72.453 52.578" xml:space="preserve" onload="call_execInitLoadProc_svg('connector')" ewd:ver="2.1.2.9" xmlns="&ns_svg;" xmlns:ewd="http://shcl.co.jp/ewd" xmlns:a="http://ns.adobe.com/AdobeSVGViewerExtensions/3.0/" xmlns:xlink="&ns_xlink;">
<script type="text/javascript" xlink:href="../../../../../system/js/ewd/fig/svgfig.js"/>
<g id="レイヤー_1">
	<path style="&st0;" d="M26.098,0.5h10.127"/>
	<path style="&st0;" d="M0.5,26.495v0.606"/>
	<path style="&st1;" d="M25.007,3.01h22.437"/>
	<path style="&st1;" d="M21.692,6.325v4.674"/>
	<path style="&st1;" d="M26.027,5.75h20.396"/>
	<path style="&st1;" d="M22.967,12.274h1.785"/>
	<path style="&st1;" d="M32.401,8.492v5.62"/>
	<path style="&st1;" d="M26.027,3.01v7.989"/>
	<path style="&st1;" d="M2.443,27.613v-2.549"/>
	<path style="&st1;" d="M52.344,8.492H20.109"/>
	<path style="&st1;" d="M6.268,23.534H3.973"/>
	<path style="&st1;" d="M52.514,14.112H19.936"/>
	<path style="&st1;" d="M10.021,28.843v-4.815"/>
	<path style="&st1;" d="M13.704,27.922v-2.975"/>
	<path style="&st1;" d="M51.664,17.866H20.786"/>
	<path style="&st1;" d="M11.622,18.625H8.817"/>
	<path style="&st1;" d="M7.797,33.03V19.645"/>
	<path style="&st1;" d="M2.443,27.613v-2.549"/>
	<path style="&st1;" d="M20.109,44.186h32.235"/>
	<path style="&st1;" d="M3.973,29.143h2.294"/>
	<path style="&st1;" d="M19.936,38.758h32.578"/>
	<path style="&st1;" d="M10.021,28.843v-4.815"/>
	<path style="&st1;" d="M13.704,27.922v-2.975"/>
	<path style="&st1;" d="M20.786,35.004h30.878"/>
	<path style="&st1;" d="M8.817,34.05H11.5"/>
	<path style="&st1;" d="M15.829,20.486v10.269"/>
	<path style="&st1;" d="M29.993,21.194v7.224"/>
	<path style="&st1;" d="M26.452,21.194v7.224"/>
	<path style="&st1;" d="M27.443,20.203h1.558"/>
	<path style="&st1;" d="M15.829,20.486h10.92"/>
	<path style="&st1;" d="M29.695,20.486h13.06"/>
	<path style="&st1;" d="M17.245,32.172h37.96"/>
	<path style="&st0;" d="M6.174,40.194l1.377,1.376"/>
	<path style="&st0;" d="M6.885,11.687l5.51-5.513"/>
	<path style="&st0;" d="M23.248,50.948l4,1.074"/>
	<path style="&st1;" d="M50.758,10.999V6.325"/>
	<path style="&st1;" d="M47.698,12.274h1.785"/>
	<path style="&st1;" d="M40.049,14.112v-5.62"/>
	<path style="&st1;" d="M46.423,10.999V3.01"/>
	<path style="&st1;" d="M70.007,25.064v2.549"/>
	<path style="&st1;" d="M68.477,23.534h-2.294"/>
	<path style="&st1;" d="M62.429,24.027v4.815"/>
	<path style="&st1;" d="M58.746,24.948v2.975"/>
	<path style="&st1;" d="M63.633,18.625h-2.801"/>
	<path style="&st1;" d="M64.653,19.645V33.03"/>
	<path style="&st1;" d="M70.007,25.064v2.549"/>
	<path style="&st1;" d="M66.183,29.143h2.294"/>
	<path style="&st1;" d="M62.429,24.027v4.815"/>
	<path style="&st1;" d="M58.746,24.948v2.975"/>
	<path style="&st1;" d="M60.95,34.05h2.683"/>
	<path style="&st1;" d="M64.653,19.645V33.03"/>
	<path style="&st1;" d="M56.622,30.755V20.486"/>
	<path style="&st1;" d="M42.458,28.418v-7.224"/>
	<path style="&st1;" d="M45.999,28.418v-7.224"/>
	<path style="&st1;" d="M43.449,20.203h1.558"/>
	<path style="&st1;" d="M45.701,20.486h10.92"/>
	<path style="&st0;" d="M36.225,0.5h10.13"/>
	<path style="&st0;" d="M71.953,27.101v-0.606"/>
	<path style="&st1;" d="M43.069,47.245h8.13"/>
	<path style="&st0;" d="M64.899,41.571l1.376-1.376"/>
	<path style="&st0;" d="M60.055,6.174l5.513,5.513"/>
	<path style="&st0;" d="M45.203,52.021l4.003-1.074"/>
	<path style="&st1;" d="M25.007,3.01c-1.83,0-3.314,1.484-3.314,3.314"/>
	<path style="&st1;" d="M21.692,10.999c0,0.704,0.571,1.275,1.275,1.275"/>
	<path style="&st1;" d="M24.752,12.274c0.704,0,1.275-0.571,1.275-1.275"/>
	<path style="&st1;" d="M20.109,8.492c-3.651,0-6.766,1.209-9.461,3.672"/>
	<path style="&st1;" d="M10.647,12.163c-2.972,3.228-4.418,6.984-4.379,11.371"/>
	<path style="&st1;" d="M19.936,14.112c-5.476,0-9.915,4.439-9.915,9.916"/>
	<path style="&st1;" d="M20.786,17.866c-3.912,0-7.082,3.171-7.082,7.082"/>
	<path style="&st1;" d="M3.973,23.534c-0.845,0-1.53,0.685-1.53,1.53"/>
	<path style="&st1;" d="M8.817,18.625c-0.563,0-1.02,0.457-1.02,1.021"/>
	<path style="&st1;" d="M10.647,40.514c2.695,2.464,5.81,3.673,9.461,3.673"/>
	<path style="&st1;" d="M6.268,29.143c-0.039,4.387,1.408,8.144,4.379,11.372"/>
	<path style="&st1;" d="M10.021,28.843c0,5.476,4.439,9.915,9.915,9.915"/>
	<path style="&st1;" d="M13.704,27.922c0,3.911,3.17,7.082,7.082,7.082"/>
	<path style="&st1;" d="M2.443,27.613c0,0.845,0.685,1.53,1.53,1.53"/>
	<path style="&st1;" d="M7.797,33.03c0,0.563,0.457,1.02,1.02,1.02"/>
	<path style="&st1;" d="M29.993,21.194c0-0.548-0.444-0.992-0.991-0.992"/>
	<path style="&st1;" d="M27.443,20.203c-0.548,0-0.992,0.444-0.992,0.992"/>
	<path style="&st1;" d="M15.829,30.755c0,0.783,0.634,1.417,1.417,1.417"/>
	<path style="&st0;" d="M0.5,26.495c0,5.35,1.891,9.917,5.674,13.7"/>
	<path style="&st0;" d="M7.551,41.571c2.885,2.885,6.099,4.583,10.108,5.339"/>
	<path style="&st0;" d="M26.098,0.5c-5.351,0-9.918,1.892-13.702,5.676"/>
	<path style="&st0;" d="M6.885,11.687C2.629,15.943,0.5,21.082,0.5,27.101"/>
	<path style="&st0;" d="M27.248,52.021c0.904,0.242,1.833-0.294,2.076-1.198"/>
	<path style="&st0;" d="M29.324,50.823c0.041-0.151,0.058-0.283,0.058-0.439"/>
	<path style="&st0;" d="M17.659,46.911c1.361,2.071,3.195,3.396,5.589,4.038"/>
	<path style="&st1;" d="M50.758,6.325c0-1.831-1.484-3.314-3.314-3.314"/>
	<path style="&st1;" d="M49.483,12.274c0.704,0,1.275-0.571,1.275-1.275"/>
	<path style="&st1;" d="M46.423,10.999c0,0.704,0.571,1.275,1.275,1.275"/>
	<path style="&st1;" d="M61.803,12.163c-2.695-2.462-5.809-3.671-9.459-3.671"/>
	<path style="&st1;" d="M66.183,23.534c0.039-4.387-1.408-8.144-4.379-11.372"/>
	<path style="&st1;" d="M62.429,24.027c0-5.476-4.439-9.916-9.915-9.916"/>
	<path style="&st1;" d="M58.746,24.948c0-3.911-3.17-7.082-7.082-7.082"/>
	<path style="&st1;" d="M70.007,25.064c0-0.845-0.685-1.53-1.53-1.53"/>
	<path style="&st1;" d="M64.653,19.645c0-0.563-0.457-1.021-1.02-1.021"/>
	<path style="&st1;" d="M52.344,44.186c3.65,0,6.765-1.208,9.459-3.671"/>
	<path style="&st1;" d="M61.803,40.514c2.971-3.228,4.417-6.984,4.378-11.371"/>
	<path style="&st1;" d="M52.514,38.758c5.476,0,9.915-4.439,9.915-9.915"/>
	<path style="&st1;" d="M51.664,35.004c3.912,0,7.082-3.171,7.082-7.082"/>
	<path style="&st1;" d="M68.477,29.143c0.845,0,1.53-0.685,1.53-1.53"/>
	<path style="&st1;" d="M63.633,34.05c0.563,0,1.02-0.457,1.02-1.02"/>
	<path style="&st1;" d="M43.449,20.203c-0.547,0-0.991,0.444-0.991,0.992"/>
	<path style="&st1;" d="M45.999,21.194c0-0.548-0.444-0.992-0.992-0.992"/>
	<path style="&st1;" d="M55.206,32.172c0.782,0,1.416-0.634,1.416-1.417"/>
	<path style="&st1;" d="M17.659,46.911c1.249,0.236,2.323,0.336,3.595,0.336"/>
	<path style="&st0;" d="M66.276,40.194c3.783-3.783,5.675-8.35,5.675-13.7"/>
	<path style="&st0;" d="M54.794,46.911c4.008-0.757,7.222-2.454,10.106-5.338"/>
	<path style="&st0;" d="M60.055,6.174c-3.783-3.783-8.35-5.674-13.7-5.674"/>
	<path style="&st0;" d="M71.95,27.101c0-6.019-2.128-11.156-6.384-15.412"/>
	<path style="&st0;" d="M43.069,50.384c0,0.936,0.758,1.694,1.694,1.694"/>
	<path style="&st0;" d="M44.763,52.078c0.156,0,0.288-0.018,0.439-0.058"/>
	<path style="&st0;" d="M49.206,50.948c2.393-0.642,4.227-1.967,5.587-4.038"/>
	<path style="&st1;" d="M51.2,47.245c1.271,0,2.345-0.101,3.594-0.336"/>
	<path style="&st1;" d="M33.817,32.172v-3.754h-11.19v3.754"/>
	<path style="&st1;" d="M49.823,32.172v-3.754h-11.19v3.754"/>
	<path style="&st1;" d="M29.384,47.245h-8.13"/>
	<path style="&st0;" d="M29.384,50.384v-3.139h13.686v3.139"/>
	<g ewd:pinNo="1">
		<text transform="matrix(1 0 0 1 19.6558 26.7383)"><tspan x="0" y="0" style="&st3; &st2;">1</tspan></text>
	</g>
	<g ewd:pinNo="2">
		<text transform="matrix(1 0 0 1 34.7407 26.7383)"><tspan x="0" y="0" style="&st3; &st2;">2</tspan></text>
	</g>
	<g ewd:pinNo="3">
		<text transform="matrix(1 0 0 1 49.8257 26.7383)"><tspan x="0" y="0" style="&st3; &st2;">3</tspan></text>
	</g>
</g>
</svg>