<?xml version="1.0"?>
<!-- Generator: Adobe Illustrator 10.0, SVG Export Plug-In . SVG Version: 3.0.0 Build 77)  -->
<!DOCTYPE svg PUBLIC "-//W3C//DTD SVG 1.0//EN" "http://www.w3.org/TR/2001/REC-SVG-20010904/DTD/svg10.dtd"[
	<!ENTITY ns_flows "http://ns.adobe.com/Flows/1.0/">
	<!ENTITY ns_svg "http://www.w3.org/2000/svg">
	<!ENTITY ns_xlink "http://www.w3.org/1999/xlink">
	<!ENTITY st0 "fill:none;stroke:#000000;stroke-linecap:round;stroke-linejoin:round;">
	<!ENTITY st1 "fill:none;stroke:#000000;stroke-width:0.6;stroke-linecap:round;stroke-linejoin:round;">
	<!ENTITY st2 "font-size:6px;">
	<!ENTITY st3 "font-family:'Arial';">
	<!ATTLIST svg
		ewd:ver CDATA #IMPLIED
		xmlns:ewd CDATA #FIXED "http://shcl.co.jp/ewd"
		xmlns:a CDATA #FIXED "http://ns.adobe.com/AdobeSVGViewerExtensions/3.0/">
	<!ATTLIST g
		ewd:pinNo CDATA #IMPLIED>
]>
<svg width="63.04" height="78.054" viewBox="0 0 63.04 78.054" style="overflow:visible;enable-background:new 0 0 63.04 78.054" xml:space="preserve" onload="call_execInitLoadProc_svg('connector')" ewd:ver="2.1.2.9" xmlns="&ns_svg;" xmlns:ewd="http://shcl.co.jp/ewd" xmlns:a="http://ns.adobe.com/AdobeSVGViewerExtensions/3.0/" xmlns:xlink="&ns_xlink;">
<script type="text/javascript" xlink:href="../../../../../system/js/ewd/fig/svgfig.js"/>
<g id="レイヤー_1">
	<path style="&st0;" d="M62.54,2.2c0-0.938-0.761-1.7-1.7-1.7"/>
	<path style="&st1;" d="M58.007,70.472c0.939,0,1.7-0.761,1.7-1.7"/>
	<path style="&st1;" d="M36.942,68.489c-0.782,0-1.45,0.277-2.003,0.83"/>
	<path style="&st1;" d="M21.019,69.319c-0.553-0.553-1.221-0.83-2.003-0.83"/>
	<path style="&st0;" d="M62.54,6.449c0-0.938-0.761-1.7-1.7-1.7"/>
	<path style="&st1;" d="M3.333,68.772c0,0.939,0.761,1.7,1.7,1.7"/>
	<path style="&st0;" d="M41.435,75.854c0,0.938,0.761,1.7,1.7,1.7"/>
	<path style="&st0;" d="M60.84,70.472c0.938,0,1.7-0.761,1.7-1.7"/>
	<path style="&st0;" d="M9.99,77.554c0.938,0,1.7-0.761,1.7-1.7"/>
	<path style="&st0;" d="M49.65,77.554c0.939,0,1.7-0.761,1.7-1.7"/>
	<path style="&st0;" d="M2.2,0.5c-0.938,0-1.7,0.761-1.7,1.7"/>
	<path style="&st1;" d="M57.724,6.449c0-0.938-0.761-1.7-1.7-1.7"/>
	<path style="&st1;" d="M5.032,4.75c-0.938,0-1.7,0.761-1.7,1.7"/>
	<path style="&st0;" d="M2.2,4.75c-0.938,0-1.7,0.761-1.7,1.7"/>
	<path style="&st0;" d="M0.5,75.854c0,0.938,0.761,1.7,1.7,1.7"/>
	<path style="&st1;" d="M23.021,71.322h9.915"/>
	<path style="&st1;" d="M34.939,69.319l-2.003,2.003"/>
	<path style="&st1;" d="M21.019,69.319l2.002,2.003"/>
	<path style="&st0;" d="M60.84,4.75V3.333"/>
	<path style="&st0;" d="M51.35,70.472h9.49"/>
	<path style="&st1;" d="M36.477,4.75V0.5"/>
	<path style="&st1;" d="M26.562,0.5v4.25"/>
	<path style="&st1;" d="M36.942,68.489h20.782"/>
	<path style="&st1;" d="M6.732,6.166v12.748h49.575V6.166H6.732"/>
	<path style="&st1;" d="M16.647,18.914V6.166"/>
	<path style="&st1;" d="M26.562,18.914V6.166"/>
	<path style="&st1;" d="M36.477,18.914V6.166"/>
	<path style="&st1;" d="M46.392,18.914V6.166"/>
	<path style="&st1;" d="M5.316,68.489h13.7"/>
	<path style="&st1;" d="M26.562,2.2h9.915"/>
	<path style="&st1;" d="M2.2,4.75h58.64"/>
	<path style="&st1;" d="M57.724,6.449v62.04"/>
	<path style="&st1;" d="M8.149,18.914v5.666h4.249v5.666"/>
	<path style="&st1;" d="M25.146,18.914v5.666h-4.25v5.666"/>
	<path style="&st1;" d="M27.979,20.33v8.499h7.083V20.33H27.979"/>
	<path style="&st1;" d="M40.727,2.2h11.332"/>
	<path style="&st1;" d="M52.058,4.75V2.2"/>
	<path style="&st1;" d="M2.2,3.333h4.533V0.5"/>
	<path style="&st1;" d="M40.727,4.75V2.2"/>
	<path style="&st1;" d="M37.894,18.914v5.666h4.25v5.666"/>
	<path style="&st1;" d="M54.891,18.914v5.666h-4.249v5.666"/>
	<path style="&st1;" d="M10.981,2.2h11.332"/>
	<path style="&st1;" d="M27.979,44.41v8.499h7.083V44.41H27.979"/>
	<path style="&st1;" d="M22.313,4.75V2.2"/>
	<path style="&st1;" d="M6.732,30.245v12.748h49.575V30.245H6.732"/>
	<path style="&st1;" d="M60.84,3.333h-4.533V0.5"/>
	<path style="&st1;" d="M16.647,42.993V30.245"/>
	<path style="&st1;" d="M26.562,42.993V30.245"/>
	<path style="&st1;" d="M36.477,42.993V30.245"/>
	<path style="&st1;" d="M46.392,42.993V30.245"/>
	<path style="&st1;" d="M8.149,42.993v5.666h4.249v5.666"/>
	<path style="&st1;" d="M25.146,42.993v5.666h-4.25v5.666"/>
	<path style="&st1;" d="M37.894,42.993v5.666h4.25v5.666"/>
	<path style="&st1;" d="M54.891,42.993v5.666h-4.249v5.666"/>
	<path style="&st1;" d="M10.981,4.75V2.2"/>
	<path style="&st1;" d="M5.316,4.75v63.739"/>
	<path style="&st1;" d="M6.732,54.325v12.748h49.575V54.325H6.732"/>
	<path style="&st1;" d="M16.647,67.072V54.325"/>
	<path style="&st1;" d="M26.562,67.072V54.325"/>
	<path style="&st1;" d="M36.477,67.072V54.325"/>
	<path style="&st1;" d="M46.392,67.072V54.325"/>
	<path style="&st1;" d="M59.707,4.75v64.022"/>
	<path style="&st0;" d="M20.188,73.305v-2.833"/>
	<path style="&st0;" d="M20.188,73.305h15.581"/>
	<path style="&st0;" d="M35.769,73.305v-2.833"/>
	<path style="&st1;" d="M20.188,73.305l2.833-1.983"/>
	<path style="&st1;" d="M32.936,71.322l2.833,1.983"/>
	<path style="&st0;" d="M2.2,0.5h58.64"/>
	<path style="&st0;" d="M2.2,3.333V4.75"/>
	<path style="&st1;" d="M3.333,68.772V6.449"/>
	<path style="&st0;" d="M51.35,75.854v-5.383"/>
	<path style="&st0;" d="M60.84,3.333h1.7V2.2"/>
	<path style="&st0;" d="M0.5,6.449v69.405"/>
	<path style="&st0;" d="M41.435,75.854v-5.383"/>
	<path style="&st0;" d="M43.134,77.554h6.516"/>
	<path style="&st0;" d="M11.69,75.854v-5.383"/>
	<path style="&st0;" d="M62.54,6.449v62.323"/>
	<path style="&st0;" d="M2.2,77.554H9.99"/>
	<path style="&st0;" d="M2.2,3.333H0.5V2.2"/>
	<path style="&st1;" d="M41.435,70.472h9.915"/>
	<path style="&st1;" d="M5.032,70.472h6.658"/>
	<path style="&st0;" d="M11.69,70.472h8.499"/>
	<path style="&st0;" d="M35.769,70.472h5.666"/>
	<g ewd:pinNo="4">
		<text transform="matrix(1 0 0 1 39.812 14.771)"><tspan x="0" y="0" style="&st3; &st2;">4</tspan></text>
	</g>
	<g ewd:pinNo="3">
		<text transform="matrix(1 0 0 1 29.897 14.771)"><tspan x="0" y="0" style="&st3; &st2;">3</tspan></text>
	</g>
	<g ewd:pinNo="6">
		<text transform="matrix(1 0 0 1 10.0669 38.8506)"><tspan x="0" y="0" style="&st3; &st2;">6</tspan></text>
	</g>
	<g ewd:pinNo="7">
		<text transform="matrix(1 0 0 1 19.9819 38.8506)"><tspan x="0" y="0" style="&st3; &st2;">7</tspan></text>
	</g>
	<g ewd:pinNo="5">
		<text transform="matrix(1 0 0 1 49.7271 14.771)"><tspan x="0" y="0" style="&st3; &st2;">5</tspan></text>
	</g>
	<g ewd:pinNo="11">
		<text transform="matrix(1 0 0 1 8.4121 62.9302)"><tspan x="0" y="0" style="&st3; &st2;">11</tspan></text>
	</g>
	<g ewd:pinNo="1">
		<text transform="matrix(1 0 0 1 10.0669 14.771)"><tspan x="0" y="0" style="&st3; &st2;">1</tspan></text>
	</g>
	<g ewd:pinNo="12">
		<text transform="matrix(1 0 0 1 18.1045 62.9302)"><tspan x="0" y="0" style="&st3; &st2;">12</tspan></text>
	</g>
	<g ewd:pinNo="2">
		<text transform="matrix(1 0 0 1 19.9819 14.771)"><tspan x="0" y="0" style="&st3; &st2;">2</tspan></text>
	</g>
	<g ewd:pinNo="15">
		<text transform="matrix(1 0 0 1 47.8496 62.9302)"><tspan x="0" y="0" style="&st3; &st2;">15</tspan></text>
	</g>
	<g ewd:pinNo="9">
		<text transform="matrix(1 0 0 1 39.812 38.8506)"><tspan x="0" y="0" style="&st3; &st2;">9</tspan></text>
	</g>
	<g ewd:pinNo="8">
		<text transform="matrix(1 0 0 1 29.897 38.8506)"><tspan x="0" y="0" style="&st3; &st2;">8</tspan></text>
	</g>
	<g ewd:pinNo="14">
		<text transform="matrix(1 0 0 1 37.9346 62.9302)"><tspan x="0" y="0" style="&st3; &st2;">14</tspan></text>
	</g>
	<g ewd:pinNo="13">
		<text transform="matrix(1 0 0 1 28.0195 62.9302)"><tspan x="0" y="0" style="&st3; &st2;">13</tspan></text>
	</g>
	<g ewd:pinNo="10">
		<text transform="matrix(1 0 0 1 47.8496 38.8506)"><tspan x="0" y="0" style="&st3; &st2;">10</tspan></text>
	</g>
</g>
</svg>