<?xml version="1.0"?>
<!-- Generator: Adobe Illustrator 10.0, SVG Export Plug-In . SVG Version: 3.0.0 Build 77)  -->
<!DOCTYPE svg PUBLIC "-//W3C//DTD SVG 1.0//EN" "http://www.w3.org/TR/2001/REC-SVG-20010904/DTD/svg10.dtd"[
	<!ENTITY ns_flows "http://ns.adobe.com/Flows/1.0/">
	<!ENTITY ns_svg "http://www.w3.org/2000/svg">
	<!ENTITY ns_xlink "http://www.w3.org/1999/xlink">
	<!ENTITY st0 "fill:none;stroke:#000000;stroke-linecap:round;stroke-linejoin:round;">
	<!ENTITY st1 "fill:none;stroke:#000000;stroke-width:0.6;stroke-linecap:round;stroke-linejoin:round;">
	<!ENTITY st2 "font-size:6px;">
	<!ENTITY st3 "font-family:'Arial';">
	<!ATTLIST svg
		ewd:ver CDATA #IMPLIED
		xmlns:ewd CDATA #FIXED "http://shcl.co.jp/ewd"
		xmlns:a CDATA #FIXED "http://ns.adobe.com/AdobeSVGViewerExtensions/3.0/">
	<!ATTLIST g
		ewd:pinNo CDATA #IMPLIED>
]>
<svg width="51.425" height="50.289" viewBox="0 0 51.425 50.289" style="overflow:visible;enable-background:new 0 0 51.425 50.289" xml:space="preserve" onload="call_execInitLoadProc_svg('connector')" ewd:ver="2.1.2.9" xmlns="&ns_svg;" xmlns:ewd="http://shcl.co.jp/ewd" xmlns:a="http://ns.adobe.com/AdobeSVGViewerExtensions/3.0/" xmlns:xlink="&ns_xlink;">
<script type="text/javascript" xlink:href="../../../../../system/js/ewd/fig/svgfig.js"/>
<g id="レイヤー_1">
	<path style="&st1;" d="M25.712,20.751v12.04"/>
	<path style="&st1;" d="M48.092,26.559v3.966"/>
	<path style="&st1;" d="M3.333,26.559v3.966"/>
	<path style="&st1;" d="M4.183,31.375h1.385"/>
	<path style="&st1;" d="M4.183,25.709h1.385"/>
	<path style="&st1;" d="M45.857,25.709h1.385"/>
	<path style="&st1;" d="M45.857,31.375h1.385"/>
	<path style="&st0;" d="M50.925,25.709v5.666"/>
	<path style="&st0;" d="M0.5,25.709v16.998"/>
	<path style="&st0;" d="M4.143,18.684l6.391-13.702"/>
	<path style="&st1;" d="M44.715,19.882L38.324,6.18"/>
	<path style="&st1;" d="M16.081,6.817v7.963"/>
	<path style="&st1;" d="M35.344,6.817v7.963"/>
	<path style="&st1;" d="M14.517,8.712h22.391"/>
	<path style="&st1;" d="M13.101,6.18v1.116"/>
	<path style="&st1;" d="M38.324,6.18v1.116"/>
	<path style="&st1;" d="M12.016,8.508v6.813"/>
	<path style="&st1;" d="M39.409,15.321V8.508"/>
	<path style="&st1;" d="M20.896,11.644v2.833"/>
	<path style="&st1;" d="M30.528,11.644v2.833"/>
	<path style="&st0;" d="M40.891,4.981l6.391,13.702"/>
	<path style="&st1;" d="M13.101,6.18L6.709,19.882"/>
	<path style="&st1;" d="M4.466,42.707h27.337"/>
	<path style="&st0;" d="M3.333,45.54h24.929"/>
	<path style="&st1;" d="M4.466,37.041h2.176"/>
	<path style="&st1;" d="M3.333,38.174v3.399"/>
	<path style="&st1;" d="M38.177,42.604v3.218"/>
	<path style="&st0;" d="M41.01,44.194v2.762"/>
	<path style="&st1;" d="M32.511,43.415v2.408"/>
	<path style="&st1;" d="M33.645,46.956h3.399"/>
	<path style="&st0;" d="M32.511,49.789h5.666"/>
	<path style="&st1;" d="M36.004,21.236c-7.214-0.682-13.366-0.682-20.581,0"/>
	<path style="&st1;" d="M15.423,39.389c7.215,0.682,13.366,0.682,20.581,0"/>
	<path style="&st1;" d="M38.554,36.854c0.464-4.584,0.464-8.499,0-13.083"/>
	<path style="&st1;" d="M12.871,23.771c-0.464,4.584-0.464,8.499,0,13.083"/>
	<path style="&st1;" d="M15.42,21.236c-1.363,0.13-2.412,1.172-2.55,2.535"/>
	<path style="&st1;" d="M38.554,23.771c-0.138-1.362-1.187-2.404-2.55-2.534"/>
	<path style="&st1;" d="M36.004,39.389c1.364-0.13,2.413-1.172,2.551-2.535"/>
	<path style="&st1;" d="M12.871,36.854c0.138,1.362,1.187,2.404,2.55,2.534"/>
	<path style="&st1;" d="M37.908,15.021c-8.543-0.905-15.847-0.905-24.391,0"/>
	<path style="&st1;" d="M13.483,42.038c8.565,0.939,15.894,0.939,24.459,0"/>
	<path style="&st1;" d="M6.052,21.953c-0.832,4.573-0.833,8.576-0.005,13.15"/>
	<path style="&st1;" d="M45.378,35.103c0.828-4.574,0.827-8.577-0.005-13.15"/>
	<path style="&st1;" d="M45.373,21.953c-0.688-3.778-3.646-6.524-7.465-6.929"/>
	<path style="&st1;" d="M37.942,42.038c3.81-0.418,6.754-3.164,7.436-6.935"/>
	<path style="&st1;" d="M13.517,15.021c-3.82,0.404-6.781,3.152-7.468,6.931"/>
	<path style="&st1;" d="M6.046,35.103c0.682,3.771,3.627,6.517,7.437,6.935"/>
	<path style="&st0;" d="M3.029,22.894C1.581,23.05,0.5,24.252,0.5,25.709"/>
	<path style="&st0;" d="M50.925,25.709c0-1.458-1.08-2.66-2.53-2.816"/>
	<path style="&st0;" d="M48.395,34.191c1.449-0.156,2.529-1.358,2.529-2.816"/>
	<path style="&st0;" d="M3.265,21.446c-0.092,0.507-0.163,0.938-0.236,1.447"/>
	<path style="&st0;" d="M4.143,18.684c-0.432,0.926-0.697,1.757-0.879,2.762"/>
	<path style="&st0;" d="M34.35,0.5c-6.064-0.404-11.21-0.404-17.274,0"/>
	<path style="&st0;" d="M17.075,0.5c-2.919,0.194-5.306,1.83-6.542,4.481"/>
	<path style="&st0;" d="M40.891,4.981c-1.236-2.651-3.623-4.286-6.541-4.48"/>
	<path style="&st1;" d="M34.16,3.327c-5.932-0.395-10.964-0.395-16.896,0"/>
	<path style="&st1;" d="M38.324,6.18c-0.787-1.688-2.306-2.729-4.164-2.853"/>
	<path style="&st1;" d="M17.265,3.327C15.407,3.45,13.887,4.492,13.1,6.18"/>
	<path style="&st1;" d="M33.35,4.695c-5.364-0.327-9.911-0.327-15.274,0"/>
	<path style="&st1;" d="M35.344,6.817c0-1.127-0.869-2.051-1.995-2.121"/>
	<path style="&st1;" d="M18.075,4.695c-1.126,0.069-1.996,0.994-1.996,2.122"/>
	<path style="&st1;" d="M13.101,7.296c0,0.782,0.634,1.417,1.417,1.417"/>
	<path style="&st1;" d="M36.908,8.712c0.782,0,1.417-0.634,1.417-1.417"/>
	<path style="&st1;" d="M4.183,25.709c-0.469,0-0.85,0.381-0.85,0.85"/>
	<path style="&st1;" d="M3.333,30.525c0,0.469,0.381,0.85,0.85,0.85"/>
	<path style="&st1;" d="M48.092,26.559c0-0.469-0.38-0.85-0.85-0.85"/>
	<path style="&st1;" d="M47.242,31.375c0.469,0,0.85-0.38,0.85-0.85"/>
	<path style="&st1;" d="M30.528,11.644c-3.385-0.138-6.247-0.138-9.632,0"/>
	<path style="&st0;" d="M48.395,22.894c-0.073-0.51-0.144-0.94-0.235-1.447"/>
	<path style="&st0;" d="M48.16,21.446c-0.183-1.005-0.447-1.835-0.879-2.762"/>
	<path style="&st0;" d="M0.5,42.707c0,1.564,1.269,2.833,2.833,2.833"/>
	<path style="&st0;" d="M41.01,44.194c3.845-1.448,6.423-4.541,7.155-8.584"/>
	<path style="&st0;" d="M48.166,35.61c0.09-0.498,0.159-0.919,0.23-1.419"/>
	<path style="&st1;" d="M4.466,37.041c-0.625,0-1.133,0.508-1.133,1.133"/>
	<path style="&st1;" d="M3.333,41.573c0,0.626,0.508,1.133,1.133,1.133"/>
	<path style="&st1;" d="M32.511,45.823c0,0.626,0.507,1.133,1.133,1.133"/>
	<path style="&st1;" d="M37.044,46.956c0.625,0,1.133-0.507,1.133-1.133"/>
	<path style="&st0;" d="M29.678,46.956c0,1.564,1.269,2.833,2.833,2.833"/>
	<path style="&st0;" d="M38.177,49.789c1.565,0,2.833-1.269,2.833-2.833"/>
	<path style="&st0;" d="M29.678,46.956c0-0.782-0.634-1.416-1.417-1.416"/>
	<path style="&st1;" d="M38.741,41.911c-0.333,0.069-0.564,0.354-0.564,0.694"/>
	<path style="&st1;" d="M32.511,43.415c0-0.391-0.317-0.708-0.708-0.708"/>
	<path style="&st1;" d="M35.344,21.177v11.615H16.081V21.177"/>
	<g ewd:pinNo="1">
		<text transform="matrix(1 0 0 1 19.1865 29.2061)"><tspan x="0" y="0" style="&st3; &st2;">1</tspan></text>
	</g>
	<g ewd:pinNo="2">
		<text transform="matrix(1 0 0 1 28.8179 29.2061)"><tspan x="0" y="0" style="&st3; &st2;">2</tspan></text>
	</g>
</g>
</svg>