<?xml version="1.0" encoding="utf-8"?>
<!DOCTYPE svg PUBLIC "-//W3C//DTD SVG 1.0//EN" "http://www.w3.org/TR/2001/REC-SVG-20010904/DTD/svg10.dtd"[
	<!ENTITY ns_flows "http://ns.adobe.com/Flows/1.0/">
	<!ENTITY ns_svg "http://www.w3.org/2000/svg">
	<!ENTITY ns_xlink "http://www.w3.org/1999/xlink">
	<!ENTITY st0 "font-size:7px;font-family:'MS-PGothic';adobe-font-script:japanese;">
	<!ENTITY st1 "font-size:6px;font-family:'ArialMT';">
	<!-- White fill  -->
	<!ENTITY st2 "fill:#FFFFFF;stroke:#000000; stroke-width:1.41;stroke-linecap:round;stroke-linejoin:round;">
	<!-- Yellow fill  -->
	<!ENTITY st3 "fill:#FFFFCC;stroke:#FFFFCC; stroke-width:0.1;stroke-linecap:round;stroke-linejoin:round;">
	<!-- Gray fill  -->
	<!ENTITY st4 "fill:#CCCCCC;stroke:#CCCCCC; stroke-width:0.1;stroke-linecap:round;stroke-linejoin:round;">
	<!-- Light-blue fill -->
	<!ENTITY st5 "fill:#CCECF4;stroke:#000000; stroke-width:1.133;stroke-linecap:round;stroke-linejoin:round;">
	<!ENTITY st6 "fill:none;stroke-linecap:butt; stroke-linejoin:round;">
	<!ENTITY st7 "fill:none;stroke:#000000;stroke-linecap:round;stroke-linejoin:round;">
	<!ENTITY st8 "enable-background:new    ;">
	<!-- Black fill -->
	<!ENTITY st9 "fill:#000000;stroke:#000000; stroke-linecap:round;stroke-linejoin:round;">
	<!-- SRS note   -->
	<!ENTITY st10 "font-size:9px;font-family:'ArialMT';">
	<!ENTITY st11 "font-size:9px;font-family:'Svg Symbol';">
	<!ENTITY st12 "font-size:6px;font-family:'Svg Symbol';">
	<!ENTITY st13 "fill:none;stroke:#ff0000;stroke-linecap:round;stroke-linejoin:round;">
	<!-- Yellow fill  -->
	<!ENTITY st14 "fill:#FFFF00;stroke:#FFFF00; stroke-width:0.1;stroke-linecap:round;stroke-linejoin:round;">
	<!ENTITY st15 "font-size:6px;font-family:'MS-PGothic';adobe-font-script:japanese;">
	<!ENTITY st16 "1.00 0.00 0.00 1.00">
	<!ENTITY st17 "0.00 -1.00 1.00 0.00">
	<!ENTITY st18 "font-size:6px;font-family:'Arial';">
	<!ENTITY st19 "font-size:9px;font-family:'Arial';">
	<!ENTITY st20 "font-size:6px;font-family:'MS-PGothic','MS PGothic';adobe-font-script:japanese;">
	<!ENTITY st21 "font-size:7px;font-family:'MS-PGothic','MS PGothic';adobe-font-script:japanese;">
	<!ATTLIST svg
		xmlns:ewd CDATA #FIXED "http://shcl.co.jp/ewd"
		xmlns:a CDATA #FIXED "http://ns.adobe.com/AdobeSVGViewerExtensions/3.0/"
		ewd:ver CDATA #IMPLIED
	>
	<!ATTLIST a
		ewd:lineID CDATA #IMPLIED
		ewd:groupID CDATA #IMPLIED
		ewd:figtype CDATA #IMPLIED
		ewd:code CDATA #IMPLIED
		ewd:figID CDATA #IMPLIED
		ewd:pinNo CDATA #IMPLIED
		ewd:comment CDATA #IMPLIED >
	<!ATTLIST g
		ewd:lineID CDATA #IMPLIED
		ewd:groupID CDATA #IMPLIED
		ewd:figtype CDATA #IMPLIED
		ewd:code CDATA #IMPLIED
		ewd:figID CDATA #IMPLIED
		ewd:pinNo CDATA #IMPLIED
		ewd:comment CDATA #IMPLIED >
	<!ATTLIST text
		ewd:textID CDATA #IMPLIED >
	<!ATTLIST title
		ewd:textID CDATA #IMPLIED >
]>
<!-- Generator: Shintec Hozumi YS   -->
<svg onload="call_execInitLoadProc_svg('system')" style="overflow:visible;  enable-background:new 0 0 2087.245 710.000" viewBox="0 0 2087.245 710.000" height="710.000" width="2087.245" xml:space="preserve" ewd:ver="2.1.2.9" xmlns="&ns_svg;" xmlns:a="http://ns.adobe.com/AdobeSVGViewerExtensions/3.0/" xmlns:ewd="http://shcl.co.jp/ewd" xmlns:xlink="&ns_xlink;">
<path style="stroke-width:1.42 ;&st7;  " d=" M  1759.21,   367.22  L  1767.70,   367.22  " /><path style="stroke-width:1.42 ;&st7;  " d=" M  1691.22,   367.22  L  1699.72,   367.22  " /><path style="stroke-width:1.42 ;&st7;  " d=" M  1963.17,   129.26  L  1954.67,   129.26  " /><path style="stroke-width:1.42 ;&st7;  " d=" M  1674.22,   103.77  L  1682.72,   103.77  " /><path style="stroke-width:1.42 ;&st7;  " d=" M  1861.19,   545.69  L  1852.69,   545.69  " /><path style="stroke-width:1.42 ;&st7;  " d=" M  1759.21,   452.21  L  1767.70,   452.21  " /><path style="stroke-width:1.42 ;&st7;  " d=" M  1886.68,   452.21  L  1895.18,   452.21  " /><path style="stroke-width:1.42 ;&st7;  " d=" M  1708.21,   545.69  L  1716.71,   545.69  " /><path style="stroke-width:1.42 ;&st7;  " d=" M  1776.20,   554.19  L  1767.70,   554.19  " /><path style="stroke-width:1.42 ;&st7;  " d=" M  1733.71,   112.27  L  1725.21,   112.27  " /><text style="&st18;" transform="matrix(&st17;  1690.36  145.62 )">(RHD)</text><text style="&st18;" transform="matrix(&st17;  1679.02  142.94 )">B-Y</text><text style="&st18;" transform="matrix(&st17;  1690.36  86.13 )">(RHD)</text><text style="&st18;" transform="matrix(&st17;  1679.02  83.45 )">B-Y</text><text style="&st18;" transform="matrix(&st17;  1732.85  145.58 )">(LHD)</text><text style="&st18;" transform="matrix(&st17;  1732.85  86.09 )">(LHD)</text><text style="&st18;" transform="matrix(&st17;  1713.02  528.0 )">BR</text><text style="&st18;" transform="matrix(&st17;  1724.35  529.16 )">(*9)</text><text style="&st18;" transform="matrix(&st17;  1882.99  125.94 )">B-Y</text><text style="&st18;" transform="matrix(&st17;  1721.52  83.45 )">B-Y</text><text style="&st18;" transform="matrix(&st17;  1696.02  419.03 )">B-L</text><text style="&st18;" transform="matrix(&st16;  1575.17  40.58 )">B-L</text><text style="&st18;" transform="matrix(&st16;  1524.18  40.58 )">B-L</text><text style="&st18;" transform="matrix(&st17;  1950.98  105.38 )">R</text><text style="&st18;" transform="matrix(&st16;  1799.4  442.85 )">(*9,*10)</text><text style="&st18;" transform="matrix(&st16;  1806.15  431.52 )">BR</text><text style="&st18;" transform="matrix(&st17;  1775.34  592.9 )">(*6)</text><text style="&st18;" transform="matrix(&st16;  1803.43  408.85 )">(*11)</text><text style="&st18;" transform="matrix(&st16;  1806.15  397.52 )">BR</text><text style="&st18;" transform="matrix(&st17;  1775.34  529.16 )">(*6)</text><text style="&st18;" transform="matrix(&st17;  1764.01  528.0 )">BR</text><text style="&st18;" transform="matrix(&st17;  1775.34  639.64 )">(*6)</text><text style="&st18;" transform="matrix(&st17;  1764.01  638.48 )">BR</text><text style="&st18;" transform="matrix(&st17;  1860.33  622.65 )">(*8)</text><text style="&st18;" transform="matrix(&st17;  1848.99  621.48 )">BR</text><text style="&st18;" transform="matrix(&st17;  1860.33  498.05 )">(LHD *8)</text><text style="&st18;" transform="matrix(&st17;  1848.99  489.75 )">BR</text><text style="&st18;" transform="matrix(&st17;  1902.82  498.09 )">(RHD *8)</text><text style="&st18;" transform="matrix(&st17;  1891.49  489.75 )">BR</text><text style="&st18;" transform="matrix(&st17;  1902.82  430.1 )">(RHD *8)</text><text style="&st18;" transform="matrix(&st17;  1891.49  421.77 )">BR</text><text style="&st18;" transform="matrix(&st17;  1775.34  428.73 )">(*12)</text><text style="&st18;" transform="matrix(&st17;  1764.01  426.01 )">BR</text><text style="&st18;" transform="matrix(&st17;  1764.01  353.78 )">BR</text><text style="&st18;" transform="matrix(&st17;  1764.01  591.74 )">BR</text><text style="&st18;" transform="matrix(&st17;  1724.35  592.9 )">(*9)</text><text style="&st18;" transform="matrix(&st17;  1713.02  591.74 )">BR</text><text style="&st18;" transform="matrix(&st17;  1860.33  575.9 )">(*8)</text><text style="&st18;" transform="matrix(&st17;  1848.99  574.74 )">BR</text><text style="&st18;" transform="matrix(&st17;  1721.52  142.94 )">B-Y</text><text style="&st18;" transform="matrix(&st17;  1950.98  156.37 )">R</text><text style="&st18;" transform="matrix(&st17;  1696.02  355.29 )">B-L</text><path style="stroke-width:1.42 ;&st7;  " d=" M  1861.19,   593.16  L  1856.22,   588.19  " /><path style="stroke-width:1.42 ;&st7;  " d=" M  1844.19,   600.22  L  1849.16,   605.18  " /><path style="stroke-width:1.42 ;&st7;  " d=" M  1856.22,   605.18  L  1861.19,   600.22  " /><path style="stroke-width:1.42 ;&st7;  " d=" M  1849.16,   588.19  L  1844.19,   593.16  " /><path style="stroke-width:1.42 ;&st7;  " d=" M  1776.20,   610.16  L  1771.23,   605.18  " /><path style="stroke-width:1.42 ;&st7;  " d=" M  1759.21,   617.21  L  1764.17,   622.18  " /><path style="stroke-width:1.42 ;&st7;  " d=" M  1771.23,   622.18  L  1776.20,   617.21  " /><path style="stroke-width:1.42 ;&st7;  " d=" M  1764.18,   605.18  L  1759.21,   610.16  " /><path style="stroke-width:1.42 ;&st7;  " d=" M  1861.19,   397.69  L  1856.22,   392.72  " /><path style="stroke-width:1.42 ;&st7;  " d=" M  1844.19,   404.75  L  1849.16,   409.72  " /><path style="stroke-width:1.42 ;&st7;  " d=" M  1856.22,   409.72  L  1861.19,   404.75  " /><path style="stroke-width:1.42 ;&st7;  " d=" M  1849.16,   392.72  L  1844.19,   397.69  " /><g ewd:figtype="conn" ewd:figID="15" ewd:code="L25"><path style="stroke-width:1.42 ;&st7;  " d=" M  1729.46,   246.12  L  1720.96,   246.12  " /><path style="stroke-width:1.42 ;&st7;  " d=" M  1729.46,   241.87  L  1720.96,   241.87  " /><path style="stroke-width:0.85 ;&st7;  " d=" M  1725.21,   241.87  L  1725.21,   231.25  " /><path style="stroke-width:0.85 ;&st7;  " d=" M  1725.21,   256.74  L  1725.21,   246.12  " /><path style="stroke-width:0.85 ;&st7;  " d=" M  1707.09,   246.30  L  1714.45,   242.05  " /><path style="stroke-width:0.85 ;&st7;  " d=" M  1712.45,   238.58  L  1705.09,   242.83  " /><path style="stroke-width:0.85 ;&st7;  " d=" M  1703.97,   248.24  L  1695.47,   248.24  " /><path style="stroke-width:0.85 ;&st7;  " d=" M  1703.97,   307.73  L  1695.47,   307.73  " /><path style="stroke-width:0.85 ;&st7;  " d=" M  1958.92,   205.75  L  1950.42,   205.75  " /><path style="stroke-width:0.85 ;&st7;  " d=" M  1729.46,   205.75  L  1720.96,   205.75  " /><path style="stroke-width:0.85 ;&st7;  " d=" M  1793.20,   210.00  L  1793.20,   218.50  " /><path style="stroke-width:0.85 ;&st7;  " d=" M  1698.52,   255.74  L  1698.25,   256.21  L  1698.16,   256.74  L  1698.25,   257.28  L  1698.52,   257.75  L  1698.94,   258.09  L  1699.44,   258.28  L  1699.99,   258.28  L  1700.49,   258.09  L  1700.91,   257.75  L  1701.18,   257.28  L  1701.27,   256.74  L  1701.18,   256.21  L  1700.91,   255.74  L  1700.49,   255.39  L  1699.99,   255.21  L  1699.44,   255.21  L  1698.94,   255.39  L  1698.52,   255.74  L  1698.92,   256.45  L  1698.92,   257.03  L  1699.29,   257.48  L  1699.86,   257.58  L  1700.37,   257.29  L  1700.57,   256.74  L  1700.37,   256.20  L  1699.86,   255.91  L  1699.29,   256.01  L  1699.72,   256.74  " /><path style="stroke-width:0.85 ;&st7;  " d=" M  1724.02,   230.24  L  1723.75,   230.71  L  1723.65,   231.25  L  1723.75,   231.78  L  1724.02,   232.25  L  1724.43,   232.60  L  1724.94,   232.78  L  1725.48,   232.78  L  1725.99,   232.60  L  1726.40,   232.25  L  1726.68,   231.78  L  1726.77,   231.25  L  1726.68,   230.71  L  1726.40,   230.24  L  1725.99,   229.90  L  1725.48,   229.71  L  1724.94,   229.71  L  1724.43,   229.90  L  1724.02,   230.24  L  1724.41,   230.96  L  1724.41,   231.54  L  1724.79,   231.98  L  1725.36,   232.08  L  1725.86,   231.79  L  1726.06,   231.25  L  1725.86,   230.70  L  1725.36,   230.41  L  1724.79,   230.51  L  1725.21,   231.25  " /><path style="stroke-width:0.85 ;&st7;  " d=" M  1724.02,   213.25  L  1723.75,   213.72  L  1723.65,   214.25  L  1723.75,   214.78  L  1724.02,   215.25  L  1724.43,   215.60  L  1724.94,   215.79  L  1725.48,   215.79  L  1725.99,   215.60  L  1726.40,   215.25  L  1726.68,   214.78  L  1726.77,   214.25  L  1726.68,   213.72  L  1726.40,   213.25  L  1725.99,   212.90  L  1725.48,   212.71  L  1724.94,   212.71  L  1724.43,   212.90  L  1724.02,   213.25  L  1724.41,   213.96  L  1724.41,   214.54  L  1724.79,   214.99  L  1725.36,   215.09  L  1725.86,   214.80  L  1726.06,   214.25  L  1725.86,   213.70  L  1725.36,   213.41  L  1724.79,   213.51  L  1725.21,   214.25  " /><path style="stroke-width:0.85 ;&st7;  " d=" M  1817.50,   213.25  L  1817.23,   213.72  L  1817.14,   214.25  L  1817.23,   214.78  L  1817.50,   215.25  L  1817.92,   215.60  L  1818.42,   215.79  L  1818.97,   215.79  L  1819.47,   215.60  L  1819.89,   215.25  L  1820.16,   214.78  L  1820.25,   214.25  L  1820.16,   213.72  L  1819.89,   213.25  L  1819.47,   212.90  L  1818.97,   212.71  L  1818.42,   212.71  L  1817.92,   212.90  L  1817.50,   213.25  L  1817.90,   213.96  L  1817.90,   214.54  L  1818.27,   214.99  L  1818.84,   215.09  L  1819.35,   214.80  L  1819.55,   214.25  L  1819.35,   213.70  L  1818.84,   213.41  L  1818.27,   213.51  L  1818.70,   214.25  " /><path style="stroke-width:1.42 ;&st7;  " d=" M  1801.70,   239.75  L  1801.70,   256.74  L  1835.69,   256.74  L  1835.69,   239.75  L  1801.70,   239.75  " /><path style="stroke-width:0.85 ;&st7;  " d=" M  1818.70,   214.25  L  1818.70,   239.75  " /><path style="stroke-width:0.85 ;&st7;  " d=" M  1725.21,   256.74  L  1699.72,   256.74  " /><path style="stroke-width:0.85 ;&st7;  " d=" M  1742.21,   290.74  L  1699.72,   290.74  " /><path style="stroke-width:0.85 ;&st7;  " d=" M  1725.21,   231.25  L  1742.21,   231.25  L  1742.21,   256.74  " /><path style="stroke-width:0.85 ;&st7;  " d=" M  1699.72,   231.25  L  1725.21,   231.25  " /><path style="stroke-width:0.85 ;&st7;  " d=" M  1725.21,   180.26  L  1725.21,   214.25  " /><path style="stroke-width:0.85 ;&st7;  " d=" M  1699.72,   256.74  L  1699.72,   214.25  L  1954.67,   214.25  L  1954.67,   180.26  " /><path style="stroke-width:0.85 ;&st7;  " d=" M  1699.72,   324.73  L  1699.72,   290.74  " /><path style="stroke-width:0.28 ;&st9;  " d=" M  1793.20,   214.25  L  1784.70,   219.92  L  1784.70,   208.58  L  1793.20,   214.25  " /><path style="stroke-width:0.85 ;&st7;  " d=" M  1714.45,   242.05  L  1712.12,   245.09  L  1710.65,   242.55  L  1714.45,   242.05  L  1713.17,   242.79  L  1712.19,   244.07  L  1711.57,   243.00  L  1713.17,   242.79  L  1712.53,   243.16  L  1712.22,   243.56  L  1712.02,   243.23  L  1712.53,   243.16  " /><path style="stroke-width:0.85 ;&st7;  " d=" M  1712.45,   238.58  L  1710.11,   241.62  L  1708.65,   239.08  L  1712.45,   238.58  L  1711.17,   239.32  L  1710.18,   240.60  L  1709.56,   239.53  L  1711.17,   239.32  L  1710.53,   239.69  L  1710.21,   240.09  L  1710.02,   239.76  L  1710.53,   239.69  " /><path style="stroke-width:0.28 ;&st9;  " d=" M  1699.72,   248.24  L  1694.05,   239.75  L  1705.38,   239.75  L  1699.72,   248.24  " /><path style="stroke-width:0.85 ;&st7;  " d=" M  1742.21,   290.74  L  1742.21,   282.24  L  1739.38,   280.82  L  1745.04,   277.99  L  1739.38,   275.16  L  1745.04,   272.32  L  1739.38,   269.49  L  1745.04,   266.66  L  1742.21,   265.24  L  1742.21,   256.74  " /><path style="stroke-width:0.85 ;&st7;  " d=" M  1699.72,   290.74  L  1699.72,   282.24  L  1696.88,   280.82  L  1702.55,   277.99  L  1696.88,   275.16  L  1702.55,   272.32  L  1696.88,   269.49  L  1702.55,   266.66  L  1699.72,   265.24  L  1699.72,   256.74  " /><path style="stroke-width:0.28 ;&st9;  " d=" M  1699.72,   307.73  L  1694.05,   299.24  L  1705.38,   299.24  L  1699.72,   307.73  " /><path style="stroke-width:0.28 ;&st9;  " d=" M  1954.67,   205.75  L  1949.01,   197.25  L  1960.34,   197.25  L  1954.67,   205.75  " /><path style="stroke-width:0.28 ;&st9;  " d=" M  1725.21,   205.75  L  1719.55,   197.25  L  1730.88,   197.25  L  1725.21,   205.75  " /><path style="stroke-width:1.42 ;&st7;  " d=" M  1665.72,   180.26  L  1665.72,   324.73  L  1971.67,   324.73  L  1971.67,   180.26  L  1665.72,   180.26  " /><text style="&st18;" transform="matrix(&st16;  1812.4  250.21 )">CPU</text><text style="&st18;" transform="matrix(&st17;  1692.05  250.14 )">4WD</text><text style="&st18;" transform="matrix(&st16;  1764.04  321.03 )">ES</text><text style="&st18;" transform="matrix(&st16;  1957.26  188.45 )">B</text><text style="&st18;" transform="matrix(&st16;  1727.8  188.45 )">B</text><text style="&st18;" transform="matrix(&st16;  1702.3  321.04 )">SW</text><path style="stroke-width:0.85 ;&st7;  " d=" M  1698.52,   289.73  L  1698.25,   290.20  L  1698.16,   290.74  L  1698.25,   291.27  L  1698.52,   291.74  L  1698.94,   292.09  L  1699.44,   292.27  L  1699.99,   292.27  L  1700.49,   292.09  L  1700.91,   291.74  L  1701.18,   291.27  L  1701.27,   290.74  L  1701.18,   290.20  L  1700.91,   289.73  L  1700.49,   289.39  L  1699.99,   289.20  L  1699.44,   289.20  L  1698.94,   289.39  L  1698.52,   289.73  L  1698.92,   290.45  L  1698.92,   291.03  L  1699.29,   291.47  L  1699.86,   291.57  L  1700.37,   291.28  L  1700.57,   290.74  L  1700.37,   290.19  L  1699.86,   289.90  L  1699.29,   290.00  L  1699.72,   290.74  " /><path style="stroke-width:0.85 ;&st7;  " d=" M  1698.52,   230.24  L  1698.25,   230.71  L  1698.16,   231.25  L  1698.25,   231.78  L  1698.52,   232.25  L  1698.94,   232.60  L  1699.44,   232.78  L  1699.99,   232.78  L  1700.49,   232.60  L  1700.91,   232.25  L  1701.18,   231.78  L  1701.27,   231.25  L  1701.18,   230.71  L  1700.91,   230.24  L  1700.49,   229.90  L  1699.99,   229.71  L  1699.44,   229.71  L  1698.94,   229.90  L  1698.52,   230.24  L  1698.92,   230.96  L  1698.92,   231.54  L  1699.29,   231.98  L  1699.86,   232.08  L  1700.37,   231.79  L  1700.57,   231.25  L  1700.37,   230.70  L  1699.86,   230.41  L  1699.29,   230.51  L  1699.72,   231.25  " /><text style="&st18;" transform="matrix(&st16;  1713.42  177.69 )">28</text><path style="stroke-width:1.42 ;&st7;   " d=" M  1729.74,   175.72  C  1729.74    173.22   1727.71    171.19   1725.21    171.19  " /><path style="stroke-width:1.42 ;&st7;   " d=" M  1725.21,   171.19  C  1722.71    171.19   1720.68    173.22   1720.68    175.72  " /><path style="stroke-width:1.42 ;&st7;   " d=" M  1720.68,   175.72  C  1720.68    178.23   1722.71    180.26   1725.21    180.26  " /><path style="stroke-width:1.42 ;&st7;   " d=" M  1725.21,   180.26  C  1727.71    180.26   1729.74    178.23   1729.74    175.72  " /><text style="&st18;" transform="matrix(&st16;  1722.91  177.69 )">A</text><text style="&st18;" transform="matrix(&st16;  1691.02  331.23 )">2</text><text style="&st18;" transform="matrix(&st16;  1697.41  331.23 )">A</text><path style="stroke-width:1.42 ;&st7;   " d=" M  1704.25,   329.26  C  1704.25    326.76   1702.22    324.73   1699.72    324.73  " /><path style="stroke-width:1.42 ;&st7;   " d=" M  1699.72,   324.73  C  1697.21    324.73   1695.18    326.76   1695.18    329.26  " /><path style="stroke-width:1.42 ;&st7;   " d=" M  1695.18,   329.26  C  1695.18    331.77   1697.21    333.80   1699.72    333.80  " /><path style="stroke-width:1.42 ;&st7;   " d=" M  1699.72,   333.80  C  1702.22    333.80   1704.25    331.77   1704.25    329.26  " /><text style="&st18;" transform="matrix(&st16;  1755.91  331.23 )">15</text><text style="&st18;" transform="matrix(&st16;  1765.4  331.23 )">A</text><path style="stroke-width:1.42 ;&st7;   " d=" M  1772.24,   329.26  C  1772.24    326.76   1770.21    324.73   1767.70    324.73  " /><path style="stroke-width:1.42 ;&st7;   " d=" M  1767.70,   324.73  C  1765.20    324.73   1763.17    326.76   1763.17    329.26  " /><path style="stroke-width:1.42 ;&st7;   " d=" M  1763.17,   329.26  C  1763.17    331.77   1765.20    333.80   1767.70    333.80  " /><path style="stroke-width:1.42 ;&st7;   " d=" M  1767.70,   333.80  C  1770.21    333.80   1772.24    331.77   1772.24    329.26  " /><text style="&st18;" transform="matrix(&st16;  1942.88  177.69 )">26</text><path style="stroke-width:1.42 ;&st7;   " d=" M  1959.21,   175.72  C  1959.21    173.22   1957.18    171.19   1954.67    171.19  " /><path style="stroke-width:1.42 ;&st7;   " d=" M  1954.67,   171.19  C  1952.17    171.19   1950.14    173.22   1950.14    175.72  " /><path style="stroke-width:1.42 ;&st7;   " d=" M  1950.14,   175.72  C  1950.14    178.23   1952.17    180.26   1954.67    180.26  " /><path style="stroke-width:1.42 ;&st7;   " d=" M  1954.67,   180.26  C  1957.18    180.26   1959.21    178.23   1959.21    175.72  " /><text style="&st18;" transform="matrix(&st16;  1952.37  177.69 )">A</text><g ewd:figtype="title"><text style="&st18;" transform="matrix(&st16;  1849.28  339.45 )" ewd:textID="12">Combination Meter Assembly</text><text style="&st18;" transform="matrix(&st16;  1849.28  332.62 )">L25(A)</text></g></g><g ewd:figtype="rb" ewd:figID="16" ewd:code="FUSE16"><path style="stroke-width:1.42 ;&st7;  " d=" M  1888.81,    95.27  L  1884.56,    95.27  " /><path style="stroke-width:1.42 ;&st7;  " d=" M  1888.81,   103.77  L  1884.56,   103.77  " /><path style="stroke-width:0.85 ;&st7;  " d=" M  1886.68,    78.27  L  1886.68,    95.27  " /><path style="stroke-width:1.42 ;&st7;   " d=" M  1884.56,    95.27  C  1882.21     95.27   1880.31     97.17   1880.31     99.52  " /><path style="stroke-width:1.42 ;&st7;   " d=" M  1880.31,    99.52  C  1880.31    101.87   1882.21    103.77   1884.56    103.77  " /><path style="stroke-width:1.42 ;&st7;   " d=" M  1888.81,   103.77  C  1891.16    103.77   1893.06    101.87   1893.06     99.52  " /><path style="stroke-width:1.42 ;&st7;   " d=" M  1893.06,    99.52  C  1893.06     97.17   1891.16     95.27   1888.81     95.27  " /><path style="stroke-width:0.28 ;&st9;  " d=" M  1886.68,    90.37  L  1883.85,    87.54  L  1883.85,    91.79  L  1886.68,    94.62  L  1889.52,    91.79  L  1889.52,    87.54  L  1886.68,    90.37  " /><text style="&st18;" transform="matrix(&st16;  1881.47  32.08 )">(IG)</text><text style="&st18;" transform="matrix(&st16;  1880.5  86.47 )">2</text><text style="&st18;" transform="matrix(&st16;  1884.88  101.49 )">2</text><text style="&st18;" transform="matrix(&st16;  1903.11  56.17 )">10A <tspan x="0 " dy="6.0">MET</tspan></text><path style="stroke-width:0.85 ;&st7;  " d=" M  1886.68,    69.77  L  1886.68,    78.27  " /><path style="stroke-width:1.42 ;&st7;   " d=" M  1886.68,    47.11  C  1883.95     48.72   1883.03     52.25   1884.65     54.99  " /><path style="stroke-width:1.42 ;&st7;   " d=" M  1884.65,    54.99  C  1885.17     55.87   1885.80     56.51   1886.68     57.03  " /><path style="stroke-width:1.42 ;&st7;   " d=" M  1886.68,    66.94  C  1889.42     65.33   1890.33     61.80   1888.72     59.06  " /><path style="stroke-width:1.42 ;&st7;   " d=" M  1888.72,    59.06  C  1888.20     58.18   1887.57     57.55   1886.68     57.03  " /><path style="stroke-width:0.85 ;&st7;   " d=" M  1888.10,    45.69  C  1888.10     44.91   1887.47     44.28   1886.68     44.28  " /><path style="stroke-width:0.85 ;&st7;   " d=" M  1886.68,    44.28  C  1885.90     44.28   1885.27     44.91   1885.27     45.69  " /><path style="stroke-width:0.85 ;&st7;   " d=" M  1885.27,    45.69  C  1885.27     46.48   1885.90     47.11   1886.68     47.11  " /><path style="stroke-width:0.85 ;&st7;   " d=" M  1886.68,    47.11  C  1887.47     47.11   1888.10     46.48   1888.10     45.69  " /><path style="stroke-width:0.85 ;&st7;   " d=" M  1888.10,    68.36  C  1888.10     67.57   1887.47     66.94   1886.68     66.94  " /><path style="stroke-width:0.85 ;&st7;   " d=" M  1886.68,    66.94  C  1885.90     66.94   1885.27     67.57   1885.27     68.36  " /><path style="stroke-width:0.85 ;&st7;   " d=" M  1885.27,    68.36  C  1885.27     69.14   1885.90     69.77   1886.68     69.77  " /><path style="stroke-width:0.85 ;&st7;   " d=" M  1886.68,    69.77  C  1887.47     69.77   1888.10     69.14   1888.10     68.36  " /><path style="stroke-width:1.42 ;&st7;  " d=" M  1873.94,    35.78  L  1873.94,    78.27  L  1899.43,    78.27  L  1899.43,    35.78  L  1873.94,    35.78  " /></g><g ewd:code="I72,I106,I118" ewd:figID="21" ewd:comment="15,16" ewd:figtype="conn"><path style="stroke-width:1.42 ;&st7;  " d=" M  1810.20,    95.27  L  1827.19,    95.27  L  1827.19,   112.27  L  1810.20,   112.27  L  1810.20,    95.27  " /><path style="stroke-width:0.85 ;&st7;  " d=" M  1818.70,    95.27  L  1818.70,   112.27  " /><text style="&st18;" transform="matrix(&st16;  1810.0  92.71 )">5</text><text style="&st18;" transform="matrix(&st16;  1810.0  83.64 )">2</text><text style="&st18;" transform="matrix(&st16;  1810.0  74.58 )">2</text><text style="&st18;" transform="matrix(&st16;  1816.51  83.64 )">B</text><path style="stroke-width:1.42 ;&st7;   " d=" M  1823.23,    72.61  C  1823.23     70.10   1821.20     68.07   1818.70     68.07  " /><path style="stroke-width:1.42 ;&st7;   " d=" M  1818.70,    68.07  C  1816.19     68.07   1814.16     70.10   1814.16     72.61  " /><path style="stroke-width:1.42 ;&st7;   " d=" M  1814.16,    72.61  C  1814.16     75.11   1816.19     77.14   1818.70     77.14  " /><path style="stroke-width:1.42 ;&st7;   " d=" M  1818.70,    77.14  C  1821.20     77.14   1823.23     75.11   1823.23     72.61  " /><path style="stroke-width:1.42 ;&st7;   " d=" M  1823.23,    81.67  C  1823.23     79.17   1821.20     77.14   1818.70     77.14  " /><path style="stroke-width:1.42 ;&st7;   " d=" M  1818.70,    77.14  C  1816.19     77.14   1814.16     79.17   1814.16     81.67  " /><path style="stroke-width:1.42 ;&st7;   " d=" M  1814.16,    81.67  C  1814.16     84.17   1816.19     86.20   1818.70     86.20  " /><path style="stroke-width:1.42 ;&st7;   " d=" M  1818.70,    86.20  C  1821.20     86.20   1823.23     84.17   1823.23     81.67  " /><text style="&st18;" transform="matrix(&st16;  1816.28  92.71 )">C</text><text style="&st18;" transform="matrix(&st16;  1816.39  74.58 )">A</text><path style="stroke-width:1.42 ;&st7;   " d=" M  1823.23,    90.74  C  1823.23     88.23   1821.20     86.20   1818.70     86.20  " /><path style="stroke-width:1.42 ;&st7;   " d=" M  1818.70,    86.20  C  1816.19     86.20   1814.16     88.23   1814.16     90.74  " /><path style="stroke-width:1.42 ;&st7;   " d=" M  1814.16,    90.74  C  1814.16     93.24   1816.19     95.27   1818.70     95.27  " /><path style="stroke-width:1.42 ;&st7;   " d=" M  1818.70,    95.27  C  1821.20     95.27   1823.23     93.24   1823.23     90.74  " /><text style="&st18;" transform="matrix(&st16;  1810.0  118.77 )">1</text><text style="&st18;" transform="matrix(&st16;  1810.0  127.83 )">1</text><text style="&st18;" transform="matrix(&st16;  1810.0  136.9 )">4</text><path style="stroke-width:1.42 ;&st7;   " d=" M  1823.23,   116.80  C  1823.23    114.30   1821.20    112.27   1818.70    112.27  " /><path style="stroke-width:1.42 ;&st7;   " d=" M  1818.70,   112.27  C  1816.19    112.27   1814.16    114.30   1814.16    116.80  " /><path style="stroke-width:1.42 ;&st7;   " d=" M  1814.16,   116.80  C  1814.16    119.30   1816.19    121.33   1818.70    121.33  " /><path style="stroke-width:1.42 ;&st7;   " d=" M  1818.70,   121.33  C  1821.20    121.33   1823.23    119.30   1823.23    116.80  " /><path style="stroke-width:1.42 ;&st7;   " d=" M  1823.23,   125.86  C  1823.23    123.36   1821.20    121.33   1818.70    121.33  " /><path style="stroke-width:1.42 ;&st7;   " d=" M  1818.70,   121.33  C  1816.19    121.33   1814.16    123.36   1814.16    125.86  " /><path style="stroke-width:1.42 ;&st7;   " d=" M  1814.16,   125.86  C  1814.16    128.37   1816.19    130.40   1818.70    130.40  " /><path style="stroke-width:1.42 ;&st7;   " d=" M  1818.70,   130.40  C  1821.20    130.40   1823.23    128.37   1823.23    125.86  " /><path style="stroke-width:1.42 ;&st7;   " d=" M  1823.23,   134.93  C  1823.23    132.43   1821.20    130.40   1818.70    130.40  " /><path style="stroke-width:1.42 ;&st7;   " d=" M  1818.70,   130.40  C  1816.19    130.40   1814.16    132.43   1814.16    134.93  " /><path style="stroke-width:1.42 ;&st7;   " d=" M  1814.16,   134.93  C  1814.16    137.43   1816.19    139.46   1818.70    139.46  " /><path style="stroke-width:1.42 ;&st7;   " d=" M  1818.70,   139.46  C  1821.20    139.46   1823.23    137.43   1823.23    134.93  " /><text style="&st18;" transform="matrix(&st16;  1816.39  118.77 )">A</text><text style="&st18;" transform="matrix(&st16;  1816.28  136.9 )">C</text><text style="&st18;" transform="matrix(&st16;  1816.51  127.83 )">B</text><g ewd:figtype="title"><text style="&st18;" transform="matrix(&st17;  1773.33  115.17 )">I106(B)</text><text style="&st18;" transform="matrix(&st17;  1780.16  115.17 )" ewd:textID="19">No. 9 Junction <tspan x="0 " dy="6.0">Connector</tspan></text><text style="&st18;" transform="matrix(&st17;  1753.22  115.17 )">I72(A)</text><text style="&st18;" transform="matrix(&st17;  1760.04  115.17 )" ewd:textID="24">No. 21 Junction <tspan x="0 " dy="6.0">Connector</tspan></text><text style="&st18;" transform="matrix(&st17;  1800.27  115.17 )" ewd:textID="26">No. 36 Junction <tspan x="0 " dy="6.0">Connector</tspan></text><text style="&st18;" transform="matrix(&st17;  1793.45  115.17 )">I118(C)</text></g><g ewd:code="" ewd:figID="163" ewd:comment="16" ewd:figtype="commref"><text style="&st18;" transform="matrix(&st16;  1823.79  74.58 )">(LHD *16)</text></g><g ewd:code="" ewd:figID="164" ewd:comment="" ewd:figtype="commref"><text style="&st18;" transform="matrix(&st16;  1823.79  83.64 )">(RHD)</text></g><g ewd:code="" ewd:figID="165" ewd:comment="" ewd:figtype="commref"><text style="&st18;" transform="matrix(&st16;  1823.79  127.83 )">(RHD)</text></g><g ewd:code="" ewd:figID="166" ewd:comment="15" ewd:figtype="commref"><text style="&st18;" transform="matrix(&st16;  1823.79  136.9 )">(LHD *15)</text></g><g ewd:code="" ewd:figID="167" ewd:comment="16" ewd:figtype="commref"><text style="&st18;" transform="matrix(&st16;  1823.79  118.77 )">(LHD *16)</text></g><g ewd:code="" ewd:figID="168" ewd:comment="15" ewd:figtype="commref"><text style="&st18;" transform="matrix(&st16;  1823.79  92.71 )">(LHD *15)</text></g></g><g ewd:figtype="w2w" ewd:figID="57" ewd:code="LI1"><path style="stroke-width:1.42 ;&st7;  " d=" M  1686.97,    98.10  L  1682.72,   102.35  L  1678.47,    98.10  " /><path style="stroke-width:1.42 ;&st7;  " d=" M  1678.47,    94.70  L  1682.72,    98.95  L  1686.97,    94.70  " /><text style="&st18;" transform="matrix(&st16;  1666.99  109.99 )">18</text></g><g ewd:figtype="w2w" ewd:figID="58" ewd:code="IL6"><text style="&st18;" transform="matrix(&st16;  1687.08  381.94 )">7</text><g ewd:code="" ewd:figID="104" ewd:comment="" ewd:figtype="commref"><text style="&st18;" transform="matrix(&st16;  1708.75  381.94 )">(RHD)</text></g></g><g ewd:figtype="w2w" ewd:figID="59" ewd:code="IL2"><path style="stroke-width:1.42 ;&st7;  " d=" M  1695.47,   358.16  L  1699.72,   362.41  L  1703.96,   358.16  " /><path style="stroke-width:1.42 ;&st7;  " d=" M  1703.96,   361.56  L  1699.72,   365.81  L  1695.47,   361.56  " /><text style="&st18;" transform="matrix(&st16;  1683.98  373.44 )">10</text><g ewd:code="" ewd:figID="103" ewd:comment="" ewd:figtype="commref"><text style="&st18;" transform="matrix(&st16;  1708.75  373.44 )">(LHD)</text></g></g><g ewd:figtype="w2w" ewd:figID="60" ewd:code="CA4"><path style="stroke-width:1.42 ;&st7;  " d=" M  1712.46,   536.63  L  1716.71,   540.88  L  1720.96,   536.63  " /><path style="stroke-width:1.42 ;&st7;  " d=" M  1720.96,   540.03  L  1716.71,   544.28  L  1712.46,   540.03  " /><text style="&st18;" transform="matrix(&st16;  1700.98  551.91 )">17</text></g><g ewd:figtype="w2w" ewd:figID="61" ewd:code="IL2"><path style="stroke-width:1.42 ;&st7;  " d=" M  1729.46,   121.33  L  1725.21,   117.08  L  1720.96,   121.33  " /><path style="stroke-width:1.42 ;&st7;  " d=" M  1729.46,   117.93  L  1725.21,   113.68  L  1720.96,   117.93  " /><text style="&st18;" transform="matrix(&st16;  1709.48  109.99 )">22</text></g><g ewd:figtype="w2w" ewd:figID="62" ewd:code="AC1"><path style="stroke-width:1.42 ;&st7;  " d=" M  1771.95,   563.26  L  1767.70,   559.01  L  1763.45,   563.26  " /><path style="stroke-width:1.42 ;&st7;  " d=" M  1771.95,   559.86  L  1767.70,   555.61  L  1763.45,   559.86  " /><text style="&st18;" transform="matrix(&st16;  1755.07  551.91 )">1</text></g><g ewd:code="AI3" ewd:figID="63" ewd:comment="9" ewd:figtype="w2w"><text style="&st18;" transform="matrix(&st16;  1751.97  483.92 )">13</text><g ewd:code="" ewd:figID="162" ewd:comment="9" ewd:figtype="commref"><text style="&st18;" transform="matrix(&st16;  1776.74  483.92 )">(LHD *9)</text></g></g><g ewd:code="AI3" ewd:figID="64" ewd:comment="9" ewd:figtype="w2w"><text style="&st18;" transform="matrix(&st16;  1751.97  475.43 )">55</text><g ewd:code="" ewd:figID="112" ewd:comment="9" ewd:figtype="commref"><text style="&st18;" transform="matrix(&st16;  1776.74  475.43 )">(RHD *9)</text></g></g><g ewd:code="AI3" ewd:figID="65" ewd:comment="6" ewd:figtype="w2w"><text style="&st18;" transform="matrix(&st16;  1751.97  466.93 )">22</text><g ewd:code="" ewd:figID="114" ewd:comment="6" ewd:figtype="commref"><text style="&st18;" transform="matrix(&st16;  1776.74  466.93 )">(RHD *6)</text></g></g><g ewd:code="AI3" ewd:figID="66" ewd:comment="6" ewd:figtype="w2w"><path style="stroke-width:1.42 ;&st7;  " d=" M  1771.95,   446.54  L  1767.70,   450.79  L  1763.45,   446.54  " /><path style="stroke-width:1.42 ;&st7;  " d=" M  1763.45,   443.14  L  1767.70,   447.39  L  1771.95,   443.14  " /><text style="&st18;" transform="matrix(&st16;  1751.97  458.43 )">45</text><g ewd:code="" ewd:figID="113" ewd:comment="6" ewd:figtype="commref"><text style="&st18;" transform="matrix(&st16;  1776.74  458.43 )">(LHD *6)</text></g></g><g ewd:figtype="w2w" ewd:figID="67" ewd:code="IL6"><text style="&st18;" transform="matrix(&st16;  1751.97  381.94 )">14</text><g ewd:code="" ewd:figID="102" ewd:comment="" ewd:figtype="commref"><text style="&st18;" transform="matrix(&st16;  1776.74  381.94 )">(RHD)</text></g></g><g ewd:figtype="w2w" ewd:figID="68" ewd:code="IL2"><path style="stroke-width:1.42 ;&st7;  " d=" M  1763.45,   358.16  L  1767.70,   362.41  L  1771.95,   358.16  " /><path style="stroke-width:1.42 ;&st7;  " d=" M  1771.95,   361.56  L  1767.70,   365.81  L  1763.45,   361.56  " /><text style="&st18;" transform="matrix(&st16;  1755.07  373.44 )">4</text><g ewd:code="" ewd:figID="101" ewd:comment="" ewd:figtype="commref"><text style="&st18;" transform="matrix(&st16;  1776.74  373.44 )">(LHD)</text></g></g><g ewd:figtype="w2w" ewd:figID="69" ewd:code="AC5"><path style="stroke-width:1.42 ;&st7;  " d=" M  1856.94,   551.36  L  1852.69,   547.11  L  1848.44,   551.36  " /><path style="stroke-width:1.42 ;&st7;  " d=" M  1856.94,   554.76  L  1852.69,   550.51  L  1848.44,   554.76  " /><text style="&st18;" transform="matrix(&st16;  1840.06  543.41 )">9</text><g ewd:code="" ewd:figID="116" ewd:comment="" ewd:figtype="commref"><text style="&st18;" transform="matrix(&st16;  1861.72  543.41 )">(RHD)</text></g></g><g ewd:figtype="w2w" ewd:figID="70" ewd:code="IC2"><text style="&st18;" transform="matrix(&st16;  1840.06  534.92 )">9</text><g ewd:code="" ewd:figID="115" ewd:comment="" ewd:figtype="commref"><text style="&st18;" transform="matrix(&st16;  1861.72  534.92 )">(LHD)</text></g></g><g ewd:figtype="w2w" ewd:figID="71" ewd:code="AI3"><path style="stroke-width:1.42 ;&st7;  " d=" M  1890.93,   443.14  L  1895.18,   447.39  L  1899.43,   443.14  " /><path style="stroke-width:1.42 ;&st7;  " d=" M  1899.43,   446.54  L  1895.18,   450.79  L  1890.93,   446.54  " /><text style="&st18;" transform="matrix(&st16;  1879.45  458.43 )">56</text></g><g ewd:figtype="w2w" ewd:figID="72" ewd:code="IL6"><path style="stroke-width:1.42 ;&st7;  " d=" M  1958.92,   138.33  L  1954.67,   134.08  L  1950.42,   138.33  " /><path style="stroke-width:1.42 ;&st7;  " d=" M  1958.92,   134.93  L  1954.67,   130.68  L  1950.42,   134.93  " /><text style="&st18;" transform="matrix(&st16;  1942.04  126.98 )">8</text><g ewd:code="" ewd:figID="106" ewd:comment="" ewd:figtype="commref"><text style="&st18;" transform="matrix(&st16;  1963.7  126.98 )">(RHD)</text></g></g><g ewd:figtype="w2w" ewd:figID="73" ewd:code="IL2"><text style="&st18;" transform="matrix(&st16;  1942.04  118.49 )">2</text><g ewd:code="" ewd:figID="105" ewd:comment="" ewd:figtype="commref"><text style="&st18;" transform="matrix(&st16;  1963.7  118.49 )">(LHD)</text></g></g><g ewd:figtype="gp" ewd:figID="83" ewd:code="CE"><path style="stroke-width:0.85 ;&st7;  " d=" M  1716.71,   697.25  L  1716.71,   701.50  " /><path style="stroke-width:0.85 ;&st7;  " d=" M  1708.21,   701.50  L  1725.21,   701.50  " /><path style="stroke-width:0.85 ;&st7;  " d=" M  1712.46,   704.33  L  1720.96,   704.33  " /><path style="stroke-width:0.85 ;&st7;  " d=" M  1713.88,   707.17  L  1719.55,   707.17  " /><path style="stroke-width:0.85 ;&st7;  " d=" M  1715.30,   710.00  L  1718.13,   710.00  " /></g><g ewd:figtype="gp" ewd:figID="84" ewd:code="CC"><path style="stroke-width:0.85 ;&st7;  " d=" M  1767.70,   697.25  L  1767.70,   701.50  " /><path style="stroke-width:0.85 ;&st7;  " d=" M  1759.21,   701.50  L  1776.20,   701.50  " /><path style="stroke-width:0.85 ;&st7;  " d=" M  1763.45,   704.33  L  1771.95,   704.33  " /><path style="stroke-width:0.85 ;&st7;  " d=" M  1764.87,   707.17  L  1770.54,   707.17  " /><path style="stroke-width:0.85 ;&st7;  " d=" M  1766.29,   710.00  L  1769.12,   710.00  " /></g><g ewd:figtype="gp" ewd:figID="85" ewd:code="CA"><path style="stroke-width:0.85 ;&st7;  " d=" M  1852.69,   697.25  L  1852.69,   701.50  " /><path style="stroke-width:0.85 ;&st7;  " d=" M  1844.19,   701.50  L  1861.19,   701.50  " /><path style="stroke-width:0.85 ;&st7;  " d=" M  1848.44,   704.33  L  1856.94,   704.33  " /><path style="stroke-width:0.85 ;&st7;  " d=" M  1849.86,   707.17  L  1855.52,   707.17  " /><path style="stroke-width:0.85 ;&st7;  " d=" M  1851.27,   710.00  L  1854.11,   710.00  " /></g><g ewd:code="17" ewd:figID="117" ewd:comment="" ewd:figtype="comment"><text style="&st18;" transform="matrix(&st16;  1908.77  692.14 )">*17 :LHD 1VD-FTV</text></g><g ewd:code="7" ewd:figID="158" ewd:comment="" ewd:figtype="comment"><text style="&st18;" transform="matrix(&st16;  1908.77  624.15 )" ewd:textID="1">* 7 :RHD 1GR-FE,1HZ 24V Battery Type</text></g><g ewd:code="12" ewd:figID="148" ewd:comment="" ewd:figtype="comment"><text style="&st18;" transform="matrix(&st16;  1908.77  666.64 )" ewd:textID="4">*12 :1HZ 24V Battery Type</text></g><g ewd:code="9" ewd:figID="136" ewd:comment="" ewd:figtype="comment"><text style="&st18;" transform="matrix(&st16;  1908.77  641.15 )">* 9 :1VD-FTV</text></g><g ewd:code="15" ewd:figID="150" ewd:comment="" ewd:figtype="comment"><text style="&st18;" transform="matrix(&st16;  1908.77  675.14 )" ewd:textID="7">*15 :w/ VSC</text></g><g ewd:code="16" ewd:figID="153" ewd:comment="" ewd:figtype="comment"><text style="&st18;" transform="matrix(&st16;  1908.77  683.64 )" ewd:textID="8">*16 :w/o VSC</text></g><g ewd:code="11" ewd:figID="149" ewd:comment="" ewd:figtype="comment"><text style="&st18;" transform="matrix(&st16;  1908.77  658.14 )" ewd:textID="3">*11 :1GR-FE, 1VD-FTV, 1HZ 12V Battery Type</text></g><g ewd:code="4" ewd:figID="156" ewd:comment="" ewd:figtype="comment"><text style="&st18;" transform="matrix(&st16;  1908.77  598.65 )">* 4 :RHD 1GR-FE, 1HZ</text></g><g ewd:code="3" ewd:figID="155" ewd:comment="" ewd:figtype="comment"><text style="&st18;" transform="matrix(&st16;  1908.77  590.16 )">* 3 :LHD 1GR-FE</text></g><g ewd:code="5" ewd:figID="154" ewd:comment="" ewd:figtype="comment"><text style="&st18;" transform="matrix(&st16;  1908.77  607.15 )">* 5 :RHD 1GR-FE</text></g><g ewd:code="10" ewd:figID="147" ewd:comment="" ewd:figtype="comment"><text style="&st18;" transform="matrix(&st16;  1908.77  649.65 )" ewd:textID="2">*10 :1HZ 12V Battery Type</text></g><g ewd:code="8" ewd:figID="135" ewd:comment="" ewd:figtype="comment"><text style="&st18;" transform="matrix(&st16;  1908.77  632.65 )">* 8 :1GR-FE</text></g><g ewd:code="6" ewd:figID="157" ewd:comment="" ewd:figtype="comment"><text style="&st18;" transform="matrix(&st16;  1908.77  615.65 )">* 6 :1HZ</text></g></svg>