<?xml version="1.0" encoding="utf-8"?>
<!DOCTYPE svg PUBLIC "-//W3C//DTD SVG 1.0//EN" "http://www.w3.org/TR/2001/REC-SVG-20010904/DTD/svg10.dtd"[
	<!ENTITY ns_flows "http://ns.adobe.com/Flows/1.0/">
	<!ENTITY ns_svg "http://www.w3.org/2000/svg">
	<!ENTITY ns_xlink "http://www.w3.org/1999/xlink">
	<!ENTITY st0 "font-size:7px;font-family:'MS-PGothic';adobe-font-script:japanese;">
	<!ENTITY st1 "font-size:6px;font-family:'ArialMT';">
	<!-- White fill  -->
	<!ENTITY st2 "fill:#FFFFFF;stroke:#000000; stroke-width:1.41;stroke-linecap:round;stroke-linejoin:round;">
	<!-- Yellow fill  -->
	<!ENTITY st3 "fill:#FFFFCC;stroke:#FFFFCC; stroke-width:0.1;stroke-linecap:round;stroke-linejoin:round;">
	<!-- Gray fill  -->
	<!ENTITY st4 "fill:#CCCCCC;stroke:#CCCCCC; stroke-width:0.1;stroke-linecap:round;stroke-linejoin:round;">
	<!-- Light-blue fill -->
	<!ENTITY st5 "fill:#CCECF4;stroke:#000000; stroke-width:1.133;stroke-linecap:round;stroke-linejoin:round;">
	<!ENTITY st6 "fill:none;stroke-linecap:butt; stroke-linejoin:round;">
	<!ENTITY st7 "fill:none;stroke:#000000;stroke-linecap:round;stroke-linejoin:round;">
	<!ENTITY st8 "enable-background:new    ;">
	<!-- Black fill -->
	<!ENTITY st9 "fill:#000000;stroke:#000000; stroke-linecap:round;stroke-linejoin:round;">
	<!-- SRS note   -->
	<!ENTITY st10 "font-size:9px;font-family:'ArialMT';">
	<!ENTITY st11 "font-size:9px;font-family:'Svg Symbol';">
	<!ENTITY st12 "font-size:6px;font-family:'Svg Symbol';">
	<!ENTITY st13 "fill:none;stroke:#ff0000;stroke-linecap:round;stroke-linejoin:round;">
	<!-- Yellow fill  -->
	<!ENTITY st14 "fill:#FFFF00;stroke:#FFFF00; stroke-width:0.1;stroke-linecap:round;stroke-linejoin:round;">
	<!ENTITY st15 "font-size:6px;font-family:'MS-PGothic';adobe-font-script:japanese;">
	<!ENTITY st16 "1.00 0.00 0.00 1.00">
	<!ENTITY st17 "0.00 -1.00 1.00 0.00">
	<!ENTITY st18 "font-size:6px;font-family:'Arial';">
	<!ENTITY st19 "font-size:9px;font-family:'Arial';">
	<!ENTITY st20 "font-size:6px;font-family:'MS-PGothic','MS PGothic';adobe-font-script:japanese;">
	<!ENTITY st21 "font-size:7px;font-family:'MS-PGothic','MS PGothic';adobe-font-script:japanese;">
	<!ATTLIST svg
		xmlns:ewd CDATA #FIXED "http://shcl.co.jp/ewd"
		xmlns:a CDATA #FIXED "http://ns.adobe.com/AdobeSVGViewerExtensions/3.0/"
		ewd:ver CDATA #IMPLIED
	>
	<!ATTLIST a
		ewd:lineID CDATA #IMPLIED
		ewd:groupID CDATA #IMPLIED
		ewd:figtype CDATA #IMPLIED
		ewd:code CDATA #IMPLIED
		ewd:figID CDATA #IMPLIED
		ewd:pinNo CDATA #IMPLIED
		ewd:comment CDATA #IMPLIED >
	<!ATTLIST g
		ewd:lineID CDATA #IMPLIED
		ewd:groupID CDATA #IMPLIED
		ewd:figtype CDATA #IMPLIED
		ewd:code CDATA #IMPLIED
		ewd:figID CDATA #IMPLIED
		ewd:pinNo CDATA #IMPLIED
		ewd:comment CDATA #IMPLIED >
	<!ATTLIST text
		ewd:textID CDATA #IMPLIED >
	<!ATTLIST title
		ewd:textID CDATA #IMPLIED >
]>
<!-- Generator: Shintec Hozumi YS   -->
<svg onload="call_execInitLoadProc_svg('system')" style="overflow:visible;  enable-background:new 0 0 649.264 710.000" viewBox="0 0 649.264 710.000" height="710.000" width="649.264" xml:space="preserve" ewd:ver="2.1.2.9" xmlns="&ns_svg;" xmlns:a="http://ns.adobe.com/AdobeSVGViewerExtensions/3.0/" xmlns:ewd="http://shcl.co.jp/ewd" xmlns:xlink="&ns_xlink;"><script type="text/javascript" xlink:href="../../../../../system/js/ewd/fig/svgfig.js" xmlns:xlink="http://www.w3.org/1999/xlink" />
<g id="ewd_top"><a ewd:figtype="rb" style="cursor:pointer;" ewd:code="FUSE1" ewd:figID="1"><path style="fill:#CCECF4;stroke:#000000; stroke-width:0; stroke-linecap:round;stroke-linejoin:round; " d=" M    55.24,    35.78  L    55.24,    78.27  L    80.74,    78.27  L    80.74,    35.78  L    55.24,    35.78 " /></a><a ewd:figtype="rb" style="cursor:pointer;" ewd:code="FUSE6" ewd:figID="2"><path style="fill:#CCECF4;stroke:#000000; stroke-width:0; stroke-linecap:round;stroke-linejoin:round; " d=" M   208.22,    35.78  L   208.22,    78.27  L   233.71,    78.27  L   233.71,    35.78  L   208.22,    35.78 " /></a><a ewd:figtype="rb" style="cursor:pointer;" ewd:code="FUSE20" ewd:figID="3"><path style="fill:#CCECF4;stroke:#000000; stroke-width:0; stroke-linecap:round;stroke-linejoin:round; " d=" M   335.69,    35.78  L   335.69,    78.27  L   361.19,    78.27  L   361.19,    35.78  L   335.69,    35.78 " /></a><a ewd:figtype="conn" style="cursor:pointer;" ewd:code="I63,I65" ewd:figID="4"><path style="fill:#CCECF4;stroke:#000000; stroke-width:1.133; stroke-linecap:round;stroke-linejoin:round; " d=" M   212.46,   197.25  L   229.46,   197.25  L   229.46,   214.25  L   212.46,   214.25  L   212.46,   197.25 " /><title ewd:textID="10">No. 13 Junction Connector</title></a><a ewd:figtype="conn" style="cursor:pointer;" ewd:code="I69" ewd:figID="5"><path style="fill:#CCECF4;stroke:#000000; stroke-width:1.133; stroke-linecap:round;stroke-linejoin:round; " d=" M   144.48,   197.25  L   161.47,   197.25  L   161.47,   214.25  L   144.48,   214.25  L   144.48,   197.25 " /><title ewd:textID="11">No. 18 Junction Connector</title></a><a ewd:figtype="conn" style="cursor:pointer;" ewd:code="I61,I72" ewd:figID="6"><path style="fill:#CCECF4;stroke:#000000; stroke-width:1.133; stroke-linecap:round;stroke-linejoin:round; " d=" M    59.49,   197.25  L    76.49,   197.25  L    76.49,   214.25  L    59.49,   214.25  L    59.49,   197.25 " /><title ewd:textID="9">No. 11 Junction Connector , No. 21 Junction Connector</title></a><a ewd:figtype="conn" style="cursor:pointer;" ewd:code="I49" ewd:figID="7"><path style="fill:#CCECF4;stroke:#000000; stroke-width:1.133; stroke-linecap:round;stroke-linejoin:round; " d=" M    50.99,   350.23  L   628.89,   350.23  L   628.89,   307.73  L    50.99,   307.73  L    50.99,   350.23 " /><title ewd:textID="4">Motor Antenna Control Relay</title></a><a ewd:figtype="conn" style="cursor:pointer;" ewd:code="I55" ewd:figID="8"><path style="fill:#CCECF4;stroke:#000000; stroke-width:1.133; stroke-linecap:round;stroke-linejoin:round; " d=" M   339.94,   231.25  L   356.94,   231.25  L   356.94,   248.24  L   339.94,   248.24  L   339.94,   231.25 " /><title ewd:textID="6">No. 6 Junction Connector</title></a><a ewd:figtype="conn" style="cursor:pointer;" ewd:code="I57" ewd:figID="9"><path style="fill:#CCECF4;stroke:#000000; stroke-width:1.133; stroke-linecap:round;stroke-linejoin:round; " d=" M   339.94,   171.76  L   356.94,   171.76  L   356.94,   188.75  L   339.94,   188.75  L   339.94,   171.76 " /><title ewd:textID="7">No. 8 Junction Connector</title></a><a ewd:figtype="conn" style="cursor:pointer;" ewd:code="L13" ewd:figID="10"><path style="fill:#CCECF4;stroke:#000000; stroke-width:1.133; stroke-linecap:round;stroke-linejoin:round; " d=" M   552.41,   537.20  L   628.89,   537.20  L   628.89,   494.70  L   552.41,   494.70  L   552.41,   537.20 " /><title ewd:textID="2">Antenna Switch Assembly</title></a><a ewd:figtype="conn" style="cursor:pointer;" ewd:code="A10" ewd:figID="11"><path style="fill:#CCECF4;stroke:#000000; stroke-width:1.133; stroke-linecap:round;stroke-linejoin:round; " d=" M   169.97,   630.68  L   501.42,   630.68  L   501.42,   588.19  L   169.97,   588.19  L   169.97,   630.68 " /><title ewd:textID="3">Antenna with Holder Assembly</title></a><a ewd:figtype="conn" style="cursor:pointer;" ewd:code="I54" ewd:figID="12"><path style="fill:#CCECF4;stroke:#000000; stroke-width:1.133; stroke-linecap:round;stroke-linejoin:round; " d=" M    59.49,   452.21  L   127.48,   452.21  L   127.48,   435.21  L    59.49,   435.21  L    59.49,   452.21 " /><title ewd:textID="5">No. 5 Junction Connector</title></a><a ewd:figtype="conn" style="cursor:pointer;" ewd:code="L34,L35" ewd:figID="13"><path style="fill:#CCECF4;stroke:#000000; stroke-width:1.133; stroke-linecap:round;stroke-linejoin:round; " d=" M   450.42,   163.26  L   467.42,   163.26  L   467.42,   180.26  L   450.42,   180.26  L   450.42,   163.26 " /><title ewd:textID="14">No. 26 Junction Connector , No. 27 Junction Connector</title></a><a ewd:figtype="conn" style="cursor:pointer;" ewd:code="L2" ewd:figID="14"><path style="fill:#CCECF4;stroke:#000000; stroke-width:1.133; stroke-linecap:round;stroke-linejoin:round; " d=" M   441.93,    86.77  L   475.92,    86.77  L   475.92,    52.78  L   441.93,    52.78  L   441.93,    86.77 " /><title ewd:textID="16">Radio Receiver Assembly</title></a><a ewd:figtype="fuse" style="cursor:pointer;" ewd:code="FUSE1" ewd:figID="49"><path style="&st7; stroke-width:0;" d=" M    55.24,    35.78  L    55.24,    78.27  L    80.74,    78.27  L    80.74,    35.78  L    55.24,    35.78 " /></a><a ewd:figtype="fuse" style="cursor:pointer;" ewd:code="FUSE6" ewd:figID="50"><path style="&st7; stroke-width:0;" d=" M   208.22,    35.78  L   208.22,    78.27  L   233.71,    78.27  L   233.71,    35.78  L   208.22,    35.78 " /></a><a ewd:figtype="fuse" style="cursor:pointer;" ewd:code="FUSE20" ewd:figID="51"><path style="&st7; stroke-width:0;" d=" M   335.69,    35.78  L   335.69,    78.27  L   361.19,    78.27  L   361.19,    35.78  L   335.69,    35.78 " /></a><a style="cursor:pointer;" ewd:lineID="1"><path style="stroke:#000000;stroke-width:5.10 ;&st6;" d=" M    17.00,   681.67  L    17.00,   673.17  L    25.50,   664.67  L    42.49,   664.67  L    42.49,   554.19  L    59.49,   554.19  " /><path style="stroke:#FFFFFF;stroke-width:4.53 ;&st6;" d=" M    17.00,   681.67  L    17.00,   673.17  L    25.50,   664.67  L    42.49,   664.67  L    42.49,   554.19  L    59.49,   554.19  " /><path style="stroke:#000000;stroke-width:1.13 ;&st6;" d=" M    17.00,   681.67  L    17.00,   673.17  L    25.50,   664.67  L    42.49,   664.67  L    42.49,   554.19  L    59.49,   554.19  " /></a><a ewd:comment="1" style="cursor:pointer;" ewd:lineID="2"><path style="stroke:#000000;stroke-width:5.10 ;&st6;" d=" M    17.00,   562.69  L    17.00,   681.67  " /><path style="stroke:#FFFFFF;stroke-width:4.53 ;&st6;" d=" M    17.00,   562.69  L    17.00,   681.67  " /><path style="stroke:#000000;stroke-width:1.13 ;&st6;" d=" M    17.00,   562.69  L    17.00,   681.67  " /></a><a ewd:comment="3" style="cursor:pointer;" ewd:lineID="3"><path style="stroke:#000000;stroke-width:5.10 ;&st6;" d=" M    67.99,   562.69  L    67.99,   681.67  " /><path style="stroke:#FFFFFF;stroke-width:4.53 ;&st6;" d=" M    67.99,   562.69  L    67.99,   681.67  " /><path style="stroke:#000000;stroke-width:1.13 ;&st6;" d=" M    67.99,   562.69  L    67.99,   681.67  " /></a><a ewd:comment="1" style="cursor:pointer;" ewd:lineID="4"><path style="stroke:#000000;stroke-width:5.10 ;&st6;" d=" M    67.99,   461.27  L    67.99,   469.21  L    59.49,   477.71  L    17.00,   477.71  L    17.00,   545.69  " /><path style="stroke:#FFFFFF;stroke-width:4.53 ;&st6;" d=" M    67.99,   461.27  L    67.99,   469.21  L    59.49,   477.71  L    17.00,   477.71  L    17.00,   545.69  " /><path style="stroke:#000000;stroke-width:1.13 ;&st6;" d=" M    67.99,   461.27  L    67.99,   469.21  L    59.49,   477.71  L    17.00,   477.71  L    17.00,   545.69  " /></a><a ewd:comment="3" style="cursor:pointer;" ewd:lineID="5"><path style="stroke:#000000;stroke-width:5.10 ;&st6;" d=" M    67.99,   461.27  L    67.99,   545.69  " /><path style="stroke:#FFFFFF;stroke-width:4.53 ;&st6;" d=" M    67.99,   461.27  L    67.99,   545.69  " /><path style="stroke:#000000;stroke-width:1.13 ;&st6;" d=" M    67.99,   461.27  L    67.99,   545.69  " /></a><a style="cursor:pointer;" ewd:lineID="6"><path style="stroke:#000000;stroke-width:5.10 ;&st6;" d=" M    67.99,   426.15  L    67.99,   350.23  " /><path style="stroke:#FFFFFF;stroke-width:4.53 ;&st6;" d=" M    67.99,   426.15  L    67.99,   350.23  " /><path style="stroke:#000000;stroke-width:1.13 ;&st6;" d=" M    67.99,   426.15  L    67.99,   350.23  " /></a><a style="cursor:pointer;" ewd:lineID="7"><path style="stroke:#999999;stroke-width:5.10 ;&st6;" d=" M    67.99,   307.73  L    67.99,   232.38  " /></a><a style="cursor:pointer;" ewd:lineID="8"><path style="stroke:#999999;stroke-width:5.10 ;&st6;" d=" M    67.99,   179.12  L    67.99,   103.77  " /></a><a style="cursor:pointer;" ewd:lineID="9"><path style="stroke:#000000;stroke-width:5.10 ;&st6;" d=" M   118.98,   681.67  L   118.98,   461.27  " /><path style="stroke:#FFFFFF;stroke-width:4.53 ;&st6;" d=" M   118.98,   681.67  L   118.98,   461.27  " /><path style="stroke:#000000;stroke-width:1.13 ;&st6;" d=" M   118.98,   681.67  L   118.98,   461.27  " /></a><a style="cursor:pointer;" ewd:lineID="10"><path style="stroke:#000000;stroke-width:5.10 ;&st6;" d=" M   144.48,   375.72  L   118.98,   375.72  L   118.98,   426.15  " /><path style="stroke:#FFFFFF;stroke-width:4.53 ;&st6;" d=" M   144.48,   375.72  L   118.98,   375.72  L   118.98,   426.15  " /><path style="stroke:#000000;stroke-width:1.13 ;&st6;" d=" M   144.48,   375.72  L   118.98,   375.72  L   118.98,   426.15  " /></a><a style="cursor:pointer;" ewd:lineID="11"><path style="stroke:#000000;stroke-width:5.10 ;&st6;" d=" M   186.97,   588.19  L   186.97,   545.69  " /><path style="stroke:#FFFFFF;stroke-width:4.53 ;&st6;" d=" M   186.97,   588.19  L   186.97,   545.69  " /><path style="stroke:#000000;stroke-width:1.13 ;&st6;" d=" M   186.97,   588.19  L   186.97,   545.69  " /></a><a style="cursor:pointer;" ewd:lineID="12"><path style="stroke:#F668B2;stroke-width:5.10 ;&st6;" d=" M   220.96,   307.73  L   220.96,   299.24  L   212.46,   290.74  L   152.97,   290.74  L   152.97,   223.31  " /></a><a style="cursor:pointer;" ewd:lineID="13"><path style="stroke:#F668B2;stroke-width:5.10 ;&st6;" d=" M   220.96,   307.73  L   220.96,   223.31  " /></a><a style="cursor:pointer;" ewd:lineID="14"><path style="stroke:#F668B2;stroke-width:5.10 ;&st6;" d=" M   220.96,   179.12  L   220.96,   103.77  " /></a><a style="cursor:pointer;" ewd:lineID="15"><path style="stroke:#F668B2;stroke-width:5.10 ;&st6;" d=" M   220.96,   103.77  L   220.96,   112.27  L   212.46,   120.77  L   152.97,   120.77  L   152.97,   188.19  " /></a><a style="cursor:pointer;" ewd:lineID="16"> d=" M   246.46,   588.19  L   246.46,   452.21 
	
		<path style="stroke:#000000;stroke-width:5.10 ;&st6;" d=" M   246.46,   588.19  L   246.46,   452.21  " /><path style="stroke:#FFFFFF;stroke-width:4.53 ;&st6;" d=" M   246.46,   588.19  L   246.46,   452.21  " /></a><a style="cursor:pointer;" ewd:lineID="17"> d=" M   246.46,   350.23  L   246.46,   420.20 
	
		<path style="stroke:#000000;stroke-width:5.10 ;&st6;" d=" M   246.46,   350.23  L   246.46,   420.20  " /><path style="stroke:#FFFFFF;stroke-width:4.53 ;&st6;" d=" M   246.46,   350.23  L   246.46,   420.20  " /></a><a style="cursor:pointer;" ewd:lineID="18"><path style="stroke:#000000;stroke-width:5.10 ;&st6;" d=" M   280.45,   205.75  L   280.45,   290.74  L   339.94,   290.74  L   348.44,   299.24  L   348.44,   307.73  " /><path style="stroke:#FFFFFF;stroke-width:2.27 ;&st6;" d=" M   280.45,   205.75  L   280.45,   290.74  L   339.94,   290.74  L   348.44,   299.24  L   348.44,   307.73  " /><path style="stroke:#FFE600;stroke-width:1.13 ;&st6;" d=" M   280.45,   205.75  L   280.45,   290.74  L   339.94,   290.74  L   348.44,   299.24  L   348.44,   307.73  " /></a><a style="cursor:pointer;" ewd:lineID="19"><path style="stroke:#000000;stroke-width:5.10 ;&st6;" d=" M   305.95,   588.19  L   305.95,   452.21  " /></a><a style="cursor:pointer;" ewd:lineID="20"><path style="stroke:#000000;stroke-width:5.10 ;&st6;" d=" M   305.95,   350.23  L   305.95,   420.48  " /></a><a style="cursor:pointer;" ewd:lineID="21"><path style="stroke:#000000;stroke-width:5.10 ;&st6;" d=" M   348.44,   307.73  L   348.44,   257.31  " /><path style="stroke:#FFFFFF;stroke-width:2.27 ;&st6;" d=" M   348.44,   307.73  L   348.44,   257.31  " /><path style="stroke:#FFE600;stroke-width:1.13 ;&st6;" d=" M   348.44,   307.73  L   348.44,   257.31  " /></a><a style="cursor:pointer;" ewd:lineID="22"><path style="stroke:#000000;stroke-width:5.10 ;&st6;" d=" M   348.44,   197.82  L   348.44,   222.18  " /><path style="stroke:#FFFFFF;stroke-width:2.27 ;&st6;" d=" M   348.44,   197.82  L   348.44,   222.18  " /><path style="stroke:#FFE600;stroke-width:1.13 ;&st6;" d=" M   348.44,   197.82  L   348.44,   222.18  " /></a><a style="cursor:pointer;" ewd:lineID="23"><path style="stroke:#000000;stroke-width:5.10 ;&st6;" d=" M   348.44,   162.69  L   348.44,   103.77  " /><path style="stroke:#FFFFFF;stroke-width:2.27 ;&st6;" d=" M   348.44,   162.69  L   348.44,   103.77  " /><path style="stroke:#FFE600;stroke-width:1.13 ;&st6;" d=" M   348.44,   162.69  L   348.44,   103.77  " /></a><a style="cursor:pointer;" ewd:lineID="24"><path style="stroke:#000000;stroke-width:5.10 ;&st6;" d=" M   348.44,   103.77  L   348.44,   112.27  L   339.94,   120.77  L   280.45,   120.77  L   280.45,   188.75  " /><path style="stroke:#FFFFFF;stroke-width:2.27 ;&st6;" d=" M   348.44,   103.77  L   348.44,   112.27  L   339.94,   120.77  L   280.45,   120.77  L   280.45,   188.75  " /><path style="stroke:#FFE600;stroke-width:1.13 ;&st6;" d=" M   348.44,   103.77  L   348.44,   112.27  L   339.94,   120.77  L   280.45,   120.77  L   280.45,   188.75  " /></a><a style="cursor:pointer;" ewd:lineID="25"><path style="stroke:#FF0000;stroke-width:5.10 ;&st6;" d=" M   365.44,   588.19  L   365.44,   452.21  " /></a><a style="cursor:pointer;" ewd:lineID="26"><path style="stroke:#FF0000;stroke-width:5.10 ;&st6;" d=" M   365.44,   350.23  L   365.44,   420.48  " /></a><a style="cursor:pointer;" ewd:lineID="27"><path style="stroke:#00A0C6;stroke-width:5.10 ;&st6;" d=" M   424.93,   588.19  L   424.93,   452.21  " /><path style="stroke:#FFFFFF;stroke-width:2.27 ;&st6;" d=" M   424.93,   588.19  L   424.93,   452.21  " /><path style="stroke:#000000;stroke-width:1.13 ;&st6;" d=" M   424.93,   588.19  L   424.93,   452.21  " /></a><a style="cursor:pointer;" ewd:lineID="28"><path style="stroke:#00A0C6;stroke-width:5.10 ;&st6;" d=" M   424.93,   350.23  L   424.93,   420.20  " /><path style="stroke:#FFFFFF;stroke-width:2.27 ;&st6;" d=" M   424.93,   350.23  L   424.93,   420.20  " /><path style="stroke:#000000;stroke-width:1.13 ;&st6;" d=" M   424.93,   350.23  L   424.93,   420.20  " /></a><a style="cursor:pointer;" ewd:lineID="29"><path style="stroke:#00A0C6;stroke-width:5.10 ;&st6;" d=" M   458.92,   307.73  L   458.92,   248.24  " /><path style="stroke:#FFFFFF;stroke-width:2.27 ;&st6;" d=" M   458.92,   307.73  L   458.92,   248.24  " /><path style="stroke:#FFE600;stroke-width:1.13 ;&st6;" d=" M   458.92,   307.73  L   458.92,   248.24  " /></a><a style="cursor:pointer;" ewd:lineID="30"><path style="stroke:#00A0C6;stroke-width:5.10 ;&st6;" d=" M   458.92,   198.39  L   458.92,   233.23  " /><path style="stroke:#FFFFFF;stroke-width:2.27 ;&st6;" d=" M   458.92,   198.39  L   458.92,   233.23  " /><path style="stroke:#FFE600;stroke-width:1.13 ;&st6;" d=" M   458.92,   198.39  L   458.92,   233.23  " /></a><a style="cursor:pointer;" ewd:lineID="31"><path style="stroke:#00A0C6;stroke-width:5.10 ;&st6;" d=" M   458.92,   145.13  L   458.92,    95.84  " /><path style="stroke:#FFFFFF;stroke-width:2.27 ;&st6;" d=" M   458.92,   145.13  L   458.92,    95.84  " /><path style="stroke:#FFE600;stroke-width:1.13 ;&st6;" d=" M   458.92,   145.13  L   458.92,    95.84  " /></a><a style="cursor:pointer;" ewd:lineID="32"><path style="stroke:#00A0C6;stroke-width:5.10 ;&st6;" d=" M   484.42,   588.19  L   484.42,   452.21  " /><path style="stroke:#FFFFFF;stroke-width:2.27 ;&st6;" d=" M   484.42,   588.19  L   484.42,   452.21  " /><path style="stroke:#FF7F00;stroke-width:1.13 ;&st6;" d=" M   484.42,   588.19  L   484.42,   452.21  " /></a><a style="cursor:pointer;" ewd:lineID="33"><path style="stroke:#00A0C6;stroke-width:5.10 ;&st6;" d=" M   484.42,   350.23  L   484.42,   420.20  " /><path style="stroke:#FFFFFF;stroke-width:2.27 ;&st6;" d=" M   484.42,   350.23  L   484.42,   420.20  " /><path style="stroke:#FF7F00;stroke-width:1.13 ;&st6;" d=" M   484.42,   350.23  L   484.42,   420.20  " /></a><a style="cursor:pointer;" ewd:lineID="34"><path style="stroke:#00A0C6;stroke-width:5.10 ;&st6;" d=" M   569.40,   494.70  L   569.40,   433.23  " /><path style="stroke:#FFFFFF;stroke-width:2.27 ;&st6;" d=" M   569.40,   494.70  L   569.40,   433.23  " /><path style="stroke:#FF0000;stroke-width:1.13 ;&st6;" d=" M   569.40,   494.70  L   569.40,   433.23  " /></a><a style="cursor:pointer;" ewd:lineID="35"><path style="stroke:#00A0C6;stroke-width:5.10 ;&st6;" d=" M   569.40,   418.22  L   569.40,   350.23  " /><path style="stroke:#FFFFFF;stroke-width:2.27 ;&st6;" d=" M   569.40,   418.22  L   569.40,   350.23  " /><path style="stroke:#FF0000;stroke-width:1.13 ;&st6;" d=" M   569.40,   418.22  L   569.40,   350.23  " /></a><a style="cursor:pointer;" ewd:lineID="36"><path style="stroke:#000000;stroke-width:5.10 ;&st6;" d=" M   611.90,   681.67  L   611.90,   622.18  " /><path style="stroke:#FFFFFF;stroke-width:4.53 ;&st6;" d=" M   611.90,   681.67  L   611.90,   622.18  " /><path style="stroke:#000000;stroke-width:1.13 ;&st6;" d=" M   611.90,   681.67  L   611.90,   622.18  " /></a><a style="cursor:pointer;" ewd:lineID="37"><path style="stroke:#000000;stroke-width:5.10 ;&st6;" d=" M   611.90,   605.18  L   611.90,   537.20  " /><path style="stroke:#FFFFFF;stroke-width:4.53 ;&st6;" d=" M   611.90,   605.18  L   611.90,   537.20  " /><path style="stroke:#000000;stroke-width:1.13 ;&st6;" d=" M   611.90,   605.18  L   611.90,   537.20  " /></a><a style="cursor:pointer;" ewd:lineID="38"><path style="stroke:#00A0C6;stroke-width:5.10 ;&st6;" d=" M   611.90,   494.70  L   611.90,   433.23  " /><path style="stroke:#FFFFFF;stroke-width:1.13 ;&st6;" d=" M   611.90,   494.70  L   611.90,   433.23  " /></a><a style="cursor:pointer;" ewd:lineID="39"><path style="stroke:#00A0C6;stroke-width:5.10 ;&st6;" d=" M   611.90,   418.22  L   611.90,   350.23  " /><path style="stroke:#FFFFFF;stroke-width:1.13 ;&st6;" d=" M   611.90,   418.22  L   611.90,   350.23  " /></a><a style="cursor:pointer;" ewd:lineID="40"><path style="stroke:#000000;stroke-width: 0.85;stroke-dasharray:3, 1.5;&st6;" d=" M   186.97,   477.71  L   186.97,   452.21  " /></a><a style="cursor:pointer;" ewd:lineID="41"><path style="stroke:#000000;stroke-width: 0.85;stroke-dasharray:3, 1.5;&st6;" d=" M   186.97,   528.70  L   186.97,   511.70  " /></a><a style="cursor:pointer;" ewd:lineID="42"><path style="stroke:#000000;stroke-width: 0.85;stroke-dasharray:3, 1.5;&st6;" d=" M   161.47,   375.72  L   186.97,   375.72  " /></a><a style="cursor:pointer;" ewd:lineID="43"><path style="stroke:#000000;stroke-width: 0.85;stroke-dasharray:3, 1.5;&st6;" d=" M   186.97,   409.72  L   186.97,   426.71  " /></a><a style="cursor:pointer;" ewd:lineID="44"><path style="stroke:#000000;stroke-width: 0.85;stroke-dasharray:3, 1.5;&st6;" d=" M   225.52,   447.96  L   199.41,   447.96  " /></a><a style="cursor:pointer;" ewd:lineID="45"><path style="stroke:#000000;stroke-width: 0.85;stroke-dasharray:3, 1.5;&st6;" d=" M   199.41,   439.46  L   225.52,   439.46  " /></a><a style="cursor:pointer;" ewd:lineID="46"><path style="stroke:#000000;stroke-width: 0.85;stroke-dasharray:3, 1.5;&st6;" d=" M   225.52,   430.96  L   199.41,   430.96  " /></a><a ewd:figtype="w2w" style="cursor:pointer;" ewd:pinNo="17" ewd:code="AI3" ewd:figID="18"><path style="&st2;" d=" M   195.47,   443.71  L   178.47,   443.71  L   178.47,   452.21  L   195.47,   452.21  L   195.47,   443.71 " /><text style="&st8;" transform="matrix(&st16;  182.6  450.08 )"><tspan x="0" style="&st18;" y="0">AI3</tspan></text></a><a ewd:figtype="w2w" style="cursor:pointer;" ewd:pinNo="19" ewd:code="AI3" ewd:figID="19"><path style="&st2;" d=" M   195.47,   435.21  L   178.47,   435.21  L   178.47,   443.71  L   195.47,   443.71  L   195.47,   435.21 " /><text style="&st8;" transform="matrix(&st16;  182.6  441.58 )"><tspan x="0" style="&st18;" y="0">AI3</tspan></text></a><a ewd:figtype="w2w" style="cursor:pointer;" ewd:pinNo="18" ewd:code="AI3" ewd:figID="20"><path style="&st2;" d=" M   195.47,   426.71  L   178.47,   426.71  L   178.47,   435.21  L   195.47,   435.21  L   195.47,   426.71 " /><text style="&st8;" transform="matrix(&st16;  182.6  433.08 )"><tspan x="0" style="&st18;" y="0">AI3</tspan></text></a><a ewd:figtype="w2w" style="cursor:pointer;" ewd:pinNo="15" ewd:code="AI3" ewd:figID="21"><path style="&st2;" d=" M   254.96,   443.71  L   237.96,   443.71  L   237.96,   452.21  L   254.96,   452.21  L   254.96,   443.71 " /><text style="&st8;" transform="matrix(&st16;  242.09  450.08 )"><tspan x="0" style="&st18;" y="0">AI3</tspan></text></a><a ewd:figtype="w2w" style="cursor:pointer;" ewd:pinNo="17" ewd:code="AI3" ewd:figID="22"><path style="&st2;" d=" M   254.96,   435.21  L   237.96,   435.21  L   237.96,   443.71  L   254.96,   443.71  L   254.96,   435.21 " /><text style="&st8;" transform="matrix(&st16;  242.09  441.58 )"><tspan x="0" style="&st18;" y="0">AI3</tspan></text></a><a ewd:figtype="w2w" style="cursor:pointer;" ewd:pinNo="16" ewd:code="AI3" ewd:figID="23"><path style="&st2;" d=" M   254.96,   426.71  L   237.96,   426.71  L   237.96,   435.21  L   254.96,   435.21  L   254.96,   426.71 " /><text style="&st8;" transform="matrix(&st16;  242.09  433.08 )"><tspan x="0" style="&st18;" y="0">AI3</tspan></text></a><a ewd:figtype="w2w" style="cursor:pointer;" ewd:pinNo="16" ewd:code="AI3" ewd:figID="24"><path style="&st2;" d=" M   314.45,   443.71  L   297.45,   443.71  L   297.45,   452.21  L   314.45,   452.21  L   314.45,   443.71 " /><text style="&st8;" transform="matrix(&st16;  301.58  450.08 )"><tspan x="0" style="&st18;" y="0">AI3</tspan></text></a><a ewd:figtype="w2w" style="cursor:pointer;" ewd:pinNo="18" ewd:code="AI3" ewd:figID="25"><path style="&st2;" d=" M   314.45,   435.21  L   297.45,   435.21  L   297.45,   443.71  L   314.45,   443.71  L   314.45,   435.21 " /><text style="&st8;" transform="matrix(&st16;  301.58  441.58 )"><tspan x="0" style="&st18;" y="0">AI3</tspan></text></a><a ewd:figtype="w2w" style="cursor:pointer;" ewd:pinNo="17" ewd:code="AI3" ewd:figID="26"><path style="&st2;" d=" M   314.45,   426.71  L   297.45,   426.71  L   297.45,   435.21  L   314.45,   435.21  L   314.45,   426.71 " /><text style="&st8;" transform="matrix(&st16;  301.58  433.08 )"><tspan x="0" style="&st18;" y="0">AI3</tspan></text></a><a ewd:figtype="w2w" style="cursor:pointer;" ewd:pinNo="14" ewd:code="AI3" ewd:figID="27"><path style="&st2;" d=" M   373.94,   443.71  L   356.94,   443.71  L   356.94,   452.21  L   373.94,   452.21  L   373.94,   443.71 " /><text style="&st8;" transform="matrix(&st16;  361.07  450.08 )"><tspan x="0" style="&st18;" y="0">AI3</tspan></text></a><a ewd:figtype="w2w" style="cursor:pointer;" ewd:pinNo="16" ewd:code="AI3" ewd:figID="28"><path style="&st2;" d=" M   373.94,   435.21  L   356.94,   435.21  L   356.94,   443.71  L   373.94,   443.71  L   373.94,   435.21 " /><text style="&st8;" transform="matrix(&st16;  361.07  441.58 )"><tspan x="0" style="&st18;" y="0">AI3</tspan></text></a><a ewd:figtype="w2w" style="cursor:pointer;" ewd:pinNo="15" ewd:code="AI3" ewd:figID="29"><path style="&st2;" d=" M   373.94,   426.71  L   356.94,   426.71  L   356.94,   435.21  L   373.94,   435.21  L   373.94,   426.71 " /><text style="&st8;" transform="matrix(&st16;  361.07  433.08 )"><tspan x="0" style="&st18;" y="0">AI3</tspan></text></a><a ewd:figtype="w2w" style="cursor:pointer;" ewd:pinNo="23" ewd:code="AI3" ewd:figID="30"><path style="&st2;" d=" M   433.43,   443.71  L   416.43,   443.71  L   416.43,   452.21  L   433.43,   452.21  L   433.43,   443.71 " /><text style="&st8;" transform="matrix(&st16;  420.56  450.08 )"><tspan x="0" style="&st18;" y="0">AI3</tspan></text></a><a ewd:figtype="w2w" style="cursor:pointer;" ewd:pinNo="22" ewd:code="AI3" ewd:figID="31"><path style="&st2;" d=" M   433.43,   435.21  L   416.43,   435.21  L   416.43,   443.71  L   433.43,   443.71  L   433.43,   435.21 " /><text style="&st8;" transform="matrix(&st16;  420.56  441.58 )"><tspan x="0" style="&st18;" y="0">AI3</tspan></text></a><a ewd:figtype="w2w" style="cursor:pointer;" ewd:pinNo="21" ewd:code="AI3" ewd:figID="32"><path style="&st2;" d=" M   433.43,   426.71  L   416.43,   426.71  L   416.43,   435.21  L   433.43,   435.21  L   433.43,   426.71 " /><text style="&st8;" transform="matrix(&st16;  420.56  433.08 )"><tspan x="0" style="&st18;" y="0">AI3</tspan></text></a><a ewd:figtype="w2w" style="cursor:pointer;" ewd:pinNo="20" ewd:code="IL1" ewd:figID="33"><path style="&st2;" d=" M   467.42,   239.75  L   450.42,   239.75  L   450.42,   248.24  L   467.42,   248.24  L   467.42,   239.75 " /><text style="&st8;" transform="matrix(&st16;  454.78  246.11 )"><tspan x="0" style="&st18;" y="0">IL1</tspan></text></a><a ewd:figtype="w2w" style="cursor:pointer;" ewd:pinNo="13" ewd:code="AI3" ewd:figID="34"><path style="&st2;" d=" M   492.92,   443.71  L   475.92,   443.71  L   475.92,   452.21  L   492.92,   452.21  L   492.92,   443.71 " /><text style="&st8;" transform="matrix(&st16;  480.05  450.08 )"><tspan x="0" style="&st18;" y="0">AI3</tspan></text></a><a ewd:figtype="w2w" style="cursor:pointer;" ewd:pinNo="15" ewd:code="AI3" ewd:figID="35"><path style="&st2;" d=" M   492.92,   435.21  L   475.92,   435.21  L   475.92,   443.71  L   492.92,   443.71  L   492.92,   435.21 " /><text style="&st8;" transform="matrix(&st16;  480.05  441.58 )"><tspan x="0" style="&st18;" y="0">AI3</tspan></text></a><a ewd:figtype="w2w" style="cursor:pointer;" ewd:pinNo="19" ewd:code="AI3" ewd:figID="36"><path style="&st2;" d=" M   492.92,   426.71  L   475.92,   426.71  L   475.92,   435.21  L   492.92,   435.21  L   492.92,   426.71 " /><text style="&st8;" transform="matrix(&st16;  480.05  433.08 )"><tspan x="0" style="&st18;" y="0">AI3</tspan></text></a><a ewd:figtype="w2w" style="cursor:pointer;" ewd:pinNo="33" ewd:code="IL1" ewd:figID="37"><path style="&st2;" d=" M   577.90,   418.22  L   560.91,   418.22  L   560.91,   426.71  L   577.90,   426.71  L   577.90,   418.22 " /><text style="&st8;" transform="matrix(&st16;  565.27  424.58 )"><tspan x="0" style="&st18;" y="0">IL1</tspan></text></a><a ewd:figtype="w2w" style="cursor:pointer;" ewd:pinNo="34" ewd:code="IL1" ewd:figID="38"><path style="&st2;" d=" M   620.40,   418.22  L   603.40,   418.22  L   603.40,   426.71  L   620.40,   426.71  L   620.40,   418.22 " /><text style="&st8;" transform="matrix(&st16;  607.76  424.58 )"><tspan x="0" style="&st18;" y="0">IL1</tspan></text></a><a ewd:figtype="gp" style="cursor:pointer;" ewd:code="IE" ewd:figID="39"><path style="&st2;" d=" M     6.37,   681.67  L    27.62,   681.67  L    17.00,   697.25  L     6.37,   681.67 " /><text style="&st8;" transform="matrix(&st16;  14.33  689.46 )"><tspan x="0" style="&st18;" y="0">IE</tspan></text></a><a ewd:figtype="gp" style="cursor:pointer;" ewd:code="IG" ewd:figID="40"><path style="&st2;" d=" M    57.37,   681.67  L    78.61,   681.67  L    67.99,   697.25  L    57.37,   681.67 " /><text style="&st8;" transform="matrix(&st16;  64.98  689.46 )"><tspan x="0" style="&st18;" y="0">IG</tspan></text></a><a ewd:figtype="gp" style="cursor:pointer;" ewd:code="IA" ewd:figID="41"><path style="&st2;" d=" M   108.36,   681.67  L   129.60,   681.67  L   118.98,   697.25  L   108.36,   681.67 " /><text style="&st8;" transform="matrix(&st16;  116.12  689.46 )"><tspan x="0" style="&st18;" y="0">IA</tspan></text></a><a ewd:figtype="gp" style="cursor:pointer;" ewd:code="LA" ewd:figID="42"><path style="&st2;" d=" M   601.27,   681.67  L   622.52,   681.67  L   611.90,   697.25  L   601.27,   681.67 " /><text style="&st8;" transform="matrix(&st16;  608.14  689.46 )"><tspan x="0" style="&st18;" y="0">LA</tspan></text></a><a ewd:figtype="sp" style="cursor:pointer;" ewd:code="SP76" ewd:figID="43"><path style="&st2;" d=" M    12.75,   545.69  L    21.25,   545.69  L    25.50,   549.94  L    25.50,   558.44  L    21.25,   562.69  L    12.75,   562.69  L     8.50,   558.44  L     8.50,   549.94  L    12.75,   545.69 " /></a><a ewd:figtype="sp" style="cursor:pointer;" ewd:code="SP54" ewd:figID="44"><path style="&st2;" d=" M    63.74,   545.69  L    72.24,   545.69  L    76.49,   549.94  L    76.49,   558.44  L    72.24,   562.69  L    63.74,   562.69  L    59.49,   558.44  L    59.49,   549.94  L    63.74,   545.69 " /></a><a ewd:figtype="sp" style="cursor:pointer;" ewd:code="SP126" ewd:figID="45"><path style="&st2;" d=" M   148.73,   367.22  L   157.22,   367.22  L   161.47,   371.47  L   161.47,   379.97  L   157.22,   384.22  L   148.73,   384.22  L   144.48,   379.97  L   144.48,   371.47  L   148.73,   367.22 " /></a><a ewd:figtype="sp" style="cursor:pointer;" ewd:code="SP127" ewd:figID="46"><path style="&st2;" d=" M   182.72,   528.70  L   191.22,   528.70  L   195.47,   532.95  L   195.47,   541.44  L   191.22,   545.69  L   182.72,   545.69  L   178.47,   541.44  L   178.47,   532.95  L   182.72,   528.70 " /></a><a ewd:figtype="sp" style="cursor:pointer;" ewd:code="SP44" ewd:figID="47"><path style="&st2;" d=" M   276.20,   188.75  L   284.70,   188.75  L   288.95,   193.00  L   288.95,   201.50  L   284.70,   205.75  L   276.20,   205.75  L   271.95,   201.50  L   271.95,   193.00  L   276.20,   188.75 " /></a><a ewd:figtype="sp" style="cursor:pointer;" ewd:code="SP81" ewd:figID="48"><path style="&st2;" d=" M   607.65,   605.18  L   616.15,   605.18  L   620.40,   609.43  L   620.40,   617.93  L   616.15,   622.18  L   607.65,   622.18  L   603.40,   617.93  L   603.40,   609.43  L   607.65,   605.18 " /></a></g></svg>