<?xml version="1.0" encoding="utf-8"?>
<!DOCTYPE svg PUBLIC "-//W3C//DTD SVG 1.0//EN" "http://www.w3.org/TR/2001/REC-SVG-20010904/DTD/svg10.dtd"[
	<!ENTITY ns_flows "http://ns.adobe.com/Flows/1.0/">
	<!ENTITY ns_svg "http://www.w3.org/2000/svg">
	<!ENTITY ns_xlink "http://www.w3.org/1999/xlink">
	<!ENTITY st0 "font-size:7px;font-family:'MS-PGothic';adobe-font-script:japanese;">
	<!ENTITY st1 "font-size:6px;font-family:'ArialMT';">
	<!-- White fill  -->
	<!ENTITY st2 "fill:#FFFFFF;stroke:#000000; stroke-width:1.41;stroke-linecap:round;stroke-linejoin:round;">
	<!-- Yellow fill  -->
	<!ENTITY st3 "fill:#FFFFCC;stroke:#FFFFCC; stroke-width:0.1;stroke-linecap:round;stroke-linejoin:round;">
	<!-- Gray fill  -->
	<!ENTITY st4 "fill:#CCCCCC;stroke:#CCCCCC; stroke-width:0.1;stroke-linecap:round;stroke-linejoin:round;">
	<!-- Light-blue fill -->
	<!ENTITY st5 "fill:#CCECF4;stroke:#000000; stroke-width:1.133;stroke-linecap:round;stroke-linejoin:round;">
	<!ENTITY st6 "fill:none;stroke-linecap:butt; stroke-linejoin:round;">
	<!ENTITY st7 "fill:none;stroke:#000000;stroke-linecap:round;stroke-linejoin:round;">
	<!ENTITY st8 "enable-background:new    ;">
	<!-- Black fill -->
	<!ENTITY st9 "fill:#000000;stroke:#000000; stroke-linecap:round;stroke-linejoin:round;">
	<!-- SRS note   -->
	<!ENTITY st10 "font-size:9px;font-family:'ArialMT';">
	<!ENTITY st11 "font-size:9px;font-family:'Svg Symbol';">
	<!ENTITY st12 "font-size:6px;font-family:'Svg Symbol';">
	<!ENTITY st13 "fill:none;stroke:#ff0000;stroke-linecap:round;stroke-linejoin:round;">
	<!-- Yellow fill  -->
	<!ENTITY st14 "fill:#FFFF00;stroke:#FFFF00; stroke-width:0.1;stroke-linecap:round;stroke-linejoin:round;">
	<!ENTITY st15 "font-size:6px;font-family:'MS-PGothic';adobe-font-script:japanese;">
	<!ENTITY st16 "1.00 0.00 0.00 1.00">
	<!ENTITY st17 "0.00 -1.00 1.00 0.00">
	<!ENTITY st18 "font-size:6px;font-family:'Arial';">
	<!ENTITY st19 "font-size:9px;font-family:'Arial';">
	<!ENTITY st20 "font-size:6px;font-family:'MS-PGothic','MS PGothic';adobe-font-script:japanese;">
	<!ENTITY st21 "font-size:7px;font-family:'MS-PGothic','MS PGothic';adobe-font-script:japanese;">
	<!ATTLIST svg
		xmlns:ewd CDATA #FIXED "http://shcl.co.jp/ewd"
		xmlns:a CDATA #FIXED "http://ns.adobe.com/AdobeSVGViewerExtensions/3.0/"
		ewd:ver CDATA #IMPLIED
	>
	<!ATTLIST a
		ewd:lineID CDATA #IMPLIED
		ewd:groupID CDATA #IMPLIED
		ewd:figtype CDATA #IMPLIED
		ewd:code CDATA #IMPLIED
		ewd:figID CDATA #IMPLIED
		ewd:pinNo CDATA #IMPLIED
		ewd:comment CDATA #IMPLIED >
	<!ATTLIST g
		ewd:lineID CDATA #IMPLIED
		ewd:groupID CDATA #IMPLIED
		ewd:figtype CDATA #IMPLIED
		ewd:code CDATA #IMPLIED
		ewd:figID CDATA #IMPLIED
		ewd:pinNo CDATA #IMPLIED
		ewd:comment CDATA #IMPLIED >
	<!ATTLIST text
		ewd:textID CDATA #IMPLIED >
	<!ATTLIST title
		ewd:textID CDATA #IMPLIED >
]>
<!-- Generator: Shintec Hozumi YS   -->
<svg onload="call_execInitLoadProc_svg('system')" style="overflow:visible;  enable-background:new 0 0 6697.589 710.000" viewBox="0 0 6697.589 710.000" height="710.000" width="6697.589" xml:space="preserve" ewd:ver="2.1.2.9" xmlns="&ns_svg;" xmlns:a="http://ns.adobe.com/AdobeSVGViewerExtensions/3.0/" xmlns:ewd="http://shcl.co.jp/ewd" xmlns:xlink="&ns_xlink;">
<text style="&st18;" transform="matrix(&st17;  1925.48  365.44 )">W</text><path style="stroke-width:1.42 ;&st7;  " d=" M  1937.68,   316.23  L  1929.18,   316.23  " /><text style="&st18;" transform="matrix(&st17;  1925.48  267.71 )">W</text><text style="&st18;" transform="matrix(&st16;  1747.3  466.93 )" ewd:textID="8">Brake Actuator Assembly</text><text style="&st18;" transform="matrix(&st16;  1747.29  460.1 )">A42</text><text style="&st18;" transform="matrix(&st17;  1715.85  307.05 )">(LHD)</text><text style="&st18;" transform="matrix(&st17;  1704.52  301.7 )">W</text><text style="&st18;" transform="matrix(&st17;  1715.85  213.57 )">(LHD)</text><text style="&st18;" transform="matrix(&st17;  1704.52  208.22 )">W</text><text style="&st18;" transform="matrix(&st17;  1764.01  208.22 )">W</text><text style="&st18;" transform="matrix(&st17;  1602.54  143.21 )">G-Y</text><text style="&st18;" transform="matrix(&st17;  1670.52  139.72 )">G</text><text style="&st18;" transform="matrix(&st17;  1865.99  169.97 )">W</text><text style="&st18;" transform="matrix(&st17;  1764.01  301.7 )">W</text><text style="&st18;" transform="matrix(&st17;  1976.47  364.66 )">B</text><text style="&st18;" transform="matrix(&st17;  1775.34  307.09 )">(RHD)</text><text style="&st18;" transform="matrix(&st17;  1775.34  213.61 )">(RHD)</text><g ewd:figtype="rb" ewd:figID="12" ewd:code="FUSE33"><text style="&st18;" transform="matrix(&st16;  1598.19  32.08 )">(BAT)</text><text style="&st18;" transform="matrix(&st16;  1600.05  86.47 )">2</text><text style="&st18;" transform="matrix(&st16;  1604.43  101.49 )">2</text><text style="&st18;" transform="matrix(&st16;  1622.66  56.17 )">30A <tspan x="0 " dy="6.0">STOP</tspan></text><path style="stroke-width:0.28 ;&st9;  " d=" M  1606.23,    90.37  L  1603.40,    87.54  L  1603.40,    91.79  L  1606.23,    94.62  L  1609.06,    91.79  L  1609.06,    87.54  L  1606.23,    90.37  " /><path style="stroke-width:1.42 ;&st7;   " d=" M  1612.61,    99.52  C  1612.61     97.17   1610.70     95.27   1608.36     95.27  " /><path style="stroke-width:1.42 ;&st7;   " d=" M  1608.36,   103.77  C  1610.70    103.77   1612.61    101.87   1612.61     99.52  " /><path style="stroke-width:1.42 ;&st7;   " d=" M  1599.86,    99.52  C  1599.86    101.87   1601.76    103.77   1604.11    103.77  " /><path style="stroke-width:1.42 ;&st7;   " d=" M  1604.11,    95.27  C  1601.76     95.27   1599.86     97.17   1599.86     99.52  " /><path style="stroke-width:0.85 ;&st7;  " d=" M  1606.23,    78.27  L  1606.23,    95.27  " /><path style="stroke-width:1.42 ;&st7;  " d=" M  1608.36,   103.77  L  1604.11,   103.77  " /><path style="stroke-width:1.42 ;&st7;  " d=" M  1608.36,    95.27  L  1604.11,    95.27  " /><path style="stroke-width:1.42 ;&st7;  " d=" M  1593.48,    35.78  L  1593.48,    78.27  L  1618.98,    78.27  L  1618.98,    35.78  L  1593.48,    35.78  " /><path style="stroke-width:0.85 ;&st7;   " d=" M  1607.65,    68.36  C  1607.65     67.57   1607.01     66.94   1606.23     66.94  " /><path style="stroke-width:0.85 ;&st7;   " d=" M  1606.23,    66.94  C  1605.45     66.94   1604.82     67.57   1604.82     68.36  " /><path style="stroke-width:0.85 ;&st7;   " d=" M  1604.82,    68.36  C  1604.82     69.14   1605.45     69.77   1606.23     69.77  " /><path style="stroke-width:0.85 ;&st7;   " d=" M  1606.23,    69.77  C  1607.01     69.77   1607.65     69.14   1607.65     68.36  " /><path style="stroke-width:0.85 ;&st7;   " d=" M  1607.65,    45.69  C  1607.65     44.91   1607.01     44.28   1606.23     44.28  " /><path style="stroke-width:0.85 ;&st7;   " d=" M  1606.23,    44.28  C  1605.45     44.28   1604.82     44.91   1604.82     45.69  " /><path style="stroke-width:0.85 ;&st7;   " d=" M  1604.82,    45.69  C  1604.82     46.48   1605.45     47.11   1606.23     47.11  " /><path style="stroke-width:0.85 ;&st7;   " d=" M  1606.23,    47.11  C  1607.01     47.11   1607.65     46.48   1607.65     45.69  " /><path style="stroke-width:1.42 ;&st7;   " d=" M  1606.23,    66.94  C  1608.97     65.33   1609.88     61.80   1608.27     59.06  " /><path style="stroke-width:1.42 ;&st7;   " d=" M  1608.27,    59.06  C  1607.75     58.18   1607.11     57.55   1606.23     57.03  " /><path style="stroke-width:1.42 ;&st7;   " d=" M  1606.23,    47.11  C  1603.49     48.72   1602.58     52.25   1604.19     54.99  " /><path style="stroke-width:1.42 ;&st7;   " d=" M  1604.19,    54.99  C  1604.71     55.87   1605.35     56.51   1606.23     57.03  " /><path style="stroke-width:0.85 ;&st7;  " d=" M  1606.23,    69.77  L  1606.23,    78.27  " /></g><g ewd:figtype="rb" ewd:figID="13" ewd:code="FUSE26"><text style="&st18;" transform="matrix(&st16;  1761.52  83.08 )">1</text><text style="&st18;" transform="matrix(&st16;  1761.52  137.46 )">2</text><text style="&st18;" transform="matrix(&st16;  1784.13  107.16 )">15A <tspan x="0 " dy="6.0">STOP</tspan></text><text style="&st18;" transform="matrix(&st16;  1765.9  58.99 )">2</text><path style="stroke-width:0.85 ;&st7;  " d=" M  1767.70,   154.76  L  1767.70,   129.26  " /><path style="stroke-width:0.85 ;&st7;  " d=" M  1767.70,    86.77  L  1767.70,    61.28  " /><path style="stroke-width:0.28 ;&st9;  " d=" M  1767.70,   149.86  L  1764.87,   147.03  L  1764.87,   151.28  L  1767.70,   154.11  L  1770.54,   151.28  L  1770.54,   147.03  L  1767.70,   149.86  " /><path style="stroke-width:0.28 ;&st9;  " d=" M  1767.70,    66.17  L  1770.54,    69.00  L  1770.54,    64.75  L  1767.70,    61.92  L  1764.87,    64.75  L  1764.87,    69.00  L  1767.70,    66.17  " /><path style="stroke-width:1.42 ;&st7;   " d=" M  1774.08,   159.01  C  1774.08    156.66   1772.18    154.76   1769.83    154.76  " /><path style="stroke-width:1.42 ;&st7;   " d=" M  1769.83,   163.26  C  1772.18    163.26   1774.08    161.36   1774.08    159.01  " /><path style="stroke-width:1.42 ;&st7;   " d=" M  1761.33,   159.01  C  1761.33    161.36   1763.23    163.26   1765.58    163.26  " /><path style="stroke-width:1.42 ;&st7;   " d=" M  1765.58,   154.76  C  1763.23    154.76   1761.33    156.66   1761.33    159.01  " /><path style="stroke-width:1.42 ;&st7;   " d=" M  1774.08,    57.03  C  1774.08     54.68   1772.18     52.78   1769.83     52.78  " /><path style="stroke-width:1.42 ;&st7;   " d=" M  1769.83,    61.28  C  1772.18     61.28   1774.08     59.37   1774.08     57.03  " /><path style="stroke-width:1.42 ;&st7;   " d=" M  1761.33,    57.03  C  1761.33     59.37   1763.23     61.28   1765.58     61.28  " /><path style="stroke-width:1.42 ;&st7;   " d=" M  1765.58,    52.78  C  1763.23     52.78   1761.33     54.68   1761.33     57.03  " /><path style="stroke-width:1.42 ;&st7;  " d=" M  1769.83,   163.26  L  1765.58,   163.26  " /><path style="stroke-width:1.42 ;&st7;  " d=" M  1769.83,   154.76  L  1765.58,   154.76  " /><path style="stroke-width:1.42 ;&st7;  " d=" M  1769.83,    61.28  L  1765.58,    61.28  " /><path style="stroke-width:1.42 ;&st7;  " d=" M  1769.83,    52.78  L  1765.58,    52.78  " /><text style="&st18;" transform="matrix(&st16;  1765.9  160.98 )">2</text><path style="stroke-width:1.42 ;&st7;  " d=" M  1754.96,    86.77  L  1754.96,   129.26  L  1780.45,   129.26  L  1780.45,    86.77  L  1754.96,    86.77  " /><path style="stroke-width:0.85 ;&st7;  " d=" M  1767.70,    86.77  L  1767.70,    95.27  " /><path style="stroke-width:0.85 ;&st7;   " d=" M  1769.12,   119.35  C  1769.12    118.57   1768.49    117.93   1767.70    117.93  " /><path style="stroke-width:0.85 ;&st7;   " d=" M  1767.70,   117.93  C  1766.92    117.93   1766.29    118.57   1766.29    119.35  " /><path style="stroke-width:0.85 ;&st7;   " d=" M  1766.29,   119.35  C  1766.29    120.13   1766.92    120.77   1767.70    120.77  " /><path style="stroke-width:0.85 ;&st7;   " d=" M  1767.70,   120.77  C  1768.49    120.77   1769.12    120.13   1769.12    119.35  " /><path style="stroke-width:0.85 ;&st7;   " d=" M  1769.12,    96.69  C  1769.12     95.90   1768.49     95.27   1767.70     95.27  " /><path style="stroke-width:0.85 ;&st7;   " d=" M  1767.70,    95.27  C  1766.92     95.27   1766.29     95.90   1766.29     96.69  " /><path style="stroke-width:0.85 ;&st7;   " d=" M  1766.29,    96.69  C  1766.29     97.47   1766.92     98.10   1767.70     98.10  " /><path style="stroke-width:0.85 ;&st7;   " d=" M  1767.70,    98.10  C  1768.49     98.10   1769.12     97.47   1769.12     96.69  " /><path style="stroke-width:1.42 ;&st7;   " d=" M  1767.70,   117.93  C  1770.44    116.32   1771.35    112.79   1769.74    110.05  " /><path style="stroke-width:1.42 ;&st7;   " d=" M  1769.74,   110.05  C  1769.22    109.17   1768.59    108.54   1767.70    108.02  " /><path style="stroke-width:1.42 ;&st7;   " d=" M  1767.70,    98.10  C  1764.97     99.72   1764.05    103.24   1765.67    105.98  " /><path style="stroke-width:1.42 ;&st7;   " d=" M  1765.67,   105.98  C  1766.19    106.86   1766.82    107.50   1767.70    108.02  " /><path style="stroke-width:0.85 ;&st7;  " d=" M  1767.70,   120.77  L  1767.70,   129.26  " /></g><g ewd:figtype="conn" ewd:figID="14" ewd:code="I108,I109"><path style="stroke-width:0.85 ;&st7;  " d=" M  1767.70,   256.74  L  1767.70,   273.74  " /><path style="stroke-width:1.42 ;&st7;  " d=" M  1759.21,   256.74  L  1759.21,   273.74  L  1776.20,   273.74  L  1776.20,   256.74  L  1759.21,   256.74  " /><text style="&st18;" transform="matrix(&st16;  1755.91  280.24 )">10</text><path style="stroke-width:1.42 ;&st7;   " d=" M  1772.24,   278.27  C  1772.24    275.77   1770.21    273.74   1767.70    273.74  " /><path style="stroke-width:1.42 ;&st7;   " d=" M  1767.70,   273.74  C  1765.20    273.74   1763.17    275.77   1763.17    278.27  " /><path style="stroke-width:1.42 ;&st7;   " d=" M  1763.17,   278.27  C  1763.17    280.78   1765.20    282.80   1767.70    282.80  " /><path style="stroke-width:1.42 ;&st7;   " d=" M  1767.70,   282.80  C  1770.21    282.80   1772.24    280.78   1772.24    278.27  " /><text style="&st18;" transform="matrix(&st16;  1765.52  280.24 )">B</text><text style="&st18;" transform="matrix(&st16;  1755.91  254.18 )">10</text><path style="stroke-width:1.42 ;&st7;   " d=" M  1772.24,   252.21  C  1772.24    249.71   1770.21    247.68   1767.70    247.68  " /><path style="stroke-width:1.42 ;&st7;   " d=" M  1767.70,   247.68  C  1765.20    247.68   1763.17    249.71   1763.17    252.21  " /><path style="stroke-width:1.42 ;&st7;   " d=" M  1763.17,   252.21  C  1763.17    254.71   1765.20    256.74   1767.70    256.74  " /><path style="stroke-width:1.42 ;&st7;   " d=" M  1767.70,   256.74  C  1770.21    256.74   1772.24    254.71   1772.24    252.21  " /><text style="&st18;" transform="matrix(&st16;  1765.4  254.18 )">A</text><g ewd:figtype="title"><text style="&st18;" transform="matrix(&st17;  1784.1  276.64 )">I108(A),I109(B)</text><text style="&st18;" transform="matrix(&st17;  1790.92  276.65 )" ewd:textID="37">No. 13 <tspan x="0 " dy="6.0">Junction Connector</tspan></text></g></g><g ewd:figtype="conn" ewd:figID="18" ewd:code="I19"><path style="stroke-width:1.42 ;&st7;  " d=" M  1614.73,   205.75  L  1614.73,   171.76  L  1597.73,   171.76  L  1597.73,   205.75  L  1614.73,   205.75  " /><path style="stroke-width:0.85 ;&st7;   " d=" M  1607.65,   177.42  C  1607.65    176.64   1607.01    176.01   1606.23    176.01  " /><path style="stroke-width:0.85 ;&st7;   " d=" M  1606.23,   176.01  C  1605.45    176.01   1604.82    176.64   1604.82    177.42  " /><path style="stroke-width:0.85 ;&st7;   " d=" M  1604.82,   177.42  C  1604.82    178.20   1605.45    178.84   1606.23    178.84  " /><path style="stroke-width:0.85 ;&st7;   " d=" M  1606.23,   178.84  C  1607.01    178.84   1607.65    178.20   1607.65    177.42  " /><path style="stroke-width:0.85 ;&st7;   " d=" M  1607.65,   200.09  C  1607.65    199.30   1607.01    198.67   1606.23    198.67  " /><path style="stroke-width:0.85 ;&st7;   " d=" M  1606.23,   198.67  C  1605.45    198.67   1604.82    199.30   1604.82    200.09  " /><path style="stroke-width:0.85 ;&st7;   " d=" M  1604.82,   200.09  C  1604.82    200.87   1605.45    201.50   1606.23    201.50  " /><path style="stroke-width:0.85 ;&st7;   " d=" M  1606.23,   201.50  C  1607.01    201.50   1607.65    200.87   1607.65    200.09  " /><path style="stroke-width:0.85 ;&st7;  " d=" M  1606.23,   176.01  L  1606.23,   171.76  " /><path style="stroke-width:0.85 ;&st7;  " d=" M  1606.23,   205.75  L  1606.23,   201.50  " /><path style="stroke-width:1.42 ;&st7;  " d=" M  1606.23,   198.67  L  1611.90,   176.01  " /><text style="&st18;" transform="matrix(&st16;  1597.54  169.19 )">2</text><text style="&st18;" transform="matrix(&st16;  1603.93  169.19 )">A</text><path style="stroke-width:1.42 ;&st7;   " d=" M  1610.76,   167.22  C  1610.76    164.72   1608.73    162.69   1606.23    162.69  " /><path style="stroke-width:1.42 ;&st7;   " d=" M  1606.23,   162.69  C  1603.73    162.69   1601.70    164.72   1601.70    167.22  " /><path style="stroke-width:1.42 ;&st7;   " d=" M  1601.70,   167.22  C  1601.70    169.73   1603.73    171.76   1606.23    171.76  " /><path style="stroke-width:1.42 ;&st7;   " d=" M  1606.23,   171.76  C  1608.73    171.76   1610.76    169.73   1610.76    167.22  " /><text style="&st18;" transform="matrix(&st16;  1597.54  212.25 )">1</text><text style="&st18;" transform="matrix(&st16;  1603.93  212.25 )">A</text><path style="stroke-width:1.42 ;&st7;   " d=" M  1610.76,   210.28  C  1610.76    207.78   1608.73    205.75   1606.23    205.75  " /><path style="stroke-width:1.42 ;&st7;   " d=" M  1606.23,   205.75  C  1603.73    205.75   1601.70    207.78   1601.70    210.28  " /><path style="stroke-width:1.42 ;&st7;   " d=" M  1601.70,   210.28  C  1601.70    212.79   1603.73    214.82   1606.23    214.82  " /><path style="stroke-width:1.42 ;&st7;   " d=" M  1606.23,   214.82  C  1608.73    214.82   1610.76    212.79   1610.76    210.28  " /><g ewd:figtype="title"><text style="&st18;" transform="matrix(&st17;  1587.21  217.15 )">I19(A)</text><text style="&st18;" transform="matrix(&st17;  1594.04  217.16 )" ewd:textID="58">Stop Light Switch Assembly</text></g></g><g ewd:figtype="conn" ewd:figID="46" ewd:code="A42"><g ewd:lineID="170"><text style="&st18;" transform="matrix(&st16;  1970.88  406.03 )">22</text><text style="&st18;" transform="matrix(&st16;  1971.39  417.35 )">CANH</text></g><g ewd:lineID="81"><text style="&st18;" transform="matrix(&st16;  1919.89  406.03 )">35</text><text style="&st18;" transform="matrix(&st16;  1923.69  417.35 )">STP</text></g></g><g ewd:figtype="conn" ewd:figID="57" ewd:code="I95,I104"><path style="stroke-width:1.42 ;&st7;  " d=" M  1861.19,   205.75  L  1878.19,   205.75  L  1878.19,   222.75  L  1861.19,   222.75  L  1861.19,   205.75  " /><path style="stroke-width:0.85 ;&st7;  " d=" M  1869.69,   205.75  L  1869.69,   222.75  " /><text style="&st18;" transform="matrix(&st16;  1860.99  238.32 )">4</text><text style="&st18;" transform="matrix(&st16;  1860.99  229.25 )">1</text><text style="&st18;" transform="matrix(&st16;  1867.38  229.25 )">A</text><path style="stroke-width:1.42 ;&st7;   " d=" M  1874.22,   227.28  C  1874.22    224.78   1872.19    222.75   1869.69    222.75  " /><path style="stroke-width:1.42 ;&st7;   " d=" M  1869.69,   222.75  C  1867.18    222.75   1865.16    224.78   1865.16    227.28  " /><path style="stroke-width:1.42 ;&st7;   " d=" M  1865.16,   227.28  C  1865.16    229.78   1867.18    231.81   1869.69    231.81  " /><path style="stroke-width:1.42 ;&st7;   " d=" M  1869.69,   231.81  C  1872.19    231.81   1874.22    229.78   1874.22    227.28  " /><text style="&st18;" transform="matrix(&st16;  1867.5  238.32 )">B</text><path style="stroke-width:1.42 ;&st7;   " d=" M  1874.22,   236.35  C  1874.22    233.84   1872.19    231.81   1869.69    231.81  " /><path style="stroke-width:1.42 ;&st7;   " d=" M  1869.69,   231.81  C  1867.18    231.81   1865.16    233.84   1865.16    236.35  " /><path style="stroke-width:1.42 ;&st7;   " d=" M  1865.16,   236.35  C  1865.16    238.85   1867.18    240.88   1869.69    240.88  " /><path style="stroke-width:1.42 ;&st7;   " d=" M  1869.69,   240.88  C  1872.19    240.88   1874.22    238.85   1874.22    236.35  " /><text style="&st18;" transform="matrix(&st16;  1857.89  203.19 )">13</text><text style="&st18;" transform="matrix(&st16;  1860.99  194.12 )">7</text><text style="&st18;" transform="matrix(&st16;  1867.38  194.12 )">A</text><path style="stroke-width:1.42 ;&st7;   " d=" M  1874.22,   192.15  C  1874.22    189.65   1872.19    187.62   1869.69    187.62  " /><path style="stroke-width:1.42 ;&st7;   " d=" M  1869.69,   187.62  C  1867.18    187.62   1865.16    189.65   1865.16    192.15  " /><path style="stroke-width:1.42 ;&st7;   " d=" M  1865.16,   192.15  C  1865.16    194.66   1867.18    196.69   1869.69    196.69  " /><path style="stroke-width:1.42 ;&st7;   " d=" M  1869.69,   196.69  C  1872.19    196.69   1874.22    194.66   1874.22    192.15  " /><path style="stroke-width:1.42 ;&st7;   " d=" M  1874.22,   201.22  C  1874.22    198.72   1872.19    196.69   1869.69    196.69  " /><path style="stroke-width:1.42 ;&st7;   " d=" M  1869.69,   196.69  C  1867.18    196.69   1865.16    198.72   1865.16    201.22  " /><path style="stroke-width:1.42 ;&st7;   " d=" M  1865.16,   201.22  C  1865.16    203.72   1867.18    205.75   1869.69    205.75  " /><path style="stroke-width:1.42 ;&st7;   " d=" M  1869.69,   205.75  C  1872.19    205.75   1874.22    203.72   1874.22    201.22  " /><text style="&st18;" transform="matrix(&st16;  1867.5  203.19 )">B</text><g ewd:figtype="title"><text style="&st18;" transform="matrix(&st17;  1848.71  225.65 )" ewd:textID="29">No. 6 Junction <tspan x="0 " dy="6.0">Connector</tspan></text><text style="&st18;" transform="matrix(&st17;  1841.89  225.65 )">I104(B)</text><text style="&st18;" transform="matrix(&st17;  1828.6  225.65 )" ewd:textID="39">No. 18 Junction <tspan x="0 " dy="6.0">Connector</tspan></text><text style="&st18;" transform="matrix(&st17;  1821.77  225.65 )">I95(A)</text></g><g ewd:code="" ewd:figID="277" ewd:comment="" ewd:figtype="commref"><text style="&st18;" transform="matrix(&st16;  1874.78  194.12 )">(LHD)</text></g><g ewd:code="" ewd:figID="278" ewd:comment="" ewd:figtype="commref"><text style="&st18;" transform="matrix(&st16;  1874.78  238.32 )">(RHD)</text></g><g ewd:code="" ewd:figID="279" ewd:comment="" ewd:figtype="commref"><text style="&st18;" transform="matrix(&st16;  1874.78  229.25 )">(LHD)</text></g><g ewd:code="" ewd:figID="280" ewd:comment="" ewd:figtype="commref"><text style="&st18;" transform="matrix(&st16;  1874.78  203.19 )">(RHD)</text></g></g><g ewd:figtype="conn" ewd:figID="58" ewd:code="I96"><path style="stroke-width:0.85 ;&st7;  " d=" M  1708.21,   256.74  L  1708.21,   273.74  " /><path style="stroke-width:1.42 ;&st7;  " d=" M  1699.72,   256.74  L  1699.72,   273.74  L  1716.71,   273.74  L  1716.71,   256.74  L  1699.72,   256.74  " /><text style="&st18;" transform="matrix(&st16;  1696.42  254.18 )">12</text><text style="&st18;" transform="matrix(&st16;  1705.91  254.18 )">A</text><path style="stroke-width:1.42 ;&st7;   " d=" M  1712.75,   252.21  C  1712.75    249.71   1710.72    247.68   1708.21    247.68  " /><path style="stroke-width:1.42 ;&st7;   " d=" M  1708.21,   247.68  C  1705.71    247.68   1703.68    249.71   1703.68    252.21  " /><path style="stroke-width:1.42 ;&st7;   " d=" M  1703.68,   252.21  C  1703.68    254.71   1705.71    256.74   1708.21    256.74  " /><path style="stroke-width:1.42 ;&st7;   " d=" M  1708.21,   256.74  C  1710.72    256.74   1712.75    254.71   1712.75    252.21  " /><text style="&st18;" transform="matrix(&st16;  1699.52  280.24 )">4</text><text style="&st18;" transform="matrix(&st16;  1705.91  280.24 )">A</text><path style="stroke-width:1.42 ;&st7;   " d=" M  1712.75,   278.27  C  1712.75    275.77   1710.72    273.74   1708.21    273.74  " /><path style="stroke-width:1.42 ;&st7;   " d=" M  1708.21,   273.74  C  1705.71    273.74   1703.68    275.77   1703.68    278.27  " /><path style="stroke-width:1.42 ;&st7;   " d=" M  1703.68,   278.27  C  1703.68    280.78   1705.71    282.80   1708.21    282.80  " /><path style="stroke-width:1.42 ;&st7;   " d=" M  1708.21,   282.80  C  1710.72    282.80   1712.75    280.78   1712.75    278.27  " /><g ewd:figtype="title"><text style="&st18;" transform="matrix(&st17;  1724.61  276.64 )">I96(A)</text><text style="&st18;" transform="matrix(&st17;  1731.43  276.65 )" ewd:textID="37">No. 13 <tspan x="0 " dy="6.0">Junction Connector</tspan></text></g></g><g ewd:figtype="w2w" ewd:figID="106" ewd:code="IA2"><path style="stroke-width:1.42 ;&st7;  " d=" M  1933.43,   321.90  L  1929.18,   317.65  L  1924.93,   321.90  " /><path style="stroke-width:1.42 ;&st7;  " d=" M  1933.43,   325.30  L  1929.18,   321.05  L  1924.93,   325.30  " /><text style="&st18;" transform="matrix(&st16;  1916.55  313.95 )">8</text></g></svg>