<?xml version="1.0" encoding="utf-8"?>
<!DOCTYPE svg PUBLIC "-//W3C//DTD SVG 1.0//EN" "http://www.w3.org/TR/2001/REC-SVG-20010904/DTD/svg10.dtd"[
	<!ENTITY ns_flows "http://ns.adobe.com/Flows/1.0/">
	<!ENTITY ns_svg "http://www.w3.org/2000/svg">
	<!ENTITY ns_xlink "http://www.w3.org/1999/xlink">
	<!ENTITY st0 "font-size:7px;font-family:'MS-PGothic';adobe-font-script:japanese;">
	<!ENTITY st1 "font-size:6px;font-family:'ArialMT';">
	<!-- White fill  -->
	<!ENTITY st2 "fill:#FFFFFF;stroke:#000000; stroke-width:1.41;stroke-linecap:round;stroke-linejoin:round;">
	<!-- Yellow fill  -->
	<!ENTITY st3 "fill:#FFFFCC;stroke:#FFFFCC; stroke-width:0.1;stroke-linecap:round;stroke-linejoin:round;">
	<!-- Gray fill  -->
	<!ENTITY st4 "fill:#CCCCCC;stroke:#CCCCCC; stroke-width:0.1;stroke-linecap:round;stroke-linejoin:round;">
	<!-- Light-blue fill -->
	<!ENTITY st5 "fill:#CCECF4;stroke:#000000; stroke-width:1.133;stroke-linecap:round;stroke-linejoin:round;">
	<!ENTITY st6 "fill:none;stroke-linecap:butt; stroke-linejoin:round;">
	<!ENTITY st7 "fill:none;stroke:#000000;stroke-linecap:round;stroke-linejoin:round;">
	<!ENTITY st8 "enable-background:new    ;">
	<!-- Black fill -->
	<!ENTITY st9 "fill:#000000;stroke:#000000; stroke-linecap:round;stroke-linejoin:round;">
	<!-- SRS note   -->
	<!ENTITY st10 "font-size:9px;font-family:'ArialMT';">
	<!ENTITY st11 "font-size:9px;font-family:'Svg Symbol';">
	<!ENTITY st12 "font-size:6px;font-family:'Svg Symbol';">
	<!ENTITY st13 "fill:none;stroke:#ff0000;stroke-linecap:round;stroke-linejoin:round;">
	<!-- Yellow fill  -->
	<!ENTITY st14 "fill:#FFFF00;stroke:#FFFF00; stroke-width:0.1;stroke-linecap:round;stroke-linejoin:round;">
	<!ENTITY st15 "font-size:6px;font-family:'MS-PGothic';adobe-font-script:japanese;">
	<!ENTITY st16 "1.00 0.00 0.00 1.00">
	<!ENTITY st17 "0.00 -1.00 1.00 0.00">
	<!ENTITY st18 "font-size:6px;font-family:'Arial';">
	<!ENTITY st19 "font-size:9px;font-family:'Arial';">
	<!ENTITY st20 "font-size:6px;font-family:'MS-PGothic','MS PGothic';adobe-font-script:japanese;">
	<!ENTITY st21 "font-size:7px;font-family:'MS-PGothic','MS PGothic';adobe-font-script:japanese;">
	<!ATTLIST svg
		xmlns:ewd CDATA #FIXED "http://shcl.co.jp/ewd"
		xmlns:a CDATA #FIXED "http://ns.adobe.com/AdobeSVGViewerExtensions/3.0/"
		ewd:ver CDATA #IMPLIED
	>
	<!ATTLIST a
		ewd:lineID CDATA #IMPLIED
		ewd:groupID CDATA #IMPLIED
		ewd:figtype CDATA #IMPLIED
		ewd:code CDATA #IMPLIED
		ewd:figID CDATA #IMPLIED
		ewd:pinNo CDATA #IMPLIED
		ewd:comment CDATA #IMPLIED >
	<!ATTLIST g
		ewd:lineID CDATA #IMPLIED
		ewd:groupID CDATA #IMPLIED
		ewd:figtype CDATA #IMPLIED
		ewd:code CDATA #IMPLIED
		ewd:figID CDATA #IMPLIED
		ewd:pinNo CDATA #IMPLIED
		ewd:comment CDATA #IMPLIED >
	<!ATTLIST text
		ewd:textID CDATA #IMPLIED >
	<!ATTLIST title
		ewd:textID CDATA #IMPLIED >
]>
<!-- Generator: Shintec Hozumi YS   -->
<svg onload="call_execInitLoadProc_svg('system')" style="overflow:visible;  enable-background:new 0 0 4625.098 710.000" viewBox="0 0 4625.098 710.000" height="710.000" width="4625.098" xml:space="preserve" ewd:ver="2.1.2.9" xmlns="&ns_svg;" xmlns:a="http://ns.adobe.com/AdobeSVGViewerExtensions/3.0/" xmlns:ewd="http://shcl.co.jp/ewd" xmlns:xlink="&ns_xlink;">
<path style="stroke-width:1.42 ;&st7;  " d=" M  3883.85,    86.77  L  3892.35,    86.77  " /><path style="stroke-width:1.42 ;&st7;  " d=" M  3824.36,   358.73  L  3832.86,   358.73  " /><path style="stroke-width:1.42 ;&st7;  " d=" M  3739.38,   367.22  L  3747.87,   367.22  " /><path style="stroke-width:1.42 ;&st7;  " d=" M  3943.34,    95.27  L  3934.84,    95.27  " /><path style="stroke-width:1.42 ;&st7;  " d=" M  3841.36,   545.69  L  3832.86,   545.69  " /><path style="stroke-width:1.42 ;&st7;  " d=" M  3773.37,   537.20  L  3781.87,   537.20  " /><path style="stroke-width:1.42 ;&st7;  " d=" M  3934.84,   460.71  L  3943.34,   460.71  " /><path style="stroke-width:1.42 ;&st7;  " d=" M  3824.36,   460.71  L  3832.86,   460.71  " /><path style="stroke-width:1.42 ;&st7;  " d=" M  3909.35,   554.19  L  3900.85,   554.19  " /><text style="&st18;" transform="matrix(&st17;  3942.48  124.33 )">(LHD)</text><text style="&st18;" transform="matrix(&st17;  3942.48  69.09 )">(LHD)</text><text style="&st18;" transform="matrix(&st17;  3899.99  124.37 )">(RHD)</text><text style="&st18;" transform="matrix(&st17;  3888.65  121.69 )">B-Y</text><text style="&st18;" transform="matrix(&st17;  3899.99  69.13 )">(RHD)</text><text style="&st18;" transform="matrix(&st17;  3888.65  66.45 )">B-Y</text><text style="&st18;" transform="matrix(&st17;  3840.5  443.96 )">(*2,*3)</text><text style="&st18;" transform="matrix(&st17;  3829.16  438.76 )">BR</text><text style="&st18;" transform="matrix(&st17;  3840.5  575.9 )">(*2)</text><text style="&st18;" transform="matrix(&st17;  3829.16  392.02 )">BR</text><text style="&st18;" transform="matrix(&st17;  3840.5  520.66 )">(*2)</text><text style="&st18;" transform="matrix(&st17;  3829.16  519.5 )">BR</text><text style="&st18;" transform="matrix(&st17;  3840.5  673.64 )">(*2)</text><text style="&st18;" transform="matrix(&st17;  3829.16  672.47 )">BR</text><text style="&st18;" transform="matrix(&st17;  3908.48  673.64 )">(*1)</text><text style="&st18;" transform="matrix(&st17;  3897.15  672.47 )">BR</text><text style="&st18;" transform="matrix(&st17;  3908.49  506.55 )">(LHD *1)</text><text style="&st18;" transform="matrix(&st17;  3897.15  498.25 )">BR</text><text style="&st18;" transform="matrix(&st17;  3950.98  506.59 )">(RHD *1)</text><text style="&st18;" transform="matrix(&st17;  3939.65  498.25 )">BR</text><text style="&st18;" transform="matrix(&st17;  3950.98  438.6 )">(RHD *1)</text><text style="&st18;" transform="matrix(&st17;  3939.65  430.26 )">BR</text><text style="&st18;" transform="matrix(&st17;  3829.16  341.03 )">BR</text><text style="&st18;" transform="matrix(&st17;  3829.16  574.74 )">BR</text><text style="&st18;" transform="matrix(&st17;  3789.5  575.9 )">(*3)</text><text style="&st18;" transform="matrix(&st17;  3744.18  343.53 )">V</text><text style="&st18;" transform="matrix(&st17;  3990.64  432.59 )">R-W</text><text style="&st18;" transform="matrix(&st17;  3990.64  356.1 )">R-W</text><text style="&st18;" transform="matrix(&st17;  3744.18  403.02 )">V</text><text style="&st18;" transform="matrix(&st17;  3778.17  519.5 )">BR</text><text style="&st18;" transform="matrix(&st17;  3789.5  520.66 )">(*3)</text><text style="&st18;" transform="matrix(&st17;  3931.15  66.45 )">B-Y</text><text style="&st18;" transform="matrix(&st17;  3931.15  121.69 )">B-Y</text><text style="&st18;" transform="matrix(&st17;  3897.15  578.99 )">BR</text><text style="&st18;" transform="matrix(&st17;  3908.48  580.15 )">(*1)</text><text style="&st18;" transform="matrix(&st17;  3778.17  574.74 )">BR</text><path style="stroke-width:1.42 ;&st7;  " d=" M  4002.83,   384.22  L  3994.33,   384.22  " /><text style="&st18;" transform="matrix(&st17;  3514.72  505.16 )">G</text><text style="&st18;" transform="matrix(&st17;  3514.72  420.18 )">G</text><text style="&st18;" transform="matrix(&st17;  3526.05  424.48 )">(*12)</text><text style="&st18;" transform="matrix(&st17;  3548.71  420.18 )">G</text><text style="&st18;" transform="matrix(&st17;  3526.05  509.47 )">(*12)</text><text style="&st18;" transform="matrix(&st17;  3514.72  275.7 )">G</text><text style="&st18;" transform="matrix(&st17;  3560.04  424.48 )">(*13)</text><path style="stroke-width:1.42 ;&st7;  " d=" M  3909.35,   593.16  L  3904.38,   588.19  " /><path style="stroke-width:1.42 ;&st7;  " d=" M  3892.35,   600.22  L  3897.32,   605.18  " /><path style="stroke-width:1.42 ;&st7;  " d=" M  3904.38,   605.18  L  3909.35,   600.22  " /><path style="stroke-width:1.42 ;&st7;  " d=" M  3897.32,   588.19  L  3892.35,   593.16  " /><path style="stroke-width:1.42 ;&st7;  " d=" M  3829.33,   588.19  L  3824.36,   593.16  " /><path style="stroke-width:1.42 ;&st7;  " d=" M  3836.39,   605.18  L  3841.36,   600.22  " /><path style="stroke-width:1.42 ;&st7;  " d=" M  3824.36,   600.22  L  3829.33,   605.18  " /><path style="stroke-width:1.42 ;&st7;  " d=" M  3841.36,   593.16  L  3836.39,   588.19  " /><path style="stroke-width:1.42 ;&st7;  " d=" M  3841.36,   406.19  L  3836.39,   401.22  " /><path style="stroke-width:1.42 ;&st7;  " d=" M  3824.36,   413.25  L  3829.33,   418.22  " /><path style="stroke-width:1.42 ;&st7;  " d=" M  3836.39,   418.22  L  3841.36,   413.25  " /><path style="stroke-width:1.42 ;&st7;  " d=" M  3829.33,   401.22  L  3824.36,   406.19  " /><text style="&st18;" transform="matrix(&st16;  3601.09  643.98 )">V</text><text style="&st18;" transform="matrix(&st16;  3652.08  643.98 )">V</text><g ewd:figtype="conn" ewd:figID="1" ewd:code="L25,L26"><path style="stroke-width:1.42 ;&st7;  " d=" M  3883.85,   273.74  L  3883.85,   290.74  " /><path style="stroke-width:0.85 ;&st7;  " d=" M  4036.83,   184.50  L  4036.83,   193.00  " /><path style="stroke-width:0.85 ;&st7;  " d=" M  4500.00,   180.26  L  4491.50,   180.26  " /><path style="stroke-width:0.85 ;&st7;  " d=" M  3998.58,   282.24  L  3990.08,   282.24  " /><path style="stroke-width:1.42 ;&st7;  " d=" M  3905.10,   229.12  L  3896.60,   229.12  " /><path style="stroke-width:1.42 ;&st7;  " d=" M  3905.10,   224.87  L  3896.60,   224.87  " /><path style="stroke-width:0.85 ;&st7;  " d=" M  3900.85,   224.87  L  3900.85,   214.25  " /><path style="stroke-width:0.85 ;&st7;  " d=" M  3900.85,   239.75  L  3900.85,   229.12  " /><path style="stroke-width:1.42 ;&st7;  " d=" M  3837.11,   229.12  L  3828.61,   229.12  " /><path style="stroke-width:1.42 ;&st7;  " d=" M  3837.11,   224.87  L  3828.61,   224.87  " /><path style="stroke-width:0.85 ;&st7;  " d=" M  3832.86,   224.87  L  3832.86,   214.25  " /><path style="stroke-width:0.85 ;&st7;  " d=" M  3832.86,   239.75  L  3832.86,   229.12  " /><path style="stroke-width:0.85 ;&st7;  " d=" M  3807.36,   299.24  L  3798.87,   293.57  " /><path style="stroke-width:0.85 ;&st7;  " d=" M  3798.87,   290.74  L  3793.20,   290.74  " /><path style="stroke-width:1.42 ;&st7;  " d=" M  3798.87,   282.24  L  3798.87,   299.24  " /><path style="stroke-width:0.85 ;&st7;  " d=" M  3888.09,   221.58  L  3880.72,   225.83  " /><path style="stroke-width:0.85 ;&st7;  " d=" M  3939.09,   180.26  L  3930.59,   180.26  " /><path style="stroke-width:0.85 ;&st7;  " d=" M  3879.60,   231.25  L  3871.10,   231.25  " /><path style="stroke-width:0.85 ;&st7;  " d=" M  3882.73,   229.30  L  3890.09,   225.05  " /><path style="stroke-width:0.85 ;&st7;  " d=" M  3820.10,   221.58  L  3812.73,   225.83  " /><path style="stroke-width:0.85 ;&st7;  " d=" M  3811.61,   231.25  L  3803.11,   231.25  " /><path style="stroke-width:0.85 ;&st7;  " d=" M  3814.74,   229.30  L  3822.10,   225.05  " /><path style="stroke-width:0.85 ;&st7;  " d=" M  3875.35,   290.74  L  3883.85,   285.07  " /><path style="stroke-width:0.85 ;&st7;  " d=" M  3866.85,   299.24  L  3862.60,   307.73  " /><path style="stroke-width:0.85 ;&st7;  " d=" M  3883.85,   299.24  L  3879.60,   307.73  " /><path style="stroke-width:0.85 ;&st7;  " d=" M  3875.35,   299.24  L  3871.10,   307.73  " /><path style="stroke-width:0.85 ;&st7;  " d=" M  3866.85,   299.24  L  3883.85,   299.24  " /><path style="stroke-width:0.85 ;&st7;  " d=" M  3875.35,   290.74  L  3875.35,   299.24  " /><path style="stroke-width:0.85 ;&st7;  " d=" M  3875.35,   290.74  L  3877.48,   287.55  L  3879.11,   289.99  L  3875.35,   290.74  L  3876.58,   289.92  L  3877.48,   288.57  L  3878.17,   289.60  L  3876.58,   289.92  L  3877.20,   289.50  L  3877.48,   289.08  L  3877.70,   289.41  L  3877.20,   289.50  " /><path style="stroke-width:0.85 ;&st7;  " d=" M  3875.35,   273.74  L  3883.85,   279.41  " /><path style="stroke-width:0.85 ;&st7;  " d=" M  3883.85,   282.24  L  3900.85,   282.24  L  3900.85,   299.24  L  4053.82,   299.24  L  4053.82,   222.75  " /><path style="stroke-width:0.85 ;&st7;  " d=" M  4460.56,   238.74  L  4460.29,   239.21  L  4460.19,   239.75  L  4460.29,   240.28  L  4460.56,   240.75  L  4460.97,   241.09  L  4461.48,   241.28  L  4462.02,   241.28  L  4462.53,   241.09  L  4462.95,   240.75  L  4463.22,   240.28  L  4463.31,   239.75  L  4463.22,   239.21  L  4462.95,   238.74  L  4462.53,   238.40  L  4462.02,   238.21  L  4461.48,   238.21  L  4460.97,   238.40  L  4460.56,   238.74  L  4460.95,   239.45  L  4460.95,   240.04  L  4461.33,   240.48  L  4461.90,   240.58  L  4462.40,   240.29  L  4462.60,   239.75  L  4462.40,   239.20  L  4461.90,   238.91  L  4461.33,   239.01  L  4461.75,   239.75  " /><path style="stroke-width:0.85 ;&st7;  " d=" M  4457.50,   239.75  L  4466.00,   239.75  " /><path style="stroke-width:0.85 ;&st7;  " d=" M  4461.75,   239.75  L  4461.75,   248.24  L  4464.59,   249.66  L  4458.92,   252.49  L  4464.59,   255.33  L  4458.92,   258.16  L  4464.59,   260.99  L  4458.92,   263.82  L  4461.75,   265.24  L  4461.75,   316.23  " /><path style="stroke-width:0.85 ;&st7;  " d=" M  4478.75,   222.75  L  4478.75,   248.24  L  4481.58,   249.66  L  4475.92,   252.49  L  4481.58,   255.33  L  4475.92,   258.16  L  4481.58,   260.99  L  4475.92,   263.82  L  4478.75,   265.24  L  4478.75,   273.74  L  4461.75,   273.74  " /><path style="stroke-width:0.28 ;&st9;  " d=" M  4036.82,   188.75  L  4028.33,   194.42  L  4028.33,   183.09  L  4036.82,   188.75  " /><path style="stroke-width:0.28 ;&st9;  " d=" M  4495.75,   180.26  L  4490.08,   171.76  L  4501.41,   171.76  L  4495.75,   180.26  " /><path style="stroke-width:0.85 ;&st7;  " d=" M  3993.14,   247.24  L  3992.87,   247.71  L  3992.77,   248.24  L  3992.87,   248.78  L  3993.14,   249.25  L  3993.55,   249.59  L  3994.06,   249.78  L  3994.60,   249.78  L  3995.11,   249.59  L  3995.52,   249.25  L  3995.80,   248.78  L  3995.89,   248.24  L  3995.80,   247.71  L  3995.52,   247.24  L  3995.11,   246.90  L  3994.60,   246.71  L  3994.06,   246.71  L  3993.55,   246.90  L  3993.14,   247.24  L  3993.53,   247.95  L  3993.53,   248.54  L  3993.91,   248.98  L  3994.48,   249.08  L  3994.98,   248.79  L  3995.18,   248.24  L  3994.98,   247.70  L  3994.48,   247.41  L  3993.91,   247.51  L  3994.33,   248.24  " /><path style="stroke-width:0.85 ;&st7;  " d=" M  4027.13,   247.24  L  4026.86,   247.71  L  4026.77,   248.24  L  4026.86,   248.78  L  4027.13,   249.25  L  4027.55,   249.59  L  4028.06,   249.78  L  4028.59,   249.78  L  4029.10,   249.59  L  4029.52,   249.25  L  4029.79,   248.78  L  4029.88,   248.24  L  4029.79,   247.71  L  4029.52,   247.24  L  4029.10,   246.90  L  4028.59,   246.71  L  4028.06,   246.71  L  4027.55,   246.90  L  4027.13,   247.24  L  4027.53,   247.95  L  4027.53,   248.54  L  4027.90,   248.98  L  4028.47,   249.08  L  4028.98,   248.79  L  4029.18,   248.24  L  4028.98,   247.70  L  4028.47,   247.41  L  4027.90,   247.51  L  4028.33,   248.24  " /><path style="stroke-width:0.85 ;&st7;  " d=" M  3994.33,   214.25  L  3994.33,   205.75  " /><path style="stroke-width:0.85 ;&st7;  " d=" M  3993.14,   204.75  L  3992.87,   205.22  L  3992.77,   205.75  L  3992.87,   206.28  L  3993.14,   206.75  L  3993.55,   207.10  L  3994.06,   207.29  L  3994.60,   207.29  L  3995.11,   207.10  L  3995.52,   206.75  L  3995.80,   206.28  L  3995.89,   205.75  L  3995.80,   205.22  L  3995.52,   204.75  L  3995.11,   204.40  L  3994.60,   204.22  L  3994.06,   204.22  L  3993.55,   204.40  L  3993.14,   204.75  L  3993.53,   205.46  L  3993.53,   206.04  L  3993.91,   206.49  L  3994.48,   206.59  L  3994.98,   206.30  L  3995.18,   205.75  L  3994.98,   205.20  L  3994.48,   204.92  L  3993.91,   205.01  L  3994.33,   205.75  " /><path style="stroke-width:0.85 ;&st7;  " d=" M  3990.08,   205.75  L  3998.58,   205.75  " /><path style="stroke-width:0.85 ;&st7;  " d=" M  3994.33,   248.24  L  3994.33,   239.75  L  3991.50,   238.33  L  3997.16,   235.50  L  3991.50,   232.66  L  3997.16,   229.83  L  3991.50,   227.00  L  3997.16,   224.16  L  3994.33,   222.75  L  3994.33,   214.25  " /><path style="stroke-width:0.85 ;&st7;  " d=" M  3994.33,   316.23  L  3994.33,   248.24  " /><path style="stroke-width:0.85 ;&st7;  " d=" M  4019.83,   282.24  L  4015.58,   290.74  " /><path style="stroke-width:0.85 ;&st7;  " d=" M  4036.82,   282.24  L  4032.57,   290.74  " /><path style="stroke-width:0.85 ;&st7;  " d=" M  4028.33,   282.24  L  4024.08,   290.74  " /><path style="stroke-width:0.85 ;&st7;  " d=" M  4019.83,   282.24  L  4036.82,   282.24  " /><path style="stroke-width:0.85 ;&st7;  " d=" M  4028.33,   273.74  L  4028.33,   282.24  " /><path style="stroke-width:0.85 ;&st7;  " d=" M  4028.33,   273.74  L  4025.49,   272.32  L  4031.16,   269.49  L  4025.49,   266.66  L  4031.16,   263.82  L  4025.49,   260.99  L  4031.16,   258.16  L  4028.33,   256.74  L  4028.33,   222.75  " /><path style="stroke-width:0.28 ;&st9;  " d=" M  3994.33,   282.24  L  3988.67,   273.74  L  4000.00,   273.74  L  3994.33,   282.24  " /><path style="stroke-width:0.85 ;&st7;  " d=" M  3874.16,   213.25  L  3873.89,   213.72  L  3873.79,   214.25  L  3873.89,   214.78  L  3874.16,   215.25  L  3874.57,   215.60  L  3875.08,   215.79  L  3875.62,   215.79  L  3876.13,   215.60  L  3876.54,   215.25  L  3876.82,   214.78  L  3876.91,   214.25  L  3876.82,   213.72  L  3876.54,   213.25  L  3876.13,   212.90  L  3875.62,   212.71  L  3875.08,   212.71  L  3874.57,   212.90  L  3874.16,   213.25  L  3874.55,   213.96  L  3874.55,   214.54  L  3874.93,   214.99  L  3875.50,   215.09  L  3876.00,   214.80  L  3876.20,   214.25  L  3876.00,   213.70  L  3875.50,   213.41  L  3874.93,   213.51  L  3875.35,   214.25  " /><path style="stroke-width:0.85 ;&st7;  " d=" M  3874.16,   238.74  L  3873.89,   239.21  L  3873.79,   239.75  L  3873.89,   240.28  L  3874.16,   240.75  L  3874.57,   241.09  L  3875.08,   241.28  L  3875.62,   241.28  L  3876.13,   241.09  L  3876.54,   240.75  L  3876.82,   240.28  L  3876.91,   239.75  L  3876.82,   239.21  L  3876.54,   238.74  L  3876.13,   238.40  L  3875.62,   238.21  L  3875.08,   238.21  L  3874.57,   238.40  L  3874.16,   238.74  L  3874.55,   239.45  L  3874.55,   240.04  L  3874.93,   240.48  L  3875.50,   240.58  L  3876.00,   240.29  L  3876.20,   239.75  L  3876.00,   239.20  L  3875.50,   238.91  L  3874.93,   239.01  L  3875.35,   239.75  " /><path style="stroke-width:0.85 ;&st7;  " d=" M  3875.35,   239.75  L  3900.85,   239.75  " /><path style="stroke-width:0.85 ;&st7;  " d=" M  3875.35,   214.25  L  3900.85,   214.25  " /><path style="stroke-width:0.85 ;&st7;  " d=" M  3806.17,   238.74  L  3805.90,   239.21  L  3805.80,   239.75  L  3805.90,   240.28  L  3806.17,   240.75  L  3806.58,   241.09  L  3807.09,   241.28  L  3807.63,   241.28  L  3808.14,   241.09  L  3808.55,   240.75  L  3808.83,   240.28  L  3808.92,   239.75  L  3808.83,   239.21  L  3808.55,   238.74  L  3808.14,   238.40  L  3807.63,   238.21  L  3807.09,   238.21  L  3806.58,   238.40  L  3806.17,   238.74  L  3806.56,   239.45  L  3806.56,   240.04  L  3806.94,   240.48  L  3807.51,   240.58  L  3808.01,   240.29  L  3808.21,   239.75  L  3808.01,   239.20  L  3807.51,   238.91  L  3806.94,   239.01  L  3807.36,   239.75  " /><path style="stroke-width:0.85 ;&st7;  " d=" M  3806.17,   213.25  L  3805.90,   213.72  L  3805.80,   214.25  L  3805.90,   214.78  L  3806.17,   215.25  L  3806.58,   215.60  L  3807.09,   215.79  L  3807.63,   215.79  L  3808.14,   215.60  L  3808.55,   215.25  L  3808.83,   214.78  L  3808.92,   214.25  L  3808.83,   213.72  L  3808.55,   213.25  L  3808.14,   212.90  L  3807.63,   212.71  L  3807.09,   212.71  L  3806.58,   212.90  L  3806.17,   213.25  L  3806.56,   213.96  L  3806.56,   214.54  L  3806.94,   214.99  L  3807.51,   215.09  L  3808.01,   214.80  L  3808.21,   214.25  L  3808.01,   213.70  L  3807.51,   213.41  L  3806.94,   213.51  L  3807.36,   214.25  " /><path style="stroke-width:0.85 ;&st7;  " d=" M  3807.36,   239.75  L  3832.86,   239.75  " /><path style="stroke-width:0.85 ;&st7;  " d=" M  3807.36,   214.25  L  3832.86,   214.25  " /><path style="stroke-width:0.85 ;&st7;  " d=" M  3841.36,   282.24  L  3837.11,   290.74  " /><path style="stroke-width:0.85 ;&st7;  " d=" M  3858.35,   282.24  L  3854.10,   290.74  " /><path style="stroke-width:0.85 ;&st7;  " d=" M  3849.86,   282.24  L  3845.61,   290.74  " /><path style="stroke-width:0.85 ;&st7;  " d=" M  3841.36,   282.24  L  3858.35,   282.24  " /><path style="stroke-width:0.85 ;&st7;  " d=" M  3849.86,   273.74  L  3849.86,   282.24  " /><path style="stroke-width:0.85 ;&st7;  " d=" M  3807.36,   299.24  L  3824.36,   299.24  L  3824.36,   265.24  L  3849.86,   265.24  L  3849.86,   273.74  " /><path style="stroke-width:0.85 ;&st7;  " d=" M  3773.37,   239.75  L  3747.87,   239.75  L  3747.87,   316.23  " /><path style="stroke-width:0.85 ;&st7;  " d=" M  3769.12,   188.75  L  3777.62,   188.75  " /><path style="stroke-width:0.85 ;&st7;  " d=" M  3772.18,   187.75  L  3771.90,   188.22  L  3771.81,   188.75  L  3771.90,   189.29  L  3772.18,   189.76  L  3772.59,   190.10  L  3773.10,   190.29  L  3773.64,   190.29  L  3774.15,   190.10  L  3774.56,   189.76  L  3774.83,   189.29  L  3774.93,   188.75  L  3774.83,   188.22  L  3774.56,   187.75  L  3774.15,   187.41  L  3773.64,   187.22  L  3773.10,   187.22  L  3772.59,   187.41  L  3772.18,   187.75  L  3772.57,   188.46  L  3772.57,   189.05  L  3772.94,   189.49  L  3773.52,   189.59  L  3774.02,   189.30  L  3774.22,   188.75  L  3774.02,   188.21  L  3773.52,   187.92  L  3772.94,   188.02  L  3773.37,   188.75  " /><path style="stroke-width:0.85 ;&st7;  " d=" M  3773.37,   239.75  L  3773.37,   231.25  " /><path style="stroke-width:0.85 ;&st7;  " d=" M  3773.37,   231.25  L  3773.37,   222.75  L  3770.54,   221.33  L  3776.20,   218.50  L  3770.54,   215.67  L  3776.20,   212.83  L  3770.54,   210.00  L  3776.20,   207.17  L  3773.37,   205.75  L  3773.37,   197.25  " /><path style="stroke-width:0.85 ;&st7;  " d=" M  3773.37,   197.25  L  3773.37,   188.75  " /><path style="stroke-width:0.85 ;&st7;  " d=" M  3772.18,   238.74  L  3771.90,   239.21  L  3771.81,   239.75  L  3771.90,   240.28  L  3772.18,   240.75  L  3772.59,   241.09  L  3773.10,   241.28  L  3773.64,   241.28  L  3774.15,   241.09  L  3774.56,   240.75  L  3774.83,   240.28  L  3774.93,   239.75  L  3774.83,   239.21  L  3774.56,   238.74  L  3774.15,   238.40  L  3773.64,   238.21  L  3773.10,   238.21  L  3772.59,   238.40  L  3772.18,   238.74  L  3772.57,   239.45  L  3772.57,   240.04  L  3772.94,   240.48  L  3773.52,   240.58  L  3774.02,   240.29  L  3774.22,   239.75  L  3774.02,   239.20  L  3773.52,   238.91  L  3772.94,   239.01  L  3773.37,   239.75  " /><path style="stroke-width:0.85 ;&st7;  " d=" M  3773.37,   273.74  L  3773.37,   290.74  L  3793.20,   290.74  " /><path style="stroke-width:0.85 ;&st7;  " d=" M  3773.37,   273.74  L  3773.37,   265.24  L  3770.54,   263.82  L  3776.20,   260.99  L  3770.54,   258.16  L  3776.20,   255.33  L  3770.54,   252.49  L  3776.20,   249.66  L  3773.37,   248.24  L  3773.37,   239.75  " /><path style="stroke-width:0.85 ;&st7;  " d=" M  3807.36,   282.24  L  3807.36,   273.74  " /><path style="stroke-width:0.85 ;&st7;  " d=" M  3807.36,   299.24  L  3805.23,   296.05  L  3803.60,   298.49  L  3807.36,   299.24  L  3806.13,   298.41  L  3805.23,   297.07  L  3804.54,   298.10  L  3806.13,   298.41  L  3805.52,   298.00  L  3805.23,   297.58  L  3805.01,   297.90  L  3805.52,   298.00  " /><path style="stroke-width:0.85 ;&st7;  " d=" M  3807.36,   282.24  L  3798.86,   287.90  " /><path style="stroke-width:0.85 ;&st7;  " d=" M  3807.36,   273.74  L  3807.36,   265.24  L  3804.53,   263.82  L  3810.20,   260.99  L  3804.53,   258.16  L  3810.20,   255.33  L  3804.53,   252.49  L  3810.20,   249.66  L  3807.36,   248.24  L  3807.36,   239.75  " /><path style="stroke-width:0.28 ;&st9;  " d=" M  3875.35,   231.25  L  3869.69,   222.75  L  3881.02,   222.75  L  3875.35,   231.25  " /><path style="stroke-width:0.85 ;&st7;  " d=" M  4495.75,   154.76  L  4495.75,   188.75  L  4062.32,   188.75  L  4062.32,   205.75  " /><path style="stroke-width:0.85 ;&st7;  " d=" M  3875.35,   188.75  L  3875.35,   248.24  L  3878.18,   249.66  L  3872.52,   252.49  L  3878.18,   255.33  L  3872.52,   258.16  L  3878.18,   260.99  L  3872.52,   263.82  L  3875.35,   265.24  L  3875.35,   273.74  " /><path style="stroke-width:0.85 ;&st7;  " d=" M  3888.08,   221.58  L  3885.75,   224.62  L  3884.28,   222.08  L  3888.08,   221.58  L  3886.80,   222.32  L  3885.82,   223.61  L  3885.20,   222.53  L  3886.80,   222.32  L  3886.16,   222.69  L  3885.85,   223.10  L  3885.65,   222.76  L  3886.16,   222.69  " /><path style="stroke-width:0.85 ;&st7;  " d=" M  3934.84,   154.76  L  3934.84,   188.75  " /><path style="stroke-width:0.85 ;&st7;  " d=" M  4061.13,   187.75  L  4060.85,   188.22  L  4060.76,   188.75  L  4060.85,   189.29  L  4061.13,   189.76  L  4061.54,   190.10  L  4062.05,   190.29  L  4062.59,   190.29  L  4063.10,   190.10  L  4063.51,   189.76  L  4063.78,   189.29  L  4063.88,   188.75  L  4063.78,   188.22  L  4063.51,   187.75  L  4063.10,   187.41  L  4062.59,   187.22  L  4062.05,   187.22  L  4061.54,   187.41  L  4061.13,   187.75  L  4061.52,   188.46  L  4061.52,   189.05  L  4061.89,   189.49  L  4062.47,   189.59  L  4062.97,   189.30  L  4063.17,   188.75  L  4062.97,   188.21  L  4062.47,   187.92  L  4061.89,   188.02  L  4062.32,   188.75  " /><path style="stroke-width:0.85 ;&st7;  " d=" M  3933.65,   187.75  L  3933.38,   188.22  L  3933.28,   188.75  L  3933.38,   189.29  L  3933.65,   189.76  L  3934.06,   190.10  L  3934.57,   190.29  L  3935.11,   190.29  L  3935.62,   190.10  L  3936.03,   189.76  L  3936.31,   189.29  L  3936.40,   188.75  L  3936.31,   188.22  L  3936.03,   187.75  L  3935.62,   187.41  L  3935.11,   187.22  L  3934.57,   187.22  L  3934.06,   187.41  L  3933.65,   187.75  L  3934.04,   188.46  L  3934.04,   189.05  L  3934.42,   189.49  L  3934.99,   189.59  L  3935.49,   189.30  L  3935.69,   188.75  L  3935.49,   188.21  L  3934.99,   187.92  L  3934.42,   188.02  L  3934.84,   188.75  " /><path style="stroke-width:1.42 ;&st7;  " d=" M  4019.83,   205.75  L  4019.83,   222.75  L  4495.75,   222.75  L  4495.75,   205.75  L  4019.83,   205.75  " /><path style="stroke-width:0.85 ;&st7;  " d=" M  4062.32,   188.75  L  3875.35,   188.75  " /><path style="stroke-width:0.85 ;&st7;  " d=" M  3890.09,   225.05  L  3887.75,   228.09  L  3886.29,   225.55  L  3890.09,   225.05  L  3888.80,   225.79  L  3887.82,   227.07  L  3887.20,   226.00  L  3888.80,   225.79  L  3888.16,   226.16  L  3887.85,   226.57  L  3887.66,   226.23  L  3888.16,   226.16  " /><path style="stroke-width:0.28 ;&st9;  " d=" M  3807.36,   231.25  L  3801.70,   222.75  L  3813.03,   222.75  L  3807.36,   231.25  " /><path style="stroke-width:0.85 ;&st7;  " d=" M  3820.10,   221.58  L  3817.76,   224.62  L  3816.29,   222.08  L  3820.10,   221.58  L  3818.81,   222.32  L  3817.83,   223.61  L  3817.21,   222.53  L  3818.81,   222.32  L  3818.17,   222.69  L  3817.86,   223.10  L  3817.67,   222.76  L  3818.17,   222.69  " /><path style="stroke-width:0.85 ;&st7;  " d=" M  3875.35,   188.75  L  3807.36,   188.75  L  3807.36,   239.75  " /><path style="stroke-width:0.85 ;&st7;  " d=" M  3822.10,   225.05  L  3819.76,   228.09  L  3818.30,   225.55  L  3822.10,   225.05  L  3820.82,   225.79  L  3819.83,   227.07  L  3819.21,   226.00  L  3820.82,   225.79  L  3820.18,   226.16  L  3819.86,   226.57  L  3819.67,   226.23  L  3820.18,   226.16  " /><path style="stroke-width:0.85 ;&st7;  " d=" M  3874.16,   187.75  L  3873.89,   188.22  L  3873.79,   188.75  L  3873.89,   189.29  L  3874.16,   189.76  L  3874.57,   190.10  L  3875.08,   190.29  L  3875.62,   190.29  L  3876.13,   190.10  L  3876.54,   189.76  L  3876.82,   189.29  L  3876.91,   188.75  L  3876.82,   188.22  L  3876.54,   187.75  L  3876.13,   187.41  L  3875.62,   187.22  L  3875.08,   187.22  L  3874.57,   187.41  L  3874.16,   187.75  L  3874.55,   188.46  L  3874.55,   189.05  L  3874.93,   189.49  L  3875.50,   189.59  L  3876.00,   189.30  L  3876.20,   188.75  L  3876.00,   188.21  L  3875.50,   187.92  L  3874.93,   188.02  L  3875.35,   188.75  " /><path style="stroke-width:0.28 ;&st9;  " d=" M  3934.84,   180.26  L  3929.18,   171.76  L  3940.51,   171.76  L  3934.84,   180.26  " /><path style="stroke-width:1.42 ;&st7;  " d=" M  3730.88,   154.76  L  3730.88,   316.23  L  4512.74,   316.23  L  4512.74,   154.76  L  3730.88,   154.76  " /><text style="&st18;" transform="matrix(&st16;  3996.92  312.54 )">PKBI</text><text style="&st18;" transform="matrix(&st16;  3829.2  312.54 )">ES</text><text style="&st18;" transform="matrix(&st16;  4498.33  162.95 )">B</text><text style="&st18;" transform="matrix(&st16;  3937.43  162.95 )">B</text><text style="&st18;" transform="matrix(&st16;  3750.46  312.54 )">LP</text><text style="&st18;" transform="matrix(&st16;  4464.34  312.54 )">SW</text><path style="stroke-width:0.85 ;&st7;  " d=" M  4460.56,   272.74  L  4460.29,   273.21  L  4460.19,   273.74  L  4460.29,   274.27  L  4460.56,   274.74  L  4460.97,   275.09  L  4461.48,   275.28  L  4462.02,   275.28  L  4462.53,   275.09  L  4462.95,   274.74  L  4463.22,   274.27  L  4463.31,   273.74  L  4463.22,   273.21  L  4462.95,   272.74  L  4462.53,   272.39  L  4462.02,   272.20  L  4461.48,   272.20  L  4460.97,   272.39  L  4460.56,   272.74  L  4460.95,   273.45  L  4460.95,   274.03  L  4461.33,   274.48  L  4461.90,   274.58  L  4462.40,   274.29  L  4462.60,   273.74  L  4462.40,   273.19  L  4461.90,   272.90  L  4461.33,   273.00  L  4461.75,   273.74  " /><path style="stroke-width:0.85 ;&st7;  " d=" M  4028.33,   248.24  L  4019.83,   248.24  L  4018.41,   251.08  L  4015.58,   245.41  L  4012.74,   251.08  L  4009.91,   245.41  L  4007.08,   251.08  L  4004.25,   245.41  L  4002.83,   248.24  L  3994.33,   248.24  " /><text style="&st18;" transform="matrix(&st17;  3867.69  234.19 )" ewd:textID="10">Brake</text><text style="&st18;" transform="matrix(&st16;  4073.02  216.22 )">CPU</text><text style="&st18;" transform="matrix(&st17;  3799.7  232.29 )">ABS</text><text style="&st18;" transform="matrix(&st16;  4319.48  216.22 )">CPU</text><text style="&st18;" transform="matrix(&st16;  3736.08  322.73 )">19</text><text style="&st18;" transform="matrix(&st16;  3745.57  322.73 )">A</text><path style="stroke-width:1.42 ;&st7;   " d=" M  3752.41,   320.77  C  3752.41    318.26   3750.38    316.23   3747.87    316.23  " /><path style="stroke-width:1.42 ;&st7;   " d=" M  3747.87,   316.23  C  3745.37    316.23   3743.34    318.26   3743.34    320.77  " /><path style="stroke-width:1.42 ;&st7;   " d=" M  3743.34,   320.77  C  3743.34    323.27   3745.37    325.30   3747.87    325.30  " /><path style="stroke-width:1.42 ;&st7;   " d=" M  3747.87,   325.30  C  3750.38    325.30   3752.41    323.27   3752.41    320.77  " /><text style="&st18;" transform="matrix(&st16;  3821.06  322.73 )">15</text><path style="stroke-width:1.42 ;&st7;   " d=" M  3837.39,   320.77  C  3837.39    318.26   3835.36    316.23   3832.86    316.23  " /><path style="stroke-width:1.42 ;&st7;   " d=" M  3832.86,   316.23  C  3830.36    316.23   3828.33    318.26   3828.33    320.77  " /><path style="stroke-width:1.42 ;&st7;   " d=" M  3828.33,   320.77  C  3828.33    323.27   3830.36    325.30   3832.86    325.30  " /><path style="stroke-width:1.42 ;&st7;   " d=" M  3832.86,   325.30  C  3835.36    325.30   3837.39    323.27   3837.39    320.77  " /><text style="&st18;" transform="matrix(&st16;  3830.56  322.73 )">A</text><text style="&st18;" transform="matrix(&st16;  3923.05  152.2 )">28</text><text style="&st18;" transform="matrix(&st16;  3932.54  152.2 )">A</text><path style="stroke-width:1.42 ;&st7;   " d=" M  3939.38,   150.23  C  3939.38    147.72   3937.35    145.69   3934.84    145.69  " /><path style="stroke-width:1.42 ;&st7;   " d=" M  3934.84,   145.69  C  3932.34    145.69   3930.31    147.72   3930.31    150.23  " /><path style="stroke-width:1.42 ;&st7;   " d=" M  3930.31,   150.23  C  3930.31    152.73   3932.34    154.76   3934.84    154.76  " /><path style="stroke-width:1.42 ;&st7;   " d=" M  3934.84,   154.76  C  3937.35    154.76   3939.38    152.73   3939.38    150.23  " /><text style="&st18;" transform="matrix(&st16;  3982.54  322.73 )">20</text><path style="stroke-width:1.42 ;&st7;   " d=" M  3998.87,   320.77  C  3998.87    318.26   3996.84    316.23   3994.33    316.23  " /><path style="stroke-width:1.42 ;&st7;   " d=" M  3994.33,   316.23  C  3991.83    316.23   3989.80    318.26   3989.80    320.77  " /><path style="stroke-width:1.42 ;&st7;   " d=" M  3989.80,   320.77  C  3989.80    323.27   3991.83    325.30   3994.33    325.30  " /><path style="stroke-width:1.42 ;&st7;   " d=" M  3994.33,   325.30  C  3996.84    325.30   3998.87    323.27   3998.87    320.77  " /><text style="&st18;" transform="matrix(&st16;  3992.14  322.73 )">B</text><text style="&st18;" transform="matrix(&st16;  4453.06  322.73 )">2</text><text style="&st18;" transform="matrix(&st16;  4459.57  322.73 )">B</text><path style="stroke-width:1.42 ;&st7;   " d=" M  4466.29,   320.77  C  4466.29    318.26   4464.26    316.23   4461.75    316.23  " /><path style="stroke-width:1.42 ;&st7;   " d=" M  4461.75,   316.23  C  4459.25    316.23   4457.22    318.26   4457.22    320.77  " /><path style="stroke-width:1.42 ;&st7;   " d=" M  4457.22,   320.77  C  4457.22    323.27   4459.25    325.30   4461.75    325.30  " /><path style="stroke-width:1.42 ;&st7;   " d=" M  4461.75,   325.30  C  4464.26    325.30   4466.29    323.27   4466.29    320.77  " /><text style="&st18;" transform="matrix(&st16;  4483.95  152.2 )">26</text><text style="&st18;" transform="matrix(&st16;  4493.44  152.2 )">A</text><path style="stroke-width:1.42 ;&st7;   " d=" M  4500.28,   150.23  C  4500.28    147.72   4498.25    145.69   4495.75    145.69  " /><path style="stroke-width:1.42 ;&st7;   " d=" M  4495.75,   145.69  C  4493.25    145.69   4491.22    147.72   4491.22    150.23  " /><path style="stroke-width:1.42 ;&st7;   " d=" M  4491.22,   150.23  C  4491.22    152.73   4493.25    154.76   4495.75    154.76  " /><path style="stroke-width:1.42 ;&st7;   " d=" M  4495.75,   154.76  C  4498.25    154.76   4500.28    152.73   4500.28    150.23  " /><g ewd:figtype="title"><text style="&st18;" transform="matrix(&st17;  3720.36  319.13 )">L25(A),L26(B)</text><text style="&st18;" transform="matrix(&st17;  3727.18  319.14 )" ewd:textID="15">Combination Meter Assembly</text></g></g><g ewd:figtype="conn" ewd:figID="7" ewd:code="I17"><g ewd:lineID="153"><text style="&st18;" transform="matrix(&st16;  3509.13  247.94 )">13</text><text style="&st18;" transform="matrix(&st16;  3514.05  236.05 )">TC</text></g></g><g ewd:figtype="conn" ewd:figID="25" ewd:code="I72,I106"><path style="stroke-width:0.85 ;&st7;  " d=" M  4002.83,    78.27  L  4002.83,    95.27  " /><path style="stroke-width:1.42 ;&st7;  " d=" M  3994.33,    78.27  L  4011.33,    78.27  L  4011.33,    95.27  L  3994.33,    95.27  L  3994.33,    78.27  " /><text style="&st18;" transform="matrix(&st16;  3994.14  66.64 )">2</text><text style="&st18;" transform="matrix(&st16;  3994.14  75.71 )">2</text><path style="stroke-width:1.42 ;&st7;   " d=" M  4007.36,    64.67  C  4007.36     62.17   4005.33     60.14   4002.83     60.14  " /><path style="stroke-width:1.42 ;&st7;   " d=" M  4002.83,    60.14  C  4000.33     60.14   3998.30     62.17   3998.30     64.67  " /><path style="stroke-width:1.42 ;&st7;   " d=" M  3998.30,    64.67  C  3998.30     67.18   4000.33     69.21   4002.83     69.21  " /><path style="stroke-width:1.42 ;&st7;   " d=" M  4002.83,    69.21  C  4005.33     69.21   4007.36     67.18   4007.36     64.67  " /><path style="stroke-width:1.42 ;&st7;   " d=" M  4007.36,    73.74  C  4007.36     71.24   4005.33     69.21   4002.83     69.21  " /><path style="stroke-width:1.42 ;&st7;   " d=" M  4002.83,    69.21  C  4000.33     69.21   3998.30     71.24   3998.30     73.74  " /><path style="stroke-width:1.42 ;&st7;   " d=" M  3998.30,    73.74  C  3998.30     76.24   4000.33     78.27   4002.83     78.27  " /><path style="stroke-width:1.42 ;&st7;   " d=" M  4002.83,    78.27  C  4005.33     78.27   4007.36     76.24   4007.36     73.74  " /><text style="&st18;" transform="matrix(&st16;  4000.53  66.64 )">A</text><text style="&st18;" transform="matrix(&st16;  4000.64  75.71 )">B</text><text style="&st18;" transform="matrix(&st16;  3994.14  110.84 )">1</text><text style="&st18;" transform="matrix(&st16;  3994.14  101.77 )">1</text><path style="stroke-width:1.42 ;&st7;   " d=" M  4007.36,   108.87  C  4007.36    106.36   4005.33    104.33   4002.83    104.33  " /><path style="stroke-width:1.42 ;&st7;   " d=" M  4002.83,   104.33  C  4000.33    104.33   3998.30    106.36   3998.30    108.87  " /><path style="stroke-width:1.42 ;&st7;   " d=" M  3998.30,   108.87  C  3998.30    111.37   4000.33    113.40   4002.83    113.40  " /><path style="stroke-width:1.42 ;&st7;   " d=" M  4002.83,   113.40  C  4005.33    113.40   4007.36    111.37   4007.36    108.87  " /><path style="stroke-width:1.42 ;&st7;   " d=" M  4007.36,    99.80  C  4007.36     97.30   4005.33     95.27   4002.83     95.27  " /><path style="stroke-width:1.42 ;&st7;   " d=" M  4002.83,    95.27  C  4000.33     95.27   3998.30     97.30   3998.30     99.80  " /><path style="stroke-width:1.42 ;&st7;   " d=" M  3998.30,    99.80  C  3998.30    102.31   4000.33    104.33   4002.83    104.33  " /><path style="stroke-width:1.42 ;&st7;   " d=" M  4002.83,   104.33  C  4005.33    104.33   4007.36    102.31   4007.36     99.80  " /><text style="&st18;" transform="matrix(&st16;  4000.53  101.77 )">A</text><text style="&st18;" transform="matrix(&st16;  4000.64  110.84 )">B</text><g ewd:figtype="title"><text style="&st18;" transform="matrix(&st17;  3957.75  98.17 )">I72(A)</text><text style="&st18;" transform="matrix(&st17;  3964.57  98.18 )" ewd:textID="42">No. 21 Junction <tspan x="0 " dy="6.0">Connector</tspan></text><text style="&st18;" transform="matrix(&st17;  3977.86  98.17 )">I106(B)</text><text style="&st18;" transform="matrix(&st17;  3984.69  98.18 )" ewd:textID="30">No. 9 Junction <tspan x="0 " dy="6.0">Connector</tspan></text></g><g ewd:code="" ewd:figID="224" ewd:comment="" ewd:figtype="commref"><text style="&st18;" transform="matrix(&st16;  4007.92  101.77 )">(LHD)</text></g><g ewd:code="" ewd:figID="225" ewd:comment="" ewd:figtype="commref"><text style="&st18;" transform="matrix(&st16;  4007.92  110.84 )">(RHD)</text></g><g ewd:code="" ewd:figID="226" ewd:comment="" ewd:figtype="commref"><text style="&st18;" transform="matrix(&st16;  4007.92  66.64 )">(LHD)</text></g><g ewd:code="" ewd:figID="227" ewd:comment="" ewd:figtype="commref"><text style="&st18;" transform="matrix(&st16;  4007.92  75.71 )">(RHD)</text></g></g><g ewd:figtype="conn" ewd:figID="27" ewd:code="S15"><path style="stroke-width:1.42 ;&st7;  " d=" M  4002.83,   503.20  L  4002.83,   469.21  L  3985.83,   469.21  L  3985.83,   503.20  L  4002.83,   503.20  " /><path style="stroke-width:0.85 ;&st7;   " d=" M  3995.75,   474.87  C  3995.75    474.09   3995.11    473.46   3994.33    473.46  " /><path style="stroke-width:0.85 ;&st7;   " d=" M  3994.33,   473.46  C  3993.55    473.46   3992.92    474.09   3992.92    474.87  " /><path style="stroke-width:0.85 ;&st7;   " d=" M  3992.92,   474.87  C  3992.92    475.65   3993.55    476.29   3994.33    476.29  " /><path style="stroke-width:0.85 ;&st7;   " d=" M  3994.33,   476.29  C  3995.11    476.29   3995.75    475.65   3995.75    474.87  " /><path style="stroke-width:0.85 ;&st7;   " d=" M  3995.75,   497.54  C  3995.75    496.75   3995.11    496.12   3994.33    496.12  " /><path style="stroke-width:0.85 ;&st7;   " d=" M  3994.33,   496.12  C  3993.55    496.12   3992.92    496.75   3992.92    497.54  " /><path style="stroke-width:0.85 ;&st7;   " d=" M  3992.92,   497.54  C  3992.92    498.32   3993.55    498.95   3994.33    498.95  " /><path style="stroke-width:0.85 ;&st7;   " d=" M  3994.33,   498.95  C  3995.11    498.95   3995.75    498.32   3995.75    497.54  " /><path style="stroke-width:0.85 ;&st7;  " d=" M  3994.33,   473.46  L  3994.33,   469.21  " /><path style="stroke-width:0.85 ;&st7;  " d=" M  3994.33,   503.20  L  3994.33,   498.95  " /><path style="stroke-width:1.42 ;&st7;  " d=" M  3994.33,   496.12  L  4000.00,   473.46  " /><text style="&st18;" transform="matrix(&st16;  3988.15  465.52 )">1</text><g ewd:figtype="title"><text style="&st18;" transform="matrix(&st17;  4010.73  506.1 )">S15</text><text style="&st18;" transform="matrix(&st17;  4017.55  506.11 )" ewd:textID="43">Parking Brake <tspan x="0 " dy="6.0">Switch Assembly</tspan></text></g></g><g ewd:figtype="w2w" ewd:figID="137" ewd:code="IL5"><text style="&st18;" transform="matrix(&st16;  3732.14  381.94 )">17</text><g ewd:code="" ewd:figID="203" ewd:comment="" ewd:figtype="commref"><text style="&st18;" transform="matrix(&st16;  3756.9  381.94 )">(RHD)</text></g></g><g ewd:figtype="w2w" ewd:figID="138" ewd:code="IL1"><path style="stroke-width:1.42 ;&st7;  " d=" M  3743.62,   358.16  L  3747.87,   362.41  L  3752.12,   358.16  " /><path style="stroke-width:1.42 ;&st7;  " d=" M  3752.12,   361.56  L  3747.87,   365.81  L  3743.62,   361.56  " /><text style="&st18;" transform="matrix(&st16;  3735.24  373.44 )">7</text><g ewd:code="" ewd:figID="202" ewd:comment="" ewd:figtype="commref"><text style="&st18;" transform="matrix(&st16;  3756.9  373.44 )">(LHD)</text></g></g><g ewd:figtype="w2w" ewd:figID="139" ewd:code="CA4"><path style="stroke-width:1.42 ;&st7;  " d=" M  3786.12,   531.53  L  3781.87,   535.78  L  3777.62,   531.53  " /><path style="stroke-width:1.42 ;&st7;  " d=" M  3777.62,   528.13  L  3781.87,   532.38  L  3786.12,   528.13  " /><text style="&st18;" transform="matrix(&st16;  3766.13  543.41 )">17</text></g><g ewd:figtype="w2w" ewd:figID="140" ewd:code="AC1"><path style="stroke-width:1.42 ;&st7;  " d=" M  3837.11,   551.36  L  3832.86,   547.11  L  3828.61,   551.36  " /><path style="stroke-width:1.42 ;&st7;  " d=" M  3837.11,   554.76  L  3832.86,   550.51  L  3828.61,   554.76  " /><text style="&st18;" transform="matrix(&st16;  3820.23  543.41 )">1</text></g><g ewd:code="AI3" ewd:figID="141" ewd:comment="3" ewd:figtype="w2w"><text style="&st18;" transform="matrix(&st16;  3817.13  483.92 )">55</text><g ewd:code="" ewd:figID="219" ewd:comment="3" ewd:figtype="commref"><text style="&st18;" transform="matrix(&st16;  3841.89  483.92 )">(*3)</text></g></g><g ewd:code="AI3" ewd:figID="142" ewd:comment="2" ewd:figtype="w2w"><text style="&st18;" transform="matrix(&st16;  3817.13  475.43 )">22</text><g ewd:code="" ewd:figID="221" ewd:comment="2" ewd:figtype="commref"><text style="&st18;" transform="matrix(&st16;  3841.89  475.43 )">(RHD *2)</text></g></g><g ewd:code="AI3" ewd:figID="143" ewd:comment="2" ewd:figtype="w2w"><path style="stroke-width:1.42 ;&st7;  " d=" M  3828.61,   451.64  L  3832.86,   455.89  L  3837.11,   451.64  " /><path style="stroke-width:1.42 ;&st7;  " d=" M  3837.11,   455.04  L  3832.86,   459.29  L  3828.61,   455.04  " /><text style="&st18;" transform="matrix(&st16;  3817.13  466.93 )">45</text><g ewd:code="" ewd:figID="220" ewd:comment="2" ewd:figtype="commref"><text style="&st18;" transform="matrix(&st16;  3841.89  466.93 )">(LHD *2)</text></g></g><g ewd:figtype="w2w" ewd:figID="144" ewd:code="IL6"><text style="&st18;" transform="matrix(&st16;  3817.13  373.44 )">14</text><g ewd:code="" ewd:figID="201" ewd:comment="" ewd:figtype="commref"><text style="&st18;" transform="matrix(&st16;  3841.89  373.44 )">(RHD)</text></g></g><g ewd:figtype="w2w" ewd:figID="145" ewd:code="IL2"><path style="stroke-width:1.42 ;&st7;  " d=" M  3828.61,   349.66  L  3832.86,   353.91  L  3837.11,   349.66  " /><path style="stroke-width:1.42 ;&st7;  " d=" M  3837.11,   353.06  L  3832.86,   357.31  L  3828.61,   353.06  " /><text style="&st18;" transform="matrix(&st16;  3820.23  364.94 )">4</text><g ewd:code="" ewd:figID="200" ewd:comment="" ewd:figtype="commref"><text style="&st18;" transform="matrix(&st16;  3841.89  364.94 )">(LHD)</text></g></g><g ewd:figtype="w2w" ewd:figID="146" ewd:code="LI1"><path style="stroke-width:1.42 ;&st7;  " d=" M  3896.60,    81.11  L  3892.35,    85.35  L  3888.10,    81.11  " /><path style="stroke-width:1.42 ;&st7;  " d=" M  3888.10,    77.71  L  3892.35,    81.96  L  3896.60,    77.71  " /><text style="&st18;" transform="matrix(&st16;  3876.62  92.99 )">18</text></g><g ewd:figtype="w2w" ewd:figID="147" ewd:code="AC5"><path style="stroke-width:1.42 ;&st7;  " d=" M  3905.10,   563.26  L  3900.85,   559.01  L  3896.60,   563.26  " /><path style="stroke-width:1.42 ;&st7;  " d=" M  3905.10,   559.86  L  3900.85,   555.61  L  3896.60,   559.86  " /><text style="&st18;" transform="matrix(&st16;  3888.22  551.91 )">9</text><g ewd:code="" ewd:figID="223" ewd:comment="" ewd:figtype="commref"><text style="&st18;" transform="matrix(&st16;  3909.88  551.91 )">(RHD)</text></g></g><g ewd:figtype="w2w" ewd:figID="148" ewd:code="IC2"><text style="&st18;" transform="matrix(&st16;  3888.22  543.41 )">9</text><g ewd:code="" ewd:figID="222" ewd:comment="" ewd:figtype="commref"><text style="&st18;" transform="matrix(&st16;  3909.88  543.41 )">(LHD)</text></g></g><g ewd:figtype="w2w" ewd:figID="149" ewd:code="IL2"><path style="stroke-width:1.42 ;&st7;  " d=" M  3939.09,   100.94  L  3934.84,    96.69  L  3930.59,   100.94  " /><path style="stroke-width:1.42 ;&st7;  " d=" M  3939.09,   104.33  L  3934.84,   100.09  L  3930.59,   104.33  " /><text style="&st18;" transform="matrix(&st16;  3919.11  92.99 )">22</text></g><g ewd:figtype="w2w" ewd:figID="150" ewd:code="AI3"><path style="stroke-width:1.42 ;&st7;  " d=" M  3947.59,   455.04  L  3943.34,   459.29  L  3939.09,   455.04  " /><path style="stroke-width:1.42 ;&st7;  " d=" M  3939.09,   451.64  L  3943.34,   455.89  L  3947.59,   451.64  " /><text style="&st18;" transform="matrix(&st16;  3927.61  466.93 )">56</text></g><g ewd:figtype="w2w" ewd:figID="151" ewd:code="LS2"><text style="&st18;" transform="matrix(&st16;  3981.7  381.94 )">4</text><path style="stroke-width: 1.42 ;&st7;  " d=" M  3998.58,   389.89  L  3994.33,   385.64  L  3990.08,   389.89  " /><path style="stroke-width: 1.42 ;&st7;  " d=" M  3998.58,   393.29  L  3994.33,   389.04  L  3990.08,   393.29  " /></g><g ewd:figtype="gp" ewd:figID="169" ewd:code="CE"><path style="stroke-width: 0.85 ;&st7;  " d=" M  3780.45,   710.00  L  3783.28,   710.00  " /><path style="stroke-width: 0.85 ;&st7;  " d=" M  3779.03,   707.17  L  3784.70,   707.17  " /><path style="stroke-width: 0.85 ;&st7;  " d=" M  3777.62,   704.33  L  3786.12,   704.33  " /><path style="stroke-width: 0.85 ;&st7;  " d=" M  3773.37,   701.50  L  3790.37,   701.50  " /><path style="stroke-width: 0.85 ;&st7;  " d=" M  3781.87,   697.25  L  3781.87,   701.50  " /></g><g ewd:figtype="gp" ewd:figID="170" ewd:code="CC"><path style="stroke-width: 0.85 ;&st7;  " d=" M  3831.44,   710.00  L  3834.27,   710.00  " /><path style="stroke-width: 0.85 ;&st7;  " d=" M  3830.03,   707.17  L  3835.69,   707.17  " /><path style="stroke-width: 0.85 ;&st7;  " d=" M  3828.61,   704.33  L  3837.11,   704.33  " /><path style="stroke-width: 0.85 ;&st7;  " d=" M  3824.36,   701.50  L  3841.36,   701.50  " /><path style="stroke-width: 0.85 ;&st7;  " d=" M  3832.86,   697.25  L  3832.86,   701.50  " /></g><g ewd:figtype="gp" ewd:figID="171" ewd:code="CA"><path style="stroke-width: 0.85 ;&st7;  " d=" M  3899.43,   710.00  L  3902.26,   710.00  " /><path style="stroke-width: 0.85 ;&st7;  " d=" M  3898.01,   707.17  L  3903.68,   707.17  " /><path style="stroke-width: 0.85 ;&st7;  " d=" M  3896.60,   704.33  L  3905.10,   704.33  " /><path style="stroke-width: 0.85 ;&st7;  " d=" M  3892.35,   701.50  L  3909.35,   701.50  " /><path style="stroke-width: 0.85 ;&st7;  " d=" M  3900.85,   697.25  L  3900.85,   701.50  " /></g><g ewd:figtype="annex" ewd:figID="210" ewd:code=" "><path style="stroke-width: 0.85 ;&st7;  " d=" M  3994.33,   503.20  L  3994.33,   511.70  " /><path style="stroke-width: 0.85 ;&st7;  " d=" M  3990.08,   514.53  L  3998.58,   514.53  " /><path style="stroke-width: 0.85 ;&st7;  " d=" M  3991.50,   517.37  L  3997.16,   517.37  " /><path style="stroke-width: 0.85 ;&st7;  " d=" M  3985.83,   511.70  L  4002.83,   511.70  " /><path style="stroke-width: 0.85 ;&st7;  " d=" M  3992.91,   520.20  L  3995.75,   520.20  " /></g></svg>