<?xml version="1.0" encoding="utf-8"?>
<!DOCTYPE svg PUBLIC "-//W3C//DTD SVG 1.0//EN" "http://www.w3.org/TR/2001/REC-SVG-20010904/DTD/svg10.dtd"[
	<!ENTITY ns_flows "http://ns.adobe.com/Flows/1.0/">
	<!ENTITY ns_svg "http://www.w3.org/2000/svg">
	<!ENTITY ns_xlink "http://www.w3.org/1999/xlink">
	<!ENTITY st0 "font-size:7px;font-family:'MS-PGothic';adobe-font-script:japanese;">
	<!ENTITY st1 "font-size:6px;font-family:'ArialMT';">
	<!-- White fill  -->
	<!ENTITY st2 "fill:#FFFFFF;stroke:#000000; stroke-width:1.41;stroke-linecap:round;stroke-linejoin:round;">
	<!-- Yellow fill  -->
	<!ENTITY st3 "fill:#FFFFCC;stroke:#FFFFCC; stroke-width:0.1;stroke-linecap:round;stroke-linejoin:round;">
	<!-- Gray fill  -->
	<!ENTITY st4 "fill:#CCCCCC;stroke:#CCCCCC; stroke-width:0.1;stroke-linecap:round;stroke-linejoin:round;">
	<!-- Light-blue fill -->
	<!ENTITY st5 "fill:#CCECF4;stroke:#000000; stroke-width:1.133;stroke-linecap:round;stroke-linejoin:round;">
	<!ENTITY st6 "fill:none;stroke-linecap:butt; stroke-linejoin:round;">
	<!ENTITY st7 "fill:none;stroke:#000000;stroke-linecap:round;stroke-linejoin:round;">
	<!ENTITY st8 "enable-background:new    ;">
	<!-- Black fill -->
	<!ENTITY st9 "fill:#000000;stroke:#000000; stroke-linecap:round;stroke-linejoin:round;">
	<!-- SRS note   -->
	<!ENTITY st10 "font-size:9px;font-family:'ArialMT';">
	<!ENTITY st11 "font-size:9px;font-family:'Svg Symbol';">
	<!ENTITY st12 "font-size:6px;font-family:'Svg Symbol';">
	<!ENTITY st13 "fill:none;stroke:#ff0000;stroke-linecap:round;stroke-linejoin:round;">
	<!-- Yellow fill  -->
	<!ENTITY st14 "fill:#FFFF00;stroke:#FFFF00; stroke-width:0.1;stroke-linecap:round;stroke-linejoin:round;">
	<!ENTITY st15 "font-size:6px;font-family:'MS-PGothic';adobe-font-script:japanese;">
	<!ENTITY st16 "1.00 0.00 0.00 1.00">
	<!ENTITY st17 "0.00 -1.00 1.00 0.00">
	<!ENTITY st18 "font-size:6px;font-family:'Arial';">
	<!ENTITY st19 "font-size:9px;font-family:'Arial';">
	<!ENTITY st20 "font-size:6px;font-family:'MS-PGothic','MS PGothic';adobe-font-script:japanese;">
	<!ENTITY st21 "font-size:7px;font-family:'MS-PGothic','MS PGothic';adobe-font-script:japanese;">
	<!ATTLIST svg
		xmlns:ewd CDATA #FIXED "http://shcl.co.jp/ewd"
		xmlns:a CDATA #FIXED "http://ns.adobe.com/AdobeSVGViewerExtensions/3.0/"
		ewd:ver CDATA #IMPLIED
	>
	<!ATTLIST a
		ewd:lineID CDATA #IMPLIED
		ewd:groupID CDATA #IMPLIED
		ewd:figtype CDATA #IMPLIED
		ewd:code CDATA #IMPLIED
		ewd:figID CDATA #IMPLIED
		ewd:pinNo CDATA #IMPLIED
		ewd:comment CDATA #IMPLIED >
	<!ATTLIST g
		ewd:lineID CDATA #IMPLIED
		ewd:groupID CDATA #IMPLIED
		ewd:figtype CDATA #IMPLIED
		ewd:code CDATA #IMPLIED
		ewd:figID CDATA #IMPLIED
		ewd:pinNo CDATA #IMPLIED
		ewd:comment CDATA #IMPLIED >
	<!ATTLIST text
		ewd:textID CDATA #IMPLIED >
	<!ATTLIST title
		ewd:textID CDATA #IMPLIED >
]>
<!-- Generator: Shintec Hozumi YS   -->
<svg onload="call_execInitLoadProc_svg('system')" style="overflow:visible;  enable-background:new 0 0 4625.098 710.000" viewBox="0 0 4625.098 710.000" height="710.000" width="4625.098" xml:space="preserve" ewd:ver="2.1.2.9" xmlns="&ns_svg;" xmlns:a="http://ns.adobe.com/AdobeSVGViewerExtensions/3.0/" xmlns:ewd="http://shcl.co.jp/ewd" xmlns:xlink="&ns_xlink;">
<path style="stroke-width:1.42 ;&st7;  " d=" M  2770.54,   176.73  L  2765.57,   171.76  " /><path style="stroke-width:1.42 ;&st7;  " d=" M  2753.54,   183.78  L  2758.51,   188.75  " /><path style="stroke-width:1.42 ;&st7;  " d=" M  2765.57,   188.75  L  2770.54,   183.78  " /><path style="stroke-width:1.42 ;&st7;  " d=" M  2758.51,   171.76  L  2753.54,   176.73  " /><path style="stroke-width:1.42 ;&st7;  " d=" M  2515.58,   197.25  L  2507.08,   197.25  " /><path style="stroke-width:1.42 ;&st7;  " d=" M  2770.54,   273.74  L  2762.04,   273.74  " /><path style="stroke-width:1.42 ;&st7;  " d=" M  2515.58,   265.24  L  2507.08,   265.24  " /><path style="stroke-width:1.42 ;&st7;  " d=" M  2813.03,   299.24  L  2821.53,   299.24  " /><path style="stroke-width:1.42 ;&st7;  " d=" M  2991.50,   324.73  L  3000.00,   324.73  " /><path style="stroke-width:1.42 ;&st7;  " d=" M  2940.51,   324.73  L  2949.01,   324.73  " /><path style="stroke-width:1.42 ;&st7;  " d=" M  2510.61,   477.71  L  2515.58,   472.74  " /><path style="stroke-width:1.42 ;&st7;  " d=" M  2515.58,   465.68  L  2510.61,   460.71  " /><path style="stroke-width:1.42 ;&st7;  " d=" M  2515.58,   528.70  L  2507.08,   528.70  " /><path style="stroke-width:1.42 ;&st7;  " d=" M  2566.57,   324.73  L  2558.07,   324.73  " /><path style="stroke-width:1.42 ;&st7;  " d=" M  2549.57,   256.74  L  2558.07,   256.74  " /><path style="stroke-width:1.42 ;&st7;  " d=" M  2753.54,   477.71  L  2762.04,   477.71  " /><path style="stroke-width: 0.85 ;&st7; stroke-dasharray:3, 1.5;" d=" M  2983.31,   337.48  L  2961.44,   337.48  " /><path style="stroke-width: 0.85 ;&st7; stroke-dasharray:3, 1.5;" d=" M  2961.44,   328.98  L  2983.31,   328.98  " /><text style="&st18;" transform="matrix(&st16;  2555.77  643.98 )">V</text><text style="&st18;" transform="matrix(&st16;  2623.76  643.98 )">V</text><text style="&st18;" transform="matrix(&st16;  2549.1  626.98 )">G(*13)</text><text style="&st18;" transform="matrix(&st16;  2617.09  626.98 )">G(*13)</text><text style="&st18;" transform="matrix(&st16;  2617.09  609.99 )">G(*12)</text><text style="&st18;" transform="matrix(&st16;  2549.1  609.99 )">G(*12)</text><text style="&st18;" transform="matrix(&st16;  2540.26  151.06 )">B-Y(RHD *1)</text><text style="&st18;" transform="matrix(&st16;  2608.25  151.06 )">B-Y(RHD *1)</text><text style="&st18;" transform="matrix(&st16;  2547.43  134.07 )">B-Y(*2)</text><text style="&st18;" transform="matrix(&st16;  2615.42  134.07 )">B-Y(*2)</text><text style="&st18;" transform="matrix(&st16;  2540.3  117.07 )">B-Y(LHD *1)</text><text style="&st18;" transform="matrix(&st16;  2608.29  117.07 )">B-Y(LHD *1)</text><text style="&st18;" transform="matrix(&st16;  2547.43  100.07 )">B-Y(*3)</text><text style="&st18;" transform="matrix(&st16;  2615.42  100.07 )">B-Y(*3)</text><text style="&st18;" transform="matrix(&st16;  2547.0  83.07 )">W(RHD)</text><text style="&st18;" transform="matrix(&st16;  2614.99  83.07 )">W(RHD)</text><text style="&st18;" transform="matrix(&st16;  2547.04  66.08 )">W(LHD)</text><text style="&st18;" transform="matrix(&st16;  2615.03  66.08 )">W(LHD)</text><text style="&st18;" transform="matrix(&st16;  2547.86  49.08 )">R(RHD)</text><text style="&st18;" transform="matrix(&st16;  2615.85  49.08 )">R(RHD)</text><text style="&st18;" transform="matrix(&st16;  2547.9  32.08 )">R(LHD)</text><text style="&st18;" transform="matrix(&st16;  2615.89  32.08 )">R(LHD)</text><text style="&st18;" transform="matrix(&st16;  2555.88  15.09 )">B</text><text style="&st18;" transform="matrix(&st16;  2623.87  15.09 )">B</text><text style="&st18;" transform="matrix(&st17;  2769.68  316.48 )">(*1,*2)</text><text style="&st18;" transform="matrix(&st17;  2724.35  210.93 )">B-Y</text><text style="&st18;" transform="matrix(&st17;  2735.68  217.64 )">(RHD *1)</text><text style="&st18;" transform="matrix(&st16;  2782.32  340.86 )">(*3)</text><text style="&st18;" transform="matrix(&st16;  2781.86  329.53 )">B-Y</text><text style="&st18;" transform="matrix(&st17;  2829.16  274.2 )">(*3)</text><text style="&st18;" transform="matrix(&st17;  2817.83  274.67 )">B-Y</text><text style="&st18;" transform="matrix(&st17;  2803.67  217.6 )">(LHD *1)</text><text style="&st18;" transform="matrix(&st17;  2792.34  210.93 )">B-Y</text><text style="&st18;" transform="matrix(&st17;  2718.68  530.71 )">(*11)</text><text style="&st18;" transform="matrix(&st17;  2707.35  530.4 )">W-B</text><text style="&st18;" transform="matrix(&st17;  2718.68  602.95 )">(*11)</text><text style="&st18;" transform="matrix(&st17;  2707.35  602.64 )">W-B</text><text style="&st18;" transform="matrix(&st17;  2758.34  312.91 )">B-Y</text><text style="&st18;" transform="matrix(&st17;  2676.19  529.16 )">(*3)</text><text style="&st18;" transform="matrix(&st17;  2664.86  530.4 )">W-B</text><text style="&st18;" transform="matrix(&st17;  2812.17  529.16 )">(*1)</text><text style="&st18;" transform="matrix(&st17;  2800.84  530.4 )">W-B</text><text style="&st18;" transform="matrix(&st17;  2769.67  456.92 )">(*2)</text><text style="&st18;" transform="matrix(&st17;  2758.34  458.16 )">W-B</text><text style="&st18;" transform="matrix(&st17;  2769.67  529.16 )">(*8)</text><text style="&st18;" transform="matrix(&st17;  2758.34  530.4 )">W-B</text><text style="&st18;" transform="matrix(&st17;  2769.67  601.4 )">(*8)</text><text style="&st18;" transform="matrix(&st17;  2758.34  602.64 )">W-B</text><text style="&st18;" transform="matrix(&st17;  2769.67  159.47 )">(*2)</text><text style="&st18;" transform="matrix(&st17;  2758.34  159.94 )">B-Y</text><text style="&st18;" transform="matrix(&st17;  2769.67  210.46 )">(*2)</text><text style="&st18;" transform="matrix(&st17;  2758.34  210.93 )">B-Y</text><text style="&st18;" transform="matrix(&st17;  2514.72  448.42 )">(*6)</text><text style="&st18;" transform="matrix(&st17;  2514.72  503.45 )">(*6 *4)</text><text style="&st18;" transform="matrix(&st17;  2503.39  500.66 )">W-B</text><text style="&st18;" transform="matrix(&st17;  2514.72  596.93 )">(*6 *4)</text><text style="&st18;" transform="matrix(&st17;  2503.39  594.14 )">W-B</text><text style="&st18;" transform="matrix(&st17;  2565.71  299.48 )">(*6 *5)</text><text style="&st18;" transform="matrix(&st17;  2554.38  295.72 )">R-L</text><text style="&st18;" transform="matrix(&st17;  2514.72  299.48 )">(*6 *4)</text><text style="&st18;" transform="matrix(&st17;  2503.39  295.72 )">R-L</text><text style="&st18;" transform="matrix(&st17;  2503.39  449.67 )">W-B</text><text style="&st18;" transform="matrix(&st17;  2514.72  358.97 )">(*6 *4)</text><text style="&st18;" transform="matrix(&st17;  2503.39  351.84 )">R</text><text style="&st18;" transform="matrix(&st17;  2565.71  358.97 )">(*6 *5)</text><text style="&st18;" transform="matrix(&st17;  2554.38  351.84 )">R</text><text style="&st18;" transform="matrix(&st17;  2565.71  239.99 )">(*6 *5)</text><text style="&st18;" transform="matrix(&st17;  2554.38  236.23 )">R-L</text><text style="&st18;" transform="matrix(&st17;  2503.39  236.23 )">R-L</text><text style="&st18;" transform="matrix(&st17;  2514.72  239.99 )">(*6 *4)</text><text style="&st18;" transform="matrix(&st17;  2996.3  521.89 )">B</text><text style="&st18;" transform="matrix(&st17;  2945.31  522.66 )">W</text><text style="&st18;" transform="matrix(&st17;  2956.64  524.91 )">(*7)</text><text style="&st18;" transform="matrix(&st17;  2956.64  298.59 )">(RHD)</text><text style="&st18;" transform="matrix(&st17;  2945.31  293.2 )">W</text><text style="&st18;" transform="matrix(&st17;  2996.3  292.35 )">R</text><text style="&st18;" transform="matrix(&st17;  2996.3  190.37 )">R</text><text style="&st18;" transform="matrix(&st17;  2945.31  191.22 )">W</text><text style="&st18;" transform="matrix(&st17;  2956.64  196.61 )">(RHD)</text><text style="&st18;" transform="matrix(&st17;  2996.3  398.58 )">R</text><text style="&st18;" transform="matrix(&st17;  2945.31  399.43 )">W</text><text style="&st18;" transform="matrix(&st17;  2956.64  401.68 )">(*7)</text><text style="&st18;" transform="matrix(&st17;  2922.65  413.1 )">(RHD *1)</text><text style="&st18;" transform="matrix(&st17;  2911.32  402.83 )">R</text><text style="&st18;" transform="matrix(&st17;  2885.82  403.68 )">W</text><text style="&st18;" transform="matrix(&st17;  2897.15  413.1 )">(RHD *1)</text><g ewd:figtype="conn" ewd:figID="4" ewd:code="A22"><path style="stroke-width:1.42 ;&st7;  " d=" M  2702.55,   554.19  L  2719.54,   554.19  L  2719.54,   571.19  L  2702.55,   571.19  L  2702.55,   554.19  " /><path style="stroke-width:0.85 ;&st7;  " d=" M  2711.05,   554.19  L  2711.05,   571.19  " /><text style="&st18;" transform="matrix(&st16;  2702.35  577.69 )">4</text><text style="&st18;" transform="matrix(&st16;  2708.74  577.69 )">A</text><path style="stroke-width:1.42 ;&st7;   " d=" M  2715.58,   575.72  C  2715.58    573.22   2713.55    571.19   2711.05    571.19  " /><path style="stroke-width:1.42 ;&st7;   " d=" M  2711.05,   571.19  C  2708.54    571.19   2706.51    573.22   2706.51    575.72  " /><path style="stroke-width:1.42 ;&st7;   " d=" M  2706.51,   575.72  C  2706.51    578.23   2708.54    580.26   2711.05    580.26  " /><path style="stroke-width:1.42 ;&st7;   " d=" M  2711.05,   580.26  C  2713.55    580.26   2715.58    578.23   2715.58    575.72  " /><text style="&st18;" transform="matrix(&st16;  2702.35  551.63 )">3</text><text style="&st18;" transform="matrix(&st16;  2708.74  551.63 )">A</text><path style="stroke-width:1.42 ;&st7;   " d=" M  2715.58,   549.66  C  2715.58    547.16   2713.55    545.13   2711.05    545.13  " /><path style="stroke-width:1.42 ;&st7;   " d=" M  2711.05,   545.13  C  2708.54    545.13   2706.51    547.16   2706.51    549.66  " /><path style="stroke-width:1.42 ;&st7;   " d=" M  2706.51,   549.66  C  2706.51    552.16   2708.54    554.19   2711.05    554.19  " /><path style="stroke-width:1.42 ;&st7;   " d=" M  2711.05,   554.19  C  2713.55    554.19   2715.58    552.16   2715.58    549.66  " /><g ewd:figtype="title"><text style="&st18;" transform="matrix(&st17;  2727.44  574.09 )">A22(A)</text><text style="&st18;" transform="matrix(&st17;  2734.26  574.1 )" ewd:textID="22">No. 1 Junction <tspan x="0 " dy="6.0">Connector</tspan></text></g></g><g ewd:code="C36,C99" ewd:figID="6" ewd:comment="3,2,1" ewd:figtype="conn"><path style="stroke-width:1.42 ;&st7;  " d=" M  2762.04,   394.14  L  2767.70,   371.47  " /><path style="stroke-width:0.85 ;&st7;  " d=" M  2762.04,   401.22  L  2762.04,   396.97  " /><path style="stroke-width:0.85 ;&st7;  " d=" M  2762.04,   371.47  L  2762.04,   367.22  " /><path style="stroke-width:0.85 ;&st7;   " d=" M  2763.45,   395.55  C  2763.45    394.77   2762.82    394.14   2762.04    394.14  " /><path style="stroke-width:0.85 ;&st7;   " d=" M  2762.04,   394.14  C  2761.26    394.14   2760.62    394.77   2760.62    395.55  " /><path style="stroke-width:0.85 ;&st7;   " d=" M  2760.62,   395.55  C  2760.62    396.33   2761.26    396.97   2762.04    396.97  " /><path style="stroke-width:0.85 ;&st7;   " d=" M  2762.04,   396.97  C  2762.82    396.97   2763.45    396.33   2763.45    395.55  " /><path style="stroke-width:0.85 ;&st7;   " d=" M  2763.45,   372.89  C  2763.45    372.11   2762.82    371.47   2762.04    371.47  " /><path style="stroke-width:0.85 ;&st7;   " d=" M  2762.04,   371.47  C  2761.26    371.47   2760.62    372.11   2760.62    372.89  " /><path style="stroke-width:0.85 ;&st7;   " d=" M  2760.62,   372.89  C  2760.62    373.67   2761.26    374.31   2762.04    374.31  " /><path style="stroke-width:0.85 ;&st7;   " d=" M  2762.04,   374.31  C  2762.82    374.31   2763.45    373.67   2763.45    372.89  " /><path style="stroke-width:1.42 ;&st7;  " d=" M  2770.54,   401.22  L  2770.54,   367.22  L  2753.54,   367.22  L  2753.54,   401.22  L  2770.54,   401.22  " /><text style="&st18;" transform="matrix(&st16;  2753.34  407.72 )">1</text><text style="&st18;" transform="matrix(&st16;  2753.34  416.79 )">2</text><text style="&st18;" transform="matrix(&st16;  2759.73  416.79 )">A</text><path style="stroke-width:1.42 ;&st7;   " d=" M  2766.57,   414.82  C  2766.57    412.31   2764.54    410.28   2762.04    410.28  " /><path style="stroke-width:1.42 ;&st7;   " d=" M  2762.04,   410.28  C  2759.54    410.28   2757.51    412.31   2757.51    414.82  " /><path style="stroke-width:1.42 ;&st7;   " d=" M  2757.51,   414.82  C  2757.51    417.32   2759.54    419.35   2762.04    419.35  " /><path style="stroke-width:1.42 ;&st7;   " d=" M  2762.04,   419.35  C  2764.54    419.35   2766.57    417.32   2766.57    414.82  " /><path style="stroke-width:1.42 ;&st7;   " d=" M  2766.57,   405.75  C  2766.57    403.25   2764.54    401.22   2762.04    401.22  " /><path style="stroke-width:1.42 ;&st7;   " d=" M  2762.04,   401.22  C  2759.54    401.22   2757.51    403.25   2757.51    405.75  " /><path style="stroke-width:1.42 ;&st7;   " d=" M  2757.51,   405.75  C  2757.51    408.25   2759.54    410.28   2762.04    410.28  " /><path style="stroke-width:1.42 ;&st7;   " d=" M  2762.04,   410.28  C  2764.54    410.28   2766.57    408.25   2766.57    405.75  " /><text style="&st18;" transform="matrix(&st16;  2759.85  407.72 )">B</text><text style="&st18;" transform="matrix(&st16;  2753.34  364.66 )">1</text><text style="&st18;" transform="matrix(&st16;  2753.34  355.6 )">2</text><text style="&st18;" transform="matrix(&st16;  2759.85  355.6 )">B</text><text style="&st18;" transform="matrix(&st16;  2759.73  364.66 )">A</text><path style="stroke-width:1.42 ;&st7;   " d=" M  2766.57,   353.63  C  2766.57    351.12   2764.54    349.09   2762.04    349.09  " /><path style="stroke-width:1.42 ;&st7;   " d=" M  2762.04,   349.09  C  2759.54    349.09   2757.51    351.12   2757.51    353.63  " /><path style="stroke-width:1.42 ;&st7;   " d=" M  2757.51,   353.63  C  2757.51    356.13   2759.54    358.16   2762.04    358.16  " /><path style="stroke-width:1.42 ;&st7;   " d=" M  2762.04,   358.16  C  2764.54    358.16   2766.57    356.13   2766.57    353.63  " /><path style="stroke-width:1.42 ;&st7;   " d=" M  2766.57,   362.69  C  2766.57    360.19   2764.54    358.16   2762.04    358.16  " /><path style="stroke-width:1.42 ;&st7;   " d=" M  2762.04,   358.16  C  2759.54    358.16   2757.51    360.19   2757.51    362.69  " /><path style="stroke-width:1.42 ;&st7;   " d=" M  2757.51,   362.69  C  2757.51    365.19   2759.54    367.22   2762.04    367.22  " /><path style="stroke-width:1.42 ;&st7;   " d=" M  2762.04,   367.22  C  2764.54    367.22   2766.57    365.19   2766.57    362.69  " /><g ewd:figtype="title"><text style="&st18;" transform="matrix(&st17;  2743.9  404.12 )" ewd:textID="49">Transfer L4 Position Switch <tspan x="0 " dy="6.0">(No. 1 Transfer Indicator Switch)</tspan></text><text style="&st18;" transform="matrix(&st17;  2737.07  404.12 )">C36(B),C99(A)</text></g><g ewd:code="" ewd:figID="267" ewd:comment="1,3" ewd:figtype="commref"><text style="&st18;" transform="matrix(&st16;  2767.13  407.72 )">(*1,*3)</text></g><g ewd:code="" ewd:figID="268" ewd:comment="2" ewd:figtype="commref"><text style="&st18;" transform="matrix(&st16;  2767.13  416.79 )">(*2)</text></g><g ewd:code="" ewd:figID="269" ewd:comment="1,3" ewd:figtype="commref"><text style="&st18;" transform="matrix(&st16;  2767.13  355.6 )">(*1,*3)</text></g><g ewd:code="" ewd:figID="270" ewd:comment="2" ewd:figtype="commref"><text style="&st18;" transform="matrix(&st16;  2767.13  364.66 )">(*2)</text></g></g><g ewd:figtype="conn" ewd:figID="13" ewd:code="I81,I82"><path style="stroke-width:1.42 ;&st7;  " d=" M  3008.50,   469.21  L  3008.50,   486.20  L  2940.51,   486.20  L  2940.51,   469.21  L  3008.50,   469.21  " /><path style="stroke-width:0.85 ;&st7;  " d=" M  2949.01,   469.21  L  2949.01,   486.20  " /><path style="stroke-width:0.85 ;&st7;  " d=" M  3000.00,   469.21  L  3000.00,   486.20  " /><text style="&st18;" transform="matrix(&st16;  2940.31  492.71 )">2</text><path style="stroke-width:1.42 ;&st7;   " d=" M  2953.54,   490.74  C  2953.54    488.23   2951.51    486.20   2949.01    486.20  " /><path style="stroke-width:1.42 ;&st7;   " d=" M  2949.01,   486.20  C  2946.50    486.20   2944.47    488.23   2944.47    490.74  " /><path style="stroke-width:1.42 ;&st7;   " d=" M  2944.47,   490.74  C  2944.47    493.24   2946.50    495.27   2949.01    495.27  " /><path style="stroke-width:1.42 ;&st7;   " d=" M  2949.01,   495.27  C  2951.51    495.27   2953.54    493.24   2953.54    490.74  " /><text style="&st18;" transform="matrix(&st16;  2946.59  492.71 )">C</text><text style="&st18;" transform="matrix(&st16;  2940.31  466.64 )">2</text><text style="&st18;" transform="matrix(&st16;  2946.82  466.64 )">B</text><path style="stroke-width:1.42 ;&st7;   " d=" M  2953.54,   464.67  C  2953.54    462.17   2951.51    460.14   2949.01    460.14  " /><path style="stroke-width:1.42 ;&st7;   " d=" M  2949.01,   460.14  C  2946.50    460.14   2944.47    462.17   2944.47    464.67  " /><path style="stroke-width:1.42 ;&st7;   " d=" M  2944.47,   464.67  C  2944.47    467.18   2946.50    469.21   2949.01    469.21  " /><path style="stroke-width:1.42 ;&st7;   " d=" M  2949.01,   469.21  C  2951.51    469.21   2953.54    467.18   2953.54    464.67  " /><text style="&st18;" transform="matrix(&st16;  2991.3  492.71 )">1</text><text style="&st18;" transform="matrix(&st16;  2997.58  492.71 )">C</text><path style="stroke-width:1.42 ;&st7;   " d=" M  3004.53,   490.74  C  3004.53    488.23   3002.50    486.20   3000.00    486.20  " /><path style="stroke-width:1.42 ;&st7;   " d=" M  3000.00,   486.20  C  2997.50    486.20   2995.47    488.23   2995.47    490.74  " /><path style="stroke-width:1.42 ;&st7;   " d=" M  2995.47,   490.74  C  2995.47    493.24   2997.50    495.27   3000.00    495.27  " /><path style="stroke-width:1.42 ;&st7;   " d=" M  3000.00,   495.27  C  3002.50    495.27   3004.53    493.24   3004.53    490.74  " /><text style="&st18;" transform="matrix(&st16;  2991.3  466.64 )">1</text><text style="&st18;" transform="matrix(&st16;  2997.81  466.64 )">B</text><path style="stroke-width:1.42 ;&st7;   " d=" M  3004.53,   464.67  C  3004.53    462.17   3002.50    460.14   3000.00    460.14  " /><path style="stroke-width:1.42 ;&st7;   " d=" M  3000.00,   460.14  C  2997.50    460.14   2995.47    462.17   2995.47    464.67  " /><path style="stroke-width:1.42 ;&st7;   " d=" M  2995.47,   464.67  C  2995.47    467.18   2997.50    469.21   3000.00    469.21  " /><path style="stroke-width:1.42 ;&st7;   " d=" M  3000.00,   469.21  C  3002.50    469.21   3004.53    467.18   3004.53    464.67  " /><g ewd:figtype="title"><text style="&st18;" transform="matrix(&st17;  3023.22  489.11 )" ewd:textID="23">No. 2 CAN Junction <tspan x="0 " dy="6.0">Connector</tspan></text><text style="&st18;" transform="matrix(&st17;  3016.39  489.1 )">I81(B),I82(C)</text></g></g><g ewd:figtype="conn" ewd:figID="15" ewd:code="A23"><path style="stroke-width:1.42 ;&st7;  " d=" M  2753.54,   554.19  L  2770.54,   554.19  L  2770.54,   571.19  L  2753.54,   571.19  L  2753.54,   554.19  " /><path style="stroke-width:0.85 ;&st7;  " d=" M  2762.04,   554.19  L  2762.04,   571.19  " /><text style="&st18;" transform="matrix(&st16;  2753.34  577.69 )">1</text><text style="&st18;" transform="matrix(&st16;  2759.73  577.69 )">A</text><path style="stroke-width:1.42 ;&st7;   " d=" M  2766.57,   575.72  C  2766.57    573.22   2764.54    571.19   2762.04    571.19  " /><path style="stroke-width:1.42 ;&st7;   " d=" M  2762.04,   571.19  C  2759.54    571.19   2757.51    573.22   2757.51    575.72  " /><path style="stroke-width:1.42 ;&st7;   " d=" M  2757.51,   575.72  C  2757.51    578.23   2759.54    580.26   2762.04    580.26  " /><path style="stroke-width:1.42 ;&st7;   " d=" M  2762.04,   580.26  C  2764.54    580.26   2766.57    578.23   2766.57    575.72  " /><text style="&st18;" transform="matrix(&st16;  2753.34  551.63 )">3</text><text style="&st18;" transform="matrix(&st16;  2759.73  551.63 )">A</text><path style="stroke-width:1.42 ;&st7;   " d=" M  2766.57,   549.66  C  2766.57    547.16   2764.54    545.13   2762.04    545.13  " /><path style="stroke-width:1.42 ;&st7;   " d=" M  2762.04,   545.13  C  2759.54    545.13   2757.51    547.16   2757.51    549.66  " /><path style="stroke-width:1.42 ;&st7;   " d=" M  2757.51,   549.66  C  2757.51    552.16   2759.54    554.19   2762.04    554.19  " /><path style="stroke-width:1.42 ;&st7;   " d=" M  2762.04,   554.19  C  2764.54    554.19   2766.57    552.16   2766.57    549.66  " /><g ewd:figtype="title"><text style="&st18;" transform="matrix(&st17;  2778.43  574.09 )">A23(A)</text><text style="&st18;" transform="matrix(&st17;  2785.25  574.1 )" ewd:textID="24">No. 2 Junction <tspan x="0 " dy="6.0">Connector</tspan></text></g></g><g ewd:figtype="conn" ewd:figID="23" ewd:code="A25,A26"><path style="stroke-width:1.42 ;&st7;  " d=" M  2940.51,   231.25  L  2940.51,   248.24  L  3008.50,   248.24  L  3008.50,   231.25  L  2940.51,   231.25  " /><path style="stroke-width:1.42 ;&st7;  " d=" M  2940.51,   239.75  L  3008.50,   239.75  " /><text style="&st18;" transform="matrix(&st16;  2940.31  254.75 )">3</text><path style="stroke-width:1.42 ;&st7;   " d=" M  2953.54,   252.78  C  2953.54    250.27   2951.51    248.24   2949.01    248.24  " /><path style="stroke-width:1.42 ;&st7;   " d=" M  2949.01,   248.24  C  2946.50    248.24   2944.47    250.27   2944.47    252.78  " /><path style="stroke-width:1.42 ;&st7;   " d=" M  2944.47,   252.78  C  2944.47    255.28   2946.50    257.31   2949.01    257.31  " /><path style="stroke-width:1.42 ;&st7;   " d=" M  2949.01,   257.31  C  2951.51    257.31   2953.54    255.28   2953.54    252.78  " /><text style="&st18;" transform="matrix(&st16;  2946.7  254.75 )">A</text><text style="&st18;" transform="matrix(&st16;  2940.31  228.68 )">3</text><text style="&st18;" transform="matrix(&st16;  2946.82  228.68 )">B</text><path style="stroke-width:1.42 ;&st7;   " d=" M  2953.54,   226.71  C  2953.54    224.21   2951.51    222.18   2949.01    222.18  " /><path style="stroke-width:1.42 ;&st7;   " d=" M  2949.01,   222.18  C  2946.50    222.18   2944.47    224.21   2944.47    226.71  " /><path style="stroke-width:1.42 ;&st7;   " d=" M  2944.47,   226.71  C  2944.47    229.22   2946.50    231.25   2949.01    231.25  " /><path style="stroke-width:1.42 ;&st7;   " d=" M  2949.01,   231.25  C  2951.51    231.25   2953.54    229.22   2953.54    226.71  " /><text style="&st18;" transform="matrix(&st16;  2991.3  254.75 )">4</text><text style="&st18;" transform="matrix(&st16;  2997.69  254.75 )">A</text><path style="stroke-width:1.42 ;&st7;   " d=" M  3004.53,   252.78  C  3004.53    250.27   3002.50    248.24   3000.00    248.24  " /><path style="stroke-width:1.42 ;&st7;   " d=" M  3000.00,   248.24  C  2997.50    248.24   2995.47    250.27   2995.47    252.78  " /><path style="stroke-width:1.42 ;&st7;   " d=" M  2995.47,   252.78  C  2995.47    255.28   2997.50    257.31   3000.00    257.31  " /><path style="stroke-width:1.42 ;&st7;   " d=" M  3000.00,   257.31  C  3002.50    257.31   3004.53    255.28   3004.53    252.78  " /><text style="&st18;" transform="matrix(&st16;  2991.3  228.68 )">4</text><path style="stroke-width:1.42 ;&st7;   " d=" M  3004.53,   226.71  C  3004.53    224.21   3002.50    222.18   3000.00    222.18  " /><path style="stroke-width:1.42 ;&st7;   " d=" M  3000.00,   222.18  C  2997.50    222.18   2995.47    224.21   2995.47    226.71  " /><path style="stroke-width:1.42 ;&st7;   " d=" M  2995.47,   226.71  C  2995.47    229.22   2997.50    231.25   3000.00    231.25  " /><path style="stroke-width:1.42 ;&st7;   " d=" M  3000.00,   231.25  C  3002.50    231.25   3004.53    229.22   3004.53    226.71  " /><text style="&st18;" transform="matrix(&st16;  2997.81  228.68 )">B</text><g ewd:figtype="title"><text style="&st18;" transform="matrix(&st16;  3010.75  233.47 )">A25(A),A26(B)</text><text style="&st18;" transform="matrix(&st16;  3010.76  240.3 )" ewd:textID="13">Brake Vacuum <tspan x="0 " dy="6.0">Check Valve Assembly</tspan></text></g></g><g ewd:figtype="w2w" ewd:figID="122" ewd:code="TV2"><path style="stroke-width:1.42 ;&st7;  " d=" M  2562.32,   333.80  L  2558.07,   329.55  L  2553.82,   333.80  " /><path style="stroke-width:1.42 ;&st7;  " d=" M  2562.32,   330.40  L  2558.07,   326.15  L  2553.82,   330.40  " /><text style="&st18;" transform="matrix(&st16;  2542.34  322.45 )">10</text></g><g ewd:figtype="w2w" ewd:figID="123" ewd:code="TS4"><path style="stroke-width:1.42 ;&st7;  " d=" M  2562.32,   251.08  L  2558.07,   255.33  L  2553.82,   251.08  " /><path style="stroke-width:1.42 ;&st7;  " d=" M  2553.82,   247.68  L  2558.07,   251.93  L  2562.32,   247.68  " /><text style="&st18;" transform="matrix(&st16;  2545.44  262.96 )">2</text></g><g ewd:figtype="w2w" ewd:figID="124" ewd:code="AC1"><path style="stroke-width:1.42 ;&st7;  " d=" M  2757.79,   468.64  L  2762.04,   472.89  L  2766.29,   468.64  " /><path style="stroke-width:1.42 ;&st7;  " d=" M  2766.29,   472.04  L  2762.04,   476.29  L  2757.79,   472.04  " /><text style="&st18;" transform="matrix(&st16;  2749.41  483.92 )">9</text></g><g ewd:code="AC1" ewd:figID="125" ewd:comment="2" ewd:figtype="w2w"><path style="stroke-width:1.42 ;&st7;  " d=" M  2766.29,   279.41  L  2762.04,   275.16  L  2757.79,   279.41  " /><path style="stroke-width:1.42 ;&st7;  " d=" M  2766.29,   282.80  L  2762.04,   278.56  L  2757.79,   282.80  " /><text style="&st18;" transform="matrix(&st16;  2749.41  271.46 )">6</text><g ewd:code="" ewd:figID="258" ewd:comment="2" ewd:figtype="commref"><text style="&st18;" transform="matrix(&st16;  2771.07  271.46 )">(*2)</text></g></g><g ewd:code="AC5" ewd:figID="126" ewd:comment="1" ewd:figtype="w2w"><text style="&st18;" transform="matrix(&st16;  2746.3  262.96 )">11</text><g ewd:code="" ewd:figID="257" ewd:comment="1" ewd:figtype="commref"><text style="&st18;" transform="matrix(&st16;  2771.07  262.96 )">(RHD *1)</text></g></g><g ewd:code="IC3" ewd:figID="127" ewd:comment="1" ewd:figtype="w2w"><text style="&st18;" transform="matrix(&st16;  2749.41  254.46 )">8</text><g ewd:code="" ewd:figID="256" ewd:comment="1" ewd:figtype="commref"><text style="&st18;" transform="matrix(&st16;  2771.07  254.46 )">(LHD *1)</text></g></g><g ewd:figtype="w2w" ewd:figID="128" ewd:code="CA3"><path style="stroke-width:1.42 ;&st7;  " d=" M  2817.28,   290.17  L  2821.53,   294.42  L  2825.78,   290.17  " /><path style="stroke-width:1.42 ;&st7;  " d=" M  2825.78,   293.57  L  2821.53,   297.82  L  2817.28,   293.57  " /><text style="&st18;" transform="matrix(&st16;  2808.9  305.45 )">8</text></g><g ewd:figtype="w2w" ewd:figID="129" ewd:code="IA4"><text style="&st18;" transform="matrix(&st16;  2936.38  339.45 )">6</text></g><g ewd:figtype="w2w" ewd:figID="130" ewd:code="IA2"><path style="stroke-width:1.42 ;&st7;  " d=" M  2953.26,   319.07  L  2949.01,   323.31  L  2944.76,   319.07  " /><path style="stroke-width:1.42 ;&st7;  " d=" M  2944.76,   315.67  L  2949.01,   319.92  L  2953.26,   315.67  " /><text style="&st18;" transform="matrix(&st16;  2936.38  330.95 )">6</text></g><g ewd:figtype="w2w" ewd:figID="131" ewd:code="IA4"><text style="&st18;" transform="matrix(&st16;  2987.37  339.45 )">2</text></g><g ewd:figtype="w2w" ewd:figID="132" ewd:code="IA2"><path style="stroke-width:1.42 ;&st7;  " d=" M  3004.25,   319.07  L  3000.00,   323.31  L  2995.75,   319.07  " /><path style="stroke-width:1.42 ;&st7;  " d=" M  2995.75,   315.67  L  3000.00,   319.92  L  3004.25,   315.67  " /><text style="&st18;" transform="matrix(&st16;  2987.37  330.95 )">2</text></g><g ewd:figtype="gp" ewd:figID="166" ewd:code="CE"><path style="stroke-width: 0.85 ;&st7;  " d=" M  2668.55,   697.25  L  2668.55,   701.50  " /><path style="stroke-width: 0.85 ;&st7;  " d=" M  2660.05,   701.50  L  2677.05,   701.50  " /><path style="stroke-width: 0.85 ;&st7;  " d=" M  2664.30,   704.33  L  2672.80,   704.33  " /><path style="stroke-width: 0.85 ;&st7;  " d=" M  2665.72,   707.17  L  2671.39,   707.17  " /><path style="stroke-width: 0.85 ;&st7;  " d=" M  2667.14,   710.00  L  2669.97,   710.00  " /></g><g ewd:figtype="gp" ewd:figID="167" ewd:code="AA"><path style="stroke-width: 0.85 ;&st7;  " d=" M  2711.05,   697.25  L  2711.05,   701.50  " /><path style="stroke-width: 0.85 ;&st7;  " d=" M  2702.55,   701.50  L  2719.54,   701.50  " /><path style="stroke-width: 0.85 ;&st7;  " d=" M  2706.80,   704.33  L  2715.30,   704.33  " /><path style="stroke-width: 0.85 ;&st7;  " d=" M  2708.21,   707.17  L  2713.88,   707.17  " /><path style="stroke-width: 0.85 ;&st7;  " d=" M  2709.63,   710.00  L  2712.46,   710.00  " /></g><g ewd:figtype="gp" ewd:figID="168" ewd:code="CA"><path style="stroke-width: 0.85 ;&st7;  " d=" M  2804.53,   697.25  L  2804.53,   701.50  " /><path style="stroke-width: 0.85 ;&st7;  " d=" M  2796.03,   701.50  L  2813.03,   701.50  " /><path style="stroke-width: 0.85 ;&st7;  " d=" M  2800.28,   704.33  L  2808.78,   704.33  " /><path style="stroke-width: 0.85 ;&st7;  " d=" M  2801.70,   707.17  L  2807.36,   707.17  " /><path style="stroke-width: 0.85 ;&st7;  " d=" M  2803.11,   710.00  L  2805.95,   710.00  " /></g></svg>