<?xml version="1.0" encoding="utf-8"?>
<!DOCTYPE svg PUBLIC "-//W3C//DTD SVG 1.0//EN" "http://www.w3.org/TR/2001/REC-SVG-20010904/DTD/svg10.dtd"[
	<!ENTITY ns_flows "http://ns.adobe.com/Flows/1.0/">
	<!ENTITY ns_svg "http://www.w3.org/2000/svg">
	<!ENTITY ns_xlink "http://www.w3.org/1999/xlink">
	<!ENTITY st0 "font-size:7px;font-family:'MS-PGothic';adobe-font-script:japanese;">
	<!ENTITY st1 "font-size:6px;font-family:'ArialMT';">
	<!-- White fill  -->
	<!ENTITY st2 "fill:#FFFFFF;stroke:#000000; stroke-width:1.41;stroke-linecap:round;stroke-linejoin:round;">
	<!-- Yellow fill  -->
	<!ENTITY st3 "fill:#FFFFCC;stroke:#FFFFCC; stroke-width:0.1;stroke-linecap:round;stroke-linejoin:round;">
	<!-- Gray fill  -->
	<!ENTITY st4 "fill:#CCCCCC;stroke:#CCCCCC; stroke-width:0.1;stroke-linecap:round;stroke-linejoin:round;">
	<!-- Light-blue fill -->
	<!ENTITY st5 "fill:#CCECF4;stroke:#000000; stroke-width:1.133;stroke-linecap:round;stroke-linejoin:round;">
	<!ENTITY st6 "fill:none;stroke-linecap:butt; stroke-linejoin:round;">
	<!ENTITY st7 "fill:none;stroke:#000000;stroke-linecap:round;stroke-linejoin:round;">
	<!ENTITY st8 "enable-background:new    ;">
	<!-- Black fill -->
	<!ENTITY st9 "fill:#000000;stroke:#000000; stroke-linecap:round;stroke-linejoin:round;">
	<!-- SRS note   -->
	<!ENTITY st10 "font-size:9px;font-family:'ArialMT';">
	<!ENTITY st11 "font-size:9px;font-family:'Svg Symbol';">
	<!ENTITY st12 "font-size:6px;font-family:'Svg Symbol';">
	<!ENTITY st13 "fill:none;stroke:#ff0000;stroke-linecap:round;stroke-linejoin:round;">
	<!-- Yellow fill  -->
	<!ENTITY st14 "fill:#FFFF00;stroke:#FFFF00; stroke-width:0.1;stroke-linecap:round;stroke-linejoin:round;">
	<!ENTITY st15 "font-size:6px;font-family:'MS-PGothic';adobe-font-script:japanese;">
	<!ENTITY st16 "1.00 0.00 0.00 1.00">
	<!ENTITY st17 "0.00 -1.00 1.00 0.00">
	<!ENTITY st18 "font-size:6px;font-family:'Arial';">
	<!ENTITY st19 "font-size:9px;font-family:'Arial';">
	<!ENTITY st20 "font-size:6px;font-family:'MS-PGothic','MS PGothic';adobe-font-script:japanese;">
	<!ENTITY st21 "font-size:7px;font-family:'MS-PGothic','MS PGothic';adobe-font-script:japanese;">
	<!ATTLIST svg
		xmlns:ewd CDATA #FIXED "http://shcl.co.jp/ewd"
		xmlns:a CDATA #FIXED "http://ns.adobe.com/AdobeSVGViewerExtensions/3.0/"
		ewd:ver CDATA #IMPLIED
	>
	<!ATTLIST a
		ewd:lineID CDATA #IMPLIED
		ewd:groupID CDATA #IMPLIED
		ewd:figtype CDATA #IMPLIED
		ewd:code CDATA #IMPLIED
		ewd:figID CDATA #IMPLIED
		ewd:pinNo CDATA #IMPLIED
		ewd:comment CDATA #IMPLIED >
	<!ATTLIST g
		ewd:lineID CDATA #IMPLIED
		ewd:groupID CDATA #IMPLIED
		ewd:figtype CDATA #IMPLIED
		ewd:code CDATA #IMPLIED
		ewd:figID CDATA #IMPLIED
		ewd:pinNo CDATA #IMPLIED
		ewd:comment CDATA #IMPLIED >
	<!ATTLIST text
		ewd:textID CDATA #IMPLIED >
	<!ATTLIST title
		ewd:textID CDATA #IMPLIED >
]>
<!-- Generator: Shintec Hozumi YS   -->
<svg onload="call_execInitLoadProc_svg('system')" style="overflow:visible;  enable-background:new 0 0 6697.589 710.000" viewBox="0 0 6697.589 710.000" height="710.000" width="6697.589" xml:space="preserve" ewd:ver="2.1.2.9" xmlns="&ns_svg;" xmlns:a="http://ns.adobe.com/AdobeSVGViewerExtensions/3.0/" xmlns:ewd="http://shcl.co.jp/ewd" xmlns:xlink="&ns_xlink;">
<text style="&st18;" transform="matrix(&st16;  2614.6  592.99 )">W</text><path style="stroke-width:1.42 ;&st7;  " d=" M  2711.05,   452.21  L  2719.55,   452.21  " /><text style="&st18;" transform="matrix(&st16;  2560.7  609.99 )">G-R</text><text style="&st18;" transform="matrix(&st16;  2611.69  609.99 )">G-R</text><text style="&st18;" transform="matrix(&st16;  2563.61  592.99 )">W</text><text style="&st18;" transform="matrix(&st17;  2715.85  346.91 )">B-Y</text><text style="&st18;" transform="matrix(&st16;  2611.88  176.56 )">B-Y</text><text style="&st18;" transform="matrix(&st16;  2560.89  176.56 )">B-Y</text><text style="&st18;" transform="matrix(&st17;  2715.85  487.13 )">B-Y</text><path style="stroke-width:1.42 ;&st7;  " d=" M  2716.02,   171.76  L  2711.05,   176.73  " /><path style="stroke-width:1.42 ;&st7;  " d=" M  2723.07,   188.75  L  2728.04,   183.78  " /><path style="stroke-width:1.42 ;&st7;  " d=" M  2711.05,   183.78  L  2716.02,   188.75  " /><path style="stroke-width:1.42 ;&st7;  " d=" M  2728.04,   176.73  L  2723.07,   171.76  " /><text style="&st18;" transform="matrix(&st16;  2611.88  202.05 )">B-Y</text><text style="&st18;" transform="matrix(&st16;  2560.89  202.05 )">B-Y</text><text style="&st18;" transform="matrix(&st16;  2612.08  125.57 )">R-L</text><text style="&st18;" transform="matrix(&st16;  2561.09  125.57 )">R-L</text><text style="&st18;" transform="matrix(&st17;  2826.33  457.27 )">L-Y</text><text style="&st18;" transform="matrix(&st17;  2800.84  458.44 )">G-W</text><text style="&st18;" transform="matrix(&st17;  2851.83  457.39 )">Y-B</text><text style="&st18;" transform="matrix(&st17;  2843.33  254.12 )">W-R</text><text style="&st18;" transform="matrix(&st17;  2877.32  253.23 )">L-R</text><text style="&st18;" transform="matrix(&st17;  2877.32  347.57 )">L-W</text><text style="&st18;" transform="matrix(&st17;  2962.31  347.6 )">W-R</text><text style="&st18;" transform="matrix(&st17;  2928.31  346.71 )">L-R</text><text style="&st18;" transform="matrix(&st17;  2987.8  454.67 )">W</text><text style="&st18;" transform="matrix(&st17;  2953.81  453.9 )">B</text><text style="&st18;" transform="matrix(&st17;  2800.84  346.34 )">B-Y</text><path style="stroke-width:1.42 ;&st7;  " d=" M  2974.50,   193.73  L  2969.53,   188.75  " /><path style="stroke-width:1.42 ;&st7;  " d=" M  2957.51,   200.78  L  2962.48,   205.75  " /><path style="stroke-width:1.42 ;&st7;  " d=" M  2969.53,   205.75  L  2974.50,   200.78  " /><path style="stroke-width:1.42 ;&st7;  " d=" M  2962.48,   188.75  L  2957.51,   193.73  " /><path style="stroke-width:1.42 ;&st7;  " d=" M  2940.51,   219.22  L  2935.54,   214.25  " /><path style="stroke-width:1.42 ;&st7;  " d=" M  2923.51,   226.28  L  2928.48,   231.25  " /><path style="stroke-width:1.42 ;&st7;  " d=" M  2935.54,   231.25  L  2940.51,   226.28  " /><path style="stroke-width:1.42 ;&st7;  " d=" M  2928.48,   214.25  L  2923.51,   219.22  " /><text style="&st18;" transform="matrix(&st17;  2727.18  486.67 )">(*2)</text><text style="&st18;" transform="matrix(&st17;  2727.18  353.61 )">(RHD *2)</text><text style="&st18;" transform="matrix(&st17;  2812.17  353.61 )">(RHD *2)</text><text style="&st18;" transform="matrix(&st16;  2554.19  213.39 )">(RHD *2)</text><text style="&st18;" transform="matrix(&st16;  2605.18  213.39 )">(RHD *2)</text><text style="&st18;" transform="matrix(&st16;  2554.19  187.89 )">(RHD *2)</text><text style="&st18;" transform="matrix(&st16;  2605.18  187.89 )">(RHD *2)</text><text style="&st18;" transform="matrix(&st16;  2615.37  626.98 )">B</text><text style="&st18;" transform="matrix(&st16;  2660.46  502.34 )">(LHD *3)</text><text style="&st18;" transform="matrix(&st16;  2667.13  491.01 )">B-Y</text><text style="&st18;" transform="matrix(&st16;  2609.25  281.37 )">(LHD)</text><text style="&st18;" transform="matrix(&st16;  2611.88  270.04 )">B-Y</text><text style="&st18;" transform="matrix(&st16;  2609.25  255.88 )">(LHD)</text><text style="&st18;" transform="matrix(&st16;  2611.88  244.55 )">B-Y</text><text style="&st18;" transform="matrix(&st16;  2558.26  255.88 )">(LHD)</text><text style="&st18;" transform="matrix(&st16;  2560.89  244.55 )">B-Y</text><text style="&st18;" transform="matrix(&st16;  2558.26  281.37 )">(LHD)</text><text style="&st18;" transform="matrix(&st16;  2560.89  270.04 )">B-Y</text><text style="&st18;" transform="matrix(&st16;  2564.38  626.98 )">B</text><path style="stroke-width:1.42 ;&st7;  " d=" M  2660.06,   460.71  L  2651.56,   460.71  " /><text style="&st18;" transform="matrix(&st16;  2563.61  83.07 )">W</text><text style="&st18;" transform="matrix(&st16;  2564.38  57.58 )">B</text><text style="&st18;" transform="matrix(&st16;  2615.37  57.58 )">B</text><text style="&st18;" transform="matrix(&st16;  2614.6  83.07 )">W</text><text style="&st18;" transform="matrix(&st16;  2561.36  162.39 )">(*6)</text><text style="&st18;" transform="matrix(&st16;  2561.09  151.06 )">R-L</text><text style="&st18;" transform="matrix(&st16;  2612.08  151.06 )">R-L</text><text style="&st18;" transform="matrix(&st16;  2612.35  162.39 )">(*6)</text><text style="&st18;" transform="matrix(&st17;  2715.85  662.13 )">W-B</text><path style="stroke-width:1.42 ;&st7;  " d=" M  2660.06,   401.22  L  2651.56,   401.22  " /><text style="&st18;" transform="matrix(&st17;  2647.86  431.89 )">B-Y</text><text style="&st18;" transform="matrix(&st17;  2659.19  438.56 )">(LHD *3)</text><text style="&st18;" transform="matrix(&st17;  2673.36  363.9 )">B-Y</text><text style="&st18;" transform="matrix(&st17;  2659.19  370.57 )">(LHD *3)</text><text style="&st18;" transform="matrix(&st17;  2647.86  363.9 )">B-Y</text><text style="&st18;" transform="matrix(&st17;  2684.69  370.57 )">(LHD *2)</text><text style="&st18;" transform="matrix(&st17;  2673.36  662.13 )">W-B</text><text style="&st18;" transform="matrix(&st17;  2684.69  660.89 )">(*3)</text><text style="&st18;" transform="matrix(&st17;  2727.18  660.89 )">(*2)</text><g ewd:figtype="conn" ewd:figID="17" ewd:code="C36"><path style="stroke-width:0.85 ;&st7;  " d=" M  2719.55,   524.45  L  2719.55,   520.20  " /><path style="stroke-width:0.85 ;&st7;  " d=" M  2719.55,   554.19  L  2719.55,   549.94  " /><path style="stroke-width:1.42 ;&st7;  " d=" M  2719.55,   547.11  L  2725.21,   524.45  " /><path style="stroke-width:1.42 ;&st7;  " d=" M  2728.04,   554.19  L  2728.04,   520.20  L  2711.05,   520.20  L  2711.05,   554.19  L  2728.04,   554.19  " /><path style="stroke-width:0.85 ;&st7;   " d=" M  2720.96,   525.86  C  2720.96    525.08   2720.33    524.45   2719.55    524.45  " /><path style="stroke-width:0.85 ;&st7;   " d=" M  2719.55,   524.45  C  2718.76    524.45   2718.13    525.08   2718.13    525.86  " /><path style="stroke-width:0.85 ;&st7;   " d=" M  2718.13,   525.86  C  2718.13    526.65   2718.76    527.28   2719.55    527.28  " /><path style="stroke-width:0.85 ;&st7;   " d=" M  2719.55,   527.28  C  2720.33    527.28   2720.96    526.65   2720.96    525.86  " /><path style="stroke-width:0.85 ;&st7;   " d=" M  2720.96,   548.53  C  2720.96    547.74   2720.33    547.11   2719.55    547.11  " /><path style="stroke-width:0.85 ;&st7;   " d=" M  2719.55,   547.11  C  2718.76    547.11   2718.13    547.74   2718.13    548.53  " /><path style="stroke-width:0.85 ;&st7;   " d=" M  2718.13,   548.53  C  2718.13    549.31   2718.76    549.94   2719.55    549.94  " /><path style="stroke-width:0.85 ;&st7;   " d=" M  2719.55,   549.94  C  2720.33    549.94   2720.96    549.31   2720.96    548.53  " /><text style="&st18;" transform="matrix(&st16;  2710.85  560.69 )">1</text><path style="stroke-width:1.42 ;&st7;   " d=" M  2724.08,   558.73  C  2724.08    556.22   2722.05    554.19   2719.55    554.19  " /><path style="stroke-width:1.42 ;&st7;   " d=" M  2719.55,   554.19  C  2717.04    554.19   2715.01    556.22   2715.01    558.73  " /><path style="stroke-width:1.42 ;&st7;   " d=" M  2715.01,   558.73  C  2715.01    561.23   2717.04    563.26   2719.55    563.26  " /><path style="stroke-width:1.42 ;&st7;   " d=" M  2719.55,   563.26  C  2722.05    563.26   2724.08    561.23   2724.08    558.73  " /><text style="&st18;" transform="matrix(&st16;  2717.36  560.69 )">B</text><text style="&st18;" transform="matrix(&st16;  2710.85  517.64 )">2</text><path style="stroke-width:1.42 ;&st7;   " d=" M  2724.08,   515.67  C  2724.08    513.16   2722.05    511.13   2719.55    511.13  " /><path style="stroke-width:1.42 ;&st7;   " d=" M  2719.55,   511.13  C  2717.04    511.13   2715.01    513.16   2715.01    515.67  " /><path style="stroke-width:1.42 ;&st7;   " d=" M  2715.01,   515.67  C  2715.01    518.17   2717.04    520.20   2719.55    520.20  " /><path style="stroke-width:1.42 ;&st7;   " d=" M  2719.55,   520.20  C  2722.05    520.20   2724.08    518.17   2724.08    515.67  " /><text style="&st18;" transform="matrix(&st16;  2717.36  517.64 )">B</text><g ewd:figtype="title"><text style="&st18;" transform="matrix(&st17;  2735.94  557.09 )">C36(B)</text><text style="&st18;" transform="matrix(&st17;  2742.76  557.1 )" ewd:textID="59">Transfer L4 Position Switch <tspan x="0 " dy="6.0">(No. 1 Transfer Indicator Switch)</tspan></text></g></g><g ewd:figtype="conn" ewd:figID="24" ewd:code="A29,C39"><path style="stroke-width:1.42 ;&st7;  " d=" M  3356.94,   375.72  L  3356.94,   409.72  L  2787.53,   409.72  L  2787.53,   375.72  L  3356.94,   375.72  " /><g ewd:lineID="108"><text style="&st18;" transform="matrix(&st16;  2792.74  416.22 )">94</text><path style="stroke-width:1.42 ;&st7;   " d=" M  2809.06,   414.25  C  2809.06    411.75   2807.03    409.72   2804.53    409.72  " /><path style="stroke-width:1.42 ;&st7;   " d=" M  2804.53,   409.72  C  2802.03    409.72   2800.00    411.75   2800.00    414.25  " /><path style="stroke-width:1.42 ;&st7;   " d=" M  2800.00,   414.25  C  2800.00    416.75   2802.03    418.78   2804.53    418.78  " /><path style="stroke-width:1.42 ;&st7;   " d=" M  2804.53,   418.78  C  2807.03    418.78   2809.06    416.75   2809.06    414.25  " /><text style="&st18;" transform="matrix(&st16;  2802.34  416.22 )">B</text><text style="&st18;" transform="matrix(&st16;  2798.16  406.02 )">EVG</text></g><g ewd:lineID="109"><text style="&st18;" transform="matrix(&st16;  2792.74  373.16 )">19</text><path style="stroke-width:1.42 ;&st7;   " d=" M  2809.06,   371.19  C  2809.06    368.69   2807.03    366.66   2804.53    366.66  " /><path style="stroke-width:1.42 ;&st7;   " d=" M  2804.53,   366.66  C  2802.03    366.66   2800.00    368.69   2800.00    371.19  " /><path style="stroke-width:1.42 ;&st7;   " d=" M  2800.00,   371.19  C  2800.00    373.69   2802.03    375.72   2804.53    375.72  " /><path style="stroke-width:1.42 ;&st7;   " d=" M  2804.53,   375.72  C  2807.03    375.72   2809.06    373.69   2809.06    371.19  " /><text style="&st18;" transform="matrix(&st16;  2802.23  373.16 )">A</text><text style="&st18;" transform="matrix(&st16;  2800.91  383.36 )">L4</text></g><g ewd:lineID="110"><text style="&st18;" transform="matrix(&st16;  2818.23  416.22 )">71</text><path style="stroke-width:1.42 ;&st7;   " d=" M  2834.56,   414.25  C  2834.56    411.75   2832.53    409.72   2830.03    409.72  " /><path style="stroke-width:1.42 ;&st7;   " d=" M  2830.03,   409.72  C  2827.52    409.72   2825.49    411.75   2825.49    414.25  " /><path style="stroke-width:1.42 ;&st7;   " d=" M  2825.49,   414.25  C  2825.49    416.75   2827.52    418.78   2830.03    418.78  " /><path style="stroke-width:1.42 ;&st7;   " d=" M  2830.03,   418.78  C  2832.53    418.78   2834.56    416.75   2834.56    414.25  " /><text style="&st18;" transform="matrix(&st16;  2827.84  416.22 )">B</text><text style="&st18;" transform="matrix(&st16;  2825.51  406.02 )">VG</text></g><g ewd:lineID="111"><text style="&st18;" transform="matrix(&st16;  2840.63  416.22 )">115</text><text style="&st18;" transform="matrix(&st16;  2853.33  416.22 )">B</text><path style="stroke-width:1.42 ;&st7;   " d=" M  2860.06,   414.25  C  2860.06    411.75   2858.03    409.72   2855.52    409.72  " /><path style="stroke-width:1.42 ;&st7;   " d=" M  2855.52,   409.72  C  2853.02    409.72   2850.99    411.75   2850.99    414.25  " /><path style="stroke-width:1.42 ;&st7;   " d=" M  2850.99,   414.25  C  2850.99    416.75   2853.02    418.78   2855.52    418.78  " /><path style="stroke-width:1.42 ;&st7;   " d=" M  2855.52,   418.78  C  2858.03    418.78   2860.06    416.75   2860.06    414.25  " /><text style="&st18;" transform="matrix(&st16;  2849.03  406.02 )">THA</text></g><g ewd:lineID="112"><text style="&st18;" transform="matrix(&st16;  2869.22  373.16 )">64</text><path style="stroke-width:1.42 ;&st7;   " d=" M  2885.55,   371.19  C  2885.55    368.69   2883.52    366.66   2881.02    366.66  " /><path style="stroke-width:1.42 ;&st7;   " d=" M  2881.02,   366.66  C  2878.52    366.66   2876.49    368.69   2876.49    371.19  " /><path style="stroke-width:1.42 ;&st7;   " d=" M  2876.49,   371.19  C  2876.49    373.69   2878.52    375.72   2881.02    375.72  " /><path style="stroke-width:1.42 ;&st7;   " d=" M  2881.02,   375.72  C  2883.52    375.72   2885.55    373.69   2885.55    371.19  " /><text style="&st18;" transform="matrix(&st16;  2878.83  373.16 )">B</text><text style="&st18;" transform="matrix(&st16;  2874.76  383.36 )">VLU</text></g><g ewd:lineID="114"><text style="&st18;" transform="matrix(&st16;  2917.11  373.16 )">110</text><text style="&st18;" transform="matrix(&st16;  2929.82  373.16 )">B</text><path style="stroke-width:1.42 ;&st7;   " d=" M  2936.54,   371.19  C  2936.54    368.69   2934.51    366.66   2932.01    366.66  " /><path style="stroke-width:1.42 ;&st7;   " d=" M  2932.01,   366.66  C  2929.51    366.66   2927.48    368.69   2927.48    371.19  " /><path style="stroke-width:1.42 ;&st7;   " d=" M  2927.48,   371.19  C  2927.48    373.69   2929.51    375.72   2932.01    375.72  " /><path style="stroke-width:1.42 ;&st7;   " d=" M  2932.01,   375.72  C  2934.51    375.72   2936.54    373.69   2936.54    371.19  " /><text style="&st18;" transform="matrix(&st16;  2923.66  383.36 )">VCVL</text></g><g ewd:lineID="115"><text style="&st18;" transform="matrix(&st16;  2945.71  416.22 )">78</text><path style="stroke-width:1.42 ;&st7;   " d=" M  2962.04,   414.25  C  2962.04    411.75   2960.01    409.72   2957.51    409.72  " /><path style="stroke-width:1.42 ;&st7;   " d=" M  2957.51,   409.72  C  2955.00    409.72   2952.97    411.75   2952.97    414.25  " /><path style="stroke-width:1.42 ;&st7;   " d=" M  2952.97,   414.25  C  2952.97    416.75   2955.00    418.78   2957.51    418.78  " /><path style="stroke-width:1.42 ;&st7;   " d=" M  2957.51,   418.78  C  2960.01    418.78   2962.04    416.75   2962.04    414.25  " /><text style="&st18;" transform="matrix(&st16;  2955.32  416.22 )">B</text><text style="&st18;" transform="matrix(&st16;  2951.79  406.02 )">NE+</text></g><g ewd:lineID="117"><text style="&st18;" transform="matrix(&st16;  2954.21  373.16 )">87</text><path style="stroke-width:1.42 ;&st7;   " d=" M  2970.54,   371.19  C  2970.54    368.69   2968.51    366.66   2966.00    366.66  " /><path style="stroke-width:1.42 ;&st7;   " d=" M  2966.00,   366.66  C  2963.50    366.66   2961.47    368.69   2961.47    371.19  " /><path style="stroke-width:1.42 ;&st7;   " d=" M  2961.47,   371.19  C  2961.47    373.69   2963.50    375.72   2966.00    375.72  " /><path style="stroke-width:1.42 ;&st7;   " d=" M  2966.00,   375.72  C  2968.51    375.72   2970.54    373.69   2970.54    371.19  " /><text style="&st18;" transform="matrix(&st16;  2963.82  373.16 )">B</text><text style="&st18;" transform="matrix(&st16;  2957.88  383.36 )">EVLU</text></g><g ewd:lineID="119"><text style="&st18;" transform="matrix(&st16;  2979.7  416.22 )">77</text><path style="stroke-width:1.42 ;&st7;   " d=" M  2996.03,   414.25  C  2996.03    411.75   2994.00    409.72   2991.50    409.72  " /><path style="stroke-width:1.42 ;&st7;   " d=" M  2991.50,   409.72  C  2989.00    409.72   2986.97    411.75   2986.97    414.25  " /><path style="stroke-width:1.42 ;&st7;   " d=" M  2986.97,   414.25  C  2986.97    416.75   2989.00    418.78   2991.50    418.78  " /><path style="stroke-width:1.42 ;&st7;   " d=" M  2991.50,   418.78  C  2994.00    418.78   2996.03    416.75   2996.03    414.25  " /><text style="&st18;" transform="matrix(&st16;  2989.31  416.22 )">B</text><text style="&st18;" transform="matrix(&st16;  2985.78  406.02 )">NE-</text></g><g ewd:figtype="title"><text style="&st18;" transform="matrix(&st16;  2877.61  417.61 )">A29(A),C39(B)</text><text style="&st18;" transform="matrix(&st16;  2877.61  424.43 )">ECM</text></g></g><g ewd:figtype="conn" ewd:figID="25" ewd:code="C50"><path style="stroke-width:1.42 ;&st7;  " d=" M  2830.03,   307.73  L  2898.01,   307.73  L  2898.01,   273.74  L  2830.03,   273.74  L  2830.03,   307.73  " /><g ewd:lineID="112"><text style="&st18;" transform="matrix(&st16;  2874.83  315.93 )">3</text><text style="&st18;" transform="matrix(&st16;  2874.72  304.04 )">VTA</text></g><g ewd:lineID="113"><text style="&st18;" transform="matrix(&st16;  2874.83  270.05 )">1</text><text style="&st18;" transform="matrix(&st16;  2876.54  281.37 )">VC</text></g><g ewd:lineID="116"><text style="&st18;" transform="matrix(&st16;  2840.84  270.05 )">2</text><text style="&st18;" transform="matrix(&st16;  2843.36  281.37 )">E2</text></g><g ewd:figtype="title"><text style="&st18;" transform="matrix(&st17;  2905.91  310.63 )">C50</text><text style="&st18;" transform="matrix(&st17;  2912.73  310.64 )" ewd:textID="15">Diesel Throttle Body <tspan x="0 " dy="6.0">Assembly (Bank 1)</tspan></text></g></g><g ewd:figtype="conn" ewd:figID="26" ewd:code="C65"><path style="stroke-width:1.42 ;&st7;  " d=" M  2991.50,   307.73  L  3059.49,   307.73  L  3059.49,   273.74  L  2991.50,   273.74  L  2991.50,   307.73  " /></g><g ewd:figtype="conn" ewd:figID="28" ewd:code="C41"><path style="stroke-width:1.42 ;&st7;  " d=" M  2787.53,   528.70  L  2872.52,   528.70  L  2872.52,   494.70  L  2787.53,   494.70  L  2787.53,   528.70  " /><g ewd:lineID="108"><text style="&st18;" transform="matrix(&st16;  2798.35  491.01 )">2</text><text style="&st18;" transform="matrix(&st16;  2798.66  502.34 )">E2G</text></g><g ewd:lineID="110"><text style="&st18;" transform="matrix(&st16;  2823.84  491.01 )">1</text><text style="&st18;" transform="matrix(&st16;  2825.51  502.34 )">VG</text></g><g ewd:lineID="111"><text style="&st18;" transform="matrix(&st16;  2849.34  491.01 )">4</text><text style="&st18;" transform="matrix(&st16;  2849.03  502.34 )">THA</text></g><g ewd:figtype="title"><text style="&st18;" transform="matrix(&st17;  2880.41  531.6 )">C41</text><text style="&st18;" transform="matrix(&st17;  2887.24  531.6 )" ewd:textID="21">Intake Mass Air Flow <tspan x="0 " dy="6.0">Meter Sub-Assembly</tspan></text></g></g><g ewd:figtype="conn" ewd:figID="30" ewd:code="C42"><path style="stroke-width:1.42 ;&st7;  " d=" M  2940.51,   528.70  L  3008.50,   528.70  L  3008.50,   494.70  L  2940.51,   494.70  L  2940.51,   528.70  " /><g ewd:lineID="115"><text style="&st18;" transform="matrix(&st16;  2951.32  491.01 )">1</text><text style="&st18;" transform="matrix(&st16;  2951.79  502.34 )">NE+</text></g><g ewd:lineID="118"><text style="&st18;" transform="matrix(&st16;  2985.32  536.89 )">3</text><text style="&st18;" transform="matrix(&st16;  2984.85  525.0 )">GND</text></g><g ewd:lineID="119"><text style="&st18;" transform="matrix(&st16;  2985.32  491.01 )">2</text><text style="&st18;" transform="matrix(&st16;  2985.78  502.34 )">NE-</text></g><g ewd:figtype="title"><text style="&st18;" transform="matrix(&st17;  2930.86  531.6 )" ewd:textID="14">Crank Position <tspan x="0 " dy="6.0">Sensor</tspan></text><text style="&st18;" transform="matrix(&st17;  2924.04  531.6 )">C42</text></g></g><g ewd:figtype="conn" ewd:figID="50" ewd:code="A43"><path style="stroke-width:1.42 ;&st7;  " d=" M  2643.06,   299.24  L  2643.06,   316.23  L  2685.55,   316.23  L  2685.55,   299.24  L  2643.06,   299.24  " /><path style="stroke-width:0.85 ;&st7;  " d=" M  2651.56,   299.24  L  2651.56,   316.23  " /><path style="stroke-width:0.85 ;&st7;  " d=" M  2677.05,   299.24  L  2677.05,   316.23  " /><path style="stroke-width:0.85 ;&st7;  " d=" M  2651.56,   307.73  L  2677.05,   307.73  " /><path style="stroke-width:0.85 ;&st7;  " d=" M  2650.36,   306.73  L  2650.09,   307.20  L  2650.00,   307.73  L  2650.09,   308.27  L  2650.36,   308.74  L  2650.78,   309.08  L  2651.28,   309.27  L  2651.83,   309.27  L  2652.33,   309.08  L  2652.75,   308.74  L  2653.02,   308.27  L  2653.11,   307.73  L  2653.02,   307.20  L  2652.75,   306.73  L  2652.33,   306.39  L  2651.83,   306.20  L  2651.28,   306.20  L  2650.78,   306.39  L  2650.36,   306.73  L  2650.76,   307.44  L  2650.76,   308.03  L  2651.13,   308.47  L  2651.70,   308.57  L  2652.21,   308.28  L  2652.41,   307.73  L  2652.21,   307.19  L  2651.70,   306.90  L  2651.13,   307.00  L  2651.56,   307.73  " /><path style="stroke-width:0.85 ;&st7;  " d=" M  2675.86,   306.73  L  2675.59,   307.20  L  2675.49,   307.73  L  2675.59,   308.27  L  2675.86,   308.74  L  2676.27,   309.08  L  2676.78,   309.27  L  2677.32,   309.27  L  2677.83,   309.08  L  2678.24,   308.74  L  2678.52,   308.27  L  2678.61,   307.73  L  2678.52,   307.20  L  2678.24,   306.73  L  2677.83,   306.39  L  2677.32,   306.20  L  2676.78,   306.20  L  2676.27,   306.39  L  2675.86,   306.73  L  2676.25,   307.44  L  2676.25,   308.03  L  2676.63,   308.47  L  2677.20,   308.57  L  2677.70,   308.28  L  2677.90,   307.73  L  2677.70,   307.19  L  2677.20,   306.90  L  2676.63,   307.00  L  2677.05,   307.73  " /><text style="&st18;" transform="matrix(&st16;  2642.86  322.73 )">6</text><path style="stroke-width:1.42 ;&st7;   " d=" M  2656.09,   320.77  C  2656.09    318.26   2654.06    316.23   2651.56    316.23  " /><path style="stroke-width:1.42 ;&st7;   " d=" M  2651.56,   316.23  C  2649.05    316.23   2647.02    318.26   2647.02    320.77  " /><path style="stroke-width:1.42 ;&st7;   " d=" M  2647.02,   320.77  C  2647.02    323.27   2649.05    325.30   2651.56    325.30  " /><path style="stroke-width:1.42 ;&st7;   " d=" M  2651.56,   325.30  C  2654.06    325.30   2656.09    323.27   2656.09    320.77  " /><text style="&st18;" transform="matrix(&st16;  2649.25  322.73 )">A</text><text style="&st18;" transform="matrix(&st16;  2668.36  322.73 )">5</text><text style="&st18;" transform="matrix(&st16;  2674.75  322.73 )">A</text><path style="stroke-width:1.42 ;&st7;   " d=" M  2681.59,   320.77  C  2681.59    318.26   2679.56    316.23   2677.05    316.23  " /><path style="stroke-width:1.42 ;&st7;   " d=" M  2677.05,   316.23  C  2674.55    316.23   2672.52    318.26   2672.52    320.77  " /><path style="stroke-width:1.42 ;&st7;   " d=" M  2672.52,   320.77  C  2672.52    323.27   2674.55    325.30   2677.05    325.30  " /><path style="stroke-width:1.42 ;&st7;   " d=" M  2677.05,   325.30  C  2679.56    325.30   2681.59    323.27   2681.59    320.77  " /><text style="&st18;" transform="matrix(&st16;  2668.36  296.67 )">1</text><text style="&st18;" transform="matrix(&st16;  2674.75  296.67 )">A</text><path style="stroke-width:1.42 ;&st7;   " d=" M  2681.59,   294.70  C  2681.59    292.20   2679.56    290.17   2677.05    290.17  " /><path style="stroke-width:1.42 ;&st7;   " d=" M  2677.05,   290.17  C  2674.55    290.17   2672.52    292.20   2672.52    294.70  " /><path style="stroke-width:1.42 ;&st7;   " d=" M  2672.52,   294.70  C  2672.52    297.21   2674.55    299.24   2677.05    299.24  " /><path style="stroke-width:1.42 ;&st7;   " d=" M  2677.05,   299.24  C  2679.56    299.24   2681.59    297.21   2681.59    294.70  " /><text style="&st18;" transform="matrix(&st16;  2642.86  296.67 )">2</text><text style="&st18;" transform="matrix(&st16;  2649.25  296.67 )">A</text><path style="stroke-width:1.42 ;&st7;   " d=" M  2656.09,   294.70  C  2656.09    292.20   2654.06    290.17   2651.56    290.17  " /><path style="stroke-width:1.42 ;&st7;   " d=" M  2651.56,   290.17  C  2649.05    290.17   2647.02    292.20   2647.02    294.70  " /><path style="stroke-width:1.42 ;&st7;   " d=" M  2647.02,   294.70  C  2647.02    297.21   2649.05    299.24   2651.56    299.24  " /><path style="stroke-width:1.42 ;&st7;   " d=" M  2651.56,   299.24  C  2654.06    299.24   2656.09    297.21   2656.09    294.70  " /><g ewd:figtype="title"><text style="&st18;" transform="matrix(&st17;  2700.27  319.14 )" ewd:textID="48">No. 34 Junction <tspan x="0 " dy="6.0">Connector</tspan></text><text style="&st18;" transform="matrix(&st17;  2693.45  319.13 )">A43(A)</text></g></g><g ewd:figtype="w2w" ewd:figID="118" ewd:code="IC3"><path style="stroke-width:1.42 ;&st7;  " d=" M  2655.81,   466.37  L  2651.56,   462.12  L  2647.31,   466.37  " /><path style="stroke-width:1.42 ;&st7;  " d=" M  2655.81,   469.77  L  2651.56,   465.52  L  2647.31,   469.77  " /><text style="&st18;" transform="matrix(&st16;  2638.93  458.43 )">8</text></g><g ewd:figtype="w2w" ewd:figID="119" ewd:code="AI3"><path style="stroke-width:1.42 ;&st7;  " d=" M  2655.81,   410.28  L  2651.56,   406.03  L  2647.31,   410.28  " /><path style="stroke-width:1.42 ;&st7;  " d=" M  2655.81,   406.88  L  2651.56,   402.63  L  2647.31,   406.88  " /><text style="&st18;" transform="matrix(&st16;  2638.93  398.94 )">9</text></g><g ewd:figtype="w2w" ewd:figID="120" ewd:code="CA3"><path style="stroke-width:1.42 ;&st7;  " d=" M  2723.79,   446.54  L  2719.54,   450.79  L  2715.30,   446.54  " /><path style="stroke-width:1.42 ;&st7;  " d=" M  2715.30,   443.14  L  2719.54,   447.39  L  2723.79,   443.14  " /><text style="&st18;" transform="matrix(&st16;  2706.91  458.43 )">8</text></g><g ewd:figtype="gp" ewd:figID="174" ewd:code="CA"><path style="stroke-width:0.85 ;&st7;  " d=" M  2675.64,   710.00  L  2678.47,   710.00  " /><path style="stroke-width:0.85 ;&st7;  " d=" M  2674.22,   707.17  L  2679.88,   707.17  " /><path style="stroke-width:0.85 ;&st7;  " d=" M  2672.80,   704.33  L  2681.30,   704.33  " /><path style="stroke-width:0.85 ;&st7;  " d=" M  2668.55,   701.50  L  2685.55,   701.50  " /><path style="stroke-width:0.85 ;&st7;  " d=" M  2677.05,   697.25  L  2677.05,   701.50  " /></g><g ewd:figtype="gp" ewd:figID="175" ewd:code="CE"><path style="stroke-width:0.85 ;&st7;  " d=" M  2718.13,   710.00  L  2720.96,   710.00  " /><path style="stroke-width:0.85 ;&st7;  " d=" M  2716.71,   707.17  L  2722.38,   707.17  " /><path style="stroke-width:0.85 ;&st7;  " d=" M  2715.30,   704.33  L  2723.79,   704.33  " /><path style="stroke-width:0.85 ;&st7;  " d=" M  2711.05,   701.50  L  2728.04,   701.50  " /><path style="stroke-width:0.85 ;&st7;  " d=" M  2719.54,   697.25  L  2719.54,   701.50  " /></g><g ewd:code=" " ewd:figID="225" ewd:comment=" " ewd:figtype="sh"><path style="stroke-width: 0.85 ;&st7; stroke-dasharray:3, 1.5;" d=" M  3008.50,   435.21  L  2940.51,   435.21  L  2940.51,   469.21  L  3008.50,   469.21  " /><path style="stroke-width: 0.85 ;&st7; stroke-dasharray:3, 1.5;" d=" M  3016.99,   443.71  L  3016.99,   460.71  " /><g ewd:code="" ewd:figID="226" ewd:comment=" " ewd:figtype="commref"><text style="&st18;" transform="matrix(&st17;  2936.81  464.45 )" ewd:textID="1">(Shielded)</text></g></g></svg>