<?xml version="1.0" encoding="utf-8"?>
<!DOCTYPE svg PUBLIC "-//W3C//DTD SVG 1.0//EN" "http://www.w3.org/TR/2001/REC-SVG-20010904/DTD/svg10.dtd"[
	<!ENTITY ns_flows "http://ns.adobe.com/Flows/1.0/">
	<!ENTITY ns_svg "http://www.w3.org/2000/svg">
	<!ENTITY ns_xlink "http://www.w3.org/1999/xlink">
	<!ENTITY st0 "font-size:7px;font-family:'MS-PGothic';adobe-font-script:japanese;">
	<!ENTITY st1 "font-size:6px;font-family:'ArialMT';">
	<!-- White fill  -->
	<!ENTITY st2 "fill:#FFFFFF;stroke:#000000; stroke-width:1.41;stroke-linecap:round;stroke-linejoin:round;">
	<!-- Yellow fill  -->
	<!ENTITY st3 "fill:#FFFFCC;stroke:#FFFFCC; stroke-width:0.1;stroke-linecap:round;stroke-linejoin:round;">
	<!-- Gray fill  -->
	<!ENTITY st4 "fill:#CCCCCC;stroke:#CCCCCC; stroke-width:0.1;stroke-linecap:round;stroke-linejoin:round;">
	<!-- Light-blue fill -->
	<!ENTITY st5 "fill:#CCECF4;stroke:#000000; stroke-width:1.133;stroke-linecap:round;stroke-linejoin:round;">
	<!ENTITY st6 "fill:none;stroke-linecap:butt; stroke-linejoin:round;">
	<!ENTITY st7 "fill:none;stroke:#000000;stroke-linecap:round;stroke-linejoin:round;">
	<!ENTITY st8 "enable-background:new    ;">
	<!-- Black fill -->
	<!ENTITY st9 "fill:#000000;stroke:#000000; stroke-linecap:round;stroke-linejoin:round;">
	<!-- SRS note   -->
	<!ENTITY st10 "font-size:9px;font-family:'ArialMT';">
	<!ENTITY st11 "font-size:9px;font-family:'Svg Symbol';">
	<!ENTITY st12 "font-size:6px;font-family:'Svg Symbol';">
	<!ENTITY st13 "fill:none;stroke:#ff0000;stroke-linecap:round;stroke-linejoin:round;">
	<!-- Yellow fill  -->
	<!ENTITY st14 "fill:#FFFF00;stroke:#FFFF00; stroke-width:0.1;stroke-linecap:round;stroke-linejoin:round;">
	<!ENTITY st15 "font-size:6px;font-family:'MS-PGothic';adobe-font-script:japanese;">
	<!ENTITY st16 "1.00 0.00 0.00 1.00">
	<!ENTITY st17 "0.00 -1.00 1.00 0.00">
	<!ENTITY st18 "font-size:6px;font-family:'Arial';">
	<!ENTITY st19 "font-size:9px;font-family:'Arial';">
	<!ENTITY st20 "font-size:6px;font-family:'MS-PGothic','MS PGothic';adobe-font-script:japanese;">
	<!ENTITY st21 "font-size:7px;font-family:'MS-PGothic','MS PGothic';adobe-font-script:japanese;">
	<!ATTLIST svg
		xmlns:ewd CDATA #FIXED "http://shcl.co.jp/ewd"
		xmlns:a CDATA #FIXED "http://ns.adobe.com/AdobeSVGViewerExtensions/3.0/"
		ewd:ver CDATA #IMPLIED
	>
	<!ATTLIST a
		ewd:lineID CDATA #IMPLIED
		ewd:groupID CDATA #IMPLIED
		ewd:figtype CDATA #IMPLIED
		ewd:code CDATA #IMPLIED
		ewd:figID CDATA #IMPLIED
		ewd:pinNo CDATA #IMPLIED
		ewd:comment CDATA #IMPLIED >
	<!ATTLIST g
		ewd:lineID CDATA #IMPLIED
		ewd:groupID CDATA #IMPLIED
		ewd:figtype CDATA #IMPLIED
		ewd:code CDATA #IMPLIED
		ewd:figID CDATA #IMPLIED
		ewd:pinNo CDATA #IMPLIED
		ewd:comment CDATA #IMPLIED >
	<!ATTLIST text
		ewd:textID CDATA #IMPLIED >
	<!ATTLIST title
		ewd:textID CDATA #IMPLIED >
]>
<!-- Generator: Shintec Hozumi YS   -->
<svg onload="call_execInitLoadProc_svg('system')" style="overflow:visible;  enable-background:new 0 0 6697.589 710.000" viewBox="0 0 6697.589 710.000" height="710.000" width="6697.589" xml:space="preserve" ewd:ver="2.1.2.9" xmlns="&ns_svg;" xmlns:a="http://ns.adobe.com/AdobeSVGViewerExtensions/3.0/" xmlns:ewd="http://shcl.co.jp/ewd" xmlns:xlink="&ns_xlink;">
<text style="&st18;" transform="matrix(&st17;  6599.7  483.58 )">R-W</text><text style="&st18;" transform="matrix(&st17;  6667.69  415.59 )">R-W</text><path style="stroke-width:1.42 ;&st7;  " d=" M  6514.88,   613.68  L  6509.91,   618.65  " /><path style="stroke-width:1.42 ;&st7;  " d=" M  6521.94,   630.68  L  6526.91,   625.71  " /><path style="stroke-width:1.42 ;&st7;  " d=" M  6509.91,   625.71  L  6514.88,   630.68  " /><path style="stroke-width:1.42 ;&st7;  " d=" M  6526.91,   618.65  L  6521.94,   613.68  " /><text style="&st18;" transform="matrix(&st17;  6514.72  509.16 )">W-B</text><text style="&st18;" transform="matrix(&st17;  6514.72  662.13 )">W-B</text><text style="&st18;" transform="matrix(&st17;  6599.7  113.88 )">R</text><text style="&st18;" transform="matrix(&st17;  6548.71  96.88 )">R</text><text style="&st18;" transform="matrix(&st16;  6580.04  57.58 )">R</text><path style="stroke-width:1.42 ;&st7;  " d=" M  6662.89,   460.71  L  6671.39,   460.71  " /><path style="stroke-width:1.42 ;&st7;  " d=" M  6560.90,    57.75  L  6555.93,    52.78  " /><path style="stroke-width:1.42 ;&st7;  " d=" M  6543.91,    64.80  L  6548.88,    69.77  " /><path style="stroke-width:1.42 ;&st7;  " d=" M  6555.93,    69.77  L  6560.90,    64.80  " /><path style="stroke-width:1.42 ;&st7;  " d=" M  6548.88,    52.78  L  6543.91,    57.75  " /><path style="stroke-width:1.42 ;&st7;  " d=" M  6611.90,    95.27  L  6603.40,    95.27  " /><text style="&st18;" transform="matrix(&st17;  6526.05  511.06 )">(RHD)</text><text style="&st18;" transform="matrix(&st17;  6526.05  664.03 )">(RHD)</text><text style="&st18;" transform="matrix(&st17;  6557.21  509.16 )">W-B</text><text style="&st18;" transform="matrix(&st17;  6568.54  511.02 )">(LHD)</text><text style="&st18;" transform="matrix(&st17;  6667.69  662.13 )">W-B</text><text style="&st18;" transform="matrix(&st17;  6679.02  663.99 )">(LHD)</text><text style="&st18;" transform="matrix(&st17;  6599.7  602.64 )">W-B</text><text style="&st18;" transform="matrix(&st17;  6611.03  604.5 )">(LHD)</text><g ewd:figtype="conn" ewd:figID="43" ewd:code="I85"><path style="stroke-width:1.42 ;&st7;  " d=" M  6501.41,   409.72  L  6501.41,   443.71  L  6620.39,   443.71  L  6620.39,   409.72  L  6501.41,   409.72  " /><g ewd:lineID="221,222"><text style="&st18;" transform="matrix(&st16;  6509.72  450.21 )">2</text><path style="stroke-width:1.42 ;&st7;   " d=" M  6522.94,   448.24  C  6522.94    445.74   6520.91    443.71   6518.41    443.71  " /><path style="stroke-width:1.42 ;&st7;   " d=" M  6518.41,   443.71  C  6515.91    443.71   6513.88    445.74   6513.88    448.24  " /><path style="stroke-width:1.42 ;&st7;   " d=" M  6513.88,   448.24  C  6513.88    450.75   6515.91    452.78   6518.41    452.78  " /><path style="stroke-width:1.42 ;&st7;   " d=" M  6518.41,   452.78  C  6520.91    452.78   6522.94    450.75   6522.94    448.24  " /><text style="&st18;" transform="matrix(&st16;  6516.22  450.21 )">B</text><text style="&st18;" transform="matrix(&st16;  6516.3  440.01 )">E</text></g><g ewd:lineID="227"><text style="&st18;" transform="matrix(&st16;  6594.7  450.21 )">1</text><path style="stroke-width:1.42 ;&st7;   " d=" M  6607.93,   448.24  C  6607.93    445.74   6605.90    443.71   6603.40    443.71  " /><path style="stroke-width:1.42 ;&st7;   " d=" M  6603.40,   443.71  C  6600.89    443.71   6598.86    445.74   6598.86    448.24  " /><path style="stroke-width:1.42 ;&st7;   " d=" M  6598.86,   448.24  C  6598.86    450.75   6600.89    452.78   6603.40    452.78  " /><path style="stroke-width:1.42 ;&st7;   " d=" M  6603.40,   452.78  C  6605.90    452.78   6607.93    450.75   6607.93    448.24  " /><text style="&st18;" transform="matrix(&st16;  6601.21  450.21 )">B</text><text style="&st18;" transform="matrix(&st16;  6601.6  440.01 )">+</text></g></g><g ewd:figtype="conn" ewd:figID="48" ewd:code="A43"><path style="stroke-width:0.85 ;&st7;  " d=" M  6560.90,   545.69  L  6560.90,   562.69  " /><path style="stroke-width:1.42 ;&st7;  " d=" M  6552.40,   545.69  L  6552.40,   562.69  L  6569.40,   562.69  L  6569.40,   545.69  L  6552.40,   545.69  " /><text style="&st18;" transform="matrix(&st16;  6552.21  543.13 )">4</text><path style="stroke-width:1.42 ;&st7;   " d=" M  6565.44,   541.16  C  6565.44    538.66   6563.41    536.63   6560.90    536.63  " /><path style="stroke-width:1.42 ;&st7;   " d=" M  6560.90,   536.63  C  6558.40    536.63   6556.37    538.66   6556.37    541.16  " /><path style="stroke-width:1.42 ;&st7;   " d=" M  6556.37,   541.16  C  6556.37    543.66   6558.40    545.69   6560.90    545.69  " /><path style="stroke-width:1.42 ;&st7;   " d=" M  6560.90,   545.69  C  6563.41    545.69   6565.44    543.66   6565.44    541.16  " /><text style="&st18;" transform="matrix(&st16;  6558.6  543.13 )">A</text><text style="&st18;" transform="matrix(&st16;  6552.21  569.19 )">8</text><path style="stroke-width:1.42 ;&st7;   " d=" M  6565.44,   567.22  C  6565.44    564.72   6563.41    562.69   6560.90    562.69  " /><path style="stroke-width:1.42 ;&st7;   " d=" M  6560.90,   562.69  C  6558.40    562.69   6556.37    564.72   6556.37    567.22  " /><path style="stroke-width:1.42 ;&st7;   " d=" M  6556.37,   567.22  C  6556.37    569.73   6558.40    571.76   6560.90    571.76  " /><path style="stroke-width:1.42 ;&st7;   " d=" M  6560.90,   571.76  C  6563.41    571.76   6565.44    569.73   6565.44    567.22  " /><text style="&st18;" transform="matrix(&st16;  6558.6  569.19 )">A</text><g ewd:figtype="title"><text style="&st18;" transform="matrix(&st17;  6577.3  565.59 )">A43(A)</text><text style="&st18;" transform="matrix(&st17;  6584.12  565.6 )" ewd:textID="48">No. 34 Junction <tspan x="0 " dy="6.0">Connector</tspan></text></g></g><g ewd:code="A23" ewd:figID="49" ewd:comment="3,2" ewd:figtype="conn"><path style="stroke-width:1.42 ;&st7;  " d=" M  6662.88,   605.18  L  6662.88,   622.18  L  6679.88,   622.18  L  6679.88,   605.18  L  6662.88,   605.18  " /><path style="stroke-width:0.85 ;&st7;  " d=" M  6671.38,   605.18  L  6671.38,   622.18  " /><text style="&st18;" transform="matrix(&st16;  6662.69  593.56 )">3</text><text style="&st18;" transform="matrix(&st16;  6662.69  602.62 )">2</text><text style="&st18;" transform="matrix(&st16;  6669.08  602.62 )">A</text><path style="stroke-width:1.42 ;&st7;   " d=" M  6675.92,   600.65  C  6675.92    598.15   6673.89    596.12   6671.39    596.12  " /><path style="stroke-width:1.42 ;&st7;   " d=" M  6671.39,   596.12  C  6668.88    596.12   6666.85    598.15   6666.85    600.65  " /><path style="stroke-width:1.42 ;&st7;   " d=" M  6666.85,   600.65  C  6666.85    603.15   6668.88    605.18   6671.39    605.18  " /><path style="stroke-width:1.42 ;&st7;   " d=" M  6671.39,   605.18  C  6673.89    605.18   6675.92    603.15   6675.92    600.65  " /><text style="&st18;" transform="matrix(&st16;  6669.08  593.56 )">A</text><path style="stroke-width:1.42 ;&st7;   " d=" M  6675.92,   591.59  C  6675.92    589.08   6673.89    587.05   6671.39    587.05  " /><path style="stroke-width:1.42 ;&st7;   " d=" M  6671.39,   587.05  C  6668.88    587.05   6666.85    589.08   6666.85    591.59  " /><path style="stroke-width:1.42 ;&st7;   " d=" M  6666.85,   591.59  C  6666.85    594.09   6668.88    596.12   6671.39    596.12  " /><path style="stroke-width:1.42 ;&st7;   " d=" M  6671.39,   596.12  C  6673.89    596.12   6675.92    594.09   6675.92    591.59  " /><text style="&st18;" transform="matrix(&st16;  6662.69  628.68 )">1</text><path style="stroke-width:1.42 ;&st7;   " d=" M  6675.92,   626.71  C  6675.92    624.21   6673.89    622.18   6671.39    622.18  " /><path style="stroke-width:1.42 ;&st7;   " d=" M  6671.39,   622.18  C  6668.88    622.18   6666.85    624.21   6666.85    626.71  " /><path style="stroke-width:1.42 ;&st7;   " d=" M  6666.85,   626.71  C  6666.85    629.22   6668.88    631.25   6671.39    631.25  " /><path style="stroke-width:1.42 ;&st7;   " d=" M  6671.39,   631.25  C  6673.89    631.25   6675.92    629.22   6675.92    626.71  " /><text style="&st18;" transform="matrix(&st16;  6669.08  628.68 )">A</text><g ewd:figtype="title"><text style="&st18;" transform="matrix(&st17;  6653.24  625.09 )" ewd:textID="24">No. 2 Junction <tspan x="0 " dy="6.0">Connector</tspan></text><text style="&st18;" transform="matrix(&st17;  6646.42  625.08 )">A23(A)</text></g><g ewd:code="" ewd:figID="265" ewd:comment="3" ewd:figtype="commref"><text style="&st18;" transform="matrix(&st16;  6676.48  602.62 )">(*3)</text></g><g ewd:code="" ewd:figID="266" ewd:comment="2" ewd:figtype="commref"><text style="&st18;" transform="matrix(&st16;  6676.48  593.56 )">(*2)</text></g></g><g ewd:figtype="w2w" ewd:figID="167" ewd:code="IL6"><path style="stroke-width:1.42 ;&st7;  " d=" M  6607.64,   104.33  L  6603.39,   100.09  L  6599.14,   104.33  " /><path style="stroke-width:1.42 ;&st7;  " d=" M  6607.64,   100.94  L  6603.39,    96.69  L  6599.14,   100.94  " /><text style="&st18;" transform="matrix(&st16;  6590.77  92.99 )">8</text><g ewd:code="" ewd:figID="232" ewd:comment="" ewd:figtype="commref"><text style="&st18;" transform="matrix(&st16;  6612.43  92.99 )">(RHD)</text></g></g><g ewd:figtype="w2w" ewd:figID="168" ewd:code="IL2"><text style="&st18;" transform="matrix(&st16;  6590.77  84.49 )">2</text><g ewd:code="" ewd:figID="231" ewd:comment="" ewd:figtype="commref"><text style="&st18;" transform="matrix(&st16;  6612.43  84.49 )">(LHD)</text></g></g><g ewd:figtype="w2w" ewd:figID="169" ewd:code="IL5"><path style="stroke-width:1.42 ;&st7;  " d=" M  6675.63,   455.04  L  6671.38,   459.29  L  6667.13,   455.04  " /><path style="stroke-width:1.42 ;&st7;  " d=" M  6667.13,   451.64  L  6671.38,   455.89  L  6675.63,   451.64  " /><text style="&st18;" transform="matrix(&st16;  6655.65  466.93 )">16</text></g><g ewd:figtype="gp" ewd:figID="182" ewd:code="IE"><path style="stroke-width: 0.85 ;&st7;  " d=" M  6518.41,   697.25  L  6518.41,   701.50  " /><path style="stroke-width: 0.85 ;&st7;  " d=" M  6509.91,   701.50  L  6526.91,   701.50  " /><path style="stroke-width: 0.85 ;&st7;  " d=" M  6514.16,   704.33  L  6522.66,   704.33  " /><path style="stroke-width: 0.85 ;&st7;  " d=" M  6515.58,   707.17  L  6521.24,   707.17  " /><path style="stroke-width: 0.85 ;&st7;  " d=" M  6516.99,   710.00  L  6519.82,   710.00  " /></g><g ewd:figtype="gp" ewd:figID="183" ewd:code="AA"><path style="stroke-width: 0.85 ;&st7;  " d=" M  6662.88,   701.50  L  6679.88,   701.50  " /><path style="stroke-width: 0.85 ;&st7;  " d=" M  6671.38,   697.25  L  6671.38,   701.50  " /><path style="stroke-width: 0.85 ;&st7;  " d=" M  6669.97,   710.00  L  6672.80,   710.00  " /><path style="stroke-width: 0.85 ;&st7;  " d=" M  6668.55,   707.17  L  6674.22,   707.17  " /><path style="stroke-width: 0.85 ;&st7;  " d=" M  6667.13,   704.33  L  6675.63,   704.33  " /></g></svg>