<?xml version="1.0" encoding="utf-8"?>
<!DOCTYPE svg PUBLIC "-//W3C//DTD SVG 1.0//EN" "http://www.w3.org/TR/2001/REC-SVG-20010904/DTD/svg10.dtd"[
	<!ENTITY ns_flows "http://ns.adobe.com/Flows/1.0/">
	<!ENTITY ns_svg "http://www.w3.org/2000/svg">
	<!ENTITY ns_xlink "http://www.w3.org/1999/xlink">
	<!ENTITY st0 "font-size:7px;font-family:'MS-PGothic';adobe-font-script:japanese;">
	<!ENTITY st1 "font-size:6px;font-family:'ArialMT';">
	<!-- White fill  -->
	<!ENTITY st2 "fill:#FFFFFF;stroke:#000000; stroke-width:1.41;stroke-linecap:round;stroke-linejoin:round;">
	<!-- Yellow fill  -->
	<!ENTITY st3 "fill:#FFFFCC;stroke:#FFFFCC; stroke-width:0.1;stroke-linecap:round;stroke-linejoin:round;">
	<!-- Gray fill  -->
	<!ENTITY st4 "fill:#CCCCCC;stroke:#CCCCCC; stroke-width:0.1;stroke-linecap:round;stroke-linejoin:round;">
	<!-- Light-blue fill -->
	<!ENTITY st5 "fill:#CCECF4;stroke:#000000; stroke-width:1.133;stroke-linecap:round;stroke-linejoin:round;">
	<!ENTITY st6 "fill:none;stroke-linecap:butt; stroke-linejoin:round;">
	<!ENTITY st7 "fill:none;stroke:#000000;stroke-linecap:round;stroke-linejoin:round;">
	<!ENTITY st8 "enable-background:new    ;">
	<!-- Black fill -->
	<!ENTITY st9 "fill:#000000;stroke:#000000; stroke-linecap:round;stroke-linejoin:round;">
	<!-- SRS note   -->
	<!ENTITY st10 "font-size:9px;font-family:'ArialMT';">
	<!ENTITY st11 "font-size:9px;font-family:'Svg Symbol';">
	<!ENTITY st12 "font-size:6px;font-family:'Svg Symbol';">
	<!ENTITY st13 "fill:none;stroke:#ff0000;stroke-linecap:round;stroke-linejoin:round;">
	<!-- Yellow fill  -->
	<!ENTITY st14 "fill:#FFFF00;stroke:#FFFF00; stroke-width:0.1;stroke-linecap:round;stroke-linejoin:round;">
	<!ENTITY st15 "font-size:6px;font-family:'MS-PGothic';adobe-font-script:japanese;">
	<!ENTITY st16 "1.00 0.00 0.00 1.00">
	<!ENTITY st17 "0.00 -1.00 1.00 0.00">
	<!ENTITY st18 "font-size:6px;font-family:'Arial';">
	<!ENTITY st19 "font-size:9px;font-family:'Arial';">
	<!ENTITY st20 "font-size:6px;font-family:'MS-PGothic','MS PGothic';adobe-font-script:japanese;">
	<!ENTITY st21 "font-size:7px;font-family:'MS-PGothic','MS PGothic';adobe-font-script:japanese;">
	<!ATTLIST svg
		xmlns:ewd CDATA #FIXED "http://shcl.co.jp/ewd"
		xmlns:a CDATA #FIXED "http://ns.adobe.com/AdobeSVGViewerExtensions/3.0/"
		ewd:ver CDATA #IMPLIED
	>
	<!ATTLIST a
		ewd:lineID CDATA #IMPLIED
		ewd:groupID CDATA #IMPLIED
		ewd:figtype CDATA #IMPLIED
		ewd:code CDATA #IMPLIED
		ewd:figID CDATA #IMPLIED
		ewd:pinNo CDATA #IMPLIED
		ewd:comment CDATA #IMPLIED >
	<!ATTLIST g
		ewd:lineID CDATA #IMPLIED
		ewd:groupID CDATA #IMPLIED
		ewd:figtype CDATA #IMPLIED
		ewd:code CDATA #IMPLIED
		ewd:figID CDATA #IMPLIED
		ewd:pinNo CDATA #IMPLIED
		ewd:comment CDATA #IMPLIED >
	<!ATTLIST text
		ewd:textID CDATA #IMPLIED >
	<!ATTLIST title
		ewd:textID CDATA #IMPLIED >
]>
<!-- Generator: Shintec Hozumi YS   -->
<svg onload="call_execInitLoadProc_svg('system')" style="overflow:visible;  enable-background:new 0 0 6697.589 710.000" viewBox="0 0 6697.589 710.000" height="710.000" width="6697.589" xml:space="preserve" ewd:ver="2.1.2.9" xmlns="&ns_svg;" xmlns:a="http://ns.adobe.com/AdobeSVGViewerExtensions/3.0/" xmlns:ewd="http://shcl.co.jp/ewd" xmlns:xlink="&ns_xlink;">
<path style="stroke-width:1.42 ;&st7;  " d=" M   169.97,   481.24  L   174.94,   486.20  " /><path style="stroke-width:1.42 ;&st7;  " d=" M   182.00,   486.20  L   186.97,   481.24  " /><path style="stroke-width:1.42 ;&st7;  " d=" M   174.94,   469.21  L   169.97,   474.18  " /><path style="stroke-width:1.42 ;&st7;  " d=" M   433.43,   248.24  L   424.93,   248.24  " /><text style="&st18;" transform="matrix(&st17;  242.76  140.23 )">W</text><text style="&st18;" transform="matrix(&st17;  344.75  139.37 )">R</text><text style="&st18;" transform="matrix(&st17;  217.27  483.66 )">W-B</text><text style="&st18;" transform="matrix(&st17;  310.75  548.16 )">W</text><text style="&st18;" transform="matrix(&st17;  310.75  480.17 )">W</text><text style="&st18;" transform="matrix(&st17;  353.25  551.65 )">W-B</text><text style="&st18;" transform="matrix(&st17;  353.25  483.66 )">W-B</text><text style="&st18;" transform="matrix(&st17;  421.23  368.15 )">B-Y</text><text style="&st18;" transform="matrix(&st17;  344.75  368.84 )">R</text><text style="&st18;" transform="matrix(&st17;  310.75  373.18 )">W-B</text><text style="&st18;" transform="matrix(&st17;  421.23  278.92 )">B-Y</text><text style="&st18;" transform="matrix(&st17;  421.23  210.93 )">B-Y</text><text style="&st18;" transform="matrix(&st17;  421.23  142.94 )">B-Y</text><path style="stroke-width:1.42 ;&st7;  " d=" M   186.97,   474.18  L   182.00,   469.21  " /><text style="&st18;" transform="matrix(&st16;  487.32  15.09 )">R-Y</text><path style="stroke-width:1.42 ;&st7;  " d=" M   484.42,   168.23  L   479.45,   163.26  " /><path style="stroke-width:1.42 ;&st7;  " d=" M   467.42,   175.29  L   472.39,   180.26  " /><path style="stroke-width:1.42 ;&st7;  " d=" M   479.45,   180.26  L   484.42,   175.29  " /><path style="stroke-width:1.42 ;&st7;  " d=" M   472.39,   163.26  L   467.42,   168.23  " /><text style="&st18;" transform="matrix(&st17;  472.23  142.94 )">B-Y</text><text style="&st18;" transform="matrix(&st17;  483.56  145.58 )">(LHD)</text><text style="&st18;" transform="matrix(&st17;  472.23  210.93 )">B-Y</text><text style="&st18;" transform="matrix(&st17;  483.56  213.57 )">(LHD)</text><text style="&st18;" transform="matrix(&st17;  432.57  145.62 )">(RHD)</text><text style="&st18;" transform="matrix(&st17;  432.57  213.61 )">(RHD)</text><path style="stroke-width:1.42 ;&st7;  " d=" M   387.40,   358.73  L   382.44,   363.70  " /><path style="stroke-width:1.42 ;&st7;  " d=" M   394.46,   375.72  L   399.43,   370.75  " /><path style="stroke-width:1.42 ;&st7;  " d=" M   382.44,   370.75  L   387.40,   375.72  " /><path style="stroke-width:1.42 ;&st7;  " d=" M   399.43,   363.70  L   394.46,   358.73  " /><path style="stroke-width:1.42 ;&st7;  " d=" M   263.46,   370.75  L   268.42,   375.72  " /><path style="stroke-width:1.42 ;&st7;  " d=" M   280.45,   363.70  L   275.48,   358.73  " /><path style="stroke-width:1.42 ;&st7;  " d=" M   268.42,   358.73  L   263.46,   363.70  " /><path style="stroke-width:1.42 ;&st7;  " d=" M   275.48,   375.72  L   280.45,   370.75  " /><text style="&st18;" transform="matrix(&st16;  282.5  338.03 )">W-B</text><text style="&st18;" transform="matrix(&st16;  280.64  349.36 )">(LHD)</text><text style="&st18;" transform="matrix(&st17;  322.08  375.08 )">(RHD)</text><text style="&st18;" transform="matrix(&st17;  356.08  375.08 )">(RHD)</text><text style="&st18;" transform="matrix(&st16;  371.83  338.03 )">R</text><text style="&st18;" transform="matrix(&st16;  365.62  349.36 )">(LHD)</text><text style="&st18;" transform="matrix(&st16;  371.83  389.02 )">R</text><text style="&st18;" transform="matrix(&st16;  365.62  400.35 )">(LHD)</text><text style="&st18;" transform="matrix(&st16;  282.5  389.02 )">W-B</text><text style="&st18;" transform="matrix(&st16;  280.64  400.35 )">(LHD)</text><text style="&st18;" transform="matrix(&st16;  105.27  357.86 )">(*2)</text><path style="stroke-width:1.42 ;&st7;  " d=" M   186.97,   537.20  L   178.47,   537.20  " /><path style="stroke-width:1.42 ;&st7;  " d=" M    67.99,   537.20  L    76.49,   537.20  " /><path style="stroke-width:1.42 ;&st7;  " d=" M   127.48,   324.73  L   135.98,   324.73  " /><path style="stroke-width:1.42 ;&st7;  " d=" M    84.99,   282.24  L    76.49,   282.24  " /><path style="stroke-width:1.42 ;&st7;  " d=" M   127.48,   265.24  L   135.98,   265.24  " /><text style="&st18;" transform="matrix(&st16;  108.29  346.53 )">B</text><text style="&st18;" transform="matrix(&st16;  113.77  459.84 )">(*2)</text><text style="&st18;" transform="matrix(&st16;  112.53  448.51 )">W-B</text><text style="&st18;" transform="matrix(&st16;  104.92  219.05 )">B-L</text><text style="&st18;" transform="matrix(&st16;  105.27  230.38 )">(*2)</text><text style="&st18;" transform="matrix(&st17;  186.11  507.91 )">(*2)</text><text style="&st18;" transform="matrix(&st17;  174.77  509.16 )">W-B</text><text style="&st18;" transform="matrix(&st17;  84.12  523.55 )">(LHD *3)</text><text style="&st18;" transform="matrix(&st17;  72.79  517.65 )">W-B</text><path style="stroke-width:1.42 ;&st7;  " d=" M    67.99,   617.21  L    72.96,   622.18  " /><path style="stroke-width:1.42 ;&st7;  " d=" M    80.01,   622.18  L    84.99,   617.21  " /><path style="stroke-width:1.42 ;&st7;  " d=" M    72.96,   605.18  L    67.99,   610.16  " /><text style="&st18;" transform="matrix(&st17;  72.79  142.86 )">R-Y</text><text style="&st18;" transform="matrix(&st17;  84.12  583.04 )">(LHD *3)</text><text style="&st18;" transform="matrix(&st17;  72.79  577.14 )">W-B</text><text style="&st18;" transform="matrix(&st17;  186.11  587.33 )">(RHD *2)</text><text style="&st18;" transform="matrix(&st17;  174.77  581.39 )">W-B</text><text style="&st18;" transform="matrix(&st17;  186.11  663.81 )">(RHD *2)</text><text style="&st18;" transform="matrix(&st17;  174.77  657.88 )">W-B</text><text style="&st18;" transform="matrix(&st17;  143.61  303.95 )">(*2)</text><text style="&st18;" transform="matrix(&st17;  132.28  304.3 )">B-L</text><text style="&st18;" transform="matrix(&st17;  72.79  317.92 )">B</text><text style="&st18;" transform="matrix(&st17;  84.12  328.08 )">(LHD *3)</text><text style="&st18;" transform="matrix(&st17;  84.12  260.09 )">(LHD *3)</text><text style="&st18;" transform="matrix(&st17;  72.79  253.31 )">B-L</text><text style="&st18;" transform="matrix(&st17;  84.12  676.52 )">(LHD *3)</text><text style="&st18;" transform="matrix(&st17;  72.79  670.63 )">W-B</text><path style="stroke-width:1.42 ;&st7;  " d=" M    84.99,   610.16  L    80.01,   605.18  " /><text style="&st18;" transform="matrix(&st17;  115.28  581.39 )">W-B</text><text style="&st18;" transform="matrix(&st17;  126.62  587.29 )">(LHD *2)</text><text style="&st18;" transform="matrix(&st16;  138.02  660.98 )">W-B</text><text style="&st18;" transform="matrix(&st16;  132.13  672.31 )">(LHD *2)</text><g ewd:figtype="rb" ewd:figID="1" ewd:code="FUSE54"><path style="stroke-width:0.85 ;&st7;  " d=" M   246.46,    78.27  L   246.46,    95.27  " /><path style="stroke-width:1.42 ;&st7;  " d=" M   248.58,   103.77  L   244.33,   103.77  " /><path style="stroke-width:1.42 ;&st7;  " d=" M   248.58,    95.27  L   244.33,    95.27  " /><path style="stroke-width:1.42 ;&st7;   " d=" M   252.83,    99.52  C   252.83     97.17    250.93     95.27    248.58     95.27  " /><path style="stroke-width:1.42 ;&st7;   " d=" M   248.58,   103.77  C   250.93    103.77    252.83    101.87    252.83     99.52  " /><path style="stroke-width:1.42 ;&st7;   " d=" M   240.08,    99.52  C   240.08    101.87    241.99    103.77    244.33    103.77  " /><path style="stroke-width:1.42 ;&st7;   " d=" M   244.33,    95.27  C   241.99     95.27    240.08     97.17    240.08     99.52  " /><path style="stroke-width:0.28 ;&st9;  " d=" M   246.46,    90.37  L   243.63,    87.54  L   243.63,    91.79  L   246.46,    94.62  L   249.29,    91.79  L   249.29,    87.54  L   246.46,    90.37  " /><text style="&st18;" transform="matrix(&st16;  238.42  32.08 )">(BAT)</text><text style="&st18;" transform="matrix(&st16;  240.27  86.47 )">2</text><text style="&st18;" transform="matrix(&st16;  244.66  101.49 )">4</text><text style="&st18;" transform="matrix(&st16;  262.88  53.34 )">50A <tspan x="0 " dy="6.0">ABS </tspan><tspan x="0 " dy="6.0">MTR</tspan></text><path style="stroke-width:0.85 ;&st7;  " d=" M   246.46,    69.77  L   246.46,    78.27  " /><path style="stroke-width:0.85 ;&st7;   " d=" M   247.88,    68.36  C   247.88     67.57    247.24     66.94    246.46     66.94  " /><path style="stroke-width:0.85 ;&st7;   " d=" M   246.46,    66.94  C   245.68     66.94    245.04     67.57    245.04     68.36  " /><path style="stroke-width:0.85 ;&st7;   " d=" M   245.04,    68.36  C   245.04     69.14    245.68     69.77    246.46     69.77  " /><path style="stroke-width:0.85 ;&st7;   " d=" M   246.46,    69.77  C   247.24     69.77    247.88     69.14    247.88     68.36  " /><path style="stroke-width:0.85 ;&st7;   " d=" M   247.88,    45.69  C   247.88     44.91    247.24     44.28    246.46     44.28  " /><path style="stroke-width:0.85 ;&st7;   " d=" M   246.46,    44.28  C   245.68     44.28    245.04     44.91    245.04     45.69  " /><path style="stroke-width:0.85 ;&st7;   " d=" M   245.04,    45.69  C   245.04     46.48    245.68     47.11    246.46     47.11  " /><path style="stroke-width:0.85 ;&st7;   " d=" M   246.46,    47.11  C   247.24     47.11    247.88     46.48    247.88     45.69  " /><path style="stroke-width:1.42 ;&st7;   " d=" M   246.46,    66.94  C   249.20     65.33    250.11     61.80    248.50     59.06  " /><path style="stroke-width:1.42 ;&st7;   " d=" M   248.50,    59.06  C   247.98     58.18    247.34     57.55    246.46     57.03  " /><path style="stroke-width:1.42 ;&st7;   " d=" M   246.46,    47.11  C   243.72     48.72    242.81     52.25    244.42     54.99  " /><path style="stroke-width:1.42 ;&st7;   " d=" M   244.42,    54.99  C   244.94     55.87    245.58     56.51    246.46     57.03  " /><path style="stroke-width:1.42 ;&st7;  " d=" M   233.71,    35.78  L   233.71,    78.27  L   259.21,    78.27  L   259.21,    35.78  L   233.71,    35.78  " /></g><g ewd:figtype="rb" ewd:figID="2" ewd:code="FUSE53"><path style="stroke-width:0.85 ;&st7;  " d=" M   348.44,    78.27  L   348.44,    95.27  " /><path style="stroke-width:1.42 ;&st7;  " d=" M   350.57,   103.77  L   346.32,   103.77  " /><path style="stroke-width:1.42 ;&st7;  " d=" M   350.57,    95.27  L   346.32,    95.27  " /><path style="stroke-width:1.42 ;&st7;   " d=" M   354.82,    99.52  C   354.82     97.17    352.91     95.27    350.57     95.27  " /><path style="stroke-width:1.42 ;&st7;   " d=" M   350.57,   103.77  C   352.91    103.77    354.82    101.87    354.82     99.52  " /><path style="stroke-width:1.42 ;&st7;   " d=" M   342.07,    99.52  C   342.07    101.87    343.97    103.77    346.32    103.77  " /><path style="stroke-width:1.42 ;&st7;   " d=" M   346.32,    95.27  C   343.97     95.27    342.07     97.17    342.07     99.52  " /><path style="stroke-width:0.28 ;&st9;  " d=" M   348.44,    90.37  L   345.61,    87.54  L   345.61,    91.79  L   348.44,    94.62  L   351.27,    91.79  L   351.27,    87.54  L   348.44,    90.37  " /><text style="&st18;" transform="matrix(&st16;  340.4  32.08 )">(BAT)</text><text style="&st18;" transform="matrix(&st16;  342.26  86.47 )">2</text><text style="&st18;" transform="matrix(&st16;  346.64  101.49 )">4</text><text style="&st18;" transform="matrix(&st16;  364.87  53.34 )">30A <tspan x="0 " dy="6.0">ABS </tspan><tspan x="0 " dy="6.0">SOL</tspan></text><path style="stroke-width:0.85 ;&st7;  " d=" M   348.44,    69.77  L   348.44,    78.27  " /><path style="stroke-width:0.85 ;&st7;   " d=" M   349.86,    68.36  C   349.86     67.57    349.22     66.94    348.44     66.94  " /><path style="stroke-width:0.85 ;&st7;   " d=" M   348.44,    66.94  C   347.66     66.94    347.03     67.57    347.03     68.36  " /><path style="stroke-width:0.85 ;&st7;   " d=" M   347.03,    68.36  C   347.03     69.14    347.66     69.77    348.44     69.77  " /><path style="stroke-width:0.85 ;&st7;   " d=" M   348.44,    69.77  C   349.22     69.77    349.86     69.14    349.86     68.36  " /><path style="stroke-width:0.85 ;&st7;   " d=" M   349.86,    45.69  C   349.86     44.91    349.22     44.28    348.44     44.28  " /><path style="stroke-width:0.85 ;&st7;   " d=" M   348.44,    44.28  C   347.66     44.28    347.03     44.91    347.03     45.69  " /><path style="stroke-width:0.85 ;&st7;   " d=" M   347.03,    45.69  C   347.03     46.48    347.66     47.11    348.44     47.11  " /><path style="stroke-width:0.85 ;&st7;   " d=" M   348.44,    47.11  C   349.22     47.11    349.86     46.48    349.86     45.69  " /><path style="stroke-width:1.42 ;&st7;   " d=" M   348.44,    66.94  C   351.18     65.33    352.09     61.80    350.48     59.06  " /><path style="stroke-width:1.42 ;&st7;   " d=" M   350.48,    59.06  C   349.96     58.18    349.32     57.55    348.44     57.03  " /><path style="stroke-width:1.42 ;&st7;   " d=" M   348.44,    47.11  C   345.70     48.72    344.79     52.25    346.40     54.99  " /><path style="stroke-width:1.42 ;&st7;   " d=" M   346.40,    54.99  C   346.92     55.87    347.56     56.51    348.44     57.03  " /><path style="stroke-width:1.42 ;&st7;  " d=" M   335.69,    35.78  L   335.69,    78.27  L   361.19,    78.27  L   361.19,    35.78  L   335.69,    35.78  " /></g><g ewd:figtype="rb" ewd:figID="3" ewd:code="FUSE20"><path style="stroke-width:0.85 ;&st7;  " d=" M   424.93,    78.27  L   424.93,    95.27  " /><path style="stroke-width:1.42 ;&st7;  " d=" M   427.05,   103.77  L   422.80,   103.77  " /><path style="stroke-width:1.42 ;&st7;  " d=" M   427.05,    95.27  L   422.80,    95.27  " /><path style="stroke-width:1.42 ;&st7;   " d=" M   431.30,    99.52  C   431.30     97.17    429.40     95.27    427.05     95.27  " /><path style="stroke-width:1.42 ;&st7;   " d=" M   427.05,   103.77  C   429.40    103.77    431.30    101.87    431.30     99.52  " /><path style="stroke-width:1.42 ;&st7;   " d=" M   418.56,    99.52  C   418.56    101.87    420.46    103.77    422.80    103.77  " /><path style="stroke-width:1.42 ;&st7;   " d=" M   422.80,    95.27  C   420.46     95.27    418.56     97.17    418.56     99.52  " /><path style="stroke-width:0.28 ;&st9;  " d=" M   424.93,    90.37  L   422.10,    87.54  L   422.10,    91.79  L   424.93,    94.62  L   427.76,    91.79  L   427.76,    87.54  L   424.93,    90.37  " /><text style="&st18;" transform="matrix(&st16;  419.72  32.08 )">(IG)</text><text style="&st18;" transform="matrix(&st16;  418.74  86.47 )">2</text><text style="&st18;" transform="matrix(&st16;  423.13  101.49 )">2</text><text style="&st18;" transform="matrix(&st16;  441.35  56.17 )">15A <tspan x="0 " dy="6.0">ECU IG</tspan></text><path style="stroke-width:0.85 ;&st7;  " d=" M   424.93,    69.77  L   424.93,    78.27  " /><path style="stroke-width:0.85 ;&st7;   " d=" M   426.35,    68.36  C   426.35     67.57    425.71     66.94    424.93     66.94  " /><path style="stroke-width:0.85 ;&st7;   " d=" M   424.93,    66.94  C   424.15     66.94    423.51     67.57    423.51     68.36  " /><path style="stroke-width:0.85 ;&st7;   " d=" M   423.51,    68.36  C   423.51     69.14    424.15     69.77    424.93     69.77  " /><path style="stroke-width:0.85 ;&st7;   " d=" M   424.93,    69.77  C   425.71     69.77    426.35     69.14    426.35     68.36  " /><path style="stroke-width:0.85 ;&st7;   " d=" M   426.35,    45.69  C   426.35     44.91    425.71     44.28    424.93     44.28  " /><path style="stroke-width:0.85 ;&st7;   " d=" M   424.93,    44.28  C   424.15     44.28    423.51     44.91    423.51     45.69  " /><path style="stroke-width:0.85 ;&st7;   " d=" M   423.51,    45.69  C   423.51     46.48    424.15     47.11    424.93     47.11  " /><path style="stroke-width:0.85 ;&st7;   " d=" M   424.93,    47.11  C   425.71     47.11    426.35     46.48    426.35     45.69  " /><path style="stroke-width:1.42 ;&st7;   " d=" M   424.93,    66.94  C   427.67     65.33    428.58     61.80    426.97     59.06  " /><path style="stroke-width:1.42 ;&st7;   " d=" M   426.97,    59.06  C   426.45     58.18    425.81     57.55    424.93     57.03  " /><path style="stroke-width:1.42 ;&st7;   " d=" M   424.93,    47.11  C   422.19     48.72    421.28     52.25    422.89     54.99  " /><path style="stroke-width:1.42 ;&st7;   " d=" M   422.89,    54.99  C   423.41     55.87    424.05     56.51    424.93     57.03  " /><path style="stroke-width:1.42 ;&st7;  " d=" M   412.18,    35.78  L   412.18,    78.27  L   437.68,    78.27  L   437.68,    35.78  L   412.18,    35.78  " /></g><g ewd:figtype="conn" ewd:figID="4" ewd:code="I105"><path style="stroke-width:0.85 ;&st7;  " d=" M   424.93,   163.26  L   424.93,   180.26  " /><path style="stroke-width:1.42 ;&st7;  " d=" M   416.43,   163.26  L   433.43,   163.26  L   433.43,   180.26  L   416.43,   180.26  L   416.43,   163.26  " /><text style="&st18;" transform="matrix(&st16;  413.13  186.76 )">11</text><text style="&st18;" transform="matrix(&st16;  422.62  186.76 )">A</text><path style="stroke-width:1.42 ;&st7;   " d=" M   429.46,   184.79  C   429.46    182.28    427.43    180.26    424.93    180.26  " /><path style="stroke-width:1.42 ;&st7;   " d=" M   424.93,   180.26  C   422.43    180.26    420.40    182.28    420.40    184.79  " /><path style="stroke-width:1.42 ;&st7;   " d=" M   420.40,   184.79  C   420.40    187.29    422.43    189.32    424.93    189.32  " /><path style="stroke-width:1.42 ;&st7;   " d=" M   424.93,   189.32  C   427.43    189.32    429.46    187.29    429.46    184.79  " /><text style="&st18;" transform="matrix(&st16;  416.24  160.69 )">9</text><text style="&st18;" transform="matrix(&st16;  422.62  160.69 )">A</text><path style="stroke-width:1.42 ;&st7;   " d=" M   429.46,   158.73  C   429.46    156.22    427.43    154.19    424.93    154.19  " /><path style="stroke-width:1.42 ;&st7;   " d=" M   424.93,   154.19  C   422.43    154.19    420.40    156.22    420.40    158.73  " /><path style="stroke-width:1.42 ;&st7;   " d=" M   420.40,   158.73  C   420.40    161.23    422.43    163.26    424.93    163.26  " /><path style="stroke-width:1.42 ;&st7;   " d=" M   424.93,   163.26  C   427.43    163.26    429.46    161.23    429.46    158.73  " /><g ewd:figtype="title"><text style="&st18;" transform="matrix(&st17;  448.15  183.16 )" ewd:textID="32">No. 8 Junction <tspan x="0 " dy="6.0">Connector</tspan></text><text style="&st18;" transform="matrix(&st17;  441.32  183.15 )">I105(A)</text></g></g><g ewd:figtype="conn" ewd:figID="7" ewd:code="A25,A26"><path style="stroke-width:1.42 ;&st7;  " d=" M   305.95,   307.73  L   433.43,   307.73  " /><path style="stroke-width:1.42 ;&st7;  " d=" M   305.95,   316.23  L   433.43,   316.23  L   433.43,   299.24  L   305.95,   299.24  L   305.95,   316.23  " /><text style="&st18;" transform="matrix(&st16;  305.75  322.73 )">1</text><path style="stroke-width:1.42 ;&st7;   " d=" M   318.98,   320.77  C   318.98    318.26    316.95    316.23    314.45    316.23  " /><path style="stroke-width:1.42 ;&st7;   " d=" M   314.45,   316.23  C   311.94    316.23    309.91    318.26    309.91    320.77  " /><path style="stroke-width:1.42 ;&st7;   " d=" M   309.91,   320.77  C   309.91    323.27    311.94    325.30    314.45    325.30  " /><path style="stroke-width:1.42 ;&st7;   " d=" M   314.45,   325.30  C   316.95    325.30    318.98    323.27    318.98    320.77  " /><text style="&st18;" transform="matrix(&st16;  312.26  322.73 )">B</text><text style="&st18;" transform="matrix(&st16;  305.75  296.67 )">1</text><path style="stroke-width:1.42 ;&st7;   " d=" M   318.98,   294.70  C   318.98    292.20    316.95    290.17    314.45    290.17  " /><path style="stroke-width:1.42 ;&st7;   " d=" M   314.45,   290.17  C   311.94    290.17    309.91    292.20    309.91    294.70  " /><path style="stroke-width:1.42 ;&st7;   " d=" M   309.91,   294.70  C   309.91    297.21    311.94    299.24    314.45    299.24  " /><path style="stroke-width:1.42 ;&st7;   " d=" M   314.45,   299.24  C   316.95    299.24    318.98    297.21    318.98    294.70  " /><text style="&st18;" transform="matrix(&st16;  312.14  296.67 )">A</text><text style="&st18;" transform="matrix(&st16;  339.75  322.73 )">2</text><path style="stroke-width:1.42 ;&st7;   " d=" M   352.97,   320.77  C   352.97    318.26    350.95    316.23    348.44    316.23  " /><path style="stroke-width:1.42 ;&st7;   " d=" M   348.44,   316.23  C   345.94    316.23    343.91    318.26    343.91    320.77  " /><path style="stroke-width:1.42 ;&st7;   " d=" M   343.91,   320.77  C   343.91    323.27    345.94    325.30    348.44    325.30  " /><path style="stroke-width:1.42 ;&st7;   " d=" M   348.44,   325.30  C   350.95    325.30    352.97    323.27    352.97    320.77  " /><text style="&st18;" transform="matrix(&st16;  346.25  322.73 )">B</text><text style="&st18;" transform="matrix(&st16;  339.75  296.67 )">2</text><path style="stroke-width:1.42 ;&st7;   " d=" M   352.97,   294.70  C   352.97    292.20    350.95    290.17    348.44    290.17  " /><path style="stroke-width:1.42 ;&st7;   " d=" M   348.44,   290.17  C   345.94    290.17    343.91    292.20    343.91    294.70  " /><path style="stroke-width:1.42 ;&st7;   " d=" M   343.91,   294.70  C   343.91    297.21    345.94    299.24    348.44    299.24  " /><path style="stroke-width:1.42 ;&st7;   " d=" M   348.44,   299.24  C   350.95    299.24    352.97    297.21    352.97    294.70  " /><text style="&st18;" transform="matrix(&st16;  346.14  296.67 )">A</text><text style="&st18;" transform="matrix(&st16;  416.24  322.73 )">5</text><text style="&st18;" transform="matrix(&st16;  422.74  322.73 )">B</text><path style="stroke-width:1.42 ;&st7;   " d=" M   429.46,   320.77  C   429.46    318.26    427.43    316.23    424.93    316.23  " /><path style="stroke-width:1.42 ;&st7;   " d=" M   424.93,   316.23  C   422.43    316.23    420.40    318.26    420.40    320.77  " /><path style="stroke-width:1.42 ;&st7;   " d=" M   420.40,   320.77  C   420.40    323.27    422.43    325.30    424.93    325.30  " /><path style="stroke-width:1.42 ;&st7;   " d=" M   424.93,   325.30  C   427.43    325.30    429.46    323.27    429.46    320.77  " /><text style="&st18;" transform="matrix(&st16;  416.24  296.67 )">5</text><text style="&st18;" transform="matrix(&st16;  422.62  296.67 )">A</text><path style="stroke-width:1.42 ;&st7;   " d=" M   429.46,   294.70  C   429.46    292.20    427.43    290.17    424.93    290.17  " /><path style="stroke-width:1.42 ;&st7;   " d=" M   424.93,   290.17  C   422.43    290.17    420.40    292.20    420.40    294.70  " /><path style="stroke-width:1.42 ;&st7;   " d=" M   420.40,   294.70  C   420.40    297.21    422.43    299.24    424.93    299.24  " /><path style="stroke-width:1.42 ;&st7;   " d=" M   424.93,   299.24  C   427.43    299.24    429.46    297.21    429.46    294.70  " /><g ewd:figtype="title"><text style="&st18;" transform="matrix(&st17;  441.32  319.13 )">A25(A),A26(B)</text><text style="&st18;" transform="matrix(&st17;  448.15  319.14 )" ewd:textID="10">Brake Vacuum <tspan x="0 " dy="6.0">Check Valve </tspan><tspan x="0 " dy="6.0">Assembly</tspan></text></g></g><g ewd:figtype="conn" ewd:figID="8" ewd:code="A27,A28"><path style="stroke-width:1.42 ;&st7;  " d=" M   305.95,   511.70  L   365.44,   511.70  " /><path style="stroke-width:1.42 ;&st7;  " d=" M   305.95,   520.20  L   365.44,   520.20  L   365.44,   503.20  L   305.95,   503.20  L   305.95,   520.20  " /><text style="&st18;" transform="matrix(&st16;  305.75  526.7 )">1</text><path style="stroke-width:1.42 ;&st7;   " d=" M   318.98,   524.73  C   318.98    522.23    316.95    520.20    314.45    520.20  " /><path style="stroke-width:1.42 ;&st7;   " d=" M   314.45,   520.20  C   311.94    520.20    309.91    522.23    309.91    524.73  " /><path style="stroke-width:1.42 ;&st7;   " d=" M   309.91,   524.73  C   309.91    527.23    311.94    529.26    314.45    529.26  " /><path style="stroke-width:1.42 ;&st7;   " d=" M   314.45,   529.26  C   316.95    529.26    318.98    527.23    318.98    524.73  " /><text style="&st18;" transform="matrix(&st16;  312.14  526.7 )">A</text><text style="&st18;" transform="matrix(&st16;  305.75  500.64 )">1</text><text style="&st18;" transform="matrix(&st16;  312.26  500.64 )">B</text><path style="stroke-width:1.42 ;&st7;   " d=" M   318.98,   498.67  C   318.98    496.17    316.95    494.14    314.45    494.14  " /><path style="stroke-width:1.42 ;&st7;   " d=" M   314.45,   494.14  C   311.94    494.14    309.91    496.17    309.91    498.67  " /><path style="stroke-width:1.42 ;&st7;   " d=" M   309.91,   498.67  C   309.91    501.17    311.94    503.20    314.45    503.20  " /><path style="stroke-width:1.42 ;&st7;   " d=" M   314.45,   503.20  C   316.95    503.20    318.98    501.17    318.98    498.67  " /><text style="&st18;" transform="matrix(&st16;  348.25  526.7 )">2</text><text style="&st18;" transform="matrix(&st16;  354.64  526.7 )">A</text><path style="stroke-width:1.42 ;&st7;   " d=" M   361.47,   524.73  C   361.47    522.23    359.44    520.20    356.94    520.20  " /><path style="stroke-width:1.42 ;&st7;   " d=" M   356.94,   520.20  C   354.44    520.20    352.41    522.23    352.41    524.73  " /><path style="stroke-width:1.42 ;&st7;   " d=" M   352.41,   524.73  C   352.41    527.23    354.44    529.26    356.94    529.26  " /><path style="stroke-width:1.42 ;&st7;   " d=" M   356.94,   529.26  C   359.44    529.26    361.47    527.23    361.47    524.73  " /><text style="&st18;" transform="matrix(&st16;  348.25  500.64 )">2</text><text style="&st18;" transform="matrix(&st16;  354.75  500.64 )">B</text><path style="stroke-width:1.42 ;&st7;   " d=" M   361.47,   498.67  C   361.47    496.17    359.44    494.14    356.94    494.14  " /><path style="stroke-width:1.42 ;&st7;   " d=" M   356.94,   494.14  C   354.44    494.14    352.41    496.17    352.41    498.67  " /><path style="stroke-width:1.42 ;&st7;   " d=" M   352.41,   498.67  C   352.41    501.17    354.44    503.20    356.94    503.20  " /><path style="stroke-width:1.42 ;&st7;   " d=" M   356.94,   503.20  C   359.44    503.20    361.47    501.17    361.47    498.67  " /><g ewd:figtype="title"><text style="&st18;" transform="matrix(&st17;  380.16  523.1 )" ewd:textID="10">Brake Vacuum <tspan x="0 " dy="6.0">Check Valve </tspan><tspan x="0 " dy="6.0">Assembly</tspan></text><text style="&st18;" transform="matrix(&st17;  373.33  523.1 )">A27(A),A28(B)</text></g></g><g ewd:figtype="conn" ewd:figID="46" ewd:code="A42"><path style="stroke-width:1.42 ;&st7;  " d=" M   297.45,   452.21  L  2354.11,   452.21  L  2354.11,   409.72  L   297.45,   409.72  L   297.45,   452.21  " /><g ewd:lineID="17"><text style="&st18;" transform="matrix(&st16;  305.16  460.4 )">13</text><text style="&st18;" transform="matrix(&st16;  309.78  448.51 )">BM</text></g><g ewd:lineID="18,19"><text style="&st18;" transform="matrix(&st16;  305.16  406.03 )">25</text><text style="&st18;" transform="matrix(&st16;  306.25  417.35 )">GND1</text></g><g ewd:lineID="21,22"><text style="&st18;" transform="matrix(&st16;  339.16  406.03 )">38</text><text style="&st18;" transform="matrix(&st16;  343.15  417.35 )">+BS</text></g><g ewd:lineID="25"><text style="&st18;" transform="matrix(&st16;  350.76  460.4 )">1</text><text style="&st18;" transform="matrix(&st16;  348.74  448.51 )">GND2</text></g><g ewd:lineID="27"><text style="&st18;" transform="matrix(&st16;  415.64  406.03 )">12</text><text style="&st18;" transform="matrix(&st16;  420.03  417.35 )">IG1</text></g><g ewd:figtype="title"><text style="&st18;" transform="matrix(&st16;  404.52  460.1 )">A42</text><text style="&st18;" transform="matrix(&st16;  404.53  466.93 )" ewd:textID="8">Brake Actuator Assembly</text></g></g><g ewd:figtype="conn" ewd:figID="53" ewd:code="I61,I70"><path style="stroke-width:1.42 ;&st7;  " d=" M    67.99,   171.76  L    84.99,   171.76  L    84.99,   188.75  L    67.99,   188.75  L    67.99,   171.76  " /><path style="stroke-width:0.85 ;&st7;  " d=" M    76.49,   171.76  L    76.49,   188.75  " /><text style="&st18;" transform="matrix(&st16;  67.79  169.19 )">8</text><text style="&st18;" transform="matrix(&st16;  64.69  160.13 )">15</text><path style="stroke-width:1.42 ;&st7;   " d=" M    81.02,   167.22  C    81.02    164.72     78.99    162.69     76.49    162.69  " /><path style="stroke-width:1.42 ;&st7;   " d=" M    76.49,   162.69  C    73.98    162.69     71.95    164.72     71.95    167.22  " /><path style="stroke-width:1.42 ;&st7;   " d=" M    71.95,   167.22  C    71.95    169.73     73.98    171.76     76.49    171.76  " /><path style="stroke-width:1.42 ;&st7;   " d=" M    76.49,   171.76  C    78.99    171.76     81.02    169.73     81.02    167.22  " /><path style="stroke-width:1.42 ;&st7;   " d=" M    81.02,   158.16  C    81.02    155.66     78.99    153.63     76.49    153.63  " /><path style="stroke-width:1.42 ;&st7;   " d=" M    76.49,   153.63  C    73.98    153.63     71.95    155.66     71.95    158.16  " /><path style="stroke-width:1.42 ;&st7;   " d=" M    71.95,   158.16  C    71.95    160.66     73.98    162.69     76.49    162.69  " /><path style="stroke-width:1.42 ;&st7;   " d=" M    76.49,   162.69  C    78.99    162.69     81.02    160.66     81.02    158.16  " /><text style="&st18;" transform="matrix(&st16;  74.07  169.19 )">C</text><text style="&st18;" transform="matrix(&st16;  74.18  160.13 )">A</text><text style="&st18;" transform="matrix(&st16;  64.69  195.26 )">17</text><text style="&st18;" transform="matrix(&st16;  64.69  204.32 )">10</text><path style="stroke-width:1.42 ;&st7;   " d=" M    81.02,   193.29  C    81.02    190.78     78.99    188.75     76.49    188.75  " /><path style="stroke-width:1.42 ;&st7;   " d=" M    76.49,   188.75  C    73.98    188.75     71.95    190.78     71.95    193.29  " /><path style="stroke-width:1.42 ;&st7;   " d=" M    71.95,   193.29  C    71.95    195.79     73.98    197.82     76.49    197.82  " /><path style="stroke-width:1.42 ;&st7;   " d=" M    76.49,   197.82  C    78.99    197.82     81.02    195.79     81.02    193.29  " /><path style="stroke-width:1.42 ;&st7;   " d=" M    81.02,   202.35  C    81.02    199.85     78.99    197.82     76.49    197.82  " /><path style="stroke-width:1.42 ;&st7;   " d=" M    76.49,   197.82  C    73.98    197.82     71.95    199.85     71.95    202.35  " /><path style="stroke-width:1.42 ;&st7;   " d=" M    71.95,   202.35  C    71.95    204.85     73.98    206.88     76.49    206.88  " /><path style="stroke-width:1.42 ;&st7;   " d=" M    76.49,   206.88  C    78.99    206.88     81.02    204.85     81.02    202.35  " /><text style="&st18;" transform="matrix(&st16;  74.07  204.32 )">C</text><text style="&st18;" transform="matrix(&st16;  74.18  195.26 )">A</text><g ewd:figtype="title"><text style="&st18;" transform="matrix(&st17;  55.51  191.66 )" ewd:textID="35">No. 11 Junction <tspan x="0 " dy="6.0">Connector</tspan></text><text style="&st18;" transform="matrix(&st17;  48.69  191.65 )">I61(C)</text><text style="&st18;" transform="matrix(&st17;  33.98  191.66 )" ewd:textID="40">No. 19 Junction <tspan x="0 " dy="6.0">Connector</tspan></text><text style="&st18;" transform="matrix(&st17;  27.16  191.65 )">I70(A)</text></g><g ewd:code="" ewd:figID="269" ewd:comment="" ewd:figtype="commref"><text style="&st18;" transform="matrix(&st16;  81.58  204.32 )">(RHD)</text></g><g ewd:code="" ewd:figID="270" ewd:comment="" ewd:figtype="commref"><text style="&st18;" transform="matrix(&st16;  81.58  195.26 )">(LHD)</text></g><g ewd:code="" ewd:figID="271" ewd:comment="" ewd:figtype="commref"><text style="&st18;" transform="matrix(&st16;  81.58  169.19 )">(RHD)</text></g><g ewd:code="" ewd:figID="272" ewd:comment="" ewd:figtype="commref"><text style="&st18;" transform="matrix(&st16;  81.58  160.13 )">(LHD)</text></g></g><g ewd:figtype="conn" ewd:figID="54" ewd:code="C35"><path style="stroke-width:1.42 ;&st7;  " d=" M    76.49,   411.13  L    82.15,   388.47  " /><path style="stroke-width:0.85 ;&st7;  " d=" M    76.49,   418.22  L    76.49,   413.97  " /><path style="stroke-width:0.85 ;&st7;  " d=" M    76.49,   388.47  L    76.49,   384.22  " /><path style="stroke-width:0.85 ;&st7;   " d=" M    77.90,   412.55  C    77.90    411.77     77.27    411.13     76.49    411.13  " /><path style="stroke-width:0.85 ;&st7;   " d=" M    76.49,   411.13  C    75.70    411.13     75.07    411.77     75.07    412.55  " /><path style="stroke-width:0.85 ;&st7;   " d=" M    75.07,   412.55  C    75.07    413.33     75.70    413.97     76.49    413.97  " /><path style="stroke-width:0.85 ;&st7;   " d=" M    76.49,   413.97  C    77.27    413.97     77.90    413.33     77.90    412.55  " /><path style="stroke-width:0.85 ;&st7;   " d=" M    77.90,   389.89  C    77.90    389.10     77.27    388.47     76.49    388.47  " /><path style="stroke-width:0.85 ;&st7;   " d=" M    76.49,   388.47  C    75.70    388.47     75.07    389.10     75.07    389.89  " /><path style="stroke-width:0.85 ;&st7;   " d=" M    75.07,   389.89  C    75.07    390.67     75.70    391.30     76.49    391.30  " /><path style="stroke-width:0.85 ;&st7;   " d=" M    76.49,   391.30  C    77.27    391.30     77.90    390.67     77.90    389.89  " /><path style="stroke-width:1.42 ;&st7;  " d=" M    67.99,   426.71  L   101.98,   426.71  L   101.98,   375.72  L    67.99,   375.72  L    67.99,   426.71  " /><path style="stroke-width:0.85 ;&st7;  " d=" M    76.49,   384.22  L    76.49,   375.72  " /><path style="stroke-width:0.85 ;&st7;  " d=" M    76.49,   426.71  L    76.49,   418.22  " /><text style="&st18;" transform="matrix(&st16;  79.07  423.02 )">GND</text><text style="&st18;" transform="matrix(&st16;  79.07  383.92 )">B</text><text style="&st18;" transform="matrix(&st16;  67.79  433.22 )">1</text><path style="stroke-width:1.42 ;&st7;   " d=" M    81.02,   431.25  C    81.02    428.74     78.99    426.71     76.49    426.71  " /><path style="stroke-width:1.42 ;&st7;   " d=" M    76.49,   426.71  C    73.98    426.71     71.95    428.74     71.95    431.25  " /><path style="stroke-width:1.42 ;&st7;   " d=" M    71.95,   431.25  C    71.95    433.75     73.98    435.78     76.49    435.78  " /><path style="stroke-width:1.42 ;&st7;   " d=" M    76.49,   435.78  C    78.99    435.78     81.02    433.75     81.02    431.25  " /><text style="&st18;" transform="matrix(&st16;  74.18  433.22 )">A</text><text style="&st18;" transform="matrix(&st16;  67.79  373.16 )">2</text><path style="stroke-width:1.42 ;&st7;   " d=" M    81.02,   371.19  C    81.02    368.69     78.99    366.66     76.49    366.66  " /><path style="stroke-width:1.42 ;&st7;   " d=" M    76.49,   366.66  C    73.98    366.66     71.95    368.69     71.95    371.19  " /><path style="stroke-width:1.42 ;&st7;   " d=" M    71.95,   371.19  C    71.95    373.69     73.98    375.72     76.49    375.72  " /><path style="stroke-width:1.42 ;&st7;   " d=" M    76.49,   375.72  C    78.99    375.72     81.02    373.69     81.02    371.19  " /><text style="&st18;" transform="matrix(&st16;  74.18  373.16 )">A</text><g ewd:figtype="title"><text style="&st18;" transform="matrix(&st17;  40.5  438.12 )" ewd:textID="11">Center Differential <tspan x="0 " dy="6.0">Lock </tspan><tspan x="0 " dy="6.0">Indicator Switch </tspan><tspan x="0 " dy="6.0">(No. 1 Transfer </tspan><tspan x="0 " dy="6.0"> Indicator Switch)</tspan></text><text style="&st18;" transform="matrix(&st17;  33.67  438.11 )">C35(A)</text></g></g><g ewd:figtype="conn" ewd:figID="55" ewd:code="A23"><path style="stroke-width:1.42 ;&st7;  " d=" M   110.48,   605.18  L   110.48,   622.18  L   127.48,   622.18  L   127.48,   605.18  L   110.48,   605.18  " /><path style="stroke-width:0.85 ;&st7;  " d=" M   118.98,   605.18  L   118.98,   622.18  " /><text style="&st18;" transform="matrix(&st16;  110.29  602.62 )">5</text><path style="stroke-width:1.42 ;&st7;   " d=" M   123.51,   600.65  C   123.51    598.15    121.48    596.12    118.98    596.12  " /><path style="stroke-width:1.42 ;&st7;   " d=" M   118.98,   596.12  C   116.48    596.12    114.45    598.15    114.45    600.65  " /><path style="stroke-width:1.42 ;&st7;   " d=" M   114.45,   600.65  C   114.45    603.15    116.48    605.18    118.98    605.18  " /><path style="stroke-width:1.42 ;&st7;   " d=" M   118.98,   605.18  C   121.48    605.18    123.51    603.15    123.51    600.65  " /><text style="&st18;" transform="matrix(&st16;  116.68  602.62 )">A</text><text style="&st18;" transform="matrix(&st16;  110.29  628.68 )">1</text><path style="stroke-width:1.42 ;&st7;   " d=" M   123.51,   626.71  C   123.51    624.21    121.48    622.18    118.98    622.18  " /><path style="stroke-width:1.42 ;&st7;   " d=" M   118.98,   622.18  C   116.48    622.18    114.45    624.21    114.45    626.71  " /><path style="stroke-width:1.42 ;&st7;   " d=" M   114.45,   626.71  C   114.45    629.22    116.48    631.25    118.98    631.25  " /><path style="stroke-width:1.42 ;&st7;   " d=" M   118.98,   631.25  C   121.48    631.25    123.51    629.22    123.51    626.71  " /><text style="&st18;" transform="matrix(&st16;  116.68  628.68 )">A</text><g ewd:figtype="title"><text style="&st18;" transform="matrix(&st17;  135.37  625.08 )">A23(A)</text><text style="&st18;" transform="matrix(&st17;  142.2  625.09 )" ewd:textID="24">No. 2 <tspan x="0 " dy="6.0">Junction </tspan><tspan x="0 " dy="6.0">Connector</tspan></text></g></g><g ewd:figtype="conn" ewd:figID="56" ewd:code="A22"><path style="stroke-width:0.85 ;&st7;  " d=" M   178.47,   605.18  L   178.47,   622.18  " /><path style="stroke-width:1.42 ;&st7;  " d=" M   169.97,   605.18  L   186.97,   605.18  L   186.97,   622.18  L   169.97,   622.18  L   169.97,   605.18  " /><text style="&st18;" transform="matrix(&st16;  169.78  628.68 )">3</text><text style="&st18;" transform="matrix(&st16;  176.17  628.68 )">A</text><path style="stroke-width:1.42 ;&st7;   " d=" M   183.00,   626.71  C   183.00    624.21    180.97    622.18    178.47    622.18  " /><path style="stroke-width:1.42 ;&st7;   " d=" M   178.47,   622.18  C   175.97    622.18    173.94    624.21    173.94    626.71  " /><path style="stroke-width:1.42 ;&st7;   " d=" M   173.94,   626.71  C   173.94    629.22    175.97    631.25    178.47    631.25  " /><path style="stroke-width:1.42 ;&st7;   " d=" M   178.47,   631.25  C   180.97    631.25    183.00    629.22    183.00    626.71  " /><text style="&st18;" transform="matrix(&st16;  169.78  602.62 )">4</text><text style="&st18;" transform="matrix(&st16;  176.17  602.62 )">A</text><path style="stroke-width:1.42 ;&st7;   " d=" M   183.00,   600.65  C   183.00    598.15    180.97    596.12    178.47    596.12  " /><path style="stroke-width:1.42 ;&st7;   " d=" M   178.47,   596.12  C   175.97    596.12    173.94    598.15    173.94    600.65  " /><path style="stroke-width:1.42 ;&st7;   " d=" M   173.94,   600.65  C   173.94    603.15    175.97    605.18    178.47    605.18  " /><path style="stroke-width:1.42 ;&st7;   " d=" M   178.47,   605.18  C   180.97    605.18    183.00    603.15    183.00    600.65  " /><g ewd:figtype="title"><text style="&st18;" transform="matrix(&st17;  194.86  625.08 )">A22(A)</text><text style="&st18;" transform="matrix(&st17;  201.69  625.09 )" ewd:textID="22">No. 1 Junction <tspan x="0 " dy="6.0">Connector</tspan></text></g></g><g ewd:figtype="w2w" ewd:figID="70" ewd:code="IC1"><path style="stroke-width:1.42 ;&st7;  " d=" M    80.74,   531.53  L    76.49,   535.78  L    72.24,   531.53  " /><path style="stroke-width:1.42 ;&st7;  " d=" M    72.24,   528.13  L    76.49,   532.38  L    80.74,   528.13  " /><text style="&st18;" transform="matrix(&st16;  63.86  543.41 )">1</text></g><g ewd:figtype="w2w" ewd:figID="71" ewd:code="IC1"><path style="stroke-width:1.42 ;&st7;  " d=" M    80.74,   287.90  L    76.49,   283.65  L    72.24,   287.90  " /><path style="stroke-width:1.42 ;&st7;  " d=" M    80.74,   291.30  L    76.49,   287.05  L    72.24,   291.30  " /><text style="&st18;" transform="matrix(&st16;  63.86  279.96 )">5</text></g><g ewd:figtype="w2w" ewd:figID="72" ewd:code="CA3"><path style="stroke-width:1.42 ;&st7;  " d=" M   140.23,   319.07  L   135.98,   323.31  L   131.73,   319.07  " /><path style="stroke-width:1.42 ;&st7;  " d=" M   131.73,   315.67  L   135.98,   319.92  L   140.23,   315.67  " /><text style="&st18;" transform="matrix(&st16;  123.35  330.95 )">6</text></g><g ewd:figtype="w2w" ewd:figID="73" ewd:code="AI3"><text style="&st18;" transform="matrix(&st16;  120.24  279.96 )">48</text><g ewd:code="" ewd:figID="273" ewd:comment="" ewd:figtype="commref"><text style="&st18;" transform="matrix(&st16;  145.01  279.96 )">(RHD)</text></g></g><g ewd:figtype="w2w" ewd:figID="74" ewd:code="AI3"><path style="stroke-width:1.42 ;&st7;  " d=" M   140.23,   259.58  L   135.98,   263.82  L   131.73,   259.58  " /><path style="stroke-width:1.42 ;&st7;  " d=" M   131.73,   256.18  L   135.98,   260.43  L   140.23,   256.18  " /><text style="&st18;" transform="matrix(&st16;  120.24  271.46 )">21</text><g ewd:code="" ewd:figID="274" ewd:comment="" ewd:figtype="commref"><text style="&st18;" transform="matrix(&st16;  145.01  271.46 )">(LHD)</text></g></g><g ewd:figtype="w2w" ewd:figID="75" ewd:code="CA3"><path style="stroke-width:1.42 ;&st7;  " d=" M   182.72,   542.86  L   178.47,   538.61  L   174.22,   542.86  " /><path style="stroke-width:1.42 ;&st7;  " d=" M   182.72,   546.26  L   178.47,   542.01  L   174.22,   546.26  " /><text style="&st18;" transform="matrix(&st16;  165.84  534.92 )">7</text></g><g ewd:figtype="w2w" ewd:figID="76" ewd:code="IA2"><path style="stroke-width:1.42 ;&st7;  " d=" M   429.18,   253.91  L   424.93,   249.66  L   420.68,   253.91  " /><text style="&st18;" transform="matrix(&st16;  412.3  245.96 )">4</text><path style="stroke-width: 1.42 ;&st7;  " d=" M   429.18,   257.31  L   424.93,   253.06  L   420.68,   257.31  " /></g><g ewd:figtype="gp" ewd:figID="170" ewd:code="IE"><path style="stroke-width: 0.85 ;&st7;  " d=" M    75.07,   710.00  L    77.90,   710.00  " /><path style="stroke-width: 0.85 ;&st7;  " d=" M    73.65,   707.17  L    79.32,   707.17  " /><path style="stroke-width: 0.85 ;&st7;  " d=" M    72.24,   704.33  L    80.74,   704.33  " /><path style="stroke-width: 0.85 ;&st7;  " d=" M    67.99,   701.50  L    84.99,   701.50  " /><path style="stroke-width: 0.85 ;&st7;  " d=" M    76.49,   697.25  L    76.49,   701.50  " /></g><g ewd:figtype="gp" ewd:figID="171" ewd:code="AA"><path style="stroke-width: 0.85 ;&st7;  " d=" M   177.05,   710.00  L   179.89,   710.00  " /><path style="stroke-width: 0.85 ;&st7;  " d=" M   175.64,   707.17  L   181.30,   707.17  " /><path style="stroke-width: 0.85 ;&st7;  " d=" M   174.22,   704.33  L   182.72,   704.33  " /><path style="stroke-width: 0.85 ;&st7;  " d=" M   169.97,   701.50  L   186.97,   701.50  " /><path style="stroke-width: 0.85 ;&st7;  " d=" M   178.47,   697.25  L   178.47,   701.50  " /></g><g ewd:figtype="gp" ewd:figID="172" ewd:code="AD"><path style="stroke-width: 0.85 ;&st7;  " d=" M   219.55,   710.00  L   222.38,   710.00  " /><path style="stroke-width: 0.85 ;&st7;  " d=" M   218.13,   707.17  L   223.80,   707.17  " /><path style="stroke-width: 0.85 ;&st7;  " d=" M   216.71,   704.33  L   225.21,   704.33  " /><path style="stroke-width: 0.85 ;&st7;  " d=" M   212.46,   701.50  L   229.46,   701.50  " /><path style="stroke-width: 0.85 ;&st7;  " d=" M   220.96,   697.25  L   220.96,   701.50  " /></g><g ewd:figtype="gp" ewd:figID="173" ewd:code="AA"><path style="stroke-width: 0.85 ;&st7;  " d=" M   355.52,   710.00  L   358.36,   710.00  " /><path style="stroke-width: 0.85 ;&st7;  " d=" M   354.11,   707.17  L   359.77,   707.17  " /><path style="stroke-width: 0.85 ;&st7;  " d=" M   352.69,   704.33  L   361.19,   704.33  " /><path style="stroke-width: 0.85 ;&st7;  " d=" M   348.44,   701.50  L   365.44,   701.50  " /><path style="stroke-width: 0.85 ;&st7;  " d=" M   356.94,   697.25  L   356.94,   701.50  " /></g></svg>