<?xml version="1.0" encoding="utf-8"?>
<!DOCTYPE svg PUBLIC "-//W3C//DTD SVG 1.0//EN" "http://www.w3.org/TR/2001/REC-SVG-20010904/DTD/svg10.dtd"[
	<!ENTITY ns_flows "http://ns.adobe.com/Flows/1.0/">
	<!ENTITY ns_svg "http://www.w3.org/2000/svg">
	<!ENTITY ns_xlink "http://www.w3.org/1999/xlink">
	<!ENTITY st0 "font-size:7px;font-family:'MS-PGothic';adobe-font-script:japanese;">
	<!ENTITY st1 "font-size:6px;font-family:'ArialMT';">
	<!-- White fill  -->
	<!ENTITY st2 "fill:#FFFFFF;stroke:#000000; stroke-width:1.41;stroke-linecap:round;stroke-linejoin:round;">
	<!-- Yellow fill  -->
	<!ENTITY st3 "fill:#FFFFCC;stroke:#FFFFCC; stroke-width:0.1;stroke-linecap:round;stroke-linejoin:round;">
	<!-- Gray fill  -->
	<!ENTITY st4 "fill:#CCCCCC;stroke:#CCCCCC; stroke-width:0.1;stroke-linecap:round;stroke-linejoin:round;">
	<!-- Light-blue fill -->
	<!ENTITY st5 "fill:#CCECF4;stroke:#000000; stroke-width:1.133;stroke-linecap:round;stroke-linejoin:round;">
	<!ENTITY st6 "fill:none;stroke-linecap:butt; stroke-linejoin:round;">
	<!ENTITY st7 "fill:none;stroke:#000000;stroke-linecap:round;stroke-linejoin:round;">
	<!ENTITY st8 "enable-background:new    ;">
	<!-- Black fill -->
	<!ENTITY st9 "fill:#000000;stroke:#000000; stroke-linecap:round;stroke-linejoin:round;">
	<!-- SRS note   -->
	<!ENTITY st10 "font-size:9px;font-family:'ArialMT';">
	<!ENTITY st11 "font-size:9px;font-family:'Svg Symbol';">
	<!ENTITY st12 "font-size:6px;font-family:'Svg Symbol';">
	<!ENTITY st13 "fill:none;stroke:#ff0000;stroke-linecap:round;stroke-linejoin:round;">
	<!-- Yellow fill  -->
	<!ENTITY st14 "fill:#FFFF00;stroke:#FFFF00; stroke-width:0.1;stroke-linecap:round;stroke-linejoin:round;">
	<!ENTITY st15 "font-size:6px;font-family:'MS-PGothic';adobe-font-script:japanese;">
	<!ENTITY st16 "1.00 0.00 0.00 1.00">
	<!ENTITY st17 "0.00 -1.00 1.00 0.00">
	<!ENTITY st18 "font-size:6px;font-family:'Arial';">
	<!ENTITY st19 "font-size:9px;font-family:'Arial';">
	<!ENTITY st20 "font-size:6px;font-family:'MS-PGothic','MS PGothic';adobe-font-script:japanese;">
	<!ENTITY st21 "font-size:7px;font-family:'MS-PGothic','MS PGothic';adobe-font-script:japanese;">
	<!ATTLIST svg
		xmlns:ewd CDATA #FIXED "http://shcl.co.jp/ewd"
		xmlns:a CDATA #FIXED "http://ns.adobe.com/AdobeSVGViewerExtensions/3.0/"
		ewd:ver CDATA #IMPLIED
	>
	<!ATTLIST a
		ewd:lineID CDATA #IMPLIED
		ewd:groupID CDATA #IMPLIED
		ewd:figtype CDATA #IMPLIED
		ewd:code CDATA #IMPLIED
		ewd:figID CDATA #IMPLIED
		ewd:pinNo CDATA #IMPLIED
		ewd:comment CDATA #IMPLIED >
	<!ATTLIST g
		ewd:lineID CDATA #IMPLIED
		ewd:groupID CDATA #IMPLIED
		ewd:figtype CDATA #IMPLIED
		ewd:code CDATA #IMPLIED
		ewd:figID CDATA #IMPLIED
		ewd:pinNo CDATA #IMPLIED
		ewd:comment CDATA #IMPLIED >
	<!ATTLIST text
		ewd:textID CDATA #IMPLIED >
	<!ATTLIST title
		ewd:textID CDATA #IMPLIED >
]>
<!-- Generator: Shintec Hozumi YS   -->
<svg onload="call_execInitLoadProc_svg('system')" style="overflow:visible;  enable-background:new 0 0 1872.514 710.000" viewBox="0 0 1872.514 710.000" height="710.000" width="1872.514" xml:space="preserve" ewd:ver="2.1.2.9" xmlns="&ns_svg;" xmlns:a="http://ns.adobe.com/AdobeSVGViewerExtensions/3.0/" xmlns:ewd="http://shcl.co.jp/ewd" xmlns:xlink="&ns_xlink;"><script type="text/javascript" xlink:href="../../../../../system/js/ewd/fig/svgfig.js" xmlns:xlink="http://www.w3.org/1999/xlink" />
<g id="ewd_top"><a ewd:figtype="conn" style="cursor:pointer;" ewd:code="I63,I65" ewd:figID="1"><path style="fill:#CCECF4;stroke:#000000; stroke-width:1.133; stroke-linecap:round;stroke-linejoin:round; " d=" M   696.88,   435.21  L   696.88,   452.21  L   747.88,   452.21  L   747.88,   435.21  L   696.88,   435.21 " /><title ewd:textID="22">No. 13 Junction Connector</title></a><a ewd:figtype="rb" style="cursor:pointer;" ewd:code="FUSE23" ewd:figID="2"><path style="fill:#CCECF4;stroke:#000000; stroke-width:0; stroke-linecap:round;stroke-linejoin:round; " d=" M    63.74,    35.78  L    63.74,    78.27  L    89.24,    78.27  L    89.24,    35.78  L    63.74,    35.78 " /></a><a ewd:figtype="conn" style="cursor:pointer;" ewd:code="I15" ewd:figID="3"><path style="fill:#CCECF4;stroke:#000000; stroke-width:1.133; stroke-linecap:round;stroke-linejoin:round; " d=" M   212.46,   375.72  L   475.92,   375.72  L   475.92,   333.23  L   212.46,   333.23  L   212.46,   375.72 " /><title ewd:textID="12">Heater Blower Switch Assembly</title></a><a ewd:figtype="rb" style="cursor:pointer;" ewd:code="2" ewd:figID="4"><path style="fill:#CCECF4;stroke:#000000; stroke-width:0; stroke-linecap:round;stroke-linejoin:round; " d=" M   110.48,   290.74  L    67.99,   290.74  L    67.99,   324.73  L   110.48,   324.73  L   110.48,   290.74 " /></a><a ewd:figtype="conn" style="cursor:pointer;" ewd:code="I7" ewd:figID="5"><path style="fill:#CCECF4;stroke:#000000; stroke-width:1.133; stroke-linecap:round;stroke-linejoin:round; " d=" M   314.45,   622.18  L   475.92,   622.18  L   475.92,   579.69  L   314.45,   579.69  L   314.45,   622.18 " /><title ewd:textID="7">Blower Resistor</title></a><a ewd:figtype="conn" style="cursor:pointer;" ewd:code="I5,I6" ewd:figID="6"><path style="fill:#CCECF4;stroke:#000000; stroke-width:1.133; stroke-linecap:round;stroke-linejoin:round; " d=" M   624.65,   317.37  L   624.65,   317.37  L   624.65,   313.40  L   633.14,   313.40  L   633.15,   317.37  C   634.50    318.15    635.47    319.13    636.25    320.48  L   636.25,   320.48  C   638.60    324.54    637.21    329.74    633.15    332.09  L   633.14,   332.09  L   633.14,   336.06  L   624.65,   336.06  L   624.65,   332.09  C   623.29    331.31    622.32    330.33    621.53    328.98  L   621.53,   328.98  C   619.19    324.91    620.58    319.71    624.65    317.37 " /><title ewd:textID="10">Front Blower Motor (Heater Blower Case)</title></a><a ewd:figtype="rb" style="cursor:pointer;" ewd:code="FUSE4" ewd:figID="7"><path style="fill:#CCECF4;stroke:#000000; stroke-width:0; stroke-linecap:round;stroke-linejoin:round; " d=" M   565.16,   146.26  L   565.16,   188.75  L   590.65,   188.75  L   590.65,   146.26  L   565.16,   146.26 " /></a><a ewd:figtype="conn" style="cursor:pointer;" ewd:code="I56" ewd:figID="8"><path style="fill:#CCECF4;stroke:#000000; stroke-width:1.133; stroke-linecap:round;stroke-linejoin:round; " d=" M   620.40,   452.21  L   637.39,   452.21  L   637.39,   469.21  L   620.40,   469.21  L   620.40,   452.21 " /><title ewd:textID="17">No. 7 Junction Connector</title></a><a ewd:figtype="conn" style="cursor:pointer;" ewd:code="I59,I67" ewd:figID="9"><path style="fill:#CCECF4;stroke:#000000; stroke-width:1.133; stroke-linecap:round;stroke-linejoin:round; " d=" M  1385.27,   137.76  L  1512.75,   137.76  L  1512.75,   120.77  L  1385.27,   120.77  L  1385.27,   137.76 " /><title ewd:textID="20">No. 10 Junction Connector , No. 16 Junction Connector</title></a><a ewd:figtype="conn" style="cursor:pointer;" ewd:code="I16" ewd:figID="10"><path style="fill:#CCECF4;stroke:#000000; stroke-width:1.133; stroke-linecap:round;stroke-linejoin:round; " d=" M  1381.02,   256.74  L  1381.02,   214.25  L  1406.51,   214.25  L  1406.51,   256.74  L  1381.02,   256.74 " /><title ewd:textID="14">No. 1 Cooler Thermistor</title></a><a ewd:figtype="conn" style="cursor:pointer;" ewd:code="I15" ewd:figID="11"><path style="fill:#CCECF4;stroke:#000000; stroke-width:1.133; stroke-linecap:round;stroke-linejoin:round; " d=" M  1487.25,   248.24  L  1521.25,   248.24  L  1521.25,   214.25  L  1487.25,   214.25  L  1487.25,   248.24 " /><title ewd:textID="12">Heater Blower Switch Assembly</title></a><a ewd:figtype="rb" style="cursor:pointer;" ewd:code="1" ewd:figID="12"><path style="fill:#CCECF4;stroke:#000000; stroke-width:0; stroke-linecap:round;stroke-linejoin:round; " d=" M  1334.28,   205.75  L  1291.78,   205.75  L  1291.78,   239.75  L  1334.28,   239.75  L  1334.28,   205.75 " /></a><a ewd:figtype="conn" style="cursor:pointer;" ewd:code="A18" ewd:figID="13"><path style="fill:#CCECF4;stroke:#000000; stroke-width:1.133; stroke-linecap:round;stroke-linejoin:round; " d=" M  1206.80,   486.20  L  1240.79,   486.20  L  1240.79,   443.71  L  1206.80,   443.71  L  1206.80,   486.20 " /><title ewd:textID="16">No. 1 Vacuum Switching Valve (A/C Idle-Up)</title></a><a ewd:figtype="conn" style="cursor:pointer;" ewd:code="I33" ewd:figID="14"><path style="fill:#CCECF4;stroke:#000000; stroke-width:1.133; stroke-linecap:round;stroke-linejoin:round; " d=" M  1130.31,   596.69  L  1164.31,   596.69  L  1164.31,   562.69  L  1130.31,   562.69  L  1130.31,   596.69 " /><title ewd:textID="13">Magnet Clutch Assembly</title></a><a ewd:figtype="conn" style="cursor:pointer;" ewd:code="A22" ewd:figID="15"><path style="fill:#CCECF4;stroke:#000000; stroke-width:1.133; stroke-linecap:round;stroke-linejoin:round; " d=" M  1215.30,   554.19  L  1232.29,   554.19  L  1232.29,   571.19  L  1215.30,   571.19  L  1215.30,   554.19 " /><title ewd:textID="15">No. 1 Junction Connector</title></a><a ewd:figtype="conn" style="cursor:pointer;" ewd:code="I66" ewd:figID="16"><path style="fill:#CCECF4;stroke:#000000; stroke-width:1.133; stroke-linecap:round;stroke-linejoin:round; " d=" M  1138.81,   452.21  L  1155.81,   452.21  L  1155.81,   469.21  L  1138.81,   469.21  L  1138.81,   452.21 " /><title ewd:textID="23">No. 15 Junction Connector</title></a><a ewd:figtype="conn" style="cursor:pointer;" ewd:code="I73" ewd:figID="17"><path style="fill:#CCECF4;stroke:#000000; stroke-width:1.133; stroke-linecap:round;stroke-linejoin:round; " d=" M  1317.28,   537.20  L  1334.28,   537.20  L  1334.28,   554.19  L  1317.28,   554.19  L  1317.28,   537.20 " /><title ewd:textID="26">No. 22 Junction Connector</title></a><a ewd:figtype="conn" style="cursor:pointer;" ewd:code="A6,I2" ewd:figID="18"><path style="fill:#CCECF4;stroke:#000000; stroke-width:1.133; stroke-linecap:round;stroke-linejoin:round; " d=" M  1648.72,   231.25  L  1648.72,   307.73  L  1631.73,   307.73  L  1631.73,   231.25  L  1648.72,   231.25 " /><title ewd:textID="6">A/C Pressure Switch (Cooler Refrigerant Liquid Pipe B)</title></a><a ewd:figtype="conn" style="cursor:pointer;" ewd:code="I59,I70" ewd:figID="19"><path style="fill:#CCECF4;stroke:#000000; stroke-width:1.133; stroke-linecap:round;stroke-linejoin:round; " d=" M  1631.73,   112.27  L  1776.20,   112.27  L  1776.20,    95.27  L  1631.73,    95.27  L  1631.73,   112.27 " /><title ewd:textID="21">No. 10 Junction Connector , No. 19 Junction Connector</title></a><a ewd:figtype="rb" style="cursor:pointer;" ewd:code="FUSE3" ewd:figID="20"><path style="fill:#CCECF4;stroke:#000000; stroke-width:0; stroke-linecap:round;stroke-linejoin:round; " d=" M  1822.95,    35.78  L  1822.95,    78.27  L  1848.44,    78.27  L  1848.44,    35.78  L  1822.95,    35.78 " /></a><a ewd:figtype="conn" style="cursor:pointer;" ewd:code="I59,I70" ewd:figID="21"><path style="fill:#CCECF4;stroke:#000000; stroke-width:1.133; stroke-linecap:round;stroke-linejoin:round; " d=" M  1827.19,   214.25  L  1844.19,   214.25  L  1844.19,   231.25  L  1827.19,   231.25  L  1827.19,   214.25 " /><title ewd:textID="21">No. 10 Junction Connector , No. 19 Junction Connector</title></a><a ewd:figtype="conn" style="cursor:pointer;" ewd:code="I57" ewd:figID="22"><path style="fill:#CCECF4;stroke:#000000; stroke-width:1.133; stroke-linecap:round;stroke-linejoin:round; " d=" M    67.99,   171.76  L    84.99,   171.76  L    84.99,   188.75  L    67.99,   188.75  L    67.99,   171.76 " /><title ewd:textID="18">No. 8 Junction Connector</title></a><a ewd:figtype="conn" style="cursor:pointer;" ewd:code="A31" ewd:figID="23"><path style="fill:#CCECF4;stroke:#000000; stroke-width:1.133; stroke-linecap:round;stroke-linejoin:round; " d=" M  1070.82,   188.75  L  1104.82,   188.75  L  1104.82,   154.76  L  1070.82,   154.76  L  1070.82,   188.75 " /><title ewd:textID="9">Emission Control ECU</title></a><a ewd:figtype="conn" style="cursor:pointer;" ewd:code="I11" ewd:figID="24"><path style="fill:#CCECF4;stroke:#000000; stroke-width:1.133; stroke-linecap:round;stroke-linejoin:round; " d=" M  1300.28,   409.72  L  1300.28,   452.21  L  1852.69,   452.21  L  1852.69,   409.72  L  1300.28,   409.72 " /><title ewd:textID="8">Cooler Stabilizer Amplifier Assembly</title></a><a ewd:figtype="jb" style="cursor:pointer;" ewd:code="3" ewd:figID="30"><path style="&st4; " d=" M   144.48,    35.78  L   144.48,   103.77  L   203.97,   103.77  L   203.97,    35.78  L   144.48,    35.78  " /></a><a ewd:figtype="fuse" style="cursor:pointer;" ewd:code="FUSE23" ewd:figID="48"><path style="&st7; stroke-width:0;" d=" M    63.74,    35.78  L    63.74,    78.27  L    89.24,    78.27  L    89.24,    35.78  L    63.74,    35.78 " /></a><a ewd:figtype="fuse" style="cursor:pointer;" ewd:code="FUSE39" ewd:figID="49"><path style="&st7; stroke-width:0;" d=" M   148.73,    35.78  L   148.73,    78.27  L   174.22,    78.27  L   174.22,    35.78  L   148.73,    35.78 " /></a><a ewd:figtype="fuse" style="cursor:pointer;" ewd:code="FUSE4" ewd:figID="50"><path style="&st7; stroke-width:0;" d=" M   565.16,   146.26  L   565.16,   188.75  L   590.65,   188.75  L   590.65,   146.26  L   565.16,   146.26 " /></a><a ewd:figtype="fuse" style="cursor:pointer;" ewd:code="FUSE3" ewd:figID="51"><path style="&st7; stroke-width:0;" d=" M  1822.95,    35.78  L  1822.95,    78.27  L  1848.44,    78.27  L  1848.44,    35.78  L  1822.95,    35.78 " /></a><a style="cursor:pointer;" ewd:lineID="1"><path style="stroke:#00A0C6;stroke-width:5.10 ;&st6;" d=" M    17.00,   171.76  L    17.00,   120.77  L    67.99,   120.77  L    76.49,   112.27  L    76.49,   103.77  " /></a><a style="cursor:pointer;" ewd:lineID="2"><path style="stroke:#000000;stroke-width:5.10 ;&st6;" d=" M    76.49,   358.73  L    76.49,   452.21  L   229.46,   452.21  L   229.46,   375.72  " /></a><a style="cursor:pointer;" ewd:lineID="3"><path style="stroke:#00A0C6;stroke-width:5.10 ;&st6;" d=" M    76.49,   256.74  L    76.49,   248.24  L    67.99,   239.75  L    17.00,   239.75  L    17.00,   188.75  " /></a><a style="cursor:pointer;" ewd:lineID="4"><path style="stroke:#00A0C6;stroke-width:5.10 ;&st6;" d=" M    76.49,   206.88  L    76.49,   256.74  " /></a><a style="cursor:pointer;" ewd:lineID="5"><path style="stroke:#00A0C6;stroke-width:5.10 ;&st6;" d=" M    76.49,   103.77  L    76.49,   153.63  " /></a><a style="cursor:pointer;" ewd:lineID="6"><path style="stroke:#000000;stroke-width:5.10 ;&st6;" d=" M   135.98,   681.67  L   135.98,   571.19  " /><path style="stroke:#FFFFFF;stroke-width:4.53 ;&st6;" d=" M   135.98,   681.67  L   135.98,   571.19  " /><path style="stroke:#000000;stroke-width:1.13 ;&st6;" d=" M   135.98,   681.67  L   135.98,   571.19  " /></a><a style="cursor:pointer;" ewd:lineID="7"><path style="stroke:#000000;stroke-width:5.10 ;&st6;" d=" M   135.98,   358.73  L   135.98,   554.19  " /><path style="stroke:#FFFFFF;stroke-width:4.53 ;&st6;" d=" M   135.98,   358.73  L   135.98,   554.19  " /><path style="stroke:#000000;stroke-width:1.13 ;&st6;" d=" M   135.98,   358.73  L   135.98,   554.19  " /></a><a style="cursor:pointer;" ewd:lineID="8"><path style="stroke:#000000;stroke-width:5.10 ;&st6;" d=" M   161.47,   186.49  L   161.47,   239.75  L   101.98,   239.75  L   101.98,   256.74  " /><path style="stroke:#FFFFFF;stroke-width:4.53 ;&st6;" d=" M   161.47,   186.49  L   161.47,   239.75  L   101.98,   239.75  L   101.98,   256.74  " /><path style="stroke:#FF0000;stroke-width:1.13 ;&st6;" d=" M   161.47,   186.49  L   161.47,   239.75  L   101.98,   239.75  L   101.98,   256.74  " /></a><a style="cursor:pointer;" ewd:lineID="9"><path style="stroke:#000000;stroke-width:5.10 ;&st6;" d=" M   161.47,   171.76  L   161.47,   103.77  " /><path style="stroke:#FFFFFF;stroke-width:4.53 ;&st6;" d=" M   161.47,   171.76  L   161.47,   103.77  " /><path style="stroke:#FF0000;stroke-width:1.13 ;&st6;" d=" M   161.47,   171.76  L   161.47,   103.77  " /></a><a style="cursor:pointer;" ewd:lineID="10"><path style="stroke:#000000;stroke-width:5.10 ;&st6;" d=" M   263.46,   375.72  L   263.46,   562.69  L   144.48,   562.69  " /><path style="stroke:#FFFFFF;stroke-width:4.53 ;&st6;" d=" M   263.46,   375.72  L   263.46,   562.69  L   144.48,   562.69  " /><path style="stroke:#000000;stroke-width:1.13 ;&st6;" d=" M   263.46,   375.72  L   263.46,   562.69  L   144.48,   562.69  " /></a><a style="cursor:pointer;" ewd:lineID="11"><path style="stroke:#000000;stroke-width:5.10 ;&st6;" d=" M   263.46,   375.72  L   263.46,   384.22  L   271.95,   392.72  L   288.95,   392.72  L   288.95,   554.19  " /><path style="stroke:#FFFFFF;stroke-width:4.53 ;&st6;" d=" M   263.46,   375.72  L   263.46,   384.22  L   271.95,   392.72  L   288.95,   392.72  L   288.95,   554.19  " /><path style="stroke:#000000;stroke-width:1.13 ;&st6;" d=" M   263.46,   375.72  L   263.46,   384.22  L   271.95,   392.72  L   288.95,   392.72  L   288.95,   554.19  " /></a><a style="cursor:pointer;" ewd:lineID="12"><path style="stroke:#000000;stroke-width:5.10 ;&st6;" d=" M   288.95,   571.19  L   288.95,   681.67  " /><path style="stroke:#FFFFFF;stroke-width:4.53 ;&st6;" d=" M   288.95,   571.19  L   288.95,   681.67  " /><path style="stroke:#000000;stroke-width:1.13 ;&st6;" d=" M   288.95,   571.19  L   288.95,   681.67  " /></a><a style="cursor:pointer;" ewd:lineID="13"><path style="stroke:#00A0C6;stroke-width:5.10 ;&st6;" d=" M   331.44,   375.72  L   331.44,   561.56  " /><path style="stroke:#FFFFFF;stroke-width:2.27 ;&st6;" d=" M   331.44,   375.72  L   331.44,   561.56  " /><path style="stroke:#FF7F00;stroke-width:1.13 ;&st6;" d=" M   331.44,   375.72  L   331.44,   561.56  " /></a><a style="cursor:pointer;" ewd:lineID="14"><path style="stroke:#00A0C6;stroke-width:5.10 ;&st6;" d=" M   373.94,   375.72  L   373.94,   561.56  " /><path style="stroke:#FFFFFF;stroke-width:2.27 ;&st6;" d=" M   373.94,   375.72  L   373.94,   561.56  " /><path style="stroke:#FFE600;stroke-width:1.13 ;&st6;" d=" M   373.94,   375.72  L   373.94,   561.56  " /></a><a style="cursor:pointer;" ewd:lineID="15"><path style="stroke:#00A0C6;stroke-width:5.10 ;&st6;" d=" M   416.43,   375.72  L   416.43,   561.56  " /><path style="stroke:#FFFFFF;stroke-width:2.27 ;&st6;" d=" M   416.43,   375.72  L   416.43,   561.56  " /><path style="stroke:#000000;stroke-width:1.13 ;&st6;" d=" M   416.43,   375.72  L   416.43,   561.56  " /></a><a ewd:comment="1" style="cursor:pointer;" ewd:lineID="16"><path style="stroke:#00A0C6;stroke-width:5.10 ;&st6;" d=" M   569.40,   256.74  L   169.97,   256.74  L   169.97,   375.72  L   110.48,   375.72  L   101.98,   367.22  L   101.98,   358.73  " /></a><a ewd:comment="3" style="cursor:pointer;" ewd:lineID="17"><path style="stroke:#00A0C6;stroke-width:5.10 ;&st6;" d=" M   577.90,   222.75  L   577.90,   248.24  " /></a><a ewd:comment="3" style="cursor:pointer;" ewd:lineID="18"><path style="stroke:#00A0C6;stroke-width:5.10 ;&st6;" d=" M   577.90,   112.27  L   577.90,    27.28  L  1767.70,    27.28  L  1767.70,    77.14  " /><path style="stroke:#FFFFFF;stroke-width:2.27 ;&st6;" d=" M   577.90,   112.27  L   577.90,    27.28  L  1767.70,    27.28  L  1767.70,    77.14  " /><path style="stroke:#FF0000;stroke-width:1.13 ;&st6;" d=" M   577.90,   112.27  L   577.90,    27.28  L  1767.70,    27.28  L  1767.70,    77.14  " /></a><a style="cursor:pointer;" ewd:lineID="19"><path style="stroke:#00A0C6;stroke-width:5.10 ;&st6;" d=" M   620.40,   460.71  L   458.92,   460.71  L   458.92,   375.72  " /><path style="stroke:#FFFFFF;stroke-width:2.27 ;&st6;" d=" M   620.40,   460.71  L   458.92,   460.71  L   458.92,   375.72  " /><path style="stroke:#FF0000;stroke-width:1.13 ;&st6;" d=" M   620.40,   460.71  L   458.92,   460.71  L   458.92,   375.72  " /></a><a style="cursor:pointer;" ewd:lineID="20"><path style="stroke:#00A0C6;stroke-width:5.10 ;&st6;" d=" M   628.89,   469.21  L   628.89,   520.20  L   458.92,   520.20  L   458.92,   561.56  " /><path style="stroke:#FFFFFF;stroke-width:2.27 ;&st6;" d=" M   628.89,   469.21  L   628.89,   520.20  L   458.92,   520.20  L   458.92,   561.56  " /><path style="stroke:#FF0000;stroke-width:1.13 ;&st6;" d=" M   628.89,   469.21  L   628.89,   520.20  L   458.92,   520.20  L   458.92,   561.56  " /></a><a style="cursor:pointer;" ewd:lineID="21"><path style="stroke:#00A0C6;stroke-width:5.10 ;&st6;" d=" M   628.89,   452.21  L   628.89,   354.19  " /><path style="stroke:#FFFFFF;stroke-width:2.27 ;&st6;" d=" M   628.89,   452.21  L   628.89,   354.19  " /><path style="stroke:#FF0000;stroke-width:1.13 ;&st6;" d=" M   628.89,   452.21  L   628.89,   354.19  " /></a><a ewd:comment="2" style="cursor:pointer;" ewd:lineID="22"><path style="stroke:#00A0C6;stroke-width:5.10 ;&st6;" d=" M   628.89,   295.27  L   628.89,   290.74  L   620.40,   282.24  L   195.47,   282.24  L   195.47,   426.71  L   101.98,   426.71  L   101.98,   358.73  " /></a><a ewd:comment="1" style="cursor:pointer;" ewd:lineID="23"><path style="stroke:#00A0C6;stroke-width:5.10 ;&st6;" d=" M   628.89,   295.27  L   628.89,   256.74  L   586.40,   256.74  " /></a><a style="cursor:pointer;" ewd:lineID="24"><path style="stroke:#00A0C6;stroke-width:5.10 ;&st6;" d=" M   705.38,   461.27  L   705.38,   545.69  L   467.42,   545.69  L   458.92,   554.19  L   458.92,   561.56  " /><path style="stroke:#FFFFFF;stroke-width:2.27 ;&st6;" d=" M   705.38,   461.27  L   705.38,   545.69  L   467.42,   545.69  L   458.92,   554.19  L   458.92,   561.56  " /><path style="stroke:#FF0000;stroke-width:1.13 ;&st6;" d=" M   705.38,   461.27  L   705.38,   545.69  L   467.42,   545.69  L   458.92,   554.19  L   458.92,   561.56  " /></a><a style="cursor:pointer;" ewd:lineID="25"><path style="stroke:#00A0C6;stroke-width:5.10 ;&st6;" d=" M   705.38,   426.15  L   705.38,   392.72  L   467.42,   392.72  L   458.92,   384.22  L   458.92,   375.72  " /><path style="stroke:#FFFFFF;stroke-width:2.27 ;&st6;" d=" M   705.38,   426.15  L   705.38,   392.72  L   467.42,   392.72  L   458.92,   384.22  L   458.92,   375.72  " /><path style="stroke:#FF0000;stroke-width:1.13 ;&st6;" d=" M   705.38,   426.15  L   705.38,   392.72  L   467.42,   392.72  L   458.92,   384.22  L   458.92,   375.72  " /></a><a style="cursor:pointer;" ewd:lineID="26"><path style="stroke:#00A0C6;stroke-width:5.10 ;&st6;" d=" M   739.38,   426.15  L   739.38,   368.36  L   637.39,   368.36  L   628.89,   359.86  L   628.89,   354.19  " /><path style="stroke:#FFFFFF;stroke-width:2.27 ;&st6;" d=" M   739.38,   426.15  L   739.38,   368.36  L   637.39,   368.36  L   628.89,   359.86  L   628.89,   354.19  " /><path style="stroke:#FF0000;stroke-width:1.13 ;&st6;" d=" M   739.38,   426.15  L   739.38,   368.36  L   637.39,   368.36  L   628.89,   359.86  L   628.89,   354.19  " /></a><a ewd:comment="4" style="cursor:pointer;" ewd:lineID="27"><path style="stroke:#FFE600;stroke-width:5.10 ;&st6;" d=" M  1087.82,   197.82  L  1087.82,   316.23  L  1138.81,   316.23  " /><path style="stroke:#FFFFFF;stroke-width:2.27 ;&st6;" d=" M  1087.82,   197.82  L  1087.82,   316.23  L  1138.81,   316.23  " /><path style="stroke:#008837;stroke-width:1.13 ;&st6;" d=" M  1087.82,   197.82  L  1087.82,   316.23  L  1138.81,   316.23  " /></a><a style="cursor:pointer;" ewd:lineID="28"><path style="stroke:#FFE600;stroke-width:5.10 ;&st6;" d=" M  1147.31,   562.69  L  1147.31,   478.27  " /><path style="stroke:#FFFFFF;stroke-width:2.27 ;&st6;" d=" M  1147.31,   562.69  L  1147.31,   478.27  " /><path style="stroke:#008837;stroke-width:1.13 ;&st6;" d=" M  1147.31,   562.69  L  1147.31,   478.27  " /></a><a style="cursor:pointer;" ewd:lineID="29"><path style="stroke:#FFE600;stroke-width:5.10 ;&st6;" d=" M  1147.31,   365.24  L  1147.31,   367.22  L  1138.81,   375.72  L  1113.31,   375.72  L  1113.31,   545.69  L  1138.81,   545.69  L  1147.31,   554.19  L  1147.31,   562.69  " /><path style="stroke:#FFFFFF;stroke-width:2.27 ;&st6;" d=" M  1147.31,   365.24  L  1147.31,   367.22  L  1138.81,   375.72  L  1113.31,   375.72  L  1113.31,   545.69  L  1138.81,   545.69  L  1147.31,   554.19  L  1147.31,   562.69  " /><path style="stroke:#008837;stroke-width:1.13 ;&st6;" d=" M  1147.31,   365.24  L  1147.31,   367.22  L  1138.81,   375.72  L  1113.31,   375.72  L  1113.31,   545.69  L  1138.81,   545.69  L  1147.31,   554.19  L  1147.31,   562.69  " /></a><a style="cursor:pointer;" ewd:lineID="30"><path style="stroke:#FFE600;stroke-width:5.10 ;&st6;" d=" M  1147.31,   365.24  L  1147.31,   443.14  " /><path style="stroke:#FFFFFF;stroke-width:2.27 ;&st6;" d=" M  1147.31,   365.24  L  1147.31,   443.14  " /><path style="stroke:#008837;stroke-width:1.13 ;&st6;" d=" M  1147.31,   365.24  L  1147.31,   443.14  " /></a><a ewd:comment="3" style="cursor:pointer;" ewd:lineID="31"><path style="stroke:#FFE600;stroke-width:5.10 ;&st6;" d=" M  1147.31,   350.23  L  1147.31,   324.73  " /><path style="stroke:#FFFFFF;stroke-width:2.27 ;&st6;" d=" M  1147.31,   350.23  L  1147.31,   324.73  " /><path style="stroke:#008837;stroke-width:1.13 ;&st6;" d=" M  1147.31,   350.23  L  1147.31,   324.73  " /></a><a ewd:comment="3" style="cursor:pointer;" ewd:lineID="32"><path style="stroke:#FFE600;stroke-width:5.10 ;&st6;" d=" M  1147.31,   282.24  L  1147.31,   307.73  " /><path style="stroke:#FFFFFF;stroke-width:2.27 ;&st6;" d=" M  1147.31,   282.24  L  1147.31,   307.73  " /><path style="stroke:#008837;stroke-width:1.13 ;&st6;" d=" M  1147.31,   282.24  L  1147.31,   307.73  " /></a><a ewd:comment="3" style="cursor:pointer;" ewd:lineID="33"><path style="stroke:#000000;stroke-width:5.10 ;&st6;" d=" M  1223.80,   589.32  L  1223.80,   681.67  " /><path style="stroke:#FFFFFF;stroke-width:4.53 ;&st6;" d=" M  1223.80,   589.32  L  1223.80,   681.67  " /><path style="stroke:#000000;stroke-width:1.13 ;&st6;" d=" M  1223.80,   589.32  L  1223.80,   681.67  " /></a><a ewd:comment="3" style="cursor:pointer;" ewd:lineID="34"><path style="stroke:#000000;stroke-width:5.10 ;&st6;" d=" M  1223.80,   545.13  L  1223.80,   486.20  " /><path style="stroke:#FFFFFF;stroke-width:4.53 ;&st6;" d=" M  1223.80,   545.13  L  1223.80,   486.20  " /><path style="stroke:#000000;stroke-width:1.13 ;&st6;" d=" M  1223.80,   545.13  L  1223.80,   486.20  " /></a><a ewd:comment="3" style="cursor:pointer;" ewd:lineID="35"><path style="stroke:#FFE600;stroke-width:5.10 ;&st6;" d=" M  1223.80,   443.71  L  1223.80,   316.23  L  1155.81,   316.23  " /><path style="stroke:#FFFFFF;stroke-width:2.27 ;&st6;" d=" M  1223.80,   443.71  L  1223.80,   316.23  L  1155.81,   316.23  " /><path style="stroke:#008837;stroke-width:1.13 ;&st6;" d=" M  1223.80,   443.71  L  1223.80,   316.23  L  1155.81,   316.23  " /></a><a ewd:comment="3" style="cursor:pointer;" ewd:lineID="36"><path style="stroke:#00A0C6;stroke-width:5.10 ;&st6;" d=" M  1300.28,   171.76  L  1300.28,   146.26  L  1325.78,   146.26  L  1325.78,   171.76  " /><path style="stroke:#FFFFFF;stroke-width:2.27 ;&st6;" d=" M  1300.28,   171.76  L  1300.28,   146.26  L  1325.78,   146.26  L  1325.78,   171.76  " /><path style="stroke:#FF0000;stroke-width:1.13 ;&st6;" d=" M  1300.28,   171.76  L  1300.28,   146.26  L  1325.78,   146.26  L  1325.78,   171.76  " /></a><a style="cursor:pointer;" ewd:lineID="37"><path style="stroke:#000000;stroke-width:5.10 ;&st6;" d=" M  1325.78,   554.19  L  1325.78,   681.67  " /><path style="stroke:#FFFFFF;stroke-width:4.53 ;&st6;" d=" M  1325.78,   554.19  L  1325.78,   681.67  " /><path style="stroke:#000000;stroke-width:1.13 ;&st6;" d=" M  1325.78,   554.19  L  1325.78,   681.67  " /></a><a style="cursor:pointer;" ewd:lineID="38"><path style="stroke:#000000;stroke-width:5.10 ;&st6;" d=" M  1325.78,   537.20  L  1325.78,   452.21  " /><path style="stroke:#FFFFFF;stroke-width:4.53 ;&st6;" d=" M  1325.78,   537.20  L  1325.78,   452.21  " /><path style="stroke:#000000;stroke-width:1.13 ;&st6;" d=" M  1325.78,   537.20  L  1325.78,   452.21  " /></a><a style="cursor:pointer;" ewd:lineID="39"><path style="stroke:#000000;stroke-width:5.10 ;&st6;" d=" M  1325.78,   452.21  L  1325.78,   460.71  L  1334.28,   469.21  L  1368.27,   469.21  L  1368.27,   545.69  " /><path style="stroke:#FFFFFF;stroke-width:4.53 ;&st6;" d=" M  1325.78,   452.21  L  1325.78,   460.71  L  1334.28,   469.21  L  1368.27,   469.21  L  1368.27,   545.69  " /><path style="stroke:#000000;stroke-width:1.13 ;&st6;" d=" M  1325.78,   452.21  L  1325.78,   460.71  L  1334.28,   469.21  L  1368.27,   469.21  L  1368.27,   545.69  " /></a><a ewd:comment="3" style="cursor:pointer;" ewd:lineID="40"><path style="stroke:#00A0C6;stroke-width:5.10 ;&st6;" d=" M  1325.78,   339.46  L  1325.78,   409.72  " /></a><a ewd:comment="3" style="cursor:pointer;" ewd:lineID="41"><path style="stroke:#00A0C6;stroke-width:5.10 ;&st6;" d=" M  1325.78,   282.24  L  1325.78,   324.73  " /></a><a ewd:comment="3" style="cursor:pointer;" ewd:lineID="42"><path style="stroke:#00A0C6;stroke-width:5.10 ;&st6;" d=" M  1342.78,   103.77  L  1342.78,   146.26  L  1325.78,   163.26  L  1325.78,   171.76  " /><path style="stroke:#FFFFFF;stroke-width:2.27 ;&st6;" d=" M  1342.78,   103.77  L  1342.78,   146.26  L  1325.78,   163.26  L  1325.78,   171.76  " /><path style="stroke:#FF0000;stroke-width:1.13 ;&st6;" d=" M  1342.78,   103.77  L  1342.78,   146.26  L  1325.78,   163.26  L  1325.78,   171.76  " /></a><a ewd:comment="3" style="cursor:pointer;" ewd:lineID="43"><path style="stroke:#00A0C6;stroke-width:5.10 ;&st6;" d=" M  1342.78,    88.75  L  1342.78,    52.78  L  1640.23,    52.78  L  1640.23,    77.14  " /><path style="stroke:#FFFFFF;stroke-width:2.27 ;&st6;" d=" M  1342.78,    88.75  L  1342.78,    52.78  L  1640.23,    52.78  L  1640.23,    77.14  " /><path style="stroke:#FF0000;stroke-width:1.13 ;&st6;" d=" M  1342.78,    88.75  L  1342.78,    52.78  L  1640.23,    52.78  L  1640.23,    77.14  " /></a><a style="cursor:pointer;" ewd:lineID="44"><path style="stroke:#000000;stroke-width:5.10 ;&st6;" d=" M  1368.27,   562.69  L  1368.27,   681.67  " /><path style="stroke:#FFFFFF;stroke-width:4.53 ;&st6;" d=" M  1368.27,   562.69  L  1368.27,   681.67  " /><path style="stroke:#000000;stroke-width:1.13 ;&st6;" d=" M  1368.27,   562.69  L  1368.27,   681.67  " /></a><a ewd:comment="3" style="cursor:pointer;" ewd:lineID="45"><path style="stroke:#000000;stroke-width:5.10 ;&st6;" d=" M  1393.77,   256.74  L  1393.77,   409.72  " /><path style="stroke:#FFFFFF;stroke-width:2.27 ;&st6;" d=" M  1393.77,   256.74  L  1393.77,   409.72  " /><path style="stroke:#00A0C6;stroke-width:1.13 ;&st6;" d=" M  1393.77,   256.74  L  1393.77,   409.72  " /></a><a ewd:comment="3" style="cursor:pointer;" ewd:lineID="46"><path style="stroke:#FFE600;stroke-width:5.10 ;&st6;" d=" M  1393.77,   214.25  L  1393.77,   155.89  " /><path style="stroke:#FFFFFF;stroke-width:2.27 ;&st6;" d=" M  1393.77,   214.25  L  1393.77,   155.89  " /><path style="stroke:#008837;stroke-width:1.13 ;&st6;" d=" M  1393.77,   214.25  L  1393.77,   155.89  " /></a><a ewd:comment="3" style="cursor:pointer;" ewd:lineID="47"><path style="stroke:#FFE600;stroke-width:5.10 ;&st6;" d=" M  1444.76,   409.72  L  1444.76,   155.89  " /><path style="stroke:#FFFFFF;stroke-width:2.27 ;&st6;" d=" M  1444.76,   409.72  L  1444.76,   155.89  " /><path style="stroke:#008837;stroke-width:1.13 ;&st6;" d=" M  1444.76,   409.72  L  1444.76,   155.89  " /></a><a ewd:comment="3" style="cursor:pointer;" ewd:lineID="48"><path style="stroke:#FFE600;stroke-width:5.10 ;&st6;" d=" M  1504.25,   409.72  L  1504.25,   248.24  " /><path style="stroke:#FFFFFF;stroke-width:2.27 ;&st6;" d=" M  1504.25,   409.72  L  1504.25,   248.24  " /><path style="stroke:#000000;stroke-width:1.13 ;&st6;" d=" M  1504.25,   409.72  L  1504.25,   248.24  " /></a><a ewd:comment="3" style="cursor:pointer;" ewd:lineID="49"><path style="stroke:#FFE600;stroke-width:5.10 ;&st6;" d=" M  1504.25,   214.25  L  1504.25,   155.89  " /><path style="stroke:#FFFFFF;stroke-width:2.27 ;&st6;" d=" M  1504.25,   214.25  L  1504.25,   155.89  " /><path style="stroke:#008837;stroke-width:1.13 ;&st6;" d=" M  1504.25,   214.25  L  1504.25,   155.89  " /></a><a style="cursor:pointer;" ewd:lineID="50"><path style="stroke:#FF0000;stroke-width:5.10 ;&st6;" d=" M  1640.23,   409.72  L  1640.23,   325.86  " /><path style="stroke:#FFFFFF;stroke-width:2.27 ;&st6;" d=" M  1640.23,   409.72  L  1640.23,   325.86  " /><path style="stroke:#000000;stroke-width:1.13 ;&st6;" d=" M  1640.23,   409.72  L  1640.23,   325.86  " /></a><a style="cursor:pointer;" ewd:lineID="51"><path style="stroke:#FF0000;stroke-width:5.10 ;&st6;" d=" M  1640.23,   325.86  L  1640.23,   333.23  L  1648.72,   341.73  L  1708.21,   341.73  L  1708.21,   358.73  " /><path style="stroke:#FFFFFF;stroke-width:2.27 ;&st6;" d=" M  1640.23,   325.86  L  1640.23,   333.23  L  1648.72,   341.73  L  1708.21,   341.73  L  1708.21,   358.73  " /><path style="stroke:#000000;stroke-width:1.13 ;&st6;" d=" M  1640.23,   325.86  L  1640.23,   333.23  L  1648.72,   341.73  L  1708.21,   341.73  L  1708.21,   358.73  " /></a><a style="cursor:pointer;" ewd:lineID="52"><path style="stroke:#00A0C6;stroke-width:5.10 ;&st6;" d=" M  1640.23,   213.12  L  1640.23,   130.40  " /><path style="stroke:#FFFFFF;stroke-width:2.27 ;&st6;" d=" M  1640.23,   213.12  L  1640.23,   130.40  " /><path style="stroke:#FF0000;stroke-width:1.13 ;&st6;" d=" M  1640.23,   213.12  L  1640.23,   130.40  " /></a><a style="cursor:pointer;" ewd:lineID="53"><path style="stroke:#00A0C6;stroke-width:5.10 ;&st6;" d=" M  1640.23,   213.12  L  1640.23,   205.75  L  1648.72,   197.25  L  1708.21,   197.25  L  1708.21,   180.26  " /><path style="stroke:#FFFFFF;stroke-width:2.27 ;&st6;" d=" M  1640.23,   213.12  L  1640.23,   205.75  L  1648.72,   197.25  L  1708.21,   197.25  L  1708.21,   180.26  " /><path style="stroke:#FF0000;stroke-width:1.13 ;&st6;" d=" M  1640.23,   213.12  L  1640.23,   205.75  L  1648.72,   197.25  L  1708.21,   197.25  L  1708.21,   180.26  " /></a><a style="cursor:pointer;" ewd:lineID="54"><path style="stroke:#00A0C6;stroke-width:5.10 ;&st6;" d=" M  1640.23,   130.40  L  1640.23,   137.76  L  1648.72,   146.26  L  1708.21,   146.26  L  1708.21,   165.24  " /><path style="stroke:#FFFFFF;stroke-width:2.27 ;&st6;" d=" M  1640.23,   130.40  L  1640.23,   137.76  L  1648.72,   146.26  L  1708.21,   146.26  L  1708.21,   165.24  " /><path style="stroke:#FF0000;stroke-width:1.13 ;&st6;" d=" M  1640.23,   130.40  L  1640.23,   137.76  L  1648.72,   146.26  L  1708.21,   146.26  L  1708.21,   165.24  " /></a><a style="cursor:pointer;" ewd:lineID="55"><path style="stroke:#FF0000;stroke-width:5.10 ;&st6;" d=" M  1708.21,   373.74  L  1708.21,   392.72  L  1648.72,   392.72  L  1640.23,   401.22  L  1640.23,   409.72  " /><path style="stroke:#FFFFFF;stroke-width:2.27 ;&st6;" d=" M  1708.21,   373.74  L  1708.21,   392.72  L  1648.72,   392.72  L  1640.23,   401.22  L  1640.23,   409.72  " /><path style="stroke:#000000;stroke-width:1.13 ;&st6;" d=" M  1708.21,   373.74  L  1708.21,   392.72  L  1648.72,   392.72  L  1640.23,   401.22  L  1640.23,   409.72  " /></a><a ewd:comment="3" style="cursor:pointer;" ewd:lineID="56"><path style="stroke:#00A0C6;stroke-width:5.10 ;&st6;" d=" M  1767.70,   409.72  L  1767.70,   130.40  " /><path style="stroke:#FFFFFF;stroke-width:2.27 ;&st6;" d=" M  1767.70,   409.72  L  1767.70,   130.40  " /><path style="stroke:#FF0000;stroke-width:1.13 ;&st6;" d=" M  1767.70,   409.72  L  1767.70,   130.40  " /></a><a ewd:comment="3" style="cursor:pointer;" ewd:lineID="57"><path style="stroke:#000000;stroke-width:5.10 ;&st6;" d=" M  1835.69,   249.38  L  1835.69,   409.72  " /><path style="stroke:#FFFFFF;stroke-width:1.13 ;&st6;" d=" M  1835.69,   249.38  L  1835.69,   409.72  " /></a><a ewd:comment="3" style="cursor:pointer;" ewd:lineID="58"><path style="stroke:#000000;stroke-width:5.10 ;&st6;" d=" M  1835.69,   103.77  L  1835.69,   196.12  " /><path style="stroke:#FFFFFF;stroke-width:1.13 ;&st6;" d=" M  1835.69,   103.77  L  1835.69,   196.12  " /></a><a ewd:figtype="w2w" style="cursor:pointer;" ewd:pinNo="2" ewd:code="AI1" ewd:figID="31"><path style="&st2;" d=" M   169.97,   171.76  L   152.97,   171.76  L   152.97,   180.26  L   169.97,   180.26  L   169.97,   171.76 " /><text style="&st8;" transform="matrix(&st16;  157.11  178.13 )"><tspan x="0" style="&st18;" y="0">AI1</tspan></text></a><a ewd:figtype="w2w" style="cursor:pointer;" ewd:pinNo="31" ewd:code="AI3" ewd:figID="32"><path style="&st2;" d=" M  1155.81,   350.23  L  1138.81,   350.23  L  1138.81,   358.73  L  1155.81,   358.73  L  1155.81,   350.23 " /><text style="&st8;" transform="matrix(&st16;  1142.94  356.6 )"><tspan x="0" style="&st18;" y="0">AI3</tspan></text></a><a ewd:figtype="w2w" style="cursor:pointer;" ewd:pinNo="34" ewd:code="AI3" ewd:figID="33"><path style="&st2;" d=" M  1334.28,   324.73  L  1317.28,   324.73  L  1317.28,   333.23  L  1334.28,   333.23  L  1334.28,   324.73 " /><text style="&st8;" transform="matrix(&st16;  1321.41  331.1 )"><tspan x="0" style="&st18;" y="0">AI3</tspan></text></a><a ewd:figtype="w2w" style="cursor:pointer;" ewd:pinNo="33" ewd:code="AI3" ewd:figID="34"><path style="&st2;" d=" M  1351.27,    95.27  L  1334.28,    95.27  L  1334.28,   103.77  L  1351.27,   103.77  L  1351.27,    95.27 " /><text style="&st8;" transform="matrix(&st16;  1338.41  101.64 )"><tspan x="0" style="&st18;" y="0">AI3</tspan></text></a><a ewd:figtype="w2w" style="cursor:pointer;" ewd:pinNo="55" ewd:code="AI3" ewd:figID="35"><path style="&st2;" d=" M  1716.71,   358.73  L  1699.72,   358.73  L  1699.72,   367.22  L  1716.71,   367.22  L  1716.71,   358.73 " /><text style="&st8;" transform="matrix(&st16;  1703.85  365.09 )"><tspan x="0" style="&st18;" y="0">AI3</tspan></text></a><a ewd:figtype="w2w" style="cursor:pointer;" ewd:pinNo="26" ewd:code="AI3" ewd:figID="36"><path style="&st2;" d=" M  1716.71,   171.76  L  1699.72,   171.76  L  1699.72,   180.26  L  1716.71,   180.26  L  1716.71,   171.76 " /><text style="&st8;" transform="matrix(&st16;  1703.85  178.13 )"><tspan x="0" style="&st18;" y="0">AI3</tspan></text></a><a ewd:figtype="gp" style="cursor:pointer;" ewd:code="IC" ewd:figID="37"><path style="&st2;" d=" M   125.35,   681.67  L   146.60,   681.67  L   135.98,   697.25  L   125.35,   681.67 " /><text style="&st8;" transform="matrix(&st16;  133.0  689.46 )"><tspan x="0" style="&st18;" y="0">IC</tspan></text></a><a ewd:figtype="gp" style="cursor:pointer;" ewd:code="IA" ewd:figID="38"><path style="&st2;" d=" M   278.33,   681.67  L   299.57,   681.67  L   288.95,   697.25  L   278.33,   681.67 " /><text style="&st8;" transform="matrix(&st16;  286.09  689.46 )"><tspan x="0" style="&st18;" y="0">IA</tspan></text></a><a ewd:figtype="gp" style="cursor:pointer;" ewd:code="AA" ewd:figID="39"><path style="&st2;" d=" M  1213.17,   681.67  L  1234.42,   681.67  L  1223.80,   697.25  L  1213.17,   681.67 " /><text style="&st8;" transform="matrix(&st16;  1219.81  689.46 )"><tspan x="0" style="&st18;" y="0">AA</tspan></text></a><a ewd:figtype="gp" style="cursor:pointer;" ewd:code="IA" ewd:figID="40"><path style="&st2;" d=" M  1315.16,   681.67  L  1336.40,   681.67  L  1325.78,   697.25  L  1315.16,   681.67 " /><text style="&st8;" transform="matrix(&st16;  1322.92  689.46 )"><tspan x="0" style="&st18;" y="0">IA</tspan></text></a><a ewd:figtype="gp" style="cursor:pointer;" ewd:code="IC" ewd:figID="41"><path style="&st2;" d=" M  1357.65,   681.67  L  1378.89,   681.67  L  1368.27,   697.25  L  1357.65,   681.67 " /><text style="&st8;" transform="matrix(&st16;  1365.3  689.46 )"><tspan x="0" style="&st18;" y="0">IC</tspan></text></a><a ewd:figtype="sp" style="cursor:pointer;" ewd:code="SP69" ewd:figID="42"><path style="&st2;" d=" M    12.75,   171.76  L    21.25,   171.76  L    25.50,   176.01  L    25.50,   184.50  L    21.25,   188.75  L    12.75,   188.75  L     8.50,   184.50  L     8.50,   176.01  L    12.75,   171.76 " /></a><a ewd:figtype="sp" style="cursor:pointer;" ewd:code="SP66" ewd:figID="43"><path style="&st2;" d=" M   131.73,   554.19  L   140.23,   554.19  L   144.48,   558.44  L   144.48,   566.94  L   140.23,   571.19  L   131.73,   571.19  L   127.48,   566.94  L   127.48,   558.44  L   131.73,   554.19 " /></a><a ewd:figtype="sp" style="cursor:pointer;" ewd:code="SP65" ewd:figID="44"><path style="&st2;" d=" M   284.70,   554.19  L   293.20,   554.19  L   297.45,   558.44  L   297.45,   566.94  L   293.20,   571.19  L   284.70,   571.19  L   280.45,   566.94  L   280.45,   558.44  L   284.70,   554.19 " /></a><a ewd:figtype="sp" style="cursor:pointer;" ewd:code="SP56" ewd:figID="45"><path style="&st2;" d=" M   573.65,   248.24  L   582.15,   248.24  L   586.40,   252.49  L   586.40,   260.99  L   582.15,   265.24  L   573.65,   265.24  L   569.40,   260.99  L   569.40,   252.49  L   573.65,   248.24 " /></a><a ewd:figtype="sp" style="cursor:pointer;" ewd:code="SP5" ewd:figID="46"><path style="&st2;" d=" M  1143.06,   307.73  L  1151.56,   307.73  L  1155.81,   311.98  L  1155.81,   320.48  L  1151.56,   324.73  L  1143.06,   324.73  L  1138.81,   320.48  L  1138.81,   311.98  L  1143.06,   307.73 " /></a><a ewd:figtype="sp" style="cursor:pointer;" ewd:code="SP66" ewd:figID="47"><path style="&st2;" d=" M  1364.02,   545.69  L  1372.52,   545.69  L  1376.77,   549.94  L  1376.77,   558.44  L  1372.52,   562.69  L  1364.02,   562.69  L  1359.77,   558.44  L  1359.77,   549.94  L  1364.02,   545.69 " /></a></g></svg>