<?xml version="1.0" encoding="utf-8"?>
<!DOCTYPE svg PUBLIC "-//W3C//DTD SVG 1.0//EN" "http://www.w3.org/TR/2001/REC-SVG-20010904/DTD/svg10.dtd"[
	<!ENTITY ns_flows "http://ns.adobe.com/Flows/1.0/">
	<!ENTITY ns_svg "http://www.w3.org/2000/svg">
	<!ENTITY ns_xlink "http://www.w3.org/1999/xlink">
	<!ENTITY st0 "font-size:7px;font-family:'MS-PGothic';adobe-font-script:japanese;">
	<!ENTITY st1 "font-size:6px;font-family:'ArialMT';">
	<!-- White fill  -->
	<!ENTITY st2 "fill:#FFFFFF;stroke:#000000; stroke-width:1.41;stroke-linecap:round;stroke-linejoin:round;">
	<!-- Yellow fill  -->
	<!ENTITY st3 "fill:#FFFFCC;stroke:#FFFFCC; stroke-width:0.1;stroke-linecap:round;stroke-linejoin:round;">
	<!-- Gray fill  -->
	<!ENTITY st4 "fill:#CCCCCC;stroke:#CCCCCC; stroke-width:0.1;stroke-linecap:round;stroke-linejoin:round;">
	<!-- Light-blue fill -->
	<!ENTITY st5 "fill:#CCECF4;stroke:#000000; stroke-width:1.133;stroke-linecap:round;stroke-linejoin:round;">
	<!ENTITY st6 "fill:none;stroke-linecap:butt; stroke-linejoin:round;">
	<!ENTITY st7 "fill:none;stroke:#000000;stroke-linecap:round;stroke-linejoin:round;">
	<!ENTITY st8 "enable-background:new    ;">
	<!-- Black fill -->
	<!ENTITY st9 "fill:#000000;stroke:#000000; stroke-linecap:round;stroke-linejoin:round;">
	<!-- SRS note   -->
	<!ENTITY st10 "font-size:9px;font-family:'ArialMT';">
	<!ENTITY st11 "font-size:9px;font-family:'Svg Symbol';">
	<!ENTITY st12 "font-size:6px;font-family:'Svg Symbol';">
	<!ENTITY st13 "fill:none;stroke:#ff0000;stroke-linecap:round;stroke-linejoin:round;">
	<!-- Yellow fill  -->
	<!ENTITY st14 "fill:#FFFF00;stroke:#FFFF00; stroke-width:0.1;stroke-linecap:round;stroke-linejoin:round;">
	<!ENTITY st15 "font-size:6px;font-family:'MS-PGothic';adobe-font-script:japanese;">
	<!ENTITY st16 "1.00 0.00 0.00 1.00">
	<!ENTITY st17 "0.00 -1.00 1.00 0.00">
	<!ENTITY st18 "font-size:6px;font-family:'Arial';">
	<!ENTITY st19 "font-size:9px;font-family:'Arial';">
	<!ENTITY st20 "font-size:6px;font-family:'MS-PGothic','MS PGothic';adobe-font-script:japanese;">
	<!ENTITY st21 "font-size:7px;font-family:'MS-PGothic','MS PGothic';adobe-font-script:japanese;">
	<!ATTLIST svg
		xmlns:ewd CDATA #FIXED "http://shcl.co.jp/ewd"
		xmlns:a CDATA #FIXED "http://ns.adobe.com/AdobeSVGViewerExtensions/3.0/"
		ewd:ver CDATA #IMPLIED
	>
	<!ATTLIST a
		ewd:lineID CDATA #IMPLIED
		ewd:groupID CDATA #IMPLIED
		ewd:figtype CDATA #IMPLIED
		ewd:code CDATA #IMPLIED
		ewd:figID CDATA #IMPLIED
		ewd:pinNo CDATA #IMPLIED
		ewd:comment CDATA #IMPLIED >
	<!ATTLIST g
		ewd:lineID CDATA #IMPLIED
		ewd:groupID CDATA #IMPLIED
		ewd:figtype CDATA #IMPLIED
		ewd:code CDATA #IMPLIED
		ewd:figID CDATA #IMPLIED
		ewd:pinNo CDATA #IMPLIED
		ewd:comment CDATA #IMPLIED >
	<!ATTLIST text
		ewd:textID CDATA #IMPLIED >
	<!ATTLIST title
		ewd:textID CDATA #IMPLIED >
]>
<!-- Generator: Shintec Hozumi YS   -->
<svg onload="call_execInitLoadProc_svg('system')" style="overflow:visible;  enable-background:new 0 0 1969.646 710.000" viewBox="0 0 1969.646 710.000" height="710.000" width="1969.646" xml:space="preserve" ewd:ver="2.1.2.9" xmlns="&ns_svg;" xmlns:a="http://ns.adobe.com/AdobeSVGViewerExtensions/3.0/" xmlns:ewd="http://shcl.co.jp/ewd" xmlns:xlink="&ns_xlink;">
<text style="&st18;" transform="matrix(&st17;  747.01  434.53 )">(LHD)</text><text style="&st18;" transform="matrix(&st17;  735.68  431.7 )">L-R</text><text style="&st18;" transform="matrix(&st17;  684.69  431.78 )">L-B</text><text style="&st18;" transform="matrix(&st17;  633.7  431.78 )">L-Y</text><text style="&st18;" transform="matrix(&st17;  582.71  432.2 )">L-O</text><text style="&st18;" transform="matrix(&st17;  744.18  237.07 )">L</text><text style="&st18;" transform="matrix(&st17;  744.18  91.76 )">L-R</text><text style="&st18;" transform="matrix(&st17;  812.17  432.83 )">L-R</text><text style="&st18;" transform="matrix(&st17;  823.5  435.66 )">(LHD)</text><text style="&st18;" transform="matrix(&st17;  905.65  414.42 )">L-R</text><text style="&st18;" transform="matrix(&st17;  916.98  417.29 )">(RHD)</text><text style="&st18;" transform="matrix(&st17;  871.66  414.7 )">L-R</text><text style="&st18;" transform="matrix(&st17;  882.99  417.57 )">(RHD)</text><text style="&st18;" transform="matrix(&st17;  871.66  491.19 )">L-R</text><text style="&st18;" transform="matrix(&st17;  882.99  494.06 )">(RHD)</text><text style="&st18;" transform="matrix(&st17;  735.68  516.68 )">L-R</text><text style="&st18;" transform="matrix(&st17;  747.01  519.52 )">(LHD)</text><text style="&st18;" transform="matrix(&st16;  779.8  253.05 )">L</text><text style="&st18;" transform="matrix(&st16;  711.81  253.05 )">L</text><text style="&st18;" transform="matrix(&st16;  779.8  278.54 )">L</text><text style="&st18;" transform="matrix(&st16;  776.66  289.87 )">(*2)</text><text style="&st18;" transform="matrix(&st16;  776.66  264.38 )">(*1)</text><text style="&st18;" transform="matrix(&st16;  708.67  264.38 )">(*1)</text><text style="&st18;" transform="matrix(&st17;  755.51  91.48 )">(*3)</text><text style="&st18;" transform="matrix(&st17;  755.51  240.21 )">(*3)</text><path style="stroke-width:1.42 ;&st7;  " d=" M   756.37,   253.22  L   751.40,   248.24  " /><path style="stroke-width:1.42 ;&st7;  " d=" M   739.38,   260.27  L   744.35,   265.24  " /><path style="stroke-width:1.42 ;&st7;  " d=" M   751.40,   265.24  L   756.37,   260.27  " /><path style="stroke-width:1.42 ;&st7;  " d=" M   744.35,   248.24  L   739.38,   253.22  " /><text style="&st18;" transform="matrix(&st16;  591.5  329.53 )" ewd:textID="11">Heater Blower Switch Assembly</text><text style="&st18;" transform="matrix(&st16;  541.84  253.05 )">L</text><text style="&st18;" transform="matrix(&st16;  538.7  264.38 )">(*1)</text><text style="&st18;" transform="matrix(&st16;  541.84  278.54 )">L</text><text style="&st18;" transform="matrix(&st16;  538.7  289.87 )">(*2)</text><text style="&st18;" transform="matrix(&st16;  591.49  322.71 )">I15</text><g ewd:figtype="conn" ewd:figID="2" ewd:code="I108,I109"><path style="stroke-width:1.42 ;&st7;  " d=" M   866.85,   435.21  L   866.85,   452.21  L   917.85,   452.21  L   917.85,   435.21  L   866.85,   435.21  " /><path style="stroke-width:0.85 ;&st7;  " d=" M   875.35,   435.21  L   875.35,   452.21  " /><path style="stroke-width:0.85 ;&st7;  " d=" M   875.35,   443.71  L   909.35,   443.71  L   909.35,   435.21  " /><path style="stroke-width:0.85 ;&st7;  " d=" M   874.16,   442.71  L   873.89,   443.18  L   873.80,   443.71  L   873.89,   444.24  L   874.16,   444.71  L   874.57,   445.06  L   875.08,   445.25  L   875.63,   445.25  L   876.13,   445.06  L   876.55,   444.71  L   876.82,   444.24  L   876.91,   443.71  L   876.82,   443.18  L   876.55,   442.71  L   876.13,   442.36  L   875.63,   442.18  L   875.08,   442.18  L   874.57,   442.36  L   874.16,   442.71  L   874.55,   443.42  L   874.55,   444.00  L   874.93,   444.45  L   875.50,   444.55  L   876.00,   444.26  L   876.20,   443.71  L   876.00,   443.16  L   875.50,   442.88  L   874.93,   442.97  L   875.35,   443.71  " /><text style="&st18;" transform="matrix(&st16;  866.66  458.71 )">7</text><text style="&st18;" transform="matrix(&st16;  873.17  458.71 )">B</text><path style="stroke-width:1.42 ;&st7;   " d=" M   879.89,   456.74  C   879.89    454.24    877.86    452.21    875.35    452.21  " /><path style="stroke-width:1.42 ;&st7;   " d=" M   875.35,   452.21  C   872.85    452.21    870.82    454.24    870.82    456.74  " /><path style="stroke-width:1.42 ;&st7;   " d=" M   870.82,   456.74  C   870.82    459.25    872.85    461.27    875.35    461.27  " /><path style="stroke-width:1.42 ;&st7;   " d=" M   875.35,   461.27  C   877.86    461.27    879.89    459.25    879.89    456.74  " /><text style="&st18;" transform="matrix(&st16;  863.56  432.65 )">12</text><text style="&st18;" transform="matrix(&st16;  873.05  432.65 )">A</text><path style="stroke-width:1.42 ;&st7;   " d=" M   879.89,   430.68  C   879.89    428.18    877.86    426.15    875.35    426.15  " /><path style="stroke-width:1.42 ;&st7;   " d=" M   875.35,   426.15  C   872.85    426.15    870.82    428.18    870.82    430.68  " /><path style="stroke-width:1.42 ;&st7;   " d=" M   870.82,   430.68  C   870.82    433.18    872.85    435.21    875.35    435.21  " /><path style="stroke-width:1.42 ;&st7;   " d=" M   875.35,   435.21  C   877.86    435.21    879.89    433.18    879.89    430.68  " /><text style="&st18;" transform="matrix(&st16;  897.55  432.65 )">11</text><path style="stroke-width:1.42 ;&st7;   " d=" M   913.88,   430.68  C   913.88    428.18    911.85    426.15    909.35    426.15  " /><path style="stroke-width:1.42 ;&st7;   " d=" M   909.35,   426.15  C   906.84    426.15    904.82    428.18    904.82    430.68  " /><path style="stroke-width:1.42 ;&st7;   " d=" M   904.82,   430.68  C   904.82    433.18    906.84    435.21    909.35    435.21  " /><path style="stroke-width:1.42 ;&st7;   " d=" M   909.35,   435.21  C   911.85    435.21    913.88    433.18    913.88    430.68  " /><text style="&st18;" transform="matrix(&st16;  907.04  432.65 )">A</text><g ewd:figtype="title"><text style="&st18;" transform="matrix(&st17;  925.74  455.11 )">I108(A),I109(B)</text><text style="&st18;" transform="matrix(&st17;  932.56  455.12 )" ewd:textID="21">No. 13 Junction <tspan x="0 " dy="6.0">Connector</tspan></text></g></g><g ewd:figtype="rb" ewd:figID="13" ewd:code="FUSE4"><path style="stroke-width:1.42 ;&st7;  " d=" M   750.00,   112.27  L   745.75,   112.27  " /><path style="stroke-width:1.42 ;&st7;  " d=" M   750.00,   120.77  L   745.75,   120.77  " /><path style="stroke-width:1.42 ;&st7;  " d=" M   750.00,   222.75  L   745.75,   222.75  " /><path style="stroke-width:1.42 ;&st7;  " d=" M   750.00,   214.25  L   745.75,   214.25  " /><path style="stroke-width:1.42 ;&st7;   " d=" M   745.75,   112.27  C   743.40    112.27    741.50    114.17    741.50    116.52  " /><path style="stroke-width:1.42 ;&st7;   " d=" M   741.50,   116.52  C   741.50    118.86    743.40    120.77    745.75    120.77  " /><path style="stroke-width:1.42 ;&st7;   " d=" M   750.00,   120.77  C   752.35    120.77    754.25    118.86    754.25    116.52  " /><path style="stroke-width:1.42 ;&st7;   " d=" M   754.25,   116.52  C   754.25    114.17    752.35    112.27    750.00    112.27  " /><path style="stroke-width:1.42 ;&st7;   " d=" M   741.50,   218.50  C   741.50    220.85    743.40    222.75    745.75    222.75  " /><path style="stroke-width:1.42 ;&st7;   " d=" M   745.75,   214.25  C   743.40    214.25    741.50    216.15    741.50    218.50  " /><path style="stroke-width:1.42 ;&st7;   " d=" M   754.25,   218.50  C   754.25    216.15    752.35    214.25    750.00    214.25  " /><path style="stroke-width:1.42 ;&st7;   " d=" M   750.00,   222.75  C   752.35    222.75    754.25    220.85    754.25    218.50  " /><path style="stroke-width:0.85 ;&st7;  " d=" M   747.87,   146.26  L   747.87,   120.77  " /><path style="stroke-width:0.28 ;&st9;  " d=" M   747.87,   125.66  L   750.71,   128.49  L   750.71,   124.24  L   747.87,   121.41  L   745.04,   124.24  L   745.04,   128.49  L   747.87,   125.66  " /><path style="stroke-width:0.28 ;&st9;  " d=" M   747.87,   209.35  L   745.04,   206.52  L   745.04,   210.77  L   747.87,   213.60  L   750.71,   210.77  L   750.71,   206.52  L   747.87,   209.35  " /><path style="stroke-width:0.85 ;&st7;  " d=" M   747.87,   214.25  L   747.87,   188.75  " /><text style="&st18;" transform="matrix(&st16;  764.3  166.65 )">10A <tspan x="0 " dy="6.0">A/C</tspan></text><text style="&st18;" transform="matrix(&st16;  741.69  196.95 )">1</text><text style="&st18;" transform="matrix(&st16;  741.69  142.57 )">2</text><text style="&st18;" transform="matrix(&st16;  746.07  118.49 )">2</text><text style="&st18;" transform="matrix(&st16;  746.07  220.47 )">2</text><path style="stroke-width:0.85 ;&st7;  " d=" M   747.88,   180.26  L   747.88,   188.75  " /><path style="stroke-width:1.42 ;&st7;   " d=" M   747.88,   157.59  C   745.14    159.21    744.23    162.73    745.84    165.47  " /><path style="stroke-width:1.42 ;&st7;   " d=" M   745.84,   165.47  C   746.36    166.35    746.99    166.99    747.88    167.51  " /><path style="stroke-width:1.42 ;&st7;   " d=" M   747.88,   177.42  C   750.61    175.81    751.52    172.28    749.91    169.54  " /><path style="stroke-width:1.42 ;&st7;   " d=" M   749.91,   169.54  C   749.39    168.66    748.76    168.03    747.88    167.51  " /><path style="stroke-width:0.85 ;&st7;   " d=" M   749.29,   156.18  C   749.29    155.39    748.66    154.76    747.88    154.76  " /><path style="stroke-width:0.85 ;&st7;   " d=" M   747.88,   154.76  C   747.09    154.76    746.46    155.39    746.46    156.18  " /><path style="stroke-width:0.85 ;&st7;   " d=" M   746.46,   156.18  C   746.46    156.96    747.09    157.59    747.88    157.59  " /><path style="stroke-width:0.85 ;&st7;   " d=" M   747.88,   157.59  C   748.66    157.59    749.29    156.96    749.29    156.18  " /><path style="stroke-width:0.85 ;&st7;   " d=" M   749.29,   178.84  C   749.29    178.06    748.66    177.42    747.88    177.42  " /><path style="stroke-width:0.85 ;&st7;   " d=" M   747.88,   177.42  C   747.09    177.42    746.46    178.06    746.46    178.84  " /><path style="stroke-width:0.85 ;&st7;   " d=" M   746.46,   178.84  C   746.46    179.62    747.09    180.26    747.88    180.26  " /><path style="stroke-width:0.85 ;&st7;   " d=" M   747.88,   180.26  C   748.66    180.26    749.29    179.62    749.29    178.84  " /><path style="stroke-width:0.85 ;&st7;  " d=" M   747.87,   146.26  L   747.87,   154.76  " /><path style="stroke-width:1.42 ;&st7;  " d=" M   735.13,   146.26  L   735.13,   188.75  L   760.62,   188.75  L   760.62,   146.26  L   735.13,   146.26  " /></g><g ewd:code="I6,I87" ewd:figID="15" ewd:comment="2,1" ewd:figtype="conn"><path style="stroke-width:1.42 ;&st7;  " d=" M   811.61,   336.06  L   820.11,   336.06  " /><path style="stroke-width:1.42 ;&st7;  " d=" M   811.61,   332.10  L   811.61,   336.06  " /><path style="stroke-width:1.42 ;&st7;  " d=" M   820.11,   336.06  L   820.11,   332.10  " /><path style="stroke-width:1.42 ;&st7;  " d=" M   811.61,   313.40  L   820.11,   313.40  " /><path style="stroke-width:1.42 ;&st7;  " d=" M   811.61,   317.37  L   811.61,   313.40  " /><path style="stroke-width:1.42 ;&st7;  " d=" M   820.11,   313.40  L   820.11,   317.37  " /><path style="stroke-width:1.42 ;&st7;   " d=" M   807.37,   324.73  C   807.37    329.42    811.17    333.23    815.86    333.23  " /><path style="stroke-width:1.42 ;&st7;   " d=" M   815.86,   333.23  C   820.56    333.23    824.36    329.42    824.36    324.73  " /><path style="stroke-width:1.42 ;&st7;   " d=" M   824.36,   324.73  C   824.36    320.04    820.56    316.23    815.86    316.23  " /><path style="stroke-width:1.42 ;&st7;   " d=" M   815.86,   316.23  C   811.17    316.23    807.37    320.04    807.37    324.73  " /><text style="&st18;" transform="matrix(&st16;  813.13  326.7 )">M</text><text style="&st18;" transform="matrix(&st16;  807.17  351.63 )">1</text><text style="&st18;" transform="matrix(&st16;  807.17  342.56 )">1</text><path style="stroke-width:1.42 ;&st7;   " d=" M   820.40,   349.66  C   820.40    347.16    818.37    345.13    815.86    345.13  " /><path style="stroke-width:1.42 ;&st7;   " d=" M   815.86,   345.13  C   813.36    345.13    811.33    347.16    811.33    349.66  " /><path style="stroke-width:1.42 ;&st7;   " d=" M   811.33,   349.66  C   811.33    352.16    813.36    354.19    815.86    354.19  " /><path style="stroke-width:1.42 ;&st7;   " d=" M   815.86,   354.19  C   818.37    354.19    820.40    352.16    820.40    349.66  " /><path style="stroke-width:1.42 ;&st7;   " d=" M   820.40,   340.60  C   820.40    338.09    818.37    336.06    815.86    336.06  " /><path style="stroke-width:1.42 ;&st7;   " d=" M   815.86,   336.06  C   813.36    336.06    811.33    338.09    811.33    340.60  " /><path style="stroke-width:1.42 ;&st7;   " d=" M   811.33,   340.60  C   811.33    343.10    813.36    345.13    815.86    345.13  " /><path style="stroke-width:1.42 ;&st7;   " d=" M   815.86,   345.13  C   818.37    345.13    820.40    343.10    820.40    340.60  " /><text style="&st18;" transform="matrix(&st16;  813.68  351.63 )">B</text><text style="&st18;" transform="matrix(&st16;  813.56  342.56 )">A</text><text style="&st18;" transform="matrix(&st16;  807.17  301.77 )">2</text><text style="&st18;" transform="matrix(&st16;  807.17  310.84 )">2</text><path style="stroke-width:1.42 ;&st7;   " d=" M   820.40,   299.80  C   820.40    297.30    818.37    295.27    815.86    295.27  " /><path style="stroke-width:1.42 ;&st7;   " d=" M   815.86,   295.27  C   813.36    295.27    811.33    297.30    811.33    299.80  " /><path style="stroke-width:1.42 ;&st7;   " d=" M   811.33,   299.80  C   811.33    302.31    813.36    304.33    815.86    304.33  " /><path style="stroke-width:1.42 ;&st7;   " d=" M   815.86,   304.33  C   818.37    304.33    820.40    302.31    820.40    299.80  " /><path style="stroke-width:1.42 ;&st7;   " d=" M   820.40,   308.87  C   820.40    306.36    818.37    304.33    815.86    304.33  " /><path style="stroke-width:1.42 ;&st7;   " d=" M   815.86,   304.33  C   813.36    304.33    811.33    306.36    811.33    308.87  " /><path style="stroke-width:1.42 ;&st7;   " d=" M   811.33,   308.87  C   811.33    311.37    813.36    313.40    815.86    313.40  " /><path style="stroke-width:1.42 ;&st7;   " d=" M   815.86,   313.40  C   818.37    313.40    820.40    311.37    820.40    308.87  " /><text style="&st18;" transform="matrix(&st16;  813.68  310.84 )">B</text><text style="&st18;" transform="matrix(&st16;  813.56  301.77 )">A</text><g ewd:figtype="title"><text style="&st18;" transform="matrix(&st16;  826.62  325.28 )" ewd:textID="9">Front Blower Motor <tspan x="0 " dy="6.0">(Heater Blower Case)</tspan></text><text style="&st18;" transform="matrix(&st16;  826.62  318.46 )">I87(A),I6(B)</text></g><g ewd:code="" ewd:figID="71" ewd:comment="2" ewd:figtype="commref"><text style="&st18;" transform="matrix(&st16;  820.96  310.84 )">(*2)</text></g><g ewd:code="" ewd:figID="72" ewd:comment="1" ewd:figtype="commref"><text style="&st18;" transform="matrix(&st16;  820.96  301.77 )">(*1)</text></g><g ewd:code="" ewd:figID="73" ewd:comment="2" ewd:figtype="commref"><text style="&st18;" transform="matrix(&st16;  820.96  351.63 )">(*2)</text></g><g ewd:code="" ewd:figID="74" ewd:comment="1" ewd:figtype="commref"><text style="&st18;" transform="matrix(&st16;  820.96  342.56 )">(*1)</text></g></g><g ewd:figtype="conn" ewd:figID="16" ewd:code="I15"><g ewd:lineID="13"><text style="&st18;" transform="matrix(&st16;  580.22  383.92 )">7</text><text style="&st18;" transform="matrix(&st16;  581.96  372.03 )">LO</text></g><g ewd:lineID="14"><text style="&st18;" transform="matrix(&st16;  631.21  383.92 )">6</text><text style="&st18;" transform="matrix(&st16;  633.11  372.03 )">M1</text></g><g ewd:lineID="15"><text style="&st18;" transform="matrix(&st16;  682.2  383.92 )">5</text><text style="&st18;" transform="matrix(&st16;  684.1  372.03 )">M2</text></g><g ewd:lineID="17,25"><text style="&st18;" transform="matrix(&st16;  733.19  383.92 )">4</text><text style="&st18;" transform="matrix(&st16;  735.99  372.03 )">HI</text></g></g><g ewd:figtype="conn" ewd:figID="18" ewd:code="I7"><path style="stroke-width: 0.85 ;&st7; stroke-dasharray:3, 1.5;" d=" M   696.88,   566.09  L   726.63,   566.09  " /><path style="stroke-width: 0.85 ;&st7; stroke-dasharray:3, 1.5;" d=" M   696.88,   575.16  L   726.63,   575.16  " /><path style="stroke-width: 0.85 ;&st7; stroke-dasharray:3, 1.5;" d=" M   645.89,   575.16  L   675.64,   575.16  " /><path style="stroke-width: 0.85 ;&st7; stroke-dasharray:3, 1.5;" d=" M   645.89,   566.09  L   675.64,   566.09  " /><path style="stroke-width: 0.85 ;&st7; stroke-dasharray:3, 1.5;" d=" M   594.90,   566.09  L   624.65,   566.09  " /><path style="stroke-width: 0.85 ;&st7; stroke-dasharray:3, 1.5;" d=" M   594.90,   575.16  L   624.65,   575.16  " /><path style="stroke-width:1.42 ;&st7;  " d=" M   569.40,   622.18  L   756.37,   622.18  L   756.37,   579.69  L   569.40,   579.69  L   569.40,   622.18  " /><g ewd:lineID="13"><text style="&st18;" transform="matrix(&st16;  577.71  577.13 )">4</text><text style="&st18;" transform="matrix(&st16;  577.71  568.06 )">1</text><text style="&st18;" transform="matrix(&st16;  584.1  568.06 )">A</text><path style="stroke-width:1.42 ;&st7;   " d=" M   590.93,   575.16  C   590.93    572.65    588.91    570.62    586.40    570.62  " /><path style="stroke-width:1.42 ;&st7;   " d=" M   586.40,   570.62  C   583.90    570.62    581.87    572.65    581.87    575.16  " /><path style="stroke-width:1.42 ;&st7;   " d=" M   581.87,   575.16  C   581.87    577.66    583.90    579.69    586.40    579.69  " /><path style="stroke-width:1.42 ;&st7;   " d=" M   586.40,   579.69  C   588.91    579.69    590.93    577.66    590.93    575.16  " /><path style="stroke-width:1.42 ;&st7;   " d=" M   590.93,   566.09  C   590.93    563.59    588.91    561.56    586.40    561.56  " /><path style="stroke-width:1.42 ;&st7;   " d=" M   586.40,   561.56  C   583.90    561.56    581.87    563.59    581.87    566.09  " /><path style="stroke-width:1.42 ;&st7;   " d=" M   581.87,   566.09  C   581.87    568.59    583.90    570.62    586.40    570.62  " /><path style="stroke-width:1.42 ;&st7;   " d=" M   586.40,   570.62  C   588.91    570.62    590.93    568.59    590.93    566.09  " /><text style="&st18;" transform="matrix(&st16;  584.1  577.13 )">A</text><text style="&st18;" transform="matrix(&st16;  584.29  587.32 )">E</text></g><g ewd:lineID="14"><text style="&st18;" transform="matrix(&st16;  628.7  577.13 )">2</text><text style="&st18;" transform="matrix(&st16;  628.7  568.06 )">3</text><path style="stroke-width:1.42 ;&st7;   " d=" M   641.93,   575.16  C   641.93    572.65    639.90    570.62    637.39    570.62  " /><path style="stroke-width:1.42 ;&st7;   " d=" M   637.39,   570.62  C   634.89    570.62    632.86    572.65    632.86    575.16  " /><path style="stroke-width:1.42 ;&st7;   " d=" M   632.86,   575.16  C   632.86    577.66    634.89    579.69    637.39    579.69  " /><path style="stroke-width:1.42 ;&st7;   " d=" M   637.39,   579.69  C   639.90    579.69    641.93    577.66    641.93    575.16  " /><text style="&st18;" transform="matrix(&st16;  635.09  568.06 )">A</text><text style="&st18;" transform="matrix(&st16;  635.09  577.13 )">A</text><path style="stroke-width:1.42 ;&st7;   " d=" M   641.93,   566.09  C   641.93    563.59    639.90    561.56    637.39    561.56  " /><path style="stroke-width:1.42 ;&st7;   " d=" M   637.39,   561.56  C   634.89    561.56    632.86    563.59    632.86    566.09  " /><path style="stroke-width:1.42 ;&st7;   " d=" M   632.86,   566.09  C   632.86    568.59    634.89    570.62    637.39    570.62  " /><path style="stroke-width:1.42 ;&st7;   " d=" M   637.39,   570.62  C   639.90    570.62    641.93    568.59    641.93    566.09  " /><text style="&st18;" transform="matrix(&st16;  633.11  587.32 )">M1</text></g><g ewd:lineID="15"><text style="&st18;" transform="matrix(&st16;  679.69  577.13 )">3</text><text style="&st18;" transform="matrix(&st16;  679.69  568.06 )">2</text><text style="&st18;" transform="matrix(&st16;  686.08  577.13 )">A</text><text style="&st18;" transform="matrix(&st16;  686.08  568.06 )">A</text><path style="stroke-width:1.42 ;&st7;   " d=" M   692.92,   566.09  C   692.92    563.59    690.89    561.56    688.38    561.56  " /><path style="stroke-width:1.42 ;&st7;   " d=" M   688.38,   561.56  C   685.88    561.56    683.85    563.59    683.85    566.09  " /><path style="stroke-width:1.42 ;&st7;   " d=" M   683.85,   566.09  C   683.85    568.59    685.88    570.62    688.38    570.62  " /><path style="stroke-width:1.42 ;&st7;   " d=" M   688.38,   570.62  C   690.89    570.62    692.92    568.59    692.92    566.09  " /><path style="stroke-width:1.42 ;&st7;   " d=" M   692.92,   575.16  C   692.92    572.65    690.89    570.62    688.38    570.62  " /><path style="stroke-width:1.42 ;&st7;   " d=" M   688.38,   570.62  C   685.88    570.62    683.85    572.65    683.85    575.16  " /><path style="stroke-width:1.42 ;&st7;   " d=" M   683.85,   575.16  C   683.85    577.66    685.88    579.69    688.38    579.69  " /><path style="stroke-width:1.42 ;&st7;   " d=" M   688.38,   579.69  C   690.89    579.69    692.92    577.66    692.92    575.16  " /><text style="&st18;" transform="matrix(&st16;  684.1  587.32 )">M2</text></g><g ewd:lineID="16,24"><text style="&st18;" transform="matrix(&st16;  730.68  568.06 )">4</text><text style="&st18;" transform="matrix(&st16;  730.68  577.13 )">1</text><text style="&st18;" transform="matrix(&st16;  737.07  577.13 )">A</text><path style="stroke-width:1.42 ;&st7;   " d=" M   743.91,   566.09  C   743.91    563.59    741.88    561.56    739.38    561.56  " /><path style="stroke-width:1.42 ;&st7;   " d=" M   739.38,   561.56  C   736.87    561.56    734.84    563.59    734.84    566.09  " /><path style="stroke-width:1.42 ;&st7;   " d=" M   734.84,   566.09  C   734.84    568.59    736.87    570.62    739.38    570.62  " /><path style="stroke-width:1.42 ;&st7;   " d=" M   739.38,   570.62  C   741.88    570.62    743.91    568.59    743.91    566.09  " /><path style="stroke-width:1.42 ;&st7;   " d=" M   743.91,   575.16  C   743.91    572.65    741.88    570.62    739.38    570.62  " /><path style="stroke-width:1.42 ;&st7;   " d=" M   739.38,   570.62  C   736.87    570.62    734.84    572.65    734.84    575.16  " /><path style="stroke-width:1.42 ;&st7;   " d=" M   734.84,   575.16  C   734.84    577.66    736.87    579.69    739.38    579.69  " /><path style="stroke-width:1.42 ;&st7;   " d=" M   739.38,   579.69  C   741.88    579.69    743.91    577.66    743.91    575.16  " /><text style="&st18;" transform="matrix(&st16;  737.07  568.06 )">A</text><text style="&st18;" transform="matrix(&st16;  735.99  587.32 )">HI</text></g><g ewd:figtype="title"><text style="&st18;" transform="matrix(&st16;  565.99  630.07 )">I7(A)</text><text style="&st18;" transform="matrix(&st16;  566.0  636.9 )" ewd:textID="6">Blower Resistor</text></g></g><g ewd:figtype="conn" ewd:figID="24" ewd:code="I94"><path style="stroke-width:1.42 ;&st7;  " d=" M   730.88,   460.71  L   730.88,   477.71  L   747.87,   477.71  L   747.87,   460.71  L   730.88,   460.71  " /><path style="stroke-width:0.85 ;&st7;  " d=" M   739.38,   460.71  L   739.38,   477.71  " /><path style="stroke-width:0.85 ;&st7;  " d=" M   738.18,   468.20  L   737.91,   468.67  L   737.82,   469.21  L   737.91,   469.74  L   738.18,   470.21  L   738.60,   470.56  L   739.10,   470.74  L   739.65,   470.74  L   740.16,   470.56  L   740.57,   470.21  L   740.84,   469.74  L   740.93,   469.21  L   740.84,   468.67  L   740.57,   468.20  L   740.16,   467.86  L   739.65,   467.67  L   739.10,   467.67  L   738.60,   467.86  L   738.18,   468.20  L   738.58,   468.92  L   738.58,   469.50  L   738.95,   469.94  L   739.52,   470.04  L   740.03,   469.75  L   740.23,   469.21  L   740.03,   468.66  L   739.52,   468.37  L   738.95,   468.47  L   739.38,   469.21  " /><path style="stroke-width:0.85 ;&st7;  " d=" M   739.38,   469.21  L   747.87,   469.21  " /><text style="&st18;" transform="matrix(&st16;  730.09  485.9 )">11</text><text style="&st18;" transform="matrix(&st16;  730.09  457.02 )">10</text><text style="&st18;" transform="matrix(&st16;  750.46  465.52 )">9</text><g ewd:figtype="title"><text style="&st18;" transform="matrix(&st17;  721.23  480.61 )" ewd:textID="16">No. 7 Junction <tspan x="0 " dy="6.0">Connector</tspan></text><text style="&st18;" transform="matrix(&st17;  714.41  480.6 )">I94</text></g></g><g ewd:code="" ewd:figID="55" ewd:comment="" ewd:figtype="commref"><text style="&st18;" transform="matrix(&st16;  744.47  577.13 )">(RHD)</text></g><g ewd:code="" ewd:figID="56" ewd:comment="" ewd:figtype="commref"><text style="&st18;" transform="matrix(&st16;  744.47  568.06 )">(LHD)</text></g></svg>