<?xml version="1.0" encoding="utf-8"?>
<!DOCTYPE svg PUBLIC "-//W3C//DTD SVG 1.0//EN" "http://www.w3.org/TR/2001/REC-SVG-20010904/DTD/svg10.dtd"[
	<!ENTITY ns_flows "http://ns.adobe.com/Flows/1.0/">
	<!ENTITY ns_svg "http://www.w3.org/2000/svg">
	<!ENTITY ns_xlink "http://www.w3.org/1999/xlink">
	<!ENTITY st0 "font-size:7px;font-family:'MS-PGothic';adobe-font-script:japanese;">
	<!ENTITY st1 "font-size:6px;font-family:'ArialMT';">
	<!-- White fill  -->
	<!ENTITY st2 "fill:#FFFFFF;stroke:#000000; stroke-width:1.41;stroke-linecap:round;stroke-linejoin:round;">
	<!-- Yellow fill  -->
	<!ENTITY st3 "fill:#FFFFCC;stroke:#FFFFCC; stroke-width:0.1;stroke-linecap:round;stroke-linejoin:round;">
	<!-- Gray fill  -->
	<!ENTITY st4 "fill:#CCCCCC;stroke:#CCCCCC; stroke-width:0.1;stroke-linecap:round;stroke-linejoin:round;">
	<!-- Light-blue fill -->
	<!ENTITY st5 "fill:#CCECF4;stroke:#000000; stroke-width:1.133;stroke-linecap:round;stroke-linejoin:round;">
	<!ENTITY st6 "fill:none;stroke-linecap:butt; stroke-linejoin:round;">
	<!ENTITY st7 "fill:none;stroke:#000000;stroke-linecap:round;stroke-linejoin:round;">
	<!ENTITY st8 "enable-background:new    ;">
	<!-- Black fill -->
	<!ENTITY st9 "fill:#000000;stroke:#000000; stroke-linecap:round;stroke-linejoin:round;">
	<!-- SRS note   -->
	<!ENTITY st10 "font-size:9px;font-family:'ArialMT';">
	<!ENTITY st11 "font-size:9px;font-family:'Svg Symbol';">
	<!ENTITY st12 "font-size:6px;font-family:'Svg Symbol';">
	<!ENTITY st13 "fill:none;stroke:#ff0000;stroke-linecap:round;stroke-linejoin:round;">
	<!-- Yellow fill  -->
	<!ENTITY st14 "fill:#FFFF00;stroke:#FFFF00; stroke-width:0.1;stroke-linecap:round;stroke-linejoin:round;">
	<!ENTITY st15 "font-size:6px;font-family:'MS-PGothic';adobe-font-script:japanese;">
	<!ENTITY st16 "1.00 0.00 0.00 1.00">
	<!ENTITY st17 "0.00 -1.00 1.00 0.00">
	<!ENTITY st18 "font-size:6px;font-family:'Arial';">
	<!ENTITY st19 "font-size:9px;font-family:'Arial';">
	<!ENTITY st20 "font-size:6px;font-family:'MS-PGothic','MS PGothic';adobe-font-script:japanese;">
	<!ENTITY st21 "font-size:7px;font-family:'MS-PGothic','MS PGothic';adobe-font-script:japanese;">
	<!ATTLIST svg
		xmlns:ewd CDATA #FIXED "http://shcl.co.jp/ewd"
		xmlns:a CDATA #FIXED "http://ns.adobe.com/AdobeSVGViewerExtensions/3.0/"
		ewd:ver CDATA #IMPLIED
	>
	<!ATTLIST a
		ewd:lineID CDATA #IMPLIED
		ewd:groupID CDATA #IMPLIED
		ewd:figtype CDATA #IMPLIED
		ewd:code CDATA #IMPLIED
		ewd:figID CDATA #IMPLIED
		ewd:pinNo CDATA #IMPLIED
		ewd:comment CDATA #IMPLIED >
	<!ATTLIST g
		ewd:lineID CDATA #IMPLIED
		ewd:groupID CDATA #IMPLIED
		ewd:figtype CDATA #IMPLIED
		ewd:code CDATA #IMPLIED
		ewd:figID CDATA #IMPLIED
		ewd:pinNo CDATA #IMPLIED
		ewd:comment CDATA #IMPLIED >
	<!ATTLIST text
		ewd:textID CDATA #IMPLIED >
	<!ATTLIST title
		ewd:textID CDATA #IMPLIED >
]>
<!-- Generator: Shintec Hozumi YS   -->
<svg onload="call_execInitLoadProc_svg('system')" style="overflow:visible;  enable-background:new 0 0 1023.202 710.000" viewBox="0 0 1023.202 710.000" height="710.000" width="1023.202" xml:space="preserve" ewd:ver="2.1.2.9" xmlns="&ns_svg;" xmlns:a="http://ns.adobe.com/AdobeSVGViewerExtensions/3.0/" xmlns:ewd="http://shcl.co.jp/ewd" xmlns:xlink="&ns_xlink;">
<path style="stroke-width:1.42 ;&st7;  " d=" M   722.38,   214.25  L   713.88,   214.25  " /><path style="stroke-width:1.42 ;&st7;  " d=" M   705.38,   120.77  L   713.88,   120.77  " /><path style="stroke-width:1.42 ;&st7;  " d=" M   637.39,   197.25  L   645.89,   197.25  " /><path style="stroke-width:1.42 ;&st7;  " d=" M   603.40,   205.75  L   594.90,   205.75  " /><path style="stroke-width:1.42 ;&st7;  " d=" M   603.40,   137.76  L   594.90,   137.76  " /><path style="stroke-width:1.42 ;&st7;  " d=" M   866.86,   367.22  L   875.35,   367.22  " /><path style="stroke-width:1.42 ;&st7;  " d=" M   654.39,   414.69  L   649.42,   409.72  " /><path style="stroke-width:1.42 ;&st7;  " d=" M   637.39,   421.75  L   642.36,   426.71  " /><path style="stroke-width:1.42 ;&st7;  " d=" M   649.42,   426.71  L   654.39,   421.75  " /><path style="stroke-width:1.42 ;&st7;  " d=" M   642.36,   409.72  L   637.39,   414.69  " /><path style="stroke-width:1.42 ;&st7;  " d=" M   654.39,   567.66  L   649.42,   562.69  " /><path style="stroke-width:1.42 ;&st7;  " d=" M   637.39,   574.72  L   642.36,   579.69  " /><path style="stroke-width:1.42 ;&st7;  " d=" M   649.42,   579.69  L   654.39,   574.72  " /><path style="stroke-width:1.42 ;&st7;  " d=" M   642.36,   562.69  L   637.39,   567.66  " /><path style="stroke-width:1.42 ;&st7;  " d=" M   883.85,   567.66  L   878.88,   562.69  " /><path style="stroke-width:1.42 ;&st7;  " d=" M   866.86,   574.72  L   871.82,   579.69  " /><path style="stroke-width:1.42 ;&st7;  " d=" M   878.88,   579.69  L   883.85,   574.72  " /><path style="stroke-width:1.42 ;&st7;  " d=" M   871.82,   562.69  L   866.86,   567.66  " /><path style="stroke-width:1.42 ;&st7;  " d=" M   985.84,   567.66  L   980.86,   562.69  " /><path style="stroke-width:1.42 ;&st7;  " d=" M   968.84,   574.72  L   973.81,   579.69  " /><path style="stroke-width:1.42 ;&st7;  " d=" M   980.86,   579.69  L   985.84,   574.72  " /><path style="stroke-width:1.42 ;&st7;  " d=" M   973.81,   562.69  L   968.84,   567.66  " /><path style="stroke-width:1.42 ;&st7;  " d=" M   883.85,   414.69  L   878.88,   409.72  " /><path style="stroke-width:1.42 ;&st7;  " d=" M   866.86,   421.75  L   871.82,   426.71  " /><path style="stroke-width:1.42 ;&st7;  " d=" M   878.88,   426.71  L   883.85,   421.75  " /><path style="stroke-width:1.42 ;&st7;  " d=" M   871.82,   409.72  L   866.86,   414.69  " /><path style="stroke-width:1.42 ;&st7;  " d=" M   654.39,   299.24  L   645.89,   299.24  " /><text style="&st18;" transform="matrix(&st16;  698.93  567.49 )">W-B</text><text style="&st18;" transform="matrix(&st17;  591.21  168.36 )">R-B</text><text style="&st18;" transform="matrix(&st17;  602.54  167.97 )">(*8)</text><text style="&st18;" transform="matrix(&st17;  642.2  168.36 )">R-B</text><text style="&st18;" transform="matrix(&st17;  653.53  167.97 )">(*1)</text><text style="&st18;" transform="matrix(&st17;  710.19  168.36 )">R-B</text><text style="&st18;" transform="matrix(&st17;  721.52  167.97 )">(*4)</text><text style="&st18;" transform="matrix(&st17;  591.21  244.85 )">R-B</text><text style="&st18;" transform="matrix(&st17;  602.54  244.46 )">(*8)</text><text style="&st18;" transform="matrix(&st17;  642.2  244.85 )">R-B</text><text style="&st18;" transform="matrix(&st17;  653.53  244.46 )">(*1)</text><text style="&st18;" transform="matrix(&st17;  710.19  244.85 )">R-B</text><text style="&st18;" transform="matrix(&st17;  721.52  244.46 )">(*4)</text><text style="&st18;" transform="matrix(&st17;  642.2  338.33 )">R-B</text><text style="&st18;" transform="matrix(&st17;  653.53  339.49 )">(*10)</text><text style="&st18;" transform="matrix(&st17;  642.2  397.82 )">R-B</text><text style="&st18;" transform="matrix(&st17;  653.53  398.98 )">(*10)</text><text style="&st18;" transform="matrix(&st17;  871.66  397.82 )">R-B</text><text style="&st18;" transform="matrix(&st17;  882.99  398.98 )">(*11)</text><text style="&st18;" transform="matrix(&st17;  871.66  338.33 )">R-B</text><text style="&st18;" transform="matrix(&st17;  882.99  339.49 )">(*11)</text><text style="&st18;" transform="matrix(&st17;  548.71  448.81 )">R-B</text><text style="&st18;" transform="matrix(&st17;  560.04  449.98 )">(*10)</text><text style="&st18;" transform="matrix(&st17;  642.2  448.81 )">R-B</text><text style="&st18;" transform="matrix(&st17;  653.53  449.98 )">(*10)</text><text style="&st18;" transform="matrix(&st17;  761.18  448.81 )">R-B</text><text style="&st18;" transform="matrix(&st17;  772.51  449.98 )">(*10)</text><text style="&st18;" transform="matrix(&st17;  871.66  448.81 )">R-B</text><text style="&st18;" transform="matrix(&st17;  882.99  449.98 )">(*11)</text><text style="&st18;" transform="matrix(&st17;  973.64  448.81 )">R-B</text><text style="&st18;" transform="matrix(&st17;  984.97  449.98 )">(*11)</text><text style="&st18;" transform="matrix(&st17;  548.71  551.65 )">W-B</text><text style="&st18;" transform="matrix(&st17;  560.04  551.96 )">(*10)</text><text style="&st18;" transform="matrix(&st17;  642.2  551.65 )">W-B</text><text style="&st18;" transform="matrix(&st17;  653.53  551.96 )">(*10)</text><text style="&st18;" transform="matrix(&st17;  761.18  551.65 )">W-B</text><text style="&st18;" transform="matrix(&st17;  772.51  551.96 )">(*10)</text><text style="&st18;" transform="matrix(&st17;  871.66  551.65 )">W-B</text><text style="&st18;" transform="matrix(&st17;  882.99  551.96 )">(*11)</text><text style="&st18;" transform="matrix(&st17;  973.64  551.65 )">W-B</text><text style="&st18;" transform="matrix(&st17;  984.97  551.96 )">(*11)</text><text style="&st18;" transform="matrix(&st17;  642.2  628.14 )">W-B</text><text style="&st18;" transform="matrix(&st17;  653.53  628.45 )">(*10)</text><text style="&st18;" transform="matrix(&st17;  591.21  108.87 )">R-B</text><text style="&st18;" transform="matrix(&st17;  602.54  108.48 )">(*8)</text><text style="&st18;" transform="matrix(&st17;  710.19  100.37 )">R-B</text><text style="&st18;" transform="matrix(&st17;  721.52  99.98 )">(*4)</text><text style="&st18;" transform="matrix(&st17;  871.66  619.64 )">W-B</text><text style="&st18;" transform="matrix(&st17;  882.99  619.95 )">(*11)</text><text style="&st18;" transform="matrix(&st17;  973.64  619.64 )">W-B</text><text style="&st18;" transform="matrix(&st17;  984.97  619.95 )">(*11)</text><text style="&st18;" transform="matrix(&st16;  698.62  578.82 )">(*10)</text><path style="stroke-width:1.42 ;&st7;  " d=" M   654.39,   367.22  L   645.89,   367.22  " /><text style="&st18;" transform="matrix(&st16;  538.31  32.08 )">R-B</text><text style="&st18;" transform="matrix(&st16;  538.7  43.41 )">(*4)</text><text style="&st18;" transform="matrix(&st16;  538.31  57.58 )">R-B</text><text style="&st18;" transform="matrix(&st16;  538.7  68.91 )">(*1)</text><text style="&st18;" transform="matrix(&st16;  538.31  83.07 )">R-B</text><text style="&st18;" transform="matrix(&st16;  538.7  94.41 )">(*8)</text><g ewd:figtype="conn" ewd:figID="1" ewd:code="T17"><path style="stroke-width:0.85 ;&st7;  " d=" M   764.87,   486.20  L   764.87,   490.45  " /><path style="stroke-width:0.85 ;&st7;  " d=" M   764.87,   498.95  L   764.87,   503.20  " /><path style="stroke-width:0.85 ;&st7;   " d=" M   764.87,   498.95  C   766.43    498.96    767.70    497.71    767.71    496.15  " /><path style="stroke-width:0.85 ;&st7;   " d=" M   767.71,   496.15  C   767.71    494.60    766.46    493.33    764.91    493.32  " /><path style="stroke-width:0.85 ;&st7;   " d=" M   764.91,   493.32  C   763.87    493.31    762.99    493.81    762.47    494.70  " /><path style="stroke-width:0.85 ;&st7;   " d=" M   762.46,   494.70  C   763.26    496.04    764.98    496.49    766.32    495.69  " /><path style="stroke-width:0.85 ;&st7;   " d=" M   766.32,   495.69  C   767.66    494.90    768.11    493.18    767.31    491.84  " /><path style="stroke-width:0.85 ;&st7;   " d=" M   767.31,   491.84  C   766.79    490.95    765.91    490.45    764.87    490.45  " /><path style="stroke-width:1.42 ;&st7;   " d=" M   773.37,   494.70  C   773.37    490.01    769.57    486.20    764.87    486.20  " /><path style="stroke-width:1.42 ;&st7;   " d=" M   764.87,   486.20  C   760.18    486.20    756.37    490.01    756.37    494.70  " /><path style="stroke-width:1.42 ;&st7;   " d=" M   756.37,   494.70  C   756.37    499.40    760.18    503.20    764.87    503.20  " /><path style="stroke-width:1.42 ;&st7;   " d=" M   764.87,   503.20  C   769.57    503.20    773.37    499.40    773.37    494.70  " /><path style="stroke-width:1.42 ;&st7;  " d=" M   739.38,   469.21  L   790.37,   469.21  L   790.37,   520.20  L   739.38,   520.20  L   739.38,   469.21  " /><path style="stroke-width:0.85 ;&st7;  " d=" M   764.87,   520.20  L   764.87,   503.20  " /><path style="stroke-width:0.85 ;&st7;  " d=" M   764.87,   486.20  L   764.87,   469.21  " /><text style="&st18;" transform="matrix(&st17;  752.68  505.97 )" ewd:textID="7">Back-Up</text><text style="&st18;" transform="matrix(&st16;  767.46  516.51 )">E</text><text style="&st18;" transform="matrix(&st16;  767.46  477.4 )">B/U</text><text style="&st18;" transform="matrix(&st16;  756.18  466.64 )">4</text><path style="stroke-width:1.42 ;&st7;   " d=" M   769.40,   464.67  C   769.40    462.17    767.38    460.14    764.87    460.14  " /><path style="stroke-width:1.42 ;&st7;   " d=" M   764.87,   460.14  C   762.37    460.14    760.34    462.17    760.34    464.67  " /><path style="stroke-width:1.42 ;&st7;   " d=" M   760.34,   464.67  C   760.34    467.18    762.37    469.21    764.87    469.21  " /><path style="stroke-width:1.42 ;&st7;   " d=" M   764.87,   469.21  C   767.38    469.21    769.40    467.18    769.40    464.67  " /><text style="&st18;" transform="matrix(&st16;  762.57  466.64 )">A</text><text style="&st18;" transform="matrix(&st16;  756.18  526.7 )">2</text><path style="stroke-width:1.42 ;&st7;   " d=" M   769.40,   524.73  C   769.40    522.23    767.38    520.20    764.87    520.20  " /><path style="stroke-width:1.42 ;&st7;   " d=" M   764.87,   520.20  C   762.37    520.20    760.34    522.23    760.34    524.73  " /><path style="stroke-width:1.42 ;&st7;   " d=" M   760.34,   524.73  C   760.34    527.23    762.37    529.26    764.87    529.26  " /><path style="stroke-width:1.42 ;&st7;   " d=" M   764.87,   529.26  C   767.38    529.26    769.40    527.23    769.40    524.73  " /><text style="&st18;" transform="matrix(&st16;  762.57  526.7 )">A</text><g ewd:figtype="title"><text style="&st18;" transform="matrix(&st17;  805.09  523.1 )" ewd:textID="12">Rear Combination Light Assembly LH</text><text style="&st18;" transform="matrix(&st17;  798.26  523.1 )">T17(A)</text></g></g><g ewd:figtype="conn" ewd:figID="2" ewd:code="T1"><path style="stroke-width:0.85 ;&st7;  " d=" M   875.35,   486.20  L   875.35,   490.45  " /><path style="stroke-width:0.85 ;&st7;  " d=" M   875.35,   498.95  L   875.35,   503.20  " /><path style="stroke-width:0.85 ;&st7;   " d=" M   875.35,   498.95  C   876.91    498.96    878.18    497.71    878.19    496.15  " /><path style="stroke-width:0.85 ;&st7;   " d=" M   878.19,   496.15  C   878.20    494.60    876.94    493.33    875.39    493.32  " /><path style="stroke-width:0.85 ;&st7;   " d=" M   875.39,   493.32  C   874.36    493.31    873.47    493.81    872.95    494.70  " /><path style="stroke-width:0.85 ;&st7;   " d=" M   872.95,   494.70  C   873.74    496.04    875.46    496.49    876.80    495.69  " /><path style="stroke-width:0.85 ;&st7;   " d=" M   876.80,   495.69  C   878.14    494.90    878.59    493.18    877.80    491.84  " /><path style="stroke-width:0.85 ;&st7;   " d=" M   877.80,   491.84  C   877.27    490.95    876.39    490.45    875.35    490.45  " /><path style="stroke-width:1.42 ;&st7;   " d=" M   883.85,   494.70  C   883.85    490.01    880.05    486.20    875.35    486.20  " /><path style="stroke-width:1.42 ;&st7;   " d=" M   875.35,   486.20  C   870.66    486.20    866.86    490.01    866.86    494.70  " /><path style="stroke-width:1.42 ;&st7;   " d=" M   866.86,   494.70  C   866.86    499.40    870.66    503.20    875.35    503.20  " /><path style="stroke-width:1.42 ;&st7;   " d=" M   875.35,   503.20  C   880.05    503.20    883.85    499.40    883.85    494.70  " /><path style="stroke-width:1.42 ;&st7;  " d=" M   849.86,   469.21  L   900.85,   469.21  L   900.85,   520.20  L   849.86,   520.20  L   849.86,   469.21  " /><path style="stroke-width:0.85 ;&st7;  " d=" M   875.35,   469.21  L   875.35,   486.20  " /><path style="stroke-width:0.85 ;&st7;  " d=" M   875.35,   503.20  L   875.35,   520.20  " /><text style="&st18;" transform="matrix(&st17;  863.16  505.97 )" ewd:textID="7">Back-Up</text><text style="&st18;" transform="matrix(&st16;  877.94  516.51 )">E</text><text style="&st18;" transform="matrix(&st16;  877.94  477.4 )">B/U</text><text style="&st18;" transform="matrix(&st16;  866.66  526.7 )">5</text><path style="stroke-width:1.42 ;&st7;   " d=" M   879.89,   524.73  C   879.89    522.23    877.86    520.20    875.35    520.20  " /><path style="stroke-width:1.42 ;&st7;   " d=" M   875.35,   520.20  C   872.85    520.20    870.82    522.23    870.82    524.73  " /><path style="stroke-width:1.42 ;&st7;   " d=" M   870.82,   524.73  C   870.82    527.23    872.85    529.26    875.35    529.26  " /><path style="stroke-width:1.42 ;&st7;   " d=" M   875.35,   529.26  C   877.86    529.26    879.89    527.23    879.89    524.73  " /><text style="&st18;" transform="matrix(&st16;  873.17  526.7 )">B</text><text style="&st18;" transform="matrix(&st16;  866.66  466.64 )">1</text><path style="stroke-width:1.42 ;&st7;   " d=" M   879.89,   464.67  C   879.89    462.17    877.86    460.14    875.35    460.14  " /><path style="stroke-width:1.42 ;&st7;   " d=" M   875.35,   460.14  C   872.85    460.14    870.82    462.17    870.82    464.67  " /><path style="stroke-width:1.42 ;&st7;   " d=" M   870.82,   464.67  C   870.82    467.18    872.85    469.21    875.35    469.21  " /><path style="stroke-width:1.42 ;&st7;   " d=" M   875.35,   469.21  C   877.86    469.21    879.89    467.18    879.89    464.67  " /><text style="&st18;" transform="matrix(&st16;  873.17  466.64 )">B</text><g ewd:figtype="title"><text style="&st18;" transform="matrix(&st17;  915.57  523.1 )" ewd:textID="13">Rear Combination <tspan x="0 " dy="6.0">Light Assembly RH</tspan></text><text style="&st18;" transform="matrix(&st17;  908.74  523.1 )">T1(B)</text></g></g><g ewd:figtype="conn" ewd:figID="3" ewd:code="T14"><path style="stroke-width:0.85 ;&st7;  " d=" M   645.89,   498.95  L   645.89,   503.20  " /><path style="stroke-width:0.85 ;&st7;  " d=" M   645.89,   486.20  L   645.89,   490.45  " /><path style="stroke-width:1.42 ;&st7;   " d=" M   654.39,   494.70  C   654.39    490.01    650.59    486.20    645.89    486.20  " /><path style="stroke-width:1.42 ;&st7;   " d=" M   645.89,   486.20  C   641.20    486.20    637.39    490.01    637.39    494.70  " /><path style="stroke-width:1.42 ;&st7;   " d=" M   637.39,   494.70  C   637.39    499.40    641.20    503.20    645.89    503.20  " /><path style="stroke-width:1.42 ;&st7;   " d=" M   645.89,   503.20  C   650.59    503.20    654.39    499.40    654.39    494.70  " /><path style="stroke-width:0.85 ;&st7;   " d=" M   643.48,   494.70  C   644.28    496.04    646.00    496.49    647.34    495.69  " /><path style="stroke-width:0.85 ;&st7;   " d=" M   647.34,   495.69  C   648.68    494.90    649.13    493.18    648.33    491.84  " /><path style="stroke-width:0.85 ;&st7;   " d=" M   648.33,   491.84  C   647.81    490.95    646.93    490.45    645.89    490.45  " /><path style="stroke-width:0.85 ;&st7;   " d=" M   645.89,   498.95  C   647.45    498.96    648.72    497.71    648.72    496.15  " /><path style="stroke-width:0.85 ;&st7;   " d=" M   648.72,   496.15  C   648.73    494.60    647.48    493.33    645.93    493.32  " /><path style="stroke-width:0.85 ;&st7;   " d=" M   645.93,   493.32  C   644.89    493.31    644.01    493.81    643.49    494.70  " /><path style="stroke-width:1.42 ;&st7;  " d=" M   620.40,   469.21  L   671.39,   469.21  L   671.39,   520.20  L   620.40,   520.20  L   620.40,   469.21  " /><path style="stroke-width:0.85 ;&st7;  " d=" M   645.89,   469.21  L   645.89,   486.20  " /><path style="stroke-width:0.85 ;&st7;  " d=" M   645.89,   503.20  L   645.89,   520.20  " /><text style="&st18;" transform="matrix(&st17;  633.7  505.97 )" ewd:textID="7">Back-Up</text><text style="&st18;" transform="matrix(&st16;  648.48  516.51 )">E</text><text style="&st18;" transform="matrix(&st16;  648.48  477.4 )">B/U</text><text style="&st18;" transform="matrix(&st16;  637.2  526.7 )">2</text><path style="stroke-width:1.42 ;&st7;   " d=" M   650.42,   524.73  C   650.42    522.23    648.40    520.20    645.89    520.20  " /><path style="stroke-width:1.42 ;&st7;   " d=" M   645.89,   520.20  C   643.39    520.20    641.36    522.23    641.36    524.73  " /><path style="stroke-width:1.42 ;&st7;   " d=" M   641.36,   524.73  C   641.36    527.23    643.39    529.26    645.89    529.26  " /><path style="stroke-width:1.42 ;&st7;   " d=" M   645.89,   529.26  C   648.40    529.26    650.42    527.23    650.42    524.73  " /><text style="&st18;" transform="matrix(&st16;  643.59  526.7 )">A</text><text style="&st18;" transform="matrix(&st16;  637.2  466.64 )">4</text><path style="stroke-width:1.42 ;&st7;   " d=" M   650.42,   464.67  C   650.42    462.17    648.40    460.14    645.89    460.14  " /><path style="stroke-width:1.42 ;&st7;   " d=" M   645.89,   460.14  C   643.39    460.14    641.36    462.17    641.36    464.67  " /><path style="stroke-width:1.42 ;&st7;   " d=" M   641.36,   464.67  C   641.36    467.18    643.39    469.21    645.89    469.21  " /><path style="stroke-width:1.42 ;&st7;   " d=" M   645.89,   469.21  C   648.40    469.21    650.42    467.18    650.42    464.67  " /><text style="&st18;" transform="matrix(&st16;  643.59  466.64 )">A</text><g ewd:figtype="title"><text style="&st18;" transform="matrix(&st17;  686.11  523.1 )" ewd:textID="13">Rear Combination <tspan x="0 " dy="6.0">Light Assembly RH</tspan></text><text style="&st18;" transform="matrix(&st17;  679.28  523.1 )">T14(A)</text></g></g><g ewd:figtype="conn" ewd:figID="4" ewd:code="T5"><path style="stroke-width:0.85 ;&st7;  " d=" M   977.34,   486.20  L   977.34,   490.45  " /><path style="stroke-width:0.85 ;&st7;  " d=" M   977.34,   498.95  L   977.34,   503.20  " /><path style="stroke-width:0.85 ;&st7;   " d=" M   977.34,   498.95  C   978.89    498.96    980.16    497.71    980.17    496.15  " /><path style="stroke-width:0.85 ;&st7;   " d=" M   980.17,   496.15  C   980.18    494.60    978.93    493.33    977.37    493.32  " /><path style="stroke-width:0.85 ;&st7;   " d=" M   977.37,   493.32  C   976.34    493.31    975.46    493.81    974.93    494.70  " /><path style="stroke-width:0.85 ;&st7;   " d=" M   974.93,   494.70  C   975.72    496.04    977.45    496.49    978.79    495.69  " /><path style="stroke-width:0.85 ;&st7;   " d=" M   978.79,   495.69  C   980.13    494.90    980.57    493.18    979.78    491.84  " /><path style="stroke-width:0.85 ;&st7;   " d=" M   979.78,   491.84  C   979.25    490.95    978.37    490.45    977.34    490.45  " /><path style="stroke-width:1.42 ;&st7;   " d=" M   985.84,   494.70  C   985.84    490.01    982.03    486.20    977.34    486.20  " /><path style="stroke-width:1.42 ;&st7;   " d=" M   977.34,   486.20  C   972.64    486.20    968.84    490.01    968.84    494.70  " /><path style="stroke-width:1.42 ;&st7;   " d=" M   968.84,   494.70  C   968.84    499.40    972.64    503.20    977.34    503.20  " /><path style="stroke-width:1.42 ;&st7;   " d=" M   977.34,   503.20  C   982.03    503.20    985.84    499.40    985.84    494.70  " /><path style="stroke-width:1.42 ;&st7;  " d=" M   951.84,   469.21  L  1002.83,   469.21  L  1002.83,   520.20  L   951.84,   520.20  L   951.84,   469.21  " /><path style="stroke-width:0.85 ;&st7;  " d=" M   977.34,   520.20  L   977.34,   503.20  " /><path style="stroke-width:0.85 ;&st7;  " d=" M   977.34,   486.20  L   977.34,   469.21  " /><text style="&st18;" transform="matrix(&st17;  965.14  505.97 )" ewd:textID="7">Back-Up</text><text style="&st18;" transform="matrix(&st16;  979.92  516.51 )">E</text><text style="&st18;" transform="matrix(&st16;  979.92  477.4 )">B/U</text><text style="&st18;" transform="matrix(&st16;  968.64  466.64 )">1</text><text style="&st18;" transform="matrix(&st16;  975.15  466.64 )">B</text><path style="stroke-width:1.42 ;&st7;   " d=" M   981.87,   464.67  C   981.87    462.17    979.84    460.14    977.34    460.14  " /><path style="stroke-width:1.42 ;&st7;   " d=" M   977.34,   460.14  C   974.83    460.14    972.80    462.17    972.80    464.67  " /><path style="stroke-width:1.42 ;&st7;   " d=" M   972.80,   464.67  C   972.80    467.18    974.83    469.21    977.34    469.21  " /><path style="stroke-width:1.42 ;&st7;   " d=" M   977.34,   469.21  C   979.84    469.21    981.87    467.18    981.87    464.67  " /><text style="&st18;" transform="matrix(&st16;  968.64  526.7 )">5</text><text style="&st18;" transform="matrix(&st16;  975.15  526.7 )">B</text><path style="stroke-width:1.42 ;&st7;   " d=" M   981.87,   524.73  C   981.87    522.23    979.84    520.20    977.34    520.20  " /><path style="stroke-width:1.42 ;&st7;   " d=" M   977.34,   520.20  C   974.83    520.20    972.80    522.23    972.80    524.73  " /><path style="stroke-width:1.42 ;&st7;   " d=" M   972.80,   524.73  C   972.80    527.23    974.83    529.26    977.34    529.26  " /><path style="stroke-width:1.42 ;&st7;   " d=" M   977.34,   529.26  C   979.84    529.26    981.87    527.23    981.87    524.73  " /><g ewd:figtype="title"><text style="&st18;" transform="matrix(&st17;  1017.55  523.1 )" ewd:textID="12">Rear Combination Light Assembly LH</text><text style="&st18;" transform="matrix(&st17;  1010.73  523.1 )">T5(B)</text></g></g><g ewd:figtype="conn" ewd:figID="9" ewd:code="T11"><path style="stroke-width:1.42 ;&st7;  " d=" M   535.41,   477.71  L   535.41,   511.70  L   569.40,   511.70  L   569.40,   477.71  L   535.41,   477.71  " /><g ewd:lineID="18"><text style="&st18;" transform="matrix(&st16;  546.22  519.89 )">2</text><text style="&st18;" transform="matrix(&st16;  545.06  508.0 )">BZR-</text></g><g ewd:lineID="21"><text style="&st18;" transform="matrix(&st16;  546.22  474.02 )">1</text><text style="&st18;" transform="matrix(&st16;  545.06  485.34 )">BZR+</text></g><g ewd:figtype="title"><text style="&st18;" transform="matrix(&st17;  584.12  514.61 )" ewd:textID="9">Back Buzzer Assembly</text><text style="&st18;" transform="matrix(&st17;  577.3  514.6 )">T11</text></g></g><g ewd:figtype="w2w" ewd:figID="17" ewd:code="AI2"><path style="stroke-width:1.42 ;&st7;  " d=" M   599.15,   211.42  L   594.90,   207.17  L   590.65,   211.42  " /><path style="stroke-width:1.42 ;&st7;  " d=" M   599.15,   214.82  L   594.90,   210.57  L   590.65,   214.82  " /><text style="&st18;" transform="matrix(&st16;  579.17  203.47 )">12</text></g><g ewd:figtype="w2w" ewd:figID="18" ewd:code="CA2"><path style="stroke-width:1.42 ;&st7;  " d=" M   599.15,   143.43  L   594.90,   139.18  L   590.65,   143.43  " /><path style="stroke-width:1.42 ;&st7;  " d=" M   599.15,   146.83  L   594.90,   142.58  L   590.65,   146.83  " /><text style="&st18;" transform="matrix(&st16;  582.27  135.48 )">7</text></g><g ewd:figtype="w2w" ewd:figID="19" ewd:code="ST2"><path style="stroke-width:1.42 ;&st7;  " d=" M   650.14,   372.89  L   645.89,   368.64  L   641.64,   372.89  " /><path style="stroke-width:1.42 ;&st7;  " d=" M   650.14,   376.29  L   645.89,   372.04  L   641.64,   376.29  " /><text style="&st18;" transform="matrix(&st16;  630.16  364.94 )">11</text></g><g ewd:figtype="w2w" ewd:figID="20" ewd:code="IS1"><path style="stroke-width:1.42 ;&st7;  " d=" M   650.14,   304.90  L   645.89,   300.65  L   641.64,   304.90  " /><path style="stroke-width:1.42 ;&st7;  " d=" M   650.14,   308.30  L   645.89,   304.05  L   641.64,   308.30  " /><text style="&st18;" transform="matrix(&st16;  633.26  296.96 )">1</text></g><g ewd:figtype="w2w" ewd:figID="21" ewd:code="IC1"><path style="stroke-width:1.42 ;&st7;  " d=" M   650.14,   191.59  L   645.89,   195.84  L   641.64,   191.59  " /><path style="stroke-width:1.42 ;&st7;  " d=" M   641.64,   188.19  L   645.89,   192.44  L   650.14,   188.19  " /><text style="&st18;" transform="matrix(&st16;  633.26  203.47 )">7</text></g><g ewd:code="AI2" ewd:figID="22" ewd:comment="9" ewd:figtype="w2w"><path style="stroke-width:1.42 ;&st7;  " d=" M   718.13,   223.31  L   713.88,   219.07  L   709.63,   223.31  " /><path style="stroke-width:1.42 ;&st7;  " d=" M   718.13,   219.92  L   713.88,   215.67  L   709.63,   219.92  " /><text style="&st18;" transform="matrix(&st16;  701.25  211.97 )">2</text><g ewd:code="" ewd:figID="40" ewd:comment="9" ewd:figtype="commref"><text style="&st18;" transform="matrix(&st16;  722.91  211.97 )">(*9)</text></g></g><g ewd:code="AI6" ewd:figID="23" ewd:comment="5" ewd:figtype="w2w"><text style="&st18;" transform="matrix(&st16;  701.25  203.47 )">2</text><g ewd:code="" ewd:figID="39" ewd:comment="5" ewd:figtype="commref"><text style="&st18;" transform="matrix(&st16;  722.91  203.47 )">(*5)</text></g></g><g ewd:figtype="w2w" ewd:figID="24" ewd:code="AC3"><text style="&st18;" transform="matrix(&st16;  701.25  135.48 )">1</text><g ewd:code="" ewd:figID="42" ewd:comment="" ewd:figtype="commref"><text style="&st18;" transform="matrix(&st16;  722.91  135.48 )">(1HZ)</text></g></g><g ewd:code="AC8" ewd:figID="25" ewd:comment="3" ewd:figtype="w2w"><path style="stroke-width:1.42 ;&st7;  " d=" M   709.63,   111.70  L   713.88,   115.95  L   718.13,   111.70  " /><path style="stroke-width:1.42 ;&st7;  " d=" M   718.13,   115.10  L   713.88,   119.35  L   709.63,   115.10  " /><text style="&st18;" transform="matrix(&st16;  701.25  126.98 )">7</text><g ewd:code="" ewd:figID="41" ewd:comment="3" ewd:figtype="commref"><text style="&st18;" transform="matrix(&st16;  722.91  126.98 )">(*3)</text></g></g><g ewd:figtype="w2w" ewd:figID="26" ewd:code="TS2"><path style="stroke-width:1.42 ;&st7;  " d=" M   871.10,   358.16  L   875.35,   362.41  L   879.60,   358.16  " /><path style="stroke-width:1.42 ;&st7;  " d=" M   879.60,   361.56  L   875.35,   365.81  L   871.10,   361.56  " /><text style="&st18;" transform="matrix(&st16;  862.72  373.44 )">9</text></g><g ewd:figtype="gp" ewd:figID="27" ewd:code="TB"><path style="stroke-width:0.85 ;&st7;  " d=" M   645.89,   697.25  L   645.89,   701.50  " /><path style="stroke-width:0.85 ;&st7;  " d=" M   637.39,   701.50  L   654.39,   701.50  " /><path style="stroke-width:0.85 ;&st7;  " d=" M   641.64,   704.33  L   650.14,   704.33  " /><path style="stroke-width:0.85 ;&st7;  " d=" M   643.06,   707.17  L   648.72,   707.17  " /><path style="stroke-width:0.85 ;&st7;  " d=" M   644.48,   710.00  L   647.31,   710.00  " /></g><g ewd:figtype="gp" ewd:figID="28" ewd:code="TC"><path style="stroke-width:0.85 ;&st7;  " d=" M   764.87,   697.25  L   764.87,   701.50  " /><path style="stroke-width:0.85 ;&st7;  " d=" M   756.37,   701.50  L   773.37,   701.50  " /><path style="stroke-width:0.85 ;&st7;  " d=" M   760.62,   704.33  L   769.12,   704.33  " /><path style="stroke-width:0.85 ;&st7;  " d=" M   762.04,   707.17  L   767.70,   707.17  " /><path style="stroke-width:0.85 ;&st7;  " d=" M   763.46,   710.00  L   766.29,   710.00  " /></g><g ewd:figtype="gp" ewd:figID="29" ewd:code="TA"><path style="stroke-width:0.85 ;&st7;  " d=" M   875.35,   697.25  L   875.35,   701.50  " /><path style="stroke-width:0.85 ;&st7;  " d=" M   866.85,   701.50  L   883.85,   701.50  " /><path style="stroke-width:0.85 ;&st7;  " d=" M   871.10,   704.33  L   879.60,   704.33  " /><path style="stroke-width:0.85 ;&st7;  " d=" M   872.52,   707.17  L   878.19,   707.17  " /><path style="stroke-width:0.85 ;&st7;  " d=" M   873.94,   710.00  L   876.77,   710.00  " /></g><g ewd:code="1" ewd:figID="47" ewd:comment="" ewd:figtype="comment"><text style="&st18;" transform="matrix(&st16;  769.97  63.24 )">* 1 :LHD 1GR-FE</text></g><g ewd:code="5" ewd:figID="51" ewd:comment="" ewd:figtype="comment"><text style="&st18;" transform="matrix(&st16;  769.97  88.74 )">* 5 :LHD 1HZ</text></g><g ewd:code="7" ewd:figID="53" ewd:comment="" ewd:figtype="comment"><text style="&st18;" transform="matrix(&st16;  769.97  105.74 )" ewd:textID="2">* 7 :24V Battery Type</text></g><g ewd:code="11" ewd:figID="57" ewd:comment="" ewd:figtype="comment"><text style="&st18;" transform="matrix(&st16;  769.97  139.73 )" ewd:textID="4">*11 :Except Pick-Up Body Type</text></g><g ewd:code="13" ewd:figID="62" ewd:comment="" ewd:figtype="comment"><text style="&st18;" transform="matrix(&st16;  769.97  156.73 )" ewd:textID="5">*13 :RHD 1GR-FE, 1HZ 12V Battery Type w/o Emission Control</text></g><g ewd:code="10" ewd:figID="54" ewd:comment="" ewd:figtype="comment"><text style="&st18;" transform="matrix(&st16;  769.97  131.23 )" ewd:textID="3">*10 :Pick-Up Body Type</text></g><g ewd:code="14" ewd:figID="63" ewd:comment="" ewd:figtype="comment"><text style="&st18;" transform="matrix(&st16;  769.97  165.23 )" ewd:textID="6">*14 :1HZ 12V Battery Type w/ Emission Control, <tspan x="14.16" dy="8.5">1HZ 24V Battery Type</tspan></text></g><g ewd:code="3" ewd:figID="49" ewd:comment="" ewd:figtype="comment"><text style="&st18;" transform="matrix(&st16;  769.97  71.74 )">* 3 :RHD 1GR-FE</text></g><g ewd:code="8" ewd:figID="52" ewd:comment="" ewd:figtype="comment"><text style="&st18;" transform="matrix(&st16;  769.97  114.24 )">* 8 :1VD-FTV</text></g><g ewd:code="9" ewd:figID="55" ewd:comment="" ewd:figtype="comment"><text style="&st18;" transform="matrix(&st16;  769.97  122.73 )">* 9 :RHD 1GR-FE, RHD 1HZ</text></g><g ewd:code="6" ewd:figID="50" ewd:comment="" ewd:figtype="comment"><text style="&st18;" transform="matrix(&st16;  769.97  97.24 )" ewd:textID="1">* 6 :12V Battery Type</text></g><g ewd:code="4" ewd:figID="48" ewd:comment="" ewd:figtype="comment"><text style="&st18;" transform="matrix(&st16;  769.97  80.24 )">* 4 :RHD 1GR-FE, 1HZ</text></g><g ewd:code="12" ewd:figID="56" ewd:comment="" ewd:figtype="comment"><text style="&st18;" transform="matrix(&st16;  769.97  148.23 )">*12 :1GR-FE, 1VD-FTV</text></g></svg>