<?xml version="1.0" encoding="utf-8"?>
<!DOCTYPE svg PUBLIC "-//W3C//DTD SVG 1.0//EN" "http://www.w3.org/TR/2001/REC-SVG-20010904/DTD/svg10.dtd"[
	<!ENTITY ns_flows "http://ns.adobe.com/Flows/1.0/">
	<!ENTITY ns_svg "http://www.w3.org/2000/svg">
	<!ENTITY ns_xlink "http://www.w3.org/1999/xlink">
	<!ENTITY st0 "font-size:7px;font-family:'MS-PGothic';adobe-font-script:japanese;">
	<!ENTITY st1 "font-size:6px;font-family:'ArialMT';">
	<!-- White fill  -->
	<!ENTITY st2 "fill:#FFFFFF;stroke:#000000; stroke-width:1.41;stroke-linecap:round;stroke-linejoin:round;">
	<!-- Yellow fill  -->
	<!ENTITY st3 "fill:#FFFFCC;stroke:#FFFFCC; stroke-width:0.1;stroke-linecap:round;stroke-linejoin:round;">
	<!-- Gray fill  -->
	<!ENTITY st4 "fill:#CCCCCC;stroke:#CCCCCC; stroke-width:0.1;stroke-linecap:round;stroke-linejoin:round;">
	<!-- Light-blue fill -->
	<!ENTITY st5 "fill:#CCECF4;stroke:#000000; stroke-width:1.133;stroke-linecap:round;stroke-linejoin:round;">
	<!ENTITY st6 "fill:none;stroke-linecap:butt; stroke-linejoin:round;">
	<!ENTITY st7 "fill:none;stroke:#000000;stroke-linecap:round;stroke-linejoin:round;">
	<!ENTITY st8 "enable-background:new    ;">
	<!-- Black fill -->
	<!ENTITY st9 "fill:#000000;stroke:#000000; stroke-linecap:round;stroke-linejoin:round;">
	<!-- SRS note   -->
	<!ENTITY st10 "font-size:9px;font-family:'ArialMT';">
	<!ENTITY st11 "font-size:9px;font-family:'Svg Symbol';">
	<!ENTITY st12 "font-size:6px;font-family:'Svg Symbol';">
	<!ENTITY st13 "fill:none;stroke:#ff0000;stroke-linecap:round;stroke-linejoin:round;">
	<!-- Yellow fill  -->
	<!ENTITY st14 "fill:#FFFF00;stroke:#FFFF00; stroke-width:0.1;stroke-linecap:round;stroke-linejoin:round;">
	<!ENTITY st15 "font-size:6px;font-family:'MS-PGothic';adobe-font-script:japanese;">
	<!ENTITY st16 "1.00 0.00 0.00 1.00">
	<!ENTITY st17 "0.00 -1.00 1.00 0.00">
	<!ENTITY st18 "font-size:6px;font-family:'Arial';">
	<!ENTITY st19 "font-size:9px;font-family:'Arial';">
	<!ENTITY st20 "font-size:6px;font-family:'MS-PGothic','MS PGothic';adobe-font-script:japanese;">
	<!ENTITY st21 "font-size:7px;font-family:'MS-PGothic','MS PGothic';adobe-font-script:japanese;">
	<!ATTLIST svg
		xmlns:ewd CDATA #FIXED "http://shcl.co.jp/ewd"
		xmlns:a CDATA #FIXED "http://ns.adobe.com/AdobeSVGViewerExtensions/3.0/"
		ewd:ver CDATA #IMPLIED
	>
	<!ATTLIST a
		ewd:lineID CDATA #IMPLIED
		ewd:groupID CDATA #IMPLIED
		ewd:figtype CDATA #IMPLIED
		ewd:code CDATA #IMPLIED
		ewd:figID CDATA #IMPLIED
		ewd:pinNo CDATA #IMPLIED
		ewd:comment CDATA #IMPLIED >
	<!ATTLIST g
		ewd:lineID CDATA #IMPLIED
		ewd:groupID CDATA #IMPLIED
		ewd:figtype CDATA #IMPLIED
		ewd:code CDATA #IMPLIED
		ewd:figID CDATA #IMPLIED
		ewd:pinNo CDATA #IMPLIED
		ewd:comment CDATA #IMPLIED >
	<!ATTLIST text
		ewd:textID CDATA #IMPLIED >
	<!ATTLIST title
		ewd:textID CDATA #IMPLIED >
]>
<!-- Generator: Shintec Hozumi YS   -->
<svg onload="call_execInitLoadProc_svg('system')" style="overflow:visible;  enable-background:new 0 0 1023.202 710.000" viewBox="0 0 1023.202 710.000" height="710.000" width="1023.202" xml:space="preserve" ewd:ver="2.1.2.9" xmlns="&ns_svg;" xmlns:a="http://ns.adobe.com/AdobeSVGViewerExtensions/3.0/" xmlns:ewd="http://shcl.co.jp/ewd" xmlns:xlink="&ns_xlink;">
<path style="stroke-width:1.42 ;&st7;  " d=" M   866.86,   401.22  L   875.35,   401.22  " /><path style="stroke-width:1.42 ;&st7;  " d=" M   654.39,   448.68  L   649.42,   443.71  " /><path style="stroke-width:1.42 ;&st7;  " d=" M   637.39,   455.74  L   642.36,   460.71  " /><path style="stroke-width:1.42 ;&st7;  " d=" M   649.42,   460.71  L   654.39,   455.74  " /><path style="stroke-width:1.42 ;&st7;  " d=" M   642.36,   443.71  L   637.39,   448.68  " /><path style="stroke-width:1.42 ;&st7;  " d=" M   654.39,   601.66  L   649.42,   596.69  " /><path style="stroke-width:1.42 ;&st7;  " d=" M   637.39,   608.71  L   642.36,   613.68  " /><path style="stroke-width:1.42 ;&st7;  " d=" M   649.42,   613.68  L   654.39,   608.71  " /><path style="stroke-width:1.42 ;&st7;  " d=" M   642.36,   596.69  L   637.39,   601.66  " /><path style="stroke-width:1.42 ;&st7;  " d=" M   883.85,   601.66  L   878.88,   596.69  " /><path style="stroke-width:1.42 ;&st7;  " d=" M   866.86,   608.71  L   871.82,   613.68  " /><path style="stroke-width:1.42 ;&st7;  " d=" M   878.88,   613.68  L   883.85,   608.71  " /><path style="stroke-width:1.42 ;&st7;  " d=" M   871.82,   596.69  L   866.86,   601.66  " /><path style="stroke-width:1.42 ;&st7;  " d=" M   985.84,   601.66  L   980.86,   596.69  " /><path style="stroke-width:1.42 ;&st7;  " d=" M   968.84,   608.71  L   973.81,   613.68  " /><path style="stroke-width:1.42 ;&st7;  " d=" M   980.86,   613.68  L   985.84,   608.71  " /><path style="stroke-width:1.42 ;&st7;  " d=" M   973.81,   596.69  L   968.84,   601.66  " /><path style="stroke-width:1.42 ;&st7;  " d=" M   883.85,   448.68  L   878.88,   443.71  " /><path style="stroke-width:1.42 ;&st7;  " d=" M   866.86,   455.74  L   871.82,   460.71  " /><path style="stroke-width:1.42 ;&st7;  " d=" M   878.88,   460.71  L   883.85,   455.74  " /><path style="stroke-width:1.42 ;&st7;  " d=" M   871.82,   443.71  L   866.86,   448.68  " /><path style="stroke-width:1.42 ;&st7;  " d=" M   654.39,   333.23  L   645.89,   333.23  " /><text style="&st18;" transform="matrix(&st16;  698.93  601.49 )">W-B</text><path style="stroke-width:1.42 ;&st7;  " d=" M   654.39,   180.26  L   645.89,   180.26  " /><path style="stroke-width:1.42 ;&st7;  " d=" M   730.88,   171.76  L   722.38,   171.76  " /><text style="&st18;" transform="matrix(&st17;  642.2  372.33 )">R-B</text><text style="&st18;" transform="matrix(&st17;  653.53  373.49 )">(*10)</text><text style="&st18;" transform="matrix(&st17;  642.2  431.82 )">R-B</text><text style="&st18;" transform="matrix(&st17;  653.53  432.98 )">(*10)</text><text style="&st18;" transform="matrix(&st17;  871.66  431.82 )">R-B</text><text style="&st18;" transform="matrix(&st17;  882.99  432.98 )">(*11)</text><text style="&st18;" transform="matrix(&st17;  871.66  372.33 )">R-B</text><text style="&st18;" transform="matrix(&st17;  882.99  373.49 )">(*11)</text><text style="&st18;" transform="matrix(&st17;  548.71  482.81 )">R-B</text><text style="&st18;" transform="matrix(&st17;  560.05  489.55 )">(*10 *17)</text><text style="&st18;" transform="matrix(&st17;  642.2  482.81 )">R-B</text><text style="&st18;" transform="matrix(&st17;  653.53  483.97 )">(*10)</text><text style="&st18;" transform="matrix(&st17;  761.18  482.81 )">R-B</text><text style="&st18;" transform="matrix(&st17;  772.51  483.97 )">(*10)</text><text style="&st18;" transform="matrix(&st17;  871.66  482.81 )">R-B</text><text style="&st18;" transform="matrix(&st17;  882.99  483.97 )">(*11)</text><text style="&st18;" transform="matrix(&st17;  973.64  482.81 )">R-B</text><text style="&st18;" transform="matrix(&st17;  984.97  483.97 )">(*11)</text><text style="&st18;" transform="matrix(&st17;  548.71  585.64 )">W-B</text><text style="&st18;" transform="matrix(&st17;  560.05  591.54 )">(*10 *17)</text><text style="&st18;" transform="matrix(&st17;  642.2  585.64 )">W-B</text><text style="&st18;" transform="matrix(&st17;  653.53  585.95 )">(*10)</text><text style="&st18;" transform="matrix(&st17;  761.18  585.64 )">W-B</text><text style="&st18;" transform="matrix(&st17;  772.51  585.95 )">(*10)</text><text style="&st18;" transform="matrix(&st17;  871.66  585.64 )">W-B</text><text style="&st18;" transform="matrix(&st17;  882.99  585.95 )">(*11)</text><text style="&st18;" transform="matrix(&st17;  973.64  585.64 )">W-B</text><text style="&st18;" transform="matrix(&st17;  984.97  585.95 )">(*11)</text><text style="&st18;" transform="matrix(&st17;  642.2  653.63 )">W-B</text><text style="&st18;" transform="matrix(&st17;  653.53  653.94 )">(*10)</text><text style="&st18;" transform="matrix(&st17;  871.66  645.13 )">W-B</text><text style="&st18;" transform="matrix(&st17;  882.99  645.44 )">(*11)</text><text style="&st18;" transform="matrix(&st17;  973.64  645.13 )">W-B</text><text style="&st18;" transform="matrix(&st17;  984.97  645.44 )">(*11)</text><text style="&st18;" transform="matrix(&st16;  698.62  612.82 )">(*10)</text><path style="stroke-width:1.42 ;&st7;  " d=" M   654.39,   401.22  L   645.89,   401.22  " /><path style="stroke-width:1.42 ;&st7;  " d=" M   586.40,   171.76  L   594.90,   171.76  " /><text style="&st18;" transform="matrix(&st17;  718.68  223.6 )">R-B</text><text style="&st18;" transform="matrix(&st17;  730.02  230.39 )">(RHD *6)</text><text style="&st18;" transform="matrix(&st17;  642.2  215.1 )">R-B</text><text style="&st18;" transform="matrix(&st17;  653.53  220.3 )">(*5,*18)</text><text style="&st18;" transform="matrix(&st17;  591.21  215.1 )">R-B</text><text style="&st18;" transform="matrix(&st17;  602.54  214.71 )">(*1)</text><text style="&st18;" transform="matrix(&st17;  795.17  100.37 )">R-B</text><text style="&st18;" transform="matrix(&st17;  806.5  107.16 )">(RHD *8)</text><text style="&st18;" transform="matrix(&st17;  642.2  142.86 )">R-B</text><text style="&st18;" transform="matrix(&st17;  653.53  142.48 )">(*5)</text><text style="&st18;" transform="matrix(&st17;  642.2  295.84 )">R-B</text><text style="&st18;" transform="matrix(&st17;  653.53  298.55 )">(LHD)</text><text style="&st18;" transform="matrix(&st17;  718.68  295.84 )">R-B</text><text style="&st18;" transform="matrix(&st17;  730.02  302.62 )">(RHD *6)</text><text style="&st18;" transform="matrix(&st16;  546.81  134.07 )">R-B</text><text style="&st18;" transform="matrix(&st16;  547.2  145.4 )">(*1)</text><text style="&st18;" transform="matrix(&st16;  546.81  108.57 )">R-B</text><text style="&st18;" transform="matrix(&st16;  547.2  119.9 )">(*5)</text><text style="&st18;" transform="matrix(&st16;  546.81  83.07 )">R-B</text><text style="&st18;" transform="matrix(&st16;  530.41  94.41 )">(*3,RHD *16 *6)</text><text style="&st18;" transform="matrix(&st16;  546.81  32.08 )">R-B</text><text style="&st18;" transform="matrix(&st16;  540.02  43.41 )">(RHD *8)</text><text style="&st18;" transform="matrix(&st16;  545.64  68.91 )">(*18)</text><text style="&st18;" transform="matrix(&st16;  546.81  57.58 )">R-B</text><text style="&st18;" transform="matrix(&st17;  730.02  125.27 )">(*3,RHD *16 *6)</text><text style="&st18;" transform="matrix(&st17;  718.68  108.87 )">R-B</text><g ewd:figtype="conn" ewd:figID="1" ewd:code="T17"><path style="stroke-width:0.85 ;&st7;  " d=" M   764.87,   520.20  L   764.87,   524.45  " /><path style="stroke-width:0.85 ;&st7;  " d=" M   764.87,   532.95  L   764.87,   537.20  " /><path style="stroke-width:0.85 ;&st7;   " d=" M   764.87,   532.95  C   766.43    532.96    767.70    531.70    767.71    530.15  " /><path style="stroke-width:0.85 ;&st7;   " d=" M   767.71,   530.15  C   767.71    528.59    766.46    527.32    764.91    527.31  " /><path style="stroke-width:0.85 ;&st7;   " d=" M   764.91,   527.31  C   763.87    527.31    762.99    527.81    762.47    528.70  " /><path style="stroke-width:0.85 ;&st7;   " d=" M   762.46,   528.70  C   763.26    530.04    764.98    530.48    766.32    529.69  " /><path style="stroke-width:0.85 ;&st7;   " d=" M   766.32,   529.69  C   767.66    528.90    768.11    527.17    767.31    525.83  " /><path style="stroke-width:0.85 ;&st7;   " d=" M   767.31,   525.83  C   766.79    524.94    765.91    524.44    764.87    524.45  " /><path style="stroke-width:1.42 ;&st7;   " d=" M   773.37,   528.70  C   773.37    524.00    769.57    520.20    764.87    520.20  " /><path style="stroke-width:1.42 ;&st7;   " d=" M   764.87,   520.20  C   760.18    520.20    756.37    524.00    756.37    528.70  " /><path style="stroke-width:1.42 ;&st7;   " d=" M   756.37,   528.70  C   756.37    533.39    760.18    537.20    764.87    537.20  " /><path style="stroke-width:1.42 ;&st7;   " d=" M   764.87,   537.20  C   769.57    537.20    773.37    533.39    773.37    528.70  " /><path style="stroke-width:1.42 ;&st7;  " d=" M   739.38,   503.20  L   790.37,   503.20  L   790.37,   554.19  L   739.38,   554.19  L   739.38,   503.20  " /><path style="stroke-width:0.85 ;&st7;  " d=" M   764.87,   554.19  L   764.87,   537.20  " /><path style="stroke-width:0.85 ;&st7;  " d=" M   764.87,   520.20  L   764.87,   503.20  " /><text style="&st18;" transform="matrix(&st17;  752.68  539.96 )" ewd:textID="8">Back-Up</text><text style="&st18;" transform="matrix(&st16;  767.46  550.5 )">E</text><text style="&st18;" transform="matrix(&st16;  767.46  511.39 )">B/U</text><text style="&st18;" transform="matrix(&st16;  756.18  500.64 )">4</text><path style="stroke-width:1.42 ;&st7;   " d=" M   769.40,   498.67  C   769.40    496.17    767.38    494.14    764.87    494.14  " /><path style="stroke-width:1.42 ;&st7;   " d=" M   764.87,   494.14  C   762.37    494.14    760.34    496.17    760.34    498.67  " /><path style="stroke-width:1.42 ;&st7;   " d=" M   760.34,   498.67  C   760.34    501.17    762.37    503.20    764.87    503.20  " /><path style="stroke-width:1.42 ;&st7;   " d=" M   764.87,   503.20  C   767.38    503.20    769.40    501.17    769.40    498.67  " /><text style="&st18;" transform="matrix(&st16;  762.57  500.64 )">A</text><text style="&st18;" transform="matrix(&st16;  756.18  560.69 )">2</text><path style="stroke-width:1.42 ;&st7;   " d=" M   769.40,   558.73  C   769.40    556.22    767.38    554.19    764.87    554.19  " /><path style="stroke-width:1.42 ;&st7;   " d=" M   764.87,   554.19  C   762.37    554.19    760.34    556.22    760.34    558.73  " /><path style="stroke-width:1.42 ;&st7;   " d=" M   760.34,   558.73  C   760.34    561.23    762.37    563.26    764.87    563.26  " /><path style="stroke-width:1.42 ;&st7;   " d=" M   764.87,   563.26  C   767.38    563.26    769.40    561.23    769.40    558.73  " /><text style="&st18;" transform="matrix(&st16;  762.57  560.69 )">A</text><g ewd:figtype="title"><text style="&st18;" transform="matrix(&st17;  805.09  557.1 )" ewd:textID="15">Rear Combination Light Assembly LH</text><text style="&st18;" transform="matrix(&st17;  798.26  557.09 )">T17(A)</text></g></g><g ewd:figtype="conn" ewd:figID="2" ewd:code="T1"><path style="stroke-width:0.85 ;&st7;  " d=" M   875.35,   520.20  L   875.35,   524.45  " /><path style="stroke-width:0.85 ;&st7;  " d=" M   875.35,   532.95  L   875.35,   537.20  " /><path style="stroke-width:0.85 ;&st7;   " d=" M   875.35,   532.95  C   876.91    532.96    878.18    531.70    878.19    530.15  " /><path style="stroke-width:0.85 ;&st7;   " d=" M   878.19,   530.15  C   878.20    528.59    876.94    527.32    875.39    527.31  " /><path style="stroke-width:0.85 ;&st7;   " d=" M   875.39,   527.31  C   874.36    527.31    873.47    527.81    872.95    528.70  " /><path style="stroke-width:0.85 ;&st7;   " d=" M   872.95,   528.70  C   873.74    530.04    875.46    530.48    876.80    529.69  " /><path style="stroke-width:0.85 ;&st7;   " d=" M   876.80,   529.69  C   878.14    528.90    878.59    527.17    877.80    525.83  " /><path style="stroke-width:0.85 ;&st7;   " d=" M   877.80,   525.83  C   877.27    524.94    876.39    524.44    875.35    524.45  " /><path style="stroke-width:1.42 ;&st7;   " d=" M   883.85,   528.70  C   883.85    524.00    880.05    520.20    875.35    520.20  " /><path style="stroke-width:1.42 ;&st7;   " d=" M   875.35,   520.20  C   870.66    520.20    866.86    524.00    866.86    528.70  " /><path style="stroke-width:1.42 ;&st7;   " d=" M   866.86,   528.70  C   866.86    533.39    870.66    537.20    875.35    537.20  " /><path style="stroke-width:1.42 ;&st7;   " d=" M   875.35,   537.20  C   880.05    537.20    883.85    533.39    883.85    528.70  " /><path style="stroke-width:1.42 ;&st7;  " d=" M   849.86,   503.20  L   900.85,   503.20  L   900.85,   554.19  L   849.86,   554.19  L   849.86,   503.20  " /><path style="stroke-width:0.85 ;&st7;  " d=" M   875.35,   503.20  L   875.35,   520.20  " /><path style="stroke-width:0.85 ;&st7;  " d=" M   875.35,   537.20  L   875.35,   554.19  " /><text style="&st18;" transform="matrix(&st17;  863.16  539.96 )" ewd:textID="8">Back-Up</text><text style="&st18;" transform="matrix(&st16;  877.94  550.5 )">E</text><text style="&st18;" transform="matrix(&st16;  877.94  511.39 )">B/U</text><text style="&st18;" transform="matrix(&st16;  866.66  560.69 )">5</text><path style="stroke-width:1.42 ;&st7;   " d=" M   879.89,   558.73  C   879.89    556.22    877.86    554.19    875.35    554.19  " /><path style="stroke-width:1.42 ;&st7;   " d=" M   875.35,   554.19  C   872.85    554.19    870.82    556.22    870.82    558.73  " /><path style="stroke-width:1.42 ;&st7;   " d=" M   870.82,   558.73  C   870.82    561.23    872.85    563.26    875.35    563.26  " /><path style="stroke-width:1.42 ;&st7;   " d=" M   875.35,   563.26  C   877.86    563.26    879.89    561.23    879.89    558.73  " /><text style="&st18;" transform="matrix(&st16;  873.17  560.69 )">B</text><text style="&st18;" transform="matrix(&st16;  866.66  500.64 )">1</text><path style="stroke-width:1.42 ;&st7;   " d=" M   879.89,   498.67  C   879.89    496.17    877.86    494.14    875.35    494.14  " /><path style="stroke-width:1.42 ;&st7;   " d=" M   875.35,   494.14  C   872.85    494.14    870.82    496.17    870.82    498.67  " /><path style="stroke-width:1.42 ;&st7;   " d=" M   870.82,   498.67  C   870.82    501.17    872.85    503.20    875.35    503.20  " /><path style="stroke-width:1.42 ;&st7;   " d=" M   875.35,   503.20  C   877.86    503.20    879.89    501.17    879.89    498.67  " /><text style="&st18;" transform="matrix(&st16;  873.17  500.64 )">B</text><g ewd:figtype="title"><text style="&st18;" transform="matrix(&st17;  915.57  557.1 )" ewd:textID="16">Rear Combination <tspan x="0 " dy="6.0">Light Assembly RH</tspan></text><text style="&st18;" transform="matrix(&st17;  908.74  557.09 )">T1(B)</text></g></g><g ewd:figtype="conn" ewd:figID="3" ewd:code="T14"><path style="stroke-width:0.85 ;&st7;  " d=" M   645.89,   532.95  L   645.89,   537.20  " /><path style="stroke-width:0.85 ;&st7;  " d=" M   645.89,   520.20  L   645.89,   524.45  " /><path style="stroke-width:1.42 ;&st7;   " d=" M   654.39,   528.70  C   654.39    524.00    650.59    520.20    645.89    520.20  " /><path style="stroke-width:1.42 ;&st7;   " d=" M   645.89,   520.20  C   641.20    520.20    637.39    524.00    637.39    528.70  " /><path style="stroke-width:1.42 ;&st7;   " d=" M   637.39,   528.70  C   637.39    533.39    641.20    537.20    645.89    537.20  " /><path style="stroke-width:1.42 ;&st7;   " d=" M   645.89,   537.20  C   650.59    537.20    654.39    533.39    654.39    528.70  " /><path style="stroke-width:0.85 ;&st7;   " d=" M   643.48,   528.70  C   644.28    530.04    646.00    530.48    647.34    529.69  " /><path style="stroke-width:0.85 ;&st7;   " d=" M   647.34,   529.69  C   648.68    528.90    649.13    527.17    648.33    525.83  " /><path style="stroke-width:0.85 ;&st7;   " d=" M   648.33,   525.83  C   647.81    524.94    646.93    524.44    645.89    524.45  " /><path style="stroke-width:0.85 ;&st7;   " d=" M   645.89,   532.95  C   647.45    532.96    648.72    531.70    648.72    530.15  " /><path style="stroke-width:0.85 ;&st7;   " d=" M   648.72,   530.15  C   648.73    528.59    647.48    527.32    645.93    527.31  " /><path style="stroke-width:0.85 ;&st7;   " d=" M   645.93,   527.31  C   644.89    527.31    644.01    527.81    643.49    528.70  " /><path style="stroke-width:1.42 ;&st7;  " d=" M   620.40,   503.20  L   671.39,   503.20  L   671.39,   554.19  L   620.40,   554.19  L   620.40,   503.20  " /><path style="stroke-width:0.85 ;&st7;  " d=" M   645.89,   503.20  L   645.89,   520.20  " /><path style="stroke-width:0.85 ;&st7;  " d=" M   645.89,   537.20  L   645.89,   554.19  " /><text style="&st18;" transform="matrix(&st17;  633.7  539.96 )" ewd:textID="8">Back-Up</text><text style="&st18;" transform="matrix(&st16;  648.48  550.5 )">E</text><text style="&st18;" transform="matrix(&st16;  648.48  511.39 )">B/U</text><text style="&st18;" transform="matrix(&st16;  637.2  560.69 )">2</text><path style="stroke-width:1.42 ;&st7;   " d=" M   650.42,   558.73  C   650.42    556.22    648.40    554.19    645.89    554.19  " /><path style="stroke-width:1.42 ;&st7;   " d=" M   645.89,   554.19  C   643.39    554.19    641.36    556.22    641.36    558.73  " /><path style="stroke-width:1.42 ;&st7;   " d=" M   641.36,   558.73  C   641.36    561.23    643.39    563.26    645.89    563.26  " /><path style="stroke-width:1.42 ;&st7;   " d=" M   645.89,   563.26  C   648.40    563.26    650.42    561.23    650.42    558.73  " /><text style="&st18;" transform="matrix(&st16;  643.59  560.69 )">A</text><text style="&st18;" transform="matrix(&st16;  637.2  500.64 )">4</text><path style="stroke-width:1.42 ;&st7;   " d=" M   650.42,   498.67  C   650.42    496.17    648.40    494.14    645.89    494.14  " /><path style="stroke-width:1.42 ;&st7;   " d=" M   645.89,   494.14  C   643.39    494.14    641.36    496.17    641.36    498.67  " /><path style="stroke-width:1.42 ;&st7;   " d=" M   641.36,   498.67  C   641.36    501.17    643.39    503.20    645.89    503.20  " /><path style="stroke-width:1.42 ;&st7;   " d=" M   645.89,   503.20  C   648.40    503.20    650.42    501.17    650.42    498.67  " /><text style="&st18;" transform="matrix(&st16;  643.59  500.64 )">A</text><g ewd:figtype="title"><text style="&st18;" transform="matrix(&st17;  686.11  557.1 )" ewd:textID="16">Rear Combination <tspan x="0 " dy="6.0">Light Assembly RH</tspan></text><text style="&st18;" transform="matrix(&st17;  679.28  557.09 )">T14(A)</text></g></g><g ewd:figtype="conn" ewd:figID="4" ewd:code="T5"><path style="stroke-width:0.85 ;&st7;  " d=" M   977.34,   520.20  L   977.34,   524.45  " /><path style="stroke-width:0.85 ;&st7;  " d=" M   977.34,   532.95  L   977.34,   537.20  " /><path style="stroke-width:0.85 ;&st7;   " d=" M   977.34,   532.95  C   978.89    532.96    980.16    531.70    980.17    530.15  " /><path style="stroke-width:0.85 ;&st7;   " d=" M   980.17,   530.15  C   980.18    528.59    978.93    527.32    977.37    527.31  " /><path style="stroke-width:0.85 ;&st7;   " d=" M   977.37,   527.31  C   976.34    527.31    975.46    527.81    974.93    528.70  " /><path style="stroke-width:0.85 ;&st7;   " d=" M   974.93,   528.70  C   975.72    530.04    977.45    530.48    978.79    529.69  " /><path style="stroke-width:0.85 ;&st7;   " d=" M   978.79,   529.69  C   980.13    528.90    980.57    527.17    979.78    525.83  " /><path style="stroke-width:0.85 ;&st7;   " d=" M   979.78,   525.83  C   979.25    524.94    978.37    524.44    977.34    524.45  " /><path style="stroke-width:1.42 ;&st7;   " d=" M   985.84,   528.70  C   985.84    524.00    982.03    520.20    977.34    520.20  " /><path style="stroke-width:1.42 ;&st7;   " d=" M   977.34,   520.20  C   972.64    520.20    968.84    524.00    968.84    528.70  " /><path style="stroke-width:1.42 ;&st7;   " d=" M   968.84,   528.70  C   968.84    533.39    972.64    537.20    977.34    537.20  " /><path style="stroke-width:1.42 ;&st7;   " d=" M   977.34,   537.20  C   982.03    537.20    985.84    533.39    985.84    528.70  " /><path style="stroke-width:1.42 ;&st7;  " d=" M   951.84,   503.20  L  1002.83,   503.20  L  1002.83,   554.19  L   951.84,   554.19  L   951.84,   503.20  " /><path style="stroke-width:0.85 ;&st7;  " d=" M   977.34,   554.19  L   977.34,   537.20  " /><path style="stroke-width:0.85 ;&st7;  " d=" M   977.34,   520.20  L   977.34,   503.20  " /><text style="&st18;" transform="matrix(&st17;  965.14  539.96 )" ewd:textID="8">Back-Up</text><text style="&st18;" transform="matrix(&st16;  979.92  550.5 )">E</text><text style="&st18;" transform="matrix(&st16;  979.92  511.39 )">B/U</text><text style="&st18;" transform="matrix(&st16;  968.64  500.64 )">1</text><text style="&st18;" transform="matrix(&st16;  975.15  500.64 )">B</text><path style="stroke-width:1.42 ;&st7;   " d=" M   981.87,   498.67  C   981.87    496.17    979.84    494.14    977.34    494.14  " /><path style="stroke-width:1.42 ;&st7;   " d=" M   977.34,   494.14  C   974.83    494.14    972.80    496.17    972.80    498.67  " /><path style="stroke-width:1.42 ;&st7;   " d=" M   972.80,   498.67  C   972.80    501.17    974.83    503.20    977.34    503.20  " /><path style="stroke-width:1.42 ;&st7;   " d=" M   977.34,   503.20  C   979.84    503.20    981.87    501.17    981.87    498.67  " /><text style="&st18;" transform="matrix(&st16;  968.64  560.69 )">5</text><text style="&st18;" transform="matrix(&st16;  975.15  560.69 )">B</text><path style="stroke-width:1.42 ;&st7;   " d=" M   981.87,   558.73  C   981.87    556.22    979.84    554.19    977.34    554.19  " /><path style="stroke-width:1.42 ;&st7;   " d=" M   977.34,   554.19  C   974.83    554.19    972.80    556.22    972.80    558.73  " /><path style="stroke-width:1.42 ;&st7;   " d=" M   972.80,   558.73  C   972.80    561.23    974.83    563.26    977.34    563.26  " /><path style="stroke-width:1.42 ;&st7;   " d=" M   977.34,   563.26  C   979.84    563.26    981.87    561.23    981.87    558.73  " /><g ewd:figtype="title"><text style="&st18;" transform="matrix(&st17;  1017.55  557.1 )" ewd:textID="15">Rear Combination Light Assembly LH</text><text style="&st18;" transform="matrix(&st17;  1010.73  557.09 )">T5(B)</text></g></g><g ewd:figtype="conn" ewd:figID="9" ewd:code="T11"><path style="stroke-width:1.42 ;&st7;  " d=" M   535.41,   511.70  L   535.41,   545.69  L   569.40,   545.69  L   569.40,   511.70  L   535.41,   511.70  " /><g ewd:lineID="21"><text style="&st18;" transform="matrix(&st16;  546.22  553.89 )">2</text><text style="&st18;" transform="matrix(&st16;  545.06  542.0 )">BZR-</text></g><g ewd:lineID="24"><text style="&st18;" transform="matrix(&st16;  546.22  508.01 )">1</text><text style="&st18;" transform="matrix(&st16;  545.06  519.33 )">BZR+</text></g><g ewd:figtype="title"><text style="&st18;" transform="matrix(&st17;  584.12  548.6 )" ewd:textID="10">Back Buzzer Assembly</text><text style="&st18;" transform="matrix(&st17;  577.3  548.59 )">T11</text></g></g><g ewd:figtype="conn" ewd:figID="10" ewd:code="I108"><path style="stroke-width:0.85 ;&st7;  " d=" M   722.38,   265.24  L   722.38,   248.24  " /><path style="stroke-width:1.42 ;&st7;  " d=" M   713.88,   248.24  L   713.88,   265.24  L   730.88,   265.24  L   730.88,   248.24  L   713.88,   248.24  " /><text style="&st18;" transform="matrix(&st16;  713.69  271.74 )">8</text><text style="&st18;" transform="matrix(&st16;  720.07  271.74 )">A</text><path style="stroke-width:1.42 ;&st7;   " d=" M   726.91,   269.77  C   726.91    267.27    724.88    265.24    722.38    265.24  " /><path style="stroke-width:1.42 ;&st7;   " d=" M   722.38,   265.24  C   719.88    265.24    717.85    267.27    717.85    269.77  " /><path style="stroke-width:1.42 ;&st7;   " d=" M   717.85,   269.77  C   717.85    272.28    719.88    274.31    722.38    274.31  " /><path style="stroke-width:1.42 ;&st7;   " d=" M   722.38,   274.31  C   724.88    274.31    726.91    272.28    726.91    269.77  " /><text style="&st18;" transform="matrix(&st16;  713.69  245.68 )">7</text><text style="&st18;" transform="matrix(&st16;  720.07  245.68 )">A</text><path style="stroke-width:1.42 ;&st7;   " d=" M   726.91,   243.71  C   726.91    241.21    724.88    239.18    722.38    239.18  " /><path style="stroke-width:1.42 ;&st7;   " d=" M   722.38,   239.18  C   719.88    239.18    717.85    241.21    717.85    243.71  " /><path style="stroke-width:1.42 ;&st7;   " d=" M   717.85,   243.71  C   717.85    246.21    719.88    248.24    722.38    248.24  " /><path style="stroke-width:1.42 ;&st7;   " d=" M   722.38,   248.24  C   724.88    248.24    726.91    246.21    726.91    243.71  " /><g ewd:figtype="title"><text style="&st18;" transform="matrix(&st17;  745.6  268.15 )" ewd:textID="13">No. 13 Junction <tspan x="0 " dy="6.0">Connector</tspan></text><text style="&st18;" transform="matrix(&st17;  738.77  268.14 )">I108(A)</text></g></g><g ewd:figtype="conn" ewd:figID="11" ewd:code="I97"><path style="stroke-width:0.85 ;&st7;  " d=" M   645.89,   256.74  L   645.89,   239.75  " /><path style="stroke-width:1.42 ;&st7;  " d=" M   637.39,   239.75  L   637.39,   256.74  L   654.39,   256.74  L   654.39,   239.75  L   637.39,   239.75  " /><text style="&st18;" transform="matrix(&st16;  639.71  236.06 )">2</text><text style="&st18;" transform="matrix(&st16;  639.71  264.94 )">1</text><g ewd:figtype="title"><text style="&st18;" transform="matrix(&st17;  662.28  259.64 )">I97</text><text style="&st18;" transform="matrix(&st17;  669.11  259.65 )" ewd:textID="14">No. 32 Junction <tspan x="0 " dy="6.0">Connector</tspan></text></g></g><g ewd:figtype="w2w" ewd:figID="22" ewd:code="IC1"><text style="&st18;" transform="matrix(&st16;  582.27  177.98 )">7</text><path style="stroke-width:1.42 ;&st7;  " d=" M   599.15,   166.09  L   594.90,   170.34  L   590.65,   166.09  " /><path style="stroke-width:1.42 ;&st7;  " d=" M   590.65,   162.69  L   594.90,   166.94  L   599.15,   162.69  " /></g><g ewd:figtype="w2w" ewd:figID="23" ewd:code="ST2"><path style="stroke-width:1.42 ;&st7;  " d=" M   650.14,   406.88  L   645.89,   402.63  L   641.64,   406.88  " /><path style="stroke-width:1.42 ;&st7;  " d=" M   650.14,   410.28  L   645.89,   406.03  L   641.64,   410.28  " /><text style="&st18;" transform="matrix(&st16;  630.16  398.94 )">11</text></g><g ewd:figtype="w2w" ewd:figID="24" ewd:code="IS3"><path style="stroke-width:1.42 ;&st7;  " d=" M   650.14,   338.90  L   645.89,   334.65  L   641.64,   338.90  " /><path style="stroke-width:1.42 ;&st7;  " d=" M   650.14,   342.29  L   645.89,   338.05  L   641.64,   342.29  " /><text style="&st18;" transform="matrix(&st16;  633.26  330.95 )">1</text></g><g ewd:figtype="w2w" ewd:figID="25" ewd:code="AI7"><text style="&st18;" transform="matrix(&st16;  633.26  177.98 )">2</text><path style="stroke-width:1.42 ;&st7;  " d=" M   650.14,   185.92  L   645.89,   181.67  L   641.64,   185.92  " /><path style="stroke-width:1.42 ;&st7;  " d=" M   650.14,   189.32  L   645.89,   185.07  L   641.64,   189.32  " /></g><g ewd:code="AI2" ewd:figID="26" ewd:comment="8" ewd:figtype="w2w"><text style="&st18;" transform="matrix(&st16;  706.65  169.48 )">12</text><path style="stroke-width:1.42 ;&st7;  " d=" M   726.63,   180.82  L   722.38,   176.57  L   718.13,   180.82  " /><path style="stroke-width:1.42 ;&st7;  " d=" M   726.63,   177.42  L   722.38,   173.17  L   718.13,   177.42  " /><g ewd:code="" ewd:figID="43" ewd:comment="8" ewd:figtype="commref"><text style="&st18;" transform="matrix(&st16;  731.41  169.48 )">(*8)</text></g></g><g ewd:code="AI2" ewd:figID="27" ewd:comment="3,6,16" ewd:figtype="w2w"><text style="&st18;" transform="matrix(&st16;  709.75  160.98 )">2</text><g ewd:code="" ewd:figID="42" ewd:comment="3,16,6" ewd:figtype="commref"><text style="&st18;" transform="matrix(&st16;  731.41  160.98 )">(*3,RHD *16 *6)</text></g></g><g ewd:figtype="w2w" ewd:figID="28" ewd:code="TS2"><path style="stroke-width:1.42 ;&st7;  " d=" M   871.10,   392.15  L   875.35,   396.40  L   879.60,   392.15  " /><path style="stroke-width:1.42 ;&st7;  " d=" M   879.60,   395.55  L   875.35,   399.80  L   871.10,   395.55  " /><text style="&st18;" transform="matrix(&st16;  862.72  407.44 )">9</text></g><g ewd:figtype="gp" ewd:figID="29" ewd:code="TB"><path style="stroke-width:0.85 ;&st7;  " d=" M   645.89,   697.25  L   645.89,   701.50  " /><path style="stroke-width:0.85 ;&st7;  " d=" M   637.39,   701.50  L   654.39,   701.50  " /><path style="stroke-width:0.85 ;&st7;  " d=" M   641.64,   704.33  L   650.14,   704.33  " /><path style="stroke-width:0.85 ;&st7;  " d=" M   643.06,   707.17  L   648.72,   707.17  " /><path style="stroke-width:0.85 ;&st7;  " d=" M   644.48,   710.00  L   647.31,   710.00  " /></g><g ewd:figtype="gp" ewd:figID="30" ewd:code="TC"><path style="stroke-width:0.85 ;&st7;  " d=" M   764.87,   697.25  L   764.87,   701.50  " /><path style="stroke-width:0.85 ;&st7;  " d=" M   756.37,   701.50  L   773.37,   701.50  " /><path style="stroke-width:0.85 ;&st7;  " d=" M   760.62,   704.33  L   769.12,   704.33  " /><path style="stroke-width:0.85 ;&st7;  " d=" M   762.04,   707.17  L   767.70,   707.17  " /><path style="stroke-width:0.85 ;&st7;  " d=" M   763.46,   710.00  L   766.29,   710.00  " /></g><g ewd:figtype="gp" ewd:figID="31" ewd:code="TA"><path style="stroke-width:0.85 ;&st7;  " d=" M   875.35,   697.25  L   875.35,   701.50  " /><path style="stroke-width:0.85 ;&st7;  " d=" M   866.85,   701.50  L   883.85,   701.50  " /><path style="stroke-width:0.85 ;&st7;  " d=" M   871.10,   704.33  L   879.60,   704.33  " /><path style="stroke-width:0.85 ;&st7;  " d=" M   872.52,   707.17  L   878.19,   707.17  " /><path style="stroke-width:0.85 ;&st7;  " d=" M   873.94,   710.00  L   876.77,   710.00  " /></g><g ewd:code="1" ewd:figID="48" ewd:comment="" ewd:figtype="comment"><text style="&st18;" transform="matrix(&st16;  829.46  97.24 )">* 1 :LHD 1GR-FE</text></g><g ewd:code="3" ewd:figID="50" ewd:comment="" ewd:figtype="comment"><text style="&st18;" transform="matrix(&st16;  829.46  105.74 )">* 3 :RHD 1GR-FE</text></g><g ewd:code="17" ewd:figID="71" ewd:comment="" ewd:figtype="comment"><text style="&st18;" transform="matrix(&st16;  829.46  233.22 )" ewd:textID="7">*17 :w/ Back Buzzer</text></g><g ewd:code="11" ewd:figID="58" ewd:comment="" ewd:figtype="comment"><text style="&st18;" transform="matrix(&st16;  829.46  173.73 )" ewd:textID="4">*11 :Except Pick-Up Body Type</text></g><g ewd:code="18" ewd:figID="70" ewd:comment="" ewd:figtype="comment"><text style="&st18;" transform="matrix(&st16;  829.46  241.71 )">*18 :LHD 1VD-FTV</text></g><g ewd:code="6" ewd:figID="51" ewd:comment="" ewd:figtype="comment"><text style="&st18;" transform="matrix(&st16;  829.46  131.23 )" ewd:textID="1">* 6 :12V Battery Type</text></g><g ewd:code="12" ewd:figID="57" ewd:comment="" ewd:figtype="comment"><text style="&st18;" transform="matrix(&st16;  829.46  182.22 )">*12 :1GR-FE, 1VD-FTV</text></g><g ewd:code="13" ewd:figID="63" ewd:comment="" ewd:figtype="comment"><text style="&st18;" transform="matrix(&st16;  829.46  190.72 )" ewd:textID="5">*13 :RHD 1GR-FE, 1HZ 12V Battery Type <tspan x="14.16" dy="8.5">w/o Emission Control</tspan></text></g><g ewd:code="4" ewd:figID="49" ewd:comment="" ewd:figtype="comment"><text style="&st18;" transform="matrix(&st16;  829.46  114.24 )">* 4 :RHD 1GR-FE, 1HZ</text></g><g ewd:code="5" ewd:figID="52" ewd:comment="" ewd:figtype="comment"><text style="&st18;" transform="matrix(&st16;  829.46  122.73 )">* 5 :LHD 1HZ</text></g><g ewd:code="16" ewd:figID="69" ewd:comment="" ewd:figtype="comment"><text style="&st18;" transform="matrix(&st16;  829.46  224.72 )">*16 :1HZ</text></g><g ewd:code="10" ewd:figID="55" ewd:comment="" ewd:figtype="comment"><text style="&st18;" transform="matrix(&st16;  829.46  165.23 )" ewd:textID="3">*10 :Pick-Up Body Type</text></g><g ewd:code="14" ewd:figID="64" ewd:comment="" ewd:figtype="comment"><text style="&st18;" transform="matrix(&st16;  829.46  207.72 )" ewd:textID="6">*14 :1HZ 12V Battery Type w/ Emission Control, <tspan x="14.16" dy="8.5">1HZ 24V Battery Type</tspan></text></g><g ewd:code="8" ewd:figID="53" ewd:comment="" ewd:figtype="comment"><text style="&st18;" transform="matrix(&st16;  829.46  148.23 )">* 8 :1VD-FTV</text></g><g ewd:code="7" ewd:figID="54" ewd:comment="" ewd:figtype="comment"><text style="&st18;" transform="matrix(&st16;  829.46  139.73 )" ewd:textID="2">* 7 :24V Battery Type</text></g><g ewd:code="9" ewd:figID="56" ewd:comment="" ewd:figtype="comment"><text style="&st18;" transform="matrix(&st16;  829.46  156.73 )">* 9 :RHD 1GR-FE, RHD 1HZ</text></g></svg>