<?xml version="1.0" encoding="utf-8"?>
<!DOCTYPE svg PUBLIC "-//W3C//DTD SVG 1.0//EN" "http://www.w3.org/TR/2001/REC-SVG-20010904/DTD/svg10.dtd"[
	<!ENTITY ns_flows "http://ns.adobe.com/Flows/1.0/">
	<!ENTITY ns_svg "http://www.w3.org/2000/svg">
	<!ENTITY ns_xlink "http://www.w3.org/1999/xlink">
	<!ENTITY st0 "font-size:7px;font-family:'MS-PGothic';adobe-font-script:japanese;">
	<!ENTITY st1 "font-size:6px;font-family:'ArialMT';">
	<!-- White fill  -->
	<!ENTITY st2 "fill:#FFFFFF;stroke:#000000; stroke-width:1.41;stroke-linecap:round;stroke-linejoin:round;">
	<!-- Yellow fill  -->
	<!ENTITY st3 "fill:#FFFFCC;stroke:#FFFFCC; stroke-width:0.1;stroke-linecap:round;stroke-linejoin:round;">
	<!-- Gray fill  -->
	<!ENTITY st4 "fill:#CCCCCC;stroke:#CCCCCC; stroke-width:0.1;stroke-linecap:round;stroke-linejoin:round;">
	<!-- Light-blue fill -->
	<!ENTITY st5 "fill:#CCECF4;stroke:#000000; stroke-width:1.133;stroke-linecap:round;stroke-linejoin:round;">
	<!ENTITY st6 "fill:none;stroke-linecap:butt; stroke-linejoin:round;">
	<!ENTITY st7 "fill:none;stroke:#000000;stroke-linecap:round;stroke-linejoin:round;">
	<!ENTITY st8 "enable-background:new    ;">
	<!-- Black fill -->
	<!ENTITY st9 "fill:#000000;stroke:#000000; stroke-linecap:round;stroke-linejoin:round;">
	<!-- SRS note   -->
	<!ENTITY st10 "font-size:9px;font-family:'ArialMT';">
	<!ENTITY st11 "font-size:9px;font-family:'Svg Symbol';">
	<!ENTITY st12 "font-size:6px;font-family:'Svg Symbol';">
	<!ENTITY st13 "fill:none;stroke:#ff0000;stroke-linecap:round;stroke-linejoin:round;">
	<!-- Yellow fill  -->
	<!ENTITY st14 "fill:#FFFF00;stroke:#FFFF00; stroke-width:0.1;stroke-linecap:round;stroke-linejoin:round;">
	<!ENTITY st15 "font-size:6px;font-family:'MS-PGothic';adobe-font-script:japanese;">
	<!ENTITY st16 "1.00 0.00 0.00 1.00">
	<!ENTITY st17 "0.00 -1.00 1.00 0.00">
	<!ENTITY st18 "font-size:6px;font-family:'Arial';">
	<!ENTITY st19 "font-size:9px;font-family:'Arial';">
	<!ENTITY st20 "font-size:6px;font-family:'MS-PGothic','MS PGothic';adobe-font-script:japanese;">
	<!ENTITY st21 "font-size:7px;font-family:'MS-PGothic','MS PGothic';adobe-font-script:japanese;">
	<!ATTLIST svg
		xmlns:ewd CDATA #FIXED "http://shcl.co.jp/ewd"
		xmlns:a CDATA #FIXED "http://ns.adobe.com/AdobeSVGViewerExtensions/3.0/"
		ewd:ver CDATA #IMPLIED
	>
	<!ATTLIST a
		ewd:lineID CDATA #IMPLIED
		ewd:groupID CDATA #IMPLIED
		ewd:figtype CDATA #IMPLIED
		ewd:code CDATA #IMPLIED
		ewd:figID CDATA #IMPLIED
		ewd:pinNo CDATA #IMPLIED
		ewd:comment CDATA #IMPLIED >
	<!ATTLIST g
		ewd:lineID CDATA #IMPLIED
		ewd:groupID CDATA #IMPLIED
		ewd:figtype CDATA #IMPLIED
		ewd:code CDATA #IMPLIED
		ewd:figID CDATA #IMPLIED
		ewd:pinNo CDATA #IMPLIED
		ewd:comment CDATA #IMPLIED >
	<!ATTLIST text
		ewd:textID CDATA #IMPLIED >
	<!ATTLIST title
		ewd:textID CDATA #IMPLIED >
]>
<!-- Generator: Shintec Hozumi YS   -->
<svg onload="call_execInitLoadProc_svg('system')" style="overflow:visible;  enable-background:new 0 0 1026.912 710.000" viewBox="0 0 1026.912 710.000" height="710.000" width="1026.912" xml:space="preserve" ewd:ver="2.1.2.9" xmlns="&ns_svg;" xmlns:a="http://ns.adobe.com/AdobeSVGViewerExtensions/3.0/" xmlns:ewd="http://shcl.co.jp/ewd" xmlns:xlink="&ns_xlink;">
<path style="stroke-width:1.42 ;&st7;  " d=" M   939.81,   129.26  L   934.84,   134.24  " /><path style="stroke-width:1.42 ;&st7;  " d=" M   946.87,   146.26  L   951.84,   141.29  " /><path style="stroke-width:1.42 ;&st7;  " d=" M   934.84,   141.29  L   939.81,   146.26  " /><path style="stroke-width:1.42 ;&st7;  " d=" M   951.84,   134.24  L   946.87,   129.26  " /><path style="stroke-width:1.42 ;&st7;  " d=" M   939.81,   486.20  L   934.84,   491.18  " /><path style="stroke-width:1.42 ;&st7;  " d=" M   946.87,   503.20  L   951.84,   498.23  " /><path style="stroke-width:1.42 ;&st7;  " d=" M   934.84,   498.23  L   939.81,   503.20  " /><path style="stroke-width:1.42 ;&st7;  " d=" M   951.84,   491.18  L   946.87,   486.20  " /><text style="&st18;" transform="matrix(&st17;  973.64  672.47 )">BR</text><path style="stroke-width:1.42 ;&st7;  " d=" M   934.84,   426.71  L   943.34,   426.71  " /><path style="stroke-width:1.42 ;&st7;  " d=" M   951.84,   171.76  L   943.34,   171.76  " /><path style="stroke-width:1.42 ;&st7;  " d=" M   705.38,   163.26  L   696.88,   163.26  " /><path style="stroke-width:1.42 ;&st7;  " d=" M   764.87,   503.20  L   773.37,   503.20  " /><path style="stroke-width:1.42 ;&st7;  " d=" M   764.87,   426.71  L   773.37,   426.71  " /><path style="stroke-width:1.42 ;&st7;  " d=" M   654.39,   511.70  L   645.89,   511.70  " /><text style="&st18;" transform="matrix(&st17;  950.98  673.64 )">(*1)</text><text style="&st18;" transform="matrix(&st17;  950.98  529.16 )">(*1)</text><text style="&st18;" transform="matrix(&st17;  687.52  407.48 )">(*21)</text><text style="&st18;" transform="matrix(&st17;  781.01  405.93 )">(*6)</text><path style="stroke-width:1.42 ;&st7;  " d=" M   739.38,   511.70  L   730.88,   511.70  " /><text style="&st18;" transform="matrix(&st17;  939.65  156.37 )">R</text><text style="&st18;" transform="matrix(&st17;  676.19  402.79 )">L</text><text style="&st18;" transform="matrix(&st17;  939.65  672.47 )">BR</text><text style="&st18;" transform="matrix(&st17;  939.65  583.24 )">BR</text><text style="&st18;" transform="matrix(&st17;  939.65  404.77 )">BR</text><text style="&st18;" transform="matrix(&st17;  829.17  125.94 )">B-Y</text><text style="&st18;" transform="matrix(&st17;  939.65  118.13 )">R</text><text style="&st18;" transform="matrix(&st17;  693.19  142.94 )">B-Y</text><text style="&st18;" transform="matrix(&st17;  939.65  194.61 )">R</text><text style="&st18;" transform="matrix(&st17;  693.19  193.93 )">B-Y</text><text style="&st18;" transform="matrix(&st17;  939.65  528.0 )">BR</text><text style="&st18;" transform="matrix(&st17;  939.65  464.26 )">BR</text><path style="stroke-width:1.42 ;&st7;  " d=" M   781.87,   554.19  L   773.37,   554.19  " /><text style="&st18;" transform="matrix(&st17;  769.68  406.59 )">G-R</text><text style="&st18;" transform="matrix(&st17;  769.68  474.58 )">G-R</text><path style="stroke-width:1.42 ;&st7;  " d=" M   671.39,   426.71  L   679.89,   426.71  " /><text style="&st18;" transform="matrix(&st17;  769.68  534.07 )">G-R</text><text style="&st18;" transform="matrix(&st17;  897.15  403.18 )">G</text><path style="stroke-width:1.42 ;&st7;  " d=" M   968.84,   545.69  L   977.34,   545.69  " /><path style="stroke-width:1.42 ;&st7;  " d=" M   985.84,   613.68  L   977.34,   613.68  " /><text style="&st18;" transform="matrix(&st17;  950.98  584.4 )">(*1)</text><text style="&st18;" transform="matrix(&st17;  973.64  591.74 )">BR</text><text style="&st18;" transform="matrix(&st17;  984.97  592.9 )">(*8)</text><text style="&st18;" transform="matrix(&st17;  973.64  634.23 )">BR</text><text style="&st18;" transform="matrix(&st17;  984.97  635.39 )">(*8)</text><path style="stroke-width:1.42 ;&st7;  " d=" M   951.84,   554.19  L   943.34,   554.19  " /><path style="stroke-width:1.42 ;&st7;  " d=" M   951.84,   644.15  L   946.87,   639.18  " /><path style="stroke-width:1.42 ;&st7;  " d=" M   934.84,   651.21  L   939.81,   656.18  " /><path style="stroke-width:1.42 ;&st7;  " d=" M   946.87,   656.18  L   951.84,   651.21  " /><path style="stroke-width:1.42 ;&st7;  " d=" M   939.81,   639.18  L   934.84,   644.15  " /><text style="&st18;" transform="matrix(&st17;  984.97  673.64 )">(*8)</text><path style="stroke-width:1.42 ;&st7;  " d=" M   985.84,   644.15  L   980.86,   639.18  " /><path style="stroke-width:1.42 ;&st7;  " d=" M   968.84,   651.21  L   973.81,   656.18  " /><path style="stroke-width:1.42 ;&st7;  " d=" M   980.86,   656.18  L   985.84,   651.21  " /><path style="stroke-width:1.42 ;&st7;  " d=" M   973.81,   639.18  L   968.84,   644.15  " /><path style="stroke-width:1.42 ;&st7;  " d=" M   671.39,   494.70  L   679.89,   494.70  " /><path style="stroke-width:1.42 ;&st7;  " d=" M   688.38,   554.19  L   679.89,   554.19  " /><path style="stroke-width:1.42 ;&st7;  " d=" M   807.37,   503.20  L   815.86,   503.20  " /><path style="stroke-width:1.42 ;&st7;  " d=" M   594.90,   550.67  L   589.93,   545.69  " /><path style="stroke-width:1.42 ;&st7;  " d=" M   577.90,   557.72  L   582.87,   562.69  " /><path style="stroke-width:1.42 ;&st7;  " d=" M   589.93,   562.69  L   594.90,   557.72  " /><path style="stroke-width:1.42 ;&st7;  " d=" M   582.87,   545.69  L   577.90,   550.67  " /><text style="&st18;" transform="matrix(&st17;  594.04  674.97 )">(*6 *22)</text><text style="&st18;" transform="matrix(&st17;  582.71  668.22 )">BR</text><text style="&st18;" transform="matrix(&st17;  950.98  405.93 )">(*6)</text><text style="&st18;" transform="matrix(&st17;  950.98  465.42 )">(*6)</text><text style="&st18;" transform="matrix(&st17;  568.54  674.97 )">(*6 *23)</text><text style="&st18;" transform="matrix(&st17;  557.21  668.22 )">BR</text><text style="&st18;" transform="matrix(&st17;  653.53  479.5 )">(*6 *22)</text><text style="&st18;" transform="matrix(&st17;  642.2  470.78 )">L</text><text style="&st18;" transform="matrix(&st17;  687.52  479.5 )">(*6 *23)</text><text style="&st18;" transform="matrix(&st17;  676.19  470.78 )">L</text><text style="&st18;" transform="matrix(&st17;  823.5  477.95 )">(*6 *7)</text><text style="&st18;" transform="matrix(&st17;  812.17  474.58 )">G-R</text><text style="&st18;" transform="matrix(&st17;  738.52  479.5 )">(*6 *22)</text><text style="&st18;" transform="matrix(&st17;  727.18  474.58 )">G-R</text><text style="&st18;" transform="matrix(&st17;  738.52  555.99 )">(*6 *22)</text><text style="&st18;" transform="matrix(&st17;  727.18  551.07 )">G-R</text><text style="&st18;" transform="matrix(&st17;  823.5  571.44 )">(*6 *7)</text><text style="&st18;" transform="matrix(&st17;  812.17  568.06 )">G-R</text><text style="&st18;" transform="matrix(&st17;  653.53  555.99 )">(*6 *22)</text><text style="&st18;" transform="matrix(&st17;  642.2  547.27 )">L</text><text style="&st18;" transform="matrix(&st17;  687.52  538.99 )">(*6 *23)</text><text style="&st18;" transform="matrix(&st17;  973.64  528.0 )">BR</text><text style="&st18;" transform="matrix(&st17;  676.19  530.27 )">L</text><text style="&st18;" transform="matrix(&st17;  984.97  533.19 )">(*8,*9)</text><text style="&st18;" transform="matrix(&st16;  665.07  567.49 )">L</text><text style="&st18;" transform="matrix(&st16;  656.34  578.82 )">(*6 *23)</text><text style="&st18;" transform="matrix(&st17;  781.01  479.5 )">(*6 *23)</text><text style="&st18;" transform="matrix(&st17;  781.01  538.99 )">(*6 *23)</text><text style="&st18;" transform="matrix(&st17;  908.49  405.93 )">(*6)</text><text style="&st18;" transform="matrix(&st16;  750.5  567.49 )">G-R</text><text style="&st18;" transform="matrix(&st16;  745.58  578.82 )">(*6 *23)</text><text style="&st18;" transform="matrix(&st16;  541.45  643.98 )">G</text><text style="&st18;" transform="matrix(&st16;  538.7  655.31 )">(*6)</text><text style="&st18;" transform="matrix(&st17;  628.03  572.99 )">(*6 *21)</text><text style="&st18;" transform="matrix(&st17;  616.7  566.24 )">BR</text><text style="&st18;" transform="matrix(&st17;  704.52  193.47 )">(*6)</text><text style="&st18;" transform="matrix(&st17;  704.52  142.48 )">(*6)</text><text style="&st18;" transform="matrix(&st17;  840.5  125.48 )">(*6)</text><text style="&st18;" transform="matrix(&st17;  950.98  121.23 )">(*6)</text><text style="&st18;" transform="matrix(&st17;  950.98  159.47 )">(*6)</text><text style="&st18;" transform="matrix(&st17;  950.98  197.72 )">(*6)</text><g ewd:figtype="rb" ewd:figID="13" ewd:code="FUSE16"><path style="stroke-width:0.85 ;&st7;  " d=" M   832.86,    78.27  L   832.86,    95.27  " /><path style="stroke-width:1.42 ;&st7;  " d=" M   834.99,   103.77  L   830.74,   103.77  " /><path style="stroke-width:1.42 ;&st7;  " d=" M   834.99,    95.27  L   830.74,    95.27  " /><path style="stroke-width:1.42 ;&st7;   " d=" M   839.23,    99.52  C   839.23     97.17    837.33     95.27    834.99     95.27  " /><path style="stroke-width:1.42 ;&st7;   " d=" M   834.99,   103.77  C   837.33    103.77    839.23    101.87    839.23     99.52  " /><path style="stroke-width:1.42 ;&st7;   " d=" M   826.49,    99.52  C   826.49    101.87    828.39    103.77    830.74    103.77  " /><path style="stroke-width:1.42 ;&st7;   " d=" M   830.74,    95.27  C   828.39     95.27    826.49     97.17    826.49     99.52  " /><path style="stroke-width:0.28 ;&st9;  " d=" M   832.86,    90.37  L   830.03,    87.54  L   830.03,    91.79  L   832.86,    94.62  L   835.69,    91.79  L   835.69,    87.54  L   832.86,    90.37  " /><text style="&st18;" transform="matrix(&st16;  827.65  32.08 )">(IG)</text><text style="&st18;" transform="matrix(&st16;  826.68  86.47 )">2</text><text style="&st18;" transform="matrix(&st16;  831.06  101.49 )">2</text><text style="&st18;" transform="matrix(&st16;  849.29  56.17 )">10A <tspan x="0 " dy="6.0">MET</tspan></text><path style="stroke-width:0.85 ;&st7;  " d=" M   832.86,    69.77  L   832.86,    78.27  " /><path style="stroke-width:0.85 ;&st7;   " d=" M   834.28,    68.36  C   834.28     67.57    833.64     66.94    832.86     66.94  " /><path style="stroke-width:0.85 ;&st7;   " d=" M   832.86,    66.94  C   832.08     66.94    831.44     67.57    831.44     68.36  " /><path style="stroke-width:0.85 ;&st7;   " d=" M   831.44,    68.36  C   831.44     69.14    832.08     69.77    832.86     69.77  " /><path style="stroke-width:0.85 ;&st7;   " d=" M   832.86,    69.77  C   833.64     69.77    834.28     69.14    834.28     68.36  " /><path style="stroke-width:0.85 ;&st7;   " d=" M   834.28,    45.69  C   834.28     44.91    833.64     44.28    832.86     44.28  " /><path style="stroke-width:0.85 ;&st7;   " d=" M   832.86,    44.28  C   832.08     44.28    831.44     44.91    831.44     45.69  " /><path style="stroke-width:0.85 ;&st7;   " d=" M   831.44,    45.69  C   831.44     46.48    832.08     47.11    832.86     47.11  " /><path style="stroke-width:0.85 ;&st7;   " d=" M   832.86,    47.11  C   833.64     47.11    834.28     46.48    834.28     45.69  " /><path style="stroke-width:1.42 ;&st7;   " d=" M   832.86,    66.94  C   835.60     65.33    836.51     61.80    834.90     59.06  " /><path style="stroke-width:1.42 ;&st7;   " d=" M   834.90,    59.06  C   834.38     58.18    833.74     57.55    832.86     57.03  " /><path style="stroke-width:1.42 ;&st7;   " d=" M   832.86,    47.11  C   830.12     48.72    829.21     52.25    830.82     54.99  " /><path style="stroke-width:1.42 ;&st7;   " d=" M   830.82,    54.99  C   831.34     55.87    831.98     56.51    832.86     57.03  " /><path style="stroke-width:1.42 ;&st7;  " d=" M   820.11,    35.78  L   820.11,    78.27  L   845.61,    78.27  L   845.61,    35.78  L   820.11,    35.78  " /></g><g ewd:figtype="rb" ewd:figID="14" ewd:code="FUSE5"><path style="stroke-width:0.85 ;&st7;  " d=" M   943.34,    78.27  L   943.34,    95.27  " /><path style="stroke-width:1.42 ;&st7;  " d=" M   945.47,   103.77  L   941.22,   103.77  " /><path style="stroke-width:1.42 ;&st7;  " d=" M   945.47,    95.27  L   941.22,    95.27  " /><path style="stroke-width:1.42 ;&st7;   " d=" M   949.72,    99.52  C   949.72     97.17    947.81     95.27    945.47     95.27  " /><path style="stroke-width:1.42 ;&st7;   " d=" M   945.47,   103.77  C   947.81    103.77    949.72    101.87    949.72     99.52  " /><path style="stroke-width:1.42 ;&st7;   " d=" M   936.97,    99.52  C   936.97    101.87    938.87    103.77    941.22    103.77  " /><path style="stroke-width:1.42 ;&st7;   " d=" M   941.22,    95.27  C   938.87     95.27    936.97     97.17    936.97     99.52  " /><path style="stroke-width:0.28 ;&st9;  " d=" M   943.34,    90.37  L   940.51,    87.54  L   940.51,    91.79  L   943.34,    94.62  L   946.17,    91.79  L   946.17,    87.54  L   943.34,    90.37  " /><text style="&st18;" transform="matrix(&st16;  935.3  32.08 )">(BAT)</text><text style="&st18;" transform="matrix(&st16;  937.16  86.47 )">2</text><text style="&st18;" transform="matrix(&st16;  941.54  101.49 )">2</text><text style="&st18;" transform="matrix(&st16;  959.77  53.34 )">10A <tspan x="0 " dy="6.0">DOME </tspan><tspan x="0 " dy="6.0">NO.1</tspan></text><path style="stroke-width:0.85 ;&st7;  " d=" M   943.34,    69.77  L   943.34,    78.27  " /><path style="stroke-width:0.85 ;&st7;   " d=" M   944.76,    68.36  C   944.76     67.57    944.12     66.94    943.34     66.94  " /><path style="stroke-width:0.85 ;&st7;   " d=" M   943.34,    66.94  C   942.56     66.94    941.93     67.57    941.93     68.36  " /><path style="stroke-width:0.85 ;&st7;   " d=" M   941.93,    68.36  C   941.93     69.14    942.56     69.77    943.34     69.77  " /><path style="stroke-width:0.85 ;&st7;   " d=" M   943.34,    69.77  C   944.12     69.77    944.76     69.14    944.76     68.36  " /><path style="stroke-width:0.85 ;&st7;   " d=" M   944.76,    45.69  C   944.76     44.91    944.12     44.28    943.34     44.28  " /><path style="stroke-width:0.85 ;&st7;   " d=" M   943.34,    44.28  C   942.56     44.28    941.93     44.91    941.93     45.69  " /><path style="stroke-width:0.85 ;&st7;   " d=" M   941.93,    45.69  C   941.93     46.48    942.56     47.11    943.34     47.11  " /><path style="stroke-width:0.85 ;&st7;   " d=" M   943.34,    47.11  C   944.12     47.11    944.76     46.48    944.76     45.69  " /><path style="stroke-width:1.42 ;&st7;   " d=" M   943.34,    66.94  C   946.08     65.33    946.99     61.80    945.38     59.06  " /><path style="stroke-width:1.42 ;&st7;   " d=" M   945.38,    59.06  C   944.86     58.18    944.22     57.55    943.34     57.03  " /><path style="stroke-width:1.42 ;&st7;   " d=" M   943.34,    47.11  C   940.60     48.72    939.69     52.25    941.31     54.99  " /><path style="stroke-width:1.42 ;&st7;   " d=" M   941.31,    54.99  C   941.83     55.87    942.46     56.51    943.34     57.03  " /><path style="stroke-width:1.42 ;&st7;  " d=" M   930.59,    35.78  L   930.59,    78.27  L   956.09,    78.27  L   956.09,    35.78  L   930.59,    35.78  " /></g><g ewd:figtype="conn" ewd:figID="15" ewd:code="I58,I72"><path style="stroke-width:0.85 ;&st7;  " d=" M   781.87,   137.76  L   781.87,   154.76  " /><path style="stroke-width:1.42 ;&st7;  " d=" M   773.37,   137.76  L   790.37,   137.76  L   790.37,   154.76  L   773.37,   154.76  L   773.37,   137.76  " /><text style="&st18;" transform="matrix(&st16;  773.18  126.13 )">2</text><text style="&st18;" transform="matrix(&st16;  773.18  135.2 )">2</text><text style="&st18;" transform="matrix(&st16;  779.68  135.2 )">B</text><path style="stroke-width:1.42 ;&st7;   " d=" M   786.40,   124.16  C   786.40    121.66    784.37    119.63    781.87    119.63  " /><path style="stroke-width:1.42 ;&st7;   " d=" M   781.87,   119.63  C   779.37    119.63    777.34    121.66    777.34    124.16  " /><path style="stroke-width:1.42 ;&st7;   " d=" M   777.34,   124.16  C   777.34    126.67    779.37    128.70    781.87    128.70  " /><path style="stroke-width:1.42 ;&st7;   " d=" M   781.87,   128.70  C   784.37    128.70    786.40    126.67    786.40    124.16  " /><path style="stroke-width:1.42 ;&st7;   " d=" M   786.40,   133.23  C   786.40    130.73    784.37    128.70    781.87    128.70  " /><path style="stroke-width:1.42 ;&st7;   " d=" M   781.87,   128.70  C   779.37    128.70    777.34    130.73    777.34    133.23  " /><path style="stroke-width:1.42 ;&st7;   " d=" M   777.34,   133.23  C   777.34    135.73    779.37    137.76    781.87    137.76  " /><path style="stroke-width:1.42 ;&st7;   " d=" M   781.87,   137.76  C   784.37    137.76    786.40    135.73    786.40    133.23  " /><text style="&st18;" transform="matrix(&st16;  779.56  126.13 )">A</text><text style="&st18;" transform="matrix(&st16;  773.18  170.33 )">1</text><text style="&st18;" transform="matrix(&st16;  773.18  161.26 )">1</text><path style="stroke-width:1.42 ;&st7;   " d=" M   786.40,   159.29  C   786.40    156.79    784.37    154.76    781.87    154.76  " /><path style="stroke-width:1.42 ;&st7;   " d=" M   781.87,   154.76  C   779.37    154.76    777.34    156.79    777.34    159.29  " /><path style="stroke-width:1.42 ;&st7;   " d=" M   777.34,   159.29  C   777.34    161.80    779.37    163.82    781.87    163.82  " /><path style="stroke-width:1.42 ;&st7;   " d=" M   781.87,   163.82  C   784.37    163.82    786.40    161.80    786.40    159.29  " /><text style="&st18;" transform="matrix(&st16;  779.68  170.33 )">B</text><path style="stroke-width:1.42 ;&st7;   " d=" M   786.40,   168.36  C   786.40    165.85    784.37    163.82    781.87    163.82  " /><path style="stroke-width:1.42 ;&st7;   " d=" M   781.87,   163.82  C   779.37    163.82    777.34    165.85    777.34    168.36  " /><path style="stroke-width:1.42 ;&st7;   " d=" M   777.34,   168.36  C   777.34    170.86    779.37    172.89    781.87    172.89  " /><path style="stroke-width:1.42 ;&st7;   " d=" M   781.87,   172.89  C   784.37    172.89    786.40    170.86    786.40    168.36  " /><text style="&st18;" transform="matrix(&st16;  779.56  161.26 )">A</text><g ewd:figtype="title"><text style="&st18;" transform="matrix(&st17;  763.73  157.67 )" ewd:textID="15">No. 9 Junction <tspan x="0 " dy="6.0">Connector</tspan></text><text style="&st18;" transform="matrix(&st17;  756.9  157.66 )">I58(B)</text><text style="&st18;" transform="matrix(&st17;  736.79  157.66 )">I72(A)</text><text style="&st18;" transform="matrix(&st17;  743.61  157.67 )" ewd:textID="22">No. 21 Junction <tspan x="0 " dy="6.0">Connector</tspan></text></g><g ewd:code="" ewd:figID="100" ewd:comment="" ewd:figtype="commref"><text style="&st18;" transform="matrix(&st16;  786.96  126.13 )">(LHD)</text></g><g ewd:code="" ewd:figID="101" ewd:comment="" ewd:figtype="commref"><text style="&st18;" transform="matrix(&st16;  786.96  170.33 )">(RHD)</text></g><g ewd:code="" ewd:figID="102" ewd:comment="" ewd:figtype="commref"><text style="&st18;" transform="matrix(&st16;  786.96  161.26 )">(LHD)</text></g><g ewd:code="" ewd:figID="103" ewd:comment="" ewd:figtype="commref"><text style="&st18;" transform="matrix(&st16;  786.96  135.2 )">(RHD)</text></g></g><g ewd:figtype="conn" ewd:figID="16" ewd:code="L33,L36"><path style="stroke-width:1.42 ;&st7;  " d=" M   892.35,   605.18  L   909.35,   605.18  L   909.35,   588.19  L   892.35,   588.19  L   892.35,   605.18  " /><path style="stroke-width:0.85 ;&st7;  " d=" M   900.85,   605.18  L   900.85,   588.19  " /><text style="&st18;" transform="matrix(&st16;  892.16  620.75 )">4</text><text style="&st18;" transform="matrix(&st16;  892.16  611.69 )">5</text><path style="stroke-width:1.42 ;&st7;   " d=" M   905.38,   609.72  C   905.38    607.21    903.35    605.18    900.85    605.18  " /><path style="stroke-width:1.42 ;&st7;   " d=" M   900.85,   605.18  C   898.35    605.18    896.32    607.21    896.32    609.72  " /><path style="stroke-width:1.42 ;&st7;   " d=" M   896.32,   609.72  C   896.32    612.22    898.35    614.25    900.85    614.25  " /><path style="stroke-width:1.42 ;&st7;   " d=" M   900.85,   614.25  C   903.35    614.25    905.38    612.22    905.38    609.72  " /><text style="&st18;" transform="matrix(&st16;  898.54  611.69 )">A</text><path style="stroke-width:1.42 ;&st7;   " d=" M   905.38,   618.78  C   905.38    616.28    903.35    614.25    900.85    614.25  " /><path style="stroke-width:1.42 ;&st7;   " d=" M   900.85,   614.25  C   898.35    614.25    896.32    616.28    896.32    618.78  " /><path style="stroke-width:1.42 ;&st7;   " d=" M   896.32,   618.78  C   896.32    621.29    898.35    623.31    900.85    623.31  " /><path style="stroke-width:1.42 ;&st7;   " d=" M   900.85,   623.31  C   903.35    623.31    905.38    621.29    905.38    618.78  " /><text style="&st18;" transform="matrix(&st16;  898.66  620.75 )">B</text><text style="&st18;" transform="matrix(&st16;  892.16  576.56 )">7</text><text style="&st18;" transform="matrix(&st16;  889.05  585.62 )">13</text><path style="stroke-width:1.42 ;&st7;   " d=" M   905.38,   574.59  C   905.38    572.09    903.35    570.06    900.85    570.06  " /><path style="stroke-width:1.42 ;&st7;   " d=" M   900.85,   570.06  C   898.35    570.06    896.32    572.09    896.32    574.59  " /><path style="stroke-width:1.42 ;&st7;   " d=" M   896.32,   574.59  C   896.32    577.09    898.35    579.12    900.85    579.12  " /><path style="stroke-width:1.42 ;&st7;   " d=" M   900.85,   579.12  C   903.35    579.12    905.38    577.09    905.38    574.59  " /><path style="stroke-width:1.42 ;&st7;   " d=" M   905.38,   583.65  C   905.38    581.15    903.35    579.12    900.85    579.12  " /><path style="stroke-width:1.42 ;&st7;   " d=" M   900.85,   579.12  C   898.35    579.12    896.32    581.15    896.32    583.65  " /><path style="stroke-width:1.42 ;&st7;   " d=" M   896.32,   583.65  C   896.32    586.16    898.35    588.19    900.85    588.19  " /><path style="stroke-width:1.42 ;&st7;   " d=" M   900.85,   588.19  C   903.35    588.19    905.38    586.16    905.38    583.65  " /><text style="&st18;" transform="matrix(&st16;  898.54  576.56 )">A</text><text style="&st18;" transform="matrix(&st16;  898.66  585.62 )">B</text><g ewd:figtype="title"><text style="&st18;" transform="matrix(&st17;  880.16  608.09 )" ewd:textID="26">No. 25 Junction <tspan x="0 " dy="6.0">Connector</tspan></text><text style="&st18;" transform="matrix(&st17;  873.33  608.08 )">L33(B)</text><text style="&st18;" transform="matrix(&st17;  860.04  608.09 )" ewd:textID="29">No. 28 Junction <tspan x="0 " dy="6.0">Connector</tspan></text><text style="&st18;" transform="matrix(&st17;  853.22  608.08 )">L36(A)</text></g><g ewd:code="" ewd:figID="106" ewd:comment="" ewd:figtype="commref"><text style="&st18;" transform="matrix(&st16;  905.94  585.62 )">(RHD)</text></g><g ewd:code="" ewd:figID="107" ewd:comment="" ewd:figtype="commref"><text style="&st18;" transform="matrix(&st16;  905.94  576.56 )">(LHD)</text></g><g ewd:code="" ewd:figID="108" ewd:comment="" ewd:figtype="commref"><text style="&st18;" transform="matrix(&st16;  905.94  620.75 )">(RHD)</text></g><g ewd:code="" ewd:figID="109" ewd:comment="" ewd:figtype="commref"><text style="&st18;" transform="matrix(&st16;  905.94  611.69 )">(LHD)</text></g></g><g ewd:figtype="conn" ewd:figID="17" ewd:code="L25"><path style="stroke-width:0.85 ;&st7;  " d=" M   947.59,   239.75  L   939.09,   239.75  " /><path style="stroke-width:0.85 ;&st7;  " d=" M   701.13,   239.75  L   692.63,   239.75  " /><path style="stroke-width:0.85 ;&st7;  " d=" M   722.38,   252.49  L   722.38,   260.99  " /><path style="stroke-width:1.42 ;&st7;  " d=" M   858.36,   307.73  L   858.36,   324.73  " /><path style="stroke-width:1.42 ;&st7;  " d=" M   798.87,   316.23  L   798.87,   333.23  " /><path style="stroke-width:0.85 ;&st7;  " d=" M   807.37,   333.23  L   798.87,   327.56  " /><path style="stroke-width:0.85 ;&st7;  " d=" M   866.86,   324.73  L   858.36,   319.07  " /><path style="stroke-width:0.85 ;&st7;  " d=" M   696.88,   214.25  L   696.88,   256.74  L   773.37,   256.74  " /><path style="stroke-width:0.28 ;&st9;  " d=" M   696.88,   239.75  L   691.22,   231.25  L   702.55,   231.25  L   696.88,   239.75  " /><path style="stroke-width:1.42 ;&st7;  " d=" M   628.89,   214.25  L   628.89,   375.72  L   960.34,   375.72  L   960.34,   214.25  L   628.89,   214.25  " /><path style="stroke-width:1.42 ;&st7;  " d=" M   730.88,   273.74  L   730.88,   290.74  L   815.86,   290.74  L   815.86,   273.74  L   730.88,   273.74  " /><path style="stroke-width:0.28 ;&st9;  " d=" M   722.38,   256.74  L   713.88,   262.41  L   713.88,   251.08  L   722.38,   256.74  " /><path style="stroke-width:0.85 ;&st7;  " d=" M   773.37,   273.74  L   773.37,   256.74  L   943.34,   256.74  L   943.34,   214.25  " /><path style="stroke-width:0.85 ;&st7;  " d=" M   772.18,   255.74  L   771.91,   256.21  L   771.81,   256.74  L   771.91,   257.28  L   772.18,   257.75  L   772.59,   258.09  L   773.10,   258.28  L   773.64,   258.28  L   774.15,   258.09  L   774.56,   257.75  L   774.84,   257.28  L   774.93,   256.74  L   774.84,   256.21  L   774.56,   255.74  L   774.15,   255.39  L   773.64,   255.21  L   773.10,   255.21  L   772.59,   255.39  L   772.18,   255.74  L   772.57,   256.45  L   772.57,   257.03  L   772.95,   257.48  L   773.52,   257.58  L   774.02,   257.29  L   774.22,   256.74  L   774.02,   256.20  L   773.52,   255.91  L   772.95,   256.01  L   773.37,   256.74  " /><path style="stroke-width:0.28 ;&st9;  " d=" M   943.34,   239.75  L   937.68,   231.25  L   949.01,   231.25  L   943.34,   239.75  " /><text style="&st18;" transform="matrix(&st16;  674.48  352.2 )">12V</text><path style="stroke-width:0.85 ;&st7;  " d=" M   773.37,   358.73  L   773.37,   375.72  " /><path style="stroke-width:0.85 ;&st7;  " d=" M   866.85,   307.73  L   900.85,   307.73  L   900.85,   324.73  " /><path style="stroke-width:0.85 ;&st7;  " d=" M   858.36,   333.23  L   854.11,   341.73  " /><path style="stroke-width:0.85 ;&st7;  " d=" M   900.85,   358.73  L   900.85,   350.23  L   898.02,   348.81  L   903.68,   345.98  L   898.02,   343.14  L   903.68,   340.31  L   898.02,   337.48  L   903.68,   334.65  L   900.85,   333.23  L   900.85,   324.73  " /><path style="stroke-width:0.85 ;&st7;  " d=" M   875.35,   333.23  L   871.10,   341.73  " /><path style="stroke-width:0.85 ;&st7;  " d=" M   866.85,   333.23  L   862.61,   341.73  " /><path style="stroke-width:0.85 ;&st7;  " d=" M   807.36,   316.23  L   858.36,   316.23  " /><path style="stroke-width:0.85 ;&st7;  " d=" M   866.85,   324.73  L   864.72,   321.55  L   863.10,   323.99  L   866.85,   324.73  L   865.62,   323.91  L   864.72,   322.57  L   864.04,   323.60  L   865.62,   323.91  L   865.01,   323.50  L   864.72,   323.08  L   864.51,   323.40  L   865.01,   323.50  " /><path style="stroke-width:0.85 ;&st7;  " d=" M   866.85,   307.73  L   858.36,   313.40  " /><path style="stroke-width:0.85 ;&st7;  " d=" M   858.36,   333.23  L   875.35,   333.23  " /><path style="stroke-width:0.85 ;&st7;  " d=" M   807.36,   333.23  L   807.36,   341.73  " /><path style="stroke-width:0.85 ;&st7;  " d=" M   798.87,   341.73  L   815.86,   341.73  " /><path style="stroke-width:0.85 ;&st7;  " d=" M   807.36,   341.73  L   803.12,   350.23  " /><path style="stroke-width:0.85 ;&st7;  " d=" M   815.86,   341.73  L   811.61,   350.23  " /><path style="stroke-width:0.85 ;&st7;  " d=" M   798.87,   341.73  L   794.62,   350.23  " /><path style="stroke-width:0.85 ;&st7;  " d=" M   866.85,   324.73  L   866.85,   333.23  " /><path style="stroke-width:0.85 ;&st7;  " d=" M   772.18,   323.73  L   771.91,   324.20  L   771.81,   324.73  L   771.91,   325.26  L   772.18,   325.73  L   772.59,   326.08  L   773.10,   326.27  L   773.64,   326.27  L   774.15,   326.08  L   774.56,   325.73  L   774.84,   325.26  L   774.93,   324.73  L   774.84,   324.20  L   774.56,   323.73  L   774.15,   323.38  L   773.64,   323.20  L   773.10,   323.20  L   772.59,   323.38  L   772.18,   323.73  L   772.57,   324.44  L   772.57,   325.02  L   772.95,   325.47  L   773.52,   325.57  L   774.02,   325.28  L   774.22,   324.73  L   774.02,   324.18  L   773.52,   323.90  L   772.95,   323.99  L   773.37,   324.73  " /><path style="stroke-width:0.85 ;&st7;  " d=" M   832.86,   316.23  L   832.86,   307.73  " /><path style="stroke-width:0.85 ;&st7;  " d=" M   773.37,   290.74  L   773.37,   324.73  " /><path style="stroke-width:0.85 ;&st7;  " d=" M   828.61,   307.73  L   837.11,   307.73  " /><path style="stroke-width:0.85 ;&st7;  " d=" M   900.85,   358.73  L   900.85,   375.72  " /><path style="stroke-width:0.85 ;&st7;  " d=" M   831.67,   306.73  L   831.40,   307.20  L   831.30,   307.73  L   831.40,   308.27  L   831.67,   308.74  L   832.08,   309.08  L   832.59,   309.27  L   833.13,   309.27  L   833.64,   309.08  L   834.05,   308.74  L   834.33,   308.27  L   834.42,   307.73  L   834.33,   307.20  L   834.05,   306.73  L   833.64,   306.39  L   833.13,   306.20  L   832.59,   306.20  L   832.08,   306.39  L   831.67,   306.73  L   832.06,   307.44  L   832.06,   308.03  L   832.44,   308.47  L   833.01,   308.57  L   833.51,   308.28  L   833.71,   307.73  L   833.51,   307.19  L   833.01,   306.90  L   832.44,   307.00  L   832.86,   307.73  " /><path style="stroke-width:0.85 ;&st7;  " d=" M   831.67,   315.23  L   831.40,   315.70  L   831.30,   316.23  L   831.40,   316.77  L   831.67,   317.24  L   832.08,   317.58  L   832.59,   317.77  L   833.13,   317.77  L   833.64,   317.58  L   834.05,   317.24  L   834.33,   316.77  L   834.42,   316.23  L   834.33,   315.70  L   834.05,   315.23  L   833.64,   314.88  L   833.13,   314.70  L   832.59,   314.70  L   832.08,   314.88  L   831.67,   315.23  L   832.06,   315.94  L   832.06,   316.52  L   832.44,   316.97  L   833.01,   317.07  L   833.51,   316.78  L   833.71,   316.23  L   833.51,   315.69  L   833.01,   315.40  L   832.44,   315.50  L   832.86,   316.23  " /><path style="stroke-width:0.85 ;&st7;  " d=" M   773.37,   358.73  L   773.37,   350.23  L   770.54,   348.81  L   776.20,   345.98  L   770.54,   343.14  L   776.20,   340.31  L   770.54,   337.48  L   776.20,   334.65  L   773.37,   333.23  L   773.37,   324.73  " /><path style="stroke-width:0.85 ;&st7;  " d=" M   773.37,   324.73  L   798.87,   324.73  " /><path style="stroke-width:0.85 ;&st7;  " d=" M   807.36,   316.23  L   798.87,   321.90  " /><path style="stroke-width:0.85 ;&st7;  " d=" M   807.36,   333.23  L   805.23,   330.05  L   803.61,   332.49  L   807.36,   333.23  L   806.13,   332.41  L   805.23,   331.07  L   804.55,   332.09  L   806.13,   332.41  L   805.52,   332.00  L   805.23,   331.58  L   805.02,   331.90  L   805.52,   332.00  " /><text style="&st18;" transform="matrix(&st16;  945.93  222.44 )">B</text><path style="stroke-width:1.42 ;&st7;  " d=" M   662.89,   341.73  L   662.89,   358.73  L   696.88,   358.73  L   696.88,   341.73  L   662.89,   341.73  " /><path style="stroke-width:0.85 ;&st7;  " d=" M   679.89,   375.72  L   679.89,   358.73  " /><text style="&st18;" transform="matrix(&st16;  939.68  372.03 )">ES</text><text style="&st18;" transform="matrix(&st16;  699.47  222.44 )">B</text><text style="&st18;" transform="matrix(&st16;  682.47  372.03 )">IG+</text><text style="&st18;" transform="matrix(&st16;  757.22  281.38 )" ewd:textID="13">Meter Micro <tspan x="0 " dy="6.0">Computer</tspan></text><text style="&st18;" transform="matrix(&st16;  903.43  372.03 )">+S</text><text style="&st18;" transform="matrix(&st16;  775.95  372.03 )">SI</text><text style="&st18;" transform="matrix(&st16;  827.96  304.04 )">IG2</text><text style="&st18;" transform="matrix(&st16;  668.09  382.22 )">13</text><path style="stroke-width:1.42 ;&st7;   " d=" M   684.42,   380.26  C   684.42    377.75    682.39    375.72    679.89    375.72  " /><path style="stroke-width:1.42 ;&st7;   " d=" M   679.89,   375.72  C   677.38    375.72    675.35    377.75    675.35    380.26  " /><path style="stroke-width:1.42 ;&st7;   " d=" M   675.35,   380.26  C   675.35    382.76    677.38    384.79    679.89    384.79  " /><path style="stroke-width:1.42 ;&st7;   " d=" M   679.89,   384.79  C   682.39    384.79    684.42    382.76    684.42    380.26  " /><text style="&st18;" transform="matrix(&st16;  677.58  382.22 )">A</text><text style="&st18;" transform="matrix(&st16;  685.09  211.69 )">28</text><path style="stroke-width:1.42 ;&st7;   " d=" M   701.42,   209.72  C   701.42    207.21    699.39    205.18    696.88    205.18  " /><path style="stroke-width:1.42 ;&st7;   " d=" M   696.88,   205.18  C   694.38    205.18    692.35    207.21    692.35    209.72  " /><path style="stroke-width:1.42 ;&st7;   " d=" M   692.35,   209.72  C   692.35    212.22    694.38    214.25    696.88    214.25  " /><path style="stroke-width:1.42 ;&st7;   " d=" M   696.88,   214.25  C   699.39    214.25    701.42    212.22    701.42    209.72  " /><text style="&st18;" transform="matrix(&st16;  694.58  211.69 )">A</text><text style="&st18;" transform="matrix(&st16;  764.68  382.22 )">9</text><path style="stroke-width:1.42 ;&st7;   " d=" M   777.90,   380.26  C   777.90    377.75    775.87    375.72    773.37    375.72  " /><path style="stroke-width:1.42 ;&st7;   " d=" M   773.37,   375.72  C   770.87    375.72    768.84    377.75    768.84    380.26  " /><path style="stroke-width:1.42 ;&st7;   " d=" M   768.84,   380.26  C   768.84    382.76    770.87    384.79    773.37    384.79  " /><path style="stroke-width:1.42 ;&st7;   " d=" M   773.37,   384.79  C   775.87    384.79    777.90    382.76    777.90    380.26  " /><text style="&st18;" transform="matrix(&st16;  771.07  382.22 )">A</text><text style="&st18;" transform="matrix(&st16;  892.16  382.22 )">8</text><path style="stroke-width:1.42 ;&st7;   " d=" M   905.38,   380.26  C   905.38    377.75    903.35    375.72    900.85    375.72  " /><path style="stroke-width:1.42 ;&st7;   " d=" M   900.85,   375.72  C   898.35    375.72    896.32    377.75    896.32    380.26  " /><path style="stroke-width:1.42 ;&st7;   " d=" M   896.32,   380.26  C   896.32    382.76    898.35    384.79    900.85    384.79  " /><path style="stroke-width:1.42 ;&st7;   " d=" M   900.85,   384.79  C   903.35    384.79    905.38    382.76    905.38    380.26  " /><text style="&st18;" transform="matrix(&st16;  898.54  382.22 )">A</text><text style="&st18;" transform="matrix(&st16;  931.55  382.22 )">15</text><text style="&st18;" transform="matrix(&st16;  941.04  382.22 )">A</text><path style="stroke-width:1.42 ;&st7;   " d=" M   947.87,   380.26  C   947.87    377.75    945.85    375.72    943.34    375.72  " /><path style="stroke-width:1.42 ;&st7;   " d=" M   943.34,   375.72  C   940.84    375.72    938.81    377.75    938.81    380.26  " /><path style="stroke-width:1.42 ;&st7;   " d=" M   938.81,   380.26  C   938.81    382.76    940.84    384.79    943.34    384.79  " /><path style="stroke-width:1.42 ;&st7;   " d=" M   943.34,   384.79  C   945.85    384.79    947.87    382.76    947.87    380.26  " /><text style="&st18;" transform="matrix(&st16;  931.55  211.69 )">26</text><path style="stroke-width:1.42 ;&st7;   " d=" M   947.87,   209.72  C   947.87    207.21    945.85    205.18    943.34    205.18  " /><path style="stroke-width:1.42 ;&st7;   " d=" M   943.34,   205.18  C   940.84    205.18    938.81    207.21    938.81    209.72  " /><path style="stroke-width:1.42 ;&st7;   " d=" M   938.81,   209.72  C   938.81    212.22    940.84    214.25    943.34    214.25  " /><path style="stroke-width:1.42 ;&st7;   " d=" M   943.34,   214.25  C   945.85    214.25    947.87    212.22    947.87    209.72  " /><text style="&st18;" transform="matrix(&st16;  941.04  211.69 )">A</text><g ewd:figtype="title"><text style="&st18;" transform="matrix(&st17;  975.06  378.63 )" ewd:textID="12">Combination Meter Assembly</text><text style="&st18;" transform="matrix(&st17;  968.23  378.62 )">L25(A)</text></g></g><g ewd:figtype="conn" ewd:figID="18" ewd:code="A20"><path style="stroke-width:1.42 ;&st7;  " d=" M   798.87,   588.19  L   798.87,   622.18  L   832.86,   622.18  L   832.86,   588.19  L   798.87,   588.19  " /><text style="&st18;" transform="matrix(&st16;  806.58  584.5 )">22</text><text style="&st18;" transform="matrix(&st16;  810.77  595.82 )">SP1</text><g ewd:figtype="title"><text style="&st18;" transform="matrix(&st16;  795.46  636.9 )" ewd:textID="10">Brake Actuator Assembly</text><text style="&st18;" transform="matrix(&st16;  795.45  630.07 )">A20</text></g></g><g ewd:figtype="conn" ewd:figID="19" ewd:code="C96"><path style="stroke-width:1.42 ;&st7;  " d=" M   603.40,   588.19  L   603.40,   622.18  L   781.87,   622.18  L   781.87,   588.19  L   603.40,   588.19  " /><g ewd:lineID="26"><text style="&st18;" transform="matrix(&st16;  614.21  584.5 )">2</text><text style="&st18;" transform="matrix(&st16;  616.73  595.82 )">SE</text></g><g ewd:lineID="27,28"><text style="&st18;" transform="matrix(&st16;  639.71  584.5 )">1</text><text style="&st18;" transform="matrix(&st16;  640.99  595.82 )">IG+</text></g><g ewd:lineID="35,36"><text style="&st18;" transform="matrix(&st16;  724.69  584.5 )">3</text><text style="&st18;" transform="matrix(&st16;  728.19  595.82 )">SI</text></g><g ewd:figtype="title"><text style="&st18;" transform="matrix(&st16;  599.99  636.9 )" ewd:textID="31">Speedometer Sensor</text><text style="&st18;" transform="matrix(&st16;  599.99  630.07 )">C96</text></g></g><g ewd:figtype="w2w" ewd:figID="31" ewd:code="IC1"><text style="&st18;" transform="matrix(&st16;  633.26  509.42 )">3</text><path style="stroke-width:1.42 ;&st7;  " d=" M   650.14,   517.37  L   645.89,   513.12  L   641.64,   517.37  " /><path style="stroke-width:1.42 ;&st7;  " d=" M   650.14,   520.77  L   645.89,   516.52  L   641.64,   520.77  " /></g><g ewd:figtype="w2w" ewd:figID="32" ewd:code="AC2"><path style="stroke-width:1.42 ;&st7;  " d=" M   684.14,   563.26  L   679.89,   559.01  L   675.64,   563.26  " /><path style="stroke-width:1.42 ;&st7;  " d=" M   684.14,   559.86  L   679.89,   555.61  L   675.64,   559.86  " /><text style="&st18;" transform="matrix(&st16;  667.25  551.91 )">6</text></g><g ewd:figtype="w2w" ewd:figID="33" ewd:code="AI2"><text style="&st18;" transform="matrix(&st16;  664.15  509.42 )">12</text></g><g ewd:figtype="w2w" ewd:figID="34" ewd:code="AI6"><path style="stroke-width:1.42 ;&st7;  " d=" M   684.14,   489.04  L   679.89,   493.29  L   675.64,   489.04  " /><path style="stroke-width:1.42 ;&st7;  " d=" M   675.64,   485.64  L   679.89,   489.89  L   684.14,   485.64  " /><text style="&st18;" transform="matrix(&st16;  664.15  500.92 )">11</text><g ewd:code="" ewd:figID="111" ewd:comment="" ewd:figtype="commref"><text style="&st18;" transform="matrix(&st16;  688.92  500.92 )">(LHD)</text></g></g><g ewd:figtype="w2w" ewd:figID="35" ewd:code="IL1"><text style="&st18;" transform="matrix(&st16;  664.15  432.93 )">43</text><path style="stroke-width:1.42 ;&st7;  " d=" M   684.14,   421.05  L   679.89,   425.30  L   675.64,   421.05  " /><path style="stroke-width:1.42 ;&st7;  " d=" M   675.64,   417.65  L   679.89,   421.90  L   684.14,   417.65  " /></g><g ewd:figtype="w2w" ewd:figID="36" ewd:code="IL1"><path style="stroke-width:1.42 ;&st7;  " d=" M   701.13,   168.92  L   696.88,   164.67  L   692.63,   168.92  " /><path style="stroke-width:1.42 ;&st7;  " d=" M   701.13,   172.32  L   696.88,   168.07  L   692.63,   172.32  " /><text style="&st18;" transform="matrix(&st16;  681.15  160.98 )">28</text></g><g ewd:figtype="w2w" ewd:figID="37" ewd:code="IC3"><text style="&st18;" transform="matrix(&st16;  718.25  509.42 )">3</text><path style="stroke-width:1.42 ;&st7;  " d=" M   735.13,   517.37  L   730.88,   513.12  L   726.63,   517.37  " /><path style="stroke-width:1.42 ;&st7;  " d=" M   735.13,   520.77  L   730.88,   516.52  L   726.63,   520.77  " /></g><g ewd:figtype="w2w" ewd:figID="38" ewd:code="AC2"><text style="&st18;" transform="matrix(&st16;  760.74  551.91 )">7</text><path style="stroke-width:1.42 ;&st7;  " d=" M   777.62,   559.86  L   773.37,   555.61  L   769.12,   559.86  " /><path style="stroke-width:1.42 ;&st7;  " d=" M   777.62,   563.26  L   773.37,   559.01  L   769.12,   563.26  " /></g><g ewd:figtype="w2w" ewd:figID="39" ewd:code="AI3"><path style="stroke-width:1.42 ;&st7;  " d=" M   769.12,   494.14  L   773.37,   498.39  L   777.62,   494.14  " /><path style="stroke-width:1.42 ;&st7;  " d=" M   777.62,   497.54  L   773.37,   501.78  L   769.12,   497.54  " /><text style="&st18;" transform="matrix(&st16;  757.64  509.42 )">21</text></g><g ewd:figtype="w2w" ewd:figID="40" ewd:code="IL1"><path style="stroke-width:1.42 ;&st7;  " d=" M   769.12,   417.65  L   773.37,   421.90  L   777.62,   417.65  " /><path style="stroke-width:1.42 ;&st7;  " d=" M   777.62,   421.05  L   773.37,   425.30  L   769.12,   421.05  " /><text style="&st18;" transform="matrix(&st16;  757.64  432.93 )">48</text></g><g ewd:code="AI3" ewd:figID="41" ewd:comment="9" ewd:figtype="w2w"><text style="&st18;" transform="matrix(&st16;  800.13  526.42 )">30</text><g ewd:code="" ewd:figID="112" ewd:comment="9" ewd:figtype="commref"><text style="&st18;" transform="matrix(&st16;  824.89  526.42 )">(*9)</text></g></g><g ewd:code="AI3" ewd:figID="42" ewd:comment="8" ewd:figtype="w2w"><text style="&st18;" transform="matrix(&st16;  800.13  517.92 )">21</text><g ewd:code="" ewd:figID="114" ewd:comment="8" ewd:figtype="commref"><text style="&st18;" transform="matrix(&st16;  824.89  517.92 )">(*8)</text></g></g><g ewd:code="AI3" ewd:figID="43" ewd:comment="1" ewd:figtype="w2w"><path style="stroke-width:1.42 ;&st7;  " d=" M   811.61,   494.14  L   815.86,   498.39  L   820.11,   494.14  " /><path style="stroke-width:1.42 ;&st7;  " d=" M   820.11,   497.54  L   815.86,   501.78  L   811.61,   497.54  " /><text style="&st18;" transform="matrix(&st16;  800.13  509.42 )">51</text><g ewd:code="" ewd:figID="113" ewd:comment="1" ewd:figtype="commref"><text style="&st18;" transform="matrix(&st16;  824.89  509.42 )">(LHD *1)</text></g></g><g ewd:figtype="w2w" ewd:figID="44" ewd:code="IC2"><path style="stroke-width:1.42 ;&st7;  " d=" M   947.59,   563.26  L   943.34,   559.01  L   939.09,   563.26  " /><path style="stroke-width:1.42 ;&st7;  " d=" M   947.59,   559.86  L   943.34,   555.61  L   939.09,   559.86  " /><text style="&st18;" transform="matrix(&st16;  930.71  551.91 )">9</text></g><g ewd:figtype="w2w" ewd:figID="45" ewd:code="IL1"><path style="stroke-width:1.42 ;&st7;  " d=" M   947.59,   421.05  L   943.34,   425.30  L   939.09,   421.05  " /><path style="stroke-width:1.42 ;&st7;  " d=" M   939.09,   417.65  L   943.34,   421.90  L   947.59,   417.65  " /><text style="&st18;" transform="matrix(&st16;  927.61  432.93 )">26</text></g><g ewd:figtype="w2w" ewd:figID="46" ewd:code="IL1"><path style="stroke-width:1.42 ;&st7;  " d=" M   947.59,   177.42  L   943.34,   173.17  L   939.09,   177.42  " /><path style="stroke-width:1.42 ;&st7;  " d=" M   947.59,   180.82  L   943.34,   176.57  L   939.09,   180.82  " /><text style="&st18;" transform="matrix(&st16;  927.61  169.48 )">59</text></g><g ewd:figtype="w2w" ewd:figID="47" ewd:code="AC1"><path style="stroke-width:1.42 ;&st7;  " d=" M   981.59,   622.75  L   977.34,   618.50  L   973.09,   622.75  " /><path style="stroke-width:1.42 ;&st7;  " d=" M   981.59,   619.35  L   977.34,   615.10  L   973.09,   619.35  " /><text style="&st18;" transform="matrix(&st16;  964.71  611.4 )">1</text></g><g ewd:code="AI3" ewd:figID="48" ewd:comment="9" ewd:figtype="w2w"><text style="&st18;" transform="matrix(&st16;  961.6  560.41 )">55</text><g ewd:code="" ewd:figID="105" ewd:comment="9" ewd:figtype="commref"><text style="&st18;" transform="matrix(&st16;  986.37  560.41 )">(*9)</text></g></g><g ewd:figtype="w2w" ewd:figID="49" ewd:code="AI3"><path style="stroke-width:1.42 ;&st7;  " d=" M   973.09,   536.63  L   977.34,   540.88  L   981.59,   536.63  " /><path style="stroke-width:1.42 ;&st7;  " d=" M   981.59,   540.03  L   977.34,   544.28  L   973.09,   540.03  " /><text style="&st18;" transform="matrix(&st16;  961.6  551.91 )">45</text></g><g ewd:figtype="w2w" ewd:figID="50" ewd:code="CA2"><path style="stroke-width:1.42 ;&st7;  " d=" M  1007.08,   596.12  L  1011.33,   600.37  L  1015.58,   596.12  " /><path style="stroke-width:1.42 ;&st7;  " d=" M  1015.58,   599.52  L  1011.33,   603.77  L  1007.08,   599.52  " /><text style="&st18;" transform="matrix(&st16;  998.7  611.4 )">3</text></g><g ewd:figtype="gp" ewd:figID="52" ewd:code="CC"><path style="stroke-width:0.85 ;&st7;  " d=" M   560.91,   697.25  L   560.91,   701.50  " /><path style="stroke-width:0.85 ;&st7;  " d=" M   552.41,   701.50  L   569.40,   701.50  " /><path style="stroke-width:0.85 ;&st7;  " d=" M   556.66,   704.33  L   565.16,   704.33  " /><path style="stroke-width:0.85 ;&st7;  " d=" M   558.07,   707.17  L   563.74,   707.17  " /><path style="stroke-width:0.85 ;&st7;  " d=" M   559.49,   710.00  L   562.32,   710.00  " /></g><g ewd:figtype="gp" ewd:figID="53" ewd:code="CA"><path style="stroke-width:0.85 ;&st7;  " d=" M   586.40,   697.25  L   586.40,   701.50  " /><path style="stroke-width:0.85 ;&st7;  " d=" M   577.90,   701.50  L   594.90,   701.50  " /><path style="stroke-width:0.85 ;&st7;  " d=" M   582.15,   704.33  L   590.65,   704.33  " /><path style="stroke-width:0.85 ;&st7;  " d=" M   583.57,   707.17  L   589.23,   707.17  " /><path style="stroke-width:0.85 ;&st7;  " d=" M   584.99,   710.00  L   587.82,   710.00  " /></g><g ewd:figtype="gp" ewd:figID="54" ewd:code="CA"><path style="stroke-width:0.85 ;&st7;  " d=" M   941.93,   710.00  L   944.76,   710.00  " /><path style="stroke-width:0.85 ;&st7;  " d=" M   940.51,   707.17  L   946.17,   707.17  " /><path style="stroke-width:0.85 ;&st7;  " d=" M   939.09,   704.33  L   947.59,   704.33  " /><path style="stroke-width:0.85 ;&st7;  " d=" M   934.84,   701.50  L   951.84,   701.50  " /><path style="stroke-width:0.85 ;&st7;  " d=" M   943.34,   697.25  L   943.34,   701.50  " /></g><g ewd:figtype="gp" ewd:figID="55" ewd:code="CC"><path style="stroke-width:0.85 ;&st7;  " d=" M   977.34,   697.25  L   977.34,   701.50  " /><path style="stroke-width:0.85 ;&st7;  " d=" M   968.84,   701.50  L   985.83,   701.50  " /><path style="stroke-width:0.85 ;&st7;  " d=" M   973.09,   704.33  L   981.59,   704.33  " /><path style="stroke-width:0.85 ;&st7;  " d=" M   974.50,   707.17  L   980.17,   707.17  " /><path style="stroke-width:0.85 ;&st7;  " d=" M   975.92,   710.00  L   978.75,   710.00  " /></g><g ewd:code="" ewd:figID="104" ewd:comment="8" ewd:figtype="commref"><text style="&st18;" transform="matrix(&st16;  986.37  551.91 )">(*8)</text></g><g ewd:code="" ewd:figID="110" ewd:comment="" ewd:figtype="commref"><text style="&st18;" transform="matrix(&st16;  688.92  509.42 )">(RHD)</text></g></svg>