<?xml version="1.0" encoding="utf-8"?>
<!DOCTYPE svg PUBLIC "-//W3C//DTD SVG 1.0//EN" "http://www.w3.org/TR/2001/REC-SVG-20010904/DTD/svg10.dtd"[
	<!ENTITY ns_flows "http://ns.adobe.com/Flows/1.0/">
	<!ENTITY ns_svg "http://www.w3.org/2000/svg">
	<!ENTITY ns_xlink "http://www.w3.org/1999/xlink">
	<!ENTITY st0 "font-size:7px;font-family:'MS-PGothic';adobe-font-script:japanese;">
	<!ENTITY st1 "font-size:6px;font-family:'ArialMT';">
	<!-- White fill  -->
	<!ENTITY st2 "fill:#FFFFFF;stroke:#000000; stroke-width:1.41;stroke-linecap:round;stroke-linejoin:round;">
	<!-- Yellow fill  -->
	<!ENTITY st3 "fill:#FFFFCC;stroke:#FFFFCC; stroke-width:0.1;stroke-linecap:round;stroke-linejoin:round;">
	<!-- Gray fill  -->
	<!ENTITY st4 "fill:#CCCCCC;stroke:#CCCCCC; stroke-width:0.1;stroke-linecap:round;stroke-linejoin:round;">
	<!-- Light-blue fill -->
	<!ENTITY st5 "fill:#CCECF4;stroke:#000000; stroke-width:1.133;stroke-linecap:round;stroke-linejoin:round;">
	<!ENTITY st6 "fill:none;stroke-linecap:butt; stroke-linejoin:round;">
	<!ENTITY st7 "fill:none;stroke:#000000;stroke-linecap:round;stroke-linejoin:round;">
	<!ENTITY st8 "enable-background:new    ;">
	<!-- Black fill -->
	<!ENTITY st9 "fill:#000000;stroke:#000000; stroke-linecap:round;stroke-linejoin:round;">
	<!-- SRS note   -->
	<!ENTITY st10 "font-size:9px;font-family:'ArialMT';">
	<!ENTITY st11 "font-size:9px;font-family:'Svg Symbol';">
	<!ENTITY st12 "font-size:6px;font-family:'Svg Symbol';">
	<!ENTITY st13 "fill:none;stroke:#ff0000;stroke-linecap:round;stroke-linejoin:round;">
	<!-- Yellow fill  -->
	<!ENTITY st14 "fill:#FFFF00;stroke:#FFFF00; stroke-width:0.1;stroke-linecap:round;stroke-linejoin:round;">
	<!ENTITY st15 "font-size:6px;font-family:'MS-PGothic';adobe-font-script:japanese;">
	<!ENTITY st16 "1.00 0.00 0.00 1.00">
	<!ENTITY st17 "0.00 -1.00 1.00 0.00">
	<!ENTITY st18 "font-size:6px;font-family:'Arial';">
	<!ENTITY st19 "font-size:9px;font-family:'Arial';">
	<!ENTITY st20 "font-size:6px;font-family:'MS-PGothic','MS PGothic';adobe-font-script:japanese;">
	<!ENTITY st21 "font-size:7px;font-family:'MS-PGothic','MS PGothic';adobe-font-script:japanese;">
	<!ATTLIST svg
		xmlns:ewd CDATA #FIXED "http://shcl.co.jp/ewd"
		xmlns:a CDATA #FIXED "http://ns.adobe.com/AdobeSVGViewerExtensions/3.0/"
		ewd:ver CDATA #IMPLIED
	>
	<!ATTLIST a
		ewd:lineID CDATA #IMPLIED
		ewd:groupID CDATA #IMPLIED
		ewd:figtype CDATA #IMPLIED
		ewd:code CDATA #IMPLIED
		ewd:figID CDATA #IMPLIED
		ewd:pinNo CDATA #IMPLIED
		ewd:comment CDATA #IMPLIED >
	<!ATTLIST g
		ewd:lineID CDATA #IMPLIED
		ewd:groupID CDATA #IMPLIED
		ewd:figtype CDATA #IMPLIED
		ewd:code CDATA #IMPLIED
		ewd:figID CDATA #IMPLIED
		ewd:pinNo CDATA #IMPLIED
		ewd:comment CDATA #IMPLIED >
	<!ATTLIST text
		ewd:textID CDATA #IMPLIED >
	<!ATTLIST title
		ewd:textID CDATA #IMPLIED >
]>
<!-- Generator: Shintec Hozumi YS   -->
<svg onload="call_execInitLoadProc_svg('system')" style="overflow:visible;  enable-background:new 0 0 7245.579 710.000" viewBox="0 0 7245.579 710.000" height="710.000" width="7245.579" xml:space="preserve" ewd:ver="2.1.2.9" xmlns="&ns_svg;" xmlns:a="http://ns.adobe.com/AdobeSVGViewerExtensions/3.0/" xmlns:ewd="http://shcl.co.jp/ewd" xmlns:xlink="&ns_xlink;">
<path style="stroke-width:1.42 ;&st7;  " d=" M  1198.30,   384.22  L  1206.80,   384.22  " /><path style="stroke-width:1.42 ;&st7;  " d=" M  1232.29,   469.21  L  1240.79,   469.21  " /><path style="stroke-width:1.42 ;&st7;  " d=" M  1444.76,   384.22  L  1453.26,   384.22  " /><path style="stroke-width:1.42 ;&st7;  " d=" M  1444.76,   460.71  L  1453.26,   460.71  " /><path style="stroke-width:1.42 ;&st7;  " d=" M  1393.77,   452.21  L  1402.27,   452.21  " /><path style="stroke-width:1.42 ;&st7;  " d=" M  1410.76,   511.70  L  1402.27,   511.70  " /><path style="stroke-width:1.42 ;&st7;  " d=" M  1461.76,   511.70  L  1453.26,   511.70  " /><text style="&st18;" transform="matrix(&st17;  1248.43  447.1 )">(RHD *1)</text><text style="&st18;" transform="matrix(&st17;  1214.43  363.44 )">(*1)</text><text style="&st18;" transform="matrix(&st17;  1203.1  364.18 )">Y-G</text><text style="&st18;" transform="matrix(&st17;  1237.1  440.66 )">Y-G</text><text style="&st18;" transform="matrix(&st17;  1203.1  440.66 )">Y-G</text><text style="&st18;" transform="matrix(&st17;  1214.44  447.06 )">(LHD *1)</text><text style="&st18;" transform="matrix(&st17;  1152.11  466.16 )">Y-G</text><text style="&st18;" transform="matrix(&st17;  1163.44  472.59 )">(RHD *1)</text><text style="&st18;" transform="matrix(&st17;  1449.56  364.18 )">Y-G</text><text style="&st18;" transform="matrix(&st17;  1449.56  432.16 )">Y-G</text><text style="&st18;" transform="matrix(&st17;  1460.89  431.43 )">(*3)</text><text style="&st18;" transform="matrix(&st17;  1398.57  432.16 )">Y-G</text><text style="&st18;" transform="matrix(&st17;  1409.9  431.43 )">(*2)</text><text style="&st18;" transform="matrix(&st17;  1398.57  491.65 )">Y-G</text><text style="&st18;" transform="matrix(&st17;  1409.9  490.92 )">(*2)</text><text style="&st18;" transform="matrix(&st17;  1449.56  491.65 )">Y-G</text><text style="&st18;" transform="matrix(&st17;  1460.89  490.92 )">(*3)</text><text style="&st18;" transform="matrix(&st17;  1449.56  542.65 )">Y-G</text><text style="&st18;" transform="matrix(&st17;  1460.89  541.91 )">(*3)</text><text style="&st18;" transform="matrix(&st17;  1398.57  542.65 )">Y-G</text><text style="&st18;" transform="matrix(&st17;  1409.9  541.91 )">(*2)</text><text style="&st18;" transform="matrix(&st16;  1254.38  117.07 )" ewd:textID="40">Combination Meter Assembly</text><text style="&st18;" transform="matrix(&st17;  1460.89  367.47 )">(*2,*3)</text><text style="&st18;" transform="matrix(&st16;  1055.56  26.42 )">(*13)</text><text style="&st18;" transform="matrix(&st16;  1056.64  15.09 )">B-Y</text><text style="&st18;" transform="matrix(&st16;  1004.57  26.42 )">(*13)</text><text style="&st18;" transform="matrix(&st16;  1005.65  15.09 )">B-Y</text><text style="&st18;" transform="matrix(&st16;  1254.38  110.24 )">L25(A),L26(B)</text><text style="&st18;" transform="matrix(&st16;  1067.41  369.45 )">A29(A),C39(B),I84(C)</text><text style="&st18;" transform="matrix(&st16;  1067.42  376.28 )">ECM</text><text style="&st18;" transform="matrix(&st17;  1058.63  438.76 )">BR</text><text style="&st18;" transform="matrix(&st17;  1101.12  440.66 )">G-B</text><text style="&st18;" transform="matrix(&st17;  1112.45  439.93 )">(*1)</text><text style="&st18;" transform="matrix(&st17;  1069.96  439.93 )">(*1)</text><g ewd:code="C69,C85" ewd:figID="7" ewd:comment="3,2" ewd:figtype="conn"><path style="stroke-width:0.85 ;&st7;  " d=" M  1395.89,   616.22  L  1408.64,   594.14  " /><path style="stroke-width:0.85 ;&st7;  " d=" M  1408.64,   594.14  L  1405.60,   596.48  L  1408.14,   597.94  L  1408.64,   594.14  L  1407.90,   595.43  L  1406.62,   596.41  L  1407.69,   597.03  L  1407.90,   595.43  L  1407.53,   596.07  L  1407.12,   596.38  L  1407.46,   596.57  L  1407.53,   596.07  " /><path style="stroke-width:1.42 ;&st7;  " d=" M  1410.76,   622.18  L  1393.77,   622.18  L  1393.77,   588.19  L  1410.76,   588.19  L  1410.76,   622.18  " /><path style="stroke-width:0.85 ;&st7;  " d=" M  1402.27,   588.19  L  1402.27,   596.69  L  1405.10,   598.10  L  1399.43,   600.93  L  1405.10,   603.77  L  1399.43,   606.60  L  1405.10,   609.43  L  1399.43,   612.27  L  1402.27,   613.68  L  1402.27,   622.18  " /><text style="&st18;" transform="matrix(&st16;  1393.57  585.62 )">1</text><text style="&st18;" transform="matrix(&st16;  1393.57  576.56 )">3</text><path style="stroke-width:1.42 ;&st7;   " d=" M  1406.80,   583.65  C  1406.80    581.15   1404.77    579.12   1402.27    579.12  " /><path style="stroke-width:1.42 ;&st7;   " d=" M  1402.27,   579.12  C  1399.76    579.12   1397.73    581.15   1397.73    583.65  " /><path style="stroke-width:1.42 ;&st7;   " d=" M  1397.73,   583.65  C  1397.73    586.16   1399.76    588.19   1402.27    588.19  " /><path style="stroke-width:1.42 ;&st7;   " d=" M  1402.27,   588.19  C  1404.77    588.19   1406.80    586.16   1406.80    583.65  " /><text style="&st18;" transform="matrix(&st16;  1399.96  576.56 )">A</text><path style="stroke-width:1.42 ;&st7;   " d=" M  1406.80,   574.59  C  1406.80    572.09   1404.77    570.06   1402.27    570.06  " /><path style="stroke-width:1.42 ;&st7;   " d=" M  1402.27,   570.06  C  1399.76    570.06   1397.73    572.09   1397.73    574.59  " /><path style="stroke-width:1.42 ;&st7;   " d=" M  1397.73,   574.59  C  1397.73    577.09   1399.76    579.12   1402.27    579.12  " /><path style="stroke-width:1.42 ;&st7;   " d=" M  1402.27,   579.12  C  1404.77    579.12   1406.80    577.09   1406.80    574.59  " /><text style="&st18;" transform="matrix(&st16;  1400.08  585.62 )">B</text><g ewd:figtype="title"><text style="&st18;" transform="matrix(&st16;  1413.02  601.46 )">C69(A)</text><text style="&st18;" transform="matrix(&st16;  1413.02  608.29 )" ewd:textID="42">Diesel Engine Coolant <tspan x="0 " dy="6.0">Temperature Sensor</tspan></text><text style="&st18;" transform="matrix(&st16;  1413.02  620.73 )">C85(B)</text><text style="&st18;" transform="matrix(&st16;  1413.02  627.55 )" ewd:textID="127">Water Temperature Sender <tspan x="0 " dy="6.0">Gage Assembly</tspan></text></g><g ewd:code="" ewd:figID="245" ewd:comment="2" ewd:figtype="commref"><text style="&st18;" transform="matrix(&st16;  1407.36  585.62 )">(*2)</text></g><g ewd:code="" ewd:figID="246" ewd:comment="3" ewd:figtype="commref"><text style="&st18;" transform="matrix(&st16;  1407.36  576.56 )">(*3)</text></g></g><g ewd:figtype="conn" ewd:figID="38" ewd:code="A29,C39,I84"><g ewd:lineID="37"><text style="&st18;" transform="matrix(&st16;  1050.53  399.22 )">78</text><text style="&st18;" transform="matrix(&st16;  1060.13  399.22 )">B</text><path style="stroke-width:1.42 ;&st7;   " d=" M  1066.86,   397.25  C  1066.86    394.75   1064.83    392.72   1062.32    392.72  " /><path style="stroke-width:1.42 ;&st7;   " d=" M  1062.32,   392.72  C  1059.82    392.72   1057.79    394.75   1057.79    397.25  " /><path style="stroke-width:1.42 ;&st7;   " d=" M  1057.79,   397.25  C  1057.79    399.76   1059.82    401.78   1062.32    401.78  " /><path style="stroke-width:1.42 ;&st7;   " d=" M  1062.32,   401.78  C  1064.83    401.78   1066.86    399.76   1066.86    397.25  " /><text style="&st18;" transform="matrix(&st16;  1053.31  389.02 )">ETHW</text></g><g ewd:lineID="38"><text style="&st18;" transform="matrix(&st16;  1093.02  399.22 )">79</text><text style="&st18;" transform="matrix(&st16;  1102.63  399.22 )">B</text><path style="stroke-width:1.42 ;&st7;   " d=" M  1109.35,   397.25  C  1109.35    394.75   1107.32    392.72   1104.82    392.72  " /><path style="stroke-width:1.42 ;&st7;   " d=" M  1104.82,   392.72  C  1102.31    392.72   1100.28    394.75   1100.28    397.25  " /><path style="stroke-width:1.42 ;&st7;   " d=" M  1100.28,   397.25  C  1100.28    399.76   1102.31    401.78   1104.82    401.78  " /><path style="stroke-width:1.42 ;&st7;   " d=" M  1104.82,   401.78  C  1107.32    401.78   1109.35    399.76   1109.35    397.25  " /><text style="&st18;" transform="matrix(&st16;  1097.66  389.02 )">THW</text></g><g ewd:lineID="39,41"><text style="&st18;" transform="matrix(&st16;  1144.01  408.29 )">12</text><text style="&st18;" transform="matrix(&st16;  1144.01  399.22 )">12</text><path style="stroke-width:1.42 ;&st7;   " d=" M  1160.34,   397.25  C  1160.34    394.75   1158.31    392.72   1155.81    392.72  " /><path style="stroke-width:1.42 ;&st7;   " d=" M  1155.81,   392.72  C  1153.30    392.72   1151.27    394.75   1151.27    397.25  " /><path style="stroke-width:1.42 ;&st7;   " d=" M  1151.27,   397.25  C  1151.27    399.76   1153.30    401.78   1155.81    401.78  " /><path style="stroke-width:1.42 ;&st7;   " d=" M  1155.81,   401.78  C  1158.31    401.78   1160.34    399.76   1160.34    397.25  " /><path style="stroke-width:1.42 ;&st7;   " d=" M  1160.34,   406.32  C  1160.34    403.81   1158.31    401.78   1155.81    401.78  " /><path style="stroke-width:1.42 ;&st7;   " d=" M  1155.81,   401.78  C  1153.30    401.78   1151.27    403.81   1151.27    406.32  " /><path style="stroke-width:1.42 ;&st7;   " d=" M  1151.27,   406.32  C  1151.27    408.82   1153.30    410.85   1155.81    410.85  " /><path style="stroke-width:1.42 ;&st7;   " d=" M  1155.81,   410.85  C  1158.31    410.85   1160.34    408.82   1160.34    406.32  " /><text style="&st18;" transform="matrix(&st16;  1153.5  408.29 )">A</text><text style="&st18;" transform="matrix(&st16;  1153.39  399.22 )">C</text><text style="&st18;" transform="matrix(&st16;  1146.29  389.02 )">THWO</text><g ewd:code="" ewd:figID="346" ewd:comment="" ewd:figtype="commref"><text style="&st18;" transform="matrix(&st16;  1160.9  408.29 )">(RHD)</text></g><g ewd:code="" ewd:figID="347" ewd:comment="" ewd:figtype="commref"><text style="&st18;" transform="matrix(&st16;  1160.9  399.22 )">(LHD)</text></g></g></g><g ewd:figtype="conn" ewd:figID="39" ewd:code="C1"><path style="stroke-width:0.85 ;&st7;  " d=" M  1101.98,   486.20  L  1107.65,   489.04  " /><path style="stroke-width:0.85 ;&st7;  " d=" M  1113.31,   481.95  L  1113.31,   498.95  " /><path style="stroke-width:0.85 ;&st7;  " d=" M  1096.32,   481.95  L  1096.32,   498.95  " /><path style="stroke-width:0.85 ;&st7;  " d=" M  1104.82,   481.95  L  1104.82,   469.21  " /><path style="stroke-width:0.85 ;&st7;  " d=" M  1101.98,   497.54  L  1104.82,   498.95  " /><path style="stroke-width:0.85 ;&st7;  " d=" M  1104.82,   481.95  L  1107.65,   483.37  " /><path style="stroke-width:0.85 ;&st7;  " d=" M  1107.65,   483.37  L  1101.98,   486.20  " /><path style="stroke-width:0.85 ;&st7;  " d=" M  1107.65,   489.04  L  1101.98,   491.87  " /><path style="stroke-width:0.85 ;&st7;  " d=" M  1107.65,   494.70  L  1101.98,   497.54  " /><path style="stroke-width:0.85 ;&st7;  " d=" M  1101.98,   491.87  L  1107.65,   494.70  " /><path style="stroke-width:0.85 ;&st7;  " d=" M  1104.82,   511.70  L  1104.82,   498.95  " /><path style="stroke-width:0.85 ;&st7;   " d=" M  1096.32,   498.95  C  1096.32    503.65   1100.12    507.45   1104.82    507.45  " /><path style="stroke-width:0.85 ;&st7;   " d=" M  1104.82,   507.45  C  1109.51    507.45   1113.31    503.65   1113.31    498.95  " /><path style="stroke-width:0.85 ;&st7;   " d=" M  1113.31,   481.95  C  1113.31    477.26   1109.51    473.46   1104.82    473.46  " /><path style="stroke-width:0.85 ;&st7;   " d=" M  1104.82,   473.46  C  1100.12    473.46   1096.32    477.26   1096.32    481.95  " /><path style="stroke-width:1.42 ;&st7;  " d=" M  1092.07,   511.70  L  1092.07,   469.21  L  1117.56,   469.21  L  1117.56,   511.70  L  1092.07,   511.70  " /><text style="&st18;" transform="matrix(&st16;  1098.63  519.89 )">1</text><text style="&st18;" transform="matrix(&st16;  1098.63  465.52 )">2</text><g ewd:figtype="title"><text style="&st18;" transform="matrix(&st17;  1125.46  514.6 )">C1</text><text style="&st18;" transform="matrix(&st17;  1132.28  514.61 )" ewd:textID="45">E.F.I. Engine Coolant <tspan x="0 " dy="6.0">Temperature Sensor</tspan></text></g></g><g ewd:figtype="w2w" ewd:figID="77" ewd:code="IL1"><path style="stroke-width:1.42 ;&st7;  " d=" M  1202.55,   375.16  L  1206.80,   379.41  L  1211.05,   375.16  " /><path style="stroke-width:1.42 ;&st7;  " d=" M  1211.05,   378.56  L  1206.80,   382.80  L  1202.55,   378.56  " /><text style="&st18;" transform="matrix(&st16;  1191.06  390.44 )">45</text></g><g ewd:figtype="w2w" ewd:figID="78" ewd:code="AI3"><path style="stroke-width:1.42 ;&st7;  " d=" M  1236.54,   460.14  L  1240.79,   464.39  L  1245.04,   460.14  " /><path style="stroke-width:1.42 ;&st7;  " d=" M  1245.04,   463.54  L  1240.79,   467.79  L  1236.54,   463.54  " /><text style="&st18;" transform="matrix(&st16;  1225.06  475.43 )">30</text></g><g ewd:figtype="w2w" ewd:figID="79" ewd:code="AC1"><path style="stroke-width:1.42 ;&st7;  " d=" M  1406.51,   520.77  L  1402.27,   516.52  L  1398.02,   520.77  " /><path style="stroke-width:1.42 ;&st7;  " d=" M  1406.51,   517.37  L  1402.27,   513.12  L  1398.02,   517.37  " /><text style="&st18;" transform="matrix(&st16;  1389.63  509.42 )">2</text></g><g ewd:figtype="w2w" ewd:figID="80" ewd:code="AI3"><text style="&st18;" transform="matrix(&st16;  1386.53  466.93 )">18</text><g ewd:code="" ewd:figID="243" ewd:comment="" ewd:figtype="commref"><text style="&st18;" transform="matrix(&st16;  1411.3  466.93 )">(RHD)</text></g></g><g ewd:figtype="w2w" ewd:figID="81" ewd:code="AI3"><path style="stroke-width:1.42 ;&st7;  " d=" M  1406.51,   446.54  L  1402.27,   450.79  L  1398.02,   446.54  " /><path style="stroke-width:1.42 ;&st7;  " d=" M  1398.02,   443.14  L  1402.27,   447.39  L  1406.51,   443.14  " /><text style="&st18;" transform="matrix(&st16;  1386.53  458.43 )">11</text><g ewd:code="" ewd:figID="244" ewd:comment="" ewd:figtype="commref"><text style="&st18;" transform="matrix(&st16;  1411.3  458.43 )">(LHD)</text></g></g><g ewd:figtype="w2w" ewd:figID="82" ewd:code="AC11"><path style="stroke-width:1.42 ;&st7;  " d=" M  1457.51,   520.77  L  1453.26,   516.52  L  1449.01,   520.77  " /><path style="stroke-width:1.42 ;&st7;  " d=" M  1457.51,   517.37  L  1453.26,   513.12  L  1449.01,   517.37  " /><text style="&st18;" transform="matrix(&st16;  1440.63  509.42 )">9</text></g><g ewd:figtype="w2w" ewd:figID="83" ewd:code="AI3"><path style="stroke-width:1.42 ;&st7;  " d=" M  1449.01,   451.64  L  1453.26,   455.89  L  1457.51,   451.64  " /><path style="stroke-width:1.42 ;&st7;  " d=" M  1457.51,   455.04  L  1453.26,   459.29  L  1449.01,   455.04  " /><text style="&st18;" transform="matrix(&st16;  1437.52  466.93 )">33</text></g><g ewd:figtype="w2w" ewd:figID="84" ewd:code="IL2"><path style="stroke-width:1.42 ;&st7;  " d=" M  1449.01,   375.16  L  1453.26,   379.41  L  1457.51,   375.16  " /><path style="stroke-width:1.42 ;&st7;  " d=" M  1457.51,   378.56  L  1453.26,   382.80  L  1449.01,   378.56  " /><text style="&st18;" transform="matrix(&st16;  1440.63  390.44 )">3</text></g><g ewd:figtype="annex" ewd:figID="201" ewd:code=" "><path style="stroke-width: 0.85 ;&st7;  " d=" M  1398.02,   633.51  L  1406.51,   633.51  " /><path style="stroke-width: 0.85 ;&st7;  " d=" M  1402.27,   622.18  L  1402.27,   630.68  " /><path style="stroke-width: 0.85 ;&st7;  " d=" M  1393.77,   630.68  L  1410.76,   630.68  " /><path style="stroke-width: 0.85 ;&st7;  " d=" M  1400.85,   639.18  L  1403.68,   639.18  " /><path style="stroke-width: 0.85 ;&st7;  " d=" M  1399.43,   636.35  L  1405.10,   636.35  " /></g></svg>