<?xml version="1.0" encoding="utf-8"?>
<!DOCTYPE svg PUBLIC "-//W3C//DTD SVG 1.0//EN" "http://www.w3.org/TR/2001/REC-SVG-20010904/DTD/svg10.dtd"[
	<!ENTITY ns_flows "http://ns.adobe.com/Flows/1.0/">
	<!ENTITY ns_svg "http://www.w3.org/2000/svg">
	<!ENTITY ns_xlink "http://www.w3.org/1999/xlink">
	<!ENTITY st0 "font-size:7px;font-family:'MS-PGothic';adobe-font-script:japanese;">
	<!ENTITY st1 "font-size:6px;font-family:'ArialMT';">
	<!-- White fill  -->
	<!ENTITY st2 "fill:#FFFFFF;stroke:#000000; stroke-width:1.41;stroke-linecap:round;stroke-linejoin:round;">
	<!-- Yellow fill  -->
	<!ENTITY st3 "fill:#FFFFCC;stroke:#FFFFCC; stroke-width:0.1;stroke-linecap:round;stroke-linejoin:round;">
	<!-- Gray fill  -->
	<!ENTITY st4 "fill:#CCCCCC;stroke:#CCCCCC; stroke-width:0.1;stroke-linecap:round;stroke-linejoin:round;">
	<!-- Light-blue fill -->
	<!ENTITY st5 "fill:#CCECF4;stroke:#000000; stroke-width:1.133;stroke-linecap:round;stroke-linejoin:round;">
	<!ENTITY st6 "fill:none;stroke-linecap:butt; stroke-linejoin:round;">
	<!ENTITY st7 "fill:none;stroke:#000000;stroke-linecap:round;stroke-linejoin:round;">
	<!ENTITY st8 "enable-background:new    ;">
	<!-- Black fill -->
	<!ENTITY st9 "fill:#000000;stroke:#000000; stroke-linecap:round;stroke-linejoin:round;">
	<!-- SRS note   -->
	<!ENTITY st10 "font-size:9px;font-family:'ArialMT';">
	<!ENTITY st11 "font-size:9px;font-family:'Svg Symbol';">
	<!ENTITY st12 "font-size:6px;font-family:'Svg Symbol';">
	<!ENTITY st13 "fill:none;stroke:#ff0000;stroke-linecap:round;stroke-linejoin:round;">
	<!-- Yellow fill  -->
	<!ENTITY st14 "fill:#FFFF00;stroke:#FFFF00; stroke-width:0.1;stroke-linecap:round;stroke-linejoin:round;">
	<!ENTITY st15 "font-size:6px;font-family:'MS-PGothic';adobe-font-script:japanese;">
	<!ENTITY st16 "1.00 0.00 0.00 1.00">
	<!ENTITY st17 "0.00 -1.00 1.00 0.00">
	<!ENTITY st18 "font-size:6px;font-family:'Arial';">
	<!ENTITY st19 "font-size:9px;font-family:'Arial';">
	<!ENTITY st20 "font-size:6px;font-family:'MS-PGothic','MS PGothic';adobe-font-script:japanese;">
	<!ENTITY st21 "font-size:7px;font-family:'MS-PGothic','MS PGothic';adobe-font-script:japanese;">
	<!ATTLIST svg
		xmlns:ewd CDATA #FIXED "http://shcl.co.jp/ewd"
		xmlns:a CDATA #FIXED "http://ns.adobe.com/AdobeSVGViewerExtensions/3.0/"
		ewd:ver CDATA #IMPLIED
	>
	<!ATTLIST a
		ewd:lineID CDATA #IMPLIED
		ewd:groupID CDATA #IMPLIED
		ewd:figtype CDATA #IMPLIED
		ewd:code CDATA #IMPLIED
		ewd:figID CDATA #IMPLIED
		ewd:pinNo CDATA #IMPLIED
		ewd:comment CDATA #IMPLIED >
	<!ATTLIST g
		ewd:lineID CDATA #IMPLIED
		ewd:groupID CDATA #IMPLIED
		ewd:figtype CDATA #IMPLIED
		ewd:code CDATA #IMPLIED
		ewd:figID CDATA #IMPLIED
		ewd:pinNo CDATA #IMPLIED
		ewd:comment CDATA #IMPLIED >
	<!ATTLIST text
		ewd:textID CDATA #IMPLIED >
	<!ATTLIST title
		ewd:textID CDATA #IMPLIED >
]>
<!-- Generator: Shintec Hozumi YS   -->
<svg onload="call_execInitLoadProc_svg('system')" style="overflow:visible;  enable-background:new 0 0 7245.579 710.000" viewBox="0 0 7245.579 710.000" height="710.000" width="7245.579" xml:space="preserve" ewd:ver="2.1.2.9" xmlns="&ns_svg;" xmlns:a="http://ns.adobe.com/AdobeSVGViewerExtensions/3.0/" xmlns:ewd="http://shcl.co.jp/ewd" xmlns:xlink="&ns_xlink;">
<path style="stroke-width:1.42 ;&st7;  " d=" M  4028.33,   460.71  L  4036.83,   460.71  " /><path style="stroke-width:1.42 ;&st7;  " d=" M  4164.30,   384.22  L  4172.80,   384.22  " /><path style="stroke-width:1.42 ;&st7;  " d=" M  4164.30,   469.21  L  4172.80,   469.21  " /><path style="stroke-width:1.42 ;&st7;  " d=" M  4181.30,   554.19  L  4172.80,   554.19  " /><path style="stroke-width:1.42 ;&st7;  " d=" M  4232.29,   384.22  L  4240.79,   384.22  " /><path style="stroke-width:1.42 ;&st7;  " d=" M  4232.29,   469.21  L  4240.79,   469.21  " /><path style="stroke-width:1.42 ;&st7;  " d=" M  4249.29,   554.19  L  4240.79,   554.19  " /><path style="stroke-width:1.42 ;&st7;  " d=" M  4300.28,   384.22  L  4308.78,   384.22  " /><path style="stroke-width:1.42 ;&st7;  " d=" M  4300.28,   469.21  L  4308.78,   469.21  " /><path style="stroke-width:1.42 ;&st7;  " d=" M  4317.28,   554.19  L  4308.78,   554.19  " /><path style="stroke-width:1.42 ;&st7;  " d=" M  4385.27,   384.22  L  4393.77,   384.22  " /><path style="stroke-width:1.42 ;&st7;  " d=" M  4385.27,   435.21  L  4393.77,   435.21  " /><path style="stroke-width: 0.85 ;&st7; stroke-dasharray:3, 1.5;" d=" M  4224.10,   541.44  L  4185.24,   541.44  " /><path style="stroke-width: 0.85 ;&st7; stroke-dasharray:3, 1.5;" d=" M  4224.10,   549.94  L  4185.24,   549.94  " /><path style="stroke-width: 0.85 ;&st7; stroke-dasharray:3, 1.5;" d=" M  4253.23,   541.44  L  4292.09,   541.44  " /><path style="stroke-width: 0.85 ;&st7; stroke-dasharray:3, 1.5;" d=" M  4292.09,   549.94  L  4253.23,   549.94  " /><text style="&st18;" transform="matrix(&st17;  4001.97  588.65 )">(*1)</text><text style="&st18;" transform="matrix(&st16;  4373.36  110.24 )">L25(A),L26(B)</text><text style="&st18;" transform="matrix(&st17;  4169.11  360.3 )">L</text><text style="&st18;" transform="matrix(&st17;  4169.11  577.01 )">L</text><text style="&st18;" transform="matrix(&st17;  4180.44  581.7 )">(*24)</text><text style="&st18;" transform="matrix(&st17;  4169.11  500.52 )">L</text><text style="&st18;" transform="matrix(&st17;  4180.44  512.39 )">(RHD *24)</text><text style="&st18;" transform="matrix(&st17;  4169.11  436.79 )">L</text><text style="&st18;" transform="matrix(&st17;  4180.44  448.65 )">(RHD *24)</text><text style="&st18;" transform="matrix(&st17;  4203.1  436.79 )">L</text><text style="&st18;" transform="matrix(&st17;  4214.43  448.61 )">(LHD *24)</text><text style="&st18;" transform="matrix(&st17;  4237.1  363.83 )">B-R</text><text style="&st18;" transform="matrix(&st17;  4237.1  580.54 )">B-R</text><text style="&st18;" transform="matrix(&st17;  4248.43  581.7 )">(*24)</text><text style="&st18;" transform="matrix(&st17;  4237.1  504.05 )">B-R</text><text style="&st18;" transform="matrix(&st17;  4248.43  512.39 )">(RHD *24)</text><text style="&st18;" transform="matrix(&st17;  4237.1  440.31 )">B-R</text><text style="&st18;" transform="matrix(&st17;  4248.43  448.65 )">(RHD *24)</text><text style="&st18;" transform="matrix(&st17;  4271.09  440.31 )">B-R</text><text style="&st18;" transform="matrix(&st17;  4282.42  448.61 )">(LHD *24)</text><text style="&st18;" transform="matrix(&st17;  4305.08  364.68 )">W-B</text><text style="&st18;" transform="matrix(&st17;  4305.08  581.39 )">W-B</text><text style="&st18;" transform="matrix(&st17;  4316.42  581.7 )">(*24)</text><text style="&st18;" transform="matrix(&st17;  4305.08  504.91 )">W-B</text><text style="&st18;" transform="matrix(&st17;  4316.42  512.39 )">(RHD *24)</text><text style="&st18;" transform="matrix(&st17;  4305.08  441.17 )">W-B</text><text style="&st18;" transform="matrix(&st17;  4316.42  448.65 )">(RHD *24)</text><text style="&st18;" transform="matrix(&st17;  4339.08  441.17 )">W-B</text><text style="&st18;" transform="matrix(&st17;  4350.41  448.61 )">(LHD *24)</text><text style="&st18;" transform="matrix(&st17;  4390.07  364.18 )">G-B</text><text style="&st18;" transform="matrix(&st17;  4390.07  415.17 )">G-B</text><text style="&st18;" transform="matrix(&st17;  4401.4  367.47 )">(*2,*3)</text><text style="&st18;" transform="matrix(&st17;  4401.4  418.46 )">(*2,*3)</text><text style="&st18;" transform="matrix(&st17;  4390.07  466.16 )">G-B</text><text style="&st18;" transform="matrix(&st17;  4401.4  469.45 )">(*2,*3)</text><text style="&st18;" transform="matrix(&st17;  4390.07  662.13 )">W-B</text><text style="&st18;" transform="matrix(&st17;  4401.4  664.92 )">(*2,*3)</text><text style="&st18;" transform="matrix(&st17;  4390.07  543.15 )">W-B</text><text style="&st18;" transform="matrix(&st17;  4401.4  545.94 )">(*2,*3)</text><text style="&st18;" transform="matrix(&st17;  4248.43  364.99 )">(*24)</text><text style="&st18;" transform="matrix(&st17;  4180.44  364.99 )">(*24)</text><text style="&st18;" transform="matrix(&st17;  4316.42  364.99 )">(*24)</text><text style="&st18;" transform="matrix(&st17;  4033.13  421.77 )">BR</text><text style="&st18;" transform="matrix(&st17;  4044.46  430.1 )">(RHD *1)</text><text style="&st18;" transform="matrix(&st17;  4033.13  498.25 )">BR</text><text style="&st18;" transform="matrix(&st17;  4044.46  506.59 )">(RHD *1)</text><text style="&st18;" transform="matrix(&st17;  4001.97  506.55 )">(LHD *1)</text><text style="&st18;" transform="matrix(&st17;  4001.97  660.89 )">(*1)</text><text style="&st18;" transform="matrix(&st16;  4373.36  117.07 )" ewd:textID="40">Combination Meter Assembly</text><text style="&st18;" transform="matrix(&st16;  4166.04  26.42 )">(*13)</text><text style="&st18;" transform="matrix(&st16;  4167.12  15.09 )">B-Y</text><text style="&st18;" transform="matrix(&st16;  4115.05  26.42 )">(*13)</text><text style="&st18;" transform="matrix(&st16;  4116.13  15.09 )">B-Y</text><g ewd:figtype="conn" ewd:figID="11" ewd:code="C29"><path style="stroke-width:1.42 ;&st7;  " d=" M  4155.80,   630.68  L  4325.78,   630.68  L  4325.78,   596.69  L  4155.80,   596.69  L  4155.80,   630.68  " /><g ewd:lineID="134"><text style="&st18;" transform="matrix(&st16;  4166.62  593.0 )">2</text><text style="&st18;" transform="matrix(&st16;  4164.06  604.32 )">VOUT</text></g><g ewd:lineID="139"><text style="&st18;" transform="matrix(&st16;  4234.61  593.0 )">3</text><text style="&st18;" transform="matrix(&st16;  4236.32  604.32 )">VC</text></g><g ewd:lineID="144"><text style="&st18;" transform="matrix(&st16;  4302.6  593.0 )">1</text><text style="&st18;" transform="matrix(&st16;  4302.13  604.32 )">GND</text></g><g ewd:figtype="title"><text style="&st18;" transform="matrix(&st16;  4152.39  638.57 )">C29</text><text style="&st18;" transform="matrix(&st16;  4152.4  645.4 )" ewd:textID="102">Oil Pressure Sender Gage Assembly</text></g></g><g ewd:figtype="conn" ewd:figID="12" ewd:code="C71"><path style="stroke-width:1.42 ;&st7;  " d=" M  4495.75,   554.19  L  4529.74,   554.19  L  4529.74,   520.20  L  4495.75,   520.20  L  4495.75,   554.19  " /></g><g ewd:figtype="conn" ewd:figID="13" ewd:code="A9"><path style="stroke-width:1.42 ;&st7;  " d=" M  4393.77,   504.62  L  4399.43,   481.95  " /><path style="stroke-width:0.85 ;&st7;  " d=" M  4393.77,   511.70  L  4393.77,   507.45  " /><path style="stroke-width:0.85 ;&st7;  " d=" M  4393.77,   481.95  L  4393.77,   477.71  " /><path style="stroke-width:0.85 ;&st7;   " d=" M  4395.18,   506.03  C  4395.18    505.25   4394.55    504.62   4393.77    504.62  " /><path style="stroke-width:0.85 ;&st7;   " d=" M  4393.77,   504.62  C  4392.98    504.62   4392.35    505.25   4392.35    506.03  " /><path style="stroke-width:0.85 ;&st7;   " d=" M  4392.35,   506.03  C  4392.35    506.82   4392.98    507.45   4393.77    507.45  " /><path style="stroke-width:0.85 ;&st7;   " d=" M  4393.77,   507.45  C  4394.55    507.45   4395.18    506.82   4395.18    506.03  " /><path style="stroke-width:0.85 ;&st7;   " d=" M  4395.18,   483.37  C  4395.18    482.59   4394.55    481.95   4393.77    481.95  " /><path style="stroke-width:0.85 ;&st7;   " d=" M  4393.77,   481.95  C  4392.98    481.95   4392.35    482.59   4392.35    483.37  " /><path style="stroke-width:0.85 ;&st7;   " d=" M  4392.35,   483.37  C  4392.35    484.15   4392.98    484.79   4393.77    484.79  " /><path style="stroke-width:0.85 ;&st7;   " d=" M  4393.77,   484.79  C  4394.55    484.79   4395.18    484.15   4395.18    483.37  " /><path style="stroke-width:1.42 ;&st7;  " d=" M  4402.26,   511.70  L  4402.26,   477.71  L  4385.27,   477.71  L  4385.27,   511.70  L  4402.26,   511.70  " /><text style="&st18;" transform="matrix(&st16;  4387.58  519.89 )">2</text><text style="&st18;" transform="matrix(&st16;  4387.58  474.02 )">1</text><g ewd:figtype="title"><text style="&st18;" transform="matrix(&st17;  4416.98  514.61 )" ewd:textID="67">Fuel Sediment Switch</text><text style="&st18;" transform="matrix(&st17;  4410.16  514.6 )">A9</text></g></g><g ewd:code="A23" ewd:figID="14" ewd:comment="3,7,6" ewd:figtype="conn"><path style="stroke-width:1.42 ;&st7;  " d=" M  4385.27,   596.69  L  4402.26,   596.69  L  4402.26,   613.68  L  4385.27,   613.68  L  4385.27,   596.69  " /><path style="stroke-width:0.85 ;&st7;  " d=" M  4393.76,   596.69  L  4393.76,   613.68  " /><text style="&st18;" transform="matrix(&st16;  4385.07  620.18 )">1</text><path style="stroke-width:1.42 ;&st7;   " d=" M  4398.30,   618.22  C  4398.30    615.71   4396.27    613.68   4393.77    613.68  " /><path style="stroke-width:1.42 ;&st7;   " d=" M  4393.77,   613.68  C  4391.26    613.68   4389.23    615.71   4389.23    618.22  " /><path style="stroke-width:1.42 ;&st7;   " d=" M  4389.23,   618.22  C  4389.23    620.72   4391.26    622.75   4393.77    622.75  " /><path style="stroke-width:1.42 ;&st7;   " d=" M  4393.77,   622.75  C  4396.27    622.75   4398.30    620.72   4398.30    618.22  " /><text style="&st18;" transform="matrix(&st16;  4391.46  620.18 )">A</text><text style="&st18;" transform="matrix(&st16;  4385.07  594.12 )">5</text><text style="&st18;" transform="matrix(&st16;  4385.07  575.99 )">4</text><text style="&st18;" transform="matrix(&st16;  4385.07  585.06 )">7</text><path style="stroke-width:1.42 ;&st7;   " d=" M  4398.30,   583.09  C  4398.30    580.58   4396.27    578.56   4393.77    578.56  " /><path style="stroke-width:1.42 ;&st7;   " d=" M  4393.77,   578.56  C  4391.26    578.56   4389.23    580.58   4389.23    583.09  " /><path style="stroke-width:1.42 ;&st7;   " d=" M  4389.23,   583.09  C  4389.23    585.59   4391.26    587.62   4393.77    587.62  " /><path style="stroke-width:1.42 ;&st7;   " d=" M  4393.77,   587.62  C  4396.27    587.62   4398.30    585.59   4398.30    583.09  " /><path style="stroke-width:1.42 ;&st7;   " d=" M  4398.30,   592.15  C  4398.30    589.65   4396.27    587.62   4393.77    587.62  " /><path style="stroke-width:1.42 ;&st7;   " d=" M  4393.77,   587.62  C  4391.26    587.62   4389.23    589.65   4389.23    592.15  " /><path style="stroke-width:1.42 ;&st7;   " d=" M  4389.23,   592.15  C  4389.23    594.66   4391.26    596.69   4393.77    596.69  " /><path style="stroke-width:1.42 ;&st7;   " d=" M  4393.77,   596.69  C  4396.27    596.69   4398.30    594.66   4398.30    592.15  " /><text style="&st18;" transform="matrix(&st16;  4391.46  575.99 )">A</text><path style="stroke-width:1.42 ;&st7;   " d=" M  4398.30,   574.02  C  4398.30    571.52   4396.27    569.49   4393.77    569.49  " /><path style="stroke-width:1.42 ;&st7;   " d=" M  4393.77,   569.49  C  4391.26    569.49   4389.23    571.52   4389.23    574.02  " /><path style="stroke-width:1.42 ;&st7;   " d=" M  4389.23,   574.02  C  4389.23    576.53   4391.26    578.56   4393.77    578.56  " /><path style="stroke-width:1.42 ;&st7;   " d=" M  4393.77,   578.56  C  4396.27    578.56   4398.30    576.53   4398.30    574.02  " /><text style="&st18;" transform="matrix(&st16;  4391.46  594.12 )">A</text><text style="&st18;" transform="matrix(&st16;  4391.46  585.06 )">A</text><g ewd:figtype="title"><text style="&st18;" transform="matrix(&st17;  4375.62  616.59 )" ewd:textID="78">No. 2 Junction <tspan x="0 " dy="6.0">Connector</tspan></text><text style="&st18;" transform="matrix(&st17;  4368.8  616.58 )">A23(A)</text></g><g ewd:code="" ewd:figID="307" ewd:comment="7" ewd:figtype="commref"><text style="&st18;" transform="matrix(&st16;  4398.86  594.12 )">(*7)</text></g><g ewd:code="" ewd:figID="308" ewd:comment="6" ewd:figtype="commref"><text style="&st18;" transform="matrix(&st16;  4398.86  585.06 )">(*6)</text></g><g ewd:code="" ewd:figID="309" ewd:comment="3" ewd:figtype="commref"><text style="&st18;" transform="matrix(&st16;  4398.86  575.99 )">(*3)</text></g></g><g ewd:figtype="w2w" ewd:figID="134" ewd:code="AI3"><path style="stroke-width:1.42 ;&st7;  " d=" M  4032.57,   451.64  L  4036.82,   455.89  L  4041.07,   451.64  " /><path style="stroke-width:1.42 ;&st7;  " d=" M  4041.07,   455.04  L  4036.82,   459.29  L  4032.57,   455.04  " /><text style="&st18;" transform="matrix(&st16;  4021.09  466.93 )">56</text></g><g ewd:figtype="w2w" ewd:figID="135" ewd:code="AC8"><path style="stroke-width:1.42 ;&st7;  " d=" M  4177.05,   559.86  L  4172.80,   555.61  L  4168.55,   559.86  " /><path style="stroke-width:1.42 ;&st7;  " d=" M  4177.05,   563.26  L  4172.80,   559.01  L  4168.55,   563.26  " /><text style="&st18;" transform="matrix(&st16;  4160.17  551.91 )">8</text></g><g ewd:figtype="w2w" ewd:figID="136" ewd:code="IC3"><text style="&st18;" transform="matrix(&st16;  4160.17  543.41 )">5</text></g><g ewd:figtype="w2w" ewd:figID="137" ewd:code="AI3"><path style="stroke-width:1.42 ;&st7;  " d=" M  4168.55,   460.14  L  4172.80,   464.39  L  4177.05,   460.14  " /><path style="stroke-width:1.42 ;&st7;  " d=" M  4177.05,   463.54  L  4172.80,   467.79  L  4168.55,   463.54  " /><text style="&st18;" transform="matrix(&st16;  4157.07  475.43 )">22</text></g><g ewd:figtype="w2w" ewd:figID="138" ewd:code="IL1"><path style="stroke-width:1.42 ;&st7;  " d=" M  4177.05,   378.56  L  4172.80,   382.80  L  4168.55,   378.56  " /><path style="stroke-width:1.42 ;&st7;  " d=" M  4168.55,   375.16  L  4172.80,   379.41  L  4177.05,   375.16  " /><text style="&st18;" transform="matrix(&st16;  4157.07  390.44 )">10</text></g><g ewd:figtype="w2w" ewd:figID="139" ewd:code="AC8"><path style="stroke-width:1.42 ;&st7;  " d=" M  4245.04,   559.86  L  4240.79,   555.61  L  4236.54,   559.86  " /><path style="stroke-width:1.42 ;&st7;  " d=" M  4245.04,   563.26  L  4240.79,   559.01  L  4236.54,   563.26  " /><text style="&st18;" transform="matrix(&st16;  4228.16  551.91 )">3</text></g><g ewd:figtype="w2w" ewd:figID="140" ewd:code="IC3"><text style="&st18;" transform="matrix(&st16;  4228.16  543.41 )">1</text></g><g ewd:figtype="w2w" ewd:figID="141" ewd:code="AI3"><path style="stroke-width:1.42 ;&st7;  " d=" M  4236.54,   460.14  L  4240.79,   464.39  L  4245.04,   460.14  " /><path style="stroke-width:1.42 ;&st7;  " d=" M  4245.04,   463.54  L  4240.79,   467.79  L  4236.54,   463.54  " /><text style="&st18;" transform="matrix(&st16;  4225.06  475.43 )">11</text></g><g ewd:figtype="w2w" ewd:figID="142" ewd:code="IL1"><path style="stroke-width:1.42 ;&st7;  " d=" M  4245.04,   378.56  L  4240.79,   382.80  L  4236.54,   378.56  " /><path style="stroke-width:1.42 ;&st7;  " d=" M  4236.54,   375.16  L  4240.79,   379.41  L  4245.04,   375.16  " /><text style="&st18;" transform="matrix(&st16;  4225.06  390.44 )">16</text></g><g ewd:figtype="w2w" ewd:figID="143" ewd:code="AC8"><path style="stroke-width:1.42 ;&st7;  " d=" M  4313.03,   559.86  L  4308.78,   555.61  L  4304.53,   559.86  " /><path style="stroke-width:1.42 ;&st7;  " d=" M  4313.03,   563.26  L  4308.78,   559.01  L  4304.53,   563.26  " /><text style="&st18;" transform="matrix(&st16;  4296.15  551.91 )">4</text></g><g ewd:figtype="w2w" ewd:figID="144" ewd:code="IC3"><text style="&st18;" transform="matrix(&st16;  4296.15  543.41 )">6</text></g><g ewd:figtype="w2w" ewd:figID="145" ewd:code="AI3"><path style="stroke-width:1.42 ;&st7;  " d=" M  4304.53,   460.14  L  4308.78,   464.39  L  4313.03,   460.14  " /><path style="stroke-width:1.42 ;&st7;  " d=" M  4313.03,   463.54  L  4308.78,   467.79  L  4304.53,   463.54  " /><text style="&st18;" transform="matrix(&st16;  4293.05  475.43 )">26</text></g><g ewd:figtype="w2w" ewd:figID="146" ewd:code="IL1"><path style="stroke-width:1.42 ;&st7;  " d=" M  4313.03,   378.56  L  4308.78,   382.80  L  4304.53,   378.56  " /><path style="stroke-width:1.42 ;&st7;  " d=" M  4304.53,   375.16  L  4308.78,   379.41  L  4313.03,   375.16  " /><text style="&st18;" transform="matrix(&st16;  4296.15  390.44 )">8</text></g><g ewd:figtype="w2w" ewd:figID="147" ewd:code="AI3"><path style="stroke-width:1.42 ;&st7;  " d=" M  4398.01,   429.55  L  4393.76,   433.80  L  4389.51,   429.55  " /><path style="stroke-width:1.42 ;&st7;  " d=" M  4389.51,   426.15  L  4393.76,   430.40  L  4398.01,   426.15  " /><text style="&st18;" transform="matrix(&st16;  4378.03  441.43 )">32</text></g><g ewd:figtype="w2w" ewd:figID="148" ewd:code="IL1"><path style="stroke-width:1.42 ;&st7;  " d=" M  4398.01,   378.56  L  4393.76,   382.80  L  4389.51,   378.56  " /><path style="stroke-width:1.42 ;&st7;  " d=" M  4389.51,   375.16  L  4393.76,   379.41  L  4398.01,   375.16  " /><text style="&st18;" transform="matrix(&st16;  4378.03  390.44 )">17</text></g><g ewd:figtype="w2w" ewd:figID="151" ewd:code="IL1"><path style="stroke-width:1.42 ;&st7;  " d=" M  4516.99,   378.56  L  4512.74,   382.80  L  4508.49,   378.56  " /><path style="stroke-width:1.42 ;&st7;  " d=" M  4508.49,   375.16  L  4512.74,   379.41  L  4516.99,   375.16  " /><text style="&st18;" transform="matrix(&st16;  4497.01  390.44 )">60</text></g><g ewd:figtype="gp" ewd:figID="179" ewd:code="AA"><path style="stroke-width:0.85 ;&st7;  " d=" M  4393.76,   697.25  L  4393.76,   701.50  " /><path style="stroke-width:0.85 ;&st7;  " d=" M  4385.27,   701.50  L  4402.26,   701.50  " /><path style="stroke-width:0.85 ;&st7;  " d=" M  4389.51,   704.33  L  4398.01,   704.33  " /><path style="stroke-width:0.85 ;&st7;  " d=" M  4390.93,   707.17  L  4396.60,   707.17  " /><path style="stroke-width:0.85 ;&st7;  " d=" M  4392.35,   710.00  L  4395.18,   710.00  " /></g><g ewd:code="" ewd:figID="257" ewd:comment="" ewd:figtype="commref"><text style="&st18;" transform="matrix(&st16;  4317.81  551.91 )">(RHD)</text></g><g ewd:code="" ewd:figID="258" ewd:comment="" ewd:figtype="commref"><text style="&st18;" transform="matrix(&st16;  4317.81  543.41 )">(LHD)</text></g></svg>