<?xml version="1.0" encoding="utf-8"?>
<!DOCTYPE svg PUBLIC "-//W3C//DTD SVG 1.0//EN" "http://www.w3.org/TR/2001/REC-SVG-20010904/DTD/svg10.dtd"[
	<!ENTITY ns_flows "http://ns.adobe.com/Flows/1.0/">
	<!ENTITY ns_svg "http://www.w3.org/2000/svg">
	<!ENTITY ns_xlink "http://www.w3.org/1999/xlink">
	<!ENTITY st0 "font-size:7px;font-family:'MS-PGothic';adobe-font-script:japanese;">
	<!ENTITY st1 "font-size:6px;font-family:'ArialMT';">
	<!-- White fill  -->
	<!ENTITY st2 "fill:#FFFFFF;stroke:#000000; stroke-width:1.41;stroke-linecap:round;stroke-linejoin:round;">
	<!-- Yellow fill  -->
	<!ENTITY st3 "fill:#FFFFCC;stroke:#FFFFCC; stroke-width:0.1;stroke-linecap:round;stroke-linejoin:round;">
	<!-- Gray fill  -->
	<!ENTITY st4 "fill:#CCCCCC;stroke:#CCCCCC; stroke-width:0.1;stroke-linecap:round;stroke-linejoin:round;">
	<!-- Light-blue fill -->
	<!ENTITY st5 "fill:#CCECF4;stroke:#000000; stroke-width:1.133;stroke-linecap:round;stroke-linejoin:round;">
	<!ENTITY st6 "fill:none;stroke-linecap:butt; stroke-linejoin:round;">
	<!ENTITY st7 "fill:none;stroke:#000000;stroke-linecap:round;stroke-linejoin:round;">
	<!ENTITY st8 "enable-background:new    ;">
	<!-- Black fill -->
	<!ENTITY st9 "fill:#000000;stroke:#000000; stroke-linecap:round;stroke-linejoin:round;">
	<!-- SRS note   -->
	<!ENTITY st10 "font-size:9px;font-family:'ArialMT';">
	<!ENTITY st11 "font-size:9px;font-family:'Svg Symbol';">
	<!ENTITY st12 "font-size:6px;font-family:'Svg Symbol';">
	<!ENTITY st13 "fill:none;stroke:#ff0000;stroke-linecap:round;stroke-linejoin:round;">
	<!-- Yellow fill  -->
	<!ENTITY st14 "fill:#FFFF00;stroke:#FFFF00; stroke-width:0.1;stroke-linecap:round;stroke-linejoin:round;">
	<!ENTITY st15 "font-size:6px;font-family:'MS-PGothic';adobe-font-script:japanese;">
	<!ENTITY st16 "1.00 0.00 0.00 1.00">
	<!ENTITY st17 "0.00 -1.00 1.00 0.00">
	<!ENTITY st18 "font-size:6px;font-family:'Arial';">
	<!ENTITY st19 "font-size:9px;font-family:'Arial';">
	<!ENTITY st20 "font-size:6px;font-family:'MS-PGothic','MS PGothic';adobe-font-script:japanese;">
	<!ENTITY st21 "font-size:7px;font-family:'MS-PGothic','MS PGothic';adobe-font-script:japanese;">
	<!ATTLIST svg
		xmlns:ewd CDATA #FIXED "http://shcl.co.jp/ewd"
		xmlns:a CDATA #FIXED "http://ns.adobe.com/AdobeSVGViewerExtensions/3.0/"
		ewd:ver CDATA #IMPLIED
	>
	<!ATTLIST a
		ewd:lineID CDATA #IMPLIED
		ewd:groupID CDATA #IMPLIED
		ewd:figtype CDATA #IMPLIED
		ewd:code CDATA #IMPLIED
		ewd:figID CDATA #IMPLIED
		ewd:pinNo CDATA #IMPLIED
		ewd:comment CDATA #IMPLIED >
	<!ATTLIST g
		ewd:lineID CDATA #IMPLIED
		ewd:groupID CDATA #IMPLIED
		ewd:figtype CDATA #IMPLIED
		ewd:code CDATA #IMPLIED
		ewd:figID CDATA #IMPLIED
		ewd:pinNo CDATA #IMPLIED
		ewd:comment CDATA #IMPLIED >
	<!ATTLIST text
		ewd:textID CDATA #IMPLIED >
	<!ATTLIST title
		ewd:textID CDATA #IMPLIED >
]>
<!-- Generator: Shintec Hozumi YS   -->
<svg onload="call_execInitLoadProc_svg('system')" style="overflow:visible;  enable-background:new 0 0 7245.579 710.000" viewBox="0 0 7245.579 710.000" height="710.000" width="7245.579" xml:space="preserve" ewd:ver="2.1.2.9" xmlns="&ns_svg;" xmlns:a="http://ns.adobe.com/AdobeSVGViewerExtensions/3.0/" xmlns:ewd="http://shcl.co.jp/ewd" xmlns:xlink="&ns_xlink;">
<path style="stroke-width:1.42 ;&st7;  " d=" M  2779.04,   469.21  L  2770.54,   469.21  " /><path style="stroke-width:1.42 ;&st7;  " d=" M  2762.04,   537.20  L  2770.54,   537.20  " /><path style="stroke-width:1.42 ;&st7;  " d=" M  2685.55,   409.72  L  2677.05,   409.72  " /><path style="stroke-width:1.42 ;&st7;  " d=" M  2668.55,   511.70  L  2660.06,   511.70  " /><path style="stroke-width:1.42 ;&st7;  " d=" M  2651.56,   579.69  L  2660.06,   579.69  " /><path style="stroke-width:1.42 ;&st7;  " d=" M  2932.01,   477.71  L  2940.51,   477.71  " /><path style="stroke-width:1.42 ;&st7;  " d=" M  2991.50,   392.72  L  2983.00,   392.72  " /><text style="&st18;" transform="matrix(&st17;  2642.2  466.97 )">(*11)</text><text style="&st18;" transform="matrix(&st17;  2778.17  606.98 )">(*9,*10)</text><text style="&st18;" transform="matrix(&st17;  2766.84  600.24 )">BR</text><text style="&st18;" transform="matrix(&st16;  2705.83  570.33 )">(*8)</text><text style="&st18;" transform="matrix(&st16;  2707.0  558.99 )">BR</text><text style="&st18;" transform="matrix(&st16;  2826.62  117.07 )" ewd:textID="40">Combination Meter Assembly</text><text style="&st18;" transform="matrix(&st17;  2766.84  506.75 )">BR</text><text style="&st18;" transform="matrix(&st17;  2778.17  513.5 )">(*9,*10)</text><text style="&st18;" transform="matrix(&st17;  2778.18  451.09 )">(*9,*10,*12)</text><text style="&st18;" transform="matrix(&st17;  2766.84  438.76 )">BR</text><text style="&st18;" transform="matrix(&st17;  2630.86  464.26 )">BR</text><text style="&st18;" transform="matrix(&st17;  2673.36  379.27 )">BR</text><text style="&st18;" transform="matrix(&st17;  2684.69  386.02 )">(*8,*11)</text><text style="&st18;" transform="matrix(&st17;  2673.36  464.26 )">BR</text><text style="&st18;" transform="matrix(&st17;  2684.69  465.42 )">(*8)</text><text style="&st18;" transform="matrix(&st17;  2656.36  549.24 )">BR</text><text style="&st18;" transform="matrix(&st17;  2667.69  551.96 )">(*11)</text><text style="&st18;" transform="matrix(&st17;  2630.86  549.24 )">BR</text><text style="&st18;" transform="matrix(&st17;  2642.2  551.96 )">(*12)</text><text style="&st18;" transform="matrix(&st17;  2936.81  455.76 )">BR</text><text style="&st18;" transform="matrix(&st17;  2948.14  456.92 )">(*3)</text><text style="&st18;" transform="matrix(&st17;  2979.31  455.76 )">BR</text><text style="&st18;" transform="matrix(&st17;  2990.64  464.06 )">(LHD *1)</text><text style="&st18;" transform="matrix(&st16;  2855.72  421.88 )">BR</text><text style="&st18;" transform="matrix(&st16;  2839.32  433.22 )">(RHD *1,*2,*3)</text><text style="&st18;" transform="matrix(&st16;  2855.72  447.38 )">BR</text><text style="&st18;" transform="matrix(&st16;  2847.43  458.71 )">(LHD *1)</text><text style="&st18;" transform="matrix(&st17;  2936.81  515.25 )">BR</text><text style="&st18;" transform="matrix(&st17;  2948.14  516.41 )">(*3)</text><text style="&st18;" transform="matrix(&st16;  2707.0  482.51 )">BR</text><text style="&st18;" transform="matrix(&st16;  2704.28  493.84 )">(*12)</text><text style="&st18;" transform="matrix(&st17;  2732.85  438.76 )">BR</text><text style="&st18;" transform="matrix(&st16;  2607.0  592.99 )">BR(*12)</text><text style="&st18;" transform="matrix(&st16;  2556.01  592.99 )">BR(*12)</text><text style="&st18;" transform="matrix(&st16;  2613.51  694.97 )">BR</text><text style="&st18;" transform="matrix(&st16;  2562.52  694.97 )">BR</text><text style="&st18;" transform="matrix(&st16;  2595.44  609.99 )">Y-G(RHD *1,*2)</text><text style="&st18;" transform="matrix(&st16;  2544.45  609.99 )">Y-G(RHD *1,*2)</text><text style="&st18;" transform="matrix(&st16;  2603.28  626.98 )">Y(LHD *1)</text><text style="&st18;" transform="matrix(&st16;  2552.29  626.98 )">Y(LHD *1)</text><text style="&st18;" transform="matrix(&st16;  2606.65  643.98 )">Y-G(*3)</text><text style="&st18;" transform="matrix(&st16;  2555.66  643.98 )">Y-G(*3)</text><text style="&st18;" transform="matrix(&st16;  2602.97  660.98 )">BR(*8,*11)</text><text style="&st18;" transform="matrix(&st16;  2551.98  660.98 )">BR(*8,*11)</text><text style="&st18;" transform="matrix(&st16;  2602.97  677.97 )">BR(*9,*10)</text><text style="&st18;" transform="matrix(&st16;  2551.98  677.97 )">BR(*9,*10)</text><text style="&st18;" transform="matrix(&st16;  2610.8  26.42 )">(*13)</text><text style="&st18;" transform="matrix(&st16;  2611.88  15.09 )">B-Y</text><text style="&st18;" transform="matrix(&st16;  2559.81  26.42 )">(*13)</text><text style="&st18;" transform="matrix(&st16;  2560.89  15.09 )">B-Y</text><text style="&st18;" transform="matrix(&st16;  2826.61  110.24 )">L25(A),L26(B)</text><g ewd:figtype="conn" ewd:figID="6" ewd:code="I66,I70"><path style="stroke-width: 0.85 ;&st7; stroke-dasharray:3, 1.5;" d=" M  2753.54,   397.25  L  2745.04,   397.25  " /><path style="stroke-width: 0.85 ;&st7; stroke-dasharray:3, 1.5;" d=" M  2779.03,   397.25  L  2804.53,   397.25  " /><path style="stroke-width: 0.85 ;&st7; stroke-dasharray:3, 1.5;" d=" M  2745.04,   406.32  L  2753.54,   406.32  " /><path style="stroke-width: 0.85 ;&st7; stroke-dasharray:3, 1.5;" d=" M  2779.03,   406.32  L  2804.53,   406.32  " /><path style="stroke-width:0.85 ;&st7;  " d=" M  2769.34,   383.22  L  2769.07,   383.69  L  2768.98,   384.22  L  2769.07,   384.75  L  2769.34,   385.22  L  2769.76,   385.57  L  2770.26,   385.76  L  2770.81,   385.76  L  2771.31,   385.57  L  2771.73,   385.22  L  2772.00,   384.75  L  2772.09,   384.22  L  2772.00,   383.69  L  2771.73,   383.22  L  2771.31,   382.87  L  2770.81,   382.69  L  2770.26,   382.69  L  2769.76,   382.87  L  2769.34,   383.22  L  2769.74,   383.93  L  2769.74,   384.51  L  2770.11,   384.96  L  2770.68,   385.06  L  2771.19,   384.77  L  2771.39,   384.22  L  2771.19,   383.67  L  2770.68,   383.39  L  2770.11,   383.48  L  2770.54,   384.22  " /><path style="stroke-width:0.85 ;&st7;  " d=" M  2770.54,   384.22  L  2770.54,   392.72  " /><path style="stroke-width:0.85 ;&st7;  " d=" M  2736.54,   392.72  L  2736.54,   384.22  L  2821.53,   384.22  L  2821.53,   392.72  " /><path style="stroke-width:1.42 ;&st7;  " d=" M  2728.04,   392.72  L  2830.03,   392.72  L  2830.03,   375.72  L  2728.04,   375.72  L  2728.04,   392.72  " /><text style="&st18;" transform="matrix(&st16;  2724.75  408.29 )">22</text><text style="&st18;" transform="matrix(&st16;  2724.75  399.22 )">12</text><path style="stroke-width:1.42 ;&st7;   " d=" M  2741.08,   397.25  C  2741.08    394.75   2739.05    392.72   2736.54    392.72  " /><path style="stroke-width:1.42 ;&st7;   " d=" M  2736.54,   392.72  C  2734.04    392.72   2732.01    394.75   2732.01    397.25  " /><path style="stroke-width:1.42 ;&st7;   " d=" M  2732.01,   397.25  C  2732.01    399.76   2734.04    401.78   2736.54    401.78  " /><path style="stroke-width:1.42 ;&st7;   " d=" M  2736.54,   401.78  C  2739.05    401.78   2741.08    399.76   2741.08    397.25  " /><path style="stroke-width:1.42 ;&st7;   " d=" M  2741.08,   406.32  C  2741.08    403.81   2739.05    401.78   2736.54    401.78  " /><path style="stroke-width:1.42 ;&st7;   " d=" M  2736.54,   401.78  C  2734.04    401.78   2732.01    403.81   2732.01    406.32  " /><path style="stroke-width:1.42 ;&st7;   " d=" M  2732.01,   406.32  C  2732.01    408.82   2734.04    410.85   2736.54    410.85  " /><path style="stroke-width:1.42 ;&st7;   " d=" M  2736.54,   410.85  C  2739.05    410.85   2741.08    408.82   2741.08    406.32  " /><text style="&st18;" transform="matrix(&st16;  2734.12  408.29 )">C</text><text style="&st18;" transform="matrix(&st16;  2734.24  399.22 )">A</text><text style="&st18;" transform="matrix(&st16;  2758.74  399.22 )">13</text><text style="&st18;" transform="matrix(&st16;  2758.74  408.29 )">21</text><text style="&st18;" transform="matrix(&st16;  2768.23  399.22 )">A</text><path style="stroke-width:1.42 ;&st7;   " d=" M  2775.07,   406.32  C  2775.07    403.81   2773.04    401.78   2770.54    401.78  " /><path style="stroke-width:1.42 ;&st7;   " d=" M  2770.54,   401.78  C  2768.03    401.78   2766.00    403.81   2766.00    406.32  " /><path style="stroke-width:1.42 ;&st7;   " d=" M  2766.00,   406.32  C  2766.00    408.82   2768.03    410.85   2770.54    410.85  " /><path style="stroke-width:1.42 ;&st7;   " d=" M  2770.54,   410.85  C  2773.04    410.85   2775.07    408.82   2775.07    406.32  " /><path style="stroke-width:1.42 ;&st7;   " d=" M  2775.07,   397.25  C  2775.07    394.75   2773.04    392.72   2770.54    392.72  " /><path style="stroke-width:1.42 ;&st7;   " d=" M  2770.54,   392.72  C  2768.03    392.72   2766.00    394.75   2766.00    397.25  " /><path style="stroke-width:1.42 ;&st7;   " d=" M  2766.00,   397.25  C  2766.00    399.76   2768.03    401.78   2770.54    401.78  " /><path style="stroke-width:1.42 ;&st7;   " d=" M  2770.54,   401.78  C  2773.04    401.78   2775.07    399.76   2775.07    397.25  " /><text style="&st18;" transform="matrix(&st16;  2768.12  408.29 )">C</text><text style="&st18;" transform="matrix(&st16;  2809.73  399.22 )">14</text><text style="&st18;" transform="matrix(&st16;  2809.73  408.29 )">20</text><text style="&st18;" transform="matrix(&st16;  2819.22  399.22 )">A</text><text style="&st18;" transform="matrix(&st16;  2819.11  408.29 )">C</text><path style="stroke-width:1.42 ;&st7;   " d=" M  2826.06,   406.32  C  2826.06    403.81   2824.03    401.78   2821.53    401.78  " /><path style="stroke-width:1.42 ;&st7;   " d=" M  2821.53,   401.78  C  2819.03    401.78   2817.00    403.81   2817.00    406.32  " /><path style="stroke-width:1.42 ;&st7;   " d=" M  2817.00,   406.32  C  2817.00    408.82   2819.03    410.85   2821.53    410.85  " /><path style="stroke-width:1.42 ;&st7;   " d=" M  2821.53,   410.85  C  2824.03    410.85   2826.06    408.82   2826.06    406.32  " /><path style="stroke-width:1.42 ;&st7;   " d=" M  2826.06,   397.25  C  2826.06    394.75   2824.03    392.72   2821.53    392.72  " /><path style="stroke-width:1.42 ;&st7;   " d=" M  2821.53,   392.72  C  2819.03    392.72   2817.00    394.75   2817.00    397.25  " /><path style="stroke-width:1.42 ;&st7;   " d=" M  2817.00,   397.25  C  2817.00    399.76   2819.03    401.78   2821.53    401.78  " /><path style="stroke-width:1.42 ;&st7;   " d=" M  2821.53,   401.78  C  2824.03    401.78   2826.06    399.76   2826.06    397.25  " /><g ewd:figtype="title"><text style="&st18;" transform="matrix(&st16;  2724.64  372.03 )" ewd:textID="87">No. 15 Junction Connector</text><text style="&st18;" transform="matrix(&st16;  2724.63  365.2 )">I66(C)</text><text style="&st18;" transform="matrix(&st16;  2724.64  357.86 )" ewd:textID="93">No. 19 Junction Connector</text><text style="&st18;" transform="matrix(&st16;  2724.63  351.04 )">I70(A)</text></g><g ewd:code="" ewd:figID="230" ewd:comment="" ewd:figtype="commref"><text style="&st18;" transform="matrix(&st16;  2826.62  408.29 )">(RHD)</text></g><g ewd:code="" ewd:figID="231" ewd:comment="" ewd:figtype="commref"><text style="&st18;" transform="matrix(&st16;  2826.62  399.22 )">(LHD)</text></g></g><g ewd:figtype="conn" ewd:figID="28" ewd:code="C97"><path style="stroke-width:0.85 ;&st7;  " d=" M  2989.38,   551.65  L  2976.63,   573.73  " /><path style="stroke-width:0.85 ;&st7;  " d=" M  2976.63,   573.73  L  2979.67,   571.40  L  2977.13,   569.93  L  2976.63,   573.73  L  2977.37,   572.45  L  2978.65,   571.46  L  2977.58,   570.85  L  2977.37,   572.45  L  2977.74,   571.81  L  2978.14,   571.50  L  2977.80,   571.30  L  2977.74,   571.81  " /><path style="stroke-width:0.85 ;&st7;  " d=" M  2983.00,   579.69  L  2983.00,   571.19  L  2980.17,   569.77  L  2985.83,   566.94  L  2980.17,   564.11  L  2985.83,   561.27  L  2980.17,   558.44  L  2985.83,   555.61  L  2983.00,   554.19  L  2983.00,   545.69  " /><path style="stroke-width:1.42 ;&st7;  " d=" M  2974.50,   579.69  L  2991.50,   579.69  L  2991.50,   545.69  L  2974.50,   545.69  L  2974.50,   579.69  " /><text style="&st18;" transform="matrix(&st16;  2976.82  587.88 )">2</text><text style="&st18;" transform="matrix(&st16;  2976.82  542.0 )">1</text><g ewd:figtype="title"><text style="&st18;" transform="matrix(&st17;  2999.39  582.59 )">C97</text><text style="&st18;" transform="matrix(&st17;  3006.22  582.59 )" ewd:textID="68">Fuel Sender <tspan x="0 " dy="6.0">Gage Assembly </tspan><tspan x="0 " dy="6.0">(Front)</tspan></text></g></g><g ewd:figtype="w2w" ewd:figID="98" ewd:code="XT1"><path style="stroke-width:1.42 ;&st7;  " d=" M  2655.81,   570.62  L  2660.05,   574.87  L  2664.30,   570.62  " /><path style="stroke-width:1.42 ;&st7;  " d=" M  2664.30,   574.02  L  2660.05,   578.27  L  2655.81,   574.02  " /><text style="&st18;" transform="matrix(&st16;  2647.42  585.91 )">1</text></g><g ewd:figtype="w2w" ewd:figID="99" ewd:code="ST2"><path style="stroke-width:1.42 ;&st7;  " d=" M  2664.30,   520.77  L  2660.05,   516.52  L  2655.81,   520.77  " /><path style="stroke-width:1.42 ;&st7;  " d=" M  2664.30,   517.37  L  2660.05,   513.12  L  2655.81,   517.37  " /><text style="&st18;" transform="matrix(&st16;  2647.42  509.42 )">7</text></g><g ewd:figtype="w2w" ewd:figID="100" ewd:code="LS1"><path style="stroke-width:1.42 ;&st7;  " d=" M  2681.30,   418.78  L  2677.05,   414.53  L  2672.80,   418.78  " /><path style="stroke-width:1.42 ;&st7;  " d=" M  2681.30,   415.38  L  2677.05,   411.13  L  2672.80,   415.38  " /><text style="&st18;" transform="matrix(&st16;  2661.32  407.44 )">13</text></g><g ewd:figtype="w2w" ewd:figID="101" ewd:code="TS2"><path style="stroke-width:1.42 ;&st7;  " d=" M  2766.29,   528.13  L  2770.54,   532.38  L  2774.79,   528.13  " /><path style="stroke-width:1.42 ;&st7;  " d=" M  2774.79,   531.53  L  2770.54,   535.78  L  2766.29,   531.53  " /><text style="&st18;" transform="matrix(&st16;  2757.91  543.41 )">6</text></g><g ewd:figtype="w2w" ewd:figID="102" ewd:code="IS1"><path style="stroke-width:1.42 ;&st7;  " d=" M  2774.79,   474.87  L  2770.54,   470.62  L  2766.29,   474.87  " /><path style="stroke-width:1.42 ;&st7;  " d=" M  2774.79,   478.27  L  2770.54,   474.02  L  2766.29,   478.27  " /><text style="&st18;" transform="matrix(&st16;  2754.8  466.93 )">24</text></g><g ewd:figtype="w2w" ewd:figID="103" ewd:code="CA2"><path style="stroke-width:1.42 ;&st7;  " d=" M  2936.26,   468.64  L  2940.51,   472.89  L  2944.76,   468.64  " /><path style="stroke-width:1.42 ;&st7;  " d=" M  2944.76,   472.04  L  2940.51,   476.29  L  2936.26,   472.04  " /><text style="&st18;" transform="matrix(&st16;  2927.88  483.92 )">2</text></g><g ewd:figtype="w2w" ewd:figID="104" ewd:code="IC1"><path style="stroke-width:1.42 ;&st7;  " d=" M  2987.25,   401.78  L  2983.00,   397.54  L  2978.75,   401.78  " /><path style="stroke-width:1.42 ;&st7;  " d=" M  2987.25,   398.39  L  2983.00,   394.14  L  2978.75,   398.39  " /><text style="&st18;" transform="matrix(&st16;  2970.37  390.44 )">2</text></g></svg>