<?xml version="1.0" encoding="utf-8"?>
<!DOCTYPE svg PUBLIC "-//W3C//DTD SVG 1.0//EN" "http://www.w3.org/TR/2001/REC-SVG-20010904/DTD/svg10.dtd"[
	<!ENTITY ns_flows "http://ns.adobe.com/Flows/1.0/">
	<!ENTITY ns_svg "http://www.w3.org/2000/svg">
	<!ENTITY ns_xlink "http://www.w3.org/1999/xlink">
	<!ENTITY st0 "font-size:7px;font-family:'MS-PGothic';adobe-font-script:japanese;">
	<!ENTITY st1 "font-size:6px;font-family:'ArialMT';">
	<!-- White fill  -->
	<!ENTITY st2 "fill:#FFFFFF;stroke:#000000; stroke-width:1.41;stroke-linecap:round;stroke-linejoin:round;">
	<!-- Yellow fill  -->
	<!ENTITY st3 "fill:#FFFFCC;stroke:#FFFFCC; stroke-width:0.1;stroke-linecap:round;stroke-linejoin:round;">
	<!-- Gray fill  -->
	<!ENTITY st4 "fill:#CCCCCC;stroke:#CCCCCC; stroke-width:0.1;stroke-linecap:round;stroke-linejoin:round;">
	<!-- Light-blue fill -->
	<!ENTITY st5 "fill:#CCECF4;stroke:#000000; stroke-width:1.133;stroke-linecap:round;stroke-linejoin:round;">
	<!ENTITY st6 "fill:none;stroke-linecap:butt; stroke-linejoin:round;">
	<!ENTITY st7 "fill:none;stroke:#000000;stroke-linecap:round;stroke-linejoin:round;">
	<!ENTITY st8 "enable-background:new    ;">
	<!-- Black fill -->
	<!ENTITY st9 "fill:#000000;stroke:#000000; stroke-linecap:round;stroke-linejoin:round;">
	<!-- SRS note   -->
	<!ENTITY st10 "font-size:9px;font-family:'ArialMT';">
	<!ENTITY st11 "font-size:9px;font-family:'Svg Symbol';">
	<!ENTITY st12 "font-size:6px;font-family:'Svg Symbol';">
	<!ENTITY st13 "fill:none;stroke:#ff0000;stroke-linecap:round;stroke-linejoin:round;">
	<!-- Yellow fill  -->
	<!ENTITY st14 "fill:#FFFF00;stroke:#FFFF00; stroke-width:0.1;stroke-linecap:round;stroke-linejoin:round;">
	<!ENTITY st15 "font-size:6px;font-family:'MS-PGothic';adobe-font-script:japanese;">
	<!ENTITY st16 "1.00 0.00 0.00 1.00">
	<!ENTITY st17 "0.00 -1.00 1.00 0.00">
	<!ENTITY st18 "font-size:6px;font-family:'Arial';">
	<!ENTITY st19 "font-size:9px;font-family:'Arial';">
	<!ENTITY st20 "font-size:6px;font-family:'MS-PGothic','MS PGothic';adobe-font-script:japanese;">
	<!ENTITY st21 "font-size:7px;font-family:'MS-PGothic','MS PGothic';adobe-font-script:japanese;">
	<!ATTLIST svg
		xmlns:ewd CDATA #FIXED "http://shcl.co.jp/ewd"
		xmlns:a CDATA #FIXED "http://ns.adobe.com/AdobeSVGViewerExtensions/3.0/"
		ewd:ver CDATA #IMPLIED
	>
	<!ATTLIST a
		ewd:lineID CDATA #IMPLIED
		ewd:groupID CDATA #IMPLIED
		ewd:figtype CDATA #IMPLIED
		ewd:code CDATA #IMPLIED
		ewd:figID CDATA #IMPLIED
		ewd:pinNo CDATA #IMPLIED
		ewd:comment CDATA #IMPLIED >
	<!ATTLIST g
		ewd:lineID CDATA #IMPLIED
		ewd:groupID CDATA #IMPLIED
		ewd:figtype CDATA #IMPLIED
		ewd:code CDATA #IMPLIED
		ewd:figID CDATA #IMPLIED
		ewd:pinNo CDATA #IMPLIED
		ewd:comment CDATA #IMPLIED >
	<!ATTLIST text
		ewd:textID CDATA #IMPLIED >
	<!ATTLIST title
		ewd:textID CDATA #IMPLIED >
]>
<!-- Generator: Shintec Hozumi YS   -->
<svg onload="call_execInitLoadProc_svg('system')" style="overflow:visible;  enable-background:new 0 0 10206.470 710.000" viewBox="0 0 10206.470 710.000" height="710.000" width="10206.470" xml:space="preserve" ewd:ver="2.1.2.9" xmlns="&ns_svg;" xmlns:a="http://ns.adobe.com/AdobeSVGViewerExtensions/3.0/" xmlns:ewd="http://shcl.co.jp/ewd" xmlns:xlink="&ns_xlink;">
<text style="&st18;" transform="matrix(&st16;  4704.81  117.07 )" ewd:textID="57">Combination Meter Assembly</text><text style="&st18;" transform="matrix(&st16;  4704.8  110.24 )">L25(A),L26(B),L50(C)</text><text style="&st18;" transform="matrix(&st16;  4633.46  26.42 )">(*13)</text><text style="&st18;" transform="matrix(&st16;  4685.54  15.09 )">B-Y</text><text style="&st18;" transform="matrix(&st16;  4684.45  26.42 )">(*13)</text><text style="&st18;" transform="matrix(&st16;  4634.55  15.09 )">B-Y</text><path style="stroke-width:1.42 ;&st7;  " d=" M  4784.70,   384.22  L  4793.20,   384.22  " /><path style="stroke-width:1.42 ;&st7;  " d=" M  4716.71,   469.21  L  4725.21,   469.21  " /><path style="stroke-width:1.42 ;&st7;  " d=" M  4733.71,   554.19  L  4725.21,   554.19  " /><path style="stroke-width:1.42 ;&st7;  " d=" M  4784.70,   469.21  L  4793.20,   469.21  " /><path style="stroke-width:1.42 ;&st7;  " d=" M  4801.70,   554.19  L  4793.20,   554.19  " /><path style="stroke-width:1.42 ;&st7;  " d=" M  4716.71,   384.22  L  4725.21,   384.22  " /><path style="stroke-width:1.42 ;&st7;  " d=" M  4852.69,   469.21  L  4861.19,   469.21  " /><path style="stroke-width:1.42 ;&st7;  " d=" M  4869.69,   554.19  L  4861.19,   554.19  " /><path style="stroke-width:1.42 ;&st7;  " d=" M  4937.67,   443.71  L  4946.17,   443.71  " /><path style="stroke-width:1.42 ;&st7;  " d=" M  4852.69,   384.22  L  4861.19,   384.22  " /><path style="stroke-width:1.42 ;&st7;  " d=" M  4937.67,   384.22  L  4946.17,   384.22  " /><path style="stroke-width: 0.85 ;&st7; stroke-dasharray:3, 1.5;" d=" M  4776.51,   541.44  L  4737.64,   541.44  " /><path style="stroke-width: 0.85 ;&st7; stroke-dasharray:3, 1.5;" d=" M  4776.51,   549.94  L  4737.64,   549.94  " /><path style="stroke-width: 0.85 ;&st7; stroke-dasharray:3, 1.5;" d=" M  4737.64,   388.47  L  4772.26,   388.47  " /><path style="stroke-width: 0.85 ;&st7; stroke-dasharray:3, 1.5;" d=" M  4737.64,   396.97  L  4772.26,   396.97  " /><path style="stroke-width: 0.85 ;&st7; stroke-dasharray:3, 1.5;" d=" M  4805.63,   541.44  L  4844.50,   541.44  " /><path style="stroke-width: 0.85 ;&st7; stroke-dasharray:3, 1.5;" d=" M  4844.50,   549.94  L  4805.63,   549.94  " /><path style="stroke-width: 0.85 ;&st7; stroke-dasharray:3, 1.5;" d=" M  4805.63,   396.97  L  4840.25,   396.97  " /><path style="stroke-width: 0.85 ;&st7; stroke-dasharray:3, 1.5;" d=" M  4805.63,   388.47  L  4840.25,   388.47  " /><text style="&st18;" transform="matrix(&st17;  4721.51  360.3 )">L</text><text style="&st18;" transform="matrix(&st17;  4721.51  577.01 )">L</text><text style="&st18;" transform="matrix(&st17;  4732.85  581.7 )">(*24)</text><text style="&st18;" transform="matrix(&st17;  4721.51  500.52 )">L</text><text style="&st18;" transform="matrix(&st17;  4732.85  512.39 )">(RHD *24)</text><text style="&st18;" transform="matrix(&st17;  4721.51  441.03 )">L</text><text style="&st18;" transform="matrix(&st17;  4732.85  452.9 )">(RHD *24)</text><text style="&st18;" transform="matrix(&st17;  4755.51  441.03 )">L</text><text style="&st18;" transform="matrix(&st17;  4766.84  452.86 )">(LHD *24)</text><text style="&st18;" transform="matrix(&st17;  4789.5  363.83 )">B-R</text><text style="&st18;" transform="matrix(&st17;  4789.5  580.54 )">B-R</text><text style="&st18;" transform="matrix(&st17;  4800.84  581.7 )">(*24)</text><text style="&st18;" transform="matrix(&st17;  4789.5  504.05 )">B-R</text><text style="&st18;" transform="matrix(&st17;  4800.84  512.39 )">(RHD *24)</text><text style="&st18;" transform="matrix(&st17;  4789.5  444.56 )">B-R</text><text style="&st18;" transform="matrix(&st17;  4800.84  452.9 )">(RHD *24)</text><text style="&st18;" transform="matrix(&st17;  4823.5  444.56 )">B-R</text><text style="&st18;" transform="matrix(&st17;  4834.83  452.86 )">(LHD *24)</text><text style="&st18;" transform="matrix(&st17;  4857.49  364.68 )">W-B</text><text style="&st18;" transform="matrix(&st17;  4857.49  581.39 )">W-B</text><text style="&st18;" transform="matrix(&st17;  4868.82  581.7 )">(*24)</text><text style="&st18;" transform="matrix(&st17;  4857.49  504.91 )">W-B</text><text style="&st18;" transform="matrix(&st17;  4868.83  512.39 )">(RHD *24)</text><text style="&st18;" transform="matrix(&st17;  4857.49  445.42 )">W-B</text><text style="&st18;" transform="matrix(&st17;  4868.83  452.9 )">(RHD *24)</text><text style="&st18;" transform="matrix(&st17;  4891.49  445.42 )">W-B</text><text style="&st18;" transform="matrix(&st17;  4902.82  452.86 )">(LHD *24)</text><text style="&st18;" transform="matrix(&st17;  4942.48  364.18 )">G-B</text><text style="&st18;" transform="matrix(&st17;  4942.48  423.67 )">G-B</text><text style="&st18;" transform="matrix(&st17;  4953.81  367.47 )">(*2,*3)</text><text style="&st18;" transform="matrix(&st17;  4953.81  426.96 )">(*2,*3)</text><text style="&st18;" transform="matrix(&st17;  4942.48  474.66 )">G-B</text><text style="&st18;" transform="matrix(&st17;  4953.81  477.95 )">(*2,*3)</text><text style="&st18;" transform="matrix(&st17;  4942.48  653.63 )">W-B</text><text style="&st18;" transform="matrix(&st17;  4953.81  656.42 )">(*2,*3)</text><text style="&st18;" transform="matrix(&st17;  4942.48  551.65 )">W-B</text><text style="&st18;" transform="matrix(&st17;  4953.81  554.44 )">(*2,*3)</text><text style="&st18;" transform="matrix(&st17;  4800.84  364.99 )">(*24)</text><text style="&st18;" transform="matrix(&st17;  4732.85  364.99 )">(*24)</text><text style="&st18;" transform="matrix(&st17;  4868.82  364.99 )">(*24)</text><text style="&st18;" transform="matrix(&st17;  4543.04  101.01 )">P</text><text style="&st18;" transform="matrix(&st17;  4554.38  105.78 )">(*47)</text><g ewd:figtype="conn" ewd:figID="24" ewd:code="A9"><path style="stroke-width:1.42 ;&st7;  " d=" M  4946.17,   513.12  L  4951.84,   490.45  " /><path style="stroke-width:0.85 ;&st7;  " d=" M  4946.17,   520.20  L  4946.17,   515.95  " /><path style="stroke-width:0.85 ;&st7;  " d=" M  4946.17,   490.45  L  4946.17,   486.20  " /><path style="stroke-width:0.85 ;&st7;   " d=" M  4947.59,   514.53  C  4947.59    513.75   4946.96    513.12   4946.17    513.12  " /><path style="stroke-width:0.85 ;&st7;   " d=" M  4946.17,   513.12  C  4945.39    513.12   4944.76    513.75   4944.76    514.53  " /><path style="stroke-width:0.85 ;&st7;   " d=" M  4944.76,   514.53  C  4944.76    515.31   4945.39    515.95   4946.17    515.95  " /><path style="stroke-width:0.85 ;&st7;   " d=" M  4946.17,   515.95  C  4946.96    515.95   4947.59    515.31   4947.59    514.53  " /><path style="stroke-width:0.85 ;&st7;   " d=" M  4947.59,   491.87  C  4947.59    491.09   4946.96    490.45   4946.17    490.45  " /><path style="stroke-width:0.85 ;&st7;   " d=" M  4946.17,   490.45  C  4945.39    490.45   4944.76    491.09   4944.76    491.87  " /><path style="stroke-width:0.85 ;&st7;   " d=" M  4944.76,   491.87  C  4944.76    492.65   4945.39    493.29   4946.17    493.29  " /><path style="stroke-width:0.85 ;&st7;   " d=" M  4946.17,   493.29  C  4946.96    493.29   4947.59    492.65   4947.59    491.87  " /><path style="stroke-width:1.42 ;&st7;  " d=" M  4954.67,   520.20  L  4954.67,   486.20  L  4937.67,   486.20  L  4937.67,   520.20  L  4954.67,   520.20  " /><text style="&st18;" transform="matrix(&st16;  4939.99  528.39 )">2</text><text style="&st18;" transform="matrix(&st16;  4939.99  482.51 )">1</text><g ewd:figtype="title"><text style="&st18;" transform="matrix(&st17;  4962.57  523.1 )">A9</text><text style="&st18;" transform="matrix(&st17;  4969.39  523.1 )" ewd:textID="88">Fuel Sediment <tspan x="0 " dy="6.0">Switch</tspan></text></g></g><g ewd:figtype="conn" ewd:figID="25" ewd:code="C105"><path style="stroke-width:1.42 ;&st7;  " d=" M  4708.21,   630.68  L  4878.18,   630.68  L  4878.18,   596.69  L  4708.21,   596.69  L  4708.21,   630.68  " /><g ewd:lineID="136"><text style="&st18;" transform="matrix(&st16;  4719.03  593.0 )">2</text><text style="&st18;" transform="matrix(&st16;  4716.47  604.32 )">VOUT</text></g><g ewd:lineID="141"><text style="&st18;" transform="matrix(&st16;  4787.01  593.0 )">3</text><text style="&st18;" transform="matrix(&st16;  4788.72  604.32 )">VC</text></g><g ewd:lineID="146"><text style="&st18;" transform="matrix(&st16;  4855.0  593.0 )">1</text><text style="&st18;" transform="matrix(&st16;  4854.54  604.32 )">GND</text></g><g ewd:figtype="title"><text style="&st18;" transform="matrix(&st16;  4704.8  638.57 )">C105</text><text style="&st18;" transform="matrix(&st16;  4704.81  645.4 )" ewd:textID="130">Oil Pressure Sender Gage Assembly</text></g></g><g ewd:code="A23" ewd:figID="26" ewd:comment="3,7,6" ewd:figtype="conn"><path style="stroke-width:1.42 ;&st7;  " d=" M  4937.67,   596.69  L  4954.67,   596.69  L  4954.67,   613.68  L  4937.67,   613.68  L  4937.67,   596.69  " /><path style="stroke-width:0.85 ;&st7;  " d=" M  4946.17,   596.69  L  4946.17,   613.68  " /><text style="&st18;" transform="matrix(&st16;  4937.48  620.18 )">1</text><path style="stroke-width:1.42 ;&st7;   " d=" M  4950.71,   618.22  C  4950.71    615.71   4948.68    613.68   4946.17    613.68  " /><path style="stroke-width:1.42 ;&st7;   " d=" M  4946.17,   613.68  C  4943.67    613.68   4941.64    615.71   4941.64    618.22  " /><path style="stroke-width:1.42 ;&st7;   " d=" M  4941.64,   618.22  C  4941.64    620.72   4943.67    622.75   4946.17    622.75  " /><path style="stroke-width:1.42 ;&st7;   " d=" M  4946.17,   622.75  C  4948.68    622.75   4950.71    620.72   4950.71    618.22  " /><text style="&st18;" transform="matrix(&st16;  4943.87  620.18 )">A</text><text style="&st18;" transform="matrix(&st16;  4937.48  594.12 )">5</text><text style="&st18;" transform="matrix(&st16;  4937.48  575.99 )">4</text><text style="&st18;" transform="matrix(&st16;  4937.48  585.06 )">7</text><path style="stroke-width:1.42 ;&st7;   " d=" M  4950.71,   583.09  C  4950.71    580.58   4948.68    578.56   4946.17    578.56  " /><path style="stroke-width:1.42 ;&st7;   " d=" M  4946.17,   578.56  C  4943.67    578.56   4941.64    580.58   4941.64    583.09  " /><path style="stroke-width:1.42 ;&st7;   " d=" M  4941.64,   583.09  C  4941.64    585.59   4943.67    587.62   4946.17    587.62  " /><path style="stroke-width:1.42 ;&st7;   " d=" M  4946.17,   587.62  C  4948.68    587.62   4950.71    585.59   4950.71    583.09  " /><path style="stroke-width:1.42 ;&st7;   " d=" M  4950.71,   592.15  C  4950.71    589.65   4948.68    587.62   4946.17    587.62  " /><path style="stroke-width:1.42 ;&st7;   " d=" M  4946.17,   587.62  C  4943.67    587.62   4941.64    589.65   4941.64    592.15  " /><path style="stroke-width:1.42 ;&st7;   " d=" M  4941.64,   592.15  C  4941.64    594.66   4943.67    596.69   4946.17    596.69  " /><path style="stroke-width:1.42 ;&st7;   " d=" M  4946.17,   596.69  C  4948.68    596.69   4950.71    594.66   4950.71    592.15  " /><text style="&st18;" transform="matrix(&st16;  4943.87  575.99 )">A</text><path style="stroke-width:1.42 ;&st7;   " d=" M  4950.71,   574.02  C  4950.71    571.52   4948.68    569.49   4946.17    569.49  " /><path style="stroke-width:1.42 ;&st7;   " d=" M  4946.17,   569.49  C  4943.67    569.49   4941.64    571.52   4941.64    574.02  " /><path style="stroke-width:1.42 ;&st7;   " d=" M  4941.64,   574.02  C  4941.64    576.53   4943.67    578.56   4946.17    578.56  " /><path style="stroke-width:1.42 ;&st7;   " d=" M  4946.17,   578.56  C  4948.68    578.56   4950.71    576.53   4950.71    574.02  " /><text style="&st18;" transform="matrix(&st16;  4943.87  594.12 )">A</text><text style="&st18;" transform="matrix(&st16;  4943.87  585.06 )">A</text><g ewd:figtype="title"><text style="&st18;" transform="matrix(&st17;  4928.03  616.59 )" ewd:textID="103">No. 2 Junction <tspan x="0 " dy="6.0">Connector</tspan></text><text style="&st18;" transform="matrix(&st17;  4921.21  616.58 )">A23(A)</text></g><g ewd:code="" ewd:figID="328" ewd:comment="7" ewd:figtype="commref"><text style="&st18;" transform="matrix(&st16;  4951.27  594.12 )">(*7)</text></g><g ewd:code="" ewd:figID="329" ewd:comment="6" ewd:figtype="commref"><text style="&st18;" transform="matrix(&st16;  4951.27  585.06 )">(*6)</text></g><g ewd:code="" ewd:figID="330" ewd:comment="3" ewd:figtype="commref"><text style="&st18;" transform="matrix(&st16;  4951.27  575.99 )">(*3)</text></g></g><g ewd:figtype="w2w" ewd:figID="138" ewd:code="AC8"><path style="stroke-width:1.42 ;&st7;  " d=" M  4729.46,   559.86  L  4725.21,   555.61  L  4720.96,   559.86  " /><path style="stroke-width:1.42 ;&st7;  " d=" M  4729.46,   563.26  L  4725.21,   559.01  L  4720.96,   563.26  " /><text style="&st18;" transform="matrix(&st16;  4712.58  551.91 )">8</text></g><g ewd:figtype="w2w" ewd:figID="139" ewd:code="IC3"><text style="&st18;" transform="matrix(&st16;  4712.58  543.41 )">5</text></g><g ewd:figtype="w2w" ewd:figID="140" ewd:code="AI3"><path style="stroke-width:1.42 ;&st7;  " d=" M  4720.96,   460.14  L  4725.21,   464.39  L  4729.46,   460.14  " /><path style="stroke-width:1.42 ;&st7;  " d=" M  4729.46,   463.54  L  4725.21,   467.79  L  4720.96,   463.54  " /><text style="&st18;" transform="matrix(&st16;  4709.48  475.43 )">22</text></g><g ewd:figtype="w2w" ewd:figID="141" ewd:code="IL5"><text style="&st18;" transform="matrix(&st16;  4709.48  398.94 )">54</text></g><g ewd:figtype="w2w" ewd:figID="142" ewd:code="IL1"><path style="stroke-width:1.42 ;&st7;  " d=" M  4720.96,   375.16  L  4725.21,   379.41  L  4729.46,   375.16  " /><path style="stroke-width:1.42 ;&st7;  " d=" M  4729.46,   378.56  L  4725.21,   382.80  L  4720.96,   378.56  " /><text style="&st18;" transform="matrix(&st16;  4709.48  390.44 )">27</text></g><g ewd:figtype="w2w" ewd:figID="143" ewd:code="AC8"><path style="stroke-width:1.42 ;&st7;  " d=" M  4797.45,   559.86  L  4793.20,   555.61  L  4788.95,   559.86  " /><path style="stroke-width:1.42 ;&st7;  " d=" M  4797.45,   563.26  L  4793.20,   559.01  L  4788.95,   563.26  " /><text style="&st18;" transform="matrix(&st16;  4780.57  551.91 )">3</text></g><g ewd:figtype="w2w" ewd:figID="144" ewd:code="IC3"><text style="&st18;" transform="matrix(&st16;  4780.57  543.41 )">1</text></g><g ewd:figtype="w2w" ewd:figID="145" ewd:code="AI3"><path style="stroke-width:1.42 ;&st7;  " d=" M  4788.95,   460.14  L  4793.20,   464.39  L  4797.45,   460.14  " /><path style="stroke-width:1.42 ;&st7;  " d=" M  4797.45,   463.54  L  4793.20,   467.79  L  4788.95,   463.54  " /><text style="&st18;" transform="matrix(&st16;  4777.47  475.43 )">11</text></g><g ewd:figtype="w2w" ewd:figID="146" ewd:code="IL5"><text style="&st18;" transform="matrix(&st16;  4777.47  398.94 )">53</text></g><g ewd:figtype="w2w" ewd:figID="147" ewd:code="IL1"><path style="stroke-width:1.42 ;&st7;  " d=" M  4797.45,   378.56  L  4793.20,   382.80  L  4788.95,   378.56  " /><path style="stroke-width:1.42 ;&st7;  " d=" M  4788.95,   375.16  L  4793.20,   379.41  L  4797.45,   375.16  " /><text style="&st18;" transform="matrix(&st16;  4777.47  390.44 )">26</text></g><g ewd:figtype="w2w" ewd:figID="148" ewd:code="AC8"><path style="stroke-width:1.42 ;&st7;  " d=" M  4865.44,   559.86  L  4861.19,   555.61  L  4856.94,   559.86  " /><path style="stroke-width:1.42 ;&st7;  " d=" M  4865.44,   563.26  L  4861.19,   559.01  L  4856.94,   563.26  " /><text style="&st18;" transform="matrix(&st16;  4848.56  551.91 )">4</text></g><g ewd:figtype="w2w" ewd:figID="149" ewd:code="IC3"><text style="&st18;" transform="matrix(&st16;  4848.56  543.41 )">6</text></g><g ewd:figtype="w2w" ewd:figID="150" ewd:code="AI3"><path style="stroke-width:1.42 ;&st7;  " d=" M  4856.94,   460.14  L  4861.19,   464.39  L  4865.44,   460.14  " /><path style="stroke-width:1.42 ;&st7;  " d=" M  4865.44,   463.54  L  4861.19,   467.79  L  4856.94,   463.54  " /><text style="&st18;" transform="matrix(&st16;  4845.45  475.43 )">26</text></g><g ewd:figtype="w2w" ewd:figID="151" ewd:code="IL5"><text style="&st18;" transform="matrix(&st16;  4845.45  398.94 )">28</text></g><g ewd:figtype="w2w" ewd:figID="152" ewd:code="IL1"><path style="stroke-width:1.42 ;&st7;  " d=" M  4865.44,   378.56  L  4861.19,   382.80  L  4856.94,   378.56  " /><path style="stroke-width:1.42 ;&st7;  " d=" M  4856.94,   375.16  L  4861.19,   379.41  L  4865.44,   375.16  " /><text style="&st18;" transform="matrix(&st16;  4845.45  390.44 )">25</text></g><g ewd:figtype="w2w" ewd:figID="153" ewd:code="AI3"><path style="stroke-width:1.42 ;&st7;  " d=" M  4950.42,   438.05  L  4946.17,   442.29  L  4941.92,   438.05  " /><path style="stroke-width:1.42 ;&st7;  " d=" M  4941.92,   434.65  L  4946.17,   438.90  L  4950.42,   434.65  " /><text style="&st18;" transform="matrix(&st16;  4930.44  449.93 )">32</text></g><g ewd:figtype="w2w" ewd:figID="154" ewd:code="IL5"><text style="&st18;" transform="matrix(&st16;  4930.44  398.94 )">29</text><g ewd:code="" ewd:figID="353" ewd:comment="" ewd:figtype="commref"><text style="&st18;" transform="matrix(&st16;  4955.2  398.94 )">(RHD)</text></g></g><g ewd:figtype="w2w" ewd:figID="155" ewd:code="IL1"><path style="stroke-width:1.42 ;&st7;  " d=" M  4941.92,   375.16  L  4946.17,   379.41  L  4950.42,   375.16  " /><path style="stroke-width:1.42 ;&st7;  " d=" M  4950.42,   378.56  L  4946.17,   382.80  L  4941.92,   378.56  " /><text style="&st18;" transform="matrix(&st16;  4930.44  390.44 )">32</text><g ewd:code="" ewd:figID="352" ewd:comment="" ewd:figtype="commref"><text style="&st18;" transform="matrix(&st16;  4955.2  390.44 )">(LHD)</text></g></g><g ewd:figtype="gp" ewd:figID="242" ewd:code="AA"><path style="stroke-width:0.85 ;&st7;  " d=" M  4946.17,   697.25  L  4946.17,   701.50  " /><path style="stroke-width:0.85 ;&st7;  " d=" M  4937.67,   701.50  L  4954.67,   701.50  " /><path style="stroke-width:0.85 ;&st7;  " d=" M  4941.92,   704.33  L  4950.42,   704.33  " /><path style="stroke-width:0.85 ;&st7;  " d=" M  4943.34,   707.17  L  4949.00,   707.17  " /><path style="stroke-width:0.85 ;&st7;  " d=" M  4944.76,   710.00  L  4947.59,   710.00  " /></g><g ewd:figtype="annex" ewd:figID="62" ewd:code=" "><path style="stroke-width:1.42 ;&st7;  " d=" M  4546.74,    78.27  L  4541.68,    66.91  " /><path style="stroke-width:1.42 ;&st7;  " d=" M  4546.74,    78.27  L  4551.80,    66.91  " /><text style="&st18;" transform="matrix(&st16;  4528.85  45.43 )" ewd:textID="153">Tire Pressure <tspan x="0 " dy="6.0">Warning ECU </tspan><tspan x="0 " dy="6.0">and Receiver</tspan></text></g><g ewd:code="" ewd:figID="293" ewd:comment="" ewd:figtype="commref"><text style="&st18;" transform="matrix(&st16;  4870.22  551.91 )">(RHD)</text></g><g ewd:code="" ewd:figID="294" ewd:comment="" ewd:figtype="commref"><text style="&st18;" transform="matrix(&st16;  4870.22  543.41 )">(LHD)</text></g><g ewd:code="" ewd:figID="350" ewd:comment="" ewd:figtype="commref"><text style="&st18;" transform="matrix(&st16;  4870.22  398.94 )">(RHD)</text></g><g ewd:code="" ewd:figID="351" ewd:comment="" ewd:figtype="commref"><text style="&st18;" transform="matrix(&st16;  4870.22  390.44 )">(LHD)</text></g><g ewd:code="3" ewd:figID="513" ewd:comment="" ewd:figtype="comment"><text style="&st18;" transform="matrix(&st16;  4883.28  71.74 )">* 3 :1VD-FTV</text></g><g ewd:code="6" ewd:figID="512" ewd:comment="" ewd:figtype="comment"><text style="&st18;" transform="matrix(&st16;  4883.28  80.24 )" ewd:textID="8">* 6 :1HZ 12V Battery Type</text></g><g ewd:code="1" ewd:figID="514" ewd:comment="" ewd:figtype="comment"><text style="&st18;" transform="matrix(&st16;  4883.28  54.75 )">* 1 :1GR-FE</text></g><g ewd:code="13" ewd:figID="517" ewd:comment="" ewd:figtype="comment"><text style="&st18;" transform="matrix(&st16;  4993.76  54.75 )" ewd:textID="15">*13 :w/o SRS</text></g><g ewd:code="16" ewd:figID="516" ewd:comment="" ewd:figtype="comment"><text style="&st18;" transform="matrix(&st16;  4993.76  63.24 )" ewd:textID="16">*16 :1GR-FR, 1VD-FTV, 1HZ 12V Battery Type</text></g><g ewd:code="2" ewd:figID="469" ewd:comment="" ewd:figtype="comment"><text style="&st18;" transform="matrix(&st16;  4883.28  63.24 )">* 2 :1HZ</text></g><g ewd:code="24" ewd:figID="335" ewd:comment="" ewd:figtype="comment"><text style="&st18;" transform="matrix(&st16;  4993.76  71.74 )" ewd:textID="22">*24 :1GR-FE w/ Oil Pressure Gage</text></g><g ewd:code="45" ewd:figID="518" ewd:comment="" ewd:figtype="comment"><text style="&st18;" transform="matrix(&st16;  4993.76  88.74 )" ewd:textID="41">*45 :w/ VSC</text></g><g ewd:code="31" ewd:figID="524" ewd:comment="" ewd:figtype="comment"><text style="&st18;" transform="matrix(&st16;  4993.76  80.24 )" ewd:textID="29">*31 :Australia</text></g><g ewd:code="47" ewd:figID="541" ewd:comment="" ewd:figtype="comment"><text style="&st18;" transform="matrix(&st16;  4993.76  97.24 )" ewd:textID="43">*47 :w/ Tire Pressure Warning System</text></g><g ewd:code="7" ewd:figID="511" ewd:comment="" ewd:figtype="comment"><text style="&st18;" transform="matrix(&st16;  4883.28  88.74 )" ewd:textID="9">* 7 :1HZ 24V Battery Type</text></g></svg>