<?xml version="1.0" encoding="utf-8"?>
<!DOCTYPE svg PUBLIC "-//W3C//DTD SVG 1.0//EN" "http://www.w3.org/TR/2001/REC-SVG-20010904/DTD/svg10.dtd"[
	<!ENTITY ns_flows "http://ns.adobe.com/Flows/1.0/">
	<!ENTITY ns_svg "http://www.w3.org/2000/svg">
	<!ENTITY ns_xlink "http://www.w3.org/1999/xlink">
	<!ENTITY st0 "font-size:7px;font-family:'MS-PGothic';adobe-font-script:japanese;">
	<!ENTITY st1 "font-size:6px;font-family:'ArialMT';">
	<!-- White fill  -->
	<!ENTITY st2 "fill:#FFFFFF;stroke:#000000; stroke-width:1.41;stroke-linecap:round;stroke-linejoin:round;">
	<!-- Yellow fill  -->
	<!ENTITY st3 "fill:#FFFFCC;stroke:#FFFFCC; stroke-width:0.1;stroke-linecap:round;stroke-linejoin:round;">
	<!-- Gray fill  -->
	<!ENTITY st4 "fill:#CCCCCC;stroke:#CCCCCC; stroke-width:0.1;stroke-linecap:round;stroke-linejoin:round;">
	<!-- Light-blue fill -->
	<!ENTITY st5 "fill:#CCECF4;stroke:#000000; stroke-width:1.133;stroke-linecap:round;stroke-linejoin:round;">
	<!ENTITY st6 "fill:none;stroke-linecap:butt; stroke-linejoin:round;">
	<!ENTITY st7 "fill:none;stroke:#000000;stroke-linecap:round;stroke-linejoin:round;">
	<!ENTITY st8 "enable-background:new    ;">
	<!-- Black fill -->
	<!ENTITY st9 "fill:#000000;stroke:#000000; stroke-linecap:round;stroke-linejoin:round;">
	<!-- SRS note   -->
	<!ENTITY st10 "font-size:9px;font-family:'ArialMT';">
	<!ENTITY st11 "font-size:9px;font-family:'Svg Symbol';">
	<!ENTITY st12 "font-size:6px;font-family:'Svg Symbol';">
	<!ENTITY st13 "fill:none;stroke:#ff0000;stroke-linecap:round;stroke-linejoin:round;">
	<!-- Yellow fill  -->
	<!ENTITY st14 "fill:#FFFF00;stroke:#FFFF00; stroke-width:0.1;stroke-linecap:round;stroke-linejoin:round;">
	<!ENTITY st15 "font-size:6px;font-family:'MS-PGothic';adobe-font-script:japanese;">
	<!ENTITY st16 "1.00 0.00 0.00 1.00">
	<!ENTITY st17 "0.00 -1.00 1.00 0.00">
	<!ENTITY st18 "font-size:6px;font-family:'Arial';">
	<!ENTITY st19 "font-size:9px;font-family:'Arial';">
	<!ENTITY st20 "font-size:6px;font-family:'MS-PGothic','MS PGothic';adobe-font-script:japanese;">
	<!ENTITY st21 "font-size:7px;font-family:'MS-PGothic','MS PGothic';adobe-font-script:japanese;">
	<!ATTLIST svg
		xmlns:ewd CDATA #FIXED "http://shcl.co.jp/ewd"
		xmlns:a CDATA #FIXED "http://ns.adobe.com/AdobeSVGViewerExtensions/3.0/"
		ewd:ver CDATA #IMPLIED
	>
	<!ATTLIST a
		ewd:lineID CDATA #IMPLIED
		ewd:groupID CDATA #IMPLIED
		ewd:figtype CDATA #IMPLIED
		ewd:code CDATA #IMPLIED
		ewd:figID CDATA #IMPLIED
		ewd:pinNo CDATA #IMPLIED
		ewd:comment CDATA #IMPLIED >
	<!ATTLIST g
		ewd:lineID CDATA #IMPLIED
		ewd:groupID CDATA #IMPLIED
		ewd:figtype CDATA #IMPLIED
		ewd:code CDATA #IMPLIED
		ewd:figID CDATA #IMPLIED
		ewd:pinNo CDATA #IMPLIED
		ewd:comment CDATA #IMPLIED >
	<!ATTLIST text
		ewd:textID CDATA #IMPLIED >
	<!ATTLIST title
		ewd:textID CDATA #IMPLIED >
]>
<!-- Generator: Shintec Hozumi YS   -->
<svg onload="call_execInitLoadProc_svg('system')" style="overflow:visible;  enable-background:new 0 0 911.219 710.000" viewBox="0 0 911.219 710.000" height="710.000" width="911.219" xml:space="preserve" ewd:ver="2.1.2.9" xmlns="&ns_svg;" xmlns:a="http://ns.adobe.com/AdobeSVGViewerExtensions/3.0/" xmlns:ewd="http://shcl.co.jp/ewd" xmlns:xlink="&ns_xlink;"><script type="text/javascript" xlink:href="../../../../../system/js/ewd/fig/svgfig.js" xmlns:xlink="http://www.w3.org/1999/xlink" />
<g id="ewd_top"><a ewd:figtype="conn" style="cursor:pointer;" ewd:code="L25,L26" ewd:figID="1"><path style="fill:#CCECF4;stroke:#000000; stroke-width:1.133; stroke-linecap:round;stroke-linejoin:round; " d=" M   535.41,   197.25  L   535.41,   350.23  L   883.85,   350.23  L   883.85,   197.25  L   535.41,   197.25 " /><title ewd:textID="3">Combination Meter Assembly</title></a><a ewd:figtype="conn" style="cursor:pointer;" ewd:code="I55" ewd:figID="2"><path style="fill:#CCECF4;stroke:#000000; stroke-width:1.133; stroke-linecap:round;stroke-linejoin:round; " d=" M   450.42,   231.25  L   467.42,   231.25  L   467.42,   248.24  L   450.42,   248.24  L   450.42,   231.25 " /><title ewd:textID="6">No. 6 Junction Connector</title></a><a ewd:figtype="conn" style="cursor:pointer;" ewd:code="I57" ewd:figID="3"><path style="fill:#CCECF4;stroke:#000000; stroke-width:1.133; stroke-linecap:round;stroke-linejoin:round; " d=" M   450.42,   163.26  L   467.42,   163.26  L   467.42,   180.26  L   450.42,   180.26  L   450.42,   163.26 " /><title ewd:textID="7">No. 8 Junction Connector</title></a><a ewd:figtype="rb" style="cursor:pointer;" ewd:code="FUSE20" ewd:figID="4"><path style="fill:#CCECF4;stroke:#000000; stroke-width:0; stroke-linecap:round;stroke-linejoin:round; " d=" M   403.68,    35.78  L   403.68,    78.27  L   429.18,    78.27  L   429.18,    35.78  L   403.68,    35.78 " /></a><a ewd:figtype="rb" style="cursor:pointer;" ewd:code="FUSE44" ewd:figID="5"><path style="fill:#CCECF4;stroke:#000000; stroke-width:0; stroke-linecap:round;stroke-linejoin:round; " d=" M   165.72,   350.23  L   165.72,   392.72  L   191.22,   392.72  L   191.22,   350.23  L   165.72,   350.23 " /></a><a ewd:figtype="conn" style="cursor:pointer;" ewd:code="A35,A36,D9" ewd:figID="6"><path style="fill:#CCECF4;stroke:#000000; stroke-width:1.133; stroke-linecap:round;stroke-linejoin:round; " d=" M    76.49,   528.70  L   135.98,   528.70  L   135.98,   588.19  L    76.49,   588.19  L    76.49,   528.70 " /><title ewd:textID="1">Battery (Main)</title></a><a ewd:figtype="conn" style="cursor:pointer;" ewd:code="D1,D4" ewd:figID="7"><path style="fill:#CCECF4;stroke:#000000; stroke-width:1.133; stroke-linecap:round;stroke-linejoin:round; " d=" M   280.45,   469.21  L   433.43,   469.21  L   433.43,   426.71  L   280.45,   426.71  L   280.45,   469.21 " /><title ewd:textID="4">Generator Assembly</title></a><a ewd:figtype="conn" style="cursor:pointer;" ewd:code="I58,I72" ewd:figID="8"><path style="fill:#CCECF4;stroke:#000000; stroke-width:1.133; stroke-linecap:round;stroke-linejoin:round; " d=" M   705.38,   112.27  L   722.38,   112.27  L   722.38,   129.26  L   705.38,   129.26  L   705.38,   112.27 " /><title ewd:textID="9">No. 9 Junction Connector , No. 21 Junction Connector</title></a><a ewd:figtype="rb" style="cursor:pointer;" ewd:code="FUSE16" ewd:figID="9"><path style="fill:#CCECF4;stroke:#000000; stroke-width:0; stroke-linecap:round;stroke-linejoin:round; " d=" M   777.62,    35.78  L   777.62,    78.27  L   803.12,    78.27  L   803.12,    35.78  L   777.62,    35.78 " /></a><a ewd:figtype="rb" style="cursor:pointer;" ewd:code="FUSE5" ewd:figID="10"><path style="fill:#CCECF4;stroke:#000000; stroke-width:0; stroke-linecap:round;stroke-linejoin:round; " d=" M   854.11,    35.78  L   854.11,    78.27  L   879.60,    78.27  L   879.60,    35.78  L   854.11,    35.78 " /></a><a ewd:figtype="jb" style="cursor:pointer;" ewd:code="4" ewd:figID="16"><path style="&st4; " d=" M   101.98,   316.23  L   101.98,   324.73  L   127.48,   324.73  L   127.48,   316.23  L   101.98,   316.23  " /></a><a ewd:figtype="jb" style="cursor:pointer;" ewd:code="4" ewd:figID="17"><path style="&st4; " d=" M   101.98,   426.71  L   101.98,   435.21  L   127.48,   435.21  L   127.48,   426.71  L   101.98,   426.71  " /></a><a ewd:figtype="jb" style="cursor:pointer;" ewd:code="3" ewd:figID="18"><path style="&st4; " d=" M   101.98,   188.75  L   101.98,   282.24  L   161.47,   282.24  L   161.47,   188.75  L   101.98,   188.75  " /></a><a ewd:figtype="fuse" style="cursor:pointer;" ewd:code="FUSE43" ewd:figID="39"><path style="&st7; stroke-width:0;" d=" M   106.23,   214.25  L   106.23,   256.74  L   131.73,   256.74  L   131.73,   214.25  L   106.23,   214.25 " /></a><a ewd:figtype="fuse" style="cursor:pointer;" ewd:code="FUSE44" ewd:figID="40"><path style="&st7; stroke-width:0;" d=" M   165.72,   350.23  L   165.72,   392.72  L   191.22,   392.72  L   191.22,   350.23  L   165.72,   350.23 " /></a><a ewd:figtype="fuse" style="cursor:pointer;" ewd:code="FUSE20" ewd:figID="41"><path style="&st7; stroke-width:0;" d=" M   403.68,    35.78  L   403.68,    78.27  L   429.18,    78.27  L   429.18,    35.78  L   403.68,    35.78 " /></a><a ewd:figtype="fuse" style="cursor:pointer;" ewd:code="FUSE16" ewd:figID="42"><path style="&st7; stroke-width:0;" d=" M   777.62,    35.78  L   777.62,    78.27  L   803.12,    78.27  L   803.12,    35.78  L   777.62,    35.78 " /></a><a ewd:figtype="fuse" style="cursor:pointer;" ewd:code="FUSE5" ewd:figID="43"><path style="&st7; stroke-width:0;" d=" M   854.11,    35.78  L   854.11,    78.27  L   879.60,    78.27  L   879.60,    35.78  L   854.11,    35.78 " /></a><a style="cursor:pointer;" ewd:lineID="1"><path style="stroke:#000000;stroke-width:5.10 ;&st6;" d=" M    84.99,   597.25  L    84.99,   681.67  " /></a><a style="cursor:pointer;" ewd:lineID="2"><path style="stroke:#000000;stroke-width:5.10 ;&st6;" d=" M   118.98,   597.25  L   118.98,   681.67  " /><path style="stroke:#FFFFFF;stroke-width:2.27 ;&st6;" d=" M   118.98,   597.25  L   118.98,   681.67  " /><path style="stroke:#666666;stroke-width:1.13 ;&st6;" d=" M   118.98,   597.25  L   118.98,   681.67  " /></a><a style="cursor:pointer;" ewd:lineID="3"><path style="stroke:#000000;stroke-width:5.10 ;&st6;" d=" M   118.98,   469.21  L   118.98,   435.21  " /><path style="stroke:#FFFFFF;stroke-width:2.27 ;&st6;" d=" M   118.98,   469.21  L   118.98,   435.21  " /><path style="stroke:#00A0C6;stroke-width:1.13 ;&st6;" d=" M   118.98,   469.21  L   118.98,   435.21  " /></a><a style="cursor:pointer;" ewd:lineID="4"><path style="stroke:#000000;stroke-width:5.10 ;&st6;" d=" M   118.98,   282.24  L   118.98,   316.23  " /><path style="stroke:#FFFFFF;stroke-width:2.27 ;&st6;" d=" M   118.98,   282.24  L   118.98,   316.23  " /><path style="stroke:#00A0C6;stroke-width:1.13 ;&st6;" d=" M   118.98,   282.24  L   118.98,   316.23  " /></a><a style="cursor:pointer;" ewd:lineID="5"> d=" M   297.45,   417.65  L   297.45,   384.22 
	
		<path style="stroke:#000000;stroke-width:5.10 ;&st6;" d=" M   297.45,   417.65  L   297.45,   384.22  " /><path style="stroke:#FFFFFF;stroke-width:4.53 ;&st6;" d=" M   297.45,   417.65  L   297.45,   384.22  " /></a><a style="cursor:pointer;" ewd:lineID="6"> d=" M   297.45,   369.21  L   297.45,   188.75  L   178.47,   188.75  L   178.47,   316.23 
	
		<path style="stroke:#000000;stroke-width:5.10 ;&st6;" d=" M   297.45,   369.21  L   297.45,   188.75  L   178.47,   188.75  L   178.47,   316.23  " /><path style="stroke:#FFFFFF;stroke-width:4.53 ;&st6;" d=" M   297.45,   369.21  L   297.45,   188.75  L   178.47,   188.75  L   178.47,   316.23  " /></a><a style="cursor:pointer;" ewd:lineID="7"> d=" M   339.94,   417.65  L   339.94,   171.76  L   118.98,   171.76  L   118.98,   188.75 
	
		<path style="stroke:#000000;stroke-width:5.10 ;&st6;" d=" M   339.94,   417.65  L   339.94,   171.76  L   118.98,   171.76  L   118.98,   188.75  " /><path style="stroke:#FFFFFF;stroke-width:4.53 ;&st6;" d=" M   339.94,   417.65  L   339.94,   171.76  L   118.98,   171.76  L   118.98,   188.75  " /></a><a style="cursor:pointer;" ewd:lineID="8"><path style="stroke:#FFE600;stroke-width:5.10 ;&st6;" d=" M   416.43,   478.27  L   416.43,   571.19  L   569.40,   571.19  L   569.40,   511.70  " /></a><a style="cursor:pointer;" ewd:lineID="9"><path style="stroke:#000000;stroke-width:5.10 ;&st6;" d=" M   416.43,   417.65  L   416.43,   384.22  " /><path style="stroke:#FFFFFF;stroke-width:2.27 ;&st6;" d=" M   416.43,   417.65  L   416.43,   384.22  " /><path style="stroke:#FFE600;stroke-width:1.13 ;&st6;" d=" M   416.43,   417.65  L   416.43,   384.22  " /></a><a style="cursor:pointer;" ewd:lineID="10"><path style="stroke:#000000;stroke-width:5.10 ;&st6;" d=" M   416.43,   333.23  L   416.43,   369.21  " /><path style="stroke:#FFFFFF;stroke-width:2.27 ;&st6;" d=" M   416.43,   333.23  L   416.43,   369.21  " /><path style="stroke:#FFE600;stroke-width:1.13 ;&st6;" d=" M   416.43,   333.23  L   416.43,   369.21  " /></a><a style="cursor:pointer;" ewd:lineID="11"><path style="stroke:#000000;stroke-width:5.10 ;&st6;" d=" M   416.43,   180.26  L   416.43,   309.72  " /><path style="stroke:#FFFFFF;stroke-width:2.27 ;&st6;" d=" M   416.43,   180.26  L   416.43,   309.72  " /><path style="stroke:#FFE600;stroke-width:1.13 ;&st6;" d=" M   416.43,   180.26  L   416.43,   309.72  " /></a><a style="cursor:pointer;" ewd:lineID="12"><path style="stroke:#000000;stroke-width:5.10 ;&st6;" d=" M   416.43,   103.77  L   416.43,   163.26  " /><path style="stroke:#FFFFFF;stroke-width:2.27 ;&st6;" d=" M   416.43,   103.77  L   416.43,   163.26  " /><path style="stroke:#FFE600;stroke-width:1.13 ;&st6;" d=" M   416.43,   103.77  L   416.43,   163.26  " /></a><a style="cursor:pointer;" ewd:lineID="13"><path style="stroke:#000000;stroke-width:5.10 ;&st6;" d=" M   416.43,   103.77  L   416.43,   112.27  L   424.93,   120.77  L   458.92,   120.77  L   458.92,   154.19  " /><path style="stroke:#FFFFFF;stroke-width:2.27 ;&st6;" d=" M   416.43,   103.77  L   416.43,   112.27  L   424.93,   120.77  L   458.92,   120.77  L   458.92,   154.19  " /><path style="stroke:#FFE600;stroke-width:1.13 ;&st6;" d=" M   416.43,   103.77  L   416.43,   112.27  L   424.93,   120.77  L   458.92,   120.77  L   458.92,   154.19  " /></a><a style="cursor:pointer;" ewd:lineID="14"><path style="stroke:#000000;stroke-width:5.10 ;&st6;" d=" M   458.92,   257.31  L   458.92,   299.24  L   424.93,   299.24  L   416.43,   307.73  L   416.43,   309.72  " /><path style="stroke:#FFFFFF;stroke-width:2.27 ;&st6;" d=" M   458.92,   257.31  L   458.92,   299.24  L   424.93,   299.24  L   416.43,   307.73  L   416.43,   309.72  " /><path style="stroke:#FFE600;stroke-width:1.13 ;&st6;" d=" M   458.92,   257.31  L   458.92,   299.24  L   424.93,   299.24  L   416.43,   307.73  L   416.43,   309.72  " /></a><a style="cursor:pointer;" ewd:lineID="15"><path style="stroke:#000000;stroke-width:5.10 ;&st6;" d=" M   458.92,   189.32  L   458.92,   222.18  " /><path style="stroke:#FFFFFF;stroke-width:2.27 ;&st6;" d=" M   458.92,   189.32  L   458.92,   222.18  " /><path style="stroke:#FFE600;stroke-width:1.13 ;&st6;" d=" M   458.92,   189.32  L   458.92,   222.18  " /></a><a style="cursor:pointer;" ewd:lineID="16"><path style="stroke:#FFE600;stroke-width:5.10 ;&st6;" d=" M   569.40,   460.71  L   569.40,   496.97  " /></a><a style="cursor:pointer;" ewd:lineID="17"><path style="stroke:#FFE600;stroke-width:5.10 ;&st6;" d=" M   569.40,   409.72  L   569.40,   445.98  " /></a><a style="cursor:pointer;" ewd:lineID="18"><path style="stroke:#FFE600;stroke-width:5.10 ;&st6;" d=" M   569.40,   359.29  L   569.40,   394.99  " /></a><a style="cursor:pointer;" ewd:lineID="19"><path style="stroke:#000000;stroke-width:5.10 ;&st6;" d=" M   654.39,   152.78  L   654.39,   188.19  " /><path style="stroke:#FFFFFF;stroke-width:2.27 ;&st6;" d=" M   654.39,   152.78  L   654.39,   188.19  " /><path style="stroke:#FFE600;stroke-width:1.13 ;&st6;" d=" M   654.39,   152.78  L   654.39,   188.19  " /></a><a style="cursor:pointer;" ewd:lineID="20"><path style="stroke:#000000;stroke-width:5.10 ;&st6;" d=" M   654.39,   137.76  L   654.39,    61.28  L   713.88,    61.28  L   713.88,    94.14  " /><path style="stroke:#FFFFFF;stroke-width:2.27 ;&st6;" d=" M   654.39,   137.76  L   654.39,    61.28  L   713.88,    61.28  L   713.88,    94.14  " /><path style="stroke:#FFE600;stroke-width:1.13 ;&st6;" d=" M   654.39,   137.76  L   654.39,    61.28  L   713.88,    61.28  L   713.88,    94.14  " /></a><a style="cursor:pointer;" ewd:lineID="21"><path style="stroke:#992903;stroke-width:5.10 ;&st6;" d=" M   679.89,   409.72  L   679.89,   460.71  L   722.38,   460.71  L   722.38,   418.22  L   747.88,   418.22  " /></a><a style="cursor:pointer;" ewd:lineID="22"><path style="stroke:#992903;stroke-width:5.10 ;&st6;" d=" M   679.89,   359.29  L   679.89,   394.99  " /></a><a style="cursor:pointer;" ewd:lineID="23"><path style="stroke:#992903;stroke-width:5.10 ;&st6;" d=" M   756.37,   681.67  L   756.37,   596.69  " /></a><a style="cursor:pointer;" ewd:lineID="24"><path style="stroke:#992903;stroke-width:5.10 ;&st6;" d=" M   756.37,   579.69  L   756.37,   543.43  " /></a><a style="cursor:pointer;" ewd:lineID="25"><path style="stroke:#992903;stroke-width:5.10 ;&st6;" d=" M   756.37,   426.71  L   756.37,   520.20  " /></a><a style="cursor:pointer;" ewd:lineID="26"><path style="stroke:#992903;stroke-width:5.10 ;&st6;" d=" M   764.87,   418.22  L   798.87,   418.22  L   798.87,   454.48  " /></a><a style="cursor:pointer;" ewd:lineID="27"><path style="stroke:#000000;stroke-width:5.10 ;&st6;" d=" M   790.37,   103.77  L   790.37,   171.76  L   713.88,   171.76  L   713.88,   147.39  " /><path style="stroke:#FFFFFF;stroke-width:2.27 ;&st6;" d=" M   790.37,   103.77  L   790.37,   171.76  L   713.88,   171.76  L   713.88,   147.39  " /><path style="stroke:#FFE600;stroke-width:1.13 ;&st6;" d=" M   790.37,   103.77  L   790.37,   171.76  L   713.88,   171.76  L   713.88,   147.39  " /></a><a style="cursor:pointer;" ewd:lineID="28"><path style="stroke:#992903;stroke-width:5.10 ;&st6;" d=" M   798.87,   469.21  L   798.87,   503.20  L   764.87,   503.20  L   756.37,   511.70  L   756.37,   520.20  " /></a><a style="cursor:pointer;" ewd:lineID="29"><path style="stroke:#FF0000;stroke-width:5.10 ;&st6;" d=" M   866.86,   188.19  L   866.86,   169.49  " /></a><a style="cursor:pointer;" ewd:lineID="30"><path style="stroke:#FF0000;stroke-width:5.10 ;&st6;" d=" M   866.86,   137.76  L   866.86,   154.76  " /></a><a style="cursor:pointer;" ewd:lineID="31"><path style="stroke:#FF0000;stroke-width:5.10 ;&st6;" d=" M   866.86,   103.77  L   866.86,   120.77  " /></a><a style="cursor:pointer;" ewd:lineID="32"><path style="stroke:#000000;stroke-width:0.85 ;&st6;" d=" M   118.98,   503.20  L   118.98,   519.63  " /></a><a ewd:figtype="w2w" style="cursor:pointer;" ewd:pinNo="5" ewd:code="DA1" ewd:figID="19"><path style="&st2;" d=" M   305.95,   375.72  L   288.95,   375.72  L   288.95,   384.22  L   305.95,   384.22  L   305.95,   375.72 " /><text style="&st8;" transform="matrix(&st16;  291.88  382.09 )"><tspan x="0" style="&st18;" y="0">DA1</tspan></text></a><a ewd:figtype="w2w" style="cursor:pointer;" ewd:pinNo="4" ewd:code="DA1" ewd:figID="20"><path style="&st2;" d=" M   424.93,   375.72  L   407.93,   375.72  L   407.93,   384.22  L   424.93,   384.22  L   424.93,   375.72 " /><text style="&st8;" transform="matrix(&st16;  410.86  382.09 )"><tspan x="0" style="&st18;" y="0">DA1</tspan></text></a><a ewd:figtype="w2w" style="cursor:pointer;" ewd:pinNo="16" ewd:code="AI3" ewd:figID="21"><path style="&st2;" d=" M   424.93,   324.73  L   407.93,   324.73  L   407.93,   333.23  L   424.93,   333.23  L   424.93,   324.73 " /><text style="&st8;" transform="matrix(&st16;  412.07  331.1 )"><tspan x="0" style="&st18;" y="0">AI3</tspan></text></a><a ewd:figtype="w2w" style="cursor:pointer;" ewd:pinNo="4" ewd:code="AI6" ewd:figID="22"><path style="&st2;" d=" M   424.93,   316.23  L   407.93,   316.23  L   407.93,   324.73  L   424.93,   324.73  L   424.93,   316.23 " /><text style="&st8;" transform="matrix(&st16;  412.07  322.6 )"><tspan x="0" style="&st18;" y="0">AI6</tspan></text></a><a ewd:figtype="w2w" style="cursor:pointer;" ewd:pinNo="2" ewd:code="DA1" ewd:figID="23"><path style="&st2;" d=" M   577.90,   503.20  L   560.91,   503.20  L   560.91,   511.70  L   577.90,   511.70  L   577.90,   503.20 " /><text style="&st8;" transform="matrix(&st16;  563.84  509.57 )"><tspan x="0" style="&st18;" y="0">DA1</tspan></text></a><a ewd:figtype="w2w" style="cursor:pointer;" ewd:pinNo="48" ewd:code="AI3" ewd:figID="24"><path style="&st2;" d=" M   577.90,   452.21  L   560.91,   452.21  L   560.91,   460.71  L   577.90,   460.71  L   577.90,   452.21 " /><text style="&st8;" transform="matrix(&st16;  565.04  458.58 )"><tspan x="0" style="&st18;" y="0">AI3</tspan></text></a><a ewd:figtype="w2w" style="cursor:pointer;" ewd:pinNo="15" ewd:code="IL2" ewd:figID="25"><path style="&st2;" d=" M   577.90,   401.22  L   560.91,   401.22  L   560.91,   409.72  L   577.90,   409.72  L   577.90,   401.22 " /><text style="&st8;" transform="matrix(&st16;  565.27  407.59 )"><tspan x="0" style="&st18;" y="0">IL2</tspan></text></a><a ewd:figtype="w2w" style="cursor:pointer;" ewd:pinNo="28" ewd:code="IL1" ewd:figID="26"><path style="&st2;" d=" M   662.89,   137.76  L   645.89,   137.76  L   645.89,   146.26  L   662.89,   146.26  L   662.89,   137.76 " /><text style="&st8;" transform="matrix(&st16;  650.25  144.13 )"><tspan x="0" style="&st18;" y="0">IL1</tspan></text></a><a ewd:figtype="w2w" style="cursor:pointer;" ewd:pinNo="26" ewd:code="IL1" ewd:figID="27"><path style="&st2;" d=" M   688.38,   401.22  L   671.39,   401.22  L   671.39,   409.72  L   688.38,   409.72  L   688.38,   401.22 " /><text style="&st8;" transform="matrix(&st16;  675.75  407.59 )"><tspan x="0" style="&st18;" y="0">IL1</tspan></text></a><a ewd:figtype="w2w" style="cursor:pointer;" ewd:pinNo="9" ewd:code="AC5" ewd:figID="28"><path style="&st2;" d=" M   764.87,   528.70  L   747.88,   528.70  L   747.88,   537.20  L   764.87,   537.20  L   764.87,   528.70 " /><text style="&st8;" transform="matrix(&st16;  750.77  535.07 )"><tspan x="0" style="&st18;" y="0">AC5</tspan></text></a><a ewd:figtype="w2w" style="cursor:pointer;" ewd:pinNo="9" ewd:code="IC2" ewd:figID="29"><path style="&st2;" d=" M   764.87,   520.20  L   747.88,   520.20  L   747.88,   528.70  L   764.87,   528.70  L   764.87,   520.20 " /><text style="&st8;" transform="matrix(&st16;  751.9  526.57 )"><tspan x="0" style="&st18;" y="0">IC2</tspan></text></a><a ewd:figtype="w2w" style="cursor:pointer;" ewd:pinNo="56" ewd:code="AI3" ewd:figID="30"><path style="&st2;" d=" M   807.37,   460.71  L   790.37,   460.71  L   790.37,   469.21  L   807.37,   469.21  L   807.37,   460.71 " /><text style="&st8;" transform="matrix(&st16;  794.5  467.08 )"><tspan x="0" style="&st18;" y="0">AI3</tspan></text></a><a ewd:figtype="w2w" style="cursor:pointer;" ewd:pinNo="59" ewd:code="IL1" ewd:figID="31"><path style="&st2;" d=" M   875.35,   154.76  L   858.36,   154.76  L   858.36,   163.26  L   875.35,   163.26  L   875.35,   154.76 " /><text style="&st8;" transform="matrix(&st16;  862.72  161.13 )"><tspan x="0" style="&st18;" y="0">IL1</tspan></text></a><a ewd:figtype="gp" style="cursor:pointer;" ewd:code="DA" ewd:figID="32"><path style="&st2;" d=" M    74.36,   681.67  L    95.61,   681.67  L    84.99,   697.25  L    74.36,   681.67 " /><text style="&st8;" transform="matrix(&st16;  80.92  689.46 )"><tspan x="0" style="&st18;" y="0">DA</tspan></text></a><a ewd:figtype="gp" style="cursor:pointer;" ewd:code="AC" ewd:figID="33"><path style="&st2;" d=" M   108.36,   681.67  L   129.60,   681.67  L   118.98,   697.25  L   108.36,   681.67 " /><text style="&st8;" transform="matrix(&st16;  114.88  689.46 )"><tspan x="0" style="&st18;" y="0">AC</tspan></text></a><a ewd:figtype="gp" style="cursor:pointer;" ewd:code="CA" ewd:figID="34"><path style="&st2;" d=" M   745.75,   681.67  L   767.00,   681.67  L   756.37,   697.25  L   745.75,   681.67 " /><text style="&st8;" transform="matrix(&st16;  752.27  689.46 )"><tspan x="0" style="&st18;" y="0">CA</tspan></text></a><a ewd:figtype="sp" style="cursor:pointer;" ewd:code="SP44" ewd:figID="35"><path style="&st2;" d=" M   412.18,   163.26  L   420.68,   163.26  L   424.93,   167.51  L   424.93,   176.01  L   420.68,   180.26  L   412.18,   180.26  L   407.93,   176.01  L   407.93,   167.51  L   412.18,   163.26 " /></a><a ewd:figtype="sp" style="cursor:pointer;" ewd:code="SP19" ewd:figID="36"><path style="&st2;" d=" M   752.12,   579.69  L   760.62,   579.69  L   764.87,   583.94  L   764.87,   592.44  L   760.62,   596.69  L   752.12,   596.69  L   747.88,   592.44  L   747.88,   583.94  L   752.12,   579.69 " /></a><a ewd:figtype="sp" style="cursor:pointer;" ewd:code="SP60" ewd:figID="37"><path style="&st2;" d=" M   752.12,   409.72  L   760.62,   409.72  L   764.87,   413.97  L   764.87,   422.46  L   760.62,   426.71  L   752.12,   426.71  L   747.88,   422.46  L   747.88,   413.97  L   752.12,   409.72 " /></a><a ewd:figtype="sp" style="cursor:pointer;" ewd:code="SP51" ewd:figID="38"><path style="&st2;" d=" M   862.61,   120.77  L   871.10,   120.77  L   875.35,   125.01  L   875.35,   133.51  L   871.10,   137.76  L   862.61,   137.76  L   858.36,   133.51  L   858.36,   125.01  L   862.61,   120.77 " /></a></g></svg>