<?xml version="1.0" encoding="utf-8"?>
<!DOCTYPE svg PUBLIC "-//W3C//DTD SVG 1.0//EN" "http://www.w3.org/TR/2001/REC-SVG-20010904/DTD/svg10.dtd"[
	<!ENTITY ns_flows "http://ns.adobe.com/Flows/1.0/">
	<!ENTITY ns_svg "http://www.w3.org/2000/svg">
	<!ENTITY ns_xlink "http://www.w3.org/1999/xlink">
	<!ENTITY st0 "font-size:7px;font-family:'MS-PGothic';adobe-font-script:japanese;">
	<!ENTITY st1 "font-size:6px;font-family:'ArialMT';">
	<!-- White fill  -->
	<!ENTITY st2 "fill:#FFFFFF;stroke:#000000; stroke-width:1.41;stroke-linecap:round;stroke-linejoin:round;">
	<!-- Yellow fill  -->
	<!ENTITY st3 "fill:#FFFFCC;stroke:#FFFFCC; stroke-width:0.1;stroke-linecap:round;stroke-linejoin:round;">
	<!-- Gray fill  -->
	<!ENTITY st4 "fill:#CCCCCC;stroke:#CCCCCC; stroke-width:0.1;stroke-linecap:round;stroke-linejoin:round;">
	<!-- Light-blue fill -->
	<!ENTITY st5 "fill:#CCECF4;stroke:#000000; stroke-width:1.133;stroke-linecap:round;stroke-linejoin:round;">
	<!ENTITY st6 "fill:none;stroke-linecap:butt; stroke-linejoin:round;">
	<!ENTITY st7 "fill:none;stroke:#000000;stroke-linecap:round;stroke-linejoin:round;">
	<!ENTITY st8 "enable-background:new    ;">
	<!-- Black fill -->
	<!ENTITY st9 "fill:#000000;stroke:#000000; stroke-linecap:round;stroke-linejoin:round;">
	<!-- SRS note   -->
	<!ENTITY st10 "font-size:9px;font-family:'ArialMT';">
	<!ENTITY st11 "font-size:9px;font-family:'Svg Symbol';">
	<!ENTITY st12 "font-size:6px;font-family:'Svg Symbol';">
	<!ENTITY st13 "fill:none;stroke:#ff0000;stroke-linecap:round;stroke-linejoin:round;">
	<!-- Yellow fill  -->
	<!ENTITY st14 "fill:#FFFF00;stroke:#FFFF00; stroke-width:0.1;stroke-linecap:round;stroke-linejoin:round;">
	<!ENTITY st15 "font-size:6px;font-family:'MS-PGothic';adobe-font-script:japanese;">
	<!ENTITY st16 "1.00 0.00 0.00 1.00">
	<!ENTITY st17 "0.00 -1.00 1.00 0.00">
	<!ENTITY st18 "font-size:6px;font-family:'Arial';">
	<!ENTITY st19 "font-size:9px;font-family:'Arial';">
	<!ENTITY st20 "font-size:6px;font-family:'MS-PGothic','MS PGothic';adobe-font-script:japanese;">
	<!ENTITY st21 "font-size:7px;font-family:'MS-PGothic','MS PGothic';adobe-font-script:japanese;">
	<!ATTLIST svg
		xmlns:ewd CDATA #FIXED "http://shcl.co.jp/ewd"
		xmlns:a CDATA #FIXED "http://ns.adobe.com/AdobeSVGViewerExtensions/3.0/"
		ewd:ver CDATA #IMPLIED
	>
	<!ATTLIST a
		ewd:lineID CDATA #IMPLIED
		ewd:groupID CDATA #IMPLIED
		ewd:figtype CDATA #IMPLIED
		ewd:code CDATA #IMPLIED
		ewd:figID CDATA #IMPLIED
		ewd:pinNo CDATA #IMPLIED
		ewd:comment CDATA #IMPLIED >
	<!ATTLIST g
		ewd:lineID CDATA #IMPLIED
		ewd:groupID CDATA #IMPLIED
		ewd:figtype CDATA #IMPLIED
		ewd:code CDATA #IMPLIED
		ewd:figID CDATA #IMPLIED
		ewd:pinNo CDATA #IMPLIED
		ewd:comment CDATA #IMPLIED >
	<!ATTLIST text
		ewd:textID CDATA #IMPLIED >
	<!ATTLIST title
		ewd:textID CDATA #IMPLIED >
]>
<!-- Generator: Shintec Hozumi YS   -->
<svg onload="call_execInitLoadProc_svg('system')" style="overflow:visible;  enable-background:new 0 0 970.709 710.000" viewBox="0 0 970.709 710.000" height="710.000" width="970.709" xml:space="preserve" ewd:ver="2.1.2.9" xmlns="&ns_svg;" xmlns:a="http://ns.adobe.com/AdobeSVGViewerExtensions/3.0/" xmlns:ewd="http://shcl.co.jp/ewd" xmlns:xlink="&ns_xlink;">
<path style="stroke-width:1.42 ;&st7;  " d=" M   730.88,   571.19  L   739.38,   571.19  " /><path style="stroke-width:1.42 ;&st7;  " d=" M   735.85,   443.71  L   730.88,   448.68  " /><path style="stroke-width:1.42 ;&st7;  " d=" M   742.90,   460.71  L   747.88,   455.74  " /><path style="stroke-width:1.42 ;&st7;  " d=" M   730.88,   455.74  L   735.85,   460.71  " /><path style="stroke-width:1.42 ;&st7;  " d=" M   747.88,   448.68  L   742.90,   443.71  " /><path style="stroke-width:1.42 ;&st7;  " d=" M   922.82,   120.77  L   917.85,   125.74  " /><path style="stroke-width:1.42 ;&st7;  " d=" M   929.87,   137.76  L   934.84,   132.79  " /><path style="stroke-width:1.42 ;&st7;  " d=" M   917.85,   132.79  L   922.82,   137.76  " /><path style="stroke-width:1.42 ;&st7;  " d=" M   934.84,   125.74  L   929.87,   120.77  " /><path style="stroke-width:1.42 ;&st7;  " d=" M   730.88,   503.20  L   739.38,   503.20  " /><path style="stroke-width:1.42 ;&st7;  " d=" M   730.88,   401.22  L   739.38,   401.22  " /><path style="stroke-width:1.42 ;&st7;  " d=" M   620.40,   401.22  L   628.89,   401.22  " /><path style="stroke-width:1.42 ;&st7;  " d=" M   620.40,   477.71  L   628.89,   477.71  " /><path style="stroke-width:1.42 ;&st7;  " d=" M   934.84,   163.26  L   926.35,   163.26  " /><path style="stroke-width:1.42 ;&st7;  " d=" M   722.38,   146.26  L   713.88,   146.26  " /><path style="stroke-width:1.42 ;&st7;  " d=" M   620.40,   545.69  L   628.89,   545.69  " /><text style="&st18;" transform="matrix(&st17;  735.68  481.26 )">BR</text><text style="&st18;" transform="matrix(&st17;  922.65  147.87 )">R</text><text style="&st18;" transform="matrix(&st17;  735.68  625.73 )">BR</text><text style="&st18;" transform="matrix(&st17;  735.68  544.99 )">BR</text><text style="&st18;" transform="matrix(&st17;  735.68  430.26 )">BR</text><text style="&st18;" transform="matrix(&st17;  625.2  377.41 )">Y</text><text style="&st18;" transform="matrix(&st17;  735.68  379.27 )">BR</text><text style="&st18;" transform="matrix(&st17;  846.16  125.94 )">B-Y</text><text style="&st18;" transform="matrix(&st17;  922.65  113.88 )">R</text><text style="&st18;" transform="matrix(&st17;  710.19  125.94 )">B-Y</text><text style="&st18;" transform="matrix(&st17;  625.2  436.9 )">Y</text><text style="&st18;" transform="matrix(&st17;  625.2  521.89 )">Y</text><text style="&st18;" transform="matrix(&st17;  922.65  181.87 )">R</text><text style="&st18;" transform="matrix(&st17;  710.19  176.94 )">B-Y</text><text style="&st18;" transform="matrix(&st16;  541.72  575.99 )">Y</text><g ewd:figtype="conn" ewd:figID="2" ewd:code="L25,L26"><path style="stroke-width:1.42 ;&st7;  " d=" M   658.64,   275.86  L   650.14,   275.86  " /><path style="stroke-width:1.42 ;&st7;  " d=" M   658.64,   280.11  L   650.14,   280.11  " /><path style="stroke-width:0.85 ;&st7;  " d=" M   930.59,   222.75  L   922.10,   222.75  " /><path style="stroke-width:0.85 ;&st7;  " d=" M   718.13,   222.75  L   709.63,   222.75  " /><path style="stroke-width:0.85 ;&st7;  " d=" M   636.27,   271.79  L   643.63,   267.54  " /><path style="stroke-width:0.85 ;&st7;  " d=" M   633.14,   273.74  L   624.65,   273.74  " /><path style="stroke-width:0.85 ;&st7;  " d=" M   739.38,   235.50  L   739.38,   243.99  " /><path style="stroke-width:0.85 ;&st7;  " d=" M   641.63,   264.08  L   634.27,   268.33  " /><path style="stroke-width:0.85 ;&st7;  " d=" M   633.14,   333.23  L   624.65,   333.23  " /><path style="stroke-width:0.85 ;&st7;  " d=" M   654.39,   290.74  L   654.39,   280.11  " /><path style="stroke-width:0.85 ;&st7;  " d=" M   654.39,   275.86  L   654.39,   256.74  " /><path style="stroke-width:0.85 ;&st7;  " d=" M   653.20,   255.74  L   652.93,   256.21  L   652.83,   256.74  L   652.93,   257.28  L   653.20,   257.75  L   653.61,   258.09  L   654.12,   258.28  L   654.66,   258.28  L   655.17,   258.09  L   655.58,   257.75  L   655.85,   257.28  L   655.95,   256.74  L   655.85,   256.21  L   655.58,   255.74  L   655.17,   255.39  L   654.66,   255.21  L   654.12,   255.21  L   653.61,   255.39  L   653.20,   255.74  L   653.59,   256.45  L   653.59,   257.03  L   653.97,   257.48  L   654.54,   257.58  L   655.04,   257.29  L   655.24,   256.74  L   655.04,   256.20  L   654.54,   255.91  L   653.97,   256.01  L   654.39,   256.74  " /><path style="stroke-width:0.85 ;&st7;  " d=" M   628.89,   290.74  L   671.39,   290.74  " /><path style="stroke-width:0.85 ;&st7;  " d=" M   628.89,   256.74  L   671.39,   256.74  " /><path style="stroke-width:0.85 ;&st7;  " d=" M   671.39,   290.74  L   671.39,   282.24  L   668.55,   280.82  L   674.22,   277.99  L   668.55,   275.16  L   674.22,   272.32  L   668.55,   269.49  L   674.22,   266.66  L   671.39,   265.24  L   671.39,   256.74  " /><path style="stroke-width:0.85 ;&st7;  " d=" M   712.69,   238.74  L   712.42,   239.21  L   712.32,   239.75  L   712.42,   240.28  L   712.69,   240.75  L   713.10,   241.09  L   713.61,   241.28  L   714.15,   241.28  L   714.66,   241.09  L   715.07,   240.75  L   715.35,   240.28  L   715.44,   239.75  L   715.35,   239.21  L   715.07,   238.74  L   714.66,   238.40  L   714.15,   238.21  L   713.61,   238.21  L   713.10,   238.40  L   712.69,   238.74  L   713.08,   239.45  L   713.08,   240.04  L   713.46,   240.48  L   714.03,   240.58  L   714.53,   240.29  L   714.73,   239.75  L   714.53,   239.20  L   714.03,   238.91  L   713.46,   239.01  L   713.88,   239.75  " /><path style="stroke-width:0.85 ;&st7;  " d=" M   713.88,   197.25  L   713.88,   239.75  " /><path style="stroke-width:0.28 ;&st9;  " d=" M   713.88,   222.75  L   708.21,   214.25  L   719.55,   214.25  L   713.88,   222.75  " /><path style="stroke-width:0.85 ;&st7;  " d=" M   643.63,   267.54  L   641.30,   270.59  L   639.83,   268.05  L   643.63,   267.54  L   642.35,   268.29  L   641.36,   269.57  L   640.74,   268.50  L   642.35,   268.29  L   641.71,   268.65  L   641.40,   269.06  L   641.20,   268.72  L   641.71,   268.65  " /><path style="stroke-width:1.42 ;&st7;  " d=" M   594.90,   197.25  L   594.90,   350.23  L   943.34,   350.23  L   943.34,   197.25  L   594.90,   197.25  " /><path style="stroke-width:1.42 ;&st7;  " d=" M   713.88,   273.74  L   713.88,   290.74  L   798.87,   290.74  L   798.87,   273.74  L   713.88,   273.74  " /><path style="stroke-width:0.28 ;&st9;  " d=" M   739.38,   239.75  L   730.88,   245.41  L   730.88,   234.08  L   739.38,   239.75  " /><path style="stroke-width:0.85 ;&st7;  " d=" M   756.37,   273.74  L   756.37,   239.75  L   926.34,   239.75  L   926.34,   197.25  " /><path style="stroke-width:0.85 ;&st7;  " d=" M   755.18,   238.74  L   754.91,   239.21  L   754.82,   239.75  L   754.91,   240.28  L   755.18,   240.75  L   755.59,   241.09  L   756.10,   241.28  L   756.65,   241.28  L   757.15,   241.09  L   757.57,   240.75  L   757.84,   240.28  L   757.93,   239.75  L   757.84,   239.21  L   757.57,   238.74  L   757.15,   238.40  L   756.65,   238.21  L   756.10,   238.21  L   755.59,   238.40  L   755.18,   238.74  L   755.57,   239.45  L   755.57,   240.04  L   755.95,   240.48  L   756.52,   240.58  L   757.02,   240.29  L   757.22,   239.75  L   757.02,   239.20  L   756.52,   238.91  L   755.95,   239.01  L   756.37,   239.75  " /><path style="stroke-width:0.28 ;&st9;  " d=" M   926.34,   222.75  L   920.68,   214.25  L   932.01,   214.25  L   926.34,   222.75  " /><path style="stroke-width:0.85 ;&st7;  " d=" M   641.63,   264.08  L   639.29,   267.12  L   637.83,   264.58  L   641.63,   264.08  L   640.35,   264.82  L   639.36,   266.10  L   638.74,   265.03  L   640.35,   264.82  L   639.70,   265.19  L   639.39,   265.59  L   639.20,   265.25  L   639.70,   265.19  " /><path style="stroke-width:0.85 ;&st7;  " d=" M   628.89,   350.23  L   628.89,   316.23  L   626.06,   314.82  L   631.73,   311.98  L   626.06,   309.15  L   631.73,   306.32  L   626.06,   303.48  L   631.73,   300.65  L   628.89,   299.24  L   628.89,   239.75  L   756.37,   239.75  " /><path style="stroke-width:0.28 ;&st9;  " d=" M   628.89,   333.23  L   623.23,   324.73  L   634.56,   324.73  L   628.89,   333.23  " /><path style="stroke-width:0.28 ;&st9;  " d=" M   628.89,   273.74  L   623.23,   265.24  L   634.56,   265.24  L   628.89,   273.74  " /><path style="stroke-width:0.85 ;&st7;  " d=" M   653.20,   289.73  L   652.93,   290.20  L   652.83,   290.74  L   652.93,   291.27  L   653.20,   291.74  L   653.61,   292.09  L   654.12,   292.27  L   654.66,   292.27  L   655.17,   292.09  L   655.58,   291.74  L   655.85,   291.27  L   655.95,   290.74  L   655.85,   290.20  L   655.58,   289.73  L   655.17,   289.39  L   654.66,   289.20  L   654.12,   289.20  L   653.61,   289.39  L   653.20,   289.73  L   653.59,   290.45  L   653.59,   291.03  L   653.97,   291.47  L   654.54,   291.57  L   655.04,   291.28  L   655.24,   290.74  L   655.04,   290.19  L   654.54,   289.90  L   653.97,   290.00  L   654.39,   290.74  " /><path style="stroke-width:0.85 ;&st7;  " d=" M   627.70,   289.73  L   627.43,   290.20  L   627.34,   290.74  L   627.43,   291.27  L   627.70,   291.74  L   628.12,   292.09  L   628.62,   292.27  L   629.17,   292.27  L   629.67,   292.09  L   630.09,   291.74  L   630.36,   291.27  L   630.45,   290.74  L   630.36,   290.20  L   630.09,   289.73  L   629.67,   289.39  L   629.17,   289.20  L   628.62,   289.20  L   628.12,   289.39  L   627.70,   289.73  L   628.10,   290.45  L   628.10,   291.03  L   628.47,   291.47  L   629.04,   291.57  L   629.55,   291.28  L   629.74,   290.74  L   629.55,   290.19  L   629.04,   289.90  L   628.47,   290.00  L   628.89,   290.74  " /><path style="stroke-width:0.85 ;&st7;  " d=" M   627.70,   255.74  L   627.43,   256.21  L   627.34,   256.74  L   627.43,   257.28  L   627.70,   257.75  L   628.12,   258.09  L   628.62,   258.28  L   629.17,   258.28  L   629.67,   258.09  L   630.09,   257.75  L   630.36,   257.28  L   630.45,   256.74  L   630.36,   256.21  L   630.09,   255.74  L   629.67,   255.39  L   629.17,   255.21  L   628.62,   255.21  L   628.12,   255.39  L   627.70,   255.74  L   628.10,   256.45  L   628.10,   257.03  L   628.47,   257.48  L   629.04,   257.58  L   629.55,   257.29  L   629.74,   256.74  L   629.55,   256.20  L   629.04,   255.91  L   628.47,   256.01  L   628.89,   256.74  " /><text style="&st18;" transform="matrix(&st16;  735.71  346.53 )">ES</text><text style="&st18;" transform="matrix(&st16;  928.93  205.45 )">B</text><text style="&st18;" transform="matrix(&st16;  716.46  205.45 )">B</text><text style="&st18;" transform="matrix(&st16;  631.48  346.54 )">CHG-</text><text style="&st18;" transform="matrix(&st16;  740.23  281.38 )" ewd:textID="5">Meter Micro <tspan x="0 " dy="6.0">Computer</tspan></text><text style="&st18;" transform="matrix(&st17;  621.23  278.43 )" ewd:textID="2">Charge</text><text style="&st18;" transform="matrix(&st16;  620.2  356.73 )">1</text><text style="&st18;" transform="matrix(&st16;  626.71  356.73 )">B</text><path style="stroke-width:1.42 ;&st7;   " d=" M   633.43,   354.76  C   633.43    352.26    631.40    350.23    628.89    350.23  " /><path style="stroke-width:1.42 ;&st7;   " d=" M   628.89,   350.23  C   626.39    350.23    624.36    352.26    624.36    354.76  " /><path style="stroke-width:1.42 ;&st7;   " d=" M   624.36,   354.76  C   624.36    357.26    626.39    359.29    628.89    359.29  " /><path style="stroke-width:1.42 ;&st7;   " d=" M   628.89,   359.29  C   631.40    359.29    633.43    357.26    633.43    354.76  " /><text style="&st18;" transform="matrix(&st16;  702.08  194.69 )">28</text><path style="stroke-width:1.42 ;&st7;   " d=" M   718.41,   192.72  C   718.41    190.22    716.38    188.19    713.88    188.19  " /><path style="stroke-width:1.42 ;&st7;   " d=" M   713.88,   188.19  C   711.38    188.19    709.35    190.22    709.35    192.72  " /><path style="stroke-width:1.42 ;&st7;   " d=" M   709.35,   192.72  C   709.35    195.22    711.38    197.25    713.88    197.25  " /><path style="stroke-width:1.42 ;&st7;   " d=" M   713.88,   197.25  C   716.38    197.25    718.41    195.22    718.41    192.72  " /><text style="&st18;" transform="matrix(&st16;  711.58  194.69 )">A</text><text style="&st18;" transform="matrix(&st16;  727.58  356.73 )">15</text><text style="&st18;" transform="matrix(&st16;  737.07  356.73 )">A</text><path style="stroke-width:1.42 ;&st7;   " d=" M   743.91,   354.76  C   743.91    352.26    741.88    350.23    739.38    350.23  " /><path style="stroke-width:1.42 ;&st7;   " d=" M   739.38,   350.23  C   736.87    350.23    734.84    352.26    734.84    354.76  " /><path style="stroke-width:1.42 ;&st7;   " d=" M   734.84,   354.76  C   734.84    357.26    736.87    359.29    739.38    359.29  " /><path style="stroke-width:1.42 ;&st7;   " d=" M   739.38,   359.29  C   741.88    359.29    743.91    357.26    743.91    354.76  " /><text style="&st18;" transform="matrix(&st16;  914.55  194.69 )">26</text><path style="stroke-width:1.42 ;&st7;   " d=" M   930.88,   192.72  C   930.88    190.22    928.85    188.19    926.35    188.19  " /><path style="stroke-width:1.42 ;&st7;   " d=" M   926.35,   188.19  C   923.84    188.19    921.81    190.22    921.81    192.72  " /><path style="stroke-width:1.42 ;&st7;   " d=" M   921.81,   192.72  C   921.81    195.22    923.84    197.25    926.35    197.25  " /><path style="stroke-width:1.42 ;&st7;   " d=" M   926.35,   197.25  C   928.85    197.25    930.88    195.22    930.88    192.72  " /><text style="&st18;" transform="matrix(&st16;  924.04  194.69 )">A</text><g ewd:figtype="title"><text style="&st18;" transform="matrix(&st16;  820.95  358.12 )">L25(A),L26(B)</text><text style="&st18;" transform="matrix(&st16;  820.96  364.94 )" ewd:textID="3">Combination Meter Assembly</text></g></g><g ewd:figtype="rb" ewd:figID="5" ewd:code="FUSE16"><path style="stroke-width:0.85 ;&st7;  " d=" M   849.86,    78.27  L   849.86,    95.27  " /><path style="stroke-width:1.42 ;&st7;  " d=" M   851.98,   103.77  L   847.73,   103.77  " /><path style="stroke-width:1.42 ;&st7;  " d=" M   851.98,    95.27  L   847.73,    95.27  " /><path style="stroke-width:1.42 ;&st7;   " d=" M   856.23,    99.52  C   856.23     97.17    854.33     95.27    851.98     95.27  " /><path style="stroke-width:1.42 ;&st7;   " d=" M   851.98,   103.77  C   854.33    103.77    856.23    101.87    856.23     99.52  " /><path style="stroke-width:1.42 ;&st7;   " d=" M   843.48,    99.52  C   843.48    101.87    845.39    103.77    847.73    103.77  " /><path style="stroke-width:1.42 ;&st7;   " d=" M   847.73,    95.27  C   845.39     95.27    843.48     97.17    843.48     99.52  " /><path style="stroke-width:0.28 ;&st9;  " d=" M   849.86,    90.37  L   847.02,    87.54  L   847.02,    91.79  L   849.86,    94.62  L   852.69,    91.79  L   852.69,    87.54  L   849.86,    90.37  " /><text style="&st18;" transform="matrix(&st16;  844.65  32.08 )">(IG)</text><text style="&st18;" transform="matrix(&st16;  843.67  86.47 )">2</text><text style="&st18;" transform="matrix(&st16;  848.06  101.49 )">2</text><text style="&st18;" transform="matrix(&st16;  866.28  56.17 )">10A <tspan x="0 " dy="6.0">MET</tspan></text><path style="stroke-width:0.85 ;&st7;  " d=" M   849.86,    69.77  L   849.86,    78.27  " /><path style="stroke-width:0.85 ;&st7;   " d=" M   851.27,    68.36  C   851.27     67.57    850.64     66.94    849.86     66.94  " /><path style="stroke-width:0.85 ;&st7;   " d=" M   849.86,    66.94  C   849.08     66.94    848.44     67.57    848.44     68.36  " /><path style="stroke-width:0.85 ;&st7;   " d=" M   848.44,    68.36  C   848.44     69.14    849.08     69.77    849.86     69.77  " /><path style="stroke-width:0.85 ;&st7;   " d=" M   849.86,    69.77  C   850.64     69.77    851.27     69.14    851.27     68.36  " /><path style="stroke-width:0.85 ;&st7;   " d=" M   851.27,    45.69  C   851.27     44.91    850.64     44.28    849.86     44.28  " /><path style="stroke-width:0.85 ;&st7;   " d=" M   849.86,    44.28  C   849.08     44.28    848.44     44.91    848.44     45.69  " /><path style="stroke-width:0.85 ;&st7;   " d=" M   848.44,    45.69  C   848.44     46.48    849.08     47.11    849.86     47.11  " /><path style="stroke-width:0.85 ;&st7;   " d=" M   849.86,    47.11  C   850.64     47.11    851.27     46.48    851.27     45.69  " /><path style="stroke-width:1.42 ;&st7;   " d=" M   849.86,    66.94  C   852.60     65.33    853.51     61.80    851.89     59.06  " /><path style="stroke-width:1.42 ;&st7;   " d=" M   851.89,    59.06  C   851.38     58.18    850.74     57.55    849.86     57.03  " /><path style="stroke-width:1.42 ;&st7;   " d=" M   849.86,    47.11  C   847.12     48.72    846.21     52.25    847.82     54.99  " /><path style="stroke-width:1.42 ;&st7;   " d=" M   847.82,    54.99  C   848.34     55.87    848.98     56.51    849.86     57.03  " /><path style="stroke-width:1.42 ;&st7;  " d=" M   837.11,    35.78  L   837.11,    78.27  L   862.61,    78.27  L   862.61,    35.78  L   837.11,    35.78  " /></g><g ewd:figtype="rb" ewd:figID="6" ewd:code="FUSE5"><path style="stroke-width:0.85 ;&st7;  " d=" M   926.35,    78.27  L   926.35,    95.27  " /><path style="stroke-width:1.42 ;&st7;  " d=" M   928.47,   103.77  L   924.22,   103.77  " /><path style="stroke-width:1.42 ;&st7;  " d=" M   928.47,    95.27  L   924.22,    95.27  " /><path style="stroke-width:1.42 ;&st7;   " d=" M   932.72,    99.52  C   932.72     97.17    930.82     95.27    928.47     95.27  " /><path style="stroke-width:1.42 ;&st7;   " d=" M   928.47,   103.77  C   930.82    103.77    932.72    101.87    932.72     99.52  " /><path style="stroke-width:1.42 ;&st7;   " d=" M   919.97,    99.52  C   919.97    101.87    921.87    103.77    924.22    103.77  " /><path style="stroke-width:1.42 ;&st7;   " d=" M   924.22,    95.27  C   921.87     95.27    919.97     97.17    919.97     99.52  " /><path style="stroke-width:0.28 ;&st9;  " d=" M   926.34,    90.37  L   923.51,    87.54  L   923.51,    91.79  L   926.34,    94.62  L   929.18,    91.79  L   929.18,    87.54  L   926.34,    90.37  " /><text style="&st18;" transform="matrix(&st16;  918.3  32.08 )">(BAT)</text><text style="&st18;" transform="matrix(&st16;  920.16  86.47 )">2</text><text style="&st18;" transform="matrix(&st16;  924.54  101.49 )">2</text><text style="&st18;" transform="matrix(&st16;  942.77  53.34 )">10A <tspan x="0 " dy="6.0">DOME </tspan><tspan x="0 " dy="6.0">NO.1</tspan></text><path style="stroke-width:0.85 ;&st7;  " d=" M   926.35,    69.77  L   926.35,    78.27  " /><path style="stroke-width:0.85 ;&st7;   " d=" M   927.76,    68.36  C   927.76     67.57    927.13     66.94    926.35     66.94  " /><path style="stroke-width:0.85 ;&st7;   " d=" M   926.35,    66.94  C   925.56     66.94    924.93     67.57    924.93     68.36  " /><path style="stroke-width:0.85 ;&st7;   " d=" M   924.93,    68.36  C   924.93     69.14    925.56     69.77    926.35     69.77  " /><path style="stroke-width:0.85 ;&st7;   " d=" M   926.35,    69.77  C   927.13     69.77    927.76     69.14    927.76     68.36  " /><path style="stroke-width:0.85 ;&st7;   " d=" M   927.76,    45.69  C   927.76     44.91    927.13     44.28    926.35     44.28  " /><path style="stroke-width:0.85 ;&st7;   " d=" M   926.35,    44.28  C   925.56     44.28    924.93     44.91    924.93     45.69  " /><path style="stroke-width:0.85 ;&st7;   " d=" M   924.93,    45.69  C   924.93     46.48    925.56     47.11    926.35     47.11  " /><path style="stroke-width:0.85 ;&st7;   " d=" M   926.35,    47.11  C   927.13     47.11    927.76     46.48    927.76     45.69  " /><path style="stroke-width:1.42 ;&st7;   " d=" M   926.35,    66.94  C   929.08     65.33    930.00     61.80    928.38     59.06  " /><path style="stroke-width:1.42 ;&st7;   " d=" M   928.38,    59.06  C   927.86     58.18    927.23     57.55    926.35     57.03  " /><path style="stroke-width:1.42 ;&st7;   " d=" M   926.35,    47.11  C   923.61     48.72    922.70     52.25    924.31     54.99  " /><path style="stroke-width:1.42 ;&st7;   " d=" M   924.31,    54.99  C   924.83     55.87    925.46     56.51    926.35     57.03  " /><path style="stroke-width:1.42 ;&st7;  " d=" M   913.60,    35.78  L   913.60,    78.27  L   939.09,    78.27  L   939.09,    35.78  L   913.60,    35.78  " /></g><g ewd:figtype="conn" ewd:figID="7" ewd:code="I58"><path style="stroke-width:0.85 ;&st7;  " d=" M   773.37,   112.27  L   773.37,   129.26  " /><path style="stroke-width:1.42 ;&st7;  " d=" M   764.87,   112.27  L   781.87,   112.27  L   781.87,   129.26  L   764.87,   129.26  L   764.87,   112.27  " /><text style="&st18;" transform="matrix(&st16;  764.68  109.7 )">2</text><path style="stroke-width:1.42 ;&st7;   " d=" M   777.90,   107.73  C   777.90    105.23    775.87    103.20    773.37    103.20  " /><path style="stroke-width:1.42 ;&st7;   " d=" M   773.37,   103.20  C   770.87    103.20    768.84    105.23    768.84    107.73  " /><path style="stroke-width:1.42 ;&st7;   " d=" M   768.84,   107.73  C   768.84    110.24    770.87    112.27    773.37    112.27  " /><path style="stroke-width:1.42 ;&st7;   " d=" M   773.37,   112.27  C   775.87    112.27    777.90    110.24    777.90    107.73  " /><text style="&st18;" transform="matrix(&st16;  771.18  109.7 )">B</text><text style="&st18;" transform="matrix(&st16;  764.68  135.77 )">1</text><path style="stroke-width:1.42 ;&st7;   " d=" M   777.90,   133.80  C   777.90    131.29    775.87    129.26    773.37    129.26  " /><path style="stroke-width:1.42 ;&st7;   " d=" M   773.37,   129.26  C   770.87    129.26    768.84    131.29    768.84    133.80  " /><path style="stroke-width:1.42 ;&st7;   " d=" M   768.84,   133.80  C   768.84    136.30    770.87    138.33    773.37    138.33  " /><path style="stroke-width:1.42 ;&st7;   " d=" M   773.37,   138.33  C   775.87    138.33    777.90    136.30    777.90    133.80  " /><text style="&st18;" transform="matrix(&st16;  771.18  135.77 )">B</text><g ewd:figtype="title"><text style="&st18;" transform="matrix(&st17;  755.23  132.17 )" ewd:textID="7">No. 9 Junction <tspan x="0 " dy="6.0">Connector</tspan></text><text style="&st18;" transform="matrix(&st17;  748.4  132.16 )">I58(B)</text></g></g><g ewd:figtype="w2w" ewd:figID="22" ewd:code="CA1"><path style="stroke-width:1.42 ;&st7;  " d=" M   624.65,   536.63  L   628.89,   540.88  L   633.14,   536.63  " /><path style="stroke-width:1.42 ;&st7;  " d=" M   633.14,   540.03  L   628.89,   544.28  L   624.65,   540.03  " /><text style="&st18;" transform="matrix(&st16;  616.26  551.91 )">1</text></g><g ewd:figtype="w2w" ewd:figID="23" ewd:code="AI3"><path style="stroke-width:1.42 ;&st7;  " d=" M   633.14,   472.04  L   628.89,   476.29  L   624.65,   472.04  " /><path style="stroke-width:1.42 ;&st7;  " d=" M   624.65,   468.64  L   628.89,   472.89  L   633.14,   468.64  " /><text style="&st18;" transform="matrix(&st16;  613.16  483.92 )">28</text></g><g ewd:figtype="w2w" ewd:figID="24" ewd:code="IL2"><path style="stroke-width:1.42 ;&st7;  " d=" M   624.65,   392.15  L   628.89,   396.40  L   633.14,   392.15  " /><path style="stroke-width:1.42 ;&st7;  " d=" M   633.14,   395.55  L   628.89,   399.80  L   624.65,   395.55  " /><text style="&st18;" transform="matrix(&st16;  613.16  407.44 )">15</text></g><g ewd:figtype="w2w" ewd:figID="25" ewd:code="IL1"><path style="stroke-width:1.42 ;&st7;  " d=" M   718.13,   151.93  L   713.88,   147.68  L   709.63,   151.93  " /><path style="stroke-width:1.42 ;&st7;  " d=" M   718.13,   155.33  L   713.88,   151.08  L   709.63,   155.33  " /><text style="&st18;" transform="matrix(&st16;  698.15  143.98 )">28</text></g><g ewd:figtype="w2w" ewd:figID="26" ewd:code="CA2"><path style="stroke-width:1.42 ;&st7;  " d=" M   743.63,   565.52  L   739.38,   569.77  L   735.13,   565.52  " /><path style="stroke-width:1.42 ;&st7;  " d=" M   735.13,   562.12  L   739.38,   566.37  L   743.63,   562.12  " /><text style="&st18;" transform="matrix(&st16;  726.74  577.41 )">3</text></g><g ewd:figtype="w2w" ewd:figID="27" ewd:code="AI3"><path style="stroke-width:1.42 ;&st7;  " d=" M   743.63,   497.54  L   739.38,   501.78  L   735.13,   497.54  " /><path style="stroke-width:1.42 ;&st7;  " d=" M   735.13,   494.14  L   739.38,   498.39  L   743.63,   494.14  " /><text style="&st18;" transform="matrix(&st16;  723.64  509.42 )">55</text></g><g ewd:figtype="w2w" ewd:figID="28" ewd:code="IL1"><path style="stroke-width:1.42 ;&st7;  " d=" M   743.63,   395.55  L   739.38,   399.80  L   735.13,   395.55  " /><path style="stroke-width:1.42 ;&st7;  " d=" M   735.13,   392.15  L   739.38,   396.40  L   743.63,   392.15  " /><text style="&st18;" transform="matrix(&st16;  723.64  407.44 )">26</text></g><g ewd:figtype="w2w" ewd:figID="29" ewd:code="IL1"><path style="stroke-width:1.42 ;&st7;  " d=" M   930.59,   168.92  L   926.34,   164.67  L   922.10,   168.92  " /><path style="stroke-width:1.42 ;&st7;  " d=" M   930.59,   172.32  L   926.34,   168.07  L   922.10,   172.32  " /><text style="&st18;" transform="matrix(&st16;  910.61  160.98 )">59</text></g><g ewd:figtype="gp" ewd:figID="32" ewd:code="CE"><path style="stroke-width: 0.85 ;&st7;  " d=" M   737.96,   710.00  L   740.79,   710.00  " /><path style="stroke-width: 0.85 ;&st7;  " d=" M   736.54,   707.17  L   742.21,   707.17  " /><path style="stroke-width: 0.85 ;&st7;  " d=" M   735.13,   704.33  L   743.63,   704.33  " /><path style="stroke-width: 0.85 ;&st7;  " d=" M   730.88,   701.50  L   747.87,   701.50  " /><path style="stroke-width: 0.85 ;&st7;  " d=" M   739.38,   697.25  L   739.38,   701.50  " /></g></svg>