<?xml version="1.0" encoding="utf-8"?>
<!DOCTYPE svg PUBLIC "-//W3C//DTD SVG 1.0//EN" "http://www.w3.org/TR/2001/REC-SVG-20010904/DTD/svg10.dtd"[
	<!ENTITY ns_flows "http://ns.adobe.com/Flows/1.0/">
	<!ENTITY ns_svg "http://www.w3.org/2000/svg">
	<!ENTITY ns_xlink "http://www.w3.org/1999/xlink">
	<!ENTITY st0 "font-size:7px;font-family:'MS-PGothic';adobe-font-script:japanese;">
	<!ENTITY st1 "font-size:6px;font-family:'ArialMT';">
	<!-- White fill  -->
	<!ENTITY st2 "fill:#FFFFFF;stroke:#000000; stroke-width:1.41;stroke-linecap:round;stroke-linejoin:round;">
	<!-- Yellow fill  -->
	<!ENTITY st3 "fill:#FFFFCC;stroke:#FFFFCC; stroke-width:0.1;stroke-linecap:round;stroke-linejoin:round;">
	<!-- Gray fill  -->
	<!ENTITY st4 "fill:#CCCCCC;stroke:#CCCCCC; stroke-width:0.1;stroke-linecap:round;stroke-linejoin:round;">
	<!-- Light-blue fill -->
	<!ENTITY st5 "fill:#CCECF4;stroke:#000000; stroke-width:1.133;stroke-linecap:round;stroke-linejoin:round;">
	<!ENTITY st6 "fill:none;stroke-linecap:butt; stroke-linejoin:round;">
	<!ENTITY st7 "fill:none;stroke:#000000;stroke-linecap:round;stroke-linejoin:round;">
	<!ENTITY st8 "enable-background:new    ;">
	<!-- Black fill -->
	<!ENTITY st9 "fill:#000000;stroke:#000000; stroke-linecap:round;stroke-linejoin:round;">
	<!-- SRS note   -->
	<!ENTITY st10 "font-size:9px;font-family:'ArialMT';">
	<!ENTITY st11 "font-size:9px;font-family:'Svg Symbol';">
	<!ENTITY st12 "font-size:6px;font-family:'Svg Symbol';">
	<!ENTITY st13 "fill:none;stroke:#ff0000;stroke-linecap:round;stroke-linejoin:round;">
	<!-- Yellow fill  -->
	<!ENTITY st14 "fill:#FFFF00;stroke:#FFFF00; stroke-width:0.1;stroke-linecap:round;stroke-linejoin:round;">
	<!ENTITY st15 "font-size:6px;font-family:'MS-PGothic';adobe-font-script:japanese;">
	<!ENTITY st16 "1.00 0.00 0.00 1.00">
	<!ENTITY st17 "0.00 -1.00 1.00 0.00">
	<!ENTITY st18 "font-size:6px;font-family:'Arial';">
	<!ENTITY st19 "font-size:9px;font-family:'Arial';">
	<!ENTITY st20 "font-size:6px;font-family:'MS-PGothic','MS PGothic';adobe-font-script:japanese;">
	<!ENTITY st21 "font-size:7px;font-family:'MS-PGothic','MS PGothic';adobe-font-script:japanese;">
	<!ATTLIST svg
		xmlns:ewd CDATA #FIXED "http://shcl.co.jp/ewd"
		xmlns:a CDATA #FIXED "http://ns.adobe.com/AdobeSVGViewerExtensions/3.0/"
		ewd:ver CDATA #IMPLIED
	>
	<!ATTLIST a
		ewd:lineID CDATA #IMPLIED
		ewd:groupID CDATA #IMPLIED
		ewd:figtype CDATA #IMPLIED
		ewd:code CDATA #IMPLIED
		ewd:figID CDATA #IMPLIED
		ewd:pinNo CDATA #IMPLIED
		ewd:comment CDATA #IMPLIED >
	<!ATTLIST g
		ewd:lineID CDATA #IMPLIED
		ewd:groupID CDATA #IMPLIED
		ewd:figtype CDATA #IMPLIED
		ewd:code CDATA #IMPLIED
		ewd:figID CDATA #IMPLIED
		ewd:pinNo CDATA #IMPLIED
		ewd:comment CDATA #IMPLIED >
	<!ATTLIST text
		ewd:textID CDATA #IMPLIED >
	<!ATTLIST title
		ewd:textID CDATA #IMPLIED >
]>
<!-- Generator: Shintec Hozumi YS   -->
<svg onload="call_execInitLoadProc_svg('system')" style="overflow:visible;  enable-background:new 0 0 3601.076 710.000" viewBox="0 0 3601.076 710.000" height="710.000" width="3601.076" xml:space="preserve" ewd:ver="2.1.2.9" xmlns="&ns_svg;" xmlns:a="http://ns.adobe.com/AdobeSVGViewerExtensions/3.0/" xmlns:ewd="http://shcl.co.jp/ewd" xmlns:xlink="&ns_xlink;">
<text style="&st18;" transform="matrix(&st17;  1466.56  105.73 )">G</text><text style="&st18;" transform="matrix(&st16;  1211.88  55.0 )">L31</text><text style="&st18;" transform="matrix(&st16;  1211.89  61.83 )" ewd:textID="27">Door Control ECU with Receiver Assembly</text><path style="stroke-width:1.42 ;&st7;  " d=" M  1249.29,   231.25  L  1240.79,   231.25  " /><path style="stroke-width:1.42 ;&st7;  " d=" M  1147.31,   231.25  L  1138.81,   231.25  " /><text style="&st18;" transform="matrix(&st17;  1135.11  258.7 )">G</text><text style="&st18;" transform="matrix(&st17;  1237.1  258.7 )">G</text><text style="&st18;" transform="matrix(&st17;  1135.11  190.71 )">G</text><text style="&st18;" transform="matrix(&st17;  1296.59  262.19 )">G-Y</text><text style="&st18;" transform="matrix(&st17;  1330.58  262.19 )">G-B</text><text style="&st18;" transform="matrix(&st17;  1237.1  449.08 )">G-R</text><text style="&st18;" transform="matrix(&st17;  1466.56  262.11 )">G-R</text><g ewd:figtype="conn" ewd:figID="12" ewd:code="L31"><g ewd:lineID="41"><text style="&st18;" transform="matrix(&st16;  1460.97  86.47 )">17</text><text style="&st18;" transform="matrix(&st16;  1463.96  74.58 )">HAZ</text></g></g><g ewd:figtype="conn" ewd:figID="17" ewd:code="L50"><path style="stroke-width:0.85 ;&st7;  " d=" M  1338.53,   392.72  L  1330.03,   392.72  " /><path style="stroke-width:0.85 ;&st7;  " d=" M  1338.53,   358.73  L  1330.03,   358.73  " /><path style="stroke-width:0.85 ;&st7;  " d=" M  1347.01,   349.06  L  1339.65,   353.31  " /><path style="stroke-width:0.85 ;&st7;  " d=" M  1341.65,   356.78  L  1349.01,   352.53  " /><path style="stroke-width:0.85 ;&st7;  " d=" M  1372.52,   358.73  L  1364.02,   358.73  " /><path style="stroke-width:0.85 ;&st7;  " d=" M  1381.00,   349.06  L  1373.64,   353.31  " /><path style="stroke-width:0.85 ;&st7;  " d=" M  1375.65,   356.78  L  1383.01,   352.53  " /><path style="stroke-width:0.85 ;&st7;   " d=" M  1201.13,   367.22  C  1201.13    365.66   1199.86    364.39   1198.30    364.39  " /><path style="stroke-width:0.85 ;&st7;   " d=" M  1198.30,   364.39  C  1196.74    364.39   1195.47    365.66   1195.47    367.22  " /><path style="stroke-width:0.85 ;&st7;   " d=" M  1195.47,   367.22  C  1195.47    368.79   1196.74    370.06   1198.30    370.06  " /><path style="stroke-width:0.85 ;&st7;   " d=" M  1198.30,   370.06  C  1199.86    370.06   1201.13    368.79   1201.13    367.22  " /><path style="stroke-width:0.85 ;&st7;  " d=" M  1333.08,   315.23  L  1332.81,   315.70  L  1332.72,   316.23  L  1332.81,   316.77  L  1333.08,   317.24  L  1333.50,   317.58  L  1334.00,   317.77  L  1334.55,   317.77  L  1335.06,   317.58  L  1335.47,   317.24  L  1335.74,   316.77  L  1335.83,   316.23  L  1335.74,   315.70  L  1335.47,   315.23  L  1335.06,   314.88  L  1334.55,   314.70  L  1334.00,   314.70  L  1333.50,   314.88  L  1333.08,   315.23  L  1333.48,   315.94  L  1333.48,   316.52  L  1333.85,   316.97  L  1334.42,   317.07  L  1334.93,   316.78  L  1335.13,   316.23  L  1334.93,   315.69  L  1334.42,   315.40  L  1333.85,   315.50  L  1334.28,   316.23  " /><path style="stroke-width:1.42 ;&st7;  " d=" M  1181.30,   418.22  L  1181.30,   290.74  L  1385.27,   290.74  L  1385.27,   418.22  L  1181.30,   418.22  " /><path style="stroke-width:1.42 ;&st7;  " d=" M  1206.80,   350.23  L  1206.80,   333.23  L  1274.79,   333.23  L  1274.79,   350.23  L  1206.80,   350.23  " /><path style="stroke-width:0.85 ;&st7;  " d=" M  1334.28,   316.23  L  1334.28,   290.74  " /><path style="stroke-width:0.85 ;&st7;  " d=" M  1334.28,   350.23  L  1334.28,   341.73  L  1331.44,   340.31  L  1337.11,   337.48  L  1331.44,   334.65  L  1337.11,   331.81  L  1331.44,   328.98  L  1337.11,   326.15  L  1334.28,   324.73  L  1334.28,   316.23  " /><path style="stroke-width:0.28 ;&st9;  " d=" M  1334.28,   392.72  L  1328.61,   384.22  L  1339.94,   384.22  L  1334.28,   392.72  " /><path style="stroke-width:0.85 ;&st7;  " d=" M  1334.28,   392.72  L  1334.28,   401.22  " /><path style="stroke-width:0.85 ;&st7;  " d=" M  1325.78,   401.22  L  1342.78,   401.22  " /><path style="stroke-width:0.85 ;&st7;  " d=" M  1334.28,   401.22  L  1330.03,   409.72  " /><path style="stroke-width:0.85 ;&st7;  " d=" M  1342.78,   401.22  L  1338.53,   409.72  " /><path style="stroke-width:0.85 ;&st7;  " d=" M  1325.78,   401.22  L  1321.53,   409.72  " /><path style="stroke-width:0.85 ;&st7;  " d=" M  1334.28,   350.23  L  1334.28,   392.72  " /><path style="stroke-width:0.85 ;&st7;  " d=" M  1257.79,   333.23  L  1257.79,   307.73  L  1368.27,   307.73  L  1368.27,   316.23  " /><path style="stroke-width:0.85 ;&st7;  " d=" M  1266.29,   333.23  L  1266.29,   316.23  L  1334.28,   316.23  " /><path style="stroke-width:0.85 ;&st7;  " d=" M  1300.28,   290.74  L  1300.28,   307.73  " /><path style="stroke-width:0.85 ;&st7;  " d=" M  1240.79,   290.74  L  1240.79,   333.23  " /><path style="stroke-width:1.42 ;&st7;  " d=" M  1223.80,   375.72  L  1223.80,   358.73  L  1257.79,   358.73  L  1257.79,   375.72  L  1223.80,   375.72  " /><path style="stroke-width:0.28 ;&st9;  " d=" M  1334.28,   358.73  L  1328.61,   350.23  L  1339.94,   350.23  L  1334.28,   358.73  " /><path style="stroke-width:0.85 ;&st7;  " d=" M  1347.01,   349.06  L  1344.68,   352.10  L  1343.21,   349.56  L  1347.01,   349.06  L  1345.73,   349.80  L  1344.74,   351.09  L  1344.12,   350.01  L  1345.73,   349.80  L  1345.09,   350.17  L  1344.78,   350.58  L  1344.58,   350.24  L  1345.09,   350.17  " /><path style="stroke-width:0.85 ;&st7;  " d=" M  1349.01,   352.53  L  1346.68,   355.57  L  1345.21,   353.03  L  1349.01,   352.53  L  1347.73,   353.27  L  1346.75,   354.55  L  1346.13,   353.48  L  1347.73,   353.27  L  1347.09,   353.64  L  1346.78,   354.05  L  1346.59,   353.71  L  1347.09,   353.64  " /><path style="stroke-width:0.85 ;&st7;  " d=" M  1240.79,   350.23  L  1240.79,   358.73  " /><path style="stroke-width:0.85 ;&st7;  " d=" M  1368.27,   350.23  L  1368.27,   341.73  L  1365.44,   340.31  L  1371.10,   337.48  L  1365.44,   334.65  L  1371.10,   331.81  L  1365.44,   328.98  L  1371.10,   326.15  L  1368.27,   324.73  L  1368.27,   316.23  " /><path style="stroke-width:0.85 ;&st7;  " d=" M  1368.27,   350.23  L  1368.27,   375.72  L  1334.28,   375.72  " /><path style="stroke-width:0.28 ;&st9;  " d=" M  1368.27,   358.73  L  1362.61,   350.23  L  1373.94,   350.23  L  1368.27,   358.73  " /><path style="stroke-width:0.85 ;&st7;  " d=" M  1381.00,   349.06  L  1378.67,   352.10  L  1377.20,   349.56  L  1381.00,   349.06  L  1379.72,   349.80  L  1378.74,   351.09  L  1378.12,   350.01  L  1379.72,   349.80  L  1379.08,   350.17  L  1378.77,   350.58  L  1378.57,   350.24  L  1379.08,   350.17  " /><path style="stroke-width:0.85 ;&st7;  " d=" M  1383.01,   352.53  L  1380.67,   355.57  L  1379.21,   353.03  L  1383.01,   352.53  L  1381.72,   353.27  L  1380.74,   354.55  L  1380.12,   353.48  L  1381.72,   353.27  L  1381.08,   353.64  L  1380.77,   354.05  L  1380.58,   353.71  L  1381.08,   353.64  " /><path style="stroke-width:0.85 ;&st7;  " d=" M  1299.09,   306.73  L  1298.82,   307.20  L  1298.72,   307.73  L  1298.82,   308.27  L  1299.09,   308.74  L  1299.50,   309.08  L  1300.01,   309.27  L  1300.55,   309.27  L  1301.06,   309.08  L  1301.47,   308.74  L  1301.75,   308.27  L  1301.84,   307.73  L  1301.75,   307.20  L  1301.47,   306.73  L  1301.06,   306.39  L  1300.55,   306.20  L  1300.01,   306.20  L  1299.50,   306.39  L  1299.09,   306.73  L  1299.48,   307.44  L  1299.48,   308.03  L  1299.86,   308.47  L  1300.43,   308.57  L  1300.93,   308.28  L  1301.13,   307.73  L  1300.93,   307.19  L  1300.43,   306.90  L  1299.86,   307.00  L  1300.28,   307.73  " /><path style="stroke-width:0.85 ;&st7;  " d=" M  1333.08,   374.72  L  1332.81,   375.19  L  1332.72,   375.72  L  1332.81,   376.26  L  1333.08,   376.73  L  1333.50,   377.07  L  1334.00,   377.26  L  1334.55,   377.26  L  1335.06,   377.07  L  1335.47,   376.73  L  1335.74,   376.26  L  1335.83,   375.72  L  1335.74,   375.19  L  1335.47,   374.72  L  1335.06,   374.37  L  1334.55,   374.19  L  1334.00,   374.19  L  1333.50,   374.37  L  1333.08,   374.72  L  1333.48,   375.43  L  1333.48,   376.01  L  1333.85,   376.46  L  1334.42,   376.56  L  1334.93,   376.27  L  1335.13,   375.72  L  1334.93,   375.18  L  1334.42,   374.89  L  1333.85,   374.99  L  1334.28,   375.72  " /><path style="stroke-width:0.85 ;&st7;  " d=" M  1240.79,   375.72  L  1240.79,   384.22  L  1243.63,   385.64  L  1237.96,   388.47  L  1243.63,   391.30  L  1237.96,   394.14  L  1243.63,   396.97  L  1237.96,   399.80  L  1240.79,   401.22  L  1240.79,   418.22  " /><path style="stroke-width:0.85 ;&st7;  " d=" M  1240.79,   409.72  L  1198.30,   409.72  L  1198.30,   401.22  L  1195.47,   399.80  L  1201.13,   396.97  L  1195.47,   394.14  L  1201.13,   391.30  L  1195.47,   388.47  L  1201.13,   385.64  L  1198.30,   384.22  L  1198.30,   370.06  " /><path style="stroke-width:0.85 ;&st7;  " d=" M  1239.60,   408.71  L  1239.33,   409.18  L  1239.23,   409.72  L  1239.33,   410.25  L  1239.60,   410.72  L  1240.01,   411.07  L  1240.52,   411.25  L  1241.06,   411.25  L  1241.57,   411.07  L  1241.98,   410.72  L  1242.26,   410.25  L  1242.35,   409.72  L  1242.26,   409.18  L  1241.98,   408.71  L  1241.57,   408.37  L  1241.06,   408.18  L  1240.52,   408.18  L  1240.01,   408.37  L  1239.60,   408.71  L  1239.99,   409.43  L  1239.99,   410.01  L  1240.37,   410.45  L  1240.94,   410.55  L  1241.44,   410.26  L  1241.64,   409.72  L  1241.44,   409.17  L  1240.94,   408.88  L  1240.37,   408.98  L  1240.79,   409.72  " /><path style="stroke-width:0.85 ;&st7;  " d=" M  1189.80,   367.22  L  1206.80,   367.22  " /><text style="&st18;" transform="matrix(&st16;  1231.12  340.87 )" ewd:textID="31">Flasher <tspan x="0 " dy="6.0">Circuit</tspan></text><text style="&st18;" transform="matrix(&st17;  1326.62  365.39 )" ewd:textID="54">Turn LH</text><text style="&st18;" transform="matrix(&st16;  1236.24  369.19 )">I/F</text><text style="&st18;" transform="matrix(&st17;  1360.61  365.43 )" ewd:textID="55">Turn RH</text><text style="&st18;" transform="matrix(&st16;  1336.86  298.93 )">LL</text><text style="&st18;" transform="matrix(&st16;  1302.87  298.93 )">LR</text><text style="&st18;" transform="matrix(&st16;  1243.38  298.93 )">B</text><text style="&st18;" transform="matrix(&st16;  1243.38  414.53 )">HZSW</text><text style="&st18;" transform="matrix(&st16;  1232.1  424.72 )">1</text><text style="&st18;" transform="matrix(&st16;  1238.37  424.72 )">C</text><path style="stroke-width:1.42 ;&st7;   " d=" M  1245.33,   422.75  C  1245.33    420.24   1243.30    418.22   1240.79    418.22  " /><path style="stroke-width:1.42 ;&st7;   " d=" M  1240.79,   418.22  C  1238.29    418.22   1236.26    420.24   1236.26    422.75  " /><path style="stroke-width:1.42 ;&st7;   " d=" M  1236.26,   422.75  C  1236.26    425.25   1238.29    427.28   1240.79    427.28  " /><path style="stroke-width:1.42 ;&st7;   " d=" M  1240.79,   427.28  C  1243.30    427.28   1245.33    425.25   1245.33    422.75  " /><text style="&st18;" transform="matrix(&st16;  1232.1  288.17 )">2</text><path style="stroke-width:1.42 ;&st7;   " d=" M  1245.33,   286.20  C  1245.33    283.70   1243.30    281.67   1240.79    281.67  " /><path style="stroke-width:1.42 ;&st7;   " d=" M  1240.79,   281.67  C  1238.29    281.67   1236.26    283.70   1236.26    286.20  " /><path style="stroke-width:1.42 ;&st7;   " d=" M  1236.26,   286.20  C  1236.26    288.71   1238.29    290.74   1240.79    290.74  " /><path style="stroke-width:1.42 ;&st7;   " d=" M  1240.79,   290.74  C  1243.30    290.74   1245.33    288.71   1245.33    286.20  " /><text style="&st18;" transform="matrix(&st16;  1238.37  288.17 )">C</text><text style="&st18;" transform="matrix(&st16;  1291.59  288.17 )">4</text><path style="stroke-width:1.42 ;&st7;   " d=" M  1304.82,   286.20  C  1304.82    283.70   1302.79    281.67   1300.28    281.67  " /><path style="stroke-width:1.42 ;&st7;   " d=" M  1300.28,   281.67  C  1297.78    281.67   1295.75    283.70   1295.75    286.20  " /><path style="stroke-width:1.42 ;&st7;   " d=" M  1295.75,   286.20  C  1295.75    288.71   1297.78    290.74   1300.28    290.74  " /><path style="stroke-width:1.42 ;&st7;   " d=" M  1300.28,   290.74  C  1302.79    290.74   1304.82    288.71   1304.82    286.20  " /><text style="&st18;" transform="matrix(&st16;  1297.86  288.17 )">C</text><text style="&st18;" transform="matrix(&st16;  1325.58  288.17 )">6</text><path style="stroke-width:1.42 ;&st7;   " d=" M  1338.81,   286.20  C  1338.81    283.70   1336.78    281.67   1334.28    281.67  " /><path style="stroke-width:1.42 ;&st7;   " d=" M  1334.28,   281.67  C  1331.77    281.67   1329.74    283.70   1329.74    286.20  " /><path style="stroke-width:1.42 ;&st7;   " d=" M  1329.74,   286.20  C  1329.74    288.71   1331.77    290.74   1334.28    290.74  " /><path style="stroke-width:1.42 ;&st7;   " d=" M  1334.28,   290.74  C  1336.78    290.74   1338.81    288.71   1338.81    286.20  " /><text style="&st18;" transform="matrix(&st16;  1331.86  288.17 )">C</text><g ewd:figtype="title"><text style="&st18;" transform="matrix(&st17;  1399.99  421.12 )" ewd:textID="25">Combination Meter Assembly</text><text style="&st18;" transform="matrix(&st17;  1393.16  421.11 )">L50(C)</text></g></g><g ewd:figtype="conn" ewd:figID="19" ewd:code="L32"><path style="stroke-width:1.42 ;&st7;  " d=" M  1461.76,   222.75  L  1478.75,   222.75  L  1478.75,   205.75  L  1461.76,   205.75  L  1461.76,   222.75  " /><path style="stroke-width:0.85 ;&st7;  " d=" M  1470.25,   205.75  L  1470.25,   222.75  " /><text style="&st18;" transform="matrix(&st16;  1458.46  229.25 )">16</text><text style="&st18;" transform="matrix(&st16;  1468.07  229.25 )">B</text><path style="stroke-width:1.42 ;&st7;   " d=" M  1474.79,   227.28  C  1474.79    224.78   1472.76    222.75   1470.25    222.75  " /><path style="stroke-width:1.42 ;&st7;   " d=" M  1470.25,   222.75  C  1467.75    222.75   1465.72    224.78   1465.72    227.28  " /><path style="stroke-width:1.42 ;&st7;   " d=" M  1465.72,   227.28  C  1465.72    229.78   1467.75    231.81   1470.25    231.81  " /><path style="stroke-width:1.42 ;&st7;   " d=" M  1470.25,   231.81  C  1472.76    231.81   1474.79    229.78   1474.79    227.28  " /><text style="&st18;" transform="matrix(&st16;  1458.46  203.19 )">18</text><text style="&st18;" transform="matrix(&st16;  1468.07  203.19 )">B</text><path style="stroke-width:1.42 ;&st7;   " d=" M  1474.79,   201.22  C  1474.79    198.72   1472.76    196.69   1470.25    196.69  " /><path style="stroke-width:1.42 ;&st7;   " d=" M  1470.25,   196.69  C  1467.75    196.69   1465.72    198.72   1465.72    201.22  " /><path style="stroke-width:1.42 ;&st7;   " d=" M  1465.72,   201.22  C  1465.72    203.72   1467.75    205.75   1470.25    205.75  " /><path style="stroke-width:1.42 ;&st7;   " d=" M  1470.25,   205.75  C  1472.76    205.75   1474.79    203.72   1474.79    201.22  " /><g ewd:figtype="title"><text style="&st18;" transform="matrix(&st17;  1493.47  225.65 )" ewd:textID="44">No. 24 Junction <tspan x="0 " dy="6.0">Connector</tspan></text><text style="&st18;" transform="matrix(&st17;  1486.65  225.65 )">L32(B)</text></g></g><g ewd:figtype="rb" ewd:figID="32" ewd:code="FUSE51"><path style="stroke-width:1.42 ;&st7;  " d=" M  1140.93,   171.76  L  1136.69,   171.76  " /><path style="stroke-width:1.42 ;&st7;  " d=" M  1140.93,   180.26  L  1136.69,   180.26  " /><path style="stroke-width:0.85 ;&st7;  " d=" M  1138.81,   154.76  L  1138.81,   171.76  " /><path style="stroke-width:1.42 ;&st7;   " d=" M  1136.69,   171.76  C  1134.34    171.76   1132.44    173.66   1132.44    176.01  " /><path style="stroke-width:1.42 ;&st7;   " d=" M  1132.44,   176.01  C  1132.44    178.35   1134.34    180.26   1136.69    180.26  " /><path style="stroke-width:1.42 ;&st7;   " d=" M  1140.93,   180.26  C  1143.28    180.26   1145.18    178.35   1145.18    176.01  " /><path style="stroke-width:1.42 ;&st7;   " d=" M  1145.18,   176.01  C  1145.18    173.66   1143.28    171.76   1140.93    171.76  " /><path style="stroke-width:0.28 ;&st9;  " d=" M  1138.81,   166.86  L  1135.98,   164.03  L  1135.98,   168.28  L  1138.81,   171.11  L  1141.64,   168.28  L  1141.64,   164.03  L  1138.81,   166.86  " /><text style="&st18;" transform="matrix(&st16;  1155.23  132.66 )">15A <tspan x="0 " dy="6.0">TURN&amp;HAZ</tspan></text><text style="&st18;" transform="matrix(&st16;  1137.01  177.98 )">4</text><text style="&st18;" transform="matrix(&st16;  1132.63  162.95 )">2</text><text style="&st18;" transform="matrix(&st16;  1130.77  108.57 )">(BAT)</text><path style="stroke-width:0.85 ;&st7;  " d=" M  1138.81,   146.26  L  1138.81,   154.76  " /><path style="stroke-width:1.42 ;&st7;   " d=" M  1138.81,   123.60  C  1136.07    125.21   1135.16    128.74   1136.77    131.48  " /><path style="stroke-width:1.42 ;&st7;   " d=" M  1136.77,   131.48  C  1137.29    132.36   1137.93    132.99   1138.81    133.51  " /><path style="stroke-width:1.42 ;&st7;   " d=" M  1138.81,   143.43  C  1141.55    141.81   1142.46    138.29   1140.85    135.55  " /><path style="stroke-width:1.42 ;&st7;   " d=" M  1140.85,   135.55  C  1140.33    134.67   1139.69    134.03   1138.81    133.51  " /><path style="stroke-width:0.85 ;&st7;   " d=" M  1140.23,   122.18  C  1140.23    121.40   1139.59    120.77   1138.81    120.77  " /><path style="stroke-width:0.85 ;&st7;   " d=" M  1138.81,   120.77  C  1138.03    120.77   1137.39    121.40   1137.39    122.18  " /><path style="stroke-width:0.85 ;&st7;   " d=" M  1137.39,   122.18  C  1137.39    122.96   1138.03    123.60   1138.81    123.60  " /><path style="stroke-width:0.85 ;&st7;   " d=" M  1138.81,   123.60  C  1139.59    123.60   1140.23    122.96   1140.23    122.18  " /><path style="stroke-width:0.85 ;&st7;   " d=" M  1140.23,   144.84  C  1140.23    144.06   1139.59    143.43   1138.81    143.43  " /><path style="stroke-width:0.85 ;&st7;   " d=" M  1138.81,   143.43  C  1138.03    143.43   1137.39    144.06   1137.39    144.84  " /><path style="stroke-width:0.85 ;&st7;   " d=" M  1137.39,   144.84  C  1137.39    145.63   1138.03    146.26   1138.81    146.26  " /><path style="stroke-width:0.85 ;&st7;   " d=" M  1138.81,   146.26  C  1139.59    146.26   1140.23    145.63   1140.23    144.84  " /><path style="stroke-width:1.42 ;&st7;  " d=" M  1126.06,   112.27  L  1126.06,   154.76  L  1151.56,   154.76  L  1151.56,   112.27  L  1126.06,   112.27  " /></g><g ewd:code="AI3" ewd:figID="53" ewd:comment="10,23,12" ewd:figtype="w2w"><path style="stroke-width:1.42 ;&st7;  " d=" M  1143.06,   236.91  L  1138.81,   232.66  L  1134.56,   236.91  " /><path style="stroke-width:1.42 ;&st7;  " d=" M  1143.06,   240.31  L  1138.81,   236.06  L  1134.56,   240.31  " /><text style="&st18;" transform="matrix(&st16;  1123.08  228.97 )">44</text><g ewd:code="" ewd:figID="152" ewd:comment="10,12,23" ewd:figtype="commref"><text style="&st18;" transform="matrix(&st16;  1147.84  228.97 )">(*10,*12 *23)</text></g></g><g ewd:code="AI2" ewd:figID="54" ewd:comment="11" ewd:figtype="w2w"><text style="&st18;" transform="matrix(&st16;  1123.08  220.47 )">11</text><g ewd:code="" ewd:figID="153" ewd:comment="11" ewd:figtype="commref"><text style="&st18;" transform="matrix(&st16;  1147.84  220.47 )">(*11)</text></g></g><g ewd:code="AI1" ewd:figID="55" ewd:comment="22,12" ewd:figtype="w2w"><text style="&st18;" transform="matrix(&st16;  1126.18  211.97 )">3</text><g ewd:code="" ewd:figID="154" ewd:comment="12,22" ewd:figtype="commref"><text style="&st18;" transform="matrix(&st16;  1147.84  211.97 )">(*12 *22)</text></g></g><g ewd:figtype="w2w" ewd:figID="56" ewd:code="IL5"><path style="stroke-width:1.42 ;&st7;  " d=" M  1245.04,   240.31  L  1240.79,   236.06  L  1236.54,   240.31  " /><path style="stroke-width:1.42 ;&st7;  " d=" M  1245.04,   236.91  L  1240.79,   232.66  L  1236.54,   236.91  " /><text style="&st18;" transform="matrix(&st16;  1228.16  228.97 )">5</text></g><g ewd:figtype="annex" ewd:figID="34" ewd:code=" "><path style="stroke-width:1.42 ;&st7;  " d=" M  1300.28,   222.75  L  1295.22,   234.11  " /><path style="stroke-width:0.85 ;&st7;  " d=" M  1338.53,   218.50  L  1334.28,   214.25  L  1319.40,   214.25  L  1317.28,   210.00  L  1315.15,   214.25  L  1300.28,   214.25  L  1296.03,   218.50  " /><path style="stroke-width:1.42 ;&st7;  " d=" M  1334.28,   222.75  L  1339.34,   234.11  " /><path style="stroke-width:1.42 ;&st7;  " d=" M  1300.28,   222.75  L  1305.34,   234.11  " /><path style="stroke-width:1.42 ;&st7;  " d=" M  1334.28,   222.75  L  1329.22,   234.11  " /><text style="&st18;" transform="matrix(&st17;  1328.32  207.24 )" ewd:textID="48">Rear Combination <tspan x="0 " dy="6.0">Light Assemblies</tspan></text><text style="&st18;" transform="matrix(&st17;  1316.42  207.24 )" ewd:textID="53">Side Turn Signal <tspan x="0 " dy="6.0">Light Assemblies</tspan></text><text style="&st18;" transform="matrix(&st17;  1304.53  207.24 )" ewd:textID="36">Headlight <tspan x="0 " dy="6.0">Assemblies</tspan></text></g><g ewd:code="1" ewd:figID="160" ewd:comment="" ewd:figtype="comment"><text style="&st18;" transform="matrix(&st16;  1152.4  522.17 )" ewd:textID="1">* 1 :4-Door</text></g><g ewd:code="4" ewd:figID="137" ewd:comment="" ewd:figtype="comment"><text style="&st18;" transform="matrix(&st16;  1152.4  547.66 )" ewd:textID="4">* 4 :w/o Power Window</text></g><g ewd:code="11" ewd:figID="156" ewd:comment="" ewd:figtype="comment"><text style="&st18;" transform="matrix(&st16;  1152.4  564.66 )">*11 :1HZ</text></g><g ewd:code="2" ewd:figID="162" ewd:comment="" ewd:figtype="comment"><text style="&st18;" transform="matrix(&st16;  1152.4  530.67 )" ewd:textID="2">* 2 :2-Door</text></g><g ewd:code="12" ewd:figID="157" ewd:comment="" ewd:figtype="comment"><text style="&st18;" transform="matrix(&st16;  1152.4  573.16 )">*12 :1VD-FTV</text></g><g ewd:code="3" ewd:figID="161" ewd:comment="" ewd:figtype="comment"><text style="&st18;" transform="matrix(&st16;  1152.4  539.16 )" ewd:textID="3">* 3 :w/ Power Window</text></g><g ewd:code="10" ewd:figID="155" ewd:comment="" ewd:figtype="comment"><text style="&st18;" transform="matrix(&st16;  1152.4  556.16 )">*10 :1GR-FE</text></g><g ewd:code="23" ewd:figID="159" ewd:comment="" ewd:figtype="comment"><text style="&st18;" transform="matrix(&st16;  1152.4  590.16 )" ewd:textID="20">*23 :Except Australia</text></g><g ewd:code="22" ewd:figID="158" ewd:comment="" ewd:figtype="comment"><text style="&st18;" transform="matrix(&st16;  1152.4  581.66 )" ewd:textID="19">*22 :Australia</text></g></svg>