<?xml version="1.0" encoding="utf-8"?>
<!DOCTYPE svg PUBLIC "-//W3C//DTD SVG 1.0//EN" "http://www.w3.org/TR/2001/REC-SVG-20010904/DTD/svg10.dtd"[
	<!ENTITY ns_flows "http://ns.adobe.com/Flows/1.0/">
	<!ENTITY ns_svg "http://www.w3.org/2000/svg">
	<!ENTITY ns_xlink "http://www.w3.org/1999/xlink">
	<!ENTITY st0 "font-size:7px;font-family:'MS-PGothic';adobe-font-script:japanese;">
	<!ENTITY st1 "font-size:6px;font-family:'ArialMT';">
	<!-- White fill  -->
	<!ENTITY st2 "fill:#FFFFFF;stroke:#000000; stroke-width:1.41;stroke-linecap:round;stroke-linejoin:round;">
	<!-- Yellow fill  -->
	<!ENTITY st3 "fill:#FFFFCC;stroke:#FFFFCC; stroke-width:0.1;stroke-linecap:round;stroke-linejoin:round;">
	<!-- Gray fill  -->
	<!ENTITY st4 "fill:#CCCCCC;stroke:#CCCCCC; stroke-width:0.1;stroke-linecap:round;stroke-linejoin:round;">
	<!-- Light-blue fill -->
	<!ENTITY st5 "fill:#CCECF4;stroke:#000000; stroke-width:1.133;stroke-linecap:round;stroke-linejoin:round;">
	<!ENTITY st6 "fill:none;stroke-linecap:butt; stroke-linejoin:round;">
	<!ENTITY st7 "fill:none;stroke:#000000;stroke-linecap:round;stroke-linejoin:round;">
	<!ENTITY st8 "enable-background:new    ;">
	<!-- Black fill -->
	<!ENTITY st9 "fill:#000000;stroke:#000000; stroke-linecap:round;stroke-linejoin:round;">
	<!-- SRS note   -->
	<!ENTITY st10 "font-size:9px;font-family:'ArialMT';">
	<!ENTITY st11 "font-size:9px;font-family:'Svg Symbol';">
	<!ENTITY st12 "font-size:6px;font-family:'Svg Symbol';">
	<!ENTITY st13 "fill:none;stroke:#ff0000;stroke-linecap:round;stroke-linejoin:round;">
	<!-- Yellow fill  -->
	<!ENTITY st14 "fill:#FFFF00;stroke:#FFFF00; stroke-width:0.1;stroke-linecap:round;stroke-linejoin:round;">
	<!ENTITY st15 "font-size:6px;font-family:'MS-PGothic';adobe-font-script:japanese;">
	<!ENTITY st16 "1.00 0.00 0.00 1.00">
	<!ENTITY st17 "0.00 -1.00 1.00 0.00">
	<!ENTITY st18 "font-size:6px;font-family:'Arial';">
	<!ENTITY st19 "font-size:9px;font-family:'Arial';">
	<!ENTITY st20 "font-size:6px;font-family:'MS-PGothic','MS PGothic';adobe-font-script:japanese;">
	<!ENTITY st21 "font-size:7px;font-family:'MS-PGothic','MS PGothic';adobe-font-script:japanese;">
	<!ATTLIST svg
		xmlns:ewd CDATA #FIXED "http://shcl.co.jp/ewd"
		xmlns:a CDATA #FIXED "http://ns.adobe.com/AdobeSVGViewerExtensions/3.0/"
		ewd:ver CDATA #IMPLIED
	>
	<!ATTLIST a
		ewd:lineID CDATA #IMPLIED
		ewd:groupID CDATA #IMPLIED
		ewd:figtype CDATA #IMPLIED
		ewd:code CDATA #IMPLIED
		ewd:figID CDATA #IMPLIED
		ewd:pinNo CDATA #IMPLIED
		ewd:comment CDATA #IMPLIED >
	<!ATTLIST g
		ewd:lineID CDATA #IMPLIED
		ewd:groupID CDATA #IMPLIED
		ewd:figtype CDATA #IMPLIED
		ewd:code CDATA #IMPLIED
		ewd:figID CDATA #IMPLIED
		ewd:pinNo CDATA #IMPLIED
		ewd:comment CDATA #IMPLIED >
	<!ATTLIST text
		ewd:textID CDATA #IMPLIED >
	<!ATTLIST title
		ewd:textID CDATA #IMPLIED >
]>
<!-- Generator: Shintec Hozumi YS   -->
<svg onload="call_execInitLoadProc_svg('system')" style="overflow:visible;  enable-background:new 0 0 1509.873 710.000" viewBox="0 0 1509.873 710.000" height="710.000" width="1509.873" xml:space="preserve" ewd:ver="2.1.2.9" xmlns="&ns_svg;" xmlns:a="http://ns.adobe.com/AdobeSVGViewerExtensions/3.0/" xmlns:ewd="http://shcl.co.jp/ewd" xmlns:xlink="&ns_xlink;"><script type="text/javascript" xlink:href="../../../../../system/js/ewd/fig/svgfig.js" xmlns:xlink="http://www.w3.org/1999/xlink" />
<g id="ewd_top"><a ewd:figtype="conn" style="cursor:pointer;" ewd:code="O6" ewd:figID="1"><path style="fill:#CCECF4;stroke:#000000; stroke-width:1.133; stroke-linecap:round;stroke-linejoin:round; " d=" M    76.49,    27.28  L    76.49,    78.27  L   798.87,    78.27  L   798.87,    27.28  L    76.49,    27.28 " /><title ewd:textID="11">Door Control Relay Assembly</title></a><a ewd:figtype="rb" style="cursor:pointer;" ewd:code="FUSE31" ewd:figID="2"><path style="fill:#CCECF4;stroke:#000000; stroke-width:0; stroke-linecap:round;stroke-linejoin:round; " d=" M    12.75,    35.78  L    12.75,    78.27  L    38.24,    78.27  L    38.24,    35.78  L    12.75,    35.78 " /></a><a ewd:figtype="conn" style="cursor:pointer;" ewd:code="L18" ewd:figID="3"><path style="fill:#CCECF4;stroke:#000000; stroke-width:1.133; stroke-linecap:round;stroke-linejoin:round; " d=" M   118.98,   392.72  L   118.98,   452.21  L   203.97,   452.21  L   203.97,   392.72  L   118.98,   392.72 " /><title ewd:textID="13">Door Control Switch Assembly</title></a><a ewd:figtype="conn" style="cursor:pointer;" ewd:code="O9" ewd:figID="4"><path style="fill:#CCECF4;stroke:#000000; stroke-width:1.133; stroke-linecap:round;stroke-linejoin:round; " d=" M   271.95,   384.22  L   271.95,   452.21  L   356.94,   452.21  L   356.94,   384.22  L   271.95,   384.22 " /><title ewd:textID="22">Power Window Regulator Master Switch Assembly</title></a><a ewd:figtype="conn" style="cursor:pointer;" ewd:code="O3" ewd:figID="5"><path style="fill:#CCECF4;stroke:#000000; stroke-width:1.133; stroke-linecap:round;stroke-linejoin:round; " d=" M   939.09,   376.86  L   939.09,   376.86  L   939.09,   372.89  L   947.59,   372.89  L   947.59,   376.86  C   948.95    377.64    949.92    378.62    950.70    379.97  L   950.70,   379.97  C   953.05    384.03    951.66    389.23    947.59    391.58  L   947.59,   391.58  L   947.59,   395.55  L   939.09,   395.55  L   939.10,   391.58  C   937.74    390.80    936.76    389.82    935.98    388.47  L   935.98,   388.47  C   933.64    384.40    935.03    379.20    939.10    376.86 " /><title ewd:textID="16">Front Door Lock Actuator Assembly RH</title></a><a ewd:figtype="conn" style="cursor:pointer;" ewd:code="O8" ewd:figID="6"><path style="fill:#CCECF4;stroke:#000000; stroke-width:1.133; stroke-linecap:round;stroke-linejoin:round; " d=" M   382.44,   384.22  L   382.44,   452.21  L   484.42,   452.21  L   484.42,   384.22  L   382.44,   384.22 " /><title ewd:textID="22">Power Window Regulator Master Switch Assembly</title></a><a ewd:figtype="conn" style="cursor:pointer;" ewd:code="R2" ewd:figID="7"><path style="fill:#CCECF4;stroke:#000000; stroke-width:1.133; stroke-linecap:round;stroke-linejoin:round; " d=" M  1202.55,   385.36  L  1202.55,   385.36  L  1202.55,   381.39  L  1211.05,   381.39  L  1211.05,   385.36  C  1212.40    386.14   1213.38    387.11   1214.16    388.47  L  1214.16,   388.47  C  1216.51    392.53   1215.12    397.73   1211.05    400.08  L  1211.05,   400.08  L  1211.05,   404.05  L  1202.55,   404.05  L  1202.55,   400.08  C  1201.20    399.30   1200.22    398.32   1199.44    396.97  L  1199.44,   396.97  C  1197.09    392.90   1198.49    387.70   1202.55    385.36 " /><title ewd:textID="24">Rear Door Lock Actuator Assembly RH</title></a><a ewd:figtype="conn" style="cursor:pointer;" ewd:code="L39" ewd:figID="8"><path style="fill:#CCECF4;stroke:#000000; stroke-width:1.133; stroke-linecap:round;stroke-linejoin:round; " d=" M   152.97,   511.70  L   169.97,   511.70  L   169.97,   528.70  L   152.97,   528.70  L   152.97,   511.70 " /><title ewd:textID="21">No. 31 Junction Connector</title></a><a ewd:figtype="conn" style="cursor:pointer;" ewd:code="I54" ewd:figID="9"><path style="fill:#CCECF4;stroke:#000000; stroke-width:1.133; stroke-linecap:round;stroke-linejoin:round; " d=" M   237.96,   622.18  L   254.96,   622.18  L   254.96,   639.18  L   237.96,   639.18  L   237.96,   622.18 " /><title ewd:textID="20">No. 5 Junction Connector</title></a><a ewd:figtype="conn" style="cursor:pointer;" ewd:code="O5" ewd:figID="10"><path style="fill:#CCECF4;stroke:#000000; stroke-width:1.133; stroke-linecap:round;stroke-linejoin:round; " d=" M   594.90,   392.72  L   594.90,   452.21  L   764.87,   452.21  L   764.87,   392.72  L   594.90,   392.72 " /><title ewd:textID="16">Front Door Lock Actuator Assembly RH</title></a><a ewd:figtype="conn" style="cursor:pointer;" ewd:code="O14" ewd:figID="11"><path style="fill:#CCECF4;stroke:#000000; stroke-width:1.133; stroke-linecap:round;stroke-linejoin:round; " d=" M   815.86,   392.72  L   815.86,   452.21  L   900.85,   452.21  L   900.85,   392.72  L   815.86,   392.72 " /><title ewd:textID="12">Door Control Switch</title></a><a ewd:figtype="conn" style="cursor:pointer;" ewd:code="b1" ewd:figID="12"><path style="fill:#CCECF4;stroke:#000000; stroke-width:1.133; stroke-linecap:round;stroke-linejoin:round; " d=" M  1262.04,   385.36  L  1262.04,   385.36  L  1262.04,   381.39  L  1270.54,   381.39  L  1270.54,   385.36  C  1271.89    386.14   1272.87    387.11   1273.65    388.47  L  1273.65,   388.47  C  1276.00    392.53   1274.61    397.73   1270.54    400.08  L  1270.54,   400.08  L  1270.54,   404.05  L  1262.04,   404.05  L  1262.04,   400.08  C  1260.69    399.30   1259.71    398.32   1258.93    396.97  L  1258.93,   396.97  C  1256.58    392.90   1257.98    387.70   1262.04    385.36 " /><title ewd:textID="10">Back Door Lock Assembly</title></a><a ewd:figtype="conn" style="cursor:pointer;" ewd:code="P3" ewd:figID="13"><path style="fill:#CCECF4;stroke:#000000; stroke-width:1.133; stroke-linecap:round;stroke-linejoin:round; " d=" M  1381.02,   385.36  L  1381.02,   385.36  L  1381.02,   381.39  L  1389.52,   381.39  L  1389.52,   385.36  C  1390.87    386.14   1391.85    387.11   1392.63    388.47  L  1392.63,   388.47  C  1394.98    392.53   1393.59    397.73   1389.52    400.08  L  1389.52,   400.08  L  1389.52,   404.05  L  1381.02,   404.05  L  1381.02,   400.08  C  1379.67    399.30   1378.69    398.32   1377.91    396.97  L  1377.91,   396.97  C  1375.56    392.90   1376.96    387.70   1381.02    385.36 " /><title ewd:textID="15">Front Door Lock Actuator Assembly LH</title></a><a ewd:figtype="conn" style="cursor:pointer;" ewd:code="Q2" ewd:figID="14"><path style="fill:#CCECF4;stroke:#000000; stroke-width:1.133; stroke-linecap:round;stroke-linejoin:round; " d=" M  1457.51,   385.36  L  1457.51,   385.36  L  1457.51,   381.39  L  1466.01,   381.39  L  1466.01,   385.36  C  1467.36    386.14   1468.33    387.11   1469.12    388.47  L  1469.12,   388.47  C  1471.46    392.53   1470.07    397.73   1466.01    400.08  L  1466.01,   400.08  L  1466.01,   404.05  L  1457.51,   404.05  L  1457.51,   400.08  C  1456.15    399.30   1455.18    398.32   1454.40    396.97  L  1454.40,   396.97  C  1452.05    392.90   1453.44    387.70   1457.51    385.36 " /><title ewd:textID="23">Rear Door Lock Actuator Assembly LH</title></a><a ewd:figtype="fuse" style="cursor:pointer;" ewd:code="FUSE31" ewd:figID="55"><path style="&st7; stroke-width:0;" d=" M    12.75,    35.78  L    12.75,    78.27  L    38.24,    78.27  L    38.24,    35.78  L    12.75,    35.78 " /></a><a style="cursor:pointer;" ewd:lineID="1"><path style="stroke:#00A0C6;stroke-width:5.10 ;&st6;" d=" M    25.50,   103.77  L    25.50,   273.74  L    84.99,   273.74  " /><path style="stroke:#FFFFFF;stroke-width:2.27 ;&st6;" d=" M    25.50,   103.77  L    25.50,   273.74  L    84.99,   273.74  " /><path style="stroke:#FF0000;stroke-width:1.13 ;&st6;" d=" M    25.50,   103.77  L    25.50,   273.74  L    84.99,   273.74  " /></a><a style="cursor:pointer;" ewd:lineID="2"><path style="stroke:#00A0C6;stroke-width:5.10 ;&st6;" d=" M    93.48,   178.27  L    93.48,   265.24  " /><path style="stroke:#FFFFFF;stroke-width:2.27 ;&st6;" d=" M    93.48,   178.27  L    93.48,   265.24  " /><path style="stroke:#FF0000;stroke-width:1.13 ;&st6;" d=" M    93.48,   178.27  L    93.48,   265.24  " /></a><a style="cursor:pointer;" ewd:lineID="3"><path style="stroke:#00A0C6;stroke-width:5.10 ;&st6;" d=" M    93.48,    78.27  L    93.48,   163.26  " /><path style="stroke:#FFFFFF;stroke-width:2.27 ;&st6;" d=" M    93.48,    78.27  L    93.48,   163.26  " /><path style="stroke:#FF0000;stroke-width:1.13 ;&st6;" d=" M    93.48,    78.27  L    93.48,   163.26  " /></a><a ewd:comment="4" style="cursor:pointer;" ewd:lineID="4"><path style="stroke:#000000;stroke-width:5.10 ;&st6;" d=" M   152.97,   520.20  L   118.98,   520.20  L   118.98,   681.67  " /><path style="stroke:#FFFFFF;stroke-width:4.53 ;&st6;" d=" M   152.97,   520.20  L   118.98,   520.20  L   118.98,   681.67  " /><path style="stroke:#000000;stroke-width:1.13 ;&st6;" d=" M   152.97,   520.20  L   118.98,   520.20  L   118.98,   681.67  " /></a><a ewd:comment="4" style="cursor:pointer;" ewd:lineID="5"><path style="stroke:#000000;stroke-width:5.10 ;&st6;" d=" M   161.47,   528.70  L   161.47,   681.67  " /><path style="stroke:#FFFFFF;stroke-width:4.53 ;&st6;" d=" M   161.47,   528.70  L   161.47,   681.67  " /><path style="stroke:#000000;stroke-width:1.13 ;&st6;" d=" M   161.47,   528.70  L   161.47,   681.67  " /></a><a ewd:comment="4" style="cursor:pointer;" ewd:lineID="6"><path style="stroke:#000000;stroke-width:5.10 ;&st6;" d=" M   161.47,   452.21  L   161.47,   511.70  " /><path style="stroke:#FFFFFF;stroke-width:4.53 ;&st6;" d=" M   161.47,   452.21  L   161.47,   511.70  " /><path style="stroke:#000000;stroke-width:1.13 ;&st6;" d=" M   161.47,   452.21  L   161.47,   511.70  " /></a><a style="cursor:pointer;" ewd:lineID="7"><path style="stroke:#000000;stroke-width:5.10 ;&st6;" d=" M   246.46,   648.24  L   246.46,   681.67  " /><path style="stroke:#FFFFFF;stroke-width:4.53 ;&st6;" d=" M   246.46,   648.24  L   246.46,   681.67  " /><path style="stroke:#000000;stroke-width:1.13 ;&st6;" d=" M   246.46,   648.24  L   246.46,   681.67  " /></a><a style="cursor:pointer;" ewd:lineID="8"><path style="stroke:#000000;stroke-width:5.10 ;&st6;" d=" M   246.46,   568.92  L   246.46,   613.12  " /><path style="stroke:#FFFFFF;stroke-width:4.53 ;&st6;" d=" M   246.46,   568.92  L   246.46,   613.12  " /><path style="stroke:#000000;stroke-width:1.13 ;&st6;" d=" M   246.46,   568.92  L   246.46,   613.12  " /></a><a style="cursor:pointer;" ewd:lineID="9"><path style="stroke:#000000;stroke-width:5.10 ;&st6;" d=" M   246.46,   520.20  L   246.46,   554.19  " /><path style="stroke:#FFFFFF;stroke-width:4.53 ;&st6;" d=" M   246.46,   520.20  L   246.46,   554.19  " /><path style="stroke:#000000;stroke-width:1.13 ;&st6;" d=" M   246.46,   520.20  L   246.46,   554.19  " /></a><a style="cursor:pointer;" ewd:lineID="10"><path style="stroke:#000000;stroke-width:5.10 ;&st6;" d=" M   246.46,    78.27  L   246.46,   503.20  " /><path style="stroke:#FFFFFF;stroke-width:4.53 ;&st6;" d=" M   246.46,    78.27  L   246.46,   503.20  " /><path style="stroke:#000000;stroke-width:1.13 ;&st6;" d=" M   246.46,    78.27  L   246.46,   503.20  " /></a><a style="cursor:pointer;" ewd:lineID="11"><path style="stroke:#000000;stroke-width:5.10 ;&st6;" d=" M   254.96,   511.70  L   314.45,   511.70  " /><path style="stroke:#FFFFFF;stroke-width:4.53 ;&st6;" d=" M   254.96,   511.70  L   314.45,   511.70  " /><path style="stroke:#000000;stroke-width:1.13 ;&st6;" d=" M   254.96,   511.70  L   314.45,   511.70  " /></a><a ewd:comment="2,3" style="cursor:pointer;" ewd:lineID="12"><path style="stroke:#000000;stroke-width:5.10 ;&st6;" d=" M   322.95,   452.21  L   322.95,   503.20  " /><path style="stroke:#FFFFFF;stroke-width:4.53 ;&st6;" d=" M   322.95,   452.21  L   322.95,   503.20  " /><path style="stroke:#000000;stroke-width:1.13 ;&st6;" d=" M   322.95,   452.21  L   322.95,   503.20  " /></a><a style="cursor:pointer;" ewd:lineID="13"><path style="stroke:#000000;stroke-width:5.10 ;&st6;" d=" M   331.44,   511.70  L   390.93,   511.70  " /><path style="stroke:#FFFFFF;stroke-width:4.53 ;&st6;" d=" M   331.44,   511.70  L   390.93,   511.70  " /><path style="stroke:#000000;stroke-width:1.13 ;&st6;" d=" M   331.44,   511.70  L   390.93,   511.70  " /></a><a ewd:comment="1,3" style="cursor:pointer;" ewd:lineID="14"><path style="stroke:#000000;stroke-width:5.10 ;&st6;" d=" M   399.43,   452.21  L   399.43,   503.20  " /><path style="stroke:#FFFFFF;stroke-width:4.53 ;&st6;" d=" M   399.43,   452.21  L   399.43,   503.20  " /><path style="stroke:#000000;stroke-width:1.13 ;&st6;" d=" M   399.43,   452.21  L   399.43,   503.20  " /></a><a style="cursor:pointer;" ewd:lineID="15"><path style="stroke:#000000;stroke-width:5.10 ;&st6;" d=" M   407.93,   511.70  L   441.93,   511.70  " /><path style="stroke:#FFFFFF;stroke-width:4.53 ;&st6;" d=" M   407.93,   511.70  L   441.93,   511.70  " /><path style="stroke:#000000;stroke-width:1.13 ;&st6;" d=" M   407.93,   511.70  L   441.93,   511.70  " /></a><a ewd:comment="1,3" style="cursor:pointer;" ewd:lineID="16"><path style="stroke:#000000;stroke-width:5.10 ;&st6;" d=" M   450.42,   452.21  L   450.42,   503.20  " /><path style="stroke:#FFFFFF;stroke-width:4.53 ;&st6;" d=" M   450.42,   452.21  L   450.42,   503.20  " /><path style="stroke:#000000;stroke-width:1.13 ;&st6;" d=" M   450.42,   452.21  L   450.42,   503.20  " /></a><a style="cursor:pointer;" ewd:lineID="17"><path style="stroke:#000000;stroke-width:5.10 ;&st6;" d=" M   458.92,   511.70  L   645.89,   511.70  " /><path style="stroke:#FFFFFF;stroke-width:4.53 ;&st6;" d=" M   458.92,   511.70  L   645.89,   511.70  " /><path style="stroke:#000000;stroke-width:1.13 ;&st6;" d=" M   458.92,   511.70  L   645.89,   511.70  " /></a><a ewd:comment="4" style="cursor:pointer;" ewd:lineID="18"><path style="stroke:#FF0000;stroke-width:5.10 ;&st6;" d=" M   569.40,   137.76  L   135.98,   137.76  L   135.98,   392.72  " /><path style="stroke:#FFFFFF;stroke-width:1.13 ;&st6;" d=" M   569.40,   137.76  L   135.98,   137.76  L   135.98,   392.72  " /></a><a ewd:comment="4" style="cursor:pointer;" ewd:lineID="19"><path style="stroke:#FF0000;stroke-width:5.10 ;&st6;" d=" M   577.90,   146.26  L   577.90,   199.24  " /><path style="stroke:#FFFFFF;stroke-width:1.13 ;&st6;" d=" M   577.90,   146.26  L   577.90,   199.24  " /></a><a ewd:comment="2,3" style="cursor:pointer;" ewd:lineID="20"><path style="stroke:#FF0000;stroke-width:5.10 ;&st6;" d=" M   603.40,   273.74  L   305.95,   273.74  L   305.95,   384.22  " /><path style="stroke:#FFFFFF;stroke-width:1.13 ;&st6;" d=" M   603.40,   273.74  L   305.95,   273.74  L   305.95,   384.22  " /></a><a ewd:comment="1,3" style="cursor:pointer;" ewd:lineID="21"><path style="stroke:#FF0000;stroke-width:5.10 ;&st6;" d=" M   605.88,   279.75  L   594.90,   290.74  L   433.43,   290.74  L   433.43,   384.22  " /><path style="stroke:#FFFFFF;stroke-width:1.13 ;&st6;" d=" M   605.88,   279.75  L   594.90,   290.74  L   433.43,   290.74  L   433.43,   384.22  " /></a><a ewd:comment="4" style="cursor:pointer;" ewd:lineID="22"><path style="stroke:#FF0000;stroke-width:5.10 ;&st6;" d=" M   605.88,   267.73  L   594.90,   256.74  L   577.90,   256.74  L   577.90,   214.25  " /><path style="stroke:#FFFFFF;stroke-width:1.13 ;&st6;" d=" M   605.88,   267.73  L   594.90,   256.74  L   577.90,   256.74  L   577.90,   214.25  " /></a><a ewd:comment="1" style="cursor:pointer;" ewd:lineID="23"><path style="stroke:#FF0000;stroke-width:5.10 ;&st6;" d=" M   611.90,   282.24  L   611.90,   392.72  " /><path style="stroke:#FFFFFF;stroke-width:1.13 ;&st6;" d=" M   611.90,   282.24  L   611.90,   392.72  " /></a><a style="cursor:pointer;" ewd:lineID="24"><path style="stroke:#FF0000;stroke-width:5.10 ;&st6;" d=" M   611.90,    78.27  L   611.90,   265.24  " /><path style="stroke:#FFFFFF;stroke-width:1.13 ;&st6;" d=" M   611.90,    78.27  L   611.90,   265.24  " /></a><a ewd:comment="2" style="cursor:pointer;" ewd:lineID="25"><path style="stroke:#FF0000;stroke-width:5.10 ;&st6;" d=" M   620.40,   273.74  L   883.85,   273.74  L   883.85,   392.72  " /><path style="stroke:#FFFFFF;stroke-width:1.13 ;&st6;" d=" M   620.40,   273.74  L   883.85,   273.74  L   883.85,   392.72  " /></a><a ewd:comment="1" style="cursor:pointer;" ewd:lineID="26"><path style="stroke:#000000;stroke-width:5.10 ;&st6;" d=" M   654.39,   452.21  L   654.39,   503.20  " /><path style="stroke:#FFFFFF;stroke-width:4.53 ;&st6;" d=" M   654.39,   452.21  L   654.39,   503.20  " /><path style="stroke:#000000;stroke-width:1.13 ;&st6;" d=" M   654.39,   452.21  L   654.39,   503.20  " /></a><a ewd:comment="4" style="cursor:pointer;" ewd:lineID="27"><path style="stroke:#FF0000;stroke-width:5.10 ;&st6;" d=" M   654.39,   154.76  L   186.97,   154.76  L   186.97,   392.72  " /><path style="stroke:#FFFFFF;stroke-width:2.27 ;&st6;" d=" M   654.39,   154.76  L   186.97,   154.76  L   186.97,   392.72  " /><path style="stroke:#008837;stroke-width:1.13 ;&st6;" d=" M   654.39,   154.76  L   186.97,   154.76  L   186.97,   392.72  " /></a><a ewd:comment="2" style="cursor:pointer;" ewd:lineID="28"><path style="stroke:#000000;stroke-width:5.10 ;&st6;" d=" M   662.89,   511.70  L   858.36,   511.70  L   858.36,   452.21  " /><path style="stroke:#FFFFFF;stroke-width:4.53 ;&st6;" d=" M   662.89,   511.70  L   858.36,   511.70  L   858.36,   452.21  " /><path style="stroke:#000000;stroke-width:1.13 ;&st6;" d=" M   662.89,   511.70  L   858.36,   511.70  L   858.36,   452.21  " /></a><a ewd:comment="4" style="cursor:pointer;" ewd:lineID="29"><path style="stroke:#FF0000;stroke-width:5.10 ;&st6;" d=" M   662.89,   163.26  L   662.89,   199.24  " /><path style="stroke:#FFFFFF;stroke-width:2.27 ;&st6;" d=" M   662.89,   163.26  L   662.89,   199.24  " /><path style="stroke:#008837;stroke-width:1.13 ;&st6;" d=" M   662.89,   163.26  L   662.89,   199.24  " /></a><a ewd:comment="2,3" style="cursor:pointer;" ewd:lineID="30"><path style="stroke:#FF0000;stroke-width:5.10 ;&st6;" d=" M   688.38,   324.73  L   339.94,   324.73  L   339.94,   384.22  " /><path style="stroke:#FFFFFF;stroke-width:2.27 ;&st6;" d=" M   688.38,   324.73  L   339.94,   324.73  L   339.94,   384.22  " /><path style="stroke:#008837;stroke-width:1.13 ;&st6;" d=" M   688.38,   324.73  L   339.94,   324.73  L   339.94,   384.22  " /></a><a ewd:comment="1,3" style="cursor:pointer;" ewd:lineID="31"><path style="stroke:#FF0000;stroke-width:5.10 ;&st6;" d=" M   690.87,   330.75  L   679.89,   341.73  L   467.42,   341.73  L   467.42,   384.22  " /><path style="stroke:#FFFFFF;stroke-width:2.27 ;&st6;" d=" M   690.87,   330.75  L   679.89,   341.73  L   467.42,   341.73  L   467.42,   384.22  " /><path style="stroke:#008837;stroke-width:1.13 ;&st6;" d=" M   690.87,   330.75  L   679.89,   341.73  L   467.42,   341.73  L   467.42,   384.22  " /></a><a ewd:comment="4" style="cursor:pointer;" ewd:lineID="32"><path style="stroke:#FF0000;stroke-width:5.10 ;&st6;" d=" M   690.87,   318.72  L   679.89,   307.73  L   662.89,   307.73  L   662.89,   214.25  " /><path style="stroke:#FFFFFF;stroke-width:2.27 ;&st6;" d=" M   690.87,   318.72  L   679.89,   307.73  L   662.89,   307.73  L   662.89,   214.25  " /><path style="stroke:#008837;stroke-width:1.13 ;&st6;" d=" M   690.87,   318.72  L   679.89,   307.73  L   662.89,   307.73  L   662.89,   214.25  " /></a><a ewd:comment="1" style="cursor:pointer;" ewd:lineID="33"><path style="stroke:#FF0000;stroke-width:5.10 ;&st6;" d=" M   696.88,   333.23  L   696.88,   392.72  " /><path style="stroke:#FFFFFF;stroke-width:2.27 ;&st6;" d=" M   696.88,   333.23  L   696.88,   392.72  " /><path style="stroke:#008837;stroke-width:1.13 ;&st6;" d=" M   696.88,   333.23  L   696.88,   392.72  " /></a><a style="cursor:pointer;" ewd:lineID="34"><path style="stroke:#FF0000;stroke-width:5.10 ;&st6;" d=" M   696.88,    78.27  L   696.88,   316.23  " /><path style="stroke:#FFFFFF;stroke-width:2.27 ;&st6;" d=" M   696.88,    78.27  L   696.88,   316.23  " /><path style="stroke:#008837;stroke-width:1.13 ;&st6;" d=" M   696.88,    78.27  L   696.88,   316.23  " /></a><a ewd:comment="2" style="cursor:pointer;" ewd:lineID="35"><path style="stroke:#FF0000;stroke-width:5.10 ;&st6;" d=" M   705.38,   324.73  L   832.86,   324.73  L   832.86,   392.72  " /><path style="stroke:#FFFFFF;stroke-width:2.27 ;&st6;" d=" M   705.38,   324.73  L   832.86,   324.73  L   832.86,   392.72  " /><path style="stroke:#008837;stroke-width:1.13 ;&st6;" d=" M   705.38,   324.73  L   832.86,   324.73  L   832.86,   392.72  " /></a><a ewd:comment="1" style="cursor:pointer;" ewd:lineID="36"> d=" M   739.38,   452.21  L   739.38,   494.70  L   781.87,   494.70  L   781.87,   137.76 
	
		<path style="stroke:#000000;stroke-width:5.10 ;&st6;" d=" M   739.38,   452.21  L   739.38,   494.70  L   781.87,   494.70  L   781.87,   137.76  " /><path style="stroke:#FFFFFF;stroke-width:4.53 ;&st6;" d=" M   739.38,   452.21  L   739.38,   494.70  L   781.87,   494.70  L   781.87,   137.76  " /></a><a ewd:comment="1" style="cursor:pointer;" ewd:lineID="37"><path style="stroke:#000000;stroke-width:5.10 ;&st6;" d=" M   739.38,   197.25  L   739.38,   392.72  " /></a><a style="cursor:pointer;" ewd:lineID="38"><path style="stroke:#000000;stroke-width:5.10 ;&st6;" d=" M   739.38,    78.27  L   739.38,   180.26  " /></a><a ewd:comment="2" style="cursor:pointer;" ewd:lineID="39"><path style="stroke:#000000;stroke-width:5.10 ;&st6;" d=" M   745.39,   194.77  L   756.37,   205.75  L   943.34,   205.75  L   943.34,   372.89  " /></a><a style="cursor:pointer;" ewd:lineID="40"><path style="stroke:#000000;stroke-width:5.10 ;&st6;" d=" M   747.88,   188.75  L  1147.31,   188.75  L  1147.31,   452.21  " /></a><a style="cursor:pointer;" ewd:lineID="41"> d=" M   781.87,    78.27  L   781.87,   120.77 
	
		<path style="stroke:#000000;stroke-width:5.10 ;&st6;" d=" M   781.87,    78.27  L   781.87,   120.77  " /><path style="stroke:#FFFFFF;stroke-width:4.53 ;&st6;" d=" M   781.87,    78.27  L   781.87,   120.77  " /></a><a style="cursor:pointer;" ewd:lineID="42"> d=" M   790.37,   129.26  L  1385.27,   129.26  L  1385.27,   163.26 
	
		<path style="stroke:#000000;stroke-width:5.10 ;&st6;" d=" M   790.37,   129.26  L  1385.27,   129.26  L  1385.27,   163.26  " /><path style="stroke:#FFFFFF;stroke-width:4.53 ;&st6;" d=" M   790.37,   129.26  L  1385.27,   129.26  L  1385.27,   163.26  " /></a><a ewd:comment="2" style="cursor:pointer;" ewd:lineID="43"> d=" M   943.34,   395.55  L   943.34,   452.21  L   985.84,   452.21  L   985.84,   146.26  L   798.87,   146.26  L   787.88,   135.28 
	
		<path style="stroke:#000000;stroke-width:5.10 ;&st6;" d=" M   943.34,   395.55  L   943.34,   452.21  L   985.84,   452.21  L   985.84,   146.26  L   798.87,   146.26  L   787.88,   135.28  " /><path style="stroke:#FFFFFF;stroke-width:4.53 ;&st6;" d=" M   943.34,   395.55  L   943.34,   452.21  L   985.84,   452.21  L   985.84,   146.26  L   798.87,   146.26  L   787.88,   135.28  " /></a><a style="cursor:pointer;" ewd:lineID="44"><path style="stroke:#000000;stroke-width:5.10 ;&st6;" d=" M  1147.31,   466.94  L  1147.31,   613.68  L  1385.27,   613.68  L  1385.27,   579.69  " /></a><a ewd:comment="6" style="cursor:pointer;" ewd:lineID="45"><path style="stroke:#000000;stroke-width:5.10 ;&st6;" d=" M  1206.80,   517.93  L  1206.80,   571.19  L  1257.79,   571.19  " /></a><a ewd:comment="5" style="cursor:pointer;" ewd:lineID="46"><path style="stroke:#000000;stroke-width:5.10 ;&st6;" d=" M  1206.80,   517.93  L  1206.80,   520.20  L  1198.30,   528.70  L  1181.30,   528.70  L  1181.30,   596.69  L  1308.78,   596.69  L  1308.78,   579.69  L  1317.28,   571.19  L  1319.55,   571.19  " /></a><a ewd:comment="1" style="cursor:pointer;" ewd:lineID="47"><path style="stroke:#00A0C6;stroke-width:5.10 ;&st6;" d=" M  1206.80,   404.05  L  1206.80,   503.20  " /><path style="stroke:#FFFFFF;stroke-width:2.27 ;&st6;" d=" M  1206.80,   404.05  L  1206.80,   503.20  " /><path style="stroke:#000000;stroke-width:1.13 ;&st6;" d=" M  1206.80,   404.05  L  1206.80,   503.20  " /></a><a ewd:comment="1" style="cursor:pointer;" ewd:lineID="48"><path style="stroke:#00A0C6;stroke-width:5.10 ;&st6;" d=" M  1206.80,   282.24  L  1206.80,   381.39  " /><path style="stroke:#FFFFFF;stroke-width:1.13 ;&st6;" d=" M  1206.80,   282.24  L  1206.80,   381.39  " /></a><a ewd:comment="6" style="cursor:pointer;" ewd:lineID="49"> d=" M  1257.79,   214.25  L  1206.80,   214.25  L  1206.80,   267.22 
	
		<path style="stroke:#000000;stroke-width:5.10 ;&st6;" d=" M  1257.79,   214.25  L  1206.80,   214.25  L  1206.80,   267.22  " /><path style="stroke:#FFFFFF;stroke-width:4.53 ;&st6;" d=" M  1257.79,   214.25  L  1206.80,   214.25  L  1206.80,   267.22  " /></a><a ewd:comment="6" style="cursor:pointer;" ewd:lineID="50"><path style="stroke:#000000;stroke-width:5.10 ;&st6;" d=" M  1266.29,   517.93  L  1266.29,   562.69  " /></a><a ewd:comment="7" style="cursor:pointer;" ewd:lineID="51"><path style="stroke:#000000;stroke-width:5.10 ;&st6;" d=" M  1266.29,   517.93  L  1266.29,   520.20  L  1274.79,   528.70  L  1308.78,   528.70  L  1308.78,   562.69  L  1317.28,   571.19  L  1319.55,   571.19  " /></a><a ewd:comment="8" style="cursor:pointer;" ewd:lineID="52"><path style="stroke:#000000;stroke-width:5.10 ;&st6;" d=" M  1266.29,   466.94  L  1266.29,   503.20  " /></a><a ewd:comment="8" style="cursor:pointer;" ewd:lineID="53"><path style="stroke:#000000;stroke-width:5.10 ;&st6;" d=" M  1266.29,   404.05  L  1266.29,   452.21  " /></a><a ewd:comment="8" style="cursor:pointer;" ewd:lineID="54"> d=" M  1266.29,   381.39  L  1266.29,   341.73 
	
		<path style="stroke:#000000;stroke-width:5.10 ;&st6;" d=" M  1266.29,   381.39  L  1266.29,   341.73  " /><path style="stroke:#FFFFFF;stroke-width:4.53 ;&st6;" d=" M  1266.29,   381.39  L  1266.29,   341.73  " /></a><a ewd:comment="8" style="cursor:pointer;" ewd:lineID="55"> d=" M  1266.29,   326.71  L  1266.29,   282.24 
	
		<path style="stroke:#000000;stroke-width:5.10 ;&st6;" d=" M  1266.29,   326.71  L  1266.29,   282.24  " /><path style="stroke:#FFFFFF;stroke-width:4.53 ;&st6;" d=" M  1266.29,   326.71  L  1266.29,   282.24  " /></a><a ewd:comment="7" style="cursor:pointer;" ewd:lineID="56"> d=" M  1266.29,   267.22  L  1266.29,   265.24  L  1274.79,   256.74  L  1308.78,   256.74  L  1308.78,   222.75  L  1317.28,   214.25  L  1319.26,   214.25 
	
		<path style="stroke:#000000;stroke-width:5.10 ;&st6;" d=" M  1266.29,   267.22  L  1266.29,   265.24  L  1274.79,   256.74  L  1308.78,   256.74  L  1308.78,   222.75  L  1317.28,   214.25  L  1319.26,   214.25  " /><path style="stroke:#FFFFFF;stroke-width:4.53 ;&st6;" d=" M  1266.29,   267.22  L  1266.29,   265.24  L  1274.79,   256.74  L  1308.78,   256.74  L  1308.78,   222.75  L  1317.28,   214.25  L  1319.26,   214.25  " /></a><a ewd:comment="6" style="cursor:pointer;" ewd:lineID="57"> d=" M  1266.29,   222.75  L  1266.29,   267.22 
	
		<path style="stroke:#000000;stroke-width:5.10 ;&st6;" d=" M  1266.29,   222.75  L  1266.29,   267.22  " /><path style="stroke:#FFFFFF;stroke-width:4.53 ;&st6;" d=" M  1266.29,   222.75  L  1266.29,   267.22  " /></a><a ewd:comment="6" style="cursor:pointer;" ewd:lineID="58"><path style="stroke:#000000;stroke-width:5.10 ;&st6;" d=" M  1274.79,   571.19  L  1319.55,   571.19  " /></a><a ewd:comment="5" style="cursor:pointer;" ewd:lineID="59"><path style="stroke:#000000;stroke-width:5.10 ;&st6;" d=" M  1319.55,   214.25  L  1317.28,   214.25  L  1308.78,   205.75  L  1308.78,   188.75  L  1181.30,   188.75  L  1181.30,   256.74  L  1198.30,   256.74  L  1206.80,   265.24  L  1206.80,   267.51  " /></a><a ewd:comment="6" style="cursor:pointer;" ewd:lineID="60"> d=" M  1319.26,   214.25  L  1274.79,   214.25 
	
		<path style="stroke:#000000;stroke-width:5.10 ;&st6;" d=" M  1319.26,   214.25  L  1274.79,   214.25  " /><path style="stroke:#FFFFFF;stroke-width:4.53 ;&st6;" d=" M  1319.26,   214.25  L  1274.79,   214.25  " /></a><a ewd:comment="9" style="cursor:pointer;" ewd:lineID="61"><path style="stroke:#000000;stroke-width:5.10 ;&st6;" d=" M  1342.78,   571.19  L  1376.77,   571.19  " /></a><a ewd:comment="9" style="cursor:pointer;" ewd:lineID="62"> d=" M  1342.78,   214.25  L  1376.77,   214.25 
	
		<path style="stroke:#000000;stroke-width:5.10 ;&st6;" d=" M  1342.78,   214.25  L  1376.77,   214.25  " /><path style="stroke:#FFFFFF;stroke-width:4.53 ;&st6;" d=" M  1342.78,   214.25  L  1376.77,   214.25  " /></a><a style="cursor:pointer;" ewd:lineID="63"><path style="stroke:#000000;stroke-width:5.10 ;&st6;" d=" M  1385.27,   466.94  L  1385.27,   562.69  " /></a><a style="cursor:pointer;" ewd:lineID="64"><path style="stroke:#000000;stroke-width:5.10 ;&st6;" d=" M  1385.27,   404.05  L  1385.27,   452.21  " /></a><a style="cursor:pointer;" ewd:lineID="65"> d=" M  1385.27,   282.24  L  1385.27,   381.39 
	
		<path style="stroke:#000000;stroke-width:5.10 ;&st6;" d=" M  1385.27,   282.24  L  1385.27,   381.39  " /><path style="stroke:#FFFFFF;stroke-width:4.53 ;&st6;" d=" M  1385.27,   282.24  L  1385.27,   381.39  " /></a><a style="cursor:pointer;" ewd:lineID="66"> d=" M  1385.27,   222.75  L  1385.27,   267.22 
	
		<path style="stroke:#000000;stroke-width:5.10 ;&st6;" d=" M  1385.27,   222.75  L  1385.27,   267.22  " /><path style="stroke:#FFFFFF;stroke-width:4.53 ;&st6;" d=" M  1385.27,   222.75  L  1385.27,   267.22  " /></a><a style="cursor:pointer;" ewd:lineID="67"> d=" M  1385.27,   178.27  L  1385.27,   205.75 
	
		<path style="stroke:#000000;stroke-width:5.10 ;&st6;" d=" M  1385.27,   178.27  L  1385.27,   205.75  " /><path style="stroke:#FFFFFF;stroke-width:4.53 ;&st6;" d=" M  1385.27,   178.27  L  1385.27,   205.75  " /></a><a ewd:comment="1" style="cursor:pointer;" ewd:lineID="68"><path style="stroke:#000000;stroke-width:5.10 ;&st6;" d=" M  1393.77,   571.19  L  1421.53,   571.19  " /></a><a ewd:comment="1" style="cursor:pointer;" ewd:lineID="69"> d=" M  1393.77,   214.25  L  1421.25,   214.25 
	
		<path style="stroke:#000000;stroke-width:5.10 ;&st6;" d=" M  1393.77,   214.25  L  1421.25,   214.25  " /><path style="stroke:#FFFFFF;stroke-width:4.53 ;&st6;" d=" M  1393.77,   214.25  L  1421.25,   214.25  " /></a><a ewd:comment="1" style="cursor:pointer;" ewd:lineID="70"> d=" M  1444.76,   214.25  L  1461.76,   214.25  L  1461.76,   267.22 
	
		<path style="stroke:#000000;stroke-width:5.10 ;&st6;" d=" M  1444.76,   214.25  L  1461.76,   214.25  L  1461.76,   267.22  " /><path style="stroke:#FFFFFF;stroke-width:4.53 ;&st6;" d=" M  1444.76,   214.25  L  1461.76,   214.25  L  1461.76,   267.22  " /></a><a ewd:comment="1" style="cursor:pointer;" ewd:lineID="71"><path style="stroke:#000000;stroke-width:5.10 ;&st6;" d=" M  1461.76,   466.94  L  1461.76,   571.19  L  1444.76,   571.19  " /></a><a ewd:comment="1" style="cursor:pointer;" ewd:lineID="72"><path style="stroke:#00A0C6;stroke-width:5.10 ;&st6;" d=" M  1461.76,   404.05  L  1461.76,   452.21  " /><path style="stroke:#FFFFFF;stroke-width:2.27 ;&st6;" d=" M  1461.76,   404.05  L  1461.76,   452.21  " /><path style="stroke:#000000;stroke-width:1.13 ;&st6;" d=" M  1461.76,   404.05  L  1461.76,   452.21  " /></a><a ewd:comment="1" style="cursor:pointer;" ewd:lineID="73"><path style="stroke:#00A0C6;stroke-width:5.10 ;&st6;" d=" M  1461.76,   282.24  L  1461.76,   381.39  " /><path style="stroke:#FFFFFF;stroke-width:1.13 ;&st6;" d=" M  1461.76,   282.24  L  1461.76,   381.39  " /></a><a ewd:figtype="w2w" style="cursor:pointer;" ewd:pinNo="9" ewd:code="OI3" ewd:figID="16"><path style="&st2;" d=" M   101.98,   163.26  L    84.99,   163.26  L    84.99,   171.76  L   101.98,   171.76  L   101.98,   163.26 " /><text style="&st8;" transform="matrix(&st16;  88.82  169.63 )"><tspan x="0" style="&st18;" y="0">OI3</tspan></text></a><a ewd:figtype="w2w" style="cursor:pointer;" ewd:pinNo="12" ewd:code="OI3" ewd:figID="17"><path style="&st2;" d=" M   254.96,   554.19  L   237.96,   554.19  L   237.96,   562.69  L   254.96,   562.69  L   254.96,   554.19 " /><text style="&st8;" transform="matrix(&st16;  241.79  560.56 )"><tspan x="0" style="&st18;" y="0">OI3</tspan></text></a><a ewd:figtype="w2w" style="cursor:pointer;" ewd:pinNo="2" ewd:code="OL1" ewd:figID="18"><path style="&st2;" d=" M   586.40,   205.75  L   569.40,   205.75  L   569.40,   214.25  L   586.40,   214.25  L   586.40,   205.75 " /><text style="&st8;" transform="matrix(&st16;  572.34  212.12 )"><tspan x="0" style="&st18;" y="0">OL1</tspan></text></a><a ewd:figtype="w2w" style="cursor:pointer;" ewd:pinNo="1" ewd:code="OL1" ewd:figID="19"><path style="&st2;" d=" M   671.39,   205.75  L   654.39,   205.75  L   654.39,   214.25  L   671.39,   214.25  L   671.39,   205.75 " /><text style="&st8;" transform="matrix(&st16;  657.32  212.12 )"><tspan x="0" style="&st18;" y="0">OL1</tspan></text></a><a ewd:figtype="w2w" style="cursor:pointer;" ewd:pinNo="11" ewd:code="OI3" ewd:figID="20"><path style="&st2;" d=" M  1155.81,   452.21  L  1138.81,   452.21  L  1138.81,   460.71  L  1155.81,   460.71  L  1155.81,   452.21 " /><text style="&st8;" transform="matrix(&st16;  1142.64  458.58 )"><tspan x="0" style="&st18;" y="0">OI3</tspan></text></a><a ewd:figtype="w2w" style="cursor:pointer;" ewd:pinNo="2" ewd:code="RS1" ewd:figID="21"><path style="&st2;" d=" M  1215.30,   503.20  L  1198.30,   503.20  L  1198.30,   511.70  L  1215.30,   511.70  L  1215.30,   503.20 " /><text style="&st8;" transform="matrix(&st16;  1201.98  509.57 )"><tspan x="0" style="&st18;" y="0">RS1</tspan></text></a><a ewd:figtype="w2w" style="cursor:pointer;" ewd:pinNo="1" ewd:code="RS1" ewd:figID="22"><path style="&st2;" d=" M  1215.30,   273.74  L  1198.30,   273.74  L  1198.30,   282.24  L  1215.30,   282.24  L  1215.30,   273.74 " /><text style="&st8;" transform="matrix(&st16;  1201.98  280.11 )"><tspan x="0" style="&st18;" y="0">RS1</tspan></text></a><a ewd:figtype="w2w" style="cursor:pointer;" ewd:pinNo="2" ewd:code="TS1" ewd:figID="23"><path style="&st2;" d=" M  1274.79,   503.20  L  1257.79,   503.20  L  1257.79,   511.70  L  1274.79,   511.70  L  1274.79,   503.20 " /><text style="&st8;" transform="matrix(&st16;  1261.4  509.57 )"><tspan x="0" style="&st18;" y="0">TS1</tspan></text></a><a ewd:figtype="w2w" style="cursor:pointer;" ewd:pinNo="1" ewd:code="bT2" ewd:figID="24"><path style="&st2;" d=" M  1274.79,   452.21  L  1257.79,   452.21  L  1257.79,   460.71  L  1274.79,   460.71  L  1274.79,   452.21 " /><text style="&st8;" transform="matrix(&st16;  1261.4  458.58 )"><tspan x="0" style="&st18;" y="0">bT2</tspan></text></a><a ewd:figtype="w2w" style="cursor:pointer;" ewd:pinNo="3" ewd:code="bT2" ewd:figID="25"><path style="&st2;" d=" M  1274.79,   333.23  L  1257.79,   333.23  L  1257.79,   341.73  L  1274.79,   341.73  L  1274.79,   333.23 " /><text style="&st8;" transform="matrix(&st16;  1261.4  339.6 )"><tspan x="0" style="&st18;" y="0">bT2</tspan></text></a><a ewd:figtype="w2w" style="cursor:pointer;" ewd:pinNo="1" ewd:code="TS1" ewd:figID="26"><path style="&st2;" d=" M  1274.79,   273.74  L  1257.79,   273.74  L  1257.79,   282.24  L  1274.79,   282.24  L  1274.79,   273.74 " /><text style="&st8;" transform="matrix(&st16;  1261.4  280.11 )"><tspan x="0" style="&st18;" y="0">TS1</tspan></text></a><a ewd:figtype="w2w" style="cursor:pointer;" ewd:pinNo="14" ewd:code="IS1" ewd:figID="27"><path style="&st2;" d=" M  1342.78,   566.94  L  1325.78,   566.94  L  1325.78,   575.44  L  1342.78,   575.44  L  1342.78,   566.94 " /><text style="&st8;" transform="matrix(&st16;  1330.4  573.31 )"><tspan x="0" style="&st18;" y="0">IS1</tspan></text></a><a ewd:figtype="w2w" style="cursor:pointer;" ewd:pinNo="15" ewd:code="IS1" ewd:figID="28"><path style="&st2;" d=" M  1342.78,   210.00  L  1325.78,   210.00  L  1325.78,   218.50  L  1342.78,   218.50  L  1342.78,   210.00 " /><text style="&st8;" transform="matrix(&st16;  1330.4  216.37 )"><tspan x="0" style="&st18;" y="0">IS1</tspan></text></a><a ewd:figtype="w2w" style="cursor:pointer;" ewd:pinNo="7" ewd:code="PI2" ewd:figID="29"><path style="&st2;" d=" M  1393.77,   452.21  L  1376.77,   452.21  L  1376.77,   460.71  L  1393.77,   460.71  L  1393.77,   452.21 " /><text style="&st8;" transform="matrix(&st16;  1381.21  458.58 )"><tspan x="0" style="&st18;" y="0">PI2</tspan></text></a><a ewd:figtype="w2w" style="cursor:pointer;" ewd:pinNo="6" ewd:code="PI2" ewd:figID="30"><path style="&st2;" d=" M  1393.77,   273.74  L  1376.77,   273.74  L  1376.77,   282.24  L  1393.77,   282.24  L  1393.77,   273.74 " /><text style="&st8;" transform="matrix(&st16;  1381.21  280.11 )"><tspan x="0" style="&st18;" y="0">PI2</tspan></text></a><a ewd:figtype="w2w" style="cursor:pointer;" ewd:pinNo="10" ewd:code="OI3" ewd:figID="31"><path style="&st2;" d=" M  1393.77,   163.26  L  1376.77,   163.26  L  1376.77,   171.76  L  1393.77,   171.76  L  1393.77,   163.26 " /><text style="&st8;" transform="matrix(&st16;  1380.6  169.63 )"><tspan x="0" style="&st18;" y="0">OI3</tspan></text></a><a ewd:figtype="w2w" style="cursor:pointer;" ewd:pinNo="1" ewd:code="UI3" ewd:figID="32"><path style="&st2;" d=" M  1444.76,   566.94  L  1427.76,   566.94  L  1427.76,   575.44  L  1444.76,   575.44  L  1444.76,   566.94 " /><text style="&st8;" transform="matrix(&st16;  1431.82  573.31 )"><tspan x="0" style="&st18;" y="0">UI3</tspan></text></a><a ewd:figtype="w2w" style="cursor:pointer;" ewd:pinNo="6" ewd:code="UI3" ewd:figID="33"><path style="&st2;" d=" M  1444.76,   210.00  L  1427.76,   210.00  L  1427.76,   218.50  L  1444.76,   218.50  L  1444.76,   210.00 " /><text style="&st8;" transform="matrix(&st16;  1431.82  216.37 )"><tspan x="0" style="&st18;" y="0">UI3</tspan></text></a><a ewd:figtype="w2w" style="cursor:pointer;" ewd:pinNo="2" ewd:code="QU1" ewd:figID="34"><path style="&st2;" d=" M  1470.25,   452.21  L  1453.26,   452.21  L  1453.26,   460.71  L  1470.25,   460.71  L  1470.25,   452.21 " /><text style="&st8;" transform="matrix(&st16;  1455.89  458.58 )"><tspan x="0" style="&st18;" y="0">QU1</tspan></text></a><a ewd:figtype="w2w" style="cursor:pointer;" ewd:pinNo="1" ewd:code="QU1" ewd:figID="35"><path style="&st2;" d=" M  1470.25,   273.74  L  1453.26,   273.74  L  1453.26,   282.24  L  1470.25,   282.24  L  1470.25,   273.74 " /><text style="&st8;" transform="matrix(&st16;  1455.89  280.11 )"><tspan x="0" style="&st18;" y="0">QU1</tspan></text></a><a ewd:figtype="gp" style="cursor:pointer;" ewd:code="LA" ewd:figID="36"><path style="&st2;" d=" M   108.36,   681.67  L   129.60,   681.67  L   118.98,   697.25  L   108.36,   681.67 " /><text style="&st8;" transform="matrix(&st16;  115.22  689.46 )"><tspan x="0" style="&st18;" y="0">LA</tspan></text></a><a ewd:figtype="gp" style="cursor:pointer;" ewd:code="LB" ewd:figID="37"><path style="&st2;" d=" M   150.85,   681.67  L   172.10,   681.67  L   161.47,   697.25  L   150.85,   681.67 " /><text style="&st8;" transform="matrix(&st16;  157.82  689.46 )"><tspan x="0" style="&st18;" y="0">LB</tspan></text></a><a ewd:figtype="gp" style="cursor:pointer;" ewd:code="IA" ewd:figID="38"><path style="&st2;" d=" M   235.84,   681.67  L   257.08,   681.67  L   246.46,   697.25  L   235.84,   681.67 " /><text style="&st8;" transform="matrix(&st16;  243.6  689.46 )"><tspan x="0" style="&st18;" y="0">IA</tspan></text></a><a ewd:figtype="sp" style="cursor:pointer;" ewd:code="SP78" ewd:figID="39"><path style="&st2;" d=" M    89.24,   265.24  L    97.73,   265.24  L   101.98,   269.49  L   101.98,   277.99  L    97.73,   282.24  L    89.24,   282.24  L    84.99,   277.99  L    84.99,   269.49  L    89.24,   265.24 " /></a><a ewd:figtype="sp" style="cursor:pointer;" ewd:code="SP88" ewd:figID="40"><path style="&st2;" d=" M   242.21,   503.20  L   250.71,   503.20  L   254.96,   507.45  L   254.96,   515.95  L   250.71,   520.20  L   242.21,   520.20  L   237.96,   515.95  L   237.96,   507.45  L   242.21,   503.20 " /></a><a ewd:figtype="sp" style="cursor:pointer;" ewd:code="SP88" ewd:figID="41"><path style="&st2;" d=" M   318.70,   503.20  L   327.20,   503.20  L   331.44,   507.45  L   331.44,   515.95  L   327.20,   520.20  L   318.70,   520.20  L   314.45,   515.95  L   314.45,   507.45  L   318.70,   503.20 " /></a><a ewd:figtype="sp" style="cursor:pointer;" ewd:code="SP88" ewd:figID="42"><path style="&st2;" d=" M   395.18,   503.20  L   403.68,   503.20  L   407.93,   507.45  L   407.93,   515.95  L   403.68,   520.20  L   395.18,   520.20  L   390.93,   515.95  L   390.93,   507.45  L   395.18,   503.20 " /></a><a ewd:figtype="sp" style="cursor:pointer;" ewd:code="SP88" ewd:figID="43"><path style="&st2;" d=" M   446.18,   503.20  L   454.67,   503.20  L   458.92,   507.45  L   458.92,   515.95  L   454.67,   520.20  L   446.18,   520.20  L   441.93,   515.95  L   441.93,   507.45  L   446.18,   503.20 " /></a><a ewd:figtype="sp" style="cursor:pointer;" ewd:code="SP85" ewd:figID="44"><path style="&st2;" d=" M   573.65,   129.26  L   582.15,   129.26  L   586.40,   133.51  L   586.40,   142.01  L   582.15,   146.26  L   573.65,   146.26  L   569.40,   142.01  L   569.40,   133.51  L   573.65,   129.26 " /></a><a ewd:figtype="sp" style="cursor:pointer;" ewd:code="SP92" ewd:figID="45"><path style="&st2;" d=" M   607.65,   265.24  L   616.15,   265.24  L   620.40,   269.49  L   620.40,   277.99  L   616.15,   282.24  L   607.65,   282.24  L   603.40,   277.99  L   603.40,   269.49  L   607.65,   265.24 " /></a><a ewd:figtype="sp" style="cursor:pointer;" ewd:code="SP88" ewd:figID="46"><path style="&st2;" d=" M   650.14,   503.20  L   658.64,   503.20  L   662.89,   507.45  L   662.89,   515.95  L   658.64,   520.20  L   650.14,   520.20  L   645.89,   515.95  L   645.89,   507.45  L   650.14,   503.20 " /></a><a ewd:figtype="sp" style="cursor:pointer;" ewd:code="SP84" ewd:figID="47"><path style="&st2;" d=" M   658.64,   146.26  L   667.14,   146.26  L   671.39,   150.51  L   671.39,   159.01  L   667.14,   163.26  L   658.64,   163.26  L   654.39,   159.01  L   654.39,   150.51  L   658.64,   146.26 " /></a><a ewd:figtype="sp" style="cursor:pointer;" ewd:code="SP91" ewd:figID="48"><path style="&st2;" d=" M   692.63,   316.23  L   701.13,   316.23  L   705.38,   320.48  L   705.38,   328.98  L   701.13,   333.23  L   692.63,   333.23  L   688.38,   328.98  L   688.38,   320.48  L   692.63,   316.23 " /></a><a ewd:figtype="sp" style="cursor:pointer;" ewd:code="SP89" ewd:figID="49"><path style="&st2;" d=" M   735.13,   180.26  L   743.63,   180.26  L   747.88,   184.50  L   747.88,   193.00  L   743.63,   197.25  L   735.13,   197.25  L   730.88,   193.00  L   730.88,   184.50  L   735.13,   180.26 " /></a><a ewd:figtype="sp" style="cursor:pointer;" ewd:code="SP90" ewd:figID="50"><path style="&st2;" d=" M   777.62,   120.77  L   786.12,   120.77  L   790.37,   125.01  L   790.37,   133.51  L   786.12,   137.76  L   777.62,   137.76  L   773.37,   133.51  L   773.37,   125.01  L   777.62,   120.77 " /></a><a ewd:figtype="sp" style="cursor:pointer;" ewd:code="SP103" ewd:figID="51"><path style="&st2;" d=" M  1262.04,   562.69  L  1270.54,   562.69  L  1274.79,   566.94  L  1274.79,   575.44  L  1270.54,   579.69  L  1262.04,   579.69  L  1257.79,   575.44  L  1257.79,   566.94  L  1262.04,   562.69 " /></a><a ewd:figtype="sp" style="cursor:pointer;" ewd:code="SP104" ewd:figID="52"><path style="&st2;" d=" M  1262.04,   205.75  L  1270.54,   205.75  L  1274.79,   210.00  L  1274.79,   218.50  L  1270.54,   222.75  L  1262.04,   222.75  L  1257.79,   218.50  L  1257.79,   210.00  L  1262.04,   205.75 " /></a><a ewd:figtype="sp" style="cursor:pointer;" ewd:code="SP49" ewd:figID="53"><path style="&st2;" d=" M  1381.02,   562.69  L  1389.52,   562.69  L  1393.77,   566.94  L  1393.77,   575.44  L  1389.52,   579.69  L  1381.02,   579.69  L  1376.77,   575.44  L  1376.77,   566.94  L  1381.02,   562.69 " /></a><a ewd:figtype="sp" style="cursor:pointer;" ewd:code="SP50" ewd:figID="54"><path style="&st2;" d=" M  1381.02,   205.75  L  1389.52,   205.75  L  1393.77,   210.00  L  1393.77,   218.50  L  1389.52,   222.75  L  1381.02,   222.75  L  1376.77,   218.50  L  1376.77,   210.00  L  1381.02,   205.75 " /></a></g></svg>