<?xml version="1.0" encoding="utf-8"?>
<!DOCTYPE svg PUBLIC "-//W3C//DTD SVG 1.0//EN" "http://www.w3.org/TR/2001/REC-SVG-20010904/DTD/svg10.dtd"[
	<!ENTITY ns_flows "http://ns.adobe.com/Flows/1.0/">
	<!ENTITY ns_svg "http://www.w3.org/2000/svg">
	<!ENTITY ns_xlink "http://www.w3.org/1999/xlink">
	<!ENTITY st0 "font-size:7px;font-family:'MS-PGothic';adobe-font-script:japanese;">
	<!ENTITY st1 "font-size:6px;font-family:'ArialMT';">
	<!-- White fill  -->
	<!ENTITY st2 "fill:#FFFFFF;stroke:#000000; stroke-width:1.41;stroke-linecap:round;stroke-linejoin:round;">
	<!-- Yellow fill  -->
	<!ENTITY st3 "fill:#FFFFCC;stroke:#FFFFCC; stroke-width:0.1;stroke-linecap:round;stroke-linejoin:round;">
	<!-- Gray fill  -->
	<!ENTITY st4 "fill:#CCCCCC;stroke:#CCCCCC; stroke-width:0.1;stroke-linecap:round;stroke-linejoin:round;">
	<!-- Light-blue fill -->
	<!ENTITY st5 "fill:#CCECF4;stroke:#000000; stroke-width:1.133;stroke-linecap:round;stroke-linejoin:round;">
	<!ENTITY st6 "fill:none;stroke-linecap:butt; stroke-linejoin:round;">
	<!ENTITY st7 "fill:none;stroke:#000000;stroke-linecap:round;stroke-linejoin:round;">
	<!ENTITY st8 "enable-background:new    ;">
	<!-- Black fill -->
	<!ENTITY st9 "fill:#000000;stroke:#000000; stroke-linecap:round;stroke-linejoin:round;">
	<!-- SRS note   -->
	<!ENTITY st10 "font-size:9px;font-family:'ArialMT';">
	<!ENTITY st11 "font-size:9px;font-family:'Svg Symbol';">
	<!ENTITY st12 "font-size:6px;font-family:'Svg Symbol';">
	<!ENTITY st13 "fill:none;stroke:#ff0000;stroke-linecap:round;stroke-linejoin:round;">
	<!-- Yellow fill  -->
	<!ENTITY st14 "fill:#FFFF00;stroke:#FFFF00; stroke-width:0.1;stroke-linecap:round;stroke-linejoin:round;">
	<!ENTITY st15 "font-size:6px;font-family:'MS-PGothic';adobe-font-script:japanese;">
	<!ENTITY st16 "1.00 0.00 0.00 1.00">
	<!ENTITY st17 "0.00 -1.00 1.00 0.00">
	<!ENTITY st18 "font-size:6px;font-family:'Arial';">
	<!ENTITY st19 "font-size:9px;font-family:'Arial';">
	<!ENTITY st20 "font-size:6px;font-family:'MS-PGothic','MS PGothic';adobe-font-script:japanese;">
	<!ENTITY st21 "font-size:7px;font-family:'MS-PGothic','MS PGothic';adobe-font-script:japanese;">
	<!ATTLIST svg
		xmlns:ewd CDATA #FIXED "http://shcl.co.jp/ewd"
		xmlns:a CDATA #FIXED "http://ns.adobe.com/AdobeSVGViewerExtensions/3.0/"
		ewd:ver CDATA #IMPLIED
	>
	<!ATTLIST a
		ewd:lineID CDATA #IMPLIED
		ewd:groupID CDATA #IMPLIED
		ewd:figtype CDATA #IMPLIED
		ewd:code CDATA #IMPLIED
		ewd:figID CDATA #IMPLIED
		ewd:pinNo CDATA #IMPLIED
		ewd:comment CDATA #IMPLIED >
	<!ATTLIST g
		ewd:lineID CDATA #IMPLIED
		ewd:groupID CDATA #IMPLIED
		ewd:figtype CDATA #IMPLIED
		ewd:code CDATA #IMPLIED
		ewd:figID CDATA #IMPLIED
		ewd:pinNo CDATA #IMPLIED
		ewd:comment CDATA #IMPLIED >
	<!ATTLIST text
		ewd:textID CDATA #IMPLIED >
	<!ATTLIST title
		ewd:textID CDATA #IMPLIED >
]>
<!-- Generator: Shintec Hozumi YS   -->
<svg onload="call_execInitLoadProc_svg('system')" style="overflow:visible;  enable-background:new 0 0 3601.076 710.000" viewBox="0 0 3601.076 710.000" height="710.000" width="3601.076" xml:space="preserve" ewd:ver="2.1.2.9" xmlns="&ns_svg;" xmlns:a="http://ns.adobe.com/AdobeSVGViewerExtensions/3.0/" xmlns:ewd="http://shcl.co.jp/ewd" xmlns:xlink="&ns_xlink;">
<path style="stroke-width:1.42 ;&st7;  " d=" M  1852.69,   554.19  L  1844.19,   554.19  " /><text style="&st18;" transform="matrix(&st17;  1993.47  475.16 )">W-B</text><text style="&st18;" transform="matrix(&st17;  1942.48  475.16 )">W-B</text><text style="&st18;" transform="matrix(&st17;  1594.04  589.89 )">W-B</text><text style="&st18;" transform="matrix(&st17;  1594.04  475.16 )">W-B</text><text style="&st18;" transform="matrix(&st17;  1679.02  475.16 )">W-B</text><text style="&st18;" transform="matrix(&st17;  1690.35  473.92 )">(*4)</text><text style="&st18;" transform="matrix(&st17;  1679.02  589.89 )">W-B</text><text style="&st18;" transform="matrix(&st17;  1690.35  588.65 )">(*4)</text><text style="&st18;" transform="matrix(&st17;  1653.53  342.22 )">R-W</text><text style="&st18;" transform="matrix(&st17;  1664.86  341.06 )">(*4)</text><text style="&st18;" transform="matrix(&st17;  1704.52  341.72 )">R-G</text><text style="&st18;" transform="matrix(&st17;  1715.85  341.06 )">(*4)</text><text style="&st18;" transform="matrix(&st17;  1636.53  589.89 )">W-B</text><text style="&st18;" transform="matrix(&st17;  1647.86  588.65 )">(*4)</text><text style="&st18;" transform="matrix(&st17;  1953.81  477.95 )">(*1 *3)</text><text style="&st18;" transform="matrix(&st16;  1755.8  61.83 )" ewd:textID="27">Door Control ECU with Receiver Assembly</text><text style="&st18;" transform="matrix(&st16;  1755.79  55.0 )">L31</text><path style="stroke-width:1.42 ;&st7;  " d=" M  1852.69,   499.67  L  1847.72,   494.70  " /><text style="&st18;" transform="matrix(&st17;  1594.04  109.72 )">W-B</text><text style="&st18;" transform="matrix(&st17;  1840.5  589.89 )">W-B</text><text style="&st18;" transform="matrix(&st17;  1840.5  666.38 )">W-B</text><text style="&st18;" transform="matrix(&st17;  1868.83  358.97 )">(*2 *3)</text><text style="&st18;" transform="matrix(&st17;  1857.49  355.6 )">R-G</text><text style="&st18;" transform="matrix(&st17;  1823.5  356.1 )">R-W</text><text style="&st18;" transform="matrix(&st17;  1834.83  358.97 )">(*2 *3)</text><text style="&st18;" transform="matrix(&st17;  1840.5  475.16 )">W-B</text><text style="&st18;" transform="matrix(&st17;  1851.83  477.95 )">(*2 *3)</text><text style="&st18;" transform="matrix(&st17;  1840.5  534.65 )">W-B</text><text style="&st18;" transform="matrix(&st16;  1965.22  499.5 )">W-B</text><path style="stroke-width:1.42 ;&st7;  " d=" M  1835.69,   506.73  L  1840.66,   511.70  " /><text style="&st18;" transform="matrix(&st16;  1897.23  499.5 )">W-B</text><text style="&st18;" transform="matrix(&st17;  1976.47  356.1 )">R-W</text><text style="&st18;" transform="matrix(&st17;  1987.81  358.97 )">(*1 *3)</text><path style="stroke-width:1.42 ;&st7;  " d=" M  1942.65,   494.70  L  1937.68,   499.67  " /><path style="stroke-width:1.42 ;&st7;  " d=" M  1949.70,   511.70  L  1954.67,   506.73  " /><path style="stroke-width:1.42 ;&st7;  " d=" M  1937.68,   506.73  L  1942.65,   511.70  " /><path style="stroke-width:1.42 ;&st7;  " d=" M  1954.67,   499.67  L  1949.70,   494.70  " /><path style="stroke-width:1.42 ;&st7;  " d=" M  1993.64,   494.70  L  1988.67,   499.67  " /><path style="stroke-width:1.42 ;&st7;  " d=" M  1988.67,   506.73  L  1993.64,   511.70  " /><path style="stroke-width:1.42 ;&st7;  " d=" M  1840.66,   494.70  L  1835.69,   499.67  " /><path style="stroke-width:1.42 ;&st7;  " d=" M  1847.72,   511.70  L  1852.69,   506.73  " /><path style="stroke-width:1.42 ;&st7;  " d=" M  1594.21,   528.70  L  1589.23,   533.67  " /><path style="stroke-width:1.42 ;&st7;  " d=" M  1601.26,   545.69  L  1606.23,   540.73  " /><path style="stroke-width:1.42 ;&st7;  " d=" M  1589.23,   540.73  L  1594.20,   545.69  " /><path style="stroke-width:1.42 ;&st7;  " d=" M  1606.23,   533.67  L  1601.26,   528.70  " /><g ewd:figtype="conn" ewd:figID="12" ewd:code="L31"><g ewd:lineID="43"><text style="&st18;" transform="matrix(&st16;  1588.45  86.47 )">11</text><text style="&st18;" transform="matrix(&st16;  1595.62  74.58 )">E</text></g></g><g ewd:figtype="conn" ewd:figID="14" ewd:code="I93"><path style="stroke-width:1.42 ;&st7;  " d=" M  1835.69,   613.68  L  1852.69,   613.68  L  1852.69,   630.68  L  1835.69,   630.68  L  1835.69,   613.68  " /><path style="stroke-width:0.85 ;&st7;  " d=" M  1844.19,   613.68  L  1844.19,   630.68  " /><text style="&st18;" transform="matrix(&st16;  1835.5  637.18 )">1</text><text style="&st18;" transform="matrix(&st16;  1841.89  637.18 )">A</text><path style="stroke-width:1.42 ;&st7;   " d=" M  1848.72,   635.21  C  1848.72    632.71   1846.70    630.68   1844.19    630.68  " /><path style="stroke-width:1.42 ;&st7;   " d=" M  1844.19,   630.68  C  1841.69    630.68   1839.66    632.71   1839.66    635.21  " /><path style="stroke-width:1.42 ;&st7;   " d=" M  1839.66,   635.21  C  1839.66    637.72   1841.69    639.75   1844.19    639.75  " /><path style="stroke-width:1.42 ;&st7;   " d=" M  1844.19,   639.75  C  1846.70    639.75   1848.72    637.72   1848.72    635.21  " /><text style="&st18;" transform="matrix(&st16;  1832.4  611.12 )">11</text><text style="&st18;" transform="matrix(&st16;  1841.89  611.12 )">A</text><path style="stroke-width:1.42 ;&st7;   " d=" M  1848.72,   609.15  C  1848.72    606.65   1846.70    604.62   1844.19    604.62  " /><path style="stroke-width:1.42 ;&st7;   " d=" M  1844.19,   604.62  C  1841.69    604.62   1839.66    606.65   1839.66    609.15  " /><path style="stroke-width:1.42 ;&st7;   " d=" M  1839.66,   609.15  C  1839.66    611.65   1841.69    613.68   1844.19    613.68  " /><path style="stroke-width:1.42 ;&st7;   " d=" M  1844.19,   613.68  C  1846.70    613.68   1848.72    611.65   1848.72    609.15  " /><g ewd:figtype="title"><text style="&st18;" transform="matrix(&st17;  1867.41  633.59 )" ewd:textID="40">No. 5 Junction <tspan x="0 " dy="6.0">Connector</tspan></text><text style="&st18;" transform="matrix(&st17;  1860.58  633.58 )">I93(A)</text></g></g><g ewd:figtype="conn" ewd:figID="21" ewd:code="L46"><path style="stroke-width:0.85 ;&st7;  " d=" M  1682.72,   443.71  L  1682.72,   418.22  " /><path style="stroke-width:1.42 ;&st7;  " d=" M  1682.72,   398.39  L  1682.72,   415.38  " /><path style="stroke-width:0.85 ;&st7;   " d=" M  1692.63,   402.63  C  1692.63    401.85   1692.00    401.22   1691.22    401.22  " /><path style="stroke-width:0.85 ;&st7;   " d=" M  1691.22,   401.22  C  1690.44    401.22   1689.80    401.85   1689.80    402.63  " /><path style="stroke-width:0.85 ;&st7;   " d=" M  1689.80,   402.63  C  1689.80    403.42   1690.44    404.05   1691.22    404.05  " /><path style="stroke-width:0.85 ;&st7;   " d=" M  1691.22,   404.05  C  1692.00    404.05   1692.63    403.42   1692.63    402.63  " /><path style="stroke-width:0.85 ;&st7;   " d=" M  1675.64,   402.63  C  1675.64    401.85   1675.00    401.22   1674.22    401.22  " /><path style="stroke-width:0.85 ;&st7;   " d=" M  1674.22,   401.22  C  1673.44    401.22   1672.80    401.85   1672.80    402.63  " /><path style="stroke-width:0.85 ;&st7;   " d=" M  1672.80,   402.63  C  1672.80    403.42   1673.44    404.05   1674.22    404.05  " /><path style="stroke-width:0.85 ;&st7;   " d=" M  1674.22,   404.05  C  1675.00    404.05   1675.64    403.42   1675.64    402.63  " /><path style="stroke-width:0.85 ;&st7;   " d=" M  1684.14,   416.80  C  1684.14    416.02   1683.50    415.38   1682.72    415.38  " /><path style="stroke-width:0.85 ;&st7;   " d=" M  1682.72,   415.38  C  1681.94    415.38   1681.30    416.02   1681.30    416.80  " /><path style="stroke-width:0.85 ;&st7;   " d=" M  1681.30,   416.80  C  1681.30    417.58   1681.94    418.22   1682.72    418.22  " /><path style="stroke-width:0.85 ;&st7;   " d=" M  1682.72,   418.22  C  1683.50    418.22   1684.14    417.58   1684.14    416.80  " /><path style="stroke-width:0.85 ;&st7;  " d=" M  1657.22,   384.22  L  1657.22,   402.63  L  1672.80,   402.63  " /><path style="stroke-width:0.85 ;&st7;  " d=" M  1708.21,   384.22  L  1708.21,   402.63  L  1692.63,   402.63  " /><path style="stroke-width:1.42 ;&st7;  " d=" M  1640.23,   384.22  L  1640.23,   443.71  L  1725.21,   443.71  L  1725.21,   384.22  L  1640.23,   384.22  " /><text style="&st18;" transform="matrix(&st16;  1685.3  440.02 )">E</text><text style="&st18;" transform="matrix(&st16;  1710.8  392.41 )">L</text><text style="&st18;" transform="matrix(&st16;  1659.81  392.41 )">UL</text><text style="&st18;" transform="matrix(&st17;  1670.53  429.72 )" ewd:textID="56">Unlock</text><text style="&st18;" transform="matrix(&st17;  1698.85  427.12 )" ewd:textID="39">Lock</text><text style="&st18;" transform="matrix(&st16;  1651.04  380.53 )">5</text><text style="&st18;" transform="matrix(&st16;  1676.53  451.9 )">6</text><text style="&st18;" transform="matrix(&st16;  1702.03  380.53 )">3</text><g ewd:figtype="title"><text style="&st18;" transform="matrix(&st17;  1739.93  446.62 )" ewd:textID="29">Door Control <tspan x="0 " dy="6.0">Switch Assembly</tspan></text><text style="&st18;" transform="matrix(&st17;  1733.11  446.61 )">L46</text></g></g><g ewd:figtype="conn" ewd:figID="22" ewd:code="O9"><path style="stroke-width:1.42 ;&st7;  " d=" M  1844.19,   389.89  L  1844.19,   406.88  " /><path style="stroke-width:0.85 ;&st7;  " d=" M  1844.19,   443.71  L  1844.19,   409.72  " /><path style="stroke-width:0.85 ;&st7;   " d=" M  1845.61,   408.30  C  1845.61    407.52   1844.97    406.88   1844.19    406.88  " /><path style="stroke-width:0.85 ;&st7;   " d=" M  1844.19,   406.88  C  1843.41    406.88   1842.78    407.52   1842.78    408.30  " /><path style="stroke-width:0.85 ;&st7;   " d=" M  1842.78,   408.30  C  1842.78    409.08   1843.41    409.72   1844.19    409.72  " /><path style="stroke-width:0.85 ;&st7;   " d=" M  1844.19,   409.72  C  1844.97    409.72   1845.61    409.08   1845.61    408.30  " /><path style="stroke-width:0.85 ;&st7;   " d=" M  1837.11,   394.14  C  1837.11    393.35   1836.48    392.72   1835.69    392.72  " /><path style="stroke-width:0.85 ;&st7;   " d=" M  1835.69,   392.72  C  1834.91    392.72   1834.28    393.35   1834.28    394.14  " /><path style="stroke-width:0.85 ;&st7;   " d=" M  1834.28,   394.14  C  1834.28    394.92   1834.91    395.55   1835.69    395.55  " /><path style="stroke-width:0.85 ;&st7;   " d=" M  1835.69,   395.55  C  1836.48    395.55   1837.11    394.92   1837.11    394.14  " /><path style="stroke-width:0.85 ;&st7;   " d=" M  1854.11,   394.14  C  1854.11    393.35   1853.47    392.72   1852.69    392.72  " /><path style="stroke-width:0.85 ;&st7;   " d=" M  1852.69,   392.72  C  1851.91    392.72   1851.27    393.35   1851.27    394.14  " /><path style="stroke-width:0.85 ;&st7;   " d=" M  1851.27,   394.14  C  1851.27    394.92   1851.91    395.55   1852.69    395.55  " /><path style="stroke-width:0.85 ;&st7;   " d=" M  1852.69,   395.55  C  1853.47    395.55   1854.11    394.92   1854.11    394.14  " /><path style="stroke-width:0.85 ;&st7;  " d=" M  1861.19,   375.72  L  1861.19,   394.14  L  1854.11,   394.14  " /><path style="stroke-width:0.85 ;&st7;  " d=" M  1827.19,   375.72  L  1827.19,   394.14  L  1834.28,   394.14  " /><path style="stroke-width:1.42 ;&st7;  " d=" M  1793.20,   375.72  L  1793.20,   443.71  L  1878.19,   443.71  L  1878.19,   375.72  L  1793.20,   375.72  " /><text style="&st18;" transform="matrix(&st17;  1806.5  414.58 )" ewd:textID="30">Door Lock <tspan x="0 " dy="6.0">Control </tspan><tspan x="0 " dy="6.0">Switch</tspan></text><text style="&st18;" transform="matrix(&st17;  1832.0  421.22 )" ewd:textID="56">Unlock</text><text style="&st18;" transform="matrix(&st17;  1860.33  418.62 )" ewd:textID="39">Lock</text><text style="&st18;" transform="matrix(&st16;  1816.2  383.92 )">UL</text><text style="&st18;" transform="matrix(&st16;  1854.46  383.92 )">L</text><text style="&st18;" transform="matrix(&st16;  1846.78  440.02 )">E</text><text style="&st18;" transform="matrix(&st16;  1821.01  372.03 )">4</text><text style="&st18;" transform="matrix(&st16;  1838.01  451.9 )">9</text><text style="&st18;" transform="matrix(&st16;  1855.0  372.03 )">3</text><g ewd:figtype="title"><text style="&st18;" transform="matrix(&st17;  1776.73  446.61 )">O9</text><text style="&st18;" transform="matrix(&st17;  1783.56  446.62 )" ewd:textID="47">Power Window Regulator <tspan x="0 " dy="6.0">Master Switch Assembly</tspan></text></g></g><g ewd:figtype="conn" ewd:figID="23" ewd:code="O8"><path style="stroke-width:1.42 ;&st7;  " d=" M  1997.17,   389.89  L  1997.17,   406.88  " /><path style="stroke-width:0.85 ;&st7;  " d=" M  1997.17,   443.71  L  1997.17,   409.72  " /><path style="stroke-width:0.85 ;&st7;   " d=" M  1998.58,   408.30  C  1998.58    407.52   1997.95    406.88   1997.17    406.88  " /><path style="stroke-width:0.85 ;&st7;   " d=" M  1997.17,   406.88  C  1996.38    406.88   1995.75    407.52   1995.75    408.30  " /><path style="stroke-width:0.85 ;&st7;   " d=" M  1995.75,   408.30  C  1995.75    409.08   1996.38    409.72   1997.17    409.72  " /><path style="stroke-width:0.85 ;&st7;   " d=" M  1997.17,   409.72  C  1997.95    409.72   1998.58    409.08   1998.58    408.30  " /><path style="stroke-width:0.85 ;&st7;   " d=" M  1990.08,   394.14  C  1990.08    393.35   1989.45    392.72   1988.67    392.72  " /><path style="stroke-width:0.85 ;&st7;   " d=" M  1988.67,   392.72  C  1987.89    392.72   1987.25    393.35   1987.25    394.14  " /><path style="stroke-width:0.85 ;&st7;   " d=" M  1987.25,   394.14  C  1987.25    394.92   1987.89    395.55   1988.67    395.55  " /><path style="stroke-width:0.85 ;&st7;   " d=" M  1988.67,   395.55  C  1989.45    395.55   1990.08    394.92   1990.08    394.14  " /><path style="stroke-width:0.85 ;&st7;   " d=" M  2007.08,   394.14  C  2007.08    393.35   2006.45    392.72   2005.66    392.72  " /><path style="stroke-width:0.85 ;&st7;   " d=" M  2005.66,   392.72  C  2004.88    392.72   2004.25    393.35   2004.25    394.14  " /><path style="stroke-width:0.85 ;&st7;   " d=" M  2004.25,   394.14  C  2004.25    394.92   2004.88    395.55   2005.66    395.55  " /><path style="stroke-width:0.85 ;&st7;   " d=" M  2005.66,   395.55  C  2006.45    395.55   2007.08    394.92   2007.08    394.14  " /><path style="stroke-width:0.85 ;&st7;  " d=" M  1995.97,   425.71  L  1995.70,   426.18  L  1995.61,   426.71  L  1995.70,   427.25  L  1995.97,   427.72  L  1996.39,   428.06  L  1996.89,   428.25  L  1997.44,   428.25  L  1997.94,   428.06  L  1998.36,   427.72  L  1998.63,   427.25  L  1998.72,   426.71  L  1998.63,   426.18  L  1998.36,   425.71  L  1997.94,   425.37  L  1997.44,   425.18  L  1996.89,   425.18  L  1996.39,   425.37  L  1995.97,   425.71  L  1996.37,   426.42  L  1996.37,   427.01  L  1996.74,   427.45  L  1997.31,   427.55  L  1997.82,   427.26  L  1998.02,   426.71  L  1997.82,   426.17  L  1997.31,   425.88  L  1996.74,   425.98  L  1997.17,   426.71  " /><path style="stroke-width:0.85 ;&st7;  " d=" M  1997.17,   426.71  L  1946.17,   426.71  L  1946.17,   443.71  " /><path style="stroke-width:0.85 ;&st7;  " d=" M  2014.16,   375.72  L  2014.16,   394.14  L  2007.08,   394.14  " /><path style="stroke-width:0.85 ;&st7;  " d=" M  1980.17,   375.72  L  1980.17,   394.14  L  1987.25,   394.14  " /><path style="stroke-width:1.42 ;&st7;  " d=" M  1929.18,   375.72  L  1929.18,   443.71  L  2031.16,   443.71  L  2031.16,   375.72  L  1929.18,   375.72  " /><text style="&st18;" transform="matrix(&st17;  1959.48  414.58 )" ewd:textID="30">Door Lock <tspan x="0 " dy="6.0">Control </tspan><tspan x="0 " dy="6.0">Switch</tspan></text><text style="&st18;" transform="matrix(&st17;  1984.97  421.22 )" ewd:textID="56">Unlock</text><text style="&st18;" transform="matrix(&st17;  2013.3  418.62 )" ewd:textID="39">Lock</text><text style="&st18;" transform="matrix(&st16;  1969.18  383.92 )">UL</text><text style="&st18;" transform="matrix(&st16;  2007.44  383.92 )">L</text><text style="&st18;" transform="matrix(&st16;  1999.75  440.02 )">E</text><text style="&st18;" transform="matrix(&st16;  1948.76  440.02 )">E</text><text style="&st18;" transform="matrix(&st16;  1939.99  451.9 )">6</text><text style="&st18;" transform="matrix(&st16;  1973.98  372.03 )">4</text><text style="&st18;" transform="matrix(&st16;  1990.98  451.9 )">5</text><text style="&st18;" transform="matrix(&st16;  2007.98  372.03 )">3</text><g ewd:figtype="title"><text style="&st18;" transform="matrix(&st17;  1912.71  446.61 )">O8</text><text style="&st18;" transform="matrix(&st17;  1919.53  446.62 )" ewd:textID="47">Power Window Regulator <tspan x="0 " dy="6.0">Master Switch Assembly</tspan></text></g></g><g ewd:figtype="conn" ewd:figID="24" ewd:code="L53"><path style="stroke-width:1.42 ;&st7;  " d=" M  1674.22,   528.70  L  1691.22,   528.70  L  1691.22,   545.69  L  1674.22,   545.69  L  1674.22,   528.70  " /><path style="stroke-width:0.85 ;&st7;  " d=" M  1682.72,   528.70  L  1682.72,   545.69  " /><path style="stroke-width:0.85 ;&st7;  " d=" M  1674.22,   537.20  L  1682.72,   537.20  " /><path style="stroke-width:0.85 ;&st7;  " d=" M  1681.53,   536.19  L  1681.25,   536.66  L  1681.16,   537.20  L  1681.25,   537.73  L  1681.53,   538.20  L  1681.94,   538.54  L  1682.45,   538.73  L  1682.99,   538.73  L  1683.50,   538.54  L  1683.91,   538.20  L  1684.18,   537.73  L  1684.28,   537.20  L  1684.18,   536.66  L  1683.91,   536.19  L  1683.50,   535.85  L  1682.99,   535.66  L  1682.45,   535.66  L  1681.94,   535.85  L  1681.53,   536.19  L  1681.92,   536.90  L  1681.92,   537.49  L  1682.29,   537.93  L  1682.87,   538.03  L  1683.37,   537.74  L  1683.57,   537.20  L  1683.37,   536.65  L  1682.87,   536.36  L  1682.29,   536.46  L  1682.72,   537.20  " /><text style="&st18;" transform="matrix(&st16;  1668.04  533.51 )">4</text><text style="&st18;" transform="matrix(&st16;  1676.53  553.89 )">5</text><text style="&st18;" transform="matrix(&st16;  1676.53  525.01 )">6</text><g ewd:figtype="title"><text style="&st18;" transform="matrix(&st17;  1705.94  548.6 )" ewd:textID="45">No. 31 Junction <tspan x="0 " dy="6.0">Connector</tspan></text><text style="&st18;" transform="matrix(&st17;  1699.11  548.59 )">L53</text></g></g><g ewd:figtype="w2w" ewd:figID="57" ewd:code="OI5"><path style="stroke-width:1.42 ;&st7;  " d=" M  1848.44,   563.26  L  1844.19,   559.01  L  1839.94,   563.26  " /><path style="stroke-width:1.42 ;&st7;  " d=" M  1848.44,   559.86  L  1844.19,   555.61  L  1839.94,   559.86  " /><text style="&st18;" transform="matrix(&st16;  1831.56  551.91 )">2</text></g><g ewd:figtype="gp" ewd:figID="82" ewd:code="LA"><path style="stroke-width: 0.85 ;&st7;  " d=" M  1597.73,   697.25  L  1597.73,   701.50  " /><path style="stroke-width: 0.85 ;&st7;  " d=" M  1589.23,   701.50  L  1606.23,   701.50  " /><path style="stroke-width: 0.85 ;&st7;  " d=" M  1593.48,   704.33  L  1601.98,   704.33  " /><path style="stroke-width: 0.85 ;&st7;  " d=" M  1594.90,   707.17  L  1600.57,   707.17  " /><path style="stroke-width: 0.85 ;&st7;  " d=" M  1596.32,   710.00  L  1599.15,   710.00  " /></g><g ewd:figtype="gp" ewd:figID="83" ewd:code="LB"><path style="stroke-width: 0.85 ;&st7;  " d=" M  1682.72,   697.25  L  1682.72,   701.50  " /><path style="stroke-width: 0.85 ;&st7;  " d=" M  1674.22,   701.50  L  1691.22,   701.50  " /><path style="stroke-width: 0.85 ;&st7;  " d=" M  1678.47,   704.33  L  1686.97,   704.33  " /><path style="stroke-width: 0.85 ;&st7;  " d=" M  1679.89,   707.17  L  1685.55,   707.17  " /><path style="stroke-width: 0.85 ;&st7;  " d=" M  1681.30,   710.00  L  1684.13,   710.00  " /></g><g ewd:figtype="gp" ewd:figID="84" ewd:code="IA"><path style="stroke-width: 0.85 ;&st7;  " d=" M  1844.19,   697.25  L  1844.19,   701.50  " /><path style="stroke-width: 0.85 ;&st7;  " d=" M  1835.69,   701.50  L  1852.69,   701.50  " /><path style="stroke-width: 0.85 ;&st7;  " d=" M  1839.94,   704.33  L  1848.44,   704.33  " /><path style="stroke-width: 0.85 ;&st7;  " d=" M  1841.36,   707.17  L  1847.02,   707.17  " /><path style="stroke-width: 0.85 ;&st7;  " d=" M  1842.77,   710.00  L  1845.61,   710.00  " /></g></svg>