<?xml version="1.0" encoding="utf-8"?>
<!DOCTYPE svg PUBLIC "-//W3C//DTD SVG 1.0//EN" "http://www.w3.org/TR/2001/REC-SVG-20010904/DTD/svg10.dtd"[
	<!ENTITY ns_flows "http://ns.adobe.com/Flows/1.0/">
	<!ENTITY ns_svg "http://www.w3.org/2000/svg">
	<!ENTITY ns_xlink "http://www.w3.org/1999/xlink">
	<!ENTITY st0 "font-size:7px;font-family:'MS-PGothic';adobe-font-script:japanese;">
	<!ENTITY st1 "font-size:6px;font-family:'ArialMT';">
	<!-- White fill  -->
	<!ENTITY st2 "fill:#FFFFFF;stroke:#000000; stroke-width:1.41;stroke-linecap:round;stroke-linejoin:round;">
	<!-- Yellow fill  -->
	<!ENTITY st3 "fill:#FFFFCC;stroke:#FFFFCC; stroke-width:0.1;stroke-linecap:round;stroke-linejoin:round;">
	<!-- Gray fill  -->
	<!ENTITY st4 "fill:#CCCCCC;stroke:#CCCCCC; stroke-width:0.1;stroke-linecap:round;stroke-linejoin:round;">
	<!-- Light-blue fill -->
	<!ENTITY st5 "fill:#CCECF4;stroke:#000000; stroke-width:1.133;stroke-linecap:round;stroke-linejoin:round;">
	<!ENTITY st6 "fill:none;stroke-linecap:butt; stroke-linejoin:round;">
	<!ENTITY st7 "fill:none;stroke:#000000;stroke-linecap:round;stroke-linejoin:round;">
	<!ENTITY st8 "enable-background:new    ;">
	<!-- Black fill -->
	<!ENTITY st9 "fill:#000000;stroke:#000000; stroke-linecap:round;stroke-linejoin:round;">
	<!-- SRS note   -->
	<!ENTITY st10 "font-size:9px;font-family:'ArialMT';">
	<!ENTITY st11 "font-size:9px;font-family:'Svg Symbol';">
	<!ENTITY st12 "font-size:6px;font-family:'Svg Symbol';">
	<!ENTITY st13 "fill:none;stroke:#ff0000;stroke-linecap:round;stroke-linejoin:round;">
	<!-- Yellow fill  -->
	<!ENTITY st14 "fill:#FFFF00;stroke:#FFFF00; stroke-width:0.1;stroke-linecap:round;stroke-linejoin:round;">
	<!ENTITY st15 "font-size:6px;font-family:'MS-PGothic';adobe-font-script:japanese;">
	<!ENTITY st16 "1.00 0.00 0.00 1.00">
	<!ENTITY st17 "0.00 -1.00 1.00 0.00">
	<!ENTITY st18 "font-size:6px;font-family:'Arial';">
	<!ENTITY st19 "font-size:9px;font-family:'Arial';">
	<!ENTITY st20 "font-size:6px;font-family:'MS-PGothic','MS PGothic';adobe-font-script:japanese;">
	<!ENTITY st21 "font-size:7px;font-family:'MS-PGothic','MS PGothic';adobe-font-script:japanese;">
	<!ATTLIST svg
		xmlns:ewd CDATA #FIXED "http://shcl.co.jp/ewd"
		xmlns:a CDATA #FIXED "http://ns.adobe.com/AdobeSVGViewerExtensions/3.0/"
		ewd:ver CDATA #IMPLIED
	>
	<!ATTLIST a
		ewd:lineID CDATA #IMPLIED
		ewd:groupID CDATA #IMPLIED
		ewd:figtype CDATA #IMPLIED
		ewd:code CDATA #IMPLIED
		ewd:figID CDATA #IMPLIED
		ewd:pinNo CDATA #IMPLIED
		ewd:comment CDATA #IMPLIED >
	<!ATTLIST g
		ewd:lineID CDATA #IMPLIED
		ewd:groupID CDATA #IMPLIED
		ewd:figtype CDATA #IMPLIED
		ewd:code CDATA #IMPLIED
		ewd:figID CDATA #IMPLIED
		ewd:pinNo CDATA #IMPLIED
		ewd:comment CDATA #IMPLIED >
	<!ATTLIST text
		ewd:textID CDATA #IMPLIED >
	<!ATTLIST title
		ewd:textID CDATA #IMPLIED >
]>
<!-- Generator: Shintec Hozumi YS   -->
<svg onload="call_execInitLoadProc_svg('system')" style="overflow:visible;  enable-background:new 0 0 3054.362 710.000" viewBox="0 0 3054.362 710.000" height="710.000" width="3054.362" xml:space="preserve" ewd:ver="2.1.2.9" xmlns="&ns_svg;" xmlns:a="http://ns.adobe.com/AdobeSVGViewerExtensions/3.0/" xmlns:ewd="http://shcl.co.jp/ewd" xmlns:xlink="&ns_xlink;">
<path style="stroke-width:1.42 ;&st7;  " d=" M  1759.21,   506.73  L  1764.17,   511.70  " /><path style="stroke-width:1.42 ;&st7;  " d=" M  1776.20,   499.67  L  1771.23,   494.70  " /><path style="stroke-width:1.42 ;&st7;  " d=" M  1713.19,   494.70  L  1708.21,   499.67  " /><path style="stroke-width:1.42 ;&st7;  " d=" M  1720.24,   511.70  L  1725.21,   506.73  " /><path style="stroke-width:1.42 ;&st7;  " d=" M  1708.21,   506.73  L  1713.18,   511.70  " /><path style="stroke-width:1.42 ;&st7;  " d=" M  1725.21,   499.67  L  1720.24,   494.70  " /><path style="stroke-width:1.42 ;&st7;  " d=" M  1636.70,   494.70  L  1631.73,   499.67  " /><path style="stroke-width:1.42 ;&st7;  " d=" M  1643.75,   511.70  L  1648.72,   506.73  " /><path style="stroke-width:1.42 ;&st7;  " d=" M  1631.73,   506.73  L  1636.70,   511.70  " /><path style="stroke-width:1.42 ;&st7;  " d=" M  1648.72,   499.67  L  1643.75,   494.70  " /><path style="stroke-width:1.42 ;&st7;  " d=" M  1648.72,   554.19  L  1640.23,   554.19  " /><path style="stroke-width:1.42 ;&st7;  " d=" M  1993.64,   307.73  L  1988.67,   312.71  " /><path style="stroke-width:1.42 ;&st7;  " d=" M  1988.67,   319.76  L  1993.64,   324.73  " /><path style="stroke-width:1.42 ;&st7;  " d=" M  1993.64,   137.76  L  1988.67,   142.73  " /><path style="stroke-width:1.42 ;&st7;  " d=" M  1988.67,   149.79  L  1993.64,   154.76  " /><path style="stroke-width:1.42 ;&st7;  " d=" M  1891.66,   112.27  L  1886.68,   117.24  " /><path style="stroke-width:1.42 ;&st7;  " d=" M  1898.71,   129.26  L  1903.68,   124.29  " /><path style="stroke-width:1.42 ;&st7;  " d=" M  1886.68,   124.29  L  1891.65,   129.26  " /><path style="stroke-width:1.42 ;&st7;  " d=" M  1903.68,   117.24  L  1898.71,   112.27  " /><path style="stroke-width:1.42 ;&st7;  " d=" M  1908.65,   494.70  L  1903.68,   499.67  " /><path style="stroke-width:1.42 ;&st7;  " d=" M  1915.71,   511.70  L  1920.68,   506.73  " /><path style="stroke-width:1.42 ;&st7;  " d=" M  1903.68,   506.73  L  1908.65,   511.70  " /><path style="stroke-width:1.42 ;&st7;  " d=" M  1920.68,   499.67  L  1915.71,   494.70  " /><path style="stroke-width:1.42 ;&st7;  " d=" M  1988.67,   197.25  L  1997.17,   197.25  " /><path style="stroke-width:1.42 ;&st7;  " d=" M  1886.68,   180.26  L  1895.18,   180.26  " /><path style="stroke-width:1.42 ;&st7;  " d=" M  1857.66,   282.24  L  1852.69,   287.21  " /><path style="stroke-width:1.42 ;&st7;  " d=" M  1864.72,   299.24  L  1869.69,   294.27  " /><path style="stroke-width:1.42 ;&st7;  " d=" M  1852.69,   294.27  L  1857.66,   299.24  " /><path style="stroke-width:1.42 ;&st7;  " d=" M  1869.69,   287.21  L  1864.72,   282.24  " /><path style="stroke-width:1.42 ;&st7;  " d=" M  1771.23,   511.70  L  1776.20,   506.73  " /><text style="&st18;" transform="matrix(&st17;  1758.34  358.97 )">(*1 *3)</text><text style="&st18;" transform="matrix(&st17;  1747.01  356.1 )">R-W</text><text style="&st18;" transform="matrix(&st16;  1676.27  499.5 )">W-B</text><text style="&st18;" transform="matrix(&st16;  1829.24  499.5 )">W-B</text><text style="&st18;" transform="matrix(&st16;  1735.76  499.5 )">W-B</text><text style="&st18;" transform="matrix(&st17;  1993.47  245.12 )">R-G</text><text style="&st18;" transform="matrix(&st17;  1636.53  534.65 )">W-B</text><text style="&st18;" transform="matrix(&st17;  1647.86  477.95 )">(*2 *3)</text><text style="&st18;" transform="matrix(&st17;  1636.53  475.16 )">W-B</text><text style="&st18;" transform="matrix(&st17;  1630.87  358.97 )">(*2 *3)</text><text style="&st18;" transform="matrix(&st17;  1619.53  356.1 )">R-W</text><text style="&st18;" transform="matrix(&st17;  1653.53  355.6 )">R-G</text><text style="&st18;" transform="matrix(&st17;  1664.86  358.97 )">(*2 *3)</text><text style="&st18;" transform="matrix(&st17;  1636.53  666.38 )">W-B</text><text style="&st18;" transform="matrix(&st17;  1636.53  589.89 )">W-B</text><text style="&st18;" transform="matrix(&st16;  1524.53  128.4 )">(*4)</text><text style="&st18;" transform="matrix(&st16;  1575.52  128.4 )">(*4)</text><text style="&st18;" transform="matrix(&st17;  1993.47  355.6 )">R-G</text><text style="&st18;" transform="matrix(&st16;  1575.52  153.9 )">(*4)</text><text style="&st18;" transform="matrix(&st16;  1524.53  153.9 )">(*4)</text><text style="&st18;" transform="matrix(&st16;  1574.86  142.56 )">R-G</text><text style="&st18;" transform="matrix(&st16;  1574.36  117.07 )">R-W</text><text style="&st18;" transform="matrix(&st16;  1523.37  117.07 )">R-W</text><text style="&st18;" transform="matrix(&st16;  1523.87  142.56 )">R-G</text><text style="&st18;" transform="matrix(&st17;  1792.34  358.97 )">(*1 *3)</text><text style="&st18;" transform="matrix(&st17;  1781.01  355.6 )">R-G</text><text style="&st18;" transform="matrix(&st17;  1724.35  477.95 )">(*1 *3)</text><text style="&st18;" transform="matrix(&st17;  1993.47  181.38 )">R-G</text><text style="&st18;" transform="matrix(&st17;  1993.47  104.89 )">G-R</text><text style="&st18;" transform="matrix(&st17;  1891.49  164.89 )">R-W</text><text style="&st18;" transform="matrix(&st17;  1891.49  105.4 )">R-W</text><text style="&st18;" transform="matrix(&st17;  1919.82  473.92 )">(*1)</text><text style="&st18;" transform="matrix(&st17;  1908.49  475.16 )">W-B</text><text style="&st18;" transform="matrix(&st17;  1979.31  248.49 )">(*1 *4)</text><text style="&st18;" transform="matrix(&st17;  1967.98  245.12 )">R-G</text><text style="&st18;" transform="matrix(&st17;  1868.83  358.97 )">(*1 *3)</text><text style="&st18;" transform="matrix(&st17;  1857.49  356.1 )">R-W</text><text style="&st18;" transform="matrix(&st17;  1902.82  248.49 )">(*1 *4)</text><text style="&st18;" transform="matrix(&st17;  1891.49  245.62 )">R-W</text><text style="&st18;" transform="matrix(&st17;  1868.83  244.46 )">(*3)</text><text style="&st18;" transform="matrix(&st17;  1857.49  245.62 )">R-W</text><text style="&st18;" transform="matrix(&st17;  1713.02  475.16 )">W-B</text><text style="&st18;" transform="matrix(&st17;  1775.34  477.95 )">(*1 *3)</text><text style="&st18;" transform="matrix(&st17;  1764.01  475.16 )">W-B</text><path style="stroke-width:1.42 ;&st7;  " d=" M  1764.18,   494.70  L  1759.21,   499.67  " /><text style="&st18;" transform="matrix(&st16;  1764.3  23.58 )" ewd:textID="16">Door Control ECU with Receiver Assembly</text><text style="&st18;" transform="matrix(&st16;  1764.29  16.76 )">L31</text><text style="&st18;" transform="matrix(&st16;  1855.98  128.4 )">(*4)</text><text style="&st18;" transform="matrix(&st16;  1855.98  153.9 )">(*4)</text><text style="&st18;" transform="matrix(&st16;  1855.32  142.56 )">R-G</text><text style="&st18;" transform="matrix(&st16;  1854.81  117.07 )">R-W</text><g ewd:figtype="conn" ewd:figID="1" ewd:code="L31"><g ewd:lineID="61"><text style="&st18;" transform="matrix(&st16;  1889.0  86.47 )">6</text><text style="&st18;" transform="matrix(&st16;  1889.43  74.58 )">UL1</text></g><g ewd:lineID="71"><text style="&st18;" transform="matrix(&st16;  1990.98  86.47 )">7</text><text style="&st18;" transform="matrix(&st16;  1993.54  74.58 )">L1</text></g></g><g ewd:figtype="conn" ewd:figID="16" ewd:code="O9"><path style="stroke-width:0.85 ;&st7;  " d=" M  1640.23,   443.71  L  1640.23,   409.72  " /><path style="stroke-width:1.42 ;&st7;  " d=" M  1640.23,   389.89  L  1640.23,   406.88  " /><path style="stroke-width:0.85 ;&st7;   " d=" M  1650.14,   394.14  C  1650.14    393.35   1649.51    392.72   1648.72    392.72  " /><path style="stroke-width:0.85 ;&st7;   " d=" M  1648.72,   392.72  C  1647.94    392.72   1647.31    393.35   1647.31    394.14  " /><path style="stroke-width:0.85 ;&st7;   " d=" M  1647.31,   394.14  C  1647.31    394.92   1647.94    395.55   1648.72    395.55  " /><path style="stroke-width:0.85 ;&st7;   " d=" M  1648.72,   395.55  C  1649.51    395.55   1650.14    394.92   1650.14    394.14  " /><path style="stroke-width:0.85 ;&st7;   " d=" M  1633.14,   394.14  C  1633.14    393.35   1632.51    392.72   1631.73    392.72  " /><path style="stroke-width:0.85 ;&st7;   " d=" M  1631.73,   392.72  C  1630.95    392.72   1630.31    393.35   1630.31    394.14  " /><path style="stroke-width:0.85 ;&st7;   " d=" M  1630.31,   394.14  C  1630.31    394.92   1630.95    395.55   1631.73    395.55  " /><path style="stroke-width:0.85 ;&st7;   " d=" M  1631.73,   395.55  C  1632.51    395.55   1633.14    394.92   1633.14    394.14  " /><path style="stroke-width:0.85 ;&st7;   " d=" M  1641.64,   408.30  C  1641.64    407.52   1641.01    406.88   1640.23    406.88  " /><path style="stroke-width:0.85 ;&st7;   " d=" M  1640.23,   406.88  C  1639.44    406.88   1638.81    407.52   1638.81    408.30  " /><path style="stroke-width:0.85 ;&st7;   " d=" M  1638.81,   408.30  C  1638.81    409.08   1639.44    409.72   1640.23    409.72  " /><path style="stroke-width:0.85 ;&st7;   " d=" M  1640.23,   409.72  C  1641.01    409.72   1641.64    409.08   1641.64    408.30  " /><path style="stroke-width:1.42 ;&st7;  " d=" M  1589.23,   375.72  L  1589.23,   443.71  L  1674.22,   443.71  L  1674.22,   375.72  L  1589.23,   375.72  " /><path style="stroke-width:0.85 ;&st7;  " d=" M  1623.23,   375.72  L  1623.23,   394.14  L  1630.31,   394.14  " /><path style="stroke-width:0.85 ;&st7;  " d=" M  1657.22,   375.72  L  1657.22,   394.14  L  1650.14,   394.14  " /><text style="&st18;" transform="matrix(&st16;  1642.81  440.02 )">E</text><text style="&st18;" transform="matrix(&st16;  1650.5  383.92 )">L</text><text style="&st18;" transform="matrix(&st16;  1612.24  383.92 )">UL</text><text style="&st18;" transform="matrix(&st17;  1656.36  418.62 )" ewd:textID="26">Lock</text><text style="&st18;" transform="matrix(&st17;  1628.03  421.22 )" ewd:textID="40">Unlock</text><text style="&st18;" transform="matrix(&st17;  1602.54  414.58 )" ewd:textID="19">Door Lock <tspan x="0 " dy="6.0">Control </tspan><tspan x="0 " dy="6.0">Switch</tspan></text><text style="&st18;" transform="matrix(&st16;  1634.04  451.9 )">2</text><text style="&st18;" transform="matrix(&st16;  1617.04  372.03 )">4</text><text style="&st18;" transform="matrix(&st16;  1651.04  372.03 )">3</text><g ewd:figtype="title"><text style="&st18;" transform="matrix(&st17;  1578.71  446.61 )">O9</text><text style="&st18;" transform="matrix(&st17;  1585.54  446.62 )" ewd:textID="34">Power Window Regulator Master Switch Assembly</text></g></g><g ewd:figtype="conn" ewd:figID="17" ewd:code="O8"><path style="stroke-width:0.85 ;&st7;  " d=" M  1767.70,   443.71  L  1767.70,   409.72  " /><path style="stroke-width:1.42 ;&st7;  " d=" M  1767.70,   389.89  L  1767.70,   406.88  " /><path style="stroke-width:0.85 ;&st7;   " d=" M  1777.62,   394.14  C  1777.62    393.35   1776.99    392.72   1776.20    392.72  " /><path style="stroke-width:0.85 ;&st7;   " d=" M  1776.20,   392.72  C  1775.42    392.72   1774.79    393.35   1774.79    394.14  " /><path style="stroke-width:0.85 ;&st7;   " d=" M  1774.79,   394.14  C  1774.79    394.92   1775.42    395.55   1776.20    395.55  " /><path style="stroke-width:0.85 ;&st7;   " d=" M  1776.20,   395.55  C  1776.99    395.55   1777.62    394.92   1777.62    394.14  " /><path style="stroke-width:0.85 ;&st7;   " d=" M  1760.62,   394.14  C  1760.62    393.35   1759.99    392.72   1759.21    392.72  " /><path style="stroke-width:0.85 ;&st7;   " d=" M  1759.21,   392.72  C  1758.42    392.72   1757.79    393.35   1757.79    394.14  " /><path style="stroke-width:0.85 ;&st7;   " d=" M  1757.79,   394.14  C  1757.79    394.92   1758.42    395.55   1759.21    395.55  " /><path style="stroke-width:0.85 ;&st7;   " d=" M  1759.21,   395.55  C  1759.99    395.55   1760.62    394.92   1760.62    394.14  " /><path style="stroke-width:0.85 ;&st7;   " d=" M  1769.12,   408.30  C  1769.12    407.52   1768.49    406.88   1767.70    406.88  " /><path style="stroke-width:0.85 ;&st7;   " d=" M  1767.70,   406.88  C  1766.92    406.88   1766.29    407.52   1766.29    408.30  " /><path style="stroke-width:0.85 ;&st7;   " d=" M  1766.29,   408.30  C  1766.29    409.08   1766.92    409.72   1767.70    409.72  " /><path style="stroke-width:0.85 ;&st7;   " d=" M  1767.70,   409.72  C  1768.49    409.72   1769.12    409.08   1769.12    408.30  " /><path style="stroke-width:1.42 ;&st7;  " d=" M  1699.72,   375.72  L  1699.72,   443.71  L  1801.70,   443.71  L  1801.70,   375.72  L  1699.72,   375.72  " /><path style="stroke-width:0.85 ;&st7;  " d=" M  1750.71,   375.72  L  1750.71,   394.14  L  1757.79,   394.14  " /><path style="stroke-width:0.85 ;&st7;  " d=" M  1784.70,   375.72  L  1784.70,   394.14  L  1777.62,   394.14  " /><path style="stroke-width:0.85 ;&st7;  " d=" M  1767.70,   426.71  L  1716.71,   426.71  L  1716.71,   443.71  " /><path style="stroke-width:0.85 ;&st7;  " d=" M  1766.51,   425.71  L  1766.24,   426.18  L  1766.15,   426.71  L  1766.24,   427.25  L  1766.51,   427.72  L  1766.92,   428.06  L  1767.43,   428.25  L  1767.98,   428.25  L  1768.48,   428.06  L  1768.90,   427.72  L  1769.17,   427.25  L  1769.26,   426.71  L  1769.17,   426.18  L  1768.90,   425.71  L  1768.48,   425.37  L  1767.98,   425.18  L  1767.43,   425.18  L  1766.92,   425.37  L  1766.51,   425.71  L  1766.91,   426.42  L  1766.91,   427.01  L  1767.28,   427.45  L  1767.85,   427.55  L  1768.36,   427.26  L  1768.55,   426.71  L  1768.36,   426.17  L  1767.85,   425.88  L  1767.28,   425.98  L  1767.70,   426.71  " /><text style="&st18;" transform="matrix(&st16;  1719.3  440.02 )">E</text><text style="&st18;" transform="matrix(&st16;  1770.29  440.02 )">E</text><text style="&st18;" transform="matrix(&st16;  1777.97  383.92 )">L</text><text style="&st18;" transform="matrix(&st16;  1739.72  383.92 )">UL</text><text style="&st18;" transform="matrix(&st17;  1783.84  418.62 )" ewd:textID="26">Lock</text><text style="&st18;" transform="matrix(&st17;  1755.51  421.22 )" ewd:textID="40">Unlock</text><text style="&st18;" transform="matrix(&st17;  1730.02  414.58 )" ewd:textID="19">Door Lock <tspan x="0 " dy="6.0">Control </tspan><tspan x="0 " dy="6.0">Switch</tspan></text><text style="&st18;" transform="matrix(&st16;  1710.53  451.9 )">6</text><text style="&st18;" transform="matrix(&st16;  1761.52  451.9 )">5</text><text style="&st18;" transform="matrix(&st16;  1778.52  372.03 )">3</text><text style="&st18;" transform="matrix(&st16;  1744.52  372.03 )">4</text><g ewd:figtype="title"><text style="&st18;" transform="matrix(&st17;  1683.25  446.61 )">O8</text><text style="&st18;" transform="matrix(&st17;  1690.07  446.62 )" ewd:textID="34">Power Window Regulator <tspan x="0 " dy="6.0">Master Switch Assembly</tspan></text></g></g><g ewd:figtype="conn" ewd:figID="18" ewd:code="I54"><path style="stroke-width:0.85 ;&st7;  " d=" M  1640.23,   613.68  L  1640.23,   630.68  " /><path style="stroke-width:1.42 ;&st7;  " d=" M  1631.73,   613.68  L  1648.72,   613.68  L  1648.72,   630.68  L  1631.73,   630.68  L  1631.73,   613.68  " /><text style="&st18;" transform="matrix(&st16;  1631.53  637.18 )">1</text><text style="&st18;" transform="matrix(&st16;  1637.92  637.18 )">A</text><path style="stroke-width:1.42 ;&st7;   " d=" M  1644.76,   635.21  C  1644.76    632.71   1642.73    630.68   1640.23    630.68  " /><path style="stroke-width:1.42 ;&st7;   " d=" M  1640.23,   630.68  C  1637.72    630.68   1635.69    632.71   1635.69    635.21  " /><path style="stroke-width:1.42 ;&st7;   " d=" M  1635.69,   635.21  C  1635.69    637.72   1637.72    639.75   1640.23    639.75  " /><path style="stroke-width:1.42 ;&st7;   " d=" M  1640.23,   639.75  C  1642.73    639.75   1644.76    637.72   1644.76    635.21  " /><text style="&st18;" transform="matrix(&st16;  1628.43  611.12 )">11</text><text style="&st18;" transform="matrix(&st16;  1637.92  611.12 )">A</text><path style="stroke-width:1.42 ;&st7;   " d=" M  1644.76,   609.15  C  1644.76    606.65   1642.73    604.62   1640.23    604.62  " /><path style="stroke-width:1.42 ;&st7;   " d=" M  1640.23,   604.62  C  1637.72    604.62   1635.69    606.65   1635.69    609.15  " /><path style="stroke-width:1.42 ;&st7;   " d=" M  1635.69,   609.15  C  1635.69    611.65   1637.72    613.68   1640.23    613.68  " /><path style="stroke-width:1.42 ;&st7;   " d=" M  1640.23,   613.68  C  1642.73    613.68   1644.76    611.65   1644.76    609.15  " /><g ewd:figtype="title"><text style="&st18;" transform="matrix(&st17;  1656.62  633.58 )">I54(A)</text><text style="&st18;" transform="matrix(&st17;  1663.44  633.59 )" ewd:textID="27">No. 5 Junction <tspan x="0 " dy="6.0">Connector</tspan></text></g></g><g ewd:figtype="conn" ewd:figID="19" ewd:code="O7"><path style="stroke-width:1.42 ;&st7;  " d=" M  2196.88,   398.39  L  2196.88,   402.35  " /><path style="stroke-width:1.42 ;&st7;  " d=" M  2188.38,   402.35  L  2188.38,   398.39  " /><path style="stroke-width:1.42 ;&st7;  " d=" M  2188.38,   398.39  L  2196.88,   398.39  " /><path style="stroke-width:1.42 ;&st7;  " d=" M  2196.88,   421.05  L  2196.88,   417.08  " /><path style="stroke-width:1.42 ;&st7;  " d=" M  2188.38,   417.08  L  2188.38,   421.05  " /><path style="stroke-width:1.42 ;&st7;  " d=" M  2188.38,   421.05  L  2196.88,   421.05  " /><path style="stroke-width:1.42 ;&st7;  " d=" M  2141.64,   419.63  L  2147.31,   396.97  " /><path style="stroke-width:0.85 ;&st7;  " d=" M  2141.64,   443.71  L  2141.64,   422.46  " /><path style="stroke-width:0.85 ;&st7;  " d=" M  2141.64,   396.97  L  2141.64,   384.22  " /><path style="stroke-width:1.42 ;&st7;  " d=" M  1912.18,   398.39  L  1912.18,   415.38  " /><path style="stroke-width:0.85 ;&st7;  " d=" M  1912.18,   443.71  L  1912.18,   418.22  " /><path style="stroke-width:1.42 ;&st7;   " d=" M  2201.13,   409.72  C  2201.13    405.02   2197.33    401.22   2192.63    401.22  " /><path style="stroke-width:1.42 ;&st7;   " d=" M  2192.63,   401.22  C  2187.94    401.22   2184.14    405.02   2184.14    409.72  " /><path style="stroke-width:1.42 ;&st7;   " d=" M  2184.14,   409.72  C  2184.14    414.41   2187.94    418.22   2192.63    418.22  " /><path style="stroke-width:1.42 ;&st7;   " d=" M  2192.63,   418.22  C  2197.33    418.22   2201.13    414.41   2201.13    409.72  " /><path style="stroke-width:0.85 ;&st7;   " d=" M  2143.06,   421.05  C  2143.06    420.27   2142.42    419.63   2141.64    419.63  " /><path style="stroke-width:0.85 ;&st7;   " d=" M  2141.64,   419.63  C  2140.86    419.63   2140.23    420.27   2140.23    421.05  " /><path style="stroke-width:0.85 ;&st7;   " d=" M  2140.23,   421.05  C  2140.23    421.83   2140.86    422.46   2141.64    422.46  " /><path style="stroke-width:0.85 ;&st7;   " d=" M  2141.64,   422.46  C  2142.42    422.46   2143.06    421.83   2143.06    421.05  " /><path style="stroke-width:0.85 ;&st7;   " d=" M  2143.06,   398.39  C  2143.06    397.60   2142.42    396.97   2141.64    396.97  " /><path style="stroke-width:0.85 ;&st7;   " d=" M  2141.64,   396.97  C  2140.86    396.97   2140.23    397.60   2140.23    398.39  " /><path style="stroke-width:0.85 ;&st7;   " d=" M  2140.23,   398.39  C  2140.23    399.17   2140.86    399.80   2141.64    399.80  " /><path style="stroke-width:0.85 ;&st7;   " d=" M  2141.64,   399.80  C  2142.42    399.80   2143.06    399.17   2143.06    398.39  " /><path style="stroke-width:0.85 ;&st7;   " d=" M  1913.60,   416.80  C  1913.60    416.02   1912.96    415.38   1912.18    415.38  " /><path style="stroke-width:0.85 ;&st7;   " d=" M  1912.18,   415.38  C  1911.40    415.38   1910.76    416.02   1910.76    416.80  " /><path style="stroke-width:0.85 ;&st7;   " d=" M  1910.76,   416.80  C  1910.76    417.58   1911.40    418.22   1912.18    418.22  " /><path style="stroke-width:0.85 ;&st7;   " d=" M  1912.18,   418.22  C  1912.96    418.22   1913.60    417.58   1913.60    416.80  " /><path style="stroke-width:0.85 ;&st7;   " d=" M  1905.10,   402.63  C  1905.10    401.85   1904.46    401.22   1903.68    401.22  " /><path style="stroke-width:0.85 ;&st7;   " d=" M  1903.68,   401.22  C  1902.90    401.22   1902.27    401.85   1902.27    402.63  " /><path style="stroke-width:0.85 ;&st7;   " d=" M  1902.27,   402.63  C  1902.27    403.42   1902.90    404.05   1903.68    404.05  " /><path style="stroke-width:0.85 ;&st7;   " d=" M  1903.68,   404.05  C  1904.46    404.05   1905.10    403.42   1905.10    402.63  " /><path style="stroke-width:0.85 ;&st7;   " d=" M  1922.10,   402.63  C  1922.10    401.85   1921.46    401.22   1920.68    401.22  " /><path style="stroke-width:0.85 ;&st7;   " d=" M  1920.68,   401.22  C  1919.90    401.22   1919.26    401.85   1919.26    402.63  " /><path style="stroke-width:0.85 ;&st7;   " d=" M  1919.26,   402.63  C  1919.26    403.42   1919.90    404.05   1920.68    404.05  " /><path style="stroke-width:0.85 ;&st7;   " d=" M  1920.68,   404.05  C  1921.46    404.05   1922.10    403.42   1922.10    402.63  " /><path style="stroke-width:0.85 ;&st7;  " d=" M  2192.63,   421.05  L  2192.63,   443.71  " /><path style="stroke-width:0.85 ;&st7;  " d=" M  2192.63,   384.22  L  2192.63,   398.39  " /><path style="stroke-width:1.42 ;&st7;  " d=" M  1844.19,   384.22  L  1844.19,   443.71  L  2209.63,   443.71  L  2209.63,   384.22  L  1844.19,   384.22  " /><path style="stroke-width:0.85 ;&st7;  " d=" M  1971.67,   384.22  L  1971.67,   402.63  L  1922.09,   402.63  " /><path style="stroke-width:0.85 ;&st7;  " d=" M  1861.19,   384.22  L  1861.19,   402.63  L  1902.26,   402.63  " /><text style="&st18;" transform="matrix(&st17;  2130.6  421.99 )" ewd:textID="41">Unlock <tspan x="0 " dy="6.0">Detection</tspan></text><text style="&st18;" transform="matrix(&st17;  1925.49  427.12 )" ewd:textID="24">Key <tspan x="0 " dy="6.0">Lock</tspan></text><text style="&st18;" transform="matrix(&st17;  1897.16  429.72 )" ewd:textID="25">Key <tspan x="0 " dy="6.0">Unlock</tspan></text><text style="&st18;" transform="matrix(&st16;  2144.23  392.41 )">LSSR</text><text style="&st18;" transform="matrix(&st16;  2195.22  392.41 )">L</text><text style="&st18;" transform="matrix(&st16;  2195.22  440.02 )">UL</text><text style="&st18;" transform="matrix(&st16;  2144.23  440.02 )">E</text><text style="&st18;" transform="matrix(&st16;  2189.9  411.69 )">M</text><text style="&st18;" transform="matrix(&st16;  1863.77  392.41 )">UL</text><text style="&st18;" transform="matrix(&st16;  1974.25  392.41 )">L</text><text style="&st18;" transform="matrix(&st16;  1914.76  440.02 )">E</text><text style="&st18;" transform="matrix(&st16;  1855.0  380.53 )">7</text><text style="&st18;" transform="matrix(&st16;  1906.0  451.9 )">6</text><text style="&st18;" transform="matrix(&st16;  1965.49  380.53 )">5</text><text style="&st18;" transform="matrix(&st16;  2135.46  451.9 )">1</text><text style="&st18;" transform="matrix(&st16;  2135.46  380.53 )">4</text><text style="&st18;" transform="matrix(&st16;  2186.45  380.53 )">2</text><text style="&st18;" transform="matrix(&st16;  2186.45  451.9 )">3</text><g ewd:figtype="title"><text style="&st18;" transform="matrix(&st17;  1834.55  446.62 )" ewd:textID="23">Front Door Lock <tspan x="0 " dy="6.0">Actuator Assembly RH</tspan></text><text style="&st18;" transform="matrix(&st17;  1827.72  446.61 )">O7</text></g></g><g ewd:figtype="w2w" ewd:figID="49" ewd:code="OI3"><path style="stroke-width:1.42 ;&st7;  " d=" M  1644.47,   559.86  L  1640.23,   555.61  L  1635.98,   559.86  " /><path style="stroke-width:1.42 ;&st7;  " d=" M  1644.47,   563.26  L  1640.23,   559.01  L  1635.98,   563.26  " /><text style="&st18;" transform="matrix(&st16;  1624.49  551.91 )">12</text></g><g ewd:figtype="w2w" ewd:figID="50" ewd:code="OL1"><path style="stroke-width:1.42 ;&st7;  " d=" M  1890.93,   171.19  L  1895.18,   175.44  L  1899.43,   171.19  " /><path style="stroke-width:1.42 ;&st7;  " d=" M  1899.43,   174.59  L  1895.18,   178.84  L  1890.93,   174.59  " /><text style="&st18;" transform="matrix(&st16;  1882.55  186.47 )">2</text></g><g ewd:figtype="w2w" ewd:figID="51" ewd:code="OL1"><path style="stroke-width:1.42 ;&st7;  " d=" M  2001.41,   191.59  L  1997.17,   195.84  L  1992.92,   191.59  " /><path style="stroke-width:1.42 ;&st7;  " d=" M  1992.92,   188.19  L  1997.17,   192.44  L  2001.41,   188.19  " /><text style="&st18;" transform="matrix(&st16;  1984.53  203.47 )">1</text></g><g ewd:figtype="gp" ewd:figID="74" ewd:code="IA"><path style="stroke-width:0.85 ;&st7;  " d=" M  1638.81,   710.00  L  1641.64,   710.00  " /><path style="stroke-width:0.85 ;&st7;  " d=" M  1637.39,   707.17  L  1643.06,   707.17  " /><path style="stroke-width:0.85 ;&st7;  " d=" M  1635.98,   704.33  L  1644.47,   704.33  " /><path style="stroke-width:0.85 ;&st7;  " d=" M  1631.73,   701.50  L  1648.72,   701.50  " /><path style="stroke-width:0.85 ;&st7;  " d=" M  1640.23,   697.25  L  1640.23,   701.50  " /></g><g ewd:code="1" ewd:figID="113" ewd:comment="" ewd:figtype="comment"><text style="&st18;" transform="matrix(&st16;  1951.27  590.16 )" ewd:textID="1">* 1 :4-Door</text></g><g ewd:code="4" ewd:figID="106" ewd:comment="" ewd:figtype="comment"><text style="&st18;" transform="matrix(&st16;  1951.27  615.65 )" ewd:textID="4">* 4 :w/o Power Window</text></g><g ewd:code="3" ewd:figID="107" ewd:comment="" ewd:figtype="comment"><text style="&st18;" transform="matrix(&st16;  1951.27  607.15 )" ewd:textID="3">* 3 :w/ Power Window</text></g><g ewd:code="2" ewd:figID="112" ewd:comment="" ewd:figtype="comment"><text style="&st18;" transform="matrix(&st16;  1951.27  598.65 )" ewd:textID="2">* 2 :2-Door</text></g></svg>