<?xml version="1.0" encoding="utf-8"?>
<!DOCTYPE svg PUBLIC "-//W3C//DTD SVG 1.0//EN" "http://www.w3.org/TR/2001/REC-SVG-20010904/DTD/svg10.dtd"[
	<!ENTITY ns_flows "http://ns.adobe.com/Flows/1.0/">
	<!ENTITY ns_svg "http://www.w3.org/2000/svg">
	<!ENTITY ns_xlink "http://www.w3.org/1999/xlink">
	<!ENTITY st0 "font-size:7px;font-family:'MS-PGothic';adobe-font-script:japanese;">
	<!ENTITY st1 "font-size:6px;font-family:'ArialMT';">
	<!-- White fill  -->
	<!ENTITY st2 "fill:#FFFFFF;stroke:#000000; stroke-width:1.41;stroke-linecap:round;stroke-linejoin:round;">
	<!-- Yellow fill  -->
	<!ENTITY st3 "fill:#FFFFCC;stroke:#FFFFCC; stroke-width:0.1;stroke-linecap:round;stroke-linejoin:round;">
	<!-- Gray fill  -->
	<!ENTITY st4 "fill:#CCCCCC;stroke:#CCCCCC; stroke-width:0.1;stroke-linecap:round;stroke-linejoin:round;">
	<!-- Light-blue fill -->
	<!ENTITY st5 "fill:#CCECF4;stroke:#000000; stroke-width:1.133;stroke-linecap:round;stroke-linejoin:round;">
	<!ENTITY st6 "fill:none;stroke-linecap:butt; stroke-linejoin:round;">
	<!ENTITY st7 "fill:none;stroke:#000000;stroke-linecap:round;stroke-linejoin:round;">
	<!ENTITY st8 "enable-background:new    ;">
	<!-- Black fill -->
	<!ENTITY st9 "fill:#000000;stroke:#000000; stroke-linecap:round;stroke-linejoin:round;">
	<!-- SRS note   -->
	<!ENTITY st10 "font-size:9px;font-family:'ArialMT';">
	<!ENTITY st11 "font-size:9px;font-family:'Svg Symbol';">
	<!ENTITY st12 "font-size:6px;font-family:'Svg Symbol';">
	<!ENTITY st13 "fill:none;stroke:#ff0000;stroke-linecap:round;stroke-linejoin:round;">
	<!-- Yellow fill  -->
	<!ENTITY st14 "fill:#FFFF00;stroke:#FFFF00; stroke-width:0.1;stroke-linecap:round;stroke-linejoin:round;">
	<!ENTITY st15 "font-size:6px;font-family:'MS-PGothic';adobe-font-script:japanese;">
	<!ENTITY st16 "1.00 0.00 0.00 1.00">
	<!ENTITY st17 "0.00 -1.00 1.00 0.00">
	<!ENTITY st18 "font-size:6px;font-family:'Arial';">
	<!ENTITY st19 "font-size:9px;font-family:'Arial';">
	<!ENTITY st20 "font-size:6px;font-family:'MS-PGothic','MS PGothic';adobe-font-script:japanese;">
	<!ENTITY st21 "font-size:7px;font-family:'MS-PGothic','MS PGothic';adobe-font-script:japanese;">
	<!ATTLIST svg
		xmlns:ewd CDATA #FIXED "http://shcl.co.jp/ewd"
		xmlns:a CDATA #FIXED "http://ns.adobe.com/AdobeSVGViewerExtensions/3.0/"
		ewd:ver CDATA #IMPLIED
	>
	<!ATTLIST a
		ewd:lineID CDATA #IMPLIED
		ewd:groupID CDATA #IMPLIED
		ewd:figtype CDATA #IMPLIED
		ewd:code CDATA #IMPLIED
		ewd:figID CDATA #IMPLIED
		ewd:pinNo CDATA #IMPLIED
		ewd:comment CDATA #IMPLIED >
	<!ATTLIST g
		ewd:lineID CDATA #IMPLIED
		ewd:groupID CDATA #IMPLIED
		ewd:figtype CDATA #IMPLIED
		ewd:code CDATA #IMPLIED
		ewd:figID CDATA #IMPLIED
		ewd:pinNo CDATA #IMPLIED
		ewd:comment CDATA #IMPLIED >
	<!ATTLIST text
		ewd:textID CDATA #IMPLIED >
	<!ATTLIST title
		ewd:textID CDATA #IMPLIED >
]>
<!-- Generator: Shintec Hozumi YS   -->
<svg onload="call_execInitLoadProc_svg('system')" style="overflow:visible;  enable-background:new 0 0 3062.861 710.000" viewBox="0 0 3062.861 710.000" height="710.000" width="3062.861" xml:space="preserve" ewd:ver="2.1.2.9" xmlns="&ns_svg;" xmlns:a="http://ns.adobe.com/AdobeSVGViewerExtensions/3.0/" xmlns:ewd="http://shcl.co.jp/ewd" xmlns:xlink="&ns_xlink;">
<path style="stroke-width:1.42 ;&st7;  " d=" M  1385.27,   550.67  L  1380.30,   545.69  " /><path style="stroke-width:1.42 ;&st7;  " d=" M  1368.27,   557.72  L  1373.24,   562.69  " /><path style="stroke-width:1.42 ;&st7;  " d=" M  1380.30,   562.69  L  1385.27,   557.72  " /><path style="stroke-width:1.42 ;&st7;  " d=" M  1373.24,   545.69  L  1368.27,   550.67  " /><text style="&st18;" transform="matrix(&st17;  1373.07  594.14 )">W-B</text><text style="&st18;" transform="matrix(&st17;  1271.09  105.73 )">G</text><text style="&st18;" transform="matrix(&st16;  1203.39  23.58 )" ewd:textID="25">Door Control ECU with Receiver Assembly</text><text style="&st18;" transform="matrix(&st17;  1373.07  530.4 )">W-B</text><text style="&st18;" transform="matrix(&st17;  1449.56  509.16 )">W-B</text><text style="&st18;" transform="matrix(&st17;  1460.89  507.91 )">(*4)</text><text style="&st18;" transform="matrix(&st17;  1449.56  594.14 )">W-B</text><text style="&st18;" transform="matrix(&st17;  1460.89  592.9 )">(*4)</text><text style="&st18;" transform="matrix(&st17;  1424.07  393.21 )">R-W</text><text style="&st18;" transform="matrix(&st17;  1435.4  392.05 )">(*4)</text><text style="&st18;" transform="matrix(&st17;  1475.06  392.71 )">G-R</text><text style="&st18;" transform="matrix(&st17;  1486.39  392.05 )">(*4)</text><text style="&st18;" transform="matrix(&st17;  1407.07  594.14 )">W-B</text><text style="&st18;" transform="matrix(&st17;  1418.4  592.9 )">(*4)</text><text style="&st18;" transform="matrix(&st17;  1373.07  109.72 )">W-B</text><text style="&st18;" transform="matrix(&st16;  1203.39  16.76 )">L31</text><text style="&st18;" transform="matrix(&st17;  1271.09  253.62 )">G-R</text><text style="&st18;" transform="matrix(&st17;  1126.62  262.19 )">G-Y</text><text style="&st18;" transform="matrix(&st17;  1092.62  262.19 )">G-B</text><path style="stroke-width:1.42 ;&st7;  " d=" M  1274.79,   452.21  L  1283.29,   452.21  " /><path style="stroke-width:1.42 ;&st7;  " d=" M  1291.78,   482.68  L  1286.81,   477.71  " /><path style="stroke-width:1.42 ;&st7;  " d=" M  1274.79,   489.73  L  1279.76,   494.70  " /><path style="stroke-width:1.42 ;&st7;  " d=" M  1286.81,   494.70  L  1291.78,   489.73  " /><path style="stroke-width:1.42 ;&st7;  " d=" M  1279.76,   477.71  L  1274.79,   482.68  " /><path style="stroke-width:1.42 ;&st7;  " d=" M  1249.29,   545.69  L  1240.79,   545.69  " /><path style="stroke-width:1.42 ;&st7;  " d=" M  1249.29,   618.65  L  1244.32,   613.68  " /><path style="stroke-width:1.42 ;&st7;  " d=" M  1232.29,   625.71  L  1237.26,   630.68  " /><path style="stroke-width:1.42 ;&st7;  " d=" M  1244.32,   630.68  L  1249.29,   625.71  " /><path style="stroke-width:1.42 ;&st7;  " d=" M  1237.26,   613.68  L  1232.29,   618.65  " /><path style="stroke-width:1.42 ;&st7;  " d=" M  1291.78,   605.18  L  1283.29,   605.18  " /><path style="stroke-width:1.42 ;&st7;  " d=" M  1291.78,   644.15  L  1286.81,   639.18  " /><path style="stroke-width:1.42 ;&st7;  " d=" M  1274.79,   651.21  L  1279.76,   656.18  " /><path style="stroke-width:1.42 ;&st7;  " d=" M  1286.81,   656.18  L  1291.78,   651.21  " /><path style="stroke-width:1.42 ;&st7;  " d=" M  1279.76,   639.18  L  1274.79,   644.15  " /><text style="&st18;" transform="matrix(&st17;  1237.1  659.73 )">BR</text><text style="&st18;" transform="matrix(&st17;  1248.43  662.44 )">(*16)</text><text style="&st18;" transform="matrix(&st17;  1279.59  672.47 )">BR</text><text style="&st18;" transform="matrix(&st17;  1290.92  675.19 )">(*17)</text><text style="&st18;" transform="matrix(&st17;  1290.92  632.69 )">(*17)</text><text style="&st18;" transform="matrix(&st17;  1279.59  629.98 )">BR</text><text style="&st18;" transform="matrix(&st17;  1279.59  587.49 )">BR</text><text style="&st18;" transform="matrix(&st17;  1290.92  590.2 )">(*17)</text><text style="&st18;" transform="matrix(&st17;  1279.59  515.25 )">BR</text><text style="&st18;" transform="matrix(&st17;  1290.92  523.55 )">(*17,*23)</text><text style="&st18;" transform="matrix(&st17;  1237.1  515.25 )">BR</text><text style="&st18;" transform="matrix(&st17;  1248.43  517.96 )">(*16)</text><text style="&st18;" transform="matrix(&st17;  1279.59  472.76 )">BR</text><text style="&st18;" transform="matrix(&st17;  1279.59  434.51 )">BR</text><text style="&st18;" transform="matrix(&st17;  1237.1  591.74 )">BR</text><text style="&st18;" transform="matrix(&st17;  1248.43  594.45 )">(*16)</text><path style="stroke-width:1.42 ;&st7;  " d=" M  1223.80,   205.75  L  1215.30,   205.75  " /><path style="stroke-width:1.42 ;&st7;  " d=" M  1223.80,   248.24  L  1215.30,   248.24  " /><text style="&st18;" transform="matrix(&st17;  1211.6  177.97 )">G</text><text style="&st18;" transform="matrix(&st17;  1211.6  228.96 )">G</text><text style="&st18;" transform="matrix(&st17;  1211.6  267.2 )">G</text><path style="stroke-width:1.42 ;&st7;  " d=" M  1274.79,   537.20  L  1283.29,   537.20  " /><text style="&st18;" transform="matrix(&st17;  1341.91  590.2 )">(*23)</text><text style="&st18;" transform="matrix(&st17;  1341.91  658.19 )">(*23)</text><text style="&st18;" transform="matrix(&st17;  1330.58  655.48 )">BR</text><text style="&st18;" transform="matrix(&st17;  1330.58  587.49 )">BR</text><path style="stroke-width:1.42 ;&st7;  " d=" M  1325.78,   613.68  L  1334.28,   613.68  " /><g ewd:figtype="conn" ewd:figID="10" ewd:code="L46"><path style="stroke-width:0.85 ;&st7;  " d=" M  1453.26,   477.71  L  1453.26,   452.21  " /><path style="stroke-width:1.42 ;&st7;  " d=" M  1453.26,   432.38  L  1453.26,   449.38  " /><path style="stroke-width:0.85 ;&st7;   " d=" M  1463.17,   436.63  C  1463.17    435.85   1462.54    435.21   1461.76    435.21  " /><path style="stroke-width:0.85 ;&st7;   " d=" M  1461.76,   435.21  C  1460.97    435.21   1460.34    435.85   1460.34    436.63  " /><path style="stroke-width:0.85 ;&st7;   " d=" M  1460.34,   436.63  C  1460.34    437.41   1460.97    438.05   1461.76    438.05  " /><path style="stroke-width:0.85 ;&st7;   " d=" M  1461.76,   438.05  C  1462.54    438.05   1463.17    437.41   1463.17    436.63  " /><path style="stroke-width:0.85 ;&st7;   " d=" M  1446.18,   436.63  C  1446.18    435.85   1445.54    435.21   1444.76    435.21  " /><path style="stroke-width:0.85 ;&st7;   " d=" M  1444.76,   435.21  C  1443.98    435.21   1443.34    435.85   1443.34    436.63  " /><path style="stroke-width:0.85 ;&st7;   " d=" M  1443.34,   436.63  C  1443.34    437.41   1443.98    438.05   1444.76    438.05  " /><path style="stroke-width:0.85 ;&st7;   " d=" M  1444.76,   438.05  C  1445.54    438.05   1446.18    437.41   1446.18    436.63  " /><path style="stroke-width:0.85 ;&st7;   " d=" M  1454.67,   450.79  C  1454.67    450.01   1454.04    449.38   1453.26    449.38  " /><path style="stroke-width:0.85 ;&st7;   " d=" M  1453.26,   449.38  C  1452.47    449.38   1451.84    450.01   1451.84    450.79  " /><path style="stroke-width:0.85 ;&st7;   " d=" M  1451.84,   450.79  C  1451.84    451.58   1452.47    452.21   1453.26    452.21  " /><path style="stroke-width:0.85 ;&st7;   " d=" M  1453.26,   452.21  C  1454.04    452.21   1454.67    451.58   1454.67    450.79  " /><path style="stroke-width:0.85 ;&st7;  " d=" M  1427.76,   418.22  L  1427.76,   436.63  L  1443.34,   436.63  " /><path style="stroke-width:0.85 ;&st7;  " d=" M  1478.75,   418.22  L  1478.75,   436.63  L  1463.17,   436.63  " /><path style="stroke-width:1.42 ;&st7;  " d=" M  1410.76,   418.22  L  1410.76,   477.71  L  1495.75,   477.71  L  1495.75,   418.22  L  1410.76,   418.22  " /><text style="&st18;" transform="matrix(&st16;  1455.84  474.02 )">E</text><text style="&st18;" transform="matrix(&st16;  1481.34  426.41 )">L</text><text style="&st18;" transform="matrix(&st16;  1430.34  426.41 )">UL</text><text style="&st18;" transform="matrix(&st17;  1441.06  463.71 )" ewd:textID="55">Unlock</text><text style="&st18;" transform="matrix(&st17;  1469.39  461.11 )" ewd:textID="38">Lock</text><text style="&st18;" transform="matrix(&st16;  1447.07  485.9 )">6</text><text style="&st18;" transform="matrix(&st16;  1421.58  414.53 )">5</text><text style="&st18;" transform="matrix(&st16;  1472.57  414.53 )">3</text><g ewd:figtype="title"><text style="&st18;" transform="matrix(&st17;  1510.47  480.61 )" ewd:textID="27">Door Control Switch Assembly</text><text style="&st18;" transform="matrix(&st17;  1503.64  480.6 )">L46</text></g></g><g ewd:figtype="conn" ewd:figID="11" ewd:code="L53"><path style="stroke-width:1.42 ;&st7;  " d=" M  1444.76,   528.70  L  1461.76,   528.70  L  1461.76,   545.69  L  1444.76,   545.69  L  1444.76,   528.70  " /><path style="stroke-width:0.85 ;&st7;  " d=" M  1453.26,   528.70  L  1453.26,   545.69  " /><path style="stroke-width:0.85 ;&st7;  " d=" M  1444.76,   537.20  L  1453.26,   537.20  " /><path style="stroke-width:0.85 ;&st7;  " d=" M  1452.06,   536.19  L  1451.79,   536.66  L  1451.70,   537.20  L  1451.79,   537.73  L  1452.06,   538.20  L  1452.48,   538.54  L  1452.98,   538.73  L  1453.53,   538.73  L  1454.04,   538.54  L  1454.45,   538.20  L  1454.72,   537.73  L  1454.81,   537.20  L  1454.72,   536.66  L  1454.45,   536.19  L  1454.04,   535.85  L  1453.53,   535.66  L  1452.98,   535.66  L  1452.48,   535.85  L  1452.06,   536.19  L  1452.46,   536.90  L  1452.46,   537.49  L  1452.83,   537.93  L  1453.40,   538.03  L  1453.91,   537.74  L  1454.11,   537.20  L  1453.91,   536.65  L  1453.40,   536.36  L  1452.83,   536.46  L  1453.26,   537.20  " /><text style="&st18;" transform="matrix(&st16;  1438.57  533.51 )">4</text><text style="&st18;" transform="matrix(&st16;  1447.07  553.89 )">5</text><text style="&st18;" transform="matrix(&st16;  1447.07  525.01 )">6</text><g ewd:figtype="title"><text style="&st18;" transform="matrix(&st17;  1476.47  548.6 )" ewd:textID="44">No. 31 Junction <tspan x="0 " dy="6.0">Connector</tspan></text><text style="&st18;" transform="matrix(&st17;  1469.65  548.59 )">L53</text></g></g><g ewd:figtype="conn" ewd:figID="24" ewd:code="L34"><path style="stroke-width:0.85 ;&st7;  " d=" M  1274.79,   154.76  L  1274.79,   171.76  " /><path style="stroke-width:1.42 ;&st7;  " d=" M  1266.29,   154.76  L  1283.29,   154.76  L  1283.29,   171.76  L  1266.29,   171.76  L  1266.29,   154.76  " /><text style="&st18;" transform="matrix(&st16;  1266.09  178.26 )">1</text><path style="stroke-width:1.42 ;&st7;   " d=" M  1279.32,   176.29  C  1279.32    173.79   1277.29    171.76   1274.79    171.76  " /><path style="stroke-width:1.42 ;&st7;   " d=" M  1274.79,   171.76  C  1272.28    171.76   1270.25    173.79   1270.25    176.29  " /><path style="stroke-width:1.42 ;&st7;   " d=" M  1270.25,   176.29  C  1270.25    178.79   1272.28    180.82   1274.79    180.82  " /><path style="stroke-width:1.42 ;&st7;   " d=" M  1274.79,   180.82  C  1277.29    180.82   1279.32    178.79   1279.32    176.29  " /><text style="&st18;" transform="matrix(&st16;  1272.48  178.26 )">A</text><text style="&st18;" transform="matrix(&st16;  1266.09  152.2 )">3</text><path style="stroke-width:1.42 ;&st7;   " d=" M  1279.32,   150.23  C  1279.32    147.72   1277.29    145.69   1274.79    145.69  " /><path style="stroke-width:1.42 ;&st7;   " d=" M  1274.79,   145.69  C  1272.28    145.69   1270.25    147.72   1270.25    150.23  " /><path style="stroke-width:1.42 ;&st7;   " d=" M  1270.25,   150.23  C  1270.25    152.73   1272.28    154.76   1274.79    154.76  " /><path style="stroke-width:1.42 ;&st7;   " d=" M  1274.79,   154.76  C  1277.29    154.76   1279.32    152.73   1279.32    150.23  " /><text style="&st18;" transform="matrix(&st16;  1272.48  152.2 )">A</text><g ewd:figtype="title"><text style="&st18;" transform="matrix(&st17;  1298.0  174.66 )" ewd:textID="42">No. 26 <tspan x="0 " dy="6.0">Junction Connector</tspan></text><text style="&st18;" transform="matrix(&st17;  1291.18  174.66 )">L34(A)</text></g></g><g ewd:figtype="rb" ewd:figID="27" ewd:code="FUSE51"><path style="stroke-width:1.42 ;&st7;  " d=" M  1217.42,   154.76  L  1213.17,   154.76  " /><path style="stroke-width:1.42 ;&st7;  " d=" M  1217.42,   163.26  L  1213.17,   163.26  " /><path style="stroke-width:0.85 ;&st7;  " d=" M  1215.30,   137.76  L  1215.30,   154.76  " /><path style="stroke-width:1.42 ;&st7;   " d=" M  1213.17,   154.76  C  1210.83    154.76   1208.92    156.66   1208.92    159.01  " /><path style="stroke-width:1.42 ;&st7;   " d=" M  1208.92,   159.01  C  1208.92    161.36   1210.83    163.26   1213.17    163.26  " /><path style="stroke-width:1.42 ;&st7;   " d=" M  1217.42,   163.26  C  1219.77    163.26   1221.67    161.36   1221.67    159.01  " /><path style="stroke-width:1.42 ;&st7;   " d=" M  1221.67,   159.01  C  1221.67    156.66   1219.77    154.76   1217.42    154.76  " /><path style="stroke-width:0.28 ;&st9;  " d=" M  1215.30,   149.86  L  1212.46,   147.03  L  1212.46,   151.28  L  1215.30,   154.11  L  1218.13,   151.28  L  1218.13,   147.03  L  1215.30,   149.86  " /><text style="&st18;" transform="matrix(&st16;  1166.5  115.66 )">15A <tspan x="0 " dy="6.0">TURN&amp;HAZ</tspan></text><text style="&st18;" transform="matrix(&st16;  1213.5  160.98 )">4</text><text style="&st18;" transform="matrix(&st16;  1209.11  145.96 )">2</text><text style="&st18;" transform="matrix(&st16;  1207.25  91.57 )">(BAT)</text><path style="stroke-width:0.85 ;&st7;  " d=" M  1215.30,   129.26  L  1215.30,   137.76  " /><path style="stroke-width:1.42 ;&st7;   " d=" M  1215.30,   106.60  C  1212.56    108.21   1211.65    111.74   1213.26    114.48  " /><path style="stroke-width:1.42 ;&st7;   " d=" M  1213.26,   114.48  C  1213.78    115.36   1214.41    116.00   1215.30    116.52  " /><path style="stroke-width:1.42 ;&st7;   " d=" M  1215.30,   126.43  C  1218.03    124.82   1218.95    121.29   1217.33    118.55  " /><path style="stroke-width:1.42 ;&st7;   " d=" M  1217.33,   118.55  C  1216.81    117.67   1216.18    117.04   1215.30    116.52  " /><path style="stroke-width:0.85 ;&st7;   " d=" M  1216.71,   105.18  C  1216.71    104.40   1216.08    103.77   1215.30    103.77  " /><path style="stroke-width:0.85 ;&st7;   " d=" M  1215.30,   103.77  C  1214.51    103.77   1213.88    104.40   1213.88    105.18  " /><path style="stroke-width:0.85 ;&st7;   " d=" M  1213.88,   105.18  C  1213.88    105.97   1214.51    106.60   1215.30    106.60  " /><path style="stroke-width:0.85 ;&st7;   " d=" M  1215.30,   106.60  C  1216.08    106.60   1216.71    105.97   1216.71    105.18  " /><path style="stroke-width:0.85 ;&st7;   " d=" M  1216.71,   127.85  C  1216.71    127.07   1216.08    126.43   1215.30    126.43  " /><path style="stroke-width:0.85 ;&st7;   " d=" M  1215.30,   126.43  C  1214.51    126.43   1213.88    127.07   1213.88    127.85  " /><path style="stroke-width:0.85 ;&st7;   " d=" M  1213.88,   127.85  C  1213.88    128.63   1214.51    129.26   1215.30    129.26  " /><path style="stroke-width:0.85 ;&st7;   " d=" M  1215.30,   129.26  C  1216.08    129.26   1216.71    128.63   1216.71    127.85  " /><path style="stroke-width:1.42 ;&st7;  " d=" M  1202.55,    95.27  L  1202.55,   137.76  L  1228.04,   137.76  L  1228.04,    95.27  L  1202.55,    95.27  " /></g><g ewd:figtype="conn" ewd:figID="28" ewd:code="L31"><g ewd:lineID="46"><text style="&st18;" transform="matrix(&st16;  1265.5  86.47 )">17</text><text style="&st18;" transform="matrix(&st16;  1268.49  74.58 )">HAZ</text></g><g ewd:lineID="57"><text style="&st18;" transform="matrix(&st16;  1367.48  86.47 )">11</text><text style="&st18;" transform="matrix(&st16;  1374.66  74.58 )">E</text></g></g><g ewd:figtype="conn" ewd:figID="29" ewd:code="L25,L50"><path style="stroke-width:1.42 ;&st7;  " d=" M  1070.82,   282.24  L  1070.82,   409.72  L  1325.78,   409.72  L  1325.78,   282.24  L  1070.82,   282.24  " /><path style="stroke-width:0.85 ;&st7;  " d=" M  1304.53,   333.23  L  1313.03,   333.23  " /><path style="stroke-width:0.85 ;&st7;  " d=" M  1308.78,   333.23  L  1308.78,   324.73  L  1305.95,   323.31  L  1311.61,   320.48  L  1305.95,   317.65  L  1311.61,   314.82  L  1305.95,   311.98  L  1311.61,   309.15  L  1308.78,   307.73  L  1308.78,   299.24  L  1274.79,   299.24  " /><path style="stroke-width:0.85 ;&st7;  " d=" M  1274.79,   333.23  L  1274.79,   324.73  L  1271.95,   323.31  L  1277.62,   320.48  L  1271.95,   317.65  L  1277.62,   314.82  L  1271.95,   311.98  L  1277.62,   309.15  L  1274.79,   307.73  L  1274.79,   282.24  " /><path style="stroke-width:0.85 ;&st7;  " d=" M  1307.59,   332.23  L  1307.32,   332.70  L  1307.22,   333.23  L  1307.32,   333.76  L  1307.59,   334.23  L  1308.00,   334.58  L  1308.51,   334.77  L  1309.05,   334.77  L  1309.56,   334.58  L  1309.97,   334.23  L  1310.25,   333.76  L  1310.34,   333.23  L  1310.25,   332.70  L  1309.97,   332.23  L  1309.56,   331.88  L  1309.05,   331.69  L  1308.51,   331.69  L  1308.00,   331.88  L  1307.59,   332.23  L  1307.98,   332.94  L  1307.98,   333.52  L  1308.36,   333.97  L  1308.93,   334.07  L  1309.43,   333.78  L  1309.63,   333.23  L  1309.43,   332.68  L  1308.93,   332.39  L  1308.36,   332.49  L  1308.78,   333.23  " /><path style="stroke-width:1.42 ;&st7;  " d=" M  1257.79,   333.23  L  1257.79,   350.23  L  1291.78,   350.23  L  1291.78,   333.23  L  1257.79,   333.23  " /><path style="stroke-width:0.85 ;&st7;  " d=" M  1273.59,   298.23  L  1273.32,   298.70  L  1273.23,   299.24  L  1273.32,   299.77  L  1273.59,   300.24  L  1274.01,   300.58  L  1274.51,   300.77  L  1275.06,   300.77  L  1275.57,   300.58  L  1275.98,   300.24  L  1276.25,   299.77  L  1276.34,   299.24  L  1276.25,   298.70  L  1275.98,   298.23  L  1275.57,   297.89  L  1275.06,   297.70  L  1274.51,   297.70  L  1274.01,   297.89  L  1273.59,   298.23  L  1273.99,   298.94  L  1273.99,   299.53  L  1274.36,   299.97  L  1274.93,   300.07  L  1275.44,   299.78  L  1275.64,   299.24  L  1275.44,   298.69  L  1274.93,   298.40  L  1274.36,   298.50  L  1274.79,   299.24  " /><text style="&st18;" transform="matrix(&st16;  1270.23  343.7 )">I/F</text><path style="stroke-width:0.85 ;&st7;  " d=" M  1257.79,   341.73  L  1223.80,   341.73  " /><path style="stroke-width:1.42 ;&st7;  " d=" M  1155.81,   350.23  L  1223.80,   350.23  L  1223.80,   333.23  L  1155.81,   333.23  L  1155.81,   350.23  " /><text style="&st18;" transform="matrix(&st16;  1180.13  340.87 )" ewd:textID="29">Flasher <tspan x="0 " dy="6.0">Circuit</tspan></text><path style="stroke-width:0.85 ;&st7;  " d=" M  1096.32,   282.24  L  1096.32,   324.73  L  1099.15,   326.15  L  1093.48,   328.98  L  1099.15,   331.81  L  1093.48,   334.65  L  1099.15,   337.48  L  1093.48,   340.31  L  1096.32,   341.73  L  1096.32,   367.22  L  1130.31,   367.22  " /><path style="stroke-width:0.85 ;&st7;  " d=" M  1130.31,   384.22  L  1130.31,   341.73  L  1127.48,   340.31  L  1133.14,   337.48  L  1127.48,   334.65  L  1133.14,   331.81  L  1127.48,   328.98  L  1133.14,   326.15  L  1130.31,   324.73  L  1130.31,   282.24  " /><path style="stroke-width:0.85 ;&st7;  " d=" M  1100.57,   358.73  L  1092.07,   358.73  " /><path style="stroke-width:0.85 ;&st7;  " d=" M  1109.05,   349.06  L  1101.69,   353.31  " /><path style="stroke-width:0.85 ;&st7;  " d=" M  1103.69,   356.78  L  1111.05,   352.53  " /><path style="stroke-width:0.28 ;&st9;  " d=" M  1096.32,   358.73  L  1090.65,   350.23  L  1101.98,   350.23  L  1096.32,   358.73  " /><path style="stroke-width:0.85 ;&st7;  " d=" M  1109.05,   349.06  L  1106.72,   352.10  L  1105.25,   349.56  L  1109.05,   349.06  L  1107.77,   349.80  L  1106.78,   351.09  L  1106.16,   350.01  L  1107.77,   349.80  L  1107.13,   350.17  L  1106.81,   350.58  L  1106.62,   350.24  L  1107.13,   350.17  " /><path style="stroke-width:0.85 ;&st7;  " d=" M  1111.05,   352.53  L  1108.72,   355.57  L  1107.25,   353.03  L  1111.05,   352.53  L  1109.77,   353.27  L  1108.79,   354.55  L  1108.17,   353.48  L  1109.77,   353.27  L  1109.13,   353.64  L  1108.82,   354.05  L  1108.63,   353.71  L  1109.13,   353.64  " /><path style="stroke-width:0.85 ;&st7;  " d=" M  1134.56,   358.73  L  1126.06,   358.73  " /><path style="stroke-width:0.85 ;&st7;  " d=" M  1143.04,   349.06  L  1135.68,   353.31  " /><path style="stroke-width:0.85 ;&st7;  " d=" M  1137.69,   356.78  L  1145.05,   352.53  " /><path style="stroke-width:0.28 ;&st9;  " d=" M  1130.31,   358.73  L  1124.64,   350.23  L  1135.98,   350.23  L  1130.31,   358.73  " /><path style="stroke-width:0.85 ;&st7;  " d=" M  1143.04,   349.06  L  1140.71,   352.10  L  1139.24,   349.56  L  1143.04,   349.06  L  1141.76,   349.80  L  1140.78,   351.09  L  1140.16,   350.01  L  1141.76,   349.80  L  1141.12,   350.17  L  1140.81,   350.58  L  1140.61,   350.24  L  1141.12,   350.17  " /><path style="stroke-width:0.85 ;&st7;  " d=" M  1145.05,   352.53  L  1142.71,   355.57  L  1141.25,   353.03  L  1145.05,   352.53  L  1143.76,   353.27  L  1142.78,   354.55  L  1142.16,   353.48  L  1143.76,   353.27  L  1143.12,   353.64  L  1142.81,   354.05  L  1142.62,   353.71  L  1143.12,   353.64  " /><path style="stroke-width:0.85 ;&st7;  " d=" M  1134.56,   384.22  L  1126.06,   384.22  " /><path style="stroke-width:0.85 ;&st7;  " d=" M  1164.30,   333.23  L  1164.30,   316.23  L  1130.31,   316.23  " /><path style="stroke-width:0.28 ;&st9;  " d=" M  1130.31,   384.22  L  1124.64,   375.72  L  1135.98,   375.72  L  1130.31,   384.22  " /><path style="stroke-width:0.85 ;&st7;  " d=" M  1095.12,   298.23  L  1094.85,   298.70  L  1094.76,   299.24  L  1094.85,   299.77  L  1095.12,   300.24  L  1095.54,   300.58  L  1096.04,   300.77  L  1096.59,   300.77  L  1097.10,   300.58  L  1097.51,   300.24  L  1097.78,   299.77  L  1097.87,   299.24  L  1097.78,   298.70  L  1097.51,   298.23  L  1097.10,   297.89  L  1096.59,   297.70  L  1096.04,   297.70  L  1095.54,   297.89  L  1095.12,   298.23  L  1095.52,   298.94  L  1095.52,   299.53  L  1095.89,   299.97  L  1096.46,   300.07  L  1096.97,   299.78  L  1097.17,   299.24  L  1096.97,   298.69  L  1096.46,   298.40  L  1095.89,   298.50  L  1096.32,   299.24  " /><path style="stroke-width:0.85 ;&st7;  " d=" M  1189.80,   333.23  L  1189.80,   299.24  L  1096.32,   299.24  " /><path style="stroke-width:0.85 ;&st7;  " d=" M  1130.31,   384.22  L  1130.31,   392.72  " /><path style="stroke-width:0.85 ;&st7;  " d=" M  1121.81,   392.72  L  1138.81,   392.72  " /><path style="stroke-width:0.85 ;&st7;  " d=" M  1130.31,   392.72  L  1126.06,   401.22  " /><path style="stroke-width:0.85 ;&st7;  " d=" M  1138.81,   392.72  L  1134.56,   401.22  " /><path style="stroke-width:0.85 ;&st7;  " d=" M  1121.81,   392.72  L  1117.56,   401.22  " /><text style="&st18;" transform="matrix(&st17;  1122.37  361.63 )" ewd:textID="54">Turn RH</text><path style="stroke-width:0.85 ;&st7;  " d=" M  1129.12,   315.23  L  1128.85,   315.70  L  1128.75,   316.23  L  1128.85,   316.77  L  1129.12,   317.24  L  1129.53,   317.58  L  1130.04,   317.77  L  1130.58,   317.77  L  1131.09,   317.58  L  1131.50,   317.24  L  1131.78,   316.77  L  1131.87,   316.23  L  1131.78,   315.70  L  1131.50,   315.23  L  1131.09,   314.88  L  1130.58,   314.70  L  1130.04,   314.70  L  1129.53,   314.88  L  1129.12,   315.23  L  1129.51,   315.94  L  1129.51,   316.52  L  1129.89,   316.97  L  1130.46,   317.07  L  1130.96,   316.78  L  1131.16,   316.23  L  1130.96,   315.69  L  1130.46,   315.40  L  1129.89,   315.50  L  1130.31,   316.23  " /><path style="stroke-width:0.85 ;&st7;  " d=" M  1129.12,   366.22  L  1128.85,   366.69  L  1128.75,   367.22  L  1128.85,   367.76  L  1129.12,   368.23  L  1129.53,   368.57  L  1130.04,   368.76  L  1130.58,   368.76  L  1131.09,   368.57  L  1131.50,   368.23  L  1131.78,   367.76  L  1131.87,   367.22  L  1131.78,   366.69  L  1131.50,   366.22  L  1131.09,   365.88  L  1130.58,   365.69  L  1130.04,   365.69  L  1129.53,   365.88  L  1129.12,   366.22  L  1129.51,   366.93  L  1129.51,   367.52  L  1129.89,   367.96  L  1130.46,   368.06  L  1130.96,   367.77  L  1131.16,   367.22  L  1130.96,   366.68  L  1130.46,   366.39  L  1129.89,   366.49  L  1130.31,   367.22  " /><text style="&st18;" transform="matrix(&st17;  1088.37  361.63 )" ewd:textID="53">Turn LH</text><text style="&st18;" transform="matrix(&st16;  1098.9  290.43 )">LL</text><text style="&st18;" transform="matrix(&st16;  1132.89  290.43 )">LR</text><text style="&st18;" transform="matrix(&st16;  1217.88  290.43 )">B</text><text style="&st18;" transform="matrix(&st16;  1277.37  290.43 )">HZSW</text><path style="stroke-width:0.85 ;&st7;  " d=" M  1215.30,   333.23  L  1215.30,   282.24  " /><text style="&st18;" transform="matrix(&st16;  1279.62  406.02 )">ES</text><text style="&st18;" transform="matrix(&st16;  1087.62  279.67 )">6</text><path style="stroke-width:1.42 ;&st7;   " d=" M  1100.85,   277.71  C  1100.85    275.20   1098.82    273.17   1096.32    273.17  " /><path style="stroke-width:1.42 ;&st7;   " d=" M  1096.32,   273.17  C  1093.81    273.17   1091.78    275.20   1091.78    277.71  " /><path style="stroke-width:1.42 ;&st7;   " d=" M  1091.78,   277.71  C  1091.78    280.21   1093.81    282.24   1096.32    282.24  " /><path style="stroke-width:1.42 ;&st7;   " d=" M  1096.32,   282.24  C  1098.82    282.24   1100.85    280.21   1100.85    277.71  " /><text style="&st18;" transform="matrix(&st16;  1093.9  279.67 )">C</text><text style="&st18;" transform="matrix(&st16;  1121.62  279.67 )">4</text><path style="stroke-width:1.42 ;&st7;   " d=" M  1134.84,   277.71  C  1134.84    275.20   1132.81    273.17   1130.31    273.17  " /><path style="stroke-width:1.42 ;&st7;   " d=" M  1130.31,   273.17  C  1127.81    273.17   1125.78    275.20   1125.78    277.71  " /><path style="stroke-width:1.42 ;&st7;   " d=" M  1125.78,   277.71  C  1125.78    280.21   1127.81    282.24   1130.31    282.24  " /><path style="stroke-width:1.42 ;&st7;   " d=" M  1130.31,   282.24  C  1132.81    282.24   1134.84    280.21   1134.84    277.71  " /><text style="&st18;" transform="matrix(&st16;  1127.89  279.67 )">C</text><text style="&st18;" transform="matrix(&st16;  1206.6  279.67 )">2</text><path style="stroke-width:1.42 ;&st7;   " d=" M  1219.83,   277.71  C  1219.83    275.20   1217.80    273.17   1215.30    273.17  " /><path style="stroke-width:1.42 ;&st7;   " d=" M  1215.30,   273.17  C  1212.79    273.17   1210.76    275.20   1210.76    277.71  " /><path style="stroke-width:1.42 ;&st7;   " d=" M  1210.76,   277.71  C  1210.76    280.21   1212.79    282.24   1215.30    282.24  " /><path style="stroke-width:1.42 ;&st7;   " d=" M  1215.30,   282.24  C  1217.80    282.24   1219.83    280.21   1219.83    277.71  " /><text style="&st18;" transform="matrix(&st16;  1212.88  279.67 )">C</text><text style="&st18;" transform="matrix(&st16;  1266.09  279.67 )">1</text><text style="&st18;" transform="matrix(&st16;  1272.37  279.67 )">C</text><path style="stroke-width:1.42 ;&st7;   " d=" M  1279.32,   277.71  C  1279.32    275.20   1277.29    273.17   1274.79    273.17  " /><path style="stroke-width:1.42 ;&st7;   " d=" M  1274.79,   273.17  C  1272.28    273.17   1270.25    275.20   1270.25    277.71  " /><path style="stroke-width:1.42 ;&st7;   " d=" M  1270.25,   277.71  C  1270.25    280.21   1272.28    282.24   1274.79    282.24  " /><path style="stroke-width:1.42 ;&st7;   " d=" M  1274.79,   282.24  C  1277.29    282.24   1279.32    280.21   1279.32    277.71  " /><text style="&st18;" transform="matrix(&st16;  1271.49  416.22 )">15</text><path style="stroke-width:1.42 ;&st7;   " d=" M  1287.82,   414.25  C  1287.82    411.75   1285.79    409.72   1283.29    409.72  " /><path style="stroke-width:1.42 ;&st7;   " d=" M  1283.29,   409.72  C  1280.78    409.72   1278.75    411.75   1278.75    414.25  " /><path style="stroke-width:1.42 ;&st7;   " d=" M  1278.75,   414.25  C  1278.75    416.75   1280.78    418.78   1283.29    418.78  " /><path style="stroke-width:1.42 ;&st7;   " d=" M  1283.29,   418.78  C  1285.79    418.78   1287.82    416.75   1287.82    414.25  " /><text style="&st18;" transform="matrix(&st16;  1280.98  416.22 )">A</text><g ewd:figtype="title"><text style="&st18;" transform="matrix(&st17;  1333.67  412.62 )">L25(A),L50(C)</text><text style="&st18;" transform="matrix(&st17;  1340.5  412.62 )" ewd:textID="23">Combination Meter Assembly</text></g></g><g ewd:figtype="w2w" ewd:figID="52" ewd:code="IL1"><path style="stroke-width:1.42 ;&st7;  " d=" M  1219.55,   257.31  L  1215.30,   253.06  L  1211.05,   257.31  " /><path style="stroke-width:1.42 ;&st7;  " d=" M  1219.55,   253.91  L  1215.30,   249.66  L  1211.05,   253.91  " /><text style="&st18;" transform="matrix(&st16;  1202.67  245.96 )">3</text></g><g ewd:code="AI3" ewd:figID="53" ewd:comment="17" ewd:figtype="w2w"><path style="stroke-width:1.42 ;&st7;  " d=" M  1219.55,   211.42  L  1215.30,   207.17  L  1211.05,   211.42  " /><path style="stroke-width:1.42 ;&st7;  " d=" M  1219.55,   214.82  L  1215.30,   210.57  L  1211.05,   214.82  " /><text style="&st18;" transform="matrix(&st16;  1199.56  203.47 )">44</text><g ewd:code="" ewd:figID="158" ewd:comment="17" ewd:figtype="commref"><text style="&st18;" transform="matrix(&st16;  1224.33  203.47 )">(*17)</text></g></g><g ewd:code="AI1" ewd:figID="54" ewd:comment="23,16" ewd:figtype="w2w"><text style="&st18;" transform="matrix(&st16;  1202.67  194.97 )">3</text><g ewd:code="" ewd:figID="159" ewd:comment="16,23" ewd:figtype="commref"><text style="&st18;" transform="matrix(&st16;  1224.33  194.97 )">(*16,*23)</text></g></g><g ewd:figtype="w2w" ewd:figID="55" ewd:code="IC2"><path style="stroke-width:1.42 ;&st7;  " d=" M  1245.04,   554.76  L  1240.79,   550.51  L  1236.54,   554.76  " /><path style="stroke-width:1.42 ;&st7;  " d=" M  1245.04,   551.36  L  1240.79,   547.11  L  1236.54,   551.36  " /><text style="&st18;" transform="matrix(&st16;  1228.16  543.41 )">9</text></g><g ewd:figtype="w2w" ewd:figID="56" ewd:code="AC1"><path style="stroke-width:1.42 ;&st7;  " d=" M  1287.53,   614.25  L  1283.29,   610.00  L  1279.04,   614.25  " /><path style="stroke-width:1.42 ;&st7;  " d=" M  1287.53,   610.85  L  1283.29,   606.60  L  1279.04,   610.85  " /><text style="&st18;" transform="matrix(&st16;  1270.65  602.9 )">1</text></g><g ewd:code="AI3" ewd:figID="57" ewd:comment="23" ewd:figtype="w2w"><text style="&st18;" transform="matrix(&st16;  1267.55  551.91 )">13</text><g ewd:code="" ewd:figID="178" ewd:comment="23" ewd:figtype="commref"><text style="&st18;" transform="matrix(&st16;  1292.32  551.91 )">(*23)</text></g></g><g ewd:code="AI3" ewd:figID="58" ewd:comment="17" ewd:figtype="w2w"><path style="stroke-width:1.42 ;&st7;  " d=" M  1287.53,   531.53  L  1283.29,   535.78  L  1279.04,   531.53  " /><path style="stroke-width:1.42 ;&st7;  " d=" M  1279.04,   528.13  L  1283.29,   532.38  L  1287.53,   528.13  " /><text style="&st18;" transform="matrix(&st16;  1267.55  543.41 )">45</text><g ewd:code="" ewd:figID="179" ewd:comment="17" ewd:figtype="commref"><text style="&st18;" transform="matrix(&st16;  1292.32  543.41 )">(*17)</text></g></g><g ewd:figtype="w2w" ewd:figID="59" ewd:code="IL2"><path style="stroke-width:1.42 ;&st7;  " d=" M  1279.04,   443.14  L  1283.29,   447.39  L  1287.53,   443.14  " /><path style="stroke-width:1.42 ;&st7;  " d=" M  1287.53,   446.54  L  1283.29,   450.79  L  1279.04,   446.54  " /><text style="&st18;" transform="matrix(&st16;  1270.65  458.43 )">4</text></g><g ewd:figtype="w2w" ewd:figID="60" ewd:code="CA4"><path style="stroke-width:1.42 ;&st7;  " d=" M  1330.03,   604.62  L  1334.28,   608.87  L  1338.53,   604.62  " /><path style="stroke-width:1.42 ;&st7;  " d=" M  1338.53,   608.02  L  1334.28,   612.27  L  1330.03,   608.02  " /><text style="&st18;" transform="matrix(&st16;  1318.54  619.9 )">17</text></g><g ewd:figtype="gp" ewd:figID="86" ewd:code="CA"><path style="stroke-width:0.85 ;&st7;  " d=" M  1240.79,   697.25  L  1240.79,   701.50  " /><path style="stroke-width:0.85 ;&st7;  " d=" M  1232.29,   701.50  L  1249.29,   701.50  " /><path style="stroke-width:0.85 ;&st7;  " d=" M  1236.54,   704.33  L  1245.04,   704.33  " /><path style="stroke-width:0.85 ;&st7;  " d=" M  1237.96,   707.17  L  1243.63,   707.17  " /><path style="stroke-width:0.85 ;&st7;  " d=" M  1239.38,   710.00  L  1242.21,   710.00  " /></g><g ewd:figtype="gp" ewd:figID="87" ewd:code="CC"><path style="stroke-width:0.85 ;&st7;  " d=" M  1283.29,   697.25  L  1283.29,   701.50  " /><path style="stroke-width:0.85 ;&st7;  " d=" M  1274.79,   701.50  L  1291.78,   701.50  " /><path style="stroke-width:0.85 ;&st7;  " d=" M  1279.04,   704.33  L  1287.53,   704.33  " /><path style="stroke-width:0.85 ;&st7;  " d=" M  1280.45,   707.17  L  1286.12,   707.17  " /><path style="stroke-width:0.85 ;&st7;  " d=" M  1281.87,   710.00  L  1284.70,   710.00  " /></g><g ewd:figtype="gp" ewd:figID="88" ewd:code="CE"><path style="stroke-width:0.85 ;&st7;  " d=" M  1334.28,   697.25  L  1334.28,   701.50  " /><path style="stroke-width:0.85 ;&st7;  " d=" M  1325.78,   701.50  L  1342.78,   701.50  " /><path style="stroke-width:0.85 ;&st7;  " d=" M  1330.03,   704.33  L  1338.53,   704.33  " /><path style="stroke-width:0.85 ;&st7;  " d=" M  1331.44,   707.17  L  1337.11,   707.17  " /><path style="stroke-width:0.85 ;&st7;  " d=" M  1332.86,   710.00  L  1335.69,   710.00  " /></g><g ewd:figtype="gp" ewd:figID="89" ewd:code="LA"><path style="stroke-width:0.85 ;&st7;  " d=" M  1376.77,   697.25  L  1376.77,   701.50  " /><path style="stroke-width:0.85 ;&st7;  " d=" M  1368.27,   701.50  L  1385.27,   701.50  " /><path style="stroke-width:0.85 ;&st7;  " d=" M  1372.52,   704.33  L  1381.02,   704.33  " /><path style="stroke-width:0.85 ;&st7;  " d=" M  1373.94,   707.17  L  1379.60,   707.17  " /><path style="stroke-width:0.85 ;&st7;  " d=" M  1375.35,   710.00  L  1378.19,   710.00  " /></g><g ewd:figtype="gp" ewd:figID="90" ewd:code="LB"><path style="stroke-width:0.85 ;&st7;  " d=" M  1453.26,   697.25  L  1453.26,   701.50  " /><path style="stroke-width:0.85 ;&st7;  " d=" M  1444.76,   701.50  L  1461.76,   701.50  " /><path style="stroke-width:0.85 ;&st7;  " d=" M  1449.01,   704.33  L  1457.51,   704.33  " /><path style="stroke-width:0.85 ;&st7;  " d=" M  1450.42,   707.17  L  1456.09,   707.17  " /><path style="stroke-width:0.85 ;&st7;  " d=" M  1451.84,   710.00  L  1454.67,   710.00  " /></g><g ewd:code=" " ewd:figID="35" ewd:comment="18" ewd:figtype="annex"><path style="stroke-width:1.42 ;&st7;  " d=" M  1130.31,   231.25  L  1125.25,   242.61  " /><path style="stroke-width:1.42 ;&st7;  " d=" M  1096.32,   231.25  L  1101.38,   242.61  " /><path style="stroke-width:1.42 ;&st7;  " d=" M  1130.31,   231.25  L  1135.37,   242.61  " /><path style="stroke-width:0.85 ;&st7;  " d=" M  1134.56,   227.00  L  1130.31,   222.75  L  1115.44,   222.75  L  1113.31,   218.50  L  1111.19,   222.75  L  1096.32,   222.75  L  1092.07,   227.00  " /><path style="stroke-width:1.42 ;&st7;  " d=" M  1096.32,   231.25  L  1091.26,   242.61  " /><g ewd:code="" ewd:figID="180" ewd:comment="18" ewd:figtype="commref"><text style="&st18;" transform="matrix(&st17;  1115.28  215.74 )" ewd:textID="52">Side Turn Signal Assemblies (*18)</text></g><text style="&st18;" transform="matrix(&st17;  1109.33  215.74 )" ewd:textID="35">Headlight Assemblies</text><text style="&st18;" transform="matrix(&st17;  1121.23  215.74 )" ewd:textID="47">Rear Combination Light Assemblies</text></g></svg>