<?xml version="1.0" encoding="utf-8"?>
<!DOCTYPE svg PUBLIC "-//W3C//DTD SVG 1.0//EN" "http://www.w3.org/TR/2001/REC-SVG-20010904/DTD/svg10.dtd"[
	<!ENTITY ns_flows "http://ns.adobe.com/Flows/1.0/">
	<!ENTITY ns_svg "http://www.w3.org/2000/svg">
	<!ENTITY ns_xlink "http://www.w3.org/1999/xlink">
	<!ENTITY st0 "font-size:7px;font-family:'MS-PGothic';adobe-font-script:japanese;">
	<!ENTITY st1 "font-size:6px;font-family:'ArialMT';">
	<!-- White fill  -->
	<!ENTITY st2 "fill:#FFFFFF;stroke:#000000; stroke-width:1.41;stroke-linecap:round;stroke-linejoin:round;">
	<!-- Yellow fill  -->
	<!ENTITY st3 "fill:#FFFFCC;stroke:#FFFFCC; stroke-width:0.1;stroke-linecap:round;stroke-linejoin:round;">
	<!-- Gray fill  -->
	<!ENTITY st4 "fill:#CCCCCC;stroke:#CCCCCC; stroke-width:0.1;stroke-linecap:round;stroke-linejoin:round;">
	<!-- Light-blue fill -->
	<!ENTITY st5 "fill:#CCECF4;stroke:#000000; stroke-width:1.133;stroke-linecap:round;stroke-linejoin:round;">
	<!ENTITY st6 "fill:none;stroke-linecap:butt; stroke-linejoin:round;">
	<!ENTITY st7 "fill:none;stroke:#000000;stroke-linecap:round;stroke-linejoin:round;">
	<!ENTITY st8 "enable-background:new    ;">
	<!-- Black fill -->
	<!ENTITY st9 "fill:#000000;stroke:#000000; stroke-linecap:round;stroke-linejoin:round;">
	<!-- SRS note   -->
	<!ENTITY st10 "font-size:9px;font-family:'ArialMT';">
	<!ENTITY st11 "font-size:9px;font-family:'Svg Symbol';">
	<!ENTITY st12 "font-size:6px;font-family:'Svg Symbol';">
	<!ENTITY st13 "fill:none;stroke:#ff0000;stroke-linecap:round;stroke-linejoin:round;">
	<!-- Yellow fill  -->
	<!ENTITY st14 "fill:#FFFF00;stroke:#FFFF00; stroke-width:0.1;stroke-linecap:round;stroke-linejoin:round;">
	<!ENTITY st15 "font-size:6px;font-family:'MS-PGothic';adobe-font-script:japanese;">
	<!ENTITY st16 "1.00 0.00 0.00 1.00">
	<!ENTITY st17 "0.00 -1.00 1.00 0.00">
	<!ENTITY st18 "font-size:6px;font-family:'Arial';">
	<!ENTITY st19 "font-size:9px;font-family:'Arial';">
	<!ENTITY st20 "font-size:6px;font-family:'MS-PGothic','MS PGothic';adobe-font-script:japanese;">
	<!ENTITY st21 "font-size:7px;font-family:'MS-PGothic','MS PGothic';adobe-font-script:japanese;">
	<!ATTLIST svg
		xmlns:ewd CDATA #FIXED "http://shcl.co.jp/ewd"
		xmlns:a CDATA #FIXED "http://ns.adobe.com/AdobeSVGViewerExtensions/3.0/"
		ewd:ver CDATA #IMPLIED
	>
	<!ATTLIST a
		ewd:lineID CDATA #IMPLIED
		ewd:groupID CDATA #IMPLIED
		ewd:figtype CDATA #IMPLIED
		ewd:code CDATA #IMPLIED
		ewd:figID CDATA #IMPLIED
		ewd:pinNo CDATA #IMPLIED
		ewd:comment CDATA #IMPLIED >
	<!ATTLIST g
		ewd:lineID CDATA #IMPLIED
		ewd:groupID CDATA #IMPLIED
		ewd:figtype CDATA #IMPLIED
		ewd:code CDATA #IMPLIED
		ewd:figID CDATA #IMPLIED
		ewd:pinNo CDATA #IMPLIED
		ewd:comment CDATA #IMPLIED >
	<!ATTLIST text
		ewd:textID CDATA #IMPLIED >
	<!ATTLIST title
		ewd:textID CDATA #IMPLIED >
]>
<!-- Generator: Shintec Hozumi YS   -->
<svg onload="call_execInitLoadProc_svg('system')" style="overflow:visible;  enable-background:new 0 0 3601.076 710.000" viewBox="0 0 3601.076 710.000" height="710.000" width="3601.076" xml:space="preserve" ewd:ver="2.1.2.9" xmlns="&ns_svg;" xmlns:a="http://ns.adobe.com/AdobeSVGViewerExtensions/3.0/" xmlns:ewd="http://shcl.co.jp/ewd" xmlns:xlink="&ns_xlink;">
<path style="stroke-width:1.42 ;&st7;  " d=" M  3348.44,   426.71  L  3339.94,   426.71  " /><path style="stroke-width:1.42 ;&st7;  " d=" M  3288.95,   477.71  L  3280.45,   477.71  " /><path style="stroke-width:1.42 ;&st7;  " d=" M  3331.44,   239.75  L  3339.94,   239.75  " /><path style="stroke-width:1.42 ;&st7;  " d=" M  3271.95,   239.75  L  3280.45,   239.75  " /><path style="stroke-width:1.42 ;&st7;  " d=" M  3399.43,   537.20  L  3399.43,   541.44  " /><path style="stroke-width:1.42 ;&st7;  " d=" M  3399.43,   180.26  L  3399.43,   184.50  " /><path style="stroke-width:1.42 ;&st7;  " d=" M  3348.44,   477.71  L  3339.94,   477.71  " /><path style="stroke-width:1.42 ;&st7;  " d=" M  3331.44,   282.24  L  3339.94,   282.24  " /><path style="stroke-width:1.42 ;&st7;  " d=" M  3450.42,   239.75  L  3458.92,   239.75  " /><path style="stroke-width:1.42 ;&st7;  " d=" M  3467.42,   426.71  L  3458.92,   426.71  " /><path style="stroke-width:1.42 ;&st7;  " d=" M  3467.42,   120.77  L  3458.92,   120.77  " /><path style="stroke-width:1.42 ;&st7;  " d=" M  3212.46,   120.77  L  3203.96,   120.77  " /><text style="&st18;" transform="matrix(&st17;  3455.23  148.73 )">W</text><text style="&st18;" transform="matrix(&st17;  3455.23  101.98 )">W</text><text style="&st18;" transform="matrix(&st17;  3200.27  104.62 )">B-R</text><text style="&st18;" transform="matrix(&st16;  3431.24  575.99 )">B</text><text style="&st18;" transform="matrix(&st16;  3427.83  592.99 )">B-R</text><text style="&st18;" transform="matrix(&st17;  3276.76  208.22 )">W</text><text style="&st18;" transform="matrix(&st17;  3336.25  208.22 )">W</text><text style="&st18;" transform="matrix(&st17;  3455.23  208.22 )">W</text><text style="&st18;" transform="matrix(&st17;  3276.76  326.32 )">L-W</text><text style="&st18;" transform="matrix(&st17;  3336.25  322.95 )">W</text><text style="&st18;" transform="matrix(&st17;  3455.23  322.95 )">W</text><text style="&st18;" transform="matrix(&st17;  3276.76  406.28 )">L-B</text><text style="&st18;" transform="matrix(&st17;  3336.25  402.91 )">B</text><text style="&st18;" transform="matrix(&st17;  3455.23  402.91 )">B</text><text style="&st18;" transform="matrix(&st17;  3276.76  513.39 )">B</text><text style="&st18;" transform="matrix(&st17;  3336.25  458.15 )">B</text><text style="&st18;" transform="matrix(&st17;  3455.23  458.15 )">B</text><text style="&st18;" transform="matrix(&st16;  3359.0  533.5 )">B</text><text style="&st18;" transform="matrix(&st16;  3431.24  533.5 )">B</text><text style="&st18;" transform="matrix(&st16;  3430.46  176.56 )">W</text><text style="&st18;" transform="matrix(&st16;  3477.2  176.56 )">W</text><text style="&st18;" transform="matrix(&st16;  3358.22  176.56 )">W</text><text style="&st18;" transform="matrix(&st16;  3477.98  533.5 )">B</text><text style="&st18;" transform="matrix(&st17;  3336.25  263.46 )">W</text><text style="&st18;" transform="matrix(&st17;  3336.25  513.39 )">B</text><text style="&st18;" transform="matrix(&st16;  3355.98  187.89 )">(*6)</text><text style="&st18;" transform="matrix(&st16;  3355.98  544.83 )">(*6)</text><text style="&st18;" transform="matrix(&st17;  3288.09  210.46 )">(*6)</text><text style="&st18;" transform="matrix(&st17;  3288.09  325.2 )">(*1)</text><text style="&st18;" transform="matrix(&st17;  3288.09  405.93 )">(*1)</text><text style="&st18;" transform="matrix(&st17;  3288.09  516.41 )">(*6)</text><text style="&st18;" transform="matrix(&st17;  3347.58  210.46 )">(*6)</text><text style="&st18;" transform="matrix(&st17;  3347.58  265.71 )">(*8)</text><text style="&st18;" transform="matrix(&st17;  3347.58  325.2 )">(*8)</text><text style="&st18;" transform="matrix(&st17;  3347.58  405.93 )">(*8)</text><text style="&st18;" transform="matrix(&st17;  3347.58  461.17 )">(*8)</text><text style="&st18;" transform="matrix(&st17;  3347.58  516.41 )">(*6)</text><text style="&st18;" transform="matrix(&st17;  3378.74  208.22 )">W</text><text style="&st18;" transform="matrix(&st17;  3390.07  210.46 )">(*7)</text><text style="&st18;" transform="matrix(&st17;  3378.74  513.39 )">B</text><text style="&st18;" transform="matrix(&st17;  3390.07  516.41 )">(*7)</text><text style="&st18;" transform="matrix(&st16;  3082.02  134.07 )">W</text><text style="&st18;" transform="matrix(&st16;  3133.01  134.07 )">W</text><text style="&st18;" transform="matrix(&st16;  3404.97  134.07 )">W</text><text style="&st18;" transform="matrix(&st16;  3359.0  151.06 )">B</text><text style="&st18;" transform="matrix(&st16;  3355.98  162.39 )">(*5)</text><text style="&st18;" transform="matrix(&st16;  3200.56  57.58 )" ewd:textID="27">Door Control ECU with Receiver Assembly</text><text style="&st18;" transform="matrix(&st16;  3200.55  50.75 )">L31</text><text style="&st18;" transform="matrix(&st16;  3474.96  187.89 )">(*1)</text><text style="&st18;" transform="matrix(&st16;  3428.21  187.89 )">(*9)</text><text style="&st18;" transform="matrix(&st16;  3428.21  544.83 )">(*9)</text><text style="&st18;" transform="matrix(&st16;  3474.96  544.83 )">(*1)</text><text style="&st18;" transform="matrix(&st17;  3200.27  210.85 )">B-R</text><text style="&st18;" transform="matrix(&st16;  3359.0  558.99 )">B</text><text style="&st18;" transform="matrix(&st16;  3355.98  570.33 )">(*5)</text><text style="&st18;" transform="matrix(&st16;  3133.79  151.06 )">B</text><text style="&st18;" transform="matrix(&st16;  3082.8  151.06 )">B</text><path style="stroke-width:1.42 ;&st7;  " d=" M  3467.42,   176.73  L  3462.45,   171.76  " /><path style="stroke-width:1.42 ;&st7;  " d=" M  3450.42,   183.78  L  3455.40,   188.75  " /><path style="stroke-width:1.42 ;&st7;  " d=" M  3462.45,   188.75  L  3467.42,   183.78  " /><path style="stroke-width:1.42 ;&st7;  " d=" M  3455.40,   171.76  L  3450.42,   176.73  " /><path style="stroke-width:1.42 ;&st7;  " d=" M  3348.44,   176.73  L  3343.47,   171.76  " /><path style="stroke-width:1.42 ;&st7;  " d=" M  3331.44,   183.78  L  3336.42,   188.75  " /><path style="stroke-width:1.42 ;&st7;  " d=" M  3343.47,   188.75  L  3348.44,   183.78  " /><path style="stroke-width:1.42 ;&st7;  " d=" M  3336.42,   171.76  L  3331.44,   176.73  " /><path style="stroke-width:1.42 ;&st7;  " d=" M  3467.42,   533.67  L  3462.45,   528.70  " /><path style="stroke-width:1.42 ;&st7;  " d=" M  3450.42,   540.73  L  3455.40,   545.69  " /><path style="stroke-width:1.42 ;&st7;  " d=" M  3462.45,   545.69  L  3467.42,   540.73  " /><path style="stroke-width:1.42 ;&st7;  " d=" M  3455.40,   528.70  L  3450.42,   533.67  " /><path style="stroke-width:1.42 ;&st7;  " d=" M  3348.44,   533.67  L  3343.47,   528.70  " /><path style="stroke-width:1.42 ;&st7;  " d=" M  3331.44,   540.73  L  3336.42,   545.69  " /><path style="stroke-width:1.42 ;&st7;  " d=" M  3343.47,   545.69  L  3348.44,   540.73  " /><path style="stroke-width:1.42 ;&st7;  " d=" M  3336.42,   528.70  L  3331.44,   533.67  " /><g ewd:figtype="conn" ewd:figID="12" ewd:code="L31"><g ewd:lineID="116"><text style="&st18;" transform="matrix(&st16;  3449.64  86.47 )">10</text><text style="&st18;" transform="matrix(&st16;  3450.96  74.58 )">ACT-</text></g><g ewd:lineID="92"><text style="&st18;" transform="matrix(&st16;  3194.68  86.47 )">20</text><text style="&st18;" transform="matrix(&st16;  3196.0  74.58 )">ACT+</text></g></g><g ewd:figtype="conn" ewd:figID="25" ewd:code="R2"><path style="stroke-width:1.42 ;&st7;  " d=" M  3284.70,   347.39  L  3284.70,   351.36  " /><path style="stroke-width:1.42 ;&st7;  " d=" M  3276.20,   351.36  L  3276.20,   347.39  " /><path style="stroke-width:1.42 ;&st7;  " d=" M  3276.20,   347.39  L  3284.70,   347.39  " /><path style="stroke-width:1.42 ;&st7;  " d=" M  3284.70,   370.06  L  3284.70,   366.09  " /><path style="stroke-width:1.42 ;&st7;  " d=" M  3276.20,   366.09  L  3276.20,   370.06  " /><path style="stroke-width:1.42 ;&st7;  " d=" M  3276.20,   370.06  L  3284.70,   370.06  " /><path style="stroke-width:1.42 ;&st7;   " d=" M  3288.95,   358.73  C  3288.95    354.03   3285.15    350.23   3280.45    350.23  " /><path style="stroke-width:1.42 ;&st7;   " d=" M  3280.45,   350.23  C  3275.76    350.23   3271.95    354.03   3271.95    358.73  " /><path style="stroke-width:1.42 ;&st7;   " d=" M  3271.95,   358.73  C  3271.95    363.42   3275.76    367.22   3280.45    367.22  " /><path style="stroke-width:1.42 ;&st7;   " d=" M  3280.45,   367.22  C  3285.15    367.22   3288.95    363.42   3288.95    358.73  " /><text style="&st18;" transform="matrix(&st16;  3277.72  360.69 )">M</text><text style="&st18;" transform="matrix(&st16;  3274.27  378.25 )">2</text><text style="&st18;" transform="matrix(&st16;  3274.27  343.7 )">1</text><g ewd:figtype="title"><text style="&st18;" transform="matrix(&st17;  3296.84  370.12 )">R2</text><text style="&st18;" transform="matrix(&st17;  3303.67  370.13 )" ewd:textID="52">Rear Door <tspan x="0 " dy="6.0">Lock Actuator </tspan><tspan x="0 " dy="6.0">Assembly RH</tspan></text></g></g><g ewd:figtype="conn" ewd:figID="26" ewd:code="b1"><path style="stroke-width:1.42 ;&st7;  " d=" M  3344.19,   347.39  L  3344.19,   351.36  " /><path style="stroke-width:1.42 ;&st7;  " d=" M  3335.69,   351.36  L  3335.69,   347.39  " /><path style="stroke-width:1.42 ;&st7;  " d=" M  3335.69,   347.39  L  3344.19,   347.39  " /><path style="stroke-width:1.42 ;&st7;  " d=" M  3344.19,   370.06  L  3344.19,   366.09  " /><path style="stroke-width:1.42 ;&st7;  " d=" M  3335.69,   366.09  L  3335.69,   370.06  " /><path style="stroke-width:1.42 ;&st7;  " d=" M  3335.69,   370.06  L  3344.19,   370.06  " /><path style="stroke-width:1.42 ;&st7;   " d=" M  3348.44,   358.73  C  3348.44    354.03   3344.64    350.23   3339.94    350.23  " /><path style="stroke-width:1.42 ;&st7;   " d=" M  3339.94,   350.23  C  3335.25    350.23   3331.44    354.03   3331.44    358.73  " /><path style="stroke-width:1.42 ;&st7;   " d=" M  3331.44,   358.73  C  3331.44    363.42   3335.25    367.22   3339.94    367.22  " /><path style="stroke-width:1.42 ;&st7;   " d=" M  3339.94,   367.22  C  3344.64    367.22   3348.44    363.42   3348.44    358.73  " /><text style="&st18;" transform="matrix(&st16;  3337.21  360.69 )">M</text><text style="&st18;" transform="matrix(&st16;  3333.76  378.25 )">2</text><text style="&st18;" transform="matrix(&st16;  3333.76  343.7 )">1</text><g ewd:figtype="title"><text style="&st18;" transform="matrix(&st17;  3363.16  370.13 )" ewd:textID="24">Back Door <tspan x="0 " dy="6.0">Lock Assembly</tspan></text><text style="&st18;" transform="matrix(&st17;  3356.33  370.12 )">b1</text></g></g><g ewd:figtype="conn" ewd:figID="27" ewd:code="P3"><path style="stroke-width:1.42 ;&st7;  " d=" M  3463.17,   347.39  L  3463.17,   351.36  " /><path style="stroke-width:1.42 ;&st7;  " d=" M  3454.67,   351.36  L  3454.67,   347.39  " /><path style="stroke-width:1.42 ;&st7;  " d=" M  3454.67,   347.39  L  3463.17,   347.39  " /><path style="stroke-width:1.42 ;&st7;  " d=" M  3463.17,   370.06  L  3463.17,   366.09  " /><path style="stroke-width:1.42 ;&st7;  " d=" M  3454.67,   366.09  L  3454.67,   370.06  " /><path style="stroke-width:1.42 ;&st7;  " d=" M  3454.67,   370.06  L  3463.17,   370.06  " /><path style="stroke-width:1.42 ;&st7;   " d=" M  3467.42,   358.73  C  3467.42    354.03   3463.62    350.23   3458.92    350.23  " /><path style="stroke-width:1.42 ;&st7;   " d=" M  3458.92,   350.23  C  3454.23    350.23   3450.42    354.03   3450.42    358.73  " /><path style="stroke-width:1.42 ;&st7;   " d=" M  3450.42,   358.73  C  3450.42    363.42   3454.23    367.22   3458.92    367.22  " /><path style="stroke-width:1.42 ;&st7;   " d=" M  3458.92,   367.22  C  3463.62    367.22   3467.42    363.42   3467.42    358.73  " /><text style="&st18;" transform="matrix(&st16;  3456.19  360.69 )">M</text><text style="&st18;" transform="matrix(&st16;  3452.74  378.25 )">2</text><text style="&st18;" transform="matrix(&st16;  3452.74  343.7 )">1</text><g ewd:figtype="title"><text style="&st18;" transform="matrix(&st17;  3482.14  370.13 )" ewd:textID="34">Front Door <tspan x="0 " dy="6.0">Lock Actuator </tspan><tspan x="0 " dy="6.0">Assembly LH</tspan></text><text style="&st18;" transform="matrix(&st17;  3475.31  370.12 )">P3</text></g></g><g ewd:figtype="w2w" ewd:figID="63" ewd:code="LI1"><path style="stroke-width:1.42 ;&st7;  " d=" M  3208.21,   129.83  L  3203.96,   125.58  L  3199.71,   129.83  " /><path style="stroke-width:1.42 ;&st7;  " d=" M  3208.21,   126.43  L  3203.96,   122.18  L  3199.71,   126.43  " /><text style="&st18;" transform="matrix(&st16;  3191.33  118.49 )">1</text></g><g ewd:figtype="w2w" ewd:figID="64" ewd:code="RS1"><path style="stroke-width:1.42 ;&st7;  " d=" M  3284.70,   483.37  L  3280.45,   479.12  L  3276.20,   483.37  " /><path style="stroke-width:1.42 ;&st7;  " d=" M  3284.70,   486.77  L  3280.45,   482.52  L  3276.20,   486.77  " /><text style="&st18;" transform="matrix(&st16;  3267.82  475.43 )">2</text></g><g ewd:figtype="w2w" ewd:figID="65" ewd:code="RS1"><path style="stroke-width:1.42 ;&st7;  " d=" M  3284.70,   234.08  L  3280.45,   238.33  L  3276.20,   234.08  " /><path style="stroke-width:1.42 ;&st7;  " d=" M  3276.20,   230.68  L  3280.45,   234.93  L  3284.70,   230.68  " /><text style="&st18;" transform="matrix(&st16;  3267.82  245.96 )">1</text></g><g ewd:figtype="w2w" ewd:figID="66" ewd:code="TS1"><path style="stroke-width:1.42 ;&st7;  " d=" M  3344.19,   486.77  L  3339.94,   482.52  L  3335.69,   486.77  " /><path style="stroke-width:1.42 ;&st7;  " d=" M  3344.19,   483.37  L  3339.94,   479.12  L  3335.69,   483.37  " /><text style="&st18;" transform="matrix(&st16;  3327.31  475.43 )">2</text></g><g ewd:figtype="w2w" ewd:figID="67" ewd:code="bT2"><path style="stroke-width:1.42 ;&st7;  " d=" M  3344.19,   432.38  L  3339.94,   428.13  L  3335.69,   432.38  " /><path style="stroke-width:1.42 ;&st7;  " d=" M  3344.19,   435.78  L  3339.94,   431.53  L  3335.69,   435.78  " /><text style="&st18;" transform="matrix(&st16;  3327.31  424.43 )">1</text></g><g ewd:figtype="w2w" ewd:figID="68" ewd:code="bT2"><path style="stroke-width:1.42 ;&st7;  " d=" M  3335.69,   273.17  L  3339.94,   277.42  L  3344.19,   273.17  " /><path style="stroke-width:1.42 ;&st7;  " d=" M  3344.19,   276.57  L  3339.94,   280.82  L  3335.69,   276.57  " /><text style="&st18;" transform="matrix(&st16;  3327.31  288.46 )">3</text></g><g ewd:figtype="w2w" ewd:figID="69" ewd:code="TS1"><path style="stroke-width:1.42 ;&st7;  " d=" M  3344.19,   234.08  L  3339.94,   238.33  L  3335.69,   234.08  " /><path style="stroke-width:1.42 ;&st7;  " d=" M  3335.69,   230.68  L  3339.94,   234.93  L  3344.19,   230.68  " /><text style="&st18;" transform="matrix(&st16;  3327.31  245.96 )">1</text></g><g ewd:figtype="w2w" ewd:figID="70" ewd:code="IS3"><path style="stroke-width:1.42 ;&st7;  " d=" M  3393.76,   532.95  L  3398.01,   537.20  L  3393.76,   541.44  " /><path style="stroke-width:1.42 ;&st7;  " d=" M  3390.37,   532.95  L  3394.61,   537.20  L  3390.37,   541.44  " /><text style="&st18;" transform="matrix(&st16;  3404.58  529.96 )">14</text></g><g ewd:figtype="w2w" ewd:figID="71" ewd:code="IS3"><path style="stroke-width:1.42 ;&st7;  " d=" M  3393.76,   176.01  L  3398.01,   180.26  L  3393.76,   184.50  " /><path style="stroke-width:1.42 ;&st7;  " d=" M  3390.37,   176.01  L  3394.61,   180.26  L  3390.37,   184.50  " /><text style="&st18;" transform="matrix(&st16;  3404.58  173.02 )">15</text></g><g ewd:figtype="w2w" ewd:figID="72" ewd:code="PI2"><path style="stroke-width:1.42 ;&st7;  " d=" M  3463.17,   435.78  L  3458.92,   431.53  L  3454.67,   435.78  " /><path style="stroke-width:1.42 ;&st7;  " d=" M  3463.17,   432.38  L  3458.92,   428.13  L  3454.67,   432.38  " /><text style="&st18;" transform="matrix(&st16;  3446.29  424.43 )">7</text></g><g ewd:figtype="w2w" ewd:figID="73" ewd:code="PI2"><path style="stroke-width:1.42 ;&st7;  " d=" M  3463.17,   234.08  L  3458.92,   238.33  L  3454.67,   234.08  " /><path style="stroke-width:1.42 ;&st7;  " d=" M  3454.67,   230.68  L  3458.92,   234.93  L  3463.17,   230.68  " /><text style="&st18;" transform="matrix(&st16;  3446.29  245.96 )">6</text></g><g ewd:figtype="w2w" ewd:figID="74" ewd:code="LI1"><path style="stroke-width:1.42 ;&st7;  " d=" M  3463.17,   129.83  L  3458.92,   125.58  L  3454.67,   129.83  " /><path style="stroke-width:1.42 ;&st7;  " d=" M  3463.17,   126.43  L  3458.92,   122.18  L  3454.67,   126.43  " /><text style="&st18;" transform="matrix(&st16;  3443.19  118.49 )">15</text></g><g ewd:code="UI4" ewd:figID="75" ewd:comment="25" ewd:figtype="w2w"><text style="&st18;" transform="matrix(&st16;  3508.11  529.96 )">1</text><path style="stroke-width:1.42 ;&st7;  " d=" M  3495.75,   532.95  L  3500.00,   537.20  L  3495.75,   541.44  " /><path style="stroke-width:1.42 ;&st7;  " d=" M  3492.35,   532.95  L  3496.60,   537.20  L  3492.35,   541.44  " /><g ewd:code="" ewd:figID="170" ewd:comment="25" ewd:figtype="commref"><text style="&st18;" transform="matrix(&st16;  3503.15  548.37 )">(*25)</text></g></g><g ewd:code="UI4" ewd:figID="76" ewd:comment="25" ewd:figtype="w2w"><text style="&st18;" transform="matrix(&st16;  3508.11  173.02 )">6</text><path style="stroke-width:1.42 ;&st7;  " d=" M  3495.75,   176.01  L  3500.00,   180.26  L  3495.75,   184.50  " /><path style="stroke-width:1.42 ;&st7;  " d=" M  3492.35,   176.01  L  3496.60,   180.26  L  3492.35,   184.50  " /><g ewd:code="" ewd:figID="168" ewd:comment="25" ewd:figtype="commref"><text style="&st18;" transform="matrix(&st16;  3503.15  191.43 )">(*25)</text></g></g><g ewd:code="26" ewd:figID="173" ewd:comment="" ewd:figtype="comment"><text style="&st18;" transform="matrix(&st16;  3260.05  683.64 )" ewd:textID="22">*26 :From Jan. 2017 Production</text></g><g ewd:code="9" ewd:figID="125" ewd:comment="" ewd:figtype="comment"><text style="&st18;" transform="matrix(&st16;  3260.05  666.64 )" ewd:textID="9">* 9 :Except 2-Door Pick-Up Body Type</text></g><g ewd:code="5" ewd:figID="118" ewd:comment="" ewd:figtype="comment"><text style="&st18;" transform="matrix(&st16;  3260.05  632.65 )" ewd:textID="5">* 5 :4-Door Pick-Up Body Type</text></g><g ewd:code="25" ewd:figID="172" ewd:comment="" ewd:figtype="comment"><text style="&st18;" transform="matrix(&st16;  3260.05  675.14 )" ewd:textID="21">*25 :Before Jan. 2017 Production</text></g><g ewd:code="7" ewd:figID="120" ewd:comment="" ewd:figtype="comment"><text style="&st18;" transform="matrix(&st16;  3260.05  649.65 )" ewd:textID="7">* 7 :2-Door Except Pick-Up Body Type</text></g><g ewd:code="6" ewd:figID="119" ewd:comment="" ewd:figtype="comment"><text style="&st18;" transform="matrix(&st16;  3260.05  641.15 )" ewd:textID="6">* 6 :4-Door Except Pick-Up Body Type</text></g><g ewd:code="1" ewd:figID="117" ewd:comment="" ewd:figtype="comment"><text style="&st18;" transform="matrix(&st16;  3260.05  624.15 )" ewd:textID="1">* 1 :4-Door</text></g><g ewd:code="8" ewd:figID="121" ewd:comment="" ewd:figtype="comment"><text style="&st18;" transform="matrix(&st16;  3260.05  658.14 )" ewd:textID="8">* 8 :Except Pick-Up Body Type</text></g></svg>