<?xml version="1.0" encoding="utf-8"?>
<!DOCTYPE svg PUBLIC "-//W3C//DTD SVG 1.0//EN" "http://www.w3.org/TR/2001/REC-SVG-20010904/DTD/svg10.dtd"[
	<!ENTITY ns_flows "http://ns.adobe.com/Flows/1.0/">
	<!ENTITY ns_svg "http://www.w3.org/2000/svg">
	<!ENTITY ns_xlink "http://www.w3.org/1999/xlink">
	<!ENTITY st0 "font-size:7px;font-family:'MS-PGothic';adobe-font-script:japanese;">
	<!ENTITY st1 "font-size:6px;font-family:'ArialMT';">
	<!-- White fill  -->
	<!ENTITY st2 "fill:#FFFFFF;stroke:#000000; stroke-width:1.41;stroke-linecap:round;stroke-linejoin:round;">
	<!-- Yellow fill  -->
	<!ENTITY st3 "fill:#FFFFCC;stroke:#FFFFCC; stroke-width:0.1;stroke-linecap:round;stroke-linejoin:round;">
	<!-- Gray fill  -->
	<!ENTITY st4 "fill:#CCCCCC;stroke:#CCCCCC; stroke-width:0.1;stroke-linecap:round;stroke-linejoin:round;">
	<!-- Light-blue fill -->
	<!ENTITY st5 "fill:#CCECF4;stroke:#000000; stroke-width:1.133;stroke-linecap:round;stroke-linejoin:round;">
	<!ENTITY st6 "fill:none;stroke-linecap:butt; stroke-linejoin:round;">
	<!ENTITY st7 "fill:none;stroke:#000000;stroke-linecap:round;stroke-linejoin:round;">
	<!ENTITY st8 "enable-background:new    ;">
	<!-- Black fill -->
	<!ENTITY st9 "fill:#000000;stroke:#000000; stroke-linecap:round;stroke-linejoin:round;">
	<!-- SRS note   -->
	<!ENTITY st10 "font-size:9px;font-family:'ArialMT';">
	<!ENTITY st11 "font-size:9px;font-family:'Svg Symbol';">
	<!ENTITY st12 "font-size:6px;font-family:'Svg Symbol';">
	<!ENTITY st13 "fill:none;stroke:#ff0000;stroke-linecap:round;stroke-linejoin:round;">
	<!-- Yellow fill  -->
	<!ENTITY st14 "fill:#FFFF00;stroke:#FFFF00; stroke-width:0.1;stroke-linecap:round;stroke-linejoin:round;">
	<!ENTITY st15 "font-size:6px;font-family:'MS-PGothic';adobe-font-script:japanese;">
	<!ENTITY st16 "1.00 0.00 0.00 1.00">
	<!ENTITY st17 "0.00 -1.00 1.00 0.00">
	<!ENTITY st18 "font-size:6px;font-family:'Arial';">
	<!ENTITY st19 "font-size:9px;font-family:'Arial';">
	<!ENTITY st20 "font-size:6px;font-family:'MS-PGothic','MS PGothic';adobe-font-script:japanese;">
	<!ENTITY st21 "font-size:7px;font-family:'MS-PGothic','MS PGothic';adobe-font-script:japanese;">
	<!ATTLIST svg
		xmlns:ewd CDATA #FIXED "http://shcl.co.jp/ewd"
		xmlns:a CDATA #FIXED "http://ns.adobe.com/AdobeSVGViewerExtensions/3.0/"
		ewd:ver CDATA #IMPLIED
	>
	<!ATTLIST a
		ewd:lineID CDATA #IMPLIED
		ewd:groupID CDATA #IMPLIED
		ewd:figtype CDATA #IMPLIED
		ewd:code CDATA #IMPLIED
		ewd:figID CDATA #IMPLIED
		ewd:pinNo CDATA #IMPLIED
		ewd:comment CDATA #IMPLIED >
	<!ATTLIST g
		ewd:lineID CDATA #IMPLIED
		ewd:groupID CDATA #IMPLIED
		ewd:figtype CDATA #IMPLIED
		ewd:code CDATA #IMPLIED
		ewd:figID CDATA #IMPLIED
		ewd:pinNo CDATA #IMPLIED
		ewd:comment CDATA #IMPLIED >
	<!ATTLIST text
		ewd:textID CDATA #IMPLIED >
	<!ATTLIST title
		ewd:textID CDATA #IMPLIED >
]>
<!-- Generator: Shintec Hozumi YS   -->
<svg onload="call_execInitLoadProc_svg('system')" style="overflow:visible;  enable-background:new 0 0 1551.532 710.000" viewBox="0 0 1551.532 710.000" height="710.000" width="1551.532" xml:space="preserve" ewd:ver="2.1.2.9" xmlns="&ns_svg;" xmlns:a="http://ns.adobe.com/AdobeSVGViewerExtensions/3.0/" xmlns:ewd="http://shcl.co.jp/ewd" xmlns:xlink="&ns_xlink;"><script type="text/javascript" xlink:href="../../../../../system/js/ewd/fig/svgfig.js" xmlns:xlink="http://www.w3.org/1999/xlink" />
<g id="ewd_top"><a ewd:figtype="rb" style="cursor:pointer;" ewd:code="FUSE2" ewd:figID="1"><path style="fill:#CCECF4;stroke:#000000; stroke-width:0; stroke-linecap:round;stroke-linejoin:round; " d=" M    55.24,    35.78  L    55.24,    78.27  L    80.74,    78.27  L    80.74,    35.78  L    55.24,    35.78 " /></a><a ewd:figtype="conn" style="cursor:pointer;" ewd:code="I54" ewd:figID="2"><path style="fill:#CCECF4;stroke:#000000; stroke-width:1.133; stroke-linecap:round;stroke-linejoin:round; " d=" M   101.98,   486.20  L   118.98,   486.20  L   118.98,   503.20  L   101.98,   503.20  L   101.98,   486.20 " /><title ewd:textID="18">No. 5 Junction Connector</title></a><a ewd:figtype="conn" style="cursor:pointer;" ewd:code="I59,I70" ewd:figID="3"><path style="fill:#CCECF4;stroke:#000000; stroke-width:1.133; stroke-linecap:round;stroke-linejoin:round; " d=" M   900.85,   341.73  L   917.85,   341.73  L   917.85,   358.73  L   900.85,   358.73  L   900.85,   341.73 " /><title ewd:textID="21">No. 10 Junction Connector , No. 19 Junction Connector</title></a><a ewd:figtype="conn" style="cursor:pointer;" ewd:code="A24" ewd:figID="4"><path style="fill:#CCECF4;stroke:#000000; stroke-width:1.133; stroke-linecap:round;stroke-linejoin:round; " d=" M  1368.27,   163.26  L  1368.27,   188.75  L  1521.25,   188.75  L  1521.25,   163.26  L  1368.27,   163.26 " /><title ewd:textID="17">No. 3 CAN Junction Connector</title></a><a ewd:figtype="conn" style="cursor:pointer;" ewd:code="I17" ewd:figID="5"><path style="fill:#CCECF4;stroke:#000000; stroke-width:1.133; stroke-linecap:round;stroke-linejoin:round; " d=" M    50.99,   273.74  L  1002.83,   273.74  L  1002.83,   231.25  L    50.99,   231.25  L    50.99,   273.74 " /><title>DLC3</title></a><a ewd:figtype="conn" style="cursor:pointer;" ewd:code="L30" ewd:figID="6"><path style="fill:#CCECF4;stroke:#000000; stroke-width:1.133; stroke-linecap:round;stroke-linejoin:round; " d=" M   373.94,   596.69  L   373.94,   562.69  L   407.93,   562.69  L   407.93,   596.69  L   373.94,   596.69 " /><title ewd:textID="28">Transponder Key ECU Assembly</title></a><a ewd:figtype="conn" style="cursor:pointer;" ewd:code="I61,I72" ewd:figID="7"><path style="fill:#CCECF4;stroke:#000000; stroke-width:1.133; stroke-linecap:round;stroke-linejoin:round; " d=" M   382.44,   401.22  L   458.92,   401.22  L   458.92,   384.22  L   382.44,   384.22  L   382.44,   401.22 " /><title ewd:textID="23">No. 11 Junction Connector , No. 21 Junction Connector</title></a><a ewd:figtype="conn" style="cursor:pointer;" ewd:code="I68,I75" ewd:figID="8"><path style="fill:#CCECF4;stroke:#000000; stroke-width:1.133; stroke-linecap:round;stroke-linejoin:round; " d=" M   577.90,   435.21  L   577.90,   452.21  L   688.38,   452.21  L   688.38,   435.21  L   577.90,   435.21 " /><title ewd:textID="24">No. 17 Junction Connector</title></a><a ewd:figtype="conn" style="cursor:pointer;" ewd:code="I51" ewd:figID="9"><path style="fill:#CCECF4;stroke:#000000; stroke-width:1.133; stroke-linecap:round;stroke-linejoin:round; " d=" M   569.40,   571.19  L   569.40,   537.20  L   645.89,   537.20  L   645.89,   571.19  L   569.40,   571.19 " /><title ewd:textID="11">Airbag Sensor Assembly</title></a><a ewd:figtype="conn" style="cursor:pointer;" ewd:code="A31" ewd:figID="10"><path style="fill:#CCECF4;stroke:#000000; stroke-width:1.133; stroke-linecap:round;stroke-linejoin:round; " d=" M   730.88,   562.69  L   764.87,   562.69  L   764.87,   528.70  L   730.88,   528.70  L   730.88,   562.69 " /><title ewd:textID="14">Emission Control ECU</title></a><a ewd:figtype="conn" style="cursor:pointer;" ewd:code="A29,I84" ewd:figID="11"><path style="fill:#CCECF4;stroke:#000000; stroke-width:1.133; stroke-linecap:round;stroke-linejoin:round; " d=" M   798.87,   562.69  L  1002.83,   562.69  L  1002.83,   528.70  L   798.87,   528.70  L   798.87,   562.69 " /><title>ECM</title></a><a ewd:figtype="conn" style="cursor:pointer;" ewd:code="I59,I69" ewd:figID="12"><path style="fill:#CCECF4;stroke:#000000; stroke-width:1.133; stroke-linecap:round;stroke-linejoin:round; " d=" M   671.39,   350.23  L   824.36,   350.23  L   824.36,   333.23  L   671.39,   333.23  L   671.39,   350.23 " /><title ewd:textID="20">No. 10 Junction Connector , No. 18 Junction Connector</title></a><a ewd:figtype="conn" style="cursor:pointer;" ewd:code="I77,I78,I83" ewd:figID="13"><path style="fill:#CCECF4;stroke:#000000; stroke-width:1.133; stroke-linecap:round;stroke-linejoin:round; " d=" M  1181.30,   494.70  L  1181.30,   520.20  L  1351.27,   520.20  L  1351.27,   494.70  L  1181.30,   494.70 " /><title ewd:textID="15">No. 1 CAN Junction Connector</title></a><a ewd:figtype="conn" style="cursor:pointer;" ewd:code="A25,A26" ewd:figID="14"><path style="fill:#CCECF4;stroke:#000000; stroke-width:1.133; stroke-linecap:round;stroke-linejoin:round; " d=" M  1249.29,   171.76  L  1249.29,   188.75  L  1325.78,   188.75  L  1325.78,   171.76  L  1249.29,   171.76 " /><title ewd:textID="13">Brake Vacuum Check Valve Assembly</title></a><a ewd:figtype="conn" style="cursor:pointer;" ewd:code="I81,I82" ewd:figID="15"><path style="fill:#CCECF4;stroke:#000000; stroke-width:1.133; stroke-linecap:round;stroke-linejoin:round; " d=" M  1325.78,   333.23  L  1325.78,   350.23  L  1249.29,   350.23  L  1249.29,   333.23  L  1325.78,   333.23 " /><title ewd:textID="16">No. 2 CAN Junction Connector</title></a><a ewd:figtype="conn" style="cursor:pointer;" ewd:code="A20" ewd:figID="16"><path style="fill:#CCECF4;stroke:#000000; stroke-width:1.133; stroke-linecap:round;stroke-linejoin:round; " d=" M  1087.82,    35.78  L  1087.82,    78.27  L  1334.28,    78.27  L  1334.28,    35.78  L  1087.82,    35.78 " /><title ewd:textID="12">Brake Actuator Assembly</title></a><a ewd:figtype="fuse" style="cursor:pointer;" ewd:code="FUSE2" ewd:figID="55"><path style="&st7; stroke-width:0;" d=" M    55.24,    35.78  L    55.24,    78.27  L    80.74,    78.27  L    80.74,    35.78  L    55.24,    35.78 " /></a><a style="cursor:pointer;" ewd:lineID="1"><path style="stroke:#000000;stroke-width:5.10 ;&st6;" d=" M    67.99,   503.20  L    67.99,   681.67  " /><path style="stroke:#FFFFFF;stroke-width:4.53 ;&st6;" d=" M    67.99,   503.20  L    67.99,   681.67  " /><path style="stroke:#000000;stroke-width:1.13 ;&st6;" d=" M    67.99,   503.20  L    67.99,   681.67  " /></a><a style="cursor:pointer;" ewd:lineID="2"><path style="stroke:#000000;stroke-width:5.10 ;&st6;" d=" M    67.99,   273.74  L    67.99,   486.20  " /><path style="stroke:#FFFFFF;stroke-width:4.53 ;&st6;" d=" M    67.99,   273.74  L    67.99,   486.20  " /><path style="stroke:#000000;stroke-width:1.13 ;&st6;" d=" M    67.99,   273.74  L    67.99,   486.20  " /></a><a style="cursor:pointer;" ewd:lineID="3"><path style="stroke:#56077D;stroke-width:5.10 ;&st6;" d=" M    67.99,   103.77  L    67.99,   231.25  " /></a><a style="cursor:pointer;" ewd:lineID="4"><path style="stroke:#000000;stroke-width:5.10 ;&st6;" d=" M   110.48,   512.27  L   110.48,   664.67  L    76.49,   664.67  L    67.99,   673.17  L    67.99,   681.67  " /><path style="stroke:#FFFFFF;stroke-width:4.53 ;&st6;" d=" M   110.48,   512.27  L   110.48,   664.67  L    76.49,   664.67  L    67.99,   673.17  L    67.99,   681.67  " /><path style="stroke:#000000;stroke-width:1.13 ;&st6;" d=" M   110.48,   512.27  L   110.48,   664.67  L    76.49,   664.67  L    67.99,   673.17  L    67.99,   681.67  " /></a><a style="cursor:pointer;" ewd:lineID="5"><path style="stroke:#000000;stroke-width:5.10 ;&st6;" d=" M   110.48,   477.14  L   110.48,   290.74  L    76.49,   290.74  L    67.99,   282.24  L    67.99,   273.74  " /><path style="stroke:#FFFFFF;stroke-width:4.53 ;&st6;" d=" M   110.48,   477.14  L   110.48,   290.74  L    76.49,   290.74  L    67.99,   282.24  L    67.99,   273.74  " /><path style="stroke:#000000;stroke-width:1.13 ;&st6;" d=" M   110.48,   477.14  L   110.48,   290.74  L    76.49,   290.74  L    67.99,   282.24  L    67.99,   273.74  " /></a><a ewd:comment="1" style="cursor:pointer;" ewd:lineID="6"><path style="stroke:#992903;stroke-width:5.10 ;&st6;" d=" M   212.46,   588.19  L   212.46,   681.67  " /></a><a ewd:comment="1" style="cursor:pointer;" ewd:lineID="7"><path style="stroke:#992903;stroke-width:5.10 ;&st6;" d=" M   212.46,   509.43  L   212.46,   571.19  " /></a><a ewd:comment="7" style="cursor:pointer;" ewd:lineID="8"><path style="stroke:#992903;stroke-width:5.10 ;&st6;" d=" M   212.46,   486.20  L   212.46,   477.71  L   203.97,   469.21  L   169.97,   469.21  L   169.97,   333.23  L   203.97,   333.23  " /></a><a ewd:comment="8" style="cursor:pointer;" ewd:lineID="9"><path style="stroke:#992903;stroke-width:5.10 ;&st6;" d=" M   212.46,   409.72  L   212.46,   486.20  " /></a><a ewd:comment="8" style="cursor:pointer;" ewd:lineID="10"><path style="stroke:#992903;stroke-width:5.10 ;&st6;" d=" M   212.46,   394.99  L   212.46,   341.73  " /></a><a style="cursor:pointer;" ewd:lineID="11"><path style="stroke:#992903;stroke-width:5.10 ;&st6;" d=" M   212.46,   273.74  L   212.46,   324.73  " /></a><a ewd:comment="2" style="cursor:pointer;" ewd:lineID="12"><path style="stroke:#992903;stroke-width:5.10 ;&st6;" d=" M   263.46,   681.67  L   263.46,   500.93  " /></a><a ewd:comment="2" style="cursor:pointer;" ewd:lineID="13"><path style="stroke:#992903;stroke-width:5.10 ;&st6;" d=" M   263.46,   486.20  L   263.46,   409.72  " /></a><a ewd:comment="3" style="cursor:pointer;" ewd:lineID="14"><path style="stroke:#992903;stroke-width:5.10 ;&st6;" d=" M   263.46,   409.72  L   263.46,   418.22  L   271.95,   426.71  L   314.45,   426.71  L   314.45,   479.97  " /></a><a ewd:comment="2,3" style="cursor:pointer;" ewd:lineID="15"><path style="stroke:#992903;stroke-width:5.10 ;&st6;" d=" M   263.46,   377.99  L   263.46,   333.23  L   220.96,   333.23  " /></a><a ewd:comment="3" style="cursor:pointer;" ewd:lineID="16"><path style="stroke:#992903;stroke-width:5.10 ;&st6;" d=" M   314.45,   494.70  L   314.45,   681.67  " /></a><a ewd:comment="13" style="cursor:pointer;" ewd:lineID="17"> d=" M   390.93,   562.69  L   390.93,   501.22 
	
		<path style="stroke:#000000;stroke-width:5.10 ;&st6;" d=" M   390.93,   562.69  L   390.93,   501.22  " /><path style="stroke:#FFFFFF;stroke-width:4.53 ;&st6;" d=" M   390.93,   562.69  L   390.93,   501.22  " /></a><a ewd:comment="13" style="cursor:pointer;" ewd:lineID="18"> d=" M   390.93,   419.35  L   390.93,   486.20 
	
		<path style="stroke:#000000;stroke-width:5.10 ;&st6;" d=" M   390.93,   419.35  L   390.93,   486.20  " /><path style="stroke:#FFFFFF;stroke-width:4.53 ;&st6;" d=" M   390.93,   419.35  L   390.93,   486.20  " /></a><a ewd:comment="10" style="cursor:pointer;" ewd:lineID="19"> d=" M   390.93,   273.74  L   390.93,   366.09 
	
		<path style="stroke:#000000;stroke-width:5.10 ;&st6;" d=" M   390.93,   273.74  L   390.93,   366.09  " /><path style="stroke:#FFFFFF;stroke-width:4.53 ;&st6;" d=" M   390.93,   273.74  L   390.93,   366.09  " /></a><a ewd:comment="3" style="cursor:pointer;" ewd:lineID="20"> d=" M   450.42,   494.70  L   450.42,   630.68  L   815.86,   630.68  L   815.86,   580.82 
	
		<path style="stroke:#000000;stroke-width:5.10 ;&st6;" d=" M   450.42,   494.70  L   450.42,   630.68  L   815.86,   630.68  L   815.86,   580.82  " /><path style="stroke:#FFFFFF;stroke-width:4.53 ;&st6;" d=" M   450.42,   494.70  L   450.42,   630.68  L   815.86,   630.68  L   815.86,   580.82  " /></a><a ewd:comment="3" style="cursor:pointer;" ewd:lineID="21"> d=" M   450.42,   419.35  L   450.42,   479.69 
	
		<path style="stroke:#000000;stroke-width:5.10 ;&st6;" d=" M   450.42,   419.35  L   450.42,   479.69  " /><path style="stroke:#FFFFFF;stroke-width:4.53 ;&st6;" d=" M   450.42,   419.35  L   450.42,   479.69  " /></a><a ewd:comment="10" style="cursor:pointer;" ewd:lineID="22"> d=" M   450.42,   366.09  L   450.42,   307.73  L   586.40,   307.73  L   586.40,   426.15 
	
		<path style="stroke:#000000;stroke-width:5.10 ;&st6;" d=" M   450.42,   366.09  L   450.42,   307.73  L   586.40,   307.73  L   586.40,   426.15  " /><path style="stroke:#FFFFFF;stroke-width:4.53 ;&st6;" d=" M   450.42,   366.09  L   450.42,   307.73  L   586.40,   307.73  L   586.40,   426.15  " /></a><a ewd:comment="10" style="cursor:pointer;" ewd:lineID="23"> d=" M   586.40,   461.27  L   586.40,   537.20 
	
		<path style="stroke:#000000;stroke-width:5.10 ;&st6;" d=" M   586.40,   461.27  L   586.40,   537.20  " /><path style="stroke:#FFFFFF;stroke-width:4.53 ;&st6;" d=" M   586.40,   461.27  L   586.40,   537.20  " /></a><a ewd:comment="10" style="cursor:pointer;" ewd:lineID="24"><path style="stroke:#008837;stroke-width:5.10 ;&st6;" d=" M   628.89,   461.27  L   628.89,   537.20  " /></a><a ewd:comment="11" style="cursor:pointer;" ewd:lineID="25"><path style="stroke:#008837;stroke-width:5.10 ;&st6;" d=" M   679.89,   461.27  L   679.89,   681.67  L  1164.31,   681.67  L  1164.31,   137.76  " /></a><a ewd:comment="10" style="cursor:pointer;" ewd:lineID="26"><path style="stroke:#008837;stroke-width:5.10 ;&st6;" d=" M   679.89,   377.42  L   679.89,   426.15  " /></a><a ewd:comment="12" style="cursor:pointer;" ewd:lineID="27"><path style="stroke:#008837;stroke-width:5.10 ;&st6;" d=" M   679.89,   377.42  L   679.89,   384.22  L   688.38,   392.72  L   713.88,   392.72  L   713.88,   664.67  L  1138.81,   664.67  L  1138.81,   154.76  L  1155.81,   154.76  L  1164.31,   146.26  L  1164.31,   137.76  " /></a><a style="cursor:pointer;" ewd:lineID="28"><path style="stroke:#008837;stroke-width:5.10 ;&st6;" d=" M   679.89,   273.74  L   679.89,   306.03  " /></a><a ewd:comment="5" style="cursor:pointer;" ewd:lineID="29"><path style="stroke:#008837;stroke-width:5.10 ;&st6;" d=" M   815.86,   452.21  L   815.86,   460.71  L   807.37,   469.21  L   747.88,   469.21  L   747.88,   519.63  " /></a><a ewd:comment="18" style="cursor:pointer;" ewd:lineID="30"><path style="stroke:#008837;stroke-width:5.10 ;&st6;" d=" M   815.86,   452.21  L   815.86,   510.57  " /></a><a ewd:comment="7" style="cursor:pointer;" ewd:lineID="31"><path style="stroke:#008837;stroke-width:5.10 ;&st6;" d=" M   815.86,   377.42  L   815.86,   384.22  L   824.36,   392.72  L   849.86,   392.72  L   849.86,   494.70  L   824.36,   494.70  L   815.86,   503.20  L   815.86,   510.57  " /></a><a style="cursor:pointer;" ewd:lineID="32"><path style="stroke:#008837;stroke-width:5.10 ;&st6;" d=" M   815.86,   377.42  L   815.86,   428.98  " /></a><a ewd:comment="9" style="cursor:pointer;" ewd:lineID="33"><path style="stroke:#000000;stroke-width:5.10 ;&st6;" d=" M   824.36,   231.25  L   824.36,   154.76  L  1104.82,   154.76  L  1104.82,   137.76  " /></a><a ewd:comment="1" style="cursor:pointer;" ewd:lineID="34"> d=" M   866.86,   580.82  L   866.86,   588.19  L   875.35,   596.69  L   892.35,   596.69  L   892.35,   630.68  L  1512.75,   630.68  L  1512.75,   554.19 
	
		<path style="stroke:#000000;stroke-width:5.10 ;&st6;" d=" M   866.86,   580.82  L   866.86,   588.19  L   875.35,   596.69  L   892.35,   596.69  L   892.35,   630.68  L  1512.75,   630.68  L  1512.75,   554.19  " /><path style="stroke:#FFFFFF;stroke-width:4.53 ;&st6;" d=" M   866.86,   580.82  L   866.86,   588.19  L   875.35,   596.69  L   892.35,   596.69  L   892.35,   630.68  L  1512.75,   630.68  L  1512.75,   554.19  " /></a><a ewd:comment="1" style="cursor:pointer;" ewd:lineID="35"> d=" M   866.86,   580.82  L   866.86,   647.68  L  1538.24,   647.68  L  1538.24,   273.74  L  1521.25,   273.74  L  1512.75,   265.24  L  1512.75,   263.26 
	
		<path style="stroke:#000000;stroke-width:5.10 ;&st6;" d=" M   866.86,   580.82  L   866.86,   647.68  L  1538.24,   647.68  L  1538.24,   273.74  L  1521.25,   273.74  L  1512.75,   265.24  L  1512.75,   263.26  " /><path style="stroke:#FFFFFF;stroke-width:4.53 ;&st6;" d=" M   866.86,   580.82  L   866.86,   647.68  L  1538.24,   647.68  L  1538.24,   273.74  L  1521.25,   273.74  L  1512.75,   265.24  L  1512.75,   263.26  " /></a><a ewd:comment="7" style="cursor:pointer;" ewd:lineID="36"><path style="stroke:#000000;stroke-width:5.10 ;&st6;" d=" M   909.35,   510.57  L   909.35,   503.20  L   917.85,   494.70  L   943.34,   494.70  L   943.34,   392.72  L   917.85,   392.72  L   909.35,   384.22  L   909.35,   376.86  " /></a><a ewd:comment="18" style="cursor:pointer;" ewd:lineID="37"><path style="stroke:#000000;stroke-width:5.10 ;&st6;" d=" M   909.35,   443.71  L   909.35,   510.57  " /></a><a ewd:comment="18" style="cursor:pointer;" ewd:lineID="38"><path style="stroke:#000000;stroke-width:5.10 ;&st6;" d=" M   909.35,   428.98  L   909.35,   376.86  " /></a><a ewd:comment="1,3" style="cursor:pointer;" ewd:lineID="39"><path style="stroke:#000000;stroke-width:5.10 ;&st6;" d=" M   909.35,   323.60  L   909.35,   273.74  " /></a><a ewd:comment="1" style="cursor:pointer;" ewd:lineID="40"> d=" M   934.84,   580.82  L   934.84,   588.19  L   943.34,   596.69  L  1444.76,   596.69  L  1444.76,   554.19 
	
		<path style="stroke:#000000;stroke-width:5.10 ;&st6;" d=" M   934.84,   580.82  L   934.84,   588.19  L   943.34,   596.69  L  1444.76,   596.69  L  1444.76,   554.19  " /><path style="stroke:#FFFFFF;stroke-width:4.53 ;&st6;" d=" M   934.84,   580.82  L   934.84,   588.19  L   943.34,   596.69  L  1444.76,   596.69  L  1444.76,   554.19  " /></a><a ewd:comment="1" style="cursor:pointer;" ewd:lineID="41"><path style="stroke:#000000;stroke-width:5.10 ;&st6;" d=" M   934.84,   580.82  L   934.84,   613.68  L  1487.25,   613.68  L  1487.25,   273.74  L  1478.75,   273.74  L  1470.25,   265.24  L  1470.25,   262.97  " /></a><a ewd:comment="3" style="cursor:pointer;" ewd:lineID="42"><path style="stroke:#F668B2;stroke-width:5.10 ;&st6;" d=" M   985.84,   350.23  L   985.84,   519.63  " /><path style="stroke:#FFFFFF;stroke-width:2.27 ;&st6;" d=" M   985.84,   350.23  L   985.84,   519.63  " /><path style="stroke:#00A0C6;stroke-width:1.13 ;&st6;" d=" M   985.84,   350.23  L   985.84,   519.63  " /></a><a ewd:comment="3" style="cursor:pointer;" ewd:lineID="43"><path style="stroke:#F668B2;stroke-width:5.10 ;&st6;" d=" M   985.84,   273.74  L   985.84,   335.21  " /><path style="stroke:#FFFFFF;stroke-width:2.27 ;&st6;" d=" M   985.84,   273.74  L   985.84,   335.21  " /><path style="stroke:#00A0C6;stroke-width:1.13 ;&st6;" d=" M   985.84,   273.74  L   985.84,   335.21  " /></a><a ewd:comment="9" style="cursor:pointer;" ewd:lineID="44"><path style="stroke:#000000;stroke-width:5.10 ;&st6;" d=" M  1104.82,   114.53  L  1104.82,    78.27  " /></a><a ewd:comment="9" style="cursor:pointer;" ewd:lineID="45"><path style="stroke:#008837;stroke-width:5.10 ;&st6;" d=" M  1164.31,   114.53  L  1164.31,    78.27  " /></a><a ewd:comment="14" style="cursor:pointer;" ewd:lineID="46"> d=" M  1257.79,   359.29  L  1257.79,   469.21  L  1274.79,   469.21  L  1283.29,   477.71  L  1283.29,   485.64 
	
		<path style="stroke:#000000;stroke-width:5.10 ;&st6;" d=" M  1257.79,   359.29  L  1257.79,   469.21  L  1274.79,   469.21  L  1283.29,   477.71  L  1283.29,   485.64  " /><path style="stroke:#FFFFFF;stroke-width:4.53 ;&st6;" d=" M  1257.79,   359.29  L  1257.79,   469.21  L  1274.79,   469.21  L  1283.29,   477.71  L  1283.29,   485.64  " /></a><a ewd:comment="1" style="cursor:pointer;" ewd:lineID="47"> d=" M  1257.79,   265.24  L  1257.79,   273.74  L  1249.29,   282.24  L  1189.80,   282.24  L  1189.80,   485.64 
	
		<path style="stroke:#000000;stroke-width:5.10 ;&st6;" d=" M  1257.79,   265.24  L  1257.79,   273.74  L  1249.29,   282.24  L  1189.80,   282.24  L  1189.80,   485.64  " /><path style="stroke:#FFFFFF;stroke-width:4.53 ;&st6;" d=" M  1257.79,   265.24  L  1257.79,   273.74  L  1249.29,   282.24  L  1189.80,   282.24  L  1189.80,   485.64  " /></a><a ewd:comment="14" style="cursor:pointer;" ewd:lineID="48"> d=" M  1257.79,   265.24  L  1257.79,   324.16 
	
		<path style="stroke:#000000;stroke-width:5.10 ;&st6;" d=" M  1257.79,   265.24  L  1257.79,   324.16  " /><path style="stroke:#FFFFFF;stroke-width:4.53 ;&st6;" d=" M  1257.79,   265.24  L  1257.79,   324.16  " /></a><a ewd:comment="9" style="cursor:pointer;" ewd:lineID="49"> d=" M  1257.79,   197.82  L  1257.79,   241.73 
	
		<path style="stroke:#000000;stroke-width:5.10 ;&st6;" d=" M  1257.79,   197.82  L  1257.79,   241.73  " /><path style="stroke:#FFFFFF;stroke-width:4.53 ;&st6;" d=" M  1257.79,   197.82  L  1257.79,   241.73  " /></a><a ewd:comment="9" style="cursor:pointer;" ewd:lineID="50"> d=" M  1257.79,    78.27  L  1257.79,   162.69 
	
		<path style="stroke:#000000;stroke-width:5.10 ;&st6;" d=" M  1257.79,    78.27  L  1257.79,   162.69  " /><path style="stroke:#FFFFFF;stroke-width:4.53 ;&st6;" d=" M  1257.79,    78.27  L  1257.79,   162.69  " /></a><a ewd:comment="9" style="cursor:pointer;" ewd:lineID="51"> d=" M  1257.79,    78.27  L  1257.79,    86.77  L  1291.78,   112.27  L  1376.77,   112.27  L  1376.77,   163.26 
	
		<path style="stroke:#000000;stroke-width:5.10 ;&st6;" d=" M  1257.79,    78.27  L  1257.79,    86.77  L  1291.78,   112.27  L  1376.77,   112.27  L  1376.77,   163.26  " /><path style="stroke:#FFFFFF;stroke-width:4.53 ;&st6;" d=" M  1257.79,    78.27  L  1257.79,    86.77  L  1291.78,   112.27  L  1376.77,   112.27  L  1376.77,   163.26  " /></a><a ewd:comment="15" style="cursor:pointer;" ewd:lineID="52"><path style="stroke:#56077D;stroke-width:5.10 ;&st6;" d=" M  1283.29,   529.26  L  1283.29,   562.69  L  1113.31,   562.69  L  1113.31,   171.76  L   909.35,   171.76  L   909.35,   231.25  " /></a><a ewd:comment="17" style="cursor:pointer;" ewd:lineID="53"> d=" M  1283.29,   485.64  L  1283.29,   409.72  L  1376.77,   409.72  L  1376.77,   271.76 
	
		<path style="stroke:#000000;stroke-width:5.10 ;&st6;" d=" M  1283.29,   485.64  L  1283.29,   409.72  L  1376.77,   409.72  L  1376.77,   271.76  " /><path style="stroke:#FFFFFF;stroke-width:4.53 ;&st6;" d=" M  1283.29,   485.64  L  1283.29,   409.72  L  1376.77,   409.72  L  1376.77,   271.76  " /></a><a ewd:comment="14" style="cursor:pointer;" ewd:lineID="54"><path style="stroke:#000000;stroke-width:5.10 ;&st6;" d=" M  1317.28,   359.29  L  1317.28,   469.21  L  1334.28,   469.21  L  1342.78,   477.71  L  1342.78,   485.64  " /></a><a ewd:comment="14" style="cursor:pointer;" ewd:lineID="55"><path style="stroke:#FF0000;stroke-width:5.10 ;&st6;" d=" M  1317.28,   324.16  L  1317.28,   265.24  " /></a><a ewd:comment="1" style="cursor:pointer;" ewd:lineID="56"><path style="stroke:#FF0000;stroke-width:5.10 ;&st6;" d=" M  1317.28,   265.24  L  1317.28,   273.74  L  1291.78,   299.24  L  1223.80,   299.24  L  1223.80,   485.64  " /></a><a ewd:comment="9" style="cursor:pointer;" ewd:lineID="57"><path style="stroke:#FF0000;stroke-width:5.10 ;&st6;" d=" M  1317.28,   242.01  L  1317.28,   197.82  " /></a><a ewd:comment="9" style="cursor:pointer;" ewd:lineID="58"><path style="stroke:#FF0000;stroke-width:5.10 ;&st6;" d=" M  1317.28,    78.27  L  1317.28,   162.69  " /></a><a ewd:comment="9" style="cursor:pointer;" ewd:lineID="59"><path style="stroke:#FF0000;stroke-width:5.10 ;&st6;" d=" M  1317.28,    78.27  L  1317.28,    86.77  L  1325.78,    95.27  L  1419.26,    95.27  L  1419.26,   163.26  " /></a><a ewd:comment="15" style="cursor:pointer;" ewd:lineID="60"><path style="stroke:#F668B2;stroke-width:5.10 ;&st6;" d=" M  1342.78,   529.26  L  1342.78,   579.69  L  1087.82,   579.69  L  1087.82,   188.75  L   985.84,   188.75  L   985.84,   231.25  " /></a><a ewd:comment="17" style="cursor:pointer;" ewd:lineID="61"> d=" M  1376.77,   248.24  L  1376.77,   188.75 
	
		<path style="stroke:#000000;stroke-width:5.10 ;&st6;" d=" M  1376.77,   248.24  L  1376.77,   188.75  " /><path style="stroke:#FFFFFF;stroke-width:4.53 ;&st6;" d=" M  1376.77,   248.24  L  1376.77,   188.75  " /></a><a ewd:comment="17" style="cursor:pointer;" ewd:lineID="62"><path style="stroke:#FF0000;stroke-width:5.10 ;&st6;" d=" M  1419.26,   271.47  L  1419.26,   426.71  L  1342.78,   426.71  L  1342.78,   485.64  " /></a><a ewd:comment="17" style="cursor:pointer;" ewd:lineID="63"><path style="stroke:#FF0000;stroke-width:5.10 ;&st6;" d=" M  1419.26,   248.24  L  1419.26,   188.75  " /></a><a ewd:comment="1" style="cursor:pointer;" ewd:lineID="64"> d=" M  1444.76,   539.18  L  1444.76,   469.21  L  1351.27,   469.21  L  1342.78,   477.71  L  1342.78,   485.64 
	
		<path style="stroke:#000000;stroke-width:5.10 ;&st6;" d=" M  1444.76,   539.18  L  1444.76,   469.21  L  1351.27,   469.21  L  1342.78,   477.71  L  1342.78,   485.64  " /><path style="stroke:#FFFFFF;stroke-width:4.53 ;&st6;" d=" M  1444.76,   539.18  L  1444.76,   469.21  L  1351.27,   469.21  L  1342.78,   477.71  L  1342.78,   485.64  " /></a><a ewd:comment="16" style="cursor:pointer;" ewd:lineID="65"><path style="stroke:#000000;stroke-width:5.10 ;&st6;" d=" M  1470.25,   262.97  L  1470.25,   375.72  L  1325.78,   375.72  L  1317.28,   367.22  L  1317.28,   359.29  " /></a><a ewd:comment="17" style="cursor:pointer;" ewd:lineID="66"><path style="stroke:#000000;stroke-width:5.10 ;&st6;" d=" M  1470.25,   248.24  L  1470.25,   188.75  " /></a><a ewd:comment="1" style="cursor:pointer;" ewd:lineID="67"> d=" M  1512.75,   539.18  L  1512.75,   443.71  L  1300.28,   443.71  L  1300.28,   469.21  L  1291.78,   469.21  L  1283.29,   477.71  L  1283.29,   485.64 
	
		<path style="stroke:#000000;stroke-width:5.10 ;&st6;" d=" M  1512.75,   539.18  L  1512.75,   443.71  L  1300.28,   443.71  L  1300.28,   469.21  L  1291.78,   469.21  L  1283.29,   477.71  L  1283.29,   485.64  " /><path style="stroke:#FFFFFF;stroke-width:4.53 ;&st6;" d=" M  1512.75,   539.18  L  1512.75,   443.71  L  1300.28,   443.71  L  1300.28,   469.21  L  1291.78,   469.21  L  1283.29,   477.71  L  1283.29,   485.64  " /></a><a ewd:comment="16" style="cursor:pointer;" ewd:lineID="68"> d=" M  1512.75,   263.26  L  1512.75,   392.72  L  1274.79,   392.72  L  1274.79,   384.22  L  1257.79,   367.22  L  1257.79,   359.29 
	
		<path style="stroke:#000000;stroke-width:5.10 ;&st6;" d=" M  1512.75,   263.26  L  1512.75,   392.72  L  1274.79,   392.72  L  1274.79,   384.22  L  1257.79,   367.22  L  1257.79,   359.29  " /><path style="stroke:#FFFFFF;stroke-width:4.53 ;&st6;" d=" M  1512.75,   263.26  L  1512.75,   392.72  L  1274.79,   392.72  L  1274.79,   384.22  L  1257.79,   367.22  L  1257.79,   359.29  " /></a><a ewd:comment="17" style="cursor:pointer;" ewd:lineID="69"> d=" M  1512.75,   248.24  L  1512.75,   188.75 
	
		<path style="stroke:#000000;stroke-width:5.10 ;&st6;" d=" M  1512.75,   248.24  L  1512.75,   188.75  " /><path style="stroke:#FFFFFF;stroke-width:4.53 ;&st6;" d=" M  1512.75,   248.24  L  1512.75,   188.75  " /></a><a ewd:figtype="w2w" style="cursor:pointer;" ewd:pinNo="9" ewd:code="AC5" ewd:figID="18"><path style="&st2;" d=" M   220.96,   494.70  L   203.97,   494.70  L   203.97,   503.20  L   220.96,   503.20  L   220.96,   494.70 " /><text style="&st8;" transform="matrix(&st16;  206.86  501.07 )"><tspan x="0" style="&st18;" y="0">AC5</tspan></text></a><a ewd:figtype="w2w" style="cursor:pointer;" ewd:pinNo="9" ewd:code="IC2" ewd:figID="19"><path style="&st2;" d=" M   220.96,   486.20  L   203.97,   486.20  L   203.97,   494.70  L   220.96,   494.70  L   220.96,   486.20 " /><text style="&st8;" transform="matrix(&st16;  207.99  492.57 )"><tspan x="0" style="&st18;" y="0">IC2</tspan></text></a><a ewd:figtype="w2w" style="cursor:pointer;" ewd:pinNo="56" ewd:code="AI3" ewd:figID="20"><path style="&st2;" d=" M   220.96,   401.22  L   203.97,   401.22  L   203.97,   409.72  L   220.96,   409.72  L   220.96,   401.22 " /><text style="&st8;" transform="matrix(&st16;  208.1  407.59 )"><tspan x="0" style="&st18;" y="0">AI3</tspan></text></a><a ewd:figtype="w2w" style="cursor:pointer;" ewd:pinNo="1" ewd:code="AC1" ewd:figID="21"><path style="&st2;" d=" M   271.95,   486.20  L   254.96,   486.20  L   254.96,   494.70  L   271.95,   494.70  L   271.95,   486.20 " /><text style="&st8;" transform="matrix(&st16;  257.85  492.57 )"><tspan x="0" style="&st18;" y="0">AC1</tspan></text></a><a ewd:figtype="w2w" style="cursor:pointer;" ewd:pinNo="55" ewd:code="AI3" ewd:figID="22"><path style="&st2;" d=" M   271.95,   401.22  L   254.96,   401.22  L   254.96,   409.72  L   271.95,   409.72  L   271.95,   401.22 " /><text style="&st8;" transform="matrix(&st16;  259.09  407.59 )"><tspan x="0" style="&st18;" y="0">AI3</tspan></text></a><a ewd:figtype="w2w" style="cursor:pointer;" ewd:pinNo="22" ewd:code="AI3" ewd:figID="23"><path style="&st2;" d=" M   271.95,   392.72  L   254.96,   392.72  L   254.96,   401.22  L   271.95,   401.22  L   271.95,   392.72 " /><text style="&st8;" transform="matrix(&st16;  259.09  399.09 )"><tspan x="0" style="&st18;" y="0">AI3</tspan></text></a><a ewd:figtype="w2w" style="cursor:pointer;" ewd:pinNo="45" ewd:code="AI3" ewd:figID="24"><path style="&st2;" d=" M   271.95,   384.22  L   254.96,   384.22  L   254.96,   392.72  L   271.95,   392.72  L   271.95,   384.22 " /><text style="&st8;" transform="matrix(&st16;  259.09  390.59 )"><tspan x="0" style="&st18;" y="0">AI3</tspan></text></a><a ewd:figtype="w2w" style="cursor:pointer;" ewd:pinNo="3" ewd:code="CA2" ewd:figID="25"><path style="&st2;" d=" M   322.95,   486.20  L   305.95,   486.20  L   305.95,   494.70  L   322.95,   494.70  L   322.95,   486.20 " /><text style="&st8;" transform="matrix(&st16;  308.84  492.57 )"><tspan x="0" style="&st18;" y="0">CA2</tspan></text></a><a ewd:figtype="w2w" style="cursor:pointer;" ewd:pinNo="12" ewd:code="IL2" ewd:figID="26"><path style="&st2;" d=" M   399.43,   486.20  L   382.44,   486.20  L   382.44,   494.70  L   399.43,   494.70  L   399.43,   486.20 " /><text style="&st8;" transform="matrix(&st16;  386.8  492.57 )"><tspan x="0" style="&st18;" y="0">IL2</tspan></text></a><a ewd:figtype="w2w" style="cursor:pointer;" ewd:pinNo="24" ewd:code="AI3" ewd:figID="27"><path style="&st2;" d=" M   458.92,   486.20  L   441.93,   486.20  L   441.93,   494.70  L   458.92,   494.70  L   458.92,   486.20 " /><text style="&st8;" transform="matrix(&st16;  446.06  492.57 )"><tspan x="0" style="&st18;" y="0">AI3</tspan></text></a><a ewd:figtype="w2w" style="cursor:pointer;" ewd:pinNo="59" ewd:code="AI3" ewd:figID="28"><path style="&st2;" d=" M   824.36,   443.71  L   807.37,   443.71  L   807.37,   452.21  L   824.36,   452.21  L   824.36,   443.71 " /><text style="&st8;" transform="matrix(&st16;  811.5  450.08 )"><tspan x="0" style="&st18;" y="0">AI3</tspan></text></a><a ewd:figtype="w2w" style="cursor:pointer;" ewd:pinNo="57" ewd:code="AI3" ewd:figID="29"><path style="&st2;" d=" M   824.36,   435.21  L   807.37,   435.21  L   807.37,   443.71  L   824.36,   443.71  L   824.36,   435.21 " /><text style="&st8;" transform="matrix(&st16;  811.5  441.58 )"><tspan x="0" style="&st18;" y="0">AI3</tspan></text></a><a ewd:figtype="w2w" style="cursor:pointer;" ewd:pinNo="45" ewd:code="AI3" ewd:figID="30"><path style="&st2;" d=" M   917.85,   435.21  L   900.85,   435.21  L   900.85,   443.71  L   917.85,   443.71  L   917.85,   435.21 " /><text style="&st8;" transform="matrix(&st16;  904.98  441.58 )"><tspan x="0" style="&st18;" y="0">AI3</tspan></text></a><a ewd:figtype="w2w" style="cursor:pointer;" ewd:pinNo="11" ewd:code="AI3" ewd:figID="31"><path style="&st2;" d=" M   994.33,   341.73  L   977.34,   341.73  L   977.34,   350.23  L   994.33,   350.23  L   994.33,   341.73 " /><text style="&st8;" transform="matrix(&st16;  981.47  348.1 )"><tspan x="0" style="&st18;" y="0">AI3</tspan></text></a><a ewd:figtype="w2w" style="cursor:pointer;" ewd:pinNo="1" ewd:code="IA4" ewd:figID="32"><path style="&st2;" d=" M  1113.31,   129.26  L  1096.32,   129.26  L  1096.32,   137.76  L  1113.31,   137.76  L  1113.31,   129.26 " /><text style="&st8;" transform="matrix(&st16;  1100.45  135.63 )"><tspan x="0" style="&st18;" y="0">IA4</tspan></text></a><a ewd:figtype="w2w" style="cursor:pointer;" ewd:pinNo="1" ewd:code="IA2" ewd:figID="33"><path style="&st2;" d=" M  1113.31,   120.77  L  1096.32,   120.77  L  1096.32,   129.26  L  1113.31,   129.26  L  1113.31,   120.77 " /><text style="&st8;" transform="matrix(&st16;  1100.45  127.13 )"><tspan x="0" style="&st18;" y="0">IA2</tspan></text></a><a ewd:figtype="w2w" style="cursor:pointer;" ewd:pinNo="5" ewd:code="IA4" ewd:figID="34"><path style="&st2;" d=" M  1172.80,   129.26  L  1155.81,   129.26  L  1155.81,   137.76  L  1172.80,   137.76  L  1172.80,   129.26 " /><text style="&st8;" transform="matrix(&st16;  1159.94  135.63 )"><tspan x="0" style="&st18;" y="0">IA4</tspan></text></a><a ewd:figtype="w2w" style="cursor:pointer;" ewd:pinNo="5" ewd:code="IA2" ewd:figID="35"><path style="&st2;" d=" M  1172.80,   120.77  L  1155.81,   120.77  L  1155.81,   129.26  L  1172.80,   129.26  L  1172.80,   120.77 " /><text style="&st8;" transform="matrix(&st16;  1159.94  127.13 )"><tspan x="0" style="&st18;" y="0">IA2</tspan></text></a><a ewd:figtype="w2w" style="cursor:pointer;" ewd:pinNo="6" ewd:code="IA4" ewd:figID="36"><path style="&st2;" d=" M  1266.29,   256.74  L  1249.29,   256.74  L  1249.29,   265.24  L  1266.29,   265.24  L  1266.29,   256.74 " /><text style="&st8;" transform="matrix(&st16;  1253.43  263.11 )"><tspan x="0" style="&st18;" y="0">IA4</tspan></text></a><a ewd:figtype="w2w" style="cursor:pointer;" ewd:pinNo="6" ewd:code="IA2" ewd:figID="37"><path style="&st2;" d=" M  1266.29,   248.24  L  1249.29,   248.24  L  1249.29,   256.74  L  1266.29,   256.74  L  1266.29,   248.24 " /><text style="&st8;" transform="matrix(&st16;  1253.43  254.61 )"><tspan x="0" style="&st18;" y="0">IA2</tspan></text></a><a ewd:figtype="w2w" style="cursor:pointer;" ewd:pinNo="2" ewd:code="IA4" ewd:figID="38"><path style="&st2;" d=" M  1325.78,   256.74  L  1308.78,   256.74  L  1308.78,   265.24  L  1325.78,   265.24  L  1325.78,   256.74 " /><text style="&st8;" transform="matrix(&st16;  1312.92  263.11 )"><tspan x="0" style="&st18;" y="0">IA4</tspan></text></a><a ewd:figtype="w2w" style="cursor:pointer;" ewd:pinNo="2" ewd:code="IA2" ewd:figID="39"><path style="&st2;" d=" M  1325.78,   248.24  L  1308.78,   248.24  L  1308.78,   256.74  L  1325.78,   256.74  L  1325.78,   248.24 " /><text style="&st8;" transform="matrix(&st16;  1312.92  254.61 )"><tspan x="0" style="&st18;" y="0">IA2</tspan></text></a><a ewd:figtype="w2w" style="cursor:pointer;" ewd:pinNo="56" ewd:code="AI3" ewd:figID="40"><path style="&st2;" d=" M  1385.27,   256.74  L  1368.27,   256.74  L  1368.27,   265.24  L  1385.27,   265.24  L  1385.27,   256.74 " /><text style="&st8;" transform="matrix(&st16;  1372.41  263.11 )"><tspan x="0" style="&st18;" y="0">AI3</tspan></text></a><a ewd:figtype="w2w" style="cursor:pointer;" ewd:pinNo="54" ewd:code="AI3" ewd:figID="41"><path style="&st2;" d=" M  1385.27,   248.24  L  1368.27,   248.24  L  1368.27,   256.74  L  1385.27,   256.74  L  1385.27,   248.24 " /><text style="&st8;" transform="matrix(&st16;  1372.41  254.61 )"><tspan x="0" style="&st18;" y="0">AI3</tspan></text></a><a ewd:figtype="w2w" style="cursor:pointer;" ewd:pinNo="55" ewd:code="AI3" ewd:figID="42"><path style="&st2;" d=" M  1427.76,   256.74  L  1410.76,   256.74  L  1410.76,   265.24  L  1427.76,   265.24  L  1427.76,   256.74 " /><text style="&st8;" transform="matrix(&st16;  1414.9  263.11 )"><tspan x="0" style="&st18;" y="0">AI3</tspan></text></a><a ewd:figtype="w2w" style="cursor:pointer;" ewd:pinNo="53" ewd:code="AI3" ewd:figID="43"><path style="&st2;" d=" M  1427.76,   248.24  L  1410.76,   248.24  L  1410.76,   256.74  L  1427.76,   256.74  L  1427.76,   248.24 " /><text style="&st8;" transform="matrix(&st16;  1414.9  254.61 )"><tspan x="0" style="&st18;" y="0">AI3</tspan></text></a><a ewd:figtype="w2w" style="cursor:pointer;" ewd:pinNo="57" ewd:code="AI3" ewd:figID="44"><path style="&st2;" d=" M  1453.26,   545.69  L  1436.26,   545.69  L  1436.26,   554.19  L  1453.26,   554.19  L  1453.26,   545.69 " /><text style="&st8;" transform="matrix(&st16;  1440.39  552.06 )"><tspan x="0" style="&st18;" y="0">AI3</tspan></text></a><a ewd:figtype="w2w" style="cursor:pointer;" ewd:pinNo="37" ewd:code="AI3" ewd:figID="45"><path style="&st2;" d=" M  1478.75,   248.24  L  1461.76,   248.24  L  1461.76,   256.74  L  1478.75,   256.74  L  1478.75,   248.24 " /><text style="&st8;" transform="matrix(&st16;  1465.89  254.61 )"><tspan x="0" style="&st18;" y="0">AI3</tspan></text></a><a ewd:figtype="w2w" style="cursor:pointer;" ewd:pinNo="58" ewd:code="AI3" ewd:figID="46"><path style="&st2;" d=" M  1521.25,   545.69  L  1504.25,   545.69  L  1504.25,   554.19  L  1521.25,   554.19  L  1521.25,   545.69 " /><text style="&st8;" transform="matrix(&st16;  1508.38  552.06 )"><tspan x="0" style="&st18;" y="0">AI3</tspan></text></a><a ewd:figtype="w2w" style="cursor:pointer;" ewd:pinNo="38" ewd:code="AI3" ewd:figID="47"><path style="&st2;" d=" M  1521.25,   248.24  L  1504.25,   248.24  L  1504.25,   256.74  L  1521.25,   256.74  L  1521.25,   248.24 " /><text style="&st8;" transform="matrix(&st16;  1508.38  254.61 )"><tspan x="0" style="&st18;" y="0">AI3</tspan></text></a><a ewd:figtype="gp" style="cursor:pointer;" ewd:code="IA" ewd:figID="48"><path style="&st2;" d=" M    57.37,   681.67  L    78.61,   681.67  L    67.99,   697.25  L    57.37,   681.67 " /><text style="&st8;" transform="matrix(&st16;  65.13  689.46 )"><tspan x="0" style="&st18;" y="0">IA</tspan></text></a><a ewd:figtype="gp" style="cursor:pointer;" ewd:code="CA" ewd:figID="49"><path style="&st2;" d=" M   201.84,   681.67  L   223.09,   681.67  L   212.46,   697.25  L   201.84,   681.67 " /><text style="&st8;" transform="matrix(&st16;  208.36  689.46 )"><tspan x="0" style="&st18;" y="0">CA</tspan></text></a><a ewd:figtype="gp" style="cursor:pointer;" ewd:code="CC" ewd:figID="50"><path style="&st2;" d=" M   252.83,   681.67  L   274.08,   681.67  L   263.46,   697.25  L   252.83,   681.67 " /><text style="&st8;" transform="matrix(&st16;  259.24  689.46 )"><tspan x="0" style="&st18;" y="0">CC</tspan></text></a><a ewd:figtype="gp" style="cursor:pointer;" ewd:code="CE" ewd:figID="51"><path style="&st2;" d=" M   303.82,   681.67  L   325.07,   681.67  L   314.45,   697.25  L   303.82,   681.67 " /><text style="&st8;" transform="matrix(&st16;  310.53  689.46 )"><tspan x="0" style="&st18;" y="0">CE</tspan></text></a><a ewd:figtype="sp" style="cursor:pointer;" ewd:code="SP65" ewd:figID="52"><path style="&st2;" d=" M    63.74,   486.20  L    72.24,   486.20  L    76.49,   490.45  L    76.49,   498.95  L    72.24,   503.20  L    63.74,   503.20  L    59.49,   498.95  L    59.49,   490.45  L    63.74,   486.20 " /></a><a ewd:figtype="sp" style="cursor:pointer;" ewd:code="SP19" ewd:figID="53"><path style="&st2;" d=" M   208.22,   571.19  L   216.71,   571.19  L   220.96,   575.44  L   220.96,   583.94  L   216.71,   588.19  L   208.22,   588.19  L   203.97,   583.94  L   203.97,   575.44  L   208.22,   571.19 " /></a><a ewd:figtype="sp" style="cursor:pointer;" ewd:code="SP60" ewd:figID="54"><path style="&st2;" d=" M   208.22,   324.73  L   216.71,   324.73  L   220.96,   328.98  L   220.96,   337.48  L   216.71,   341.73  L   208.22,   341.73  L   203.97,   337.48  L   203.97,   328.98  L   208.22,   324.73 " /></a></g></svg>