<?xml version="1.0" encoding="utf-8"?>
<!DOCTYPE svg PUBLIC "-//W3C//DTD SVG 1.0//EN" "http://www.w3.org/TR/2001/REC-SVG-20010904/DTD/svg10.dtd"[
	<!ENTITY ns_flows "http://ns.adobe.com/Flows/1.0/">
	<!ENTITY ns_svg "http://www.w3.org/2000/svg">
	<!ENTITY ns_xlink "http://www.w3.org/1999/xlink">
	<!ENTITY st0 "font-size:7px;font-family:'MS-PGothic';adobe-font-script:japanese;">
	<!ENTITY st1 "font-size:6px;font-family:'ArialMT';">
	<!-- White fill  -->
	<!ENTITY st2 "fill:#FFFFFF;stroke:#000000; stroke-width:1.41;stroke-linecap:round;stroke-linejoin:round;">
	<!-- Yellow fill  -->
	<!ENTITY st3 "fill:#FFFFCC;stroke:#FFFFCC; stroke-width:0.1;stroke-linecap:round;stroke-linejoin:round;">
	<!-- Gray fill  -->
	<!ENTITY st4 "fill:#CCCCCC;stroke:#CCCCCC; stroke-width:0.1;stroke-linecap:round;stroke-linejoin:round;">
	<!-- Light-blue fill -->
	<!ENTITY st5 "fill:#CCECF4;stroke:#000000; stroke-width:1.133;stroke-linecap:round;stroke-linejoin:round;">
	<!ENTITY st6 "fill:none;stroke-linecap:butt; stroke-linejoin:round;">
	<!ENTITY st7 "fill:none;stroke:#000000;stroke-linecap:round;stroke-linejoin:round;">
	<!ENTITY st8 "enable-background:new    ;">
	<!-- Black fill -->
	<!ENTITY st9 "fill:#000000;stroke:#000000; stroke-linecap:round;stroke-linejoin:round;">
	<!-- SRS note   -->
	<!ENTITY st10 "font-size:9px;font-family:'ArialMT';">
	<!ENTITY st11 "font-size:9px;font-family:'Svg Symbol';">
	<!ENTITY st12 "font-size:6px;font-family:'Svg Symbol';">
	<!ENTITY st13 "fill:none;stroke:#ff0000;stroke-linecap:round;stroke-linejoin:round;">
	<!-- Yellow fill  -->
	<!ENTITY st14 "fill:#FFFF00;stroke:#FFFF00; stroke-width:0.1;stroke-linecap:round;stroke-linejoin:round;">
	<!ENTITY st15 "font-size:6px;font-family:'MS-PGothic';adobe-font-script:japanese;">
	<!ENTITY st16 "1.00 0.00 0.00 1.00">
	<!ENTITY st17 "0.00 -1.00 1.00 0.00">
	<!ENTITY st18 "font-size:6px;font-family:'Arial';">
	<!ENTITY st19 "font-size:9px;font-family:'Arial';">
	<!ENTITY st20 "font-size:6px;font-family:'MS-PGothic','MS PGothic';adobe-font-script:japanese;">
	<!ENTITY st21 "font-size:7px;font-family:'MS-PGothic','MS PGothic';adobe-font-script:japanese;">
	<!ATTLIST svg
		xmlns:ewd CDATA #FIXED "http://shcl.co.jp/ewd"
		xmlns:a CDATA #FIXED "http://ns.adobe.com/AdobeSVGViewerExtensions/3.0/"
		ewd:ver CDATA #IMPLIED
	>
	<!ATTLIST a
		ewd:lineID CDATA #IMPLIED
		ewd:groupID CDATA #IMPLIED
		ewd:figtype CDATA #IMPLIED
		ewd:code CDATA #IMPLIED
		ewd:figID CDATA #IMPLIED
		ewd:pinNo CDATA #IMPLIED
		ewd:comment CDATA #IMPLIED >
	<!ATTLIST g
		ewd:lineID CDATA #IMPLIED
		ewd:groupID CDATA #IMPLIED
		ewd:figtype CDATA #IMPLIED
		ewd:code CDATA #IMPLIED
		ewd:figID CDATA #IMPLIED
		ewd:pinNo CDATA #IMPLIED
		ewd:comment CDATA #IMPLIED >
	<!ATTLIST text
		ewd:textID CDATA #IMPLIED >
	<!ATTLIST title
		ewd:textID CDATA #IMPLIED >
]>
<!-- Generator: Shintec Hozumi YS   -->
<svg onload="call_execInitLoadProc_svg('system')" style="overflow:visible;  enable-background:new 0 0 3106.773 710.000" viewBox="0 0 3106.773 710.000" height="710.000" width="3106.773" xml:space="preserve" ewd:ver="2.1.2.9" xmlns="&ns_svg;" xmlns:a="http://ns.adobe.com/AdobeSVGViewerExtensions/3.0/" xmlns:ewd="http://shcl.co.jp/ewd" xmlns:xlink="&ns_xlink;">
<path style="stroke-width:1.42 ;&st7;  " d=" M  1427.76,   367.22  L  1436.26,   367.22  " /><text style="&st18;" transform="matrix(&st17;  1401.4  358.04 )">(LHD)</text><text style="&st18;" transform="matrix(&st17;  1390.07  352.19 )">G</text><text style="&st18;" transform="matrix(&st17;  1265.43  356.49 )">(*26)</text><text style="&st18;" transform="matrix(&st17;  1254.09  352.19 )">G</text><text style="&st18;" transform="matrix(&st17;  1299.42  356.49 )">(*12)</text><text style="&st18;" transform="matrix(&st17;  1288.09  352.19 )">G</text><text style="&st18;" transform="matrix(&st17;  1254.09  233.21 )">G</text><text style="&st18;" transform="matrix(&st16;  1245.89  159.56 )">DLC3</text><text style="&st18;" transform="matrix(&st16;  1245.88  152.74 )">I17</text><text style="&st18;" transform="matrix(&st17;  1475.06  352.19 )">G</text><text style="&st18;" transform="matrix(&st17;  1486.39  354.94 )">(*5)</text><text style="&st18;" transform="matrix(&st17;  1435.4  524.91 )">(*3)</text><text style="&st18;" transform="matrix(&st17;  1424.07  522.66 )">W</text><text style="&st18;" transform="matrix(&st17;  1265.43  237.51 )">(*32)</text><text style="&st18;" transform="matrix(&st17;  1401.4  532.05 )">(*20 *27)</text><text style="&st18;" transform="matrix(&st17;  1390.07  525.07 )">P-L</text><text style="&st18;" transform="matrix(&st17;  1001.97  424.48 )">(*26)</text><text style="&st18;" transform="matrix(&st16;  1416.8  406.02 )">G</text><text style="&st18;" transform="matrix(&st16;  1412.5  417.35 )">(*18)</text><text style="&st18;" transform="matrix(&st17;  1186.11  284.2 )">G</text><text style="&st18;" transform="matrix(&st17;  1197.44  295.64 )">(LHD *21)</text><text style="&st18;" transform="matrix(&st17;  1197.44  397.62 )">(LHD *21)</text><text style="&st18;" transform="matrix(&st17;  1186.11  386.18 )">G</text><text style="&st18;" transform="matrix(&st17;  1152.11  386.18 )">G</text><text style="&st18;" transform="matrix(&st17;  1163.44  390.49 )">(*28)</text><text style="&st18;" transform="matrix(&st16;  1008.87  677.97 )">G</text><text style="&st18;" transform="matrix(&st16;  1004.57  689.31 )">(*28)</text><text style="&st18;" transform="matrix(&st16;  1059.86  677.97 )">G</text><text style="&st18;" transform="matrix(&st16;  1055.56  689.31 )">(*28)</text><text style="&st18;" transform="matrix(&st16;  1008.87  643.98 )">G</text><text style="&st18;" transform="matrix(&st16;  1008.37  609.99 )">W</text><text style="&st18;" transform="matrix(&st16;  1006.12  621.32 )">(*3)</text><text style="&st18;" transform="matrix(&st16;  1005.96  584.49 )">P-L</text><text style="&st18;" transform="matrix(&st16;  1004.57  570.33 )">(*26)</text><text style="&st18;" transform="matrix(&st16;  1008.87  558.99 )">G</text><text style="&st18;" transform="matrix(&st16;  1059.86  558.99 )">G</text><text style="&st18;" transform="matrix(&st16;  1055.56  570.33 )">(*26)</text><text style="&st18;" transform="matrix(&st16;  1056.95  584.49 )">P-L</text><text style="&st18;" transform="matrix(&st16;  1049.98  595.82 )">(*20 *27)</text><text style="&st18;" transform="matrix(&st16;  1059.36  609.99 )">W</text><text style="&st18;" transform="matrix(&st16;  1057.11  621.32 )">(*3)</text><text style="&st18;" transform="matrix(&st16;  1004.57  655.31 )">(*11)</text><text style="&st18;" transform="matrix(&st16;  1059.86  643.98 )">G</text><text style="&st18;" transform="matrix(&st16;  1055.56  655.31 )">(*11)</text><text style="&st18;" transform="matrix(&st16;  1416.8  329.53 )">G</text><text style="&st18;" transform="matrix(&st16;  1410.91  340.86 )">(RHD)</text><g ewd:code="I59,I95" ewd:figID="9" ewd:comment="6,5" ewd:figtype="conn"><path style="stroke-width: 0.85 ;&st7; stroke-dasharray:3, 1.5;" d=" M  1266.29,   313.40  L  1376.77,   313.40  " /><path style="stroke-width: 0.85 ;&st7; stroke-dasharray:3, 1.5;" d=" M  1376.77,   295.27  L  1266.29,   295.27  " /><path style="stroke-width: 0.85 ;&st7; stroke-dasharray:3, 1.5;" d=" M  1266.29,   304.33  L  1381.02,   304.33  " /><path style="stroke-width:0.85 ;&st7;  " d=" M  1257.79,   273.74  L  1257.79,   290.74  " /><path style="stroke-width:1.42 ;&st7;  " d=" M  1249.29,   290.74  L  1402.27,   290.74  L  1402.27,   273.74  L  1249.29,   273.74  L  1249.29,   290.74  " /><path style="stroke-width:0.85 ;&st7;  " d=" M  1257.79,   282.24  L  1393.77,   282.24  L  1393.77,   290.74  " /><path style="stroke-width:0.85 ;&st7;  " d=" M  1256.60,   281.24  L  1256.32,   281.71  L  1256.23,   282.24  L  1256.32,   282.77  L  1256.60,   283.24  L  1257.01,   283.59  L  1257.52,   283.77  L  1258.06,   283.77  L  1258.57,   283.59  L  1258.98,   283.24  L  1259.25,   282.77  L  1259.35,   282.24  L  1259.25,   281.71  L  1258.98,   281.24  L  1258.57,   280.89  L  1258.06,   280.70  L  1257.52,   280.70  L  1257.01,   280.89  L  1256.60,   281.24  L  1256.99,   281.95  L  1256.99,   282.53  L  1257.36,   282.97  L  1257.94,   283.07  L  1258.44,   282.79  L  1258.64,   282.24  L  1258.44,   281.69  L  1257.94,   281.40  L  1257.36,   281.50  L  1257.79,   282.24  " /><text style="&st18;" transform="matrix(&st16;  1249.1  306.3 )">4</text><text style="&st18;" transform="matrix(&st16;  1245.99  315.37 )">12</text><text style="&st18;" transform="matrix(&st16;  1245.99  297.24 )">11</text><text style="&st18;" transform="matrix(&st16;  1255.49  297.24 )">A</text><path style="stroke-width:1.42 ;&st7;   " d=" M  1262.32,   304.33  C  1262.32    301.83   1260.29    299.80   1257.79    299.80  " /><path style="stroke-width:1.42 ;&st7;   " d=" M  1257.79,   299.80  C  1255.29    299.80   1253.26    301.83   1253.26    304.33  " /><path style="stroke-width:1.42 ;&st7;   " d=" M  1253.26,   304.33  C  1253.26    306.84   1255.29    308.87   1257.79    308.87  " /><path style="stroke-width:1.42 ;&st7;   " d=" M  1257.79,   308.87  C  1260.29    308.87   1262.32    306.84   1262.32    304.33  " /><path style="stroke-width:1.42 ;&st7;   " d=" M  1262.32,   295.27  C  1262.32    292.77   1260.29    290.74   1257.79    290.74  " /><path style="stroke-width:1.42 ;&st7;   " d=" M  1257.79,   290.74  C  1255.29    290.74   1253.26    292.77   1253.26    295.27  " /><path style="stroke-width:1.42 ;&st7;   " d=" M  1253.26,   295.27  C  1253.26    297.77   1255.29    299.80   1257.79    299.80  " /><path style="stroke-width:1.42 ;&st7;   " d=" M  1257.79,   299.80  C  1260.29    299.80   1262.32    297.77   1262.32    295.27  " /><path style="stroke-width:1.42 ;&st7;   " d=" M  1262.32,   313.40  C  1262.32    310.90   1260.29    308.87   1257.79    308.87  " /><path style="stroke-width:1.42 ;&st7;   " d=" M  1257.79,   308.87  C  1255.29    308.87   1253.26    310.90   1253.26    313.40  " /><path style="stroke-width:1.42 ;&st7;   " d=" M  1253.26,   313.40  C  1253.26    315.90   1255.29    317.93   1257.79    317.93  " /><path style="stroke-width:1.42 ;&st7;   " d=" M  1257.79,   317.93  C  1260.29    317.93   1262.32    315.90   1262.32    313.40  " /><text style="&st18;" transform="matrix(&st16;  1255.6  306.3 )">B</text><text style="&st18;" transform="matrix(&st16;  1255.6  315.37 )">B</text><text style="&st18;" transform="matrix(&st16;  1249.1  253.05 )">9</text><text style="&st18;" transform="matrix(&st16;  1249.1  262.11 )">5</text><text style="&st18;" transform="matrix(&st16;  1245.99  271.18 )">13</text><path style="stroke-width:1.42 ;&st7;   " d=" M  1262.32,   269.21  C  1262.32    266.70   1260.29    264.67   1257.79    264.67  " /><path style="stroke-width:1.42 ;&st7;   " d=" M  1257.79,   264.67  C  1255.29    264.67   1253.26    266.70   1253.26    269.21  " /><path style="stroke-width:1.42 ;&st7;   " d=" M  1253.26,   269.21  C  1253.26    271.71   1255.29    273.74   1257.79    273.74  " /><path style="stroke-width:1.42 ;&st7;   " d=" M  1257.79,   273.74  C  1260.29    273.74   1262.32    271.71   1262.32    269.21  " /><text style="&st18;" transform="matrix(&st16;  1255.6  271.18 )">B</text><text style="&st18;" transform="matrix(&st16;  1255.6  262.11 )">B</text><text style="&st18;" transform="matrix(&st16;  1255.49  253.05 )">A</text><path style="stroke-width:1.42 ;&st7;   " d=" M  1262.32,   260.14  C  1262.32    257.64   1260.29    255.61   1257.79    255.61  " /><path style="stroke-width:1.42 ;&st7;   " d=" M  1257.79,   255.61  C  1255.29    255.61   1253.26    257.64   1253.26    260.14  " /><path style="stroke-width:1.42 ;&st7;   " d=" M  1253.26,   260.14  C  1253.26    262.65   1255.29    264.67   1257.79    264.67  " /><path style="stroke-width:1.42 ;&st7;   " d=" M  1257.79,   264.67  C  1260.29    264.67   1262.32    262.65   1262.32    260.14  " /><path style="stroke-width:1.42 ;&st7;   " d=" M  1262.32,   251.08  C  1262.32    248.57   1260.29    246.54   1257.79    246.54  " /><path style="stroke-width:1.42 ;&st7;   " d=" M  1257.79,   246.54  C  1255.29    246.54   1253.26    248.57   1253.26    251.08  " /><path style="stroke-width:1.42 ;&st7;   " d=" M  1253.26,   251.08  C  1253.26    253.58   1255.29    255.61   1257.79    255.61  " /><path style="stroke-width:1.42 ;&st7;   " d=" M  1257.79,   255.61  C  1260.29    255.61   1262.32    253.58   1262.32    251.08  " /><text style="&st18;" transform="matrix(&st16;  1385.07  306.3 )">6</text><text style="&st18;" transform="matrix(&st16;  1381.97  315.37 )">14</text><text style="&st18;" transform="matrix(&st16;  1381.97  297.24 )">10</text><text style="&st18;" transform="matrix(&st16;  1391.58  315.37 )">B</text><text style="&st18;" transform="matrix(&st16;  1391.46  297.24 )">A</text><text style="&st18;" transform="matrix(&st16;  1391.58  306.3 )">B</text><path style="stroke-width:1.42 ;&st7;   " d=" M  1398.30,   313.40  C  1398.30    310.90   1396.27    308.87   1393.77    308.87  " /><path style="stroke-width:1.42 ;&st7;   " d=" M  1393.77,   308.87  C  1391.26    308.87   1389.23    310.90   1389.23    313.40  " /><path style="stroke-width:1.42 ;&st7;   " d=" M  1389.23,   313.40  C  1389.23    315.90   1391.26    317.93   1393.77    317.93  " /><path style="stroke-width:1.42 ;&st7;   " d=" M  1393.77,   317.93  C  1396.27    317.93   1398.30    315.90   1398.30    313.40  " /><path style="stroke-width:1.42 ;&st7;   " d=" M  1398.30,   304.33  C  1398.30    301.83   1396.27    299.80   1393.77    299.80  " /><path style="stroke-width:1.42 ;&st7;   " d=" M  1393.77,   299.80  C  1391.26    299.80   1389.23    301.83   1389.23    304.33  " /><path style="stroke-width:1.42 ;&st7;   " d=" M  1389.23,   304.33  C  1389.23    306.84   1391.26    308.87   1393.77    308.87  " /><path style="stroke-width:1.42 ;&st7;   " d=" M  1393.77,   308.87  C  1396.27    308.87   1398.30    306.84   1398.30    304.33  " /><path style="stroke-width:1.42 ;&st7;   " d=" M  1398.30,   295.27  C  1398.30    292.77   1396.27    290.74   1393.77    290.74  " /><path style="stroke-width:1.42 ;&st7;   " d=" M  1393.77,   290.74  C  1391.26    290.74   1389.23    292.77   1389.23    295.27  " /><path style="stroke-width:1.42 ;&st7;   " d=" M  1389.23,   295.27  C  1389.23    297.77   1391.26    299.80   1393.77    299.80  " /><path style="stroke-width:1.42 ;&st7;   " d=" M  1393.77,   299.80  C  1396.27    299.80   1398.30    297.77   1398.30    295.27  " /><g ewd:figtype="title"><text style="&st18;" transform="matrix(&st16;  1296.88  255.88 )" ewd:textID="41">No. 18 Junction Connector</text><text style="&st18;" transform="matrix(&st16;  1296.87  249.05 )">I95(A)</text><text style="&st18;" transform="matrix(&st16;  1296.87  263.22 )">I59(B)</text><text style="&st18;" transform="matrix(&st16;  1296.88  270.04 )" ewd:textID="35">No. 10 Junction Connector</text></g><g ewd:code="" ewd:figID="81" ewd:comment="" ewd:figtype="commref"><text style="&st18;" transform="matrix(&st16;  1262.88  253.05 )">(LHD)</text></g><g ewd:code="" ewd:figID="82" ewd:comment="6" ewd:figtype="commref"><text style="&st18;" transform="matrix(&st16;  1262.88  271.18 )">(*6)</text></g><g ewd:code="" ewd:figID="83" ewd:comment="5" ewd:figtype="commref"><text style="&st18;" transform="matrix(&st16;  1262.88  262.11 )">(*5)</text></g><g ewd:code="" ewd:figID="84" ewd:comment="6" ewd:figtype="commref"><text style="&st18;" transform="matrix(&st16;  1398.86  315.37 )">(*6)</text></g><g ewd:code="" ewd:figID="85" ewd:comment="5" ewd:figtype="commref"><text style="&st18;" transform="matrix(&st16;  1398.86  306.3 )">(*5)</text></g><g ewd:code="" ewd:figID="86" ewd:comment="" ewd:figtype="commref"><text style="&st18;" transform="matrix(&st16;  1398.86  297.24 )">(LHD)</text></g></g><g ewd:figtype="conn" ewd:figID="19" ewd:code="I72"><path style="stroke-width:1.42 ;&st7;  " d=" M  1147.31,   333.23  L  1147.31,   350.23  L  1198.30,   350.23  L  1198.30,   333.23  L  1147.31,   333.23  " /><path style="stroke-width:0.85 ;&st7;  " d=" M  1155.81,   350.23  L  1155.81,   341.73  L  1189.80,   341.73  " /><path style="stroke-width:0.85 ;&st7;  " d=" M  1189.80,   333.23  L  1189.80,   350.23  " /><path style="stroke-width:0.85 ;&st7;  " d=" M  1188.61,   340.73  L  1188.34,   341.20  L  1188.24,   341.73  L  1188.34,   342.26  L  1188.61,   342.73  L  1189.02,   343.08  L  1189.53,   343.26  L  1190.07,   343.26  L  1190.58,   343.08  L  1190.99,   342.73  L  1191.27,   342.26  L  1191.36,   341.73  L  1191.27,   341.20  L  1190.99,   340.73  L  1190.58,   340.38  L  1190.07,   340.19  L  1189.53,   340.19  L  1189.02,   340.38  L  1188.61,   340.73  L  1189.00,   341.44  L  1189.00,   342.02  L  1189.38,   342.46  L  1189.95,   342.56  L  1190.45,   342.28  L  1190.65,   341.73  L  1190.45,   341.18  L  1189.95,   340.89  L  1189.38,   340.99  L  1189.80,   341.73  " /><text style="&st18;" transform="matrix(&st16;  1144.01  356.73 )">22</text><text style="&st18;" transform="matrix(&st16;  1153.5  356.73 )">A</text><path style="stroke-width:1.42 ;&st7;   " d=" M  1160.34,   354.76  C  1160.34    352.26   1158.31    350.23   1155.81    350.23  " /><path style="stroke-width:1.42 ;&st7;   " d=" M  1155.81,   350.23  C  1153.30    350.23   1151.27    352.26   1151.27    354.76  " /><path style="stroke-width:1.42 ;&st7;   " d=" M  1151.27,   354.76  C  1151.27    357.26   1153.30    359.29   1155.81    359.29  " /><path style="stroke-width:1.42 ;&st7;   " d=" M  1155.81,   359.29  C  1158.31    359.29   1160.34    357.26   1160.34    354.76  " /><text style="&st18;" transform="matrix(&st16;  1178.01  330.67 )">19</text><text style="&st18;" transform="matrix(&st16;  1187.5  330.67 )">A</text><path style="stroke-width:1.42 ;&st7;   " d=" M  1194.33,   328.70  C  1194.33    326.19   1192.30    324.16   1189.80    324.16  " /><path style="stroke-width:1.42 ;&st7;   " d=" M  1189.80,   324.16  C  1187.30    324.16   1185.27    326.19   1185.27    328.70  " /><path style="stroke-width:1.42 ;&st7;   " d=" M  1185.27,   328.70  C  1185.27    331.20   1187.30    333.23   1189.80    333.23  " /><path style="stroke-width:1.42 ;&st7;   " d=" M  1189.80,   333.23  C  1192.30    333.23   1194.33    331.20   1194.33    328.70  " /><text style="&st18;" transform="matrix(&st16;  1178.01  356.73 )">20</text><path style="stroke-width:1.42 ;&st7;   " d=" M  1194.33,   354.76  C  1194.33    352.26   1192.30    350.23   1189.80    350.23  " /><path style="stroke-width:1.42 ;&st7;   " d=" M  1189.80,   350.23  C  1187.30    350.23   1185.27    352.26   1185.27    354.76  " /><path style="stroke-width:1.42 ;&st7;   " d=" M  1185.27,   354.76  C  1185.27    357.26   1187.30    359.29   1189.80    359.29  " /><path style="stroke-width:1.42 ;&st7;   " d=" M  1189.80,   359.29  C  1192.30    359.29   1194.33    357.26   1194.33    354.76  " /><text style="&st18;" transform="matrix(&st16;  1187.5  356.73 )">A</text><g ewd:figtype="title"><text style="&st18;" transform="matrix(&st17;  1213.02  353.13 )" ewd:textID="43">No. 21 <tspan x="0 " dy="6.0">Junction Connector</tspan></text><text style="&st18;" transform="matrix(&st17;  1206.19  353.13 )">I72(A)</text></g></g><g ewd:figtype="conn" ewd:figID="20" ewd:code="A31"><path style="stroke-width:1.42 ;&st7;  " d=" M  1461.76,   307.73  L  1495.75,   307.73  L  1495.75,   273.74  L  1461.76,   273.74  L  1461.76,   307.73  " /><text style="&st18;" transform="matrix(&st16;  1466.96  314.24 )">14</text><path style="stroke-width:1.42 ;&st7;   " d=" M  1483.29,   312.27  C  1483.29    309.76   1481.26    307.73   1478.75    307.73  " /><path style="stroke-width:1.42 ;&st7;   " d=" M  1478.75,   307.73  C  1476.25    307.73   1474.22    309.76   1474.22    312.27  " /><path style="stroke-width:1.42 ;&st7;   " d=" M  1474.22,   312.27  C  1474.22    314.77   1476.25    316.80   1478.75    316.80  " /><path style="stroke-width:1.42 ;&st7;   " d=" M  1478.75,   316.80  C  1481.26    316.80   1483.29    314.77   1483.29    312.27  " /><text style="&st18;" transform="matrix(&st16;  1476.56  314.24 )">B</text><text style="&st18;" transform="matrix(&st16;  1474.39  304.04 )">TC</text><g ewd:figtype="title"><text style="&st18;" transform="matrix(&st16;  1458.34  257.27 )">A31(B)</text><text style="&st18;" transform="matrix(&st16;  1458.35  264.09 )" ewd:textID="26">Emission <tspan x="0 " dy="6.0">Control ECU</tspan></text></g></g><g ewd:figtype="conn" ewd:figID="21" ewd:code="A29,I84"><path style="stroke-width: 0.85 ;&st7; stroke-dasharray:3, 1.5;" d=" M  1402.27,   491.30  L  1410.76,   491.30  " /><path style="stroke-width:1.42 ;&st7;  " d=" M  1376.77,   477.71  L  1750.71,   477.71  L  1750.71,   443.71  L  1376.77,   443.71  L  1376.77,   477.71  " /><g ewd:lineID="34"><text style="&st18;" transform="matrix(&st16;  1415.97  493.27 )">19</text><path style="stroke-width:0.85 ;&st7;  " d=" M  1427.76,   477.71  L  1427.76,   486.77  " /><text style="&st18;" transform="matrix(&st16;  1425.46  493.27 )">A</text><path style="stroke-width:1.42 ;&st7;   " d=" M  1432.29,   491.30  C  1432.29    488.80   1430.26    486.77   1427.76    486.77  " /><path style="stroke-width:1.42 ;&st7;   " d=" M  1427.76,   486.77  C  1425.26    486.77   1423.23    488.80   1423.23    491.30  " /><path style="stroke-width:1.42 ;&st7;   " d=" M  1423.23,   491.30  C  1423.23    493.81   1425.26    495.84   1427.76    495.84  " /><path style="stroke-width:1.42 ;&st7;   " d=" M  1427.76,   495.84  C  1430.26    495.84   1432.29    493.81   1432.29    491.30  " /><text style="&st18;" transform="matrix(&st16;  1423.25  474.01 )">SIL</text></g><g ewd:lineID="51"><path style="stroke-width:0.85 ;&st7;  " d=" M  1393.77,   477.71  L  1393.77,   486.77  " /><text style="&st18;" transform="matrix(&st16;  1381.97  493.27 )">29</text><text style="&st18;" transform="matrix(&st16;  1391.46  493.27 )">A</text><path style="stroke-width:1.42 ;&st7;   " d=" M  1398.30,   491.30  C  1398.30    488.80   1396.27    486.77   1393.77    486.77  " /><path style="stroke-width:1.42 ;&st7;   " d=" M  1393.77,   486.77  C  1391.26    486.77   1389.23    488.80   1389.23    491.30  " /><path style="stroke-width:1.42 ;&st7;   " d=" M  1389.23,   491.30  C  1389.23    493.81   1391.26    495.84   1393.77    495.84  " /><path style="stroke-width:1.42 ;&st7;   " d=" M  1393.77,   495.84  C  1396.27    495.84   1398.30    493.81   1398.30    491.30  " /><text style="&st18;" transform="matrix(&st16;  1385.53  474.01 )">WFSE</text></g><g ewd:lineID="52,53,54"><text style="&st18;" transform="matrix(&st16;  1381.97  432.08 )">27</text><text style="&st18;" transform="matrix(&st16;  1381.97  441.15 )">27</text><text style="&st18;" transform="matrix(&st16;  1391.46  441.15 )">A</text><text style="&st18;" transform="matrix(&st16;  1391.35  432.08 )">C</text><path style="stroke-width:1.42 ;&st7;   " d=" M  1398.30,   439.18  C  1398.30    436.68   1396.27    434.65   1393.77    434.65  " /><path style="stroke-width:1.42 ;&st7;   " d=" M  1393.77,   434.65  C  1391.26    434.65   1389.23    436.68   1389.23    439.18  " /><path style="stroke-width:1.42 ;&st7;   " d=" M  1389.23,   439.18  C  1389.23    441.68   1391.26    443.71   1393.77    443.71  " /><path style="stroke-width:1.42 ;&st7;   " d=" M  1393.77,   443.71  C  1396.27    443.71   1398.30    441.68   1398.30    439.18  " /><path style="stroke-width:1.42 ;&st7;   " d=" M  1398.30,   430.11  C  1398.30    427.61   1396.27    425.58   1393.77    425.58  " /><path style="stroke-width:1.42 ;&st7;   " d=" M  1393.77,   425.58  C  1391.26    425.58   1389.23    427.61   1389.23    430.11  " /><path style="stroke-width:1.42 ;&st7;   " d=" M  1389.23,   430.11  C  1389.23    432.62   1391.26    434.65   1393.77    434.65  " /><path style="stroke-width:1.42 ;&st7;   " d=" M  1393.77,   434.65  C  1396.27    434.65   1398.30    432.62   1398.30    430.11  " /><text style="&st18;" transform="matrix(&st16;  1389.41  451.35 )">TC</text><g ewd:code="" ewd:figID="115" ewd:comment="" ewd:figtype="commref"><text style="&st18;" transform="matrix(&st16;  1398.86  432.08 )">(LHD)</text></g><g ewd:code="" ewd:figID="116" ewd:comment="" ewd:figtype="commref"><text style="&st18;" transform="matrix(&st16;  1398.86  441.15 )">(RHD)</text></g></g><g ewd:figtype="title"><text style="&st18;" transform="matrix(&st16;  1466.84  485.6 )">A29(A),I84(C)</text><text style="&st18;" transform="matrix(&st16;  1466.85  492.42 )">ECM</text></g></g><g ewd:code="AI3" ewd:figID="44" ewd:comment="6" ewd:figtype="w2w"><text style="&st18;" transform="matrix(&st16;  1420.53  381.94 )">59</text><g ewd:code="" ewd:figID="80" ewd:comment="6" ewd:figtype="commref"><text style="&st18;" transform="matrix(&st16;  1445.29  381.94 )">(*6)</text></g></g><g ewd:code="AI3" ewd:figID="45" ewd:comment="5" ewd:figtype="w2w"><path style="stroke-width:1.42 ;&st7;  " d=" M  1432.01,   358.16  L  1436.26,   362.41  L  1440.51,   358.16  " /><path style="stroke-width:1.42 ;&st7;  " d=" M  1440.51,   361.56  L  1436.26,   365.81  L  1432.01,   361.56  " /><text style="&st18;" transform="matrix(&st16;  1420.53  373.44 )">57</text><g ewd:code="" ewd:figID="79" ewd:comment="5" ewd:figtype="commref"><text style="&st18;" transform="matrix(&st16;  1445.29  373.44 )">(*5)</text></g></g><g ewd:code="" ewd:figID="113" ewd:comment="" ewd:figtype="commref"><text style="&st18;" transform="matrix(&st16;  1432.85  493.27 )">(RHD)</text></g><g ewd:code="21" ewd:figID="128" ewd:comment="" ewd:figtype="comment"><text style="&st18;" transform="matrix(&st16;  1194.89  37.75 )" ewd:textID="13">*21 :w/ VSC</text></g><g ewd:code="27" ewd:figID="177" ewd:comment="" ewd:figtype="comment"><text style="&st18;" transform="matrix(&st16;  1194.89  63.24 )">*27 :RHD 1VD-FTV</text></g><g ewd:code="3" ewd:figID="123" ewd:comment="" ewd:figtype="comment"><text style="&st18;" transform="matrix(&st16;  1075.91  37.75 )">* 3 :1VD-FTV</text></g><g ewd:code="18" ewd:figID="125" ewd:comment="" ewd:figtype="comment"><text style="&st18;" transform="matrix(&st16;  1075.91  105.74 )">*18 :RHD 1GR-FE, RHD 1VD-FTV</text></g><g ewd:code="15" ewd:figID="126" ewd:comment="" ewd:figtype="comment"><text style="&st18;" transform="matrix(&st16;  1075.91  97.24 )" ewd:textID="8">*15 :1GR-FE w/o VSC, 1VD-FTV w/o VSC, 1HZ w/ ABS</text></g><g ewd:code="22" ewd:figID="119" ewd:comment="" ewd:figtype="comment"><text style="&st18;" transform="matrix(&st16;  1194.89  46.25 )" ewd:textID="14">*22 :w/o ABS</text></g><g ewd:code="32" ewd:figID="185" ewd:comment="21" ewd:figtype="comment"><text style="&st18;" transform="matrix(&st16;  1194.89  80.24 )" ewd:textID="20">*32 :Except LHD *21</text></g><g ewd:code="33" ewd:figID="179" ewd:comment="" ewd:figtype="comment"><text style="&st18;" transform="matrix(&st16;  1194.89  88.74 )">*33 :LHD 1VD-FTV</text></g><g ewd:code="1" ewd:figID="118" ewd:comment="" ewd:figtype="comment"><text style="&st18;" transform="matrix(&st16;  1075.91  29.25 )">* 1 :1GR-FE</text></g><g ewd:code="11" ewd:figID="122" ewd:comment="" ewd:figtype="comment"><text style="&st18;" transform="matrix(&st16;  1075.91  80.24 )" ewd:textID="4">*11 :w/ SRS w/ ABS</text></g><g ewd:code="9" ewd:figID="124" ewd:comment="" ewd:figtype="comment"><text style="&st18;" transform="matrix(&st16;  1075.91  71.74 )" ewd:textID="2">* 9 :w/ ABS w/o VSC</text></g><g ewd:code="6" ewd:figID="171" ewd:comment="" ewd:figtype="comment"><text style="&st18;" transform="matrix(&st16;  1075.91  54.75 )" ewd:textID="1">* 6 :RHD Except 1HZ</text></g><g ewd:code="26" ewd:figID="176" ewd:comment="" ewd:figtype="comment"><text style="&st18;" transform="matrix(&st16;  1194.89  54.75 )" ewd:textID="18">*26 :w/ SRS w/o VSC</text></g><g ewd:code="7" ewd:figID="120" ewd:comment="" ewd:figtype="comment"><text style="&st18;" transform="matrix(&st16;  1075.91  63.24 )">* 7 :LHD 1GR-FE</text></g><g ewd:code="5" ewd:figID="172" ewd:comment="" ewd:figtype="comment"><text style="&st18;" transform="matrix(&st16;  1075.91  46.25 )">* 5 :RHD 1HZ</text></g><g ewd:code="28" ewd:figID="175" ewd:comment="" ewd:figtype="comment"><text style="&st18;" transform="matrix(&st16;  1194.89  71.74 )" ewd:textID="19">*28 :w/ Tire Pressure Warning System</text></g><g ewd:code="12" ewd:figID="121" ewd:comment="" ewd:figtype="comment"><text style="&st18;" transform="matrix(&st16;  1075.91  88.74 )" ewd:textID="5">*12 :w/o SRS w/ ABS</text></g><g ewd:code="20" ewd:figID="184" ewd:comment="" ewd:figtype="comment"><text style="&st18;" transform="matrix(&st16;  1194.89  29.25 )" ewd:textID="12">*20 :Except Australia</text></g></svg>