<?xml version="1.0" encoding="utf-8"?>
<!DOCTYPE svg PUBLIC "-//W3C//DTD SVG 1.0//EN" "http://www.w3.org/TR/2001/REC-SVG-20010904/DTD/svg10.dtd"[
	<!ENTITY ns_flows "http://ns.adobe.com/Flows/1.0/">
	<!ENTITY ns_svg "http://www.w3.org/2000/svg">
	<!ENTITY ns_xlink "http://www.w3.org/1999/xlink">
	<!ENTITY st0 "font-size:7px;font-family:'MS-PGothic';adobe-font-script:japanese;">
	<!ENTITY st1 "font-size:6px;font-family:'ArialMT';">
	<!-- White fill  -->
	<!ENTITY st2 "fill:#FFFFFF;stroke:#000000; stroke-width:1.41;stroke-linecap:round;stroke-linejoin:round;">
	<!-- Yellow fill  -->
	<!ENTITY st3 "fill:#FFFFCC;stroke:#FFFFCC; stroke-width:0.1;stroke-linecap:round;stroke-linejoin:round;">
	<!-- Gray fill  -->
	<!ENTITY st4 "fill:#CCCCCC;stroke:#CCCCCC; stroke-width:0.1;stroke-linecap:round;stroke-linejoin:round;">
	<!-- Light-blue fill -->
	<!ENTITY st5 "fill:#CCECF4;stroke:#000000; stroke-width:1.133;stroke-linecap:round;stroke-linejoin:round;">
	<!ENTITY st6 "fill:none;stroke-linecap:butt; stroke-linejoin:round;">
	<!ENTITY st7 "fill:none;stroke:#000000;stroke-linecap:round;stroke-linejoin:round;">
	<!ENTITY st8 "enable-background:new    ;">
	<!-- Black fill -->
	<!ENTITY st9 "fill:#000000;stroke:#000000; stroke-linecap:round;stroke-linejoin:round;">
	<!-- SRS note   -->
	<!ENTITY st10 "font-size:9px;font-family:'ArialMT';">
	<!ENTITY st11 "font-size:9px;font-family:'Svg Symbol';">
	<!ENTITY st12 "font-size:6px;font-family:'Svg Symbol';">
	<!ENTITY st13 "fill:none;stroke:#ff0000;stroke-linecap:round;stroke-linejoin:round;">
	<!-- Yellow fill  -->
	<!ENTITY st14 "fill:#FFFF00;stroke:#FFFF00; stroke-width:0.1;stroke-linecap:round;stroke-linejoin:round;">
	<!ENTITY st15 "font-size:6px;font-family:'MS-PGothic';adobe-font-script:japanese;">
	<!ENTITY st16 "1.00 0.00 0.00 1.00">
	<!ENTITY st17 "0.00 -1.00 1.00 0.00">
	<!ENTITY st18 "font-size:6px;font-family:'Arial';">
	<!ENTITY st19 "font-size:9px;font-family:'Arial';">
	<!ENTITY st20 "font-size:6px;font-family:'MS-PGothic','MS PGothic';adobe-font-script:japanese;">
	<!ENTITY st21 "font-size:7px;font-family:'MS-PGothic','MS PGothic';adobe-font-script:japanese;">
	<!ATTLIST svg
		xmlns:ewd CDATA #FIXED "http://shcl.co.jp/ewd"
		xmlns:a CDATA #FIXED "http://ns.adobe.com/AdobeSVGViewerExtensions/3.0/"
		ewd:ver CDATA #IMPLIED
	>
	<!ATTLIST a
		ewd:lineID CDATA #IMPLIED
		ewd:groupID CDATA #IMPLIED
		ewd:figtype CDATA #IMPLIED
		ewd:code CDATA #IMPLIED
		ewd:figID CDATA #IMPLIED
		ewd:pinNo CDATA #IMPLIED
		ewd:comment CDATA #IMPLIED >
	<!ATTLIST g
		ewd:lineID CDATA #IMPLIED
		ewd:groupID CDATA #IMPLIED
		ewd:figtype CDATA #IMPLIED
		ewd:code CDATA #IMPLIED
		ewd:figID CDATA #IMPLIED
		ewd:pinNo CDATA #IMPLIED
		ewd:comment CDATA #IMPLIED >
	<!ATTLIST text
		ewd:textID CDATA #IMPLIED >
	<!ATTLIST title
		ewd:textID CDATA #IMPLIED >
]>
<!-- Generator: Shintec Hozumi YS   -->
<svg onload="call_execInitLoadProc_svg('system')" style="overflow:visible;  enable-background:new 0 0 3106.773 710.000" viewBox="0 0 3106.773 710.000" height="710.000" width="3106.773" xml:space="preserve" ewd:ver="2.1.2.9" xmlns="&ns_svg;" xmlns:a="http://ns.adobe.com/AdobeSVGViewerExtensions/3.0/" xmlns:ewd="http://shcl.co.jp/ewd" xmlns:xlink="&ns_xlink;">
<path style="stroke-width:1.42 ;&st7;  " d=" M   705.38,   435.21  L   713.88,   435.21  " /><text style="&st18;" transform="matrix(&st17;  874.49  424.48 )">(*26)</text><text style="&st18;" transform="matrix(&st17;  721.52  489.55 )">(*20 *27)</text><text style="&st18;" transform="matrix(&st17;  789.51  297.0 )">(*27)</text><text style="&st18;" transform="matrix(&st17;  916.98  424.48 )">(*26)</text><text style="&st18;" transform="matrix(&st17;  905.65  420.18 )">G</text><text style="&st18;" transform="matrix(&st17;  710.19  482.57 )">P-L</text><text style="&st18;" transform="matrix(&st17;  778.17  295.61 )">P-L</text><text style="&st18;" transform="matrix(&st17;  679.02  482.42 )">(*3)</text><text style="&st18;" transform="matrix(&st17;  667.69  480.17 )">W</text><text style="&st18;" transform="matrix(&st17;  863.16  420.68 )">W</text><text style="&st18;" transform="matrix(&st17;  619.54  285.59 )">(*10 *32)</text><text style="&st18;" transform="matrix(&st17;  608.2  276.2 )">W</text><text style="&st18;" transform="matrix(&st17;  619.54  387.57 )">(*13 *32)</text><text style="&st18;" transform="matrix(&st17;  679.02  380.44 )">(*3)</text><text style="&st18;" transform="matrix(&st17;  667.69  378.19 )">W</text><text style="&st18;" transform="matrix(&st17;  608.2  378.19 )">W</text><path style="stroke-width:1.42 ;&st7;  " d=" M   662.89,   435.21  L   671.39,   435.21  " /><text style="&st18;" transform="matrix(&st17;  874.49  297.0 )">(*26)</text><text style="&st18;" transform="matrix(&st17;  863.16  293.2 )">W</text><text style="&st18;" transform="matrix(&st17;  956.64  420.18 )">G</text><text style="&st18;" transform="matrix(&st17;  967.98  424.48 )">(*11)</text><text style="&st18;" transform="matrix(&st17;  608.2  480.17 )">W</text><text style="&st18;" transform="matrix(&st17;  619.53  483.97 )">(*13)</text><text style="&st18;" transform="matrix(&st17;  812.17  295.61 )">P-L</text><text style="&st18;" transform="matrix(&st17;  823.5  304.14 )">(LHD *21)</text><path style="stroke-width:1.42 ;&st7;  " d=" M   603.40,   435.21  L   611.90,   435.21  " /><text style="&st18;" transform="matrix(&st17;  778.17  423.08 )">P-L</text><text style="&st18;" transform="matrix(&st17;  789.51  424.48 )">(*19)</text><text style="&st18;" transform="matrix(&st17;  710.19  414.59 )">P-L</text><text style="&st18;" transform="matrix(&st17;  721.52  421.56 )">(*20 *27)</text><text style="&st18;" transform="matrix(&st16;  549.44  414.52 )">W</text><text style="&st18;" transform="matrix(&st16;  532.93  425.85 )">(LHD *13 *21)</text><text style="&st18;" transform="matrix(&st16;  549.44  219.05 )">W</text><text style="&st18;" transform="matrix(&st16;  538.51  230.38 )">(LHD *21)</text><text style="&st18;" transform="matrix(&st16;  549.95  677.97 )">G</text><text style="&st18;" transform="matrix(&st16;  545.64  689.31 )">(*28)</text><text style="&st18;" transform="matrix(&st16;  821.4  516.5 )">W</text><text style="&st18;" transform="matrix(&st16;  810.43  527.83 )">(RHD *21)</text><text style="&st18;" transform="matrix(&st16;  818.99  542.0 )">P-L</text><text style="&st18;" transform="matrix(&st16;  810.46  553.33 )">(LHD *21)</text><text style="&st18;" transform="matrix(&st17;  667.69  276.2 )">W</text><text style="&st18;" transform="matrix(&st17;  679.02  280.0 )">(*26)</text><text style="&st18;" transform="matrix(&st17;  990.64  420.18 )">G</text><text style="&st18;" transform="matrix(&st16;  727.47  152.74 )">I17</text><text style="&st18;" transform="matrix(&st16;  727.47  159.56 )">DLC3</text><text style="&st18;" transform="matrix(&st16;  998.98  595.82 )">(*20 *27)</text><g ewd:figtype="conn" ewd:figID="5" ewd:code="L30"><path style="stroke-width:1.42 ;&st7;  " d=" M   594.90,   545.69  L   594.90,   511.70  L   628.89,   511.70  L   628.89,   545.69  L   594.90,   545.69  " /><text style="&st18;" transform="matrix(&st16;  605.71  508.01 )">9</text><text style="&st18;" transform="matrix(&st16;  609.52  519.33 )">D</text><g ewd:figtype="title"><text style="&st18;" transform="matrix(&st16;  591.5  560.41 )" ewd:textID="46">Transponder <tspan x="0 " dy="6.0">Key ECU </tspan><tspan x="0 " dy="6.0">Assembly</tspan></text><text style="&st18;" transform="matrix(&st16;  591.49  553.59 )">L30</text></g></g><g ewd:figtype="conn" ewd:figID="6" ewd:code="I61,I72"><path style="stroke-width: 0.85 ;&st7; stroke-dasharray:3, 1.5;" d=" M   620.40,   346.83  L   654.39,   346.83  " /><path style="stroke-width: 0.85 ;&st7; stroke-dasharray:3, 1.5;" d=" M   654.39,   311.70  L   620.40,   311.70  " /><path style="stroke-width: 0.85 ;&st7; stroke-dasharray:3, 1.5;" d=" M   654.39,   302.63  L   620.40,   302.63  " /><path style="stroke-width:0.85 ;&st7;  " d=" M   671.39,   316.23  L   671.39,   324.73  " /><path style="stroke-width:0.85 ;&st7;  " d=" M   611.90,   316.23  L   611.90,   333.23  " /><path style="stroke-width:1.42 ;&st7;  " d=" M   603.40,   333.23  L   679.89,   333.23  L   679.89,   316.23  L   603.40,   316.23  L   603.40,   333.23  " /><path style="stroke-width:0.85 ;&st7;  " d=" M   610.70,   323.73  L   610.43,   324.20  L   610.34,   324.73  L   610.43,   325.26  L   610.70,   325.73  L   611.12,   326.08  L   611.63,   326.27  L   612.17,   326.27  L   612.68,   326.08  L   613.09,   325.73  L   613.36,   325.26  L   613.46,   324.73  L   613.36,   324.20  L   613.09,   323.73  L   612.68,   323.38  L   612.17,   323.20  L   611.63,   323.20  L   611.12,   323.38  L   610.70,   323.73  L   611.10,   324.44  L   611.10,   325.02  L   611.47,   325.47  L   612.04,   325.57  L   612.55,   325.28  L   612.75,   324.73  L   612.55,   324.18  L   612.04,   323.90  L   611.47,   323.99  L   611.90,   324.73  " /><path style="stroke-width:0.85 ;&st7;  " d=" M   611.90,   324.73  L   671.39,   324.73  L   671.39,   333.23  " /><path style="stroke-width:0.85 ;&st7;  " d=" M   670.19,   323.73  L   669.92,   324.20  L   669.83,   324.73  L   669.92,   325.26  L   670.19,   325.73  L   670.61,   326.08  L   671.12,   326.27  L   671.66,   326.27  L   672.17,   326.08  L   672.58,   325.73  L   672.85,   325.26  L   672.95,   324.73  L   672.85,   324.20  L   672.58,   323.73  L   672.17,   323.38  L   671.66,   323.20  L   671.12,   323.20  L   670.61,   323.38  L   670.19,   323.73  L   670.59,   324.44  L   670.59,   325.02  L   670.96,   325.47  L   671.53,   325.57  L   672.04,   325.28  L   672.24,   324.73  L   672.04,   324.18  L   671.53,   323.90  L   670.96,   323.99  L   671.39,   324.73  " /><text style="&st18;" transform="matrix(&st16;  600.1  339.73 )">17</text><text style="&st18;" transform="matrix(&st16;  600.1  348.8 )">21</text><path style="stroke-width:1.42 ;&st7;   " d=" M   616.43,   337.76  C   616.43    335.26    614.40    333.23    611.90    333.23  " /><path style="stroke-width:1.42 ;&st7;   " d=" M   611.90,   333.23  C   609.39    333.23    607.37    335.26    607.37    337.76  " /><path style="stroke-width:1.42 ;&st7;   " d=" M   607.37,   337.76  C   607.37    340.27    609.39    342.29    611.90    342.29  " /><path style="stroke-width:1.42 ;&st7;   " d=" M   611.90,   342.29  C   614.40    342.29    616.43    340.27    616.43    337.76  " /><path style="stroke-width:1.42 ;&st7;   " d=" M   616.43,   346.83  C   616.43    344.32    614.40    342.29    611.90    342.29  " /><path style="stroke-width:1.42 ;&st7;   " d=" M   611.90,   342.29  C   609.39    342.29    607.37    344.32    607.37    346.83  " /><path style="stroke-width:1.42 ;&st7;   " d=" M   607.37,   346.83  C   607.37    349.33    609.39    351.36    611.90    351.36  " /><path style="stroke-width:1.42 ;&st7;   " d=" M   611.90,   351.36  C   614.40    351.36    616.43    349.33    616.43    346.83  " /><text style="&st18;" transform="matrix(&st16;  609.48  348.8 )">C</text><text style="&st18;" transform="matrix(&st16;  609.59  339.73 )">A</text><text style="&st18;" transform="matrix(&st16;  600.1  304.6 )">16</text><text style="&st18;" transform="matrix(&st16;  600.1  313.67 )">19</text><text style="&st18;" transform="matrix(&st16;  609.48  313.67 )">C</text><path style="stroke-width:1.42 ;&st7;   " d=" M   616.43,   302.63  C   616.43    300.13    614.40    298.10    611.90    298.10  " /><path style="stroke-width:1.42 ;&st7;   " d=" M   611.90,   298.10  C   609.39    298.10    607.37    300.13    607.37    302.63  " /><path style="stroke-width:1.42 ;&st7;   " d=" M   607.37,   302.63  C   607.37    305.14    609.39    307.17    611.90    307.17  " /><path style="stroke-width:1.42 ;&st7;   " d=" M   611.90,   307.17  C   614.40    307.17    616.43    305.14    616.43    302.63  " /><path style="stroke-width:1.42 ;&st7;   " d=" M   616.43,   311.70  C   616.43    309.20    614.40    307.17    611.90    307.17  " /><path style="stroke-width:1.42 ;&st7;   " d=" M   611.90,   307.17  C   609.39    307.17    607.37    309.20    607.37    311.70  " /><path style="stroke-width:1.42 ;&st7;   " d=" M   607.37,   311.70  C   607.37    314.20    609.39    316.23    611.90    316.23  " /><path style="stroke-width:1.42 ;&st7;   " d=" M   611.90,   316.23  C   614.40    316.23    616.43    314.20    616.43    311.70  " /><text style="&st18;" transform="matrix(&st16;  609.59  304.6 )">A</text><text style="&st18;" transform="matrix(&st16;  659.59  348.8 )">22</text><path style="stroke-width:0.85 ;&st7;  " d=" M   671.39,   333.23  L   671.39,   342.29  " /><path style="stroke-width:1.42 ;&st7;   " d=" M   675.92,   346.83  C   675.92    344.32    673.89    342.29    671.39    342.29  " /><path style="stroke-width:1.42 ;&st7;   " d=" M   671.39,   342.29  C   668.88    342.29    666.86    344.32    666.86    346.83  " /><path style="stroke-width:1.42 ;&st7;   " d=" M   666.86,   346.83  C   666.86    349.33    668.88    351.36    671.39    351.36  " /><path style="stroke-width:1.42 ;&st7;   " d=" M   671.39,   351.36  C   673.89    351.36    675.92    349.33    675.92    346.83  " /><text style="&st18;" transform="matrix(&st16;  668.97  348.8 )">C</text><text style="&st18;" transform="matrix(&st16;  659.59  313.67 )">20</text><text style="&st18;" transform="matrix(&st16;  659.59  304.6 )">15</text><text style="&st18;" transform="matrix(&st16;  669.08  304.6 )">A</text><text style="&st18;" transform="matrix(&st16;  668.97  313.67 )">C</text><path style="stroke-width:1.42 ;&st7;   " d=" M   675.92,   311.70  C   675.92    309.20    673.89    307.17    671.39    307.17  " /><path style="stroke-width:1.42 ;&st7;   " d=" M   671.39,   307.17  C   668.88    307.17    666.86    309.20    666.86    311.70  " /><path style="stroke-width:1.42 ;&st7;   " d=" M   666.86,   311.70  C   666.86    314.20    668.88    316.23    671.39    316.23  " /><path style="stroke-width:1.42 ;&st7;   " d=" M   671.39,   316.23  C   673.89    316.23    675.92    314.20    675.92    311.70  " /><path style="stroke-width:1.42 ;&st7;   " d=" M   675.92,   302.63  C   675.92    300.13    673.89    298.10    671.39    298.10  " /><path style="stroke-width:1.42 ;&st7;   " d=" M   671.39,   298.10  C   668.88    298.10    666.86    300.13    666.86    302.63  " /><path style="stroke-width:1.42 ;&st7;   " d=" M   666.86,   302.63  C   666.86    305.14    668.88    307.17    671.39    307.17  " /><path style="stroke-width:1.42 ;&st7;   " d=" M   671.39,   307.17  C   673.89    307.17    675.92    305.14    675.92    302.63  " /><g ewd:figtype="title"><text style="&st18;" transform="matrix(&st17;  575.88  336.13 )">I72(A)</text><text style="&st18;" transform="matrix(&st17;  582.71  336.14 )" ewd:textID="43">No. 21 Junction Connector</text><text style="&st18;" transform="matrix(&st17;  590.05  336.13 )">I61(C)</text><text style="&st18;" transform="matrix(&st17;  596.87  336.14 )" ewd:textID="38">No. 11 Junction Connector</text></g><g ewd:code="" ewd:figID="94" ewd:comment="" ewd:figtype="commref"><text style="&st18;" transform="matrix(&st16;  676.48  313.67 )">(RHD)</text></g><g ewd:code="" ewd:figID="95" ewd:comment="" ewd:figtype="commref"><text style="&st18;" transform="matrix(&st16;  676.48  304.6 )">(LHD)</text></g><g ewd:code="" ewd:figID="96" ewd:comment="" ewd:figtype="commref"><text style="&st18;" transform="matrix(&st16;  676.48  348.8 )">(RHD)</text></g><g ewd:code="" ewd:figID="97" ewd:comment="" ewd:figtype="commref"><text style="&st18;" transform="matrix(&st16;  616.99  339.73 )">(LHD)</text></g></g><g ewd:figtype="conn" ewd:figID="7" ewd:code="I51"><path style="stroke-width:1.42 ;&st7;  " d=" M   849.86,   503.20  L   849.86,   469.21  L   926.34,   469.21  L   926.34,   503.20  L   849.86,   503.20  " /><g ewd:lineID="38,42"><text style="&st18;" transform="matrix(&st16;  857.57  511.39 )">16</text><text style="&st18;" transform="matrix(&st16;  860.56  499.5 )">ACL</text></g><g ewd:lineID="43"><text style="&st18;" transform="matrix(&st16;  857.57  465.52 )">16</text><text style="&st18;" transform="matrix(&st16;  862.34  476.84 )">SIL</text></g><g ewd:lineID="44"><text style="&st18;" transform="matrix(&st16;  900.06  465.52 )">12</text><text style="&st18;" transform="matrix(&st16;  904.99  476.84 )">TC</text></g><g ewd:figtype="title"><text style="&st18;" transform="matrix(&st17;  934.24  506.1 )">I51</text><text style="&st18;" transform="matrix(&st17;  941.06  506.11 )" ewd:textID="23">Airbag Sensor Assembly</text></g></g><g ewd:figtype="conn" ewd:figID="8" ewd:code="I98,I99"><path style="stroke-width:1.42 ;&st7;  " d=" M   773.37,   469.21  L   773.37,   486.20  L   790.37,   486.20  L   790.37,   469.21  L   773.37,   469.21  " /><path style="stroke-width:0.85 ;&st7;  " d=" M   781.87,   469.21  L   781.87,   486.20  " /><text style="&st18;" transform="matrix(&st16;  773.18  492.71 )">4</text><text style="&st18;" transform="matrix(&st16;  773.18  501.77 )">7</text><text style="&st18;" transform="matrix(&st16;  779.56  492.71 )">A</text><path style="stroke-width:1.42 ;&st7;   " d=" M   786.40,   490.74  C   786.40    488.23    784.37    486.20    781.87    486.20  " /><path style="stroke-width:1.42 ;&st7;   " d=" M   781.87,   486.20  C   779.37    486.20    777.34    488.23    777.34    490.74  " /><path style="stroke-width:1.42 ;&st7;   " d=" M   777.34,   490.74  C   777.34    493.24    779.37    495.27    781.87    495.27  " /><path style="stroke-width:1.42 ;&st7;   " d=" M   781.87,   495.27  C   784.37    495.27    786.40    493.24    786.40    490.74  " /><text style="&st18;" transform="matrix(&st16;  779.56  501.77 )">A</text><path style="stroke-width:1.42 ;&st7;   " d=" M   786.40,   499.80  C   786.40    497.30    784.37    495.27    781.87    495.27  " /><path style="stroke-width:1.42 ;&st7;   " d=" M   781.87,   495.27  C   779.37    495.27    777.34    497.30    777.34    499.80  " /><path style="stroke-width:1.42 ;&st7;   " d=" M   777.34,   499.80  C   777.34    502.31    779.37    504.33    781.87    504.33  " /><path style="stroke-width:1.42 ;&st7;   " d=" M   781.87,   504.33  C   784.37    504.33    786.40    502.31    786.40    499.80  " /><text style="&st18;" transform="matrix(&st16;  770.07  466.64 )">12</text><text style="&st18;" transform="matrix(&st16;  773.18  457.58 )">4</text><text style="&st18;" transform="matrix(&st16;  779.68  457.58 )">B</text><path style="stroke-width:1.42 ;&st7;   " d=" M   786.40,   464.67  C   786.40    462.17    784.37    460.14    781.87    460.14  " /><path style="stroke-width:1.42 ;&st7;   " d=" M   781.87,   460.14  C   779.37    460.14    777.34    462.17    777.34    464.67  " /><path style="stroke-width:1.42 ;&st7;   " d=" M   777.34,   464.67  C   777.34    467.18    779.37    469.21    781.87    469.21  " /><path style="stroke-width:1.42 ;&st7;   " d=" M   781.87,   469.21  C   784.37    469.21    786.40    467.18    786.40    464.67  " /><path style="stroke-width:1.42 ;&st7;   " d=" M   786.40,   455.61  C   786.40    453.11    784.37    451.08    781.87    451.08  " /><path style="stroke-width:1.42 ;&st7;   " d=" M   781.87,   451.08  C   779.37    451.08    777.34    453.11    777.34    455.61  " /><path style="stroke-width:1.42 ;&st7;   " d=" M   777.34,   455.61  C   777.34    458.11    779.37    460.14    781.87    460.14  " /><path style="stroke-width:1.42 ;&st7;   " d=" M   781.87,   460.14  C   784.37    460.14    786.40    458.11    786.40    455.61  " /><text style="&st18;" transform="matrix(&st16;  779.68  466.64 )">B</text><g ewd:figtype="title"><text style="&st18;" transform="matrix(&st17;  760.89  489.11 )" ewd:textID="40">No. 17 Junction <tspan x="0 " dy="6.0">Connector</tspan></text><text style="&st18;" transform="matrix(&st17;  754.07  489.1 )">I98(A),I99(B)</text></g><g ewd:code="" ewd:figID="142" ewd:comment="" ewd:figtype="commref"><text style="&st18;" transform="matrix(&st16;  786.96  466.64 )">(RHD)</text></g><g ewd:code="" ewd:figID="143" ewd:comment="" ewd:figtype="commref"><text style="&st18;" transform="matrix(&st16;  786.96  492.71 )">(LHD)</text></g><g ewd:code="" ewd:figID="144" ewd:comment="" ewd:figtype="commref"><text style="&st18;" transform="matrix(&st16;  786.96  457.58 )">(LHD)</text></g><g ewd:code="" ewd:figID="145" ewd:comment="" ewd:figtype="commref"><text style="&st18;" transform="matrix(&st16;  786.96  501.77 )">(RHD)</text></g></g><g ewd:figtype="conn" ewd:figID="13" ewd:code="I59"><path style="stroke-width:0.85 ;&st7;  " d=" M   781.87,   384.22  L   781.87,   367.22  " /><path style="stroke-width:1.42 ;&st7;  " d=" M   705.38,   367.22  L   790.37,   367.22  L   790.37,   384.22  L   705.38,   384.22  L   705.38,   367.22  " /><path style="stroke-width:0.85 ;&st7;  " d=" M   713.88,   384.22  L   713.88,   375.72  L   781.87,   375.72  " /><path style="stroke-width:0.85 ;&st7;  " d=" M   780.68,   374.72  L   780.40,   375.19  L   780.31,   375.72  L   780.40,   376.26  L   780.68,   376.73  L   781.09,   377.07  L   781.60,   377.26  L   782.14,   377.26  L   782.65,   377.07  L   783.06,   376.73  L   783.33,   376.26  L   783.43,   375.72  L   783.33,   375.19  L   783.06,   374.72  L   782.65,   374.37  L   782.14,   374.19  L   781.60,   374.19  L   781.09,   374.37  L   780.68,   374.72  L   781.07,   375.43  L   781.07,   376.01  L   781.44,   376.46  L   782.02,   376.56  L   782.52,   376.27  L   782.72,   375.72  L   782.52,   375.18  L   782.02,   374.89  L   781.44,   374.99  L   781.87,   375.72  " /><text style="&st18;" transform="matrix(&st16;  702.08  390.72 )">10</text><text style="&st18;" transform="matrix(&st16;  711.69  390.72 )">B</text><path style="stroke-width:1.42 ;&st7;   " d=" M   718.41,   388.75  C   718.41    386.25    716.38    384.22    713.88    384.22  " /><path style="stroke-width:1.42 ;&st7;   " d=" M   713.88,   384.22  C   711.38    384.22    709.35    386.25    709.35    388.75  " /><path style="stroke-width:1.42 ;&st7;   " d=" M   709.35,   388.75  C   709.35    391.26    711.38    393.29    713.88    393.29  " /><path style="stroke-width:1.42 ;&st7;   " d=" M   713.88,   393.29  C   716.38    393.29    718.41    391.26    718.41    388.75  " /><text style="&st18;" transform="matrix(&st16;  770.07  390.72 )">11</text><text style="&st18;" transform="matrix(&st16;  779.68  390.72 )">B</text><path style="stroke-width:1.42 ;&st7;   " d=" M   786.40,   388.75  C   786.40    386.25    784.37    384.22    781.87    384.22  " /><path style="stroke-width:1.42 ;&st7;   " d=" M   781.87,   384.22  C   779.37    384.22    777.34    386.25    777.34    388.75  " /><path style="stroke-width:1.42 ;&st7;   " d=" M   777.34,   388.75  C   777.34    391.26    779.37    393.29    781.87    393.29  " /><path style="stroke-width:1.42 ;&st7;   " d=" M   781.87,   393.29  C   784.37    393.29    786.40    391.26    786.40    388.75  " /><text style="&st18;" transform="matrix(&st16;  773.18  364.66 )">9</text><path style="stroke-width:1.42 ;&st7;   " d=" M   786.40,   362.69  C   786.40    360.19    784.37    358.16    781.87    358.16  " /><path style="stroke-width:1.42 ;&st7;   " d=" M   781.87,   358.16  C   779.37    358.16    777.34    360.19    777.34    362.69  " /><path style="stroke-width:1.42 ;&st7;   " d=" M   777.34,   362.69  C   777.34    365.19    779.37    367.22    781.87    367.22  " /><path style="stroke-width:1.42 ;&st7;   " d=" M   781.87,   367.22  C   784.37    367.22    786.40    365.19    786.40    362.69  " /><text style="&st18;" transform="matrix(&st16;  779.68  364.66 )">B</text><g ewd:figtype="title"><text style="&st18;" transform="matrix(&st16;  701.98  357.58 )" ewd:textID="35">No. 10 Junction <tspan x="0 " dy="6.0">Connector</tspan></text><text style="&st18;" transform="matrix(&st16;  701.97  350.75 )">I59(B)</text></g></g><g ewd:code="I98,I99" ewd:figID="18" ewd:comment="35,34" ewd:figtype="conn"><path style="stroke-width:0.85 ;&st7;  " d=" M   960.34,   375.72  L   909.35,   375.72  L   909.35,   384.22  " /><path style="stroke-width:1.42 ;&st7;  " d=" M   858.36,   367.22  L   858.36,   384.22  L  1002.83,   384.22  L  1002.83,   367.22  L   858.36,   367.22  " /><path style="stroke-width:0.85 ;&st7;  " d=" M   866.85,   367.22  L   866.85,   384.22  " /><path style="stroke-width:0.85 ;&st7;  " d=" M   959.15,   374.72  L   958.87,   375.19  L   958.78,   375.72  L   958.87,   376.26  L   959.15,   376.73  L   959.56,   377.07  L   960.07,   377.26  L   960.61,   377.26  L   961.12,   377.07  L   961.53,   376.73  L   961.80,   376.26  L   961.90,   375.72  L   961.80,   375.19  L   961.53,   374.72  L   961.12,   374.37  L   960.61,   374.19  L   960.07,   374.19  L   959.56,   374.37  L   959.15,   374.72  L   959.54,   375.43  L   959.54,   376.01  L   959.91,   376.46  L   960.49,   376.56  L   960.99,   376.27  L   961.19,   375.72  L   960.99,   375.18  L   960.49,   374.89  L   959.91,   374.99  L   960.34,   375.72  " /><path style="stroke-width:0.85 ;&st7;  " d=" M   960.34,   384.22  L   960.34,   375.72  " /><path style="stroke-width:0.85 ;&st7;  " d=" M   994.33,   384.22  L   994.33,   375.72  L   960.34,   375.72  " /><text style="&st18;" transform="matrix(&st16;  855.06  364.66 )">10</text><text style="&st18;" transform="matrix(&st16;  858.16  355.6 )">3</text><path style="stroke-width:1.42 ;&st7;   " d=" M   871.39,   353.63  C   871.39    351.12    869.36    349.09    866.86    349.09  " /><path style="stroke-width:1.42 ;&st7;   " d=" M   866.86,   349.09  C   864.35    349.09    862.32    351.12    862.32    353.63  " /><path style="stroke-width:1.42 ;&st7;   " d=" M   862.32,   353.63  C   862.32    356.13    864.35    358.16    866.86    358.16  " /><path style="stroke-width:1.42 ;&st7;   " d=" M   866.86,   358.16  C   869.36    358.16    871.39    356.13    871.39    353.63  " /><path style="stroke-width:1.42 ;&st7;   " d=" M   871.39,   362.69  C   871.39    360.19    869.36    358.16    866.86    358.16  " /><path style="stroke-width:1.42 ;&st7;   " d=" M   866.86,   358.16  C   864.35    358.16    862.32    360.19    862.32    362.69  " /><path style="stroke-width:1.42 ;&st7;   " d=" M   862.32,   362.69  C   862.32    365.19    864.35    367.22    866.86    367.22  " /><path style="stroke-width:1.42 ;&st7;   " d=" M   866.86,   367.22  C   869.36    367.22    871.39    365.19    871.39    362.69  " /><text style="&st18;" transform="matrix(&st16;  864.67  355.6 )">B</text><text style="&st18;" transform="matrix(&st16;  864.67  364.66 )">B</text><text style="&st18;" transform="matrix(&st16;  858.16  390.72 )">3</text><text style="&st18;" transform="matrix(&st16;  858.16  399.79 )">9</text><text style="&st18;" transform="matrix(&st16;  864.55  390.72 )">A</text><path style="stroke-width:1.42 ;&st7;   " d=" M   871.39,   397.82  C   871.39    395.32    869.36    393.29    866.86    393.29  " /><path style="stroke-width:1.42 ;&st7;   " d=" M   866.86,   393.29  C   864.35    393.29    862.32    395.32    862.32    397.82  " /><path style="stroke-width:1.42 ;&st7;   " d=" M   862.32,   397.82  C   862.32    400.32    864.35    402.35    866.86    402.35  " /><path style="stroke-width:1.42 ;&st7;   " d=" M   866.86,   402.35  C   869.36    402.35    871.39    400.32    871.39    397.82  " /><path style="stroke-width:1.42 ;&st7;   " d=" M   871.39,   388.75  C   871.39    386.25    869.36    384.22    866.86    384.22  " /><path style="stroke-width:1.42 ;&st7;   " d=" M   866.86,   384.22  C   864.35    384.22    862.32    386.25    862.32    388.75  " /><path style="stroke-width:1.42 ;&st7;   " d=" M   862.32,   388.75  C   862.32    391.26    864.35    393.29    866.86    393.29  " /><path style="stroke-width:1.42 ;&st7;   " d=" M   866.86,   393.29  C   869.36    393.29    871.39    391.26    871.39    388.75  " /><text style="&st18;" transform="matrix(&st16;  864.55  399.79 )">A</text><text style="&st18;" transform="matrix(&st16;  900.65  390.72 )">5</text><path style="stroke-width:1.42 ;&st7;   " d=" M   913.88,   388.75  C   913.88    386.25    911.85    384.22    909.35    384.22  " /><path style="stroke-width:1.42 ;&st7;   " d=" M   909.35,   384.22  C   906.84    384.22    904.82    386.25    904.82    388.75  " /><path style="stroke-width:1.42 ;&st7;   " d=" M   904.82,   388.75  C   904.82    391.26    906.84    393.29    909.35    393.29  " /><path style="stroke-width:1.42 ;&st7;   " d=" M   909.35,   393.29  C   911.85    393.29    913.88    391.26    913.88    388.75  " /><text style="&st18;" transform="matrix(&st16;  907.04  390.72 )">A</text><text style="&st18;" transform="matrix(&st16;  951.65  390.72 )">2</text><text style="&st18;" transform="matrix(&st16;  958.15  390.72 )">B</text><path style="stroke-width:1.42 ;&st7;   " d=" M   964.87,   388.75  C   964.87    386.25    962.84    384.22    960.34    384.22  " /><path style="stroke-width:1.42 ;&st7;   " d=" M   960.34,   384.22  C   957.84    384.22    955.81    386.25    955.81    388.75  " /><path style="stroke-width:1.42 ;&st7;   " d=" M   955.81,   388.75  C   955.81    391.26    957.84    393.29    960.34    393.29  " /><path style="stroke-width:1.42 ;&st7;   " d=" M   960.34,   393.29  C   962.84    393.29    964.87    391.26    964.87    388.75  " /><text style="&st18;" transform="matrix(&st16;  985.64  390.72 )">1</text><text style="&st18;" transform="matrix(&st16;  992.15  390.72 )">B</text><path style="stroke-width:1.42 ;&st7;   " d=" M   998.87,   388.75  C   998.87    386.25    996.84    384.22    994.33    384.22  " /><path style="stroke-width:1.42 ;&st7;   " d=" M   994.33,   384.22  C   991.83    384.22    989.80    386.25    989.80    388.75  " /><path style="stroke-width:1.42 ;&st7;   " d=" M   989.80,   388.75  C   989.80    391.26    991.83    393.29    994.33    393.29  " /><path style="stroke-width:1.42 ;&st7;   " d=" M   994.33,   393.29  C   996.84    393.29    998.87    391.26    998.87    388.75  " /><g ewd:figtype="title"><text style="&st18;" transform="matrix(&st16;  905.94  363.53 )" ewd:textID="40">No. 17 Junction Connector</text><text style="&st18;" transform="matrix(&st16;  905.94  356.7 )">I98(A),I99(B)</text></g><g ewd:code="" ewd:figID="146" ewd:comment="34" ewd:figtype="commref"><text style="&st18;" transform="matrix(&st16;  871.95  390.72 )">(*34)</text></g><g ewd:code="" ewd:figID="147" ewd:comment="35" ewd:figtype="commref"><text style="&st18;" transform="matrix(&st16;  871.95  364.66 )">(*35)</text></g><g ewd:code="" ewd:figID="148" ewd:comment="34" ewd:figtype="commref"><text style="&st18;" transform="matrix(&st16;  871.95  355.6 )">(*34)</text></g><g ewd:code="" ewd:figID="149" ewd:comment="35" ewd:figtype="commref"><text style="&st18;" transform="matrix(&st16;  871.95  399.79 )">(*35)</text></g></g><g ewd:figtype="w2w" ewd:figID="41" ewd:code="LI1"><path style="stroke-width:1.42 ;&st7;  " d=" M   607.65,   426.15  L   611.90,   430.40  L   616.15,   426.15  " /><path style="stroke-width:1.42 ;&st7;  " d=" M   616.15,   429.55  L   611.90,   433.80  L   607.65,   429.55  " /><text style="&st18;" transform="matrix(&st16;  596.16  441.43 )">19</text></g><g ewd:figtype="w2w" ewd:figID="42" ewd:code="AI3"><path style="stroke-width:1.42 ;&st7;  " d=" M   667.14,   426.15  L   671.39,   430.40  L   675.64,   426.15  " /><path style="stroke-width:1.42 ;&st7;  " d=" M   675.64,   429.55  L   671.39,   433.80  L   667.14,   429.55  " /><text style="&st18;" transform="matrix(&st16;  655.65  441.43 )">24</text></g><g ewd:figtype="w2w" ewd:figID="43" ewd:code="AI3"><path style="stroke-width:1.42 ;&st7;  " d=" M   709.63,   426.15  L   713.88,   430.40  L   718.13,   426.15  " /><path style="stroke-width:1.42 ;&st7;  " d=" M   718.13,   429.55  L   713.88,   433.80  L   709.63,   429.55  " /><text style="&st18;" transform="matrix(&st16;  698.15  441.43 )">11</text></g><g ewd:code="26" ewd:figID="160" ewd:comment="" ewd:figtype="comment"><text style="&st18;" transform="matrix(&st16;  693.48  54.75 )" ewd:textID="18">*26 :w/ SRS w/o VSC</text></g><g ewd:code="13" ewd:figID="150" ewd:comment="" ewd:figtype="comment"><text style="&st18;" transform="matrix(&st16;  557.5  97.24 )" ewd:textID="6">*13 :w/ SRS w/ Immobiliser System</text></g><g ewd:code="5" ewd:figID="154" ewd:comment="" ewd:figtype="comment"><text style="&st18;" transform="matrix(&st16;  557.5  54.75 )">* 5 :RHD 1HZ</text></g><g ewd:code="27" ewd:figID="161" ewd:comment="" ewd:figtype="comment"><text style="&st18;" transform="matrix(&st16;  693.48  63.24 )">*27 :RHD 1VD-FTV</text></g><g ewd:code="11" ewd:figID="183" ewd:comment="" ewd:figtype="comment"><text style="&st18;" transform="matrix(&st16;  557.5  88.74 )" ewd:textID="4">*11 :w/ SRS w/ ABS</text></g><g ewd:code="35" ewd:figID="187" ewd:comment="" ewd:figtype="comment"><text style="&st18;" transform="matrix(&st16;  693.48  97.24 )" ewd:textID="22">*35 :From Jan. 2017 Production</text></g><g ewd:code="1" ewd:figID="153" ewd:comment="" ewd:figtype="comment"><text style="&st18;" transform="matrix(&st16;  557.5  20.75 )">* 1 :1GR-FE</text></g><g ewd:code="20" ewd:figID="157" ewd:comment="" ewd:figtype="comment"><text style="&st18;" transform="matrix(&st16;  557.5  114.24 )" ewd:textID="12">*20 :Except Australia</text></g><g ewd:code="23" ewd:figID="162" ewd:comment="" ewd:figtype="comment"><text style="&st18;" transform="matrix(&st16;  693.48  29.25 )" ewd:textID="15">*23 :2-Door Pick-Up Body Type</text></g><g ewd:code="2" ewd:figID="152" ewd:comment="" ewd:figtype="comment"><text style="&st18;" transform="matrix(&st16;  557.5  29.25 )">* 2 :1HZ</text></g><g ewd:code="25" ewd:figID="164" ewd:comment="" ewd:figtype="comment"><text style="&st18;" transform="matrix(&st16;  693.48  46.25 )" ewd:textID="17">*25 :4-Door Pick-Up Body Type</text></g><g ewd:code="19" ewd:figID="178" ewd:comment="" ewd:figtype="comment"><text style="&st18;" transform="matrix(&st16;  557.5  105.74 )" ewd:textID="11">*19 :Australia</text></g><g ewd:code="7" ewd:figID="180" ewd:comment="" ewd:figtype="comment"><text style="&st18;" transform="matrix(&st16;  557.5  63.24 )">* 7 :LHD 1GR-FE</text></g><g ewd:code="34" ewd:figID="186" ewd:comment="" ewd:figtype="comment"><text style="&st18;" transform="matrix(&st16;  693.48  88.74 )" ewd:textID="21">*34 :Before Jan. 2017 Production</text></g><g ewd:code="3" ewd:figID="155" ewd:comment="" ewd:figtype="comment"><text style="&st18;" transform="matrix(&st16;  557.5  37.75 )">* 3 :1VD-FTV</text></g><g ewd:code="4" ewd:figID="156" ewd:comment="" ewd:figtype="comment"><text style="&st18;" transform="matrix(&st16;  557.5  46.25 )">* 4 :LHD 1HZ</text></g><g ewd:code="24" ewd:figID="163" ewd:comment="" ewd:figtype="comment"><text style="&st18;" transform="matrix(&st16;  693.48  37.75 )" ewd:textID="16">*24 :Except Pick-Up Body Type</text></g><g ewd:code="28" ewd:figID="182" ewd:comment="" ewd:figtype="comment"><text style="&st18;" transform="matrix(&st16;  693.48  71.74 )" ewd:textID="19">*28 :w/ Tire Pressure Warning System</text></g><g ewd:code="10" ewd:figID="151" ewd:comment="" ewd:figtype="comment"><text style="&st18;" transform="matrix(&st16;  557.5  80.24 )" ewd:textID="3">*10 :w/ SRS</text></g><g ewd:code="32" ewd:figID="158" ewd:comment="21" ewd:figtype="comment"><text style="&st18;" transform="matrix(&st16;  693.48  80.24 )" ewd:textID="20">*32 :Except LHD *21</text></g><g ewd:code="21" ewd:figID="159" ewd:comment="" ewd:figtype="comment"><text style="&st18;" transform="matrix(&st16;  693.48  20.75 )" ewd:textID="13">*21 :w/ VSC</text></g><g ewd:code="8" ewd:figID="181" ewd:comment="" ewd:figtype="comment"><text style="&st18;" transform="matrix(&st16;  557.5  71.74 )">* 8 :RHD 1GR-FE</text></g></svg>