<?xml version="1.0" encoding="utf-8"?>
<!DOCTYPE svg PUBLIC "-//W3C//DTD SVG 1.0//EN" "http://www.w3.org/TR/2001/REC-SVG-20010904/DTD/svg10.dtd"[
	<!ENTITY ns_flows "http://ns.adobe.com/Flows/1.0/">
	<!ENTITY ns_svg "http://www.w3.org/2000/svg">
	<!ENTITY ns_xlink "http://www.w3.org/1999/xlink">
	<!ENTITY st0 "font-size:7px;font-family:'MS-PGothic';adobe-font-script:japanese;">
	<!ENTITY st1 "font-size:6px;font-family:'ArialMT';">
	<!-- White fill  -->
	<!ENTITY st2 "fill:#FFFFFF;stroke:#000000; stroke-width:1.41;stroke-linecap:round;stroke-linejoin:round;">
	<!-- Yellow fill  -->
	<!ENTITY st3 "fill:#FFFFCC;stroke:#FFFFCC; stroke-width:0.1;stroke-linecap:round;stroke-linejoin:round;">
	<!-- Gray fill  -->
	<!ENTITY st4 "fill:#CCCCCC;stroke:#CCCCCC; stroke-width:0.1;stroke-linecap:round;stroke-linejoin:round;">
	<!-- Light-blue fill -->
	<!ENTITY st5 "fill:#CCECF4;stroke:#000000; stroke-width:1.133;stroke-linecap:round;stroke-linejoin:round;">
	<!ENTITY st6 "fill:none;stroke-linecap:butt; stroke-linejoin:round;">
	<!ENTITY st7 "fill:none;stroke:#000000;stroke-linecap:round;stroke-linejoin:round;">
	<!ENTITY st8 "enable-background:new    ;">
	<!-- Black fill -->
	<!ENTITY st9 "fill:#000000;stroke:#000000; stroke-linecap:round;stroke-linejoin:round;">
	<!-- SRS note   -->
	<!ENTITY st10 "font-size:9px;font-family:'ArialMT';">
	<!ENTITY st11 "font-size:9px;font-family:'Svg Symbol';">
	<!ENTITY st12 "font-size:6px;font-family:'Svg Symbol';">
	<!ENTITY st13 "fill:none;stroke:#ff0000;stroke-linecap:round;stroke-linejoin:round;">
	<!-- Yellow fill  -->
	<!ENTITY st14 "fill:#FFFF00;stroke:#FFFF00; stroke-width:0.1;stroke-linecap:round;stroke-linejoin:round;">
	<!ENTITY st15 "font-size:6px;font-family:'MS-PGothic';adobe-font-script:japanese;">
	<!ENTITY st16 "1.00 0.00 0.00 1.00">
	<!ENTITY st17 "0.00 -1.00 1.00 0.00">
	<!ENTITY st18 "font-size:6px;font-family:'Arial';">
	<!ENTITY st19 "font-size:9px;font-family:'Arial';">
	<!ENTITY st20 "font-size:6px;font-family:'MS-PGothic','MS PGothic';adobe-font-script:japanese;">
	<!ENTITY st21 "font-size:7px;font-family:'MS-PGothic','MS PGothic';adobe-font-script:japanese;">
	<!ATTLIST svg
		xmlns:ewd CDATA #FIXED "http://shcl.co.jp/ewd"
		xmlns:a CDATA #FIXED "http://ns.adobe.com/AdobeSVGViewerExtensions/3.0/"
		ewd:ver CDATA #IMPLIED
	>
	<!ATTLIST a
		ewd:lineID CDATA #IMPLIED
		ewd:groupID CDATA #IMPLIED
		ewd:figtype CDATA #IMPLIED
		ewd:code CDATA #IMPLIED
		ewd:figID CDATA #IMPLIED
		ewd:pinNo CDATA #IMPLIED
		ewd:comment CDATA #IMPLIED >
	<!ATTLIST g
		ewd:lineID CDATA #IMPLIED
		ewd:groupID CDATA #IMPLIED
		ewd:figtype CDATA #IMPLIED
		ewd:code CDATA #IMPLIED
		ewd:figID CDATA #IMPLIED
		ewd:pinNo CDATA #IMPLIED
		ewd:comment CDATA #IMPLIED >
	<!ATTLIST text
		ewd:textID CDATA #IMPLIED >
	<!ATTLIST title
		ewd:textID CDATA #IMPLIED >
]>
<!-- Generator: Shintec Hozumi YS   -->
<svg onload="call_execInitLoadProc_svg('system')" style="overflow:visible;  enable-background:new 0 0 3106.773 710.000" viewBox="0 0 3106.773 710.000" height="710.000" width="3106.773" xml:space="preserve" ewd:ver="2.1.2.9" xmlns="&ns_svg;" xmlns:a="http://ns.adobe.com/AdobeSVGViewerExtensions/3.0/" xmlns:ewd="http://shcl.co.jp/ewd" xmlns:xlink="&ns_xlink;">
<path style="stroke-width:1.42 ;&st7;  " d=" M    50.99,   430.24  L    55.96,   435.21  " /><path style="stroke-width:1.42 ;&st7;  " d=" M    67.99,   423.19  L    63.02,   418.22  " /><path style="stroke-width:1.42 ;&st7;  " d=" M   200.44,   248.24  L   195.47,   253.22  " /><path style="stroke-width:1.42 ;&st7;  " d=" M   207.49,   265.24  L   212.46,   260.27  " /><path style="stroke-width:1.42 ;&st7;  " d=" M   195.47,   260.27  L   200.44,   265.24  " /><path style="stroke-width:1.42 ;&st7;  " d=" M   212.46,   253.22  L   207.49,   248.24  " /><path style="stroke-width:1.42 ;&st7;  " d=" M   297.45,   435.21  L   305.95,   435.21  " /><path style="stroke-width:1.42 ;&st7;  " d=" M   263.46,   443.71  L   254.96,   443.71  " /><path style="stroke-width:1.42 ;&st7;  " d=" M   212.46,   452.21  L   203.97,   452.21  " /><path style="stroke-width:1.42 ;&st7;  " d=" M   195.47,   333.23  L   203.97,   333.23  " /><path style="stroke-width:1.42 ;&st7;  " d=" M   212.46,   525.17  L   207.49,   520.20  " /><path style="stroke-width:1.42 ;&st7;  " d=" M   195.47,   532.23  L   200.44,   537.20  " /><path style="stroke-width:1.42 ;&st7;  " d=" M   207.49,   537.20  L   212.46,   532.23  " /><path style="stroke-width:1.42 ;&st7;  " d=" M   200.44,   520.20  L   195.47,   525.17  " /><path style="stroke-width:1.42 ;&st7;  " d=" M    55.96,   418.22  L    50.99,   423.19  " /><path style="stroke-width:1.42 ;&st7;  " d=" M    63.02,   435.21  L    67.99,   430.24  " /><text style="&st18;" transform="matrix(&st17;  313.58  490.92 )">(*3)</text><text style="&st18;" transform="matrix(&st17;  302.25  489.75 )">BR</text><text style="&st18;" transform="matrix(&st17;  313.58  380.44 )">(*3)</text><text style="&st18;" transform="matrix(&st17;  302.25  379.27 )">BR</text><text style="&st18;" transform="matrix(&st17;  200.27  234.8 )">BR</text><text style="&st18;" transform="matrix(&st17;  109.62  264.56 )">(LHD)</text><text style="&st18;" transform="matrix(&st17;  98.29  262.7 )">W-B</text><text style="&st18;" transform="matrix(&st17;  211.6  584.4 )">(*1)</text><text style="&st18;" transform="matrix(&st17;  67.13  264.6 )">(RHD)</text><text style="&st18;" transform="matrix(&st17;  200.27  583.24 )">BR</text><text style="&st18;" transform="matrix(&st17;  55.79  262.7 )">W-B</text><text style="&st18;" transform="matrix(&st17;  67.13  511.06 )">(RHD)</text><text style="&st18;" transform="matrix(&st17;  55.79  509.16 )">W-B</text><text style="&st18;" transform="matrix(&st17;  55.79  131.07 )">V</text><text style="&st18;" transform="matrix(&st17;  200.27  281.54 )">BR</text><text style="&st18;" transform="matrix(&st17;  211.6  282.7 )">(*8)</text><text style="&st18;" transform="matrix(&st17;  251.26  281.54 )">BR</text><text style="&st18;" transform="matrix(&st17;  262.59  286.73 )">(*2,*3)</text><text style="&st18;" transform="matrix(&st17;  262.59  380.44 )">(*2)</text><text style="&st18;" transform="matrix(&st17;  251.26  379.27 )">BR</text><text style="&st18;" transform="matrix(&st17;  169.11  380.44 )">(*7)</text><text style="&st18;" transform="matrix(&st17;  157.78  379.27 )">BR</text><text style="&st18;" transform="matrix(&st17;  98.29  509.16 )">W-B</text><text style="&st18;" transform="matrix(&st17;  109.62  511.02 )">(LHD)</text><text style="&st18;" transform="matrix(&st17;  200.27  489.75 )">BR</text><text style="&st18;" transform="matrix(&st17;  211.6  490.92 )">(*1)</text><text style="&st18;" transform="matrix(&st17;  251.26  489.75 )">BR</text><text style="&st18;" transform="matrix(&st17;  262.59  490.92 )">(*2)</text><text style="&st18;" transform="matrix(&st17;  211.6  380.44 )">(*8)</text><text style="&st18;" transform="matrix(&st17;  200.27  379.27 )">BR</text><path style="stroke-width:1.42 ;&st7;  " d=" M   246.46,   307.73  L   254.96,   307.73  " /><path style="stroke-width:1.42 ;&st7;  " d=" M   416.43,   350.23  L   424.93,   350.23  " /><path style="stroke-width:1.42 ;&st7;  " d=" M   382.44,   350.23  L   390.93,   350.23  " /><path style="stroke-width:1.42 ;&st7;  " d=" M   365.44,   358.73  L   356.94,   358.73  " /><path style="stroke-width:1.42 ;&st7;  " d=" M   348.44,   579.69  L   356.94,   579.69  " /><path style="stroke-width:1.42 ;&st7;  " d=" M   433.43,   588.19  L   424.93,   588.19  " /><path style="stroke-width:1.42 ;&st7;  " d=" M   399.43,   588.19  L   390.93,   588.19  " /><text style="&st18;" transform="matrix(&st17;  387.24  385.79 )">L</text><text style="&st18;" transform="matrix(&st17;  398.57  396.07 )">(*24 *28)</text><text style="&st18;" transform="matrix(&st17;  364.58  396.07 )">(*23 *28)</text><text style="&st18;" transform="matrix(&st17;  353.24  385.79 )">L</text><text style="&st18;" transform="matrix(&st17;  421.23  385.79 )">L</text><text style="&st18;" transform="matrix(&st17;  432.57  396.07 )">(*25 *28)</text><text style="&st18;" transform="matrix(&st17;  432.57  328.08 )">(*25 *28)</text><text style="&st18;" transform="matrix(&st17;  421.23  317.81 )">L</text><text style="&st18;" transform="matrix(&st17;  353.24  317.81 )">L</text><text style="&st18;" transform="matrix(&st17;  364.58  328.08 )">(*23 *28)</text><text style="&st18;" transform="matrix(&st17;  398.57  328.08 )">(*24 *28)</text><text style="&st18;" transform="matrix(&st17;  387.24  317.81 )">L</text><text style="&st18;" transform="matrix(&st17;  387.24  551.63 )">B</text><text style="&st18;" transform="matrix(&st17;  398.57  561.79 )">(*24 *28)</text><text style="&st18;" transform="matrix(&st17;  432.57  561.79 )">(*25 *28)</text><text style="&st18;" transform="matrix(&st17;  421.23  553.73 )">LG</text><text style="&st18;" transform="matrix(&st17;  364.58  561.79 )">(*23 *28)</text><text style="&st18;" transform="matrix(&st17;  353.24  551.63 )">B</text><text style="&st18;" transform="matrix(&st17;  353.24  615.64 )">G</text><text style="&st18;" transform="matrix(&st17;  364.58  625.53 )">(*23 *28)</text><text style="&st18;" transform="matrix(&st17;  421.23  615.64 )">G</text><text style="&st18;" transform="matrix(&st17;  432.57  625.53 )">(*25 *28)</text><text style="&st18;" transform="matrix(&st17;  398.57  625.53 )">(*24 *28)</text><text style="&st18;" transform="matrix(&st17;  387.24  615.37 )">B</text><text style="&st18;" transform="matrix(&st16;  481.46  219.05 )">W</text><text style="&st18;" transform="matrix(&st16;  470.52  230.38 )">(LHD *21)</text><text style="&st18;" transform="matrix(&st16;  481.46  414.52 )">W</text><text style="&st18;" transform="matrix(&st16;  464.94  425.85 )">(LHD *13 *21)</text><text style="&st18;" transform="matrix(&st16;  481.96  677.97 )">G</text><text style="&st18;" transform="matrix(&st16;  477.66  689.31 )">(*28)</text><text style="&st18;" transform="matrix(&st17;  466.56  335.21 )">(LHD *13 *21)</text><text style="&st18;" transform="matrix(&st17;  455.23  318.7 )">W</text><g ewd:figtype="rb" ewd:figID="1" ewd:code="FUSE2"><path style="stroke-width:0.85 ;&st7;  " d=" M    59.49,    78.27  L    59.49,    95.27  " /><path style="stroke-width:1.42 ;&st7;  " d=" M    61.61,   103.77  L    57.37,   103.77  " /><path style="stroke-width:1.42 ;&st7;  " d=" M    61.61,    95.27  L    57.37,    95.27  " /><path style="stroke-width:1.42 ;&st7;   " d=" M    65.86,    99.52  C    65.86     97.17     63.96     95.27     61.61     95.27  " /><path style="stroke-width:1.42 ;&st7;   " d=" M    61.61,   103.77  C    63.96    103.77     65.86    101.87     65.86     99.52  " /><path style="stroke-width:1.42 ;&st7;   " d=" M    53.12,    99.52  C    53.12    101.87     55.02    103.77     57.37    103.77  " /><path style="stroke-width:1.42 ;&st7;   " d=" M    57.37,    95.27  C    55.02     95.27     53.12     97.17     53.12     99.52  " /><path style="stroke-width:0.28 ;&st9;  " d=" M    59.49,    90.37  L    56.66,    87.54  L    56.66,    91.79  L    59.49,    94.62  L    62.32,    91.79  L    62.32,    87.54  L    59.49,    90.37  " /><text style="&st18;" transform="matrix(&st16;  51.45  32.08 )">(BAT)</text><text style="&st18;" transform="matrix(&st16;  53.31  86.47 )">2</text><text style="&st18;" transform="matrix(&st16;  57.69  101.49 )">2</text><text style="&st18;" transform="matrix(&st16;  75.91  56.17 )">7.5A <tspan x="0 " dy="6.0">OBD2</tspan></text><path style="stroke-width:0.85 ;&st7;  " d=" M    59.49,    69.77  L    59.49,    78.27  " /><path style="stroke-width:0.85 ;&st7;   " d=" M    60.91,    68.36  C    60.91     67.57     60.27     66.94     59.49     66.94  " /><path style="stroke-width:0.85 ;&st7;   " d=" M    59.49,    66.94  C    58.71     66.94     58.07     67.57     58.07     68.36  " /><path style="stroke-width:0.85 ;&st7;   " d=" M    58.07,    68.36  C    58.07     69.14     58.71     69.77     59.49     69.77  " /><path style="stroke-width:0.85 ;&st7;   " d=" M    59.49,    69.77  C    60.27     69.77     60.91     69.14     60.91     68.36  " /><path style="stroke-width:0.85 ;&st7;   " d=" M    60.91,    45.69  C    60.91     44.91     60.27     44.28     59.49     44.28  " /><path style="stroke-width:0.85 ;&st7;   " d=" M    59.49,    44.28  C    58.71     44.28     58.07     44.91     58.07     45.69  " /><path style="stroke-width:0.85 ;&st7;   " d=" M    58.07,    45.69  C    58.07     46.48     58.71     47.11     59.49     47.11  " /><path style="stroke-width:0.85 ;&st7;   " d=" M    59.49,    47.11  C    60.27     47.11     60.91     46.48     60.91     45.69  " /><path style="stroke-width:1.42 ;&st7;   " d=" M    59.49,    66.94  C    62.23     65.33     63.14     61.80     61.53     59.06  " /><path style="stroke-width:1.42 ;&st7;   " d=" M    61.53,    59.06  C    61.01     58.18     60.37     57.55     59.49     57.03  " /><path style="stroke-width:1.42 ;&st7;   " d=" M    59.49,    47.11  C    56.75     48.72     55.84     52.25     57.45     54.99  " /><path style="stroke-width:1.42 ;&st7;   " d=" M    57.45,    54.99  C    57.97     55.87     58.61     56.51     59.49     57.03  " /><path style="stroke-width:1.42 ;&st7;  " d=" M    46.74,    35.78  L    46.74,    78.27  L    72.24,    78.27  L    72.24,    35.78  L    46.74,    35.78  " /></g><g ewd:figtype="conn" ewd:figID="2" ewd:code="I93"><path style="stroke-width:0.85 ;&st7;  " d=" M   101.98,   418.22  L   101.98,   435.21  " /><path style="stroke-width:1.42 ;&st7;  " d=" M    93.48,   418.22  L   110.48,   418.22  L   110.48,   435.21  L    93.48,   435.21  L    93.48,   418.22  " /><text style="&st18;" transform="matrix(&st16;  93.29  441.71 )">1</text><text style="&st18;" transform="matrix(&st16;  99.68  441.71 )">A</text><path style="stroke-width:1.42 ;&st7;   " d=" M   106.52,   439.75  C   106.52    437.24    104.49    435.21    101.98    435.21  " /><path style="stroke-width:1.42 ;&st7;   " d=" M   101.98,   435.21  C    99.48    435.21     97.45    437.24     97.45    439.75  " /><path style="stroke-width:1.42 ;&st7;   " d=" M    97.45,   439.75  C    97.45    442.25     99.48    444.28    101.98    444.28  " /><path style="stroke-width:1.42 ;&st7;   " d=" M   101.98,   444.28  C   104.49    444.28    106.52    442.25    106.52    439.75  " /><text style="&st18;" transform="matrix(&st16;  93.29  415.65 )">7</text><text style="&st18;" transform="matrix(&st16;  99.68  415.65 )">A</text><path style="stroke-width:1.42 ;&st7;   " d=" M   106.52,   413.68  C   106.52    411.18    104.49    409.15    101.98    409.15  " /><path style="stroke-width:1.42 ;&st7;   " d=" M   101.98,   409.15  C    99.48    409.15     97.45    411.18     97.45    413.68  " /><path style="stroke-width:1.42 ;&st7;   " d=" M    97.45,   413.68  C    97.45    416.19     99.48    418.22    101.98    418.22  " /><path style="stroke-width:1.42 ;&st7;   " d=" M   101.98,   418.22  C   104.49    418.22    106.52    416.19    106.52    413.68  " /><g ewd:figtype="title"><text style="&st18;" transform="matrix(&st17;  118.38  438.11 )">I93(A)</text><text style="&st18;" transform="matrix(&st17;  125.2  438.12 )" ewd:textID="33">No. 5 Junction Connector</text></g></g><g ewd:figtype="conn" ewd:figID="14" ewd:code="I118"><path style="stroke-width:0.85 ;&st7;  " d=" M   390.93,   647.68  L   390.93,   639.18  " /><path style="stroke-width:0.85 ;&st7;  " d=" M   389.74,   646.67  L   389.47,   647.14  L   389.38,   647.68  L   389.47,   648.21  L   389.74,   648.68  L   390.16,   649.03  L   390.66,   649.21  L   391.21,   649.21  L   391.71,   649.03  L   392.13,   648.68  L   392.40,   648.21  L   392.49,   647.68  L   392.40,   647.14  L   392.13,   646.67  L   391.71,   646.33  L   391.21,   646.14  L   390.66,   646.14  L   390.16,   646.33  L   389.74,   646.67  L   390.14,   647.39  L   390.14,   647.97  L   390.51,   648.41  L   391.08,   648.51  L   391.59,   648.22  L   391.78,   647.68  L   391.59,   647.13  L   391.08,   646.84  L   390.51,   646.94  L   390.93,   647.68  " /><path style="stroke-width:0.85 ;&st7;  " d=" M   423.74,   646.67  L   423.46,   647.14  L   423.37,   647.68  L   423.46,   648.21  L   423.74,   648.68  L   424.15,   649.03  L   424.66,   649.21  L   425.20,   649.21  L   425.71,   649.03  L   426.12,   648.68  L   426.39,   648.21  L   426.49,   647.68  L   426.39,   647.14  L   426.12,   646.67  L   425.71,   646.33  L   425.20,   646.14  L   424.66,   646.14  L   424.15,   646.33  L   423.74,   646.67  L   424.13,   647.39  L   424.13,   647.97  L   424.50,   648.41  L   425.08,   648.51  L   425.58,   648.22  L   425.78,   647.68  L   425.58,   647.13  L   425.08,   646.84  L   424.50,   646.94  L   424.93,   647.68  " /><path style="stroke-width:0.85 ;&st7;  " d=" M   424.93,   647.68  L   356.94,   647.68  L   356.94,   639.18  " /><path style="stroke-width:0.85 ;&st7;  " d=" M   424.93,   639.18  L   424.93,   656.18  " /><path style="stroke-width:1.42 ;&st7;  " d=" M   348.44,   639.18  L   348.44,   656.18  L   433.43,   656.18  L   433.43,   639.18  L   348.44,   639.18  " /><text style="&st18;" transform="matrix(&st16;  345.14  636.62 )">14</text><text style="&st18;" transform="matrix(&st16;  354.52  636.62 )">C</text><path style="stroke-width:1.42 ;&st7;   " d=" M   361.47,   634.65  C   361.47    632.14    359.44    630.11    356.94    630.11  " /><path style="stroke-width:1.42 ;&st7;   " d=" M   356.94,   630.11  C   354.44    630.11    352.41    632.14    352.41    634.65  " /><path style="stroke-width:1.42 ;&st7;   " d=" M   352.41,   634.65  C   352.41    637.15    354.44    639.18    356.94    639.18  " /><path style="stroke-width:1.42 ;&st7;   " d=" M   356.94,   639.18  C   359.44    639.18    361.47    637.15    361.47    634.65  " /><text style="&st18;" transform="matrix(&st16;  379.14  636.62 )">15</text><path style="stroke-width:1.42 ;&st7;   " d=" M   395.47,   634.65  C   395.47    632.14    393.44    630.11    390.93    630.11  " /><path style="stroke-width:1.42 ;&st7;   " d=" M   390.93,   630.11  C   388.43    630.11    386.40    632.14    386.40    634.65  " /><path style="stroke-width:1.42 ;&st7;   " d=" M   386.40,   634.65  C   386.40    637.15    388.43    639.18    390.93    639.18  " /><path style="stroke-width:1.42 ;&st7;   " d=" M   390.93,   639.18  C   393.44    639.18    395.47    637.15    395.47    634.65  " /><text style="&st18;" transform="matrix(&st16;  388.51  636.62 )">C</text><text style="&st18;" transform="matrix(&st16;  413.13  636.62 )">13</text><path style="stroke-width:1.42 ;&st7;   " d=" M   429.46,   634.65  C   429.46    632.14    427.43    630.11    424.93    630.11  " /><path style="stroke-width:1.42 ;&st7;   " d=" M   424.93,   630.11  C   422.43    630.11    420.40    632.14    420.40    634.65  " /><path style="stroke-width:1.42 ;&st7;   " d=" M   420.40,   634.65  C   420.40    637.15    422.43    639.18    424.93    639.18  " /><path style="stroke-width:1.42 ;&st7;   " d=" M   424.93,   639.18  C   427.43    639.18    429.46    637.15    429.46    634.65  " /><text style="&st18;" transform="matrix(&st16;  422.51  636.62 )">C</text><text style="&st18;" transform="matrix(&st16;  413.13  662.68 )">12</text><text style="&st18;" transform="matrix(&st16;  422.51  662.68 )">C</text><path style="stroke-width:1.42 ;&st7;   " d=" M   429.46,   660.71  C   429.46    658.20    427.43    656.18    424.93    656.18  " /><path style="stroke-width:1.42 ;&st7;   " d=" M   424.93,   656.18  C   422.43    656.18    420.40    658.20    420.40    660.71  " /><path style="stroke-width:1.42 ;&st7;   " d=" M   420.40,   660.71  C   420.40    663.21    422.43    665.24    424.93    665.24  " /><path style="stroke-width:1.42 ;&st7;   " d=" M   424.93,   665.24  C   427.43    665.24    429.46    663.21    429.46    660.71  " /><g ewd:figtype="title"><text style="&st18;" transform="matrix(&st17;  441.32  659.07 )">I118(C)</text><text style="&st18;" transform="matrix(&st17;  448.15  659.08 )" ewd:textID="44">No. 36 <tspan x="0 " dy="6.0">Junction </tspan><tspan x="0 " dy="6.0">Connector</tspan></text></g></g><g ewd:figtype="conn" ewd:figID="15" ewd:code="S30,U5,Y7"><path style="stroke-width:1.42 ;&st7;  " d=" M   373.94,   452.21  L   373.94,   486.20  L   407.93,   486.20  L   407.93,   452.21  L   373.94,   452.21  " /><g ewd:comment="25,24,23" ewd:lineID="18,22,26"><text style="&st18;" transform="matrix(&st16;  382.24  501.77 )">3</text><text style="&st18;" transform="matrix(&st16;  382.24  492.71 )">3</text><text style="&st18;" transform="matrix(&st16;  382.24  510.84 )">3</text><path style="stroke-width:1.42 ;&st7;   " d=" M   395.47,   499.80  C   395.47    497.30    393.44    495.27    390.93    495.27  " /><path style="stroke-width:1.42 ;&st7;   " d=" M   390.93,   495.27  C   388.43    495.27    386.40    497.30    386.40    499.80  " /><path style="stroke-width:1.42 ;&st7;   " d=" M   386.40,   499.80  C   386.40    502.31    388.43    504.33    390.93    504.33  " /><path style="stroke-width:1.42 ;&st7;   " d=" M   390.93,   504.33  C   393.44    504.33    395.47    502.31    395.47    499.80  " /><text style="&st18;" transform="matrix(&st16;  388.63  492.71 )">A</text><path style="stroke-width:1.42 ;&st7;   " d=" M   395.47,   508.87  C   395.47    506.36    393.44    504.33    390.93    504.33  " /><path style="stroke-width:1.42 ;&st7;   " d=" M   390.93,   504.33  C   388.43    504.33    386.40    506.36    386.40    508.87  " /><path style="stroke-width:1.42 ;&st7;   " d=" M   386.40,   508.87  C   386.40    511.37    388.43    513.40    390.93    513.40  " /><path style="stroke-width:1.42 ;&st7;   " d=" M   390.93,   513.40  C   393.44    513.40    395.47    511.37    395.47    508.87  " /><path style="stroke-width:1.42 ;&st7;   " d=" M   395.47,   490.74  C   395.47    488.23    393.44    486.20    390.93    486.20  " /><path style="stroke-width:1.42 ;&st7;   " d=" M   390.93,   486.20  C   388.43    486.20    386.40    488.23    386.40    490.74  " /><path style="stroke-width:1.42 ;&st7;   " d=" M   386.40,   490.74  C   386.40    493.24    388.43    495.27    390.93    495.27  " /><path style="stroke-width:1.42 ;&st7;   " d=" M   390.93,   495.27  C   393.44    495.27    395.47    493.24    395.47    490.74  " /><text style="&st18;" transform="matrix(&st16;  388.51  510.84 )">C</text><text style="&st18;" transform="matrix(&st16;  388.75  501.77 )">B</text><text style="&st18;" transform="matrix(&st16;  386.58  482.51 )">TC</text><g ewd:code="" ewd:figID="139" ewd:comment="25" ewd:figtype="commref"><text style="&st18;" transform="matrix(&st16;  396.03  510.84 )">(*25)</text></g><g ewd:code="" ewd:figID="140" ewd:comment="24" ewd:figtype="commref"><text style="&st18;" transform="matrix(&st16;  396.03  501.77 )">(*24)</text></g><g ewd:code="" ewd:figID="141" ewd:comment="23" ewd:figtype="commref"><text style="&st18;" transform="matrix(&st16;  396.03  492.71 )">(*23)</text></g></g><g ewd:comment="23,24,25" ewd:lineID="19,23,27"><text style="&st18;" transform="matrix(&st16;  379.14  449.65 )">10</text><text style="&st18;" transform="matrix(&st16;  379.14  431.52 )">10</text><text style="&st18;" transform="matrix(&st16;  379.14  440.58 )">10</text><path style="stroke-width:1.42 ;&st7;   " d=" M   395.47,   429.55  C   395.47    427.04    393.44    425.01    390.93    425.01  " /><path style="stroke-width:1.42 ;&st7;   " d=" M   390.93,   425.01  C   388.43    425.01    386.40    427.04    386.40    429.55  " /><path style="stroke-width:1.42 ;&st7;   " d=" M   386.40,   429.55  C   386.40    432.05    388.43    434.08    390.93    434.08  " /><path style="stroke-width:1.42 ;&st7;   " d=" M   390.93,   434.08  C   393.44    434.08    395.47    432.05    395.47    429.55  " /><path style="stroke-width:1.42 ;&st7;   " d=" M   395.47,   438.61  C   395.47    436.11    393.44    434.08    390.93    434.08  " /><path style="stroke-width:1.42 ;&st7;   " d=" M   390.93,   434.08  C   388.43    434.08    386.40    436.11    386.40    438.61  " /><path style="stroke-width:1.42 ;&st7;   " d=" M   386.40,   438.61  C   386.40    441.12    388.43    443.14    390.93    443.14  " /><path style="stroke-width:1.42 ;&st7;   " d=" M   390.93,   443.14  C   393.44    443.14    395.47    441.12    395.47    438.61  " /><path style="stroke-width:1.42 ;&st7;   " d=" M   395.47,   447.68  C   395.47    445.17    393.44    443.14    390.93    443.14  " /><path style="stroke-width:1.42 ;&st7;   " d=" M   390.93,   443.14  C   388.43    443.14    386.40    445.17    386.40    447.68  " /><path style="stroke-width:1.42 ;&st7;   " d=" M   386.40,   447.68  C   386.40    450.18    388.43    452.21    390.93    452.21  " /><path style="stroke-width:1.42 ;&st7;   " d=" M   390.93,   452.21  C   393.44    452.21    395.47    450.18    395.47    447.68  " /><text style="&st18;" transform="matrix(&st16;  388.75  440.58 )">B</text><text style="&st18;" transform="matrix(&st16;  388.63  431.52 )">A</text><text style="&st18;" transform="matrix(&st16;  388.51  449.65 )">C</text><text style="&st18;" transform="matrix(&st16;  386.42  459.84 )">SIL</text><g ewd:code="" ewd:figID="135" ewd:comment="23" ewd:figtype="commref"><text style="&st18;" transform="matrix(&st16;  396.03  431.52 )">(*23)</text></g><g ewd:code="" ewd:figID="136" ewd:comment="24" ewd:figtype="commref"><text style="&st18;" transform="matrix(&st16;  396.03  440.58 )">(*24)</text></g><g ewd:code="" ewd:figID="137" ewd:comment="25" ewd:figtype="commref"><text style="&st18;" transform="matrix(&st16;  396.03  449.65 )">(*25)</text></g></g><g ewd:figtype="title"><text style="&st18;" transform="matrix(&st17;  358.34  489.11 )" ewd:textID="45">Tire Pressure <tspan x="0 " dy="6.0">Warning ECU </tspan><tspan x="0 " dy="6.0">and Receiver</tspan></text><text style="&st18;" transform="matrix(&st17;  351.52  489.1 )">S30(A),U5(B),Y7(C)</text></g></g><g ewd:figtype="conn" ewd:figID="16" ewd:code="I118"><path style="stroke-width:1.42 ;&st7;  " d=" M   348.44,   256.74  L   348.44,   273.74  L   467.42,   273.74  L   467.42,   256.74  L   348.44,   256.74  " /><path style="stroke-width:0.85 ;&st7;  " d=" M   356.94,   273.74  L   356.94,   265.24  L   458.92,   265.24  " /><path style="stroke-width:0.85 ;&st7;  " d=" M   424.93,   273.74  L   424.93,   265.24  " /><path style="stroke-width:0.85 ;&st7;  " d=" M   390.93,   273.74  L   390.93,   265.24  " /><path style="stroke-width:0.85 ;&st7;  " d=" M   458.92,   256.74  L   458.92,   273.74  " /><path style="stroke-width:0.85 ;&st7;  " d=" M   457.73,   264.24  L   457.46,   264.71  L   457.37,   265.24  L   457.46,   265.77  L   457.73,   266.24  L   458.14,   266.59  L   458.65,   266.78  L   459.20,   266.78  L   459.70,   266.59  L   460.12,   266.24  L   460.39,   265.77  L   460.48,   265.24  L   460.39,   264.71  L   460.12,   264.24  L   459.70,   263.89  L   459.20,   263.71  L   458.65,   263.71  L   458.14,   263.89  L   457.73,   264.24  L   458.12,   264.95  L   458.12,   265.53  L   458.50,   265.98  L   459.07,   266.08  L   459.57,   265.79  L   459.77,   265.24  L   459.57,   264.69  L   459.07,   264.41  L   458.50,   264.50  L   458.92,   265.24  " /><path style="stroke-width:0.85 ;&st7;  " d=" M   423.74,   264.24  L   423.46,   264.71  L   423.37,   265.24  L   423.46,   265.77  L   423.74,   266.24  L   424.15,   266.59  L   424.66,   266.78  L   425.20,   266.78  L   425.71,   266.59  L   426.12,   266.24  L   426.39,   265.77  L   426.49,   265.24  L   426.39,   264.71  L   426.12,   264.24  L   425.71,   263.89  L   425.20,   263.71  L   424.66,   263.71  L   424.15,   263.89  L   423.74,   264.24  L   424.13,   264.95  L   424.13,   265.53  L   424.50,   265.98  L   425.08,   266.08  L   425.58,   265.79  L   425.78,   265.24  L   425.58,   264.69  L   425.08,   264.41  L   424.50,   264.50  L   424.93,   265.24  " /><path style="stroke-width:0.85 ;&st7;  " d=" M   389.74,   264.24  L   389.47,   264.71  L   389.38,   265.24  L   389.47,   265.77  L   389.74,   266.24  L   390.16,   266.59  L   390.66,   266.78  L   391.21,   266.78  L   391.71,   266.59  L   392.13,   266.24  L   392.40,   265.77  L   392.49,   265.24  L   392.40,   264.71  L   392.13,   264.24  L   391.71,   263.89  L   391.21,   263.71  L   390.66,   263.71  L   390.16,   263.89  L   389.74,   264.24  L   390.14,   264.95  L   390.14,   265.53  L   390.51,   265.98  L   391.08,   266.08  L   391.59,   265.79  L   391.78,   265.24  L   391.59,   264.69  L   391.08,   264.41  L   390.51,   264.50  L   390.93,   265.24  " /><text style="&st18;" transform="matrix(&st16;  345.14  280.24 )">19</text><path style="stroke-width:1.42 ;&st7;   " d=" M   361.47,   278.27  C   361.47    275.77    359.44    273.74    356.94    273.74  " /><path style="stroke-width:1.42 ;&st7;   " d=" M   356.94,   273.74  C   354.44    273.74    352.41    275.77    352.41    278.27  " /><path style="stroke-width:1.42 ;&st7;   " d=" M   352.41,   278.27  C   352.41    280.78    354.44    282.80    356.94    282.80  " /><path style="stroke-width:1.42 ;&st7;   " d=" M   356.94,   282.80  C   359.44    282.80    361.47    280.78    361.47    278.27  " /><text style="&st18;" transform="matrix(&st16;  354.52  280.24 )">C</text><text style="&st18;" transform="matrix(&st16;  379.14  280.24 )">17</text><path style="stroke-width:1.42 ;&st7;   " d=" M   395.47,   278.27  C   395.47    275.77    393.44    273.74    390.93    273.74  " /><path style="stroke-width:1.42 ;&st7;   " d=" M   390.93,   273.74  C   388.43    273.74    386.40    275.77    386.40    278.27  " /><path style="stroke-width:1.42 ;&st7;   " d=" M   386.40,   278.27  C   386.40    280.78    388.43    282.80    390.93    282.80  " /><path style="stroke-width:1.42 ;&st7;   " d=" M   390.93,   282.80  C   393.44    282.80    395.47    280.78    395.47    278.27  " /><text style="&st18;" transform="matrix(&st16;  388.51  280.24 )">C</text><text style="&st18;" transform="matrix(&st16;  413.13  280.24 )">18</text><path style="stroke-width:1.42 ;&st7;   " d=" M   429.46,   278.27  C   429.46    275.77    427.43    273.74    424.93    273.74  " /><path style="stroke-width:1.42 ;&st7;   " d=" M   424.93,   273.74  C   422.43    273.74    420.40    275.77    420.40    278.27  " /><path style="stroke-width:1.42 ;&st7;   " d=" M   420.40,   278.27  C   420.40    280.78    422.43    282.80    424.93    282.80  " /><path style="stroke-width:1.42 ;&st7;   " d=" M   424.93,   282.80  C   427.43    282.80    429.46    280.78    429.46    278.27  " /><text style="&st18;" transform="matrix(&st16;  422.51  280.24 )">C</text><text style="&st18;" transform="matrix(&st16;  447.13  280.24 )">20</text><text style="&st18;" transform="matrix(&st16;  456.5  280.24 )">C</text><path style="stroke-width:1.42 ;&st7;   " d=" M   463.46,   278.27  C   463.46    275.77    461.43    273.74    458.92    273.74  " /><path style="stroke-width:1.42 ;&st7;   " d=" M   458.92,   273.74  C   456.42    273.74    454.39    275.77    454.39    278.27  " /><path style="stroke-width:1.42 ;&st7;   " d=" M   454.39,   278.27  C   454.39    280.78    456.42    282.80    458.92    282.80  " /><path style="stroke-width:1.42 ;&st7;   " d=" M   458.92,   282.80  C   461.43    282.80    463.46    280.78    463.46    278.27  " /><text style="&st18;" transform="matrix(&st16;  447.13  254.18 )">22</text><text style="&st18;" transform="matrix(&st16;  456.5  254.18 )">C</text><path style="stroke-width:1.42 ;&st7;   " d=" M   463.46,   252.21  C   463.46    249.71    461.43    247.68    458.92    247.68  " /><path style="stroke-width:1.42 ;&st7;   " d=" M   458.92,   247.68  C   456.42    247.68    454.39    249.71    454.39    252.21  " /><path style="stroke-width:1.42 ;&st7;   " d=" M   454.39,   252.21  C   454.39    254.71    456.42    256.74    458.92    256.74  " /><path style="stroke-width:1.42 ;&st7;   " d=" M   458.92,   256.74  C   461.43    256.74    463.46    254.71    463.46    252.21  " /><g ewd:figtype="title"><text style="&st18;" transform="matrix(&st16;  345.03  240.27 )">I118(C)</text><text style="&st18;" transform="matrix(&st16;  345.04  247.1 )" ewd:textID="44">No. 36 <tspan x="0 " dy="6.0">Junction Connector</tspan></text></g></g><g ewd:code="I17" ewd:figID="17" ewd:comment="21,20,19,27" ewd:figtype="conn"><path style="stroke-width:1.42 ;&st7;  " d=" M    42.49,   205.75  L  1963.17,   205.75  L  1963.17,   163.26  L    42.49,   163.26  L    42.49,   205.75  " /><text style="&st18;" transform="matrix(&st16;  199.96  202.05 )">SG</text><text style="&st18;" transform="matrix(&st16;  54.86  202.05 )">CG</text><text style="&st18;" transform="matrix(&st16;  1253.43  202.05 )">TC</text><text style="&st18;" transform="matrix(&st16;  773.63  202.05 )">WFSE</text><text style="&st18;" transform="matrix(&st16;  53.31  170.89 )">BAT</text><text style="&st18;" transform="matrix(&st16;  1727.3  202.05 )">TAC</text><text style="&st18;" transform="matrix(&st16;  607.38  202.05 )">SIL</text><text style="&st18;" transform="matrix(&st16;  1942.44  202.05 )">TS</text><text style="&st18;" transform="matrix(&st16;  1903.83  202.05 )">CANL</text><text style="&st18;" transform="matrix(&st16;  1869.41  202.05 )">CANH</text><g ewd:code="" ewd:figID="188" ewd:comment="20,27" ewd:figtype="commref"><text style="&st18;" transform="matrix(&st16;  789.09  202.05 )">(*20 *27)</text></g><text style="&st18;" transform="matrix(&st16;  775.57  196.11 )">ACL</text><g ewd:code="" ewd:figID="189" ewd:comment="19,21" ewd:figtype="commref"><text style="&st18;" transform="matrix(&st16;  786.96  196.11 )">(*19,LHD *21)</text></g><text style="&st18;" transform="matrix(&st16;  197.78  213.94 )">5</text><text style="&st18;" transform="matrix(&st16;  53.31  213.94 )">4</text><text style="&st18;" transform="matrix(&st16;  50.2  159.57 )">16</text><text style="&st18;" transform="matrix(&st16;  605.71  213.94 )">7</text><text style="&st18;" transform="matrix(&st16;  772.58  213.94 )">15</text><text style="&st18;" transform="matrix(&st16;  1248.5  213.94 )">13</text><text style="&st18;" transform="matrix(&st16;  1727.53  213.94 )">9</text><text style="&st18;" transform="matrix(&st16;  1872.0  213.94 )">6</text><text style="&st18;" transform="matrix(&st16;  1902.89  213.94 )">14</text><text style="&st18;" transform="matrix(&st16;  1936.89  213.94 )">12</text><g ewd:figtype="title"><text style="&st18;" transform="matrix(&st16;  251.55  159.56 )">DLC3</text><text style="&st18;" transform="matrix(&st16;  251.54  152.74 )">I17</text></g></g><g ewd:code="AC5" ewd:figID="26" ewd:comment="8" ewd:figtype="w2w"><path style="stroke-width:1.42 ;&st7;  " d=" M   208.22,   461.27  L   203.97,   457.03  L   199.72,   461.27  " /><path style="stroke-width:1.42 ;&st7;  " d=" M   208.22,   457.88  L   203.97,   453.63  L   199.72,   457.88  " /><text style="&st18;" transform="matrix(&st16;  191.33  449.93 )">9</text><g ewd:code="" ewd:figID="78" ewd:comment="8" ewd:figtype="commref"><text style="&st18;" transform="matrix(&st16;  213.0  449.93 )">(*8)</text></g></g><g ewd:code="IC2" ewd:figID="27" ewd:comment="7" ewd:figtype="w2w"><text style="&st18;" transform="matrix(&st16;  191.33  441.43 )">9</text><g ewd:code="" ewd:figID="77" ewd:comment="7" ewd:figtype="commref"><text style="&st18;" transform="matrix(&st16;  213.0  441.43 )">(*7)</text></g></g><g ewd:figtype="w2w" ewd:figID="28" ewd:code="AI3"><path style="stroke-width:1.42 ;&st7;  " d=" M   208.22,   327.56  L   203.97,   331.81  L   199.72,   327.56  " /><path style="stroke-width:1.42 ;&st7;  " d=" M   199.72,   324.16  L   203.97,   328.41  L   208.22,   324.16  " /><text style="&st18;" transform="matrix(&st16;  188.23  339.45 )">56</text></g><g ewd:figtype="w2w" ewd:figID="29" ewd:code="AC1"><path style="stroke-width:1.42 ;&st7;  " d=" M   259.21,   449.38  L   254.96,   445.13  L   250.71,   449.38  " /><path style="stroke-width:1.42 ;&st7;  " d=" M   259.21,   452.78  L   254.96,   448.53  L   250.71,   452.78  " /><text style="&st18;" transform="matrix(&st16;  242.33  441.43 )">1</text></g><g ewd:code="AI3" ewd:figID="30" ewd:comment="3" ewd:figtype="w2w"><text style="&st18;" transform="matrix(&st16;  239.22  339.45 )">55</text><g ewd:code="" ewd:figID="134" ewd:comment="3" ewd:figtype="commref"><text style="&st18;" transform="matrix(&st16;  263.99  339.45 )">(RHD *3)</text></g></g><g ewd:code="AI3" ewd:figID="31" ewd:comment="3" ewd:figtype="w2w"><text style="&st18;" transform="matrix(&st16;  239.22  330.95 )">13</text><g ewd:code="" ewd:figID="133" ewd:comment="3" ewd:figtype="commref"><text style="&st18;" transform="matrix(&st16;  263.99  330.95 )">(LHD *3)</text></g></g><g ewd:code="AI3" ewd:figID="32" ewd:comment="5" ewd:figtype="w2w"><text style="&st18;" transform="matrix(&st16;  239.22  322.45 )">22</text><g ewd:code="" ewd:figID="131" ewd:comment="5" ewd:figtype="commref"><text style="&st18;" transform="matrix(&st16;  263.99  322.45 )">(*5)</text></g></g><g ewd:code="AI3" ewd:figID="33" ewd:comment="4" ewd:figtype="w2w"><path style="stroke-width:1.42 ;&st7;  " d=" M   259.21,   302.07  L   254.96,   306.32  L   250.71,   302.07  " /><path style="stroke-width:1.42 ;&st7;  " d=" M   250.71,   298.67  L   254.96,   302.92  L   259.21,   298.67  " /><text style="&st18;" transform="matrix(&st16;  239.22  313.95 )">45</text><g ewd:code="" ewd:figID="132" ewd:comment="4" ewd:figtype="commref"><text style="&st18;" transform="matrix(&st16;  263.99  313.95 )">(*4)</text></g></g><g ewd:figtype="w2w" ewd:figID="34" ewd:code="CA4"><path style="stroke-width:1.42 ;&st7;  " d=" M   310.20,   429.55  L   305.95,   433.80  L   301.70,   429.55  " /><path style="stroke-width:1.42 ;&st7;  " d=" M   301.70,   426.15  L   305.95,   430.40  L   310.20,   426.15  " /><text style="&st18;" transform="matrix(&st16;  290.22  441.43 )">17</text></g><g ewd:figtype="w2w" ewd:figID="35" ewd:code="IS2"><path style="stroke-width:1.42 ;&st7;  " d=" M   361.19,   574.02  L   356.94,   578.27  L   352.69,   574.02  " /><path style="stroke-width:1.42 ;&st7;  " d=" M   352.69,   570.62  L   356.94,   574.87  L   361.19,   570.62  " /><text style="&st18;" transform="matrix(&st16;  344.31  585.91 )">4</text></g><g ewd:figtype="w2w" ewd:figID="36" ewd:code="IS2"><path style="stroke-width:1.42 ;&st7;  " d=" M   361.19,   364.39  L   356.94,   360.14  L   352.69,   364.39  " /><path style="stroke-width:1.42 ;&st7;  " d=" M   361.19,   367.79  L   356.94,   363.54  L   352.69,   367.79  " /><text style="&st18;" transform="matrix(&st16;  341.21  356.45 )">20</text></g><g ewd:figtype="w2w" ewd:figID="37" ewd:code="UI5"><path style="stroke-width:1.42 ;&st7;  " d=" M   395.18,   593.85  L   390.93,   589.60  L   386.69,   593.85  " /><path style="stroke-width:1.42 ;&st7;  " d=" M   395.18,   597.25  L   390.93,   593.00  L   386.69,   597.25  " /><text style="&st18;" transform="matrix(&st16;  375.2  585.91 )">12</text></g><g ewd:figtype="w2w" ewd:figID="38" ewd:code="UI5"><path style="stroke-width:1.42 ;&st7;  " d=" M   395.18,   344.56  L   390.93,   348.81  L   386.69,   344.56  " /><path style="stroke-width:1.42 ;&st7;  " d=" M   386.69,   341.16  L   390.93,   345.41  L   395.18,   341.16  " /><text style="&st18;" transform="matrix(&st16;  375.2  356.45 )">15</text></g><g ewd:figtype="w2w" ewd:figID="39" ewd:code="YI3"><path style="stroke-width:1.42 ;&st7;  " d=" M   429.18,   597.25  L   424.93,   593.00  L   420.68,   597.25  " /><path style="stroke-width:1.42 ;&st7;  " d=" M   429.18,   593.85  L   424.93,   589.60  L   420.68,   593.85  " /><text style="&st18;" transform="matrix(&st16;  412.3  585.91 )">6</text></g><g ewd:figtype="w2w" ewd:figID="40" ewd:code="YI3"><path style="stroke-width:1.42 ;&st7;  " d=" M   429.18,   344.56  L   424.93,   348.81  L   420.68,   344.56  " /><path style="stroke-width:1.42 ;&st7;  " d=" M   420.68,   341.16  L   424.93,   345.41  L   429.18,   341.16  " /><text style="&st18;" transform="matrix(&st16;  412.3  356.45 )">2</text></g><g ewd:figtype="gp" ewd:figID="69" ewd:code="IA"><path style="stroke-width: 0.85 ;&st7;  " d=" M    58.07,   710.00  L    60.91,   710.00  " /><path style="stroke-width: 0.85 ;&st7;  " d=" M    56.66,   707.17  L    62.32,   707.17  " /><path style="stroke-width: 0.85 ;&st7;  " d=" M    55.24,   704.33  L    63.74,   704.33  " /><path style="stroke-width: 0.85 ;&st7;  " d=" M    50.99,   701.50  L    67.99,   701.50  " /><path style="stroke-width: 0.85 ;&st7;  " d=" M    59.49,   697.25  L    59.49,   701.50  " /></g><g ewd:figtype="gp" ewd:figID="70" ewd:code="CA"><path style="stroke-width: 0.85 ;&st7;  " d=" M   202.55,   710.00  L   205.38,   710.00  " /><path style="stroke-width: 0.85 ;&st7;  " d=" M   201.13,   707.17  L   206.80,   707.17  " /><path style="stroke-width: 0.85 ;&st7;  " d=" M   199.72,   704.33  L   208.22,   704.33  " /><path style="stroke-width: 0.85 ;&st7;  " d=" M   195.47,   701.50  L   212.46,   701.50  " /><path style="stroke-width: 0.85 ;&st7;  " d=" M   203.97,   697.25  L   203.97,   701.50  " /></g><g ewd:figtype="gp" ewd:figID="71" ewd:code="CC"><path style="stroke-width: 0.85 ;&st7;  " d=" M   254.96,   697.25  L   254.96,   701.50  " /><path style="stroke-width: 0.85 ;&st7;  " d=" M   246.46,   701.50  L   263.46,   701.50  " /><path style="stroke-width: 0.85 ;&st7;  " d=" M   250.71,   704.33  L   259.21,   704.33  " /><path style="stroke-width: 0.85 ;&st7;  " d=" M   252.12,   707.17  L   257.79,   707.17  " /><path style="stroke-width: 0.85 ;&st7;  " d=" M   253.54,   710.00  L   256.37,   710.00  " /></g><g ewd:figtype="gp" ewd:figID="72" ewd:code="CE"><path style="stroke-width: 0.85 ;&st7;  " d=" M   305.95,   697.25  L   305.95,   701.50  " /><path style="stroke-width: 0.85 ;&st7;  " d=" M   297.45,   701.50  L   314.45,   701.50  " /><path style="stroke-width: 0.85 ;&st7;  " d=" M   301.70,   704.33  L   310.20,   704.33  " /><path style="stroke-width: 0.85 ;&st7;  " d=" M   303.12,   707.17  L   308.78,   707.17  " /><path style="stroke-width: 0.85 ;&st7;  " d=" M   304.53,   710.00  L   307.37,   710.00  " /></g></svg>