<?xml version="1.0" encoding="utf-8"?>
<!DOCTYPE svg PUBLIC "-//W3C//DTD SVG 1.0//EN" "http://www.w3.org/TR/2001/REC-SVG-20010904/DTD/svg10.dtd"[
	<!ENTITY ns_flows "http://ns.adobe.com/Flows/1.0/">
	<!ENTITY ns_svg "http://www.w3.org/2000/svg">
	<!ENTITY ns_xlink "http://www.w3.org/1999/xlink">
	<!ENTITY st0 "font-size:7px;font-family:'MS-PGothic';adobe-font-script:japanese;">
	<!ENTITY st1 "font-size:6px;font-family:'ArialMT';">
	<!-- White fill  -->
	<!ENTITY st2 "fill:#FFFFFF;stroke:#000000; stroke-width:1.41;stroke-linecap:round;stroke-linejoin:round;">
	<!-- Yellow fill  -->
	<!ENTITY st3 "fill:#FFFFCC;stroke:#FFFFCC; stroke-width:0.1;stroke-linecap:round;stroke-linejoin:round;">
	<!-- Gray fill  -->
	<!ENTITY st4 "fill:#CCCCCC;stroke:#CCCCCC; stroke-width:0.1;stroke-linecap:round;stroke-linejoin:round;">
	<!-- Light-blue fill -->
	<!ENTITY st5 "fill:#CCECF4;stroke:#000000; stroke-width:1.133;stroke-linecap:round;stroke-linejoin:round;">
	<!ENTITY st6 "fill:none;stroke-linecap:butt; stroke-linejoin:round;">
	<!ENTITY st7 "fill:none;stroke:#000000;stroke-linecap:round;stroke-linejoin:round;">
	<!ENTITY st8 "enable-background:new    ;">
	<!-- Black fill -->
	<!ENTITY st9 "fill:#000000;stroke:#000000; stroke-linecap:round;stroke-linejoin:round;">
	<!-- SRS note   -->
	<!ENTITY st10 "font-size:9px;font-family:'ArialMT';">
	<!ENTITY st11 "font-size:9px;font-family:'Svg Symbol';">
	<!ENTITY st12 "font-size:6px;font-family:'Svg Symbol';">
	<!ENTITY st13 "fill:none;stroke:#ff0000;stroke-linecap:round;stroke-linejoin:round;">
	<!-- Yellow fill  -->
	<!ENTITY st14 "fill:#FFFF00;stroke:#FFFF00; stroke-width:0.1;stroke-linecap:round;stroke-linejoin:round;">
	<!ENTITY st15 "font-size:6px;font-family:'MS-PGothic';adobe-font-script:japanese;">
	<!ENTITY st16 "1.00 0.00 0.00 1.00">
	<!ENTITY st17 "0.00 -1.00 1.00 0.00">
	<!ENTITY st18 "font-size:6px;font-family:'Arial';">
	<!ENTITY st19 "font-size:9px;font-family:'Arial';">
	<!ENTITY st20 "font-size:6px;font-family:'MS-PGothic','MS PGothic';adobe-font-script:japanese;">
	<!ENTITY st21 "font-size:7px;font-family:'MS-PGothic','MS PGothic';adobe-font-script:japanese;">
	<!ATTLIST svg
		xmlns:ewd CDATA #FIXED "http://shcl.co.jp/ewd"
		xmlns:a CDATA #FIXED "http://ns.adobe.com/AdobeSVGViewerExtensions/3.0/"
		ewd:ver CDATA #IMPLIED
	>
	<!ATTLIST a
		ewd:lineID CDATA #IMPLIED
		ewd:groupID CDATA #IMPLIED
		ewd:figtype CDATA #IMPLIED
		ewd:code CDATA #IMPLIED
		ewd:figID CDATA #IMPLIED
		ewd:pinNo CDATA #IMPLIED
		ewd:comment CDATA #IMPLIED >
	<!ATTLIST g
		ewd:lineID CDATA #IMPLIED
		ewd:groupID CDATA #IMPLIED
		ewd:figtype CDATA #IMPLIED
		ewd:code CDATA #IMPLIED
		ewd:figID CDATA #IMPLIED
		ewd:pinNo CDATA #IMPLIED
		ewd:comment CDATA #IMPLIED >
	<!ATTLIST text
		ewd:textID CDATA #IMPLIED >
	<!ATTLIST title
		ewd:textID CDATA #IMPLIED >
]>
<!-- Generator: Shintec Hozumi YS   -->
<svg onload="call_execInitLoadProc_svg('system')" style="overflow:visible;  enable-background:new 0 0 6214.333 710.000" viewBox="0 0 6214.333 710.000" height="710.000" width="6214.333" xml:space="preserve" ewd:ver="2.1.2.9" xmlns="&ns_svg;" xmlns:a="http://ns.adobe.com/AdobeSVGViewerExtensions/3.0/" xmlns:ewd="http://shcl.co.jp/ewd" xmlns:xlink="&ns_xlink;">
<path style="stroke-width:1.42 ;&st7;  " d=" M  5005.66,   511.70  L  4997.17,   511.70  " /><path style="stroke-width:1.42 ;&st7;  " d=" M  4988.67,   341.73  L  4997.17,   341.73  " /><path style="stroke-width:1.42 ;&st7;  " d=" M  4946.17,   350.23  L  4937.67,   350.23  " /><path style="stroke-width:1.42 ;&st7;  " d=" M  4946.17,   409.72  L  4937.67,   409.72  " /><text style="&st18;" transform="matrix(&st17;  4933.98  317.81 )">L</text><text style="&st18;" transform="matrix(&st17;  4602.54  219.64 )">B-W</text><text style="&st18;" transform="matrix(&st17;  4840.5  223.6 )">R-B</text><text style="&st18;" transform="matrix(&st17;  4942.48  215.86 )">R</text><text style="&st18;" transform="matrix(&st17;  4848.99  336.78 )">BR</text><text style="&st18;" transform="matrix(&st17;  4806.5  466.66 )">W-B</text><text style="&st18;" transform="matrix(&st17;  4806.5  339.18 )">W-B</text><text style="&st18;" transform="matrix(&st17;  4772.51  464.26 )">BR</text><text style="&st18;" transform="matrix(&st17;  4772.51  336.78 )">BR</text><text style="&st18;" transform="matrix(&st17;  4772.51  566.24 )">BR</text><text style="&st18;" transform="matrix(&st17;  4568.54  334.92 )">B</text><text style="&st18;" transform="matrix(&st17;  4526.05  335.69 )">W</text><text style="&st18;" transform="matrix(&st17;  4993.47  322.07 )">L-W</text><text style="&st18;" transform="matrix(&st17;  4993.47  662.13 )">W-B</text><text style="&st18;" transform="matrix(&st17;  4993.47  538.9 )">W-B</text><text style="&st18;" transform="matrix(&st17;  4993.47  453.91 )">W-B</text><text style="&st18;" transform="matrix(&st17;  4993.47  373.06 )">L-W</text><text style="&st18;" transform="matrix(&st17;  4594.04  464.26 )">BR</text><text style="&st18;" transform="matrix(&st17;  4806.5  568.65 )">W-B</text><text style="&st18;" transform="matrix(&st17;  4993.47  496.41 )">W-B</text><text style="&st18;" transform="matrix(&st17;  4933.98  377.3 )">L</text><text style="&st18;" transform="matrix(&st17;  4933.98  436.79 )">L</text><text style="&st18;" transform="matrix(&st17;  4933.98  521.9 )">W-B</text><text style="&st18;" transform="matrix(&st17;  4933.98  564.4 )">W-B</text><text style="&st18;" transform="matrix(&st17;  4933.98  662.13 )">W-B</text><path style="stroke-width:1.42 ;&st7;  " d=" M  4784.70,   508.17  L  4779.73,   503.20  " /><path style="stroke-width:1.42 ;&st7;  " d=" M  4767.70,   515.23  L  4772.68,   520.20  " /><path style="stroke-width:1.42 ;&st7;  " d=" M  4779.73,   520.20  L  4784.70,   515.23  " /><path style="stroke-width:1.42 ;&st7;  " d=" M  4772.68,   503.20  L  4767.70,   508.17  " /><path style="stroke-width:1.42 ;&st7;  " d=" M  4606.23,   346.70  L  4601.26,   341.73  " /><path style="stroke-width:1.42 ;&st7;  " d=" M  4589.23,   353.76  L  4594.20,   358.73  " /><path style="stroke-width:1.42 ;&st7;  " d=" M  4601.26,   358.73  L  4606.23,   353.76  " /><path style="stroke-width:1.42 ;&st7;  " d=" M  4594.20,   341.73  L  4589.23,   346.70  " /><path style="stroke-width:1.42 ;&st7;  " d=" M  4597.73,   188.75  L  4606.23,   188.75  " /><text style="&st18;" transform="matrix(&st17;  4560.04  194.71 )">B-W</text><text style="&st18;" transform="matrix(&st17;  4500.55  135.22 )">B-W</text><path style="stroke-width:1.42 ;&st7;  " d=" M  4818.69,   508.17  L  4813.72,   503.20  " /><path style="stroke-width:1.42 ;&st7;  " d=" M  4801.70,   515.23  L  4806.67,   520.20  " /><path style="stroke-width:1.42 ;&st7;  " d=" M  4813.72,   520.20  L  4818.69,   515.23  " /><path style="stroke-width:1.42 ;&st7;  " d=" M  4806.67,   503.20  L  4801.70,   508.17  " /><path style="stroke-width:1.42 ;&st7;  " d=" M  4835.69,    68.64  L  4844.19,    68.64  " /><path style="stroke-width:1.42 ;&st7;  " d=" M  4852.69,   193.73  L  4847.72,   188.75  " /><path style="stroke-width:1.42 ;&st7;  " d=" M  4835.69,   200.78  L  4840.66,   205.75  " /><path style="stroke-width:1.42 ;&st7;  " d=" M  4847.72,   205.75  L  4852.69,   200.78  " /><path style="stroke-width:1.42 ;&st7;  " d=" M  4840.66,   188.75  L  4835.69,   193.73  " /><text style="&st18;" transform="matrix(&st17;  4781.0  118.09 )">L</text><text style="&st18;" transform="matrix(&st17;  4840.5  176.86 )">R-B</text><text style="&st18;" transform="matrix(&st17;  4840.49  45.85 )">L</text><text style="&st18;" transform="matrix(&st17;  4704.52  194.58 )">L</text><text style="&st18;" transform="matrix(&st17;  4704.52  126.59 )">L</text><path style="stroke-width:1.42 ;&st7;  " d=" M  4793.20,    78.27  L  4784.70,    78.27  " /><path style="stroke-width:1.42 ;&st7;  " d=" M  4946.17,   533.67  L  4941.20,   528.70  " /><path style="stroke-width:1.42 ;&st7;  " d=" M  4929.18,   540.73  L  4934.15,   545.69  " /><path style="stroke-width:1.42 ;&st7;  " d=" M  4941.20,   545.69  L  4946.17,   540.73  " /><path style="stroke-width:1.42 ;&st7;  " d=" M  4934.15,   528.70  L  4929.18,   533.67  " /><path style="stroke-width:1.42 ;&st7;  " d=" M  4988.67,   472.74  L  4993.64,   477.71  " /><path style="stroke-width:1.42 ;&st7;  " d=" M  4993.64,   460.71  L  4988.67,   465.68  " /><text style="&st18;" transform="matrix(&st16;  4687.17  525.0 )">BR</text><text style="&st18;" transform="matrix(&st16;  4636.18  525.0 )">BR</text><text style="&st18;" transform="matrix(&st16;  4636.18  508.0 )">BR</text><text style="&st18;" transform="matrix(&st16;  4687.17  508.0 )">BR</text><text style="&st18;" transform="matrix(&st16;  4883.28  271.46 )">ECM</text><text style="&st18;" transform="matrix(&st16;  4883.27  264.64 )">A29(A),C39(B)</text><text style="&st18;" transform="matrix(&st17;  4840.49  92.59 )">L</text><g ewd:figtype="rb" ewd:figID="3" ewd:code="FUSE23"><path style="stroke-width:1.42 ;&st7;  " d=" M  4710.34,    95.27  L  4706.09,    95.27  " /><path style="stroke-width:1.42 ;&st7;  " d=" M  4710.34,   103.77  L  4706.09,   103.77  " /><path style="stroke-width:0.85 ;&st7;  " d=" M  4708.21,    78.27  L  4708.21,    95.27  " /><path style="stroke-width:1.42 ;&st7;   " d=" M  4706.09,    95.27  C  4703.74     95.27   4701.84     97.17   4701.84     99.52  " /><path style="stroke-width:1.42 ;&st7;   " d=" M  4701.84,    99.52  C  4701.84    101.87   4703.74    103.77   4706.09    103.77  " /><path style="stroke-width:1.42 ;&st7;   " d=" M  4710.34,   103.77  C  4712.68    103.77   4714.59    101.87   4714.59     99.52  " /><path style="stroke-width:1.42 ;&st7;   " d=" M  4714.59,    99.52  C  4714.59     97.17   4712.68     95.27   4710.34     95.27  " /><path style="stroke-width:0.28 ;&st9;  " d=" M  4708.21,    90.37  L  4705.38,    87.54  L  4705.38,    91.79  L  4708.21,    94.62  L  4711.04,    91.79  L  4711.04,    87.54  L  4708.21,    90.37  " /><text style="&st18;" transform="matrix(&st16;  4724.64  56.17 )">15A <tspan x="0 " dy="6.0">GAUGE</tspan></text><text style="&st18;" transform="matrix(&st16;  4706.41  101.49 )">2</text><text style="&st18;" transform="matrix(&st16;  4702.03  86.47 )">2</text><text style="&st18;" transform="matrix(&st16;  4703.0  32.08 )">(IG)</text><path style="stroke-width:0.85 ;&st7;  " d=" M  4708.21,    69.77  L  4708.21,    78.27  " /><path style="stroke-width:1.42 ;&st7;   " d=" M  4708.21,    47.11  C  4705.48     48.72   4704.56     52.25   4706.18     54.99  " /><path style="stroke-width:1.42 ;&st7;   " d=" M  4706.18,    54.99  C  4706.70     55.87   4707.33     56.51   4708.21     57.03  " /><path style="stroke-width:1.42 ;&st7;   " d=" M  4708.21,    66.94  C  4710.95     65.33   4711.86     61.80   4710.25     59.06  " /><path style="stroke-width:1.42 ;&st7;   " d=" M  4710.25,    59.06  C  4709.73     58.18   4709.10     57.55   4708.21     57.03  " /><path style="stroke-width:0.85 ;&st7;   " d=" M  4709.63,    45.69  C  4709.63     44.91   4709.00     44.28   4708.21     44.28  " /><path style="stroke-width:0.85 ;&st7;   " d=" M  4708.21,    44.28  C  4707.43     44.28   4706.80     44.91   4706.80     45.69  " /><path style="stroke-width:0.85 ;&st7;   " d=" M  4706.80,    45.69  C  4706.80     46.48   4707.43     47.11   4708.21     47.11  " /><path style="stroke-width:0.85 ;&st7;   " d=" M  4708.21,    47.11  C  4709.00     47.11   4709.63     46.48   4709.63     45.69  " /><path style="stroke-width:0.85 ;&st7;   " d=" M  4709.63,    68.36  C  4709.63     67.57   4709.00     66.94   4708.21     66.94  " /><path style="stroke-width:0.85 ;&st7;   " d=" M  4708.21,    66.94  C  4707.43     66.94   4706.80     67.57   4706.80     68.36  " /><path style="stroke-width:0.85 ;&st7;   " d=" M  4706.80,    68.36  C  4706.80     69.14   4707.43     69.77   4708.21     69.77  " /><path style="stroke-width:0.85 ;&st7;   " d=" M  4708.21,    69.77  C  4709.00     69.77   4709.63     69.14   4709.63     68.36  " /><path style="stroke-width:1.42 ;&st7;  " d=" M  4695.46,    35.78  L  4695.46,    78.27  L  4720.96,    78.27  L  4720.96,    35.78  L  4695.46,    35.78  " /></g><g ewd:figtype="conn" ewd:figID="4" ewd:code="I107"><path style="stroke-width:0.85 ;&st7;  " d=" M  4784.70,   154.76  L  4784.70,   171.76  " /><path style="stroke-width:1.42 ;&st7;  " d=" M  4776.20,   154.76  L  4793.20,   154.76  L  4793.20,   171.76  L  4776.20,   171.76  L  4776.20,   154.76  " /><text style="&st18;" transform="matrix(&st16;  4776.01  178.26 )">5</text><text style="&st18;" transform="matrix(&st16;  4782.51  178.26 )">B</text><path style="stroke-width:1.42 ;&st7;   " d=" M  4789.23,   176.29  C  4789.23    173.79   4787.20    171.76   4784.70    171.76  " /><path style="stroke-width:1.42 ;&st7;   " d=" M  4784.70,   171.76  C  4782.20    171.76   4780.17    173.79   4780.17    176.29  " /><path style="stroke-width:1.42 ;&st7;   " d=" M  4780.17,   176.29  C  4780.17    178.79   4782.20    180.82   4784.70    180.82  " /><path style="stroke-width:1.42 ;&st7;   " d=" M  4784.70,   180.82  C  4787.20    180.82   4789.23    178.79   4789.23    176.29  " /><text style="&st18;" transform="matrix(&st16;  4776.01  152.2 )">4</text><text style="&st18;" transform="matrix(&st16;  4782.51  152.2 )">B</text><path style="stroke-width:1.42 ;&st7;   " d=" M  4789.23,   150.23  C  4789.23    147.72   4787.20    145.69   4784.70    145.69  " /><path style="stroke-width:1.42 ;&st7;   " d=" M  4784.70,   145.69  C  4782.20    145.69   4780.17    147.72   4780.17    150.23  " /><path style="stroke-width:1.42 ;&st7;   " d=" M  4780.17,   150.23  C  4780.17    152.73   4782.20    154.76   4784.70    154.76  " /><path style="stroke-width:1.42 ;&st7;   " d=" M  4784.70,   154.76  C  4787.20    154.76   4789.23    152.73   4789.23    150.23  " /><g ewd:figtype="title"><text style="&st18;" transform="matrix(&st17;  4801.09  174.66 )">I107(B)</text><text style="&st18;" transform="matrix(&st17;  4807.92  174.66 )" ewd:textID="61">No. 12 <tspan x="0 " dy="6.0">Junction </tspan><tspan x="0 " dy="6.0">Connector</tspan></text></g></g><g ewd:figtype="conn" ewd:figID="5" ewd:code="I105"><path style="stroke-width:0.85 ;&st7;  " d=" M  4708.21,   154.76  L  4708.21,   171.76  " /><path style="stroke-width:1.42 ;&st7;  " d=" M  4699.71,   154.76  L  4716.71,   154.76  L  4716.71,   171.76  L  4699.71,   171.76  L  4699.71,   154.76  " /><text style="&st18;" transform="matrix(&st16;  4699.52  178.26 )">8</text><text style="&st18;" transform="matrix(&st16;  4705.91  178.26 )">A</text><path style="stroke-width:1.42 ;&st7;   " d=" M  4712.75,   176.29  C  4712.75    173.79   4710.72    171.76   4708.21    171.76  " /><path style="stroke-width:1.42 ;&st7;   " d=" M  4708.21,   171.76  C  4705.71    171.76   4703.68    173.79   4703.68    176.29  " /><path style="stroke-width:1.42 ;&st7;   " d=" M  4703.68,   176.29  C  4703.68    178.79   4705.71    180.82   4708.21    180.82  " /><path style="stroke-width:1.42 ;&st7;   " d=" M  4708.21,   180.82  C  4710.72    180.82   4712.75    178.79   4712.75    176.29  " /><text style="&st18;" transform="matrix(&st16;  4699.52  152.2 )">1</text><text style="&st18;" transform="matrix(&st16;  4705.91  152.2 )">A</text><path style="stroke-width:1.42 ;&st7;   " d=" M  4712.75,   150.23  C  4712.75    147.72   4710.72    145.69   4708.21    145.69  " /><path style="stroke-width:1.42 ;&st7;   " d=" M  4708.21,   145.69  C  4705.71    145.69   4703.68    147.72   4703.68    150.23  " /><path style="stroke-width:1.42 ;&st7;   " d=" M  4703.68,   150.23  C  4703.68    152.73   4705.71    154.76   4708.21    154.76  " /><path style="stroke-width:1.42 ;&st7;   " d=" M  4708.21,   154.76  C  4710.72    154.76   4712.75    152.73   4712.75    150.23  " /><g ewd:figtype="title"><text style="&st18;" transform="matrix(&st17;  4731.43  174.66 )" ewd:textID="57">No. 8 <tspan x="0 " dy="6.0">Junction </tspan><tspan x="0 " dy="6.0">Connector</tspan></text><text style="&st18;" transform="matrix(&st17;  4724.61  174.66 )">I105(A)</text></g></g><g ewd:figtype="conn" ewd:figID="6" ewd:code="C32"><path style="stroke-width:1.42 ;&st7;  " d=" M  4844.19,   139.18  L  4849.86,   116.52  " /><path style="stroke-width:0.85 ;&st7;  " d=" M  4844.19,   146.26  L  4844.19,   142.01  " /><path style="stroke-width:0.85 ;&st7;  " d=" M  4844.19,   116.52  L  4844.19,   112.27  " /><path style="stroke-width:0.85 ;&st7;   " d=" M  4845.61,   117.93  C  4845.61    117.15   4844.97    116.52   4844.19    116.52  " /><path style="stroke-width:0.85 ;&st7;   " d=" M  4844.19,   116.52  C  4843.41    116.52   4842.77    117.15   4842.77    117.93  " /><path style="stroke-width:0.85 ;&st7;   " d=" M  4842.77,   117.93  C  4842.77    118.71   4843.41    119.35   4844.19    119.35  " /><path style="stroke-width:0.85 ;&st7;   " d=" M  4844.19,   119.35  C  4844.97    119.35   4845.61    118.71   4845.61    117.93  " /><path style="stroke-width:0.85 ;&st7;   " d=" M  4845.61,   140.60  C  4845.61    139.81   4844.97    139.18   4844.19    139.18  " /><path style="stroke-width:0.85 ;&st7;   " d=" M  4844.19,   139.18  C  4843.41    139.18   4842.77    139.81   4842.77    140.60  " /><path style="stroke-width:0.85 ;&st7;   " d=" M  4842.77,   140.60  C  4842.77    141.38   4843.41    142.01   4844.19    142.01  " /><path style="stroke-width:0.85 ;&st7;   " d=" M  4844.19,   142.01  C  4844.97    142.01   4845.61    141.38   4845.61    140.60  " /><path style="stroke-width:1.42 ;&st7;  " d=" M  4852.69,   146.26  L  4852.69,   112.27  L  4835.69,   112.27  L  4835.69,   146.26  L  4852.69,   146.26  " /><text style="&st18;" transform="matrix(&st16;  4838.01  154.45 )">1</text><text style="&st18;" transform="matrix(&st16;  4838.01  108.58 )">2</text><g ewd:figtype="title"><text style="&st18;" transform="matrix(&st17;  4860.58  149.16 )">C32</text><text style="&st18;" transform="matrix(&st17;  4867.41  149.17 )" ewd:textID="5">Back-Up Light <tspan x="0 " dy="6.0">Switch Assembly</tspan></text></g></g><g ewd:figtype="conn" ewd:figID="39" ewd:code="C44"><path style="stroke-width:1.42 ;&st7;  " d=" M  4929.17,   171.76  L  4963.17,   171.76  L  4963.17,   137.76  L  4929.17,   137.76  L  4929.17,   171.76  " /><text style="&st18;" transform="matrix(&st16;  4937.48  178.26 )">3</text><path style="stroke-width:1.42 ;&st7;   " d=" M  4950.71,   176.29  C  4950.71    173.79   4948.68    171.76   4946.17    171.76  " /><path style="stroke-width:1.42 ;&st7;   " d=" M  4946.17,   171.76  C  4943.67    171.76   4941.64    173.79   4941.64    176.29  " /><path style="stroke-width:1.42 ;&st7;   " d=" M  4941.64,   176.29  C  4941.64    178.79   4943.67    180.82   4946.17    180.82  " /><path style="stroke-width:1.42 ;&st7;   " d=" M  4946.17,   180.82  C  4948.68    180.82   4950.71    178.79   4950.71    176.29  " /><text style="&st18;" transform="matrix(&st16;  4943.99  178.26 )">B</text><text style="&st18;" transform="matrix(&st16;  4943.44  168.06 )">M</text><g ewd:figtype="title"><text style="&st18;" transform="matrix(&st16;  4925.76  127.24 )">C44(B)</text><text style="&st18;" transform="matrix(&st16;  4925.77  134.07 )" ewd:textID="31">Generator Assembly</text></g></g><g ewd:figtype="conn" ewd:figID="41" ewd:code="L48"><path style="stroke-width:1.42 ;&st7;  " d=" M  4920.68,   494.70  L  4954.67,   494.70  L  4954.67,   460.71  L  4920.68,   460.71  L  4920.68,   494.70  " /><g ewd:lineID="229"><text style="&st18;" transform="matrix(&st16;  4931.49  502.9 )">4</text><text style="&st18;" transform="matrix(&st16;  4935.56  491.01 )">E</text></g><g ewd:lineID="230"><text style="&st18;" transform="matrix(&st16;  4931.49  457.02 )">3</text><text style="&st18;" transform="matrix(&st16;  4935.49  468.34 )">B</text></g><g ewd:figtype="title"><text style="&st18;" transform="matrix(&st17;  4969.39  497.61 )" ewd:textID="15">DPF Switch Assembly <tspan x="0 " dy="6.0">(DPR Switch Assembly)</tspan></text><text style="&st18;" transform="matrix(&st17;  4962.57  497.6 )">L48</text></g></g><g ewd:figtype="conn" ewd:figID="44" ewd:code="C78"><path style="stroke-width:0.85 ;&st7;  " d=" M  4997.17,   396.97  L  4997.17,   392.72  " /><path style="stroke-width:0.85 ;&st7;  " d=" M  4997.17,   426.71  L  4997.17,   422.46  " /><path style="stroke-width:1.42 ;&st7;  " d=" M  4997.17,   419.63  L  5002.83,   396.97  " /><path style="stroke-width:0.85 ;&st7;   " d=" M  4998.58,   398.39  C  4998.58    397.60   4997.95    396.97   4997.17    396.97  " /><path style="stroke-width:0.85 ;&st7;   " d=" M  4997.17,   396.97  C  4996.38    396.97   4995.75    397.60   4995.75    398.39  " /><path style="stroke-width:0.85 ;&st7;   " d=" M  4995.75,   398.39  C  4995.75    399.17   4996.38    399.80   4997.17    399.80  " /><path style="stroke-width:0.85 ;&st7;   " d=" M  4997.17,   399.80  C  4997.95    399.80   4998.58    399.17   4998.58    398.39  " /><path style="stroke-width:0.85 ;&st7;   " d=" M  4998.58,   421.05  C  4998.58    420.27   4997.95    419.63   4997.17    419.63  " /><path style="stroke-width:0.85 ;&st7;   " d=" M  4997.17,   419.63  C  4996.38    419.63   4995.75    420.27   4995.75    421.05  " /><path style="stroke-width:0.85 ;&st7;   " d=" M  4995.75,   421.05  C  4995.75    421.83   4996.38    422.46   4997.17    422.46  " /><path style="stroke-width:0.85 ;&st7;   " d=" M  4997.17,   422.46  C  4997.95    422.46   4998.58    421.83   4998.58    421.05  " /><path style="stroke-width:1.42 ;&st7;  " d=" M  4988.66,   392.72  L  5005.66,   392.72  L  5005.66,   426.71  L  4988.66,   426.71  L  4988.66,   392.72  " /><text style="&st18;" transform="matrix(&st16;  4990.98  434.91 )">1</text><text style="&st18;" transform="matrix(&st16;  4990.98  389.03 )">2</text><g ewd:figtype="title"><text style="&st18;" transform="matrix(&st17;  5020.38  429.62 )" ewd:textID="69">Shift Position Switch</text><text style="&st18;" transform="matrix(&st17;  5013.56  429.61 )">C78</text></g></g><g ewd:figtype="conn" ewd:figID="47" ewd:code="C102,C103"><path style="stroke-width:1.42 ;&st7;  " d=" M  4767.70,   409.72  L  4818.69,   409.72  L  4818.69,   392.72  L  4767.70,   392.72  L  4767.70,   409.72  " /><path style="stroke-width:1.42 ;&st7;  " d=" M  4767.70,   401.22  L  4818.69,   401.22  " /><text style="&st18;" transform="matrix(&st16;  4767.51  416.22 )">4</text><text style="&st18;" transform="matrix(&st16;  4774.01  416.22 )">B</text><path style="stroke-width:1.42 ;&st7;   " d=" M  4780.73,   414.25  C  4780.73    411.75   4778.71    409.72   4776.20    409.72  " /><path style="stroke-width:1.42 ;&st7;   " d=" M  4776.20,   409.72  C  4773.70    409.72   4771.67    411.75   4771.67    414.25  " /><path style="stroke-width:1.42 ;&st7;   " d=" M  4771.67,   414.25  C  4771.67    416.75   4773.70    418.78   4776.20    418.78  " /><path style="stroke-width:1.42 ;&st7;   " d=" M  4776.20,   418.78  C  4778.71    418.78   4780.73    416.75   4780.73    414.25  " /><text style="&st18;" transform="matrix(&st16;  4767.51  390.16 )">4</text><path style="stroke-width:1.42 ;&st7;   " d=" M  4780.73,   388.19  C  4780.73    385.68   4778.71    383.65   4776.20    383.65  " /><path style="stroke-width:1.42 ;&st7;   " d=" M  4776.20,   383.65  C  4773.70    383.65   4771.67    385.68   4771.67    388.19  " /><path style="stroke-width:1.42 ;&st7;   " d=" M  4771.67,   388.19  C  4771.67    390.69   4773.70    392.72   4776.20    392.72  " /><path style="stroke-width:1.42 ;&st7;   " d=" M  4776.20,   392.72  C  4778.71    392.72   4780.73    390.69   4780.73    388.19  " /><text style="&st18;" transform="matrix(&st16;  4773.9  390.16 )">A</text><text style="&st18;" transform="matrix(&st16;  4801.5  416.22 )">1</text><text style="&st18;" transform="matrix(&st16;  4808.01  416.22 )">B</text><path style="stroke-width:1.42 ;&st7;   " d=" M  4814.73,   414.25  C  4814.73    411.75   4812.70    409.72   4810.20    409.72  " /><path style="stroke-width:1.42 ;&st7;   " d=" M  4810.20,   409.72  C  4807.69    409.72   4805.66    411.75   4805.66    414.25  " /><path style="stroke-width:1.42 ;&st7;   " d=" M  4805.66,   414.25  C  4805.66    416.75   4807.69    418.78   4810.20    418.78  " /><path style="stroke-width:1.42 ;&st7;   " d=" M  4810.20,   418.78  C  4812.70    418.78   4814.73    416.75   4814.73    414.25  " /><text style="&st18;" transform="matrix(&st16;  4801.5  390.16 )">1</text><path style="stroke-width:1.42 ;&st7;   " d=" M  4814.73,   388.19  C  4814.73    385.68   4812.70    383.65   4810.20    383.65  " /><path style="stroke-width:1.42 ;&st7;   " d=" M  4810.20,   383.65  C  4807.69    383.65   4805.66    385.68   4805.66    388.19  " /><path style="stroke-width:1.42 ;&st7;   " d=" M  4805.66,   388.19  C  4805.66    390.69   4807.69    392.72   4810.20    392.72  " /><path style="stroke-width:1.42 ;&st7;   " d=" M  4810.20,   392.72  C  4812.70    392.72   4814.73    390.69   4814.73    388.19  " /><text style="&st18;" transform="matrix(&st16;  4807.89  390.16 )">A</text><g ewd:figtype="title"><text style="&st18;" transform="matrix(&st17;  4833.41  412.62 )" ewd:textID="70">Short Connector</text><text style="&st18;" transform="matrix(&st17;  4826.59  412.62 )">C102(A),C103(B)</text></g></g><g ewd:figtype="conn" ewd:figID="48" ewd:code="C68"><path style="stroke-width:1.42 ;&st7;  " d=" M  4521.24,   401.22  L  4521.24,   409.72  " /><path style="stroke-width:1.42 ;&st7;  " d=" M  4538.24,   401.22  L  4538.24,   409.72  " /><path style="stroke-width:1.42 ;&st7;  " d=" M  4521.24,   418.22  L  4521.24,   409.72  " /><path style="stroke-width:1.42 ;&st7;  " d=" M  4538.24,   418.22  L  4538.24,   409.72  " /><path style="stroke-width:0.85 ;&st7;  " d=" M  4529.74,   392.72  L  4529.74,   401.22  " /><path style="stroke-width:0.85 ;&st7;  " d=" M  4529.74,   418.22  L  4529.74,   426.71  " /><path style="stroke-width:1.42 ;&st7;   " d=" M  4538.24,   401.22  C  4538.24    396.52   4534.44    392.72   4529.74    392.72  " /><path style="stroke-width:1.42 ;&st7;   " d=" M  4529.74,   392.72  C  4525.05    392.72   4521.24    396.52   4521.24    401.22  " /><path style="stroke-width:1.42 ;&st7;   " d=" M  4521.24,   418.22  C  4521.24    422.91   4525.05    426.71   4529.74    426.71  " /><path style="stroke-width:1.42 ;&st7;   " d=" M  4529.74,   426.71  C  4534.44    426.71   4538.24    422.91   4538.24    418.22  " /><path style="stroke-width:0.85 ;&st7;   " d=" M  4527.21,   407.24  C  4528.58    408.64   4530.82    408.66   4532.22    407.29  " /><path style="stroke-width:0.85 ;&st7;   " d=" M  4532.22,   407.29  C  4533.62    405.92   4533.64    403.68   4532.27    402.28  " /><path style="stroke-width:0.85 ;&st7;   " d=" M  4532.27,   402.28  C  4531.58    401.57   4530.73    401.22   4529.74    401.22  " /><path style="stroke-width:0.85 ;&st7;   " d=" M  4527.21,   412.20  C  4528.58    413.59   4530.82    413.62   4532.22    412.25  " /><path style="stroke-width:0.85 ;&st7;   " d=" M  4532.22,   412.25  C  4533.62    410.88   4533.64    408.64   4532.27    407.24  " /><path style="stroke-width:0.85 ;&st7;   " d=" M  4532.27,   407.24  C  4530.90    405.84   4528.66    405.82   4527.26    407.19  " /><path style="stroke-width:0.85 ;&st7;   " d=" M  4527.26,   407.19  C  4527.25    407.20   4527.23    407.22   4527.21    407.24  " /><path style="stroke-width:0.85 ;&st7;   " d=" M  4529.74,   418.22  C  4531.70    418.22   4533.28    416.63   4533.28    414.67  " /><path style="stroke-width:0.85 ;&st7;   " d=" M  4533.28,   414.67  C  4533.28    412.72   4531.70    411.13   4529.74    411.13  " /><path style="stroke-width:0.85 ;&st7;   " d=" M  4529.74,   411.13  C  4528.75    411.13   4527.91    411.49   4527.21    412.20  " /><text style="&st18;" transform="matrix(&st16;  4523.56  434.91 )">2</text><text style="&st18;" transform="matrix(&st16;  4523.56  389.03 )">1</text><g ewd:figtype="title"><text style="&st18;" transform="matrix(&st17;  4552.96  429.62 )" ewd:textID="7">Cam Position <tspan x="0 " dy="6.0">Sensor</tspan></text><text style="&st18;" transform="matrix(&st17;  4546.14  429.61 )">C68</text></g></g><g ewd:figtype="conn" ewd:figID="52" ewd:code="A29,C39"><g ewd:lineID="209"><text style="&st18;" transform="matrix(&st16;  4560.44  297.24 )">79</text><path style="stroke-width:1.42 ;&st7;   " d=" M  4576.77,   295.27  C  4576.77    292.77   4574.74    290.74   4572.24    290.74  " /><path style="stroke-width:1.42 ;&st7;   " d=" M  4572.24,   290.74  C  4569.73    290.74   4567.70    292.77   4567.70    295.27  " /><path style="stroke-width:1.42 ;&st7;   " d=" M  4567.70,   295.27  C  4567.70    297.77   4569.73    299.80   4572.24    299.80  " /><path style="stroke-width:1.42 ;&st7;   " d=" M  4572.24,   299.80  C  4574.74    299.80   4576.77    297.77   4576.77    295.27  " /><text style="&st18;" transform="matrix(&st16;  4570.05  297.24 )">B</text><text style="&st18;" transform="matrix(&st16;  4568.23  287.04 )">G-</text></g><g ewd:lineID="210"><text style="&st18;" transform="matrix(&st16;  4517.95  297.24 )">80</text><text style="&st18;" transform="matrix(&st16;  4527.55  297.24 )">B</text><path style="stroke-width:1.42 ;&st7;   " d=" M  4534.28,   295.27  C  4534.28    292.77   4532.25    290.74   4529.74    290.74  " /><path style="stroke-width:1.42 ;&st7;   " d=" M  4529.74,   290.74  C  4527.24    290.74   4525.21    292.77   4525.21    295.27  " /><path style="stroke-width:1.42 ;&st7;   " d=" M  4525.21,   295.27  C  4525.21    297.77   4527.24    299.80   4529.74    299.80  " /><path style="stroke-width:1.42 ;&st7;   " d=" M  4529.74,   299.80  C  4532.25    299.80   4534.28    297.77   4534.28    295.27  " /><text style="&st18;" transform="matrix(&st16;  4525.73  287.04 )">G+</text></g><g ewd:lineID="211"><text style="&st18;" transform="matrix(&st16;  4594.43  237.18 )">48</text><path style="stroke-width:1.42 ;&st7;   " d=" M  4610.76,   235.21  C  4610.76    232.71   4608.73    230.68   4606.23    230.68  " /><path style="stroke-width:1.42 ;&st7;   " d=" M  4606.23,   230.68  C  4603.73    230.68   4601.70    232.71   4601.70    235.21  " /><path style="stroke-width:1.42 ;&st7;   " d=" M  4601.70,   235.21  C  4601.70    237.72   4603.73    239.75   4606.23    239.75  " /><path style="stroke-width:1.42 ;&st7;   " d=" M  4606.23,   239.75  C  4608.73    239.75   4610.76    237.72   4610.76    235.21  " /><text style="&st18;" transform="matrix(&st16;  4603.93  237.18 )">A</text><text style="&st18;" transform="matrix(&st16;  4600.44  247.38 )">STA</text></g><g ewd:lineID="217"><text style="&st18;" transform="matrix(&st16;  4764.41  297.24 )">81</text><path style="stroke-width:1.42 ;&st7;   " d=" M  4780.73,   295.27  C  4780.73    292.77   4778.71    290.74   4776.20    290.74  " /><path style="stroke-width:1.42 ;&st7;   " d=" M  4776.20,   290.74  C  4773.70    290.74   4771.67    292.77   4771.67    295.27  " /><path style="stroke-width:1.42 ;&st7;   " d=" M  4771.67,   295.27  C  4771.67    297.77   4773.70    299.80   4776.20    299.80  " /><path style="stroke-width:1.42 ;&st7;   " d=" M  4776.20,   299.80  C  4778.71    299.80   4780.73    297.77   4780.73    295.27  " /><text style="&st18;" transform="matrix(&st16;  4774.01  297.24 )">B</text><text style="&st18;" transform="matrix(&st16;  4772.54  287.04 )">E1</text></g><g ewd:lineID="221"><text style="&st18;" transform="matrix(&st16;  4798.4  297.24 )">22</text><path style="stroke-width:1.42 ;&st7;   " d=" M  4814.73,   295.27  C  4814.73    292.77   4812.70    290.74   4810.20    290.74  " /><path style="stroke-width:1.42 ;&st7;   " d=" M  4810.20,   290.74  C  4807.69    290.74   4805.66    292.77   4805.66    295.27  " /><path style="stroke-width:1.42 ;&st7;   " d=" M  4805.66,   295.27  C  4805.66    297.77   4807.69    299.80   4810.20    299.80  " /><path style="stroke-width:1.42 ;&st7;   " d=" M  4810.20,   299.80  C  4812.70    299.80   4814.73    297.77   4814.73    295.27  " /><text style="&st18;" transform="matrix(&st16;  4808.01  297.24 )">B</text><text style="&st18;" transform="matrix(&st16;  4804.98  287.04 )">E01</text></g><g ewd:lineID="222"><text style="&st18;" transform="matrix(&st16;  4832.39  237.18 )">51</text><text style="&st18;" transform="matrix(&st16;  4842.0  237.18 )">B</text><path style="stroke-width:1.42 ;&st7;   " d=" M  4848.72,   235.21  C  4848.72    232.71   4846.69    230.68   4844.19    230.68  " /><path style="stroke-width:1.42 ;&st7;   " d=" M  4844.19,   230.68  C  4841.69    230.68   4839.66    232.71   4839.66    235.21  " /><path style="stroke-width:1.42 ;&st7;   " d=" M  4839.66,   235.21  C  4839.66    237.72   4841.69    239.75   4844.19    239.75  " /><path style="stroke-width:1.42 ;&st7;   " d=" M  4844.19,   239.75  C  4846.69    239.75   4848.72    237.72   4848.72    235.21  " /><text style="&st18;" transform="matrix(&st16;  4837.81  247.38 )">RSW</text></g><g ewd:lineID="226"><text style="&st18;" transform="matrix(&st16;  4840.89  297.24 )">23</text><text style="&st18;" transform="matrix(&st16;  4850.5  297.24 )">B</text><path style="stroke-width:1.42 ;&st7;   " d=" M  4857.22,   295.27  C  4857.22    292.77   4855.19    290.74   4852.69    290.74  " /><path style="stroke-width:1.42 ;&st7;   " d=" M  4852.69,   290.74  C  4850.19    290.74   4848.16    292.77   4848.16    295.27  " /><path style="stroke-width:1.42 ;&st7;   " d=" M  4848.16,   295.27  C  4848.16    297.77   4850.19    299.80   4852.69    299.80  " /><path style="stroke-width:1.42 ;&st7;   " d=" M  4852.69,   299.80  C  4855.19    299.80   4857.22    297.77   4857.22    295.27  " /><text style="&st18;" transform="matrix(&st16;  4847.48  287.04 )">E05</text></g><g ewd:lineID="232"><text style="&st18;" transform="matrix(&st16;  4925.88  297.24 )">16</text><path style="stroke-width:1.42 ;&st7;   " d=" M  4942.21,   295.27  C  4942.21    292.77   4940.18    290.74   4937.67    290.74  " /><path style="stroke-width:1.42 ;&st7;   " d=" M  4937.67,   290.74  C  4935.17    290.74   4933.14    292.77   4933.14    295.27  " /><path style="stroke-width:1.42 ;&st7;   " d=" M  4933.14,   295.27  C  4933.14    297.77   4935.17    299.80   4937.67    299.80  " /><path style="stroke-width:1.42 ;&st7;   " d=" M  4937.67,   299.80  C  4940.18    299.80   4942.21    297.77   4942.21    295.27  " /><text style="&st18;" transform="matrix(&st16;  4935.37  297.24 )">A</text><text style="&st18;" transform="matrix(&st16;  4929.28  287.04 )">DPSW</text></g><g ewd:lineID="233"><text style="&st18;" transform="matrix(&st16;  4934.38  237.18 )">53</text><text style="&st18;" transform="matrix(&st16;  4943.99  237.18 )">B</text><path style="stroke-width:1.42 ;&st7;   " d=" M  4950.71,   235.21  C  4950.71    232.71   4948.68    230.68   4946.17    230.68  " /><path style="stroke-width:1.42 ;&st7;   " d=" M  4946.17,   230.68  C  4943.67    230.68   4941.64    232.71   4941.64    235.21  " /><path style="stroke-width:1.42 ;&st7;   " d=" M  4941.64,   235.21  C  4941.64    237.72   4943.67    239.75   4946.17    239.75  " /><path style="stroke-width:1.42 ;&st7;   " d=" M  4946.17,   239.75  C  4948.68    239.75   4950.71    237.72   4950.71    235.21  " /><text style="&st18;" transform="matrix(&st16;  4940.11  247.38 )">ALT</text></g><g ewd:lineID="239"><text style="&st18;" transform="matrix(&st16;  4985.37  297.24 )">38</text><path style="stroke-width:1.42 ;&st7;   " d=" M  4997.17,   290.74  C  4994.66    290.74   4992.63    292.77   4992.63    295.27  " /><path style="stroke-width:1.42 ;&st7;   " d=" M  4992.63,   295.27  C  4992.63    297.77   4994.66    299.80   4997.17    299.80  " /><path style="stroke-width:1.42 ;&st7;   " d=" M  4997.17,   299.80  C  4999.67    299.80   5001.70    297.77   5001.70    295.27  " /><text style="&st18;" transform="matrix(&st16;  4994.86  297.24 )">A</text><text style="&st18;" transform="matrix(&st16;  4990.79  287.04 )">FSW</text></g></g><g ewd:figtype="conn" ewd:figID="78" ewd:code="L53"><path style="stroke-width:1.42 ;&st7;  " d=" M  4929.17,   579.69  L  4929.17,   596.69  L  4946.17,   596.69  L  4946.17,   579.69  L  4929.17,   579.69  " /><path style="stroke-width:0.85 ;&st7;  " d=" M  4937.67,   579.69  L  4937.67,   596.69  " /><text style="&st18;" transform="matrix(&st16;  4931.49  604.88 )">5</text><text style="&st18;" transform="matrix(&st16;  4928.39  576.0 )">13</text><g ewd:figtype="title"><text style="&st18;" transform="matrix(&st17;  4960.89  599.59 )" ewd:textID="65">No. 31 <tspan x="0 " dy="6.0">Junction </tspan><tspan x="0 " dy="6.0">Connector</tspan></text><text style="&st18;" transform="matrix(&st17;  4954.07  599.58 )">L53</text></g></g><g ewd:figtype="conn" ewd:figID="79" ewd:code="A22"><path style="stroke-width:0.85 ;&st7;  " d=" M  4997.16,   579.69  L  4997.16,   596.69  " /><path style="stroke-width:1.42 ;&st7;  " d=" M  4988.66,   579.69  L  5005.66,   579.69  L  5005.66,   596.69  L  4988.66,   596.69  L  4988.66,   579.69  " /><text style="&st18;" transform="matrix(&st16;  4988.47  603.19 )">3</text><path style="stroke-width:1.42 ;&st7;   " d=" M  5001.70,   601.22  C  5001.70    598.71   4999.67    596.69   4997.17    596.69  " /><path style="stroke-width:1.42 ;&st7;   " d=" M  4997.17,   596.69  C  4994.66    596.69   4992.63    598.71   4992.63    601.22  " /><path style="stroke-width:1.42 ;&st7;   " d=" M  4992.63,   601.22  C  4992.63    603.72   4994.66    605.75   4997.17    605.75  " /><path style="stroke-width:1.42 ;&st7;   " d=" M  4997.17,   605.75  C  4999.67    605.75   5001.70    603.72   5001.70    601.22  " /><text style="&st18;" transform="matrix(&st16;  4994.86  603.19 )">A</text><text style="&st18;" transform="matrix(&st16;  4988.47  577.13 )">4</text><path style="stroke-width:1.42 ;&st7;   " d=" M  5001.70,   575.16  C  5001.70    572.65   4999.67    570.62   4997.17    570.62  " /><path style="stroke-width:1.42 ;&st7;   " d=" M  4997.17,   570.62  C  4994.66    570.62   4992.63    572.65   4992.63    575.16  " /><path style="stroke-width:1.42 ;&st7;   " d=" M  4992.63,   575.16  C  4992.63    577.66   4994.66    579.69   4997.17    579.69  " /><path style="stroke-width:1.42 ;&st7;   " d=" M  4997.17,   579.69  C  4999.67    579.69   5001.70    577.66   5001.70    575.16  " /><text style="&st18;" transform="matrix(&st16;  4994.86  577.13 )">A</text><g ewd:figtype="title"><text style="&st18;" transform="matrix(&st17;  5020.38  599.59 )" ewd:textID="51">No. 1 <tspan x="0 " dy="6.0">Junction </tspan><tspan x="0 " dy="6.0">Connector</tspan></text><text style="&st18;" transform="matrix(&st17;  5013.56  599.58 )">A22(A)</text></g></g><g ewd:figtype="w2w" ewd:figID="149" ewd:code="AI3"><path style="stroke-width:1.42 ;&st7;  " d=" M  4601.98,   179.69  L  4606.23,   183.94  L  4610.48,   179.69  " /><path style="stroke-width:1.42 ;&st7;  " d=" M  4610.48,   183.09  L  4606.23,   187.34  L  4601.98,   183.09  " /><text style="&st18;" transform="matrix(&st16;  4590.5  194.97 )">29</text></g><g ewd:figtype="w2w" ewd:figID="150" ewd:code="AI3"><path style="stroke-width:1.42 ;&st7;  " d=" M  4788.95,    87.34  L  4784.70,    83.09  L  4780.45,    87.34  " /><path style="stroke-width:1.42 ;&st7;  " d=" M  4788.95,    83.94  L  4784.70,    79.69  L  4780.45,    83.94  " /><text style="&st18;" transform="matrix(&st16;  4768.97  75.99 )">42</text></g><g ewd:figtype="w2w" ewd:figID="151" ewd:code="CA4"><path style="stroke-width:1.42 ;&st7;  " d=" M  4839.94,    59.58  L  4844.19,    63.82  L  4848.44,    59.58  " /><path style="stroke-width:1.42 ;&st7;  " d=" M  4848.44,    62.98  L  4844.19,    67.22  L  4839.94,    62.98  " /><text style="&st18;" transform="matrix(&st16;  4828.46  74.86 )">10</text></g><g ewd:figtype="w2w" ewd:figID="152" ewd:code="IL5"><path style="stroke-width:1.42 ;&st7;  " d=" M  4941.92,   418.78  L  4937.67,   414.53  L  4933.42,   418.78  " /><path style="stroke-width:1.42 ;&st7;  " d=" M  4941.92,   415.38  L  4937.67,   411.13  L  4933.42,   415.38  " /><text style="&st18;" transform="matrix(&st16;  4921.94  407.44 )">32</text></g><g ewd:figtype="w2w" ewd:figID="153" ewd:code="AI2"><path style="stroke-width:1.42 ;&st7;  " d=" M  4941.92,   359.29  L  4937.67,   355.04  L  4933.42,   359.29  " /><path style="stroke-width:1.42 ;&st7;  " d=" M  4941.92,   355.89  L  4937.67,   351.64  L  4933.42,   355.89  " /><text style="&st18;" transform="matrix(&st16;  4925.04  347.95 )">7</text></g><g ewd:figtype="w2w" ewd:figID="154" ewd:code="CA3"><path style="stroke-width:1.42 ;&st7;  " d=" M  5001.41,   517.37  L  4997.16,   513.12  L  4992.91,   517.37  " /><path style="stroke-width:1.42 ;&st7;  " d=" M  5001.41,   520.77  L  4997.16,   516.52  L  4992.91,   520.77  " /><text style="&st18;" transform="matrix(&st16;  4984.53  509.42 )">7</text></g><g ewd:figtype="w2w" ewd:figID="155" ewd:code="CA3"><path style="stroke-width:1.42 ;&st7;  " d=" M  5001.41,   336.06  L  4997.16,   340.31  L  4992.91,   336.06  " /><path style="stroke-width:1.42 ;&st7;  " d=" M  4992.91,   332.66  L  4997.16,   336.91  L  5001.41,   332.66  " /><text style="&st18;" transform="matrix(&st16;  4981.43  347.95 )">10</text></g><g ewd:figtype="gp" ewd:figID="190" ewd:code="CE"><path style="stroke-width:0.85 ;&st7;  " d=" M  4810.19,   697.25  L  4810.19,   701.50  " /><path style="stroke-width:0.85 ;&st7;  " d=" M  4801.70,   701.50  L  4818.69,   701.50  " /><path style="stroke-width:0.85 ;&st7;  " d=" M  4805.94,   704.33  L  4814.44,   704.33  " /><path style="stroke-width:0.85 ;&st7;  " d=" M  4807.36,   707.17  L  4813.03,   707.17  " /><path style="stroke-width:0.85 ;&st7;  " d=" M  4808.78,   710.00  L  4811.61,   710.00  " /></g><g ewd:figtype="gp" ewd:figID="191" ewd:code="CD"><path style="stroke-width:0.85 ;&st7;  " d=" M  4852.69,   697.25  L  4852.69,   701.50  " /><path style="stroke-width:0.85 ;&st7;  " d=" M  4844.19,   701.50  L  4861.19,   701.50  " /><path style="stroke-width:0.85 ;&st7;  " d=" M  4848.44,   704.33  L  4856.94,   704.33  " /><path style="stroke-width:0.85 ;&st7;  " d=" M  4849.85,   707.17  L  4855.52,   707.17  " /><path style="stroke-width:0.85 ;&st7;  " d=" M  4851.27,   710.00  L  4854.10,   710.00  " /></g><g ewd:figtype="gp" ewd:figID="192" ewd:code="LB"><path style="stroke-width:0.85 ;&st7;  " d=" M  4937.67,   697.25  L  4937.67,   701.50  " /><path style="stroke-width:0.85 ;&st7;  " d=" M  4929.17,   701.50  L  4946.17,   701.50  " /><path style="stroke-width:0.85 ;&st7;  " d=" M  4933.42,   704.33  L  4941.92,   704.33  " /><path style="stroke-width:0.85 ;&st7;  " d=" M  4934.84,   707.17  L  4940.51,   707.17  " /><path style="stroke-width:0.85 ;&st7;  " d=" M  4936.26,   710.00  L  4939.09,   710.00  " /></g><g ewd:figtype="gp" ewd:figID="193" ewd:code="AA"><path style="stroke-width:0.85 ;&st7;  " d=" M  4995.75,   710.00  L  4998.58,   710.00  " /><path style="stroke-width:0.85 ;&st7;  " d=" M  4994.33,   707.17  L  5000.00,   707.17  " /><path style="stroke-width:0.85 ;&st7;  " d=" M  4992.91,   704.33  L  5001.41,   704.33  " /><path style="stroke-width:0.85 ;&st7;  " d=" M  4988.66,   701.50  L  5005.66,   701.50  " /><path style="stroke-width:0.85 ;&st7;  " d=" M  4997.16,   697.25  L  4997.16,   701.50  " /></g><g ewd:code=" " ewd:figID="269" ewd:comment="1" ewd:figtype="sh"><path style="stroke-width: 0.85 ;&st7; stroke-dasharray:3, 1.5;" d=" M  4597.73,   341.73  L  4597.73,   316.23  L  4504.25,   316.23  L  4504.25,   350.23  L  4589.23,   350.23  " /><g ewd:code="" ewd:figID="290" ewd:comment="1" ewd:figtype="commref"><text style="&st18;" transform="matrix(&st17;  4500.55  337.94 )">(*1)</text></g></g><g ewd:code="1" ewd:figID="296" ewd:comment="" ewd:figtype="comment"><text style="&st18;" transform="matrix(&st16;  4585.83  29.25 )" ewd:textID="1">* 1 :Shielded</text></g></svg>