<?xml version="1.0" encoding="utf-8"?>
<!DOCTYPE svg PUBLIC "-//W3C//DTD SVG 1.0//EN" "http://www.w3.org/TR/2001/REC-SVG-20010904/DTD/svg10.dtd"[
	<!ENTITY ns_flows "http://ns.adobe.com/Flows/1.0/">
	<!ENTITY ns_svg "http://www.w3.org/2000/svg">
	<!ENTITY ns_xlink "http://www.w3.org/1999/xlink">
	<!ENTITY st0 "font-size:7px;font-family:'MS-PGothic';adobe-font-script:japanese;">
	<!ENTITY st1 "font-size:6px;font-family:'ArialMT';">
	<!-- White fill  -->
	<!ENTITY st2 "fill:#FFFFFF;stroke:#000000; stroke-width:1.41;stroke-linecap:round;stroke-linejoin:round;">
	<!-- Yellow fill  -->
	<!ENTITY st3 "fill:#FFFFCC;stroke:#FFFFCC; stroke-width:0.1;stroke-linecap:round;stroke-linejoin:round;">
	<!-- Gray fill  -->
	<!ENTITY st4 "fill:#CCCCCC;stroke:#CCCCCC; stroke-width:0.1;stroke-linecap:round;stroke-linejoin:round;">
	<!-- Light-blue fill -->
	<!ENTITY st5 "fill:#CCECF4;stroke:#000000; stroke-width:1.133;stroke-linecap:round;stroke-linejoin:round;">
	<!ENTITY st6 "fill:none;stroke-linecap:butt; stroke-linejoin:round;">
	<!ENTITY st7 "fill:none;stroke:#000000;stroke-linecap:round;stroke-linejoin:round;">
	<!ENTITY st8 "enable-background:new    ;">
	<!-- Black fill -->
	<!ENTITY st9 "fill:#000000;stroke:#000000; stroke-linecap:round;stroke-linejoin:round;">
	<!-- SRS note   -->
	<!ENTITY st10 "font-size:9px;font-family:'ArialMT';">
	<!ENTITY st11 "font-size:9px;font-family:'Svg Symbol';">
	<!ENTITY st12 "font-size:6px;font-family:'Svg Symbol';">
	<!ENTITY st13 "fill:none;stroke:#ff0000;stroke-linecap:round;stroke-linejoin:round;">
	<!-- Yellow fill  -->
	<!ENTITY st14 "fill:#FFFF00;stroke:#FFFF00; stroke-width:0.1;stroke-linecap:round;stroke-linejoin:round;">
	<!ENTITY st15 "font-size:6px;font-family:'MS-PGothic';adobe-font-script:japanese;">
	<!ENTITY st16 "1.00 0.00 0.00 1.00">
	<!ENTITY st17 "0.00 -1.00 1.00 0.00">
	<!ENTITY st18 "font-size:6px;font-family:'Arial';">
	<!ENTITY st19 "font-size:9px;font-family:'Arial';">
	<!ENTITY st20 "font-size:6px;font-family:'MS-PGothic','MS PGothic';adobe-font-script:japanese;">
	<!ENTITY st21 "font-size:7px;font-family:'MS-PGothic','MS PGothic';adobe-font-script:japanese;">
	<!ATTLIST svg
		xmlns:ewd CDATA #FIXED "http://shcl.co.jp/ewd"
		xmlns:a CDATA #FIXED "http://ns.adobe.com/AdobeSVGViewerExtensions/3.0/"
		ewd:ver CDATA #IMPLIED
	>
	<!ATTLIST a
		ewd:lineID CDATA #IMPLIED
		ewd:groupID CDATA #IMPLIED
		ewd:figtype CDATA #IMPLIED
		ewd:code CDATA #IMPLIED
		ewd:figID CDATA #IMPLIED
		ewd:pinNo CDATA #IMPLIED
		ewd:comment CDATA #IMPLIED >
	<!ATTLIST g
		ewd:lineID CDATA #IMPLIED
		ewd:groupID CDATA #IMPLIED
		ewd:figtype CDATA #IMPLIED
		ewd:code CDATA #IMPLIED
		ewd:figID CDATA #IMPLIED
		ewd:pinNo CDATA #IMPLIED
		ewd:comment CDATA #IMPLIED >
	<!ATTLIST text
		ewd:textID CDATA #IMPLIED >
	<!ATTLIST title
		ewd:textID CDATA #IMPLIED >
]>
<!-- Generator: Shintec Hozumi YS   -->
<svg onload="call_execInitLoadProc_svg('system')" style="overflow:visible;  enable-background:new 0 0 8792.321 710.000" viewBox="0 0 8792.321 710.000" height="710.000" width="8792.321" xml:space="preserve" ewd:ver="2.1.2.9" xmlns="&ns_svg;" xmlns:a="http://ns.adobe.com/AdobeSVGViewerExtensions/3.0/" xmlns:ewd="http://shcl.co.jp/ewd" xmlns:xlink="&ns_xlink;">
<path style="stroke-width:1.42 ;&st7;  " d=" M   144.48,   418.22  L   152.97,   418.22  " /><path style="stroke-width:1.42 ;&st7;  " d=" M   161.47,   367.22  L   152.97,   367.22  " /><path style="stroke-width:1.42 ;&st7;  " d=" M   144.48,   231.25  L   152.97,   231.25  " /><path style="stroke-width:1.42 ;&st7;  " d=" M   161.47,   180.26  L   152.97,   180.26  " /><path style="stroke-width:1.42 ;&st7;  " d=" M   161.47,   103.77  L   152.97,   103.77  " /><path style="stroke-width:1.42 ;&st7;  " d=" M   339.94,   503.20  L   348.44,   503.20  " /><path style="stroke-width:1.42 ;&st7;  " d=" M   356.94,   358.73  L   348.44,   358.73  " /><path style="stroke-width:1.42 ;&st7;  " d=" M   280.45,   256.74  L   288.95,   256.74  " /><path style="stroke-width:1.42 ;&st7;  " d=" M   399.43,   290.74  L   390.93,   290.74  " /><path style="stroke-width:1.42 ;&st7;  " d=" M   297.45,   171.76  L   288.95,   171.76  " /><path style="stroke-width:1.42 ;&st7;  " d=" M   399.43,   171.76  L   390.93,   171.76  " /><path style="stroke-width:1.42 ;&st7;  " d=" M   424.93,   154.76  L   433.43,   154.76  " /><path style="stroke-width:1.42 ;&st7;  " d=" M   467.42,   154.76  L   475.92,   154.76  " /><path style="stroke-width:1.42 ;&st7;  " d=" M    59.49,   112.27  L    50.99,   112.27  " /><path style="stroke-width:1.42 ;&st7;  " d=" M    59.49,   550.67  L    54.52,   545.69  " /><path style="stroke-width:1.42 ;&st7;  " d=" M    42.49,   557.72  L    47.46,   562.69  " /><path style="stroke-width:1.42 ;&st7;  " d=" M    54.52,   562.69  L    59.49,   557.72  " /><path style="stroke-width:1.42 ;&st7;  " d=" M    47.46,   545.69  L    42.49,   550.67  " /><path style="stroke-width:1.42 ;&st7;  " d=" M   161.47,   491.18  L   156.50,   486.20  " /><path style="stroke-width:1.42 ;&st7;  " d=" M   144.48,   498.23  L   149.44,   503.20  " /><path style="stroke-width:1.42 ;&st7;  " d=" M   156.50,   503.20  L   161.47,   498.23  " /><path style="stroke-width:1.42 ;&st7;  " d=" M   149.44,   486.20  L   144.48,   491.18  " /><path style="stroke-width:1.42 ;&st7;  " d=" M   297.45,   567.66  L   292.48,   562.69  " /><path style="stroke-width:1.42 ;&st7;  " d=" M   280.45,   574.72  L   285.42,   579.69  " /><path style="stroke-width:1.42 ;&st7;  " d=" M   292.48,   579.69  L   297.45,   574.72  " /><path style="stroke-width:1.42 ;&st7;  " d=" M   285.42,   562.69  L   280.45,   567.66  " /><path style="stroke-width: 0.85 ;&st7; stroke-dasharray:3, 1.5;" d=" M   445.86,   167.51  L   459.23,   167.51  " /><path style="stroke-width: 0.85 ;&st7; stroke-dasharray:3, 1.5;" d=" M   459.23,   159.01  L   445.86,   159.01  " /><text style="&st18;" transform="matrix(&st17;  356.08  545.94 )">(*6,*9)</text><text style="&st18;" transform="matrix(&st17;  47.3  526.15 )">W-B</text><text style="&st18;" transform="matrix(&st17;  58.63  526.46 )">(*10)</text><text style="&st18;" transform="matrix(&st17;  47.3  440.31 )">B-R</text><text style="&st18;" transform="matrix(&st17;  58.63  441.48 )">(*10)</text><text style="&st18;" transform="matrix(&st17;  47.3  346.83 )">B-R</text><text style="&st18;" transform="matrix(&st17;  58.63  347.99 )">(*10)</text><text style="&st18;" transform="matrix(&st17;  47.3  278.84 )">B-R</text><text style="&st18;" transform="matrix(&st17;  58.63  280.0 )">(*10)</text><text style="&st18;" transform="matrix(&st17;  98.29  474.31 )">B-R</text><text style="&st18;" transform="matrix(&st17;  109.62  475.47 )">(*10)</text><text style="&st18;" transform="matrix(&st17;  191.77  619.64 )">W-B</text><text style="&st18;" transform="matrix(&st17;  203.1  621.54 )">(RHD)</text><text style="&st18;" transform="matrix(&st17;  149.28  475.16 )">W-B</text><text style="&st18;" transform="matrix(&st17;  160.61  477.02 )">(LHD)</text><text style="&st18;" transform="matrix(&st17;  191.77  483.66 )">W-B</text><text style="&st18;" transform="matrix(&st17;  203.1  485.56 )">(RHD)</text><text style="&st18;" transform="matrix(&st17;  149.28  398.67 )">W-B</text><text style="&st18;" transform="matrix(&st17;  149.28  347.68 )">W-B</text><text style="&st18;" transform="matrix(&st17;  149.28  258.24 )">P</text><text style="&st18;" transform="matrix(&st17;  149.28  207.25 )">P</text><text style="&st18;" transform="matrix(&st17;  149.28  130.76 )">P</text><text style="&st18;" transform="matrix(&st17;  160.61  137.08 )">(LHD)</text><text style="&st18;" transform="matrix(&st17;  217.27  130.76 )">P</text><text style="&st18;" transform="matrix(&st17;  228.6  137.12 )">(RHD)</text><text style="&st18;" transform="matrix(&st17;  149.28  79.77 )">P</text><text style="&st18;" transform="matrix(&st17;  160.61  86.09 )">(LHD)</text><text style="&st18;" transform="matrix(&st17;  47.3  142.86 )">B-R</text><text style="&st18;" transform="matrix(&st17;  58.63  144.03 )">(*10)</text><text style="&st18;" transform="matrix(&st17;  285.26  543.15 )">W-B</text><text style="&st18;" transform="matrix(&st17;  296.59  545.94 )">(*5,*8)</text><text style="&st18;" transform="matrix(&st17;  234.27  543.15 )">W-B</text><text style="&st18;" transform="matrix(&st17;  245.6  541.91 )">(*7)</text><text style="&st18;" transform="matrix(&st17;  344.75  543.15 )">W-B</text><text style="&st18;" transform="matrix(&st17;  344.75  475.16 )">W-B</text><text style="&st18;" transform="matrix(&st17;  356.08  477.95 )">(*6,*9)</text><text style="&st18;" transform="matrix(&st17;  285.26  351.72 )">P</text><text style="&st18;" transform="matrix(&st17;  296.59  354.94 )">(*8)</text><text style="&st18;" transform="matrix(&st17;  234.26  351.72 )">P</text><text style="&st18;" transform="matrix(&st17;  245.6  354.94 )">(*7)</text><text style="&st18;" transform="matrix(&st17;  344.75  389.97 )">P</text><text style="&st18;" transform="matrix(&st17;  356.08  397.22 )">(*6,*9)</text><text style="&st18;" transform="matrix(&st17;  310.75  351.72 )">P</text><text style="&st18;" transform="matrix(&st17;  322.08  354.94 )">(*5)</text><text style="&st18;" transform="matrix(&st17;  387.24  317.73 )">P</text><text style="&st18;" transform="matrix(&st17;  398.57  320.95 )">(*6)</text><text style="&st18;" transform="matrix(&st17;  387.24  215.74 )">P</text><text style="&st18;" transform="matrix(&st17;  398.57  218.96 )">(*6)</text><text style="&st18;" transform="matrix(&st17;  285.26  215.94 )">B</text><text style="&st18;" transform="matrix(&st17;  296.59  218.96 )">(*4)</text><text style="&st18;" transform="matrix(&st16;  363.44  185.06 )">P</text><text style="&st18;" transform="matrix(&st16;  360.23  196.39 )">(*3)</text><text style="&st18;" transform="matrix(&st16;  329.26  219.05 )">B</text><text style="&st18;" transform="matrix(&st16;  326.23  230.38 )">(*5)</text><text style="&st18;" transform="matrix(&st17;  387.24  139.26 )">P</text><text style="&st18;" transform="matrix(&st17;  398.57  146.51 )">(*3,*6)</text><text style="&st18;" transform="matrix(&st17;  285.26  139.45 )">B</text><text style="&st18;" transform="matrix(&st17;  296.59  146.51 )">(*4,*5)</text><text style="&st18;" transform="matrix(&st17;  429.73  215.74 )">P</text><text style="&st18;" transform="matrix(&st17;  441.06  223.0 )">(*3,*6)</text><text style="&st18;" transform="matrix(&st17;  472.23  220.13 )">R-W</text><text style="&st18;" transform="matrix(&st17;  483.56  223.0 )">(*4,*5)</text><text style="&st18;" transform="matrix(&st17;  47.3  83.45 )">B-Y</text><text style="&st18;" transform="matrix(&st17;  58.63  84.54 )">(*10)</text><text style="&st18;" transform="matrix(&st16;  487.32  660.98 )">B-R</text><text style="&st18;" transform="matrix(&st17;  285.26  619.64 )">W-B</text><text style="&st18;" transform="matrix(&st17;  47.3  619.64 )">W-B</text><text style="&st18;" transform="matrix(&st17;  58.63  619.95 )">(*10)</text><text style="&st18;" transform="matrix(&st17;  149.28  526.15 )">W-B</text><text style="&st18;" transform="matrix(&st17;  160.61  528.01 )">(LHD)</text><text style="&st18;" transform="matrix(&st17;  149.28  619.64 )">W-B</text><text style="&st18;" transform="matrix(&st17;  160.61  621.5 )">(LHD)</text><text style="&st18;" transform="matrix(&st16;  320.95  278.54 )">P</text><text style="&st18;" transform="matrix(&st16;  317.73  289.87 )">(*9)</text><text style="&st18;" transform="matrix(&st17;  296.59  618.4 )">(*1)</text><text style="&st18;" transform="matrix(&st16;  486.54  380.52 )">R-W</text><text style="&st18;" transform="matrix(&st16;  483.67  391.86 )">(*4,*5)</text><text style="&st18;" transform="matrix(&st16;  490.92  423.02 )">P</text><text style="&st18;" transform="matrix(&st16;  483.67  434.35 )">(*3,*6)</text><text style="&st18;" transform="matrix(&st16;  490.92  66.08 )">P</text><text style="&st18;" transform="matrix(&st16;  484.56  77.41 )">(RHD)</text><text style="&st18;" transform="matrix(&st16;  482.86  49.08 )">P(LHD)</text><text style="&st18;" transform="matrix(&st16;  480.73  32.08 )">B-Y(*10)</text><text style="&st18;" transform="matrix(&st17;  234.27  619.64 )">W-B</text><text style="&st18;" transform="matrix(&st17;  245.6  618.4 )">(*2)</text><text style="&st18;" transform="matrix(&st17;  356.08  618.4 )">(*1)</text><text style="&st18;" transform="matrix(&st17;  344.75  619.64 )">W-B</text><path style="stroke-width:1.42 ;&st7;  " d=" M    59.49,   307.73  L    50.99,   307.73  " /><text style="&st18;" transform="matrix(&st16;  486.15  672.31 )">(*10)</text><g ewd:figtype="conn" ewd:figID="2" ewd:code="T3"><path style="stroke-width:1.42 ;&st7;  " d=" M   233.71,   438.05  L   242.21,   438.05  " /><path style="stroke-width:1.42 ;&st7;  " d=" M   233.71,   434.08  L   233.71,   438.05  " /><path style="stroke-width:1.42 ;&st7;  " d=" M   242.21,   438.05  L   242.21,   434.08  " /><path style="stroke-width:1.42 ;&st7;  " d=" M   233.71,   415.38  L   242.21,   415.38  " /><path style="stroke-width:1.42 ;&st7;  " d=" M   233.71,   419.35  L   233.71,   415.38  " /><path style="stroke-width:1.42 ;&st7;  " d=" M   242.21,   415.38  L   242.21,   419.35  " /><path style="stroke-width:1.42 ;&st7;   " d=" M   229.46,   426.71  C   229.46    431.41    233.27    435.21    237.96    435.21  " /><path style="stroke-width:1.42 ;&st7;   " d=" M   237.96,   435.21  C   242.65    435.21    246.46    431.41    246.46    426.71  " /><path style="stroke-width:1.42 ;&st7;   " d=" M   246.46,   426.71  C   246.46    422.02    242.65    418.22    237.96    418.22  " /><path style="stroke-width:1.42 ;&st7;   " d=" M   237.96,   418.22  C   233.27    418.22    229.46    422.02    229.46    426.71  " /><text style="&st18;" transform="matrix(&st16;  235.23  428.68 )">M</text><text style="&st18;" transform="matrix(&st16;  231.78  446.24 )">2</text><text style="&st18;" transform="matrix(&st16;  231.78  411.69 )">1</text><g ewd:figtype="title"><text style="&st18;" transform="matrix(&st17;  261.18  438.12 )" ewd:textID="46">Fuel Pump</text><text style="&st18;" transform="matrix(&st17;  254.35  438.11 )">T3</text></g></g><g ewd:figtype="conn" ewd:figID="3" ewd:code="T8"><path style="stroke-width:1.42 ;&st7;  " d=" M   284.70,   438.05  L   293.20,   438.05  " /><path style="stroke-width:1.42 ;&st7;  " d=" M   284.70,   434.08  L   284.70,   438.05  " /><path style="stroke-width:1.42 ;&st7;  " d=" M   293.20,   438.05  L   293.20,   434.08  " /><path style="stroke-width:1.42 ;&st7;  " d=" M   284.70,   415.38  L   293.20,   415.38  " /><path style="stroke-width:1.42 ;&st7;  " d=" M   284.70,   419.35  L   284.70,   415.38  " /><path style="stroke-width:1.42 ;&st7;  " d=" M   293.20,   415.38  L   293.20,   419.35  " /><path style="stroke-width:1.42 ;&st7;   " d=" M   280.45,   426.71  C   280.45    431.41    284.26    435.21    288.95    435.21  " /><path style="stroke-width:1.42 ;&st7;   " d=" M   288.95,   435.21  C   293.65    435.21    297.45    431.41    297.45    426.71  " /><path style="stroke-width:1.42 ;&st7;   " d=" M   297.45,   426.71  C   297.45    422.02    293.65    418.22    288.95    418.22  " /><path style="stroke-width:1.42 ;&st7;   " d=" M   288.95,   418.22  C   284.26    418.22    280.45    422.02    280.45    426.71  " /><text style="&st18;" transform="matrix(&st16;  286.22  428.68 )">M</text><text style="&st18;" transform="matrix(&st16;  282.77  446.24 )">6</text><text style="&st18;" transform="matrix(&st16;  282.77  411.69 )">1</text><g ewd:figtype="title"><text style="&st18;" transform="matrix(&st17;  312.17  438.12 )" ewd:textID="47">Fuel Pump <tspan x="0 " dy="6.0">(Sub)</tspan></text><text style="&st18;" transform="matrix(&st17;  305.34  438.11 )">T8</text></g></g><g ewd:figtype="conn" ewd:figID="4" ewd:code="X2"><path style="stroke-width:1.42 ;&st7;  " d=" M   344.19,   438.05  L   352.69,   438.05  " /><path style="stroke-width:1.42 ;&st7;  " d=" M   344.19,   434.08  L   344.19,   438.05  " /><path style="stroke-width:1.42 ;&st7;  " d=" M   352.69,   438.05  L   352.69,   434.08  " /><path style="stroke-width:1.42 ;&st7;  " d=" M   344.19,   415.38  L   352.69,   415.38  " /><path style="stroke-width:1.42 ;&st7;  " d=" M   344.19,   419.35  L   344.19,   415.38  " /><path style="stroke-width:1.42 ;&st7;  " d=" M   352.69,   415.38  L   352.69,   419.35  " /><path style="stroke-width:1.42 ;&st7;   " d=" M   339.94,   426.71  C   339.94    431.41    343.75    435.21    348.44    435.21  " /><path style="stroke-width:1.42 ;&st7;   " d=" M   348.44,   435.21  C   353.14    435.21    356.94    431.41    356.94    426.71  " /><path style="stroke-width:1.42 ;&st7;   " d=" M   356.94,   426.71  C   356.94    422.02    353.14    418.22    348.44    418.22  " /><path style="stroke-width:1.42 ;&st7;   " d=" M   348.44,   418.22  C   343.75    418.22    339.94    422.02    339.94    426.71  " /><text style="&st18;" transform="matrix(&st16;  345.71  428.68 )">M</text><text style="&st18;" transform="matrix(&st16;  342.26  446.24 )">2</text><text style="&st18;" transform="matrix(&st16;  342.26  411.69 )">1</text><g ewd:figtype="title"><text style="&st18;" transform="matrix(&st17;  371.66  438.12 )" ewd:textID="47">Fuel Pump <tspan x="0 " dy="6.0">(Sub)</tspan></text><text style="&st18;" transform="matrix(&st17;  364.83  438.11 )">X2</text></g></g><g ewd:figtype="conn" ewd:figID="9" ewd:code="I70,I106"><path style="stroke-width:1.42 ;&st7;  " d=" M    42.49,   231.25  L    59.49,   231.25  L    59.49,   214.25  L    42.49,   214.25  L    42.49,   231.25  " /><path style="stroke-width:0.85 ;&st7;  " d=" M    50.99,   231.25  L    50.99,   214.25  " /><text style="&st18;" transform="matrix(&st16;  42.3  246.81 )">5</text><text style="&st18;" transform="matrix(&st16;  42.3  237.75 )">2</text><text style="&st18;" transform="matrix(&st16;  48.69  237.75 )">A</text><path style="stroke-width:1.42 ;&st7;   " d=" M    55.52,   235.78  C    55.52    233.28     53.49    231.25     50.99    231.25  " /><path style="stroke-width:1.42 ;&st7;   " d=" M    50.99,   231.25  C    48.49    231.25     46.46    233.28     46.46    235.78  " /><path style="stroke-width:1.42 ;&st7;   " d=" M    46.46,   235.78  C    46.46    238.28     48.49    240.31     50.99    240.31  " /><path style="stroke-width:1.42 ;&st7;   " d=" M    50.99,   240.31  C    53.49    240.31     55.52    238.28     55.52    235.78  " /><path style="stroke-width:1.42 ;&st7;   " d=" M    55.52,   244.84  C    55.52    242.34     53.49    240.31     50.99    240.31  " /><path style="stroke-width:1.42 ;&st7;   " d=" M    50.99,   240.31  C    48.49    240.31     46.46    242.34     46.46    244.84  " /><path style="stroke-width:1.42 ;&st7;   " d=" M    46.46,   244.84  C    46.46    247.35     48.49    249.38     50.99    249.38  " /><path style="stroke-width:1.42 ;&st7;   " d=" M    50.99,   249.38  C    53.49    249.38     55.52    247.35     55.52    244.84  " /><text style="&st18;" transform="matrix(&st16;  48.8  246.81 )">B</text><text style="&st18;" transform="matrix(&st16;  42.3  202.62 )">1</text><text style="&st18;" transform="matrix(&st16;  42.3  211.69 )">4</text><text style="&st18;" transform="matrix(&st16;  48.8  211.69 )">B</text><text style="&st18;" transform="matrix(&st16;  48.69  202.62 )">A</text><path style="stroke-width:1.42 ;&st7;   " d=" M    55.52,   200.65  C    55.52    198.15     53.49    196.12     50.99    196.12  " /><path style="stroke-width:1.42 ;&st7;   " d=" M    50.99,   196.12  C    48.49    196.12     46.46    198.15     46.46    200.65  " /><path style="stroke-width:1.42 ;&st7;   " d=" M    46.46,   200.65  C    46.46    203.16     48.49    205.18     50.99    205.18  " /><path style="stroke-width:1.42 ;&st7;   " d=" M    50.99,   205.18  C    53.49    205.18     55.52    203.16     55.52    200.65  " /><path style="stroke-width:1.42 ;&st7;   " d=" M    55.52,   209.72  C    55.52    207.21     53.49    205.18     50.99    205.18  " /><path style="stroke-width:1.42 ;&st7;   " d=" M    50.99,   205.18  C    48.49    205.18     46.46    207.21     46.46    209.72  " /><path style="stroke-width:1.42 ;&st7;   " d=" M    46.46,   209.72  C    46.46    212.22     48.49    214.25     50.99    214.25  " /><path style="stroke-width:1.42 ;&st7;   " d=" M    50.99,   214.25  C    53.49    214.25     55.52    212.22     55.52    209.72  " /><g ewd:figtype="title"><text style="&st18;" transform="matrix(&st17;  31.97  234.15 )">I106(B)</text><text style="&st18;" transform="matrix(&st17;  38.8  234.15 )" ewd:textID="65">No. 9 Junction Connector</text><text style="&st18;" transform="matrix(&st17;  24.63  234.15 )" ewd:textID="77">No. 19 Junction Connector</text><text style="&st18;" transform="matrix(&st17;  17.81  234.15 )">I70(A)</text></g><g ewd:code="" ewd:figID="311" ewd:comment="" ewd:figtype="commref"><text style="&st18;" transform="matrix(&st16;  56.08  246.81 )">(RHD)</text></g><g ewd:code="" ewd:figID="312" ewd:comment="" ewd:figtype="commref"><text style="&st18;" transform="matrix(&st16;  56.08  237.75 )">(LHD)</text></g><g ewd:code="" ewd:figID="313" ewd:comment="" ewd:figtype="commref"><text style="&st18;" transform="matrix(&st16;  56.08  211.69 )">(RHD)</text></g><g ewd:code="" ewd:figID="314" ewd:comment="" ewd:figtype="commref"><text style="&st18;" transform="matrix(&st16;  56.08  202.62 )">(LHD)</text></g></g><g ewd:figtype="conn" ewd:figID="11" ewd:code="W1"><path style="stroke-width:0.85 ;&st7;  " d=" M   152.97,   282.24  L   152.97,   290.74  " /><path style="stroke-width:0.85 ;&st7;  " d=" M   152.97,   307.73  L   152.97,   316.23  " /><path style="stroke-width:0.85 ;&st7;   " d=" M   150.44,   296.76  C   151.81    298.15    154.06    298.18    155.45    296.81  " /><path style="stroke-width:0.85 ;&st7;   " d=" M   155.45,   296.81  C   156.85    295.44    156.87    293.20    155.50    291.80  " /><path style="stroke-width:0.85 ;&st7;   " d=" M   155.50,   291.80  C   154.81    291.09    153.97    290.74    152.97    290.74  " /><path style="stroke-width:0.85 ;&st7;   " d=" M   150.44,   301.71  C   151.81    303.11    154.06    303.13    155.45    301.77  " /><path style="stroke-width:0.85 ;&st7;   " d=" M   155.45,   301.77  C   156.85    300.40    156.87    298.15    155.50    296.76  " /><path style="stroke-width:0.85 ;&st7;   " d=" M   155.50,   296.76  C   154.14    295.36    151.89    295.34    150.50    296.71  " /><path style="stroke-width:0.85 ;&st7;   " d=" M   150.50,   296.71  C   150.48    296.72    150.46    296.74    150.44    296.76  " /><path style="stroke-width:0.85 ;&st7;   " d=" M   152.97,   307.73  C   154.93    307.73    156.52    306.15    156.52    304.19  " /><path style="stroke-width:0.85 ;&st7;   " d=" M   156.52,   304.19  C   156.52    302.24    154.93    300.65    152.97    300.65  " /><path style="stroke-width:0.85 ;&st7;   " d=" M   152.97,   300.65  C   151.98    300.65    151.14    301.01    150.45    301.71  " /><path style="stroke-width:1.42 ;&st7;  " d=" M   161.47,   316.23  L   161.47,   282.24  L   144.48,   282.24  L   144.48,   316.23  L   161.47,   316.23  " /><text style="&st18;" transform="matrix(&st16;  146.79  324.43 )">2</text><text style="&st18;" transform="matrix(&st16;  146.79  278.55 )">1</text><g ewd:figtype="title"><text style="&st18;" transform="matrix(&st17;  169.37  319.13 )">W1</text><text style="&st18;" transform="matrix(&st17;  176.19  319.14 )" ewd:textID="49">Fuel Tank Solenoid <tspan x="0 " dy="6.0">Return Valve Assembly</tspan></text></g></g><g ewd:figtype="conn" ewd:figID="12" ewd:code="L32,L36"><path style="stroke-width: 0.85 ;&st7; stroke-dasharray:3, 1.5;" d=" M    59.49,   405.75  L    84.99,   405.75  " /><path style="stroke-width: 0.85 ;&st7; stroke-dasharray:3, 1.5;" d=" M    59.49,   414.82  L    84.99,   414.82  " /><path style="stroke-width:1.42 ;&st7;  " d=" M    42.49,   401.22  L   110.48,   401.22  L   110.48,   384.22  L    42.49,   384.22  L    42.49,   401.22  " /><path style="stroke-width:0.85 ;&st7;  " d=" M    50.99,   384.22  L    50.99,   392.72  L   101.98,   392.72  L   101.98,   401.22  " /><path style="stroke-width:0.85 ;&st7;  " d=" M    49.80,   391.72  L    49.53,   392.19  L    49.43,   392.72  L    49.53,   393.25  L    49.80,   393.72  L    50.21,   394.07  L    50.72,   394.26  L    51.26,   394.26  L    51.77,   394.07  L    52.18,   393.72  L    52.46,   393.25  L    52.55,   392.72  L    52.46,   392.19  L    52.18,   391.72  L    51.77,   391.37  L    51.26,   391.18  L    50.72,   391.18  L    50.21,   391.37  L    49.80,   391.72  L    50.19,   392.43  L    50.19,   393.01  L    50.57,   393.46  L    51.14,   393.56  L    51.64,   393.27  L    51.84,   392.72  L    51.64,   392.17  L    51.14,   391.88  L    50.57,   391.98  L    50.99,   392.72  " /><path style="stroke-width:0.85 ;&st7;  " d=" M    50.99,   392.72  L    50.99,   401.22  " /><text style="&st18;" transform="matrix(&st16;  39.2  416.79 )">13</text><text style="&st18;" transform="matrix(&st16;  39.2  407.72 )">21</text><path style="stroke-width:1.42 ;&st7;   " d=" M    55.52,   405.75  C    55.52    403.25     53.49    401.22     50.99    401.22  " /><path style="stroke-width:1.42 ;&st7;   " d=" M    50.99,   401.22  C    48.49    401.22     46.46    403.25     46.46    405.75  " /><path style="stroke-width:1.42 ;&st7;   " d=" M    46.46,   405.75  C    46.46    408.25     48.49    410.28     50.99    410.28  " /><path style="stroke-width:1.42 ;&st7;   " d=" M    50.99,   410.28  C    53.49    410.28     55.52    408.25     55.52    405.75  " /><path style="stroke-width:1.42 ;&st7;   " d=" M    55.52,   414.82  C    55.52    412.31     53.49    410.28     50.99    410.28  " /><path style="stroke-width:1.42 ;&st7;   " d=" M    50.99,   410.28  C    48.49    410.28     46.46    412.31     46.46    414.82  " /><path style="stroke-width:1.42 ;&st7;   " d=" M    46.46,   414.82  C    46.46    417.32     48.49    419.35     50.99    419.35  " /><path style="stroke-width:1.42 ;&st7;   " d=" M    50.99,   419.35  C    53.49    419.35     55.52    417.32     55.52    414.82  " /><text style="&st18;" transform="matrix(&st16;  48.8  416.79 )">B</text><text style="&st18;" transform="matrix(&st16;  48.69  407.72 )">A</text><text style="&st18;" transform="matrix(&st16;  39.2  381.66 )">12</text><text style="&st18;" transform="matrix(&st16;  39.2  372.59 )">20</text><text style="&st18;" transform="matrix(&st16;  48.8  381.66 )">B</text><path style="stroke-width:1.42 ;&st7;   " d=" M    55.52,   370.62  C    55.52    368.12     53.49    366.09     50.99    366.09  " /><path style="stroke-width:1.42 ;&st7;   " d=" M    50.99,   366.09  C    48.49    366.09     46.46    368.12     46.46    370.62  " /><path style="stroke-width:1.42 ;&st7;   " d=" M    46.46,   370.62  C    46.46    373.13     48.49    375.16     50.99    375.16  " /><path style="stroke-width:1.42 ;&st7;   " d=" M    50.99,   375.16  C    53.49    375.16     55.52    373.13     55.52    370.62  " /><path style="stroke-width:1.42 ;&st7;   " d=" M    55.52,   379.69  C    55.52    377.19     53.49    375.16     50.99    375.16  " /><path style="stroke-width:1.42 ;&st7;   " d=" M    50.99,   375.16  C    48.49    375.16     46.46    377.19     46.46    379.69  " /><path style="stroke-width:1.42 ;&st7;   " d=" M    46.46,   379.69  C    46.46    382.19     48.49    384.22     50.99    384.22  " /><path style="stroke-width:1.42 ;&st7;   " d=" M    50.99,   384.22  C    53.49    384.22     55.52    382.19     55.52    379.69  " /><text style="&st18;" transform="matrix(&st16;  48.69  372.59 )">A</text><text style="&st18;" transform="matrix(&st16;  90.19  407.72 )">22</text><text style="&st18;" transform="matrix(&st16;  90.19  416.79 )">14</text><text style="&st18;" transform="matrix(&st16;  99.68  407.72 )">A</text><text style="&st18;" transform="matrix(&st16;  99.79  416.79 )">B</text><path style="stroke-width:1.42 ;&st7;   " d=" M   106.52,   414.82  C   106.52    412.31    104.49    410.28    101.98    410.28  " /><path style="stroke-width:1.42 ;&st7;   " d=" M   101.98,   410.28  C    99.48    410.28     97.45    412.31     97.45    414.82  " /><path style="stroke-width:1.42 ;&st7;   " d=" M    97.45,   414.82  C    97.45    417.32     99.48    419.35    101.98    419.35  " /><path style="stroke-width:1.42 ;&st7;   " d=" M   101.98,   419.35  C   104.49    419.35    106.52    417.32    106.52    414.82  " /><path style="stroke-width:1.42 ;&st7;   " d=" M   106.52,   405.75  C   106.52    403.25    104.49    401.22    101.98    401.22  " /><path style="stroke-width:1.42 ;&st7;   " d=" M   101.98,   401.22  C    99.48    401.22     97.45    403.25     97.45    405.75  " /><path style="stroke-width:1.42 ;&st7;   " d=" M    97.45,   405.75  C    97.45    408.25     99.48    410.28    101.98    410.28  " /><path style="stroke-width:1.42 ;&st7;   " d=" M   101.98,   410.28  C   104.49    410.28    106.52    408.25    106.52    405.75  " /><g ewd:figtype="title"><text style="&st18;" transform="matrix(&st17;  29.14  404.12 )">L32(B)</text><text style="&st18;" transform="matrix(&st17;  35.96  404.12 )" ewd:textID="80">No. 24 Junction Connector</text><text style="&st18;" transform="matrix(&st17;  21.8  404.12 )" ewd:textID="83">No. 28 Junction Connector</text><text style="&st18;" transform="matrix(&st17;  14.98  404.12 )">L36(A)</text></g><g ewd:code="" ewd:figID="309" ewd:comment="" ewd:figtype="commref"><text style="&st18;" transform="matrix(&st16;  56.08  381.66 )">(RHD)</text></g><g ewd:code="" ewd:figID="310" ewd:comment="" ewd:figtype="commref"><text style="&st18;" transform="matrix(&st16;  56.08  372.59 )">(LHD)</text></g><g ewd:code="" ewd:figID="436" ewd:comment="" ewd:figtype="commref"><text style="&st18;" transform="matrix(&st16;  107.08  416.79 )">(RHD)</text></g><g ewd:code="" ewd:figID="437" ewd:comment="" ewd:figtype="commref"><text style="&st18;" transform="matrix(&st16;  107.08  407.72 )">(LHD)</text></g></g><g ewd:figtype="conn" ewd:figID="17" ewd:code="L8"><path style="stroke-width:1.42 ;&st7;  " d=" M    50.99,   487.62  L    56.66,   464.96  " /><path style="stroke-width:0.85 ;&st7;  " d=" M    50.99,   494.70  L    50.99,   490.45  " /><path style="stroke-width:0.85 ;&st7;  " d=" M    50.99,   464.96  L    50.99,   460.71  " /><path style="stroke-width:0.85 ;&st7;   " d=" M    52.41,   489.04  C    52.41    488.25     51.77    487.62     50.99    487.62  " /><path style="stroke-width:0.85 ;&st7;   " d=" M    50.99,   487.62  C    50.21    487.62     49.58    488.25     49.58    489.04  " /><path style="stroke-width:0.85 ;&st7;   " d=" M    49.58,   489.04  C    49.58    489.82     50.21    490.45     50.99    490.45  " /><path style="stroke-width:0.85 ;&st7;   " d=" M    50.99,   490.45  C    51.77    490.45     52.41    489.82     52.41    489.04  " /><path style="stroke-width:0.85 ;&st7;   " d=" M    52.41,   466.37  C    52.41    465.59     51.77    464.96     50.99    464.96  " /><path style="stroke-width:0.85 ;&st7;   " d=" M    50.99,   464.96  C    50.21    464.96     49.58    465.59     49.58    466.37  " /><path style="stroke-width:0.85 ;&st7;   " d=" M    49.58,   466.37  C    49.58    467.16     50.21    467.79     50.99    467.79  " /><path style="stroke-width:0.85 ;&st7;   " d=" M    50.99,   467.79  C    51.77    467.79     52.41    467.16     52.41    466.37  " /><path style="stroke-width:1.42 ;&st7;  " d=" M    59.49,   494.70  L    59.49,   460.71  L    42.49,   460.71  L    42.49,   494.70  L    59.49,   494.70  " /><text style="&st18;" transform="matrix(&st16;  44.81  502.9 )">4</text><text style="&st18;" transform="matrix(&st16;  44.81  457.02 )">3</text><g ewd:figtype="title"><text style="&st18;" transform="matrix(&st17;  67.38  497.6 )">L8</text><text style="&st18;" transform="matrix(&st17;  74.21  497.61 )" ewd:textID="39">Fuel Control <tspan x="0 " dy="6.0">Switch Assembly</tspan></text></g></g><g ewd:figtype="conn" ewd:figID="18" ewd:code="I93"><path style="stroke-width:1.42 ;&st7;  " d=" M   144.48,   562.69  L   161.47,   562.69  L   161.47,   545.69  L   144.48,   545.69  L   144.48,   562.69  " /><path style="stroke-width:0.85 ;&st7;  " d=" M   152.97,   562.69  L   152.97,   545.69  " /><text style="&st18;" transform="matrix(&st16;  144.28  543.13 )">2</text><path style="stroke-width:1.42 ;&st7;   " d=" M   157.51,   541.16  C   157.51    538.66    155.48    536.63    152.97    536.63  " /><path style="stroke-width:1.42 ;&st7;   " d=" M   152.97,   536.63  C   150.47    536.63    148.44    538.66    148.44    541.16  " /><path style="stroke-width:1.42 ;&st7;   " d=" M   148.44,   541.16  C   148.44    543.66    150.47    545.69    152.97    545.69  " /><path style="stroke-width:1.42 ;&st7;   " d=" M   152.97,   545.69  C   155.48    545.69    157.51    543.66    157.51    541.16  " /><text style="&st18;" transform="matrix(&st16;  150.67  543.13 )">A</text><text style="&st18;" transform="matrix(&st16;  144.28  569.19 )">1</text><path style="stroke-width:1.42 ;&st7;   " d=" M   157.51,   567.22  C   157.51    564.72    155.48    562.69    152.97    562.69  " /><path style="stroke-width:1.42 ;&st7;   " d=" M   152.97,   562.69  C   150.47    562.69    148.44    564.72    148.44    567.22  " /><path style="stroke-width:1.42 ;&st7;   " d=" M   148.44,   567.22  C   148.44    569.73    150.47    571.76    152.97    571.76  " /><path style="stroke-width:1.42 ;&st7;   " d=" M   152.97,   571.76  C   155.48    571.76    157.51    569.73    157.51    567.22  " /><text style="&st18;" transform="matrix(&st16;  150.67  569.19 )">A</text><g ewd:figtype="title"><text style="&st18;" transform="matrix(&st17;  176.19  565.6 )" ewd:textID="62">No. 5 Junction Connector</text><text style="&st18;" transform="matrix(&st17;  169.37  565.59 )">I93(A)</text></g></g><g ewd:figtype="conn" ewd:figID="19" ewd:code="A23"><path style="stroke-width:1.42 ;&st7;  " d=" M   186.97,   545.69  L   203.97,   545.69  L   203.97,   562.69  L   186.97,   562.69  L   186.97,   545.69  " /><path style="stroke-width:0.85 ;&st7;  " d=" M   195.47,   545.69  L   195.47,   562.69  " /><text style="&st18;" transform="matrix(&st16;  186.77  569.19 )">1</text><text style="&st18;" transform="matrix(&st16;  193.16  569.19 )">A</text><path style="stroke-width:1.42 ;&st7;   " d=" M   200.00,   567.22  C   200.00    564.72    197.97    562.69    195.47    562.69  " /><path style="stroke-width:1.42 ;&st7;   " d=" M   195.47,   562.69  C   192.96    562.69    190.93    564.72    190.93    567.22  " /><path style="stroke-width:1.42 ;&st7;   " d=" M   190.93,   567.22  C   190.93    569.73    192.96    571.76    195.47    571.76  " /><path style="stroke-width:1.42 ;&st7;   " d=" M   195.47,   571.76  C   197.97    571.76    200.00    569.73    200.00    567.22  " /><text style="&st18;" transform="matrix(&st16;  186.77  543.13 )">5</text><text style="&st18;" transform="matrix(&st16;  193.16  543.13 )">A</text><path style="stroke-width:1.42 ;&st7;   " d=" M   200.00,   541.16  C   200.00    538.66    197.97    536.63    195.47    536.63  " /><path style="stroke-width:1.42 ;&st7;   " d=" M   195.47,   536.63  C   192.96    536.63    190.93    538.66    190.93    541.16  " /><path style="stroke-width:1.42 ;&st7;   " d=" M   190.93,   541.16  C   190.93    543.66    192.96    545.69    195.47    545.69  " /><path style="stroke-width:1.42 ;&st7;   " d=" M   195.47,   545.69  C   197.97    545.69    200.00    543.66    200.00    541.16  " /><g ewd:figtype="title"><text style="&st18;" transform="matrix(&st17;  218.68  565.6 )" ewd:textID="58">No. 2 Junction Connector</text><text style="&st18;" transform="matrix(&st17;  211.86  565.59 )">A23(A)</text></g></g><g ewd:figtype="w2w" ewd:figID="113" ewd:code="IL5"><path style="stroke-width:1.42 ;&st7;  " d=" M    55.24,   313.40  L    50.99,   309.15  L    46.74,   313.40  " /><path style="stroke-width:1.42 ;&st7;  " d=" M    55.24,   316.80  L    50.99,   312.55  L    46.74,   316.80  " /><text style="&st18;" transform="matrix(&st16;  35.26  305.45 )">56</text><g ewd:code="" ewd:figID="407" ewd:comment="" ewd:figtype="commref"><text style="&st18;" transform="matrix(&st16;  60.02  305.45 )">(RHD)</text></g></g><g ewd:figtype="w2w" ewd:figID="114" ewd:code="IL1"><text style="&st18;" transform="matrix(&st16;  35.26  296.96 )">38</text><g ewd:code="" ewd:figID="408" ewd:comment="" ewd:figtype="commref"><text style="&st18;" transform="matrix(&st16;  60.02  296.96 )">(LHD)</text></g></g><g ewd:figtype="w2w" ewd:figID="115" ewd:code="AI3"><path style="stroke-width:1.42 ;&st7;  " d=" M    55.24,   117.93  L    50.99,   113.68  L    46.74,   117.93  " /><path style="stroke-width:1.42 ;&st7;  " d=" M    55.24,   121.33  L    50.99,   117.08  L    46.74,   121.33  " /><text style="&st18;" transform="matrix(&st16;  35.26  109.99 )">25</text><g ewd:code="" ewd:figID="326" ewd:comment="" ewd:figtype="commref"><text style="&st18;" transform="matrix(&st16;  60.02  109.99 )">(RHD)</text></g></g><g ewd:figtype="w2w" ewd:figID="116" ewd:code="AI3"><text style="&st18;" transform="matrix(&st16;  35.26  101.49 )">22</text><g ewd:code="" ewd:figID="327" ewd:comment="" ewd:figtype="commref"><text style="&st18;" transform="matrix(&st16;  60.02  101.49 )">(LHD)</text></g></g><g ewd:figtype="w2w" ewd:figID="117" ewd:code="AC7"><text style="&st18;" transform="matrix(&st16;  140.34  432.93 )">4</text><g ewd:code="" ewd:figID="315" ewd:comment="" ewd:figtype="commref"><text style="&st18;" transform="matrix(&st16;  162.01  432.93 )">(RHD)</text></g></g><g ewd:figtype="w2w" ewd:figID="118" ewd:code="IC3"><path style="stroke-width:1.42 ;&st7;  " d=" M   157.22,   412.55  L   152.97,   416.80  L   148.73,   412.55  " /><path style="stroke-width:1.42 ;&st7;  " d=" M   148.73,   409.15  L   152.97,   413.40  L   157.22,   409.15  " /><text style="&st18;" transform="matrix(&st16;  140.34  424.43 )">4</text><g ewd:code="" ewd:figID="316" ewd:comment="" ewd:figtype="commref"><text style="&st18;" transform="matrix(&st16;  162.01  424.43 )">(LHD)</text></g></g><g ewd:figtype="w2w" ewd:figID="119" ewd:code="WC2"><path style="stroke-width:1.42 ;&st7;  " d=" M   157.22,   376.29  L   152.97,   372.04  L   148.73,   376.29  " /><path style="stroke-width:1.42 ;&st7;  " d=" M   157.22,   372.89  L   152.97,   368.64  L   148.73,   372.89  " /><text style="&st18;" transform="matrix(&st16;  140.34  364.94 )">1</text></g><g ewd:figtype="w2w" ewd:figID="120" ewd:code="WC2"><path style="stroke-width:1.42 ;&st7;  " d=" M   148.73,   222.18  L   152.97,   226.43  L   157.22,   222.18  " /><path style="stroke-width:1.42 ;&st7;  " d=" M   157.22,   225.58  L   152.97,   229.83  L   148.73,   225.58  " /><text style="&st18;" transform="matrix(&st16;  140.34  237.47 )">2</text></g><g ewd:figtype="w2w" ewd:figID="121" ewd:code="AC8"><path style="stroke-width:1.42 ;&st7;  " d=" M   157.22,   185.92  L   152.97,   181.67  L   148.73,   185.92  " /><path style="stroke-width:1.42 ;&st7;  " d=" M   157.22,   189.32  L   152.97,   185.07  L   148.73,   189.32  " /><text style="&st18;" transform="matrix(&st16;  140.34  177.98 )">6</text><g ewd:code="" ewd:figID="317" ewd:comment="" ewd:figtype="commref"><text style="&st18;" transform="matrix(&st16;  162.01  177.98 )">(RHD)</text></g></g><g ewd:figtype="w2w" ewd:figID="122" ewd:code="IC1"><text style="&st18;" transform="matrix(&st16;  140.34  169.48 )">6</text><g ewd:code="" ewd:figID="318" ewd:comment="" ewd:figtype="commref"><text style="&st18;" transform="matrix(&st16;  162.01  169.48 )">(LHD)</text></g></g><g ewd:figtype="w2w" ewd:figID="123" ewd:code="AI3"><path style="stroke-width:1.42 ;&st7;  " d=" M   157.22,   112.83  L   152.97,   108.58  L   148.73,   112.83  " /><path style="stroke-width:1.42 ;&st7;  " d=" M   157.22,   109.43  L   152.97,   105.18  L   148.73,   109.43  " /><text style="&st18;" transform="matrix(&st16;  140.34  101.49 )">5</text></g><g ewd:figtype="w2w" ewd:figID="124" ewd:code="TS2"><path style="stroke-width:1.42 ;&st7;  " d=" M   284.70,   247.68  L   288.95,   251.93  L   293.20,   247.68  " /><path style="stroke-width:1.42 ;&st7;  " d=" M   293.20,   251.08  L   288.95,   255.33  L   284.70,   251.08  " /><text style="&st18;" transform="matrix(&st16;  276.32  262.96 )">8</text></g><g ewd:figtype="w2w" ewd:figID="125" ewd:code="IS3"><path style="stroke-width:1.42 ;&st7;  " d=" M   293.20,   180.82  L   288.95,   176.57  L   284.70,   180.82  " /><path style="stroke-width:1.42 ;&st7;  " d=" M   293.20,   177.42  L   288.95,   173.17  L   284.70,   177.42  " /><text style="&st18;" transform="matrix(&st16;  273.22  169.48 )">21</text></g><g ewd:figtype="w2w" ewd:figID="126" ewd:code="TX1"><path style="stroke-width:1.42 ;&st7;  " d=" M   344.19,   494.14  L   348.44,   498.39  L   352.69,   494.14  " /><path style="stroke-width:1.42 ;&st7;  " d=" M   352.69,   497.54  L   348.44,   501.78  L   344.19,   497.54  " /><text style="&st18;" transform="matrix(&st16;  335.81  509.42 )">2</text></g><g ewd:figtype="w2w" ewd:figID="127" ewd:code="TX1"><path style="stroke-width:1.42 ;&st7;  " d=" M   352.69,   367.79  L   348.44,   363.54  L   344.19,   367.79  " /><path style="stroke-width:1.42 ;&st7;  " d=" M   352.69,   364.39  L   348.44,   360.14  L   344.19,   364.39  " /><text style="&st18;" transform="matrix(&st16;  335.81  356.45 )">1</text></g><g ewd:figtype="w2w" ewd:figID="128" ewd:code="ST2"><path style="stroke-width:1.42 ;&st7;  " d=" M   395.18,   299.80  L   390.93,   295.55  L   386.69,   299.80  " /><path style="stroke-width:1.42 ;&st7;  " d=" M   395.18,   296.40  L   390.93,   292.15  L   386.69,   296.40  " /><text style="&st18;" transform="matrix(&st16;  378.3  288.46 )">2</text></g><g ewd:figtype="w2w" ewd:figID="129" ewd:code="IS1"><path style="stroke-width:1.42 ;&st7;  " d=" M   395.18,   180.82  L   390.93,   176.57  L   386.69,   180.82  " /><path style="stroke-width:1.42 ;&st7;  " d=" M   395.18,   177.42  L   390.93,   173.17  L   386.69,   177.42  " /><text style="&st18;" transform="matrix(&st16;  375.2  169.48 )">18</text></g><g ewd:figtype="w2w" ewd:figID="130" ewd:code="AI2"><text style="&st18;" transform="matrix(&st16;  417.69  169.48 )">12</text></g><g ewd:figtype="w2w" ewd:figID="131" ewd:code="AI7"><path style="stroke-width:1.42 ;&st7;  " d=" M   429.18,   145.69  L   433.43,   149.94  L   437.68,   145.69  " /><path style="stroke-width:1.42 ;&st7;  " d=" M   437.68,   149.09  L   433.43,   153.34  L   429.18,   149.09  " /><text style="&st18;" transform="matrix(&st16;  420.8  160.98 )">9</text></g><g ewd:figtype="w2w" ewd:figID="132" ewd:code="AI2"><text style="&st18;" transform="matrix(&st16;  463.29  169.48 )">8</text></g><g ewd:figtype="w2w" ewd:figID="133" ewd:code="AI7"><path style="stroke-width:1.42 ;&st7;  " d=" M   480.17,   149.09  L   475.92,   153.34  L   471.67,   149.09  " /><path style="stroke-width:1.42 ;&st7;  " d=" M   471.67,   145.69  L   475.92,   149.94  L   480.17,   145.69  " /><text style="&st18;" transform="matrix(&st16;  463.29  160.98 )">5</text></g><g ewd:figtype="gp" ewd:figID="221" ewd:code="LA"><path style="stroke-width:0.85 ;&st7;  " d=" M    50.99,   697.25  L    50.99,   701.50  " /><path style="stroke-width:0.85 ;&st7;  " d=" M    42.49,   701.50  L    59.49,   701.50  " /><path style="stroke-width:0.85 ;&st7;  " d=" M    46.74,   704.33  L    55.24,   704.33  " /><path style="stroke-width:0.85 ;&st7;  " d=" M    48.16,   707.17  L    53.82,   707.17  " /><path style="stroke-width:0.85 ;&st7;  " d=" M    49.58,   710.00  L    52.41,   710.00  " /></g><g ewd:figtype="gp" ewd:figID="222" ewd:code="IA"><path style="stroke-width:0.85 ;&st7;  " d=" M   152.97,   697.25  L   152.97,   701.50  " /><path style="stroke-width:0.85 ;&st7;  " d=" M   144.48,   701.50  L   161.47,   701.50  " /><path style="stroke-width:0.85 ;&st7;  " d=" M   148.73,   704.33  L   157.22,   704.33  " /><path style="stroke-width:0.85 ;&st7;  " d=" M   150.14,   707.17  L   155.81,   707.17  " /><path style="stroke-width:0.85 ;&st7;  " d=" M   151.56,   710.00  L   154.39,   710.00  " /></g><g ewd:figtype="gp" ewd:figID="223" ewd:code="AA"><path style="stroke-width:0.85 ;&st7;  " d=" M   195.47,   697.25  L   195.47,   701.50  " /><path style="stroke-width:0.85 ;&st7;  " d=" M   186.97,   701.50  L   203.97,   701.50  " /><path style="stroke-width:0.85 ;&st7;  " d=" M   191.22,   704.33  L   199.72,   704.33  " /><path style="stroke-width:0.85 ;&st7;  " d=" M   192.63,   707.17  L   198.30,   707.17  " /><path style="stroke-width:0.85 ;&st7;  " d=" M   194.05,   710.00  L   196.88,   710.00  " /></g><g ewd:figtype="gp" ewd:figID="224" ewd:code="TA"><path style="stroke-width:0.85 ;&st7;  " d=" M   237.96,   697.25  L   237.96,   701.50  " /><path style="stroke-width:0.85 ;&st7;  " d=" M   229.46,   701.50  L   246.46,   701.50  " /><path style="stroke-width:0.85 ;&st7;  " d=" M   233.71,   704.33  L   242.21,   704.33  " /><path style="stroke-width:0.85 ;&st7;  " d=" M   235.13,   707.17  L   240.79,   707.17  " /><path style="stroke-width:0.85 ;&st7;  " d=" M   236.54,   710.00  L   239.38,   710.00  " /></g><g ewd:figtype="gp" ewd:figID="225" ewd:code="TB"><path style="stroke-width:0.85 ;&st7;  " d=" M   288.95,   697.25  L   288.95,   701.50  " /><path style="stroke-width:0.85 ;&st7;  " d=" M   280.45,   701.50  L   297.45,   701.50  " /><path style="stroke-width:0.85 ;&st7;  " d=" M   284.70,   704.33  L   293.20,   704.33  " /><path style="stroke-width:0.85 ;&st7;  " d=" M   286.12,   707.17  L   291.78,   707.17  " /><path style="stroke-width:0.85 ;&st7;  " d=" M   287.54,   710.00  L   290.37,   710.00  " /></g><g ewd:figtype="gp" ewd:figID="226" ewd:code="TC"><path style="stroke-width:0.85 ;&st7;  " d=" M   348.44,   697.25  L   348.44,   701.50  " /><path style="stroke-width:0.85 ;&st7;  " d=" M   339.94,   701.50  L   356.94,   701.50  " /><path style="stroke-width:0.85 ;&st7;  " d=" M   344.19,   704.33  L   352.69,   704.33  " /><path style="stroke-width:0.85 ;&st7;  " d=" M   345.61,   707.17  L   351.27,   707.17  " /><path style="stroke-width:0.85 ;&st7;  " d=" M   347.03,   710.00  L   349.86,   710.00  " /></g><g ewd:code="" ewd:figID="319" ewd:comment="" ewd:figtype="commref"><text style="&st18;" transform="matrix(&st16;  484.95  169.48 )">(RHD)</text></g><g ewd:code="" ewd:figID="320" ewd:comment="" ewd:figtype="commref"><text style="&st18;" transform="matrix(&st16;  484.95  160.98 )">(LHD)</text></g></svg>