<?xml version="1.0" encoding="utf-8"?>
<!DOCTYPE svg PUBLIC "-//W3C//DTD SVG 1.0//EN" "http://www.w3.org/TR/2001/REC-SVG-20010904/DTD/svg10.dtd"[
	<!ENTITY ns_flows "http://ns.adobe.com/Flows/1.0/">
	<!ENTITY ns_svg "http://www.w3.org/2000/svg">
	<!ENTITY ns_xlink "http://www.w3.org/1999/xlink">
	<!ENTITY st0 "font-size:7px;font-family:'MS-PGothic';adobe-font-script:japanese;">
	<!ENTITY st1 "font-size:6px;font-family:'ArialMT';">
	<!-- White fill  -->
	<!ENTITY st2 "fill:#FFFFFF;stroke:#000000; stroke-width:1.41;stroke-linecap:round;stroke-linejoin:round;">
	<!-- Yellow fill  -->
	<!ENTITY st3 "fill:#FFFFCC;stroke:#FFFFCC; stroke-width:0.1;stroke-linecap:round;stroke-linejoin:round;">
	<!-- Gray fill  -->
	<!ENTITY st4 "fill:#CCCCCC;stroke:#CCCCCC; stroke-width:0.1;stroke-linecap:round;stroke-linejoin:round;">
	<!-- Light-blue fill -->
	<!ENTITY st5 "fill:#CCECF4;stroke:#000000; stroke-width:1.133;stroke-linecap:round;stroke-linejoin:round;">
	<!ENTITY st6 "fill:none;stroke-linecap:butt; stroke-linejoin:round;">
	<!ENTITY st7 "fill:none;stroke:#000000;stroke-linecap:round;stroke-linejoin:round;">
	<!ENTITY st8 "enable-background:new    ;">
	<!-- Black fill -->
	<!ENTITY st9 "fill:#000000;stroke:#000000; stroke-linecap:round;stroke-linejoin:round;">
	<!-- SRS note   -->
	<!ENTITY st10 "font-size:9px;font-family:'ArialMT';">
	<!ENTITY st11 "font-size:9px;font-family:'Svg Symbol';">
	<!ENTITY st12 "font-size:6px;font-family:'Svg Symbol';">
	<!ENTITY st13 "fill:none;stroke:#ff0000;stroke-linecap:round;stroke-linejoin:round;">
	<!-- Yellow fill  -->
	<!ENTITY st14 "fill:#FFFF00;stroke:#FFFF00; stroke-width:0.1;stroke-linecap:round;stroke-linejoin:round;">
	<!ENTITY st15 "font-size:6px;font-family:'MS-PGothic';adobe-font-script:japanese;">
	<!ENTITY st16 "1.00 0.00 0.00 1.00">
	<!ENTITY st17 "0.00 -1.00 1.00 0.00">
	<!ENTITY st18 "font-size:6px;font-family:'Arial';">
	<!ENTITY st19 "font-size:9px;font-family:'Arial';">
	<!ENTITY st20 "font-size:6px;font-family:'MS-PGothic','MS PGothic';adobe-font-script:japanese;">
	<!ENTITY st21 "font-size:7px;font-family:'MS-PGothic','MS PGothic';adobe-font-script:japanese;">
	<!ATTLIST svg
		xmlns:ewd CDATA #FIXED "http://shcl.co.jp/ewd"
		xmlns:a CDATA #FIXED "http://ns.adobe.com/AdobeSVGViewerExtensions/3.0/"
		ewd:ver CDATA #IMPLIED
	>
	<!ATTLIST a
		ewd:lineID CDATA #IMPLIED
		ewd:groupID CDATA #IMPLIED
		ewd:figtype CDATA #IMPLIED
		ewd:code CDATA #IMPLIED
		ewd:figID CDATA #IMPLIED
		ewd:pinNo CDATA #IMPLIED
		ewd:comment CDATA #IMPLIED >
	<!ATTLIST g
		ewd:lineID CDATA #IMPLIED
		ewd:groupID CDATA #IMPLIED
		ewd:figtype CDATA #IMPLIED
		ewd:code CDATA #IMPLIED
		ewd:figID CDATA #IMPLIED
		ewd:pinNo CDATA #IMPLIED
		ewd:comment CDATA #IMPLIED >
	<!ATTLIST text
		ewd:textID CDATA #IMPLIED >
	<!ATTLIST title
		ewd:textID CDATA #IMPLIED >
]>
<!-- Generator: Shintec Hozumi YS   -->
<svg onload="call_execInitLoadProc_svg('system')" style="overflow:visible;  enable-background:new 0 0 5678.922 710.000" viewBox="0 0 5678.922 710.000" height="710.000" width="5678.922" xml:space="preserve" ewd:ver="2.1.2.9" xmlns="&ns_svg;" xmlns:a="http://ns.adobe.com/AdobeSVGViewerExtensions/3.0/" xmlns:ewd="http://shcl.co.jp/ewd" xmlns:xlink="&ns_xlink;">
<path style="stroke-width:1.42 ;&st7;  " d=" M  4203.27,   477.71  L  4198.30,   482.68  " /><path style="stroke-width:1.42 ;&st7;  " d=" M  4210.32,   494.70  L  4215.30,   489.73  " /><path style="stroke-width:1.42 ;&st7;  " d=" M  4198.30,   489.73  L  4203.27,   494.70  " /><path style="stroke-width:1.42 ;&st7;  " d=" M  4215.30,   482.68  L  4210.32,   477.71  " /><path style="stroke-width:1.42 ;&st7;  " d=" M  4024.80,   528.70  L  4019.83,   533.67  " /><path style="stroke-width:1.42 ;&st7;  " d=" M  4031.85,   545.69  L  4036.83,   540.73  " /><path style="stroke-width:1.42 ;&st7;  " d=" M  4019.83,   540.73  L  4024.80,   545.69  " /><path style="stroke-width:1.42 ;&st7;  " d=" M  4036.83,   533.67  L  4031.85,   528.70  " /><path style="stroke-width:1.42 ;&st7;  " d=" M  4215.30,   537.20  L  4206.80,   537.20  " /><text style="&st18;" transform="matrix(&st17;  4203.1  517.65 )">W-B</text><text style="&st18;" transform="matrix(&st17;  4024.63  594.14 )">W-B</text><text style="&st18;" transform="matrix(&st17;  4262.59  364.68 )">W-B</text><text style="&st18;" transform="matrix(&st17;  4415.57  364.18 )">G-Y</text><text style="&st18;" transform="matrix(&st17;  4381.57  360.69 )">G</text><text style="&st18;" transform="matrix(&st17;  4203.1  466.66 )">W-B</text><text style="&st18;" transform="matrix(&st17;  4203.1  568.65 )">W-B</text><text style="&st18;" transform="matrix(&st17;  4262.59  645.13 )">W-B</text><text style="&st18;" transform="matrix(&st17;  4203.1  364.56 )">L-W</text><text style="&st18;" transform="matrix(&st17;  4024.63  364.68 )">W-B</text><text style="&st18;" transform="matrix(&st17;  4024.63  492.16 )">W-B</text><text style="&st18;" transform="matrix(&st16;  4381.86  296.96 )">ECM</text><text style="&st18;" transform="matrix(&st17;  4475.06  232.86 )">R</text><text style="&st18;" transform="matrix(&st16;  4381.85  290.13 )">C39(B),I84(C)</text><path style="stroke-width:1.42 ;&st7;  " d=" M  4215.30,   193.73  L  4210.32,   188.75  " /><path style="stroke-width:1.42 ;&st7;  " d=" M  4198.30,   200.78  L  4203.27,   205.75  " /><path style="stroke-width:1.42 ;&st7;  " d=" M  4210.32,   205.75  L  4215.30,   200.78  " /><path style="stroke-width:1.42 ;&st7;  " d=" M  4203.27,   188.75  L  4198.30,   193.73  " /><path style="stroke-width:1.42 ;&st7;  " d=" M  4274.79,   137.76  L  4266.29,   137.76  " /><path style="stroke-width:1.42 ;&st7;  " d=" M  4325.78,   197.25  L  4334.28,   197.25  " /><text style="&st18;" transform="matrix(&st17;  4330.58  173.33 )">L</text><text style="&st18;" transform="matrix(&st17;  4203.1  236.35 )">R-B</text><text style="&st18;" transform="matrix(&st17;  4330.58  122.34 )">L</text><text style="&st18;" transform="matrix(&st17;  4203.1  176.86 )">R-B</text><text style="&st18;" transform="matrix(&st17;  4262.59  173.33 )">L</text><text style="&st18;" transform="matrix(&st17;  4262.59  232.82 )">L</text><path style="stroke-width:1.42 ;&st7;  " d=" M  4330.75,   137.76  L  4325.78,   142.73  " /><path style="stroke-width:1.42 ;&st7;  " d=" M  4337.80,   154.76  L  4342.77,   149.79  " /><path style="stroke-width:1.42 ;&st7;  " d=" M  4325.78,   149.79  L  4330.75,   154.76  " /><path style="stroke-width:1.42 ;&st7;  " d=" M  4342.77,   142.73  L  4337.80,   137.76  " /><text style="&st18;" transform="matrix(&st17;  4262.59  105.34 )">L</text><path style="stroke-width:1.42 ;&st7;  " d=" M  4257.79,   486.20  L  4266.29,   486.20  " /><path style="stroke-width:1.42 ;&st7;  " d=" M  4274.79,   406.19  L  4269.81,   401.22  " /><path style="stroke-width:1.42 ;&st7;  " d=" M  4257.79,   413.25  L  4262.76,   418.22  " /><path style="stroke-width:1.42 ;&st7;  " d=" M  4269.81,   418.22  L  4274.79,   413.25  " /><path style="stroke-width:1.42 ;&st7;  " d=" M  4262.76,   401.22  L  4257.79,   406.19  " /><text style="&st18;" transform="matrix(&st17;  4262.59  449.67 )">W-B</text><text style="&st18;" transform="matrix(&st17;  4262.59  534.65 )">W-B</text><path style="stroke-width:1.42 ;&st7;  " d=" M  4274.79,   193.73  L  4269.81,   188.75  " /><path style="stroke-width:1.42 ;&st7;  " d=" M  4257.79,   200.78  L  4262.76,   205.75  " /><path style="stroke-width:1.42 ;&st7;  " d=" M  4269.81,   205.75  L  4274.79,   200.78  " /><path style="stroke-width:1.42 ;&st7;  " d=" M  4262.76,   188.75  L  4257.79,   193.73  " /><path style="stroke-width:1.42 ;&st7;  " d=" M  4393.77,   409.72  L  4385.27,   409.72  " /><path style="stroke-width:1.42 ;&st7;  " d=" M  4427.76,   409.72  L  4419.26,   409.72  " /><text style="&st18;" transform="matrix(&st17;  4381.57  445.67 )">G</text><text style="&st18;" transform="matrix(&st17;  4415.57  449.16 )">G-Y</text><g ewd:figtype="conn" ewd:figID="46" ewd:code="C78"><path style="stroke-width:1.42 ;&st7;  " d=" M  4206.80,   428.13  L  4212.46,   405.47  " /><path style="stroke-width:0.85 ;&st7;  " d=" M  4206.80,   435.21  L  4206.80,   430.96  " /><path style="stroke-width:0.85 ;&st7;  " d=" M  4206.80,   405.47  L  4206.80,   401.22  " /><path style="stroke-width:0.85 ;&st7;   " d=" M  4208.21,   429.55  C  4208.21    428.76   4207.58    428.13   4206.80    428.13  " /><path style="stroke-width:0.85 ;&st7;   " d=" M  4206.80,   428.13  C  4206.01    428.13   4205.38    428.76   4205.38    429.55  " /><path style="stroke-width:0.85 ;&st7;   " d=" M  4205.38,   429.55  C  4205.38    430.33   4206.01    430.96   4206.80    430.96  " /><path style="stroke-width:0.85 ;&st7;   " d=" M  4206.80,   430.96  C  4207.58    430.96   4208.21    430.33   4208.21    429.55  " /><path style="stroke-width:0.85 ;&st7;   " d=" M  4208.21,   406.88  C  4208.21    406.10   4207.58    405.47   4206.80    405.47  " /><path style="stroke-width:0.85 ;&st7;   " d=" M  4206.80,   405.47  C  4206.01    405.47   4205.38    406.10   4205.38    406.88  " /><path style="stroke-width:0.85 ;&st7;   " d=" M  4205.38,   406.88  C  4205.38    407.67   4206.01    408.30   4206.80    408.30  " /><path style="stroke-width:0.85 ;&st7;   " d=" M  4206.80,   408.30  C  4207.58    408.30   4208.21    407.67   4208.21    406.88  " /><path style="stroke-width:1.42 ;&st7;  " d=" M  4198.30,   401.22  L  4215.29,   401.22  L  4215.29,   435.21  L  4198.30,   435.21  L  4198.30,   401.22  " /><text style="&st18;" transform="matrix(&st16;  4200.61  443.41 )">1</text><text style="&st18;" transform="matrix(&st16;  4200.61  397.53 )">2</text><g ewd:figtype="title"><text style="&st18;" transform="matrix(&st17;  4223.19  438.11 )">C78</text><text style="&st18;" transform="matrix(&st17;  4230.01  438.12 )" ewd:textID="54">Shift Position Switch</text></g></g><g ewd:figtype="rb" ewd:figID="58" ewd:code="FUSE23"><path style="stroke-width:1.42 ;&st7;  " d=" M  4336.40,    95.27  L  4332.15,    95.27  " /><path style="stroke-width:1.42 ;&st7;  " d=" M  4336.40,   103.77  L  4332.15,   103.77  " /><path style="stroke-width:0.85 ;&st7;  " d=" M  4334.28,    78.27  L  4334.28,    95.27  " /><path style="stroke-width:1.42 ;&st7;   " d=" M  4332.15,    95.27  C  4329.80     95.27   4327.90     97.17   4327.90     99.52  " /><path style="stroke-width:1.42 ;&st7;   " d=" M  4327.90,    99.52  C  4327.90    101.87   4329.80    103.77   4332.15    103.77  " /><path style="stroke-width:1.42 ;&st7;   " d=" M  4336.40,   103.77  C  4338.75    103.77   4340.65    101.87   4340.65     99.52  " /><path style="stroke-width:1.42 ;&st7;   " d=" M  4340.65,    99.52  C  4340.65     97.17   4338.75     95.27   4336.40     95.27  " /><path style="stroke-width:0.28 ;&st9;  " d=" M  4334.27,    90.37  L  4331.44,    87.54  L  4331.44,    91.79  L  4334.27,    94.62  L  4337.11,    91.79  L  4337.11,    87.54  L  4334.27,    90.37  " /><text style="&st18;" transform="matrix(&st16;  4350.7  56.17 )">15A <tspan x="0 " dy="6.0">GAUGE</tspan></text><text style="&st18;" transform="matrix(&st16;  4332.48  101.49 )">2</text><text style="&st18;" transform="matrix(&st16;  4328.09  86.47 )">2</text><text style="&st18;" transform="matrix(&st16;  4329.06  32.08 )">(IG)</text><path style="stroke-width:0.85 ;&st7;  " d=" M  4334.28,    69.77  L  4334.28,    78.27  " /><path style="stroke-width:1.42 ;&st7;   " d=" M  4334.28,    47.11  C  4331.54     48.72   4330.63     52.25   4332.24     54.99  " /><path style="stroke-width:1.42 ;&st7;   " d=" M  4332.24,    54.99  C  4332.76     55.87   4333.39     56.51   4334.28     57.03  " /><path style="stroke-width:1.42 ;&st7;   " d=" M  4334.28,    66.94  C  4337.01     65.33   4337.93     61.80   4336.31     59.06  " /><path style="stroke-width:1.42 ;&st7;   " d=" M  4336.31,    59.06  C  4335.79     58.18   4335.16     57.55   4334.28     57.03  " /><path style="stroke-width:0.85 ;&st7;   " d=" M  4335.69,    45.69  C  4335.69     44.91   4335.06     44.28   4334.28     44.28  " /><path style="stroke-width:0.85 ;&st7;   " d=" M  4334.28,    44.28  C  4333.49     44.28   4332.86     44.91   4332.86     45.69  " /><path style="stroke-width:0.85 ;&st7;   " d=" M  4332.86,    45.69  C  4332.86     46.48   4333.49     47.11   4334.28     47.11  " /><path style="stroke-width:0.85 ;&st7;   " d=" M  4334.28,    47.11  C  4335.06     47.11   4335.69     46.48   4335.69     45.69  " /><path style="stroke-width:0.85 ;&st7;   " d=" M  4335.69,    68.36  C  4335.69     67.57   4335.06     66.94   4334.28     66.94  " /><path style="stroke-width:0.85 ;&st7;   " d=" M  4334.28,    66.94  C  4333.49     66.94   4332.86     67.57   4332.86     68.36  " /><path style="stroke-width:0.85 ;&st7;   " d=" M  4332.86,    68.36  C  4332.86     69.14   4333.49     69.77   4334.28     69.77  " /><path style="stroke-width:0.85 ;&st7;   " d=" M  4334.28,    69.77  C  4335.06     69.77   4335.69     69.14   4335.69     68.36  " /><path style="stroke-width:1.42 ;&st7;  " d=" M  4321.53,    35.78  L  4321.53,    78.27  L  4347.02,    78.27  L  4347.02,    35.78  L  4321.53,    35.78  " /></g><g ewd:figtype="conn" ewd:figID="60" ewd:code="C44"><path style="stroke-width:1.42 ;&st7;  " d=" M  4461.75,   197.25  L  4495.75,   197.25  L  4495.75,   163.26  L  4461.75,   163.26  L  4461.75,   197.25  " /><text style="&st18;" transform="matrix(&st16;  4470.06  203.75 )">3</text><path style="stroke-width:1.42 ;&st7;   " d=" M  4483.28,   201.78  C  4483.28    199.28   4481.25    197.25   4478.75    197.25  " /><path style="stroke-width:1.42 ;&st7;   " d=" M  4478.75,   197.25  C  4476.25    197.25   4474.22    199.28   4474.22    201.78  " /><path style="stroke-width:1.42 ;&st7;   " d=" M  4474.22,   201.78  C  4474.22    204.29   4476.25    206.32   4478.75    206.32  " /><path style="stroke-width:1.42 ;&st7;   " d=" M  4478.75,   206.32  C  4481.25    206.32   4483.28    204.29   4483.28    201.78  " /><text style="&st18;" transform="matrix(&st16;  4476.56  203.75 )">B</text><text style="&st18;" transform="matrix(&st16;  4476.02  193.56 )">M</text><g ewd:figtype="title"><text style="&st18;" transform="matrix(&st16;  4458.34  146.79 )">C44(B)</text><text style="&st18;" transform="matrix(&st16;  4458.35  153.61 )" ewd:textID="24">Generator <tspan x="0 " dy="6.0">Assembly</tspan></text></g></g><g ewd:figtype="conn" ewd:figID="61" ewd:code="C32"><path style="stroke-width:1.42 ;&st7;  " d=" M  4206.80,   139.18  L  4212.46,   116.52  " /><path style="stroke-width:0.85 ;&st7;  " d=" M  4206.80,   146.26  L  4206.80,   142.01  " /><path style="stroke-width:0.85 ;&st7;  " d=" M  4206.80,   116.52  L  4206.80,   112.27  " /><path style="stroke-width:0.85 ;&st7;   " d=" M  4208.21,   140.60  C  4208.21    139.81   4207.58    139.18   4206.80    139.18  " /><path style="stroke-width:0.85 ;&st7;   " d=" M  4206.80,   139.18  C  4206.01    139.18   4205.38    139.81   4205.38    140.60  " /><path style="stroke-width:0.85 ;&st7;   " d=" M  4205.38,   140.60  C  4205.38    141.38   4206.01    142.01   4206.80    142.01  " /><path style="stroke-width:0.85 ;&st7;   " d=" M  4206.80,   142.01  C  4207.58    142.01   4208.21    141.38   4208.21    140.60  " /><path style="stroke-width:0.85 ;&st7;   " d=" M  4208.21,   117.93  C  4208.21    117.15   4207.58    116.52   4206.80    116.52  " /><path style="stroke-width:0.85 ;&st7;   " d=" M  4206.80,   116.52  C  4206.01    116.52   4205.38    117.15   4205.38    117.93  " /><path style="stroke-width:0.85 ;&st7;   " d=" M  4205.38,   117.93  C  4205.38    118.71   4206.01    119.35   4206.80    119.35  " /><path style="stroke-width:0.85 ;&st7;   " d=" M  4206.80,   119.35  C  4207.58    119.35   4208.21    118.71   4208.21    117.93  " /><path style="stroke-width:1.42 ;&st7;  " d=" M  4215.29,   146.26  L  4215.29,   112.27  L  4198.30,   112.27  L  4198.30,   146.26  L  4215.29,   146.26  " /><text style="&st18;" transform="matrix(&st16;  4198.1  152.76 )">1</text><path style="stroke-width:1.42 ;&st7;   " d=" M  4211.33,   150.79  C  4211.33    148.29   4209.30    146.26   4206.80    146.26  " /><path style="stroke-width:1.42 ;&st7;   " d=" M  4206.80,   146.26  C  4204.29    146.26   4202.26    148.29   4202.26    150.79  " /><path style="stroke-width:1.42 ;&st7;   " d=" M  4202.26,   150.79  C  4202.26    153.30   4204.29    155.33   4206.80    155.33  " /><path style="stroke-width:1.42 ;&st7;   " d=" M  4206.80,   155.33  C  4209.30    155.33   4211.33    153.30   4211.33    150.79  " /><text style="&st18;" transform="matrix(&st16;  4204.49  152.76 )">A</text><text style="&st18;" transform="matrix(&st16;  4198.1  109.7 )">2</text><path style="stroke-width:1.42 ;&st7;   " d=" M  4211.33,   107.73  C  4211.33    105.23   4209.30    103.20   4206.80    103.20  " /><path style="stroke-width:1.42 ;&st7;   " d=" M  4206.80,   103.20  C  4204.29    103.20   4202.26    105.23   4202.26    107.73  " /><path style="stroke-width:1.42 ;&st7;   " d=" M  4202.26,   107.73  C  4202.26    110.24   4204.29    112.27   4206.80    112.27  " /><path style="stroke-width:1.42 ;&st7;   " d=" M  4206.80,   112.27  C  4209.30    112.27   4211.33    110.24   4211.33    107.73  " /><text style="&st18;" transform="matrix(&st16;  4204.49  109.7 )">A</text><g ewd:figtype="title"><text style="&st18;" transform="matrix(&st17;  4188.65  149.17 )" ewd:textID="4">Back-Up Light <tspan x="0 " dy="6.0">Switch Assembly</tspan></text><text style="&st18;" transform="matrix(&st17;  4181.83  149.16 )">C32(A)</text></g></g><g ewd:figtype="conn" ewd:figID="64" ewd:code="A23"><path style="stroke-width:1.42 ;&st7;  " d=" M  4198.30,   588.19  L  4198.30,   605.18  L  4274.78,   605.18  L  4274.78,   588.19  L  4198.30,   588.19  " /><path style="stroke-width:0.85 ;&st7;  " d=" M  4266.29,   588.19  L  4266.29,   605.18  " /><path style="stroke-width:0.85 ;&st7;  " d=" M  4206.80,   588.19  L  4206.80,   596.69  L  4266.29,   596.69  " /><path style="stroke-width:0.85 ;&st7;  " d=" M  4265.09,   595.68  L  4264.82,   596.15  L  4264.73,   596.69  L  4264.82,   597.22  L  4265.09,   597.69  L  4265.51,   598.03  L  4266.02,   598.22  L  4266.55,   598.22  L  4267.06,   598.03  L  4267.48,   597.69  L  4267.75,   597.22  L  4267.84,   596.69  L  4267.75,   596.15  L  4267.48,   595.68  L  4267.06,   595.34  L  4266.55,   595.15  L  4266.02,   595.15  L  4265.51,   595.34  L  4265.09,   595.68  L  4265.49,   596.39  L  4265.49,   596.98  L  4265.86,   597.42  L  4266.43,   597.52  L  4266.94,   597.23  L  4267.14,   596.69  L  4266.94,   596.14  L  4266.43,   595.85  L  4265.86,   595.95  L  4266.29,   596.69  " /><text style="&st18;" transform="matrix(&st16;  4198.1  585.62 )">5</text><path style="stroke-width:1.42 ;&st7;   " d=" M  4211.33,   583.65  C  4211.33    581.15   4209.30    579.12   4206.80    579.12  " /><path style="stroke-width:1.42 ;&st7;   " d=" M  4206.80,   579.12  C  4204.29    579.12   4202.26    581.15   4202.26    583.65  " /><path style="stroke-width:1.42 ;&st7;   " d=" M  4202.26,   583.65  C  4202.26    586.16   4204.29    588.19   4206.80    588.19  " /><path style="stroke-width:1.42 ;&st7;   " d=" M  4206.80,   588.19  C  4209.30    588.19   4211.33    586.16   4211.33    583.65  " /><text style="&st18;" transform="matrix(&st16;  4204.49  585.62 )">A</text><text style="&st18;" transform="matrix(&st16;  4257.59  611.69 )">1</text><text style="&st18;" transform="matrix(&st16;  4263.98  611.69 )">A</text><path style="stroke-width:1.42 ;&st7;   " d=" M  4270.82,   609.72  C  4270.82    607.21   4268.79    605.18   4266.29    605.18  " /><path style="stroke-width:1.42 ;&st7;   " d=" M  4266.29,   605.18  C  4263.78    605.18   4261.75    607.21   4261.75    609.72  " /><path style="stroke-width:1.42 ;&st7;   " d=" M  4261.75,   609.72  C  4261.75    612.22   4263.78    614.25   4266.29    614.25  " /><path style="stroke-width:1.42 ;&st7;   " d=" M  4266.29,   614.25  C  4268.79    614.25   4270.82    612.22   4270.82    609.72  " /><text style="&st18;" transform="matrix(&st16;  4257.59  585.62 )">2</text><path style="stroke-width:1.42 ;&st7;   " d=" M  4270.82,   583.65  C  4270.82    581.15   4268.79    579.12   4266.29    579.12  " /><path style="stroke-width:1.42 ;&st7;   " d=" M  4266.29,   579.12  C  4263.78    579.12   4261.75    581.15   4261.75    583.65  " /><path style="stroke-width:1.42 ;&st7;   " d=" M  4261.75,   583.65  C  4261.75    586.16   4263.78    588.19   4266.29    588.19  " /><path style="stroke-width:1.42 ;&st7;   " d=" M  4266.29,   588.19  C  4268.79    588.19   4270.82    586.16   4270.82    583.65  " /><text style="&st18;" transform="matrix(&st16;  4263.98  585.62 )">A</text><g ewd:figtype="title"><text style="&st18;" transform="matrix(&st17;  4282.68  608.08 )">A23(A)</text><text style="&st18;" transform="matrix(&st17;  4289.5  608.09 )" ewd:textID="44">No. 2 Junction Connector</text></g></g><g ewd:figtype="conn" ewd:figID="65" ewd:code="L30"><path style="stroke-width:1.42 ;&st7;  " d=" M  4368.27,   537.20  L  4436.26,   537.20  L  4436.26,   503.20  L  4368.27,   503.20  L  4368.27,   537.20  " /><g ewd:lineID="187"><text style="&st18;" transform="matrix(&st16;  4375.98  499.51 )">12</text><text style="&st18;" transform="matrix(&st16;  4379.51  510.84 )">EFII</text></g><g ewd:lineID="189"><text style="&st18;" transform="matrix(&st16;  4409.98  499.51 )">13</text><text style="&st18;" transform="matrix(&st16;  4412.03  510.84 )">EFIO</text></g><g ewd:figtype="title"><text style="&st18;" transform="matrix(&st17;  4351.8  540.09 )">L30</text><text style="&st18;" transform="matrix(&st17;  4358.63  540.1 )" ewd:textID="58">Transponder Key <tspan x="0 " dy="6.0">ECU Assembly</tspan></text></g></g><g ewd:figtype="conn" ewd:figID="66" ewd:code="C39,I84"><g ewd:lineID="171"><text style="&st18;" transform="matrix(&st16;  4016.53  322.73 )">21</text><text style="&st18;" transform="matrix(&st16;  4026.14  322.73 )">B</text><path style="stroke-width:1.42 ;&st7;   " d=" M  4032.86,   320.77  C  4032.86    318.26   4030.83    316.23   4028.33    316.23  " /><path style="stroke-width:1.42 ;&st7;   " d=" M  4028.33,   316.23  C  4025.82    316.23   4023.79    318.26   4023.79    320.77  " /><path style="stroke-width:1.42 ;&st7;   " d=" M  4023.79,   320.77  C  4023.79    323.27   4025.82    325.30   4028.33    325.30  " /><path style="stroke-width:1.42 ;&st7;   " d=" M  4028.33,   325.30  C  4030.83    325.30   4032.86    323.27   4032.86    320.77  " /><text style="&st18;" transform="matrix(&st16;  4023.11  312.54 )">E02</text></g><g ewd:lineID="175"><text style="&st18;" transform="matrix(&st16;  4195.0  322.73 )">32</text><text style="&st18;" transform="matrix(&st16;  4204.61  322.73 )">B</text><path style="stroke-width:1.42 ;&st7;   " d=" M  4211.33,   320.77  C  4211.33    318.26   4209.30    316.23   4206.80    316.23  " /><path style="stroke-width:1.42 ;&st7;   " d=" M  4206.80,   316.23  C  4204.29    316.23   4202.26    318.26   4202.26    320.77  " /><path style="stroke-width:1.42 ;&st7;   " d=" M  4202.26,   320.77  C  4202.26    323.27   4204.29    325.30   4206.80    325.30  " /><path style="stroke-width:1.42 ;&st7;   " d=" M  4206.80,   325.30  C  4209.30    325.30   4211.33    323.27   4211.33    320.77  " /><text style="&st18;" transform="matrix(&st16;  4200.42  312.54 )">FSW</text></g><g ewd:lineID="176"><text style="&st18;" transform="matrix(&st16;  4195.0  262.68 )">24</text><path style="stroke-width:1.42 ;&st7;   " d=" M  4211.33,   260.71  C  4211.33    258.21   4209.30    256.18   4206.80    256.18  " /><path style="stroke-width:1.42 ;&st7;   " d=" M  4206.80,   256.18  C  4204.29    256.18   4202.26    258.21   4202.26    260.71  " /><path style="stroke-width:1.42 ;&st7;   " d=" M  4202.26,   260.71  C  4202.26    263.21   4204.29    265.24   4206.80    265.24  " /><path style="stroke-width:1.42 ;&st7;   " d=" M  4206.80,   265.24  C  4209.30    265.24   4211.33    263.21   4211.33    260.71  " /><text style="&st18;" transform="matrix(&st16;  4204.61  262.68 )">B</text><text style="&st18;" transform="matrix(&st16;  4200.42  272.88 )">RSW</text></g><g ewd:lineID="182"><text style="&st18;" transform="matrix(&st16;  4254.49  322.73 )">32</text><text style="&st18;" transform="matrix(&st16;  4263.87  322.73 )">C</text><path style="stroke-width:1.42 ;&st7;   " d=" M  4270.82,   320.77  C  4270.82    318.26   4268.79    316.23   4266.29    316.23  " /><path style="stroke-width:1.42 ;&st7;   " d=" M  4266.29,   316.23  C  4263.78    316.23   4261.75    318.26   4261.75    320.77  " /><path style="stroke-width:1.42 ;&st7;   " d=" M  4261.75,   320.77  C  4261.75    323.27   4263.78    325.30   4266.29    325.30  " /><path style="stroke-width:1.42 ;&st7;   " d=" M  4266.29,   325.30  C  4268.79    325.30   4270.82    323.27   4270.82    320.77  " /><text style="&st18;" transform="matrix(&st16;  4262.01  312.54 )">EC</text></g><g ewd:lineID="188"><text style="&st18;" transform="matrix(&st16;  4373.47  322.73 )">10</text><text style="&st18;" transform="matrix(&st16;  4382.85  322.73 )">C</text><path style="stroke-width:1.42 ;&st7;   " d=" M  4389.80,   320.77  C  4389.80    318.26   4387.77    316.23   4385.27    316.23  " /><path style="stroke-width:1.42 ;&st7;   " d=" M  4385.27,   316.23  C  4382.76    316.23   4380.73    318.26   4380.73    320.77  " /><path style="stroke-width:1.42 ;&st7;   " d=" M  4380.73,   320.77  C  4380.73    323.27   4382.76    325.30   4385.27    325.30  " /><path style="stroke-width:1.42 ;&st7;   " d=" M  4385.27,   325.30  C  4387.77    325.30   4389.80    323.27   4389.80    320.77  " /><text style="&st18;" transform="matrix(&st16;  4379.28  312.54 )">IMO</text></g><g ewd:lineID="190"><text style="&st18;" transform="matrix(&st16;  4407.47  322.73 )">11</text><text style="&st18;" transform="matrix(&st16;  4416.84  322.73 )">C</text><path style="stroke-width:1.42 ;&st7;   " d=" M  4423.79,   320.77  C  4423.79    318.26   4421.76    316.23   4419.26    316.23  " /><path style="stroke-width:1.42 ;&st7;   " d=" M  4419.26,   316.23  C  4416.76    316.23   4414.73    318.26   4414.73    320.77  " /><path style="stroke-width:1.42 ;&st7;   " d=" M  4414.73,   320.77  C  4414.73    323.27   4416.76    325.30   4419.26    325.30  " /><path style="stroke-width:1.42 ;&st7;   " d=" M  4419.26,   325.30  C  4421.76    325.30   4423.79    323.27   4423.79    320.77  " /><text style="&st18;" transform="matrix(&st16;  4414.75  312.54 )">IMI</text></g><g ewd:lineID="191"><text style="&st18;" transform="matrix(&st16;  4470.06  262.68 )">1</text><path style="stroke-width:1.42 ;&st7;   " d=" M  4483.28,   260.71  C  4483.28    258.21   4481.25    256.18   4478.75    256.18  " /><path style="stroke-width:1.42 ;&st7;   " d=" M  4478.75,   256.18  C  4476.25    256.18   4474.22    258.21   4474.22    260.71  " /><path style="stroke-width:1.42 ;&st7;   " d=" M  4474.22,   260.71  C  4474.22    263.21   4476.25    265.24   4478.75    265.24  " /><path style="stroke-width:1.42 ;&st7;   " d=" M  4478.75,   265.24  C  4481.25    265.24   4483.28    263.21   4483.28    260.71  " /><text style="&st18;" transform="matrix(&st16;  4476.56  262.68 )">B</text><text style="&st18;" transform="matrix(&st16;  4472.69  272.88 )">ALT</text></g></g><g ewd:figtype="w2w" ewd:figID="109" ewd:code="CA3"><path style="stroke-width:1.42 ;&st7;  " d=" M  4211.04,   546.26  L  4206.80,   542.01  L  4202.55,   546.26  " /><path style="stroke-width:1.42 ;&st7;  " d=" M  4211.04,   542.86  L  4206.80,   538.61  L  4202.55,   542.86  " /><text style="&st18;" transform="matrix(&st16;  4194.17  534.92 )">7</text></g><g ewd:figtype="w2w" ewd:figID="110" ewd:code="AI7"><path style="stroke-width:1.42 ;&st7;  " d=" M  4262.04,   477.14  L  4266.29,   481.39  L  4270.53,   477.14  " /><path style="stroke-width:1.42 ;&st7;  " d=" M  4270.53,   480.54  L  4266.29,   484.79  L  4262.04,   480.54  " /><text style="&st18;" transform="matrix(&st16;  4250.55  492.42 )">10</text></g><g ewd:figtype="w2w" ewd:figID="111" ewd:code="CA4"><path style="stroke-width:1.42 ;&st7;  " d=" M  4270.53,   143.43  L  4266.29,   139.18  L  4262.04,   143.43  " /><text style="&st18;" transform="matrix(&st16;  4250.55  135.48 )">10</text><path style="stroke-width:1.42 ;&st7;  " d=" M  4270.53,   146.83  L  4266.29,   142.58  L  4262.04,   146.83  " /></g><g ewd:figtype="w2w" ewd:figID="112" ewd:code="AI3"><text style="&st18;" transform="matrix(&st16;  4318.54  203.47 )">42</text><path style="stroke-width:1.42 ;&st7;  " d=" M  4338.52,   191.59  L  4334.27,   195.84  L  4330.02,   191.59  " /><path style="stroke-width:1.42 ;&st7;  " d=" M  4330.02,   188.19  L  4334.27,   192.44  L  4338.52,   188.19  " /></g><g ewd:figtype="w2w" ewd:figID="113" ewd:code="IL1"><path style="stroke-width:1.42 ;&st7;  " d=" M  4389.51,   415.38  L  4385.27,   411.13  L  4381.02,   415.38  " /><path style="stroke-width:1.42 ;&st7;  " d=" M  4389.51,   418.78  L  4385.27,   414.53  L  4381.02,   418.78  " /><text style="&st18;" transform="matrix(&st16;  4369.53  407.44 )">19</text></g><g ewd:figtype="w2w" ewd:figID="114" ewd:code="IL1"><path style="stroke-width:1.42 ;&st7;  " d=" M  4423.51,   415.38  L  4419.26,   411.13  L  4415.01,   415.38  " /><path style="stroke-width:1.42 ;&st7;  " d=" M  4423.51,   418.78  L  4419.26,   414.53  L  4415.01,   418.78  " /><text style="&st18;" transform="matrix(&st16;  4403.53  407.44 )">20</text></g><g ewd:figtype="gp" ewd:figID="138" ewd:code="AA"><path style="stroke-width:0.85 ;&st7;  " d=" M  4266.29,   697.25  L  4266.29,   701.50  " /><path style="stroke-width:0.85 ;&st7;  " d=" M  4257.79,   701.50  L  4274.78,   701.50  " /><path style="stroke-width:0.85 ;&st7;  " d=" M  4262.04,   704.33  L  4270.53,   704.33  " /><path style="stroke-width:0.85 ;&st7;  " d=" M  4263.45,   707.17  L  4269.12,   707.17  " /><path style="stroke-width:0.85 ;&st7;  " d=" M  4264.87,   710.00  L  4267.70,   710.00  " /></g><g ewd:code="1" ewd:figID="221" ewd:comment="" ewd:figtype="comment"><text style="&st18;" transform="matrix(&st16;  4024.92  71.74 )" ewd:textID="1">* 1 :Shielded</text></g><g ewd:code="2" ewd:figID="207" ewd:comment="" ewd:figtype="comment"><text style="&st18;" transform="matrix(&st16;  4024.92  80.24 )" ewd:textID="2">* 2 :w/ Air Conditioner</text></g></svg>