<?xml version="1.0" encoding="utf-8"?>
<!DOCTYPE svg PUBLIC "-//W3C//DTD SVG 1.0//EN" "http://www.w3.org/TR/2001/REC-SVG-20010904/DTD/svg10.dtd"[
	<!ENTITY ns_flows "http://ns.adobe.com/Flows/1.0/">
	<!ENTITY ns_svg "http://www.w3.org/2000/svg">
	<!ENTITY ns_xlink "http://www.w3.org/1999/xlink">
	<!ENTITY st0 "font-size:7px;font-family:'MS-PGothic';adobe-font-script:japanese;">
	<!ENTITY st1 "font-size:6px;font-family:'ArialMT';">
	<!-- White fill  -->
	<!ENTITY st2 "fill:#FFFFFF;stroke:#000000; stroke-width:1.41;stroke-linecap:round;stroke-linejoin:round;">
	<!-- Yellow fill  -->
	<!ENTITY st3 "fill:#FFFFCC;stroke:#FFFFCC; stroke-width:0.1;stroke-linecap:round;stroke-linejoin:round;">
	<!-- Gray fill  -->
	<!ENTITY st4 "fill:#CCCCCC;stroke:#CCCCCC; stroke-width:0.1;stroke-linecap:round;stroke-linejoin:round;">
	<!-- Light-blue fill -->
	<!ENTITY st5 "fill:#CCECF4;stroke:#000000; stroke-width:1.133;stroke-linecap:round;stroke-linejoin:round;">
	<!ENTITY st6 "fill:none;stroke-linecap:butt; stroke-linejoin:round;">
	<!ENTITY st7 "fill:none;stroke:#000000;stroke-linecap:round;stroke-linejoin:round;">
	<!ENTITY st8 "enable-background:new    ;">
	<!-- Black fill -->
	<!ENTITY st9 "fill:#000000;stroke:#000000; stroke-linecap:round;stroke-linejoin:round;">
	<!-- SRS note   -->
	<!ENTITY st10 "font-size:9px;font-family:'ArialMT';">
	<!ENTITY st11 "font-size:9px;font-family:'Svg Symbol';">
	<!ENTITY st12 "font-size:6px;font-family:'Svg Symbol';">
	<!ENTITY st13 "fill:none;stroke:#ff0000;stroke-linecap:round;stroke-linejoin:round;">
	<!-- Yellow fill  -->
	<!ENTITY st14 "fill:#FFFF00;stroke:#FFFF00; stroke-width:0.1;stroke-linecap:round;stroke-linejoin:round;">
	<!ENTITY st15 "font-size:6px;font-family:'MS-PGothic';adobe-font-script:japanese;">
	<!ENTITY st16 "1.00 0.00 0.00 1.00">
	<!ENTITY st17 "0.00 -1.00 1.00 0.00">
	<!ENTITY st18 "font-size:6px;font-family:'Arial';">
	<!ENTITY st19 "font-size:9px;font-family:'Arial';">
	<!ENTITY st20 "font-size:6px;font-family:'MS-PGothic','MS PGothic';adobe-font-script:japanese;">
	<!ENTITY st21 "font-size:7px;font-family:'MS-PGothic','MS PGothic';adobe-font-script:japanese;">
	<!ATTLIST svg
		xmlns:ewd CDATA #FIXED "http://shcl.co.jp/ewd"
		xmlns:a CDATA #FIXED "http://ns.adobe.com/AdobeSVGViewerExtensions/3.0/"
		ewd:ver CDATA #IMPLIED
	>
	<!ATTLIST a
		ewd:lineID CDATA #IMPLIED
		ewd:groupID CDATA #IMPLIED
		ewd:figtype CDATA #IMPLIED
		ewd:code CDATA #IMPLIED
		ewd:figID CDATA #IMPLIED
		ewd:pinNo CDATA #IMPLIED
		ewd:comment CDATA #IMPLIED >
	<!ATTLIST g
		ewd:lineID CDATA #IMPLIED
		ewd:groupID CDATA #IMPLIED
		ewd:figtype CDATA #IMPLIED
		ewd:code CDATA #IMPLIED
		ewd:figID CDATA #IMPLIED
		ewd:pinNo CDATA #IMPLIED
		ewd:comment CDATA #IMPLIED >
	<!ATTLIST text
		ewd:textID CDATA #IMPLIED >
	<!ATTLIST title
		ewd:textID CDATA #IMPLIED >
]>
<!-- Generator: Shintec Hozumi YS   -->
<svg onload="call_execInitLoadProc_svg('system')" style="overflow:visible;  enable-background:new 0 0 5661.925 710.000" viewBox="0 0 5661.925 710.000" height="710.000" width="5661.925" xml:space="preserve" ewd:ver="2.1.2.9" xmlns="&ns_svg;" xmlns:a="http://ns.adobe.com/AdobeSVGViewerExtensions/3.0/" xmlns:ewd="http://shcl.co.jp/ewd" xmlns:xlink="&ns_xlink;">
<path style="stroke-width:1.42 ;&st7;  " d=" M  3234.43,   452.21  L  3229.46,   457.18  " /><path style="stroke-width:1.42 ;&st7;  " d=" M  3241.49,   469.21  L  3246.46,   464.24  " /><path style="stroke-width:1.42 ;&st7;  " d=" M  3229.46,   464.24  L  3234.43,   469.21  " /><path style="stroke-width:1.42 ;&st7;  " d=" M  3246.46,   457.18  L  3241.49,   452.21  " /><path style="stroke-width:1.42 ;&st7;  " d=" M  3378.91,   443.71  L  3373.94,   448.68  " /><path style="stroke-width:1.42 ;&st7;  " d=" M  3385.96,   460.71  L  3390.93,   455.74  " /><path style="stroke-width:1.42 ;&st7;  " d=" M  3373.94,   455.74  L  3378.91,   460.71  " /><path style="stroke-width:1.42 ;&st7;  " d=" M  3390.93,   448.68  L  3385.96,   443.71  " /><path style="stroke-width:1.42 ;&st7;  " d=" M  3207.49,   469.21  L  3212.46,   464.24  " /><path style="stroke-width:1.42 ;&st7;  " d=" M  3212.46,   457.18  L  3207.49,   452.21  " /><path style="stroke-width:1.42 ;&st7;  " d=" M  3055.96,   520.20  L  3050.99,   525.17  " /><path style="stroke-width:1.42 ;&st7;  " d=" M  3063.02,   537.20  L  3067.99,   532.23  " /><path style="stroke-width:1.42 ;&st7;  " d=" M  3050.99,   532.23  L  3055.96,   537.20  " /><path style="stroke-width:1.42 ;&st7;  " d=" M  3067.99,   525.17  L  3063.02,   520.20  " /><path style="stroke-width:1.42 ;&st7;  " d=" M  3021.97,   443.71  L  3017.00,   448.68  " /><path style="stroke-width:1.42 ;&st7;  " d=" M  3029.02,   460.71  L  3033.99,   455.74  " /><path style="stroke-width:1.42 ;&st7;  " d=" M  3017.00,   455.74  L  3021.97,   460.71  " /><path style="stroke-width:1.42 ;&st7;  " d=" M  3033.99,   448.68  L  3029.02,   443.71  " /><path style="stroke-width:1.42 ;&st7;  " d=" M  3195.47,   464.24  L  3200.44,   469.21  " /><path style="stroke-width:1.42 ;&st7;  " d=" M  3200.44,   452.21  L  3195.47,   457.18  " /><path style="stroke-width:1.42 ;&st7;  " d=" M  3152.97,   384.22  L  3161.47,   384.22  " /><path style="stroke-width:1.42 ;&st7;  " d=" M  3348.44,   197.25  L  3356.94,   197.25  " /><path style="stroke-width:1.42 ;&st7;  " d=" M  3314.45,   197.25  L  3322.94,   197.25  " /><path style="stroke-width:1.42 ;&st7;  " d=" M  3280.45,   197.25  L  3288.95,   197.25  " /><path style="stroke-width:1.42 ;&st7;  " d=" M  3246.46,   197.25  L  3254.96,   197.25  " /><path style="stroke-width:1.42 ;&st7;  " d=" M  3212.46,   197.25  L  3220.96,   197.25  " /><path style="stroke-width:1.42 ;&st7;  " d=" M  3178.47,   197.25  L  3186.97,   197.25  " /><text style="&st18;" transform="matrix(&st17;  3429.73  168.32 )">L-B</text><text style="&st18;" transform="matrix(&st17;  3463.73  169.21 )">B-W</text><text style="&st18;" transform="matrix(&st17;  3234.26  551.65 )">W-B</text><text style="&st18;" transform="matrix(&st16;  3294.04  290.13 )">A29(A),C39(B)</text><text style="&st18;" transform="matrix(&st16;  3133.01  652.48 )">W</text><text style="&st18;" transform="matrix(&st16;  3082.02  652.48 )">W</text><text style="&st18;" transform="matrix(&st17;  3497.72  548.16 )">W</text><text style="&st18;" transform="matrix(&st17;  3455.23  547.38 )">B</text><text style="&st18;" transform="matrix(&st17;  3421.23  548.16 )">W</text><text style="&st18;" transform="matrix(&st17;  3378.74  547.27 )">L</text><text style="&st18;" transform="matrix(&st17;  3344.74  547.19 )">P</text><text style="&st18;" transform="matrix(&st17;  3302.25  547.27 )">L</text><text style="&st18;" transform="matrix(&st17;  3268.26  547.38 )">Y</text><text style="&st18;" transform="matrix(&st17;  3200.27  551.65 )">W-B</text><text style="&st18;" transform="matrix(&st17;  3157.78  446.18 )">W</text><text style="&st18;" transform="matrix(&st17;  3234.26  441.17 )">W-B</text><text style="&st18;" transform="matrix(&st17;  3361.74  344.19 )">W</text><text style="&st18;" transform="matrix(&st17;  3336.25  344.19 )">W</text><text style="&st18;" transform="matrix(&st17;  3157.78  352.69 )">W</text><text style="&st18;" transform="matrix(&st17;  3310.75  343.53 )">V</text><text style="&st18;" transform="matrix(&st17;  3378.74  436.79 )">L</text><text style="&st18;" transform="matrix(&st17;  3285.25  343.34 )">R</text><text style="&st18;" transform="matrix(&st17;  3259.76  343.42 )">Y</text><text style="&st18;" transform="matrix(&st17;  3021.8  547.38 )">Y</text><text style="&st18;" transform="matrix(&st17;  3021.8  432.65 )">Y</text><text style="&st18;" transform="matrix(&st17;  3055.79  551.65 )">W-B</text><text style="&st18;" transform="matrix(&st17;  3463.73  237.2 )">B-W</text><text style="&st18;" transform="matrix(&st17;  3429.73  236.31 )">L-B</text><text style="&st18;" transform="matrix(&st17;  3353.24  166.81 )">BR</text><text style="&st18;" transform="matrix(&st17;  3319.25  165.72 )">W</text><text style="&st18;" transform="matrix(&st17;  3285.25  165.06 )">V</text><text style="&st18;" transform="matrix(&st17;  3251.26  171.07 )">BR-W</text><text style="&st18;" transform="matrix(&st17;  3183.27  236.23 )">L-R</text><text style="&st18;" transform="matrix(&st17;  3183.27  168.24 )">L-R</text><text style="&st18;" transform="matrix(&st17;  3217.27  236.35 )">R-B</text><text style="&st18;" transform="matrix(&st17;  3217.27  168.36 )">R-B</text><text style="&st18;" transform="matrix(&st17;  3251.26  239.06 )">BR-W</text><text style="&st18;" transform="matrix(&st17;  3285.25  233.05 )">V</text><text style="&st18;" transform="matrix(&st17;  3319.25  233.71 )">W</text><text style="&st18;" transform="matrix(&st17;  3353.24  234.8 )">BR</text><text style="&st18;" transform="matrix(&st16;  3294.04  296.96 )">ECM</text><path style="stroke-width:1.42 ;&st7;  " d=" M  3458.92,   197.25  L  3467.42,   197.25  " /><path style="stroke-width:1.42 ;&st7;  " d=" M  3424.93,   197.25  L  3433.43,   197.25  " /><text style="&st18;" transform="matrix(&st17;  3475.06  235.96 )">(*2)</text><text style="&st18;" transform="matrix(&st17;  3441.06  235.96 )">(*2)</text><text style="&st18;" transform="matrix(&st17;  3441.06  167.97 )">(*2)</text><text style="&st18;" transform="matrix(&st17;  3475.06  167.97 )">(*2)</text><g ewd:figtype="conn" ewd:figID="36" ewd:code="C52,C53"><g ewd:lineID="137"><text style="&st18;" transform="matrix(&st16;  3016.8  416.22 )">6</text><path style="stroke-width:1.42 ;&st7;   " d=" M  3030.03,   414.25  C  3030.03    411.75   3028.00    409.72   3025.49    409.72  " /><path style="stroke-width:1.42 ;&st7;   " d=" M  3025.49,   409.72  C  3022.99    409.72   3020.96    411.75   3020.96    414.25  " /><path style="stroke-width:1.42 ;&st7;   " d=" M  3020.96,   414.25  C  3020.96    416.75   3022.99    418.78   3025.49    418.78  " /><path style="stroke-width:1.42 ;&st7;   " d=" M  3025.49,   418.78  C  3028.00    418.78   3030.03    416.75   3030.03    414.25  " /><text style="&st18;" transform="matrix(&st16;  3023.31  416.22 )">B</text><text style="&st18;" transform="matrix(&st16;  3016.68  406.02 )">COM5</text></g></g><g ewd:figtype="conn" ewd:figID="37" ewd:code="I43"><path style="stroke-width:1.42 ;&st7;  " d=" M  3169.97,   129.26  L  3373.93,   129.26  L  3373.93,    86.77  L  3169.97,    86.77  L  3169.97,   129.26  " /><g ewd:lineID="141"><text style="&st18;" transform="matrix(&st16;  3180.78  137.46 )">6</text><text style="&st18;" transform="matrix(&st16;  3180.86  125.57 )">VPA</text></g><g ewd:lineID="144"><text style="&st18;" transform="matrix(&st16;  3214.78  137.46 )">3</text><text style="&st18;" transform="matrix(&st16;  3213.31  125.57 )">VPA2</text></g><g ewd:lineID="149"><text style="&st18;" transform="matrix(&st16;  3248.77  137.46 )">4</text><text style="&st18;" transform="matrix(&st16;  3246.68  125.57 )">VCPA</text></g><g ewd:lineID="154"><text style="&st18;" transform="matrix(&st16;  3282.77  137.46 )">1</text><text style="&st18;" transform="matrix(&st16;  3281.18  125.57 )">VCP2</text></g><g ewd:lineID="157"><text style="&st18;" transform="matrix(&st16;  3316.76  137.46 )">5</text><text style="&st18;" transform="matrix(&st16;  3317.03  125.57 )">EPA</text></g><g ewd:lineID="162"><text style="&st18;" transform="matrix(&st16;  3350.75  137.46 )">2</text><text style="&st18;" transform="matrix(&st16;  3349.48  125.57 )">EPA2</text></g><g ewd:figtype="title"><text style="&st18;" transform="matrix(&st16;  3166.56  76.25 )">I43</text><text style="&st18;" transform="matrix(&st16;  3166.56  83.07 )" ewd:textID="3">Accelerator Pedal Sensor Assembly</text></g></g><g ewd:figtype="conn" ewd:figID="47" ewd:code="C54,C55"><path style="stroke-width:1.42 ;&st7;  " d=" M  3220.96,   409.72  L  3552.40,   409.72  L  3552.40,   367.22  L  3220.96,   367.22  L  3220.96,   409.72  " /><g ewd:lineID="146"><text style="&st18;" transform="matrix(&st16;  3229.27  416.22 )">1</text><text style="&st18;" transform="matrix(&st16;  3235.65  416.22 )">A</text><path style="stroke-width:1.42 ;&st7;   " d=" M  3242.49,   414.25  C  3242.49    411.75   3240.46    409.72   3237.96    409.72  " /><path style="stroke-width:1.42 ;&st7;   " d=" M  3237.96,   409.72  C  3235.46    409.72   3233.43    411.75   3233.43    414.25  " /><path style="stroke-width:1.42 ;&st7;   " d=" M  3233.43,   414.25  C  3233.43    416.75   3235.46    418.78   3237.96    418.78  " /><path style="stroke-width:1.42 ;&st7;   " d=" M  3237.96,   418.78  C  3240.46    418.78   3242.49    416.75   3242.49    414.25  " /><text style="&st18;" transform="matrix(&st16;  3231.31  406.02 )">GND</text></g><g ewd:lineID="147"><text style="&st18;" transform="matrix(&st16;  3229.27  364.66 )">8</text><path style="stroke-width:1.42 ;&st7;   " d=" M  3242.49,   362.69  C  3242.49    360.19   3240.46    358.16   3237.96    358.16  " /><path style="stroke-width:1.42 ;&st7;   " d=" M  3237.96,   358.16  C  3235.46    358.16   3233.43    360.19   3233.43    362.69  " /><path style="stroke-width:1.42 ;&st7;   " d=" M  3233.43,   362.69  C  3233.43    365.19   3235.46    367.22   3237.96    367.22  " /><path style="stroke-width:1.42 ;&st7;   " d=" M  3237.96,   367.22  C  3240.46    367.22   3242.49    365.19   3242.49    362.69  " /><text style="&st18;" transform="matrix(&st16;  3235.77  364.66 )">B</text><text style="&st18;" transform="matrix(&st16;  3234.22  374.86 )">+B</text></g><g ewd:lineID="150"><text style="&st18;" transform="matrix(&st16;  3254.76  364.66 )">6</text><path style="stroke-width:1.42 ;&st7;   " d=" M  3267.99,   362.69  C  3267.99    360.19   3265.96    358.16   3263.45    358.16  " /><path style="stroke-width:1.42 ;&st7;   " d=" M  3263.45,   358.16  C  3260.95    358.16   3258.92    360.19   3258.92    362.69  " /><path style="stroke-width:1.42 ;&st7;   " d=" M  3258.92,   362.69  C  3258.92    365.19   3260.95    367.22   3263.45    367.22  " /><path style="stroke-width:1.42 ;&st7;   " d=" M  3263.45,   367.22  C  3265.96    367.22   3267.99    365.19   3267.99    362.69  " /><text style="&st18;" transform="matrix(&st16;  3261.15  364.66 )">A</text><text style="&st18;" transform="matrix(&st16;  3258.55  374.86 )">#10</text></g><g ewd:lineID="151"><text style="&st18;" transform="matrix(&st16;  3263.26  416.22 )">4</text><path style="stroke-width:1.42 ;&st7;   " d=" M  3276.49,   414.25  C  3276.49    411.75   3274.46    409.72   3271.95    409.72  " /><path style="stroke-width:1.42 ;&st7;   " d=" M  3271.95,   409.72  C  3269.45    409.72   3267.42    411.75   3267.42    414.25  " /><path style="stroke-width:1.42 ;&st7;   " d=" M  3267.42,   414.25  C  3267.42    416.75   3269.45    418.78   3271.95    418.78  " /><path style="stroke-width:1.42 ;&st7;   " d=" M  3271.95,   418.78  C  3274.46    418.78   3276.49    416.75   3276.49    414.25  " /><text style="&st18;" transform="matrix(&st16;  3269.77  416.22 )">B</text><text style="&st18;" transform="matrix(&st16;  3266.0  406.02 )">INJ1</text></g><g ewd:lineID="152"><text style="&st18;" transform="matrix(&st16;  3280.26  364.66 )">5</text><text style="&st18;" transform="matrix(&st16;  3286.65  364.66 )">A</text><path style="stroke-width:1.42 ;&st7;   " d=" M  3293.48,   362.69  C  3293.48    360.19   3291.45    358.16   3288.95    358.16  " /><path style="stroke-width:1.42 ;&st7;   " d=" M  3288.95,   358.16  C  3286.45    358.16   3284.42    360.19   3284.42    362.69  " /><path style="stroke-width:1.42 ;&st7;   " d=" M  3284.42,   362.69  C  3284.42    365.19   3286.45    367.22   3288.95    367.22  " /><path style="stroke-width:1.42 ;&st7;   " d=" M  3288.95,   367.22  C  3291.45    367.22   3293.48    365.19   3293.48    362.69  " /><text style="&st18;" transform="matrix(&st16;  3284.05  374.86 )">#40</text></g><g ewd:lineID="155"><text style="&st18;" transform="matrix(&st16;  3305.75  364.66 )">3</text><path style="stroke-width:1.42 ;&st7;   " d=" M  3318.98,   362.69  C  3318.98    360.19   3316.95    358.16   3314.45    358.16  " /><path style="stroke-width:1.42 ;&st7;   " d=" M  3314.45,   358.16  C  3311.94    358.16   3309.91    360.19   3309.91    362.69  " /><path style="stroke-width:1.42 ;&st7;   " d=" M  3309.91,   362.69  C  3309.91    365.19   3311.94    367.22   3314.45    367.22  " /><path style="stroke-width:1.42 ;&st7;   " d=" M  3314.45,   367.22  C  3316.95    367.22   3318.98    365.19   3318.98    362.69  " /><text style="&st18;" transform="matrix(&st16;  3312.14  364.66 )">A</text><text style="&st18;" transform="matrix(&st16;  3309.54  374.86 )">#60</text></g><g ewd:lineID="158"><text style="&st18;" transform="matrix(&st16;  3331.25  364.66 )">2</text><path style="stroke-width:1.42 ;&st7;   " d=" M  3344.47,   362.69  C  3344.47    360.19   3342.45    358.16   3339.94    358.16  " /><path style="stroke-width:1.42 ;&st7;   " d=" M  3339.94,   358.16  C  3337.44    358.16   3335.41    360.19   3335.41    362.69  " /><path style="stroke-width:1.42 ;&st7;   " d=" M  3335.41,   362.69  C  3335.41    365.19   3337.44    367.22   3339.94    367.22  " /><path style="stroke-width:1.42 ;&st7;   " d=" M  3339.94,   367.22  C  3342.45    367.22   3344.47    365.19   3344.47    362.69  " /><text style="&st18;" transform="matrix(&st16;  3337.64  364.66 )">A</text><text style="&st18;" transform="matrix(&st16;  3335.04  374.86 )">#70</text></g><g ewd:lineID="160"><text style="&st18;" transform="matrix(&st16;  3339.75  416.22 )">3</text><path style="stroke-width:1.42 ;&st7;   " d=" M  3352.97,   414.25  C  3352.97    411.75   3350.94    409.72   3348.44    409.72  " /><path style="stroke-width:1.42 ;&st7;   " d=" M  3348.44,   409.72  C  3345.94    409.72   3343.91    411.75   3343.91    414.25  " /><path style="stroke-width:1.42 ;&st7;   " d=" M  3343.91,   414.25  C  3343.91    416.75   3345.94    418.78   3348.44    418.78  " /><path style="stroke-width:1.42 ;&st7;   " d=" M  3348.44,   418.78  C  3350.94    418.78   3352.97    416.75   3352.97    414.25  " /><text style="&st18;" transform="matrix(&st16;  3346.25  416.22 )">B</text><text style="&st18;" transform="matrix(&st16;  3342.49  406.02 )">INJ4</text></g><g ewd:lineID="163"><text style="&st18;" transform="matrix(&st16;  3356.74  364.66 )">7</text><text style="&st18;" transform="matrix(&st16;  3363.13  364.66 )">A</text><path style="stroke-width:1.42 ;&st7;   " d=" M  3369.97,   362.69  C  3369.97    360.19   3367.94    358.16   3365.44    358.16  " /><path style="stroke-width:1.42 ;&st7;   " d=" M  3365.44,   358.16  C  3362.93    358.16   3360.91    360.19   3360.91    362.69  " /><path style="stroke-width:1.42 ;&st7;   " d=" M  3360.91,   362.69  C  3360.91    365.19   3362.93    367.22   3365.44    367.22  " /><path style="stroke-width:1.42 ;&st7;   " d=" M  3365.44,   367.22  C  3367.94    367.22   3369.97    365.19   3369.97    362.69  " /><text style="&st18;" transform="matrix(&st16;  3359.18  374.86 )">INJF</text></g><g ewd:lineID="165"><text style="&st18;" transform="matrix(&st16;  3373.74  416.22 )">5</text><text style="&st18;" transform="matrix(&st16;  3380.25  416.22 )">B</text><path style="stroke-width:1.42 ;&st7;   " d=" M  3386.97,   414.25  C  3386.97    411.75   3384.94    409.72   3382.43    409.72  " /><path style="stroke-width:1.42 ;&st7;   " d=" M  3382.43,   409.72  C  3379.93    409.72   3377.90    411.75   3377.90    414.25  " /><path style="stroke-width:1.42 ;&st7;   " d=" M  3377.90,   414.25  C  3377.90    416.75   3379.93    418.78   3382.43    418.78  " /><path style="stroke-width:1.42 ;&st7;   " d=" M  3382.43,   418.78  C  3384.94    418.78   3386.97    416.75   3386.97    414.25  " /><text style="&st18;" transform="matrix(&st16;  3373.62  406.02 )">COM1</text></g><g ewd:lineID="166"><text style="&st18;" transform="matrix(&st16;  3416.23  416.22 )">2</text><text style="&st18;" transform="matrix(&st16;  3422.74  416.22 )">B</text><path style="stroke-width:1.42 ;&st7;   " d=" M  3429.46,   414.25  C  3429.46    411.75   3427.43    409.72   3424.93    409.72  " /><path style="stroke-width:1.42 ;&st7;   " d=" M  3424.93,   409.72  C  3422.42    409.72   3420.40    411.75   3420.40    414.25  " /><path style="stroke-width:1.42 ;&st7;   " d=" M  3420.40,   414.25  C  3420.40    416.75   3422.42    418.78   3424.93    418.78  " /><path style="stroke-width:1.42 ;&st7;   " d=" M  3424.93,   418.78  C  3427.43    418.78   3429.46    416.75   3429.46    414.25  " /><text style="&st18;" transform="matrix(&st16;  3418.98  406.02 )">INJ6</text></g><g ewd:lineID="172"><text style="&st18;" transform="matrix(&st16;  3492.72  416.22 )">1</text><path style="stroke-width:1.42 ;&st7;   " d=" M  3496.88,   414.25  C  3496.88    416.75   3498.91    418.78   3501.41    418.78  " /><text style="&st18;" transform="matrix(&st16;  3499.23  416.22 )">B</text><text style="&st18;" transform="matrix(&st16;  3495.47  406.02 )">INJ7</text></g><g ewd:figtype="title"><text style="&st18;" transform="matrix(&st16;  3421.52  356.7 )">C54(A),C55(B)</text><text style="&st18;" transform="matrix(&st16;  3421.52  363.53 )" ewd:textID="37">Injector Driver (EDU) (No. 1)</text></g></g><g ewd:figtype="conn" ewd:figID="49" ewd:code="C48"><path style="stroke-width:0.85 ;&st7;  " d=" M  3271.95,   613.68  L  3271.95,   622.18  " /><path style="stroke-width:0.85 ;&st7;  " d=" M  3271.95,   588.19  L  3271.95,   596.69  " /><path style="stroke-width:0.85 ;&st7;   " d=" M  3271.95,   613.68  C  3273.91    613.68   3275.49    612.10   3275.49    610.14  " /><path style="stroke-width:0.85 ;&st7;   " d=" M  3275.49,   610.14  C  3275.49    608.19   3273.91    606.60   3271.95    606.60  " /><path style="stroke-width:0.85 ;&st7;   " d=" M  3271.95,   606.60  C  3270.96    606.60   3270.12    606.96   3269.42    607.66  " /><path style="stroke-width:0.85 ;&st7;   " d=" M  3269.42,   602.71  C  3270.79    604.10   3273.03    604.13   3274.43    602.76  " /><path style="stroke-width:0.85 ;&st7;   " d=" M  3274.43,   602.76  C  3275.83    601.39   3275.85    599.15   3274.48    597.75  " /><path style="stroke-width:0.85 ;&st7;   " d=" M  3274.48,   597.75  C  3273.79    597.04   3272.94    596.68   3271.95    596.68  " /><path style="stroke-width:0.85 ;&st7;   " d=" M  3269.42,   607.66  C  3270.79    609.06   3273.03    609.08   3274.43    607.71  " /><path style="stroke-width:0.85 ;&st7;   " d=" M  3274.43,   607.71  C  3275.83    606.34   3275.85    604.10   3274.48    602.71  " /><path style="stroke-width:0.85 ;&st7;   " d=" M  3274.48,   602.71  C  3273.11    601.31   3270.87    601.29   3269.47    602.65  " /><path style="stroke-width:0.85 ;&st7;   " d=" M  3269.47,   602.65  C  3269.46    602.67   3269.44    602.69   3269.42    602.71  " /><path style="stroke-width:1.42 ;&st7;  " d=" M  3280.45,   622.18  L  3280.45,   588.19  L  3263.45,   588.19  L  3263.45,   622.18  L  3280.45,   622.18  " /><text style="&st18;" transform="matrix(&st16;  3265.77  584.5 )">2</text><text style="&st18;" transform="matrix(&st16;  3265.77  630.37 )">1</text><g ewd:figtype="title"><text style="&st18;" transform="matrix(&st17;  3295.17  625.09 )" ewd:textID="29">Injector <tspan x="0 " dy="6.0">Assembly No. 1</tspan></text><text style="&st18;" transform="matrix(&st17;  3288.35  625.08 )">C48</text></g></g><g ewd:figtype="conn" ewd:figID="51" ewd:code="C72"><path style="stroke-width:0.85 ;&st7;  " d=" M  3348.44,   613.68  L  3348.44,   622.18  " /><path style="stroke-width:0.85 ;&st7;  " d=" M  3348.44,   588.19  L  3348.44,   596.69  " /><path style="stroke-width:0.85 ;&st7;   " d=" M  3345.91,   602.71  C  3347.28    604.10   3349.52    604.13   3350.92    602.76  " /><path style="stroke-width:0.85 ;&st7;   " d=" M  3350.92,   602.76  C  3352.32    601.39   3352.34    599.15   3350.97    597.75  " /><path style="stroke-width:0.85 ;&st7;   " d=" M  3350.97,   597.75  C  3350.28    597.04   3349.43    596.68   3348.44    596.68  " /><path style="stroke-width:0.85 ;&st7;   " d=" M  3348.44,   613.68  C  3350.40    613.68   3351.98    612.10   3351.98    610.14  " /><path style="stroke-width:0.85 ;&st7;   " d=" M  3351.98,   610.14  C  3351.98    608.19   3350.40    606.60   3348.44    606.60  " /><path style="stroke-width:0.85 ;&st7;   " d=" M  3348.44,   606.60  C  3347.45    606.60   3346.60    606.96   3345.91    607.66  " /><path style="stroke-width:0.85 ;&st7;   " d=" M  3345.91,   607.66  C  3347.28    609.06   3349.52    609.08   3350.92    607.71  " /><path style="stroke-width:0.85 ;&st7;   " d=" M  3350.92,   607.71  C  3352.32    606.34   3352.34    604.10   3350.97    602.71  " /><path style="stroke-width:0.85 ;&st7;   " d=" M  3350.97,   602.71  C  3349.60    601.31   3347.36    601.29   3345.96    602.65  " /><path style="stroke-width:0.85 ;&st7;   " d=" M  3345.96,   602.65  C  3345.94    602.67   3345.93    602.69   3345.91    602.71  " /><path style="stroke-width:1.42 ;&st7;  " d=" M  3356.94,   622.18  L  3356.94,   588.19  L  3339.94,   588.19  L  3339.94,   622.18  L  3356.94,   622.18  " /><text style="&st18;" transform="matrix(&st16;  3342.26  630.37 )">1</text><text style="&st18;" transform="matrix(&st16;  3342.26  584.5 )">2</text><g ewd:figtype="title"><text style="&st18;" transform="matrix(&st17;  3364.83  625.08 )">C72</text><text style="&st18;" transform="matrix(&st17;  3371.66  625.09 )" ewd:textID="32">Injector <tspan x="0 " dy="6.0">Assembly No. 4</tspan></text></g></g><g ewd:figtype="conn" ewd:figID="54" ewd:code="C64"><path style="stroke-width:0.85 ;&st7;  " d=" M  3424.93,   613.68  L  3424.93,   622.18  " /><path style="stroke-width:0.85 ;&st7;  " d=" M  3424.93,   588.19  L  3424.93,   596.69  " /><path style="stroke-width:0.85 ;&st7;   " d=" M  3424.93,   613.68  C  3426.88    613.68   3428.47    612.10   3428.47    610.14  " /><path style="stroke-width:0.85 ;&st7;   " d=" M  3428.47,   610.14  C  3428.47    608.19   3426.88    606.60   3424.93    606.60  " /><path style="stroke-width:0.85 ;&st7;   " d=" M  3424.93,   606.60  C  3423.94    606.60   3423.09    606.96   3422.40    607.66  " /><path style="stroke-width:0.85 ;&st7;   " d=" M  3422.40,   602.71  C  3423.77    604.10   3426.01    604.13   3427.41    602.76  " /><path style="stroke-width:0.85 ;&st7;   " d=" M  3427.41,   602.76  C  3428.80    601.39   3428.83    599.15   3427.46    597.75  " /><path style="stroke-width:0.85 ;&st7;   " d=" M  3427.46,   597.75  C  3426.76    597.04   3425.92    596.68   3424.93    596.68  " /><path style="stroke-width:0.85 ;&st7;   " d=" M  3422.40,   607.66  C  3423.77    609.06   3426.01    609.08   3427.41    607.71  " /><path style="stroke-width:0.85 ;&st7;   " d=" M  3427.41,   607.71  C  3428.80    606.34   3428.83    604.10   3427.46    602.71  " /><path style="stroke-width:0.85 ;&st7;   " d=" M  3427.46,   602.71  C  3426.09    601.31   3423.85    601.29   3422.45    602.65  " /><path style="stroke-width:0.85 ;&st7;   " d=" M  3422.45,   602.65  C  3422.43    602.67   3422.42    602.69   3422.40    602.71  " /><path style="stroke-width:1.42 ;&st7;  " d=" M  3433.42,   622.18  L  3433.42,   588.19  L  3416.43,   588.19  L  3416.43,   622.18  L  3433.42,   622.18  " /><text style="&st18;" transform="matrix(&st16;  3418.74  584.5 )">2</text><text style="&st18;" transform="matrix(&st16;  3418.74  630.37 )">1</text><g ewd:figtype="title"><text style="&st18;" transform="matrix(&st17;  3441.32  625.08 )">C64</text><text style="&st18;" transform="matrix(&st17;  3448.14  625.09 )" ewd:textID="34">Injector <tspan x="0 " dy="6.0">Assembly No. 6</tspan></text></g></g><g ewd:figtype="conn" ewd:figID="55" ewd:code="C57"><path style="stroke-width:0.85 ;&st7;  " d=" M  3501.41,   613.68  L  3501.41,   622.18  " /><path style="stroke-width:0.85 ;&st7;  " d=" M  3501.41,   588.19  L  3501.41,   596.69  " /><path style="stroke-width:0.85 ;&st7;   " d=" M  3498.89,   602.71  C  3500.25    604.10   3502.50    604.13   3503.89    602.76  " /><path style="stroke-width:0.85 ;&st7;   " d=" M  3503.89,   602.76  C  3505.29    601.39   3505.31    599.15   3503.94    597.75  " /><path style="stroke-width:0.85 ;&st7;   " d=" M  3503.94,   597.75  C  3503.25    597.04   3502.41    596.68   3501.41    596.68  " /><path style="stroke-width:0.85 ;&st7;   " d=" M  3501.41,   613.68  C  3503.37    613.68   3504.96    612.10   3504.96    610.14  " /><path style="stroke-width:0.85 ;&st7;   " d=" M  3504.96,   610.14  C  3504.96    608.19   3503.37    606.60   3501.41    606.60  " /><path style="stroke-width:0.85 ;&st7;   " d=" M  3501.41,   606.60  C  3500.42    606.60   3499.58    606.96   3498.89    607.66  " /><path style="stroke-width:0.85 ;&st7;   " d=" M  3498.89,   607.66  C  3500.25    609.06   3502.50    609.08   3503.89    607.71  " /><path style="stroke-width:0.85 ;&st7;   " d=" M  3503.89,   607.71  C  3505.29    606.34   3505.31    604.10   3503.94    602.71  " /><path style="stroke-width:0.85 ;&st7;   " d=" M  3503.94,   602.71  C  3502.58    601.31   3500.33    601.29   3498.94    602.65  " /><path style="stroke-width:0.85 ;&st7;   " d=" M  3498.94,   602.65  C  3498.92    602.67   3498.90    602.69   3498.89    602.71  " /><path style="stroke-width:1.42 ;&st7;  " d=" M  3509.91,   622.18  L  3509.91,   588.19  L  3492.91,   588.19  L  3492.91,   622.18  L  3509.91,   622.18  " /><text style="&st18;" transform="matrix(&st16;  3495.23  630.37 )">1</text><text style="&st18;" transform="matrix(&st16;  3495.23  584.5 )">2</text><g ewd:figtype="title"><text style="&st18;" transform="matrix(&st17;  3524.63  625.09 )" ewd:textID="35">Injector <tspan x="0 " dy="6.0">Assembly No. 7</tspan></text><text style="&st18;" transform="matrix(&st17;  3517.81  625.08 )">C57</text></g></g><g ewd:figtype="conn" ewd:figID="58" ewd:code="I12"><path style="stroke-width:1.42 ;&st7;  " d=" M  3416.43,   129.26  L  3484.42,   129.26  L  3484.42,    95.27  L  3416.43,    95.27  L  3416.43,   129.26  " /><g ewd:lineID="168"><text style="&st18;" transform="matrix(&st16;  3427.24  137.46 )">6</text><text style="&st18;" transform="matrix(&st16;  3427.01  125.57 )">ACT</text></g><g ewd:lineID="170"><text style="&st18;" transform="matrix(&st16;  3461.24  137.46 )">1</text><text style="&st18;" transform="matrix(&st16;  3461.39  125.57 )">AC1</text></g><g ewd:figtype="title"><text style="&st18;" transform="matrix(&st16;  3413.02  78.8 )">I12</text><text style="&st18;" transform="matrix(&st16;  3413.02  85.62 )" ewd:textID="10">Cooler Stabilizer <tspan x="0 " dy="6.0">Amplifier Assembly</tspan></text></g></g><g ewd:figtype="conn" ewd:figID="68" ewd:code="A29,C39"><g ewd:lineID="140"><text style="&st18;" transform="matrix(&st16;  3175.17  262.68 )">53</text><path style="stroke-width:1.42 ;&st7;   " d=" M  3191.50,   260.71  C  3191.50    258.21   3189.47    256.18   3186.97    256.18  " /><path style="stroke-width:1.42 ;&st7;   " d=" M  3186.97,   256.18  C  3184.46    256.18   3182.43    258.21   3182.43    260.71  " /><path style="stroke-width:1.42 ;&st7;   " d=" M  3182.43,   260.71  C  3182.43    263.21   3184.46    265.24   3186.97    265.24  " /><path style="stroke-width:1.42 ;&st7;   " d=" M  3186.97,   265.24  C  3189.47    265.24   3191.50    263.21   3191.50    260.71  " /><text style="&st18;" transform="matrix(&st16;  3184.66  262.68 )">A</text><text style="&st18;" transform="matrix(&st16;  3180.86  272.88 )">VPA</text></g><g ewd:lineID="143"><text style="&st18;" transform="matrix(&st16;  3209.17  262.68 )">54</text><text style="&st18;" transform="matrix(&st16;  3218.66  262.68 )">A</text><path style="stroke-width:1.42 ;&st7;   " d=" M  3225.49,   260.71  C  3225.49    258.21   3223.47    256.18   3220.96    256.18  " /><path style="stroke-width:1.42 ;&st7;   " d=" M  3220.96,   256.18  C  3218.46    256.18   3216.43    258.21   3216.43    260.71  " /><path style="stroke-width:1.42 ;&st7;   " d=" M  3216.43,   260.71  C  3216.43    263.21   3218.46    265.24   3220.96    265.24  " /><path style="stroke-width:1.42 ;&st7;   " d=" M  3220.96,   265.24  C  3223.47    265.24   3225.49    263.21   3225.49    260.71  " /><text style="&st18;" transform="matrix(&st16;  3213.31  272.88 )">VPA2</text></g><g ewd:lineID="148"><text style="&st18;" transform="matrix(&st16;  3243.16  262.68 )">55</text><text style="&st18;" transform="matrix(&st16;  3252.65  262.68 )">A</text><path style="stroke-width:1.42 ;&st7;   " d=" M  3259.49,   260.71  C  3259.49    258.21   3257.46    256.18   3254.96    256.18  " /><path style="stroke-width:1.42 ;&st7;   " d=" M  3254.96,   256.18  C  3252.45    256.18   3250.42    258.21   3250.42    260.71  " /><path style="stroke-width:1.42 ;&st7;   " d=" M  3250.42,   260.71  C  3250.42    263.21   3252.45    265.24   3254.96    265.24  " /><path style="stroke-width:1.42 ;&st7;   " d=" M  3254.96,   265.24  C  3257.46    265.24   3259.49    263.21   3259.49    260.71  " /><text style="&st18;" transform="matrix(&st16;  3246.68  272.88 )">VCPA</text></g><g ewd:lineID="150"><text style="&st18;" transform="matrix(&st16;  3251.66  322.73 )">40</text><path style="stroke-width:1.42 ;&st7;   " d=" M  3267.99,   320.77  C  3267.99    318.26   3265.96    316.23   3263.45    316.23  " /><path style="stroke-width:1.42 ;&st7;   " d=" M  3263.45,   316.23  C  3260.95    316.23   3258.92    318.26   3258.92    320.77  " /><path style="stroke-width:1.42 ;&st7;   " d=" M  3258.92,   320.77  C  3258.92    323.27   3260.95    325.30   3263.45    325.30  " /><path style="stroke-width:1.42 ;&st7;   " d=" M  3263.45,   325.30  C  3265.96    325.30   3267.99    323.27   3267.99    320.77  " /><text style="&st18;" transform="matrix(&st16;  3261.27  322.73 )">B</text><text style="&st18;" transform="matrix(&st16;  3260.1  312.54 )">#1</text></g><g ewd:lineID="152"><text style="&st18;" transform="matrix(&st16;  3277.15  322.73 )">37</text><text style="&st18;" transform="matrix(&st16;  3286.76  322.73 )">B</text><path style="stroke-width:1.42 ;&st7;   " d=" M  3293.48,   320.77  C  3293.48    318.26   3291.45    316.23   3288.95    316.23  " /><path style="stroke-width:1.42 ;&st7;   " d=" M  3288.95,   316.23  C  3286.45    316.23   3284.42    318.26   3284.42    320.77  " /><path style="stroke-width:1.42 ;&st7;   " d=" M  3284.42,   320.77  C  3284.42    323.27   3286.45    325.30   3288.95    325.30  " /><path style="stroke-width:1.42 ;&st7;   " d=" M  3288.95,   325.30  C  3291.45    325.30   3293.48    323.27   3293.48    320.77  " /><text style="&st18;" transform="matrix(&st16;  3285.6  312.54 )">#4</text></g><g ewd:lineID="153"><text style="&st18;" transform="matrix(&st16;  3277.15  262.68 )">56</text><text style="&st18;" transform="matrix(&st16;  3286.65  262.68 )">A</text><path style="stroke-width:1.42 ;&st7;   " d=" M  3293.48,   260.71  C  3293.48    258.21   3291.45    256.18   3288.95    256.18  " /><path style="stroke-width:1.42 ;&st7;   " d=" M  3288.95,   256.18  C  3286.45    256.18   3284.42    258.21   3284.42    260.71  " /><path style="stroke-width:1.42 ;&st7;   " d=" M  3284.42,   260.71  C  3284.42    263.21   3286.45    265.24   3288.95    265.24  " /><path style="stroke-width:1.42 ;&st7;   " d=" M  3288.95,   265.24  C  3291.45    265.24   3293.48    263.21   3293.48    260.71  " /><text style="&st18;" transform="matrix(&st16;  3281.18  272.88 )">VCP2</text></g><g ewd:lineID="155"><text style="&st18;" transform="matrix(&st16;  3302.65  322.73 )">35</text><text style="&st18;" transform="matrix(&st16;  3312.26  322.73 )">B</text><path style="stroke-width:1.42 ;&st7;   " d=" M  3318.98,   320.77  C  3318.98    318.26   3316.95    316.23   3314.45    316.23  " /><path style="stroke-width:1.42 ;&st7;   " d=" M  3314.45,   316.23  C  3311.94    316.23   3309.91    318.26   3309.91    320.77  " /><path style="stroke-width:1.42 ;&st7;   " d=" M  3309.91,   320.77  C  3309.91    323.27   3311.94    325.30   3314.45    325.30  " /><path style="stroke-width:1.42 ;&st7;   " d=" M  3314.45,   325.30  C  3316.95    325.30   3318.98    323.27   3318.98    320.77  " /><text style="&st18;" transform="matrix(&st16;  3311.09  312.54 )">#6</text></g><g ewd:lineID="156"><text style="&st18;" transform="matrix(&st16;  3311.15  262.68 )">57</text><path style="stroke-width:1.42 ;&st7;   " d=" M  3327.48,   260.71  C  3327.48    258.21   3325.45    256.18   3322.94    256.18  " /><path style="stroke-width:1.42 ;&st7;   " d=" M  3322.94,   256.18  C  3320.44    256.18   3318.41    258.21   3318.41    260.71  " /><path style="stroke-width:1.42 ;&st7;   " d=" M  3318.41,   260.71  C  3318.41    263.21   3320.44    265.24   3322.94    265.24  " /><path style="stroke-width:1.42 ;&st7;   " d=" M  3322.94,   265.24  C  3325.45    265.24   3327.48    263.21   3327.48    260.71  " /><text style="&st18;" transform="matrix(&st16;  3320.64  262.68 )">A</text><text style="&st18;" transform="matrix(&st16;  3317.03  272.88 )">EPA</text></g><g ewd:lineID="158"><text style="&st18;" transform="matrix(&st16;  3328.15  322.73 )">34</text><path style="stroke-width:1.42 ;&st7;   " d=" M  3344.47,   320.77  C  3344.47    318.26   3342.45    316.23   3339.94    316.23  " /><path style="stroke-width:1.42 ;&st7;   " d=" M  3339.94,   316.23  C  3337.44    316.23   3335.41    318.26   3335.41    320.77  " /><path style="stroke-width:1.42 ;&st7;   " d=" M  3335.41,   320.77  C  3335.41    323.27   3337.44    325.30   3339.94    325.30  " /><path style="stroke-width:1.42 ;&st7;   " d=" M  3339.94,   325.30  C  3342.45    325.30   3344.47    323.27   3344.47    320.77  " /><text style="&st18;" transform="matrix(&st16;  3337.75  322.73 )">B</text><text style="&st18;" transform="matrix(&st16;  3336.59  312.54 )">#7</text></g><g ewd:lineID="161"><text style="&st18;" transform="matrix(&st16;  3345.14  262.68 )">58</text><text style="&st18;" transform="matrix(&st16;  3354.63  262.68 )">A</text><path style="stroke-width:1.42 ;&st7;   " d=" M  3361.47,   260.71  C  3361.47    258.21   3359.44    256.18   3356.94    256.18  " /><path style="stroke-width:1.42 ;&st7;   " d=" M  3356.94,   256.18  C  3354.44    256.18   3352.41    258.21   3352.41    260.71  " /><path style="stroke-width:1.42 ;&st7;   " d=" M  3352.41,   260.71  C  3352.41    263.21   3354.44    265.24   3356.94    265.24  " /><path style="stroke-width:1.42 ;&st7;   " d=" M  3356.94,   265.24  C  3359.44    265.24   3361.47    263.21   3361.47    260.71  " /><text style="&st18;" transform="matrix(&st16;  3349.48  272.88 )">EPA2</text></g><g ewd:lineID="163"><text style="&st18;" transform="matrix(&st16;  3353.64  322.73 )">61</text><text style="&st18;" transform="matrix(&st16;  3363.25  322.73 )">B</text><path style="stroke-width:1.42 ;&st7;   " d=" M  3369.97,   320.77  C  3369.97    318.26   3367.94    316.23   3365.44    316.23  " /><path style="stroke-width:1.42 ;&st7;   " d=" M  3365.44,   316.23  C  3362.93    316.23   3360.91    318.26   3360.91    320.77  " /><path style="stroke-width:1.42 ;&st7;   " d=" M  3360.91,   320.77  C  3360.91    323.27   3362.93    325.30   3365.44    325.30  " /><path style="stroke-width:1.42 ;&st7;   " d=" M  3365.44,   325.30  C  3367.94    325.30   3369.97    323.27   3369.97    320.77  " /><text style="&st18;" transform="matrix(&st16;  3359.18  312.54 )">INJF</text></g><g ewd:lineID="167"><text style="&st18;" transform="matrix(&st16;  3421.63  262.68 )">18</text><text style="&st18;" transform="matrix(&st16;  3431.12  262.68 )">A</text><path style="stroke-width:1.42 ;&st7;   " d=" M  3437.96,   260.71  C  3437.96    258.21   3435.93    256.18   3433.43    256.18  " /><path style="stroke-width:1.42 ;&st7;   " d=" M  3433.43,   256.18  C  3430.92    256.18   3428.89    258.21   3428.89    260.71  " /><path style="stroke-width:1.42 ;&st7;   " d=" M  3428.89,   260.71  C  3428.89    263.21   3430.92    265.24   3433.43    265.24  " /><path style="stroke-width:1.42 ;&st7;   " d=" M  3433.43,   265.24  C  3435.93    265.24   3437.96    263.21   3437.96    260.71  " /><text style="&st18;" transform="matrix(&st16;  3427.01  272.88 )">ACT</text></g><g ewd:lineID="169"><text style="&st18;" transform="matrix(&st16;  3455.62  262.68 )">30</text><text style="&st18;" transform="matrix(&st16;  3465.12  262.68 )">A</text><path style="stroke-width:1.42 ;&st7;   " d=" M  3471.95,   260.71  C  3471.95    258.21   3469.92    256.18   3467.42    256.18  " /><path style="stroke-width:1.42 ;&st7;   " d=" M  3467.42,   256.18  C  3464.92    256.18   3462.89    258.21   3462.89    260.71  " /><path style="stroke-width:1.42 ;&st7;   " d=" M  3462.89,   260.71  C  3462.89    263.21   3464.92    265.24   3467.42    265.24  " /><path style="stroke-width:1.42 ;&st7;   " d=" M  3467.42,   265.24  C  3469.92    265.24   3471.95    263.21   3471.95    260.71  " /><text style="&st18;" transform="matrix(&st16;  3461.39  272.88 )">AC1</text></g></g><g ewd:figtype="w2w" ewd:figID="114" ewd:code="AC11"><path style="stroke-width:1.42 ;&st7;  " d=" M  3157.22,   375.16  L  3161.47,   379.41  L  3165.72,   375.16  " /><path style="stroke-width:1.42 ;&st7;  " d=" M  3165.72,   378.56  L  3161.47,   382.80  L  3157.22,   378.56  " /><text style="&st18;" transform="matrix(&st16;  3148.84  390.44 )">6</text></g><g ewd:figtype="w2w" ewd:figID="115" ewd:code="AI3"><path style="stroke-width:1.42 ;&st7;  " d=" M  3191.22,   191.59  L  3186.97,   195.84  L  3182.72,   191.59  " /><path style="stroke-width:1.42 ;&st7;  " d=" M  3182.72,   188.19  L  3186.97,   192.44  L  3191.22,   188.19  " /><text style="&st18;" transform="matrix(&st16;  3171.23  203.47 )">21</text></g><g ewd:figtype="w2w" ewd:figID="116" ewd:code="AI3"><path style="stroke-width:1.42 ;&st7;  " d=" M  3225.21,   191.59  L  3220.96,   195.84  L  3216.71,   191.59  " /><path style="stroke-width:1.42 ;&st7;  " d=" M  3216.71,   188.19  L  3220.96,   192.44  L  3225.21,   188.19  " /><text style="&st18;" transform="matrix(&st16;  3205.23  203.47 )">37</text></g><g ewd:figtype="w2w" ewd:figID="117" ewd:code="AI3"><path style="stroke-width:1.42 ;&st7;  " d=" M  3259.20,   191.59  L  3254.95,   195.84  L  3250.71,   191.59  " /><path style="stroke-width:1.42 ;&st7;  " d=" M  3250.71,   188.19  L  3254.95,   192.44  L  3259.20,   188.19  " /><text style="&st18;" transform="matrix(&st16;  3239.22  203.47 )">35</text></g><g ewd:figtype="w2w" ewd:figID="118" ewd:code="AI3"><path style="stroke-width:1.42 ;&st7;  " d=" M  3293.20,   191.59  L  3288.95,   195.84  L  3284.70,   191.59  " /><path style="stroke-width:1.42 ;&st7;  " d=" M  3284.70,   188.19  L  3288.95,   192.44  L  3293.20,   188.19  " /><text style="&st18;" transform="matrix(&st16;  3273.22  203.47 )">51</text></g><g ewd:figtype="w2w" ewd:figID="119" ewd:code="AI3"><path style="stroke-width:1.42 ;&st7;  " d=" M  3327.19,   191.59  L  3322.94,   195.84  L  3318.69,   191.59  " /><path style="stroke-width:1.42 ;&st7;  " d=" M  3318.69,   188.19  L  3322.94,   192.44  L  3327.19,   188.19  " /><text style="&st18;" transform="matrix(&st16;  3307.21  203.47 )">36</text></g><g ewd:figtype="w2w" ewd:figID="120" ewd:code="AI3"><path style="stroke-width:1.42 ;&st7;  " d=" M  3361.19,   191.59  L  3356.94,   195.84  L  3352.69,   191.59  " /><path style="stroke-width:1.42 ;&st7;  " d=" M  3352.69,   188.19  L  3356.94,   192.44  L  3361.19,   188.19  " /><text style="&st18;" transform="matrix(&st16;  3341.21  203.47 )">49</text></g><g ewd:figtype="w2w" ewd:figID="121" ewd:code="AI3"><text style="&st18;" transform="matrix(&st16;  3420.79  203.47 )">8</text><path style="stroke-width:1.42 ;&st7;  " d=" M  3437.67,   191.59  L  3433.42,   195.84  L  3429.18,   191.59  " /><path style="stroke-width:1.42 ;&st7;  " d=" M  3429.18,   188.19  L  3433.42,   192.44  L  3437.67,   188.19  " /></g><g ewd:figtype="w2w" ewd:figID="122" ewd:code="AI3"><text style="&st18;" transform="matrix(&st16;  3451.69  203.47 )">60</text><path style="stroke-width:1.42 ;&st7;  " d=" M  3471.67,   191.59  L  3467.42,   195.84  L  3463.17,   191.59  " /><path style="stroke-width:1.42 ;&st7;  " d=" M  3463.17,   188.19  L  3467.42,   192.44  L  3471.67,   188.19  " /></g><g ewd:figtype="gp" ewd:figID="153" ewd:code="CD"><path style="stroke-width:0.85 ;&st7;  " d=" M  3050.99,   701.50  L  3067.99,   701.50  " /><path style="stroke-width:0.85 ;&st7;  " d=" M  3058.07,   710.00  L  3060.90,   710.00  " /><path style="stroke-width:0.85 ;&st7;  " d=" M  3056.65,   707.17  L  3062.32,   707.17  " /><path style="stroke-width:0.85 ;&st7;  " d=" M  3055.24,   704.33  L  3063.74,   704.33  " /><path style="stroke-width:0.85 ;&st7;  " d=" M  3059.49,   697.25  L  3059.49,   701.50  " /></g><g ewd:figtype="gp" ewd:figID="154" ewd:code="AA"><path style="stroke-width:0.85 ;&st7;  " d=" M  3202.55,   710.00  L  3205.38,   710.00  " /><path style="stroke-width:0.85 ;&st7;  " d=" M  3201.13,   707.17  L  3206.80,   707.17  " /><path style="stroke-width:0.85 ;&st7;  " d=" M  3199.71,   704.33  L  3208.21,   704.33  " /><path style="stroke-width:0.85 ;&st7;  " d=" M  3203.96,   697.25  L  3203.96,   701.50  " /><path style="stroke-width:0.85 ;&st7;  " d=" M  3195.46,   701.50  L  3212.46,   701.50  " /></g><g ewd:figtype="gp" ewd:figID="155" ewd:code="CD"><path style="stroke-width:0.85 ;&st7;  " d=" M  3229.46,   701.50  L  3246.46,   701.50  " /><path style="stroke-width:0.85 ;&st7;  " d=" M  3236.54,   710.00  L  3239.37,   710.00  " /><path style="stroke-width:0.85 ;&st7;  " d=" M  3235.12,   707.17  L  3240.79,   707.17  " /><path style="stroke-width:0.85 ;&st7;  " d=" M  3233.71,   704.33  L  3242.21,   704.33  " /><path style="stroke-width:0.85 ;&st7;  " d=" M  3237.96,   697.25  L  3237.96,   701.50  " /></g><g ewd:code=" " ewd:figID="216" ewd:comment="1" ewd:figtype="sh"><path style="stroke-width: 0.85 ;&st7; stroke-dasharray:3, 1.5;" d=" M  3314.44,   528.70  L  3254.95,   528.70  L  3254.95,   562.69  L  3314.44,   562.69  L  3314.44,   528.70  " /><path style="stroke-width:0.85 ;&st7;  " d=" M  3313.25,   527.69  L  3312.98,   528.16  L  3312.89,   528.70  L  3312.98,   529.23  L  3313.25,   529.70  L  3313.67,   530.05  L  3314.18,   530.23  L  3314.71,   530.23  L  3315.22,   530.05  L  3315.64,   529.70  L  3315.91,   529.23  L  3316.00,   528.70  L  3315.91,   528.16  L  3315.64,   527.69  L  3315.22,   527.35  L  3314.71,   527.16  L  3314.18,   527.16  L  3313.67,   527.35  L  3313.25,   527.69  L  3313.65,   528.41  L  3313.65,   528.99  L  3314.02,   529.43  L  3314.59,   529.53  L  3315.10,   529.24  L  3315.29,   528.70  L  3315.10,   528.15  L  3314.59,   527.86  L  3314.02,   527.96  L  3314.44,   528.70  " /><g ewd:code="" ewd:figID="233" ewd:comment="1" ewd:figtype="commref"><text style="&st18;" transform="matrix(&st17;  3251.26  550.41 )">(*1)</text></g></g><g ewd:code=" " ewd:figID="214" ewd:comment="1" ewd:figtype="sh"><path style="stroke-width: 0.85 ;&st7; stroke-dasharray:3, 1.5;" d=" M  3390.93,   528.70  L  3331.44,   528.70  L  3331.44,   562.69  L  3390.93,   562.69  L  3390.93,   528.70  " /><path style="stroke-width:0.85 ;&st7;  " d=" M  3389.74,   527.69  L  3389.47,   528.16  L  3389.37,   528.70  L  3389.47,   529.23  L  3389.74,   529.70  L  3390.15,   530.05  L  3390.66,   530.23  L  3391.20,   530.23  L  3391.71,   530.05  L  3392.12,   529.70  L  3392.40,   529.23  L  3392.49,   528.70  L  3392.40,   528.16  L  3392.12,   527.69  L  3391.71,   527.35  L  3391.20,   527.16  L  3390.66,   527.16  L  3390.15,   527.35  L  3389.74,   527.69  L  3390.13,   528.41  L  3390.13,   528.99  L  3390.51,   529.43  L  3391.08,   529.53  L  3391.58,   529.24  L  3391.78,   528.70  L  3391.58,   528.15  L  3391.08,   527.86  L  3390.51,   527.96  L  3390.93,   528.70  " /><g ewd:code="" ewd:figID="232" ewd:comment="1" ewd:figtype="commref"><text style="&st18;" transform="matrix(&st17;  3327.75  550.41 )">(*1)</text></g></g><g ewd:code=" " ewd:figID="213" ewd:comment="1" ewd:figtype="sh"><path style="stroke-width: 0.85 ;&st7; stroke-dasharray:3, 1.5;" d=" M  3467.42,   528.70  L  3407.93,   528.70  L  3407.93,   562.69  L  3467.42,   562.69  L  3467.42,   528.70  " /><path style="stroke-width:0.85 ;&st7;  " d=" M  3466.23,   527.69  L  3465.95,   528.16  L  3465.86,   528.70  L  3465.95,   529.23  L  3466.23,   529.70  L  3466.64,   530.05  L  3467.15,   530.23  L  3467.69,   530.23  L  3468.20,   530.05  L  3468.61,   529.70  L  3468.88,   529.23  L  3468.98,   528.70  L  3468.88,   528.16  L  3468.61,   527.69  L  3468.20,   527.35  L  3467.69,   527.16  L  3467.15,   527.16  L  3466.64,   527.35  L  3466.23,   527.69  L  3466.62,   528.41  L  3466.62,   528.99  L  3466.99,   529.43  L  3467.57,   529.53  L  3468.07,   529.24  L  3468.27,   528.70  L  3468.07,   528.15  L  3467.57,   527.86  L  3466.99,   527.96  L  3467.42,   528.70  " /><g ewd:code="" ewd:figID="231" ewd:comment="1" ewd:figtype="commref"><text style="&st18;" transform="matrix(&st17;  3404.24  550.41 )">(*1)</text></g></g><g ewd:code=" " ewd:figID="215" ewd:comment="1" ewd:figtype="sh"><path style="stroke-width: 0.85 ;&st7; stroke-dasharray:3, 1.5;" d=" M  3543.91,   528.70  L  3484.42,   528.70  L  3484.42,   562.69  L  3543.91,   562.69  L  3543.91,   528.70  " /><path style="stroke-width:0.85 ;&st7;  " d=" M  3542.71,   527.69  L  3542.44,   528.16  L  3542.35,   528.70  L  3542.44,   529.23  L  3542.71,   529.70  L  3543.13,   530.05  L  3543.64,   530.23  L  3544.18,   530.23  L  3544.69,   530.05  L  3545.10,   529.70  L  3545.37,   529.23  L  3545.46,   528.70  L  3545.37,   528.16  L  3545.10,   527.69  L  3544.69,   527.35  L  3544.18,   527.16  L  3543.64,   527.16  L  3543.13,   527.35  L  3542.71,   527.69  L  3543.11,   528.41  L  3543.11,   528.99  L  3543.48,   529.43  L  3544.05,   529.53  L  3544.56,   529.24  L  3544.76,   528.70  L  3544.56,   528.15  L  3544.05,   527.86  L  3543.48,   527.96  L  3543.91,   528.70  " /><g ewd:code="" ewd:figID="230" ewd:comment="1" ewd:figtype="commref"><text style="&st18;" transform="matrix(&st17;  3480.72  550.41 )">(*1)</text></g></g><g ewd:code=" " ewd:figID="222" ewd:comment="1" ewd:figtype="sh"><path style="stroke-width: 0.85 ;&st7; stroke-dasharray:3, 1.5;" d=" M  3203.96,   452.21  L  3203.96,   426.71  L  3135.97,   426.71  L  3135.97,   460.71  L  3195.46,   460.71  " /><g ewd:code="" ewd:figID="234" ewd:comment="1" ewd:figtype="commref"><text style="&st18;" transform="matrix(&st17;  3132.28  448.42 )">(*1)</text></g></g></svg>