<?xml version="1.0" encoding="utf-8"?>
<!DOCTYPE svg PUBLIC "-//W3C//DTD SVG 1.0//EN" "http://www.w3.org/TR/2001/REC-SVG-20010904/DTD/svg10.dtd"[
	<!ENTITY ns_flows "http://ns.adobe.com/Flows/1.0/">
	<!ENTITY ns_svg "http://www.w3.org/2000/svg">
	<!ENTITY ns_xlink "http://www.w3.org/1999/xlink">
	<!ENTITY st0 "font-size:7px;font-family:'MS-PGothic';adobe-font-script:japanese;">
	<!ENTITY st1 "font-size:6px;font-family:'ArialMT';">
	<!-- White fill  -->
	<!ENTITY st2 "fill:#FFFFFF;stroke:#000000; stroke-width:1.41;stroke-linecap:round;stroke-linejoin:round;">
	<!-- Yellow fill  -->
	<!ENTITY st3 "fill:#FFFFCC;stroke:#FFFFCC; stroke-width:0.1;stroke-linecap:round;stroke-linejoin:round;">
	<!-- Gray fill  -->
	<!ENTITY st4 "fill:#CCCCCC;stroke:#CCCCCC; stroke-width:0.1;stroke-linecap:round;stroke-linejoin:round;">
	<!-- Light-blue fill -->
	<!ENTITY st5 "fill:#CCECF4;stroke:#000000; stroke-width:1.133;stroke-linecap:round;stroke-linejoin:round;">
	<!ENTITY st6 "fill:none;stroke-linecap:butt; stroke-linejoin:round;">
	<!ENTITY st7 "fill:none;stroke:#000000;stroke-linecap:round;stroke-linejoin:round;">
	<!ENTITY st8 "enable-background:new    ;">
	<!-- Black fill -->
	<!ENTITY st9 "fill:#000000;stroke:#000000; stroke-linecap:round;stroke-linejoin:round;">
	<!-- SRS note   -->
	<!ENTITY st10 "font-size:9px;font-family:'ArialMT';">
	<!ENTITY st11 "font-size:9px;font-family:'Svg Symbol';">
	<!ENTITY st12 "font-size:6px;font-family:'Svg Symbol';">
	<!ENTITY st13 "fill:none;stroke:#ff0000;stroke-linecap:round;stroke-linejoin:round;">
	<!-- Yellow fill  -->
	<!ENTITY st14 "fill:#FFFF00;stroke:#FFFF00; stroke-width:0.1;stroke-linecap:round;stroke-linejoin:round;">
	<!ENTITY st15 "font-size:6px;font-family:'MS-PGothic';adobe-font-script:japanese;">
	<!ENTITY st16 "1.00 0.00 0.00 1.00">
	<!ENTITY st17 "0.00 -1.00 1.00 0.00">
	<!ENTITY st18 "font-size:6px;font-family:'Arial';">
	<!ENTITY st19 "font-size:9px;font-family:'Arial';">
	<!ENTITY st20 "font-size:6px;font-family:'MS-PGothic','MS PGothic';adobe-font-script:japanese;">
	<!ENTITY st21 "font-size:7px;font-family:'MS-PGothic','MS PGothic';adobe-font-script:japanese;">
	<!ATTLIST svg
		xmlns:ewd CDATA #FIXED "http://shcl.co.jp/ewd"
		xmlns:a CDATA #FIXED "http://ns.adobe.com/AdobeSVGViewerExtensions/3.0/"
		ewd:ver CDATA #IMPLIED
	>
	<!ATTLIST a
		ewd:lineID CDATA #IMPLIED
		ewd:groupID CDATA #IMPLIED
		ewd:figtype CDATA #IMPLIED
		ewd:code CDATA #IMPLIED
		ewd:figID CDATA #IMPLIED
		ewd:pinNo CDATA #IMPLIED
		ewd:comment CDATA #IMPLIED >
	<!ATTLIST g
		ewd:lineID CDATA #IMPLIED
		ewd:groupID CDATA #IMPLIED
		ewd:figtype CDATA #IMPLIED
		ewd:code CDATA #IMPLIED
		ewd:figID CDATA #IMPLIED
		ewd:pinNo CDATA #IMPLIED
		ewd:comment CDATA #IMPLIED >
	<!ATTLIST text
		ewd:textID CDATA #IMPLIED >
	<!ATTLIST title
		ewd:textID CDATA #IMPLIED >
]>
<!-- Generator: Shintec Hozumi YS   -->
<svg onload="call_execInitLoadProc_svg('system')" style="overflow:visible;  enable-background:new 0 0 5661.925 710.000" viewBox="0 0 5661.925 710.000" height="710.000" width="5661.925" xml:space="preserve" ewd:ver="2.1.2.9" xmlns="&ns_svg;" xmlns:a="http://ns.adobe.com/AdobeSVGViewerExtensions/3.0/" xmlns:ewd="http://shcl.co.jp/ewd" xmlns:xlink="&ns_xlink;">
<path style="stroke-width:1.42 ;&st7;  " d=" M  5362.60,   146.26  L  5371.10,   146.26  " /><path style="stroke-width:1.42 ;&st7;  " d=" M  5422.09,   503.20  L  5430.59,   503.20  " /><text style="&st18;" transform="matrix(&st17;  5256.93  432.59 )">R-W</text><text style="&st18;" transform="matrix(&st17;  5333.41  432.59 )">R-W</text><text style="&st18;" transform="matrix(&st17;  5367.41  117.45 )">B-Y</text><text style="&st18;" transform="matrix(&st17;  5367.41  202.43 )">B-Y</text><path style="stroke-width:1.42 ;&st7;  " d=" M  5031.16,   384.22  L  5039.66,   384.22  " /><text style="&st18;" transform="matrix(&st17;  5035.96  419.9 )">B</text><text style="&st18;" transform="matrix(&st17;  5035.96  360.41 )">B</text><text style="&st18;" transform="matrix(&st17;  5035.96  224.44 )">B</text><text style="&st18;" transform="matrix(&st17;  5086.95  283.93 )">B</text><text style="&st18;" transform="matrix(&st17;  5137.94  283.93 )">B</text><path style="stroke-width:1.42 ;&st7;  " d=" M  5422.09,   452.21  L  5430.59,   452.21  " /><text style="&st18;" transform="matrix(&st17;  5426.9  432.09 )">G-R</text><text style="&st18;" transform="matrix(&st17;  5426.9  483.08 )">G-R</text><text style="&st18;" transform="matrix(&st17;  5426.9  542.57 )">G-R</text><text style="&st18;" transform="matrix(&st16;  5203.25  660.98 )">R-W</text><text style="&st18;" transform="matrix(&st16;  5152.26  660.98 )">R-W</text><text style="&st18;" transform="matrix(&st16;  5152.26  677.97 )">R-W</text><text style="&st18;" transform="matrix(&st16;  5203.25  677.97 )">R-W</text><text style="&st18;" transform="matrix(&st16;  5156.18  643.98 )">G</text><text style="&st18;" transform="matrix(&st16;  5207.17  643.98 )">G</text><g ewd:figtype="rb" ewd:figID="41" ewd:code="FUSE16"><path style="stroke-width:0.85 ;&st7;  " d=" M  5507.08,    78.27  L  5507.08,    95.27  " /><path style="stroke-width:1.42 ;&st7;  " d=" M  5509.20,   103.77  L  5504.96,   103.77  " /><path style="stroke-width:1.42 ;&st7;  " d=" M  5509.20,    95.27  L  5504.96,    95.27  " /><path style="stroke-width:1.42 ;&st7;   " d=" M  5513.45,    99.52  C  5513.45     97.17   5511.55     95.27   5509.20     95.27  " /><path style="stroke-width:1.42 ;&st7;   " d=" M  5509.20,   103.77  C  5511.55    103.77   5513.45    101.87   5513.45     99.52  " /><path style="stroke-width:1.42 ;&st7;   " d=" M  5500.71,    99.52  C  5500.71    101.87   5502.61    103.77   5504.96    103.77  " /><path style="stroke-width:1.42 ;&st7;   " d=" M  5504.96,    95.27  C  5502.61     95.27   5500.71     97.17   5500.71     99.52  " /><path style="stroke-width:0.28 ;&st9;  " d=" M  5507.08,    90.37  L  5504.24,    87.54  L  5504.24,    91.79  L  5507.08,    94.62  L  5509.91,    91.79  L  5509.91,    87.54  L  5507.08,    90.37  " /><text style="&st18;" transform="matrix(&st16;  5501.87  32.08 )">(IG)</text><text style="&st18;" transform="matrix(&st16;  5500.9  86.47 )">2</text><text style="&st18;" transform="matrix(&st16;  5505.28  101.49 )">2</text><text style="&st18;" transform="matrix(&st16;  5523.5  56.17 )">10A <tspan x="0 " dy="6.0">MET</tspan></text><path style="stroke-width:0.85 ;&st7;  " d=" M  5507.08,    69.77  L  5507.08,    78.27  " /><path style="stroke-width:0.85 ;&st7;   " d=" M  5508.50,    68.36  C  5508.50     67.57   5507.86     66.94   5507.08     66.94  " /><path style="stroke-width:0.85 ;&st7;   " d=" M  5507.08,    66.94  C  5506.30     66.94   5505.66     67.57   5505.66     68.36  " /><path style="stroke-width:0.85 ;&st7;   " d=" M  5505.66,    68.36  C  5505.66     69.14   5506.30     69.77   5507.08     69.77  " /><path style="stroke-width:0.85 ;&st7;   " d=" M  5507.08,    69.77  C  5507.86     69.77   5508.50     69.14   5508.50     68.36  " /><path style="stroke-width:0.85 ;&st7;   " d=" M  5508.50,    45.69  C  5508.50     44.91   5507.86     44.28   5507.08     44.28  " /><path style="stroke-width:0.85 ;&st7;   " d=" M  5507.08,    44.28  C  5506.30     44.28   5505.66     44.91   5505.66     45.69  " /><path style="stroke-width:0.85 ;&st7;   " d=" M  5505.66,    45.69  C  5505.66     46.48   5506.30     47.11   5507.08     47.11  " /><path style="stroke-width:0.85 ;&st7;   " d=" M  5507.08,    47.11  C  5507.86     47.11   5508.50     46.48   5508.50     45.69  " /><path style="stroke-width:1.42 ;&st7;   " d=" M  5507.08,    66.94  C  5509.82     65.33   5510.73     61.80   5509.12     59.06  " /><path style="stroke-width:1.42 ;&st7;   " d=" M  5509.12,    59.06  C  5508.60     58.18   5507.96     57.55   5507.08     57.03  " /><path style="stroke-width:1.42 ;&st7;   " d=" M  5507.08,    47.11  C  5504.34     48.72   5503.43     52.25   5505.04     54.99  " /><path style="stroke-width:1.42 ;&st7;   " d=" M  5505.04,    54.99  C  5505.56     55.87   5506.20     56.51   5507.08     57.03  " /><path style="stroke-width:1.42 ;&st7;  " d=" M  5494.33,    35.78  L  5494.33,    78.27  L  5519.83,    78.27  L  5519.83,    35.78  L  5494.33,    35.78  " /></g><g ewd:figtype="conn" ewd:figID="53" ewd:code="I106"><path style="stroke-width:0.85 ;&st7;  " d=" M  5430.59,   137.76  L  5430.59,   154.76  " /><path style="stroke-width:1.42 ;&st7;  " d=" M  5422.09,   137.76  L  5439.09,   137.76  L  5439.09,   154.76  L  5422.09,   154.76  L  5422.09,   137.76  " /><text style="&st18;" transform="matrix(&st16;  5421.9  135.2 )">2</text><path style="stroke-width:1.42 ;&st7;   " d=" M  5435.13,   133.23  C  5435.13    130.73   5433.10    128.70   5430.59    128.70  " /><path style="stroke-width:1.42 ;&st7;   " d=" M  5430.59,   128.70  C  5428.09    128.70   5426.06    130.73   5426.06    133.23  " /><path style="stroke-width:1.42 ;&st7;   " d=" M  5426.06,   133.23  C  5426.06    135.73   5428.09    137.76   5430.59    137.76  " /><path style="stroke-width:1.42 ;&st7;   " d=" M  5430.59,   137.76  C  5433.10    137.76   5435.13    135.73   5435.13    133.23  " /><text style="&st18;" transform="matrix(&st16;  5428.4  135.2 )">B</text><text style="&st18;" transform="matrix(&st16;  5421.9  161.26 )">1</text><path style="stroke-width:1.42 ;&st7;   " d=" M  5435.13,   159.29  C  5435.13    156.79   5433.10    154.76   5430.59    154.76  " /><path style="stroke-width:1.42 ;&st7;   " d=" M  5430.59,   154.76  C  5428.09    154.76   5426.06    156.79   5426.06    159.29  " /><path style="stroke-width:1.42 ;&st7;   " d=" M  5426.06,   159.29  C  5426.06    161.80   5428.09    163.82   5430.59    163.82  " /><path style="stroke-width:1.42 ;&st7;   " d=" M  5430.59,   163.82  C  5433.10    163.82   5435.13    161.80   5435.13    159.29  " /><text style="&st18;" transform="matrix(&st16;  5428.4  161.26 )">B</text><g ewd:figtype="title"><text style="&st18;" transform="matrix(&st17;  5412.45  157.67 )" ewd:textID="47">No. 9 Junction <tspan x="0 " dy="6.0">Connector</tspan></text><text style="&st18;" transform="matrix(&st17;  5405.63  157.66 )">I106(B)</text></g></g><g ewd:figtype="conn" ewd:figID="60" ewd:code="I17"><g ewd:lineID="238"><text style="&st18;" transform="matrix(&st16;  5033.47  137.46 )">9</text><text style="&st18;" transform="matrix(&st16;  5033.24  125.57 )">TAC</text></g></g><g ewd:figtype="conn" ewd:figID="62" ewd:code="I59"><path style="stroke-width:1.42 ;&st7;  " d=" M  5031.16,   324.73  L  5150.14,   324.73  L  5150.14,   307.73  L  5031.16,   307.73  L  5031.16,   324.73  " /><path style="stroke-width:0.85 ;&st7;  " d=" M  5039.66,   307.73  L  5039.66,   324.73  " /><path style="stroke-width:0.85 ;&st7;  " d=" M  5039.66,   316.23  L  5141.64,   316.23  L  5141.64,   307.73  " /><path style="stroke-width:0.85 ;&st7;  " d=" M  5090.65,   316.23  L  5090.65,   307.73  " /><path style="stroke-width:0.85 ;&st7;  " d=" M  5038.46,   315.23  L  5038.19,   315.70  L  5038.10,   316.23  L  5038.19,   316.77  L  5038.46,   317.24  L  5038.88,   317.58  L  5039.39,   317.77  L  5039.92,   317.77  L  5040.43,   317.58  L  5040.85,   317.24  L  5041.12,   316.77  L  5041.21,   316.23  L  5041.12,   315.70  L  5040.85,   315.23  L  5040.43,   314.88  L  5039.92,   314.70  L  5039.39,   314.70  L  5038.88,   314.88  L  5038.46,   315.23  L  5038.86,   315.94  L  5038.86,   316.52  L  5039.23,   316.97  L  5039.80,   317.07  L  5040.31,   316.78  L  5040.51,   316.23  L  5040.31,   315.69  L  5039.80,   315.40  L  5039.23,   315.50  L  5039.66,   316.23  " /><path style="stroke-width:0.85 ;&st7;  " d=" M  5089.45,   315.23  L  5089.18,   315.70  L  5089.09,   316.23  L  5089.18,   316.77  L  5089.45,   317.24  L  5089.87,   317.58  L  5090.38,   317.77  L  5090.92,   317.77  L  5091.43,   317.58  L  5091.84,   317.24  L  5092.11,   316.77  L  5092.21,   316.23  L  5092.11,   315.70  L  5091.84,   315.23  L  5091.43,   314.88  L  5090.92,   314.70  L  5090.38,   314.70  L  5089.87,   314.88  L  5089.45,   315.23  L  5089.85,   315.94  L  5089.85,   316.52  L  5090.22,   316.97  L  5090.79,   317.07  L  5091.30,   316.78  L  5091.50,   316.23  L  5091.30,   315.69  L  5090.79,   315.40  L  5090.22,   315.50  L  5090.65,   316.23  " /><text style="&st18;" transform="matrix(&st16;  5030.96  331.23 )">5</text><path style="stroke-width:1.42 ;&st7;   " d=" M  5044.19,   329.26  C  5044.19    326.76   5042.16    324.73   5039.66    324.73  " /><path style="stroke-width:1.42 ;&st7;   " d=" M  5039.66,   324.73  C  5037.15    324.73   5035.13    326.76   5035.13    329.26  " /><path style="stroke-width:1.42 ;&st7;   " d=" M  5035.13,   329.26  C  5035.13    331.77   5037.15    333.80   5039.66    333.80  " /><path style="stroke-width:1.42 ;&st7;   " d=" M  5039.66,   333.80  C  5042.16    333.80   5044.19    331.77   5044.19    329.26  " /><text style="&st18;" transform="matrix(&st16;  5037.47  331.23 )">B</text><text style="&st18;" transform="matrix(&st16;  5030.96  305.17 )">6</text><path style="stroke-width:1.42 ;&st7;   " d=" M  5044.19,   303.20  C  5044.19    300.70   5042.16    298.67   5039.66    298.67  " /><path style="stroke-width:1.42 ;&st7;   " d=" M  5039.66,   298.67  C  5037.15    298.67   5035.13    300.70   5035.13    303.20  " /><path style="stroke-width:1.42 ;&st7;   " d=" M  5035.13,   303.20  C  5035.13    305.70   5037.15    307.73   5039.66    307.73  " /><path style="stroke-width:1.42 ;&st7;   " d=" M  5039.66,   307.73  C  5042.16    307.73   5044.19    305.70   5044.19    303.20  " /><text style="&st18;" transform="matrix(&st16;  5037.47  305.17 )">B</text><text style="&st18;" transform="matrix(&st16;  5081.96  305.17 )">7</text><text style="&st18;" transform="matrix(&st16;  5088.46  305.17 )">B</text><path style="stroke-width:1.42 ;&st7;   " d=" M  5095.18,   303.20  C  5095.18    300.70   5093.15    298.67   5090.65    298.67  " /><path style="stroke-width:1.42 ;&st7;   " d=" M  5090.65,   298.67  C  5088.15    298.67   5086.12    300.70   5086.12    303.20  " /><path style="stroke-width:1.42 ;&st7;   " d=" M  5086.12,   303.20  C  5086.12    305.70   5088.15    307.73   5090.65    307.73  " /><path style="stroke-width:1.42 ;&st7;   " d=" M  5090.65,   307.73  C  5093.15    307.73   5095.18    305.70   5095.18    303.20  " /><text style="&st18;" transform="matrix(&st16;  5132.95  305.17 )">4</text><path style="stroke-width:1.42 ;&st7;   " d=" M  5146.17,   303.20  C  5146.17    300.70   5144.14    298.67   5141.64    298.67  " /><path style="stroke-width:1.42 ;&st7;   " d=" M  5141.64,   298.67  C  5139.14    298.67   5137.11    300.70   5137.11    303.20  " /><path style="stroke-width:1.42 ;&st7;   " d=" M  5137.11,   303.20  C  5137.11    305.70   5139.14    307.73   5141.64    307.73  " /><path style="stroke-width:1.42 ;&st7;   " d=" M  5141.64,   307.73  C  5144.14    307.73   5146.17    305.70   5146.17    303.20  " /><text style="&st18;" transform="matrix(&st16;  5139.45  305.17 )">B</text><g ewd:figtype="title"><text style="&st18;" transform="matrix(&st16;  5061.75  339.45 )" ewd:textID="48">No. 10 Junction <tspan x="0 " dy="6.0">Connector</tspan></text><text style="&st18;" transform="matrix(&st16;  5061.74  332.62 )">I59(B)</text></g></g><g ewd:figtype="conn" ewd:figID="74" ewd:code="A20"><path style="stroke-width:1.42 ;&st7;  " d=" M  5413.59,   579.69  L  5413.59,   613.68  L  5447.59,   613.68  L  5447.59,   579.69  L  5413.59,   579.69  " /><text style="&st18;" transform="matrix(&st16;  5421.31  576.0 )">22</text><text style="&st18;" transform="matrix(&st16;  5425.5  587.32 )">SP1</text><g ewd:figtype="title"><text style="&st18;" transform="matrix(&st17;  5409.9  616.59 )" ewd:textID="5">Brake Actuator Assembly</text><text style="&st18;" transform="matrix(&st17;  5403.08  616.58 )">A20</text></g></g><g ewd:figtype="conn" ewd:figID="77" ewd:code="L25"><path style="stroke-width:0.85 ;&st7;  " d=" M  5341.36,   324.73  L  5332.86,   324.73  " /><path style="stroke-width:0.85 ;&st7;  " d=" M  5344.49,   322.78  L  5351.84,   318.54  " /><path style="stroke-width:0.85 ;&st7;  " d=" M  5621.81,   265.24  L  5613.31,   265.24  " /><path style="stroke-width:0.85 ;&st7;  " d=" M  5375.35,   265.24  L  5366.85,   265.24  " /><path style="stroke-width:0.85 ;&st7;  " d=" M  5268.00,   322.78  L  5275.36,   318.54  " /><path style="stroke-width:0.85 ;&st7;  " d=" M  5264.87,   324.73  L  5256.37,   324.73  " /><path style="stroke-width:0.85 ;&st7;  " d=" M  5396.60,   277.99  L  5396.60,   286.49  " /><path style="stroke-width:0.85 ;&st7;  " d=" M  5273.35,   315.07  L  5265.99,   319.32  " /><path style="stroke-width:0.85 ;&st7;  " d=" M  5264.87,   384.22  L  5256.37,   384.22  " /><path style="stroke-width:0.85 ;&st7;  " d=" M  5341.36,   384.22  L  5332.86,   384.22  " /><path style="stroke-width:0.85 ;&st7;  " d=" M  5349.84,   315.07  L  5342.48,   319.32  " /><path style="stroke-width:0.85 ;&st7;  " d=" M  5259.43,   298.23  L  5259.15,   298.70  L  5259.06,   299.24  L  5259.15,   299.77  L  5259.43,   300.24  L  5259.84,   300.58  L  5260.35,   300.77  L  5260.89,   300.77  L  5261.40,   300.58  L  5261.81,   300.24  L  5262.08,   299.77  L  5262.18,   299.24  L  5262.08,   298.70  L  5261.81,   298.23  L  5261.40,   297.89  L  5260.89,   297.70  L  5260.35,   297.70  L  5259.84,   297.89  L  5259.43,   298.23  L  5259.82,   298.94  L  5259.82,   299.53  L  5260.19,   299.97  L  5260.77,   300.07  L  5261.27,   299.78  L  5261.47,   299.24  L  5261.27,   298.69  L  5260.77,   298.40  L  5260.19,   298.50  L  5260.62,   299.24  " /><path style="stroke-width:0.85 ;&st7;  " d=" M  5260.62,   341.73  L  5311.61,   341.73  " /><path style="stroke-width:0.85 ;&st7;  " d=" M  5260.62,   299.24  L  5311.61,   299.24  " /><path style="stroke-width:0.85 ;&st7;  " d=" M  5311.61,   341.73  L  5311.61,   333.23  L  5308.78,   331.81  L  5314.44,   328.98  L  5308.78,   326.15  L  5314.44,   323.31  L  5308.78,   320.48  L  5314.44,   317.65  L  5311.61,   316.23  L  5311.61,   299.24  " /><path style="stroke-width:0.85 ;&st7;  " d=" M  5369.91,   281.24  L  5369.64,   281.71  L  5369.54,   282.24  L  5369.64,   282.77  L  5369.91,   283.24  L  5370.32,   283.59  L  5370.83,   283.77  L  5371.37,   283.77  L  5371.88,   283.59  L  5372.29,   283.24  L  5372.56,   282.77  L  5372.66,   282.24  L  5372.56,   281.71  L  5372.29,   281.24  L  5371.88,   280.89  L  5371.37,   280.70  L  5370.83,   280.70  L  5370.32,   280.89  L  5369.91,   281.24  L  5370.30,   281.95  L  5370.30,   282.53  L  5370.68,   282.97  L  5371.25,   283.07  L  5371.75,   282.79  L  5371.95,   282.24  L  5371.75,   281.69  L  5371.25,   281.40  L  5370.68,   281.50  L  5371.10,   282.24  " /><path style="stroke-width:0.85 ;&st7;  " d=" M  5371.10,   239.75  L  5371.10,   282.24  " /><path style="stroke-width:0.28 ;&st9;  " d=" M  5371.10,   265.24  L  5365.43,   256.74  L  5376.77,   256.74  L  5371.10,   265.24  " /><path style="stroke-width:0.85 ;&st7;  " d=" M  5275.36,   318.54  L  5273.02,   321.58  L  5271.55,   319.04  L  5275.36,   318.54  L  5274.07,   319.28  L  5273.09,   320.56  L  5272.47,   319.49  L  5274.07,   319.28  L  5273.43,   319.65  L  5273.12,   320.05  L  5272.92,   319.71  L  5273.43,   319.65  " /><path style="stroke-width:1.42 ;&st7;  " d=" M  5226.62,   239.75  L  5226.62,   401.22  L  5634.56,   401.22  L  5634.56,   239.75  L  5226.62,   239.75  " /><path style="stroke-width:1.42 ;&st7;  " d=" M  5388.10,   299.24  L  5388.10,   316.23  L  5473.08,   316.23  L  5473.08,   299.24  L  5388.10,   299.24  " /><path style="stroke-width:0.28 ;&st9;  " d=" M  5396.60,   282.24  L  5388.10,   287.90  L  5388.10,   276.57  L  5396.60,   282.24  " /><path style="stroke-width:0.85 ;&st7;  " d=" M  5430.59,   299.24  L  5430.59,   282.24  L  5617.56,   282.24  L  5617.56,   239.75  " /><path style="stroke-width:0.85 ;&st7;  " d=" M  5429.40,   281.24  L  5429.13,   281.71  L  5429.03,   282.24  L  5429.13,   282.77  L  5429.40,   283.24  L  5429.81,   283.59  L  5430.32,   283.77  L  5430.86,   283.77  L  5431.37,   283.59  L  5431.78,   283.24  L  5432.05,   282.77  L  5432.15,   282.24  L  5432.05,   281.71  L  5431.78,   281.24  L  5431.37,   280.89  L  5430.86,   280.70  L  5430.32,   280.70  L  5429.81,   280.89  L  5429.40,   281.24  L  5429.79,   281.95  L  5429.79,   282.53  L  5430.17,   282.97  L  5430.74,   283.07  L  5431.24,   282.79  L  5431.44,   282.24  L  5431.24,   281.69  L  5430.74,   281.40  L  5430.17,   281.50  L  5430.59,   282.24  " /><path style="stroke-width:0.28 ;&st9;  " d=" M  5617.56,   265.24  L  5611.89,   256.74  L  5623.22,   256.74  L  5617.56,   265.24  " /><path style="stroke-width:0.85 ;&st7;  " d=" M  5273.35,   315.07  L  5271.02,   318.11  L  5269.55,   315.57  L  5273.35,   315.07  L  5272.07,   315.81  L  5271.08,   317.09  L  5270.47,   316.02  L  5272.07,   315.81  L  5271.43,   316.18  L  5271.12,   316.58  L  5270.92,   316.24  L  5271.43,   316.18  " /><path style="stroke-width:0.85 ;&st7;  " d=" M  5260.62,   401.22  L  5260.62,   367.22  L  5257.79,   365.81  L  5263.45,   362.97  L  5257.79,   360.14  L  5263.45,   357.31  L  5257.79,   354.48  L  5263.45,   351.64  L  5260.62,   350.23  L  5260.62,   282.24  L  5430.59,   282.24  " /><path style="stroke-width:0.28 ;&st9;  " d=" M  5260.62,   384.22  L  5254.95,   375.72  L  5266.28,   375.72  L  5260.62,   384.22  " /><path style="stroke-width:0.28 ;&st9;  " d=" M  5260.62,   324.73  L  5254.95,   316.23  L  5266.28,   316.23  L  5260.62,   324.73  " /><path style="stroke-width:0.28 ;&st9;  " d=" M  5337.11,   324.73  L  5331.44,   316.23  L  5342.77,   316.23  L  5337.11,   324.73  " /><path style="stroke-width:0.28 ;&st9;  " d=" M  5337.11,   384.22  L  5331.44,   375.72  L  5342.77,   375.72  L  5337.11,   384.22  " /><path style="stroke-width:0.85 ;&st7;  " d=" M  5349.84,   315.07  L  5347.51,   318.11  L  5346.04,   315.57  L  5349.84,   315.07  L  5348.56,   315.81  L  5347.57,   317.09  L  5346.95,   316.02  L  5348.56,   315.81  L  5347.92,   316.18  L  5347.60,   316.58  L  5347.41,   316.24  L  5347.92,   316.18  " /><path style="stroke-width:0.85 ;&st7;  " d=" M  5351.84,   318.54  L  5349.51,   321.58  L  5348.04,   319.04  L  5351.84,   318.54  L  5350.56,   319.28  L  5349.58,   320.56  L  5348.96,   319.49  L  5350.56,   319.28  L  5349.92,   319.65  L  5349.61,   320.05  L  5349.41,   319.71  L  5349.92,   319.65  " /><path style="stroke-width:0.85 ;&st7;  " d=" M  5362.60,   341.73  L  5362.60,   333.23  L  5359.77,   331.81  L  5365.43,   328.98  L  5359.77,   326.15  L  5365.43,   323.31  L  5359.77,   320.48  L  5365.43,   317.65  L  5362.60,   316.23  L  5362.60,   299.24  " /><path style="stroke-width:0.85 ;&st7;  " d=" M  5337.11,   299.24  L  5362.60,   299.24  " /><path style="stroke-width:0.85 ;&st7;  " d=" M  5337.11,   341.73  L  5362.60,   341.73  " /><path style="stroke-width:0.85 ;&st7;  " d=" M  5335.91,   298.23  L  5335.64,   298.70  L  5335.55,   299.24  L  5335.64,   299.77  L  5335.91,   300.24  L  5336.33,   300.58  L  5336.84,   300.77  L  5337.38,   300.77  L  5337.89,   300.58  L  5338.30,   300.24  L  5338.57,   299.77  L  5338.66,   299.24  L  5338.57,   298.70  L  5338.30,   298.23  L  5337.89,   297.89  L  5337.38,   297.70  L  5336.84,   297.70  L  5336.33,   297.89  L  5335.91,   298.23  L  5336.31,   298.94  L  5336.31,   299.53  L  5336.68,   299.97  L  5337.25,   300.07  L  5337.76,   299.78  L  5337.96,   299.24  L  5337.76,   298.69  L  5337.25,   298.40  L  5336.68,   298.50  L  5337.11,   299.24  " /><path style="stroke-width:0.85 ;&st7;  " d=" M  5335.91,   340.73  L  5335.64,   341.20  L  5335.55,   341.73  L  5335.64,   342.26  L  5335.91,   342.73  L  5336.33,   343.08  L  5336.84,   343.26  L  5337.38,   343.26  L  5337.89,   343.08  L  5338.30,   342.73  L  5338.57,   342.26  L  5338.66,   341.73  L  5338.57,   341.20  L  5338.30,   340.73  L  5337.89,   340.38  L  5337.38,   340.19  L  5336.84,   340.19  L  5336.33,   340.38  L  5335.91,   340.73  L  5336.31,   341.44  L  5336.31,   342.02  L  5336.68,   342.46  L  5337.25,   342.56  L  5337.76,   342.28  L  5337.96,   341.73  L  5337.76,   341.18  L  5337.25,   340.89  L  5336.68,   340.99  L  5337.11,   341.73  " /><path style="stroke-width:0.85 ;&st7;  " d=" M  5335.91,   281.24  L  5335.64,   281.71  L  5335.55,   282.24  L  5335.64,   282.77  L  5335.91,   283.24  L  5336.33,   283.59  L  5336.84,   283.77  L  5337.38,   283.77  L  5337.89,   283.59  L  5338.30,   283.24  L  5338.57,   282.77  L  5338.66,   282.24  L  5338.57,   281.71  L  5338.30,   281.24  L  5337.89,   280.89  L  5337.38,   280.70  L  5336.84,   280.70  L  5336.33,   280.89  L  5335.91,   281.24  L  5336.31,   281.95  L  5336.31,   282.53  L  5336.68,   282.97  L  5337.25,   283.07  L  5337.76,   282.79  L  5337.96,   282.24  L  5337.76,   281.69  L  5337.25,   281.40  L  5336.68,   281.50  L  5337.11,   282.24  " /><path style="stroke-width:0.85 ;&st7;  " d=" M  5337.11,   401.22  L  5337.11,   367.22  L  5334.27,   365.81  L  5339.94,   362.97  L  5334.27,   360.14  L  5339.94,   357.31  L  5334.27,   354.48  L  5339.94,   351.64  L  5337.11,   350.23  L  5337.11,   282.24  " /><path style="stroke-width:0.85 ;&st7;  " d=" M  5259.43,   340.73  L  5259.15,   341.20  L  5259.06,   341.73  L  5259.15,   342.26  L  5259.43,   342.73  L  5259.84,   343.08  L  5260.35,   343.26  L  5260.89,   343.26  L  5261.40,   343.08  L  5261.81,   342.73  L  5262.08,   342.26  L  5262.18,   341.73  L  5262.08,   341.20  L  5261.81,   340.73  L  5261.40,   340.38  L  5260.89,   340.19  L  5260.35,   340.19  L  5259.84,   340.38  L  5259.43,   340.73  L  5259.82,   341.44  L  5259.82,   342.02  L  5260.19,   342.46  L  5260.77,   342.56  L  5261.27,   342.28  L  5261.47,   341.73  L  5261.27,   341.18  L  5260.77,   340.89  L  5260.19,   340.99  L  5260.62,   341.73  " /><text style="&st18;" transform="matrix(&st16;  5620.14  247.94 )">B</text><text style="&st18;" transform="matrix(&st17;  5329.45  326.59 )" ewd:textID="25">Glow</text><text style="&st18;" transform="matrix(&st16;  5339.69  397.53 )">GLW-</text><text style="&st18;" transform="matrix(&st16;  5613.9  397.52 )">ES</text><text style="&st18;" transform="matrix(&st16;  5373.69  247.94 )">B</text><text style="&st18;" transform="matrix(&st16;  5263.2  397.53 )">CHK</text><text style="&st18;" transform="matrix(&st16;  5424.29  309.7 )">CPU</text><text style="&st18;" transform="matrix(&st17;  5246.74  328.88 )" ewd:textID="7">Check <tspan x="0 " dy="6.0">Engine</tspan></text><path style="stroke-width:1.42 ;&st7;  " d=" M  5515.58,   333.23  L  5515.58,   350.23  " /><path style="stroke-width:1.42 ;&st7;  " d=" M  5456.09,   341.73  L  5456.09,   358.73  " /><path style="stroke-width:0.85 ;&st7;  " d=" M  5464.59,   358.73  L  5456.09,   353.06  " /><path style="stroke-width:0.85 ;&st7;  " d=" M  5524.08,   350.23  L  5515.58,   344.56  " /><path style="stroke-width:0.85 ;&st7;  " d=" M  5430.59,   384.22  L  5430.59,   401.22  " /><path style="stroke-width:0.85 ;&st7;  " d=" M  5524.07,   333.23  L  5558.07,   333.23  L  5558.07,   350.23  " /><path style="stroke-width:0.85 ;&st7;  " d=" M  5515.58,   358.73  L  5511.33,   367.22  " /><path style="stroke-width:0.85 ;&st7;  " d=" M  5558.07,   384.22  L  5558.07,   375.72  L  5555.24,   374.31  L  5560.90,   371.47  L  5555.24,   368.64  L  5560.90,   365.81  L  5555.24,   362.97  L  5560.90,   360.14  L  5558.07,   358.73  L  5558.07,   350.23  " /><path style="stroke-width:0.85 ;&st7;  " d=" M  5532.57,   358.73  L  5528.32,   367.22  " /><path style="stroke-width:0.85 ;&st7;  " d=" M  5524.07,   358.73  L  5519.83,   367.22  " /><path style="stroke-width:0.85 ;&st7;  " d=" M  5464.58,   341.73  L  5515.58,   341.73  " /><path style="stroke-width:0.85 ;&st7;  " d=" M  5524.07,   350.23  L  5521.94,   347.04  L  5520.32,   349.48  L  5524.07,   350.23  L  5522.84,   349.41  L  5521.94,   348.06  L  5521.26,   349.09  L  5522.84,   349.41  L  5522.23,   348.99  L  5521.94,   348.57  L  5521.73,   348.90  L  5522.23,   348.99  " /><path style="stroke-width:0.85 ;&st7;  " d=" M  5524.07,   333.23  L  5515.58,   338.90  " /><path style="stroke-width:0.85 ;&st7;  " d=" M  5515.58,   358.73  L  5532.57,   358.73  " /><path style="stroke-width:0.85 ;&st7;  " d=" M  5464.58,   358.73  L  5464.58,   367.22  " /><path style="stroke-width:0.85 ;&st7;  " d=" M  5456.09,   367.22  L  5473.08,   367.22  " /><path style="stroke-width:0.85 ;&st7;  " d=" M  5464.58,   367.22  L  5460.34,   375.72  " /><path style="stroke-width:0.85 ;&st7;  " d=" M  5473.08,   367.22  L  5468.83,   375.72  " /><path style="stroke-width:0.85 ;&st7;  " d=" M  5456.09,   367.22  L  5451.84,   375.72  " /><path style="stroke-width:0.85 ;&st7;  " d=" M  5524.07,   350.23  L  5524.07,   358.73  " /><path style="stroke-width:0.85 ;&st7;  " d=" M  5429.40,   349.22  L  5429.13,   349.69  L  5429.03,   350.23  L  5429.13,   350.76  L  5429.40,   351.23  L  5429.81,   351.58  L  5430.32,   351.76  L  5430.86,   351.76  L  5431.37,   351.58  L  5431.78,   351.23  L  5432.05,   350.76  L  5432.15,   350.23  L  5432.05,   349.69  L  5431.78,   349.22  L  5431.37,   348.88  L  5430.86,   348.69  L  5430.32,   348.69  L  5429.81,   348.88  L  5429.40,   349.22  L  5429.79,   349.94  L  5429.79,   350.52  L  5430.17,   350.96  L  5430.74,   351.06  L  5431.24,   350.77  L  5431.44,   350.23  L  5431.24,   349.68  L  5430.74,   349.39  L  5430.17,   349.49  L  5430.59,   350.23  " /><path style="stroke-width:0.85 ;&st7;  " d=" M  5490.08,   341.73  L  5490.08,   333.23  " /><path style="stroke-width:0.85 ;&st7;  " d=" M  5430.59,   316.23  L  5430.59,   350.23  " /><path style="stroke-width:0.85 ;&st7;  " d=" M  5485.83,   299.24  L  5494.33,   299.24  " /><path style="stroke-width:0.85 ;&st7;  " d=" M  5558.07,   384.22  L  5558.07,   401.22  " /><path style="stroke-width:0.85 ;&st7;  " d=" M  5488.89,   298.23  L  5488.62,   298.70  L  5488.52,   299.24  L  5488.62,   299.77  L  5488.89,   300.24  L  5489.30,   300.58  L  5489.81,   300.77  L  5490.35,   300.77  L  5490.86,   300.58  L  5491.27,   300.24  L  5491.54,   299.77  L  5491.64,   299.24  L  5491.54,   298.70  L  5491.27,   298.23  L  5490.86,   297.89  L  5490.35,   297.70  L  5489.81,   297.70  L  5489.30,   297.89  L  5488.89,   298.23  L  5489.28,   298.94  L  5489.28,   299.53  L  5489.66,   299.97  L  5490.23,   300.07  L  5490.73,   299.78  L  5490.93,   299.24  L  5490.73,   298.69  L  5490.23,   298.40  L  5489.66,   298.50  L  5490.08,   299.24  " /><path style="stroke-width:0.85 ;&st7;  " d=" M  5488.89,   340.73  L  5488.62,   341.20  L  5488.52,   341.73  L  5488.62,   342.26  L  5488.89,   342.73  L  5489.30,   343.08  L  5489.81,   343.26  L  5490.35,   343.26  L  5490.86,   343.08  L  5491.27,   342.73  L  5491.54,   342.26  L  5491.64,   341.73  L  5491.54,   341.20  L  5491.27,   340.73  L  5490.86,   340.38  L  5490.35,   340.19  L  5489.81,   340.19  L  5489.30,   340.38  L  5488.89,   340.73  L  5489.28,   341.44  L  5489.28,   342.02  L  5489.66,   342.46  L  5490.23,   342.56  L  5490.73,   342.28  L  5490.93,   341.73  L  5490.73,   341.18  L  5490.23,   340.89  L  5489.66,   340.99  L  5490.08,   341.73  " /><path style="stroke-width:0.85 ;&st7;  " d=" M  5430.59,   384.22  L  5430.59,   375.72  L  5427.76,   374.31  L  5433.42,   371.47  L  5427.76,   368.64  L  5433.42,   365.81  L  5427.76,   362.97  L  5433.42,   360.14  L  5430.59,   358.73  L  5430.59,   350.23  " /><path style="stroke-width:0.85 ;&st7;  " d=" M  5430.59,   350.23  L  5456.09,   350.23  " /><path style="stroke-width:0.85 ;&st7;  " d=" M  5464.58,   341.73  L  5456.09,   347.39  " /><path style="stroke-width:0.85 ;&st7;  " d=" M  5464.58,   358.73  L  5462.45,   355.54  L  5460.83,   357.98  L  5464.58,   358.73  L  5463.35,   357.90  L  5462.45,   356.56  L  5461.77,   357.59  L  5463.35,   357.90  L  5462.74,   357.49  L  5462.45,   357.07  L  5462.24,   357.39  L  5462.74,   357.49  " /><text style="&st18;" transform="matrix(&st16;  5560.65  397.53 )">+S</text><text style="&st18;" transform="matrix(&st16;  5433.18  397.53 )">SI</text><path style="stroke-width:0.85 ;&st7;  " d=" M  5490.08,   333.23  L  5490.08,   324.73  L  5487.25,   323.31  L  5492.91,   320.48  L  5487.25,   317.65  L  5492.91,   314.82  L  5487.25,   311.98  L  5492.91,   309.15  L  5490.08,   307.73  L  5490.08,   299.24  " /><path style="stroke-width:0.85 ;&st7;  " d=" M  5286.12,   341.73  L  5286.12,   322.61  " /><path style="stroke-width:0.85 ;&st7;  " d=" M  5286.12,   318.36  L  5286.12,   299.24  " /><path style="stroke-width:1.42 ;&st7;  " d=" M  5290.37,   318.36  L  5281.87,   318.36  " /><path style="stroke-width:1.42 ;&st7;  " d=" M  5290.37,   322.61  L  5281.87,   322.61  " /><path style="stroke-width:0.85 ;&st7;  " d=" M  5284.92,   298.23  L  5284.65,   298.70  L  5284.56,   299.24  L  5284.65,   299.77  L  5284.92,   300.24  L  5285.34,   300.58  L  5285.85,   300.77  L  5286.38,   300.77  L  5286.89,   300.58  L  5287.31,   300.24  L  5287.58,   299.77  L  5287.67,   299.24  L  5287.58,   298.70  L  5287.31,   298.23  L  5286.89,   297.89  L  5286.38,   297.70  L  5285.85,   297.70  L  5285.34,   297.89  L  5284.92,   298.23  L  5285.32,   298.94  L  5285.32,   299.53  L  5285.69,   299.97  L  5286.26,   300.07  L  5286.77,   299.78  L  5286.96,   299.24  L  5286.77,   298.69  L  5286.26,   298.40  L  5285.69,   298.50  L  5286.11,   299.24  " /><path style="stroke-width:0.85 ;&st7;  " d=" M  5284.92,   340.73  L  5284.65,   341.20  L  5284.56,   341.73  L  5284.65,   342.26  L  5284.92,   342.73  L  5285.34,   343.08  L  5285.85,   343.26  L  5286.38,   343.26  L  5286.89,   343.08  L  5287.31,   342.73  L  5287.58,   342.26  L  5287.67,   341.73  L  5287.58,   341.20  L  5287.31,   340.73  L  5286.89,   340.38  L  5286.38,   340.19  L  5285.85,   340.19  L  5285.34,   340.38  L  5284.92,   340.73  L  5285.32,   341.44  L  5285.32,   342.02  L  5285.69,   342.46  L  5286.26,   342.56  L  5286.77,   342.28  L  5286.96,   341.73  L  5286.77,   341.18  L  5286.26,   340.89  L  5285.69,   340.99  L  5286.11,   341.73  " /><text style="&st18;" transform="matrix(&st16;  5325.31  407.72 )">20</text><path style="stroke-width:1.42 ;&st7;   " d=" M  5341.64,   405.75  C  5341.64    403.25   5339.61    401.22   5337.11    401.22  " /><path style="stroke-width:1.42 ;&st7;   " d=" M  5337.11,   401.22  C  5334.61    401.22   5332.58    403.25   5332.58    405.75  " /><path style="stroke-width:1.42 ;&st7;   " d=" M  5332.58,   405.75  C  5332.58    408.25   5334.61    410.28   5337.11    410.28  " /><path style="stroke-width:1.42 ;&st7;   " d=" M  5337.11,   410.28  C  5339.61    410.28   5341.64    408.25   5341.64    405.75  " /><text style="&st18;" transform="matrix(&st16;  5334.8  407.72 )">A</text><text style="&st18;" transform="matrix(&st16;  5248.83  407.72 )">12</text><path style="stroke-width:1.42 ;&st7;   " d=" M  5265.15,   405.75  C  5265.15    403.25   5263.12    401.22   5260.62    401.22  " /><path style="stroke-width:1.42 ;&st7;   " d=" M  5260.62,   401.22  C  5258.12    401.22   5256.09    403.25   5256.09    405.75  " /><path style="stroke-width:1.42 ;&st7;   " d=" M  5256.09,   405.75  C  5256.09    408.25   5258.12    410.28   5260.62    410.28  " /><path style="stroke-width:1.42 ;&st7;   " d=" M  5260.62,   410.28  C  5263.12    410.28   5265.15    408.25   5265.15    405.75  " /><text style="&st18;" transform="matrix(&st16;  5258.32  407.72 )">A</text><text style="&st18;" transform="matrix(&st16;  5359.31  237.18 )">28</text><text style="&st18;" transform="matrix(&st16;  5368.8  237.18 )">A</text><path style="stroke-width:1.42 ;&st7;   " d=" M  5375.64,   235.21  C  5375.64    232.71   5373.61    230.68   5371.10    230.68  " /><path style="stroke-width:1.42 ;&st7;   " d=" M  5371.10,   230.68  C  5368.60    230.68   5366.57    232.71   5366.57    235.21  " /><path style="stroke-width:1.42 ;&st7;   " d=" M  5366.57,   235.21  C  5366.57    237.72   5368.60    239.75   5371.10    239.75  " /><path style="stroke-width:1.42 ;&st7;   " d=" M  5371.10,   239.75  C  5373.61    239.75   5375.64    237.72   5375.64    235.21  " /><text style="&st18;" transform="matrix(&st16;  5421.9  407.72 )">9</text><path style="stroke-width:1.42 ;&st7;   " d=" M  5435.13,   405.75  C  5435.13    403.25   5433.10    401.22   5430.59    401.22  " /><path style="stroke-width:1.42 ;&st7;   " d=" M  5430.59,   401.22  C  5428.09    401.22   5426.06    403.25   5426.06    405.75  " /><path style="stroke-width:1.42 ;&st7;   " d=" M  5426.06,   405.75  C  5426.06    408.25   5428.09    410.28   5430.59    410.28  " /><path style="stroke-width:1.42 ;&st7;   " d=" M  5430.59,   410.28  C  5433.10    410.28   5435.13    408.25   5435.13    405.75  " /><text style="&st18;" transform="matrix(&st16;  5428.29  407.72 )">A</text><text style="&st18;" transform="matrix(&st16;  5549.38  407.72 )">8</text><path style="stroke-width:1.42 ;&st7;   " d=" M  5562.60,   405.75  C  5562.60    403.25   5560.57    401.22   5558.07    401.22  " /><path style="stroke-width:1.42 ;&st7;   " d=" M  5558.07,   401.22  C  5555.57    401.22   5553.54    403.25   5553.54    405.75  " /><path style="stroke-width:1.42 ;&st7;   " d=" M  5553.54,   405.75  C  5553.54    408.25   5555.57    410.28   5558.07    410.28  " /><path style="stroke-width:1.42 ;&st7;   " d=" M  5558.07,   410.28  C  5560.57    410.28   5562.60    408.25   5562.60    405.75  " /><text style="&st18;" transform="matrix(&st16;  5555.77  407.72 )">A</text><text style="&st18;" transform="matrix(&st16;  5605.77  407.72 )">15</text><path style="stroke-width:1.42 ;&st7;   " d=" M  5622.09,   405.75  C  5622.09    403.25   5620.06    401.22   5617.56    401.22  " /><path style="stroke-width:1.42 ;&st7;   " d=" M  5617.56,   401.22  C  5615.06    401.22   5613.03    403.25   5613.03    405.75  " /><path style="stroke-width:1.42 ;&st7;   " d=" M  5613.03,   405.75  C  5613.03    408.25   5615.06    410.28   5617.56    410.28  " /><path style="stroke-width:1.42 ;&st7;   " d=" M  5617.56,   410.28  C  5620.06    410.28   5622.09    408.25   5622.09    405.75  " /><text style="&st18;" transform="matrix(&st16;  5615.26  407.72 )">A</text><text style="&st18;" transform="matrix(&st16;  5605.77  237.18 )">26</text><text style="&st18;" transform="matrix(&st16;  5615.26  237.18 )">A</text><path style="stroke-width:1.42 ;&st7;   " d=" M  5622.09,   235.21  C  5622.09    232.71   5620.06    230.68   5617.56    230.68  " /><path style="stroke-width:1.42 ;&st7;   " d=" M  5617.56,   230.68  C  5615.06    230.68   5613.03    232.71   5613.03    235.21  " /><path style="stroke-width:1.42 ;&st7;   " d=" M  5613.03,   235.21  C  5613.03    237.72   5615.06    239.75   5617.56    239.75  " /><path style="stroke-width:1.42 ;&st7;   " d=" M  5617.56,   239.75  C  5620.06    239.75   5622.09    237.72   5622.09    235.21  " /><g ewd:figtype="title"><text style="&st18;" transform="matrix(&st17;  5649.28  404.12 )" ewd:textID="9">Combination Meter Assembly</text><text style="&st18;" transform="matrix(&st17;  5642.45  404.12 )">L25(A)</text></g></g><g ewd:figtype="w2w" ewd:figID="141" ewd:code="AI3"><path style="stroke-width:1.42 ;&st7;  " d=" M  5035.41,   375.16  L  5039.66,   379.41  L  5043.91,   375.16  " /><path style="stroke-width:1.42 ;&st7;  " d=" M  5043.91,   378.56  L  5039.66,   382.80  L  5035.41,   378.56  " /><text style="&st18;" transform="matrix(&st16;  5023.92  390.44 )">45</text></g><g ewd:figtype="w2w" ewd:figID="142" ewd:code="LI1"><path style="stroke-width:1.42 ;&st7;  " d=" M  5366.85,   137.20  L  5371.10,   141.45  L  5375.35,   137.20  " /><path style="stroke-width:1.42 ;&st7;  " d=" M  5375.35,   140.60  L  5371.10,   144.84  L  5366.85,   140.60  " /><text style="&st18;" transform="matrix(&st16;  5355.37  152.48 )">18</text></g><g ewd:figtype="w2w" ewd:figID="143" ewd:code="AI3"><path style="stroke-width:1.42 ;&st7;  " d=" M  5426.34,   494.14  L  5430.59,   498.39  L  5434.84,   494.14  " /><text style="&st18;" transform="matrix(&st16;  5414.86  509.42 )">30</text><path style="stroke-width:1.42 ;&st7;  " d=" M  5434.84,   497.54  L  5430.59,   501.78  L  5426.34,   497.54  " /></g><g ewd:figtype="w2w" ewd:figID="144" ewd:code="IL6"><path style="stroke-width:1.42 ;&st7;  " d=" M  5426.34,   443.14  L  5430.59,   447.39  L  5434.84,   443.14  " /><path style="stroke-width:1.42 ;&st7;  " d=" M  5434.84,   446.54  L  5430.59,   450.79  L  5426.34,   446.54  " /><text style="&st18;" transform="matrix(&st16;  5414.86  458.43 )">13</text></g><g ewd:figtype="annex" ewd:figID="94" ewd:code=" "><path style="stroke-width:1.42 ;&st7;  " d=" M  5141.64,   248.24  L  5136.58,   259.61  " /><path style="stroke-width:1.42 ;&st7;  " d=" M  5090.65,   248.24  L  5085.59,   259.61  " /><path style="stroke-width:1.42 ;&st7;  " d=" M  5090.65,   248.24  L  5095.71,   259.61  " /><path style="stroke-width:1.42 ;&st7;  " d=" M  5141.64,   248.24  L  5146.70,   259.61  " /><text style="&st18;" transform="matrix(&st17;  5084.14  245.49 )" ewd:textID="10">Cooler <tspan x="0 " dy="6.0">Stabilizer </tspan><tspan x="0 " dy="6.0">Amplifier </tspan><tspan x="0 " dy="6.0">Assembly</tspan></text><text style="&st18;" transform="matrix(&st17;  5137.96  245.49 )" ewd:textID="9">Combination <tspan x="0 " dy="6.0">Meter </tspan><tspan x="0 " dy="6.0">Assembly</tspan></text></g></svg>