<?xml version="1.0" encoding="utf-8"?>
<!DOCTYPE svg PUBLIC "-//W3C//DTD SVG 1.0//EN" "http://www.w3.org/TR/2001/REC-SVG-20010904/DTD/svg10.dtd"[
	<!ENTITY ns_flows "http://ns.adobe.com/Flows/1.0/">
	<!ENTITY ns_svg "http://www.w3.org/2000/svg">
	<!ENTITY ns_xlink "http://www.w3.org/1999/xlink">
	<!ENTITY st0 "font-size:7px;font-family:'MS-PGothic';adobe-font-script:japanese;">
	<!ENTITY st1 "font-size:6px;font-family:'ArialMT';">
	<!-- White fill  -->
	<!ENTITY st2 "fill:#FFFFFF;stroke:#000000; stroke-width:1.41;stroke-linecap:round;stroke-linejoin:round;">
	<!-- Yellow fill  -->
	<!ENTITY st3 "fill:#FFFFCC;stroke:#FFFFCC; stroke-width:0.1;stroke-linecap:round;stroke-linejoin:round;">
	<!-- Gray fill  -->
	<!ENTITY st4 "fill:#CCCCCC;stroke:#CCCCCC; stroke-width:0.1;stroke-linecap:round;stroke-linejoin:round;">
	<!-- Light-blue fill -->
	<!ENTITY st5 "fill:#CCECF4;stroke:#000000; stroke-width:1.133;stroke-linecap:round;stroke-linejoin:round;">
	<!ENTITY st6 "fill:none;stroke-linecap:butt; stroke-linejoin:round;">
	<!ENTITY st7 "fill:none;stroke:#000000;stroke-linecap:round;stroke-linejoin:round;">
	<!ENTITY st8 "enable-background:new    ;">
	<!-- Black fill -->
	<!ENTITY st9 "fill:#000000;stroke:#000000; stroke-linecap:round;stroke-linejoin:round;">
	<!-- SRS note   -->
	<!ENTITY st10 "font-size:9px;font-family:'ArialMT';">
	<!ENTITY st11 "font-size:9px;font-family:'Svg Symbol';">
	<!ENTITY st12 "font-size:6px;font-family:'Svg Symbol';">
	<!ENTITY st13 "fill:none;stroke:#ff0000;stroke-linecap:round;stroke-linejoin:round;">
	<!-- Yellow fill  -->
	<!ENTITY st14 "fill:#FFFF00;stroke:#FFFF00; stroke-width:0.1;stroke-linecap:round;stroke-linejoin:round;">
	<!ENTITY st15 "font-size:6px;font-family:'MS-PGothic';adobe-font-script:japanese;">
	<!ENTITY st16 "1.00 0.00 0.00 1.00">
	<!ENTITY st17 "0.00 -1.00 1.00 0.00">
	<!ENTITY st18 "font-size:6px;font-family:'Arial';">
	<!ENTITY st19 "font-size:9px;font-family:'Arial';">
	<!ENTITY st20 "font-size:6px;font-family:'MS-PGothic','MS PGothic';adobe-font-script:japanese;">
	<!ENTITY st21 "font-size:7px;font-family:'MS-PGothic','MS PGothic';adobe-font-script:japanese;">
	<!ATTLIST svg
		xmlns:ewd CDATA #FIXED "http://shcl.co.jp/ewd"
		xmlns:a CDATA #FIXED "http://ns.adobe.com/AdobeSVGViewerExtensions/3.0/"
		ewd:ver CDATA #IMPLIED
	>
	<!ATTLIST a
		ewd:lineID CDATA #IMPLIED
		ewd:groupID CDATA #IMPLIED
		ewd:figtype CDATA #IMPLIED
		ewd:code CDATA #IMPLIED
		ewd:figID CDATA #IMPLIED
		ewd:pinNo CDATA #IMPLIED
		ewd:comment CDATA #IMPLIED >
	<!ATTLIST g
		ewd:lineID CDATA #IMPLIED
		ewd:groupID CDATA #IMPLIED
		ewd:figtype CDATA #IMPLIED
		ewd:code CDATA #IMPLIED
		ewd:figID CDATA #IMPLIED
		ewd:pinNo CDATA #IMPLIED
		ewd:comment CDATA #IMPLIED >
	<!ATTLIST text
		ewd:textID CDATA #IMPLIED >
	<!ATTLIST title
		ewd:textID CDATA #IMPLIED >
]>
<!-- Generator: Shintec Hozumi YS   -->
<svg onload="call_execInitLoadProc_svg('system')" style="overflow:visible;  enable-background:new 0 0 8273.908 710.000" viewBox="0 0 8273.908 710.000" height="710.000" width="8273.908" xml:space="preserve" ewd:ver="2.1.2.9" xmlns="&ns_svg;" xmlns:a="http://ns.adobe.com/AdobeSVGViewerExtensions/3.0/" xmlns:ewd="http://shcl.co.jp/ewd" xmlns:xlink="&ns_xlink;">
<path style="stroke-width:1.42 ;&st7;  " d=" M   110.48,   324.73  L   101.98,   324.73  " /><path style="stroke-width:1.42 ;&st7;  " d=" M   144.48,   435.21  L   152.97,   435.21  " /><path style="stroke-width:1.42 ;&st7;  " d=" M   161.47,   384.22  L   152.97,   384.22  " /><path style="stroke-width:1.42 ;&st7;  " d=" M   144.48,   248.24  L   152.97,   248.24  " /><path style="stroke-width:1.42 ;&st7;  " d=" M   161.47,   197.25  L   152.97,   197.25  " /><path style="stroke-width:1.42 ;&st7;  " d=" M   161.47,   120.77  L   152.97,   120.77  " /><path style="stroke-width:1.42 ;&st7;  " d=" M   339.94,   520.20  L   348.44,   520.20  " /><path style="stroke-width:1.42 ;&st7;  " d=" M   356.94,   350.23  L   348.44,   350.23  " /><path style="stroke-width:1.42 ;&st7;  " d=" M   280.45,   265.24  L   288.95,   265.24  " /><path style="stroke-width:1.42 ;&st7;  " d=" M   399.43,   273.74  L   390.93,   273.74  " /><path style="stroke-width:1.42 ;&st7;  " d=" M   297.45,   180.26  L   288.95,   180.26  " /><path style="stroke-width:1.42 ;&st7;  " d=" M   399.43,   180.26  L   390.93,   180.26  " /><path style="stroke-width:1.42 ;&st7;  " d=" M   424.93,   163.26  L   433.43,   163.26  " /><path style="stroke-width:1.42 ;&st7;  " d=" M   467.42,   163.26  L   475.92,   163.26  " /><path style="stroke-width:1.42 ;&st7;  " d=" M   110.48,   120.77  L   101.98,   120.77  " /><path style="stroke-width:1.42 ;&st7;  " d=" M   110.48,   567.66  L   105.51,   562.69  " /><path style="stroke-width:1.42 ;&st7;  " d=" M    93.48,   574.72  L    98.45,   579.69  " /><path style="stroke-width:1.42 ;&st7;  " d=" M   105.51,   579.69  L   110.48,   574.72  " /><path style="stroke-width:1.42 ;&st7;  " d=" M    98.45,   562.69  L    93.48,   567.66  " /><path style="stroke-width:1.42 ;&st7;  " d=" M   161.47,   508.17  L   156.50,   503.20  " /><path style="stroke-width:1.42 ;&st7;  " d=" M   144.48,   515.23  L   149.44,   520.20  " /><path style="stroke-width:1.42 ;&st7;  " d=" M   156.50,   520.20  L   161.47,   515.23  " /><path style="stroke-width:1.42 ;&st7;  " d=" M   149.44,   503.20  L   144.48,   508.17  " /><path style="stroke-width:1.42 ;&st7;  " d=" M   297.45,   584.66  L   292.48,   579.69  " /><path style="stroke-width:1.42 ;&st7;  " d=" M   280.45,   591.72  L   285.42,   596.69  " /><path style="stroke-width:1.42 ;&st7;  " d=" M   292.48,   596.69  L   297.45,   591.72  " /><path style="stroke-width:1.42 ;&st7;  " d=" M   285.42,   579.69  L   280.45,   584.66  " /><path style="stroke-width: 0.85 ;&st7; stroke-dasharray:3, 1.5;" d=" M   445.86,   176.01  L   459.23,   176.01  " /><path style="stroke-width: 0.85 ;&st7; stroke-dasharray:3, 1.5;" d=" M   459.23,   167.51  L   445.86,   167.51  " /><text style="&st18;" transform="matrix(&st17;  356.08  562.94 )">(*6,*9)</text><text style="&st18;" transform="matrix(&st17;  98.29  543.15 )">W-B</text><text style="&st18;" transform="matrix(&st17;  109.62  543.46 )">(*10)</text><text style="&st18;" transform="matrix(&st17;  98.29  457.31 )">B-R</text><text style="&st18;" transform="matrix(&st17;  109.62  458.47 )">(*10)</text><text style="&st18;" transform="matrix(&st17;  98.29  363.83 )">B-R</text><text style="&st18;" transform="matrix(&st17;  109.62  364.99 )">(*10)</text><text style="&st18;" transform="matrix(&st17;  98.29  295.84 )">B-R</text><text style="&st18;" transform="matrix(&st17;  109.62  297.0 )">(*10)</text><text style="&st18;" transform="matrix(&st17;  47.3  363.83 )">B-R</text><text style="&st18;" transform="matrix(&st17;  58.63  364.99 )">(*10)</text><text style="&st18;" transform="matrix(&st17;  191.77  636.63 )">W-B</text><text style="&st18;" transform="matrix(&st17;  203.1  638.53 )">(RHD)</text><text style="&st18;" transform="matrix(&st17;  149.28  492.16 )">W-B</text><text style="&st18;" transform="matrix(&st17;  160.61  494.02 )">(LHD)</text><text style="&st18;" transform="matrix(&st17;  191.77  500.66 )">W-B</text><text style="&st18;" transform="matrix(&st17;  203.1  502.56 )">(RHD)</text><text style="&st18;" transform="matrix(&st17;  149.28  415.67 )">W-B</text><text style="&st18;" transform="matrix(&st17;  149.28  364.68 )">W-B</text><text style="&st18;" transform="matrix(&st17;  149.28  275.23 )">P</text><text style="&st18;" transform="matrix(&st17;  149.28  224.24 )">P</text><text style="&st18;" transform="matrix(&st17;  149.28  147.76 )">P</text><text style="&st18;" transform="matrix(&st17;  160.61  154.08 )">(LHD)</text><text style="&st18;" transform="matrix(&st17;  217.27  147.76 )">P</text><text style="&st18;" transform="matrix(&st17;  228.6  154.11 )">(RHD)</text><text style="&st18;" transform="matrix(&st17;  149.28  88.27 )">P</text><text style="&st18;" transform="matrix(&st17;  160.61  94.59 )">(LHD)</text><text style="&st18;" transform="matrix(&st17;  98.29  151.36 )">B-R</text><text style="&st18;" transform="matrix(&st17;  109.62  152.53 )">(*10)</text><text style="&st18;" transform="matrix(&st17;  285.26  560.15 )">W-B</text><text style="&st18;" transform="matrix(&st17;  296.59  562.94 )">(*5,*8)</text><text style="&st18;" transform="matrix(&st17;  234.27  560.15 )">W-B</text><text style="&st18;" transform="matrix(&st17;  245.6  558.91 )">(*7)</text><text style="&st18;" transform="matrix(&st17;  344.75  560.15 )">W-B</text><text style="&st18;" transform="matrix(&st17;  344.75  492.16 )">W-B</text><text style="&st18;" transform="matrix(&st17;  356.08  494.95 )">(*6,*9)</text><text style="&st18;" transform="matrix(&st17;  285.26  360.22 )">P</text><text style="&st18;" transform="matrix(&st17;  296.59  363.44 )">(*8)</text><text style="&st18;" transform="matrix(&st17;  234.26  360.22 )">P</text><text style="&st18;" transform="matrix(&st17;  245.6  363.44 )">(*7)</text><text style="&st18;" transform="matrix(&st17;  344.75  385.72 )">P</text><text style="&st18;" transform="matrix(&st17;  356.08  392.97 )">(*6,*9)</text><text style="&st18;" transform="matrix(&st17;  310.75  385.72 )">P</text><text style="&st18;" transform="matrix(&st17;  322.08  388.93 )">(*5)</text><text style="&st18;" transform="matrix(&st17;  387.24  309.23 )">P</text><text style="&st18;" transform="matrix(&st17;  398.57  312.45 )">(*6)</text><text style="&st18;" transform="matrix(&st17;  387.24  224.24 )">P</text><text style="&st18;" transform="matrix(&st17;  398.57  227.46 )">(*6)</text><text style="&st18;" transform="matrix(&st17;  285.26  224.44 )">B</text><text style="&st18;" transform="matrix(&st17;  296.59  227.46 )">(*4)</text><text style="&st18;" transform="matrix(&st16;  363.44  193.56 )">P</text><text style="&st18;" transform="matrix(&st16;  360.23  204.89 )">(*3)</text><text style="&st18;" transform="matrix(&st16;  329.26  227.55 )">B</text><text style="&st18;" transform="matrix(&st16;  326.23  238.88 )">(*5)</text><text style="&st18;" transform="matrix(&st17;  387.24  147.76 )">P</text><text style="&st18;" transform="matrix(&st17;  398.57  155.01 )">(*3,*6)</text><text style="&st18;" transform="matrix(&st17;  285.26  147.95 )">B</text><text style="&st18;" transform="matrix(&st17;  296.59  155.01 )">(*4,*5)</text><text style="&st18;" transform="matrix(&st17;  429.73  224.24 )">P</text><text style="&st18;" transform="matrix(&st17;  441.06  231.49 )">(*3,*6)</text><text style="&st18;" transform="matrix(&st17;  472.23  228.62 )">R-W</text><text style="&st18;" transform="matrix(&st17;  483.56  231.49 )">(*4,*5)</text><text style="&st18;" transform="matrix(&st17;  98.29  91.95 )">B-Y</text><text style="&st18;" transform="matrix(&st17;  109.62  93.04 )">(*10)</text><text style="&st18;" transform="matrix(&st17;  285.26  636.63 )">W-B</text><text style="&st18;" transform="matrix(&st17;  98.29  636.63 )">W-B</text><text style="&st18;" transform="matrix(&st17;  109.62  636.94 )">(*10)</text><text style="&st18;" transform="matrix(&st17;  149.28  543.15 )">W-B</text><text style="&st18;" transform="matrix(&st17;  160.61  545.01 )">(LHD)</text><text style="&st18;" transform="matrix(&st17;  149.28  636.63 )">W-B</text><text style="&st18;" transform="matrix(&st17;  160.61  638.5 )">(LHD)</text><text style="&st18;" transform="matrix(&st16;  320.95  287.04 )">P</text><text style="&st18;" transform="matrix(&st16;  317.73  298.37 )">(*9)</text><text style="&st18;" transform="matrix(&st17;  296.59  635.39 )">(*1)</text><text style="&st18;" transform="matrix(&st16;  486.54  397.52 )">R-W</text><text style="&st18;" transform="matrix(&st16;  480.8  32.08 )">B-R(*10)</text><text style="&st18;" transform="matrix(&st16;  483.67  408.85 )">(*4,*5)</text><text style="&st18;" transform="matrix(&st16;  490.92  440.01 )">P</text><text style="&st18;" transform="matrix(&st16;  483.67  451.35 )">(*3,*6)</text><text style="&st18;" transform="matrix(&st16;  490.92  83.07 )">P</text><text style="&st18;" transform="matrix(&st16;  484.56  94.41 )">(RHD)</text><text style="&st18;" transform="matrix(&st16;  482.86  66.08 )">P(LHD)</text><text style="&st18;" transform="matrix(&st16;  480.73  49.08 )">B-Y(*10)</text><text style="&st18;" transform="matrix(&st17;  234.27  636.63 )">W-B</text><text style="&st18;" transform="matrix(&st17;  245.6  635.39 )">(*2)</text><text style="&st18;" transform="matrix(&st17;  356.08  635.39 )">(*1)</text><text style="&st18;" transform="matrix(&st17;  344.75  636.63 )">W-B</text><g ewd:figtype="conn" ewd:figID="2" ewd:code="T3"><path style="stroke-width:1.42 ;&st7;  " d=" M   233.71,   455.04  L   242.21,   455.04  " /><path style="stroke-width:1.42 ;&st7;  " d=" M   233.71,   451.08  L   233.71,   455.04  " /><path style="stroke-width:1.42 ;&st7;  " d=" M   242.21,   455.04  L   242.21,   451.08  " /><path style="stroke-width:1.42 ;&st7;  " d=" M   233.71,   432.38  L   242.21,   432.38  " /><path style="stroke-width:1.42 ;&st7;  " d=" M   233.71,   436.35  L   233.71,   432.38  " /><path style="stroke-width:1.42 ;&st7;  " d=" M   242.21,   432.38  L   242.21,   436.35  " /><path style="stroke-width:1.42 ;&st7;   " d=" M   229.46,   443.71  C   229.46    448.40    233.27    452.21    237.96    452.21  " /><path style="stroke-width:1.42 ;&st7;   " d=" M   237.96,   452.21  C   242.65    452.21    246.46    448.40    246.46    443.71  " /><path style="stroke-width:1.42 ;&st7;   " d=" M   246.46,   443.71  C   246.46    439.02    242.65    435.21    237.96    435.21  " /><path style="stroke-width:1.42 ;&st7;   " d=" M   237.96,   435.21  C   233.27    435.21    229.46    439.02    229.46    443.71  " /><text style="&st18;" transform="matrix(&st16;  235.23  445.68 )">M</text><text style="&st18;" transform="matrix(&st16;  231.78  463.24 )">2</text><text style="&st18;" transform="matrix(&st16;  231.78  428.69 )">1</text><g ewd:figtype="title"><text style="&st18;" transform="matrix(&st17;  261.18  455.12 )" ewd:textID="41">Fuel Pump</text><text style="&st18;" transform="matrix(&st17;  254.35  455.11 )">T3</text></g></g><g ewd:figtype="conn" ewd:figID="3" ewd:code="T8"><path style="stroke-width:1.42 ;&st7;  " d=" M   284.70,   455.04  L   293.20,   455.04  " /><path style="stroke-width:1.42 ;&st7;  " d=" M   284.70,   451.08  L   284.70,   455.04  " /><path style="stroke-width:1.42 ;&st7;  " d=" M   293.20,   455.04  L   293.20,   451.08  " /><path style="stroke-width:1.42 ;&st7;  " d=" M   284.70,   432.38  L   293.20,   432.38  " /><path style="stroke-width:1.42 ;&st7;  " d=" M   284.70,   436.35  L   284.70,   432.38  " /><path style="stroke-width:1.42 ;&st7;  " d=" M   293.20,   432.38  L   293.20,   436.35  " /><path style="stroke-width:1.42 ;&st7;   " d=" M   280.45,   443.71  C   280.45    448.40    284.26    452.21    288.95    452.21  " /><path style="stroke-width:1.42 ;&st7;   " d=" M   288.95,   452.21  C   293.65    452.21    297.45    448.40    297.45    443.71  " /><path style="stroke-width:1.42 ;&st7;   " d=" M   297.45,   443.71  C   297.45    439.02    293.65    435.21    288.95    435.21  " /><path style="stroke-width:1.42 ;&st7;   " d=" M   288.95,   435.21  C   284.26    435.21    280.45    439.02    280.45    443.71  " /><text style="&st18;" transform="matrix(&st16;  286.22  445.68 )">M</text><text style="&st18;" transform="matrix(&st16;  282.77  463.24 )">6</text><text style="&st18;" transform="matrix(&st16;  282.77  428.69 )">1</text><g ewd:figtype="title"><text style="&st18;" transform="matrix(&st17;  312.17  455.12 )" ewd:textID="42">Fuel Pump <tspan x="0 " dy="6.0">(Sub)</tspan></text><text style="&st18;" transform="matrix(&st17;  305.34  455.11 )">T8</text></g></g><g ewd:figtype="conn" ewd:figID="4" ewd:code="X2"><path style="stroke-width:1.42 ;&st7;  " d=" M   344.19,   455.04  L   352.69,   455.04  " /><path style="stroke-width:1.42 ;&st7;  " d=" M   344.19,   451.08  L   344.19,   455.04  " /><path style="stroke-width:1.42 ;&st7;  " d=" M   352.69,   455.04  L   352.69,   451.08  " /><path style="stroke-width:1.42 ;&st7;  " d=" M   344.19,   432.38  L   352.69,   432.38  " /><path style="stroke-width:1.42 ;&st7;  " d=" M   344.19,   436.35  L   344.19,   432.38  " /><path style="stroke-width:1.42 ;&st7;  " d=" M   352.69,   432.38  L   352.69,   436.35  " /><path style="stroke-width:1.42 ;&st7;   " d=" M   339.94,   443.71  C   339.94    448.40    343.75    452.21    348.44    452.21  " /><path style="stroke-width:1.42 ;&st7;   " d=" M   348.44,   452.21  C   353.14    452.21    356.94    448.40    356.94    443.71  " /><path style="stroke-width:1.42 ;&st7;   " d=" M   356.94,   443.71  C   356.94    439.02    353.14    435.21    348.44    435.21  " /><path style="stroke-width:1.42 ;&st7;   " d=" M   348.44,   435.21  C   343.75    435.21    339.94    439.02    339.94    443.71  " /><text style="&st18;" transform="matrix(&st16;  345.71  445.68 )">M</text><text style="&st18;" transform="matrix(&st16;  342.26  463.24 )">2</text><text style="&st18;" transform="matrix(&st16;  342.26  428.69 )">1</text><g ewd:figtype="title"><text style="&st18;" transform="matrix(&st17;  371.66  455.12 )" ewd:textID="42">Fuel Pump <tspan x="0 " dy="6.0">(Sub)</tspan></text><text style="&st18;" transform="matrix(&st17;  364.83  455.11 )">X2</text></g></g><g ewd:figtype="conn" ewd:figID="9" ewd:code="I58,I70"><path style="stroke-width:1.42 ;&st7;  " d=" M    93.48,   248.24  L   110.48,   248.24  L   110.48,   231.25  L    93.48,   231.25  L    93.48,   248.24  " /><path style="stroke-width:0.85 ;&st7;  " d=" M   101.98,   248.24  L   101.98,   231.25  " /><text style="&st18;" transform="matrix(&st16;  93.29  263.81 )">5</text><text style="&st18;" transform="matrix(&st16;  93.29  254.75 )">2</text><text style="&st18;" transform="matrix(&st16;  99.68  254.75 )">A</text><path style="stroke-width:1.42 ;&st7;   " d=" M   106.52,   252.78  C   106.52    250.27    104.49    248.24    101.98    248.24  " /><path style="stroke-width:1.42 ;&st7;   " d=" M   101.98,   248.24  C    99.48    248.24     97.45    250.27     97.45    252.78  " /><path style="stroke-width:1.42 ;&st7;   " d=" M    97.45,   252.78  C    97.45    255.28     99.48    257.31    101.98    257.31  " /><path style="stroke-width:1.42 ;&st7;   " d=" M   101.98,   257.31  C   104.49    257.31    106.52    255.28    106.52    252.78  " /><path style="stroke-width:1.42 ;&st7;   " d=" M   106.52,   261.84  C   106.52    259.34    104.49    257.31    101.98    257.31  " /><path style="stroke-width:1.42 ;&st7;   " d=" M   101.98,   257.31  C    99.48    257.31     97.45    259.34     97.45    261.84  " /><path style="stroke-width:1.42 ;&st7;   " d=" M    97.45,   261.84  C    97.45    264.34     99.48    266.37    101.98    266.37  " /><path style="stroke-width:1.42 ;&st7;   " d=" M   101.98,   266.37  C   104.49    266.37    106.52    264.34    106.52    261.84  " /><text style="&st18;" transform="matrix(&st16;  99.79  263.81 )">B</text><text style="&st18;" transform="matrix(&st16;  93.29  219.62 )">1</text><text style="&st18;" transform="matrix(&st16;  93.29  228.68 )">4</text><text style="&st18;" transform="matrix(&st16;  99.79  228.68 )">B</text><text style="&st18;" transform="matrix(&st16;  99.68  219.62 )">A</text><path style="stroke-width:1.42 ;&st7;   " d=" M   106.52,   217.65  C   106.52    215.15    104.49    213.12    101.98    213.12  " /><path style="stroke-width:1.42 ;&st7;   " d=" M   101.98,   213.12  C    99.48    213.12     97.45    215.15     97.45    217.65  " /><path style="stroke-width:1.42 ;&st7;   " d=" M    97.45,   217.65  C    97.45    220.15     99.48    222.18    101.98    222.18  " /><path style="stroke-width:1.42 ;&st7;   " d=" M   101.98,   222.18  C   104.49    222.18    106.52    220.15    106.52    217.65  " /><path style="stroke-width:1.42 ;&st7;   " d=" M   106.52,   226.71  C   106.52    224.21    104.49    222.18    101.98    222.18  " /><path style="stroke-width:1.42 ;&st7;   " d=" M   101.98,   222.18  C    99.48    222.18     97.45    224.21     97.45    226.71  " /><path style="stroke-width:1.42 ;&st7;   " d=" M    97.45,   226.71  C    97.45    229.22     99.48    231.25    101.98    231.25  " /><path style="stroke-width:1.42 ;&st7;   " d=" M   101.98,   231.25  C   104.49    231.25    106.52    229.22    106.52    226.71  " /><g ewd:figtype="title"><text style="&st18;" transform="matrix(&st17;  82.96  251.14 )">I58(B)</text><text style="&st18;" transform="matrix(&st17;  89.79  251.15 )" ewd:textID="60">No. 9 Junction Connector</text><text style="&st18;" transform="matrix(&st17;  75.62  251.15 )" ewd:textID="72">No. 19 Junction Connector</text><text style="&st18;" transform="matrix(&st17;  68.8  251.14 )">I70(A)</text></g><g ewd:code="" ewd:figID="293" ewd:comment="" ewd:figtype="commref"><text style="&st18;" transform="matrix(&st16;  107.08  263.81 )">(RHD)</text></g><g ewd:code="" ewd:figID="294" ewd:comment="" ewd:figtype="commref"><text style="&st18;" transform="matrix(&st16;  107.08  254.75 )">(LHD)</text></g><g ewd:code="" ewd:figID="295" ewd:comment="" ewd:figtype="commref"><text style="&st18;" transform="matrix(&st16;  107.08  228.68 )">(RHD)</text></g><g ewd:code="" ewd:figID="296" ewd:comment="" ewd:figtype="commref"><text style="&st18;" transform="matrix(&st16;  107.08  219.62 )">(LHD)</text></g></g><g ewd:figtype="conn" ewd:figID="11" ewd:code="W1"><path style="stroke-width:0.85 ;&st7;  " d=" M   152.97,   299.24  L   152.97,   307.73  " /><path style="stroke-width:0.85 ;&st7;  " d=" M   152.97,   324.73  L   152.97,   333.23  " /><path style="stroke-width:0.85 ;&st7;   " d=" M   150.44,   313.75  C   151.81    315.15    154.06    315.17    155.45    313.80  " /><path style="stroke-width:0.85 ;&st7;   " d=" M   155.45,   313.80  C   156.85    312.44    156.87    310.19    155.50    308.80  " /><path style="stroke-width:0.85 ;&st7;   " d=" M   155.50,   308.80  C   154.81    308.09    153.97    307.73    152.97    307.73  " /><path style="stroke-width:0.85 ;&st7;   " d=" M   150.44,   318.71  C   151.81    320.11    154.06    320.13    155.45    318.76  " /><path style="stroke-width:0.85 ;&st7;   " d=" M   155.45,   318.76  C   156.85    317.39    156.87    315.15    155.50    313.75  " /><path style="stroke-width:0.85 ;&st7;   " d=" M   155.50,   313.75  C   154.14    312.36    151.89    312.33    150.50    313.70  " /><path style="stroke-width:0.85 ;&st7;   " d=" M   150.50,   313.70  C   150.48    313.72    150.46    313.74    150.44    313.75  " /><path style="stroke-width:0.85 ;&st7;   " d=" M   152.97,   324.73  C   154.93    324.73    156.52    323.15    156.52    321.19  " /><path style="stroke-width:0.85 ;&st7;   " d=" M   156.52,   321.19  C   156.52    319.23    154.93    317.65    152.97    317.65  " /><path style="stroke-width:0.85 ;&st7;   " d=" M   152.97,   317.65  C   151.98    317.65    151.14    318.00    150.45    318.71  " /><path style="stroke-width:1.42 ;&st7;  " d=" M   161.47,   333.23  L   161.47,   299.24  L   144.48,   299.24  L   144.48,   333.23  L   161.47,   333.23  " /><text style="&st18;" transform="matrix(&st16;  146.79  341.42 )">2</text><text style="&st18;" transform="matrix(&st16;  146.79  295.55 )">1</text><g ewd:figtype="title"><text style="&st18;" transform="matrix(&st17;  169.37  336.13 )">W1</text><text style="&st18;" transform="matrix(&st17;  176.19  336.14 )" ewd:textID="44">Fuel Tank Solenoid <tspan x="0 " dy="6.0">Return Valve Assembly</tspan></text></g></g><g ewd:figtype="conn" ewd:figID="12" ewd:code="L32,L36"><path style="stroke-width: 0.85 ;&st7; stroke-dasharray:3, 1.5;" d=" M    84.99,   396.69  L    59.49,   396.69  " /><path style="stroke-width: 0.85 ;&st7; stroke-dasharray:3, 1.5;" d=" M    59.49,   387.62  L    84.99,   387.62  " /><path style="stroke-width:1.42 ;&st7;  " d=" M    42.49,   418.22  L   110.48,   418.22  L   110.48,   401.22  L    42.49,   401.22  L    42.49,   418.22  " /><path style="stroke-width:0.85 ;&st7;  " d=" M   101.98,   409.72  L    50.99,   409.72  L    50.99,   401.22  " /><path style="stroke-width:0.85 ;&st7;  " d=" M   101.98,   418.22  L   101.98,   401.22  " /><path style="stroke-width:0.85 ;&st7;  " d=" M   100.79,   408.71  L   100.52,   409.18  L   100.42,   409.72  L   100.52,   410.25  L   100.79,   410.72  L   101.20,   411.07  L   101.71,   411.25  L   102.25,   411.25  L   102.76,   411.07  L   103.18,   410.72  L   103.45,   410.25  L   103.54,   409.72  L   103.45,   409.18  L   103.18,   408.71  L   102.76,   408.37  L   102.25,   408.18  L   101.71,   408.18  L   101.20,   408.37  L   100.79,   408.71  L   101.18,   409.43  L   101.18,   410.01  L   101.56,   410.45  L   102.13,   410.55  L   102.63,   410.26  L   102.83,   409.72  L   102.63,   409.17  L   102.13,   408.88  L   101.56,   408.98  L   101.98,   409.72  " /><text style="&st18;" transform="matrix(&st16;  39.2  398.65 )">14</text><text style="&st18;" transform="matrix(&st16;  39.2  389.59 )">22</text><text style="&st18;" transform="matrix(&st16;  48.8  398.65 )">B</text><path style="stroke-width:1.42 ;&st7;   " d=" M    55.52,   387.62  C    55.52    385.12     53.49    383.09     50.99    383.09  " /><path style="stroke-width:1.42 ;&st7;   " d=" M    50.99,   383.09  C    48.49    383.09     46.46    385.12     46.46    387.62  " /><path style="stroke-width:1.42 ;&st7;   " d=" M    46.46,   387.62  C    46.46    390.12     48.49    392.15     50.99    392.15  " /><path style="stroke-width:1.42 ;&st7;   " d=" M    50.99,   392.15  C    53.49    392.15     55.52    390.12     55.52    387.62  " /><path style="stroke-width:1.42 ;&st7;   " d=" M    55.52,   396.69  C    55.52    394.18     53.49    392.15     50.99    392.15  " /><path style="stroke-width:1.42 ;&st7;   " d=" M    50.99,   392.15  C    48.49    392.15     46.46    394.18     46.46    396.69  " /><path style="stroke-width:1.42 ;&st7;   " d=" M    46.46,   396.69  C    46.46    399.19     48.49    401.22     50.99    401.22  " /><path style="stroke-width:1.42 ;&st7;   " d=" M    50.99,   401.22  C    53.49    401.22     55.52    399.19     55.52    396.69  " /><text style="&st18;" transform="matrix(&st16;  48.69  389.59 )">A</text><text style="&st18;" transform="matrix(&st16;  90.19  433.78 )">13</text><text style="&st18;" transform="matrix(&st16;  90.19  424.72 )">21</text><path style="stroke-width:1.42 ;&st7;   " d=" M   106.52,   431.81  C   106.52    429.31    104.49    427.28    101.98    427.28  " /><path style="stroke-width:1.42 ;&st7;   " d=" M   101.98,   427.28  C    99.48    427.28     97.45    429.31     97.45    431.81  " /><path style="stroke-width:1.42 ;&st7;   " d=" M    97.45,   431.81  C    97.45    434.32     99.48    436.35    101.98    436.35  " /><path style="stroke-width:1.42 ;&st7;   " d=" M   101.98,   436.35  C   104.49    436.35    106.52    434.32    106.52    431.81  " /><path style="stroke-width:1.42 ;&st7;   " d=" M   106.52,   422.75  C   106.52    420.24    104.49    418.22    101.98    418.22  " /><path style="stroke-width:1.42 ;&st7;   " d=" M   101.98,   418.22  C    99.48    418.22     97.45    420.24     97.45    422.75  " /><path style="stroke-width:1.42 ;&st7;   " d=" M    97.45,   422.75  C    97.45    425.25     99.48    427.28    101.98    427.28  " /><path style="stroke-width:1.42 ;&st7;   " d=" M   101.98,   427.28  C   104.49    427.28    106.52    425.25    106.52    422.75  " /><text style="&st18;" transform="matrix(&st16;  99.68  424.72 )">A</text><text style="&st18;" transform="matrix(&st16;  99.79  433.78 )">B</text><text style="&st18;" transform="matrix(&st16;  90.19  398.65 )">12</text><text style="&st18;" transform="matrix(&st16;  90.19  389.59 )">20</text><path style="stroke-width:1.42 ;&st7;   " d=" M   106.52,   387.62  C   106.52    385.12    104.49    383.09    101.98    383.09  " /><path style="stroke-width:1.42 ;&st7;   " d=" M   101.98,   383.09  C    99.48    383.09     97.45    385.12     97.45    387.62  " /><path style="stroke-width:1.42 ;&st7;   " d=" M    97.45,   387.62  C    97.45    390.12     99.48    392.15    101.98    392.15  " /><path style="stroke-width:1.42 ;&st7;   " d=" M   101.98,   392.15  C   104.49    392.15    106.52    390.12    106.52    387.62  " /><path style="stroke-width:1.42 ;&st7;   " d=" M   106.52,   396.69  C   106.52    394.18    104.49    392.15    101.98    392.15  " /><path style="stroke-width:1.42 ;&st7;   " d=" M   101.98,   392.15  C    99.48    392.15     97.45    394.18     97.45    396.69  " /><path style="stroke-width:1.42 ;&st7;   " d=" M    97.45,   396.69  C    97.45    399.19     99.48    401.22    101.98    401.22  " /><path style="stroke-width:1.42 ;&st7;   " d=" M   101.98,   401.22  C   104.49    401.22    106.52    399.19    106.52    396.69  " /><text style="&st18;" transform="matrix(&st16;  99.68  389.59 )">A</text><text style="&st18;" transform="matrix(&st16;  99.79  398.65 )">B</text><g ewd:figtype="title"><text style="&st18;" transform="matrix(&st17;  29.14  421.11 )">L32(B)</text><text style="&st18;" transform="matrix(&st17;  35.96  421.12 )" ewd:textID="75">No. 24 Junction Connector</text><text style="&st18;" transform="matrix(&st17;  21.8  421.12 )" ewd:textID="79">No. 28 Junction Connector</text><text style="&st18;" transform="matrix(&st17;  14.98  421.11 )">L36(A)</text></g><g ewd:code="" ewd:figID="289" ewd:comment="" ewd:figtype="commref"><text style="&st18;" transform="matrix(&st16;  107.08  433.78 )">(RHD)</text></g><g ewd:code="" ewd:figID="290" ewd:comment="" ewd:figtype="commref"><text style="&st18;" transform="matrix(&st16;  107.08  424.72 )">(LHD)</text></g><g ewd:code="" ewd:figID="291" ewd:comment="" ewd:figtype="commref"><text style="&st18;" transform="matrix(&st16;  107.08  398.65 )">(RHD)</text></g><g ewd:code="" ewd:figID="292" ewd:comment="" ewd:figtype="commref"><text style="&st18;" transform="matrix(&st16;  107.08  389.59 )">(LHD)</text></g></g><g ewd:figtype="conn" ewd:figID="17" ewd:code="L8"><path style="stroke-width:1.42 ;&st7;  " d=" M   101.98,   504.62  L   107.65,   481.95  " /><path style="stroke-width:0.85 ;&st7;  " d=" M   101.98,   511.70  L   101.98,   507.45  " /><path style="stroke-width:0.85 ;&st7;  " d=" M   101.98,   481.95  L   101.98,   477.71  " /><path style="stroke-width:0.85 ;&st7;   " d=" M   103.40,   506.03  C   103.40    505.25    102.77    504.62    101.98    504.62  " /><path style="stroke-width:0.85 ;&st7;   " d=" M   101.98,   504.62  C   101.20    504.62    100.57    505.25    100.57    506.03  " /><path style="stroke-width:0.85 ;&st7;   " d=" M   100.57,   506.03  C   100.57    506.82    101.20    507.45    101.98    507.45  " /><path style="stroke-width:0.85 ;&st7;   " d=" M   101.98,   507.45  C   102.77    507.45    103.40    506.82    103.40    506.03  " /><path style="stroke-width:0.85 ;&st7;   " d=" M   103.40,   483.37  C   103.40    482.59    102.77    481.95    101.98    481.95  " /><path style="stroke-width:0.85 ;&st7;   " d=" M   101.98,   481.95  C   101.20    481.95    100.57    482.59    100.57    483.37  " /><path style="stroke-width:0.85 ;&st7;   " d=" M   100.57,   483.37  C   100.57    484.15    101.20    484.79    101.98    484.79  " /><path style="stroke-width:0.85 ;&st7;   " d=" M   101.98,   484.79  C   102.77    484.79    103.40    484.15    103.40    483.37  " /><path style="stroke-width:1.42 ;&st7;  " d=" M   110.48,   511.70  L   110.48,   477.71  L    93.48,   477.71  L    93.48,   511.70  L   110.48,   511.70  " /><text style="&st18;" transform="matrix(&st16;  95.8  519.89 )">4</text><text style="&st18;" transform="matrix(&st16;  95.8  474.02 )">3</text><g ewd:figtype="title"><text style="&st18;" transform="matrix(&st17;  118.38  514.6 )">L8</text><text style="&st18;" transform="matrix(&st17;  125.2  514.61 )" ewd:textID="34">Fuel Control <tspan x="0 " dy="6.0">Switch Assembly</tspan></text></g></g><g ewd:figtype="conn" ewd:figID="18" ewd:code="I54"><path style="stroke-width:1.42 ;&st7;  " d=" M   144.48,   579.69  L   161.47,   579.69  L   161.47,   562.69  L   144.48,   562.69  L   144.48,   579.69  " /><path style="stroke-width:0.85 ;&st7;  " d=" M   152.97,   579.69  L   152.97,   562.69  " /><text style="&st18;" transform="matrix(&st16;  144.28  560.13 )">2</text><path style="stroke-width:1.42 ;&st7;   " d=" M   157.51,   558.16  C   157.51    555.66    155.48    553.63    152.97    553.63  " /><path style="stroke-width:1.42 ;&st7;   " d=" M   152.97,   553.63  C   150.47    553.63    148.44    555.66    148.44    558.16  " /><path style="stroke-width:1.42 ;&st7;   " d=" M   148.44,   558.16  C   148.44    560.66    150.47    562.69    152.97    562.69  " /><path style="stroke-width:1.42 ;&st7;   " d=" M   152.97,   562.69  C   155.48    562.69    157.51    560.66    157.51    558.16  " /><text style="&st18;" transform="matrix(&st16;  150.67  560.13 )">A</text><text style="&st18;" transform="matrix(&st16;  144.28  586.19 )">1</text><path style="stroke-width:1.42 ;&st7;   " d=" M   157.51,   584.22  C   157.51    581.72    155.48    579.69    152.97    579.69  " /><path style="stroke-width:1.42 ;&st7;   " d=" M   152.97,   579.69  C   150.47    579.69    148.44    581.72    148.44    584.22  " /><path style="stroke-width:1.42 ;&st7;   " d=" M   148.44,   584.22  C   148.44    586.72    150.47    588.75    152.97    588.75  " /><path style="stroke-width:1.42 ;&st7;   " d=" M   152.97,   588.75  C   155.48    588.75    157.51    586.72    157.51    584.22  " /><text style="&st18;" transform="matrix(&st16;  150.67  586.19 )">A</text><g ewd:figtype="title"><text style="&st18;" transform="matrix(&st17;  176.19  582.59 )" ewd:textID="58">No. 5 Junction Connector</text><text style="&st18;" transform="matrix(&st17;  169.37  582.59 )">I54(A)</text></g></g><g ewd:figtype="conn" ewd:figID="19" ewd:code="A23"><path style="stroke-width:1.42 ;&st7;  " d=" M   186.97,   562.69  L   203.97,   562.69  L   203.97,   579.69  L   186.97,   579.69  L   186.97,   562.69  " /><path style="stroke-width:0.85 ;&st7;  " d=" M   195.47,   562.69  L   195.47,   579.69  " /><text style="&st18;" transform="matrix(&st16;  186.77  586.19 )">1</text><text style="&st18;" transform="matrix(&st16;  193.16  586.19 )">A</text><path style="stroke-width:1.42 ;&st7;   " d=" M   200.00,   584.22  C   200.00    581.72    197.97    579.69    195.47    579.69  " /><path style="stroke-width:1.42 ;&st7;   " d=" M   195.47,   579.69  C   192.96    579.69    190.93    581.72    190.93    584.22  " /><path style="stroke-width:1.42 ;&st7;   " d=" M   190.93,   584.22  C   190.93    586.72    192.96    588.75    195.47    588.75  " /><path style="stroke-width:1.42 ;&st7;   " d=" M   195.47,   588.75  C   197.97    588.75    200.00    586.72    200.00    584.22  " /><text style="&st18;" transform="matrix(&st16;  186.77  560.13 )">5</text><text style="&st18;" transform="matrix(&st16;  193.16  560.13 )">A</text><path style="stroke-width:1.42 ;&st7;   " d=" M   200.00,   558.16  C   200.00    555.66    197.97    553.63    195.47    553.63  " /><path style="stroke-width:1.42 ;&st7;   " d=" M   195.47,   553.63  C   192.96    553.63    190.93    555.66    190.93    558.16  " /><path style="stroke-width:1.42 ;&st7;   " d=" M   190.93,   558.16  C   190.93    560.66    192.96    562.69    195.47    562.69  " /><path style="stroke-width:1.42 ;&st7;   " d=" M   195.47,   562.69  C   197.97    562.69    200.00    560.66    200.00    558.16  " /><g ewd:figtype="title"><text style="&st18;" transform="matrix(&st17;  218.68  582.59 )" ewd:textID="54">No. 2 Junction Connector</text><text style="&st18;" transform="matrix(&st17;  211.86  582.59 )">A23(A)</text></g></g><g ewd:figtype="w2w" ewd:figID="112" ewd:code="IL1"><path style="stroke-width:1.42 ;&st7;  " d=" M   106.23,   333.80  L   101.98,   329.55  L    97.73,   333.80  " /><path style="stroke-width:1.42 ;&st7;  " d=" M   106.23,   330.40  L   101.98,   326.15  L    97.73,   330.40  " /><text style="&st18;" transform="matrix(&st16;  86.25  322.45 )">11</text></g><g ewd:figtype="w2w" ewd:figID="113" ewd:code="AI3"><path style="stroke-width:1.42 ;&st7;  " d=" M   106.23,   126.43  L   101.98,   122.18  L    97.73,   126.43  " /><path style="stroke-width:1.42 ;&st7;  " d=" M   106.23,   129.83  L   101.98,   125.58  L    97.73,   129.83  " /><text style="&st18;" transform="matrix(&st16;  86.25  118.49 )">25</text><g ewd:code="" ewd:figID="308" ewd:comment="" ewd:figtype="commref"><text style="&st18;" transform="matrix(&st16;  111.01  118.49 )">(RHD)</text></g></g><g ewd:figtype="w2w" ewd:figID="114" ewd:code="AI3"><text style="&st18;" transform="matrix(&st16;  86.25  109.99 )">22</text><g ewd:code="" ewd:figID="309" ewd:comment="" ewd:figtype="commref"><text style="&st18;" transform="matrix(&st16;  111.01  109.99 )">(LHD)</text></g></g><g ewd:figtype="w2w" ewd:figID="115" ewd:code="AC7"><text style="&st18;" transform="matrix(&st16;  140.34  449.93 )">4</text><g ewd:code="" ewd:figID="297" ewd:comment="" ewd:figtype="commref"><text style="&st18;" transform="matrix(&st16;  162.01  449.93 )">(RHD)</text></g></g><g ewd:figtype="w2w" ewd:figID="116" ewd:code="IC3"><path style="stroke-width:1.42 ;&st7;  " d=" M   157.22,   429.55  L   152.97,   433.80  L   148.73,   429.55  " /><path style="stroke-width:1.42 ;&st7;  " d=" M   148.73,   426.15  L   152.97,   430.40  L   157.22,   426.15  " /><text style="&st18;" transform="matrix(&st16;  140.34  441.43 )">4</text><g ewd:code="" ewd:figID="298" ewd:comment="" ewd:figtype="commref"><text style="&st18;" transform="matrix(&st16;  162.01  441.43 )">(LHD)</text></g></g><g ewd:figtype="w2w" ewd:figID="117" ewd:code="WC2"><path style="stroke-width:1.42 ;&st7;  " d=" M   157.22,   393.29  L   152.97,   389.04  L   148.73,   393.29  " /><path style="stroke-width:1.42 ;&st7;  " d=" M   157.22,   389.89  L   152.97,   385.64  L   148.73,   389.89  " /><text style="&st18;" transform="matrix(&st16;  140.34  381.94 )">1</text></g><g ewd:figtype="w2w" ewd:figID="118" ewd:code="WC2"><path style="stroke-width:1.42 ;&st7;  " d=" M   148.73,   239.18  L   152.97,   243.43  L   157.22,   239.18  " /><path style="stroke-width:1.42 ;&st7;  " d=" M   157.22,   242.58  L   152.97,   246.83  L   148.73,   242.58  " /><text style="&st18;" transform="matrix(&st16;  140.34  254.46 )">2</text></g><g ewd:figtype="w2w" ewd:figID="119" ewd:code="AC8"><path style="stroke-width:1.42 ;&st7;  " d=" M   157.22,   202.92  L   152.97,   198.67  L   148.73,   202.92  " /><path style="stroke-width:1.42 ;&st7;  " d=" M   157.22,   206.32  L   152.97,   202.07  L   148.73,   206.32  " /><text style="&st18;" transform="matrix(&st16;  140.34  194.97 )">6</text><g ewd:code="" ewd:figID="299" ewd:comment="" ewd:figtype="commref"><text style="&st18;" transform="matrix(&st16;  162.01  194.97 )">(RHD)</text></g></g><g ewd:figtype="w2w" ewd:figID="120" ewd:code="IC1"><text style="&st18;" transform="matrix(&st16;  140.34  186.47 )">6</text><g ewd:code="" ewd:figID="300" ewd:comment="" ewd:figtype="commref"><text style="&st18;" transform="matrix(&st16;  162.01  186.47 )">(LHD)</text></g></g><g ewd:figtype="w2w" ewd:figID="121" ewd:code="AI3"><path style="stroke-width:1.42 ;&st7;  " d=" M   157.22,   129.83  L   152.97,   125.58  L   148.73,   129.83  " /><path style="stroke-width:1.42 ;&st7;  " d=" M   157.22,   126.43  L   152.97,   122.18  L   148.73,   126.43  " /><text style="&st18;" transform="matrix(&st16;  140.34  118.49 )">5</text></g><g ewd:figtype="w2w" ewd:figID="122" ewd:code="TS2"><path style="stroke-width:1.42 ;&st7;  " d=" M   284.70,   256.18  L   288.95,   260.43  L   293.20,   256.18  " /><path style="stroke-width:1.42 ;&st7;  " d=" M   293.20,   259.58  L   288.95,   263.82  L   284.70,   259.58  " /><text style="&st18;" transform="matrix(&st16;  276.32  271.46 )">8</text></g><g ewd:figtype="w2w" ewd:figID="123" ewd:code="IS1"><path style="stroke-width:1.42 ;&st7;  " d=" M   293.20,   189.32  L   288.95,   185.07  L   284.70,   189.32  " /><path style="stroke-width:1.42 ;&st7;  " d=" M   293.20,   185.92  L   288.95,   181.67  L   284.70,   185.92  " /><text style="&st18;" transform="matrix(&st16;  273.22  177.98 )">21</text></g><g ewd:figtype="w2w" ewd:figID="124" ewd:code="TX1"><path style="stroke-width:1.42 ;&st7;  " d=" M   344.19,   511.13  L   348.44,   515.38  L   352.69,   511.13  " /><path style="stroke-width:1.42 ;&st7;  " d=" M   352.69,   514.53  L   348.44,   518.78  L   344.19,   514.53  " /><text style="&st18;" transform="matrix(&st16;  335.81  526.42 )">2</text></g><g ewd:figtype="w2w" ewd:figID="125" ewd:code="TX1"><path style="stroke-width:1.42 ;&st7;  " d=" M   352.69,   359.29  L   348.44,   355.04  L   344.19,   359.29  " /><path style="stroke-width:1.42 ;&st7;  " d=" M   352.69,   355.89  L   348.44,   351.64  L   344.19,   355.89  " /><text style="&st18;" transform="matrix(&st16;  335.81  347.95 )">1</text></g><g ewd:figtype="w2w" ewd:figID="126" ewd:code="ST2"><path style="stroke-width:1.42 ;&st7;  " d=" M   395.18,   282.80  L   390.93,   278.56  L   386.69,   282.80  " /><path style="stroke-width:1.42 ;&st7;  " d=" M   395.18,   279.41  L   390.93,   275.16  L   386.69,   279.41  " /><text style="&st18;" transform="matrix(&st16;  378.3  271.46 )">2</text></g><g ewd:figtype="w2w" ewd:figID="127" ewd:code="IS1"><path style="stroke-width:1.42 ;&st7;  " d=" M   395.18,   189.32  L   390.93,   185.07  L   386.69,   189.32  " /><path style="stroke-width:1.42 ;&st7;  " d=" M   395.18,   185.92  L   390.93,   181.67  L   386.69,   185.92  " /><text style="&st18;" transform="matrix(&st16;  375.2  177.98 )">18</text></g><g ewd:figtype="w2w" ewd:figID="128" ewd:code="AI2"><text style="&st18;" transform="matrix(&st16;  417.69  177.98 )">12</text></g><g ewd:figtype="w2w" ewd:figID="129" ewd:code="AI6"><path style="stroke-width:1.42 ;&st7;  " d=" M   429.18,   154.19  L   433.43,   158.44  L   437.68,   154.19  " /><path style="stroke-width:1.42 ;&st7;  " d=" M   437.68,   157.59  L   433.43,   161.84  L   429.18,   157.59  " /><text style="&st18;" transform="matrix(&st16;  420.8  169.48 )">9</text></g><g ewd:figtype="w2w" ewd:figID="130" ewd:code="AI2"><text style="&st18;" transform="matrix(&st16;  463.29  177.98 )">8</text></g><g ewd:figtype="w2w" ewd:figID="131" ewd:code="AI6"><path style="stroke-width:1.42 ;&st7;  " d=" M   480.17,   157.59  L   475.92,   161.84  L   471.67,   157.59  " /><path style="stroke-width:1.42 ;&st7;  " d=" M   471.67,   154.19  L   475.92,   158.44  L   480.17,   154.19  " /><text style="&st18;" transform="matrix(&st16;  463.29  169.48 )">5</text></g><g ewd:figtype="gp" ewd:figID="205" ewd:code="LA"><path style="stroke-width:0.85 ;&st7;  " d=" M   101.98,   697.25  L   101.98,   701.50  " /><path style="stroke-width:0.85 ;&st7;  " d=" M    93.48,   701.50  L   110.48,   701.50  " /><path style="stroke-width:0.85 ;&st7;  " d=" M    97.73,   704.33  L   106.23,   704.33  " /><path style="stroke-width:0.85 ;&st7;  " d=" M    99.15,   707.17  L   104.82,   707.17  " /><path style="stroke-width:0.85 ;&st7;  " d=" M   100.57,   710.00  L   103.40,   710.00  " /></g><g ewd:figtype="gp" ewd:figID="206" ewd:code="IA"><path style="stroke-width:0.85 ;&st7;  " d=" M   152.97,   697.25  L   152.97,   701.50  " /><path style="stroke-width:0.85 ;&st7;  " d=" M   144.48,   701.50  L   161.47,   701.50  " /><path style="stroke-width:0.85 ;&st7;  " d=" M   148.73,   704.33  L   157.22,   704.33  " /><path style="stroke-width:0.85 ;&st7;  " d=" M   150.14,   707.17  L   155.81,   707.17  " /><path style="stroke-width:0.85 ;&st7;  " d=" M   151.56,   710.00  L   154.39,   710.00  " /></g><g ewd:figtype="gp" ewd:figID="207" ewd:code="AA"><path style="stroke-width:0.85 ;&st7;  " d=" M   195.47,   697.25  L   195.47,   701.50  " /><path style="stroke-width:0.85 ;&st7;  " d=" M   186.97,   701.50  L   203.97,   701.50  " /><path style="stroke-width:0.85 ;&st7;  " d=" M   191.22,   704.33  L   199.72,   704.33  " /><path style="stroke-width:0.85 ;&st7;  " d=" M   192.63,   707.17  L   198.30,   707.17  " /><path style="stroke-width:0.85 ;&st7;  " d=" M   194.05,   710.00  L   196.88,   710.00  " /></g><g ewd:figtype="gp" ewd:figID="208" ewd:code="TA"><path style="stroke-width:0.85 ;&st7;  " d=" M   237.96,   697.25  L   237.96,   701.50  " /><path style="stroke-width:0.85 ;&st7;  " d=" M   229.46,   701.50  L   246.46,   701.50  " /><path style="stroke-width:0.85 ;&st7;  " d=" M   233.71,   704.33  L   242.21,   704.33  " /><path style="stroke-width:0.85 ;&st7;  " d=" M   235.13,   707.17  L   240.79,   707.17  " /><path style="stroke-width:0.85 ;&st7;  " d=" M   236.54,   710.00  L   239.38,   710.00  " /></g><g ewd:figtype="gp" ewd:figID="209" ewd:code="TB"><path style="stroke-width:0.85 ;&st7;  " d=" M   288.95,   697.25  L   288.95,   701.50  " /><path style="stroke-width:0.85 ;&st7;  " d=" M   280.45,   701.50  L   297.45,   701.50  " /><path style="stroke-width:0.85 ;&st7;  " d=" M   284.70,   704.33  L   293.20,   704.33  " /><path style="stroke-width:0.85 ;&st7;  " d=" M   286.12,   707.17  L   291.78,   707.17  " /><path style="stroke-width:0.85 ;&st7;  " d=" M   287.54,   710.00  L   290.37,   710.00  " /></g><g ewd:figtype="gp" ewd:figID="210" ewd:code="TC"><path style="stroke-width:0.85 ;&st7;  " d=" M   348.44,   697.25  L   348.44,   701.50  " /><path style="stroke-width:0.85 ;&st7;  " d=" M   339.94,   701.50  L   356.94,   701.50  " /><path style="stroke-width:0.85 ;&st7;  " d=" M   344.19,   704.33  L   352.69,   704.33  " /><path style="stroke-width:0.85 ;&st7;  " d=" M   345.61,   707.17  L   351.27,   707.17  " /><path style="stroke-width:0.85 ;&st7;  " d=" M   347.03,   710.00  L   349.86,   710.00  " /></g><g ewd:code="" ewd:figID="301" ewd:comment="" ewd:figtype="commref"><text style="&st18;" transform="matrix(&st16;  484.95  177.98 )">(RHD)</text></g><g ewd:code="" ewd:figID="302" ewd:comment="" ewd:figtype="commref"><text style="&st18;" transform="matrix(&st16;  484.95  169.48 )">(LHD)</text></g></svg>