<?xml version="1.0" encoding="utf-8"?>
<!DOCTYPE svg PUBLIC "-//W3C//DTD SVG 1.0//EN" "http://www.w3.org/TR/2001/REC-SVG-20010904/DTD/svg10.dtd"[
	<!ENTITY ns_flows "http://ns.adobe.com/Flows/1.0/">
	<!ENTITY ns_svg "http://www.w3.org/2000/svg">
	<!ENTITY ns_xlink "http://www.w3.org/1999/xlink">
	<!ENTITY st0 "font-size:7px;font-family:'MS-PGothic';adobe-font-script:japanese;">
	<!ENTITY st1 "font-size:6px;font-family:'ArialMT';">
	<!-- White fill  -->
	<!ENTITY st2 "fill:#FFFFFF;stroke:#000000; stroke-width:1.41;stroke-linecap:round;stroke-linejoin:round;">
	<!-- Yellow fill  -->
	<!ENTITY st3 "fill:#FFFFCC;stroke:#FFFFCC; stroke-width:0.1;stroke-linecap:round;stroke-linejoin:round;">
	<!-- Gray fill  -->
	<!ENTITY st4 "fill:#CCCCCC;stroke:#CCCCCC; stroke-width:0.1;stroke-linecap:round;stroke-linejoin:round;">
	<!-- Light-blue fill -->
	<!ENTITY st5 "fill:#CCECF4;stroke:#000000; stroke-width:1.133;stroke-linecap:round;stroke-linejoin:round;">
	<!ENTITY st6 "fill:none;stroke-linecap:butt; stroke-linejoin:round;">
	<!ENTITY st7 "fill:none;stroke:#000000;stroke-linecap:round;stroke-linejoin:round;">
	<!ENTITY st8 "enable-background:new    ;">
	<!-- Black fill -->
	<!ENTITY st9 "fill:#000000;stroke:#000000; stroke-linecap:round;stroke-linejoin:round;">
	<!-- SRS note   -->
	<!ENTITY st10 "font-size:9px;font-family:'ArialMT';">
	<!ENTITY st11 "font-size:9px;font-family:'Svg Symbol';">
	<!ENTITY st12 "font-size:6px;font-family:'Svg Symbol';">
	<!ENTITY st13 "fill:none;stroke:#ff0000;stroke-linecap:round;stroke-linejoin:round;">
	<!-- Yellow fill  -->
	<!ENTITY st14 "fill:#FFFF00;stroke:#FFFF00; stroke-width:0.1;stroke-linecap:round;stroke-linejoin:round;">
	<!ENTITY st15 "font-size:6px;font-family:'MS-PGothic';adobe-font-script:japanese;">
	<!ENTITY st16 "1.00 0.00 0.00 1.00">
	<!ENTITY st17 "0.00 -1.00 1.00 0.00">
	<!ENTITY st18 "font-size:6px;font-family:'Arial';">
	<!ENTITY st19 "font-size:9px;font-family:'Arial';">
	<!ENTITY st20 "font-size:6px;font-family:'MS-PGothic','MS PGothic';adobe-font-script:japanese;">
	<!ENTITY st21 "font-size:7px;font-family:'MS-PGothic','MS PGothic';adobe-font-script:japanese;">
	<!ATTLIST svg
		xmlns:ewd CDATA #FIXED "http://shcl.co.jp/ewd"
		xmlns:a CDATA #FIXED "http://ns.adobe.com/AdobeSVGViewerExtensions/3.0/"
		ewd:ver CDATA #IMPLIED
	>
	<!ATTLIST a
		ewd:lineID CDATA #IMPLIED
		ewd:groupID CDATA #IMPLIED
		ewd:figtype CDATA #IMPLIED
		ewd:code CDATA #IMPLIED
		ewd:figID CDATA #IMPLIED
		ewd:pinNo CDATA #IMPLIED
		ewd:comment CDATA #IMPLIED >
	<!ATTLIST g
		ewd:lineID CDATA #IMPLIED
		ewd:groupID CDATA #IMPLIED
		ewd:figtype CDATA #IMPLIED
		ewd:code CDATA #IMPLIED
		ewd:figID CDATA #IMPLIED
		ewd:pinNo CDATA #IMPLIED
		ewd:comment CDATA #IMPLIED >
	<!ATTLIST text
		ewd:textID CDATA #IMPLIED >
	<!ATTLIST title
		ewd:textID CDATA #IMPLIED >
]>
<!-- Generator: Shintec Hozumi YS   -->
<svg onload="call_execInitLoadProc_svg('system')" style="overflow:visible;  enable-background:new 0 0 8792.321 710.000" viewBox="0 0 8792.321 710.000" height="710.000" width="8792.321" xml:space="preserve" ewd:ver="2.1.2.9" xmlns="&ns_svg;" xmlns:a="http://ns.adobe.com/AdobeSVGViewerExtensions/3.0/" xmlns:ewd="http://shcl.co.jp/ewd" xmlns:xlink="&ns_xlink;">
<path style="stroke-width:1.42 ;&st7;  " d=" M  4011.33,   145.69  L  4019.83,   145.69  " /><path style="stroke-width:1.42 ;&st7;  " d=" M  4087.82,   145.69  L  4096.32,   145.69  " /><path style="stroke-width:1.42 ;&st7;  " d=" M  4011.33,   431.69  L  4006.36,   426.71  " /><path style="stroke-width:1.42 ;&st7;  " d=" M  4006.36,   443.71  L  4011.33,   438.74  " /><text style="&st18;" transform="matrix(&st17;  4061.46  153.51 )">(LHD)</text><text style="&st18;" transform="matrix(&st17;  4050.13  153.51 )">BR-W</text><text style="&st18;" transform="matrix(&st16;  4070.97  128.4 )">(RHD)</text><text style="&st18;" transform="matrix(&st16;  4071.0  117.07 )">BR-W</text><text style="&st18;" transform="matrix(&st16;  4070.97  178.82 )">(RHD)</text><text style="&st18;" transform="matrix(&st16;  4071.0  167.49 )">BR-W</text><text style="&st18;" transform="matrix(&st17;  4067.12  309.31 )">L</text><text style="&st18;" transform="matrix(&st16;  4271.38  237.47 )">ECM</text><text style="&st18;" transform="matrix(&st17;  4237.1  313.69 )">B-W</text><text style="&st18;" transform="matrix(&st17;  4203.1  313.69 )">B-W</text><text style="&st18;" transform="matrix(&st17;  4237.1  470.91 )">B-W</text><text style="&st18;" transform="matrix(&st17;  4322.08  470.91 )">B-W</text><text style="&st18;" transform="matrix(&st17;  4248.43  315.59 )">(RHD)</text><text style="&st18;" transform="matrix(&st17;  4214.43  315.55 )">(LHD)</text><path style="stroke-width:1.42 ;&st7;  " d=" M  4249.29,   333.23  L  4240.79,   333.23  " /><text style="&st18;" transform="matrix(&st17;  4237.1  364.68 )">B-W</text><text style="&st18;" transform="matrix(&st17;  4248.43  366.58 )">(RHD)</text><path style="stroke-width:1.42 ;&st7;  " d=" M  4232.29,   503.20  L  4240.79,   503.20  " /><path style="stroke-width:1.42 ;&st7;  " d=" M  4249.29,   576.16  L  4244.32,   571.19  " /><path style="stroke-width:1.42 ;&st7;  " d=" M  4232.29,   583.22  L  4237.26,   588.19  " /><path style="stroke-width:1.42 ;&st7;  " d=" M  4244.32,   588.19  L  4249.29,   583.22  " /><path style="stroke-width:1.42 ;&st7;  " d=" M  4237.26,   571.19  L  4232.29,   576.16  " /><text style="&st18;" transform="matrix(&st17;  4237.1  543.15 )">B-W</text><text style="&st18;" transform="matrix(&st17;  4237.1  619.64 )">B-W</text><text style="&st18;" transform="matrix(&st16;  4115.36  626.98 )">B-W</text><text style="&st18;" transform="matrix(&st16;  4166.35  626.98 )">B-W</text><text style="&st18;" transform="matrix(&st16;  4271.37  230.64 )">A29(A),C39(B),I84(C)</text><text style="&st18;" transform="matrix(&st16;  4119.35  643.98 )">G</text><text style="&st18;" transform="matrix(&st17;  4492.05  467.42 )">W</text><text style="&st18;" transform="matrix(&st17;  4492.05  539.66 )">W</text><text style="&st18;" transform="matrix(&st16;  4170.34  643.98 )">G</text><text style="&st18;" transform="matrix(&st16;  4467.79  295.54 )">G</text><text style="&st18;" transform="matrix(&st17;  4492.05  109.14 )">G-R</text><path style="stroke-width:1.42 ;&st7;  " d=" M  4492.22,    35.78  L  4487.25,    40.75  " /><path style="stroke-width:1.42 ;&st7;  " d=" M  4499.28,    52.78  L  4504.25,    47.81  " /><path style="stroke-width:1.42 ;&st7;  " d=" M  4487.25,    47.81  L  4492.22,    52.78  " /><path style="stroke-width:1.42 ;&st7;  " d=" M  4504.25,    40.75  L  4499.28,    35.78  " /><path style="stroke-width:1.42 ;&st7;  " d=" M  4325.78,    57.75  L  4320.81,    52.78  " /><path style="stroke-width:1.42 ;&st7;  " d=" M  4308.78,    64.80  L  4313.75,    69.77  " /><path style="stroke-width:1.42 ;&st7;  " d=" M  4320.81,    69.77  L  4325.78,    64.80  " /><path style="stroke-width:1.42 ;&st7;  " d=" M  4313.75,    52.78  L  4308.78,    57.75  " /><path style="stroke-width:1.42 ;&st7;  " d=" M  4223.79,   146.26  L  4215.30,   146.26  " /><text style="&st18;" transform="matrix(&st17;  4271.09  126.6 )">W-L</text><text style="&st18;" transform="matrix(&st17;  4313.58  84.11 )">W-L</text><text style="&st18;" transform="matrix(&st17;  4339.08  84.11 )">W-L</text><text style="&st18;" transform="matrix(&st17;  4211.6  126.6 )">W-L</text><text style="&st18;" transform="matrix(&st17;  4424.06  181.38 )">G-R</text><text style="&st18;" transform="matrix(&st17;  4435.4  183.86 )">(RHD)</text><text style="&st18;" transform="matrix(&st17;  4373.07  398.67 )">B-W</text><text style="&st18;" transform="matrix(&st17;  4381.57  105.73 )">G</text><text style="&st18;" transform="matrix(&st16;  4116.21  660.98 )">B-R</text><text style="&st18;" transform="matrix(&st16;  4115.05  672.31 )">(*10)</text><text style="&st18;" transform="matrix(&st16;  4167.2  660.98 )">B-R</text><text style="&st18;" transform="matrix(&st16;  4166.04  672.31 )">(*10)</text><g ewd:figtype="conn" ewd:figID="42" ewd:code="C28"><path style="stroke-width:0.85 ;&st7;  " d=" M  4070.82,   392.72  L  4070.82,   388.47  " /><path style="stroke-width:0.85 ;&st7;  " d=" M  4070.82,   362.97  L  4070.82,   358.73  " /><path style="stroke-width:1.42 ;&st7;  " d=" M  4070.82,   385.64  L  4076.49,   362.97  " /><path style="stroke-width:0.85 ;&st7;   " d=" M  4072.24,   387.05  C  4072.24    386.27   4071.60    385.64   4070.82    385.64  " /><path style="stroke-width:0.85 ;&st7;   " d=" M  4070.82,   385.64  C  4070.04    385.64   4069.40    386.27   4069.40    387.05  " /><path style="stroke-width:0.85 ;&st7;   " d=" M  4069.40,   387.05  C  4069.40    387.84   4070.04    388.47   4070.82    388.47  " /><path style="stroke-width:0.85 ;&st7;   " d=" M  4070.82,   388.47  C  4071.60    388.47   4072.24    387.84   4072.24    387.05  " /><path style="stroke-width:0.85 ;&st7;   " d=" M  4072.24,   364.39  C  4072.24    363.61   4071.60    362.97   4070.82    362.97  " /><path style="stroke-width:0.85 ;&st7;   " d=" M  4070.82,   362.97  C  4070.04    362.97   4069.40    363.61   4069.40    364.39  " /><path style="stroke-width:0.85 ;&st7;   " d=" M  4069.40,   364.39  C  4069.40    365.17   4070.04    365.81   4070.82    365.81  " /><path style="stroke-width:0.85 ;&st7;   " d=" M  4070.82,   365.81  C  4071.60    365.81   4072.24    365.17   4072.24    364.39  " /><path style="stroke-width:1.42 ;&st7;  " d=" M  4062.32,   358.73  L  4079.32,   358.73  L  4079.32,   392.72  L  4062.32,   392.72  L  4062.32,   358.73  " /><text style="&st18;" transform="matrix(&st16;  4064.64  355.04 )">1</text><g ewd:figtype="title"><text style="&st18;" transform="matrix(&st17;  4087.21  395.62 )">C28</text><text style="&st18;" transform="matrix(&st17;  4094.04  395.63 )" ewd:textID="88">Power Steering <tspan x="0 " dy="6.0">Oil Pressure Switch</tspan></text></g></g><g ewd:figtype="conn" ewd:figID="43" ewd:code="I43"><g ewd:lineID="225,226"><text style="&st18;" transform="matrix(&st16;  4047.64  111.96 )">4</text><text style="&st18;" transform="matrix(&st16;  4045.55  100.07 )">VCPA</text></g></g><g ewd:figtype="rb" ewd:figID="56" ewd:code="FUSE3"><path style="stroke-width:1.42 ;&st7;   " d=" M  4383.14,   354.48  C  4383.14    352.13   4381.24    350.23   4378.89    350.23  " /><path style="stroke-width:1.42 ;&st7;   " d=" M  4378.89,   358.73  C  4381.24    358.73   4383.14    356.82   4383.14    354.48  " /><path style="stroke-width:1.42 ;&st7;   " d=" M  4370.39,   354.48  C  4370.39    356.82   4372.30    358.73   4374.64    358.73  " /><path style="stroke-width:1.42 ;&st7;   " d=" M  4374.64,   350.23  C  4372.30    350.23   4370.39    352.13   4370.39    354.48  " /><path style="stroke-width:1.42 ;&st7;  " d=" M  4378.89,   350.23  L  4374.64,   350.23  " /><path style="stroke-width:1.42 ;&st7;  " d=" M  4378.89,   358.73  L  4374.64,   358.73  " /><path style="stroke-width:0.85 ;&st7;  " d=" M  4376.77,   333.23  L  4376.77,   350.23  " /><path style="stroke-width:0.28 ;&st9;  " d=" M  4376.77,   345.33  L  4373.93,   342.50  L  4373.93,   346.75  L  4376.77,   349.58  L  4379.60,   346.75  L  4379.60,   342.50  L  4376.77,   345.33  " /><text style="&st18;" transform="matrix(&st16;  4393.19  311.13 )">7.5A <tspan x="0 " dy="6.0">ST</tspan></text><text style="&st18;" transform="matrix(&st16;  4374.97  356.45 )">2</text><text style="&st18;" transform="matrix(&st16;  4370.58  341.42 )">2</text><text style="&st18;" transform="matrix(&st16;  4371.17  287.04 )">(ST)</text><path style="stroke-width:0.85 ;&st7;   " d=" M  4378.19,   323.31  C  4378.19    322.53   4377.55    321.90   4376.77    321.90  " /><path style="stroke-width:0.85 ;&st7;   " d=" M  4376.77,   321.90  C  4375.99    321.90   4375.35    322.53   4375.35    323.31  " /><path style="stroke-width:0.85 ;&st7;   " d=" M  4375.35,   323.31  C  4375.35    324.10   4375.99    324.73   4376.77    324.73  " /><path style="stroke-width:0.85 ;&st7;   " d=" M  4376.77,   324.73  C  4377.55    324.73   4378.19    324.10   4378.19    323.31  " /><path style="stroke-width:0.85 ;&st7;   " d=" M  4378.19,   300.65  C  4378.19    299.87   4377.55    299.24   4376.77    299.24  " /><path style="stroke-width:0.85 ;&st7;   " d=" M  4376.77,   299.24  C  4375.99    299.24   4375.35    299.87   4375.35    300.65  " /><path style="stroke-width:0.85 ;&st7;   " d=" M  4375.35,   300.65  C  4375.35    301.43   4375.99    302.07   4376.77    302.07  " /><path style="stroke-width:0.85 ;&st7;   " d=" M  4376.77,   302.07  C  4377.55    302.07   4378.19    301.43   4378.19    300.65  " /><path style="stroke-width:0.85 ;&st7;  " d=" M  4376.77,   324.73  L  4376.77,   333.23  " /><path style="stroke-width:1.42 ;&st7;   " d=" M  4376.77,   302.07  C  4374.03    303.68   4373.12    307.21   4374.73    309.95  " /><path style="stroke-width:1.42 ;&st7;   " d=" M  4374.73,   309.95  C  4375.25    310.83   4375.89    311.46   4376.77    311.98  " /><path style="stroke-width:1.42 ;&st7;   " d=" M  4376.77,   321.90  C  4379.51    320.29   4380.42    316.76   4378.81    314.02  " /><path style="stroke-width:1.42 ;&st7;   " d=" M  4378.81,   314.02  C  4378.29    313.14   4377.65    312.50   4376.77    311.98  " /><path style="stroke-width:1.42 ;&st7;  " d=" M  4364.02,   290.74  L  4364.02,   333.23  L  4389.51,   333.23  L  4389.51,   290.74  L  4364.02,   290.74  " /></g><g ewd:figtype="rb" ewd:figID="58" ewd:code="FUSE26"><path style="stroke-width:1.42 ;&st7;  " d=" M  4497.87,   324.73  L  4493.62,   324.73  " /><path style="stroke-width:1.42 ;&st7;  " d=" M  4497.87,   333.23  L  4493.62,   333.23  " /><path style="stroke-width:1.42 ;&st7;  " d=" M  4497.87,   426.71  L  4493.62,   426.71  " /><path style="stroke-width:1.42 ;&st7;  " d=" M  4497.87,   435.21  L  4493.62,   435.21  " /><path style="stroke-width:1.42 ;&st7;   " d=" M  4493.62,   324.73  C  4491.28    324.73   4489.37    326.63   4489.37    328.98  " /><path style="stroke-width:1.42 ;&st7;   " d=" M  4489.37,   328.98  C  4489.37    331.33   4491.28    333.23   4493.62    333.23  " /><path style="stroke-width:1.42 ;&st7;   " d=" M  4497.87,   333.23  C  4500.22    333.23   4502.12    331.33   4502.12    328.98  " /><path style="stroke-width:1.42 ;&st7;   " d=" M  4502.12,   328.98  C  4502.12    326.63   4500.22    324.73   4497.87    324.73  " /><path style="stroke-width:1.42 ;&st7;   " d=" M  4493.62,   426.71  C  4491.28    426.71   4489.37    428.62   4489.37    430.96  " /><path style="stroke-width:1.42 ;&st7;   " d=" M  4489.37,   430.96  C  4489.37    433.31   4491.28    435.21   4493.62    435.21  " /><path style="stroke-width:1.42 ;&st7;   " d=" M  4497.87,   435.21  C  4500.22    435.21   4502.12    433.31   4502.12    430.96  " /><path style="stroke-width:1.42 ;&st7;   " d=" M  4502.12,   430.96  C  4502.12    428.62   4500.22    426.71   4497.87    426.71  " /><path style="stroke-width:0.28 ;&st9;  " d=" M  4495.75,   338.12  L  4498.58,   340.96  L  4498.58,   336.71  L  4495.75,   333.88  L  4492.91,   336.71  L  4492.91,   340.96  L  4495.75,   338.12  " /><path style="stroke-width:0.28 ;&st9;  " d=" M  4495.75,   421.82  L  4492.91,   418.99  L  4492.91,   423.24  L  4495.75,   426.07  L  4498.58,   423.24  L  4498.58,   418.99  L  4495.75,   421.82  " /><path style="stroke-width:0.85 ;&st7;  " d=" M  4495.75,   358.73  L  4495.75,   333.23  " /><path style="stroke-width:0.85 ;&st7;  " d=" M  4495.75,   426.71  L  4495.75,   401.22  " /><text style="&st18;" transform="matrix(&st16;  4493.95  330.95 )">2</text><text style="&st18;" transform="matrix(&st16;  4512.17  379.12 )">15A <tspan x="0 " dy="6.0">STOP</tspan></text><text style="&st18;" transform="matrix(&st16;  4489.56  409.41 )">2</text><text style="&st18;" transform="matrix(&st16;  4489.56  355.03 )">1</text><text style="&st18;" transform="matrix(&st16;  4493.95  432.93 )">2</text><path style="stroke-width:0.85 ;&st7;  " d=" M  4495.75,   392.72  L  4495.75,   401.22  " /><path style="stroke-width:1.42 ;&st7;   " d=" M  4495.75,   370.06  C  4493.01    371.67   4492.10    375.20   4493.71    377.93  " /><path style="stroke-width:1.42 ;&st7;   " d=" M  4493.71,   377.93  C  4494.23    378.82   4494.87    379.45   4495.75    379.97  " /><path style="stroke-width:1.42 ;&st7;   " d=" M  4495.75,   389.89  C  4498.49    388.27   4499.40    384.75   4497.79    382.01  " /><path style="stroke-width:1.42 ;&st7;   " d=" M  4497.79,   382.01  C  4497.27    381.13   4496.63    380.49   4495.75    379.97  " /><path style="stroke-width:0.85 ;&st7;   " d=" M  4497.17,   368.64  C  4497.17    367.86   4496.53    367.22   4495.75    367.22  " /><path style="stroke-width:0.85 ;&st7;   " d=" M  4495.75,   367.22  C  4494.97    367.22   4494.33    367.86   4494.33    368.64  " /><path style="stroke-width:0.85 ;&st7;   " d=" M  4494.33,   368.64  C  4494.33    369.42   4494.97    370.06   4495.75    370.06  " /><path style="stroke-width:0.85 ;&st7;   " d=" M  4495.75,   370.06  C  4496.53    370.06   4497.17    369.42   4497.17    368.64  " /><path style="stroke-width:0.85 ;&st7;   " d=" M  4497.17,   391.30  C  4497.17    390.52   4496.53    389.89   4495.75    389.89  " /><path style="stroke-width:0.85 ;&st7;   " d=" M  4495.75,   389.89  C  4494.97    389.89   4494.33    390.52   4494.33    391.30  " /><path style="stroke-width:0.85 ;&st7;   " d=" M  4494.33,   391.30  C  4494.33    392.09   4494.97    392.72   4495.75    392.72  " /><path style="stroke-width:0.85 ;&st7;   " d=" M  4495.75,   392.72  C  4496.53    392.72   4497.17    392.09   4497.17    391.30  " /><path style="stroke-width:0.85 ;&st7;  " d=" M  4495.75,   358.73  L  4495.75,   367.22  " /><path style="stroke-width:1.42 ;&st7;  " d=" M  4483.00,   358.73  L  4483.00,   401.22  L  4508.49,   401.22  L  4508.49,   358.73  L  4483.00,   358.73  " /></g><g ewd:figtype="rb" ewd:figID="59" ewd:code="FUSE18"><path style="stroke-width:1.42 ;&st7;  " d=" M  4429.88,    52.78  L  4425.64,    52.78  " /><path style="stroke-width:1.42 ;&st7;  " d=" M  4429.88,    61.28  L  4425.64,    61.28  " /><path style="stroke-width:1.42 ;&st7;  " d=" M  4429.88,   137.76  L  4425.64,   137.76  " /><path style="stroke-width:1.42 ;&st7;  " d=" M  4429.88,   146.26  L  4425.64,   146.26  " /><path style="stroke-width:1.42 ;&st7;   " d=" M  4425.64,    52.78  C  4423.29     52.78   4421.39     54.68   4421.39     57.03  " /><path style="stroke-width:1.42 ;&st7;   " d=" M  4421.39,    57.03  C  4421.39     59.37   4423.29     61.28   4425.64     61.28  " /><path style="stroke-width:1.42 ;&st7;   " d=" M  4429.88,    61.28  C  4432.23     61.28   4434.13     59.37   4434.13     57.03  " /><path style="stroke-width:1.42 ;&st7;   " d=" M  4434.13,    57.03  C  4434.13     54.68   4432.23     52.78   4429.88     52.78  " /><path style="stroke-width:1.42 ;&st7;   " d=" M  4425.64,   137.76  C  4423.29    137.76   4421.39    139.66   4421.39    142.01  " /><path style="stroke-width:1.42 ;&st7;   " d=" M  4421.39,   142.01  C  4421.39    144.36   4423.29    146.26   4425.64    146.26  " /><path style="stroke-width:1.42 ;&st7;   " d=" M  4429.88,   146.26  C  4432.23    146.26   4434.13    144.36   4434.13    142.01  " /><path style="stroke-width:1.42 ;&st7;   " d=" M  4434.13,   142.01  C  4434.13    139.66   4432.23    137.76   4429.88    137.76  " /><path style="stroke-width:0.28 ;&st9;  " d=" M  4427.76,    66.17  L  4430.59,    69.00  L  4430.59,    64.75  L  4427.76,    61.92  L  4424.93,    64.75  L  4424.93,    69.00  L  4427.76,    66.17  " /><path style="stroke-width:0.28 ;&st9;  " d=" M  4427.76,   132.87  L  4424.93,   130.03  L  4424.93,   134.28  L  4427.76,   137.12  L  4430.59,   134.28  L  4430.59,   130.03  L  4427.76,   132.87  " /><path style="stroke-width:0.85 ;&st7;  " d=" M  4427.76,    78.27  L  4427.76,    61.28  " /><path style="stroke-width:0.85 ;&st7;  " d=" M  4427.76,   137.76  L  4427.76,   120.77  " /><text style="&st18;" transform="matrix(&st16;  4425.96  58.99 )">2</text><text style="&st18;" transform="matrix(&st16;  4444.18  98.66 )">10A <tspan x="0 " dy="6.0">TAIL</tspan></text><text style="&st18;" transform="matrix(&st16;  4421.58  128.96 )">2</text><text style="&st18;" transform="matrix(&st16;  4421.58  74.58 )">1</text><text style="&st18;" transform="matrix(&st16;  4425.96  143.98 )">2</text><path style="stroke-width:0.85 ;&st7;  " d=" M  4427.76,   112.27  L  4427.76,   120.77  " /><path style="stroke-width:1.42 ;&st7;   " d=" M  4427.76,    89.60  C  4425.02     91.22   4424.11     94.74   4425.72     97.48  " /><path style="stroke-width:1.42 ;&st7;   " d=" M  4425.72,    97.48  C  4426.24     98.36   4426.88     99.00   4427.76     99.52  " /><path style="stroke-width:1.42 ;&st7;   " d=" M  4427.76,   109.43  C  4430.50    107.82   4431.41    104.29   4429.80    101.56  " /><path style="stroke-width:1.42 ;&st7;   " d=" M  4429.80,   101.56  C  4429.28    100.67   4428.64    100.04   4427.76     99.52  " /><path style="stroke-width:0.85 ;&st7;   " d=" M  4429.18,    88.19  C  4429.18     87.40   4428.54     86.77   4427.76     86.77  " /><path style="stroke-width:0.85 ;&st7;   " d=" M  4427.76,    86.77  C  4426.98     86.77   4426.34     87.40   4426.34     88.19  " /><path style="stroke-width:0.85 ;&st7;   " d=" M  4426.34,    88.19  C  4426.34     88.97   4426.98     89.60   4427.76     89.60  " /><path style="stroke-width:0.85 ;&st7;   " d=" M  4427.76,    89.60  C  4428.54     89.60   4429.18     88.97   4429.18     88.19  " /><path style="stroke-width:0.85 ;&st7;   " d=" M  4429.18,   110.85  C  4429.18    110.07   4428.54    109.43   4427.76    109.43  " /><path style="stroke-width:0.85 ;&st7;   " d=" M  4427.76,   109.43  C  4426.98    109.43   4426.34    110.07   4426.34    110.85  " /><path style="stroke-width:0.85 ;&st7;   " d=" M  4426.34,   110.85  C  4426.34    111.63   4426.98    112.27   4427.76    112.27  " /><path style="stroke-width:0.85 ;&st7;   " d=" M  4427.76,   112.27  C  4428.54    112.27   4429.18    111.63   4429.18    110.85  " /><path style="stroke-width:0.85 ;&st7;  " d=" M  4427.76,    78.27  L  4427.76,    86.77  " /><path style="stroke-width:1.42 ;&st7;  " d=" M  4415.01,    78.27  L  4415.01,   120.77  L  4440.51,   120.77  L  4440.51,    78.27  L  4415.01,    78.27  " /></g><g ewd:figtype="rb" ewd:figID="60" ewd:code="FUSE57"><path style="stroke-width:1.42 ;&st7;  " d=" M  4217.42,    95.27  L  4213.17,    95.27  " /><path style="stroke-width:1.42 ;&st7;  " d=" M  4217.42,   103.77  L  4213.17,   103.77  " /><path style="stroke-width:0.85 ;&st7;  " d=" M  4215.30,    78.27  L  4215.30,    95.27  " /><path style="stroke-width:1.42 ;&st7;   " d=" M  4213.17,    95.27  C  4210.82     95.27   4208.92     97.17   4208.92     99.52  " /><path style="stroke-width:1.42 ;&st7;   " d=" M  4208.92,    99.52  C  4208.92    101.87   4210.82    103.77   4213.17    103.77  " /><path style="stroke-width:1.42 ;&st7;   " d=" M  4217.42,   103.77  C  4219.77    103.77   4221.67    101.87   4221.67     99.52  " /><path style="stroke-width:1.42 ;&st7;   " d=" M  4221.67,    99.52  C  4221.67     97.17   4219.77     95.27   4217.42     95.27  " /><path style="stroke-width:0.28 ;&st9;  " d=" M  4215.29,    90.37  L  4212.46,    87.54  L  4212.46,    91.79  L  4215.29,    94.62  L  4218.13,    91.79  L  4218.13,    87.54  L  4215.29,    90.37  " /><text style="&st18;" transform="matrix(&st16;  4231.72  56.17 )">50A <tspan x="0 " dy="6.0">MAIN1</tspan></text><text style="&st18;" transform="matrix(&st16;  4213.5  101.49 )">4</text><text style="&st18;" transform="matrix(&st16;  4209.11  86.47 )">2</text><text style="&st18;" transform="matrix(&st16;  4207.25  32.08 )">(BAT)</text><path style="stroke-width:0.85 ;&st7;  " d=" M  4215.30,    69.77  L  4215.30,    78.27  " /><path style="stroke-width:1.42 ;&st7;   " d=" M  4215.30,    47.11  C  4212.56     48.72   4211.65     52.25   4213.26     54.99  " /><path style="stroke-width:1.42 ;&st7;   " d=" M  4213.26,    54.99  C  4213.78     55.87   4214.41     56.51   4215.30     57.03  " /><path style="stroke-width:1.42 ;&st7;   " d=" M  4215.30,    66.94  C  4218.03     65.33   4218.95     61.80   4217.33     59.06  " /><path style="stroke-width:1.42 ;&st7;   " d=" M  4217.33,    59.06  C  4216.81     58.18   4216.18     57.55   4215.30     57.03  " /><path style="stroke-width:0.85 ;&st7;   " d=" M  4216.71,    45.69  C  4216.71     44.91   4216.08     44.28   4215.30     44.28  " /><path style="stroke-width:0.85 ;&st7;   " d=" M  4215.30,    44.28  C  4214.51     44.28   4213.88     44.91   4213.88     45.69  " /><path style="stroke-width:0.85 ;&st7;   " d=" M  4213.88,    45.69  C  4213.88     46.48   4214.51     47.11   4215.30     47.11  " /><path style="stroke-width:0.85 ;&st7;   " d=" M  4215.30,    47.11  C  4216.08     47.11   4216.71     46.48   4216.71     45.69  " /><path style="stroke-width:0.85 ;&st7;   " d=" M  4216.71,    68.36  C  4216.71     67.57   4216.08     66.94   4215.30     66.94  " /><path style="stroke-width:0.85 ;&st7;   " d=" M  4215.30,    66.94  C  4214.51     66.94   4213.88     67.57   4213.88     68.36  " /><path style="stroke-width:0.85 ;&st7;   " d=" M  4213.88,    68.36  C  4213.88     69.14   4214.51     69.77   4215.30     69.77  " /><path style="stroke-width:0.85 ;&st7;   " d=" M  4215.30,    69.77  C  4216.08     69.77   4216.71     69.14   4216.71     68.36  " /><path style="stroke-width:1.42 ;&st7;  " d=" M  4202.55,    35.78  L  4202.55,    78.27  L  4228.04,    78.27  L  4228.04,    35.78  L  4202.55,    35.78  " /></g><g ewd:figtype="rb" ewd:figID="63" ewd:code="2"><path style="stroke-width:1.42 ;&st7;  " d=" M  4344.90,    86.77  L  4340.65,    86.77  " /><path style="stroke-width:1.42 ;&st7;  " d=" M  4344.90,    95.27  L  4340.65,    95.27  " /><path style="stroke-width:1.42 ;&st7;  " d=" M  4319.40,    86.77  L  4315.15,    86.77  " /><path style="stroke-width:1.42 ;&st7;  " d=" M  4319.40,    95.27  L  4315.15,    95.27  " /><path style="stroke-width:1.42 ;&st7;  " d=" M  4344.90,   163.26  L  4340.65,   163.26  " /><path style="stroke-width:1.42 ;&st7;  " d=" M  4344.90,   171.76  L  4340.65,   171.76  " /><path style="stroke-width:1.42 ;&st7;   " d=" M  4317.28,   163.26  C  4319.49    165.08   4322.62    165.02   4324.76    163.12  " /><path style="stroke-width:1.42 ;&st7;   " d=" M  4340.65,    86.77  C  4338.30     86.77   4336.40     88.67   4336.40     91.02  " /><path style="stroke-width:1.42 ;&st7;   " d=" M  4336.40,    91.02  C  4336.40     93.37   4338.30     95.27   4340.65     95.27  " /><path style="stroke-width:1.42 ;&st7;   " d=" M  4344.90,    95.27  C  4347.25     95.27   4349.15     93.37   4349.15     91.02  " /><path style="stroke-width:1.42 ;&st7;   " d=" M  4349.15,    91.02  C  4349.15     88.67   4347.25     86.77   4344.90     86.77  " /><path style="stroke-width:1.42 ;&st7;   " d=" M  4315.15,    86.77  C  4312.81     86.77   4310.90     88.67   4310.90     91.02  " /><path style="stroke-width:1.42 ;&st7;   " d=" M  4310.90,    91.02  C  4310.90     93.37   4312.81     95.27   4315.15     95.27  " /><path style="stroke-width:1.42 ;&st7;   " d=" M  4319.40,    95.27  C  4321.75     95.27   4323.65     93.37   4323.65     91.02  " /><path style="stroke-width:1.42 ;&st7;   " d=" M  4323.65,    91.02  C  4323.65     88.67   4321.75     86.77   4319.40     86.77  " /><path style="stroke-width:1.42 ;&st7;   " d=" M  4340.65,   163.26  C  4338.30    163.26   4336.40    165.16   4336.40    167.51  " /><path style="stroke-width:1.42 ;&st7;   " d=" M  4336.40,   167.51  C  4336.40    169.85   4338.30    171.76   4340.65    171.76  " /><path style="stroke-width:1.42 ;&st7;   " d=" M  4344.90,   171.76  C  4347.25    171.76   4349.15    169.85   4349.15    167.51  " /><path style="stroke-width:1.42 ;&st7;   " d=" M  4349.15,   167.51  C  4349.15    165.16   4347.25    163.26   4344.90    163.26  " /><path style="stroke-width:1.42 ;&st7;   " d=" M  4317.28,   163.26  C  4315.07    161.44   4311.94    161.49   4309.79    163.40  " /><path style="stroke-width:0.28 ;&st9;  " d=" M  4342.77,   100.16  L  4345.61,   103.00  L  4345.61,    98.75  L  4342.77,    95.92  L  4339.94,    98.75  L  4339.94,   103.00  L  4342.77,   100.16  " /><path style="stroke-width:0.28 ;&st9;  " d=" M  4317.28,   100.16  L  4320.11,   103.00  L  4320.11,    98.75  L  4317.28,    95.92  L  4314.44,    98.75  L  4314.44,   103.00  L  4317.28,   100.16  " /><path style="stroke-width:0.28 ;&st9;  " d=" M  4342.77,   158.36  L  4339.94,   155.53  L  4339.94,   159.78  L  4342.77,   162.61  L  4345.61,   159.78  L  4345.61,   155.53  L  4342.77,   158.36  " /><path style="stroke-width:0.85 ;&st7;  " d=" M  4317.28,   146.26  L  4317.28,   163.26  " /><path style="stroke-width:0.85 ;&st7;  " d=" M  4342.77,   163.26  L  4342.77,   146.26  " /><path style="stroke-width:0.85 ;&st7;  " d=" M  4342.77,    95.27  L  4342.77,   112.27  " /><path style="stroke-width:0.85 ;&st7;  " d=" M  4317.28,   112.27  L  4317.28,    95.27  " /><text style="&st18;" transform="matrix(&st16;  4311.09  154.45 )">2</text><text style="&st18;" transform="matrix(&st16;  4336.59  154.45 )">3</text><text style="&st18;" transform="matrix(&st16;  4311.09  108.58 )">1</text><text style="&st18;" transform="matrix(&st16;  4336.59  108.58 )">5</text><text style="&st18;" transform="matrix(&st16;  4340.97  92.99 )">2</text><text style="&st18;" transform="matrix(&st16;  4315.48  92.99 )">2</text><text style="&st18;" transform="matrix(&st16;  4340.97  169.48 )">2</text><text style="&st18;" transform="matrix(&st17;  4358.91  135.95 )" ewd:textID="94">TAIL <tspan x="0 " dy="6.0">Relay</tspan></text><path style="stroke-width:1.42 ;&st7;  " d=" M  4342.77,   139.18  L  4348.44,   116.52  " /><path style="stroke-width:0.85 ;&st7;  " d=" M  4342.77,   146.26  L  4342.77,   142.01  " /><path style="stroke-width:0.85 ;&st7;  " d=" M  4342.77,   112.27  L  4342.77,   116.52  " /><path style="stroke-width:0.85 ;&st7;  " d=" M  4317.28,   112.27  L  4317.28,   120.77  " /><path style="stroke-width:0.85 ;&st7;  " d=" M  4317.28,   137.76  L  4317.28,   146.26  " /><path style="stroke-width:0.85 ;&st7;   " d=" M  4344.19,   140.60  C  4344.19    139.81   4343.56    139.18   4342.77    139.18  " /><path style="stroke-width:0.85 ;&st7;   " d=" M  4342.77,   139.18  C  4341.99    139.18   4341.36    139.81   4341.36    140.60  " /><path style="stroke-width:0.85 ;&st7;   " d=" M  4341.36,   140.60  C  4341.36    141.38   4341.99    142.01   4342.77    142.01  " /><path style="stroke-width:0.85 ;&st7;   " d=" M  4342.77,   142.01  C  4343.56    142.01   4344.19    141.38   4344.19    140.60  " /><path style="stroke-width:0.85 ;&st7;   " d=" M  4344.19,   117.93  C  4344.19    117.15   4343.56    116.52   4342.77    116.52  " /><path style="stroke-width:0.85 ;&st7;   " d=" M  4342.77,   116.52  C  4341.99    116.52   4341.36    117.15   4341.36    117.93  " /><path style="stroke-width:0.85 ;&st7;   " d=" M  4341.36,   117.93  C  4341.36    118.71   4341.99    119.35   4342.77    119.35  " /><path style="stroke-width:0.85 ;&st7;   " d=" M  4342.77,   119.35  C  4343.56    119.35   4344.19    118.71   4344.19    117.93  " /><path style="stroke-width:0.85 ;&st7;   " d=" M  4314.75,   126.78  C  4316.12    128.18   4318.36    128.20   4319.76    126.84  " /><path style="stroke-width:0.85 ;&st7;   " d=" M  4319.76,   126.84  C  4321.15    125.47   4321.18    123.22   4319.81    121.83  " /><path style="stroke-width:0.85 ;&st7;   " d=" M  4319.81,   121.83  C  4319.12    121.12   4318.27    120.76   4317.28    120.76  " /><path style="stroke-width:0.85 ;&st7;   " d=" M  4314.75,   131.74  C  4316.12    133.14   4318.36    133.16   4319.76    131.79  " /><path style="stroke-width:0.85 ;&st7;   " d=" M  4319.76,   131.79  C  4321.15    130.42   4321.18    128.18   4319.81    126.78  " /><path style="stroke-width:0.85 ;&st7;   " d=" M  4319.81,   126.78  C  4318.44    125.39   4316.20    125.36   4314.80    126.73  " /><path style="stroke-width:0.85 ;&st7;   " d=" M  4314.80,   126.73  C  4314.78    126.75   4314.77    126.77   4314.75    126.78  " /><path style="stroke-width:0.85 ;&st7;   " d=" M  4317.28,   137.76  C  4319.23    137.76   4320.82    136.18   4320.82    134.22  " /><path style="stroke-width:0.85 ;&st7;   " d=" M  4320.82,   134.22  C  4320.82    132.27   4319.23    130.68   4317.28    130.68  " /><path style="stroke-width:0.85 ;&st7;   " d=" M  4317.28,   130.68  C  4316.29    130.68   4315.44    131.04   4314.75    131.74  " /><path style="stroke-width:1.42 ;&st7;  " d=" M  4351.27,   112.27  L  4308.78,   112.27  L  4308.78,   146.26  L  4351.27,   146.26  L  4351.27,   112.27  " /></g><g ewd:figtype="conn" ewd:figID="70" ewd:code="I59,I70"><path style="stroke-width: 0.85 ;&st7; stroke-dasharray:3, 1.5;" d=" M  4249.29,   440.31  L  4313.03,   440.31  " /><path style="stroke-width: 0.85 ;&st7; stroke-dasharray:3, 1.5;" d=" M  4249.29,   431.25  L  4308.78,   431.25  " /><path style="stroke-width:1.42 ;&st7;  " d=" M  4232.29,   426.71  L  4334.27,   426.71  L  4334.27,   409.72  L  4232.29,   409.72  L  4232.29,   426.71  " /><path style="stroke-width:0.85 ;&st7;  " d=" M  4240.79,   409.72  L  4240.79,   426.71  " /><path style="stroke-width:0.85 ;&st7;  " d=" M  4240.79,   418.22  L  4325.78,   418.22  L  4325.78,   426.71  " /><path style="stroke-width:0.85 ;&st7;  " d=" M  4239.60,   417.21  L  4239.33,   417.68  L  4239.23,   418.22  L  4239.33,   418.75  L  4239.60,   419.22  L  4240.01,   419.56  L  4240.52,   419.75  L  4241.06,   419.75  L  4241.57,   419.56  L  4241.98,   419.22  L  4242.25,   418.75  L  4242.35,   418.22  L  4242.25,   417.68  L  4241.98,   417.21  L  4241.57,   416.87  L  4241.06,   416.68  L  4240.52,   416.68  L  4240.01,   416.87  L  4239.60,   417.21  L  4239.99,   417.92  L  4239.99,   418.51  L  4240.36,   418.95  L  4240.94,   419.05  L  4241.44,   418.76  L  4241.64,   418.22  L  4241.44,   417.67  L  4240.94,   417.38  L  4240.36,   417.48  L  4240.79,   418.22  " /><text style="&st18;" transform="matrix(&st16;  4232.1  442.28 )">1</text><text style="&st18;" transform="matrix(&st16;  4232.1  433.22 )">9</text><text style="&st18;" transform="matrix(&st16;  4238.6  442.28 )">B</text><text style="&st18;" transform="matrix(&st16;  4238.49  433.22 )">A</text><path style="stroke-width:1.42 ;&st7;   " d=" M  4245.32,   431.25  C  4245.32    428.74   4243.29    426.71   4240.79    426.71  " /><path style="stroke-width:1.42 ;&st7;   " d=" M  4240.79,   426.71  C  4238.29    426.71   4236.26    428.74   4236.26    431.25  " /><path style="stroke-width:1.42 ;&st7;   " d=" M  4236.26,   431.25  C  4236.26    433.75   4238.29    435.78   4240.79    435.78  " /><path style="stroke-width:1.42 ;&st7;   " d=" M  4240.79,   435.78  C  4243.29    435.78   4245.32    433.75   4245.32    431.25  " /><path style="stroke-width:1.42 ;&st7;   " d=" M  4245.32,   440.31  C  4245.32    437.81   4243.29    435.78   4240.79    435.78  " /><path style="stroke-width:1.42 ;&st7;   " d=" M  4240.79,   435.78  C  4238.29    435.78   4236.26    437.81   4236.26    440.31  " /><path style="stroke-width:1.42 ;&st7;   " d=" M  4236.26,   440.31  C  4236.26    442.81   4238.29    444.84   4240.79    444.84  " /><path style="stroke-width:1.42 ;&st7;   " d=" M  4240.79,   444.84  C  4243.29    444.84   4245.32    442.81   4245.32    440.31  " /><text style="&st18;" transform="matrix(&st16;  4232.1  407.15 )">2</text><text style="&st18;" transform="matrix(&st16;  4232.1  398.09 )">8</text><text style="&st18;" transform="matrix(&st16;  4238.49  398.09 )">A</text><text style="&st18;" transform="matrix(&st16;  4238.6  407.15 )">B</text><path style="stroke-width:1.42 ;&st7;   " d=" M  4245.32,   396.12  C  4245.32    393.62   4243.29    391.59   4240.79    391.59  " /><path style="stroke-width:1.42 ;&st7;   " d=" M  4240.79,   391.59  C  4238.29    391.59   4236.26    393.62   4236.26    396.12  " /><path style="stroke-width:1.42 ;&st7;   " d=" M  4236.26,   396.12  C  4236.26    398.62   4238.29    400.65   4240.79    400.65  " /><path style="stroke-width:1.42 ;&st7;   " d=" M  4240.79,   400.65  C  4243.29    400.65   4245.32    398.62   4245.32    396.12  " /><path style="stroke-width:1.42 ;&st7;   " d=" M  4245.32,   405.18  C  4245.32    402.68   4243.29    400.65   4240.79    400.65  " /><path style="stroke-width:1.42 ;&st7;   " d=" M  4240.79,   400.65  C  4238.29    400.65   4236.26    402.68   4236.26    405.18  " /><path style="stroke-width:1.42 ;&st7;   " d=" M  4236.26,   405.18  C  4236.26    407.69   4238.29    409.72   4240.79    409.72  " /><path style="stroke-width:1.42 ;&st7;   " d=" M  4240.79,   409.72  C  4243.29    409.72   4245.32    407.69   4245.32    405.18  " /><text style="&st18;" transform="matrix(&st16;  4313.98  433.22 )">10</text><text style="&st18;" transform="matrix(&st16;  4317.08  442.28 )">3</text><path style="stroke-width:1.42 ;&st7;   " d=" M  4330.31,   440.31  C  4330.31    437.81   4328.28    435.78   4325.78    435.78  " /><path style="stroke-width:1.42 ;&st7;   " d=" M  4325.78,   435.78  C  4323.27    435.78   4321.24    437.81   4321.24    440.31  " /><path style="stroke-width:1.42 ;&st7;   " d=" M  4321.24,   440.31  C  4321.24    442.81   4323.27    444.84   4325.78    444.84  " /><path style="stroke-width:1.42 ;&st7;   " d=" M  4325.78,   444.84  C  4328.28    444.84   4330.31    442.81   4330.31    440.31  " /><path style="stroke-width:1.42 ;&st7;   " d=" M  4330.31,   431.25  C  4330.31    428.74   4328.28    426.71   4325.78    426.71  " /><path style="stroke-width:1.42 ;&st7;   " d=" M  4325.78,   426.71  C  4323.27    426.71   4321.24    428.74   4321.24    431.25  " /><path style="stroke-width:1.42 ;&st7;   " d=" M  4321.24,   431.25  C  4321.24    433.75   4323.27    435.78   4325.78    435.78  " /><path style="stroke-width:1.42 ;&st7;   " d=" M  4325.78,   435.78  C  4328.28    435.78   4330.31    433.75   4330.31    431.25  " /><text style="&st18;" transform="matrix(&st16;  4323.59  442.28 )">B</text><text style="&st18;" transform="matrix(&st16;  4323.47  433.22 )">A</text><g ewd:figtype="title"><text style="&st18;" transform="matrix(&st16;  4279.88  400.07 )" ewd:textID="68">No. 10 Junction <tspan x="0 " dy="6.0">Connector</tspan></text><text style="&st18;" transform="matrix(&st16;  4279.87  393.25 )">I59(B)</text><text style="&st18;" transform="matrix(&st16;  4279.88  379.96 )" ewd:textID="77">No. 19 Junction <tspan x="0 " dy="6.0">Connector</tspan></text><text style="&st18;" transform="matrix(&st16;  4279.87  373.13 )">I70(A)</text></g><g ewd:code="" ewd:figID="377" ewd:comment="" ewd:figtype="commref"><text style="&st18;" transform="matrix(&st16;  4245.88  407.15 )">(RHD)</text></g><g ewd:code="" ewd:figID="378" ewd:comment="" ewd:figtype="commref"><text style="&st18;" transform="matrix(&st16;  4245.88  398.09 )">(LHD)</text></g><g ewd:code="" ewd:figID="379" ewd:comment="" ewd:figtype="commref"><text style="&st18;" transform="matrix(&st16;  4330.87  442.28 )">(RHD)</text></g><g ewd:code="" ewd:figID="380" ewd:comment="" ewd:figtype="commref"><text style="&st18;" transform="matrix(&st16;  4330.87  433.22 )">(LHD)</text></g></g><g ewd:figtype="conn" ewd:figID="72" ewd:code="I96"><path style="stroke-width:1.42 ;&st7;  " d=" M  4487.25,   511.70  L  4504.25,   511.70  L  4504.25,   494.70  L  4487.25,   494.70  L  4487.25,   511.70  " /><path style="stroke-width:0.85 ;&st7;  " d=" M  4495.75,   511.70  L  4495.75,   494.70  " /><text style="&st18;" transform="matrix(&st16;  4487.05  518.2 )">5</text><text style="&st18;" transform="matrix(&st16;  4493.44  518.2 )">A</text><path style="stroke-width:1.42 ;&st7;   " d=" M  4500.28,   516.23  C  4500.28    513.73   4498.25    511.70   4495.75    511.70  " /><path style="stroke-width:1.42 ;&st7;   " d=" M  4495.75,   511.70  C  4493.25    511.70   4491.22    513.73   4491.22    516.23  " /><path style="stroke-width:1.42 ;&st7;   " d=" M  4491.22,   516.23  C  4491.22    518.74   4493.25    520.76   4495.75    520.76  " /><path style="stroke-width:1.42 ;&st7;   " d=" M  4495.75,   520.76  C  4498.25    520.76   4500.28    518.74   4500.28    516.23  " /><text style="&st18;" transform="matrix(&st16;  4483.95  492.14 )">12</text><text style="&st18;" transform="matrix(&st16;  4493.44  492.14 )">A</text><path style="stroke-width:1.42 ;&st7;   " d=" M  4500.28,   490.17  C  4500.28    487.67   4498.25    485.64   4495.75    485.64  " /><path style="stroke-width:1.42 ;&st7;   " d=" M  4495.75,   485.64  C  4493.25    485.64   4491.22    487.67   4491.22    490.17  " /><path style="stroke-width:1.42 ;&st7;   " d=" M  4491.22,   490.17  C  4491.22    492.67   4493.25    494.70   4495.75    494.70  " /><path style="stroke-width:1.42 ;&st7;   " d=" M  4495.75,   494.70  C  4498.25    494.70   4500.28    492.67   4500.28    490.17  " /><g ewd:figtype="title"><text style="&st18;" transform="matrix(&st17;  4518.97  514.61 )" ewd:textID="78">No. 20 <tspan x="0 " dy="6.0">Junction </tspan><tspan x="0 " dy="6.0">Connector</tspan></text><text style="&st18;" transform="matrix(&st17;  4512.14  514.6 )">I96(A)</text></g></g><g ewd:figtype="conn" ewd:figID="82" ewd:code="A29,C39,I84"><g ewd:lineID="223"><path style="stroke-width:1.42 ;&st7;   " d=" M  4007.36,   261.27  C  4007.36    258.77   4005.33    256.74   4002.83    256.74  " /><path style="stroke-width:1.42 ;&st7;   " d=" M  4002.83,   256.74  C  4000.33    256.74   3998.30    258.77   3998.30    261.27  " /><path style="stroke-width:1.42 ;&st7;   " d=" M  4002.83,   265.81  C  4005.33    265.81   4007.36    263.78   4007.36    261.27  " /><text style="&st18;" transform="matrix(&st16;  4000.64  263.24 )">B</text></g><g ewd:lineID="225,228"><text style="&st18;" transform="matrix(&st16;  4042.03  203.19 )">57</text><text style="&st18;" transform="matrix(&st16;  4042.03  194.12 )">57</text><path style="stroke-width:1.42 ;&st7;   " d=" M  4058.36,   192.15  C  4058.36    189.65   4056.33    187.62   4053.82    187.62  " /><path style="stroke-width:1.42 ;&st7;   " d=" M  4053.82,   187.62  C  4051.32    187.62   4049.29    189.65   4049.29    192.15  " /><path style="stroke-width:1.42 ;&st7;   " d=" M  4049.29,   192.15  C  4049.29    194.66   4051.32    196.69   4053.82    196.69  " /><path style="stroke-width:1.42 ;&st7;   " d=" M  4053.82,   196.69  C  4056.33    196.69   4058.36    194.66   4058.36    192.15  " /><path style="stroke-width:1.42 ;&st7;   " d=" M  4058.36,   201.22  C  4058.36    198.72   4056.33    196.69   4053.82    196.69  " /><path style="stroke-width:1.42 ;&st7;   " d=" M  4053.82,   196.69  C  4051.32    196.69   4049.29    198.72   4049.29    201.22  " /><path style="stroke-width:1.42 ;&st7;   " d=" M  4049.29,   201.22  C  4049.29    203.72   4051.32    205.75   4053.82    205.75  " /><path style="stroke-width:1.42 ;&st7;   " d=" M  4053.82,   205.75  C  4056.33    205.75   4058.36    203.72   4058.36    201.22  " /><text style="&st18;" transform="matrix(&st16;  4051.4  194.12 )">C</text><text style="&st18;" transform="matrix(&st16;  4051.52  203.19 )">A</text><text style="&st18;" transform="matrix(&st16;  4045.55  213.39 )">VCPA</text></g><g ewd:lineID="227"><text style="&st18;" transform="matrix(&st16;  4059.02  263.24 )">70</text><path style="stroke-width:1.42 ;&st7;   " d=" M  4075.35,   261.27  C  4075.35    258.77   4073.32    256.74   4070.82    256.74  " /><path style="stroke-width:1.42 ;&st7;   " d=" M  4070.82,   256.74  C  4068.32    256.74   4066.29    258.77   4066.29    261.27  " /><path style="stroke-width:1.42 ;&st7;   " d=" M  4066.29,   261.27  C  4066.29    263.78   4068.32    265.81   4070.82    265.81  " /><path style="stroke-width:1.42 ;&st7;   " d=" M  4070.82,   265.81  C  4073.32    265.81   4075.35    263.78   4075.35    261.27  " /><text style="&st18;" transform="matrix(&st16;  4068.63  263.24 )">B</text><text style="&st18;" transform="matrix(&st16;  4064.56  253.05 )">PSW</text></g><g ewd:lineID="234,235"><text style="&st18;" transform="matrix(&st16;  4229.0  263.24 )">48</text><text style="&st18;" transform="matrix(&st16;  4229.0  272.31 )">48</text><path style="stroke-width:1.42 ;&st7;   " d=" M  4245.32,   261.27  C  4245.32    258.77   4243.29    256.74   4240.79    256.74  " /><path style="stroke-width:1.42 ;&st7;   " d=" M  4240.79,   256.74  C  4238.29    256.74   4236.26    258.77   4236.26    261.27  " /><path style="stroke-width:1.42 ;&st7;   " d=" M  4236.26,   261.27  C  4236.26    263.78   4238.29    265.81   4240.79    265.81  " /><path style="stroke-width:1.42 ;&st7;   " d=" M  4240.79,   265.81  C  4243.29    265.81   4245.32    263.78   4245.32    261.27  " /><text style="&st18;" transform="matrix(&st16;  4238.49  272.31 )">A</text><text style="&st18;" transform="matrix(&st16;  4238.37  263.24 )">C</text><path style="stroke-width:1.42 ;&st7;   " d=" M  4245.32,   270.34  C  4245.32    267.84   4243.29    265.81   4240.79    265.81  " /><path style="stroke-width:1.42 ;&st7;   " d=" M  4240.79,   265.81  C  4238.29    265.81   4236.26    267.84   4236.26    270.34  " /><path style="stroke-width:1.42 ;&st7;   " d=" M  4236.26,   270.34  C  4236.26    272.84   4238.29    274.87   4240.79    274.87  " /><path style="stroke-width:1.42 ;&st7;   " d=" M  4240.79,   274.87  C  4243.29    274.87   4245.32    272.84   4245.32    270.34  " /><text style="&st18;" transform="matrix(&st16;  4235.0  253.05 )">STA</text><g ewd:code="" ewd:figID="375" ewd:comment="" ewd:figtype="commref"><text style="&st18;" transform="matrix(&st16;  4245.88  272.31 )">(RHD)</text></g><g ewd:code="" ewd:figID="376" ewd:comment="" ewd:figtype="commref"><text style="&st18;" transform="matrix(&st16;  4245.88  263.24 )">(LHD)</text></g></g></g><g ewd:figtype="w2w" ewd:figID="169" ewd:code="AI3"><path style="stroke-width:1.42 ;&st7;  " d=" M  4024.08,   140.03  L  4019.83,   144.28  L  4015.58,   140.03  " /><path style="stroke-width:1.42 ;&st7;  " d=" M  4015.58,   136.63  L  4019.83,   140.88  L  4024.08,   136.63  " /><text style="&st18;" transform="matrix(&st16;  4004.09  151.91 )">50</text></g><g ewd:figtype="w2w" ewd:figID="170" ewd:code="AI3"><path style="stroke-width:1.42 ;&st7;  " d=" M  4100.56,   140.03  L  4096.31,   144.28  L  4092.06,   140.03  " /><path style="stroke-width:1.42 ;&st7;  " d=" M  4092.06,   136.63  L  4096.31,   140.88  L  4100.56,   136.63  " /><text style="&st18;" transform="matrix(&st16;  4080.58  151.91 )">35</text></g><g ewd:figtype="w2w" ewd:figID="171" ewd:code="AI1"><path style="stroke-width:1.42 ;&st7;  " d=" M  4219.54,   155.33  L  4215.29,   151.08  L  4211.04,   155.33  " /><path style="stroke-width:1.42 ;&st7;  " d=" M  4219.54,   151.93  L  4215.29,   147.68  L  4211.04,   151.93  " /><text style="&st18;" transform="matrix(&st16;  4202.66  143.98 )">1</text></g><g ewd:figtype="w2w" ewd:figID="172" ewd:code="AI3"><path style="stroke-width:1.42 ;&st7;  " d=" M  4236.54,   494.14  L  4240.79,   498.39  L  4245.04,   494.14  " /><path style="stroke-width:1.42 ;&st7;  " d=" M  4245.04,   497.54  L  4240.79,   501.78  L  4236.54,   497.54  " /><text style="&st18;" transform="matrix(&st16;  4228.16  509.42 )">7</text></g><g ewd:figtype="w2w" ewd:figID="173" ewd:code="AI3"><path style="stroke-width:1.42 ;&st7;  " d=" M  4245.04,   342.29  L  4240.79,   338.05  L  4236.54,   342.29  " /><path style="stroke-width:1.42 ;&st7;  " d=" M  4245.04,   338.90  L  4240.79,   334.65  L  4236.54,   338.90  " /><text style="&st18;" transform="matrix(&st16;  4225.06  330.95 )">46</text></g><g ewd:figtype="annex" ewd:figID="298" ewd:code=" "><path style="stroke-width:0.85 ;&st7;  " d=" M  4066.57,   404.05  L  4075.07,   404.05  " /><path style="stroke-width:0.85 ;&st7;  " d=" M  4067.99,   406.88  L  4073.65,   406.88  " /><path style="stroke-width:0.85 ;&st7;  " d=" M  4069.40,   409.72  L  4072.23,   409.72  " /><path style="stroke-width:0.85 ;&st7;  " d=" M  4070.82,   392.72  L  4070.82,   401.22  " /><path style="stroke-width:0.85 ;&st7;  " d=" M  4062.32,   401.22  L  4079.32,   401.22  " /></g><g ewd:code="" ewd:figID="358" ewd:comment="" ewd:figtype="commref"><text style="&st18;" transform="matrix(&st16;  4058.92  203.19 )">(RHD)</text></g><g ewd:code="" ewd:figID="359" ewd:comment="" ewd:figtype="commref"><text style="&st18;" transform="matrix(&st16;  4058.92  194.12 )">(LHD)</text></g></svg>