<?xml version="1.0" encoding="utf-8"?>
<!DOCTYPE svg PUBLIC "-//W3C//DTD SVG 1.0//EN" "http://www.w3.org/TR/2001/REC-SVG-20010904/DTD/svg10.dtd"[
	<!ENTITY ns_flows "http://ns.adobe.com/Flows/1.0/">
	<!ENTITY ns_svg "http://www.w3.org/2000/svg">
	<!ENTITY ns_xlink "http://www.w3.org/1999/xlink">
	<!ENTITY st0 "font-size:7px;font-family:'MS-PGothic';adobe-font-script:japanese;">
	<!ENTITY st1 "font-size:6px;font-family:'ArialMT';">
	<!-- White fill  -->
	<!ENTITY st2 "fill:#FFFFFF;stroke:#000000; stroke-width:1.41;stroke-linecap:round;stroke-linejoin:round;">
	<!-- Yellow fill  -->
	<!ENTITY st3 "fill:#FFFFCC;stroke:#FFFFCC; stroke-width:0.1;stroke-linecap:round;stroke-linejoin:round;">
	<!-- Gray fill  -->
	<!ENTITY st4 "fill:#CCCCCC;stroke:#CCCCCC; stroke-width:0.1;stroke-linecap:round;stroke-linejoin:round;">
	<!-- Light-blue fill -->
	<!ENTITY st5 "fill:#CCECF4;stroke:#000000; stroke-width:1.133;stroke-linecap:round;stroke-linejoin:round;">
	<!ENTITY st6 "fill:none;stroke-linecap:butt; stroke-linejoin:round;">
	<!ENTITY st7 "fill:none;stroke:#000000;stroke-linecap:round;stroke-linejoin:round;">
	<!ENTITY st8 "enable-background:new    ;">
	<!-- Black fill -->
	<!ENTITY st9 "fill:#000000;stroke:#000000; stroke-linecap:round;stroke-linejoin:round;">
	<!-- SRS note   -->
	<!ENTITY st10 "font-size:9px;font-family:'ArialMT';">
	<!ENTITY st11 "font-size:9px;font-family:'Svg Symbol';">
	<!ENTITY st12 "font-size:6px;font-family:'Svg Symbol';">
	<!ENTITY st13 "fill:none;stroke:#ff0000;stroke-linecap:round;stroke-linejoin:round;">
	<!-- Yellow fill  -->
	<!ENTITY st14 "fill:#FFFF00;stroke:#FFFF00; stroke-width:0.1;stroke-linecap:round;stroke-linejoin:round;">
	<!ENTITY st15 "font-size:6px;font-family:'MS-PGothic';adobe-font-script:japanese;">
	<!ENTITY st16 "1.00 0.00 0.00 1.00">
	<!ENTITY st17 "0.00 -1.00 1.00 0.00">
	<!ENTITY st18 "font-size:6px;font-family:'Arial';">
	<!ENTITY st19 "font-size:9px;font-family:'Arial';">
	<!ENTITY st20 "font-size:6px;font-family:'MS-PGothic','MS PGothic';adobe-font-script:japanese;">
	<!ENTITY st21 "font-size:7px;font-family:'MS-PGothic','MS PGothic';adobe-font-script:japanese;">
	<!ATTLIST svg
		xmlns:ewd CDATA #FIXED "http://shcl.co.jp/ewd"
		xmlns:a CDATA #FIXED "http://ns.adobe.com/AdobeSVGViewerExtensions/3.0/"
		ewd:ver CDATA #IMPLIED
	>
	<!ATTLIST a
		ewd:lineID CDATA #IMPLIED
		ewd:groupID CDATA #IMPLIED
		ewd:figtype CDATA #IMPLIED
		ewd:code CDATA #IMPLIED
		ewd:figID CDATA #IMPLIED
		ewd:pinNo CDATA #IMPLIED
		ewd:comment CDATA #IMPLIED >
	<!ATTLIST g
		ewd:lineID CDATA #IMPLIED
		ewd:groupID CDATA #IMPLIED
		ewd:figtype CDATA #IMPLIED
		ewd:code CDATA #IMPLIED
		ewd:figID CDATA #IMPLIED
		ewd:pinNo CDATA #IMPLIED
		ewd:comment CDATA #IMPLIED >
	<!ATTLIST text
		ewd:textID CDATA #IMPLIED >
	<!ATTLIST title
		ewd:textID CDATA #IMPLIED >
]>
<!-- Generator: Shintec Hozumi YS   -->
<svg onload="call_execInitLoadProc_svg('system')" style="overflow:visible;  enable-background:new 0 0 5661.925 710.000" viewBox="0 0 5661.925 710.000" height="710.000" width="5661.925" xml:space="preserve" ewd:ver="2.1.2.9" xmlns="&ns_svg;" xmlns:a="http://ns.adobe.com/AdobeSVGViewerExtensions/3.0/" xmlns:ewd="http://shcl.co.jp/ewd" xmlns:xlink="&ns_xlink;">
<path style="stroke-width:1.42 ;&st7;  " d=" M   922.82,   418.22  L   917.85,   423.19  " /><path style="stroke-width:1.42 ;&st7;  " d=" M   929.87,   435.21  L   934.84,   430.24  " /><path style="stroke-width:1.42 ;&st7;  " d=" M   917.85,   430.24  L   922.82,   435.21  " /><path style="stroke-width:1.42 ;&st7;  " d=" M   934.84,   423.19  L   929.87,   418.22  " /><path style="stroke-width:1.42 ;&st7;  " d=" M   956.81,   418.22  L   951.84,   423.19  " /><path style="stroke-width:1.42 ;&st7;  " d=" M   963.87,   435.21  L   968.84,   430.24  " /><path style="stroke-width:1.42 ;&st7;  " d=" M   951.84,   430.24  L   956.81,   435.21  " /><path style="stroke-width:1.42 ;&st7;  " d=" M   968.84,   423.19  L   963.87,   418.22  " /><path style="stroke-width:1.42 ;&st7;  " d=" M   633.86,   333.23  L   628.89,   338.20  " /><path style="stroke-width:1.42 ;&st7;  " d=" M   640.92,   350.23  L   645.89,   345.26  " /><path style="stroke-width:1.42 ;&st7;  " d=" M   628.89,   345.26  L   633.86,   350.23  " /><path style="stroke-width:1.42 ;&st7;  " d=" M   645.89,   338.20  L   640.92,   333.23  " /><path style="stroke-width:1.42 ;&st7;  " d=" M   735.85,   333.23  L   730.88,   338.20  " /><path style="stroke-width:1.42 ;&st7;  " d=" M   742.90,   350.23  L   747.88,   345.26  " /><path style="stroke-width:1.42 ;&st7;  " d=" M   730.88,   345.26  L   735.85,   350.23  " /><path style="stroke-width:1.42 ;&st7;  " d=" M   747.88,   338.20  L   742.90,   333.23  " /><path style="stroke-width:1.42 ;&st7;  " d=" M   735.85,   112.27  L   730.88,   117.24  " /><path style="stroke-width:1.42 ;&st7;  " d=" M   742.90,   129.26  L   747.88,   124.29  " /><path style="stroke-width:1.42 ;&st7;  " d=" M   730.88,   124.29  L   735.85,   129.26  " /><path style="stroke-width:1.42 ;&st7;  " d=" M   747.88,   117.24  L   742.90,   112.27  " /><path style="stroke-width:1.42 ;&st7;  " d=" M   628.89,   401.22  L   637.39,   401.22  " /><path style="stroke-width:1.42 ;&st7;  " d=" M   832.86,   299.24  L   824.36,   299.24  " /><text style="&st18;" transform="matrix(&st17;  922.65  373.18 )">W-B</text><text style="&st18;" transform="matrix(&st17;  956.64  373.18 )">W-B</text><text style="&st18;" transform="matrix(&st17;  659.19  649.38 )">W-B</text><text style="&st18;" transform="matrix(&st17;  922.65  594.14 )">W-B</text><text style="&st18;" transform="matrix(&st17;  956.64  594.14 )">W-B</text><text style="&st18;" transform="matrix(&st16;  779.8  338.03 )">L</text><text style="&st18;" transform="matrix(&st16;  698.93  304.04 )">W-B</text><text style="&st18;" transform="matrix(&st17;  574.21  381.56 )">L-W</text><text style="&st18;" transform="matrix(&st17;  820.67  207.32 )">L</text><text style="&st18;" transform="matrix(&st17;  599.7  381.56 )">L-W</text><text style="&st18;" transform="matrix(&st17;  633.7  305.07 )">L-W</text><text style="&st18;" transform="matrix(&st17;  735.68  300.81 )">L</text><text style="&st18;" transform="matrix(&st17;  735.68  377.3 )">L</text><text style="&st18;" transform="matrix(&st17;  633.7  381.56 )">L-W</text><text style="&st18;" transform="matrix(&st17;  659.19  585.64 )">W-B</text><text style="&st18;" transform="matrix(&st17;  659.19  381.68 )">W-B</text><text style="&st18;" transform="matrix(&st17;  735.68  155.61 )">R-B</text><text style="&st18;" transform="matrix(&st16;  698.66  134.07 )">W-G</text><text style="&st18;" transform="matrix(&st16;  699.78  117.07 )">R-B</text><text style="&st18;" transform="matrix(&st16;  759.27  117.07 )">R-B</text><text style="&st18;" transform="matrix(&st16;  698.66  159.56 )">W-G</text><text style="&st18;" transform="matrix(&st16;  609.9  159.56 )">P</text><text style="&st18;" transform="matrix(&st16;  541.84  525.0 )">L</text><text style="&st18;" transform="matrix(&st16;  541.8  542.0 )">R</text><text style="&st18;" transform="matrix(&st16;  537.46  660.98 )">W-B</text><text style="&st18;" transform="matrix(&st17;  633.7  449.55 )">L-W</text><g ewd:figtype="rb" ewd:figID="2" ewd:code="FUSE49"><path style="stroke-width:0.85 ;&st7;  " d=" M   662.89,    78.27  L   662.89,    95.27  " /><path style="stroke-width:1.42 ;&st7;  " d=" M   665.01,   103.77  L   660.76,   103.77  " /><path style="stroke-width:1.42 ;&st7;  " d=" M   665.01,    95.27  L   660.76,    95.27  " /><path style="stroke-width:1.42 ;&st7;   " d=" M   665.01,   103.77  C   667.36    103.77    669.26    101.87    669.26     99.52  " /><path style="stroke-width:1.42 ;&st7;   " d=" M   656.52,    99.52  C   656.52    101.87    658.42    103.77    660.76    103.77  " /><path style="stroke-width:1.42 ;&st7;   " d=" M   660.76,    95.27  C   658.42     95.27    656.52     97.17    656.52     99.52  " /><path style="stroke-width:0.28 ;&st9;  " d=" M   662.89,    90.37  L   660.06,    87.54  L   660.06,    91.79  L   662.89,    94.62  L   665.72,    91.79  L   665.72,    87.54  L   662.89,    90.37  " /><text style="&st18;" transform="matrix(&st16;  654.85  32.08 )">(BAT)</text><text style="&st18;" transform="matrix(&st16;  656.7  86.47 )">2</text><text style="&st18;" transform="matrix(&st16;  661.09  101.49 )">4</text><text style="&st18;" transform="matrix(&st16;  679.31  56.17 )">15A <tspan x="0 " dy="6.0">EFI MAIN</tspan></text><path style="stroke-width:1.42 ;&st7;   " d=" M   669.26,    99.52  C   669.26     97.17    667.36     95.27    665.01     95.27  " /><path style="stroke-width:0.85 ;&st7;  " d=" M   662.89,    69.77  L   662.89,    78.27  " /><path style="stroke-width:0.85 ;&st7;   " d=" M   664.31,    68.36  C   664.31     67.57    663.67     66.94    662.89     66.94  " /><path style="stroke-width:0.85 ;&st7;   " d=" M   662.89,    66.94  C   662.11     66.94    661.47     67.57    661.47     68.36  " /><path style="stroke-width:0.85 ;&st7;   " d=" M   661.47,    68.36  C   661.47     69.14    662.11     69.77    662.89     69.77  " /><path style="stroke-width:0.85 ;&st7;   " d=" M   662.89,    69.77  C   663.67     69.77    664.31     69.14    664.31     68.36  " /><path style="stroke-width:0.85 ;&st7;   " d=" M   664.31,    45.69  C   664.31     44.91    663.67     44.28    662.89     44.28  " /><path style="stroke-width:0.85 ;&st7;   " d=" M   662.89,    44.28  C   662.11     44.28    661.47     44.91    661.47     45.69  " /><path style="stroke-width:0.85 ;&st7;   " d=" M   661.47,    45.69  C   661.47     46.48    662.11     47.11    662.89     47.11  " /><path style="stroke-width:0.85 ;&st7;   " d=" M   662.89,    47.11  C   663.67     47.11    664.31     46.48    664.31     45.69  " /><path style="stroke-width:1.42 ;&st7;   " d=" M   662.89,    66.94  C   665.63     65.33    666.54     61.80    664.93     59.06  " /><path style="stroke-width:1.42 ;&st7;   " d=" M   664.93,    59.06  C   664.41     58.18    663.77     57.55    662.89     57.03  " /><path style="stroke-width:1.42 ;&st7;   " d=" M   662.89,    47.11  C   660.15     48.72    659.24     52.25    660.85     54.99  " /><path style="stroke-width:1.42 ;&st7;   " d=" M   660.85,    54.99  C   661.37     55.87    662.01     56.51    662.89     57.03  " /><path style="stroke-width:1.42 ;&st7;  " d=" M   650.14,    35.78  L   650.14,    78.27  L   675.64,    78.27  L   675.64,    35.78  L   650.14,    35.78  " /></g><g ewd:figtype="rb" ewd:figID="3" ewd:code="FUSE50"><path style="stroke-width:1.42 ;&st7;  " d=" M   571.53,    95.27  L   567.28,    95.27  " /><path style="stroke-width:1.42 ;&st7;  " d=" M   571.53,   103.77  L   567.28,   103.77  " /><path style="stroke-width:0.85 ;&st7;  " d=" M   569.40,    78.27  L   569.40,    95.27  " /><path style="stroke-width:1.42 ;&st7;   " d=" M   567.28,    95.27  C   564.93     95.27    563.03     97.17    563.03     99.52  " /><path style="stroke-width:1.42 ;&st7;   " d=" M   563.03,    99.52  C   563.03    101.87    564.93    103.77    567.28    103.77  " /><path style="stroke-width:1.42 ;&st7;   " d=" M   571.53,   103.77  C   573.88    103.77    575.78    101.87    575.78     99.52  " /><path style="stroke-width:1.42 ;&st7;   " d=" M   575.78,    99.52  C   575.78     97.17    573.88     95.27    571.53     95.27  " /><path style="stroke-width:0.28 ;&st9;  " d=" M   569.40,    90.37  L   566.57,    87.54  L   566.57,    91.79  L   569.40,    94.62  L   572.24,    91.79  L   572.24,    87.54  L   569.40,    90.37  " /><text style="&st18;" transform="matrix(&st16;  585.83  53.34 )">15A <tspan x="0 " dy="6.0">EFI </tspan><tspan x="0 " dy="6.0">MAIN2</tspan></text><text style="&st18;" transform="matrix(&st16;  567.6  101.49 )">4</text><text style="&st18;" transform="matrix(&st16;  563.22  86.47 )">2</text><text style="&st18;" transform="matrix(&st16;  561.36  32.08 )">(BAT)</text><path style="stroke-width:0.85 ;&st7;  " d=" M   569.40,    69.77  L   569.40,    78.27  " /><path style="stroke-width:1.42 ;&st7;   " d=" M   569.40,    47.11  C   566.67     48.72    565.76     52.25    567.37     54.99  " /><path style="stroke-width:1.42 ;&st7;   " d=" M   567.37,    54.99  C   567.89     55.87    568.52     56.51    569.40     57.03  " /><path style="stroke-width:1.42 ;&st7;   " d=" M   569.40,    66.94  C   572.14     65.33    573.05     61.80    571.44     59.06  " /><path style="stroke-width:1.42 ;&st7;   " d=" M   571.44,    59.06  C   570.92     58.18    570.29     57.55    569.40     57.03  " /><path style="stroke-width:0.85 ;&st7;   " d=" M   570.82,    45.69  C   570.82     44.91    570.19     44.28    569.40     44.28  " /><path style="stroke-width:0.85 ;&st7;   " d=" M   569.40,    44.28  C   568.62     44.28    567.99     44.91    567.99     45.69  " /><path style="stroke-width:0.85 ;&st7;   " d=" M   567.99,    45.69  C   567.99     46.48    568.62     47.11    569.40     47.11  " /><path style="stroke-width:0.85 ;&st7;   " d=" M   569.40,    47.11  C   570.19     47.11    570.82     46.48    570.82     45.69  " /><path style="stroke-width:0.85 ;&st7;   " d=" M   570.82,    68.36  C   570.82     67.57    570.19     66.94    569.40     66.94  " /><path style="stroke-width:0.85 ;&st7;   " d=" M   569.40,    66.94  C   568.62     66.94    567.99     67.57    567.99     68.36  " /><path style="stroke-width:0.85 ;&st7;   " d=" M   567.99,    68.36  C   567.99     69.14    568.62     69.77    569.40     69.77  " /><path style="stroke-width:0.85 ;&st7;   " d=" M   569.40,    69.77  C   570.19     69.77    570.82     69.14    570.82     68.36  " /><path style="stroke-width:1.42 ;&st7;  " d=" M   556.66,    35.78  L   556.66,    78.27  L   582.15,    78.27  L   582.15,    35.78  L   556.66,    35.78  " /></g><g ewd:figtype="rb" ewd:figID="7" ewd:code="1"><path style="stroke-width:1.42 ;&st7;  " d=" M   665.01,   273.74  L   660.76,   273.74  " /><path style="stroke-width:1.42 ;&st7;  " d=" M   665.01,   282.24  L   660.76,   282.24  " /><path style="stroke-width:1.42 ;&st7;  " d=" M   639.52,   273.74  L   635.27,   273.74  " /><path style="stroke-width:1.42 ;&st7;  " d=" M   639.52,   282.24  L   635.27,   282.24  " /><path style="stroke-width:1.42 ;&st7;  " d=" M   639.52,   188.75  L   635.27,   188.75  " /><path style="stroke-width:1.42 ;&st7;  " d=" M   639.52,   180.26  L   635.27,   180.26  " /><path style="stroke-width:1.42 ;&st7;  " d=" M   665.01,   188.75  L   660.76,   188.75  " /><path style="stroke-width:1.42 ;&st7;  " d=" M   665.01,   180.26  L   660.76,   180.26  " /><path style="stroke-width:1.42 ;&st7;   " d=" M   643.77,   277.99  C   643.77    275.64    641.86    273.74    639.52    273.74  " /><path style="stroke-width:1.42 ;&st7;   " d=" M   639.52,   282.24  C   641.86    282.24    643.77    280.34    643.77    277.99  " /><path style="stroke-width:1.42 ;&st7;   " d=" M   660.76,   273.74  C   658.42    273.74    656.52    275.64    656.52    277.99  " /><path style="stroke-width:1.42 ;&st7;   " d=" M   656.52,   277.99  C   656.52    280.34    658.42    282.24    660.76    282.24  " /><path style="stroke-width:1.42 ;&st7;   " d=" M   665.01,   282.24  C   667.36    282.24    669.26    280.34    669.26    277.99  " /><path style="stroke-width:1.42 ;&st7;   " d=" M   635.27,   273.74  C   632.92    273.74    631.02    275.64    631.02    277.99  " /><path style="stroke-width:1.42 ;&st7;   " d=" M   631.02,   277.99  C   631.02    280.34    632.92    282.24    635.27    282.24  " /><path style="stroke-width:1.42 ;&st7;   " d=" M   669.26,   277.99  C   669.26    275.64    667.36    273.74    665.01    273.74  " /><path style="stroke-width:1.42 ;&st7;   " d=" M   643.77,   184.50  C   643.77    182.16    641.86    180.26    639.52    180.26  " /><path style="stroke-width:1.42 ;&st7;   " d=" M   639.52,   188.75  C   641.86    188.75    643.77    186.85    643.77    184.50  " /><path style="stroke-width:1.42 ;&st7;   " d=" M   635.27,   180.26  C   632.92    180.26    631.02    182.16    631.02    184.50  " /><path style="stroke-width:1.42 ;&st7;   " d=" M   669.26,   184.50  C   669.26    182.16    667.36    180.26    665.01    180.26  " /><path style="stroke-width:1.42 ;&st7;   " d=" M   665.01,   188.75  C   667.36    188.75    669.26    186.85    669.26    184.50  " /><path style="stroke-width:1.42 ;&st7;   " d=" M   656.52,   184.50  C   656.52    186.85    658.42    188.75    660.76    188.75  " /><path style="stroke-width:1.42 ;&st7;   " d=" M   660.76,   180.26  C   658.42    180.26    656.52    182.16    656.52    184.50  " /><path style="stroke-width:1.42 ;&st7;   " d=" M   631.02,   184.50  C   631.02    186.85    632.92    188.75    635.27    188.75  " /><path style="stroke-width:0.28 ;&st9;  " d=" M   637.39,   268.84  L   634.56,   266.01  L   634.56,   270.26  L   637.39,   273.09  L   640.23,   270.26  L   640.23,   266.01  L   637.39,   268.84  " /><path style="stroke-width:0.85 ;&st7;  " d=" M   637.39,   273.74  L   637.39,   248.24  " /><path style="stroke-width:0.28 ;&st9;  " d=" M   662.89,   268.84  L   660.06,   266.01  L   660.06,   270.26  L   662.89,   273.09  L   665.72,   270.26  L   665.72,   266.01  L   662.89,   268.84  " /><path style="stroke-width:0.85 ;&st7;  " d=" M   662.89,   273.74  L   662.89,   248.24  " /><path style="stroke-width:0.85 ;&st7;  " d=" M   637.39,   214.25  L   637.39,   188.75  " /><path style="stroke-width:0.28 ;&st9;  " d=" M   637.39,   193.65  L   640.23,   196.48  L   640.23,   192.23  L   637.39,   189.40  L   634.56,   192.23  L   634.56,   196.48  L   637.39,   193.65  " /><path style="stroke-width:0.28 ;&st9;  " d=" M   662.89,   193.65  L   665.72,   196.48  L   665.72,   192.23  L   662.89,   189.40  L   660.06,   192.23  L   660.06,   196.48  L   662.89,   193.65  " /><path style="stroke-width:0.85 ;&st7;  " d=" M   662.89,   214.25  L   662.89,   188.75  " /><text style="&st18;" transform="matrix(&st16;  635.59  279.96 )">1</text><text style="&st18;" transform="matrix(&st17;  679.02  240.03 )" ewd:textID="41">MAIN2 <tspan x="0 " dy="6.0">Relay</tspan></text><text style="&st18;" transform="matrix(&st16;  661.09  279.96 )">1</text><text style="&st18;" transform="matrix(&st16;  635.59  186.47 )">1</text><text style="&st18;" transform="matrix(&st16;  661.09  186.47 )">1</text><text style="&st18;" transform="matrix(&st16;  656.7  210.56 )">1</text><text style="&st18;" transform="matrix(&st16;  631.21  210.56 )">5</text><text style="&st18;" transform="matrix(&st16;  631.21  256.44 )">3</text><text style="&st18;" transform="matrix(&st16;  656.7  256.44 )">2</text><path style="stroke-width:0.85 ;&st7;  " d=" M   662.89,   239.75  L   662.89,   248.24  " /><path style="stroke-width:0.85 ;&st7;  " d=" M   662.89,   214.25  L   662.89,   222.75  " /><path style="stroke-width:0.85 ;&st7;  " d=" M   637.39,   218.50  L   637.39,   214.25  " /><path style="stroke-width:1.42 ;&st7;  " d=" M   637.39,   241.16  L   631.73,   218.50  " /><path style="stroke-width:0.85 ;&st7;  " d=" M   637.39,   248.24  L   637.39,   243.99  " /><path style="stroke-width:0.85 ;&st7;   " d=" M   662.89,   239.75  C   664.84    239.75    666.43    238.16    666.43    236.20  " /><path style="stroke-width:0.85 ;&st7;   " d=" M   666.43,   236.20  C   666.43    234.25    664.84    232.66    662.89    232.66  " /><path style="stroke-width:0.85 ;&st7;   " d=" M   662.89,   232.66  C   661.90    232.66    661.05    233.02    660.36    233.73  " /><path style="stroke-width:0.85 ;&st7;   " d=" M   660.36,   233.73  C   661.73    235.12    663.97    235.15    665.37    233.78  " /><path style="stroke-width:0.85 ;&st7;   " d=" M   665.37,   233.78  C   666.77    232.41    666.79    230.17    665.42    228.77  " /><path style="stroke-width:0.85 ;&st7;   " d=" M   665.42,   228.77  C   664.05    227.37    661.81    227.35    660.41    228.72  " /><path style="stroke-width:0.85 ;&st7;   " d=" M   660.41,   228.72  C   660.39    228.73    660.38    228.75    660.36    228.77  " /><path style="stroke-width:0.85 ;&st7;   " d=" M   660.36,   228.77  C   661.73    230.17    663.97    230.19    665.37    228.82  " /><path style="stroke-width:0.85 ;&st7;   " d=" M   665.37,   228.82  C   666.77    227.45    666.79    225.21    665.42    223.81  " /><path style="stroke-width:0.85 ;&st7;   " d=" M   665.42,   223.81  C   664.73    223.10    663.88    222.75    662.89    222.75  " /><path style="stroke-width:0.85 ;&st7;   " d=" M   638.81,   219.92  C   638.81    219.13    638.18    218.50    637.39    218.50  " /><path style="stroke-width:0.85 ;&st7;   " d=" M   637.39,   218.50  C   636.61    218.50    635.98    219.13    635.98    219.92  " /><path style="stroke-width:0.85 ;&st7;   " d=" M   635.98,   219.92  C   635.98    220.70    636.61    221.33    637.39    221.33  " /><path style="stroke-width:0.85 ;&st7;   " d=" M   637.39,   221.33  C   638.18    221.33    638.81    220.70    638.81    219.92  " /><path style="stroke-width:0.85 ;&st7;   " d=" M   638.81,   242.58  C   638.81    241.80    638.18    241.16    637.39    241.16  " /><path style="stroke-width:0.85 ;&st7;   " d=" M   637.39,   241.16  C   636.61    241.16    635.98    241.80    635.98    242.58  " /><path style="stroke-width:0.85 ;&st7;   " d=" M   635.98,   242.58  C   635.98    243.36    636.61    243.99    637.39    243.99  " /><path style="stroke-width:0.85 ;&st7;   " d=" M   637.39,   243.99  C   638.18    243.99    638.81    243.36    638.81    242.58  " /><path style="stroke-width:1.42 ;&st7;  " d=" M   671.39,   214.25  L   628.89,   214.25  L   628.89,   248.24  L   671.39,   248.24  L   671.39,   214.25  " /></g><g ewd:figtype="rb" ewd:figID="8" ewd:code="1"><path style="stroke-width:1.42 ;&st7;  " d=" M   767.00,   273.74  L   762.75,   273.74  " /><path style="stroke-width:1.42 ;&st7;  " d=" M   767.00,   282.24  L   762.75,   282.24  " /><path style="stroke-width:1.42 ;&st7;  " d=" M   741.50,   273.74  L   737.25,   273.74  " /><path style="stroke-width:1.42 ;&st7;  " d=" M   741.50,   282.24  L   737.25,   282.24  " /><path style="stroke-width:1.42 ;&st7;  " d=" M   741.50,   180.26  L   737.25,   180.26  " /><path style="stroke-width:1.42 ;&st7;  " d=" M   741.50,   188.75  L   737.25,   188.75  " /><path style="stroke-width:1.42 ;&st7;  " d=" M   767.00,   180.26  L   762.75,   180.26  " /><path style="stroke-width:1.42 ;&st7;  " d=" M   767.00,   188.75  L   762.75,   188.75  " /><path style="stroke-width:1.42 ;&st7;   " d=" M   745.75,   277.99  C   745.75    275.64    743.85    273.74    741.50    273.74  " /><path style="stroke-width:1.42 ;&st7;   " d=" M   741.50,   282.24  C   743.85    282.24    745.75    280.34    745.75    277.99  " /><path style="stroke-width:1.42 ;&st7;   " d=" M   758.50,   277.99  C   758.50    280.34    760.40    282.24    762.75    282.24  " /><path style="stroke-width:1.42 ;&st7;   " d=" M   767.00,   282.24  C   769.34    282.24    771.25    280.34    771.25    277.99  " /><path style="stroke-width:1.42 ;&st7;   " d=" M   771.25,   277.99  C   771.25    275.64    769.34    273.74    767.00    273.74  " /><path style="stroke-width:1.42 ;&st7;   " d=" M   762.75,   273.74  C   760.40    273.74    758.50    275.64    758.50    277.99  " /><path style="stroke-width:1.42 ;&st7;   " d=" M   737.25,   273.74  C   734.91    273.74    733.00    275.64    733.00    277.99  " /><path style="stroke-width:1.42 ;&st7;   " d=" M   733.00,   277.99  C   733.00    280.34    734.91    282.24    737.25    282.24  " /><path style="stroke-width:1.42 ;&st7;   " d=" M   745.75,   184.50  C   745.75    182.16    743.85    180.26    741.50    180.26  " /><path style="stroke-width:1.42 ;&st7;   " d=" M   733.00,   184.50  C   733.00    186.85    734.91    188.75    737.25    188.75  " /><path style="stroke-width:1.42 ;&st7;   " d=" M   737.25,   180.26  C   734.91    180.26    733.00    182.16    733.00    184.50  " /><path style="stroke-width:1.42 ;&st7;   " d=" M   741.50,   188.75  C   743.85    188.75    745.75    186.85    745.75    184.50  " /><path style="stroke-width:1.42 ;&st7;   " d=" M   771.25,   184.50  C   771.25    182.16    769.34    180.26    767.00    180.26  " /><path style="stroke-width:1.42 ;&st7;   " d=" M   758.50,   184.50  C   758.50    186.85    760.40    188.75    762.75    188.75  " /><path style="stroke-width:1.42 ;&st7;   " d=" M   762.75,   180.26  C   760.40    180.26    758.50    182.16    758.50    184.50  " /><path style="stroke-width:1.42 ;&st7;   " d=" M   767.00,   188.75  C   769.34    188.75    771.25    186.85    771.25    184.50  " /><path style="stroke-width:0.85 ;&st7;  " d=" M   739.38,   273.74  L   739.38,   248.24  " /><path style="stroke-width:0.28 ;&st9;  " d=" M   739.38,   268.84  L   736.54,   266.01  L   736.54,   270.26  L   739.38,   273.09  L   742.21,   270.26  L   742.21,   266.01  L   739.38,   268.84  " /><path style="stroke-width:0.28 ;&st9;  " d=" M   764.87,   268.84  L   762.04,   266.01  L   762.04,   270.26  L   764.87,   273.09  L   767.70,   270.26  L   767.70,   266.01  L   764.87,   268.84  " /><path style="stroke-width:0.85 ;&st7;  " d=" M   764.87,   273.74  L   764.87,   248.24  " /><path style="stroke-width:0.28 ;&st9;  " d=" M   739.38,   193.65  L   742.21,   196.48  L   742.21,   192.23  L   739.38,   189.40  L   736.54,   192.23  L   736.54,   196.48  L   739.38,   193.65  " /><path style="stroke-width:0.85 ;&st7;  " d=" M   739.38,   214.25  L   739.38,   188.75  " /><path style="stroke-width:0.28 ;&st9;  " d=" M   764.87,   193.65  L   767.70,   196.48  L   767.70,   192.23  L   764.87,   189.40  L   762.04,   192.23  L   762.04,   196.48  L   764.87,   193.65  " /><path style="stroke-width:0.85 ;&st7;  " d=" M   764.87,   214.25  L   764.87,   188.75  " /><text style="&st18;" transform="matrix(&st16;  737.58  279.96 )">1</text><text style="&st18;" transform="matrix(&st17;  781.01  238.48 )" ewd:textID="42">MAIN <tspan x="0 " dy="6.0">Relay</tspan></text><text style="&st18;" transform="matrix(&st16;  763.07  279.96 )">1</text><text style="&st18;" transform="matrix(&st16;  737.58  186.47 )">1</text><text style="&st18;" transform="matrix(&st16;  763.07  186.47 )">1</text><text style="&st18;" transform="matrix(&st16;  758.69  210.56 )">1</text><text style="&st18;" transform="matrix(&st16;  758.69  256.44 )">2</text><text style="&st18;" transform="matrix(&st16;  733.19  256.44 )">3</text><text style="&st18;" transform="matrix(&st16;  733.19  210.56 )">5</text><path style="stroke-width:0.85 ;&st7;  " d=" M   764.87,   214.25  L   764.87,   222.75  " /><path style="stroke-width:0.85 ;&st7;  " d=" M   764.87,   239.75  L   764.87,   248.24  " /><path style="stroke-width:0.85 ;&st7;  " d=" M   739.38,   248.24  L   739.38,   243.99  " /><path style="stroke-width:1.42 ;&st7;  " d=" M   739.38,   241.16  L   733.71,   218.50  " /><path style="stroke-width:0.85 ;&st7;  " d=" M   739.38,   218.50  L   739.38,   214.25  " /><path style="stroke-width:0.85 ;&st7;   " d=" M   764.87,   239.75  C   766.83    239.75    768.41    238.16    768.41    236.20  " /><path style="stroke-width:0.85 ;&st7;   " d=" M   768.41,   236.20  C   768.41    234.25    766.83    232.66    764.87    232.66  " /><path style="stroke-width:0.85 ;&st7;   " d=" M   764.87,   232.66  C   763.88    232.66    763.04    233.02    762.34    233.73  " /><path style="stroke-width:0.85 ;&st7;   " d=" M   762.34,   233.73  C   763.71    235.12    765.95    235.15    767.35    233.78  " /><path style="stroke-width:0.85 ;&st7;   " d=" M   767.35,   233.78  C   768.75    232.41    768.77    230.17    767.40    228.77  " /><path style="stroke-width:0.85 ;&st7;   " d=" M   767.40,   228.77  C   766.03    227.37    763.79    227.35    762.39    228.72  " /><path style="stroke-width:0.85 ;&st7;   " d=" M   762.39,   228.72  C   762.38    228.73    762.36    228.75    762.34    228.77  " /><path style="stroke-width:0.85 ;&st7;   " d=" M   740.79,   242.58  C   740.79    241.80    740.16    241.16    739.38    241.16  " /><path style="stroke-width:0.85 ;&st7;   " d=" M   739.38,   241.16  C   738.59    241.16    737.96    241.80    737.96    242.58  " /><path style="stroke-width:0.85 ;&st7;   " d=" M   737.96,   242.58  C   737.96    243.36    738.59    243.99    739.38    243.99  " /><path style="stroke-width:0.85 ;&st7;   " d=" M   739.38,   243.99  C   740.16    243.99    740.79    243.36    740.79    242.58  " /><path style="stroke-width:0.85 ;&st7;   " d=" M   740.79,   219.92  C   740.79    219.13    740.16    218.50    739.38    218.50  " /><path style="stroke-width:0.85 ;&st7;   " d=" M   739.38,   218.50  C   738.59    218.50    737.96    219.13    737.96    219.92  " /><path style="stroke-width:0.85 ;&st7;   " d=" M   737.96,   219.92  C   737.96    220.70    738.59    221.33    739.38    221.33  " /><path style="stroke-width:0.85 ;&st7;   " d=" M   739.38,   221.33  C   740.16    221.33    740.79    220.70    740.79    219.92  " /><path style="stroke-width:0.85 ;&st7;   " d=" M   762.34,   228.77  C   763.71    230.17    765.95    230.19    767.35    228.82  " /><path style="stroke-width:0.85 ;&st7;   " d=" M   767.35,   228.82  C   768.75    227.45    768.77    225.21    767.40    223.81  " /><path style="stroke-width:0.85 ;&st7;   " d=" M   767.40,   223.81  C   766.71    223.10    765.86    222.75    764.87    222.75  " /><path style="stroke-width:1.42 ;&st7;  " d=" M   773.37,   214.25  L   730.88,   214.25  L   730.88,   248.24  L   773.37,   248.24  L   773.37,   214.25  " /></g><g ewd:figtype="conn" ewd:figID="9" ewd:code="A22"><path style="stroke-width:1.42 ;&st7;  " d=" M   654.39,   605.18  L   671.39,   605.18  L   671.39,   622.18  L   654.39,   622.18  L   654.39,   605.18  " /><path style="stroke-width:0.85 ;&st7;  " d=" M   662.89,   605.18  L   662.89,   622.18  " /><text style="&st18;" transform="matrix(&st16;  654.2  628.68 )">3</text><text style="&st18;" transform="matrix(&st16;  660.58  628.68 )">A</text><path style="stroke-width:1.42 ;&st7;   " d=" M   667.42,   626.71  C   667.42    624.21    665.39    622.18    662.89    622.18  " /><path style="stroke-width:1.42 ;&st7;   " d=" M   662.89,   622.18  C   660.39    622.18    658.36    624.21    658.36    626.71  " /><path style="stroke-width:1.42 ;&st7;   " d=" M   658.36,   626.71  C   658.36    629.22    660.39    631.25    662.89    631.25  " /><path style="stroke-width:1.42 ;&st7;   " d=" M   662.89,   631.25  C   665.39    631.25    667.42    629.22    667.42    626.71  " /><text style="&st18;" transform="matrix(&st16;  654.2  602.62 )">2</text><text style="&st18;" transform="matrix(&st16;  660.58  602.62 )">A</text><path style="stroke-width:1.42 ;&st7;   " d=" M   667.42,   600.65  C   667.42    598.15    665.39    596.12    662.89    596.12  " /><path style="stroke-width:1.42 ;&st7;   " d=" M   662.89,   596.12  C   660.39    596.12    658.36    598.15    658.36    600.65  " /><path style="stroke-width:1.42 ;&st7;   " d=" M   658.36,   600.65  C   658.36    603.15    660.39    605.18    662.89    605.18  " /><path style="stroke-width:1.42 ;&st7;   " d=" M   662.89,   605.18  C   665.39    605.18    667.42    603.15    667.42    600.65  " /><g ewd:figtype="title"><text style="&st18;" transform="matrix(&st17;  679.28  625.08 )">A22(A)</text><text style="&st18;" transform="matrix(&st17;  686.11  625.09 )" ewd:textID="43">No. 1 Junction <tspan x="0 " dy="6.0">Connector</tspan></text></g></g><g ewd:figtype="w2w" ewd:figID="100" ewd:code="CA3"><path style="stroke-width:1.42 ;&st7;  " d=" M   633.14,   392.15  L   637.39,   396.40  L   641.64,   392.15  " /><path style="stroke-width:1.42 ;&st7;  " d=" M   641.64,   395.55  L   637.39,   399.80  L   633.14,   395.55  " /><text style="&st18;" transform="matrix(&st16;  624.76  407.44 )">3</text></g><g ewd:figtype="w2w" ewd:figID="101" ewd:code="CA3"><path style="stroke-width:1.42 ;&st7;  " d=" M   828.61,   308.30  L   824.36,   304.05  L   820.11,   308.30  " /><path style="stroke-width:1.42 ;&st7;  " d=" M   828.61,   304.90  L   824.36,   300.65  L   820.11,   304.90  " /><text style="&st18;" transform="matrix(&st16;  808.63  296.96 )">13</text></g><g ewd:figtype="gp" ewd:figID="149" ewd:code="AA"><path style="stroke-width: 0.85 ;&st7;  " d=" M   661.47,   710.00  L   664.31,   710.00  " /><path style="stroke-width: 0.85 ;&st7;  " d=" M   660.06,   707.17  L   665.72,   707.17  " /><path style="stroke-width: 0.85 ;&st7;  " d=" M   658.64,   704.33  L   667.14,   704.33  " /><path style="stroke-width: 0.85 ;&st7;  " d=" M   654.39,   701.50  L   671.39,   701.50  " /><path style="stroke-width: 0.85 ;&st7;  " d=" M   662.89,   697.25  L   662.89,   701.50  " /></g><g ewd:figtype="gp" ewd:figID="150" ewd:code="CE"><path style="stroke-width: 0.85 ;&st7;  " d=" M   924.93,   710.00  L   927.76,   710.00  " /><path style="stroke-width: 0.85 ;&st7;  " d=" M   923.51,   707.17  L   929.18,   707.17  " /><path style="stroke-width: 0.85 ;&st7;  " d=" M   922.10,   704.33  L   930.59,   704.33  " /><path style="stroke-width: 0.85 ;&st7;  " d=" M   917.85,   701.50  L   934.84,   701.50  " /><path style="stroke-width: 0.85 ;&st7;  " d=" M   926.34,   697.25  L   926.34,   701.50  " /></g></svg>