<?xml version="1.0" encoding="utf-8"?>
<!DOCTYPE svg PUBLIC "-//W3C//DTD SVG 1.0//EN" "http://www.w3.org/TR/2001/REC-SVG-20010904/DTD/svg10.dtd"[
	<!ENTITY ns_flows "http://ns.adobe.com/Flows/1.0/">
	<!ENTITY ns_svg "http://www.w3.org/2000/svg">
	<!ENTITY ns_xlink "http://www.w3.org/1999/xlink">
	<!ENTITY st0 "font-size:7px;font-family:'MS-PGothic';adobe-font-script:japanese;">
	<!ENTITY st1 "font-size:6px;font-family:'ArialMT';">
	<!-- White fill  -->
	<!ENTITY st2 "fill:#FFFFFF;stroke:#000000; stroke-width:1.41;stroke-linecap:round;stroke-linejoin:round;">
	<!-- Yellow fill  -->
	<!ENTITY st3 "fill:#FFFFCC;stroke:#FFFFCC; stroke-width:0.1;stroke-linecap:round;stroke-linejoin:round;">
	<!-- Gray fill  -->
	<!ENTITY st4 "fill:#CCCCCC;stroke:#CCCCCC; stroke-width:0.1;stroke-linecap:round;stroke-linejoin:round;">
	<!-- Light-blue fill -->
	<!ENTITY st5 "fill:#CCECF4;stroke:#000000; stroke-width:1.133;stroke-linecap:round;stroke-linejoin:round;">
	<!ENTITY st6 "fill:none;stroke-linecap:butt; stroke-linejoin:round;">
	<!ENTITY st7 "fill:none;stroke:#000000;stroke-linecap:round;stroke-linejoin:round;">
	<!ENTITY st8 "enable-background:new    ;">
	<!-- Black fill -->
	<!ENTITY st9 "fill:#000000;stroke:#000000; stroke-linecap:round;stroke-linejoin:round;">
	<!-- SRS note   -->
	<!ENTITY st10 "font-size:9px;font-family:'ArialMT';">
	<!ENTITY st11 "font-size:9px;font-family:'Svg Symbol';">
	<!ENTITY st12 "font-size:6px;font-family:'Svg Symbol';">
	<!ENTITY st13 "fill:none;stroke:#ff0000;stroke-linecap:round;stroke-linejoin:round;">
	<!-- Yellow fill  -->
	<!ENTITY st14 "fill:#FFFF00;stroke:#FFFF00; stroke-width:0.1;stroke-linecap:round;stroke-linejoin:round;">
	<!ENTITY st15 "font-size:6px;font-family:'MS-PGothic';adobe-font-script:japanese;">
	<!ENTITY st16 "1.00 0.00 0.00 1.00">
	<!ENTITY st17 "0.00 -1.00 1.00 0.00">
	<!ENTITY st18 "font-size:6px;font-family:'Arial';">
	<!ENTITY st19 "font-size:9px;font-family:'Arial';">
	<!ENTITY st20 "font-size:6px;font-family:'MS-PGothic','MS PGothic';adobe-font-script:japanese;">
	<!ENTITY st21 "font-size:7px;font-family:'MS-PGothic','MS PGothic';adobe-font-script:japanese;">
	<!ATTLIST svg
		xmlns:ewd CDATA #FIXED "http://shcl.co.jp/ewd"
		xmlns:a CDATA #FIXED "http://ns.adobe.com/AdobeSVGViewerExtensions/3.0/"
		ewd:ver CDATA #IMPLIED
	>
	<!ATTLIST a
		ewd:lineID CDATA #IMPLIED
		ewd:groupID CDATA #IMPLIED
		ewd:figtype CDATA #IMPLIED
		ewd:code CDATA #IMPLIED
		ewd:figID CDATA #IMPLIED
		ewd:pinNo CDATA #IMPLIED
		ewd:comment CDATA #IMPLIED >
	<!ATTLIST g
		ewd:lineID CDATA #IMPLIED
		ewd:groupID CDATA #IMPLIED
		ewd:figtype CDATA #IMPLIED
		ewd:code CDATA #IMPLIED
		ewd:figID CDATA #IMPLIED
		ewd:pinNo CDATA #IMPLIED
		ewd:comment CDATA #IMPLIED >
	<!ATTLIST text
		ewd:textID CDATA #IMPLIED >
	<!ATTLIST title
		ewd:textID CDATA #IMPLIED >
]>
<!-- Generator: Shintec Hozumi YS   -->
<svg onload="call_execInitLoadProc_svg('system')" style="overflow:visible;  enable-background:new 0 0 6214.333 710.000" viewBox="0 0 6214.333 710.000" height="710.000" width="6214.333" xml:space="preserve" ewd:ver="2.1.2.9" xmlns="&ns_svg;" xmlns:a="http://ns.adobe.com/AdobeSVGViewerExtensions/3.0/" xmlns:ewd="http://shcl.co.jp/ewd" xmlns:xlink="&ns_xlink;">
<path style="stroke-width:1.42 ;&st7;  " d=" M  3390.93,   146.26  L  3399.43,   146.26  " /><path style="stroke-width:1.42 ;&st7;  " d=" M  3390.93,   188.75  L  3399.43,   188.75  " /><text style="&st18;" transform="matrix(&st17;  3208.77  317.92 )">B</text><text style="&st18;" transform="matrix(&st17;  3234.26  317.81 )">L</text><text style="&st18;" transform="matrix(&st17;  3004.8  118.14 )">W-R</text><text style="&st18;" transform="matrix(&st17;  3004.8  211.59 )">L-W</text><text style="&st18;" transform="matrix(&st17;  3395.74  219.23 )">P-B</text><text style="&st18;" transform="matrix(&st17;  3395.74  125.75 )">P-B</text><text style="&st18;" transform="matrix(&st17;  3463.73  125.94 )">B-Y</text><text style="&st18;" transform="matrix(&st16;  3495.74  210.55 )">B-Y</text><text style="&st18;" transform="matrix(&st17;  3259.76  318.19 )">G</text><text style="&st18;" transform="matrix(&st17;  3336.25  318.04 )">V</text><text style="&st18;" transform="matrix(&st17;  3285.25  317.73 )">P</text><text style="&st18;" transform="matrix(&st17;  3310.75  318.7 )">W</text><text style="&st18;" transform="matrix(&st17;  3183.27  419.92 )">W-B</text><text style="&st18;" transform="matrix(&st17;  3225.76  496.31 )">R</text><text style="&st18;" transform="matrix(&st17;  3268.26  496.66 )">G</text><text style="&st18;" transform="matrix(&st17;  3310.75  496.39 )">B</text><text style="&st18;" transform="matrix(&st17;  3353.24  497.17 )">W</text><text style="&st18;" transform="matrix(&st17;  3395.74  496.28 )">L</text><text style="&st18;" transform="matrix(&st17;  3438.23  496.39 )">Y</text><text style="&st18;" transform="matrix(&st17;  3480.72  498.25 )">BR</text><text style="&st18;" transform="matrix(&st17;  3183.27  483.66 )">W-B</text><text style="&st18;" transform="matrix(&st17;  3395.74  172.49 )">P-B</text><path style="stroke-width:1.42 ;&st7;  " d=" M  3195.47,   431.69  L  3190.49,   426.71  " /><path style="stroke-width:1.42 ;&st7;  " d=" M  3178.47,   438.74  L  3183.44,   443.71  " /><path style="stroke-width:1.42 ;&st7;  " d=" M  3190.49,   443.71  L  3195.47,   438.74  " /><path style="stroke-width:1.42 ;&st7;  " d=" M  3183.44,   426.71  L  3178.47,   431.69  " /><text style="&st18;" transform="matrix(&st16;  3328.03  264.64 )">A29(A),C39(B)</text><text style="&st18;" transform="matrix(&st16;  3328.04  271.46 )">ECM</text><text style="&st18;" transform="matrix(&st16;  3082.02  660.98 )">W</text><text style="&st18;" transform="matrix(&st16;  3133.01  660.98 )">W</text><text style="&st18;" transform="matrix(&st16;  3130.49  304.04 )">R-L</text><text style="&st18;" transform="matrix(&st16;  3079.5  304.04 )">R-L</text><g ewd:figtype="conn" ewd:figID="34" ewd:code="C115"><path style="stroke-width:0.85 ;&st7;  " d=" M  3229.46,   537.20  L  3229.46,   545.69  " /><path style="stroke-width:0.85 ;&st7;  " d=" M  3229.46,   562.69  L  3229.46,   571.19  " /><path style="stroke-width:0.85 ;&st7;   " d=" M  3226.93,   556.67  C  3228.30    558.07   3230.54    558.09   3231.94    556.72  " /><path style="stroke-width:0.85 ;&st7;   " d=" M  3231.94,   556.72  C  3233.34    555.35   3233.36    553.11   3231.99    551.71  " /><path style="stroke-width:0.85 ;&st7;   " d=" M  3231.99,   551.71  C  3230.62    550.32   3228.38    550.29   3226.98    551.66  " /><path style="stroke-width:0.85 ;&st7;   " d=" M  3226.98,   551.66  C  3226.96    551.68   3226.95    551.70   3226.93    551.71  " /><path style="stroke-width:0.85 ;&st7;   " d=" M  3226.93,   551.71  C  3228.30    553.11   3230.54    553.13   3231.94    551.76  " /><path style="stroke-width:0.85 ;&st7;   " d=" M  3231.94,   551.76  C  3233.34    550.40   3233.36    548.15   3231.99    546.76  " /><path style="stroke-width:0.85 ;&st7;   " d=" M  3231.99,   546.76  C  3231.30    546.05   3230.45    545.69   3229.46    545.69  " /><path style="stroke-width:0.85 ;&st7;   " d=" M  3229.46,   562.69  C  3231.42    562.69   3233.00    561.11   3233.00    559.15  " /><path style="stroke-width:0.85 ;&st7;   " d=" M  3233.00,   559.15  C  3233.00    557.19   3231.42    555.61   3229.46    555.61  " /><path style="stroke-width:0.85 ;&st7;   " d=" M  3229.46,   555.61  C  3228.47    555.61   3227.62    555.96   3226.93    556.67  " /><path style="stroke-width:1.42 ;&st7;  " d=" M  3237.96,   571.19  L  3237.96,   537.20  L  3220.96,   537.20  L  3220.96,   571.19  L  3237.96,   571.19  " /><text style="&st18;" transform="matrix(&st16;  3223.28  579.38 )">1</text><text style="&st18;" transform="matrix(&st16;  3223.28  533.51 )">2</text><g ewd:figtype="title"><text style="&st18;" transform="matrix(&st17;  3245.85  574.09 )">C115</text><text style="&st18;" transform="matrix(&st17;  3252.68  574.1 )" ewd:textID="37">Injector <tspan x="0 " dy="6.0">Assembly No. 2</tspan></text></g></g><g ewd:figtype="conn" ewd:figID="36" ewd:code="C109"><path style="stroke-width:0.85 ;&st7;  " d=" M  3314.45,   537.20  L  3314.45,   545.69  " /><path style="stroke-width:0.85 ;&st7;  " d=" M  3314.45,   562.69  L  3314.45,   571.19  " /><path style="stroke-width:0.85 ;&st7;   " d=" M  3311.92,   556.67  C  3313.29    558.07   3315.53    558.09   3316.92    556.72  " /><path style="stroke-width:0.85 ;&st7;   " d=" M  3316.92,   556.72  C  3318.32    555.35   3318.34    553.11   3316.98    551.71  " /><path style="stroke-width:0.85 ;&st7;   " d=" M  3316.98,   551.71  C  3315.61    550.32   3313.36    550.29   3311.97    551.66  " /><path style="stroke-width:0.85 ;&st7;   " d=" M  3311.97,   551.66  C  3311.95    551.68   3311.93    551.70   3311.92    551.71  " /><path style="stroke-width:0.85 ;&st7;   " d=" M  3314.45,   562.69  C  3316.40    562.69   3317.99    561.11   3317.99    559.15  " /><path style="stroke-width:0.85 ;&st7;   " d=" M  3317.99,   559.15  C  3317.99    557.19   3316.40    555.61   3314.45    555.61  " /><path style="stroke-width:0.85 ;&st7;   " d=" M  3314.45,   555.61  C  3313.46    555.61   3312.61    555.96   3311.92    556.67  " /><path style="stroke-width:0.85 ;&st7;   " d=" M  3311.92,   551.71  C  3313.29    553.11   3315.53    553.13   3316.92    551.76  " /><path style="stroke-width:0.85 ;&st7;   " d=" M  3316.92,   551.76  C  3318.32    550.40   3318.34    548.15   3316.98    546.76  " /><path style="stroke-width:0.85 ;&st7;   " d=" M  3316.98,   546.76  C  3316.28    546.05   3315.44    545.69   3314.45    545.69  " /><path style="stroke-width:1.42 ;&st7;  " d=" M  3322.94,   571.19  L  3322.94,   537.20  L  3305.95,   537.20  L  3305.95,   571.19  L  3322.94,   571.19  " /><text style="&st18;" transform="matrix(&st16;  3308.26  579.38 )">1</text><text style="&st18;" transform="matrix(&st16;  3308.26  533.51 )">2</text><g ewd:figtype="title"><text style="&st18;" transform="matrix(&st17;  3337.66  574.1 )" ewd:textID="40">Injector <tspan x="0 " dy="6.0">Assembly No. 5</tspan></text><text style="&st18;" transform="matrix(&st17;  3330.84  574.09 )">C109</text></g></g><g ewd:figtype="conn" ewd:figID="43" ewd:code="I50"><path style="stroke-width:1.42 ;&st7;  " d=" M  3399.43,    88.19  L  3405.10,    65.52  " /><path style="stroke-width:0.85 ;&st7;  " d=" M  3399.43,    95.27  L  3399.43,    91.02  " /><path style="stroke-width:0.85 ;&st7;  " d=" M  3399.43,    65.52  L  3399.43,    61.28  " /><path style="stroke-width:0.85 ;&st7;   " d=" M  3400.85,    89.60  C  3400.85     88.82   3400.21     88.19   3399.43     88.19  " /><path style="stroke-width:0.85 ;&st7;   " d=" M  3399.43,    88.19  C  3398.65     88.19   3398.02     88.82   3398.02     89.60  " /><path style="stroke-width:0.85 ;&st7;   " d=" M  3398.02,    89.60  C  3398.02     90.39   3398.65     91.02   3399.43     91.02  " /><path style="stroke-width:0.85 ;&st7;   " d=" M  3399.43,    91.02  C  3400.21     91.02   3400.85     90.39   3400.85     89.60  " /><path style="stroke-width:0.85 ;&st7;   " d=" M  3400.85,    66.94  C  3400.85     66.16   3400.21     65.52   3399.43     65.52  " /><path style="stroke-width:0.85 ;&st7;   " d=" M  3399.43,    65.52  C  3398.65     65.52   3398.02     66.16   3398.02     66.94  " /><path style="stroke-width:0.85 ;&st7;   " d=" M  3398.02,    66.94  C  3398.02     67.72   3398.65     68.36   3399.43     68.36  " /><path style="stroke-width:0.85 ;&st7;   " d=" M  3399.43,    68.36  C  3400.21     68.36   3400.85     67.72   3400.85     66.94  " /><path style="stroke-width:1.42 ;&st7;  " d=" M  3407.93,    95.27  L  3407.93,    61.28  L  3390.93,    61.28  L  3390.93,    95.27  L  3407.93,    95.27  " /><text style="&st18;" transform="matrix(&st16;  3393.25  103.46 )">2</text><text style="&st18;" transform="matrix(&st16;  3393.25  57.59 )">1</text><g ewd:figtype="title"><text style="&st18;" transform="matrix(&st17;  3415.82  98.17 )">I50</text><text style="&st18;" transform="matrix(&st17;  3422.65  98.18 )" ewd:textID="9">Clutch <tspan x="0 " dy="6.0">Switch </tspan><tspan x="0 " dy="6.0">Assembly</tspan></text></g></g><g ewd:figtype="conn" ewd:figID="46" ewd:code="C125,C126,C127"><path style="stroke-width:1.42 ;&st7;  " d=" M  3169.97,   384.22  L  3543.91,   384.22  L  3543.91,   341.73  L  3169.97,   341.73  L  3169.97,   384.22  " /><g ewd:lineID="133"><text style="&st18;" transform="matrix(&st16;  3178.27  390.72 )">1</text><path style="stroke-width:1.42 ;&st7;   " d=" M  3191.50,   388.75  C  3191.50    386.25   3189.47    384.22   3186.97    384.22  " /><path style="stroke-width:1.42 ;&st7;   " d=" M  3186.97,   384.22  C  3184.46    384.22   3182.43    386.25   3182.43    388.75  " /><path style="stroke-width:1.42 ;&st7;   " d=" M  3182.43,   388.75  C  3182.43    391.26   3184.46    393.29   3186.97    393.29  " /><path style="stroke-width:1.42 ;&st7;   " d=" M  3186.97,   393.29  C  3189.47    393.29   3191.50    391.26   3191.50    388.75  " /><text style="&st18;" transform="matrix(&st16;  3184.55  390.72 )">C</text><text style="&st18;" transform="matrix(&st16;  3180.32  380.52 )">GND</text></g><g ewd:lineID="134"><text style="&st18;" transform="matrix(&st16;  3178.27  339.16 )">3</text><path style="stroke-width:1.42 ;&st7;   " d=" M  3191.50,   337.20  C  3191.50    334.69   3189.47    332.66   3186.97    332.66  " /><path style="stroke-width:1.42 ;&st7;   " d=" M  3186.97,   332.66  C  3184.46    332.66   3182.43    334.69   3182.43    337.20  " /><path style="stroke-width:1.42 ;&st7;   " d=" M  3182.43,   337.20  C  3182.43    339.70   3184.46    341.73   3186.97    341.73  " /><path style="stroke-width:1.42 ;&st7;   " d=" M  3186.97,   341.73  C  3189.47    341.73   3191.50    339.70   3191.50    337.20  " /><text style="&st18;" transform="matrix(&st16;  3184.55  339.16 )">C</text><text style="&st18;" transform="matrix(&st16;  3183.23  349.36 )">+B</text></g><g ewd:lineID="135"><text style="&st18;" transform="matrix(&st16;  3203.77  339.16 )">5</text><text style="&st18;" transform="matrix(&st16;  3210.16  339.16 )">A</text><path style="stroke-width:1.42 ;&st7;   " d=" M  3217.00,   337.20  C  3217.00    334.69   3214.97    332.66   3212.46    332.66  " /><path style="stroke-width:1.42 ;&st7;   " d=" M  3212.46,   332.66  C  3209.96    332.66   3207.93    334.69   3207.93    337.20  " /><path style="stroke-width:1.42 ;&st7;   " d=" M  3207.93,   337.20  C  3207.93    339.70   3209.96    341.73   3212.46    341.73  " /><path style="stroke-width:1.42 ;&st7;   " d=" M  3212.46,   341.73  C  3214.97    341.73   3217.00    339.70   3217.00    337.20  " /><text style="&st18;" transform="matrix(&st16;  3207.56  349.36 )">#20</text></g><g ewd:lineID="136"><text style="&st18;" transform="matrix(&st16;  3263.26  390.72 )">6</text><text style="&st18;" transform="matrix(&st16;  3269.77  390.72 )">B</text><path style="stroke-width:1.42 ;&st7;   " d=" M  3276.49,   388.75  C  3276.49    386.25   3274.46    384.22   3271.95    384.22  " /><path style="stroke-width:1.42 ;&st7;   " d=" M  3271.95,   384.22  C  3269.45    384.22   3267.42    386.25   3267.42    388.75  " /><path style="stroke-width:1.42 ;&st7;   " d=" M  3267.42,   388.75  C  3267.42    391.26   3269.45    393.29   3271.95    393.29  " /><path style="stroke-width:1.42 ;&st7;   " d=" M  3271.95,   393.29  C  3274.46    393.29   3276.49    391.26   3276.49    388.75  " /><text style="&st18;" transform="matrix(&st16;  3266.51  380.52 )">IJ2+</text></g><g ewd:lineID="137"><text style="&st18;" transform="matrix(&st16;  3220.77  390.72 )">3</text><path style="stroke-width:1.42 ;&st7;   " d=" M  3233.99,   388.75  C  3233.99    386.25   3231.96    384.22   3229.46    384.22  " /><path style="stroke-width:1.42 ;&st7;   " d=" M  3229.46,   384.22  C  3226.96    384.22   3224.93    386.25   3224.93    388.75  " /><path style="stroke-width:1.42 ;&st7;   " d=" M  3224.93,   388.75  C  3224.93    391.26   3226.96    393.29   3229.46    393.29  " /><path style="stroke-width:1.42 ;&st7;   " d=" M  3229.46,   393.29  C  3231.96    393.29   3233.99    391.26   3233.99    388.75  " /><text style="&st18;" transform="matrix(&st16;  3227.27  390.72 )">B</text><text style="&st18;" transform="matrix(&st16;  3224.02  380.52 )">IJ2-</text></g><g ewd:lineID="138"><text style="&st18;" transform="matrix(&st16;  3229.27  339.16 )">3</text><path style="stroke-width:1.42 ;&st7;   " d=" M  3242.49,   337.20  C  3242.49    334.69   3240.46    332.66   3237.96    332.66  " /><path style="stroke-width:1.42 ;&st7;   " d=" M  3237.96,   332.66  C  3235.46    332.66   3233.43    334.69   3233.43    337.20  " /><path style="stroke-width:1.42 ;&st7;   " d=" M  3233.43,   337.20  C  3233.43    339.70   3235.46    341.73   3237.96    341.73  " /><path style="stroke-width:1.42 ;&st7;   " d=" M  3237.96,   341.73  C  3240.46    341.73   3242.49    339.70   3242.49    337.20  " /><text style="&st18;" transform="matrix(&st16;  3235.65  339.16 )">A</text><text style="&st18;" transform="matrix(&st16;  3233.06  349.36 )">#30</text></g><g ewd:lineID="139"><text style="&st18;" transform="matrix(&st16;  3254.76  339.16 )">6</text><text style="&st18;" transform="matrix(&st16;  3261.15  339.16 )">A</text><path style="stroke-width:1.42 ;&st7;   " d=" M  3267.99,   337.20  C  3267.99    334.69   3265.96    332.66   3263.45    332.66  " /><path style="stroke-width:1.42 ;&st7;   " d=" M  3263.45,   332.66  C  3260.95    332.66   3258.92    334.69   3258.92    337.20  " /><path style="stroke-width:1.42 ;&st7;   " d=" M  3258.92,   337.20  C  3258.92    339.70   3260.95    341.73   3263.45    341.73  " /><path style="stroke-width:1.42 ;&st7;   " d=" M  3263.45,   341.73  C  3265.96    341.73   3267.99    339.70   3267.99    337.20  " /><text style="&st18;" transform="matrix(&st16;  3258.55  349.36 )">#50</text></g><g ewd:lineID="140"><text style="&st18;" transform="matrix(&st16;  3280.26  339.16 )">2</text><path style="stroke-width:1.42 ;&st7;   " d=" M  3293.48,   337.20  C  3293.48    334.69   3291.45    332.66   3288.95    332.66  " /><path style="stroke-width:1.42 ;&st7;   " d=" M  3288.95,   332.66  C  3286.45    332.66   3284.42    334.69   3284.42    337.20  " /><path style="stroke-width:1.42 ;&st7;   " d=" M  3284.42,   337.20  C  3284.42    339.70   3286.45    341.73   3288.95    341.73  " /><path style="stroke-width:1.42 ;&st7;   " d=" M  3288.95,   341.73  C  3291.45    341.73   3293.48    339.70   3293.48    337.20  " /><text style="&st18;" transform="matrix(&st16;  3286.65  339.16 )">A</text><text style="&st18;" transform="matrix(&st16;  3284.05  349.36 )">#60</text></g><g ewd:lineID="141"><text style="&st18;" transform="matrix(&st16;  3348.25  390.72 )">5</text><text style="&st18;" transform="matrix(&st16;  3354.75  390.72 )">B</text><path style="stroke-width:1.42 ;&st7;   " d=" M  3361.47,   388.75  C  3361.47    386.25   3359.44    384.22   3356.94    384.22  " /><path style="stroke-width:1.42 ;&st7;   " d=" M  3356.94,   384.22  C  3354.44    384.22   3352.41    386.25   3352.41    388.75  " /><path style="stroke-width:1.42 ;&st7;   " d=" M  3352.41,   388.75  C  3352.41    391.26   3354.44    393.29   3356.94    393.29  " /><path style="stroke-width:1.42 ;&st7;   " d=" M  3356.94,   393.29  C  3359.44    393.29   3361.47    391.26   3361.47    388.75  " /><text style="&st18;" transform="matrix(&st16;  3351.49  380.52 )">IJ5+</text></g><g ewd:lineID="142"><text style="&st18;" transform="matrix(&st16;  3305.75  390.72 )">2</text><text style="&st18;" transform="matrix(&st16;  3312.26  390.72 )">B</text><path style="stroke-width:1.42 ;&st7;   " d=" M  3318.98,   388.75  C  3318.98    386.25   3316.95    384.22   3314.45    384.22  " /><path style="stroke-width:1.42 ;&st7;   " d=" M  3314.45,   384.22  C  3311.94    384.22   3309.91    386.25   3309.91    388.75  " /><path style="stroke-width:1.42 ;&st7;   " d=" M  3309.91,   388.75  C  3309.91    391.26   3311.94    393.29   3314.45    393.29  " /><path style="stroke-width:1.42 ;&st7;   " d=" M  3314.45,   393.29  C  3316.95    393.29   3318.98    391.26   3318.98    388.75  " /><text style="&st18;" transform="matrix(&st16;  3309.0  380.52 )">IJ5-</text></g><g ewd:lineID="143"><text style="&st18;" transform="matrix(&st16;  3305.75  339.16 )">1</text><path style="stroke-width:1.42 ;&st7;   " d=" M  3318.98,   337.20  C  3318.98    334.69   3316.95    332.66   3314.45    332.66  " /><path style="stroke-width:1.42 ;&st7;   " d=" M  3314.45,   332.66  C  3311.94    332.66   3309.91    334.69   3309.91    337.20  " /><path style="stroke-width:1.42 ;&st7;   " d=" M  3309.91,   337.20  C  3309.91    339.70   3311.94    341.73   3314.45    341.73  " /><path style="stroke-width:1.42 ;&st7;   " d=" M  3314.45,   341.73  C  3316.95    341.73   3318.98    339.70   3318.98    337.20  " /><text style="&st18;" transform="matrix(&st16;  3312.14  339.16 )">A</text><text style="&st18;" transform="matrix(&st16;  3307.84  349.36 )">INF2</text></g><g ewd:lineID="144"><text style="&st18;" transform="matrix(&st16;  3331.25  339.16 )">7</text><text style="&st18;" transform="matrix(&st16;  3337.64  339.16 )">A</text><path style="stroke-width:1.42 ;&st7;   " d=" M  3344.47,   337.20  C  3344.47    334.69   3342.45    332.66   3339.94    332.66  " /><path style="stroke-width:1.42 ;&st7;   " d=" M  3339.94,   332.66  C  3337.44    332.66   3335.41    334.69   3335.41    337.20  " /><path style="stroke-width:1.42 ;&st7;   " d=" M  3335.41,   337.20  C  3335.41    339.70   3337.44    341.73   3339.94    341.73  " /><path style="stroke-width:1.42 ;&st7;   " d=" M  3339.94,   341.73  C  3342.45    341.73   3344.47    339.70   3344.47    337.20  " /><text style="&st18;" transform="matrix(&st16;  3333.29  349.36 )">IDL2</text></g><g ewd:lineID="145"><text style="&st18;" transform="matrix(&st16;  3433.23  390.72 )">4</text><text style="&st18;" transform="matrix(&st16;  3439.5  390.72 )">C</text><path style="stroke-width:1.42 ;&st7;   " d=" M  3446.46,   388.75  C  3446.46    386.25   3444.43    384.22   3441.92    384.22  " /><path style="stroke-width:1.42 ;&st7;   " d=" M  3441.92,   384.22  C  3439.42    384.22   3437.39    386.25   3437.39    388.75  " /><path style="stroke-width:1.42 ;&st7;   " d=" M  3437.39,   388.75  C  3437.39    391.26   3439.42    393.29   3441.92    393.29  " /><path style="stroke-width:1.42 ;&st7;   " d=" M  3441.92,   393.29  C  3444.43    393.29   3446.46    391.26   3446.46    388.75  " /><text style="&st18;" transform="matrix(&st16;  3436.48  380.52 )">IJ3+</text></g><g ewd:lineID="146"><text style="&st18;" transform="matrix(&st16;  3390.74  390.72 )">2</text><path style="stroke-width:1.42 ;&st7;   " d=" M  3403.96,   388.75  C  3403.96    386.25   3401.94    384.22   3399.43    384.22  " /><path style="stroke-width:1.42 ;&st7;   " d=" M  3399.43,   384.22  C  3396.93    384.22   3394.90    386.25   3394.90    388.75  " /><path style="stroke-width:1.42 ;&st7;   " d=" M  3394.90,   388.75  C  3394.90    391.26   3396.93    393.29   3399.43    393.29  " /><path style="stroke-width:1.42 ;&st7;   " d=" M  3399.43,   393.29  C  3401.94    393.29   3403.96    391.26   3403.96    388.75  " /><text style="&st18;" transform="matrix(&st16;  3397.01  390.72 )">C</text><text style="&st18;" transform="matrix(&st16;  3393.99  380.52 )">IJ3-</text></g><g ewd:lineID="152"><text style="&st18;" transform="matrix(&st16;  3475.72  390.72 )">1</text><text style="&st18;" transform="matrix(&st16;  3482.23  390.72 )">B</text><path style="stroke-width:1.42 ;&st7;   " d=" M  3488.95,   388.75  C  3488.95    386.25   3486.92    384.22   3484.42    384.22  " /><path style="stroke-width:1.42 ;&st7;   " d=" M  3484.42,   384.22  C  3481.91    384.22   3479.89    386.25   3479.89    388.75  " /><path style="stroke-width:1.42 ;&st7;   " d=" M  3479.89,   388.75  C  3479.89    391.26   3481.91    393.29   3484.42    393.29  " /><path style="stroke-width:1.42 ;&st7;   " d=" M  3484.42,   393.29  C  3486.92    393.29   3488.95    391.26   3488.95    388.75  " /><text style="&st18;" transform="matrix(&st16;  3478.97  380.52 )">IJ8-</text></g><g ewd:figtype="title"><text style="&st18;" transform="matrix(&st16;  3387.53  338.03 )" ewd:textID="45">Injector Driver (EDU) (No. 2)</text><text style="&st18;" transform="matrix(&st16;  3387.52  331.21 )">C125(A),C126(B),C127(C)</text></g></g><g ewd:figtype="conn" ewd:figID="50" ewd:code="C108"><path style="stroke-width:0.85 ;&st7;  " d=" M  3399.43,   537.20  L  3399.43,   545.69  " /><path style="stroke-width:0.85 ;&st7;  " d=" M  3399.43,   562.69  L  3399.43,   571.19  " /><path style="stroke-width:0.85 ;&st7;   " d=" M  3396.90,   556.67  C  3398.27    558.07   3400.51    558.09   3401.91    556.72  " /><path style="stroke-width:0.85 ;&st7;   " d=" M  3401.91,   556.72  C  3403.31    555.35   3403.33    553.11   3401.96    551.71  " /><path style="stroke-width:0.85 ;&st7;   " d=" M  3401.96,   551.71  C  3400.59    550.32   3398.35    550.29   3396.95    551.66  " /><path style="stroke-width:0.85 ;&st7;   " d=" M  3396.95,   551.66  C  3396.94    551.68   3396.92    551.70   3396.90    551.71  " /><path style="stroke-width:0.85 ;&st7;   " d=" M  3396.90,   551.71  C  3398.27    553.11   3400.51    553.13   3401.91    551.76  " /><path style="stroke-width:0.85 ;&st7;   " d=" M  3401.91,   551.76  C  3403.31    550.40   3403.33    548.15   3401.96    546.76  " /><path style="stroke-width:0.85 ;&st7;   " d=" M  3401.96,   546.76  C  3401.27    546.05   3400.42    545.69   3399.43    545.69  " /><path style="stroke-width:0.85 ;&st7;   " d=" M  3399.43,   562.69  C  3401.39    562.69   3402.97    561.11   3402.97    559.15  " /><path style="stroke-width:0.85 ;&st7;   " d=" M  3402.97,   559.15  C  3402.97    557.19   3401.39    555.61   3399.43    555.61  " /><path style="stroke-width:0.85 ;&st7;   " d=" M  3399.43,   555.61  C  3398.44    555.61   3397.60    555.96   3396.90    556.67  " /><path style="stroke-width:1.42 ;&st7;  " d=" M  3407.93,   571.19  L  3407.93,   537.20  L  3390.93,   537.20  L  3390.93,   571.19  L  3407.93,   571.19  " /><text style="&st18;" transform="matrix(&st16;  3393.25  579.38 )">1</text><text style="&st18;" transform="matrix(&st16;  3393.25  533.51 )">2</text><g ewd:figtype="title"><text style="&st18;" transform="matrix(&st17;  3415.82  574.09 )">C108</text><text style="&st18;" transform="matrix(&st17;  3422.65  574.1 )" ewd:textID="38">Injector <tspan x="0 " dy="6.0">Assembly No. 3</tspan></text></g></g><g ewd:figtype="conn" ewd:figID="52" ewd:code="A29,C39"><g ewd:lineID="130"><path style="stroke-width:1.42 ;&st7;   " d=" M  3013.03,   235.21  C  3013.03    232.71   3011.00    230.68   3008.50    230.68  " /><path style="stroke-width:1.42 ;&st7;   " d=" M  3008.50,   230.68  C  3005.99    230.68   3003.96    232.71   3003.96    235.21  " /><path style="stroke-width:1.42 ;&st7;   " d=" M  3003.96,   235.21  C  3003.96    237.72   3005.99    239.75   3008.50    239.75  " /><path style="stroke-width:1.42 ;&st7;   " d=" M  3008.50,   239.75  C  3011.00    239.75   3013.03    237.72   3013.03    235.21  " /><text style="&st18;" transform="matrix(&st16;  3006.31  237.18 )">B</text><text style="&st18;" transform="matrix(&st16;  3005.15  247.38 )">IG</text></g><g ewd:lineID="135"><text style="&st18;" transform="matrix(&st16;  3200.67  297.24 )">39</text><text style="&st18;" transform="matrix(&st16;  3210.28  297.24 )">B</text><path style="stroke-width:1.42 ;&st7;   " d=" M  3217.00,   295.27  C  3217.00    292.77   3214.97    290.74   3212.46    290.74  " /><path style="stroke-width:1.42 ;&st7;   " d=" M  3212.46,   290.74  C  3209.96    290.74   3207.93    292.77   3207.93    295.27  " /><path style="stroke-width:1.42 ;&st7;   " d=" M  3207.93,   295.27  C  3207.93    297.77   3209.96    299.80   3212.46    299.80  " /><path style="stroke-width:1.42 ;&st7;   " d=" M  3212.46,   299.80  C  3214.97    299.80   3217.00    297.77   3217.00    295.27  " /><text style="&st18;" transform="matrix(&st16;  3209.11  287.04 )">#2</text></g><g ewd:lineID="138"><text style="&st18;" transform="matrix(&st16;  3226.16  297.24 )">38</text><text style="&st18;" transform="matrix(&st16;  3235.77  297.24 )">B</text><path style="stroke-width:1.42 ;&st7;   " d=" M  3242.49,   295.27  C  3242.49    292.77   3240.46    290.74   3237.96    290.74  " /><path style="stroke-width:1.42 ;&st7;   " d=" M  3237.96,   290.74  C  3235.46    290.74   3233.43    292.77   3233.43    295.27  " /><path style="stroke-width:1.42 ;&st7;   " d=" M  3233.43,   295.27  C  3233.43    297.77   3235.46    299.80   3237.96    299.80  " /><path style="stroke-width:1.42 ;&st7;   " d=" M  3237.96,   299.80  C  3240.46    299.80   3242.49    297.77   3242.49    295.27  " /><text style="&st18;" transform="matrix(&st16;  3234.61  287.04 )">#3</text></g><g ewd:lineID="139"><text style="&st18;" transform="matrix(&st16;  3251.66  297.24 )">36</text><text style="&st18;" transform="matrix(&st16;  3261.27  297.24 )">B</text><path style="stroke-width:1.42 ;&st7;   " d=" M  3267.99,   295.27  C  3267.99    292.77   3265.96    290.74   3263.45    290.74  " /><path style="stroke-width:1.42 ;&st7;   " d=" M  3263.45,   290.74  C  3260.95    290.74   3258.92    292.77   3258.92    295.27  " /><path style="stroke-width:1.42 ;&st7;   " d=" M  3258.92,   295.27  C  3258.92    297.77   3260.95    299.80   3263.45    299.80  " /><path style="stroke-width:1.42 ;&st7;   " d=" M  3263.45,   299.80  C  3265.96    299.80   3267.99    297.77   3267.99    295.27  " /><text style="&st18;" transform="matrix(&st16;  3260.1  287.04 )">#5</text></g><g ewd:lineID="140"><text style="&st18;" transform="matrix(&st16;  3277.15  297.24 )">33</text><text style="&st18;" transform="matrix(&st16;  3286.76  297.24 )">B</text><path style="stroke-width:1.42 ;&st7;   " d=" M  3293.48,   295.27  C  3293.48    292.77   3291.45    290.74   3288.95    290.74  " /><path style="stroke-width:1.42 ;&st7;   " d=" M  3288.95,   290.74  C  3286.45    290.74   3284.42    292.77   3284.42    295.27  " /><path style="stroke-width:1.42 ;&st7;   " d=" M  3284.42,   295.27  C  3284.42    297.77   3286.45    299.80   3288.95    299.80  " /><path style="stroke-width:1.42 ;&st7;   " d=" M  3288.95,   299.80  C  3291.45    299.80   3293.48    297.77   3293.48    295.27  " /><text style="&st18;" transform="matrix(&st16;  3285.6  287.04 )">#8</text></g><g ewd:lineID="143"><text style="&st18;" transform="matrix(&st16;  3302.65  297.24 )">60</text><path style="stroke-width:1.42 ;&st7;   " d=" M  3318.98,   295.27  C  3318.98    292.77   3316.95    290.74   3314.45    290.74  " /><path style="stroke-width:1.42 ;&st7;   " d=" M  3314.45,   290.74  C  3311.94    290.74   3309.91    292.77   3309.91    295.27  " /><path style="stroke-width:1.42 ;&st7;   " d=" M  3309.91,   295.27  C  3309.91    297.77   3311.94    299.80   3314.45    299.80  " /><path style="stroke-width:1.42 ;&st7;   " d=" M  3314.45,   299.80  C  3316.95    299.80   3318.98    297.77   3318.98    295.27  " /><text style="&st18;" transform="matrix(&st16;  3312.26  297.24 )">B</text><text style="&st18;" transform="matrix(&st16;  3308.5  287.04 )">INJ2</text></g><g ewd:lineID="144"><text style="&st18;" transform="matrix(&st16;  3328.15  297.24 )">58</text><path style="stroke-width:1.42 ;&st7;   " d=" M  3344.47,   295.27  C  3344.47    292.77   3342.45    290.74   3339.94    290.74  " /><path style="stroke-width:1.42 ;&st7;   " d=" M  3339.94,   290.74  C  3337.44    290.74   3335.41    292.77   3335.41    295.27  " /><path style="stroke-width:1.42 ;&st7;   " d=" M  3335.41,   295.27  C  3335.41    297.77   3337.44    299.80   3339.94    299.80  " /><path style="stroke-width:1.42 ;&st7;   " d=" M  3339.94,   299.80  C  3342.45    299.80   3344.47    297.77   3344.47    295.27  " /><text style="&st18;" transform="matrix(&st16;  3337.75  297.24 )">B</text><text style="&st18;" transform="matrix(&st16;  3333.29  287.04 )">IDL2</text></g><g ewd:lineID="147"><text style="&st18;" transform="matrix(&st16;  3387.64  237.18 )">28</text><text style="&st18;" transform="matrix(&st16;  3397.24  237.18 )">B</text><path style="stroke-width:1.42 ;&st7;   " d=" M  3403.96,   235.21  C  3403.96    232.71   3401.94    230.68   3399.43    230.68  " /><path style="stroke-width:1.42 ;&st7;   " d=" M  3399.43,   230.68  C  3396.93    230.68   3394.90    232.71   3394.90    235.21  " /><path style="stroke-width:1.42 ;&st7;   " d=" M  3394.90,   235.21  C  3394.90    237.72   3396.93    239.75   3399.43    239.75  " /><path style="stroke-width:1.42 ;&st7;   " d=" M  3399.43,   239.75  C  3401.94    239.75   3403.96    237.72   3403.96    235.21  " /><text style="&st18;" transform="matrix(&st16;  3390.92  247.38 )">CLSW</text></g></g><g ewd:figtype="conn" ewd:figID="56" ewd:code="C65"><g ewd:lineID="130"><text style="&st18;" transform="matrix(&st16;  3002.31  179.95 )">3</text><text style="&st18;" transform="matrix(&st16;  3002.2  168.06 )">VTA</text></g><g ewd:lineID="131"><text style="&st18;" transform="matrix(&st16;  3002.31  134.07 )">2</text><text style="&st18;" transform="matrix(&st16;  3004.84  145.4 )">E2</text></g><g ewd:figtype="title"><text style="&st18;" transform="matrix(&st17;  3033.39  174.66 )">C65</text><text style="&st18;" transform="matrix(&st17;  3040.21  174.66 )" ewd:textID="19">Diesel Throttle Body <tspan x="0 " dy="6.0">Assembly (Bank 2)</tspan></text></g></g><g ewd:figtype="conn" ewd:figID="86" ewd:code="I110"><path style="stroke-width:1.42 ;&st7;  " d=" M  3458.92,   163.26  L  3475.92,   163.26  L  3475.92,   180.26  L  3458.92,   180.26  L  3458.92,   163.26  " /><path style="stroke-width:0.85 ;&st7;  " d=" M  3467.42,   163.26  L  3467.42,   180.26  " /><text style="&st18;" transform="matrix(&st16;  3458.13  159.57 )">12</text><text style="&st18;" transform="matrix(&st16;  3461.24  188.45 )">4</text><g ewd:figtype="title"><text style="&st18;" transform="matrix(&st17;  3490.64  183.16 )" ewd:textID="66">No. 33 Junction <tspan x="0 " dy="6.0">Connector</tspan></text><text style="&st18;" transform="matrix(&st17;  3483.81  183.15 )">I110</text></g></g><g ewd:figtype="conn" ewd:figID="90" ewd:code="C112"><path style="stroke-width:0.85 ;&st7;  " d=" M  3484.42,   537.20  L  3484.42,   545.69  " /><path style="stroke-width:0.85 ;&st7;  " d=" M  3484.42,   562.69  L  3484.42,   571.19  " /><path style="stroke-width:0.85 ;&st7;   " d=" M  3481.89,   556.67  C  3483.26    558.07   3485.50    558.09   3486.90    556.72  " /><path style="stroke-width:0.85 ;&st7;   " d=" M  3486.90,   556.72  C  3488.29    555.35   3488.32    553.11   3486.95    551.71  " /><path style="stroke-width:0.85 ;&st7;   " d=" M  3486.95,   551.71  C  3485.58    550.32   3483.34    550.29   3481.94    551.66  " /><path style="stroke-width:0.85 ;&st7;   " d=" M  3481.94,   551.66  C  3481.92    551.68   3481.91    551.70   3481.89    551.71  " /><path style="stroke-width:0.85 ;&st7;   " d=" M  3484.42,   562.69  C  3486.37    562.69   3487.96    561.11   3487.96    559.15  " /><path style="stroke-width:0.85 ;&st7;   " d=" M  3487.96,   559.15  C  3487.96    557.19   3486.37    555.61   3484.42    555.61  " /><path style="stroke-width:0.85 ;&st7;   " d=" M  3484.42,   555.61  C  3483.43    555.61   3482.58    555.96   3481.89    556.67  " /><path style="stroke-width:0.85 ;&st7;   " d=" M  3481.89,   551.71  C  3483.26    553.11   3485.50    553.13   3486.90    551.76  " /><path style="stroke-width:0.85 ;&st7;   " d=" M  3486.90,   551.76  C  3488.29    550.40   3488.32    548.15   3486.95    546.76  " /><path style="stroke-width:0.85 ;&st7;   " d=" M  3486.95,   546.76  C  3486.25    546.05   3485.41    545.69   3484.42    545.69  " /><path style="stroke-width:1.42 ;&st7;  " d=" M  3492.91,   571.19  L  3492.91,   537.20  L  3475.92,   537.20  L  3475.92,   571.19  L  3492.91,   571.19  " /><text style="&st18;" transform="matrix(&st16;  3478.23  579.38 )">1</text><text style="&st18;" transform="matrix(&st16;  3478.23  533.51 )">2</text><g ewd:figtype="title"><text style="&st18;" transform="matrix(&st17;  3507.63  574.1 )" ewd:textID="43">Injector <tspan x="0 " dy="6.0">Assembly No. 8</tspan></text><text style="&st18;" transform="matrix(&st17;  3500.81  574.09 )">C112</text></g></g><g ewd:figtype="w2w" ewd:figID="138" ewd:code="CA3"><path style="stroke-width:1.42 ;&st7;  " d=" M  3395.18,   179.69  L  3399.43,   183.94  L  3403.68,   179.69  " /><path style="stroke-width:1.42 ;&st7;  " d=" M  3403.68,   183.09  L  3399.43,   187.34  L  3395.18,   183.09  " /><text style="&st18;" transform="matrix(&st16;  3383.7  194.97 )">14</text></g><g ewd:figtype="w2w" ewd:figID="139" ewd:code="AI3"><path style="stroke-width:1.42 ;&st7;  " d=" M  3395.18,   137.20  L  3399.43,   141.45  L  3403.68,   137.20  " /><path style="stroke-width:1.42 ;&st7;  " d=" M  3403.68,   140.60  L  3399.43,   144.84  L  3395.18,   140.60  " /><text style="&st18;" transform="matrix(&st16;  3383.7  152.48 )">12</text></g><g ewd:figtype="gp" ewd:figID="185" ewd:code="CD"><path style="stroke-width:0.85 ;&st7;  " d=" M  3186.97,   697.25  L  3186.97,   701.50  " /><path style="stroke-width:0.85 ;&st7;  " d=" M  3182.72,   704.33  L  3191.22,   704.33  " /><path style="stroke-width:0.85 ;&st7;  " d=" M  3184.13,   707.17  L  3189.80,   707.17  " /><path style="stroke-width:0.85 ;&st7;  " d=" M  3185.55,   710.00  L  3188.38,   710.00  " /><path style="stroke-width:0.85 ;&st7;  " d=" M  3178.47,   701.50  L  3195.46,   701.50  " /></g><g ewd:code=" " ewd:figID="259" ewd:comment="1" ewd:figtype="sh"><path style="stroke-width: 0.85 ;&st7; stroke-dasharray:3, 1.5;" d=" M  3535.41,   477.71  L  3467.42,   477.71  L  3467.42,   511.70  L  3535.41,   511.70  L  3535.41,   477.71  " /><path style="stroke-width:0.85 ;&st7;  " d=" M  3534.22,   476.70  L  3533.94,   477.17  L  3533.85,   477.71  L  3533.94,   478.24  L  3534.22,   478.71  L  3534.63,   479.05  L  3535.14,   479.24  L  3535.68,   479.24  L  3536.19,   479.05  L  3536.60,   478.71  L  3536.87,   478.24  L  3536.97,   477.71  L  3536.87,   477.17  L  3536.60,   476.70  L  3536.19,   476.36  L  3535.68,   476.17  L  3535.14,   476.17  L  3534.63,   476.36  L  3534.22,   476.70  L  3534.61,   477.41  L  3534.61,   478.00  L  3534.98,   478.44  L  3535.56,   478.54  L  3536.06,   478.25  L  3536.26,   477.71  L  3536.06,   477.16  L  3535.56,   476.87  L  3534.98,   476.97  L  3535.41,   477.71  " /><g ewd:code="" ewd:figID="284" ewd:comment="1" ewd:figtype="commref"><text style="&st18;" transform="matrix(&st17;  3463.73  499.42 )">(*1)</text></g></g><g ewd:code=" " ewd:figID="258" ewd:comment="1" ewd:figtype="sh"><path style="stroke-width: 0.85 ;&st7; stroke-dasharray:3, 1.5;" d=" M  3280.45,   477.71  L  3212.46,   477.71  L  3212.46,   511.70  L  3280.45,   511.70  L  3280.45,   477.71  " /><path style="stroke-width:0.85 ;&st7;  " d=" M  3279.26,   476.70  L  3278.99,   477.17  L  3278.89,   477.71  L  3278.99,   478.24  L  3279.26,   478.71  L  3279.67,   479.05  L  3280.18,   479.24  L  3280.72,   479.24  L  3281.23,   479.05  L  3281.64,   478.71  L  3281.92,   478.24  L  3282.01,   477.71  L  3281.92,   477.17  L  3281.64,   476.70  L  3281.23,   476.36  L  3280.72,   476.17  L  3280.18,   476.17  L  3279.67,   476.36  L  3279.26,   476.70  L  3279.65,   477.41  L  3279.65,   478.00  L  3280.03,   478.44  L  3280.60,   478.54  L  3281.10,   478.25  L  3281.30,   477.71  L  3281.10,   477.16  L  3280.60,   476.87  L  3280.03,   476.97  L  3280.45,   477.71  " /><g ewd:code="" ewd:figID="281" ewd:comment="1" ewd:figtype="commref"><text style="&st18;" transform="matrix(&st17;  3208.77  499.42 )">(*1)</text></g></g><g ewd:code=" " ewd:figID="261" ewd:comment="1" ewd:figtype="sh"><path style="stroke-width: 0.85 ;&st7; stroke-dasharray:3, 1.5;" d=" M  3450.42,   477.71  L  3382.43,   477.71  L  3382.43,   511.70  L  3450.42,   511.70  L  3450.42,   477.71  " /><path style="stroke-width:0.85 ;&st7;  " d=" M  3449.23,   476.70  L  3448.96,   477.17  L  3448.86,   477.71  L  3448.96,   478.24  L  3449.23,   478.71  L  3449.64,   479.05  L  3450.15,   479.24  L  3450.69,   479.24  L  3451.20,   479.05  L  3451.61,   478.71  L  3451.89,   478.24  L  3451.98,   477.71  L  3451.89,   477.17  L  3451.61,   476.70  L  3451.20,   476.36  L  3450.69,   476.17  L  3450.15,   476.17  L  3449.64,   476.36  L  3449.23,   476.70  L  3449.62,   477.41  L  3449.62,   478.00  L  3450.00,   478.44  L  3450.57,   478.54  L  3451.07,   478.25  L  3451.27,   477.71  L  3451.07,   477.16  L  3450.57,   476.87  L  3450.00,   476.97  L  3450.42,   477.71  " /><g ewd:code="" ewd:figID="283" ewd:comment="1" ewd:figtype="commref"><text style="&st18;" transform="matrix(&st17;  3378.74  499.42 )">(*1)</text></g></g><g ewd:code=" " ewd:figID="260" ewd:comment="1" ewd:figtype="sh"><path style="stroke-width: 0.85 ;&st7; stroke-dasharray:3, 1.5;" d=" M  3365.44,   477.71  L  3297.45,   477.71  L  3297.45,   511.70  L  3365.44,   511.70  L  3365.44,   477.71  " /><path style="stroke-width:0.85 ;&st7;  " d=" M  3364.24,   476.70  L  3363.97,   477.17  L  3363.88,   477.71  L  3363.97,   478.24  L  3364.24,   478.71  L  3364.66,   479.05  L  3365.17,   479.24  L  3365.71,   479.24  L  3366.22,   479.05  L  3366.63,   478.71  L  3366.90,   478.24  L  3366.99,   477.71  L  3366.90,   477.17  L  3366.63,   476.70  L  3366.22,   476.36  L  3365.71,   476.17  L  3365.17,   476.17  L  3364.66,   476.36  L  3364.24,   476.70  L  3364.64,   477.41  L  3364.64,   478.00  L  3365.01,   478.44  L  3365.58,   478.54  L  3366.09,   478.25  L  3366.29,   477.71  L  3366.09,   477.16  L  3365.58,   476.87  L  3365.01,   476.97  L  3365.44,   477.71  " /><g ewd:code="" ewd:figID="282" ewd:comment="1" ewd:figtype="commref"><text style="&st18;" transform="matrix(&st17;  3293.75  499.42 )">(*1)</text></g></g><g ewd:code="1" ewd:figID="292" ewd:comment="" ewd:figtype="comment"><text style="&st18;" transform="matrix(&st16;  3209.06  46.25 )" ewd:textID="1">* 1 :Shielded</text></g></svg>