<?xml version="1.0" encoding="utf-8"?>
<!DOCTYPE svg PUBLIC "-//W3C//DTD SVG 1.0//EN" "http://www.w3.org/TR/2001/REC-SVG-20010904/DTD/svg10.dtd"[
	<!ENTITY ns_flows "http://ns.adobe.com/Flows/1.0/">
	<!ENTITY ns_svg "http://www.w3.org/2000/svg">
	<!ENTITY ns_xlink "http://www.w3.org/1999/xlink">
	<!ENTITY st0 "font-size:7px;font-family:'MS-PGothic';adobe-font-script:japanese;">
	<!ENTITY st1 "font-size:6px;font-family:'ArialMT';">
	<!-- White fill  -->
	<!ENTITY st2 "fill:#FFFFFF;stroke:#000000; stroke-width:1.41;stroke-linecap:round;stroke-linejoin:round;">
	<!-- Yellow fill  -->
	<!ENTITY st3 "fill:#FFFFCC;stroke:#FFFFCC; stroke-width:0.1;stroke-linecap:round;stroke-linejoin:round;">
	<!-- Gray fill  -->
	<!ENTITY st4 "fill:#CCCCCC;stroke:#CCCCCC; stroke-width:0.1;stroke-linecap:round;stroke-linejoin:round;">
	<!-- Light-blue fill -->
	<!ENTITY st5 "fill:#CCECF4;stroke:#000000; stroke-width:1.133;stroke-linecap:round;stroke-linejoin:round;">
	<!ENTITY st6 "fill:none;stroke-linecap:butt; stroke-linejoin:round;">
	<!ENTITY st7 "fill:none;stroke:#000000;stroke-linecap:round;stroke-linejoin:round;">
	<!ENTITY st8 "enable-background:new    ;">
	<!-- Black fill -->
	<!ENTITY st9 "fill:#000000;stroke:#000000; stroke-linecap:round;stroke-linejoin:round;">
	<!-- SRS note   -->
	<!ENTITY st10 "font-size:9px;font-family:'ArialMT';">
	<!ENTITY st11 "font-size:9px;font-family:'Svg Symbol';">
	<!ENTITY st12 "font-size:6px;font-family:'Svg Symbol';">
	<!ENTITY st13 "fill:none;stroke:#ff0000;stroke-linecap:round;stroke-linejoin:round;">
	<!-- Yellow fill  -->
	<!ENTITY st14 "fill:#FFFF00;stroke:#FFFF00; stroke-width:0.1;stroke-linecap:round;stroke-linejoin:round;">
	<!ENTITY st15 "font-size:6px;font-family:'MS-PGothic';adobe-font-script:japanese;">
	<!ENTITY st16 "1.00 0.00 0.00 1.00">
	<!ENTITY st17 "0.00 -1.00 1.00 0.00">
	<!ENTITY st18 "font-size:6px;font-family:'Arial';">
	<!ENTITY st19 "font-size:9px;font-family:'Arial';">
	<!ENTITY st20 "font-size:6px;font-family:'MS-PGothic','MS PGothic';adobe-font-script:japanese;">
	<!ENTITY st21 "font-size:7px;font-family:'MS-PGothic','MS PGothic';adobe-font-script:japanese;">
	<!ATTLIST svg
		xmlns:ewd CDATA #FIXED "http://shcl.co.jp/ewd"
		xmlns:a CDATA #FIXED "http://ns.adobe.com/AdobeSVGViewerExtensions/3.0/"
		ewd:ver CDATA #IMPLIED
	>
	<!ATTLIST a
		ewd:lineID CDATA #IMPLIED
		ewd:groupID CDATA #IMPLIED
		ewd:figtype CDATA #IMPLIED
		ewd:code CDATA #IMPLIED
		ewd:figID CDATA #IMPLIED
		ewd:pinNo CDATA #IMPLIED
		ewd:comment CDATA #IMPLIED >
	<!ATTLIST g
		ewd:lineID CDATA #IMPLIED
		ewd:groupID CDATA #IMPLIED
		ewd:figtype CDATA #IMPLIED
		ewd:code CDATA #IMPLIED
		ewd:figID CDATA #IMPLIED
		ewd:pinNo CDATA #IMPLIED
		ewd:comment CDATA #IMPLIED >
	<!ATTLIST text
		ewd:textID CDATA #IMPLIED >
	<!ATTLIST title
		ewd:textID CDATA #IMPLIED >
]>
<!-- Generator: Shintec Hozumi YS   -->
<svg onload="call_execInitLoadProc_svg('system')" style="overflow:visible;  enable-background:new 0 0 8792.321 710.000" viewBox="0 0 8792.321 710.000" height="710.000" width="8792.321" xml:space="preserve" ewd:ver="2.1.2.9" xmlns="&ns_svg;" xmlns:a="http://ns.adobe.com/AdobeSVGViewerExtensions/3.0/" xmlns:ewd="http://shcl.co.jp/ewd" xmlns:xlink="&ns_xlink;">
<path style="stroke-width:1.42 ;&st7;  " d=" M  1478.75,   248.24  L  1470.25,   248.24  " /><path style="stroke-width:1.42 ;&st7;  " d=" M  1436.26,   248.24  L  1427.76,   248.24  " /><path style="stroke-width:1.42 ;&st7;  " d=" M  1322.25,   146.26  L  1317.28,   151.23  " /><path style="stroke-width:1.42 ;&st7;  " d=" M  1334.28,   426.71  L  1325.78,   426.71  " /><path style="stroke-width:1.42 ;&st7;  " d=" M  1334.28,   151.23  L  1329.31,   146.26  " /><path style="stroke-width:1.42 ;&st7;  " d=" M  1232.29,   426.71  L  1223.80,   426.71  " /><path style="stroke-width:1.42 ;&st7;  " d=" M  1232.29,   503.20  L  1223.80,   503.20  " /><path style="stroke-width:1.42 ;&st7;  " d=" M  1138.81,   426.71  L  1130.31,   426.71  " /><path style="stroke-width:1.42 ;&st7;  " d=" M  1329.31,   163.26  L  1334.28,   158.29  " /><path style="stroke-width:1.42 ;&st7;  " d=" M  1317.28,   158.29  L  1322.25,   163.26  " /><path style="stroke-width:1.42 ;&st7;  " d=" M  1495.75,   175.29  L  1500.72,   180.26  " /><path style="stroke-width:1.42 ;&st7;  " d=" M  1500.72,   163.26  L  1495.75,   168.23  " /><path style="stroke-width:1.42 ;&st7;  " d=" M  1334.28,   363.70  L  1329.31,   358.73  " /><path style="stroke-width:1.42 ;&st7;  " d=" M  1317.28,   370.75  L  1322.25,   375.72  " /><path style="stroke-width:1.42 ;&st7;  " d=" M  1329.31,   375.72  L  1334.28,   370.75  " /><path style="stroke-width:1.42 ;&st7;  " d=" M  1322.25,   358.73  L  1317.28,   363.70  " /><path style="stroke-width:1.42 ;&st7;  " d=" M  1257.79,   363.70  L  1252.82,   358.73  " /><path style="stroke-width:1.42 ;&st7;  " d=" M  1240.79,   370.75  L  1245.76,   375.72  " /><path style="stroke-width:1.42 ;&st7;  " d=" M  1252.82,   375.72  L  1257.79,   370.75  " /><path style="stroke-width:1.42 ;&st7;  " d=" M  1245.76,   358.73  L  1240.79,   363.70  " /><path style="stroke-width:1.42 ;&st7;  " d=" M  1113.31,   363.70  L  1108.34,   358.73  " /><path style="stroke-width:1.42 ;&st7;  " d=" M  1096.32,   370.75  L  1101.29,   375.72  " /><path style="stroke-width:1.42 ;&st7;  " d=" M  1108.34,   375.72  L  1113.31,   370.75  " /><path style="stroke-width:1.42 ;&st7;  " d=" M  1101.29,   358.73  L  1096.32,   363.70  " /><text style="&st18;" transform="matrix(&st16;  1055.87  134.07 )">B-W</text><text style="&st18;" transform="matrix(&st16;  1004.88  134.07 )">B-W</text><text style="&st18;" transform="matrix(&st17;  1220.1  173.46 )">B-W</text><text style="&st18;" transform="matrix(&st17;  1322.08  185.36 )">R-B</text><text style="&st18;" transform="matrix(&st17;  1322.08  402.79 )">L</text><text style="&st18;" transform="matrix(&st17;  1333.42  409.03 )">(LHD)</text><text style="&st18;" transform="matrix(&st17;  1126.62  453.9 )">B</text><text style="&st18;" transform="matrix(&st17;  1137.95  460.03 )">(LHD)</text><text style="&st18;" transform="matrix(&st17;  1220.1  458.16 )">B-W</text><text style="&st18;" transform="matrix(&st17;  1231.43  460.03 )">(LHD)</text><text style="&st18;" transform="matrix(&st17;  1101.12  343.3 )">L</text><text style="&st18;" transform="matrix(&st17;  1126.62  343.42 )">B</text><text style="&st18;" transform="matrix(&st17;  1137.95  349.54 )">(LHD)</text><text style="&st18;" transform="matrix(&st17;  1152.11  343.42 )">B</text><text style="&st18;" transform="matrix(&st17;  1163.44  349.58 )">(RHD)</text><text style="&st18;" transform="matrix(&st17;  1186.11  347.68 )">B-W</text><text style="&st18;" transform="matrix(&st17;  1197.44  349.58 )">(RHD)</text><text style="&st18;" transform="matrix(&st17;  1220.1  347.68 )">B-W</text><text style="&st18;" transform="matrix(&st17;  1231.43  349.54 )">(LHD)</text><text style="&st18;" transform="matrix(&st17;  1245.6  343.3 )">L</text><text style="&st18;" transform="matrix(&st16;  1170.73  363.53 )">L</text><text style="&st18;" transform="matrix(&st16;  1272.72  363.53 )">L</text><text style="&st18;" transform="matrix(&st17;  1322.08  343.3 )">L</text><text style="&st18;" transform="matrix(&st17;  1347.58  347.68 )">W-B</text><text style="&st18;" transform="matrix(&st17;  1152.11  160.64 )">R-W</text><text style="&st18;" transform="matrix(&st17;  1163.44  162.61 )">(RHD)</text><text style="&st18;" transform="matrix(&st17;  1126.62  160.64 )">R-W</text><text style="&st18;" transform="matrix(&st17;  1137.95  162.57 )">(LHD)</text><text style="&st18;" transform="matrix(&st17;  1466.56  210.85 )">R-B</text><text style="&st18;" transform="matrix(&st17;  1477.89  213.57 )">(LHD)</text><text style="&st18;" transform="matrix(&st17;  1424.07  211.98 )">W-G</text><text style="&st18;" transform="matrix(&st17;  1435.4  213.57 )">(LHD)</text><text style="&st18;" transform="matrix(&st17;  1424.07  296.96 )">W-G</text><text style="&st18;" transform="matrix(&st17;  1435.4  298.55 )">(LHD)</text><text style="&st18;" transform="matrix(&st17;  1466.56  295.84 )">R-B</text><text style="&st18;" transform="matrix(&st17;  1477.89  298.55 )">(LHD)</text><text style="&st18;" transform="matrix(&st17;  1390.07  296.96 )">W-G</text><text style="&st18;" transform="matrix(&st17;  1401.4  298.59 )">(RHD)</text><text style="&st18;" transform="matrix(&st17;  1390.07  402.79 )">L</text><text style="&st18;" transform="matrix(&st17;  1288.09  347.68 )">W-B</text><text style="&st18;" transform="matrix(&st17;  1288.09  521.9 )">W-B</text><text style="&st18;" transform="matrix(&st17;  1347.58  521.9 )">W-B</text><text style="&st18;" transform="matrix(&st16;  1268.33  592.99 )">B-W</text><text style="&st18;" transform="matrix(&st16;  1413.66  151.06 )">R-B</text><text style="&st18;" transform="matrix(&st16;  1294.68  151.06 )">R-B</text><text style="&st18;" transform="matrix(&st16;  1056.72  117.07 )">R-B</text><text style="&st18;" transform="matrix(&st16;  1005.73  117.07 )">R-B</text><text style="&st18;" transform="matrix(&st16;  1004.61  609.99 )">G-W</text><text style="&st18;" transform="matrix(&st16;  1055.6  609.99 )">G-W</text><text style="&st18;" transform="matrix(&st16;  1004.88  575.99 )">W-B</text><text style="&st18;" transform="matrix(&st16;  1055.87  575.99 )">W-B</text><text style="&st18;" transform="matrix(&st16;  1009.14  558.99 )">B</text><text style="&st18;" transform="matrix(&st16;  1060.13  558.99 )">B</text><text style="&st18;" transform="matrix(&st16;  1009.26  363.53 )">L</text><text style="&st18;" transform="matrix(&st16;  1060.25  363.53 )">L</text><text style="&st18;" transform="matrix(&st16;  1005.73  660.98 )">B-R</text><text style="&st18;" transform="matrix(&st16;  1004.57  672.31 )">(*10)</text><text style="&st18;" transform="matrix(&st16;  1056.72  660.98 )">B-R</text><text style="&st18;" transform="matrix(&st16;  1055.56  672.31 )">(*10)</text><g ewd:figtype="rb" ewd:figID="1" ewd:code="FUSE45"><path style="stroke-width:1.42 ;&st7;  " d=" M  1225.92,    95.27  L  1221.67,    95.27  " /><path style="stroke-width:1.42 ;&st7;  " d=" M  1225.92,   103.77  L  1221.67,   103.77  " /><path style="stroke-width:0.85 ;&st7;  " d=" M  1223.80,    78.27  L  1223.80,    95.27  " /><path style="stroke-width:1.42 ;&st7;   " d=" M  1221.67,    95.27  C  1219.32     95.27   1217.42     97.17   1217.42     99.52  " /><path style="stroke-width:1.42 ;&st7;   " d=" M  1217.42,    99.52  C  1217.42    101.87   1219.32    103.77   1221.67    103.77  " /><path style="stroke-width:1.42 ;&st7;   " d=" M  1225.92,   103.77  C  1228.27    103.77   1230.17    101.87   1230.17     99.52  " /><path style="stroke-width:1.42 ;&st7;   " d=" M  1230.17,    99.52  C  1230.17     97.17   1228.27     95.27   1225.92     95.27  " /><path style="stroke-width:0.28 ;&st9;  " d=" M  1223.80,    90.37  L  1220.96,    87.54  L  1220.96,    91.79  L  1223.80,    94.62  L  1226.63,    91.79  L  1226.63,    87.54  L  1223.80,    90.37  " /><text style="&st18;" transform="matrix(&st16;  1240.22  56.17 )">10A <tspan x="0 " dy="6.0">A/F</tspan></text><text style="&st18;" transform="matrix(&st16;  1222.0  101.49 )">4</text><text style="&st18;" transform="matrix(&st16;  1217.61  86.47 )">2</text><text style="&st18;" transform="matrix(&st16;  1215.75  32.08 )">(BAT)</text><path style="stroke-width:0.85 ;&st7;  " d=" M  1223.80,    69.77  L  1223.80,    78.27  " /><path style="stroke-width:1.42 ;&st7;   " d=" M  1223.80,    47.11  C  1221.06     48.72   1220.15     52.25   1221.76     54.99  " /><path style="stroke-width:1.42 ;&st7;   " d=" M  1221.76,    54.99  C  1222.28     55.87   1222.91     56.51   1223.80     57.03  " /><path style="stroke-width:1.42 ;&st7;   " d=" M  1223.80,    66.94  C  1226.53     65.33   1227.45     61.80   1225.83     59.06  " /><path style="stroke-width:1.42 ;&st7;   " d=" M  1225.83,    59.06  C  1225.31     58.18   1224.68     57.55   1223.80     57.03  " /><path style="stroke-width:0.85 ;&st7;   " d=" M  1225.21,    45.69  C  1225.21     44.91   1224.58     44.28   1223.80     44.28  " /><path style="stroke-width:0.85 ;&st7;   " d=" M  1223.80,    44.28  C  1223.01     44.28   1222.38     44.91   1222.38     45.69  " /><path style="stroke-width:0.85 ;&st7;   " d=" M  1222.38,    45.69  C  1222.38     46.48   1223.01     47.11   1223.80     47.11  " /><path style="stroke-width:0.85 ;&st7;   " d=" M  1223.80,    47.11  C  1224.58     47.11   1225.21     46.48   1225.21     45.69  " /><path style="stroke-width:0.85 ;&st7;   " d=" M  1225.21,    68.36  C  1225.21     67.57   1224.58     66.94   1223.80     66.94  " /><path style="stroke-width:0.85 ;&st7;   " d=" M  1223.80,    66.94  C  1223.01     66.94   1222.38     67.57   1222.38     68.36  " /><path style="stroke-width:0.85 ;&st7;   " d=" M  1222.38,    68.36  C  1222.38     69.14   1223.01     69.77   1223.80     69.77  " /><path style="stroke-width:0.85 ;&st7;   " d=" M  1223.80,    69.77  C  1224.58     69.77   1225.21     69.14   1225.21     68.36  " /><path style="stroke-width:1.42 ;&st7;  " d=" M  1211.05,    35.78  L  1211.05,    78.27  L  1236.54,    78.27  L  1236.54,    35.78  L  1211.05,    35.78  " /></g><g ewd:figtype="rb" ewd:figID="7" ewd:code="FUSE52"><path style="stroke-width:1.42 ;&st7;  " d=" M  1276.91,    95.27  L  1272.66,    95.27  " /><path style="stroke-width:1.42 ;&st7;  " d=" M  1276.91,   103.77  L  1272.66,   103.77  " /><path style="stroke-width:0.85 ;&st7;  " d=" M  1274.79,    78.27  L  1274.79,    95.27  " /><path style="stroke-width:1.42 ;&st7;   " d=" M  1272.66,    95.27  C  1270.32     95.27   1268.41     97.17   1268.41     99.52  " /><path style="stroke-width:1.42 ;&st7;   " d=" M  1268.41,    99.52  C  1268.41    101.87   1270.32    103.77   1272.66    103.77  " /><path style="stroke-width:1.42 ;&st7;   " d=" M  1276.91,   103.77  C  1279.26    103.77   1281.16    101.87   1281.16     99.52  " /><path style="stroke-width:1.42 ;&st7;   " d=" M  1281.16,    99.52  C  1281.16     97.17   1279.26     95.27   1276.91     95.27  " /><path style="stroke-width:0.28 ;&st9;  " d=" M  1274.79,    90.37  L  1271.95,    87.54  L  1271.95,    91.79  L  1274.79,    94.62  L  1277.62,    91.79  L  1277.62,    87.54  L  1274.79,    90.37  " /><text style="&st18;" transform="matrix(&st16;  1291.21  56.17 )">25A <tspan x="0 " dy="6.0">EFI</tspan></text><text style="&st18;" transform="matrix(&st16;  1272.99  101.49 )">4</text><text style="&st18;" transform="matrix(&st16;  1268.6  86.47 )">2</text><text style="&st18;" transform="matrix(&st16;  1266.74  32.08 )">(BAT)</text><path style="stroke-width:0.85 ;&st7;  " d=" M  1274.79,    69.77  L  1274.79,    78.27  " /><path style="stroke-width:1.42 ;&st7;   " d=" M  1274.79,    47.11  C  1272.05     48.72   1271.14     52.25   1272.75     54.99  " /><path style="stroke-width:1.42 ;&st7;   " d=" M  1272.75,    54.99  C  1273.27     55.87   1273.91     56.51   1274.79     57.03  " /><path style="stroke-width:1.42 ;&st7;   " d=" M  1274.79,    66.94  C  1277.52     65.33   1278.44     61.80   1276.82     59.06  " /><path style="stroke-width:1.42 ;&st7;   " d=" M  1276.82,    59.06  C  1276.30     58.18   1275.67     57.55   1274.79     57.03  " /><path style="stroke-width:0.85 ;&st7;   " d=" M  1276.20,    45.69  C  1276.20     44.91   1275.57     44.28   1274.79     44.28  " /><path style="stroke-width:0.85 ;&st7;   " d=" M  1274.79,    44.28  C  1274.00     44.28   1273.37     44.91   1273.37     45.69  " /><path style="stroke-width:0.85 ;&st7;   " d=" M  1273.37,    45.69  C  1273.37     46.48   1274.00     47.11   1274.79     47.11  " /><path style="stroke-width:0.85 ;&st7;   " d=" M  1274.79,    47.11  C  1275.57     47.11   1276.20     46.48   1276.20     45.69  " /><path style="stroke-width:0.85 ;&st7;   " d=" M  1276.20,    68.36  C  1276.20     67.57   1275.57     66.94   1274.79     66.94  " /><path style="stroke-width:0.85 ;&st7;   " d=" M  1274.79,    66.94  C  1274.00     66.94   1273.37     67.57   1273.37     68.36  " /><path style="stroke-width:0.85 ;&st7;   " d=" M  1273.37,    68.36  C  1273.37     69.14   1274.00     69.77   1274.79     69.77  " /><path style="stroke-width:0.85 ;&st7;   " d=" M  1274.79,    69.77  C  1275.57     69.77   1276.20     69.14   1276.20     68.36  " /><path style="stroke-width:1.42 ;&st7;  " d=" M  1262.04,    35.78  L  1262.04,    78.27  L  1287.53,    78.27  L  1287.53,    35.78  L  1262.04,    35.78  " /></g><g ewd:figtype="rb" ewd:figID="10" ewd:code="1"><path style="stroke-width:1.42 ;&st7;  " d=" M  1132.44,   299.24  L  1128.19,   299.24  " /><path style="stroke-width:1.42 ;&st7;  " d=" M  1132.44,   307.73  L  1128.19,   307.73  " /><path style="stroke-width:1.42 ;&st7;  " d=" M  1106.94,   299.24  L  1102.69,   299.24  " /><path style="stroke-width:1.42 ;&st7;  " d=" M  1106.94,   307.73  L  1102.69,   307.73  " /><path style="stroke-width:1.42 ;&st7;  " d=" M  1106.94,   214.25  L  1102.69,   214.25  " /><path style="stroke-width:1.42 ;&st7;  " d=" M  1106.94,   205.75  L  1102.69,   205.75  " /><path style="stroke-width:1.42 ;&st7;  " d=" M  1132.44,   214.25  L  1128.19,   214.25  " /><path style="stroke-width:1.42 ;&st7;  " d=" M  1132.44,   205.75  L  1128.19,   205.75  " /><path style="stroke-width:1.42 ;&st7;   " d=" M  1106.94,   307.73  C  1109.29    307.73   1111.19    305.83   1111.19    303.48  " /><path style="stroke-width:1.42 ;&st7;   " d=" M  1111.19,   303.48  C  1111.19    301.14   1109.29    299.24   1106.94    299.24  " /><path style="stroke-width:1.42 ;&st7;   " d=" M  1128.19,   299.24  C  1125.84    299.24   1123.94    301.14   1123.94    303.48  " /><path style="stroke-width:1.42 ;&st7;   " d=" M  1123.94,   303.48  C  1123.94    305.83   1125.84    307.73   1128.19    307.73  " /><path style="stroke-width:1.42 ;&st7;   " d=" M  1132.44,   307.73  C  1134.78    307.73   1136.69    305.83   1136.69    303.48  " /><path style="stroke-width:1.42 ;&st7;   " d=" M  1136.69,   303.48  C  1136.69    301.14   1134.78    299.24   1132.44    299.24  " /><path style="stroke-width:1.42 ;&st7;   " d=" M  1102.69,   299.24  C  1100.34    299.24   1098.44    301.14   1098.44    303.48  " /><path style="stroke-width:1.42 ;&st7;   " d=" M  1098.44,   303.48  C  1098.44    305.83   1100.34    307.73   1102.69    307.73  " /><path style="stroke-width:1.42 ;&st7;   " d=" M  1111.19,   210.00  C  1111.19    207.65   1109.29    205.75   1106.94    205.75  " /><path style="stroke-width:1.42 ;&st7;   " d=" M  1106.94,   214.25  C  1109.29    214.25   1111.19    212.35   1111.19    210.00  " /><path style="stroke-width:1.42 ;&st7;   " d=" M  1098.44,   210.00  C  1098.44    212.35   1100.34    214.25   1102.69    214.25  " /><path style="stroke-width:1.42 ;&st7;   " d=" M  1102.69,   205.75  C  1100.34    205.75   1098.44    207.65   1098.44    210.00  " /><path style="stroke-width:1.42 ;&st7;   " d=" M  1136.69,   210.00  C  1136.69    207.65   1134.78    205.75   1132.44    205.75  " /><path style="stroke-width:1.42 ;&st7;   " d=" M  1132.44,   214.25  C  1134.78    214.25   1136.69    212.35   1136.69    210.00  " /><path style="stroke-width:1.42 ;&st7;   " d=" M  1123.94,   210.00  C  1123.94    212.35   1125.84    214.25   1128.19    214.25  " /><path style="stroke-width:1.42 ;&st7;   " d=" M  1128.19,   205.75  C  1125.84    205.75   1123.94    207.65   1123.94    210.00  " /><path style="stroke-width:0.85 ;&st7;  " d=" M  1104.81,   299.24  L  1104.81,   273.74  " /><path style="stroke-width:0.28 ;&st9;  " d=" M  1104.81,   294.34  L  1101.98,   291.51  L  1101.98,   295.76  L  1104.81,   298.59  L  1107.65,   295.76  L  1107.65,   291.51  L  1104.81,   294.34  " /><path style="stroke-width:0.28 ;&st9;  " d=" M  1130.31,   294.34  L  1127.48,   291.51  L  1127.48,   295.76  L  1130.31,   298.59  L  1133.14,   295.76  L  1133.14,   291.51  L  1130.31,   294.34  " /><path style="stroke-width:0.85 ;&st7;  " d=" M  1130.31,   299.24  L  1130.31,   273.74  " /><path style="stroke-width:0.28 ;&st9;  " d=" M  1104.81,   219.14  L  1107.65,   221.98  L  1107.65,   217.73  L  1104.81,   214.90  L  1101.98,   217.73  L  1101.98,   221.98  L  1104.81,   219.14  " /><path style="stroke-width:0.85 ;&st7;  " d=" M  1104.81,   239.75  L  1104.81,   214.25  " /><path style="stroke-width:0.28 ;&st9;  " d=" M  1130.31,   219.14  L  1133.14,   221.98  L  1133.14,   217.73  L  1130.31,   214.90  L  1127.48,   217.73  L  1127.48,   221.98  L  1130.31,   219.14  " /><path style="stroke-width:0.85 ;&st7;  " d=" M  1130.31,   239.75  L  1130.31,   214.25  " /><text style="&st18;" transform="matrix(&st17;  1146.45  266.38 )" ewd:textID="27">C/OPN <tspan x="0 " dy="6.0">Relay</tspan></text><text style="&st18;" transform="matrix(&st16;  1103.01  305.45 )">1</text><text style="&st18;" transform="matrix(&st16;  1128.51  305.45 )">1</text><text style="&st18;" transform="matrix(&st16;  1103.01  211.97 )">1</text><text style="&st18;" transform="matrix(&st16;  1128.51  211.97 )">1</text><text style="&st18;" transform="matrix(&st16;  1124.13  236.05 )">2</text><text style="&st18;" transform="matrix(&st16;  1098.63  236.05 )">5</text><text style="&st18;" transform="matrix(&st16;  1124.13  281.93 )">1</text><text style="&st18;" transform="matrix(&st16;  1098.63  281.93 )">3</text><path style="stroke-width:0.85 ;&st7;  " d=" M  1130.31,   265.24  L  1130.31,   273.74  " /><path style="stroke-width:0.85 ;&st7;  " d=" M  1130.31,   239.75  L  1130.31,   248.24  " /><path style="stroke-width:0.85 ;&st7;  " d=" M  1104.82,   243.99  L  1104.82,   239.75  " /><path style="stroke-width:0.85 ;&st7;  " d=" M  1104.82,   273.74  L  1104.82,   269.49  " /><path style="stroke-width:1.42 ;&st7;  " d=" M  1104.82,   266.66  L  1099.15,   243.99  " /><path style="stroke-width:0.85 ;&st7;   " d=" M  1130.31,   265.24  C  1132.27    265.24   1133.85    263.66   1133.85    261.70  " /><path style="stroke-width:0.85 ;&st7;   " d=" M  1133.85,   261.70  C  1133.85    259.74   1132.27    258.16   1130.31    258.16  " /><path style="stroke-width:0.85 ;&st7;   " d=" M  1130.31,   258.16  C  1129.32    258.16   1128.48    258.51   1127.78    259.22  " /><path style="stroke-width:0.85 ;&st7;   " d=" M  1127.78,   259.22  C  1129.15    260.62   1131.39    260.64   1132.79    259.27  " /><path style="stroke-width:0.85 ;&st7;   " d=" M  1132.79,   259.27  C  1134.19    257.90   1134.21    255.66   1132.84    254.26  " /><path style="stroke-width:0.85 ;&st7;   " d=" M  1132.84,   254.26  C  1131.47    252.87   1129.23    252.84   1127.83    254.21  " /><path style="stroke-width:0.85 ;&st7;   " d=" M  1127.83,   254.21  C  1127.81    254.23   1127.80    254.25   1127.78    254.26  " /><path style="stroke-width:0.85 ;&st7;   " d=" M  1127.78,   254.26  C  1129.15    255.66   1131.39    255.68   1132.79    254.31  " /><path style="stroke-width:0.85 ;&st7;   " d=" M  1132.79,   254.31  C  1134.19    252.95   1134.21    250.70   1132.84    249.31  " /><path style="stroke-width:0.85 ;&st7;   " d=" M  1132.84,   249.31  C  1132.15    248.60   1131.30    248.24   1130.31    248.24  " /><path style="stroke-width:0.85 ;&st7;   " d=" M  1106.23,   245.41  C  1106.23    244.63   1105.60    243.99   1104.82    243.99  " /><path style="stroke-width:0.85 ;&st7;   " d=" M  1104.82,   243.99  C  1104.03    243.99   1103.40    244.63   1103.40    245.41  " /><path style="stroke-width:0.85 ;&st7;   " d=" M  1103.40,   245.41  C  1103.40    246.19   1104.03    246.83   1104.82    246.83  " /><path style="stroke-width:0.85 ;&st7;   " d=" M  1104.82,   246.83  C  1105.60    246.83   1106.23    246.19   1106.23    245.41  " /><path style="stroke-width:0.85 ;&st7;   " d=" M  1106.23,   268.07  C  1106.23    267.29   1105.60    266.66   1104.82    266.66  " /><path style="stroke-width:0.85 ;&st7;   " d=" M  1104.82,   266.66  C  1104.03    266.66   1103.40    267.29   1103.40    268.07  " /><path style="stroke-width:0.85 ;&st7;   " d=" M  1103.40,   268.07  C  1103.40    268.86   1104.03    269.49   1104.82    269.49  " /><path style="stroke-width:0.85 ;&st7;   " d=" M  1104.82,   269.49  C  1105.60    269.49   1106.23    268.86   1106.23    268.07  " /><path style="stroke-width:1.42 ;&st7;  " d=" M  1138.81,   239.75  L  1096.32,   239.75  L  1096.32,   273.74  L  1138.81,   273.74  L  1138.81,   239.75  " /></g><g ewd:figtype="rb" ewd:figID="20" ewd:code="1"><path style="stroke-width:1.42 ;&st7;  " d=" M  1251.42,   205.75  L  1247.17,   205.75  " /><path style="stroke-width:1.42 ;&st7;  " d=" M  1251.42,   214.25  L  1247.17,   214.25  " /><path style="stroke-width:1.42 ;&st7;  " d=" M  1225.92,   205.75  L  1221.67,   205.75  " /><path style="stroke-width:1.42 ;&st7;  " d=" M  1225.92,   214.25  L  1221.67,   214.25  " /><path style="stroke-width:1.42 ;&st7;  " d=" M  1225.92,   307.73  L  1221.67,   307.73  " /><path style="stroke-width:1.42 ;&st7;  " d=" M  1225.92,   299.24  L  1221.67,   299.24  " /><path style="stroke-width:1.42 ;&st7;  " d=" M  1251.42,   307.73  L  1247.17,   307.73  " /><path style="stroke-width:1.42 ;&st7;  " d=" M  1251.42,   299.24  L  1247.17,   299.24  " /><path style="stroke-width:1.42 ;&st7;   " d=" M  1247.17,   205.75  C  1244.82    205.75   1242.92    207.65   1242.92    210.00  " /><path style="stroke-width:1.42 ;&st7;   " d=" M  1242.92,   210.00  C  1242.92    212.35   1244.82    214.25   1247.17    214.25  " /><path style="stroke-width:1.42 ;&st7;   " d=" M  1255.67,   210.00  C  1255.67    207.65   1253.76    205.75   1251.42    205.75  " /><path style="stroke-width:1.42 ;&st7;   " d=" M  1251.42,   214.25  C  1253.76    214.25   1255.67    212.35   1255.67    210.00  " /><path style="stroke-width:1.42 ;&st7;   " d=" M  1217.42,   303.48  C  1217.42    305.83   1219.32    307.73   1221.67    307.73  " /><path style="stroke-width:1.42 ;&st7;   " d=" M  1221.67,   205.75  C  1219.32    205.75   1217.42    207.65   1217.42    210.00  " /><path style="stroke-width:1.42 ;&st7;   " d=" M  1225.92,   214.25  C  1228.27    214.25   1230.17    212.35   1230.17    210.00  " /><path style="stroke-width:1.42 ;&st7;   " d=" M  1217.42,   210.00  C  1217.42    212.35   1219.32    214.25   1221.67    214.25  " /><path style="stroke-width:1.42 ;&st7;   " d=" M  1230.17,   210.00  C  1230.17    207.65   1228.27    205.75   1225.92    205.75  " /><path style="stroke-width:1.42 ;&st7;   " d=" M  1221.67,   299.24  C  1219.32    299.24   1217.42    301.14   1217.42    303.48  " /><path style="stroke-width:1.42 ;&st7;   " d=" M  1255.67,   303.48  C  1255.67    301.14   1253.76    299.24   1251.42    299.24  " /><path style="stroke-width:1.42 ;&st7;   " d=" M  1251.42,   307.73  C  1253.76    307.73   1255.67    305.83   1255.67    303.48  " /><path style="stroke-width:1.42 ;&st7;   " d=" M  1242.92,   303.48  C  1242.92    305.83   1244.82    307.73   1247.17    307.73  " /><path style="stroke-width:1.42 ;&st7;   " d=" M  1247.17,   299.24  C  1244.82    299.24   1242.92    301.14   1242.92    303.48  " /><path style="stroke-width:1.42 ;&st7;   " d=" M  1230.17,   303.48  C  1230.17    301.14   1228.27    299.24   1225.92    299.24  " /><path style="stroke-width:1.42 ;&st7;   " d=" M  1225.92,   307.73  C  1228.27    307.73   1230.17    305.83   1230.17    303.48  " /><path style="stroke-width:0.85 ;&st7;  " d=" M  1249.29,   239.75  L  1249.29,   214.25  " /><path style="stroke-width:0.28 ;&st9;  " d=" M  1249.29,   219.14  L  1252.12,   221.98  L  1252.12,   217.73  L  1249.29,   214.90  L  1246.46,   217.73  L  1246.46,   221.98  L  1249.29,   219.14  " /><path style="stroke-width:0.85 ;&st7;  " d=" M  1223.80,   239.75  L  1223.80,   214.25  " /><path style="stroke-width:0.28 ;&st9;  " d=" M  1223.80,   219.14  L  1226.63,   221.98  L  1226.63,   217.73  L  1223.80,   214.90  L  1220.96,   217.73  L  1220.96,   221.98  L  1223.80,   219.14  " /><path style="stroke-width:0.28 ;&st9;  " d=" M  1249.29,   294.34  L  1246.46,   291.51  L  1246.46,   295.76  L  1249.29,   298.59  L  1252.12,   295.76  L  1252.12,   291.51  L  1249.29,   294.34  " /><path style="stroke-width:0.85 ;&st7;  " d=" M  1249.29,   299.24  L  1249.29,   273.74  " /><path style="stroke-width:0.28 ;&st9;  " d=" M  1223.80,   294.34  L  1220.96,   291.51  L  1220.96,   295.76  L  1223.80,   298.59  L  1226.63,   295.76  L  1226.63,   291.51  L  1223.80,   294.34  " /><path style="stroke-width:0.85 ;&st7;  " d=" M  1223.80,   299.24  L  1223.80,   273.74  " /><text style="&st18;" transform="matrix(&st16;  1217.61  281.93 )">3</text><text style="&st18;" transform="matrix(&st16;  1243.11  281.93 )">1</text><text style="&st18;" transform="matrix(&st16;  1217.61  236.05 )">5</text><text style="&st18;" transform="matrix(&st16;  1243.11  236.05 )">2</text><text style="&st18;" transform="matrix(&st16;  1247.49  211.97 )">1</text><text style="&st18;" transform="matrix(&st16;  1222.0  211.97 )">1</text><text style="&st18;" transform="matrix(&st16;  1247.49  305.45 )">1</text><text style="&st18;" transform="matrix(&st16;  1222.0  305.45 )">1</text><text style="&st18;" transform="matrix(&st17;  1265.43  263.43 )" ewd:textID="21">A/F <tspan x="0 " dy="6.0">Relay</tspan></text><path style="stroke-width:1.42 ;&st7;  " d=" M  1223.80,   266.66  L  1218.13,   243.99  " /><path style="stroke-width:0.85 ;&st7;  " d=" M  1223.80,   273.74  L  1223.80,   269.49  " /><path style="stroke-width:0.85 ;&st7;  " d=" M  1223.80,   243.99  L  1223.80,   239.75  " /><path style="stroke-width:0.85 ;&st7;  " d=" M  1249.29,   265.24  L  1249.29,   273.74  " /><path style="stroke-width:0.85 ;&st7;  " d=" M  1249.29,   239.75  L  1249.29,   248.24  " /><path style="stroke-width:0.85 ;&st7;   " d=" M  1225.21,   268.07  C  1225.21    267.29   1224.58    266.66   1223.80    266.66  " /><path style="stroke-width:0.85 ;&st7;   " d=" M  1223.80,   266.66  C  1223.01    266.66   1222.38    267.29   1222.38    268.07  " /><path style="stroke-width:0.85 ;&st7;   " d=" M  1222.38,   268.07  C  1222.38    268.86   1223.01    269.49   1223.80    269.49  " /><path style="stroke-width:0.85 ;&st7;   " d=" M  1223.80,   269.49  C  1224.58    269.49   1225.21    268.86   1225.21    268.07  " /><path style="stroke-width:0.85 ;&st7;   " d=" M  1225.21,   245.41  C  1225.21    244.63   1224.58    243.99   1223.80    243.99  " /><path style="stroke-width:0.85 ;&st7;   " d=" M  1223.80,   243.99  C  1223.01    243.99   1222.38    244.63   1222.38    245.41  " /><path style="stroke-width:0.85 ;&st7;   " d=" M  1222.38,   245.41  C  1222.38    246.19   1223.01    246.83   1223.80    246.83  " /><path style="stroke-width:0.85 ;&st7;   " d=" M  1223.80,   246.83  C  1224.58    246.83   1225.21    246.19   1225.21    245.41  " /><path style="stroke-width:0.85 ;&st7;   " d=" M  1246.76,   254.26  C  1248.13    255.66   1250.37    255.68   1251.77    254.31  " /><path style="stroke-width:0.85 ;&st7;   " d=" M  1251.77,   254.31  C  1253.17    252.95   1253.19    250.70   1251.82    249.31  " /><path style="stroke-width:0.85 ;&st7;   " d=" M  1251.82,   249.31  C  1251.13    248.60   1250.28    248.24   1249.29    248.24  " /><path style="stroke-width:0.85 ;&st7;   " d=" M  1246.76,   259.22  C  1248.13    260.62   1250.37    260.64   1251.77    259.27  " /><path style="stroke-width:0.85 ;&st7;   " d=" M  1251.77,   259.27  C  1253.17    257.90   1253.19    255.66   1251.82    254.26  " /><path style="stroke-width:0.85 ;&st7;   " d=" M  1251.82,   254.26  C  1250.45    252.87   1248.21    252.84   1246.81    254.21  " /><path style="stroke-width:0.85 ;&st7;   " d=" M  1246.81,   254.21  C  1246.79    254.23   1246.78    254.25   1246.76    254.26  " /><path style="stroke-width:0.85 ;&st7;   " d=" M  1249.29,   265.24  C  1251.25    265.24   1252.83    263.66   1252.83    261.70  " /><path style="stroke-width:0.85 ;&st7;   " d=" M  1252.83,   261.70  C  1252.83    259.74   1251.25    258.16   1249.29    258.16  " /><path style="stroke-width:0.85 ;&st7;   " d=" M  1249.29,   258.16  C  1248.30    258.16   1247.46    258.51   1246.76    259.22  " /><path style="stroke-width:1.42 ;&st7;  " d=" M  1257.79,   239.75  L  1215.30,   239.75  L  1215.30,   273.74  L  1257.79,   273.74  L  1257.79,   239.75  " /></g><g ewd:figtype="rb" ewd:figID="22" ewd:code="1"><path style="stroke-width:1.42 ;&st7;  " d=" M  1353.40,   307.73  L  1349.15,   307.73  " /><path style="stroke-width:1.42 ;&st7;  " d=" M  1353.40,   299.24  L  1349.15,   299.24  " /><path style="stroke-width:1.42 ;&st7;  " d=" M  1327.90,   299.24  L  1323.65,   299.24  " /><path style="stroke-width:1.42 ;&st7;  " d=" M  1327.90,   307.73  L  1323.65,   307.73  " /><path style="stroke-width:1.42 ;&st7;  " d=" M  1327.90,   214.25  L  1323.65,   214.25  " /><path style="stroke-width:1.42 ;&st7;  " d=" M  1327.90,   205.75  L  1323.65,   205.75  " /><path style="stroke-width:1.42 ;&st7;  " d=" M  1353.40,   214.25  L  1349.15,   214.25  " /><path style="stroke-width:1.42 ;&st7;  " d=" M  1353.40,   205.75  L  1349.15,   205.75  " /><path style="stroke-width:1.42 ;&st7;   " d=" M  1327.90,   307.73  C  1330.25    307.73   1332.15    305.83   1332.15    303.48  " /><path style="stroke-width:1.42 ;&st7;   " d=" M  1332.15,   303.48  C  1332.15    301.14   1330.25    299.24   1327.90    299.24  " /><path style="stroke-width:1.42 ;&st7;   " d=" M  1323.65,   205.75  C  1321.31    205.75   1319.40    207.65   1319.40    210.00  " /><path style="stroke-width:1.42 ;&st7;   " d=" M  1349.15,   299.24  C  1346.80    299.24   1344.90    301.14   1344.90    303.48  " /><path style="stroke-width:1.42 ;&st7;   " d=" M  1344.90,   303.48  C  1344.90    305.83   1346.80    307.73   1349.15    307.73  " /><path style="stroke-width:1.42 ;&st7;   " d=" M  1353.40,   307.73  C  1355.75    307.73   1357.65    305.83   1357.65    303.48  " /><path style="stroke-width:1.42 ;&st7;   " d=" M  1357.65,   303.48  C  1357.65    301.14   1355.75    299.24   1353.40    299.24  " /><path style="stroke-width:1.42 ;&st7;   " d=" M  1323.65,   299.24  C  1321.31    299.24   1319.40    301.14   1319.40    303.48  " /><path style="stroke-width:1.42 ;&st7;   " d=" M  1332.15,   210.00  C  1332.15    207.65   1330.25    205.75   1327.90    205.75  " /><path style="stroke-width:1.42 ;&st7;   " d=" M  1319.40,   210.00  C  1319.40    212.35   1321.31    214.25   1323.65    214.25  " /><path style="stroke-width:1.42 ;&st7;   " d=" M  1327.90,   214.25  C  1330.25    214.25   1332.15    212.35   1332.15    210.00  " /><path style="stroke-width:1.42 ;&st7;   " d=" M  1344.90,   210.00  C  1344.90    212.35   1346.80    214.25   1349.15    214.25  " /><path style="stroke-width:1.42 ;&st7;   " d=" M  1319.40,   303.48  C  1319.40    305.83   1321.31    307.73   1323.65    307.73  " /><path style="stroke-width:1.42 ;&st7;   " d=" M  1353.40,   214.25  C  1355.75    214.25   1357.65    212.35   1357.65    210.00  " /><path style="stroke-width:1.42 ;&st7;   " d=" M  1357.65,   210.00  C  1357.65    207.65   1355.75    205.75   1353.40    205.75  " /><path style="stroke-width:1.42 ;&st7;   " d=" M  1349.15,   205.75  C  1346.80    205.75   1344.90    207.65   1344.90    210.00  " /><path style="stroke-width:0.85 ;&st7;  " d=" M  1325.78,   299.24  L  1325.78,   273.74  " /><path style="stroke-width:0.28 ;&st9;  " d=" M  1325.78,   294.34  L  1322.95,   291.51  L  1322.95,   295.76  L  1325.78,   298.59  L  1328.61,   295.76  L  1328.61,   291.51  L  1325.78,   294.34  " /><path style="stroke-width:0.85 ;&st7;  " d=" M  1351.27,   299.24  L  1351.27,   273.74  " /><path style="stroke-width:0.28 ;&st9;  " d=" M  1351.27,   294.34  L  1348.44,   291.51  L  1348.44,   295.76  L  1351.27,   298.59  L  1354.11,   295.76  L  1354.11,   291.51  L  1351.27,   294.34  " /><path style="stroke-width:0.28 ;&st9;  " d=" M  1325.78,   219.14  L  1328.61,   221.98  L  1328.61,   217.73  L  1325.78,   214.90  L  1322.95,   217.73  L  1322.95,   221.98  L  1325.78,   219.14  " /><path style="stroke-width:0.85 ;&st7;  " d=" M  1325.78,   239.75  L  1325.78,   214.25  " /><path style="stroke-width:0.28 ;&st9;  " d=" M  1351.27,   219.14  L  1354.11,   221.98  L  1354.11,   217.73  L  1351.27,   214.90  L  1348.44,   217.73  L  1348.44,   221.98  L  1351.27,   219.14  " /><path style="stroke-width:0.85 ;&st7;  " d=" M  1351.27,   239.75  L  1351.27,   214.25  " /><text style="&st18;" transform="matrix(&st17;  1367.41  269.52 )" ewd:textID="37">EFI MAIN <tspan x="0 " dy="6.0">Relay</tspan></text><text style="&st18;" transform="matrix(&st16;  1323.98  305.45 )">1</text><text style="&st18;" transform="matrix(&st16;  1349.47  305.45 )">1</text><text style="&st18;" transform="matrix(&st16;  1323.98  211.97 )">1</text><text style="&st18;" transform="matrix(&st16;  1349.47  211.97 )">1</text><text style="&st18;" transform="matrix(&st16;  1319.59  281.93 )">3</text><text style="&st18;" transform="matrix(&st16;  1345.09  281.93 )">2</text><text style="&st18;" transform="matrix(&st16;  1319.59  236.05 )">5</text><text style="&st18;" transform="matrix(&st16;  1345.09  236.05 )">1</text><path style="stroke-width:0.85 ;&st7;  " d=" M  1351.27,   239.75  L  1351.27,   248.24  " /><path style="stroke-width:0.85 ;&st7;  " d=" M  1351.27,   265.24  L  1351.27,   273.74  " /><path style="stroke-width:0.85 ;&st7;  " d=" M  1325.78,   243.99  L  1325.78,   239.75  " /><path style="stroke-width:0.85 ;&st7;  " d=" M  1325.78,   273.74  L  1325.78,   269.49  " /><path style="stroke-width:1.42 ;&st7;  " d=" M  1325.78,   266.66  L  1320.11,   243.99  " /><path style="stroke-width:0.85 ;&st7;   " d=" M  1327.19,   245.41  C  1327.19    244.63   1326.56    243.99   1325.78    243.99  " /><path style="stroke-width:0.85 ;&st7;   " d=" M  1325.78,   243.99  C  1325.00    243.99   1324.36    244.63   1324.36    245.41  " /><path style="stroke-width:0.85 ;&st7;   " d=" M  1324.36,   245.41  C  1324.36    246.19   1325.00    246.83   1325.78    246.83  " /><path style="stroke-width:0.85 ;&st7;   " d=" M  1325.78,   246.83  C  1326.56    246.83   1327.19    246.19   1327.19    245.41  " /><path style="stroke-width:0.85 ;&st7;   " d=" M  1348.74,   254.26  C  1350.11    255.66   1352.36    255.68   1353.75    254.31  " /><path style="stroke-width:0.85 ;&st7;   " d=" M  1353.75,   254.31  C  1355.15    252.95   1355.17    250.70   1353.80    249.31  " /><path style="stroke-width:0.85 ;&st7;   " d=" M  1353.80,   249.31  C  1353.11    248.60   1352.26    248.24   1351.27    248.24  " /><path style="stroke-width:0.85 ;&st7;   " d=" M  1348.74,   259.22  C  1350.11    260.62   1352.36    260.64   1353.75    259.27  " /><path style="stroke-width:0.85 ;&st7;   " d=" M  1353.75,   259.27  C  1355.15    257.90   1355.17    255.66   1353.80    254.26  " /><path style="stroke-width:0.85 ;&st7;   " d=" M  1353.80,   254.26  C  1352.44    252.87   1350.19    252.84   1348.80    254.21  " /><path style="stroke-width:0.85 ;&st7;   " d=" M  1348.80,   254.21  C  1348.78    254.23   1348.76    254.25   1348.74    254.26  " /><path style="stroke-width:0.85 ;&st7;   " d=" M  1351.27,   265.24  C  1353.23    265.24   1354.82    263.66   1354.82    261.70  " /><path style="stroke-width:0.85 ;&st7;   " d=" M  1354.82,   261.70  C  1354.82    259.74   1353.23    258.16   1351.27    258.16  " /><path style="stroke-width:0.85 ;&st7;   " d=" M  1351.27,   258.16  C  1350.28    258.16   1349.44    258.51   1348.74    259.22  " /><path style="stroke-width:0.85 ;&st7;   " d=" M  1327.19,   268.07  C  1327.19    267.29   1326.56    266.66   1325.78    266.66  " /><path style="stroke-width:0.85 ;&st7;   " d=" M  1325.78,   266.66  C  1325.00    266.66   1324.36    267.29   1324.36    268.07  " /><path style="stroke-width:0.85 ;&st7;   " d=" M  1324.36,   268.07  C  1324.36    268.86   1325.00    269.49   1325.78    269.49  " /><path style="stroke-width:0.85 ;&st7;   " d=" M  1325.78,   269.49  C  1326.56    269.49   1327.19    268.86   1327.19    268.07  " /><path style="stroke-width:1.42 ;&st7;  " d=" M  1359.77,   239.75  L  1317.28,   239.75  L  1317.28,   273.74  L  1359.77,   273.74  L  1359.77,   239.75  " /></g><g ewd:figtype="conn" ewd:figID="24" ewd:code="A22"><path style="stroke-width:1.42 ;&st7;  " d=" M  1283.29,   494.70  L  1359.77,   494.70  L  1359.77,   477.71  L  1283.29,   477.71  L  1283.29,   494.70  " /><path style="stroke-width:0.85 ;&st7;  " d=" M  1291.78,   494.70  L  1291.78,   477.71  " /><path style="stroke-width:0.85 ;&st7;  " d=" M  1351.27,   494.70  L  1351.27,   477.71  " /><path style="stroke-width:0.85 ;&st7;  " d=" M  1291.78,   486.20  L  1351.27,   486.20  " /><path style="stroke-width:0.85 ;&st7;  " d=" M  1350.08,   485.20  L  1349.81,   485.67  L  1349.72,   486.20  L  1349.81,   486.74  L  1350.08,   487.21  L  1350.49,   487.55  L  1351.00,   487.74  L  1351.55,   487.74  L  1352.05,   487.55  L  1352.47,   487.21  L  1352.74,   486.74  L  1352.83,   486.20  L  1352.74,   485.67  L  1352.47,   485.20  L  1352.05,   484.86  L  1351.55,   484.67  L  1351.00,   484.67  L  1350.49,   484.86  L  1350.08,   485.20  L  1350.47,   485.91  L  1350.47,   486.50  L  1350.85,   486.94  L  1351.42,   487.04  L  1351.93,   486.75  L  1352.12,   486.20  L  1351.93,   485.66  L  1351.42,   485.37  L  1350.85,   485.47  L  1351.27,   486.20  " /><path style="stroke-width:0.85 ;&st7;  " d=" M  1290.59,   485.20  L  1290.32,   485.67  L  1290.23,   486.20  L  1290.32,   486.74  L  1290.59,   487.21  L  1291.00,   487.55  L  1291.51,   487.74  L  1292.06,   487.74  L  1292.56,   487.55  L  1292.98,   487.21  L  1293.25,   486.74  L  1293.34,   486.20  L  1293.25,   485.67  L  1292.98,   485.20  L  1292.56,   484.86  L  1292.06,   484.67  L  1291.51,   484.67  L  1291.00,   484.86  L  1290.59,   485.20  L  1290.98,   485.91  L  1290.98,   486.50  L  1291.36,   486.94  L  1291.93,   487.04  L  1292.44,   486.75  L  1292.63,   486.20  L  1292.44,   485.66  L  1291.93,   485.37  L  1291.36,   485.47  L  1291.78,   486.20  " /><text style="&st18;" transform="matrix(&st16;  1283.09  475.14 )">5</text><text style="&st18;" transform="matrix(&st16;  1289.48  475.14 )">A</text><path style="stroke-width:1.42 ;&st7;   " d=" M  1296.32,   473.17  C  1296.32    470.67   1294.29    468.64   1291.78    468.64  " /><path style="stroke-width:1.42 ;&st7;   " d=" M  1291.78,   468.64  C  1289.28    468.64   1287.25    470.67   1287.25    473.17  " /><path style="stroke-width:1.42 ;&st7;   " d=" M  1287.25,   473.17  C  1287.25    475.68   1289.28    477.71   1291.78    477.71  " /><path style="stroke-width:1.42 ;&st7;   " d=" M  1291.78,   477.71  C  1294.29    477.71   1296.32    475.68   1296.32    473.17  " /><text style="&st18;" transform="matrix(&st16;  1283.09  501.2 )">4</text><path style="stroke-width:1.42 ;&st7;   " d=" M  1296.32,   499.24  C  1296.32    496.73   1294.29    494.70   1291.78    494.70  " /><path style="stroke-width:1.42 ;&st7;   " d=" M  1291.78,   494.70  C  1289.28    494.70   1287.25    496.73   1287.25    499.24  " /><path style="stroke-width:1.42 ;&st7;   " d=" M  1287.25,   499.24  C  1287.25    501.74   1289.28    503.77   1291.78    503.77  " /><path style="stroke-width:1.42 ;&st7;   " d=" M  1291.78,   503.77  C  1294.29    503.77   1296.32    501.74   1296.32    499.24  " /><text style="&st18;" transform="matrix(&st16;  1289.48  501.2 )">A</text><text style="&st18;" transform="matrix(&st16;  1342.58  501.2 )">2</text><path style="stroke-width:1.42 ;&st7;   " d=" M  1355.81,   499.24  C  1355.81    496.73   1353.78    494.70   1351.27    494.70  " /><path style="stroke-width:1.42 ;&st7;   " d=" M  1351.27,   494.70  C  1348.77    494.70   1346.74    496.73   1346.74    499.24  " /><path style="stroke-width:1.42 ;&st7;   " d=" M  1346.74,   499.24  C  1346.74    501.74   1348.77    503.77   1351.27    503.77  " /><path style="stroke-width:1.42 ;&st7;   " d=" M  1351.27,   503.77  C  1353.78    503.77   1355.81    501.74   1355.81    499.24  " /><text style="&st18;" transform="matrix(&st16;  1348.97  501.2 )">A</text><text style="&st18;" transform="matrix(&st16;  1342.58  475.14 )">3</text><path style="stroke-width:1.42 ;&st7;   " d=" M  1355.81,   473.17  C  1355.81    470.67   1353.78    468.64   1351.27    468.64  " /><path style="stroke-width:1.42 ;&st7;   " d=" M  1351.27,   468.64  C  1348.77    468.64   1346.74    470.67   1346.74    473.17  " /><path style="stroke-width:1.42 ;&st7;   " d=" M  1346.74,   473.17  C  1346.74    475.68   1348.77    477.71   1351.27    477.71  " /><path style="stroke-width:1.42 ;&st7;   " d=" M  1351.27,   477.71  C  1353.78    477.71   1355.81    475.68   1355.81    473.17  " /><text style="&st18;" transform="matrix(&st16;  1348.97  475.14 )">A</text><g ewd:figtype="title"><text style="&st18;" transform="matrix(&st17;  1279.59  497.61 )" ewd:textID="55">No. 1 Junction Connector</text><text style="&st18;" transform="matrix(&st17;  1272.77  497.6 )">A22(A)</text></g></g><g ewd:figtype="w2w" ewd:figID="141" ewd:code="AI7"><path style="stroke-width:1.42 ;&st7;  " d=" M  1134.56,   435.78  L  1130.31,   431.53  L  1126.06,   435.78  " /><path style="stroke-width:1.42 ;&st7;  " d=" M  1134.56,   432.38  L  1130.31,   428.13  L  1126.06,   432.38  " /><text style="&st18;" transform="matrix(&st16;  1117.68  424.43 )">6</text></g><g ewd:figtype="w2w" ewd:figID="142" ewd:code="AC5"><path style="stroke-width:1.42 ;&st7;  " d=" M  1228.04,   508.87  L  1223.80,   504.62  L  1219.55,   508.87  " /><path style="stroke-width:1.42 ;&st7;  " d=" M  1228.04,   512.27  L  1223.80,   508.02  L  1219.55,   512.27  " /><text style="&st18;" transform="matrix(&st16;  1211.16  500.92 )">6</text><g ewd:code="" ewd:figID="339" ewd:comment="" ewd:figtype="commref"><text style="&st18;" transform="matrix(&st16;  1232.83  500.92 )">(RHD)</text></g></g><g ewd:figtype="w2w" ewd:figID="143" ewd:code="IC2"><text style="&st18;" transform="matrix(&st16;  1211.16  492.42 )">6</text><g ewd:code="" ewd:figID="340" ewd:comment="" ewd:figtype="commref"><text style="&st18;" transform="matrix(&st16;  1232.83  492.42 )">(LHD)</text></g></g><g ewd:figtype="w2w" ewd:figID="144" ewd:code="AI3"><path style="stroke-width:1.42 ;&st7;  " d=" M  1228.04,   435.78  L  1223.80,   431.53  L  1219.55,   435.78  " /><path style="stroke-width:1.42 ;&st7;  " d=" M  1228.04,   432.38  L  1223.80,   428.13  L  1219.55,   432.38  " /><text style="&st18;" transform="matrix(&st16;  1208.06  424.43 )">44</text></g><g ewd:figtype="w2w" ewd:figID="145" ewd:code="AI3"><path style="stroke-width:1.42 ;&st7;  " d=" M  1330.03,   435.78  L  1325.78,   431.53  L  1321.53,   435.78  " /><path style="stroke-width:1.42 ;&st7;  " d=" M  1330.03,   432.38  L  1325.78,   428.13  L  1321.53,   432.38  " /><text style="&st18;" transform="matrix(&st16;  1310.04  424.43 )">42</text></g><g ewd:figtype="w2w" ewd:figID="146" ewd:code="AI3"><path style="stroke-width:1.42 ;&st7;  " d=" M  1432.01,   257.31  L  1427.76,   253.06  L  1423.51,   257.31  " /><path style="stroke-width:1.42 ;&st7;  " d=" M  1432.01,   253.91  L  1427.76,   249.66  L  1423.51,   253.91  " /><text style="&st18;" transform="matrix(&st16;  1412.03  245.96 )">45</text></g><g ewd:figtype="w2w" ewd:figID="147" ewd:code="AI3"><path style="stroke-width:1.42 ;&st7;  " d=" M  1474.50,   257.31  L  1470.25,   253.06  L  1466.00,   257.31  " /><path style="stroke-width:1.42 ;&st7;  " d=" M  1474.50,   253.91  L  1470.25,   249.66  L  1466.00,   253.91  " /><text style="&st18;" transform="matrix(&st16;  1454.52  245.96 )">39</text></g><g ewd:figtype="gp" ewd:figID="228" ewd:code="AA"><path style="stroke-width: 0.85 ;&st7;  " d=" M  1351.27,   697.25  L  1351.27,   701.50  " /><path style="stroke-width: 0.85 ;&st7;  " d=" M  1342.78,   701.50  L  1359.77,   701.50  " /><path style="stroke-width: 0.85 ;&st7;  " d=" M  1347.02,   704.33  L  1355.52,   704.33  " /><path style="stroke-width: 0.85 ;&st7;  " d=" M  1348.44,   707.17  L  1354.11,   707.17  " /><path style="stroke-width: 0.85 ;&st7;  " d=" M  1349.86,   710.00  L  1352.69,   710.00  " /></g></svg>