<?xml version="1.0" encoding="utf-8"?>
<!DOCTYPE svg PUBLIC "-//W3C//DTD SVG 1.0//EN" "http://www.w3.org/TR/2001/REC-SVG-20010904/DTD/svg10.dtd"[
	<!ENTITY ns_flows "http://ns.adobe.com/Flows/1.0/">
	<!ENTITY ns_svg "http://www.w3.org/2000/svg">
	<!ENTITY ns_xlink "http://www.w3.org/1999/xlink">
	<!ENTITY st0 "font-size:7px;font-family:'MS-PGothic';adobe-font-script:japanese;">
	<!ENTITY st1 "font-size:6px;font-family:'ArialMT';">
	<!-- White fill  -->
	<!ENTITY st2 "fill:#FFFFFF;stroke:#000000; stroke-width:1.41;stroke-linecap:round;stroke-linejoin:round;">
	<!-- Yellow fill  -->
	<!ENTITY st3 "fill:#FFFFCC;stroke:#FFFFCC; stroke-width:0.1;stroke-linecap:round;stroke-linejoin:round;">
	<!-- Gray fill  -->
	<!ENTITY st4 "fill:#CCCCCC;stroke:#CCCCCC; stroke-width:0.1;stroke-linecap:round;stroke-linejoin:round;">
	<!-- Light-blue fill -->
	<!ENTITY st5 "fill:#CCECF4;stroke:#000000; stroke-width:1.133;stroke-linecap:round;stroke-linejoin:round;">
	<!ENTITY st6 "fill:none;stroke-linecap:butt; stroke-linejoin:round;">
	<!ENTITY st7 "fill:none;stroke:#000000;stroke-linecap:round;stroke-linejoin:round;">
	<!ENTITY st8 "enable-background:new    ;">
	<!-- Black fill -->
	<!ENTITY st9 "fill:#000000;stroke:#000000; stroke-linecap:round;stroke-linejoin:round;">
	<!-- SRS note   -->
	<!ENTITY st10 "font-size:9px;font-family:'ArialMT';">
	<!ENTITY st11 "font-size:9px;font-family:'Svg Symbol';">
	<!ENTITY st12 "font-size:6px;font-family:'Svg Symbol';">
	<!ENTITY st13 "fill:none;stroke:#ff0000;stroke-linecap:round;stroke-linejoin:round;">
	<!-- Yellow fill  -->
	<!ENTITY st14 "fill:#FFFF00;stroke:#FFFF00; stroke-width:0.1;stroke-linecap:round;stroke-linejoin:round;">
	<!ENTITY st15 "font-size:6px;font-family:'MS-PGothic';adobe-font-script:japanese;">
	<!ENTITY st16 "1.00 0.00 0.00 1.00">
	<!ENTITY st17 "0.00 -1.00 1.00 0.00">
	<!ENTITY st18 "font-size:6px;font-family:'Arial';">
	<!ENTITY st19 "font-size:9px;font-family:'Arial';">
	<!ENTITY st20 "font-size:6px;font-family:'MS-PGothic','MS PGothic';adobe-font-script:japanese;">
	<!ENTITY st21 "font-size:7px;font-family:'MS-PGothic','MS PGothic';adobe-font-script:japanese;">
	<!ATTLIST svg
		xmlns:ewd CDATA #FIXED "http://shcl.co.jp/ewd"
		xmlns:a CDATA #FIXED "http://ns.adobe.com/AdobeSVGViewerExtensions/3.0/"
		ewd:ver CDATA #IMPLIED
	>
	<!ATTLIST a
		ewd:lineID CDATA #IMPLIED
		ewd:groupID CDATA #IMPLIED
		ewd:figtype CDATA #IMPLIED
		ewd:code CDATA #IMPLIED
		ewd:figID CDATA #IMPLIED
		ewd:pinNo CDATA #IMPLIED
		ewd:comment CDATA #IMPLIED >
	<!ATTLIST g
		ewd:lineID CDATA #IMPLIED
		ewd:groupID CDATA #IMPLIED
		ewd:figtype CDATA #IMPLIED
		ewd:code CDATA #IMPLIED
		ewd:figID CDATA #IMPLIED
		ewd:pinNo CDATA #IMPLIED
		ewd:comment CDATA #IMPLIED >
	<!ATTLIST text
		ewd:textID CDATA #IMPLIED >
	<!ATTLIST title
		ewd:textID CDATA #IMPLIED >
]>
<!-- Generator: Shintec Hozumi YS   -->
<svg onload="call_execInitLoadProc_svg('system')" style="overflow:visible;  enable-background:new 0 0 5678.922 710.000" viewBox="0 0 5678.922 710.000" height="710.000" width="5678.922" xml:space="preserve" ewd:ver="2.1.2.9" xmlns="&ns_svg;" xmlns:a="http://ns.adobe.com/AdobeSVGViewerExtensions/3.0/" xmlns:ewd="http://shcl.co.jp/ewd" xmlns:xlink="&ns_xlink;">
<path style="stroke-width:1.42 ;&st7;  " d=" M  5396.60,   146.26  L  5405.10,   146.26  " /><text style="&st18;" transform="matrix(&st17;  5239.93  428.67 )">G</text><text style="&st18;" transform="matrix(&st17;  5282.42  429.18 )">W</text><text style="&st18;" transform="matrix(&st17;  5401.4  117.45 )">B-Y</text><text style="&st18;" transform="matrix(&st17;  5401.4  202.43 )">B-Y</text><text style="&st18;" transform="matrix(&st16;  5207.17  567.49 )">G</text><text style="&st18;" transform="matrix(&st16;  5156.18  567.49 )">G</text><text style="&st18;" transform="matrix(&st16;  5155.67  584.49 )">W</text><text style="&st18;" transform="matrix(&st16;  5206.67  584.49 )">W</text><text style="&st18;" transform="matrix(&st16;  5156.18  601.49 )">G</text><text style="&st18;" transform="matrix(&st16;  5207.17  601.49 )">G</text><path style="stroke-width:1.42 ;&st7;  " d=" M  5039.66,   494.70  L  5031.16,   494.70  " /><path style="stroke-width:1.42 ;&st7;  " d=" M  5082.15,   494.70  L  5073.65,   494.70  " /><text style="&st18;" transform="matrix(&st17;  5027.46  454.67 )">W</text><text style="&st18;" transform="matrix(&st17;  5069.96  454.17 )">G</text><text style="&st18;" transform="matrix(&st17;  5069.96  539.16 )">G</text><text style="&st18;" transform="matrix(&st17;  5027.46  539.66 )">W</text><path style="stroke-width:1.42 ;&st7;  " d=" M  5039.66,   316.23  L  5031.16,   316.23  " /><path style="stroke-width:1.42 ;&st7;  " d=" M  5082.15,   316.23  L  5073.65,   316.23  " /><path style="stroke-width:1.42 ;&st7;  " d=" M  5473.09,   452.21  L  5481.58,   452.21  " /><text style="&st18;" transform="matrix(&st17;  5477.89  491.58 )">G-R</text><text style="&st18;" transform="matrix(&st17;  5027.46  352.69 )">W</text><text style="&st18;" transform="matrix(&st17;  5069.96  351.92 )">B</text><text style="&st18;" transform="matrix(&st17;  5120.95  194.13 )">G-R</text><text style="&st18;" transform="matrix(&st16;  5203.76  550.5 )">G-R</text><text style="&st18;" transform="matrix(&st16;  5152.77  550.5 )">G-R</text><text style="&st18;" transform="matrix(&st17;  5027.46  191.22 )">W</text><text style="&st18;" transform="matrix(&st17;  5477.89  432.09 )">G-R</text><path style="stroke-width:1.42 ;&st7;  " d=" M  5133.14,   316.23  L  5124.64,   316.23  " /><text style="&st18;" transform="matrix(&st17;  5027.46  293.2 )">W</text><text style="&st18;" transform="matrix(&st17;  5069.96  292.35 )">R</text><text style="&st18;" transform="matrix(&st17;  5069.96  190.44 )">B</text><text style="&st18;" transform="matrix(&st17;  5120.95  355.6 )">G-R</text><g ewd:figtype="conn" ewd:figID="48" ewd:code="I118"><path style="stroke-width:0.85 ;&st7;  " d=" M  5481.58,   137.76  L  5481.58,   154.76  " /><path style="stroke-width:1.42 ;&st7;  " d=" M  5473.08,   137.76  L  5490.08,   137.76  L  5490.08,   154.76  L  5473.08,   154.76  L  5473.08,   137.76  " /><text style="&st18;" transform="matrix(&st16;  5472.89  135.2 )">5</text><path style="stroke-width:1.42 ;&st7;   " d=" M  5486.12,   133.23  C  5486.12    130.73   5484.09    128.70   5481.58    128.70  " /><path style="stroke-width:1.42 ;&st7;   " d=" M  5481.58,   128.70  C  5479.08    128.70   5477.05    130.73   5477.05    133.23  " /><path style="stroke-width:1.42 ;&st7;   " d=" M  5477.05,   133.23  C  5477.05    135.73   5479.08    137.76   5481.58    137.76  " /><path style="stroke-width:1.42 ;&st7;   " d=" M  5481.58,   137.76  C  5484.09    137.76   5486.12    135.73   5486.12    133.23  " /><text style="&st18;" transform="matrix(&st16;  5479.16  135.2 )">C</text><text style="&st18;" transform="matrix(&st16;  5472.89  161.26 )">4</text><path style="stroke-width:1.42 ;&st7;   " d=" M  5486.12,   159.29  C  5486.12    156.79   5484.09    154.76   5481.58    154.76  " /><path style="stroke-width:1.42 ;&st7;   " d=" M  5481.58,   154.76  C  5479.08    154.76   5477.05    156.79   5477.05    159.29  " /><path style="stroke-width:1.42 ;&st7;   " d=" M  5477.05,   159.29  C  5477.05    161.80   5479.08    163.82   5481.58    163.82  " /><path style="stroke-width:1.42 ;&st7;   " d=" M  5481.58,   163.82  C  5484.09    163.82   5486.12    161.80   5486.12    159.29  " /><text style="&st18;" transform="matrix(&st16;  5479.16  161.26 )">C</text><g ewd:figtype="title"><text style="&st18;" transform="matrix(&st17;  5463.44  157.67 )" ewd:textID="52">No. 36 Junction <tspan x="0 " dy="6.0">Connector</tspan></text><text style="&st18;" transform="matrix(&st17;  5456.62  157.66 )">I118(C)</text></g></g><g ewd:figtype="conn" ewd:figID="67" ewd:code="A42"><path style="stroke-width:1.42 ;&st7;  " d=" M  5014.16,    86.77  L  5014.16,   129.26  L  5141.64,   129.26  L  5141.64,    86.77  L  5014.16,    86.77  " /><g ewd:lineID="208"><text style="&st18;" transform="matrix(&st16;  5021.87  137.46 )">10</text><text style="&st18;" transform="matrix(&st16;  5022.81  125.57 )">CANL</text></g><g ewd:lineID="212"><text style="&st18;" transform="matrix(&st16;  5064.37  137.46 )">22</text><text style="&st18;" transform="matrix(&st16;  5064.87  125.57 )">CANH</text></g><g ewd:lineID="214"><text style="&st18;" transform="matrix(&st16;  5115.36  137.46 )">14</text><text style="&st18;" transform="matrix(&st16;  5119.55  125.57 )">SP1</text></g><g ewd:figtype="title"><text style="&st18;" transform="matrix(&st17;  5156.36  132.17 )" ewd:textID="5">Brake Actuator <tspan x="0 " dy="6.0">Assembly</tspan></text><text style="&st18;" transform="matrix(&st17;  5149.53  132.16 )">A42</text></g></g><g ewd:figtype="conn" ewd:figID="69" ewd:code="A25,A26"><path style="stroke-width:1.42 ;&st7;  " d=" M  5022.66,   239.75  L  5022.66,   256.74  L  5082.15,   256.74  L  5082.15,   239.75  L  5022.66,   239.75  " /><path style="stroke-width:1.42 ;&st7;  " d=" M  5022.66,   248.24  L  5082.15,   248.24  " /><text style="&st18;" transform="matrix(&st16;  5022.47  263.24 )">3</text><path style="stroke-width:1.42 ;&st7;   " d=" M  5035.69,   261.27  C  5035.69    258.77   5033.66    256.74   5031.16    256.74  " /><path style="stroke-width:1.42 ;&st7;   " d=" M  5031.16,   256.74  C  5028.66    256.74   5026.63    258.77   5026.63    261.27  " /><path style="stroke-width:1.42 ;&st7;   " d=" M  5026.63,   261.27  C  5026.63    263.78   5028.66    265.81   5031.16    265.81  " /><path style="stroke-width:1.42 ;&st7;   " d=" M  5031.16,   265.81  C  5033.66    265.81   5035.69    263.78   5035.69    261.27  " /><text style="&st18;" transform="matrix(&st16;  5028.85  263.24 )">A</text><text style="&st18;" transform="matrix(&st16;  5022.47  237.18 )">3</text><text style="&st18;" transform="matrix(&st16;  5028.97  237.18 )">B</text><path style="stroke-width:1.42 ;&st7;   " d=" M  5035.69,   235.21  C  5035.69    232.71   5033.66    230.68   5031.16    230.68  " /><path style="stroke-width:1.42 ;&st7;   " d=" M  5031.16,   230.68  C  5028.66    230.68   5026.63    232.71   5026.63    235.21  " /><path style="stroke-width:1.42 ;&st7;   " d=" M  5026.63,   235.21  C  5026.63    237.72   5028.66    239.75   5031.16    239.75  " /><path style="stroke-width:1.42 ;&st7;   " d=" M  5031.16,   239.75  C  5033.66    239.75   5035.69    237.72   5035.69    235.21  " /><text style="&st18;" transform="matrix(&st16;  5064.96  263.24 )">4</text><text style="&st18;" transform="matrix(&st16;  5071.35  263.24 )">A</text><path style="stroke-width:1.42 ;&st7;   " d=" M  5078.18,   261.27  C  5078.18    258.77   5076.16    256.74   5073.65    256.74  " /><path style="stroke-width:1.42 ;&st7;   " d=" M  5073.65,   256.74  C  5071.15    256.74   5069.12    258.77   5069.12    261.27  " /><path style="stroke-width:1.42 ;&st7;   " d=" M  5069.12,   261.27  C  5069.12    263.78   5071.15    265.81   5073.65    265.81  " /><path style="stroke-width:1.42 ;&st7;   " d=" M  5073.65,   265.81  C  5076.16    265.81   5078.18    263.78   5078.18    261.27  " /><text style="&st18;" transform="matrix(&st16;  5064.96  237.18 )">4</text><path style="stroke-width:1.42 ;&st7;   " d=" M  5078.18,   235.21  C  5078.18    232.71   5076.16    230.68   5073.65    230.68  " /><path style="stroke-width:1.42 ;&st7;   " d=" M  5073.65,   230.68  C  5071.15    230.68   5069.12    232.71   5069.12    235.21  " /><path style="stroke-width:1.42 ;&st7;   " d=" M  5069.12,   235.21  C  5069.12    237.72   5071.15    239.75   5073.65    239.75  " /><path style="stroke-width:1.42 ;&st7;   " d=" M  5073.65,   239.75  C  5076.16    239.75   5078.18    237.72   5078.18    235.21  " /><text style="&st18;" transform="matrix(&st16;  5071.46  237.18 )">B</text><g ewd:figtype="title"><text style="&st18;" transform="matrix(&st17;  5090.04  259.64 )">A25(A),A26(B)</text><text style="&st18;" transform="matrix(&st17;  5096.87  259.65 )" ewd:textID="6">Brake Vacuum <tspan x="0 " dy="6.0">Check Valve Assembly</tspan></text></g></g><g ewd:figtype="conn" ewd:figID="70" ewd:code="L25,L26"><path style="stroke-width:0.85 ;&st7;  " d=" M  5375.35,   307.73  L  5366.85,   307.73  " /><path style="stroke-width:0.85 ;&st7;  " d=" M  5378.48,   305.79  L  5385.84,   301.54  " /><path style="stroke-width:0.85 ;&st7;  " d=" M  5638.81,   265.24  L  5630.31,   265.24  " /><path style="stroke-width:0.85 ;&st7;  " d=" M  5409.35,   265.24  L  5400.85,   265.24  " /><path style="stroke-width:0.85 ;&st7;  " d=" M  5301.99,   305.79  L  5309.35,   301.54  " /><path style="stroke-width:0.85 ;&st7;  " d=" M  5298.86,   307.73  L  5290.37,   307.73  " /><path style="stroke-width:0.85 ;&st7;  " d=" M  5430.59,   277.99  L  5430.59,   286.49  " /><path style="stroke-width:0.85 ;&st7;  " d=" M  5307.35,   298.07  L  5299.99,   302.32  " /><path style="stroke-width:0.85 ;&st7;  " d=" M  5383.84,   298.07  L  5376.47,   302.32  " /><path style="stroke-width:0.85 ;&st7;  " d=" M  5328.61,   350.23  L  5324.36,   358.73  " /><path style="stroke-width:0.85 ;&st7;  " d=" M  5403.90,   281.24  L  5403.63,   281.71  L  5403.54,   282.24  L  5403.63,   282.77  L  5403.90,   283.24  L  5404.32,   283.59  L  5404.83,   283.77  L  5405.36,   283.77  L  5405.87,   283.59  L  5406.29,   283.24  L  5406.56,   282.77  L  5406.65,   282.24  L  5406.56,   281.71  L  5406.29,   281.24  L  5405.87,   280.89  L  5405.36,   280.70  L  5404.83,   280.70  L  5404.32,   280.89  L  5403.90,   281.24  L  5404.30,   281.95  L  5404.30,   282.53  L  5404.67,   282.97  L  5405.24,   283.07  L  5405.75,   282.79  L  5405.94,   282.24  L  5405.75,   281.69  L  5405.24,   281.40  L  5404.67,   281.50  L  5405.09,   282.24  " /><path style="stroke-width:0.85 ;&st7;  " d=" M  5405.09,   239.75  L  5405.09,   282.24  " /><path style="stroke-width:0.28 ;&st9;  " d=" M  5405.09,   265.24  L  5399.43,   256.74  L  5410.76,   256.74  L  5405.09,   265.24  " /><path style="stroke-width:0.85 ;&st7;  " d=" M  5309.35,   301.54  L  5307.02,   304.58  L  5305.55,   302.04  L  5309.35,   301.54  L  5308.07,   302.28  L  5307.08,   303.56  L  5306.46,   302.49  L  5308.07,   302.28  L  5307.43,   302.65  L  5307.11,   303.05  L  5306.92,   302.72  L  5307.43,   302.65  " /><path style="stroke-width:1.42 ;&st7;  " d=" M  5209.63,   239.75  L  5209.63,   401.22  L  5651.55,   401.22  L  5651.55,   239.75  L  5209.63,   239.75  " /><path style="stroke-width:1.42 ;&st7;  " d=" M  5226.62,   367.22  L  5226.62,   384.22  L  5464.58,   384.22  L  5464.58,   367.22  L  5226.62,   367.22  " /><path style="stroke-width:0.28 ;&st9;  " d=" M  5430.59,   282.24  L  5422.09,   287.90  L  5422.09,   276.57  L  5430.59,   282.24  " /><path style="stroke-width:0.85 ;&st7;  " d=" M  5634.56,   239.75  L  5634.56,   282.24  L  5439.09,   282.24  L  5439.09,   367.22  " /><path style="stroke-width:0.85 ;&st7;  " d=" M  5437.90,   281.24  L  5437.62,   281.71  L  5437.53,   282.24  L  5437.62,   282.77  L  5437.90,   283.24  L  5438.31,   283.59  L  5438.82,   283.77  L  5439.36,   283.77  L  5439.87,   283.59  L  5440.28,   283.24  L  5440.55,   282.77  L  5440.65,   282.24  L  5440.55,   281.71  L  5440.28,   281.24  L  5439.87,   280.89  L  5439.36,   280.70  L  5438.82,   280.70  L  5438.31,   280.89  L  5437.90,   281.24  L  5438.29,   281.95  L  5438.29,   282.53  L  5438.66,   282.97  L  5439.24,   283.07  L  5439.74,   282.79  L  5439.94,   282.24  L  5439.74,   281.69  L  5439.24,   281.40  L  5438.66,   281.50  L  5439.09,   282.24  " /><path style="stroke-width:0.28 ;&st9;  " d=" M  5634.56,   265.24  L  5628.89,   256.74  L  5640.22,   256.74  L  5634.56,   265.24  " /><path style="stroke-width:0.85 ;&st7;  " d=" M  5307.35,   298.07  L  5305.01,   301.11  L  5303.55,   298.57  L  5307.35,   298.07  L  5306.06,   298.81  L  5305.08,   300.09  L  5304.46,   299.02  L  5306.06,   298.81  L  5305.42,   299.18  L  5305.11,   299.58  L  5304.92,   299.25  L  5305.42,   299.18  " /><path style="stroke-width:0.85 ;&st7;  " d=" M  5439.09,   282.24  L  5294.61,   282.24  L  5294.61,   316.23  L  5297.45,   317.65  L  5291.78,   320.48  L  5297.45,   323.31  L  5291.78,   326.15  L  5297.45,   328.98  L  5291.78,   331.81  L  5294.61,   333.23  L  5294.61,   341.73  " /><path style="stroke-width:0.85 ;&st7;  " d=" M  5328.61,   341.73  L  5320.11,   336.06  " /><path style="stroke-width:0.28 ;&st9;  " d=" M  5294.61,   307.73  L  5288.95,   299.24  L  5300.28,   299.24  L  5294.61,   307.73  " /><path style="stroke-width:0.28 ;&st9;  " d=" M  5371.10,   307.73  L  5365.43,   299.24  L  5376.77,   299.24  L  5371.10,   307.73  " /><path style="stroke-width:1.42 ;&st7;  " d=" M  5320.11,   324.73  L  5320.11,   341.73  " /><path style="stroke-width:0.85 ;&st7;  " d=" M  5383.83,   298.07  L  5381.50,   301.11  L  5380.03,   298.57  L  5383.83,   298.07  L  5382.55,   298.81  L  5381.56,   300.09  L  5380.95,   299.02  L  5382.55,   298.81  L  5381.91,   299.18  L  5381.60,   299.58  L  5381.40,   299.25  L  5381.91,   299.18  " /><path style="stroke-width:0.85 ;&st7;  " d=" M  5385.84,   301.54  L  5383.50,   304.58  L  5382.04,   302.04  L  5385.84,   301.54  L  5384.55,   302.28  L  5383.57,   303.56  L  5382.95,   302.49  L  5384.55,   302.28  L  5383.91,   302.65  L  5383.60,   303.05  L  5383.41,   302.72  L  5383.91,   302.65  " /><path style="stroke-width:0.85 ;&st7;  " d=" M  5337.11,   350.23  L  5332.86,   358.73  " /><path style="stroke-width:0.85 ;&st7;  " d=" M  5320.11,   350.23  L  5337.11,   350.23  " /><path style="stroke-width:0.85 ;&st7;  " d=" M  5369.91,   281.24  L  5369.64,   281.71  L  5369.54,   282.24  L  5369.64,   282.77  L  5369.91,   283.24  L  5370.32,   283.59  L  5370.83,   283.77  L  5371.37,   283.77  L  5371.88,   283.59  L  5372.29,   283.24  L  5372.56,   282.77  L  5372.66,   282.24  L  5372.56,   281.71  L  5372.29,   281.24  L  5371.88,   280.89  L  5371.37,   280.70  L  5370.83,   280.70  L  5370.32,   280.89  L  5369.91,   281.24  L  5370.30,   281.95  L  5370.30,   282.53  L  5370.68,   282.97  L  5371.25,   283.07  L  5371.75,   282.79  L  5371.95,   282.24  L  5371.75,   281.69  L  5371.25,   281.40  L  5370.68,   281.50  L  5371.10,   282.24  " /><path style="stroke-width:0.85 ;&st7;  " d=" M  5371.10,   282.24  L  5371.10,   316.23  L  5373.93,   317.65  L  5368.27,   320.48  L  5373.93,   323.31  L  5368.27,   326.15  L  5373.93,   328.98  L  5368.27,   331.81  L  5371.10,   333.23  L  5371.10,   341.73  " /><path style="stroke-width:0.85 ;&st7;  " d=" M  5328.61,   341.73  L  5328.61,   350.23  " /><text style="&st18;" transform="matrix(&st16;  5637.14  247.94 )">B</text><text style="&st18;" transform="matrix(&st17;  5363.44  309.59 )" ewd:textID="25">Glow</text><text style="&st18;" transform="matrix(&st16;  5277.76  397.52 )">CANL</text><text style="&st18;" transform="matrix(&st16;  5630.9  397.52 )">ES</text><text style="&st18;" transform="matrix(&st16;  5407.68  247.94 )">B</text><text style="&st18;" transform="matrix(&st16;  5339.31  377.69 )">CPU</text><text style="&st18;" transform="matrix(&st17;  5280.74  311.88 )" ewd:textID="8">Check <tspan x="0 " dy="6.0">Engine</tspan></text><text style="&st18;" transform="matrix(&st16;  5234.84  397.52 )">CANH</text><path style="stroke-width:1.42 ;&st7;  " d=" M  5549.57,   333.23  L  5549.57,   350.23  " /><path style="stroke-width:1.42 ;&st7;  " d=" M  5507.08,   341.73  L  5507.08,   358.73  " /><path style="stroke-width:0.85 ;&st7;  " d=" M  5515.58,   358.73  L  5507.08,   353.06  " /><path style="stroke-width:0.85 ;&st7;  " d=" M  5558.07,   350.23  L  5549.57,   344.56  " /><path style="stroke-width:0.85 ;&st7;  " d=" M  5558.07,   333.23  L  5583.56,   333.23  L  5583.56,   350.23  " /><path style="stroke-width:0.85 ;&st7;  " d=" M  5549.57,   358.73  L  5545.32,   367.22  " /><path style="stroke-width:0.85 ;&st7;  " d=" M  5583.56,   384.22  L  5583.56,   375.72  L  5580.73,   374.31  L  5586.40,   371.47  L  5580.73,   368.64  L  5586.40,   365.81  L  5580.73,   362.97  L  5586.40,   360.14  L  5583.56,   358.73  L  5583.56,   350.23  " /><path style="stroke-width:0.85 ;&st7;  " d=" M  5566.57,   358.73  L  5562.32,   367.22  " /><path style="stroke-width:0.85 ;&st7;  " d=" M  5558.07,   358.73  L  5553.82,   367.22  " /><path style="stroke-width:0.85 ;&st7;  " d=" M  5515.58,   341.73  L  5549.57,   341.73  " /><path style="stroke-width:0.85 ;&st7;  " d=" M  5558.07,   350.23  L  5555.94,   347.04  L  5554.31,   349.48  L  5558.07,   350.23  L  5556.84,   349.41  L  5555.94,   348.06  L  5555.25,   349.09  L  5556.84,   349.41  L  5556.22,   348.99  L  5555.94,   348.57  L  5555.72,   348.90  L  5556.22,   348.99  " /><path style="stroke-width:0.85 ;&st7;  " d=" M  5558.07,   333.23  L  5549.57,   338.90  " /><path style="stroke-width:0.85 ;&st7;  " d=" M  5549.57,   358.73  L  5566.57,   358.73  " /><path style="stroke-width:0.85 ;&st7;  " d=" M  5515.58,   358.73  L  5515.58,   367.22  " /><path style="stroke-width:0.85 ;&st7;  " d=" M  5507.08,   367.22  L  5524.07,   367.22  " /><path style="stroke-width:0.85 ;&st7;  " d=" M  5515.58,   367.22  L  5511.33,   375.72  " /><path style="stroke-width:0.85 ;&st7;  " d=" M  5524.07,   367.22  L  5519.83,   375.72  " /><path style="stroke-width:0.85 ;&st7;  " d=" M  5507.08,   367.22  L  5502.83,   375.72  " /><path style="stroke-width:0.85 ;&st7;  " d=" M  5558.07,   350.23  L  5558.07,   358.73  " /><path style="stroke-width:0.85 ;&st7;  " d=" M  5532.57,   341.73  L  5532.57,   333.23  " /><path style="stroke-width:0.85 ;&st7;  " d=" M  5528.32,   299.24  L  5536.82,   299.24  " /><path style="stroke-width:0.85 ;&st7;  " d=" M  5583.56,   384.22  L  5583.56,   401.22  " /><path style="stroke-width:0.85 ;&st7;  " d=" M  5531.38,   298.23  L  5531.11,   298.70  L  5531.02,   299.24  L  5531.11,   299.77  L  5531.38,   300.24  L  5531.79,   300.58  L  5532.30,   300.77  L  5532.84,   300.77  L  5533.35,   300.58  L  5533.77,   300.24  L  5534.04,   299.77  L  5534.13,   299.24  L  5534.04,   298.70  L  5533.77,   298.23  L  5533.35,   297.89  L  5532.84,   297.70  L  5532.30,   297.70  L  5531.79,   297.89  L  5531.38,   298.23  L  5531.77,   298.94  L  5531.77,   299.53  L  5532.15,   299.97  L  5532.72,   300.07  L  5533.22,   299.78  L  5533.42,   299.24  L  5533.22,   298.69  L  5532.72,   298.40  L  5532.15,   298.50  L  5532.57,   299.24  " /><path style="stroke-width:0.85 ;&st7;  " d=" M  5531.38,   340.73  L  5531.11,   341.20  L  5531.02,   341.73  L  5531.11,   342.26  L  5531.38,   342.73  L  5531.79,   343.08  L  5532.30,   343.26  L  5532.84,   343.26  L  5533.35,   343.08  L  5533.77,   342.73  L  5534.04,   342.26  L  5534.13,   341.73  L  5534.04,   341.20  L  5533.77,   340.73  L  5533.35,   340.38  L  5532.84,   340.19  L  5532.30,   340.19  L  5531.79,   340.38  L  5531.38,   340.73  L  5531.77,   341.44  L  5531.77,   342.02  L  5532.15,   342.46  L  5532.72,   342.56  L  5533.22,   342.28  L  5533.42,   341.73  L  5533.22,   341.18  L  5532.72,   340.89  L  5532.15,   340.99  L  5532.57,   341.73  " /><path style="stroke-width:0.85 ;&st7;  " d=" M  5507.08,   350.23  L  5456.09,   350.23  L  5456.09,   367.22  " /><path style="stroke-width:0.85 ;&st7;  " d=" M  5515.58,   341.73  L  5507.08,   347.39  " /><path style="stroke-width:0.85 ;&st7;  " d=" M  5515.58,   358.73  L  5513.44,   355.54  L  5511.82,   357.98  L  5515.58,   358.73  L  5514.34,   357.90  L  5513.45,   356.56  L  5512.76,   357.59  L  5514.34,   357.90  L  5513.73,   357.49  L  5513.45,   357.07  L  5513.23,   357.39  L  5513.73,   357.49  " /><text style="&st18;" transform="matrix(&st16;  5586.15  397.53 )">+S</text><path style="stroke-width:0.85 ;&st7;  " d=" M  5532.57,   333.23  L  5532.57,   324.73  L  5529.74,   323.31  L  5535.41,   320.48  L  5529.74,   317.65  L  5535.41,   314.82  L  5529.74,   311.98  L  5535.41,   309.15  L  5532.57,   307.73  L  5532.57,   299.24  " /><path style="stroke-width:0.85 ;&st7;  " d=" M  5328.61,   341.73  L  5326.47,   338.54  L  5324.85,   340.99  L  5328.61,   341.73  L  5327.38,   340.91  L  5326.48,   339.56  L  5325.79,   340.59  L  5327.38,   340.91  L  5326.76,   340.50  L  5326.48,   340.07  L  5326.26,   340.40  L  5326.76,   340.50  " /><path style="stroke-width:0.85 ;&st7;  " d=" M  5328.61,   324.73  L  5320.11,   330.40  " /><path style="stroke-width:0.85 ;&st7;  " d=" M  5320.11,   333.23  L  5311.61,   333.23  " /><path style="stroke-width:0.85 ;&st7;  " d=" M  5320.11,   350.23  L  5315.86,   358.73  " /><path style="stroke-width:0.85 ;&st7;  " d=" M  5311.61,   367.22  L  5311.61,   333.23  " /><path style="stroke-width:0.85 ;&st7;  " d=" M  5328.61,   324.73  L  5345.60,   324.73  L  5345.60,   341.73  L  5371.10,   341.73  " /><path style="stroke-width:0.85 ;&st7;  " d=" M  5252.12,   350.23  L  5247.87,   358.73  " /><path style="stroke-width:0.85 ;&st7;  " d=" M  5252.12,   341.73  L  5243.62,   336.06  " /><path style="stroke-width:1.42 ;&st7;  " d=" M  5243.62,   324.73  L  5243.62,   341.73  " /><path style="stroke-width:0.85 ;&st7;  " d=" M  5260.62,   350.23  L  5256.37,   358.73  " /><path style="stroke-width:0.85 ;&st7;  " d=" M  5243.62,   350.23  L  5260.62,   350.23  " /><path style="stroke-width:0.85 ;&st7;  " d=" M  5252.12,   341.73  L  5252.12,   350.23  " /><path style="stroke-width:0.85 ;&st7;  " d=" M  5252.12,   341.73  L  5249.99,   338.54  L  5248.36,   340.99  L  5252.12,   341.73  L  5250.89,   340.91  L  5249.99,   339.56  L  5249.30,   340.59  L  5250.89,   340.91  L  5250.27,   340.50  L  5249.99,   340.07  L  5249.77,   340.40  L  5250.27,   340.50  " /><path style="stroke-width:0.85 ;&st7;  " d=" M  5252.12,   324.73  L  5243.62,   330.40  " /><path style="stroke-width:0.85 ;&st7;  " d=" M  5243.62,   333.23  L  5235.12,   333.23  " /><path style="stroke-width:0.85 ;&st7;  " d=" M  5243.62,   350.23  L  5239.37,   358.73  " /><path style="stroke-width:0.85 ;&st7;  " d=" M  5235.12,   367.22  L  5235.12,   333.23  " /><path style="stroke-width:0.85 ;&st7;  " d=" M  5252.12,   324.73  L  5269.12,   324.73  L  5269.12,   341.73  L  5294.61,   341.73  " /><path style="stroke-width:0.85 ;&st7;  " d=" M  5481.58,   384.22  L  5481.58,   401.22  " /><path style="stroke-width:0.85 ;&st7;  " d=" M  5480.39,   349.22  L  5480.12,   349.69  L  5480.02,   350.23  L  5480.12,   350.76  L  5480.39,   351.23  L  5480.80,   351.58  L  5481.31,   351.76  L  5481.85,   351.76  L  5482.36,   351.58  L  5482.77,   351.23  L  5483.05,   350.76  L  5483.14,   350.23  L  5483.05,   349.69  L  5482.77,   349.22  L  5482.36,   348.88  L  5481.85,   348.69  L  5481.31,   348.69  L  5480.80,   348.88  L  5480.39,   349.22  L  5480.78,   349.94  L  5480.78,   350.52  L  5481.16,   350.96  L  5481.73,   351.06  L  5482.23,   350.77  L  5482.43,   350.23  L  5482.23,   349.68  L  5481.73,   349.39  L  5481.16,   349.49  L  5481.58,   350.23  " /><path style="stroke-width:0.85 ;&st7;  " d=" M  5481.58,   384.22  L  5481.58,   375.72  L  5478.75,   374.31  L  5484.41,   371.47  L  5478.75,   368.64  L  5484.41,   365.81  L  5478.75,   362.97  L  5484.41,   360.14  L  5481.58,   358.73  L  5481.58,   350.23  " /><text style="&st18;" transform="matrix(&st16;  5484.17  397.53 )">SI</text><text style="&st18;" transform="matrix(&st16;  5274.32  407.72 )">14</text><path style="stroke-width:1.42 ;&st7;   " d=" M  5290.65,   405.75  C  5290.65    403.25   5288.62    401.22   5286.12    401.22  " /><path style="stroke-width:1.42 ;&st7;   " d=" M  5286.12,   401.22  C  5283.61    401.22   5281.58    403.25   5281.58    405.75  " /><path style="stroke-width:1.42 ;&st7;   " d=" M  5281.58,   405.75  C  5281.58    408.25   5283.61    410.28   5286.12    410.28  " /><path style="stroke-width:1.42 ;&st7;   " d=" M  5286.12,   410.28  C  5288.62    410.28   5290.65    408.25   5290.65    405.75  " /><text style="&st18;" transform="matrix(&st16;  5283.93  407.72 )">B</text><text style="&st18;" transform="matrix(&st16;  5231.83  407.72 )">13</text><path style="stroke-width:1.42 ;&st7;   " d=" M  5248.16,   405.75  C  5248.16    403.25   5246.13    401.22   5243.62    401.22  " /><path style="stroke-width:1.42 ;&st7;   " d=" M  5243.62,   401.22  C  5241.12    401.22   5239.09    403.25   5239.09    405.75  " /><path style="stroke-width:1.42 ;&st7;   " d=" M  5239.09,   405.75  C  5239.09    408.25   5241.12    410.28   5243.62    410.28  " /><path style="stroke-width:1.42 ;&st7;   " d=" M  5243.62,   410.28  C  5246.13    410.28   5248.16    408.25   5248.16    405.75  " /><text style="&st18;" transform="matrix(&st16;  5241.44  407.72 )">B</text><text style="&st18;" transform="matrix(&st16;  5393.3  237.18 )">28</text><text style="&st18;" transform="matrix(&st16;  5402.79  237.18 )">A</text><path style="stroke-width:1.42 ;&st7;   " d=" M  5409.63,   235.21  C  5409.63    232.71   5407.60    230.68   5405.10    230.68  " /><path style="stroke-width:1.42 ;&st7;   " d=" M  5405.10,   230.68  C  5402.59    230.68   5400.56    232.71   5400.56    235.21  " /><path style="stroke-width:1.42 ;&st7;   " d=" M  5400.56,   235.21  C  5400.56    237.72   5402.59    239.75   5405.10    239.75  " /><path style="stroke-width:1.42 ;&st7;   " d=" M  5405.10,   239.75  C  5407.60    239.75   5409.63    237.72   5409.63    235.21  " /><text style="&st18;" transform="matrix(&st16;  5472.89  407.72 )">9</text><path style="stroke-width:1.42 ;&st7;   " d=" M  5486.12,   405.75  C  5486.12    403.25   5484.09    401.22   5481.58    401.22  " /><path style="stroke-width:1.42 ;&st7;   " d=" M  5481.58,   401.22  C  5479.08    401.22   5477.05    403.25   5477.05    405.75  " /><path style="stroke-width:1.42 ;&st7;   " d=" M  5477.05,   405.75  C  5477.05    408.25   5479.08    410.28   5481.58    410.28  " /><path style="stroke-width:1.42 ;&st7;   " d=" M  5481.58,   410.28  C  5484.09    410.28   5486.12    408.25   5486.12    405.75  " /><text style="&st18;" transform="matrix(&st16;  5479.28  407.72 )">A</text><text style="&st18;" transform="matrix(&st16;  5574.87  407.72 )">8</text><text style="&st18;" transform="matrix(&st16;  5581.26  407.72 )">A</text><path style="stroke-width:1.42 ;&st7;   " d=" M  5588.10,   405.75  C  5588.10    403.25   5586.07    401.22   5583.57    401.22  " /><path style="stroke-width:1.42 ;&st7;   " d=" M  5583.57,   401.22  C  5581.06    401.22   5579.03    403.25   5579.03    405.75  " /><path style="stroke-width:1.42 ;&st7;   " d=" M  5579.03,   405.75  C  5579.03    408.25   5581.06    410.28   5583.57    410.28  " /><path style="stroke-width:1.42 ;&st7;   " d=" M  5583.57,   410.28  C  5586.07    410.28   5588.10    408.25   5588.10    405.75  " /><text style="&st18;" transform="matrix(&st16;  5622.76  407.72 )">15</text><text style="&st18;" transform="matrix(&st16;  5632.25  407.72 )">A</text><path style="stroke-width:1.42 ;&st7;   " d=" M  5639.09,   405.75  C  5639.09    403.25   5637.06    401.22   5634.56    401.22  " /><path style="stroke-width:1.42 ;&st7;   " d=" M  5634.56,   401.22  C  5632.06    401.22   5630.03    403.25   5630.03    405.75  " /><path style="stroke-width:1.42 ;&st7;   " d=" M  5630.03,   405.75  C  5630.03    408.25   5632.06    410.28   5634.56    410.28  " /><path style="stroke-width:1.42 ;&st7;   " d=" M  5634.56,   410.28  C  5637.06    410.28   5639.09    408.25   5639.09    405.75  " /><text style="&st18;" transform="matrix(&st16;  5622.76  237.18 )">26</text><text style="&st18;" transform="matrix(&st16;  5632.25  237.18 )">A</text><path style="stroke-width:1.42 ;&st7;   " d=" M  5639.09,   235.21  C  5639.09    232.71   5637.06    230.68   5634.56    230.68  " /><path style="stroke-width:1.42 ;&st7;   " d=" M  5634.56,   230.68  C  5632.06    230.68   5630.03    232.71   5630.03    235.21  " /><path style="stroke-width:1.42 ;&st7;   " d=" M  5630.03,   235.21  C  5630.03    237.72   5632.06    239.75   5634.56    239.75  " /><path style="stroke-width:1.42 ;&st7;   " d=" M  5634.56,   239.75  C  5637.06    239.75   5639.09    237.72   5639.09    235.21  " /><g ewd:figtype="title"><text style="&st18;" transform="matrix(&st17;  5666.27  404.12 )" ewd:textID="10">Combination Meter Assembly</text><text style="&st18;" transform="matrix(&st17;  5659.45  404.12 )">L25(A),L26(B)</text></g></g><g ewd:figtype="w2w" ewd:figID="115" ewd:code="IL1"><path style="stroke-width:1.42 ;&st7;  " d=" M  5035.41,   500.37  L  5031.16,   496.12  L  5026.91,   500.37  " /><path style="stroke-width:1.42 ;&st7;  " d=" M  5035.41,   503.77  L  5031.16,   499.52  L  5026.91,   503.77  " /><text style="&st18;" transform="matrix(&st16;  5015.43  492.42 )">45</text></g><g ewd:figtype="w2w" ewd:figID="116" ewd:code="AI3"><path style="stroke-width:1.42 ;&st7;  " d=" M  5035.41,   325.30  L  5031.16,   321.05  L  5026.91,   325.30  " /><path style="stroke-width:1.42 ;&st7;  " d=" M  5035.41,   321.90  L  5031.16,   317.65  L  5026.91,   321.90  " /><text style="&st18;" transform="matrix(&st16;  5015.43  313.95 )">38</text></g><g ewd:figtype="w2w" ewd:figID="117" ewd:code="IL1"><path style="stroke-width:1.42 ;&st7;  " d=" M  5077.90,   500.37  L  5073.65,   496.12  L  5069.40,   500.37  " /><path style="stroke-width:1.42 ;&st7;  " d=" M  5077.90,   503.77  L  5073.65,   499.52  L  5069.40,   503.77  " /><text style="&st18;" transform="matrix(&st16;  5057.92  492.42 )">23</text></g><g ewd:figtype="w2w" ewd:figID="118" ewd:code="AI3"><path style="stroke-width:1.42 ;&st7;  " d=" M  5077.90,   325.30  L  5073.65,   321.05  L  5069.40,   325.30  " /><path style="stroke-width:1.42 ;&st7;  " d=" M  5077.90,   321.90  L  5073.65,   317.65  L  5069.40,   321.90  " /><text style="&st18;" transform="matrix(&st16;  5057.92  313.95 )">37</text></g><g ewd:figtype="w2w" ewd:figID="119" ewd:code="AI3"><path style="stroke-width:1.42 ;&st7;  " d=" M  5128.89,   325.30  L  5124.64,   321.05  L  5120.39,   325.30  " /><text style="&st18;" transform="matrix(&st16;  5108.91  313.95 )">20</text><path style="stroke-width:1.42 ;&st7;  " d=" M  5128.89,   321.90  L  5124.64,   317.65  L  5120.39,   321.90  " /></g><g ewd:figtype="w2w" ewd:figID="120" ewd:code="LI1"><path style="stroke-width:1.42 ;&st7;  " d=" M  5400.85,   137.20  L  5405.09,   141.45  L  5409.34,   137.20  " /><path style="stroke-width:1.42 ;&st7;  " d=" M  5409.34,   140.60  L  5405.09,   144.84  L  5400.85,   140.60  " /><text style="&st18;" transform="matrix(&st16;  5389.36  152.48 )">22</text></g><g ewd:figtype="w2w" ewd:figID="121" ewd:code="IL2"><path style="stroke-width:1.42 ;&st7;  " d=" M  5477.33,   443.14  L  5481.58,   447.39  L  5485.83,   443.14  " /><path style="stroke-width:1.42 ;&st7;  " d=" M  5485.83,   446.54  L  5481.58,   450.79  L  5477.33,   446.54  " /><text style="&st18;" transform="matrix(&st16;  5465.85  458.43 )">18</text></g></svg>