<?xml version="1.0" encoding="utf-8"?>
<!DOCTYPE svg PUBLIC "-//W3C//DTD SVG 1.0//EN" "http://www.w3.org/TR/2001/REC-SVG-20010904/DTD/svg10.dtd"[
	<!ENTITY ns_flows "http://ns.adobe.com/Flows/1.0/">
	<!ENTITY ns_svg "http://www.w3.org/2000/svg">
	<!ENTITY ns_xlink "http://www.w3.org/1999/xlink">
	<!ENTITY st0 "font-size:7px;font-family:'MS-PGothic';adobe-font-script:japanese;">
	<!ENTITY st1 "font-size:6px;font-family:'ArialMT';">
	<!-- White fill  -->
	<!ENTITY st2 "fill:#FFFFFF;stroke:#000000; stroke-width:1.41;stroke-linecap:round;stroke-linejoin:round;">
	<!-- Yellow fill  -->
	<!ENTITY st3 "fill:#FFFFCC;stroke:#FFFFCC; stroke-width:0.1;stroke-linecap:round;stroke-linejoin:round;">
	<!-- Gray fill  -->
	<!ENTITY st4 "fill:#CCCCCC;stroke:#CCCCCC; stroke-width:0.1;stroke-linecap:round;stroke-linejoin:round;">
	<!-- Light-blue fill -->
	<!ENTITY st5 "fill:#CCECF4;stroke:#000000; stroke-width:1.133;stroke-linecap:round;stroke-linejoin:round;">
	<!ENTITY st6 "fill:none;stroke-linecap:butt; stroke-linejoin:round;">
	<!ENTITY st7 "fill:none;stroke:#000000;stroke-linecap:round;stroke-linejoin:round;">
	<!ENTITY st8 "enable-background:new    ;">
	<!-- Black fill -->
	<!ENTITY st9 "fill:#000000;stroke:#000000; stroke-linecap:round;stroke-linejoin:round;">
	<!-- SRS note   -->
	<!ENTITY st10 "font-size:9px;font-family:'ArialMT';">
	<!ENTITY st11 "font-size:9px;font-family:'Svg Symbol';">
	<!ENTITY st12 "font-size:6px;font-family:'Svg Symbol';">
	<!ENTITY st13 "fill:none;stroke:#ff0000;stroke-linecap:round;stroke-linejoin:round;">
	<!-- Yellow fill  -->
	<!ENTITY st14 "fill:#FFFF00;stroke:#FFFF00; stroke-width:0.1;stroke-linecap:round;stroke-linejoin:round;">
	<!ENTITY st15 "font-size:6px;font-family:'MS-PGothic';adobe-font-script:japanese;">
	<!ENTITY st16 "1.00 0.00 0.00 1.00">
	<!ENTITY st17 "0.00 -1.00 1.00 0.00">
	<!ENTITY st18 "font-size:6px;font-family:'Arial';">
	<!ENTITY st19 "font-size:9px;font-family:'Arial';">
	<!ENTITY st20 "font-size:6px;font-family:'MS-PGothic','MS PGothic';adobe-font-script:japanese;">
	<!ENTITY st21 "font-size:7px;font-family:'MS-PGothic','MS PGothic';adobe-font-script:japanese;">
	<!ATTLIST svg
		xmlns:ewd CDATA #FIXED "http://shcl.co.jp/ewd"
		xmlns:a CDATA #FIXED "http://ns.adobe.com/AdobeSVGViewerExtensions/3.0/"
		ewd:ver CDATA #IMPLIED
	>
	<!ATTLIST a
		ewd:lineID CDATA #IMPLIED
		ewd:groupID CDATA #IMPLIED
		ewd:figtype CDATA #IMPLIED
		ewd:code CDATA #IMPLIED
		ewd:figID CDATA #IMPLIED
		ewd:pinNo CDATA #IMPLIED
		ewd:comment CDATA #IMPLIED >
	<!ATTLIST g
		ewd:lineID CDATA #IMPLIED
		ewd:groupID CDATA #IMPLIED
		ewd:figtype CDATA #IMPLIED
		ewd:code CDATA #IMPLIED
		ewd:figID CDATA #IMPLIED
		ewd:pinNo CDATA #IMPLIED
		ewd:comment CDATA #IMPLIED >
	<!ATTLIST text
		ewd:textID CDATA #IMPLIED >
	<!ATTLIST title
		ewd:textID CDATA #IMPLIED >
]>
<!-- Generator: Shintec Hozumi YS   -->
<svg onload="call_execInitLoadProc_svg('system')" style="overflow:visible;  enable-background:new 0 0 8273.908 710.000" viewBox="0 0 8273.908 710.000" height="710.000" width="8273.908" xml:space="preserve" ewd:ver="2.1.2.9" xmlns="&ns_svg;" xmlns:a="http://ns.adobe.com/AdobeSVGViewerExtensions/3.0/" xmlns:ewd="http://shcl.co.jp/ewd" xmlns:xlink="&ns_xlink;">
<text style="&st18;" transform="matrix(&st17;  7024.63  191.22 )">W</text><text style="&st18;" transform="matrix(&st17;  7035.96  202.15 )">(LHD *13)</text><text style="&st18;" transform="matrix(&st17;  7067.12  190.37 )">R</text><text style="&st18;" transform="matrix(&st17;  7078.46  202.15 )">(LHD *13)</text><text style="&st18;" transform="matrix(&st17;  7475.06  415.59 )">R-W</text><text style="&st18;" transform="matrix(&st17;  7398.57  414.82 )">B-R</text><text style="&st18;" transform="matrix(&st17;  7409.9  415.98 )">(*10)</text><text style="&st18;" transform="matrix(&st16;  7276.91  626.98 )">R-W</text><text style="&st18;" transform="matrix(&st16;  7225.92  626.98 )">R-W</text><text style="&st18;" transform="matrix(&st16;  7277.68  32.08 )">B-R</text><text style="&st18;" transform="matrix(&st16;  7226.69  32.08 )">B-R</text><text style="&st18;" transform="matrix(&st16;  7225.53  43.41 )">(*10)</text><text style="&st18;" transform="matrix(&st16;  7276.52  43.41 )">(*10)</text><path style="stroke-width:1.42 ;&st7;  " d=" M  7079.32,   307.73  L  7070.82,   307.73  " /><path style="stroke-width:1.42 ;&st7;  " d=" M  7036.82,   307.73  L  7028.33,   307.73  " /><path style="stroke-width:1.42 ;&st7;  " d=" M  7181.30,   375.72  L  7189.80,   375.72  " /><path style="stroke-width:1.42 ;&st7;  " d=" M  7130.31,   375.72  L  7138.81,   375.72  " /><text style="&st18;" transform="matrix(&st17;  7197.44  434.57 )">(RHD)</text><text style="&st18;" transform="matrix(&st17;  7024.63  344.19 )">W</text><text style="&st18;" transform="matrix(&st17;  7035.96  349.54 )">(LHD)</text><text style="&st18;" transform="matrix(&st17;  7067.12  343.34 )">R</text><text style="&st18;" transform="matrix(&st17;  7078.46  349.54 )">(LHD)</text><text style="&st18;" transform="matrix(&st17;  7146.44  196.61 )">(RHD)</text><text style="&st18;" transform="matrix(&st17;  7135.11  191.22 )">W</text><text style="&st18;" transform="matrix(&st17;  7197.44  196.61 )">(RHD)</text><text style="&st18;" transform="matrix(&st17;  7186.1  190.37 )">R</text><text style="&st18;" transform="matrix(&st17;  7197.44  349.58 )">(RHD)</text><text style="&st18;" transform="matrix(&st17;  7186.1  343.34 )">R</text><text style="&st18;" transform="matrix(&st17;  7135.11  344.19 )">W</text><text style="&st18;" transform="matrix(&st17;  7146.44  349.58 )">(RHD)</text><text style="&st18;" transform="matrix(&st17;  7146.44  434.57 )">(RHD)</text><text style="&st18;" transform="matrix(&st17;  7135.11  429.18 )">W</text><text style="&st18;" transform="matrix(&st17;  7186.1  428.33 )">R</text><text style="&st18;" transform="matrix(&st17;  7078.46  281.55 )">(LHD)</text><text style="&st18;" transform="matrix(&st17;  7067.12  275.35 )">R</text><text style="&st18;" transform="matrix(&st17;  7035.96  281.55 )">(LHD)</text><text style="&st18;" transform="matrix(&st17;  7024.63  276.2 )">W</text><text style="&st18;" transform="matrix(&st17;  7305.08  160.13 )">G-R</text><text style="&st18;" transform="matrix(&st17;  7316.42  161.02 )">(*13)</text><path style="stroke-width:1.42 ;&st7;  " d=" M  7317.28,   214.25  L  7308.78,   214.25  " /><text style="&st18;" transform="matrix(&st16;  7276.52  68.91 )">(*13)</text><text style="&st18;" transform="matrix(&st16;  7225.53  68.91 )">(*13)</text><text style="&st18;" transform="matrix(&st16;  7226.42  57.58 )">G-R</text><text style="&st18;" transform="matrix(&st16;  7277.41  57.58 )">G-R</text><text style="&st18;" transform="matrix(&st16;  7229.83  643.98 )">G</text><text style="&st18;" transform="matrix(&st16;  7280.82  643.98 )">G</text><text style="&st18;" transform="matrix(&st17;  7316.42  347.99 )">(*13)</text><text style="&st18;" transform="matrix(&st17;  7305.08  347.1 )">G-R</text><g ewd:figtype="conn" ewd:figID="65" ewd:code="A25,A26"><path style="stroke-width:1.42 ;&st7;  " d=" M  7130.31,   290.74  L  7198.29,   290.74  " /><path style="stroke-width:1.42 ;&st7;  " d=" M  7130.31,   282.24  L  7130.31,   299.24  L  7198.29,   299.24  L  7198.29,   282.24  L  7130.31,   282.24  " /><text style="&st18;" transform="matrix(&st16;  7130.11  305.74 )">3</text><text style="&st18;" transform="matrix(&st16;  7136.5  305.74 )">A</text><path style="stroke-width:1.42 ;&st7;   " d=" M  7143.34,   303.77  C  7143.34    301.26   7141.31    299.24   7138.81    299.24  " /><path style="stroke-width:1.42 ;&st7;   " d=" M  7138.81,   299.24  C  7136.30    299.24   7134.27    301.26   7134.27    303.77  " /><path style="stroke-width:1.42 ;&st7;   " d=" M  7134.27,   303.77  C  7134.27    306.27   7136.30    308.30   7138.81    308.30  " /><path style="stroke-width:1.42 ;&st7;   " d=" M  7138.81,   308.30  C  7141.31    308.30   7143.34    306.27   7143.34    303.77  " /><text style="&st18;" transform="matrix(&st16;  7130.11  279.67 )">3</text><text style="&st18;" transform="matrix(&st16;  7136.62  279.67 )">B</text><path style="stroke-width:1.42 ;&st7;   " d=" M  7143.34,   277.71  C  7143.34    275.20   7141.31    273.17   7138.81    273.17  " /><path style="stroke-width:1.42 ;&st7;   " d=" M  7138.81,   273.17  C  7136.30    273.17   7134.27    275.20   7134.27    277.71  " /><path style="stroke-width:1.42 ;&st7;   " d=" M  7134.27,   277.71  C  7134.27    280.21   7136.30    282.24   7138.81    282.24  " /><path style="stroke-width:1.42 ;&st7;   " d=" M  7138.81,   282.24  C  7141.31    282.24   7143.34    280.21   7143.34    277.71  " /><text style="&st18;" transform="matrix(&st16;  7181.1  305.74 )">4</text><path style="stroke-width:1.42 ;&st7;   " d=" M  7194.33,   303.77  C  7194.33    301.26   7192.30    299.24   7189.80    299.24  " /><path style="stroke-width:1.42 ;&st7;   " d=" M  7189.80,   299.24  C  7187.30    299.24   7185.27    301.26   7185.27    303.77  " /><path style="stroke-width:1.42 ;&st7;   " d=" M  7185.27,   303.77  C  7185.27    306.27   7187.30    308.30   7189.80    308.30  " /><path style="stroke-width:1.42 ;&st7;   " d=" M  7189.80,   308.30  C  7192.30    308.30   7194.33    306.27   7194.33    303.77  " /><text style="&st18;" transform="matrix(&st16;  7187.49  305.74 )">A</text><text style="&st18;" transform="matrix(&st16;  7181.1  279.67 )">4</text><text style="&st18;" transform="matrix(&st16;  7187.61  279.67 )">B</text><path style="stroke-width:1.42 ;&st7;   " d=" M  7194.33,   277.71  C  7194.33    275.20   7192.30    273.17   7189.80    273.17  " /><path style="stroke-width:1.42 ;&st7;   " d=" M  7189.80,   273.17  C  7187.30    273.17   7185.27    275.20   7185.27    277.71  " /><path style="stroke-width:1.42 ;&st7;   " d=" M  7185.27,   277.71  C  7185.27    280.21   7187.30    282.24   7189.80    282.24  " /><path style="stroke-width:1.42 ;&st7;   " d=" M  7189.80,   282.24  C  7192.30    282.24   7194.33    280.21   7194.33    277.71  " /><g ewd:figtype="title"><text style="&st18;" transform="matrix(&st17;  7206.19  302.13 )">A25(A),A26(B)</text><text style="&st18;" transform="matrix(&st17;  7213.02  302.14 )" ewd:textID="22">Brake Vacuum Check <tspan x="0 " dy="6.0">Valve Assembly</tspan></text></g></g><g ewd:figtype="conn" ewd:figID="78" ewd:code="L25,L26"><path style="stroke-width:0.85 ;&st7;  " d=" M  7483.00,   367.22  L  7474.50,   367.22  " /><path style="stroke-width:0.85 ;&st7;  " d=" M  7491.48,   298.07  L  7484.12,   302.32  " /><path style="stroke-width:0.85 ;&st7;  " d=" M  7483.00,   307.73  L  7474.50,   307.73  " /><path style="stroke-width:0.85 ;&st7;  " d=" M  7486.13,   305.79  L  7493.49,   301.54  " /><path style="stroke-width:0.85 ;&st7;  " d=" M  7720.96,   273.74  L  7712.46,   273.74  " /><path style="stroke-width:0.85 ;&st7;  " d=" M  7406.51,   367.22  L  7398.01,   367.22  " /><path style="stroke-width:0.85 ;&st7;  " d=" M  7414.99,   298.07  L  7407.63,   302.32  " /><path style="stroke-width:0.85 ;&st7;  " d=" M  7406.51,   307.73  L  7398.01,   307.73  " /><path style="stroke-width:0.85 ;&st7;  " d=" M  7409.64,   305.79  L  7417.00,   301.54  " /><path style="stroke-width:0.85 ;&st7;  " d=" M  7555.24,   277.99  L  7555.24,   286.49  " /><path style="stroke-width:0.85 ;&st7;  " d=" M  7533.99,   273.74  L  7525.49,   273.74  " /><path style="stroke-width:0.85 ;&st7;  " d=" M  7427.76,   324.73  L  7427.76,   314.11  " /><path style="stroke-width:0.85 ;&st7;  " d=" M  7427.76,   309.86  L  7427.76,   290.74  " /><path style="stroke-width:1.42 ;&st7;  " d=" M  7432.01,   309.86  L  7423.51,   309.86  " /><path style="stroke-width:1.42 ;&st7;  " d=" M  7432.01,   314.11  L  7423.51,   314.11  " /><path style="stroke-width:0.28 ;&st9;  " d=" M  7716.71,   273.74  L  7711.04,   265.24  L  7722.37,   265.24  L  7716.71,   273.74  " /><path style="stroke-width:0.85 ;&st7;  " d=" M  7528.55,   281.24  L  7528.27,   281.71  L  7528.18,   282.24  L  7528.27,   282.77  L  7528.55,   283.24  L  7528.96,   283.59  L  7529.47,   283.77  L  7530.01,   283.77  L  7530.52,   283.59  L  7530.93,   283.24  L  7531.20,   282.77  L  7531.30,   282.24  L  7531.20,   281.71  L  7530.93,   281.24  L  7530.52,   280.89  L  7530.01,   280.70  L  7529.47,   280.70  L  7528.96,   280.89  L  7528.55,   281.24  L  7528.94,   281.95  L  7528.94,   282.53  L  7529.31,   282.97  L  7529.89,   283.07  L  7530.39,   282.79  L  7530.59,   282.24  L  7530.39,   281.69  L  7529.89,   281.40  L  7529.31,   281.50  L  7529.74,   282.24  " /><path style="stroke-width:0.28 ;&st9;  " d=" M  7478.75,   307.73  L  7473.08,   299.24  L  7484.41,   299.24  L  7478.75,   307.73  " /><path style="stroke-width:0.85 ;&st7;  " d=" M  7716.71,   248.24  L  7716.71,   282.24  L  7580.73,   282.24  L  7580.73,   299.24  L  7895.18,   299.24  " /><path style="stroke-width:0.28 ;&st9;  " d=" M  7478.75,   367.22  L  7473.08,   358.73  L  7484.41,   358.73  L  7478.75,   367.22  " /><path style="stroke-width:0.85 ;&st7;  " d=" M  7478.75,   384.22  L  7478.75,   350.23  L  7475.91,   348.81  L  7481.58,   345.98  L  7475.91,   343.14  L  7481.58,   340.31  L  7475.91,   337.48  L  7481.58,   334.65  L  7478.75,   333.23  L  7478.75,   282.24  " /><path style="stroke-width:0.85 ;&st7;  " d=" M  7491.48,   298.07  L  7489.15,   301.11  L  7487.68,   298.57  L  7491.48,   298.07  L  7490.20,   298.81  L  7489.21,   300.09  L  7488.59,   299.02  L  7490.20,   298.81  L  7489.56,   299.18  L  7489.25,   299.58  L  7489.05,   299.25  L  7489.56,   299.18  " /><path style="stroke-width:0.85 ;&st7;  " d=" M  7579.54,   281.24  L  7579.27,   281.71  L  7579.17,   282.24  L  7579.27,   282.77  L  7579.54,   283.24  L  7579.95,   283.59  L  7580.46,   283.77  L  7581.00,   283.77  L  7581.51,   283.59  L  7581.92,   283.24  L  7582.19,   282.77  L  7582.29,   282.24  L  7582.19,   281.71  L  7581.92,   281.24  L  7581.51,   280.89  L  7581.00,   280.70  L  7580.46,   280.70  L  7579.95,   280.89  L  7579.54,   281.24  L  7579.93,   281.95  L  7579.93,   282.53  L  7580.31,   282.97  L  7580.88,   283.07  L  7581.38,   282.79  L  7581.58,   282.24  L  7581.38,   281.69  L  7580.88,   281.40  L  7580.31,   281.50  L  7580.73,   282.24  " /><path style="stroke-width:0.85 ;&st7;  " d=" M  7529.74,   248.24  L  7529.74,   282.24  " /><path style="stroke-width:1.42 ;&st7;  " d=" M  7895.18,   290.74  L  7895.18,   307.73  L  7980.16,   307.73  L  7980.16,   290.74  L  7895.18,   290.74  " /><path style="stroke-width:1.42 ;&st7;  " d=" M  7376.76,   248.24  L  7376.76,   384.22  L  8243.62,   384.22  L  8243.62,   248.24  L  7376.76,   248.24  " /><path style="stroke-width:0.85 ;&st7;  " d=" M  7580.73,   282.24  L  7478.75,   282.24  " /><path style="stroke-width:0.85 ;&st7;  " d=" M  7493.48,   301.54  L  7491.15,   304.58  L  7489.68,   302.04  L  7493.48,   301.54  L  7492.20,   302.28  L  7491.22,   303.56  L  7490.60,   302.49  L  7492.20,   302.28  L  7491.56,   302.65  L  7491.25,   303.05  L  7491.05,   302.72  L  7491.56,   302.65  " /><path style="stroke-width:0.28 ;&st9;  " d=" M  7402.26,   307.73  L  7396.59,   299.24  L  7407.93,   299.24  L  7402.26,   307.73  " /><path style="stroke-width:0.28 ;&st9;  " d=" M  7402.26,   367.22  L  7396.59,   358.73  L  7407.93,   358.73  L  7402.26,   367.22  " /><path style="stroke-width:0.85 ;&st7;  " d=" M  7402.26,   384.22  L  7402.26,   350.23  L  7399.43,   348.81  L  7405.09,   345.98  L  7399.43,   343.14  L  7405.09,   340.31  L  7399.43,   337.48  L  7405.09,   334.65  L  7402.26,   333.23  L  7402.26,   282.24  " /><path style="stroke-width:0.85 ;&st7;  " d=" M  7414.99,   298.07  L  7412.66,   301.11  L  7411.19,   298.57  L  7414.99,   298.07  L  7413.71,   298.81  L  7412.72,   300.09  L  7412.11,   299.02  L  7413.71,   298.81  L  7413.07,   299.18  L  7412.76,   299.58  L  7412.56,   299.25  L  7413.07,   299.18  " /><path style="stroke-width:0.85 ;&st7;  " d=" M  7478.75,   282.24  L  7402.26,   282.24  " /><path style="stroke-width:0.85 ;&st7;  " d=" M  7417.00,   301.54  L  7414.66,   304.58  L  7413.19,   302.04  L  7417.00,   301.54  L  7415.71,   302.28  L  7414.73,   303.56  L  7414.11,   302.49  L  7415.71,   302.28  L  7415.07,   302.65  L  7414.76,   303.05  L  7414.57,   302.72  L  7415.07,   302.65  " /><path style="stroke-width:0.85 ;&st7;  " d=" M  7477.55,   281.24  L  7477.28,   281.71  L  7477.19,   282.24  L  7477.28,   282.77  L  7477.55,   283.24  L  7477.97,   283.59  L  7478.48,   283.77  L  7479.02,   283.77  L  7479.53,   283.59  L  7479.94,   283.24  L  7480.21,   282.77  L  7480.31,   282.24  L  7480.21,   281.71  L  7479.94,   281.24  L  7479.53,   280.89  L  7479.02,   280.70  L  7478.48,   280.70  L  7477.97,   280.89  L  7477.55,   281.24  L  7477.95,   281.95  L  7477.95,   282.53  L  7478.32,   282.97  L  7478.89,   283.07  L  7479.40,   282.79  L  7479.60,   282.24  L  7479.40,   281.69  L  7478.89,   281.40  L  7478.32,   281.50  L  7478.75,   282.24  " /><path style="stroke-width:0.28 ;&st9;  " d=" M  7555.23,   282.24  L  7546.74,   287.90  L  7546.74,   276.57  L  7555.23,   282.24  " /><path style="stroke-width:0.28 ;&st9;  " d=" M  7529.74,   273.74  L  7524.07,   265.24  L  7535.40,   265.24  L  7529.74,   273.74  " /><path style="stroke-width:0.85 ;&st7;  " d=" M  7504.24,   324.73  L  7504.24,   316.23  L  7501.41,   314.82  L  7507.08,   311.98  L  7501.41,   309.15  L  7507.08,   306.32  L  7501.41,   303.48  L  7507.08,   300.65  L  7504.24,   299.24  L  7504.24,   290.74  " /><path style="stroke-width:0.85 ;&st7;  " d=" M  7478.75,   290.74  L  7504.24,   290.74  " /><path style="stroke-width:0.85 ;&st7;  " d=" M  7478.75,   324.73  L  7504.24,   324.73  " /><path style="stroke-width:0.85 ;&st7;  " d=" M  7477.55,   289.73  L  7477.28,   290.20  L  7477.19,   290.74  L  7477.28,   291.27  L  7477.55,   291.74  L  7477.97,   292.09  L  7478.48,   292.27  L  7479.02,   292.27  L  7479.53,   292.09  L  7479.94,   291.74  L  7480.21,   291.27  L  7480.31,   290.74  L  7480.21,   290.20  L  7479.94,   289.73  L  7479.53,   289.39  L  7479.02,   289.20  L  7478.48,   289.20  L  7477.97,   289.39  L  7477.55,   289.73  L  7477.95,   290.45  L  7477.95,   291.03  L  7478.32,   291.47  L  7478.89,   291.57  L  7479.40,   291.28  L  7479.60,   290.74  L  7479.40,   290.19  L  7478.89,   289.90  L  7478.32,   290.00  L  7478.75,   290.74  " /><path style="stroke-width:0.85 ;&st7;  " d=" M  7477.55,   323.73  L  7477.28,   324.20  L  7477.19,   324.73  L  7477.28,   325.26  L  7477.55,   325.73  L  7477.97,   326.08  L  7478.48,   326.27  L  7479.02,   326.27  L  7479.53,   326.08  L  7479.94,   325.73  L  7480.21,   325.26  L  7480.31,   324.73  L  7480.21,   324.20  L  7479.94,   323.73  L  7479.53,   323.38  L  7479.02,   323.20  L  7478.48,   323.20  L  7477.97,   323.38  L  7477.55,   323.73  L  7477.95,   324.44  L  7477.95,   325.02  L  7478.32,   325.47  L  7478.89,   325.57  L  7479.40,   325.28  L  7479.60,   324.73  L  7479.40,   324.18  L  7478.89,   323.90  L  7478.32,   323.99  L  7478.75,   324.73  " /><path style="stroke-width:0.85 ;&st7;  " d=" M  7444.75,   324.73  L  7444.75,   316.23  L  7441.92,   314.82  L  7447.59,   311.98  L  7441.92,   309.15  L  7447.59,   306.32  L  7441.92,   303.48  L  7447.59,   300.65  L  7444.75,   299.24  L  7444.75,   290.74  " /><path style="stroke-width:0.85 ;&st7;  " d=" M  7402.26,   290.74  L  7444.75,   290.74  " /><path style="stroke-width:0.85 ;&st7;  " d=" M  7402.26,   324.73  L  7444.75,   324.73  " /><path style="stroke-width:0.85 ;&st7;  " d=" M  7426.56,   289.73  L  7426.29,   290.20  L  7426.20,   290.74  L  7426.29,   291.27  L  7426.56,   291.74  L  7426.98,   292.09  L  7427.49,   292.27  L  7428.02,   292.27  L  7428.53,   292.09  L  7428.95,   291.74  L  7429.22,   291.27  L  7429.31,   290.74  L  7429.22,   290.20  L  7428.95,   289.73  L  7428.53,   289.39  L  7428.02,   289.20  L  7427.49,   289.20  L  7426.98,   289.39  L  7426.56,   289.73  L  7426.96,   290.45  L  7426.96,   291.03  L  7427.33,   291.47  L  7427.90,   291.57  L  7428.41,   291.28  L  7428.61,   290.74  L  7428.41,   290.19  L  7427.90,   289.90  L  7427.33,   290.00  L  7427.76,   290.74  " /><path style="stroke-width:0.85 ;&st7;  " d=" M  7426.56,   323.73  L  7426.29,   324.20  L  7426.20,   324.73  L  7426.29,   325.26  L  7426.56,   325.73  L  7426.98,   326.08  L  7427.49,   326.27  L  7428.02,   326.27  L  7428.53,   326.08  L  7428.95,   325.73  L  7429.22,   325.26  L  7429.31,   324.73  L  7429.22,   324.20  L  7428.95,   323.73  L  7428.53,   323.38  L  7428.02,   323.20  L  7427.49,   323.20  L  7426.98,   323.38  L  7426.56,   323.73  L  7426.96,   324.44  L  7426.96,   325.02  L  7427.33,   325.47  L  7427.90,   325.57  L  7428.41,   325.28  L  7428.61,   324.73  L  7428.41,   324.18  L  7427.90,   323.90  L  7427.33,   323.99  L  7427.76,   324.73  " /><path style="stroke-width:0.85 ;&st7;  " d=" M  7401.07,   323.73  L  7400.80,   324.20  L  7400.70,   324.73  L  7400.80,   325.26  L  7401.07,   325.73  L  7401.48,   326.08  L  7401.99,   326.27  L  7402.53,   326.27  L  7403.04,   326.08  L  7403.45,   325.73  L  7403.72,   325.26  L  7403.82,   324.73  L  7403.72,   324.20  L  7403.45,   323.73  L  7403.04,   323.38  L  7402.53,   323.20  L  7401.99,   323.20  L  7401.48,   323.38  L  7401.07,   323.73  L  7401.46,   324.44  L  7401.46,   325.02  L  7401.84,   325.47  L  7402.41,   325.57  L  7402.91,   325.28  L  7403.11,   324.73  L  7402.91,   324.18  L  7402.41,   323.90  L  7401.84,   323.99  L  7402.26,   324.73  " /><path style="stroke-width:0.85 ;&st7;  " d=" M  7401.07,   289.73  L  7400.80,   290.20  L  7400.70,   290.74  L  7400.80,   291.27  L  7401.07,   291.74  L  7401.48,   292.09  L  7401.99,   292.27  L  7402.53,   292.27  L  7403.04,   292.09  L  7403.45,   291.74  L  7403.72,   291.27  L  7403.82,   290.74  L  7403.72,   290.20  L  7403.45,   289.73  L  7403.04,   289.39  L  7402.53,   289.20  L  7401.99,   289.20  L  7401.48,   289.39  L  7401.07,   289.73  L  7401.46,   290.45  L  7401.46,   291.03  L  7401.84,   291.47  L  7402.41,   291.57  L  7402.91,   291.28  L  7403.11,   290.74  L  7402.91,   290.19  L  7402.41,   289.90  L  7401.84,   290.00  L  7402.26,   290.74  " /><text style="&st18;" transform="matrix(&st17;  7464.87  311.88 )" ewd:textID="26">Check <tspan x="0 " dy="6.0">Engine</tspan></text><text style="&st18;" transform="matrix(&st16;  7921.53  298.38 )" ewd:textID="49">Meter Micro <tspan x="0 " dy="6.0">Computer</tspan></text><text style="&st18;" transform="matrix(&st17;  7394.6  315.22 )" ewd:textID="87">Sub Tank</text><text style="&st18;" transform="matrix(&st16;  7404.85  380.53 )">IND</text><text style="&st18;" transform="matrix(&st16;  7481.33  380.53 )">CHK</text><text style="&st18;" transform="matrix(&st16;  7532.33  256.44 )">B</text><text style="&st18;" transform="matrix(&st16;  7719.29  256.44 )">B</text><text style="&st18;" transform="matrix(&st16;  8214.47  380.52 )">ES</text><path style="stroke-width:0.85 ;&st7;  " d=" M  8099.15,   333.23  L  8090.65,   327.56  " /><path style="stroke-width:0.85 ;&st7;  " d=" M  7971.67,   341.73  L  7963.17,   336.06  " /><path style="stroke-width:1.42 ;&st7;  " d=" M  7963.17,   324.73  L  7963.17,   341.73  " /><path style="stroke-width:1.42 ;&st7;  " d=" M  8090.65,   316.23  L  8090.65,   333.23  " /><path style="stroke-width:0.85 ;&st7;  " d=" M  7971.66,   341.73  L  7969.53,   338.54  L  7967.91,   340.99  L  7971.66,   341.73  L  7970.43,   340.91  L  7969.53,   339.56  L  7968.85,   340.59  L  7970.43,   340.91  L  7969.82,   340.50  L  7969.53,   340.07  L  7969.32,   340.40  L  7969.82,   340.50  " /><path style="stroke-width:0.85 ;&st7;  " d=" M  7971.66,   324.73  L  7963.17,   330.40  " /><path style="stroke-width:0.85 ;&st7;  " d=" M  7937.67,   333.23  L  7963.17,   333.23  " /><path style="stroke-width:0.85 ;&st7;  " d=" M  7937.67,   367.22  L  7937.67,   358.73  L  7934.84,   357.31  L  7940.50,   354.48  L  7934.84,   351.64  L  7940.50,   348.81  L  7934.84,   345.98  L  7940.50,   343.14  L  7937.67,   341.73  L  7937.67,   333.23  " /><path style="stroke-width:0.85 ;&st7;  " d=" M  8063.96,   323.73  L  8063.68,   324.20  L  8063.59,   324.73  L  8063.68,   325.26  L  8063.96,   325.73  L  8064.37,   326.08  L  8064.88,   326.27  L  8065.42,   326.27  L  8065.93,   326.08  L  8066.34,   325.73  L  8066.61,   325.26  L  8066.71,   324.73  L  8066.61,   324.20  L  8066.34,   323.73  L  8065.93,   323.38  L  8065.42,   323.20  L  8064.88,   323.20  L  8064.37,   323.38  L  8063.96,   323.73  L  8064.35,   324.44  L  8064.35,   325.02  L  8064.72,   325.47  L  8065.30,   325.57  L  8065.80,   325.28  L  8066.00,   324.73  L  8065.80,   324.18  L  8065.30,   323.90  L  8064.72,   323.99  L  8065.15,   324.73  " /><path style="stroke-width:0.85 ;&st7;  " d=" M  8063.96,   315.23  L  8063.68,   315.70  L  8063.59,   316.23  L  8063.68,   316.77  L  8063.96,   317.24  L  8064.37,   317.58  L  8064.88,   317.77  L  8065.42,   317.77  L  8065.93,   317.58  L  8066.34,   317.24  L  8066.61,   316.77  L  8066.71,   316.23  L  8066.61,   315.70  L  8066.34,   315.23  L  8065.93,   314.88  L  8065.42,   314.70  L  8064.88,   314.70  L  8064.37,   314.88  L  8063.96,   315.23  L  8064.35,   315.94  L  8064.35,   316.52  L  8064.72,   316.97  L  8065.30,   317.07  L  8065.80,   316.78  L  8066.00,   316.23  L  8065.80,   315.69  L  8065.30,   315.40  L  8064.72,   315.50  L  8065.15,   316.23  " /><path style="stroke-width:0.85 ;&st7;  " d=" M  8133.14,   367.22  L  8133.14,   384.22  " /><path style="stroke-width:0.85 ;&st7;  " d=" M  8060.90,   316.23  L  8069.40,   316.23  " /><path style="stroke-width:0.85 ;&st7;  " d=" M  7937.67,   333.23  L  7937.67,   307.73  " /><path style="stroke-width:0.85 ;&st7;  " d=" M  8065.15,   324.73  L  8065.15,   316.23  " /><path style="stroke-width:0.85 ;&st7;  " d=" M  7936.48,   332.23  L  7936.21,   332.70  L  7936.11,   333.23  L  7936.21,   333.76  L  7936.48,   334.23  L  7936.89,   334.58  L  7937.40,   334.77  L  7937.94,   334.77  L  7938.45,   334.58  L  7938.86,   334.23  L  7939.13,   333.76  L  7939.23,   333.23  L  7939.13,   332.70  L  7938.86,   332.23  L  7938.45,   331.88  L  7937.94,   331.69  L  7937.40,   331.69  L  7936.89,   331.88  L  7936.48,   332.23  L  7936.87,   332.94  L  7936.87,   333.52  L  7937.25,   333.97  L  7937.82,   334.07  L  7938.32,   333.78  L  7938.52,   333.23  L  7938.32,   332.68  L  7937.82,   332.39  L  7937.25,   332.49  L  7937.67,   333.23  " /><path style="stroke-width:0.85 ;&st7;  " d=" M  8099.14,   333.23  L  8099.14,   341.73  " /><path style="stroke-width:0.85 ;&st7;  " d=" M  7963.17,   350.23  L  7958.92,   358.73  " /><path style="stroke-width:0.85 ;&st7;  " d=" M  7980.16,   350.23  L  7975.91,   358.73  " /><path style="stroke-width:0.85 ;&st7;  " d=" M  7971.66,   350.23  L  7967.42,   358.73  " /><path style="stroke-width:0.85 ;&st7;  " d=" M  7963.17,   350.23  L  7980.16,   350.23  " /><path style="stroke-width:0.85 ;&st7;  " d=" M  7971.66,   341.73  L  7971.66,   350.23  " /><path style="stroke-width:0.85 ;&st7;  " d=" M  8090.64,   341.73  L  8107.64,   341.73  " /><path style="stroke-width:0.85 ;&st7;  " d=" M  8099.14,   316.23  L  8090.64,   321.90  " /><path style="stroke-width:0.85 ;&st7;  " d=" M  8099.14,   333.23  L  8097.01,   330.05  L  8095.38,   332.49  L  8099.14,   333.23  L  8097.91,   332.41  L  8097.01,   331.07  L  8096.32,   332.09  L  8097.91,   332.41  L  8097.30,   332.00  L  8097.01,   331.58  L  8096.79,   331.90  L  8097.30,   332.00  " /><path style="stroke-width:0.85 ;&st7;  " d=" M  7971.66,   324.73  L  8090.64,   324.73  " /><path style="stroke-width:0.85 ;&st7;  " d=" M  8099.14,   341.73  L  8094.89,   350.23  " /><path style="stroke-width:0.85 ;&st7;  " d=" M  8107.64,   341.73  L  8103.39,   350.23  " /><path style="stroke-width:0.85 ;&st7;  " d=" M  8133.14,   367.22  L  8133.14,   358.73  L  8130.30,   357.31  L  8135.97,   354.48  L  8130.30,   351.64  L  8135.97,   348.81  L  8130.30,   345.98  L  8135.97,   343.14  L  8133.14,   341.73  L  8133.14,   333.23  " /><path style="stroke-width:0.85 ;&st7;  " d=" M  8090.64,   341.73  L  8086.40,   350.23  " /><path style="stroke-width:0.85 ;&st7;  " d=" M  8099.14,   316.23  L  8133.14,   316.23  L  8133.14,   333.23  " /><path style="stroke-width:0.85 ;&st7;  " d=" M  7937.67,   367.22  L  7937.67,   384.22  " /><path style="stroke-width:0.85 ;&st7;  " d=" M  8031.15,   367.22  L  8031.15,   384.22  " /><path style="stroke-width:1.42 ;&st7;  " d=" M  8009.91,   350.23  L  8009.91,   367.22  L  8052.40,   367.22  L  8052.40,   350.23  L  8009.91,   350.23  " /><text style="&st18;" transform="matrix(&st16;  8060.25  312.54 )">IG2</text><text style="&st18;" transform="matrix(&st16;  7940.26  380.53 )">SI</text><text style="&st18;" transform="matrix(&st16;  8033.74  380.53 )">IG+</text><text style="&st18;" transform="matrix(&st16;  8025.75  360.69 )">12V</text><text style="&st18;" transform="matrix(&st16;  8135.72  380.53 )">+S</text><text style="&st18;" transform="matrix(&st16;  7390.47  390.72 )">11</text><path style="stroke-width:1.42 ;&st7;   " d=" M  7406.80,   388.75  C  7406.80    386.25   7404.77    384.22   7402.26    384.22  " /><path style="stroke-width:1.42 ;&st7;   " d=" M  7402.26,   384.22  C  7399.76    384.22   7397.73    386.25   7397.73    388.75  " /><path style="stroke-width:1.42 ;&st7;   " d=" M  7397.73,   388.75  C  7397.73    391.26   7399.76    393.29   7402.26    393.29  " /><path style="stroke-width:1.42 ;&st7;   " d=" M  7402.26,   393.29  C  7404.77    393.29   7406.80    391.26   7406.80    388.75  " /><text style="&st18;" transform="matrix(&st16;  7400.08  390.72 )">B</text><text style="&st18;" transform="matrix(&st16;  7466.95  390.72 )">21</text><path style="stroke-width:1.42 ;&st7;   " d=" M  7483.28,   388.75  C  7483.28    386.25   7481.25    384.22   7478.75    384.22  " /><path style="stroke-width:1.42 ;&st7;   " d=" M  7478.75,   384.22  C  7476.25    384.22   7474.22    386.25   7474.22    388.75  " /><path style="stroke-width:1.42 ;&st7;   " d=" M  7474.22,   388.75  C  7474.22    391.26   7476.25    393.29   7478.75    393.29  " /><path style="stroke-width:1.42 ;&st7;   " d=" M  7478.75,   393.29  C  7481.25    393.29   7483.28    391.26   7483.28    388.75  " /><text style="&st18;" transform="matrix(&st16;  7476.56  390.72 )">B</text><text style="&st18;" transform="matrix(&st16;  7517.95  245.68 )">28</text><text style="&st18;" transform="matrix(&st16;  7527.44  245.68 )">A</text><path style="stroke-width:1.42 ;&st7;   " d=" M  7534.27,   243.71  C  7534.27    241.21   7532.25    239.18   7529.74    239.18  " /><path style="stroke-width:1.42 ;&st7;   " d=" M  7529.74,   239.18  C  7527.24    239.18   7525.21    241.21   7525.21    243.71  " /><path style="stroke-width:1.42 ;&st7;   " d=" M  7525.21,   243.71  C  7525.21    246.21   7527.24    248.24   7529.74    248.24  " /><path style="stroke-width:1.42 ;&st7;   " d=" M  7529.74,   248.24  C  7532.25    248.24   7534.27    246.21   7534.27    243.71  " /><text style="&st18;" transform="matrix(&st16;  7704.91  245.68 )">26</text><text style="&st18;" transform="matrix(&st16;  7714.41  245.68 )">A</text><path style="stroke-width:1.42 ;&st7;   " d=" M  7721.24,   243.71  C  7721.24    241.21   7719.21    239.18   7716.71    239.18  " /><path style="stroke-width:1.42 ;&st7;   " d=" M  7716.71,   239.18  C  7714.21    239.18   7712.18    241.21   7712.18    243.71  " /><path style="stroke-width:1.42 ;&st7;   " d=" M  7712.18,   243.71  C  7712.18    246.21   7714.21    248.24   7716.71    248.24  " /><path style="stroke-width:1.42 ;&st7;   " d=" M  7716.71,   248.24  C  7719.21    248.24   7721.24    246.21   7721.24    243.71  " /><text style="&st18;" transform="matrix(&st16;  7928.98  390.72 )">9</text><text style="&st18;" transform="matrix(&st16;  7935.37  390.72 )">A</text><path style="stroke-width:1.42 ;&st7;   " d=" M  7942.21,   388.75  C  7942.21    386.25   7940.18    384.22   7937.67    384.22  " /><path style="stroke-width:1.42 ;&st7;   " d=" M  7937.67,   384.22  C  7935.17    384.22   7933.14    386.25   7933.14    388.75  " /><path style="stroke-width:1.42 ;&st7;   " d=" M  7933.14,   388.75  C  7933.14    391.26   7935.17    393.29   7937.67    393.29  " /><path style="stroke-width:1.42 ;&st7;   " d=" M  7937.67,   393.29  C  7940.18    393.29   7942.21    391.26   7942.21    388.75  " /><text style="&st18;" transform="matrix(&st16;  8019.36  390.72 )">13</text><path style="stroke-width:1.42 ;&st7;   " d=" M  8035.69,   388.75  C  8035.69    386.25   8033.66    384.22   8031.16    384.22  " /><path style="stroke-width:1.42 ;&st7;   " d=" M  8031.16,   384.22  C  8028.65    384.22   8026.63    386.25   8026.63    388.75  " /><path style="stroke-width:1.42 ;&st7;   " d=" M  8026.63,   388.75  C  8026.63    391.26   8028.65    393.29   8031.16    393.29  " /><path style="stroke-width:1.42 ;&st7;   " d=" M  8031.16,   393.29  C  8033.66    393.29   8035.69    391.26   8035.69    388.75  " /><text style="&st18;" transform="matrix(&st16;  8028.85  390.72 )">A</text><text style="&st18;" transform="matrix(&st16;  8124.45  390.72 )">8</text><text style="&st18;" transform="matrix(&st16;  8130.84  390.72 )">A</text><path style="stroke-width:1.42 ;&st7;   " d=" M  8137.67,   388.75  C  8137.67    386.25   8135.64    384.22   8133.14    384.22  " /><path style="stroke-width:1.42 ;&st7;   " d=" M  8133.14,   384.22  C  8130.64    384.22   8128.61    386.25   8128.61    388.75  " /><path style="stroke-width:1.42 ;&st7;   " d=" M  8128.61,   388.75  C  8128.61    391.26   8130.64    393.29   8133.14    393.29  " /><path style="stroke-width:1.42 ;&st7;   " d=" M  8133.14,   393.29  C  8135.64    393.29   8137.67    391.26   8137.67    388.75  " /><text style="&st18;" transform="matrix(&st16;  8206.33  390.72 )">15</text><path style="stroke-width:1.42 ;&st7;   " d=" M  8222.66,   388.75  C  8222.66    386.25   8220.63    384.22   8218.13    384.22  " /><path style="stroke-width:1.42 ;&st7;   " d=" M  8218.13,   384.22  C  8215.62    384.22   8213.59    386.25   8213.59    388.75  " /><path style="stroke-width:1.42 ;&st7;   " d=" M  8213.59,   388.75  C  8213.59    391.26   8215.62    393.29   8218.13    393.29  " /><path style="stroke-width:1.42 ;&st7;   " d=" M  8218.13,   393.29  C  8220.63    393.29   8222.66    391.26   8222.66    388.75  " /><text style="&st18;" transform="matrix(&st16;  8215.82  390.72 )">A</text><g ewd:figtype="title"><text style="&st18;" transform="matrix(&st16;  7619.82  398.94 )" ewd:textID="27">Combination Meter Assembly</text><text style="&st18;" transform="matrix(&st16;  7619.81  392.11 )">L25(A),L26(B)</text></g></g><g ewd:figtype="conn" ewd:figID="79" ewd:code="A20"><path style="stroke-width:1.42 ;&st7;  " d=" M  7121.81,    86.77  L  7121.81,   129.26  L  7206.79,   129.26  L  7206.79,    86.77  L  7121.81,    86.77  " /><g ewd:lineID="320,324"><text style="&st18;" transform="matrix(&st16;  7129.52  137.46 )">14</text><text style="&st18;" transform="matrix(&st16;  7130.45  125.57 )">CANL</text></g><g ewd:lineID="322,327"><text style="&st18;" transform="matrix(&st16;  7180.51  137.46 )">25</text><text style="&st18;" transform="matrix(&st16;  7181.02  125.57 )">CANH</text></g><g ewd:lineID="325"><text style="&st18;" transform="matrix(&st16;  7129.52  83.08 )">22</text><text style="&st18;" transform="matrix(&st16;  7133.71  94.41 )">SP1</text></g><g ewd:figtype="title"><text style="&st18;" transform="matrix(&st17;  7105.34  132.16 )">A20</text><text style="&st18;" transform="matrix(&st17;  7112.17  132.17 )" ewd:textID="21">Brake Actuator <tspan x="0 " dy="6.0">Assembly</tspan></text></g></g><g ewd:figtype="w2w" ewd:figID="188" ewd:code="AI3"><text style="&st18;" transform="matrix(&st16;  7012.59  305.45 )">54</text><path style="stroke-width:1.42 ;&st7;  " d=" M  7032.57,   313.40  L  7028.32,   309.15  L  7024.07,   313.40  " /><path style="stroke-width:1.42 ;&st7;  " d=" M  7032.57,   316.80  L  7028.32,   312.55  L  7024.07,   316.80  " /></g><g ewd:figtype="w2w" ewd:figID="189" ewd:code="AI3"><text style="&st18;" transform="matrix(&st16;  7055.08  305.45 )">53</text><path style="stroke-width:1.42 ;&st7;  " d=" M  7075.06,   313.40  L  7070.82,   309.15  L  7066.57,   313.40  " /><path style="stroke-width:1.42 ;&st7;  " d=" M  7075.06,   316.80  L  7070.82,   312.55  L  7066.57,   316.80  " /></g><g ewd:figtype="w2w" ewd:figID="190" ewd:code="IA2"><text style="&st18;" transform="matrix(&st16;  7126.18  381.94 )">6</text><path style="stroke-width:1.42 ;&st7;  " d=" M  7143.05,   370.06  L  7138.80,   374.31  L  7134.55,   370.06  " /><path style="stroke-width:1.42 ;&st7;  " d=" M  7134.55,   366.66  L  7138.80,   370.91  L  7143.05,   366.66  " /></g><g ewd:figtype="w2w" ewd:figID="191" ewd:code="IA2"><text style="&st18;" transform="matrix(&st16;  7177.17  381.94 )">2</text><path style="stroke-width:1.42 ;&st7;  " d=" M  7194.04,   370.06  L  7189.80,   374.31  L  7185.55,   370.06  " /><path style="stroke-width:1.42 ;&st7;  " d=" M  7185.55,   366.66  L  7189.80,   370.91  L  7194.04,   366.66  " /></g><g ewd:figtype="w2w" ewd:figID="192" ewd:code="AI3"><text style="&st18;" transform="matrix(&st16;  7293.05  211.97 )">21</text><path style="stroke-width:1.42 ;&st7;  " d=" M  7313.03,   223.31  L  7308.78,   219.07  L  7304.53,   223.31  " /><path style="stroke-width:1.42 ;&st7;  " d=" M  7313.03,   219.92  L  7308.78,   215.67  L  7304.53,   219.92  " /><g ewd:code="" ewd:figID="389" ewd:comment="" ewd:figtype="commref"><text style="&st18;" transform="matrix(&st16;  7317.81  211.97 )">(RHD)</text></g></g><g ewd:figtype="w2w" ewd:figID="193" ewd:code="AI3"><text style="&st18;" transform="matrix(&st16;  7293.05  203.47 )">51</text><g ewd:code="" ewd:figID="384" ewd:comment="" ewd:figtype="commref"><text style="&st18;" transform="matrix(&st16;  7317.81  203.47 )">(LHD)</text></g></g></svg>