<?xml version="1.0" encoding="utf-8"?>
<!DOCTYPE svg PUBLIC "-//W3C//DTD SVG 1.0//EN" "http://www.w3.org/TR/2001/REC-SVG-20010904/DTD/svg10.dtd"[
	<!ENTITY ns_flows "http://ns.adobe.com/Flows/1.0/">
	<!ENTITY ns_svg "http://www.w3.org/2000/svg">
	<!ENTITY ns_xlink "http://www.w3.org/1999/xlink">
	<!ENTITY st0 "font-size:7px;font-family:'MS-PGothic';adobe-font-script:japanese;">
	<!ENTITY st1 "font-size:6px;font-family:'ArialMT';">
	<!-- White fill  -->
	<!ENTITY st2 "fill:#FFFFFF;stroke:#000000; stroke-width:1.41;stroke-linecap:round;stroke-linejoin:round;">
	<!-- Yellow fill  -->
	<!ENTITY st3 "fill:#FFFFCC;stroke:#FFFFCC; stroke-width:0.1;stroke-linecap:round;stroke-linejoin:round;">
	<!-- Gray fill  -->
	<!ENTITY st4 "fill:#CCCCCC;stroke:#CCCCCC; stroke-width:0.1;stroke-linecap:round;stroke-linejoin:round;">
	<!-- Light-blue fill -->
	<!ENTITY st5 "fill:#CCECF4;stroke:#000000; stroke-width:1.133;stroke-linecap:round;stroke-linejoin:round;">
	<!ENTITY st6 "fill:none;stroke-linecap:butt; stroke-linejoin:round;">
	<!ENTITY st7 "fill:none;stroke:#000000;stroke-linecap:round;stroke-linejoin:round;">
	<!ENTITY st8 "enable-background:new    ;">
	<!-- Black fill -->
	<!ENTITY st9 "fill:#000000;stroke:#000000; stroke-linecap:round;stroke-linejoin:round;">
	<!-- SRS note   -->
	<!ENTITY st10 "font-size:9px;font-family:'ArialMT';">
	<!ENTITY st11 "font-size:9px;font-family:'Svg Symbol';">
	<!ENTITY st12 "font-size:6px;font-family:'Svg Symbol';">
	<!ENTITY st13 "fill:none;stroke:#ff0000;stroke-linecap:round;stroke-linejoin:round;">
	<!-- Yellow fill  -->
	<!ENTITY st14 "fill:#FFFF00;stroke:#FFFF00; stroke-width:0.1;stroke-linecap:round;stroke-linejoin:round;">
	<!ENTITY st15 "font-size:6px;font-family:'MS-PGothic';adobe-font-script:japanese;">
	<!ENTITY st16 "1.00 0.00 0.00 1.00">
	<!ENTITY st17 "0.00 -1.00 1.00 0.00">
	<!ENTITY st18 "font-size:6px;font-family:'Arial';">
	<!ENTITY st19 "font-size:9px;font-family:'Arial';">
	<!ENTITY st20 "font-size:6px;font-family:'MS-PGothic','MS PGothic';adobe-font-script:japanese;">
	<!ENTITY st21 "font-size:7px;font-family:'MS-PGothic','MS PGothic';adobe-font-script:japanese;">
	<!ATTLIST svg
		xmlns:ewd CDATA #FIXED "http://shcl.co.jp/ewd"
		xmlns:a CDATA #FIXED "http://ns.adobe.com/AdobeSVGViewerExtensions/3.0/"
		ewd:ver CDATA #IMPLIED
	>
	<!ATTLIST a
		ewd:lineID CDATA #IMPLIED
		ewd:groupID CDATA #IMPLIED
		ewd:figtype CDATA #IMPLIED
		ewd:code CDATA #IMPLIED
		ewd:figID CDATA #IMPLIED
		ewd:pinNo CDATA #IMPLIED
		ewd:comment CDATA #IMPLIED >
	<!ATTLIST g
		ewd:lineID CDATA #IMPLIED
		ewd:groupID CDATA #IMPLIED
		ewd:figtype CDATA #IMPLIED
		ewd:code CDATA #IMPLIED
		ewd:figID CDATA #IMPLIED
		ewd:pinNo CDATA #IMPLIED
		ewd:comment CDATA #IMPLIED >
	<!ATTLIST text
		ewd:textID CDATA #IMPLIED >
	<!ATTLIST title
		ewd:textID CDATA #IMPLIED >
]>
<!-- Generator: Shintec Hozumi YS   -->
<svg onload="call_execInitLoadProc_svg('system')" style="overflow:visible;  enable-background:new 0 0 6214.333 710.000" viewBox="0 0 6214.333 710.000" height="710.000" width="6214.333" xml:space="preserve" ewd:ver="2.1.2.9" xmlns="&ns_svg;" xmlns:a="http://ns.adobe.com/AdobeSVGViewerExtensions/3.0/" xmlns:ewd="http://shcl.co.jp/ewd" xmlns:xlink="&ns_xlink;">
<path style="stroke-width:1.42 ;&st7;  " d=" M  2745.04,   333.23  L  2736.54,   333.23  " /><path style="stroke-width:1.42 ;&st7;  " d=" M  2728.04,   375.72  L  2736.54,   375.72  " /><path style="stroke-width:1.42 ;&st7;  " d=" M  2915.01,   384.22  L  2906.51,   384.22  " /><path style="stroke-width:1.42 ;&st7;  " d=" M  2541.08,   333.23  L  2549.57,   333.23  " /><path style="stroke-width:1.42 ;&st7;  " d=" M  2558.07,   452.21  L  2549.57,   452.21  " /><text style="&st18;" transform="matrix(&st17;  2732.85  316.97 )">L-R</text><text style="&st18;" transform="matrix(&st17;  2732.85  487.91 )">W-B</text><text style="&st18;" transform="matrix(&st17;  2732.85  551.65 )">W-B</text><text style="&st18;" transform="matrix(&st17;  2732.85  410.45 )">L-R</text><text style="&st18;" transform="matrix(&st17;  2732.85  359.46 )">L-R</text><text style="&st18;" transform="matrix(&st16;  2809.62  271.46 )">ECM</text><text style="&st18;" transform="matrix(&st17;  2809.33  118.14 )">W-R</text><text style="&st18;" transform="matrix(&st17;  2843.33  117.25 )">L-R</text><text style="&st18;" transform="matrix(&st17;  2843.33  211.59 )">L-W</text><text style="&st18;" transform="matrix(&st17;  2970.81  117.25 )">L-R</text><text style="&st18;" transform="matrix(&st17;  2928.31  211.63 )">W-R</text><text style="&st18;" transform="matrix(&st17;  2894.32  210.74 )">L-R</text><text style="&st18;" transform="matrix(&st17;  2545.88  317.36 )">G-R</text><text style="&st18;" transform="matrix(&st17;  2545.88  432.65 )">Y</text><text style="&st18;" transform="matrix(&st17;  2902.82  355.21 )">R-L</text><text style="&st18;" transform="matrix(&st17;  2902.82  420.68 )">W</text><text style="&st18;" transform="matrix(&st17;  2945.31  483.66 )">W-B</text><text style="&st18;" transform="matrix(&st16;  2809.62  264.64 )">A29(A),C39(B)</text><text style="&st18;" transform="matrix(&st17;  2545.88  359.85 )">G-R</text><text style="&st18;" transform="matrix(&st17;  2681.86  551.65 )">W-B</text><text style="&st18;" transform="matrix(&st16;  2614.6  660.98 )">W</text><text style="&st18;" transform="matrix(&st16;  2614.6  643.98 )">W</text><text style="&st18;" transform="matrix(&st16;  2563.61  660.98 )">W</text><text style="&st18;" transform="matrix(&st16;  2563.61  643.98 )">W</text><text style="&st18;" transform="matrix(&st17;  2741.35  210.74 )">L-R</text><text style="&st18;" transform="matrix(&st17;  2673.36  209.3 )">BR</text><text style="&st18;" transform="matrix(&st17;  2707.35  207.44 )">B</text><path style="stroke-width:1.42 ;&st7;  " d=" M  2957.51,   431.69  L  2952.53,   426.71  " /><path style="stroke-width:1.42 ;&st7;  " d=" M  2940.51,   438.74  L  2945.48,   443.71  " /><path style="stroke-width:1.42 ;&st7;  " d=" M  2952.53,   443.71  L  2957.51,   438.74  " /><path style="stroke-width:1.42 ;&st7;  " d=" M  2945.48,   426.71  L  2940.51,   431.69  " /><path style="stroke-width:1.42 ;&st7;  " d=" M  2940.51,    57.75  L  2935.54,    52.78  " /><path style="stroke-width:1.42 ;&st7;  " d=" M  2923.51,    64.80  L  2928.48,    69.77  " /><path style="stroke-width:1.42 ;&st7;  " d=" M  2935.54,    69.77  L  2940.51,    64.80  " /><path style="stroke-width:1.42 ;&st7;  " d=" M  2928.48,    52.78  L  2923.51,    57.75  " /><path style="stroke-width:1.42 ;&st7;  " d=" M  2894.49,    78.27  L  2889.52,    83.24  " /><path style="stroke-width:1.42 ;&st7;  " d=" M  2901.54,    95.27  L  2906.51,    90.30  " /><path style="stroke-width:1.42 ;&st7;  " d=" M  2889.52,    90.30  L  2894.49,    95.27  " /><path style="stroke-width:1.42 ;&st7;  " d=" M  2906.51,    83.24  L  2901.54,    78.27  " /><g ewd:figtype="conn" ewd:figID="28" ewd:code="r3"><path style="stroke-width:1.42 ;&st7;  " d=" M  2532.58,   375.72  L  2532.58,   409.72  L  2566.57,   409.72  L  2566.57,   375.72  L  2532.58,   375.72  " /><g ewd:lineID="111"><text style="&st18;" transform="matrix(&st16;  2543.39  417.91 )">1</text><text style="&st18;" transform="matrix(&st16;  2545.91  406.02 )">E2</text></g><g ewd:lineID="112"><text style="&st18;" transform="matrix(&st16;  2543.39  372.03 )">2</text><text style="&st18;" transform="matrix(&st16;  2543.28  383.36 )">THF</text></g><g ewd:figtype="title"><text style="&st18;" transform="matrix(&st17;  2574.47  412.62 )">r3</text><text style="&st18;" transform="matrix(&st17;  2581.29  412.62 )" ewd:textID="28">Fuel Temperature Sensor</text></g></g><g ewd:figtype="conn" ewd:figID="33" ewd:code="C100"><path style="stroke-width:1.42 ;&st7;  " d=" M  2660.05,   171.76  L  2762.04,   171.76  L  2762.04,   137.76  L  2660.05,   137.76  L  2660.05,   171.76  " /><g ewd:lineID="114"><text style="&st18;" transform="matrix(&st16;  2670.87  179.95 )">1</text><text style="&st18;" transform="matrix(&st16;  2673.39  168.06 )">E2</text></g><g ewd:lineID="115"><text style="&st18;" transform="matrix(&st16;  2704.86  179.95 )">2</text><text style="&st18;" transform="matrix(&st16;  2707.19  168.06 )">PR</text></g><g ewd:lineID="122"><text style="&st18;" transform="matrix(&st16;  2738.86  179.95 )">3</text><text style="&st18;" transform="matrix(&st16;  2740.57  168.06 )">VC</text></g><g ewd:figtype="title"><text style="&st18;" transform="matrix(&st16;  2656.64  127.24 )">C100</text><text style="&st18;" transform="matrix(&st16;  2656.65  134.07 )" ewd:textID="27">Fuel Pressure Sensor</text></g></g><g ewd:figtype="conn" ewd:figID="52" ewd:code="A29,C39"><g ewd:lineID="113"><text style="&st18;" transform="matrix(&st16;  2534.68  297.24 )">116</text><text style="&st18;" transform="matrix(&st16;  2547.39  297.24 )">B</text><path style="stroke-width:1.42 ;&st7;   " d=" M  2554.11,   295.27  C  2554.11    292.77   2552.08    290.74   2549.57    290.74  " /><path style="stroke-width:1.42 ;&st7;   " d=" M  2549.57,   290.74  C  2547.07    290.74   2545.04    292.77   2545.04    295.27  " /><path style="stroke-width:1.42 ;&st7;   " d=" M  2545.04,   295.27  C  2545.04    297.77   2547.07    299.80   2549.57    299.80  " /><path style="stroke-width:1.42 ;&st7;   " d=" M  2549.57,   299.80  C  2552.08    299.80   2554.11    297.77   2554.11    295.27  " /><text style="&st18;" transform="matrix(&st16;  2543.28  287.04 )">THF</text></g><g ewd:lineID="114"><text style="&st18;" transform="matrix(&st16;  2665.26  237.18 )">95</text><path style="stroke-width:1.42 ;&st7;   " d=" M  2681.59,   235.21  C  2681.59    232.71   2679.56    230.68   2677.05    230.68  " /><path style="stroke-width:1.42 ;&st7;   " d=" M  2677.05,   230.68  C  2674.55    230.68   2672.52    232.71   2672.52    235.21  " /><path style="stroke-width:1.42 ;&st7;   " d=" M  2672.52,   235.21  C  2672.52    237.72   2674.55    239.75   2677.05    239.75  " /><path style="stroke-width:1.42 ;&st7;   " d=" M  2677.05,   239.75  C  2679.56    239.75   2681.59    237.72   2681.59    235.21  " /><text style="&st18;" transform="matrix(&st16;  2674.86  237.18 )">B</text><text style="&st18;" transform="matrix(&st16;  2670.91  247.38 )">E2M</text></g><g ewd:lineID="115"><text style="&st18;" transform="matrix(&st16;  2699.25  237.18 )">72</text><path style="stroke-width:1.42 ;&st7;   " d=" M  2715.58,   235.21  C  2715.58    232.71   2713.55    230.68   2711.05    230.68  " /><path style="stroke-width:1.42 ;&st7;   " d=" M  2711.05,   230.68  C  2708.54    230.68   2706.51    232.71   2706.51    235.21  " /><path style="stroke-width:1.42 ;&st7;   " d=" M  2706.51,   235.21  C  2706.51    237.72   2708.54    239.75   2711.05    239.75  " /><path style="stroke-width:1.42 ;&st7;   " d=" M  2711.05,   239.75  C  2713.55    239.75   2715.58    237.72   2715.58    235.21  " /><text style="&st18;" transform="matrix(&st16;  2708.86  237.18 )">B</text><text style="&st18;" transform="matrix(&st16;  2703.47  247.38 )">PCR1</text></g><g ewd:lineID="121"><text style="&st18;" transform="matrix(&st16;  2724.75  297.24 )">14</text><text style="&st18;" transform="matrix(&st16;  2734.24  297.24 )">A</text><path style="stroke-width:1.42 ;&st7;   " d=" M  2741.08,   295.27  C  2741.08    292.77   2739.05    290.74   2736.54    290.74  " /><path style="stroke-width:1.42 ;&st7;   " d=" M  2736.54,   290.74  C  2734.04    290.74   2732.01    292.77   2732.01    295.27  " /><path style="stroke-width:1.42 ;&st7;   " d=" M  2732.01,   295.27  C  2732.01    297.77   2734.04    299.80   2736.54    299.80  " /><path style="stroke-width:1.42 ;&st7;   " d=" M  2736.54,   299.80  C  2739.05    299.80   2741.08    297.77   2741.08    295.27  " /><text style="&st18;" transform="matrix(&st16;  2729.0  287.04 )">IUSW</text></g><g ewd:lineID="122"><text style="&st18;" transform="matrix(&st16;  2730.14  237.18 )">118</text><path style="stroke-width:1.42 ;&st7;   " d=" M  2749.57,   235.21  C  2749.57    232.71   2747.54    230.68   2745.04    230.68  " /><path style="stroke-width:1.42 ;&st7;   " d=" M  2745.04,   230.68  C  2742.54    230.68   2740.51    232.71   2740.51    235.21  " /><path style="stroke-width:1.42 ;&st7;   " d=" M  2740.51,   235.21  C  2740.51    237.72   2742.54    239.75   2745.04    239.75  " /><path style="stroke-width:1.42 ;&st7;   " d=" M  2745.04,   239.75  C  2747.54    239.75   2749.57    237.72   2749.57    235.21  " /><text style="&st18;" transform="matrix(&st16;  2742.85  237.18 )">B</text><text style="&st18;" transform="matrix(&st16;  2738.08  247.38 )">VCM</text></g><g ewd:lineID="123"><text style="&st18;" transform="matrix(&st16;  2835.23  237.18 )">64</text><text style="&st18;" transform="matrix(&st16;  2844.84  237.18 )">B</text><path style="stroke-width:1.42 ;&st7;   " d=" M  2851.56,   235.21  C  2851.56    232.71   2849.53    230.68   2847.02    230.68  " /><path style="stroke-width:1.42 ;&st7;   " d=" M  2847.02,   230.68  C  2844.52    230.68   2842.49    232.71   2842.49    235.21  " /><path style="stroke-width:1.42 ;&st7;   " d=" M  2842.49,   235.21  C  2842.49    237.72   2844.52    239.75   2847.02    239.75  " /><path style="stroke-width:1.42 ;&st7;   " d=" M  2847.02,   239.75  C  2849.53    239.75   2851.56    237.72   2851.56    235.21  " /><text style="&st18;" transform="matrix(&st16;  2840.76  247.38 )">VLU</text></g><g ewd:lineID="125"><text style="&st18;" transform="matrix(&st16;  2883.12  237.18 )">110</text><path style="stroke-width:1.42 ;&st7;   " d=" M  2902.55,   235.21  C  2902.55    232.71   2900.52    230.68   2898.02    230.68  " /><path style="stroke-width:1.42 ;&st7;   " d=" M  2898.02,   230.68  C  2895.51    230.68   2893.48    232.71   2893.48    235.21  " /><path style="stroke-width:1.42 ;&st7;   " d=" M  2893.48,   235.21  C  2893.48    237.72   2895.51    239.75   2898.02    239.75  " /><path style="stroke-width:1.42 ;&st7;   " d=" M  2898.02,   239.75  C  2900.52    239.75   2902.55    237.72   2902.55    235.21  " /><text style="&st18;" transform="matrix(&st16;  2895.83  237.18 )">B</text><text style="&st18;" transform="matrix(&st16;  2889.66  247.38 )">VCVL</text></g><g ewd:lineID="127"><text style="&st18;" transform="matrix(&st16;  2920.21  237.18 )">87</text><path style="stroke-width:1.42 ;&st7;   " d=" M  2936.54,   235.21  C  2936.54    232.71   2934.51    230.68   2932.01    230.68  " /><path style="stroke-width:1.42 ;&st7;   " d=" M  2932.01,   230.68  C  2929.51    230.68   2927.48    232.71   2927.48    235.21  " /><path style="stroke-width:1.42 ;&st7;   " d=" M  2927.48,   235.21  C  2927.48    237.72   2929.51    239.75   2932.01    239.75  " /><path style="stroke-width:1.42 ;&st7;   " d=" M  2932.01,   239.75  C  2934.51    239.75   2936.54    237.72   2936.54    235.21  " /><text style="&st18;" transform="matrix(&st16;  2929.82  237.18 )">B</text><text style="&st18;" transform="matrix(&st16;  2923.89  247.38 )">EVLU</text></g><g ewd:lineID="130"><text style="&st18;" transform="matrix(&st16;  2996.7  237.18 )">65</text></g></g><g ewd:figtype="conn" ewd:figID="56" ewd:code="C65"><path style="stroke-width:1.42 ;&st7;  " d=" M  2957.50,   171.76  L  3025.49,   171.76  L  3025.49,   137.76  L  2957.50,   137.76  L  2957.50,   171.76  " /><g ewd:lineID="129"><text style="&st18;" transform="matrix(&st16;  2968.32  134.07 )">1</text><text style="&st18;" transform="matrix(&st16;  2970.03  145.4 )">VC</text></g></g><g ewd:figtype="conn" ewd:figID="66" ewd:code="C50"><path style="stroke-width:1.42 ;&st7;  " d=" M  2796.03,   171.76  L  2864.02,   171.76  L  2864.02,   137.76  L  2796.03,   137.76  L  2796.03,   171.76  " /><g ewd:lineID="123"><text style="&st18;" transform="matrix(&st16;  2840.84  179.95 )">3</text><text style="&st18;" transform="matrix(&st16;  2840.73  168.06 )">VTA</text></g><g ewd:lineID="124"><text style="&st18;" transform="matrix(&st16;  2840.84  134.07 )">1</text><text style="&st18;" transform="matrix(&st16;  2842.55  145.4 )">VC</text></g><g ewd:lineID="126"><text style="&st18;" transform="matrix(&st16;  2806.85  134.07 )">2</text><text style="&st18;" transform="matrix(&st16;  2809.37  145.4 )">E2</text></g><g ewd:figtype="title"><text style="&st18;" transform="matrix(&st17;  2871.92  174.66 )">C50</text><text style="&st18;" transform="matrix(&st17;  2878.74  174.66 )" ewd:textID="18">Diesel Throttle Body <tspan x="0 " dy="6.0">Assembly (Bank 1)</tspan></text></g></g><g ewd:figtype="conn" ewd:figID="84" ewd:code="L53"><path style="stroke-width:0.85 ;&st7;  " d=" M  2736.54,   503.20  L  2736.54,   520.20  " /><path style="stroke-width:1.42 ;&st7;  " d=" M  2728.04,   503.20  L  2745.04,   503.20  L  2745.04,   520.20  L  2728.04,   520.20  L  2728.04,   503.20  " /><path style="stroke-width:0.85 ;&st7;  " d=" M  2728.04,   511.70  L  2736.54,   511.70  " /><path style="stroke-width:0.85 ;&st7;  " d=" M  2735.35,   510.70  L  2735.08,   511.17  L  2734.98,   511.70  L  2735.08,   512.23  L  2735.35,   512.70  L  2735.76,   513.05  L  2736.27,   513.24  L  2736.81,   513.24  L  2737.32,   513.05  L  2737.73,   512.70  L  2738.01,   512.23  L  2738.10,   511.70  L  2738.01,   511.17  L  2737.73,   510.70  L  2737.32,   510.35  L  2736.81,   510.16  L  2736.27,   510.16  L  2735.76,   510.35  L  2735.35,   510.70  L  2735.74,   511.41  L  2735.74,   511.99  L  2736.12,   512.44  L  2736.69,   512.54  L  2737.19,   512.25  L  2737.39,   511.70  L  2737.19,   511.15  L  2736.69,   510.86  L  2736.12,   510.96  L  2736.54,   511.70  " /><text style="&st18;" transform="matrix(&st16;  2721.86  508.01 )">5</text><text style="&st18;" transform="matrix(&st16;  2730.36  528.39 )">4</text><text style="&st18;" transform="matrix(&st16;  2730.36  499.51 )">3</text><g ewd:figtype="title"><text style="&st18;" transform="matrix(&st17;  2752.94  523.1 )">L53</text><text style="&st18;" transform="matrix(&st17;  2759.76  523.1 )" ewd:textID="65">No. 31 <tspan x="0 " dy="6.0">Junction </tspan><tspan x="0 " dy="6.0">Connector</tspan></text></g></g><g ewd:figtype="conn" ewd:figID="92" ewd:code="L6"><path style="stroke-width:1.42 ;&st7;  " d=" M  2736.54,   453.63  L  2742.21,   430.96  " /><path style="stroke-width:0.85 ;&st7;  " d=" M  2736.54,   460.71  L  2736.54,   456.46  " /><path style="stroke-width:0.85 ;&st7;  " d=" M  2736.54,   430.96  L  2736.54,   426.71  " /><path style="stroke-width:0.85 ;&st7;   " d=" M  2737.96,   455.04  C  2737.96    454.26   2737.33    453.63   2736.54    453.63  " /><path style="stroke-width:0.85 ;&st7;   " d=" M  2736.54,   453.63  C  2735.76    453.63   2735.13    454.26   2735.13    455.04  " /><path style="stroke-width:0.85 ;&st7;   " d=" M  2735.13,   455.04  C  2735.13    455.82   2735.76    456.46   2736.54    456.46  " /><path style="stroke-width:0.85 ;&st7;   " d=" M  2736.54,   456.46  C  2737.33    456.46   2737.96    455.82   2737.96    455.04  " /><path style="stroke-width:0.85 ;&st7;   " d=" M  2737.96,   432.38  C  2737.96    431.60   2737.33    430.96   2736.54    430.96  " /><path style="stroke-width:0.85 ;&st7;   " d=" M  2736.54,   430.96  C  2735.76    430.96   2735.13    431.60   2735.13    432.38  " /><path style="stroke-width:0.85 ;&st7;   " d=" M  2735.13,   432.38  C  2735.13    433.16   2735.76    433.80   2736.54    433.80  " /><path style="stroke-width:0.85 ;&st7;   " d=" M  2736.54,   433.80  C  2737.33    433.80   2737.96    433.16   2737.96    432.38  " /><path style="stroke-width:1.42 ;&st7;  " d=" M  2745.04,   460.71  L  2745.04,   426.71  L  2728.04,   426.71  L  2728.04,   460.71  L  2745.04,   460.71  " /><text style="&st18;" transform="matrix(&st16;  2730.36  468.9 )">4</text><text style="&st18;" transform="matrix(&st16;  2730.36  423.02 )">3</text><g ewd:figtype="title"><text style="&st18;" transform="matrix(&st17;  2752.94  463.61 )">L6</text><text style="&st18;" transform="matrix(&st17;  2759.76  463.61 )" ewd:textID="35">Idle Up Switch</text></g></g><g ewd:figtype="w2w" ewd:figID="133" ewd:code="rC2"><path style="stroke-width:1.42 ;&st7;  " d=" M  2553.82,   461.27  L  2549.57,   457.03  L  2545.32,   461.27  " /><path style="stroke-width:1.42 ;&st7;  " d=" M  2553.82,   457.88  L  2549.57,   453.63  L  2545.32,   457.88  " /><text style="&st18;" transform="matrix(&st16;  2536.94  449.93 )">4</text></g><g ewd:figtype="w2w" ewd:figID="134" ewd:code="rC2"><path style="stroke-width:1.42 ;&st7;  " d=" M  2545.32,   324.16  L  2549.57,   328.41  L  2553.82,   324.16  " /><path style="stroke-width:1.42 ;&st7;  " d=" M  2553.82,   327.56  L  2549.57,   331.81  L  2545.32,   327.56  " /><text style="&st18;" transform="matrix(&st16;  2536.94  339.45 )">3</text></g><g ewd:figtype="w2w" ewd:figID="135" ewd:code="LI1"><path style="stroke-width:1.42 ;&st7;  " d=" M  2732.29,   366.66  L  2736.54,   370.91  L  2740.79,   366.66  " /><path style="stroke-width:1.42 ;&st7;  " d=" M  2740.79,   370.06  L  2736.54,   374.31  L  2732.29,   370.06  " /><text style="&st18;" transform="matrix(&st16;  2720.81  381.94 )">10</text></g><g ewd:figtype="w2w" ewd:figID="136" ewd:code="AI3"><path style="stroke-width:1.42 ;&st7;  " d=" M  2740.79,   338.90  L  2736.54,   334.65  L  2732.29,   338.90  " /><path style="stroke-width:1.42 ;&st7;  " d=" M  2740.79,   342.29  L  2736.54,   338.05  L  2732.29,   342.29  " /><text style="&st18;" transform="matrix(&st16;  2720.81  330.95 )">23</text></g><g ewd:figtype="w2w" ewd:figID="137" ewd:code="CA4"><path style="stroke-width:1.42 ;&st7;  " d=" M  2910.76,   389.89  L  2906.51,   385.64  L  2902.26,   389.89  " /><path style="stroke-width:1.42 ;&st7;  " d=" M  2910.76,   393.29  L  2906.51,   389.04  L  2902.26,   393.29  " /><text style="&st18;" transform="matrix(&st16;  2893.88  381.94 )">3</text></g><g ewd:figtype="gp" ewd:figID="182" ewd:code="LB"><path style="stroke-width:0.85 ;&st7;  " d=" M  2685.55,   697.25  L  2685.55,   701.50  " /><path style="stroke-width:0.85 ;&st7;  " d=" M  2677.05,   701.50  L  2694.05,   701.50  " /><path style="stroke-width:0.85 ;&st7;  " d=" M  2681.30,   704.33  L  2689.80,   704.33  " /><path style="stroke-width:0.85 ;&st7;  " d=" M  2682.72,   707.17  L  2688.38,   707.17  " /><path style="stroke-width:0.85 ;&st7;  " d=" M  2684.13,   710.00  L  2686.97,   710.00  " /></g><g ewd:figtype="gp" ewd:figID="183" ewd:code="LA"><path style="stroke-width:0.85 ;&st7;  " d=" M  2735.13,   710.00  L  2737.96,   710.00  " /><path style="stroke-width:0.85 ;&st7;  " d=" M  2733.71,   707.17  L  2739.37,   707.17  " /><path style="stroke-width:0.85 ;&st7;  " d=" M  2732.29,   704.33  L  2740.79,   704.33  " /><path style="stroke-width:0.85 ;&st7;  " d=" M  2728.04,   701.50  L  2745.04,   701.50  " /><path style="stroke-width:0.85 ;&st7;  " d=" M  2736.54,   697.25  L  2736.54,   701.50  " /></g><g ewd:figtype="gp" ewd:figID="184" ewd:code="AA"><path style="stroke-width:0.85 ;&st7;  " d=" M  2947.59,   710.00  L  2950.42,   710.00  " /><path style="stroke-width:0.85 ;&st7;  " d=" M  2946.17,   707.17  L  2951.84,   707.17  " /><path style="stroke-width:0.85 ;&st7;  " d=" M  2944.76,   704.33  L  2953.26,   704.33  " /><path style="stroke-width:0.85 ;&st7;  " d=" M  2940.51,   701.50  L  2957.50,   701.50  " /><path style="stroke-width:0.85 ;&st7;  " d=" M  2949.01,   697.25  L  2949.01,   701.50  " /></g><g ewd:code=" " ewd:figID="267" ewd:comment="1" ewd:figtype="sh"><path style="stroke-width: 0.85 ;&st7; stroke-dasharray:3, 1.5;" d=" M  2949.01,   426.71  L  2949.01,   401.22  L  2881.02,   401.22  L  2881.02,   435.21  L  2940.51,   435.21  " /><g ewd:code="" ewd:figID="280" ewd:comment="1" ewd:figtype="commref"><text style="&st18;" transform="matrix(&st17;  2877.32  422.93 )">(*1)</text></g></g><g ewd:code="1" ewd:figID="278" ewd:comment="" ewd:figtype="comment"><text style="&st18;" transform="matrix(&st16;  2682.15  37.75 )" ewd:textID="1">* 1 :Shielded</text></g></svg>