<?xml version="1.0" encoding="utf-8"?>
<!DOCTYPE svg PUBLIC "-//W3C//DTD SVG 1.0//EN" "http://www.w3.org/TR/2001/REC-SVG-20010904/DTD/svg10.dtd"[
	<!ENTITY ns_flows "http://ns.adobe.com/Flows/1.0/">
	<!ENTITY ns_svg "http://www.w3.org/2000/svg">
	<!ENTITY ns_xlink "http://www.w3.org/1999/xlink">
	<!ENTITY st0 "font-size:7px;font-family:'MS-PGothic';adobe-font-script:japanese;">
	<!ENTITY st1 "font-size:6px;font-family:'ArialMT';">
	<!-- White fill  -->
	<!ENTITY st2 "fill:#FFFFFF;stroke:#000000; stroke-width:1.41;stroke-linecap:round;stroke-linejoin:round;">
	<!-- Yellow fill  -->
	<!ENTITY st3 "fill:#FFFFCC;stroke:#FFFFCC; stroke-width:0.1;stroke-linecap:round;stroke-linejoin:round;">
	<!-- Gray fill  -->
	<!ENTITY st4 "fill:#CCCCCC;stroke:#CCCCCC; stroke-width:0.1;stroke-linecap:round;stroke-linejoin:round;">
	<!-- Light-blue fill -->
	<!ENTITY st5 "fill:#CCECF4;stroke:#000000; stroke-width:1.133;stroke-linecap:round;stroke-linejoin:round;">
	<!ENTITY st6 "fill:none;stroke-linecap:butt; stroke-linejoin:round;">
	<!ENTITY st7 "fill:none;stroke:#000000;stroke-linecap:round;stroke-linejoin:round;">
	<!ENTITY st8 "enable-background:new    ;">
	<!-- Black fill -->
	<!ENTITY st9 "fill:#000000;stroke:#000000; stroke-linecap:round;stroke-linejoin:round;">
	<!-- SRS note   -->
	<!ENTITY st10 "font-size:9px;font-family:'ArialMT';">
	<!ENTITY st11 "font-size:9px;font-family:'Svg Symbol';">
	<!ENTITY st12 "font-size:6px;font-family:'Svg Symbol';">
	<!ENTITY st13 "fill:none;stroke:#ff0000;stroke-linecap:round;stroke-linejoin:round;">
	<!-- Yellow fill  -->
	<!ENTITY st14 "fill:#FFFF00;stroke:#FFFF00; stroke-width:0.1;stroke-linecap:round;stroke-linejoin:round;">
	<!ENTITY st15 "font-size:6px;font-family:'MS-PGothic';adobe-font-script:japanese;">
	<!ENTITY st16 "1.00 0.00 0.00 1.00">
	<!ENTITY st17 "0.00 -1.00 1.00 0.00">
	<!ENTITY st18 "font-size:6px;font-family:'Arial';">
	<!ENTITY st19 "font-size:9px;font-family:'Arial';">
	<!ENTITY st20 "font-size:6px;font-family:'MS-PGothic','MS PGothic';adobe-font-script:japanese;">
	<!ENTITY st21 "font-size:7px;font-family:'MS-PGothic','MS PGothic';adobe-font-script:japanese;">
	<!ATTLIST svg
		xmlns:ewd CDATA #FIXED "http://shcl.co.jp/ewd"
		xmlns:a CDATA #FIXED "http://ns.adobe.com/AdobeSVGViewerExtensions/3.0/"
		ewd:ver CDATA #IMPLIED
	>
	<!ATTLIST a
		ewd:lineID CDATA #IMPLIED
		ewd:groupID CDATA #IMPLIED
		ewd:figtype CDATA #IMPLIED
		ewd:code CDATA #IMPLIED
		ewd:figID CDATA #IMPLIED
		ewd:pinNo CDATA #IMPLIED
		ewd:comment CDATA #IMPLIED >
	<!ATTLIST g
		ewd:lineID CDATA #IMPLIED
		ewd:groupID CDATA #IMPLIED
		ewd:figtype CDATA #IMPLIED
		ewd:code CDATA #IMPLIED
		ewd:figID CDATA #IMPLIED
		ewd:pinNo CDATA #IMPLIED
		ewd:comment CDATA #IMPLIED >
	<!ATTLIST text
		ewd:textID CDATA #IMPLIED >
	<!ATTLIST title
		ewd:textID CDATA #IMPLIED >
]>
<!-- Generator: Shintec Hozumi YS   -->
<svg onload="call_execInitLoadProc_svg('system')" style="overflow:visible;  enable-background:new 0 0 8273.908 710.000" viewBox="0 0 8273.908 710.000" height="710.000" width="8273.908" xml:space="preserve" ewd:ver="2.1.2.9" xmlns="&ns_svg;" xmlns:a="http://ns.adobe.com/AdobeSVGViewerExtensions/3.0/" xmlns:ewd="http://shcl.co.jp/ewd" xmlns:xlink="&ns_xlink;">
<path style="stroke-width:1.42 ;&st7;  " d=" M  2286.12,   112.27  L  2294.62,   112.27  " /><path style="stroke-width:1.42 ;&st7;  " d=" M  2192.63,   163.26  L  2201.13,   163.26  " /><path style="stroke-width:1.42 ;&st7;  " d=" M  2362.61,    57.75  L  2357.63,    52.78  " /><path style="stroke-width:1.42 ;&st7;  " d=" M  2350.58,    52.78  L  2345.61,    57.75  " /><path style="stroke-width:1.42 ;&st7;  " d=" M  2320.11,   409.72  L  2311.61,   409.72  " /><path style="stroke-width:1.42 ;&st7;  " d=" M  2362.61,   409.72  L  2354.11,   409.72  " /><path style="stroke-width:1.42 ;&st7;  " d=" M  2447.59,   418.22  L  2439.09,   418.22  " /><path style="stroke-width:1.42 ;&st7;  " d=" M  2490.08,   418.22  L  2481.59,   418.22  " /><path style="stroke-width:1.42 ;&st7;  " d=" M  2150.14,   503.20  L  2158.64,   503.20  " /><path style="stroke-width:1.42 ;&st7;  " d=" M  2218.13,   520.20  L  2209.63,   520.20  " /><path style="stroke-width:1.42 ;&st7;  " d=" M  2252.12,   460.71  L  2260.62,   460.71  " /><path style="stroke-width:1.42 ;&st7;  " d=" M  2277.62,   185.23  L  2272.65,   180.26  " /><path style="stroke-width:1.42 ;&st7;  " d=" M  2260.62,   192.28  L  2265.59,   197.25  " /><path style="stroke-width:1.42 ;&st7;  " d=" M  2272.65,   197.25  L  2277.62,   192.28  " /><path style="stroke-width:1.42 ;&st7;  " d=" M  2265.59,   180.26  L  2260.62,   185.23  " /><path style="stroke-width:1.42 ;&st7;  " d=" M  2345.61,    64.80  L  2350.58,    69.77  " /><path style="stroke-width:1.42 ;&st7;  " d=" M  2357.63,    69.77  L  2362.61,    64.80  " /><path style="stroke-width:1.42 ;&st7;  " d=" M  2422.10,    57.75  L  2417.12,    52.78  " /><path style="stroke-width:1.42 ;&st7;  " d=" M  2405.10,    64.80  L  2410.07,    69.77  " /><path style="stroke-width:1.42 ;&st7;  " d=" M  2417.12,    69.77  L  2422.10,    64.80  " /><path style="stroke-width:1.42 ;&st7;  " d=" M  2410.07,    52.78  L  2405.10,    57.75  " /><path style="stroke-width:1.42 ;&st7;  " d=" M  2481.59,    57.75  L  2476.61,    52.78  " /><path style="stroke-width:1.42 ;&st7;  " d=" M  2464.59,    64.80  L  2469.56,    69.77  " /><path style="stroke-width:1.42 ;&st7;  " d=" M  2476.61,    69.77  L  2481.59,    64.80  " /><path style="stroke-width:1.42 ;&st7;  " d=" M  2469.56,    52.78  L  2464.59,    57.75  " /><text style="&st18;" transform="matrix(&st17;  2307.92  471.67 )">W</text><text style="&st18;" transform="matrix(&st17;  2350.41  470.9 )">B</text><text style="&st18;" transform="matrix(&st17;  2477.89  471.17 )">G</text><text style="&st18;" transform="matrix(&st17;  2435.4  470.82 )">R</text><text style="&st18;" transform="matrix(&st17;  2469.39  193.85 )">R-B</text><text style="&st18;" transform="matrix(&st17;  2469.39  91.87 )">B-R</text><text style="&st18;" transform="matrix(&st17;  2409.9  190.33 )">L</text><text style="&st18;" transform="matrix(&st17;  2409.9  91.87 )">B-R</text><text style="&st18;" transform="matrix(&st17;  2350.41  193.74 )">R-L</text><text style="&st18;" transform="matrix(&st17;  2350.41  91.87 )">B-R</text><text style="&st18;" transform="matrix(&st17;  2290.92  91.87 )">B-R</text><text style="&st18;" transform="matrix(&st16;  2170.04  134.07 )">B-R</text><text style="&st18;" transform="matrix(&st16;  2167.28  145.4 )">(RHD)</text><text style="&st18;" transform="matrix(&st17;  2129.45  155.61 )">B-R</text><text style="&st18;" transform="matrix(&st17;  2140.78  158.33 )">(LHD)</text><text style="&st18;" transform="matrix(&st17;  2276.76  171.11 )">(RHD)</text><text style="&st18;" transform="matrix(&st17;  2265.43  168.36 )">B-R</text><text style="&st18;" transform="matrix(&st17;  2290.92  168.36 )">B-R</text><text style="&st18;" transform="matrix(&st17;  2302.25  171.07 )">(LHD)</text><text style="&st18;" transform="matrix(&st17;  2120.95  330.96 )">G-W</text><text style="&st18;" transform="matrix(&st17;  2307.92  318.7 )">W</text><text style="&st18;" transform="matrix(&st17;  2350.41  317.92 )">B</text><text style="&st18;" transform="matrix(&st17;  2435.4  317.84 )">R</text><text style="&st18;" transform="matrix(&st17;  2477.89  318.19 )">G</text><text style="&st18;" transform="matrix(&st16;  2282.71  254.46 )">ECM</text><text style="&st18;" transform="matrix(&st17;  2154.94  466.53 )">L</text><path style="stroke-width: 0.85 ;&st7; stroke-dasharray:3, 1.5;" d=" M  2171.07,   507.45  L  2192.94,   507.45  " /><path style="stroke-width: 0.85 ;&st7; stroke-dasharray:3, 1.5;" d=" M  2171.07,   515.95  L  2192.94,   515.95  " /><text style="&st18;" transform="matrix(&st17;  2205.94  470.8 )">L-W</text><text style="&st18;" transform="matrix(&st17;  2217.27  472.77 )">(LHD)</text><text style="&st18;" transform="matrix(&st16;  2228.79  440.01 )">L-W</text><text style="&st18;" transform="matrix(&st16;  2226.77  451.35 )">(RHD)</text><text style="&st18;" transform="matrix(&st16;  2228.79  482.51 )">L-W</text><text style="&st18;" transform="matrix(&st16;  2226.77  493.84 )">(RHD)</text><text style="&st18;" transform="matrix(&st17;  2205.94  551.53 )">L-W</text><text style="&st18;" transform="matrix(&st17;  2154.94  547.27 )">L</text><text style="&st18;" transform="matrix(&st16;  2282.71  247.64 )">A29(A),C39(B),I84(C)</text><text style="&st18;" transform="matrix(&st16;  2378.25  57.58 )">B-R</text><text style="&st18;" transform="matrix(&st16;  2437.74  57.58 )">B-R</text><text style="&st18;" transform="matrix(&st16;  2497.23  57.58 )">B-R</text><text style="&st18;" transform="matrix(&st16;  2229.53  185.06 )">B-R</text><text style="&st18;" transform="matrix(&st16;  2226.77  196.39 )">(RHD)</text><text style="&st18;" transform="matrix(&st16;  2093.55  32.08 )">B-R</text><text style="&st18;" transform="matrix(&st16;  2042.56  32.08 )">B-R</text><text style="&st18;" transform="matrix(&st16;  2041.39  43.41 )">(*10)</text><text style="&st18;" transform="matrix(&st16;  2092.39  43.41 )">(*10)</text><text style="&st18;" transform="matrix(&st16;  2092.7  618.48 )">B-W</text><text style="&st18;" transform="matrix(&st16;  2041.7  618.48 )">B-W</text><text style="&st18;" transform="matrix(&st16;  2097.08  601.49 )">L</text><text style="&st18;" transform="matrix(&st16;  2046.09  601.49 )">L</text><text style="&st18;" transform="matrix(&st16;  2041.7  652.48 )">B-W</text><text style="&st18;" transform="matrix(&st16;  2092.7  652.48 )">B-W</text><text style="&st18;" transform="matrix(&st16;  2041.43  635.48 )">G-W</text><text style="&st18;" transform="matrix(&st16;  2092.42  635.48 )">G-W</text><text style="&st18;" transform="matrix(&st16;  2045.7  669.48 )">G</text><text style="&st18;" transform="matrix(&st16;  2096.69  669.48 )">G</text><g ewd:figtype="rb" ewd:figID="21" ewd:code="FUSE15"><path style="stroke-width:1.42 ;&st7;  " d=" M  2135.27,   112.27  L  2131.02,   112.27  " /><path style="stroke-width:1.42 ;&st7;  " d=" M  2135.27,   120.77  L  2131.02,   120.77  " /><path style="stroke-width:0.85 ;&st7;  " d=" M  2133.14,    95.27  L  2133.14,   112.27  " /><path style="stroke-width:1.42 ;&st7;   " d=" M  2131.02,   112.27  C  2128.67    112.27   2126.77    114.17   2126.77    116.52  " /><path style="stroke-width:1.42 ;&st7;   " d=" M  2126.77,   116.52  C  2126.77    118.86   2128.67    120.77   2131.02    120.77  " /><path style="stroke-width:1.42 ;&st7;   " d=" M  2135.27,   120.77  C  2137.62    120.77   2139.52    118.86   2139.52    116.52  " /><path style="stroke-width:1.42 ;&st7;   " d=" M  2139.52,   116.52  C  2139.52    114.17   2137.62    112.27   2135.27    112.27  " /><path style="stroke-width:0.28 ;&st9;  " d=" M  2133.14,   107.37  L  2130.31,   104.54  L  2130.31,   108.79  L  2133.14,   111.62  L  2135.98,   108.79  L  2135.98,   104.54  L  2133.14,   107.37  " /><text style="&st18;" transform="matrix(&st16;  2149.57  73.17 )">10A <tspan x="0 " dy="6.0">INJ</tspan></text><text style="&st18;" transform="matrix(&st16;  2131.34  118.49 )">2</text><text style="&st18;" transform="matrix(&st16;  2126.96  103.46 )">2</text><text style="&st18;" transform="matrix(&st16;  2127.93  49.08 )">(IG)</text><path style="stroke-width:0.85 ;&st7;  " d=" M  2133.14,    86.77  L  2133.14,    95.27  " /><path style="stroke-width:1.42 ;&st7;   " d=" M  2133.14,    64.11  C  2130.41     65.72   2129.49     69.25   2131.11     71.99  " /><path style="stroke-width:1.42 ;&st7;   " d=" M  2131.11,    71.99  C  2131.63     72.87   2132.26     73.50   2133.14     74.02  " /><path style="stroke-width:1.42 ;&st7;   " d=" M  2133.14,    83.94  C  2135.88     82.32   2136.79     78.80   2135.18     76.06  " /><path style="stroke-width:1.42 ;&st7;   " d=" M  2135.18,    76.06  C  2134.66     75.18   2134.03     74.54   2133.14     74.02  " /><path style="stroke-width:0.85 ;&st7;   " d=" M  2134.56,    62.69  C  2134.56     61.91   2133.93     61.28   2133.14     61.28  " /><path style="stroke-width:0.85 ;&st7;   " d=" M  2133.14,    61.28  C  2132.36     61.28   2131.73     61.91   2131.73     62.69  " /><path style="stroke-width:0.85 ;&st7;   " d=" M  2131.73,    62.69  C  2131.73     63.47   2132.36     64.11   2133.14     64.11  " /><path style="stroke-width:0.85 ;&st7;   " d=" M  2133.14,    64.11  C  2133.93     64.11   2134.56     63.47   2134.56     62.69  " /><path style="stroke-width:0.85 ;&st7;   " d=" M  2134.56,    85.35  C  2134.56     84.57   2133.93     83.94   2133.14     83.94  " /><path style="stroke-width:0.85 ;&st7;   " d=" M  2133.14,    83.94  C  2132.36     83.94   2131.73     84.57   2131.73     85.35  " /><path style="stroke-width:0.85 ;&st7;   " d=" M  2131.73,    85.35  C  2131.73     86.14   2132.36     86.77   2133.14     86.77  " /><path style="stroke-width:0.85 ;&st7;   " d=" M  2133.14,    86.77  C  2133.93     86.77   2134.56     86.14   2134.56     85.35  " /><path style="stroke-width:1.42 ;&st7;  " d=" M  2120.39,    52.78  L  2120.39,    95.27  L  2145.89,    95.27  L  2145.89,    52.78  L  2120.39,    52.78  " /></g><g ewd:figtype="conn" ewd:figID="23" ewd:code="I56"><path style="stroke-width:1.42 ;&st7;  " d=" M  2124.64,   171.76  L  2141.64,   171.76  L  2141.64,   188.75  L  2124.64,   188.75  L  2124.64,   171.76  " /><path style="stroke-width:0.85 ;&st7;  " d=" M  2133.14,   171.76  L  2133.14,   188.75  " /><text style="&st18;" transform="matrix(&st16;  2126.96  196.95 )">7</text><text style="&st18;" transform="matrix(&st16;  2126.96  168.07 )">1</text><g ewd:figtype="title"><text style="&st18;" transform="matrix(&st17;  2149.54  191.65 )">I56</text><text style="&st18;" transform="matrix(&st17;  2156.36  191.66 )" ewd:textID="59">No. 7 <tspan x="0 " dy="6.0">Junction </tspan><tspan x="0 " dy="6.0">Connector</tspan></text></g></g><g ewd:figtype="rb" ewd:figID="27" ewd:code="FUSE9"><path style="stroke-width:1.42 ;&st7;  " d=" M  2211.76,   418.22  L  2207.51,   418.22  " /><path style="stroke-width:1.42 ;&st7;  " d=" M  2211.76,   426.71  L  2207.51,   426.71  " /><path style="stroke-width:1.42 ;&st7;  " d=" M  2160.76,   418.22  L  2156.51,   418.22  " /><path style="stroke-width:1.42 ;&st7;  " d=" M  2160.76,   426.71  L  2156.51,   426.71  " /><path style="stroke-width:1.42 ;&st7;   " d=" M  2207.51,   418.22  C  2205.16    418.22   2203.26    420.12   2203.26    422.46  " /><path style="stroke-width:1.42 ;&st7;   " d=" M  2203.26,   422.46  C  2203.26    424.81   2205.16    426.71   2207.51    426.71  " /><path style="stroke-width:1.42 ;&st7;   " d=" M  2211.76,   426.71  C  2214.10    426.71   2216.00    424.81   2216.00    422.46  " /><path style="stroke-width:1.42 ;&st7;   " d=" M  2216.00,   422.46  C  2216.00    420.12   2214.10    418.22   2211.76    418.22  " /><path style="stroke-width:1.42 ;&st7;   " d=" M  2156.51,   418.22  C  2154.17    418.22   2152.27    420.12   2152.27    422.46  " /><path style="stroke-width:1.42 ;&st7;   " d=" M  2152.27,   422.46  C  2152.27    424.81   2154.17    426.71   2156.51    426.71  " /><path style="stroke-width:1.42 ;&st7;   " d=" M  2160.76,   426.71  C  2163.11    426.71   2165.01    424.81   2165.01    422.46  " /><path style="stroke-width:1.42 ;&st7;   " d=" M  2165.01,   422.46  C  2165.01    420.12   2163.11    418.22   2160.76    418.22  " /><path style="stroke-width:0.28 ;&st9;  " d=" M  2209.63,   413.32  L  2206.80,   410.49  L  2206.80,   414.74  L  2209.63,   417.57  L  2212.46,   414.74  L  2212.46,   410.49  L  2209.63,   413.32  " /><path style="stroke-width:0.28 ;&st9;  " d=" M  2158.64,   413.32  L  2155.81,   410.49  L  2155.81,   414.74  L  2158.64,   417.57  L  2161.47,   414.74  L  2161.47,   410.49  L  2158.64,   413.32  " /><path style="stroke-width:0.85 ;&st7;  " d=" M  2209.63,   350.23  L  2209.63,   324.73  L  2158.64,   324.73  L  2158.64,   418.22  " /><path style="stroke-width:0.85 ;&st7;  " d=" M  2209.63,   418.22  L  2209.63,   392.72  " /><text style="&st18;" transform="matrix(&st16;  2226.06  370.62 )">10A <tspan x="0 " dy="6.0">EFI-NO.2</tspan></text><text style="&st18;" transform="matrix(&st16;  2203.45  400.91 )">2</text><text style="&st18;" transform="matrix(&st16;  2203.45  346.54 )">1</text><text style="&st18;" transform="matrix(&st16;  2207.83  424.43 )">2</text><text style="&st18;" transform="matrix(&st16;  2156.84  424.43 )">2</text><path style="stroke-width:0.85 ;&st7;  " d=" M  2209.63,   384.22  L  2209.63,   392.72  " /><path style="stroke-width:1.42 ;&st7;   " d=" M  2209.63,   361.56  C  2206.89    363.17   2205.98    366.70   2207.59    369.44  " /><path style="stroke-width:1.42 ;&st7;   " d=" M  2207.59,   369.44  C  2208.11    370.32   2208.75    370.95   2209.63    371.47  " /><path style="stroke-width:1.42 ;&st7;   " d=" M  2209.63,   381.39  C  2212.37    379.78   2213.28    376.25   2211.67    373.51  " /><path style="stroke-width:1.42 ;&st7;   " d=" M  2211.67,   373.51  C  2211.15    372.63   2210.51    371.99   2209.63    371.47  " /><path style="stroke-width:0.85 ;&st7;   " d=" M  2211.05,   360.14  C  2211.05    359.36   2210.41    358.73   2209.63    358.73  " /><path style="stroke-width:0.85 ;&st7;   " d=" M  2209.63,   358.73  C  2208.85    358.73   2208.21    359.36   2208.21    360.14  " /><path style="stroke-width:0.85 ;&st7;   " d=" M  2208.21,   360.14  C  2208.21    360.92   2208.85    361.56   2209.63    361.56  " /><path style="stroke-width:0.85 ;&st7;   " d=" M  2209.63,   361.56  C  2210.41    361.56   2211.05    360.92   2211.05    360.14  " /><path style="stroke-width:0.85 ;&st7;   " d=" M  2211.05,   382.80  C  2211.05    382.02   2210.41    381.39   2209.63    381.39  " /><path style="stroke-width:0.85 ;&st7;   " d=" M  2209.63,   381.39  C  2208.85    381.39   2208.21    382.02   2208.21    382.80  " /><path style="stroke-width:0.85 ;&st7;   " d=" M  2208.21,   382.80  C  2208.21    383.59   2208.85    384.22   2209.63    384.22  " /><path style="stroke-width:0.85 ;&st7;   " d=" M  2209.63,   384.22  C  2210.41    384.22   2211.05    383.59   2211.05    382.80  " /><path style="stroke-width:0.85 ;&st7;  " d=" M  2209.63,   350.23  L  2209.63,   358.73  " /><path style="stroke-width:1.42 ;&st7;  " d=" M  2196.88,   350.23  L  2196.88,   392.72  L  2222.38,   392.72  L  2222.38,   350.23  L  2196.88,   350.23  " /></g><g ewd:figtype="conn" ewd:figID="33" ewd:code="C9"><path style="stroke-width:0.85 ;&st7;  " d=" M  2473.09,   120.77  L  2473.09,   129.26  " /><path style="stroke-width:0.85 ;&st7;  " d=" M  2473.09,   146.26  L  2473.09,   154.76  " /><path style="stroke-width:0.85 ;&st7;   " d=" M  2470.56,   135.28  C  2471.93    136.68   2474.17    136.70   2475.57    135.33  " /><path style="stroke-width:0.85 ;&st7;   " d=" M  2475.57,   135.33  C  2476.96    133.97   2476.99    131.72   2475.62    130.33  " /><path style="stroke-width:0.85 ;&st7;   " d=" M  2475.62,   130.33  C  2474.92    129.62   2474.08    129.26   2473.09    129.26  " /><path style="stroke-width:0.85 ;&st7;   " d=" M  2470.56,   140.24  C  2471.93    141.64   2474.17    141.66   2475.57    140.29  " /><path style="stroke-width:0.85 ;&st7;   " d=" M  2475.57,   140.29  C  2476.96    138.92   2476.99    136.68   2475.62    135.28  " /><path style="stroke-width:0.85 ;&st7;   " d=" M  2475.62,   135.28  C  2474.25    133.89   2472.01    133.86   2470.61    135.23  " /><path style="stroke-width:0.85 ;&st7;   " d=" M  2470.61,   135.23  C  2470.59    135.25   2470.57    135.27   2470.56    135.28  " /><path style="stroke-width:0.85 ;&st7;   " d=" M  2473.09,   146.26  C  2475.04    146.26   2476.63    144.68   2476.63    142.72  " /><path style="stroke-width:0.85 ;&st7;   " d=" M  2476.63,   142.72  C  2476.63    140.76   2475.04    139.18   2473.09    139.18  " /><path style="stroke-width:0.85 ;&st7;   " d=" M  2473.09,   139.18  C  2472.10    139.18   2471.25    139.53   2470.56    140.24  " /><path style="stroke-width:1.42 ;&st7;  " d=" M  2481.58,   154.76  L  2481.58,   120.77  L  2464.59,   120.77  L  2464.59,   154.76  L  2481.58,   154.76  " /><text style="&st18;" transform="matrix(&st16;  2466.9  162.95 )">2</text><text style="&st18;" transform="matrix(&st16;  2466.9  117.08 )">1</text><g ewd:figtype="title"><text style="&st18;" transform="matrix(&st17;  2489.48  157.66 )">C9</text><text style="&st18;" transform="matrix(&st17;  2496.3  157.67 )" ewd:textID="37">Fuel Injector <tspan x="0 " dy="6.0">Assembly No. 3</tspan></text></g></g><g ewd:figtype="conn" ewd:figID="34" ewd:code="C20"><path style="stroke-width:0.85 ;&st7;  " d=" M  2413.60,   120.77  L  2413.60,   129.26  " /><path style="stroke-width:0.85 ;&st7;  " d=" M  2413.60,   146.26  L  2413.60,   154.76  " /><path style="stroke-width:0.85 ;&st7;   " d=" M  2411.07,   135.28  C  2412.44    136.68   2414.68    136.70   2416.08    135.33  " /><path style="stroke-width:0.85 ;&st7;   " d=" M  2416.08,   135.33  C  2417.47    133.97   2417.50    131.72   2416.13    130.33  " /><path style="stroke-width:0.85 ;&st7;   " d=" M  2416.13,   130.33  C  2415.43    129.62   2414.59    129.26   2413.60    129.26  " /><path style="stroke-width:0.85 ;&st7;   " d=" M  2411.07,   140.24  C  2412.44    141.64   2414.68    141.66   2416.08    140.29  " /><path style="stroke-width:0.85 ;&st7;   " d=" M  2416.08,   140.29  C  2417.47    138.92   2417.50    136.68   2416.13    135.28  " /><path style="stroke-width:0.85 ;&st7;   " d=" M  2416.13,   135.28  C  2414.76    133.89   2412.52    133.86   2411.12    135.23  " /><path style="stroke-width:0.85 ;&st7;   " d=" M  2411.12,   135.23  C  2411.10    135.25   2411.08    135.27   2411.07    135.28  " /><path style="stroke-width:0.85 ;&st7;   " d=" M  2413.60,   146.26  C  2415.55    146.26   2417.14    144.68   2417.14    142.72  " /><path style="stroke-width:0.85 ;&st7;   " d=" M  2417.14,   142.72  C  2417.14    140.76   2415.55    139.18   2413.60    139.18  " /><path style="stroke-width:0.85 ;&st7;   " d=" M  2413.60,   139.18  C  2412.61    139.18   2411.76    139.53   2411.07    140.24  " /><path style="stroke-width:1.42 ;&st7;  " d=" M  2422.09,   154.76  L  2422.09,   120.77  L  2405.10,   120.77  L  2405.10,   154.76  L  2422.09,   154.76  " /><text style="&st18;" transform="matrix(&st16;  2407.41  162.95 )">2</text><text style="&st18;" transform="matrix(&st16;  2407.41  117.08 )">1</text><g ewd:figtype="title"><text style="&st18;" transform="matrix(&st17;  2429.99  157.66 )">C20</text><text style="&st18;" transform="matrix(&st17;  2436.81  157.67 )" ewd:textID="36">Fuel Injector <tspan x="0 " dy="6.0">Assembly No. 2</tspan></text></g></g><g ewd:figtype="conn" ewd:figID="35" ewd:code="C8"><path style="stroke-width:0.85 ;&st7;  " d=" M  2354.11,   120.77  L  2354.11,   129.26  " /><path style="stroke-width:0.85 ;&st7;  " d=" M  2354.11,   146.26  L  2354.11,   154.76  " /><path style="stroke-width:0.85 ;&st7;   " d=" M  2351.58,   135.28  C  2352.95    136.68   2355.19    136.70   2356.59    135.33  " /><path style="stroke-width:0.85 ;&st7;   " d=" M  2356.59,   135.33  C  2357.98    133.97   2358.01    131.72   2356.64    130.33  " /><path style="stroke-width:0.85 ;&st7;   " d=" M  2356.64,   130.33  C  2355.94    129.62   2355.10    129.26   2354.11    129.26  " /><path style="stroke-width:0.85 ;&st7;   " d=" M  2351.58,   140.24  C  2352.95    141.64   2355.19    141.66   2356.59    140.29  " /><path style="stroke-width:0.85 ;&st7;   " d=" M  2356.59,   140.29  C  2357.98    138.92   2358.01    136.68   2356.64    135.28  " /><path style="stroke-width:0.85 ;&st7;   " d=" M  2356.64,   135.28  C  2355.27    133.89   2353.03    133.86   2351.63    135.23  " /><path style="stroke-width:0.85 ;&st7;   " d=" M  2351.63,   135.23  C  2351.61    135.25   2351.59    135.27   2351.58    135.28  " /><path style="stroke-width:0.85 ;&st7;   " d=" M  2354.11,   146.26  C  2356.06    146.26   2357.65    144.68   2357.65    142.72  " /><path style="stroke-width:0.85 ;&st7;   " d=" M  2357.65,   142.72  C  2357.65    140.76   2356.06    139.18   2354.11    139.18  " /><path style="stroke-width:0.85 ;&st7;   " d=" M  2354.11,   139.18  C  2353.12    139.18   2352.27    139.53   2351.58    140.24  " /><path style="stroke-width:1.42 ;&st7;  " d=" M  2362.60,   154.76  L  2362.60,   120.77  L  2345.61,   120.77  L  2345.61,   154.76  L  2362.60,   154.76  " /><text style="&st18;" transform="matrix(&st16;  2347.92  162.95 )">2</text><text style="&st18;" transform="matrix(&st16;  2347.92  117.08 )">1</text><g ewd:figtype="title"><text style="&st18;" transform="matrix(&st17;  2370.5  157.66 )">C8</text><text style="&st18;" transform="matrix(&st17;  2377.32  157.67 )" ewd:textID="35">Fuel Injector <tspan x="0 " dy="6.0">Assembly No. 1</tspan></text></g></g><g ewd:figtype="conn" ewd:figID="37" ewd:code="h1"><path style="stroke-width:1.42 ;&st7;  " d=" M  2422.09,   554.19  L  2498.58,   554.19  L  2498.58,   520.20  L  2422.09,   520.20  L  2422.09,   554.19  " /><g ewd:lineID="137"><text style="&st18;" transform="matrix(&st16;  2432.91  516.51 )">1</text><text style="&st18;" transform="matrix(&st16;  2431.32  527.83 )">EKN2</text></g><g ewd:lineID="142"><text style="&st18;" transform="matrix(&st16;  2475.4  516.51 )">2</text><text style="&st18;" transform="matrix(&st16;  2473.62  527.83 )">KNK2</text></g><g ewd:figtype="title"><text style="&st18;" transform="matrix(&st16;  2418.68  562.09 )">h1</text><text style="&st18;" transform="matrix(&st16;  2418.69  568.91 )" ewd:textID="48">Knock Control Sensor (Bank 2)</text></g></g><g ewd:figtype="conn" ewd:figID="39" ewd:code="h2"><path style="stroke-width:1.42 ;&st7;  " d=" M  2294.62,   554.19  L  2371.10,   554.19  L  2371.10,   520.20  L  2294.62,   520.20  L  2294.62,   554.19  " /><g ewd:lineID="127"><text style="&st18;" transform="matrix(&st16;  2305.43  516.51 )">1</text><text style="&st18;" transform="matrix(&st16;  2303.34  527.83 )">EKNK</text></g><g ewd:lineID="130"><text style="&st18;" transform="matrix(&st16;  2347.92  516.51 )">2</text><text style="&st18;" transform="matrix(&st16;  2346.14  527.83 )">KNK1</text></g><g ewd:figtype="title"><text style="&st18;" transform="matrix(&st16;  2291.21  568.91 )" ewd:textID="47">Knock Control <tspan x="0 " dy="6.0">Sensor (Bank 1)</tspan></text><text style="&st18;" transform="matrix(&st16;  2291.2  562.09 )">h2</text></g></g><g ewd:figtype="conn" ewd:figID="66" ewd:code="A29,C39,I84"><g ewd:lineID="128"><text style="&st18;" transform="matrix(&st16;  2299.82  280.24 )">94</text><text style="&st18;" transform="matrix(&st16;  2309.43  280.24 )">B</text><path style="stroke-width:1.42 ;&st7;   " d=" M  2316.15,   278.27  C  2316.15    275.77   2314.12    273.74   2311.61    273.74  " /><path style="stroke-width:1.42 ;&st7;   " d=" M  2311.61,   273.74  C  2309.11    273.74   2307.08    275.77   2307.08    278.27  " /><path style="stroke-width:1.42 ;&st7;   " d=" M  2307.08,   278.27  C  2307.08    280.78   2309.11    282.80   2311.61    282.80  " /><path style="stroke-width:1.42 ;&st7;   " d=" M  2311.61,   282.80  C  2314.12    282.80   2316.15    280.78   2316.15    278.27  " /><text style="&st18;" transform="matrix(&st16;  2303.34  270.04 )">EKNK</text></g><g ewd:lineID="131"><text style="&st18;" transform="matrix(&st16;  2342.31  280.24 )">95</text><path style="stroke-width:1.42 ;&st7;   " d=" M  2358.64,   278.27  C  2358.64    275.77   2356.61    273.74   2354.11    273.74  " /><path style="stroke-width:1.42 ;&st7;   " d=" M  2354.11,   273.74  C  2351.60    273.74   2349.57    275.77   2349.57    278.27  " /><path style="stroke-width:1.42 ;&st7;   " d=" M  2349.57,   278.27  C  2349.57    280.78   2351.60    282.80   2354.11    282.80  " /><path style="stroke-width:1.42 ;&st7;   " d=" M  2354.11,   282.80  C  2356.61    282.80   2358.64    280.78   2358.64    278.27  " /><text style="&st18;" transform="matrix(&st16;  2351.92  280.24 )">B</text><text style="&st18;" transform="matrix(&st16;  2346.14  270.04 )">KNK1</text></g><g ewd:lineID="132"><text style="&st18;" transform="matrix(&st16;  2342.31  220.18 )">45</text><path style="stroke-width:1.42 ;&st7;   " d=" M  2358.64,   218.22  C  2358.64    215.71   2356.61    213.68   2354.11    213.68  " /><path style="stroke-width:1.42 ;&st7;   " d=" M  2354.11,   213.68  C  2351.60    213.68   2349.57    215.71   2349.57    218.22  " /><path style="stroke-width:1.42 ;&st7;   " d=" M  2349.57,   218.22  C  2349.57    220.72   2351.60    222.75   2354.11    222.75  " /><path style="stroke-width:1.42 ;&st7;   " d=" M  2354.11,   222.75  C  2356.61    222.75   2358.64    220.72   2358.64    218.22  " /><text style="&st18;" transform="matrix(&st16;  2351.92  220.18 )">B</text><text style="&st18;" transform="matrix(&st16;  2349.2  230.38 )">#10</text></g><g ewd:lineID="135"><text style="&st18;" transform="matrix(&st16;  2401.8  220.18 )">85</text><path style="stroke-width:1.42 ;&st7;   " d=" M  2418.13,   218.22  C  2418.13    215.71   2416.10    213.68   2413.60    213.68  " /><path style="stroke-width:1.42 ;&st7;   " d=" M  2413.60,   213.68  C  2411.09    213.68   2409.06    215.71   2409.06    218.22  " /><path style="stroke-width:1.42 ;&st7;   " d=" M  2409.06,   218.22  C  2409.06    220.72   2411.09    222.75   2413.60    222.75  " /><path style="stroke-width:1.42 ;&st7;   " d=" M  2413.60,   222.75  C  2416.10    222.75   2418.13    220.72   2418.13    218.22  " /><text style="&st18;" transform="matrix(&st16;  2411.41  220.18 )">B</text><text style="&st18;" transform="matrix(&st16;  2408.69  230.38 )">#20</text></g><g ewd:lineID="138"><text style="&st18;" transform="matrix(&st16;  2424.19  280.24 )">117</text><path style="stroke-width:1.42 ;&st7;   " d=" M  2443.63,   278.27  C  2443.63    275.77   2441.60    273.74   2439.09    273.74  " /><path style="stroke-width:1.42 ;&st7;   " d=" M  2439.09,   273.74  C  2436.59    273.74   2434.56    275.77   2434.56    278.27  " /><path style="stroke-width:1.42 ;&st7;   " d=" M  2434.56,   278.27  C  2434.56    280.78   2436.59    282.80   2439.09    282.80  " /><path style="stroke-width:1.42 ;&st7;   " d=" M  2439.09,   282.80  C  2441.60    282.80   2443.63    280.78   2443.63    278.27  " /><text style="&st18;" transform="matrix(&st16;  2436.9  280.24 )">B</text><text style="&st18;" transform="matrix(&st16;  2431.32  270.04 )">EKN2</text></g><g ewd:lineID="140"><text style="&st18;" transform="matrix(&st16;  2461.29  220.18 )">44</text><path style="stroke-width:1.42 ;&st7;   " d=" M  2477.62,   218.22  C  2477.62    215.71   2475.59    213.68   2473.09    213.68  " /><path style="stroke-width:1.42 ;&st7;   " d=" M  2473.09,   213.68  C  2470.58    213.68   2468.55    215.71   2468.55    218.22  " /><path style="stroke-width:1.42 ;&st7;   " d=" M  2468.55,   218.22  C  2468.55    220.72   2470.58    222.75   2473.09    222.75  " /><path style="stroke-width:1.42 ;&st7;   " d=" M  2473.09,   222.75  C  2475.59    222.75   2477.62    220.72   2477.62    218.22  " /><text style="&st18;" transform="matrix(&st16;  2470.9  220.18 )">B</text><text style="&st18;" transform="matrix(&st16;  2468.18  230.38 )">#30</text></g><g ewd:lineID="143"><text style="&st18;" transform="matrix(&st16;  2466.69  280.24 )">118</text><text style="&st18;" transform="matrix(&st16;  2479.4  280.24 )">B</text><path style="stroke-width:1.42 ;&st7;   " d=" M  2486.12,   278.27  C  2486.12    275.77   2484.09    273.74   2481.59    273.74  " /><path style="stroke-width:1.42 ;&st7;   " d=" M  2481.59,   273.74  C  2479.08    273.74   2477.05    275.77   2477.05    278.27  " /><path style="stroke-width:1.42 ;&st7;   " d=" M  2477.05,   278.27  C  2477.05    280.78   2479.08    282.80   2481.59    282.80  " /><path style="stroke-width:1.42 ;&st7;   " d=" M  2481.59,   282.80  C  2484.09    282.80   2486.12    280.78   2486.12    278.27  " /><text style="&st18;" transform="matrix(&st16;  2473.62  270.04 )">KNK2</text></g><g ewd:lineID="46"><text style="&st18;" transform="matrix(&st16;  2112.85  280.24 )">59</text><path style="stroke-width:1.42 ;&st7;   " d=" M  2129.18,   278.27  C  2129.18    275.77   2127.15    273.74   2124.65    273.74  " /><path style="stroke-width:1.42 ;&st7;   " d=" M  2124.65,   273.74  C  2122.14    273.74   2120.11    275.77   2120.11    278.27  " /><path style="stroke-width:1.42 ;&st7;   " d=" M  2120.11,   278.27  C  2120.11    280.78   2122.14    282.80   2124.65    282.80  " /><path style="stroke-width:1.42 ;&st7;   " d=" M  2124.65,   282.80  C  2127.15    282.80   2129.18    280.78   2129.18    278.27  " /><text style="&st18;" transform="matrix(&st16;  2122.46  280.24 )">B</text><text style="&st18;" transform="matrix(&st16;  2118.93  270.04 )">FPR</text></g></g><g ewd:figtype="w2w" ewd:figID="150" ewd:code="AI2"><text style="&st18;" transform="matrix(&st16;  2142.91  517.92 )">11</text></g><g ewd:figtype="w2w" ewd:figID="151" ewd:code="AI6"><path style="stroke-width:1.42 ;&st7;  " d=" M  2154.39,   494.14  L  2158.64,   498.39  L  2162.89,   494.14  " /><path style="stroke-width:1.42 ;&st7;  " d=" M  2162.89,   497.54  L  2158.64,   501.78  L  2154.39,   497.54  " /><text style="&st18;" transform="matrix(&st16;  2142.91  509.42 )">11</text></g><g ewd:figtype="w2w" ewd:figID="152" ewd:code="AI2"><path style="stroke-width:1.42 ;&st7;  " d=" M  2196.88,   154.19  L  2201.13,   158.44  L  2205.38,   154.19  " /><path style="stroke-width:1.42 ;&st7;  " d=" M  2205.38,   157.59  L  2201.13,   161.84  L  2196.88,   157.59  " /><text style="&st18;" transform="matrix(&st16;  2188.5  169.48 )">6</text></g><g ewd:figtype="w2w" ewd:figID="153" ewd:code="AC5"><path style="stroke-width:1.42 ;&st7;  " d=" M  2213.88,   525.86  L  2209.63,   521.61  L  2205.38,   525.86  " /><path style="stroke-width:1.42 ;&st7;  " d=" M  2213.88,   529.26  L  2209.63,   525.01  L  2205.38,   529.26  " /><text style="&st18;" transform="matrix(&st16;  2197.0  517.92 )">7</text></g><g ewd:figtype="w2w" ewd:figID="154" ewd:code="IC2"><text style="&st18;" transform="matrix(&st16;  2197.0  509.42 )">7</text></g><g ewd:figtype="w2w" ewd:figID="155" ewd:code="AI3"><path style="stroke-width:1.42 ;&st7;  " d=" M  2256.37,   451.64  L  2260.62,   455.89  L  2264.87,   451.64  " /><path style="stroke-width:1.42 ;&st7;  " d=" M  2264.87,   455.04  L  2260.62,   459.29  L  2256.37,   455.04  " /><text style="&st18;" transform="matrix(&st16;  2244.89  466.93 )">15</text></g><g ewd:figtype="w2w" ewd:figID="156" ewd:code="AC5"><text style="&st18;" transform="matrix(&st16;  2278.88  126.98 )">10</text><g ewd:code="" ewd:figID="318" ewd:comment="" ewd:figtype="commref"><text style="&st18;" transform="matrix(&st16;  2303.65  126.98 )">(RHD)</text></g></g><g ewd:figtype="w2w" ewd:figID="157" ewd:code="IC2"><path style="stroke-width:1.42 ;&st7;  " d=" M  2298.86,   106.60  L  2294.62,   110.85  L  2290.37,   106.60  " /><path style="stroke-width:1.42 ;&st7;  " d=" M  2290.37,   103.20  L  2294.62,   107.45  L  2298.86,   103.20  " /><text style="&st18;" transform="matrix(&st16;  2278.88  118.49 )">10</text><g ewd:code="" ewd:figID="319" ewd:comment="" ewd:figtype="commref"><text style="&st18;" transform="matrix(&st16;  2303.65  118.49 )">(LHD)</text></g></g><g ewd:figtype="w2w" ewd:figID="158" ewd:code="Ch1"><path style="stroke-width:1.42 ;&st7;  " d=" M  2315.86,   418.78  L  2311.61,   414.53  L  2307.36,   418.78  " /><path style="stroke-width:1.42 ;&st7;  " d=" M  2315.86,   415.38  L  2311.61,   411.13  L  2307.36,   415.38  " /><text style="&st18;" transform="matrix(&st16;  2298.98  407.44 )">5</text></g><g ewd:figtype="w2w" ewd:figID="159" ewd:code="Ch1"><path style="stroke-width:1.42 ;&st7;  " d=" M  2358.35,   418.78  L  2354.11,   414.53  L  2349.86,   418.78  " /><path style="stroke-width:1.42 ;&st7;  " d=" M  2358.35,   415.38  L  2354.11,   411.13  L  2349.86,   415.38  " /><text style="&st18;" transform="matrix(&st16;  2341.48  407.44 )">2</text></g><g ewd:figtype="w2w" ewd:figID="160" ewd:code="Ch1"><path style="stroke-width:1.42 ;&st7;  " d=" M  2443.34,   427.28  L  2439.09,   423.03  L  2434.84,   427.28  " /><path style="stroke-width:1.42 ;&st7;  " d=" M  2443.34,   423.88  L  2439.09,   419.63  L  2434.84,   423.88  " /><text style="&st18;" transform="matrix(&st16;  2426.46  415.94 )">6</text></g><g ewd:figtype="w2w" ewd:figID="161" ewd:code="Ch1"><path style="stroke-width:1.42 ;&st7;  " d=" M  2485.83,   427.28  L  2481.58,   423.03  L  2477.34,   427.28  " /><path style="stroke-width:1.42 ;&st7;  " d=" M  2485.83,   423.88  L  2481.58,   419.63  L  2477.34,   423.88  " /><text style="&st18;" transform="matrix(&st16;  2468.95  415.94 )">4</text></g><g ewd:code=" " ewd:figID="284" ewd:comment=" " ewd:figtype="sh"><path style="stroke-width: 0.85 ;&st7; stroke-dasharray:3, 1.5;" d=" M  2507.08,   333.23  L  2422.09,   333.23  L  2422.09,   299.24  L  2507.08,   299.24  L  2507.08,   333.23  " /><path style="stroke-width:0.85 ;&st7;  " d=" M  2505.89,   298.23  L  2505.62,   298.70  L  2505.52,   299.24  L  2505.62,   299.77  L  2505.89,   300.24  L  2506.30,   300.58  L  2506.81,   300.77  L  2507.35,   300.77  L  2507.86,   300.58  L  2508.27,   300.24  L  2508.54,   299.77  L  2508.64,   299.24  L  2508.54,   298.70  L  2508.27,   298.23  L  2507.86,   297.89  L  2507.35,   297.70  L  2506.81,   297.70  L  2506.30,   297.89  L  2505.89,   298.23  L  2506.28,   298.94  L  2506.28,   299.53  L  2506.66,   299.97  L  2507.23,   300.07  L  2507.73,   299.78  L  2507.93,   299.24  L  2507.73,   298.69  L  2507.23,   298.40  L  2506.66,   298.50  L  2507.08,   299.24  " /><g ewd:code="" ewd:figID="326" ewd:comment=" " ewd:figtype="commref"><text style="&st18;" transform="matrix(&st17;  2418.4  328.47 )" ewd:textID="1">(Shielded)</text></g></g><g ewd:code=" " ewd:figID="283" ewd:comment=" " ewd:figtype="sh"><path style="stroke-width: 0.85 ;&st7; stroke-dasharray:3, 1.5;" d=" M  2379.60,   333.23  L  2294.62,   333.23  L  2294.62,   299.24  L  2379.60,   299.24  L  2379.60,   333.23  " /><path style="stroke-width:0.85 ;&st7;  " d=" M  2378.41,   298.23  L  2378.14,   298.70  L  2378.04,   299.24  L  2378.14,   299.77  L  2378.41,   300.24  L  2378.82,   300.58  L  2379.33,   300.77  L  2379.87,   300.77  L  2380.38,   300.58  L  2380.79,   300.24  L  2381.07,   299.77  L  2381.16,   299.24  L  2381.07,   298.70  L  2380.79,   298.23  L  2380.38,   297.89  L  2379.87,   297.70  L  2379.33,   297.70  L  2378.82,   297.89  L  2378.41,   298.23  L  2378.80,   298.94  L  2378.80,   299.53  L  2379.18,   299.97  L  2379.75,   300.07  L  2380.25,   299.78  L  2380.45,   299.24  L  2380.25,   298.69  L  2379.75,   298.40  L  2379.18,   298.50  L  2379.60,   299.24  " /><path style="stroke-width:0.85 ;&st7;  " d=" M  2378.41,   332.23  L  2378.14,   332.70  L  2378.04,   333.23  L  2378.14,   333.76  L  2378.41,   334.23  L  2378.82,   334.58  L  2379.33,   334.77  L  2379.87,   334.77  L  2380.38,   334.58  L  2380.79,   334.23  L  2381.07,   333.76  L  2381.16,   333.23  L  2381.07,   332.70  L  2380.79,   332.23  L  2380.38,   331.88  L  2379.87,   331.69  L  2379.33,   331.69  L  2378.82,   331.88  L  2378.41,   332.23  L  2378.80,   332.94  L  2378.80,   333.52  L  2379.18,   333.97  L  2379.75,   334.07  L  2380.25,   333.78  L  2380.45,   333.23  L  2380.25,   332.68  L  2379.75,   332.39  L  2379.18,   332.49  L  2379.60,   333.23  " /><g ewd:code="" ewd:figID="325" ewd:comment=" " ewd:figtype="commref"><text style="&st18;" transform="matrix(&st17;  2290.92  328.47 )" ewd:textID="1">(Shielded)</text></g></g><g ewd:code=" " ewd:figID="279" ewd:comment=" " ewd:figtype="sh"><path style="stroke-width: 0.85 ;&st7; stroke-dasharray:3, 1.5;" d=" M  2507.08,   452.21  L  2422.09,   452.21  L  2422.09,   486.20  L  2507.08,   486.20  L  2507.08,   452.21  " /><path style="stroke-width:0.85 ;&st7;  " d=" M  2505.89,   451.21  L  2505.62,   451.68  L  2505.52,   452.21  L  2505.62,   452.74  L  2505.89,   453.21  L  2506.30,   453.56  L  2506.81,   453.75  L  2507.35,   453.75  L  2507.86,   453.56  L  2508.27,   453.21  L  2508.54,   452.74  L  2508.64,   452.21  L  2508.54,   451.68  L  2508.27,   451.21  L  2507.86,   450.86  L  2507.35,   450.67  L  2506.81,   450.67  L  2506.30,   450.86  L  2505.89,   451.21  L  2506.28,   451.92  L  2506.28,   452.50  L  2506.66,   452.95  L  2507.23,   453.05  L  2507.73,   452.76  L  2507.93,   452.21  L  2507.73,   451.66  L  2507.23,   451.37  L  2506.66,   451.47  L  2507.08,   452.21  " /><g ewd:code="" ewd:figID="304" ewd:comment=" " ewd:figtype="commref"><text style="&st18;" transform="matrix(&st17;  2418.4  481.44 )" ewd:textID="1">(Shielded)</text></g></g><g ewd:code=" " ewd:figID="278" ewd:comment=" " ewd:figtype="sh"><path style="stroke-width: 0.85 ;&st7; stroke-dasharray:3, 1.5;" d=" M  2379.60,   452.21  L  2294.62,   452.21  L  2294.62,   486.20  L  2379.60,   486.20  L  2379.60,   452.21  " /><path style="stroke-width:0.85 ;&st7;  " d=" M  2378.41,   451.21  L  2378.14,   451.68  L  2378.04,   452.21  L  2378.14,   452.74  L  2378.41,   453.21  L  2378.82,   453.56  L  2379.33,   453.75  L  2379.87,   453.75  L  2380.38,   453.56  L  2380.79,   453.21  L  2381.07,   452.74  L  2381.16,   452.21  L  2381.07,   451.68  L  2380.79,   451.21  L  2380.38,   450.86  L  2379.87,   450.67  L  2379.33,   450.67  L  2378.82,   450.86  L  2378.41,   451.21  L  2378.80,   451.92  L  2378.80,   452.50  L  2379.18,   452.95  L  2379.75,   453.05  L  2380.25,   452.76  L  2380.45,   452.21  L  2380.25,   451.66  L  2379.75,   451.37  L  2379.18,   451.47  L  2379.60,   452.21  " /><g ewd:code="" ewd:figID="303" ewd:comment=" " ewd:figtype="commref"><text style="&st18;" transform="matrix(&st17;  2290.92  481.44 )" ewd:textID="1">(Shielded)</text></g></g><g ewd:code="" ewd:figID="328" ewd:comment="" ewd:figtype="commref"><text style="&st18;" transform="matrix(&st16;  2218.66  517.92 )">(RHD)</text></g><g ewd:code="" ewd:figID="329" ewd:comment="" ewd:figtype="commref"><text style="&st18;" transform="matrix(&st16;  2218.66  509.42 )">(LHD)</text></g></svg>