<?xml version="1.0" encoding="utf-8"?>
<!DOCTYPE svg PUBLIC "-//W3C//DTD SVG 1.0//EN" "http://www.w3.org/TR/2001/REC-SVG-20010904/DTD/svg10.dtd"[
	<!ENTITY ns_flows "http://ns.adobe.com/Flows/1.0/">
	<!ENTITY ns_svg "http://www.w3.org/2000/svg">
	<!ENTITY ns_xlink "http://www.w3.org/1999/xlink">
	<!ENTITY st0 "font-size:7px;font-family:'MS-PGothic';adobe-font-script:japanese;">
	<!ENTITY st1 "font-size:6px;font-family:'ArialMT';">
	<!-- White fill  -->
	<!ENTITY st2 "fill:#FFFFFF;stroke:#000000; stroke-width:1.41;stroke-linecap:round;stroke-linejoin:round;">
	<!-- Yellow fill  -->
	<!ENTITY st3 "fill:#FFFFCC;stroke:#FFFFCC; stroke-width:0.1;stroke-linecap:round;stroke-linejoin:round;">
	<!-- Gray fill  -->
	<!ENTITY st4 "fill:#CCCCCC;stroke:#CCCCCC; stroke-width:0.1;stroke-linecap:round;stroke-linejoin:round;">
	<!-- Light-blue fill -->
	<!ENTITY st5 "fill:#CCECF4;stroke:#000000; stroke-width:1.133;stroke-linecap:round;stroke-linejoin:round;">
	<!ENTITY st6 "fill:none;stroke-linecap:butt; stroke-linejoin:round;">
	<!ENTITY st7 "fill:none;stroke:#000000;stroke-linecap:round;stroke-linejoin:round;">
	<!ENTITY st8 "enable-background:new    ;">
	<!-- Black fill -->
	<!ENTITY st9 "fill:#000000;stroke:#000000; stroke-linecap:round;stroke-linejoin:round;">
	<!-- SRS note   -->
	<!ENTITY st10 "font-size:9px;font-family:'ArialMT';">
	<!ENTITY st11 "font-size:9px;font-family:'Svg Symbol';">
	<!ENTITY st12 "font-size:6px;font-family:'Svg Symbol';">
	<!ENTITY st13 "fill:none;stroke:#ff0000;stroke-linecap:round;stroke-linejoin:round;">
	<!-- Yellow fill  -->
	<!ENTITY st14 "fill:#FFFF00;stroke:#FFFF00; stroke-width:0.1;stroke-linecap:round;stroke-linejoin:round;">
	<!ENTITY st15 "font-size:6px;font-family:'MS-PGothic';adobe-font-script:japanese;">
	<!ENTITY st16 "1.00 0.00 0.00 1.00">
	<!ENTITY st17 "0.00 -1.00 1.00 0.00">
	<!ENTITY st18 "font-size:6px;font-family:'Arial';">
	<!ENTITY st19 "font-size:9px;font-family:'Arial';">
	<!ENTITY st20 "font-size:6px;font-family:'MS-PGothic','MS PGothic';adobe-font-script:japanese;">
	<!ENTITY st21 "font-size:7px;font-family:'MS-PGothic','MS PGothic';adobe-font-script:japanese;">
	<!ATTLIST svg
		xmlns:ewd CDATA #FIXED "http://shcl.co.jp/ewd"
		xmlns:a CDATA #FIXED "http://ns.adobe.com/AdobeSVGViewerExtensions/3.0/"
		ewd:ver CDATA #IMPLIED
	>
	<!ATTLIST a
		ewd:lineID CDATA #IMPLIED
		ewd:groupID CDATA #IMPLIED
		ewd:figtype CDATA #IMPLIED
		ewd:code CDATA #IMPLIED
		ewd:figID CDATA #IMPLIED
		ewd:pinNo CDATA #IMPLIED
		ewd:comment CDATA #IMPLIED >
	<!ATTLIST g
		ewd:lineID CDATA #IMPLIED
		ewd:groupID CDATA #IMPLIED
		ewd:figtype CDATA #IMPLIED
		ewd:code CDATA #IMPLIED
		ewd:figID CDATA #IMPLIED
		ewd:pinNo CDATA #IMPLIED
		ewd:comment CDATA #IMPLIED >
	<!ATTLIST text
		ewd:textID CDATA #IMPLIED >
	<!ATTLIST title
		ewd:textID CDATA #IMPLIED >
]>
<!-- Generator: Shintec Hozumi YS   -->
<svg onload="call_execInitLoadProc_svg('system')" style="overflow:visible;  enable-background:new 0 0 8273.908 710.000" viewBox="0 0 8273.908 710.000" height="710.000" width="8273.908" xml:space="preserve" ewd:ver="2.1.2.9" xmlns="&ns_svg;" xmlns:a="http://ns.adobe.com/AdobeSVGViewerExtensions/3.0/" xmlns:ewd="http://shcl.co.jp/ewd" xmlns:xlink="&ns_xlink;">
<path style="stroke-width:1.42 ;&st7;  " d=" M  1674.22,   163.26  L  1665.72,   163.26  " /><path style="stroke-width:1.42 ;&st7;  " d=" M  1691.22,   387.75  L  1696.19,   392.72  " /><path style="stroke-width:1.42 ;&st7;  " d=" M  1852.69,   418.22  L  1844.19,   418.22  " /><path style="stroke-width:1.42 ;&st7;  " d=" M  1696.19,   375.72  L  1691.22,   380.69  " /><path style="stroke-width:1.42 ;&st7;  " d=" M  1512.75,   185.23  L  1507.78,   180.26  " /><path style="stroke-width:1.42 ;&st7;  " d=" M  1507.78,   197.25  L  1512.75,   192.28  " /><path style="stroke-width:1.42 ;&st7;  " d=" M  1708.21,   380.69  L  1703.24,   375.72  " /><path style="stroke-width:1.42 ;&st7;  " d=" M  1703.24,   392.72  L  1708.21,   387.75  " /><path style="stroke-width:1.42 ;&st7;  " d=" M  1852.69,   363.70  L  1847.72,   358.73  " /><path style="stroke-width:1.42 ;&st7;  " d=" M  1835.69,   370.75  L  1840.66,   375.72  " /><path style="stroke-width:1.42 ;&st7;  " d=" M  1847.72,   375.72  L  1852.69,   370.75  " /><path style="stroke-width:1.42 ;&st7;  " d=" M  1840.66,   358.73  L  1835.69,   363.70  " /><path style="stroke-width:1.42 ;&st7;  " d=" M  1878.19,   482.68  L  1873.21,   477.71  " /><path style="stroke-width:1.42 ;&st7;  " d=" M  1861.19,   489.73  L  1866.16,   494.70  " /><path style="stroke-width:1.42 ;&st7;  " d=" M  1873.21,   494.70  L  1878.19,   489.73  " /><path style="stroke-width:1.42 ;&st7;  " d=" M  1866.16,   477.71  L  1861.19,   482.68  " /><path style="stroke-width:1.42 ;&st7;  " d=" M  1835.69,   163.26  L  1827.19,   163.26  " /><path style="stroke-width:1.42 ;&st7;  " d=" M  1937.68,   367.22  L  1929.18,   367.22  " /><text style="&st18;" transform="matrix(&st16;  1965.72  389.02 )">G-Y</text><text style="&st18;" transform="matrix(&st17;  1800.84  171.11 )">(RHD)</text><text style="&st18;" transform="matrix(&st17;  1789.5  164.87 )">R</text><text style="&st18;" transform="matrix(&st17;  1823.5  181.87 )">R</text><text style="&st18;" transform="matrix(&st17;  1823.5  143.62 )">R</text><text style="&st18;" transform="matrix(&st17;  1721.52  453.78 )">L</text><text style="&st18;" transform="matrix(&st17;  1732.85  460.03 )">(LHD)</text><text style="&st18;" transform="matrix(&st17;  1925.48  346.71 )">R-L</text><text style="&st18;" transform="matrix(&st17;  1936.81  349.58 )">(RHD)</text><text style="&st18;" transform="matrix(&st17;  1891.49  346.71 )">R-L</text><text style="&st18;" transform="matrix(&st17;  1902.82  349.54 )">(LHD)</text><text style="&st18;" transform="matrix(&st16;  1515.3  134.07 )">R-W(LHD)</text><text style="&st18;" transform="matrix(&st17;  1500.55  227.85 )">R-B</text><text style="&st18;" transform="matrix(&st17;  1511.89  230.6 )">(RHD)</text><text style="&st18;" transform="matrix(&st17;  1696.02  343.3 )">L</text><text style="&st18;" transform="matrix(&st17;  1707.35  349.58 )">(RHD)</text><text style="&st18;" transform="matrix(&st17;  1721.52  343.3 )">L</text><text style="&st18;" transform="matrix(&st17;  1732.85  349.54 )">(LHD)</text><text style="&st18;" transform="matrix(&st17;  1747.01  343.3 )">L</text><text style="&st18;" transform="matrix(&st17;  1758.34  349.58 )">(RHD)</text><text style="&st18;" transform="matrix(&st17;  1772.51  343.3 )">L</text><text style="&st18;" transform="matrix(&st17;  1783.84  349.54 )">(LHD)</text><text style="&st18;" transform="matrix(&st17;  1840.5  343.42 )">B</text><text style="&st18;" transform="matrix(&st17;  1851.83  349.58 )">(RHD)</text><text style="&st18;" transform="matrix(&st17;  1865.99  343.42 )">B</text><text style="&st18;" transform="matrix(&st17;  1877.32  349.54 )">(LHD)</text><text style="&st18;" transform="matrix(&st17;  1840.5  390.16 )">B</text><text style="&st18;" transform="matrix(&st17;  1851.83  396.32 )">(RHD)</text><text style="&st18;" transform="matrix(&st17;  1806.5  390.16 )">B</text><text style="&st18;" transform="matrix(&st17;  1817.83  396.32 )">(RHD)</text><text style="&st18;" transform="matrix(&st16;  1566.29  134.07 )">R-W(LHD)</text><text style="&st18;" transform="matrix(&st17;  1840.5  453.9 )">B</text><text style="&st18;" transform="matrix(&st17;  1851.83  460.06 )">(RHD)</text><text style="&st18;" transform="matrix(&st17;  1865.99  530.39 )">B</text><text style="&st18;" transform="matrix(&st17;  1851.83  536.51 )">(LHD)</text><text style="&st18;" transform="matrix(&st17;  1840.5  530.39 )">B</text><text style="&st18;" transform="matrix(&st16;  1901.49  482.51 )">B</text><text style="&st18;" transform="matrix(&st16;  1633.85  185.06 )">R-W</text><text style="&st18;" transform="matrix(&st16;  1572.42  570.33 )">(LHD)</text><text style="&st18;" transform="matrix(&st16;  1521.43  570.33 )">(LHD)</text><text style="&st18;" transform="matrix(&st16;  1574.36  151.06 )">R-W</text><text style="&st18;" transform="matrix(&st17;  1834.83  149.83 )">(LHD)</text><text style="&st18;" transform="matrix(&st17;  1834.83  188.07 )">(LHD)</text><text style="&st18;" transform="matrix(&st17;  1925.48  397.7 )">R-L</text><text style="&st18;" transform="matrix(&st17;  1936.81  400.57 )">(RHD)</text><text style="&st18;" transform="matrix(&st16;  1575.14  32.08 )">B-R</text><text style="&st18;" transform="matrix(&st16;  1524.14  32.08 )">B-R</text><text style="&st18;" transform="matrix(&st16;  1522.98  43.41 )">(*10)</text><text style="&st18;" transform="matrix(&st16;  1573.97  43.41 )">(*10)</text><text style="&st18;" transform="matrix(&st16;  1631.91  196.39 )">(LHD)</text><text style="&st18;" transform="matrix(&st16;  1523.37  151.06 )">R-W</text><text style="&st18;" transform="matrix(&st16;  1521.39  162.39 )">(RHD)</text><text style="&st18;" transform="matrix(&st16;  1572.38  162.39 )">(RHD)</text><text style="&st18;" transform="matrix(&st16;  1578.66  380.52 )">L</text><text style="&st18;" transform="matrix(&st16;  1527.67  380.52 )">L</text><text style="&st18;" transform="matrix(&st16;  1521.39  391.86 )">(RHD)</text><text style="&st18;" transform="matrix(&st16;  1572.38  391.86 )">(RHD)</text><text style="&st18;" transform="matrix(&st16;  1578.66  465.51 )">L</text><text style="&st18;" transform="matrix(&st16;  1527.67  465.51 )">L</text><text style="&st18;" transform="matrix(&st16;  1521.43  476.84 )">(LHD)</text><text style="&st18;" transform="matrix(&st16;  1572.42  476.84 )">(LHD)</text><text style="&st18;" transform="matrix(&st16;  1516.04  304.04 )">R-B(RHD)</text><text style="&st18;" transform="matrix(&st16;  1567.03  304.04 )">R-B(RHD)</text><text style="&st18;" transform="matrix(&st16;  1516.08  321.03 )">R-B(LHD)</text><text style="&st18;" transform="matrix(&st16;  1567.07  321.03 )">R-B(LHD)</text><text style="&st18;" transform="matrix(&st16;  1514.95  338.03 )">W-G(LHD)</text><text style="&st18;" transform="matrix(&st16;  1565.95  338.03 )">W-G(LHD)</text><text style="&st18;" transform="matrix(&st16;  1514.92  355.03 )">W-G(RHD)</text><text style="&st18;" transform="matrix(&st16;  1565.91  355.03 )">W-G(RHD)</text><text style="&st18;" transform="matrix(&st16;  1519.45  542.0 )">B(RHD)</text><text style="&st18;" transform="matrix(&st16;  1570.44  542.0 )">B(RHD)</text><text style="&st18;" transform="matrix(&st16;  1527.56  558.99 )">B</text><text style="&st18;" transform="matrix(&st16;  1578.55  558.99 )">B</text><text style="&st18;" transform="matrix(&st16;  1527.56  584.49 )">B</text><text style="&st18;" transform="matrix(&st16;  1578.55  584.49 )">B</text><text style="&st18;" transform="matrix(&st16;  1527.67  601.49 )">L</text><text style="&st18;" transform="matrix(&st16;  1578.66  601.49 )">L</text><text style="&st18;" transform="matrix(&st16;  1523.29  618.48 )">B-W</text><text style="&st18;" transform="matrix(&st16;  1574.28  618.48 )">B-W</text><text style="&st18;" transform="matrix(&st16;  1523.02  635.48 )">G-W</text><text style="&st18;" transform="matrix(&st16;  1574.01  635.48 )">G-W</text><text style="&st18;" transform="matrix(&st16;  1523.29  652.48 )">B-W</text><text style="&st18;" transform="matrix(&st16;  1574.28  652.48 )">B-W</text><text style="&st18;" transform="matrix(&st17;  1950.98  488.16 )">G</text><g ewd:figtype="rb" ewd:figID="6" ewd:code="FUSE46"><path style="stroke-width:1.42 ;&st7;  " d=" M  1829.32,   112.27  L  1825.07,   112.27  " /><path style="stroke-width:1.42 ;&st7;  " d=" M  1829.32,   120.77  L  1825.07,   120.77  " /><path style="stroke-width:0.85 ;&st7;  " d=" M  1827.19,    95.27  L  1827.19,   112.27  " /><path style="stroke-width:1.42 ;&st7;   " d=" M  1825.07,   112.27  C  1822.72    112.27   1820.82    114.17   1820.82    116.52  " /><path style="stroke-width:1.42 ;&st7;   " d=" M  1820.82,   116.52  C  1820.82    118.86   1822.72    120.77   1825.07    120.77  " /><path style="stroke-width:1.42 ;&st7;   " d=" M  1829.32,   120.77  C  1831.67    120.77   1833.57    118.86   1833.57    116.52  " /><path style="stroke-width:1.42 ;&st7;   " d=" M  1833.57,   116.52  C  1833.57    114.17   1831.67    112.27   1829.32    112.27  " /><path style="stroke-width:0.28 ;&st9;  " d=" M  1827.19,   107.37  L  1824.36,   104.54  L  1824.36,   108.79  L  1827.19,   111.62  L  1830.03,   108.79  L  1830.03,   104.54  L  1827.19,   107.37  " /><text style="&st18;" transform="matrix(&st16;  1843.62  73.17 )">10A <tspan x="0 " dy="6.0">ETCS</tspan></text><text style="&st18;" transform="matrix(&st16;  1825.39  118.49 )">4</text><text style="&st18;" transform="matrix(&st16;  1819.15  49.08 )">(BAT)</text><text style="&st18;" transform="matrix(&st16;  1821.01  103.46 )">2</text><path style="stroke-width:0.85 ;&st7;  " d=" M  1827.19,    86.77  L  1827.19,    95.27  " /><path style="stroke-width:1.42 ;&st7;   " d=" M  1827.19,    64.11  C  1824.46     65.72   1823.54     69.25   1825.16     71.99  " /><path style="stroke-width:1.42 ;&st7;   " d=" M  1825.16,    71.99  C  1825.68     72.87   1826.31     73.50   1827.19     74.02  " /><path style="stroke-width:1.42 ;&st7;   " d=" M  1827.19,    83.94  C  1829.93     82.32   1830.84     78.80   1829.23     76.06  " /><path style="stroke-width:1.42 ;&st7;   " d=" M  1829.23,    76.06  C  1828.71     75.18   1828.08     74.54   1827.19     74.02  " /><path style="stroke-width:0.85 ;&st7;   " d=" M  1828.61,    62.69  C  1828.61     61.91   1827.98     61.28   1827.19     61.28  " /><path style="stroke-width:0.85 ;&st7;   " d=" M  1827.19,    61.28  C  1826.41     61.28   1825.78     61.91   1825.78     62.69  " /><path style="stroke-width:0.85 ;&st7;   " d=" M  1825.78,    62.69  C  1825.78     63.47   1826.41     64.11   1827.19     64.11  " /><path style="stroke-width:0.85 ;&st7;   " d=" M  1827.19,    64.11  C  1827.98     64.11   1828.61     63.47   1828.61     62.69  " /><path style="stroke-width:0.85 ;&st7;   " d=" M  1828.61,    85.35  C  1828.61     84.57   1827.98     83.94   1827.19     83.94  " /><path style="stroke-width:0.85 ;&st7;   " d=" M  1827.19,    83.94  C  1826.41     83.94   1825.78     84.57   1825.78     85.35  " /><path style="stroke-width:0.85 ;&st7;   " d=" M  1825.78,    85.35  C  1825.78     86.14   1826.41     86.77   1827.19     86.77  " /><path style="stroke-width:0.85 ;&st7;   " d=" M  1827.19,    86.77  C  1827.98     86.77   1828.61     86.14   1828.61     85.35  " /><path style="stroke-width:1.42 ;&st7;  " d=" M  1814.45,    52.78  L  1814.45,    95.27  L  1839.94,    95.27  L  1839.94,    52.78  L  1814.45,    52.78  " /></g><g ewd:figtype="conn" ewd:figID="25" ewd:code="I56"><path style="stroke-width:1.42 ;&st7;  " d=" M  1716.71,   426.71  L  1784.70,   426.71  L  1784.70,   409.72  L  1716.71,   409.72  L  1716.71,   426.71  " /><path style="stroke-width:0.85 ;&st7;  " d=" M  1725.21,   409.72  L  1725.21,   426.71  " /><path style="stroke-width:0.85 ;&st7;  " d=" M  1725.21,   418.22  L  1776.20,   418.22  L  1776.20,   409.72  " /><path style="stroke-width:0.85 ;&st7;  " d=" M  1724.02,   417.21  L  1723.75,   417.68  L  1723.65,   418.22  L  1723.75,   418.75  L  1724.02,   419.22  L  1724.43,   419.56  L  1724.94,   419.75  L  1725.48,   419.75  L  1725.99,   419.56  L  1726.40,   419.22  L  1726.68,   418.75  L  1726.77,   418.22  L  1726.68,   417.68  L  1726.40,   417.21  L  1725.99,   416.87  L  1725.48,   416.68  L  1724.94,   416.68  L  1724.43,   416.87  L  1724.02,   417.21  L  1724.41,   417.92  L  1724.41,   418.51  L  1724.79,   418.95  L  1725.36,   419.05  L  1725.86,   418.76  L  1726.06,   418.22  L  1725.86,   417.67  L  1725.36,   417.38  L  1724.79,   417.48  L  1725.21,   418.22  " /><text style="&st18;" transform="matrix(&st16;  1719.03  406.03 )">3</text><text style="&st18;" transform="matrix(&st16;  1770.02  406.03 )">8</text><text style="&st18;" transform="matrix(&st16;  1719.03  434.91 )">2</text><g ewd:figtype="title"><text style="&st18;" transform="matrix(&st16;  1738.8  434.61 )">I56</text><text style="&st18;" transform="matrix(&st16;  1738.8  441.43 )" ewd:textID="59">No. 7 <tspan x="0 " dy="6.0">Junction </tspan><tspan x="0 " dy="6.0">Connector</tspan></text></g></g><g ewd:figtype="conn" ewd:figID="26" ewd:code="I19"><path style="stroke-width:1.42 ;&st7;  " d=" M  1954.67,   453.63  L  1949.01,   430.96  " /><path style="stroke-width:0.85 ;&st7;  " d=" M  1954.67,   460.71  L  1954.67,   456.46  " /><path style="stroke-width:0.85 ;&st7;  " d=" M  1954.67,   430.96  L  1954.67,   426.71  " /><path style="stroke-width:1.42 ;&st7;  " d=" M  1929.18,   453.63  L  1930.87,   429.51  " /><path style="stroke-width:0.85 ;&st7;  " d=" M  1929.18,   460.71  L  1929.18,   456.46  " /><path style="stroke-width:0.85 ;&st7;  " d=" M  1929.18,   430.96  L  1929.18,   426.71  " /><path style="stroke-width:0.85 ;&st7;   " d=" M  1956.09,   455.04  C  1956.09    454.26   1955.46    453.63   1954.67    453.63  " /><path style="stroke-width:0.85 ;&st7;   " d=" M  1954.67,   453.63  C  1953.89    453.63   1953.26    454.26   1953.26    455.04  " /><path style="stroke-width:0.85 ;&st7;   " d=" M  1953.26,   455.04  C  1953.26    455.82   1953.89    456.46   1954.67    456.46  " /><path style="stroke-width:0.85 ;&st7;   " d=" M  1954.67,   456.46  C  1955.46    456.46   1956.09    455.82   1956.09    455.04  " /><path style="stroke-width:0.85 ;&st7;   " d=" M  1956.09,   432.38  C  1956.09    431.60   1955.46    430.96   1954.67    430.96  " /><path style="stroke-width:0.85 ;&st7;   " d=" M  1954.67,   430.96  C  1953.89    430.96   1953.26    431.60   1953.26    432.38  " /><path style="stroke-width:0.85 ;&st7;   " d=" M  1953.26,   432.38  C  1953.26    433.16   1953.89    433.80   1954.67    433.80  " /><path style="stroke-width:0.85 ;&st7;   " d=" M  1954.67,   433.80  C  1955.46    433.80   1956.09    433.16   1956.09    432.38  " /><path style="stroke-width:0.85 ;&st7;   " d=" M  1930.59,   455.04  C  1930.59    454.26   1929.96    453.63   1929.18    453.63  " /><path style="stroke-width:0.85 ;&st7;   " d=" M  1929.18,   453.63  C  1928.40    453.63   1927.76    454.26   1927.76    455.04  " /><path style="stroke-width:0.85 ;&st7;   " d=" M  1927.76,   455.04  C  1927.76    455.82   1928.40    456.46   1929.18    456.46  " /><path style="stroke-width:0.85 ;&st7;   " d=" M  1929.18,   456.46  C  1929.96    456.46   1930.59    455.82   1930.59    455.04  " /><path style="stroke-width:0.85 ;&st7;   " d=" M  1930.59,   432.38  C  1930.59    431.60   1929.96    430.96   1929.18    430.96  " /><path style="stroke-width:0.85 ;&st7;   " d=" M  1929.18,   430.96  C  1928.40    430.96   1927.76    431.60   1927.76    432.38  " /><path style="stroke-width:0.85 ;&st7;   " d=" M  1927.76,   432.38  C  1927.76    433.16   1928.40    433.80   1929.18    433.80  " /><path style="stroke-width:0.85 ;&st7;   " d=" M  1929.18,   433.80  C  1929.96    433.80   1930.59    433.16   1930.59    432.38  " /><path style="stroke-width:1.42 ;&st7;  " d=" M  1963.17,   426.71  L  1963.17,   460.71  L  1920.68,   460.71  L  1920.68,   426.71  L  1963.17,   426.71  " /><path style="stroke-width: 0.85 ;&st7; stroke-dasharray:3, 1.5;" d=" M  1952.19,   443.71  L  1929.87,   443.71  " /><text style="&st18;" transform="matrix(&st16;  1920.48  467.21 )">3</text><path style="stroke-width:1.42 ;&st7;   " d=" M  1933.71,   465.24  C  1933.71    462.74   1931.68    460.71   1929.18    460.71  " /><path style="stroke-width:1.42 ;&st7;   " d=" M  1929.18,   460.71  C  1926.67    460.71   1924.65    462.74   1924.65    465.24  " /><path style="stroke-width:1.42 ;&st7;   " d=" M  1924.65,   465.24  C  1924.65    467.74   1926.67    469.77   1929.18    469.77  " /><path style="stroke-width:1.42 ;&st7;   " d=" M  1929.18,   469.77  C  1931.68    469.77   1933.71    467.74   1933.71    465.24  " /><text style="&st18;" transform="matrix(&st16;  1926.87  467.21 )">A</text><text style="&st18;" transform="matrix(&st16;  1920.48  424.15 )">4</text><text style="&st18;" transform="matrix(&st16;  1926.87  424.15 )">A</text><path style="stroke-width:1.42 ;&st7;   " d=" M  1933.71,   422.18  C  1933.71    419.68   1931.68    417.65   1929.18    417.65  " /><path style="stroke-width:1.42 ;&st7;   " d=" M  1929.18,   417.65  C  1926.67    417.65   1924.65    419.68   1924.65    422.18  " /><path style="stroke-width:1.42 ;&st7;   " d=" M  1924.65,   422.18  C  1924.65    424.68   1926.67    426.71   1929.18    426.71  " /><path style="stroke-width:1.42 ;&st7;   " d=" M  1929.18,   426.71  C  1931.68    426.71   1933.71    424.68   1933.71    422.18  " /><text style="&st18;" transform="matrix(&st16;  1945.98  467.21 )">1</text><text style="&st18;" transform="matrix(&st16;  1952.37  467.21 )">A</text><path style="stroke-width:1.42 ;&st7;   " d=" M  1959.21,   465.24  C  1959.21    462.74   1957.18    460.71   1954.67    460.71  " /><path style="stroke-width:1.42 ;&st7;   " d=" M  1954.67,   460.71  C  1952.17    460.71   1950.14    462.74   1950.14    465.24  " /><path style="stroke-width:1.42 ;&st7;   " d=" M  1950.14,   465.24  C  1950.14    467.74   1952.17    469.77   1954.67    469.77  " /><path style="stroke-width:1.42 ;&st7;   " d=" M  1954.67,   469.77  C  1957.18    469.77   1959.21    467.74   1959.21    465.24  " /><text style="&st18;" transform="matrix(&st16;  1945.98  424.15 )">2</text><path style="stroke-width:1.42 ;&st7;   " d=" M  1959.21,   422.18  C  1959.21    419.68   1957.18    417.65   1954.67    417.65  " /><path style="stroke-width:1.42 ;&st7;   " d=" M  1954.67,   417.65  C  1952.17    417.65   1950.14    419.68   1950.14    422.18  " /><path style="stroke-width:1.42 ;&st7;   " d=" M  1950.14,   422.18  C  1950.14    424.68   1952.17    426.71   1954.67    426.71  " /><path style="stroke-width:1.42 ;&st7;   " d=" M  1954.67,   426.71  C  1957.18    426.71   1959.21    424.68   1959.21    422.18  " /><text style="&st18;" transform="matrix(&st16;  1952.37  424.15 )">A</text><g ewd:figtype="title"><text style="&st18;" transform="matrix(&st17;  1977.89  463.61 )" ewd:textID="86">Stop Light <tspan x="0 " dy="6.0">Switch Assembly</tspan></text><text style="&st18;" transform="matrix(&st17;  1971.07  463.61 )">I19(A)</text></g></g><g ewd:figtype="rb" ewd:figID="59" ewd:code="FUSE33"><path style="stroke-width:1.42 ;&st7;   " d=" M  2007.79,   375.72  C  2010.14    375.72   2012.04    373.82   2012.04    371.47  " /><path style="stroke-width:1.42 ;&st7;   " d=" M  2012.04,   371.47  C  2012.04    369.13   2010.14    367.22   2007.79    367.22  " /><path style="stroke-width:1.42 ;&st7;   " d=" M  2003.54,   367.22  C  2001.19    367.22   1999.29    369.13   1999.29    371.47  " /><path style="stroke-width:1.42 ;&st7;   " d=" M  1999.29,   371.47  C  1999.29    373.82   2001.19    375.72   2003.54    375.72  " /><path style="stroke-width:1.42 ;&st7;  " d=" M  2007.79,   367.22  L  2003.54,   367.22  " /><path style="stroke-width:1.42 ;&st7;  " d=" M  2007.79,   375.72  L  2003.54,   375.72  " /><path style="stroke-width:0.85 ;&st7;  " d=" M  2005.66,   350.23  L  2005.66,   367.22  " /><path style="stroke-width:0.28 ;&st9;  " d=" M  2005.66,   362.33  L  2002.83,   359.50  L  2002.83,   363.75  L  2005.66,   366.58  L  2008.50,   363.75  L  2008.50,   359.50  L  2005.66,   362.33  " /><text style="&st18;" transform="matrix(&st16;  2022.09  328.12 )">30A <tspan x="0 " dy="6.0">STOP</tspan></text><text style="&st18;" transform="matrix(&st16;  2003.86  373.44 )">2</text><text style="&st18;" transform="matrix(&st16;  1999.48  358.42 )">2</text><text style="&st18;" transform="matrix(&st16;  2000.06  304.04 )">(ST)</text><path style="stroke-width:0.85 ;&st7;   " d=" M  2007.08,   317.65  C  2007.08    316.87   2006.45    316.23   2005.66    316.23  " /><path style="stroke-width:0.85 ;&st7;   " d=" M  2005.66,   316.23  C  2004.88    316.23   2004.25    316.87   2004.25    317.65  " /><path style="stroke-width:0.85 ;&st7;   " d=" M  2004.25,   317.65  C  2004.25    318.43   2004.88    319.07   2005.66    319.07  " /><path style="stroke-width:0.85 ;&st7;   " d=" M  2005.66,   319.07  C  2006.45    319.07   2007.08    318.43   2007.08    317.65  " /><path style="stroke-width:0.85 ;&st7;   " d=" M  2007.08,   340.31  C  2007.08    339.53   2006.45    338.90   2005.66    338.90  " /><path style="stroke-width:0.85 ;&st7;   " d=" M  2005.66,   338.90  C  2004.88    338.90   2004.25    339.53   2004.25    340.31  " /><path style="stroke-width:0.85 ;&st7;   " d=" M  2004.25,   340.31  C  2004.25    341.09   2004.88    341.73   2005.66    341.73  " /><path style="stroke-width:0.85 ;&st7;   " d=" M  2005.66,   341.73  C  2006.45    341.73   2007.08    341.09   2007.08    340.31  " /><path style="stroke-width:0.85 ;&st7;  " d=" M  2005.66,   341.73  L  2005.66,   350.23  " /><path style="stroke-width:1.42 ;&st7;   " d=" M  2005.66,   319.07  C  2002.93    320.68   2002.02    324.21   2003.63    326.94  " /><path style="stroke-width:1.42 ;&st7;   " d=" M  2003.63,   326.94  C  2004.15    327.83   2004.78    328.46   2005.66    328.98  " /><path style="stroke-width:1.42 ;&st7;   " d=" M  2005.66,   338.90  C  2008.40    337.28   2009.31    333.76   2007.70    331.02  " /><path style="stroke-width:1.42 ;&st7;   " d=" M  2007.70,   331.02  C  2007.18    330.14   2006.55    329.50   2005.66    328.98  " /><path style="stroke-width:1.42 ;&st7;  " d=" M  1992.92,   307.73  L  1992.92,   350.23  L  2018.41,   350.23  L  2018.41,   307.73  L  1992.92,   307.73  " /></g><g ewd:figtype="conn" ewd:figID="66" ewd:code="A29,C39,I84"><path style="stroke-width: 0.85 ;&st7; stroke-dasharray:3, 1.5;" d=" M  1623.23,   209.15  L  1814.45,   209.15  " /><path style="stroke-width: 0.85 ;&st7; stroke-dasharray:3, 1.5;" d=" M  1623.23,   218.22  L  1814.45,   218.22  " /><path style="stroke-width: 0.85 ;&st7; stroke-dasharray:3, 1.5;" d=" M  1623.23,   278.27  L  1640.23,   278.27  " /><path style="stroke-width: 0.85 ;&st7; stroke-dasharray:3, 1.5;" d=" M  1623.23,   287.34  L  1640.23,   287.34  " /><path style="stroke-width: 0.85 ;&st7; stroke-dasharray:3, 1.5;" d=" M  1665.72,   287.34  L  1686.97,   287.34  " /><path style="stroke-width: 0.85 ;&st7; stroke-dasharray:3, 1.5;" d=" M  1665.72,   278.27  L  1686.97,   278.27  " /><path style="stroke-width: 0.85 ;&st7; stroke-dasharray:3, 1.5;" d=" M  1708.21,   278.27  L  1737.96,   278.27  " /><path style="stroke-width: 0.85 ;&st7; stroke-dasharray:3, 1.5;" d=" M  1708.21,   287.34  L  1737.96,   287.34  " /><path style="stroke-width: 0.85 ;&st7; stroke-dasharray:3, 1.5;" d=" M  1759.21,   278.27  L  1827.19,   278.27  " /><path style="stroke-width: 0.85 ;&st7; stroke-dasharray:3, 1.5;" d=" M  1759.21,   287.34  L  1827.19,   287.34  " /><path style="stroke-width: 0.85 ;&st7; stroke-dasharray:3, 1.5;" d=" M  1852.69,   278.27  L  1912.18,   278.27  " /><path style="stroke-width: 0.85 ;&st7; stroke-dasharray:3, 1.5;" d=" M  1852.69,   287.34  L  1912.18,   287.34  " /><path style="stroke-width:1.42 ;&st7;  " d=" M  6900.84,   222.75  L  6900.84,   273.74  L  1597.73,   273.74  L  1597.73,   222.75  L  6900.84,   222.75  " /><g ewd:lineID="100,101"><text style="&st18;" transform="matrix(&st16;  1691.02  280.24 )">2</text><text style="&st18;" transform="matrix(&st16;  1691.02  289.31 )">2</text><path style="stroke-width:1.42 ;&st7;   " d=" M  1704.25,   278.27  C  1704.25    275.77   1702.22    273.74   1699.72    273.74  " /><path style="stroke-width:1.42 ;&st7;   " d=" M  1699.72,   273.74  C  1697.21    273.74   1695.18    275.77   1695.18    278.27  " /><path style="stroke-width:1.42 ;&st7;   " d=" M  1695.18,   278.27  C  1695.18    280.78   1697.21    282.80   1699.72    282.80  " /><path style="stroke-width:1.42 ;&st7;   " d=" M  1699.72,   282.80  C  1702.22    282.80   1704.25    280.78   1704.25    278.27  " /><text style="&st18;" transform="matrix(&st16;  1697.3  280.24 )">C</text><path style="stroke-width:1.42 ;&st7;   " d=" M  1704.25,   287.34  C  1704.25    284.83   1702.22    282.80   1699.72    282.80  " /><path style="stroke-width:1.42 ;&st7;   " d=" M  1699.72,   282.80  C  1697.21    282.80   1695.18    284.83   1695.18    287.34  " /><path style="stroke-width:1.42 ;&st7;   " d=" M  1695.18,   287.34  C  1695.18    289.84   1697.21    291.87   1699.72    291.87  " /><path style="stroke-width:1.42 ;&st7;   " d=" M  1699.72,   291.87  C  1702.22    291.87   1704.25    289.84   1704.25    287.34  " /><text style="&st18;" transform="matrix(&st16;  1697.41  289.31 )">A</text><text style="&st18;" transform="matrix(&st16;  1695.98  270.04 )">+B</text></g><g ewd:lineID="102,103"><text style="&st18;" transform="matrix(&st16;  1742.01  280.24 )">1</text><text style="&st18;" transform="matrix(&st16;  1742.01  289.31 )">1</text><path style="stroke-width:1.42 ;&st7;   " d=" M  1755.24,   287.34  C  1755.24    284.83   1753.21    282.80   1750.71    282.80  " /><path style="stroke-width:1.42 ;&st7;   " d=" M  1750.71,   282.80  C  1748.20    282.80   1746.17    284.83   1746.17    287.34  " /><path style="stroke-width:1.42 ;&st7;   " d=" M  1746.17,   287.34  C  1746.17    289.84   1748.20    291.87   1750.71    291.87  " /><path style="stroke-width:1.42 ;&st7;   " d=" M  1750.71,   291.87  C  1753.21    291.87   1755.24    289.84   1755.24    287.34  " /><text style="&st18;" transform="matrix(&st16;  1748.29  280.24 )">C</text><path style="stroke-width:1.42 ;&st7;   " d=" M  1755.24,   278.27  C  1755.24    275.77   1753.21    273.74   1750.71    273.74  " /><path style="stroke-width:1.42 ;&st7;   " d=" M  1750.71,   273.74  C  1748.20    273.74   1746.17    275.77   1746.17    278.27  " /><path style="stroke-width:1.42 ;&st7;   " d=" M  1746.17,   278.27  C  1746.17    280.78   1748.20    282.80   1750.71    282.80  " /><path style="stroke-width:1.42 ;&st7;   " d=" M  1750.71,   282.80  C  1753.21    282.80   1755.24    280.78   1755.24    278.27  " /><text style="&st18;" transform="matrix(&st16;  1748.4  289.31 )">A</text><text style="&st18;" transform="matrix(&st16;  1745.42  270.04 )">+B2</text></g><g ewd:lineID="104,106"><text style="&st18;" transform="matrix(&st16;  1818.5  220.18 )">3</text><text style="&st18;" transform="matrix(&st16;  1818.5  211.12 )">3</text><path style="stroke-width:1.42 ;&st7;   " d=" M  1831.73,   209.15  C  1831.73    206.65   1829.70    204.62   1827.19    204.62  " /><path style="stroke-width:1.42 ;&st7;   " d=" M  1827.19,   204.62  C  1824.69    204.62   1822.66    206.65   1822.66    209.15  " /><path style="stroke-width:1.42 ;&st7;   " d=" M  1822.66,   209.15  C  1822.66    211.65   1824.69    213.68   1827.19    213.68  " /><path style="stroke-width:1.42 ;&st7;   " d=" M  1827.19,   213.68  C  1829.70    213.68   1831.73    211.65   1831.73    209.15  " /><path style="stroke-width:1.42 ;&st7;   " d=" M  1831.73,   218.22  C  1831.73    215.71   1829.70    213.68   1827.19    213.68  " /><path style="stroke-width:1.42 ;&st7;   " d=" M  1827.19,   213.68  C  1824.69    213.68   1822.66    215.71   1822.66    218.22  " /><path style="stroke-width:1.42 ;&st7;   " d=" M  1822.66,   218.22  C  1822.66    220.72   1824.69    222.75   1827.19    222.75  " /><path style="stroke-width:1.42 ;&st7;   " d=" M  1827.19,   222.75  C  1829.70    222.75   1831.73    220.72   1831.73    218.22  " /><text style="&st18;" transform="matrix(&st16;  1824.77  211.12 )">C</text><text style="&st18;" transform="matrix(&st16;  1824.89  220.18 )">A</text><text style="&st18;" transform="matrix(&st16;  1820.97  230.38 )">+BM</text></g><g ewd:lineID="110,111"><text style="&st18;" transform="matrix(&st16;  1832.4  289.31 )">28</text><text style="&st18;" transform="matrix(&st16;  1832.4  280.24 )">28</text><text style="&st18;" transform="matrix(&st16;  1841.77  280.24 )">C</text><path style="stroke-width:1.42 ;&st7;   " d=" M  1848.72,   287.34  C  1848.72    284.83   1846.70    282.80   1844.19    282.80  " /><path style="stroke-width:1.42 ;&st7;   " d=" M  1844.19,   282.80  C  1841.69    282.80   1839.66    284.83   1839.66    287.34  " /><path style="stroke-width:1.42 ;&st7;   " d=" M  1839.66,   287.34  C  1839.66    289.84   1841.69    291.87   1844.19    291.87  " /><path style="stroke-width:1.42 ;&st7;   " d=" M  1844.19,   291.87  C  1846.70    291.87   1848.72    289.84   1848.72    287.34  " /><text style="&st18;" transform="matrix(&st16;  1841.89  289.31 )">A</text><path style="stroke-width:1.42 ;&st7;   " d=" M  1848.72,   278.27  C  1848.72    275.77   1846.70    273.74   1844.19    273.74  " /><path style="stroke-width:1.42 ;&st7;   " d=" M  1844.19,   273.74  C  1841.69    273.74   1839.66    275.77   1839.66    278.27  " /><path style="stroke-width:1.42 ;&st7;   " d=" M  1839.66,   278.27  C  1839.66    280.78   1841.69    282.80   1844.19    282.80  " /><path style="stroke-width:1.42 ;&st7;   " d=" M  1844.19,   282.80  C  1846.70    282.80   1848.72    280.78   1848.72    278.27  " /><text style="&st18;" transform="matrix(&st16;  1836.58  270.04 )">IGSW</text></g><g ewd:lineID="114,115"><text style="&st18;" transform="matrix(&st16;  1917.38  280.24 )">35</text><text style="&st18;" transform="matrix(&st16;  1917.38  289.31 )">35</text><path style="stroke-width:1.42 ;&st7;   " d=" M  1933.71,   287.34  C  1933.71    284.83   1931.68    282.80   1929.18    282.80  " /><path style="stroke-width:1.42 ;&st7;   " d=" M  1929.18,   282.80  C  1926.67    282.80   1924.65    284.83   1924.65    287.34  " /><path style="stroke-width:1.42 ;&st7;   " d=" M  1924.65,   287.34  C  1924.65    289.84   1926.67    291.87   1929.18    291.87  " /><path style="stroke-width:1.42 ;&st7;   " d=" M  1929.18,   291.87  C  1931.68    291.87   1933.71    289.84   1933.71    287.34  " /><text style="&st18;" transform="matrix(&st16;  1926.87  289.31 )">A</text><path style="stroke-width:1.42 ;&st7;   " d=" M  1933.71,   278.27  C  1933.71    275.77   1931.68    273.74   1929.18    273.74  " /><path style="stroke-width:1.42 ;&st7;   " d=" M  1929.18,   273.74  C  1926.67    273.74   1924.65    275.77   1924.65    278.27  " /><path style="stroke-width:1.42 ;&st7;   " d=" M  1924.65,   278.27  C  1924.65    280.78   1926.67    282.80   1929.18    282.80  " /><path style="stroke-width:1.42 ;&st7;   " d=" M  1929.18,   282.80  C  1931.68    282.80   1933.71    280.78   1933.71    278.27  " /><text style="&st18;" transform="matrix(&st16;  1926.76  280.24 )">C</text><text style="&st18;" transform="matrix(&st16;  1922.34  270.04 )">ST1-</text></g><g ewd:lineID="92,93"><text style="&st18;" transform="matrix(&st16;  1602.93  289.31 )">20</text><text style="&st18;" transform="matrix(&st16;  1602.93  280.24 )">20</text><path style="stroke-width:1.42 ;&st7;   " d=" M  1619.26,   287.34  C  1619.26    284.83   1617.23    282.80   1614.73    282.80  " /><path style="stroke-width:1.42 ;&st7;   " d=" M  1614.73,   282.80  C  1612.23    282.80   1610.20    284.83   1610.20    287.34  " /><path style="stroke-width:1.42 ;&st7;   " d=" M  1610.20,   287.34  C  1610.20    289.84   1612.23    291.87   1614.73    291.87  " /><path style="stroke-width:1.42 ;&st7;   " d=" M  1614.73,   291.87  C  1617.23    291.87   1619.26    289.84   1619.26    287.34  " /><path style="stroke-width:1.42 ;&st7;   " d=" M  1619.26,   278.27  C  1619.26    275.77   1617.23    273.74   1614.73    273.74  " /><path style="stroke-width:1.42 ;&st7;   " d=" M  1614.73,   273.74  C  1612.23    273.74   1610.20    275.77   1610.20    278.27  " /><path style="stroke-width:1.42 ;&st7;   " d=" M  1610.20,   278.27  C  1610.20    280.78   1612.23    282.80   1614.73    282.80  " /><path style="stroke-width:1.42 ;&st7;   " d=" M  1614.73,   282.80  C  1617.23    282.80   1619.26    280.78   1619.26    278.27  " /><text style="&st18;" transform="matrix(&st16;  1612.43  289.31 )">A</text><text style="&st18;" transform="matrix(&st16;  1612.31  280.24 )">C</text><text style="&st18;" transform="matrix(&st16;  1606.61  270.04 )">BATT</text></g><g ewd:lineID="94,97"><text style="&st18;" transform="matrix(&st16;  1606.04  211.12 )">7</text><text style="&st18;" transform="matrix(&st16;  1606.04  220.18 )">7</text><text style="&st18;" transform="matrix(&st16;  1612.31  211.12 )">C</text><path style="stroke-width:1.42 ;&st7;   " d=" M  1619.26,   209.15  C  1619.26    206.65   1617.23    204.62   1614.73    204.62  " /><path style="stroke-width:1.42 ;&st7;   " d=" M  1614.73,   204.62  C  1612.23    204.62   1610.20    206.65   1610.20    209.15  " /><path style="stroke-width:1.42 ;&st7;   " d=" M  1610.20,   209.15  C  1610.20    211.65   1612.23    213.68   1614.73    213.68  " /><path style="stroke-width:1.42 ;&st7;   " d=" M  1614.73,   213.68  C  1617.23    213.68   1619.26    211.65   1619.26    209.15  " /><path style="stroke-width:1.42 ;&st7;   " d=" M  1619.26,   218.22  C  1619.26    215.71   1617.23    213.68   1614.73    213.68  " /><path style="stroke-width:1.42 ;&st7;   " d=" M  1614.73,   213.68  C  1612.23    213.68   1610.20    215.71   1610.20    218.22  " /><path style="stroke-width:1.42 ;&st7;   " d=" M  1610.20,   218.22  C  1610.20    220.72   1612.23    222.75   1614.73    222.75  " /><path style="stroke-width:1.42 ;&st7;   " d=" M  1614.73,   222.75  C  1617.23    222.75   1619.26    220.72   1619.26    218.22  " /><text style="&st18;" transform="matrix(&st16;  1612.43  220.18 )">A</text><text style="&st18;" transform="matrix(&st16;  1610.45  230.38 )">FC</text></g><g ewd:lineID="95,96"><text style="&st18;" transform="matrix(&st16;  1645.43  289.31 )">44</text><text style="&st18;" transform="matrix(&st16;  1645.43  280.24 )">44</text><path style="stroke-width:1.42 ;&st7;   " d=" M  1661.76,   278.27  C  1661.76    275.77   1659.73    273.74   1657.22    273.74  " /><path style="stroke-width:1.42 ;&st7;   " d=" M  1657.22,   273.74  C  1654.72    273.74   1652.69    275.77   1652.69    278.27  " /><path style="stroke-width:1.42 ;&st7;   " d=" M  1652.69,   278.27  C  1652.69    280.78   1654.72    282.80   1657.22    282.80  " /><path style="stroke-width:1.42 ;&st7;   " d=" M  1657.22,   282.80  C  1659.73    282.80   1661.76    280.78   1661.76    278.27  " /><path style="stroke-width:1.42 ;&st7;   " d=" M  1661.76,   287.34  C  1661.76    284.83   1659.73    282.80   1657.22    282.80  " /><path style="stroke-width:1.42 ;&st7;   " d=" M  1657.22,   282.80  C  1654.72    282.80   1652.69    284.83   1652.69    287.34  " /><path style="stroke-width:1.42 ;&st7;   " d=" M  1652.69,   287.34  C  1652.69    289.84   1654.72    291.87   1657.22    291.87  " /><path style="stroke-width:1.42 ;&st7;   " d=" M  1657.22,   291.87  C  1659.73    291.87   1661.76    289.84   1661.76    287.34  " /><text style="&st18;" transform="matrix(&st16;  1654.8  280.24 )">C</text><text style="&st18;" transform="matrix(&st16;  1654.92  289.31 )">A</text><text style="&st18;" transform="matrix(&st16;  1648.95  270.04 )">MREL</text></g><g ewd:figtype="title"><text style="&st18;" transform="matrix(&st16;  1645.32  254.46 )">ECM</text><text style="&st18;" transform="matrix(&st16;  1645.31  247.64 )">A29(A),C39(B),I84(C)</text></g></g><g ewd:figtype="w2w" ewd:figID="146" ewd:code="AI3"><path style="stroke-width:1.42 ;&st7;  " d=" M  1669.97,   172.32  L  1665.72,   168.07  L  1661.47,   172.32  " /><path style="stroke-width:1.42 ;&st7;  " d=" M  1669.97,   168.92  L  1665.72,   164.67  L  1661.47,   168.92  " /><text style="&st18;" transform="matrix(&st16;  1649.99  160.98 )">12</text></g><g ewd:figtype="w2w" ewd:figID="147" ewd:code="AI6"><path style="stroke-width:1.42 ;&st7;  " d=" M  1831.44,   172.32  L  1827.19,   168.07  L  1822.94,   172.32  " /><path style="stroke-width:1.42 ;&st7;  " d=" M  1831.44,   168.92  L  1827.19,   164.67  L  1822.94,   168.92  " /><text style="&st18;" transform="matrix(&st16;  1814.56  160.98 )">1</text></g><g ewd:figtype="w2w" ewd:figID="148" ewd:code="AI3"><path style="stroke-width:1.42 ;&st7;  " d=" M  1848.44,   427.28  L  1844.19,   423.03  L  1839.94,   427.28  " /><path style="stroke-width:1.42 ;&st7;  " d=" M  1848.44,   423.88  L  1844.19,   419.63  L  1839.94,   423.88  " /><text style="&st18;" transform="matrix(&st16;  1828.46  415.94 )">53</text></g><g ewd:figtype="w2w" ewd:figID="149" ewd:code="AI3"><path style="stroke-width:1.42 ;&st7;  " d=" M  1933.43,   372.89  L  1929.18,   368.64  L  1924.93,   372.89  " /><path style="stroke-width:1.42 ;&st7;  " d=" M  1933.43,   376.29  L  1929.18,   372.04  L  1924.93,   376.29  " /><text style="&st18;" transform="matrix(&st16;  1916.55  364.94 )">9</text></g><g ewd:code="" ewd:figID="344" ewd:comment="" ewd:figtype="commref"><text style="&st18;" transform="matrix(&st16;  1934.27  289.31 )">(RHD)</text></g><g ewd:code="" ewd:figID="345" ewd:comment="" ewd:figtype="commref"><text style="&st18;" transform="matrix(&st16;  1934.27  280.24 )">(LHD)</text></g><g ewd:code="" ewd:figID="373" ewd:comment="" ewd:figtype="commref"><text style="&st18;" transform="matrix(&st16;  1832.29  220.18 )">(RHD)</text></g><g ewd:code="" ewd:figID="374" ewd:comment="" ewd:figtype="commref"><text style="&st18;" transform="matrix(&st16;  1832.29  211.12 )">(LHD)</text></g><g ewd:code="10" ewd:figID="395" ewd:comment="" ewd:figtype="comment"><text style="&st18;" transform="matrix(&st16;  1908.77  105.74 )" ewd:textID="11">*10 :w/ PMP SELECT Relay</text></g></svg>