<?xml version="1.0" encoding="utf-8"?>
<!DOCTYPE svg PUBLIC "-//W3C//DTD SVG 1.0//EN" "http://www.w3.org/TR/2001/REC-SVG-20010904/DTD/svg10.dtd"[
	<!ENTITY ns_flows "http://ns.adobe.com/Flows/1.0/">
	<!ENTITY ns_svg "http://www.w3.org/2000/svg">
	<!ENTITY ns_xlink "http://www.w3.org/1999/xlink">
	<!ENTITY st0 "font-size:7px;font-family:'MS-PGothic';adobe-font-script:japanese;">
	<!ENTITY st1 "font-size:6px;font-family:'ArialMT';">
	<!-- White fill  -->
	<!ENTITY st2 "fill:#FFFFFF;stroke:#000000; stroke-width:1.41;stroke-linecap:round;stroke-linejoin:round;">
	<!-- Yellow fill  -->
	<!ENTITY st3 "fill:#FFFFCC;stroke:#FFFFCC; stroke-width:0.1;stroke-linecap:round;stroke-linejoin:round;">
	<!-- Gray fill  -->
	<!ENTITY st4 "fill:#CCCCCC;stroke:#CCCCCC; stroke-width:0.1;stroke-linecap:round;stroke-linejoin:round;">
	<!-- Light-blue fill -->
	<!ENTITY st5 "fill:#CCECF4;stroke:#000000; stroke-width:1.133;stroke-linecap:round;stroke-linejoin:round;">
	<!ENTITY st6 "fill:none;stroke-linecap:butt; stroke-linejoin:round;">
	<!ENTITY st7 "fill:none;stroke:#000000;stroke-linecap:round;stroke-linejoin:round;">
	<!ENTITY st8 "enable-background:new    ;">
	<!-- Black fill -->
	<!ENTITY st9 "fill:#000000;stroke:#000000; stroke-linecap:round;stroke-linejoin:round;">
	<!-- SRS note   -->
	<!ENTITY st10 "font-size:9px;font-family:'ArialMT';">
	<!ENTITY st11 "font-size:9px;font-family:'Svg Symbol';">
	<!ENTITY st12 "font-size:6px;font-family:'Svg Symbol';">
	<!ENTITY st13 "fill:none;stroke:#ff0000;stroke-linecap:round;stroke-linejoin:round;">
	<!-- Yellow fill  -->
	<!ENTITY st14 "fill:#FFFF00;stroke:#FFFF00; stroke-width:0.1;stroke-linecap:round;stroke-linejoin:round;">
	<!ENTITY st15 "font-size:6px;font-family:'MS-PGothic';adobe-font-script:japanese;">
	<!ENTITY st16 "1.00 0.00 0.00 1.00">
	<!ENTITY st17 "0.00 -1.00 1.00 0.00">
	<!ENTITY st18 "font-size:6px;font-family:'Arial';">
	<!ENTITY st19 "font-size:9px;font-family:'Arial';">
	<!ENTITY st20 "font-size:6px;font-family:'MS-PGothic','MS PGothic';adobe-font-script:japanese;">
	<!ENTITY st21 "font-size:7px;font-family:'MS-PGothic','MS PGothic';adobe-font-script:japanese;">
	<!ATTLIST svg
		xmlns:ewd CDATA #FIXED "http://shcl.co.jp/ewd"
		xmlns:a CDATA #FIXED "http://ns.adobe.com/AdobeSVGViewerExtensions/3.0/"
		ewd:ver CDATA #IMPLIED
	>
	<!ATTLIST a
		ewd:lineID CDATA #IMPLIED
		ewd:groupID CDATA #IMPLIED
		ewd:figtype CDATA #IMPLIED
		ewd:code CDATA #IMPLIED
		ewd:figID CDATA #IMPLIED
		ewd:pinNo CDATA #IMPLIED
		ewd:comment CDATA #IMPLIED >
	<!ATTLIST g
		ewd:lineID CDATA #IMPLIED
		ewd:groupID CDATA #IMPLIED
		ewd:figtype CDATA #IMPLIED
		ewd:code CDATA #IMPLIED
		ewd:figID CDATA #IMPLIED
		ewd:pinNo CDATA #IMPLIED
		ewd:comment CDATA #IMPLIED >
	<!ATTLIST text
		ewd:textID CDATA #IMPLIED >
	<!ATTLIST title
		ewd:textID CDATA #IMPLIED >
]>
<!-- Generator: Shintec Hozumi YS   -->
<svg onload="call_execInitLoadProc_svg('system')" style="overflow:visible;  enable-background:new 0 0 8273.908 710.000" viewBox="0 0 8273.908 710.000" height="710.000" width="8273.908" xml:space="preserve" ewd:ver="2.1.2.9" xmlns="&ns_svg;" xmlns:a="http://ns.adobe.com/AdobeSVGViewerExtensions/3.0/" xmlns:ewd="http://shcl.co.jp/ewd" xmlns:xlink="&ns_xlink;">
<path style="stroke-width:1.42 ;&st7;  " d=" M  2549.57,   418.22  L  2541.08,   418.22  " /><path style="stroke-width:1.42 ;&st7;  " d=" M  2872.52,   329.70  L  2867.55,   324.73  " /><path style="stroke-width:1.42 ;&st7;  " d=" M  2541.08,    57.75  L  2536.10,    52.78  " /><path style="stroke-width:1.42 ;&st7;  " d=" M  2524.08,    64.80  L  2529.05,    69.77  " /><path style="stroke-width:1.42 ;&st7;  " d=" M  2536.10,    69.77  L  2541.08,    64.80  " /><path style="stroke-width:1.42 ;&st7;  " d=" M  2529.05,    52.78  L  2524.08,    57.75  " /><path style="stroke-width:1.42 ;&st7;  " d=" M  2668.55,    57.75  L  2663.58,    52.78  " /><path style="stroke-width:1.42 ;&st7;  " d=" M  2651.56,    64.80  L  2656.53,    69.77  " /><path style="stroke-width:1.42 ;&st7;  " d=" M  2663.58,    69.77  L  2668.55,    64.80  " /><path style="stroke-width:1.42 ;&st7;  " d=" M  2656.53,    52.78  L  2651.56,    57.75  " /><path style="stroke-width:1.42 ;&st7;  " d=" M  2549.57,   295.71  L  2544.60,   290.74  " /><path style="stroke-width:1.42 ;&st7;  " d=" M  2532.58,   302.77  L  2537.55,   307.73  " /><path style="stroke-width:1.42 ;&st7;  " d=" M  2544.60,   307.73  L  2549.57,   302.77  " /><path style="stroke-width:1.42 ;&st7;  " d=" M  2537.55,   290.74  L  2532.58,   295.71  " /><path style="stroke-width:1.42 ;&st7;  " d=" M  2549.57,   380.69  L  2544.60,   375.72  " /><path style="stroke-width:1.42 ;&st7;  " d=" M  2532.58,   387.75  L  2537.55,   392.72  " /><path style="stroke-width:1.42 ;&st7;  " d=" M  2544.60,   392.72  L  2549.57,   387.75  " /><path style="stroke-width:1.42 ;&st7;  " d=" M  2537.55,   375.72  L  2532.58,   380.69  " /><path style="stroke-width:1.42 ;&st7;  " d=" M  2549.57,   448.68  L  2544.60,   443.71  " /><path style="stroke-width:1.42 ;&st7;  " d=" M  2532.58,   455.74  L  2537.55,   460.71  " /><path style="stroke-width:1.42 ;&st7;  " d=" M  2544.60,   460.71  L  2549.57,   455.74  " /><path style="stroke-width:1.42 ;&st7;  " d=" M  2537.55,   443.71  L  2532.58,   448.68  " /><path style="stroke-width:1.42 ;&st7;  " d=" M  2855.52,   336.76  L  2860.49,   341.73  " /><path style="stroke-width:1.42 ;&st7;  " d=" M  2867.55,   341.73  L  2872.52,   336.76  " /><path style="stroke-width:1.42 ;&st7;  " d=" M  2860.49,   324.73  L  2855.52,   329.70  " /><path style="stroke-width:1.42 ;&st7;  " d=" M  2894.49,   350.23  L  2889.52,   355.20  " /><path style="stroke-width:1.42 ;&st7;  " d=" M  2901.54,   367.22  L  2906.51,   362.26  " /><path style="stroke-width:1.42 ;&st7;  " d=" M  2889.52,   362.26  L  2894.49,   367.22  " /><path style="stroke-width:1.42 ;&st7;  " d=" M  2906.51,   355.20  L  2901.54,   350.23  " /><text style="&st18;" transform="matrix(&st16;  2724.64  254.46 )">ECM</text><text style="&st18;" transform="matrix(&st17;  2724.35  430.26 )">BR</text><text style="&st18;" transform="matrix(&st17;  2970.81  194.59 )">L-W</text><text style="&st18;" transform="matrix(&st17;  2936.81  190.44 )">B</text><text style="&st18;" transform="matrix(&st17;  2902.82  190.37 )">R</text><text style="&st18;" transform="matrix(&st17;  2868.82  193.85 )">B-R</text><text style="&st18;" transform="matrix(&st17;  2715.85  190.37 )">R</text><text style="&st18;" transform="matrix(&st17;  2715.85  91.87 )">B-R</text><text style="&st18;" transform="matrix(&st17;  2656.36  190.71 )">G</text><text style="&st18;" transform="matrix(&st17;  2656.36  91.87 )">B-R</text><text style="&st18;" transform="matrix(&st17;  2528.88  190.44 )">Y</text><text style="&st18;" transform="matrix(&st17;  2528.88  91.87 )">B-R</text><text style="&st18;" transform="matrix(&st16;  2615.1  669.48 )">G</text><text style="&st18;" transform="matrix(&st17;  2970.81  321.33 )">B-R</text><text style="&st18;" transform="matrix(&st17;  2936.81  317.92 )">B</text><text style="&st18;" transform="matrix(&st17;  2537.38  438.76 )">BR</text><text style="&st18;" transform="matrix(&st17;  2537.38  404.77 )">BR</text><text style="&st18;" transform="matrix(&st17;  2766.84  317.92 )">B</text><text style="&st18;" transform="matrix(&st17;  2809.33  318.7 )">W</text><text style="&st18;" transform="matrix(&st17;  2894.32  430.26 )">BR</text><text style="&st18;" transform="matrix(&st17;  2860.33  430.26 )">BR</text><text style="&st18;" transform="matrix(&st17;  2894.32  557.74 )">BR</text><text style="&st18;" transform="matrix(&st16;  2724.63  247.64 )">A29(A),C39(B),I84(C)</text><text style="&st18;" transform="matrix(&st16;  2611.96  32.08 )">B-R</text><text style="&st18;" transform="matrix(&st16;  2560.97  32.08 )">B-R</text><text style="&st18;" transform="matrix(&st16;  2559.81  43.41 )">(*10)</text><text style="&st18;" transform="matrix(&st16;  2610.8  43.41 )">(*10)</text><text style="&st18;" transform="matrix(&st16;  2611.96  57.58 )">B-R</text><text style="&st18;" transform="matrix(&st16;  2560.97  57.58 )">B-R</text><text style="&st18;" transform="matrix(&st16;  2611.11  618.48 )">B-W</text><text style="&st18;" transform="matrix(&st16;  2560.12  618.48 )">B-W</text><text style="&st18;" transform="matrix(&st16;  2611.23  601.49 )">L-W</text><text style="&st18;" transform="matrix(&st16;  2560.23  601.49 )">L-W</text><text style="&st18;" transform="matrix(&st16;  2613.51  295.54 )">BR</text><text style="&st18;" transform="matrix(&st16;  2562.52  295.54 )">BR</text><text style="&st18;" transform="matrix(&st16;  2560.12  652.48 )">B-W</text><text style="&st18;" transform="matrix(&st16;  2611.11  652.48 )">B-W</text><text style="&st18;" transform="matrix(&st16;  2564.11  669.48 )">G</text><g ewd:figtype="conn" ewd:figID="28" ewd:code="C16"><path style="stroke-width:0.85 ;&st7;  " d=" M  2719.55,   120.77  L  2719.55,   129.26  " /><path style="stroke-width:0.85 ;&st7;  " d=" M  2719.55,   146.26  L  2719.55,   154.76  " /><path style="stroke-width:0.85 ;&st7;   " d=" M  2717.02,   135.28  C  2718.38    136.68   2720.63    136.70   2722.02    135.33  " /><path style="stroke-width:0.85 ;&st7;   " d=" M  2722.02,   135.33  C  2723.42    133.97   2723.44    131.72   2722.08    130.33  " /><path style="stroke-width:0.85 ;&st7;   " d=" M  2722.08,   130.33  C  2721.38    129.62   2720.54    129.26   2719.55    129.26  " /><path style="stroke-width:0.85 ;&st7;   " d=" M  2717.02,   140.24  C  2718.38    141.64   2720.63    141.66   2722.02    140.29  " /><path style="stroke-width:0.85 ;&st7;   " d=" M  2722.02,   140.29  C  2723.42    138.92   2723.44    136.68   2722.08    135.28  " /><path style="stroke-width:0.85 ;&st7;   " d=" M  2722.08,   135.28  C  2720.71    133.89   2718.46    133.86   2717.07    135.23  " /><path style="stroke-width:0.85 ;&st7;   " d=" M  2717.07,   135.23  C  2717.05    135.25   2717.03    135.27   2717.02    135.28  " /><path style="stroke-width:0.85 ;&st7;   " d=" M  2719.55,   146.26  C  2721.50    146.26   2723.09    144.68   2723.09    142.72  " /><path style="stroke-width:0.85 ;&st7;   " d=" M  2723.09,   142.72  C  2723.09    140.76   2721.50    139.18   2719.55    139.18  " /><path style="stroke-width:0.85 ;&st7;   " d=" M  2719.55,   139.18  C  2718.56    139.18   2717.71    139.53   2717.02    140.24  " /><path style="stroke-width:1.42 ;&st7;  " d=" M  2728.04,   154.76  L  2728.04,   120.77  L  2711.05,   120.77  L  2711.05,   154.76  L  2728.04,   154.76  " /><text style="&st18;" transform="matrix(&st16;  2713.36  162.95 )">2</text><text style="&st18;" transform="matrix(&st16;  2713.36  117.08 )">1</text><g ewd:figtype="title"><text style="&st18;" transform="matrix(&st17;  2742.76  157.67 )" ewd:textID="40">Fuel Injector Assembly No. 6</text><text style="&st18;" transform="matrix(&st17;  2735.94  157.66 )">C16</text></g></g><g ewd:figtype="conn" ewd:figID="31" ewd:code="C11"><path style="stroke-width:0.85 ;&st7;  " d=" M  2660.06,   120.77  L  2660.06,   129.26  " /><path style="stroke-width:0.85 ;&st7;  " d=" M  2660.06,   146.26  L  2660.06,   154.76  " /><path style="stroke-width:0.85 ;&st7;   " d=" M  2657.53,   135.28  C  2658.89    136.68   2661.14    136.70   2662.53    135.33  " /><path style="stroke-width:0.85 ;&st7;   " d=" M  2662.53,   135.33  C  2663.93    133.97   2663.95    131.72   2662.59    130.33  " /><path style="stroke-width:0.85 ;&st7;   " d=" M  2662.59,   130.33  C  2661.89    129.62   2661.05    129.26   2660.06    129.26  " /><path style="stroke-width:0.85 ;&st7;   " d=" M  2657.53,   140.24  C  2658.89    141.64   2661.14    141.66   2662.53    140.29  " /><path style="stroke-width:0.85 ;&st7;   " d=" M  2662.53,   140.29  C  2663.93    138.92   2663.95    136.68   2662.59    135.28  " /><path style="stroke-width:0.85 ;&st7;   " d=" M  2662.59,   135.28  C  2661.22    133.89   2658.97    133.86   2657.58    135.23  " /><path style="stroke-width:0.85 ;&st7;   " d=" M  2657.58,   135.23  C  2657.56    135.25   2657.54    135.27   2657.53    135.28  " /><path style="stroke-width:0.85 ;&st7;   " d=" M  2660.06,   146.26  C  2662.01    146.26   2663.60    144.68   2663.60    142.72  " /><path style="stroke-width:0.85 ;&st7;   " d=" M  2663.60,   142.72  C  2663.60    140.76   2662.01    139.18   2660.06    139.18  " /><path style="stroke-width:0.85 ;&st7;   " d=" M  2660.06,   139.18  C  2659.07    139.18   2658.22    139.53   2657.53    140.24  " /><path style="stroke-width:1.42 ;&st7;  " d=" M  2668.55,   154.76  L  2668.55,   120.77  L  2651.56,   120.77  L  2651.56,   154.76  L  2668.55,   154.76  " /><text style="&st18;" transform="matrix(&st16;  2653.87  162.95 )">2</text><text style="&st18;" transform="matrix(&st16;  2653.87  117.08 )">1</text><g ewd:figtype="title"><text style="&st18;" transform="matrix(&st17;  2683.27  157.67 )" ewd:textID="39">Fuel Injector <tspan x="0 " dy="6.0">Assembly No. 5</tspan></text><text style="&st18;" transform="matrix(&st17;  2676.45  157.66 )">C11</text></g></g><g ewd:figtype="conn" ewd:figID="32" ewd:code="C25"><path style="stroke-width:0.85 ;&st7;  " d=" M  2532.58,   120.77  L  2532.58,   129.26  " /><path style="stroke-width:0.85 ;&st7;  " d=" M  2532.58,   146.26  L  2532.58,   154.76  " /><path style="stroke-width:0.85 ;&st7;   " d=" M  2530.05,   135.28  C  2531.42    136.68   2533.66    136.70   2535.06    135.33  " /><path style="stroke-width:0.85 ;&st7;   " d=" M  2535.06,   135.33  C  2536.45    133.97   2536.48    131.72   2535.11    130.33  " /><path style="stroke-width:0.85 ;&st7;   " d=" M  2535.11,   130.33  C  2534.41    129.62   2533.57    129.26   2532.58    129.26  " /><path style="stroke-width:0.85 ;&st7;   " d=" M  2530.05,   140.24  C  2531.42    141.64   2533.66    141.66   2535.06    140.29  " /><path style="stroke-width:0.85 ;&st7;   " d=" M  2535.06,   140.29  C  2536.45    138.92   2536.48    136.68   2535.11    135.28  " /><path style="stroke-width:0.85 ;&st7;   " d=" M  2535.11,   135.28  C  2533.74    133.89   2531.50    133.86   2530.10    135.23  " /><path style="stroke-width:0.85 ;&st7;   " d=" M  2530.10,   135.23  C  2530.08    135.25   2530.06    135.27   2530.05    135.28  " /><path style="stroke-width:0.85 ;&st7;   " d=" M  2532.58,   146.26  C  2534.53    146.26   2536.12    144.68   2536.12    142.72  " /><path style="stroke-width:0.85 ;&st7;   " d=" M  2536.12,   142.72  C  2536.12    140.76   2534.53    139.18   2532.58    139.18  " /><path style="stroke-width:0.85 ;&st7;   " d=" M  2532.58,   139.18  C  2531.59    139.18   2530.74    139.53   2530.05    140.24  " /><path style="stroke-width:1.42 ;&st7;  " d=" M  2541.07,   154.76  L  2541.07,   120.77  L  2524.08,   120.77  L  2524.08,   154.76  L  2541.07,   154.76  " /><text style="&st18;" transform="matrix(&st16;  2526.39  162.95 )">2</text><text style="&st18;" transform="matrix(&st16;  2526.39  117.08 )">1</text><g ewd:figtype="title"><text style="&st18;" transform="matrix(&st17;  2548.97  157.66 )">C25</text><text style="&st18;" transform="matrix(&st17;  2555.79  157.67 )" ewd:textID="38">Fuel Injector <tspan x="0 " dy="6.0">Assembly No. 4</tspan></text></g></g><g ewd:figtype="conn" ewd:figID="40" ewd:code="C38"><path style="stroke-width:1.42 ;&st7;  " d=" M  2719.54,   520.20  L  3195.46,   520.20  L  3195.46,   503.20  L  2719.54,   503.20  L  2719.54,   520.20  " /><path style="stroke-width:0.85 ;&st7;  " d=" M  2728.04,   503.20  L  2728.04,   511.70  L  3186.97,   511.70  " /><path style="stroke-width:0.85 ;&st7;  " d=" M  3186.97,   520.20  L  3186.97,   503.20  " /><path style="stroke-width:0.85 ;&st7;  " d=" M  2898.01,   520.20  L  2898.01,   503.20  " /><path style="stroke-width:0.85 ;&st7;  " d=" M  2864.02,   511.70  L  2864.02,   503.20  " /><path style="stroke-width:0.85 ;&st7;  " d=" M  3135.97,   511.70  L  3135.97,   520.20  " /><path style="stroke-width:0.85 ;&st7;  " d=" M  2862.83,   510.70  L  2862.56,   511.17  L  2862.46,   511.70  L  2862.56,   512.23  L  2862.83,   512.70  L  2863.24,   513.05  L  2863.75,   513.24  L  2864.29,   513.24  L  2864.80,   513.05  L  2865.21,   512.70  L  2865.48,   512.23  L  2865.58,   511.70  L  2865.48,   511.17  L  2865.21,   510.70  L  2864.80,   510.35  L  2864.29,   510.16  L  2863.75,   510.16  L  2863.24,   510.35  L  2862.83,   510.70  L  2863.22,   511.41  L  2863.22,   511.99  L  2863.60,   512.44  L  2864.17,   512.54  L  2864.67,   512.25  L  2864.87,   511.70  L  2864.67,   511.15  L  2864.17,   510.86  L  2863.60,   510.96  L  2864.02,   511.70  " /><path style="stroke-width:0.85 ;&st7;  " d=" M  2896.82,   510.70  L  2896.55,   511.17  L  2896.46,   511.70  L  2896.55,   512.23  L  2896.82,   512.70  L  2897.24,   513.05  L  2897.74,   513.24  L  2898.29,   513.24  L  2898.79,   513.05  L  2899.21,   512.70  L  2899.48,   512.23  L  2899.57,   511.70  L  2899.48,   511.17  L  2899.21,   510.70  L  2898.79,   510.35  L  2898.29,   510.16  L  2897.74,   510.16  L  2897.24,   510.35  L  2896.82,   510.70  L  2897.22,   511.41  L  2897.22,   511.99  L  2897.59,   512.44  L  2898.16,   512.54  L  2898.67,   512.25  L  2898.86,   511.70  L  2898.67,   511.15  L  2898.16,   510.86  L  2897.59,   510.96  L  2898.01,   511.70  " /><path style="stroke-width:0.85 ;&st7;  " d=" M  3134.78,   510.70  L  3134.51,   511.17  L  3134.42,   511.70  L  3134.51,   512.23  L  3134.78,   512.70  L  3135.20,   513.05  L  3135.71,   513.24  L  3136.24,   513.24  L  3136.75,   513.05  L  3137.17,   512.70  L  3137.44,   512.23  L  3137.53,   511.70  L  3137.44,   511.17  L  3137.17,   510.70  L  3136.75,   510.35  L  3136.24,   510.16  L  3135.71,   510.16  L  3135.20,   510.35  L  3134.78,   510.70  L  3135.18,   511.41  L  3135.18,   511.99  L  3135.55,   512.44  L  3136.12,   512.54  L  3136.63,   512.25  L  3136.82,   511.70  L  3136.63,   511.15  L  3136.12,   510.86  L  3135.55,   510.96  L  3135.97,   511.70  " /><path style="stroke-width:0.85 ;&st7;  " d=" M  3185.77,   510.70  L  3185.50,   511.17  L  3185.41,   511.70  L  3185.50,   512.23  L  3185.77,   512.70  L  3186.19,   513.05  L  3186.70,   513.24  L  3187.24,   513.24  L  3187.75,   513.05  L  3188.16,   512.70  L  3188.43,   512.23  L  3188.52,   511.70  L  3188.43,   511.17  L  3188.16,   510.70  L  3187.75,   510.35  L  3187.24,   510.16  L  3186.70,   510.16  L  3186.19,   510.35  L  3185.77,   510.70  L  3186.17,   511.41  L  3186.17,   511.99  L  3186.54,   512.44  L  3187.11,   512.54  L  3187.62,   512.25  L  3187.82,   511.70  L  3187.62,   511.15  L  3187.11,   510.86  L  3186.54,   510.96  L  3186.97,   511.70  " /><text style="&st18;" transform="matrix(&st16;  2721.86  499.51 )">7</text><text style="&st18;" transform="matrix(&st16;  2857.84  499.51 )">8</text><text style="&st18;" transform="matrix(&st16;  2891.83  528.39 )">6</text><text style="&st18;" transform="matrix(&st16;  2891.83  499.51 )">4</text><text style="&st18;" transform="matrix(&st16;  3129.79  528.39 )">2</text><text style="&st18;" transform="matrix(&st16;  3180.78  528.39 )">1</text><text style="&st18;" transform="matrix(&st16;  3180.78  499.51 )">3</text><g ewd:figtype="title"><text style="&st18;" transform="matrix(&st16;  2716.13  528.09 )">C38</text><text style="&st18;" transform="matrix(&st16;  2716.14  534.92 )" ewd:textID="57">No. 4 Junction <tspan x="0 " dy="6.0">Connector</tspan></text></g></g><g ewd:figtype="conn" ewd:figID="41" ewd:code="C18"><path style="stroke-width:1.42 ;&st7;  " d=" M  2923.51,   392.72  L  3025.49,   392.72  L  3025.49,   358.73  L  2923.51,   358.73  L  2923.51,   392.72  " /><g ewd:lineID="162"><text style="&st18;" transform="matrix(&st16;  2934.32  355.04 )">3</text><text style="&st18;" transform="matrix(&st16;  2932.35  366.36 )">OX1B</text></g><g ewd:lineID="164"><text style="&st18;" transform="matrix(&st16;  2968.32  355.04 )">4</text><text style="&st18;" transform="matrix(&st16;  2970.84  366.36 )">E2</text></g><g ewd:figtype="title"><text style="&st18;" transform="matrix(&st16;  2920.1  400.61 )">C18</text><text style="&st18;" transform="matrix(&st16;  2920.11  407.44 )" ewd:textID="80">Oxygen Sensor <tspan x="0 " dy="6.0">(Bank 1 Sensor 2)</tspan></text></g></g><g ewd:figtype="conn" ewd:figID="42" ewd:code="C2"><path style="stroke-width:1.42 ;&st7;  " d=" M  2753.54,   392.72  L  2830.03,   392.72  L  2830.03,   358.73  L  2753.54,   358.73  L  2753.54,   392.72  " /><g ewd:lineID="155"><text style="&st18;" transform="matrix(&st16;  2764.35  355.04 )">1</text><text style="&st18;" transform="matrix(&st16;  2766.37  366.36 )">NE</text></g><g ewd:lineID="156"><text style="&st18;" transform="matrix(&st16;  2806.85  355.04 )">2</text><text style="&st18;" transform="matrix(&st16;  2807.31  366.36 )">NE-</text></g><g ewd:figtype="title"><text style="&st18;" transform="matrix(&st16;  2750.13  400.61 )">C2</text><text style="&st18;" transform="matrix(&st16;  2750.13  407.44 )" ewd:textID="29">Crank Position Sensor</text></g></g><g ewd:figtype="conn" ewd:figID="66" ewd:code="A29,C39,I84"><g ewd:lineID="145"><text style="&st18;" transform="matrix(&st16;  2520.78  220.18 )">84</text><text style="&st18;" transform="matrix(&st16;  2530.39  220.18 )">B</text><path style="stroke-width:1.42 ;&st7;   " d=" M  2537.11,   218.22  C  2537.11    215.71   2535.08    213.68   2532.58    213.68  " /><path style="stroke-width:1.42 ;&st7;   " d=" M  2532.58,   213.68  C  2530.07    213.68   2528.04    215.71   2528.04    218.22  " /><path style="stroke-width:1.42 ;&st7;   " d=" M  2528.04,   218.22  C  2528.04    220.72   2530.07    222.75   2532.58    222.75  " /><path style="stroke-width:1.42 ;&st7;   " d=" M  2532.58,   222.75  C  2535.08    222.75   2537.11    220.72   2537.11    218.22  " /><text style="&st18;" transform="matrix(&st16;  2527.67  230.38 )">#40</text></g><g ewd:lineID="151"><text style="&st18;" transform="matrix(&st16;  2648.26  220.18 )">43</text><text style="&st18;" transform="matrix(&st16;  2657.87  220.18 )">B</text><path style="stroke-width:1.42 ;&st7;   " d=" M  2664.59,   218.22  C  2664.59    215.71   2662.56    213.68   2660.06    213.68  " /><path style="stroke-width:1.42 ;&st7;   " d=" M  2660.06,   213.68  C  2657.55    213.68   2655.52    215.71   2655.52    218.22  " /><path style="stroke-width:1.42 ;&st7;   " d=" M  2655.52,   218.22  C  2655.52    220.72   2657.55    222.75   2660.06    222.75  " /><path style="stroke-width:1.42 ;&st7;   " d=" M  2660.06,   222.75  C  2662.56    222.75   2664.59    220.72   2664.59    218.22  " /><text style="&st18;" transform="matrix(&st16;  2655.15  230.38 )">#50</text></g><g ewd:lineID="153"><text style="&st18;" transform="matrix(&st16;  2707.75  220.18 )">83</text><text style="&st18;" transform="matrix(&st16;  2717.36  220.18 )">B</text><path style="stroke-width:1.42 ;&st7;   " d=" M  2724.08,   218.22  C  2724.08    215.71   2722.05    213.68   2719.55    213.68  " /><path style="stroke-width:1.42 ;&st7;   " d=" M  2719.55,   213.68  C  2717.04    213.68   2715.01    215.71   2715.01    218.22  " /><path style="stroke-width:1.42 ;&st7;   " d=" M  2715.01,   218.22  C  2715.01    220.72   2717.04    222.75   2719.55    222.75  " /><path style="stroke-width:1.42 ;&st7;   " d=" M  2719.55,   222.75  C  2722.05    222.75   2724.08    220.72   2724.08    218.22  " /><text style="&st18;" transform="matrix(&st16;  2714.64  230.38 )">#60</text></g><g ewd:lineID="155"><text style="&st18;" transform="matrix(&st16;  2755.64  280.24 )">110</text><text style="&st18;" transform="matrix(&st16;  2768.35  280.24 )">B</text><path style="stroke-width:1.42 ;&st7;   " d=" M  2775.07,   278.27  C  2775.07    275.77   2773.04    273.74   2770.54    273.74  " /><path style="stroke-width:1.42 ;&st7;   " d=" M  2770.54,   273.74  C  2768.03    273.74   2766.00    275.77   2766.00    278.27  " /><path style="stroke-width:1.42 ;&st7;   " d=" M  2766.00,   278.27  C  2766.00    280.78   2768.03    282.80   2770.54    282.80  " /><path style="stroke-width:1.42 ;&st7;   " d=" M  2770.54,   282.80  C  2773.04    282.80   2775.07    280.78   2775.07    278.27  " /><text style="&st18;" transform="matrix(&st16;  2764.82  270.04 )">NE+</text></g><g ewd:lineID="156"><text style="&st18;" transform="matrix(&st16;  2798.13  280.24 )">111</text><text style="&st18;" transform="matrix(&st16;  2810.84  280.24 )">B</text><path style="stroke-width:1.42 ;&st7;   " d=" M  2817.56,   278.27  C  2817.56    275.77   2815.53    273.74   2813.03    273.74  " /><path style="stroke-width:1.42 ;&st7;   " d=" M  2813.03,   273.74  C  2810.53    273.74   2808.50    275.77   2808.50    278.27  " /><path style="stroke-width:1.42 ;&st7;   " d=" M  2808.50,   278.27  C  2808.50    280.78   2810.53    282.80   2813.03    282.80  " /><path style="stroke-width:1.42 ;&st7;   " d=" M  2813.03,   282.80  C  2815.53    282.80   2817.56    280.78   2817.56    278.27  " /><text style="&st18;" transform="matrix(&st16;  2807.31  270.04 )">NE-</text></g><g ewd:lineID="158"><text style="&st18;" transform="matrix(&st16;  2860.72  220.18 )">40</text><text style="&st18;" transform="matrix(&st16;  2870.33  220.18 )">B</text><path style="stroke-width:1.42 ;&st7;   " d=" M  2877.05,   218.22  C  2877.05    215.71   2875.02    213.68   2872.52    213.68  " /><path style="stroke-width:1.42 ;&st7;   " d=" M  2872.52,   213.68  C  2870.02    213.68   2867.99    215.71   2867.99    218.22  " /><path style="stroke-width:1.42 ;&st7;   " d=" M  2867.99,   218.22  C  2867.99    220.72   2870.02    222.75   2872.52    222.75  " /><path style="stroke-width:1.42 ;&st7;   " d=" M  2872.52,   222.75  C  2875.02    222.75   2877.05    220.72   2877.05    218.22  " /><text style="&st18;" transform="matrix(&st16;  2865.68  230.38 )">IGT1</text></g><g ewd:lineID="161"><text style="&st18;" transform="matrix(&st16;  2894.72  220.18 )">39</text><text style="&st18;" transform="matrix(&st16;  2904.33  220.18 )">B</text><path style="stroke-width:1.42 ;&st7;   " d=" M  2911.05,   218.22  C  2911.05    215.71   2909.02    213.68   2906.51    213.68  " /><path style="stroke-width:1.42 ;&st7;   " d=" M  2906.51,   213.68  C  2904.01    213.68   2901.98    215.71   2901.98    218.22  " /><path style="stroke-width:1.42 ;&st7;   " d=" M  2901.98,   218.22  C  2901.98    220.72   2904.01    222.75   2906.51    222.75  " /><path style="stroke-width:1.42 ;&st7;   " d=" M  2906.51,   222.75  C  2909.02    222.75   2911.05    220.72   2911.05    218.22  " /><text style="&st18;" transform="matrix(&st16;  2899.67  230.38 )">IGT2</text></g><g ewd:lineID="162"><text style="&st18;" transform="matrix(&st16;  2928.71  280.24 )">88</text><path style="stroke-width:1.42 ;&st7;   " d=" M  2945.04,   278.27  C  2945.04    275.77   2943.01    273.74   2940.51    273.74  " /><path style="stroke-width:1.42 ;&st7;   " d=" M  2940.51,   273.74  C  2938.01    273.74   2935.98    275.77   2935.98    278.27  " /><path style="stroke-width:1.42 ;&st7;   " d=" M  2935.98,   278.27  C  2935.98    280.78   2938.01    282.80   2940.51    282.80  " /><path style="stroke-width:1.42 ;&st7;   " d=" M  2940.51,   282.80  C  2943.01    282.80   2945.04    280.78   2945.04    278.27  " /><text style="&st18;" transform="matrix(&st16;  2938.32  280.24 )">B</text><text style="&st18;" transform="matrix(&st16;  2932.35  270.04 )">OX1B</text></g><g ewd:lineID="163"><text style="&st18;" transform="matrix(&st16;  2928.71  220.18 )">38</text><text style="&st18;" transform="matrix(&st16;  2938.32  220.18 )">B</text><path style="stroke-width:1.42 ;&st7;   " d=" M  2945.04,   218.22  C  2945.04    215.71   2943.01    213.68   2940.51    213.68  " /><path style="stroke-width:1.42 ;&st7;   " d=" M  2940.51,   213.68  C  2938.01    213.68   2935.98    215.71   2935.98    218.22  " /><path style="stroke-width:1.42 ;&st7;   " d=" M  2935.98,   218.22  C  2935.98    220.72   2938.01    222.75   2940.51    222.75  " /><path style="stroke-width:1.42 ;&st7;   " d=" M  2940.51,   222.75  C  2943.01    222.75   2945.04    220.72   2945.04    218.22  " /><text style="&st18;" transform="matrix(&st16;  2933.67  230.38 )">IGT3</text></g><g ewd:lineID="164"><text style="&st18;" transform="matrix(&st16;  2962.71  280.24 )">65</text><path style="stroke-width:1.42 ;&st7;   " d=" M  2979.04,   278.27  C  2979.04    275.77   2977.01    273.74   2974.50    273.74  " /><path style="stroke-width:1.42 ;&st7;   " d=" M  2974.50,   273.74  C  2972.00    273.74   2969.97    275.77   2969.97    278.27  " /><path style="stroke-width:1.42 ;&st7;   " d=" M  2969.97,   278.27  C  2969.97    280.78   2972.00    282.80   2974.50    282.80  " /><path style="stroke-width:1.42 ;&st7;   " d=" M  2974.50,   282.80  C  2977.01    282.80   2979.04    280.78   2979.04    278.27  " /><text style="&st18;" transform="matrix(&st16;  2972.31  280.24 )">B</text><text style="&st18;" transform="matrix(&st16;  2966.85  270.04 )">EX1B</text></g><g ewd:lineID="165"><text style="&st18;" transform="matrix(&st16;  2962.71  220.18 )">37</text><path style="stroke-width:1.42 ;&st7;   " d=" M  2979.04,   218.22  C  2979.04    215.71   2977.01    213.68   2974.50    213.68  " /><path style="stroke-width:1.42 ;&st7;   " d=" M  2974.50,   213.68  C  2972.00    213.68   2969.97    215.71   2969.97    218.22  " /><path style="stroke-width:1.42 ;&st7;   " d=" M  2969.97,   218.22  C  2969.97    220.72   2972.00    222.75   2974.50    222.75  " /><path style="stroke-width:1.42 ;&st7;   " d=" M  2974.50,   222.75  C  2977.01    222.75   2979.04    220.72   2979.04    218.22  " /><text style="&st18;" transform="matrix(&st16;  2972.31  220.18 )">B</text><text style="&st18;" transform="matrix(&st16;  2967.66  230.38 )">IGT4</text></g><g ewd:lineID="167"><text style="&st18;" transform="matrix(&st16;  2996.7  280.24 )">48</text></g><g ewd:lineID="168"><text style="&st18;" transform="matrix(&st16;  2996.7  220.18 )">36</text></g></g><g ewd:figtype="w2w" ewd:figID="162" ewd:code="Ch1"><path style="stroke-width:1.42 ;&st7;  " d=" M  2545.32,   427.28  L  2541.07,   423.03  L  2536.83,   427.28  " /><path style="stroke-width:1.42 ;&st7;  " d=" M  2545.32,   423.88  L  2541.07,   419.63  L  2536.83,   423.88  " /><text style="&st18;" transform="matrix(&st16;  2528.44  415.94 )">1</text></g><g ewd:figtype="gp" ewd:figID="213" ewd:code="CB"><path style="stroke-width:0.85 ;&st7;  " d=" M  2898.01,   697.25  L  2898.01,   701.50  " /><path style="stroke-width:0.85 ;&st7;  " d=" M  2889.52,   701.50  L  2906.51,   701.50  " /><path style="stroke-width:0.85 ;&st7;  " d=" M  2893.77,   704.33  L  2902.26,   704.33  " /><path style="stroke-width:0.85 ;&st7;  " d=" M  2895.18,   707.17  L  2900.85,   707.17  " /><path style="stroke-width:0.85 ;&st7;  " d=" M  2896.60,   710.00  L  2899.43,   710.00  " /></g><g ewd:code=" " ewd:figID="280" ewd:comment=" " ewd:figtype="sh"><path style="stroke-width: 0.85 ;&st7; stroke-dasharray:3, 1.5;" d=" M  2898.01,   333.23  L  2898.01,   299.24  L  2957.50,   299.24  L  2957.50,   333.23  L  2898.01,   333.23  " /><path style="stroke-width:0.85 ;&st7;  " d=" M  2896.82,   332.23  L  2896.55,   332.70  L  2896.46,   333.23  L  2896.55,   333.76  L  2896.82,   334.23  L  2897.24,   334.58  L  2897.74,   334.77  L  2898.29,   334.77  L  2898.79,   334.58  L  2899.21,   334.23  L  2899.48,   333.76  L  2899.57,   333.23  L  2899.48,   332.70  L  2899.21,   332.23  L  2898.79,   331.88  L  2898.29,   331.69  L  2897.74,   331.69  L  2897.24,   331.88  L  2896.82,   332.23  L  2897.22,   332.94  L  2897.22,   333.52  L  2897.59,   333.97  L  2898.16,   334.07  L  2898.67,   333.78  L  2898.86,   333.23  L  2898.67,   332.68  L  2898.16,   332.39  L  2897.59,   332.49  L  2898.01,   333.23  " /><g ewd:code="" ewd:figID="305" ewd:comment=" " ewd:figtype="commref"><text style="&st18;" transform="matrix(&st17;  2894.32  328.47 )" ewd:textID="1">(Shielded)</text></g></g><g ewd:code=" " ewd:figID="282" ewd:comment=" " ewd:figtype="sh"><path style="stroke-width: 0.85 ;&st7; stroke-dasharray:3, 1.5;" d=" M  2838.52,   333.23  L  2753.54,   333.23  L  2753.54,   299.24  L  2838.52,   299.24  L  2838.52,   333.23  " /><path style="stroke-width:0.85 ;&st7;  " d=" M  2837.33,   332.23  L  2837.06,   332.70  L  2836.97,   333.23  L  2837.06,   333.76  L  2837.33,   334.23  L  2837.75,   334.58  L  2838.25,   334.77  L  2838.80,   334.77  L  2839.30,   334.58  L  2839.72,   334.23  L  2839.99,   333.76  L  2840.08,   333.23  L  2839.99,   332.70  L  2839.72,   332.23  L  2839.30,   331.88  L  2838.80,   331.69  L  2838.25,   331.69  L  2837.75,   331.88  L  2837.33,   332.23  L  2837.73,   332.94  L  2837.73,   333.52  L  2838.10,   333.97  L  2838.67,   334.07  L  2839.18,   333.78  L  2839.37,   333.23  L  2839.18,   332.68  L  2838.67,   332.39  L  2838.10,   332.49  L  2838.52,   333.23  " /><g ewd:code="" ewd:figID="324" ewd:comment=" " ewd:figtype="commref"><text style="&st18;" transform="matrix(&st17;  2749.85  328.47 )" ewd:textID="1">(Shielded)</text></g></g><g ewd:figtype="annex" ewd:figID="106" ewd:code=" "><path style="stroke-width:1.42 ;&st7;  " d=" M  3042.49,   146.26  L  3037.43,   157.62  " /><path style="stroke-width:1.42 ;&st7;  " d=" M  2940.51,   146.26  L  2945.57,   157.62  " /><path style="stroke-width:1.42 ;&st7;  " d=" M  2974.50,   146.26  L  2969.44,   157.62  " /><path style="stroke-width:1.42 ;&st7;  " d=" M  2872.52,   146.26  L  2877.58,   157.62  " /><path style="stroke-width:1.42 ;&st7;  " d=" M  2940.51,   146.26  L  2935.45,   157.62  " /><path style="stroke-width:1.42 ;&st7;  " d=" M  2906.51,   146.26  L  2911.57,   157.62  " /><path style="stroke-width:1.42 ;&st7;  " d=" M  2872.52,   146.26  L  2867.46,   157.62  " /><path style="stroke-width:1.42 ;&st7;  " d=" M  3008.50,   146.26  L  3013.56,   157.62  " /><path style="stroke-width:1.42 ;&st7;  " d=" M  3076.49,   163.26  L  3081.55,   151.90  " /><path style="stroke-width:1.42 ;&st7;  " d=" M  3076.49,   163.26  L  3071.43,   151.90  " /><path style="stroke-width:0.85 ;&st7;  " d=" M  3080.73,   142.01  L  3076.48,   137.76  L  2976.63,   137.76  L  2974.50,   133.51  L  2972.38,   137.76  L  2872.52,   137.76  L  2868.27,   142.01  " /><path style="stroke-width:1.42 ;&st7;  " d=" M  2906.51,   146.26  L  2901.45,   157.62  " /><path style="stroke-width:1.42 ;&st7;  " d=" M  2974.50,   146.26  L  2979.56,   157.62  " /><path style="stroke-width:1.42 ;&st7;  " d=" M  3042.49,   146.26  L  3047.55,   157.62  " /><path style="stroke-width:1.42 ;&st7;  " d=" M  3008.50,   146.26  L  3003.44,   157.62  " /><text style="&st18;" transform="matrix(&st16;  2943.58  130.1 )" ewd:textID="45">Ignition Coil Assemblies</text></g><g ewd:code="10" ewd:figID="339" ewd:comment="" ewd:figtype="comment"><text style="&st18;" transform="matrix(&st16;  2852.12  80.24 )" ewd:textID="11">*10 :w/ PMP SELECT Relay</text></g></svg>