<?xml version="1.0" encoding="utf-8"?>
<!DOCTYPE svg PUBLIC "-//W3C//DTD SVG 1.0//EN" "http://www.w3.org/TR/2001/REC-SVG-20010904/DTD/svg10.dtd"[
	<!ENTITY ns_flows "http://ns.adobe.com/Flows/1.0/">
	<!ENTITY ns_svg "http://www.w3.org/2000/svg">
	<!ENTITY ns_xlink "http://www.w3.org/1999/xlink">
	<!ENTITY st0 "font-size:7px;font-family:'MS-PGothic';adobe-font-script:japanese;">
	<!ENTITY st1 "font-size:6px;font-family:'ArialMT';">
	<!-- White fill  -->
	<!ENTITY st2 "fill:#FFFFFF;stroke:#000000; stroke-width:1.41;stroke-linecap:round;stroke-linejoin:round;">
	<!-- Yellow fill  -->
	<!ENTITY st3 "fill:#FFFFCC;stroke:#FFFFCC; stroke-width:0.1;stroke-linecap:round;stroke-linejoin:round;">
	<!-- Gray fill  -->
	<!ENTITY st4 "fill:#CCCCCC;stroke:#CCCCCC; stroke-width:0.1;stroke-linecap:round;stroke-linejoin:round;">
	<!-- Light-blue fill -->
	<!ENTITY st5 "fill:#CCECF4;stroke:#000000; stroke-width:1.133;stroke-linecap:round;stroke-linejoin:round;">
	<!ENTITY st6 "fill:none;stroke-linecap:butt; stroke-linejoin:round;">
	<!ENTITY st7 "fill:none;stroke:#000000;stroke-linecap:round;stroke-linejoin:round;">
	<!ENTITY st8 "enable-background:new    ;">
	<!-- Black fill -->
	<!ENTITY st9 "fill:#000000;stroke:#000000; stroke-linecap:round;stroke-linejoin:round;">
	<!-- SRS note   -->
	<!ENTITY st10 "font-size:9px;font-family:'ArialMT';">
	<!ENTITY st11 "font-size:9px;font-family:'Svg Symbol';">
	<!ENTITY st12 "font-size:6px;font-family:'Svg Symbol';">
	<!ENTITY st13 "fill:none;stroke:#ff0000;stroke-linecap:round;stroke-linejoin:round;">
	<!-- Yellow fill  -->
	<!ENTITY st14 "fill:#FFFF00;stroke:#FFFF00; stroke-width:0.1;stroke-linecap:round;stroke-linejoin:round;">
	<!ENTITY st15 "font-size:6px;font-family:'MS-PGothic';adobe-font-script:japanese;">
	<!ENTITY st16 "1.00 0.00 0.00 1.00">
	<!ENTITY st17 "0.00 -1.00 1.00 0.00">
	<!ENTITY st18 "font-size:6px;font-family:'Arial';">
	<!ENTITY st19 "font-size:9px;font-family:'Arial';">
	<!ENTITY st20 "font-size:6px;font-family:'MS-PGothic','MS PGothic';adobe-font-script:japanese;">
	<!ENTITY st21 "font-size:7px;font-family:'MS-PGothic','MS PGothic';adobe-font-script:japanese;">
	<!ATTLIST svg
		xmlns:ewd CDATA #FIXED "http://shcl.co.jp/ewd"
		xmlns:a CDATA #FIXED "http://ns.adobe.com/AdobeSVGViewerExtensions/3.0/"
		ewd:ver CDATA #IMPLIED
	>
	<!ATTLIST a
		ewd:lineID CDATA #IMPLIED
		ewd:groupID CDATA #IMPLIED
		ewd:figtype CDATA #IMPLIED
		ewd:code CDATA #IMPLIED
		ewd:figID CDATA #IMPLIED
		ewd:pinNo CDATA #IMPLIED
		ewd:comment CDATA #IMPLIED >
	<!ATTLIST g
		ewd:lineID CDATA #IMPLIED
		ewd:groupID CDATA #IMPLIED
		ewd:figtype CDATA #IMPLIED
		ewd:code CDATA #IMPLIED
		ewd:figID CDATA #IMPLIED
		ewd:pinNo CDATA #IMPLIED
		ewd:comment CDATA #IMPLIED >
	<!ATTLIST text
		ewd:textID CDATA #IMPLIED >
	<!ATTLIST title
		ewd:textID CDATA #IMPLIED >
]>
<!-- Generator: Shintec Hozumi YS   -->
<svg onload="call_execInitLoadProc_svg('system')" style="overflow:visible;  enable-background:new 0 0 8792.321 710.000" viewBox="0 0 8792.321 710.000" height="710.000" width="8792.321" xml:space="preserve" ewd:ver="2.1.2.9" xmlns="&ns_svg;" xmlns:a="http://ns.adobe.com/AdobeSVGViewerExtensions/3.0/" xmlns:ewd="http://shcl.co.jp/ewd" xmlns:xlink="&ns_xlink;">
<text style="&st18;" transform="matrix(&st17;  7993.47  424.09 )">R-W</text><text style="&st18;" transform="matrix(&st17;  7916.98  423.32 )">B-R</text><text style="&st18;" transform="matrix(&st17;  7928.31  424.48 )">(*10)</text><text style="&st18;" transform="matrix(&st16;  7788.81  635.48 )">R-W(*19)</text><text style="&st18;" transform="matrix(&st16;  7737.81  635.48 )">R-W(*19)</text><text style="&st18;" transform="matrix(&st17;  7823.5  143.13 )">G-R</text><text style="&st18;" transform="matrix(&st17;  7834.83  149.61 )">(*13,*18)</text><path style="stroke-width:1.42 ;&st7;  " d=" M  7835.69,   197.25  L  7827.19,   197.25  " /><text style="&st18;" transform="matrix(&st16;  7748.25  652.48 )">G</text><text style="&st18;" transform="matrix(&st16;  7799.24  652.48 )">G</text><text style="&st18;" transform="matrix(&st17;  7834.83  336.58 )">(*13,*18)</text><text style="&st18;" transform="matrix(&st17;  7823.5  330.1 )">G-R</text><path style="stroke-width:1.42 ;&st7;  " d=" M  7971.67,   129.26  L  7980.17,   129.26  " /><text style="&st18;" transform="matrix(&st17;  7976.47  108.95 )">B-Y</text><text style="&st18;" transform="matrix(&st17;  7987.8  111.62 )">(RHD)</text><text style="&st18;" transform="matrix(&st17;  7987.8  171.11 )">(RHD)</text><text style="&st18;" transform="matrix(&st17;  7976.47  168.44 )">B-Y</text><text style="&st18;" transform="matrix(&st16;  7789.35  51.91 )">(*13,*18)</text><text style="&st18;" transform="matrix(&st16;  7738.36  51.91 )">(*13,*18)</text><text style="&st18;" transform="matrix(&st16;  7744.83  40.58 )">G-R</text><text style="&st18;" transform="matrix(&st16;  7795.82  40.58 )">G-R</text><text style="&st18;" transform="matrix(&st16;  7796.1  669.48 )">B-R</text><text style="&st18;" transform="matrix(&st16;  7743.94  680.81 )">(*10)</text><text style="&st18;" transform="matrix(&st16;  7745.1  669.48 )">B-R</text><text style="&st18;" transform="matrix(&st16;  7794.93  680.81 )">(*10)</text><path style="stroke-width:1.42 ;&st7;  " d=" M  7597.73,   571.19  L  7589.23,   571.19  " /><path style="stroke-width:1.42 ;&st7;  " d=" M  7631.72,   571.19  L  7623.23,   571.19  " /><text style="&st18;" transform="matrix(&st16;  7741.73  601.49 )">G(*18)</text><text style="&st18;" transform="matrix(&st17;  7511.88  526.46 )">(*18)</text><text style="&st18;" transform="matrix(&st17;  7500.55  522.66 )">W</text><text style="&st18;" transform="matrix(&st17;  7545.88  526.46 )">(*18)</text><text style="&st18;" transform="matrix(&st17;  7534.54  521.77 )">L</text><text style="&st18;" transform="matrix(&st17;  7630.86  526.46 )">(*18)</text><text style="&st18;" transform="matrix(&st17;  7619.53  522.16 )">G</text><text style="&st18;" transform="matrix(&st17;  7596.87  526.46 )">(*18)</text><text style="&st18;" transform="matrix(&st17;  7585.54  522.66 )">W</text><text style="&st18;" transform="matrix(&st16;  7741.23  618.48 )">W(*18)</text><text style="&st18;" transform="matrix(&st16;  7792.22  618.48 )">W(*18)</text><text style="&st18;" transform="matrix(&st16;  7792.72  601.49 )">G(*18)</text><path style="stroke-width:1.42 ;&st7;  " d=" M  7631.72,   392.72  L  7623.23,   392.72  " /><text style="&st18;" transform="matrix(&st17;  7619.53  428.4 )">B</text><path style="stroke-width:1.42 ;&st7;  " d=" M  7597.73,   392.72  L  7589.23,   392.72  " /><text style="&st18;" transform="matrix(&st17;  7630.86  432.98 )">(*18)</text><text style="&st18;" transform="matrix(&st17;  7585.54  429.18 )">W</text><text style="&st18;" transform="matrix(&st17;  7596.87  432.98 )">(*18)</text><g ewd:code="L25,L26" ewd:figID="86" ewd:comment="10,19,18,14" ewd:figtype="conn"><path style="stroke-width:0.85 ;&st7;  " d=" M  8001.41,   350.23  L  7992.91,   350.23  " /><path style="stroke-width:0.85 ;&st7;  " d=" M  8009.89,   281.07  L  8002.53,   285.32  " /><path style="stroke-width:0.85 ;&st7;  " d=" M  8001.41,   290.74  L  7992.91,   290.74  " /><path style="stroke-width:0.85 ;&st7;  " d=" M  8004.54,   288.79  L  8011.90,   284.54  " /><path style="stroke-width:0.85 ;&st7;  " d=" M  7924.93,   350.23  L  7916.43,   350.23  " /><path style="stroke-width:0.85 ;&st7;  " d=" M  7933.41,   281.07  L  7926.05,   285.32  " /><path style="stroke-width:0.85 ;&st7;  " d=" M  7924.93,   290.74  L  7916.43,   290.74  " /><path style="stroke-width:0.85 ;&st7;  " d=" M  7928.05,   288.79  L  7935.41,   284.54  " /><path style="stroke-width:0.85 ;&st7;  " d=" M  8073.65,   252.49  L  8073.65,   260.99  " /><path style="stroke-width:0.85 ;&st7;  " d=" M  7946.17,   307.73  L  7946.17,   297.11  " /><path style="stroke-width:0.85 ;&st7;  " d=" M  7946.17,   292.86  L  7946.17,   273.74  " /><path style="stroke-width:1.42 ;&st7;  " d=" M  7950.42,   292.86  L  7941.92,   292.86  " /><path style="stroke-width:1.42 ;&st7;  " d=" M  7950.42,   297.11  L  7941.92,   297.11  " /><path style="stroke-width:0.28 ;&st9;  " d=" M  7997.16,   290.74  L  7991.49,   282.24  L  8002.83,   282.24  L  7997.16,   290.74  " /><path style="stroke-width:0.85 ;&st7;  " d=" M  8362.60,   222.75  L  8362.60,   256.74  L  8099.14,   256.74  " /><path style="stroke-width:0.28 ;&st9;  " d=" M  7997.16,   350.23  L  7991.49,   341.73  L  8002.83,   341.73  L  7997.16,   350.23  " /><path style="stroke-width:0.85 ;&st7;  " d=" M  7997.16,   375.72  L  7997.16,   333.23  L  7994.33,   331.81  L  7999.99,   328.98  L  7994.33,   326.15  L  7999.99,   323.31  L  7994.33,   320.48  L  7999.99,   317.65  L  7997.16,   316.23  L  7997.16,   256.74  " /><path style="stroke-width:0.85 ;&st7;  " d=" M  8009.89,   281.07  L  8007.56,   284.11  L  8006.09,   281.57  L  8009.89,   281.07  L  8008.61,   281.81  L  8007.63,   283.10  L  8007.01,   282.02  L  8008.61,   281.81  L  8007.97,   282.18  L  8007.66,   282.59  L  8007.46,   282.25  L  8007.97,   282.18  " /><path style="stroke-width:0.85 ;&st7;  " d=" M  8097.95,   255.74  L  8097.68,   256.21  L  8097.59,   256.74  L  8097.68,   257.28  L  8097.95,   257.75  L  8098.36,   258.09  L  8098.87,   258.28  L  8099.41,   258.28  L  8099.92,   258.09  L  8100.34,   257.75  L  8100.61,   257.28  L  8100.70,   256.74  L  8100.61,   256.21  L  8100.34,   255.74  L  8099.92,   255.39  L  8099.41,   255.21  L  8098.87,   255.21  L  8098.36,   255.39  L  8097.95,   255.74  L  8098.34,   256.45  L  8098.34,   257.03  L  8098.72,   257.48  L  8099.29,   257.58  L  8099.79,   257.29  L  8099.99,   256.74  L  8099.79,   256.20  L  8099.29,   255.91  L  8098.72,   256.01  L  8099.14,   256.74  " /><path style="stroke-width:1.42 ;&st7;  " d=" M  8413.59,   273.74  L  8413.59,   290.74  L  8498.58,   290.74  L  8498.58,   273.74  L  8413.59,   273.74  " /><path style="stroke-width:1.42 ;&st7;  " d=" M  7895.18,   222.75  L  7895.18,   375.72  L  8762.03,   375.72  L  8762.03,   222.75  L  7895.18,   222.75  " /><path style="stroke-width:0.85 ;&st7;  " d=" M  8099.14,   256.74  L  7997.16,   256.74  " /><path style="stroke-width:0.85 ;&st7;  " d=" M  8011.90,   284.54  L  8009.56,   287.58  L  8008.10,   285.04  L  8011.90,   284.54  L  8010.61,   285.28  L  8009.63,   286.56  L  8009.01,   285.49  L  8010.61,   285.28  L  8009.97,   285.65  L  8009.66,   286.06  L  8009.47,   285.72  L  8009.97,   285.65  " /><path style="stroke-width:0.28 ;&st9;  " d=" M  7920.67,   290.74  L  7915.01,   282.24  L  7926.34,   282.24  L  7920.67,   290.74  " /><path style="stroke-width:0.28 ;&st9;  " d=" M  7920.67,   350.23  L  7915.01,   341.73  L  7926.34,   341.73  L  7920.67,   350.23  " /><path style="stroke-width:0.85 ;&st7;  " d=" M  7920.67,   375.72  L  7920.67,   333.23  L  7917.84,   331.81  L  7923.51,   328.98  L  7917.84,   326.15  L  7923.51,   323.31  L  7917.84,   320.48  L  7923.51,   317.65  L  7920.67,   316.23  L  7920.67,   256.74  " /><path style="stroke-width:0.85 ;&st7;  " d=" M  7933.41,   281.07  L  7931.07,   284.11  L  7929.61,   281.57  L  7933.41,   281.07  L  7932.12,   281.81  L  7931.14,   283.10  L  7930.52,   282.02  L  7932.12,   281.81  L  7931.48,   282.18  L  7931.17,   282.59  L  7930.98,   282.25  L  7931.48,   282.18  " /><path style="stroke-width:0.85 ;&st7;  " d=" M  7997.16,   256.74  L  7920.67,   256.74  " /><path style="stroke-width:0.85 ;&st7;  " d=" M  7935.41,   284.54  L  7933.08,   287.58  L  7931.61,   285.04  L  7935.41,   284.54  L  7934.13,   285.28  L  7933.14,   286.56  L  7932.52,   285.49  L  7934.13,   285.28  L  7933.49,   285.65  L  7933.17,   286.06  L  7932.98,   285.72  L  7933.49,   285.65  " /><path style="stroke-width:0.85 ;&st7;  " d=" M  7995.97,   255.74  L  7995.70,   256.21  L  7995.60,   256.74  L  7995.70,   257.28  L  7995.97,   257.75  L  7996.38,   258.09  L  7996.89,   258.28  L  7997.43,   258.28  L  7997.94,   258.09  L  7998.35,   257.75  L  7998.63,   257.28  L  7998.72,   256.74  L  7998.63,   256.21  L  7998.35,   255.74  L  7997.94,   255.39  L  7997.43,   255.21  L  7996.89,   255.21  L  7996.38,   255.39  L  7995.97,   255.74  L  7996.36,   256.45  L  7996.36,   257.03  L  7996.74,   257.48  L  7997.31,   257.58  L  7997.81,   257.29  L  7998.01,   256.74  L  7997.81,   256.20  L  7997.31,   255.91  L  7996.74,   256.01  L  7997.16,   256.74  " /><path style="stroke-width:0.28 ;&st9;  " d=" M  8073.65,   256.74  L  8065.15,   262.41  L  8065.15,   251.08  L  8073.65,   256.74  " /><path style="stroke-width:0.85 ;&st7;  " d=" M  8039.65,   307.73  L  8039.65,   299.24  L  8036.82,   297.82  L  8042.49,   294.99  L  8036.82,   292.15  L  8042.49,   289.32  L  8036.82,   286.49  L  8042.49,   283.65  L  8039.65,   282.24  L  8039.65,   273.74  " /><path style="stroke-width:0.85 ;&st7;  " d=" M  7997.16,   273.74  L  8039.65,   273.74  " /><path style="stroke-width:0.85 ;&st7;  " d=" M  7997.16,   307.73  L  8039.65,   307.73  " /><path style="stroke-width:0.85 ;&st7;  " d=" M  7995.97,   272.74  L  7995.70,   273.21  L  7995.60,   273.74  L  7995.70,   274.27  L  7995.97,   274.74  L  7996.38,   275.09  L  7996.89,   275.28  L  7997.43,   275.28  L  7997.94,   275.09  L  7998.35,   274.74  L  7998.63,   274.27  L  7998.72,   273.74  L  7998.63,   273.21  L  7998.35,   272.74  L  7997.94,   272.39  L  7997.43,   272.20  L  7996.89,   272.20  L  7996.38,   272.39  L  7995.97,   272.74  L  7996.36,   273.45  L  7996.36,   274.03  L  7996.74,   274.48  L  7997.31,   274.58  L  7997.81,   274.29  L  7998.01,   273.74  L  7997.81,   273.19  L  7997.31,   272.90  L  7996.74,   273.00  L  7997.16,   273.74  " /><path style="stroke-width:0.85 ;&st7;  " d=" M  7995.97,   306.73  L  7995.70,   307.20  L  7995.60,   307.73  L  7995.70,   308.27  L  7995.97,   308.74  L  7996.38,   309.08  L  7996.89,   309.27  L  7997.43,   309.27  L  7997.94,   309.08  L  7998.35,   308.74  L  7998.63,   308.27  L  7998.72,   307.73  L  7998.63,   307.20  L  7998.35,   306.73  L  7997.94,   306.39  L  7997.43,   306.20  L  7996.89,   306.20  L  7996.38,   306.39  L  7995.97,   306.73  L  7996.36,   307.44  L  7996.36,   308.03  L  7996.74,   308.47  L  7997.31,   308.57  L  7997.81,   308.28  L  7998.01,   307.73  L  7997.81,   307.19  L  7997.31,   306.90  L  7996.74,   307.00  L  7997.16,   307.73  " /><path style="stroke-width:0.85 ;&st7;  " d=" M  7963.17,   307.73  L  7963.17,   299.24  L  7960.33,   297.82  L  7966.00,   294.99  L  7960.33,   292.15  L  7966.00,   289.32  L  7960.33,   286.49  L  7966.00,   283.65  L  7963.17,   282.24  L  7963.17,   273.74  " /><path style="stroke-width:0.85 ;&st7;  " d=" M  7920.67,   273.74  L  7963.17,   273.74  " /><path style="stroke-width:0.85 ;&st7;  " d=" M  7920.67,   307.73  L  7963.17,   307.73  " /><path style="stroke-width:0.85 ;&st7;  " d=" M  7944.98,   272.74  L  7944.70,   273.21  L  7944.61,   273.74  L  7944.70,   274.27  L  7944.98,   274.74  L  7945.39,   275.09  L  7945.90,   275.28  L  7946.44,   275.28  L  7946.95,   275.09  L  7947.36,   274.74  L  7947.63,   274.27  L  7947.73,   273.74  L  7947.63,   273.21  L  7947.36,   272.74  L  7946.95,   272.39  L  7946.44,   272.20  L  7945.90,   272.20  L  7945.39,   272.39  L  7944.98,   272.74  L  7945.37,   273.45  L  7945.37,   274.03  L  7945.74,   274.48  L  7946.32,   274.58  L  7946.82,   274.29  L  7947.02,   273.74  L  7946.82,   273.19  L  7946.32,   272.90  L  7945.74,   273.00  L  7946.17,   273.74  " /><path style="stroke-width:0.85 ;&st7;  " d=" M  7944.98,   306.73  L  7944.70,   307.20  L  7944.61,   307.73  L  7944.70,   308.27  L  7944.98,   308.74  L  7945.39,   309.08  L  7945.90,   309.27  L  7946.44,   309.27  L  7946.95,   309.08  L  7947.36,   308.74  L  7947.63,   308.27  L  7947.73,   307.73  L  7947.63,   307.20  L  7947.36,   306.73  L  7946.95,   306.39  L  7946.44,   306.20  L  7945.90,   306.20  L  7945.39,   306.39  L  7944.98,   306.73  L  7945.37,   307.44  L  7945.37,   308.03  L  7945.74,   308.47  L  7946.32,   308.57  L  7946.82,   308.28  L  7947.02,   307.73  L  7946.82,   307.19  L  7946.32,   306.90  L  7945.74,   307.00  L  7946.17,   307.73  " /><path style="stroke-width:0.85 ;&st7;  " d=" M  7919.48,   306.73  L  7919.21,   307.20  L  7919.12,   307.73  L  7919.21,   308.27  L  7919.48,   308.74  L  7919.89,   309.08  L  7920.40,   309.27  L  7920.94,   309.27  L  7921.45,   309.08  L  7921.87,   308.74  L  7922.14,   308.27  L  7922.23,   307.73  L  7922.14,   307.20  L  7921.87,   306.73  L  7921.45,   306.39  L  7920.94,   306.20  L  7920.40,   306.20  L  7919.89,   306.39  L  7919.48,   306.73  L  7919.87,   307.44  L  7919.87,   308.03  L  7920.25,   308.47  L  7920.82,   308.57  L  7921.32,   308.28  L  7921.52,   307.73  L  7921.32,   307.19  L  7920.82,   306.90  L  7920.25,   307.00  L  7920.67,   307.73  " /><path style="stroke-width:0.85 ;&st7;  " d=" M  7919.48,   272.74  L  7919.21,   273.21  L  7919.12,   273.74  L  7919.21,   274.27  L  7919.48,   274.74  L  7919.89,   275.09  L  7920.40,   275.28  L  7920.94,   275.28  L  7921.45,   275.09  L  7921.87,   274.74  L  7922.14,   274.27  L  7922.23,   273.74  L  7922.14,   273.21  L  7921.87,   272.74  L  7921.45,   272.39  L  7920.94,   272.20  L  7920.40,   272.20  L  7919.89,   272.39  L  7919.48,   272.74  L  7919.87,   273.45  L  7919.87,   274.03  L  7920.25,   274.48  L  7920.82,   274.58  L  7921.32,   274.29  L  7921.52,   273.74  L  7921.32,   273.19  L  7920.82,   272.90  L  7920.25,   273.00  L  7920.67,   273.74  " /><text style="&st18;" transform="matrix(&st16;  8042.24  230.94 )">B</text><g ewd:code="" ewd:figID="452" ewd:comment="19" ewd:figtype="commref"><text style="&st18;" transform="matrix(&st17;  7983.29  301.4 )" ewd:textID="31">Check <tspan x="0 " dy="6.0">Engine(*19)</tspan></text></g><text style="&st18;" transform="matrix(&st16;  8449.79  284.21 )">CPU</text><text style="&st18;" transform="matrix(&st17;  7913.02  298.22 )" ewd:textID="93">Sub Tank</text><text style="&st18;" transform="matrix(&st16;  7923.26  372.03 )">IND</text><text style="&st18;" transform="matrix(&st16;  7999.75  372.03 )">CHK</text><path style="stroke-width:0.28 ;&st9;  " d=" M  8039.65,   248.24  L  8033.99,   239.75  L  8045.32,   239.75  L  8039.65,   248.24  " /><text style="&st18;" transform="matrix(&st16;  8365.19  230.94 )">B</text><text style="&st18;" transform="matrix(&st16;  8732.88  372.03 )">ES</text><path style="stroke-width:0.85 ;&st7;  " d=" M  8039.65,   222.75  L  8039.65,   256.74  " /><path style="stroke-width:0.85 ;&st7;  " d=" M  8038.46,   255.74  L  8038.19,   256.21  L  8038.10,   256.74  L  8038.19,   257.28  L  8038.46,   257.75  L  8038.87,   258.09  L  8039.38,   258.28  L  8039.92,   258.28  L  8040.43,   258.09  L  8040.85,   257.75  L  8041.12,   257.28  L  8041.21,   256.74  L  8041.12,   256.21  L  8040.85,   255.74  L  8040.43,   255.39  L  8039.92,   255.21  L  8039.38,   255.21  L  8038.87,   255.39  L  8038.46,   255.74  L  8038.85,   256.45  L  8038.85,   257.03  L  8039.23,   257.48  L  8039.80,   257.58  L  8040.30,   257.29  L  8040.50,   256.74  L  8040.30,   256.20  L  8039.80,   255.91  L  8039.23,   256.01  L  8039.65,   256.74  " /><path style="stroke-width:0.85 ;&st7;  " d=" M  8617.56,   316.23  L  8609.06,   310.57  " /><path style="stroke-width:0.85 ;&st7;  " d=" M  8490.08,   324.73  L  8481.58,   319.07  " /><path style="stroke-width:1.42 ;&st7;  " d=" M  8481.58,   307.73  L  8481.58,   324.73  " /><path style="stroke-width:1.42 ;&st7;  " d=" M  8609.06,   299.24  L  8609.06,   316.23  " /><path style="stroke-width:0.85 ;&st7;  " d=" M  8490.08,   324.73  L  8487.94,   321.55  L  8486.32,   323.99  L  8490.08,   324.73  L  8488.85,   323.91  L  8487.95,   322.57  L  8487.26,   323.60  L  8488.85,   323.91  L  8488.23,   323.50  L  8487.95,   323.08  L  8487.73,   323.40  L  8488.23,   323.50  " /><path style="stroke-width:0.85 ;&st7;  " d=" M  8490.08,   307.73  L  8481.58,   313.40  " /><path style="stroke-width:0.85 ;&st7;  " d=" M  8456.08,   316.23  L  8481.58,   316.23  " /><path style="stroke-width:0.85 ;&st7;  " d=" M  8456.08,   350.23  L  8456.08,   341.73  L  8453.25,   340.31  L  8458.92,   337.48  L  8453.25,   334.65  L  8458.92,   331.81  L  8453.25,   328.98  L  8458.92,   326.15  L  8456.08,   324.73  L  8456.08,   316.23  " /><path style="stroke-width:0.85 ;&st7;  " d=" M  8582.37,   306.73  L  8582.10,   307.20  L  8582.00,   307.73  L  8582.10,   308.27  L  8582.37,   308.74  L  8582.78,   309.08  L  8583.29,   309.27  L  8583.83,   309.27  L  8584.34,   309.08  L  8584.75,   308.74  L  8585.03,   308.27  L  8585.12,   307.73  L  8585.03,   307.20  L  8584.75,   306.73  L  8584.34,   306.39  L  8583.83,   306.20  L  8583.29,   306.20  L  8582.78,   306.39  L  8582.37,   306.73  L  8582.76,   307.44  L  8582.76,   308.03  L  8583.14,   308.47  L  8583.71,   308.57  L  8584.21,   308.28  L  8584.41,   307.73  L  8584.21,   307.19  L  8583.71,   306.90  L  8583.14,   307.00  L  8583.56,   307.73  " /><path style="stroke-width:0.85 ;&st7;  " d=" M  8548.38,   340.73  L  8548.10,   341.20  L  8548.01,   341.73  L  8548.10,   342.26  L  8548.38,   342.73  L  8548.79,   343.08  L  8549.30,   343.26  L  8549.84,   343.26  L  8550.35,   343.08  L  8550.76,   342.73  L  8551.03,   342.26  L  8551.13,   341.73  L  8551.03,   341.20  L  8550.76,   340.73  L  8550.35,   340.38  L  8549.84,   340.19  L  8549.30,   340.19  L  8548.79,   340.38  L  8548.38,   340.73  L  8548.77,   341.44  L  8548.77,   342.02  L  8549.14,   342.46  L  8549.72,   342.56  L  8550.22,   342.28  L  8550.42,   341.73  L  8550.22,   341.18  L  8549.72,   340.89  L  8549.14,   340.99  L  8549.57,   341.73  " /><path style="stroke-width:0.85 ;&st7;  " d=" M  8651.55,   350.23  L  8651.55,   375.72  " /><path style="stroke-width:0.85 ;&st7;  " d=" M  8545.32,   341.73  L  8553.82,   341.73  " /><path style="stroke-width:0.85 ;&st7;  " d=" M  8456.08,   316.23  L  8456.08,   290.74  " /><path style="stroke-width:0.85 ;&st7;  " d=" M  8454.89,   315.23  L  8454.62,   315.70  L  8454.53,   316.23  L  8454.62,   316.77  L  8454.89,   317.24  L  8455.30,   317.58  L  8455.81,   317.77  L  8456.35,   317.77  L  8456.86,   317.58  L  8457.28,   317.24  L  8457.55,   316.77  L  8457.64,   316.23  L  8457.55,   315.70  L  8457.28,   315.23  L  8456.86,   314.88  L  8456.35,   314.70  L  8455.81,   314.70  L  8455.30,   314.88  L  8454.89,   315.23  L  8455.28,   315.94  L  8455.28,   316.52  L  8455.66,   316.97  L  8456.23,   317.07  L  8456.74,   316.78  L  8456.93,   316.23  L  8456.74,   315.69  L  8456.23,   315.40  L  8455.66,   315.50  L  8456.08,   316.23  " /><path style="stroke-width:0.85 ;&st7;  " d=" M  8617.56,   316.23  L  8617.56,   324.73  " /><path style="stroke-width:0.85 ;&st7;  " d=" M  8481.58,   333.23  L  8477.33,   341.73  " /><path style="stroke-width:0.85 ;&st7;  " d=" M  8498.58,   333.23  L  8494.33,   341.73  " /><path style="stroke-width:0.85 ;&st7;  " d=" M  8490.08,   333.23  L  8485.83,   341.73  " /><path style="stroke-width:0.85 ;&st7;  " d=" M  8481.58,   333.23  L  8498.58,   333.23  " /><path style="stroke-width:0.85 ;&st7;  " d=" M  8490.08,   324.73  L  8490.08,   333.23  " /><path style="stroke-width:0.85 ;&st7;  " d=" M  8609.06,   324.73  L  8626.06,   324.73  " /><path style="stroke-width:0.85 ;&st7;  " d=" M  8617.56,   299.24  L  8609.06,   304.90  " /><path style="stroke-width:0.85 ;&st7;  " d=" M  8617.56,   316.23  L  8615.42,   313.05  L  8613.80,   315.49  L  8617.56,   316.23  L  8616.32,   315.41  L  8615.43,   314.07  L  8614.74,   315.10  L  8616.32,   315.41  L  8615.71,   315.00  L  8615.43,   314.58  L  8615.21,   314.90  L  8615.71,   315.00  " /><path style="stroke-width:0.85 ;&st7;  " d=" M  8490.08,   307.73  L  8609.06,   307.73  " /><path style="stroke-width:0.85 ;&st7;  " d=" M  8617.56,   324.73  L  8613.31,   333.23  " /><path style="stroke-width:0.85 ;&st7;  " d=" M  8626.06,   324.73  L  8621.81,   333.23  " /><path style="stroke-width:0.85 ;&st7;  " d=" M  8651.55,   350.23  L  8651.55,   341.73  L  8648.72,   340.31  L  8654.38,   337.48  L  8648.72,   334.65  L  8654.38,   331.81  L  8648.72,   328.98  L  8654.38,   326.15  L  8651.55,   324.73  L  8651.55,   316.23  " /><path style="stroke-width:0.85 ;&st7;  " d=" M  8609.06,   324.73  L  8604.81,   333.23  " /><path style="stroke-width:0.85 ;&st7;  " d=" M  8617.56,   299.24  L  8651.55,   299.24  L  8651.55,   316.23  " /><path style="stroke-width:0.85 ;&st7;  " d=" M  8456.08,   350.23  L  8456.08,   375.72  " /><path style="stroke-width:0.85 ;&st7;  " d=" M  8549.57,   375.72  L  8549.57,   341.73  " /><text style="&st18;" transform="matrix(&st16;  8458.67  372.03 )">SI</text><text style="&st18;" transform="matrix(&st16;  8552.15  372.03 )">IG+</text><text style="&st18;" transform="matrix(&st16;  8654.14  372.03 )">+S</text><path style="stroke-width:0.85 ;&st7;  " d=" M  8021.46,   306.73  L  8021.19,   307.20  L  8021.10,   307.73  L  8021.19,   308.27  L  8021.46,   308.74  L  8021.88,   309.08  L  8022.39,   309.27  L  8022.93,   309.27  L  8023.44,   309.08  L  8023.85,   308.74  L  8024.12,   308.27  L  8024.21,   307.73  L  8024.12,   307.20  L  8023.85,   306.73  L  8023.44,   306.39  L  8022.93,   306.20  L  8022.39,   306.20  L  8021.88,   306.39  L  8021.46,   306.73  L  8021.86,   307.44  L  8021.86,   308.03  L  8022.23,   308.47  L  8022.80,   308.57  L  8023.31,   308.28  L  8023.51,   307.73  L  8023.31,   307.19  L  8022.80,   306.90  L  8022.23,   307.00  L  8022.66,   307.73  " /><path style="stroke-width:0.85 ;&st7;  " d=" M  8021.46,   272.74  L  8021.19,   273.21  L  8021.10,   273.74  L  8021.19,   274.27  L  8021.46,   274.74  L  8021.88,   275.09  L  8022.39,   275.28  L  8022.93,   275.28  L  8023.44,   275.09  L  8023.85,   274.74  L  8024.12,   274.27  L  8024.21,   273.74  L  8024.12,   273.21  L  8023.85,   272.74  L  8023.44,   272.39  L  8022.93,   272.20  L  8022.39,   272.20  L  8021.88,   272.39  L  8021.46,   272.74  L  8021.86,   273.45  L  8021.86,   274.03  L  8022.23,   274.48  L  8022.80,   274.58  L  8023.31,   274.29  L  8023.51,   273.74  L  8023.31,   273.19  L  8022.80,   272.90  L  8022.23,   273.00  L  8022.66,   273.74  " /><path style="stroke-width:1.42 ;&st7;  " d=" M  8026.91,   297.11  L  8018.41,   297.11  " /><path style="stroke-width:0.85 ;&st7;  " d=" M  8022.66,   307.73  L  8022.66,   297.11  " /><path style="stroke-width:0.85 ;&st7;  " d=" M  8022.66,   292.86  L  8022.66,   273.74  " /><path style="stroke-width:1.42 ;&st7;  " d=" M  8026.91,   292.86  L  8018.41,   292.86  " /><g ewd:code="" ewd:figID="453" ewd:comment="10" ewd:figtype="commref"><text style="&st18;" transform="matrix(&st17;  7928.31  364.99 )">(*10)</text></g><path style="stroke-width:0.85 ;&st7;  " d=" M  8043.91,   248.24  L  8035.41,   248.24  " /><g ewd:code="" ewd:figID="451" ewd:comment="14" ewd:figtype="commref"><text style="&st18;" transform="matrix(&st17;  8557.21  364.99 )">(*14)</text></g><path style="stroke-width:0.85 ;&st7;  " d=" M  8583.56,   307.73  L  8583.56,   299.24  L  8580.73,   297.82  L  8586.40,   294.99  L  8580.73,   292.15  L  8586.40,   289.32  L  8580.73,   286.49  L  8586.40,   283.65  L  8583.56,   282.24  L  8583.56,   273.74  " /><path style="stroke-width:0.85 ;&st7;  " d=" M  8582.37,   272.74  L  8582.10,   273.21  L  8582.00,   273.74  L  8582.10,   274.27  L  8582.37,   274.74  L  8582.78,   275.09  L  8583.29,   275.28  L  8583.83,   275.28  L  8584.34,   275.09  L  8584.75,   274.74  L  8585.03,   274.27  L  8585.12,   273.74  L  8585.03,   273.21  L  8584.75,   272.74  L  8584.34,   272.39  L  8583.83,   272.20  L  8583.29,   272.20  L  8582.78,   272.39  L  8582.37,   272.74  L  8582.76,   273.45  L  8582.76,   274.03  L  8583.14,   274.48  L  8583.71,   274.58  L  8584.21,   274.29  L  8584.41,   273.74  L  8584.21,   273.19  L  8583.71,   272.90  L  8583.14,   273.00  L  8583.56,   273.74  " /><path style="stroke-width:0.85 ;&st7;  " d=" M  8579.31,   273.74  L  8587.81,   273.74  " /><path style="stroke-width:0.85 ;&st7;  " d=" M  8099.14,   256.74  L  8099.14,   239.75  L  8456.08,   239.75  L  8456.08,   273.74  " /><text style="&st18;" transform="matrix(&st16;  8082.29  372.03 )">CANL</text><text style="&st18;" transform="matrix(&st16;  8047.87  372.03 )">CANH</text><path style="stroke-width:0.85 ;&st7;  " d=" M  8366.85,   299.24  L  8358.35,   299.24  " /><path style="stroke-width:0.85 ;&st7;  " d=" M  8375.33,   289.57  L  8367.97,   293.82  " /><path style="stroke-width:0.85 ;&st7;  " d=" M  8369.98,   297.29  L  8377.34,   293.04  " /><path style="stroke-width:0.85 ;&st7;  " d=" M  8124.64,   260.99  L  8124.64,   252.49  " /><path style="stroke-width:0.85 ;&st7;  " d=" M  8362.60,   256.74  L  8362.60,   307.73  L  8365.43,   309.15  L  8359.77,   311.98  L  8365.43,   314.82  L  8359.77,   317.65  L  8365.43,   320.48  L  8359.77,   323.31  L  8362.60,   324.73  L  8362.60,   333.23  " /><path style="stroke-width:0.28 ;&st9;  " d=" M  8362.60,   299.24  L  8356.93,   290.74  L  8368.26,   290.74  L  8362.60,   299.24  " /><path style="stroke-width:0.85 ;&st7;  " d=" M  8375.33,   289.57  L  8373.00,   292.61  L  8371.53,   290.07  L  8375.33,   289.57  L  8374.05,   290.31  L  8373.06,   291.60  L  8372.45,   290.52  L  8374.05,   290.31  L  8373.41,   290.68  L  8373.10,   291.09  L  8372.90,   290.75  L  8373.41,   290.68  " /><path style="stroke-width:0.85 ;&st7;  " d=" M  8377.34,   293.04  L  8375.00,   296.08  L  8373.53,   293.54  L  8377.34,   293.04  L  8376.05,   293.78  L  8375.07,   295.06  L  8374.45,   293.99  L  8376.05,   293.78  L  8375.41,   294.15  L  8375.10,   294.56  L  8374.91,   294.22  L  8375.41,   294.15  " /><path style="stroke-width:0.85 ;&st7;  " d=" M  8396.59,   350.23  L  8396.59,   358.73  " /><path style="stroke-width:0.85 ;&st7;  " d=" M  8388.09,   358.73  L  8405.09,   358.73  " /><path style="stroke-width:0.85 ;&st7;  " d=" M  8396.59,   358.73  L  8392.34,   367.22  " /><path style="stroke-width:0.85 ;&st7;  " d=" M  8405.09,   358.73  L  8400.84,   367.22  " /><path style="stroke-width:0.85 ;&st7;  " d=" M  8388.09,   358.73  L  8383.85,   367.22  " /><path style="stroke-width:0.85 ;&st7;  " d=" M  8361.41,   255.74  L  8361.13,   256.21  L  8361.04,   256.74  L  8361.13,   257.28  L  8361.41,   257.75  L  8361.82,   258.09  L  8362.33,   258.28  L  8362.87,   258.28  L  8363.38,   258.09  L  8363.79,   257.75  L  8364.06,   257.28  L  8364.16,   256.74  L  8364.06,   256.21  L  8363.79,   255.74  L  8363.38,   255.39  L  8362.87,   255.21  L  8362.33,   255.21  L  8361.82,   255.39  L  8361.41,   255.74  L  8361.80,   256.45  L  8361.80,   257.03  L  8362.17,   257.48  L  8362.75,   257.58  L  8363.25,   257.29  L  8363.45,   256.74  L  8363.25,   256.20  L  8362.75,   255.91  L  8362.17,   256.01  L  8362.60,   256.74  " /><path style="stroke-width:0.85 ;&st7;  " d=" M  8362.60,   333.23  L  8396.59,   333.23  " /><text style="&st18;" transform="matrix(&st17;  8348.72  303.38 )" ewd:textID="30">Check <tspan x="0 " dy="6.0">Engine</tspan></text><g ewd:code="" ewd:figID="448" ewd:comment="18" ewd:figtype="commref"><text style="&st18;" transform="matrix(&st17;  8370.24  280.0 )">(*18)</text></g><g ewd:code="" ewd:figID="450" ewd:comment="18" ewd:figtype="commref"><text style="&st18;" transform="matrix(&st17;  8429.73  331.0 )">(*18)</text></g><path style="stroke-width:1.42 ;&st7;  " d=" M  8405.10,   350.23  L  8405.10,   333.23  " /><path style="stroke-width:0.85 ;&st7;  " d=" M  8396.60,   333.23  L  8405.10,   338.90  " /><path style="stroke-width:0.85 ;&st7;  " d=" M  8396.59,   350.23  L  8405.09,   344.56  " /><path style="stroke-width:0.85 ;&st7;  " d=" M  8396.59,   350.23  L  8398.73,   347.04  L  8400.35,   349.48  L  8396.59,   350.23  L  8397.83,   349.41  L  8398.72,   348.06  L  8399.41,   349.09  L  8397.83,   349.41  L  8398.44,   348.99  L  8398.72,   348.57  L  8398.94,   348.90  L  8398.44,   348.99  " /><path style="stroke-width:0.85 ;&st7;  " d=" M  8405.09,   341.73  L  8422.09,   341.73  L  8422.09,   290.74  " /><path style="stroke-width:0.28 ;&st9;  " d=" M  8124.64,   256.74  L  8133.14,   251.08  L  8133.14,   262.41  L  8124.64,   256.74  " /><g ewd:code="" ewd:figID="449" ewd:comment="10" ewd:figtype="commref"><text style="&st18;" transform="matrix(&st16;  7947.91  264.38 )">(*10)</text></g><text style="&st18;" transform="matrix(&st16;  8078.85  382.22 )">14</text><path style="stroke-width:1.42 ;&st7;   " d=" M  8095.18,   380.26  C  8095.18    377.75   8093.15    375.72   8090.65    375.72  " /><path style="stroke-width:1.42 ;&st7;   " d=" M  8090.65,   375.72  C  8088.14    375.72   8086.12    377.75   8086.12    380.26  " /><path style="stroke-width:1.42 ;&st7;   " d=" M  8086.12,   380.26  C  8086.12    382.76   8088.14    384.79   8090.65    384.79  " /><path style="stroke-width:1.42 ;&st7;   " d=" M  8090.65,   384.79  C  8093.15    384.79   8095.18    382.76   8095.18    380.26  " /><text style="&st18;" transform="matrix(&st16;  8088.46  382.22 )">B</text><text style="&st18;" transform="matrix(&st16;  8027.86  220.18 )">28</text><path style="stroke-width:1.42 ;&st7;   " d=" M  8044.19,   218.22  C  8044.19    215.71   8042.16    213.68   8039.66    213.68  " /><path style="stroke-width:1.42 ;&st7;   " d=" M  8039.66,   213.68  C  8037.15    213.68   8035.12    215.71   8035.12    218.22  " /><path style="stroke-width:1.42 ;&st7;   " d=" M  8035.12,   218.22  C  8035.12    220.72   8037.15    222.75   8039.66    222.75  " /><path style="stroke-width:1.42 ;&st7;   " d=" M  8039.66,   222.75  C  8042.16    222.75   8044.19    220.72   8044.19    218.22  " /><text style="&st18;" transform="matrix(&st16;  8037.35  220.18 )">A</text><text style="&st18;" transform="matrix(&st16;  7985.37  382.22 )">12</text><path style="stroke-width:1.42 ;&st7;   " d=" M  8001.70,   380.26  C  8001.70    377.75   7999.67    375.72   7997.16    375.72  " /><path style="stroke-width:1.42 ;&st7;   " d=" M  7997.16,   375.72  C  7994.66    375.72   7992.63    377.75   7992.63    380.26  " /><path style="stroke-width:1.42 ;&st7;   " d=" M  7992.63,   380.26  C  7992.63    382.76   7994.66    384.79   7997.16    384.79  " /><path style="stroke-width:1.42 ;&st7;   " d=" M  7997.16,   384.79  C  7999.67    384.79   8001.70    382.76   8001.70    380.26  " /><text style="&st18;" transform="matrix(&st16;  7994.86  382.22 )">A</text><text style="&st18;" transform="matrix(&st16;  8044.86  382.22 )">13</text><path style="stroke-width:1.42 ;&st7;   " d=" M  8061.19,   380.26  C  8061.19    377.75   8059.16    375.72   8056.65    375.72  " /><path style="stroke-width:1.42 ;&st7;   " d=" M  8056.65,   375.72  C  8054.15    375.72   8052.12    377.75   8052.12    380.26  " /><path style="stroke-width:1.42 ;&st7;   " d=" M  8052.12,   380.26  C  8052.12    382.76   8054.15    384.79   8056.65    384.79  " /><path style="stroke-width:1.42 ;&st7;   " d=" M  8056.65,   384.79  C  8059.16    384.79   8061.19    382.76   8061.19    380.26  " /><text style="&st18;" transform="matrix(&st16;  8054.47  382.22 )">B</text><text style="&st18;" transform="matrix(&st16;  8350.81  220.18 )">26</text><path style="stroke-width:1.42 ;&st7;   " d=" M  8367.14,   218.22  C  8367.14    215.71   8365.11    213.68   8362.60    213.68  " /><path style="stroke-width:1.42 ;&st7;   " d=" M  8362.60,   213.68  C  8360.10    213.68   8358.07    215.71   8358.07    218.22  " /><path style="stroke-width:1.42 ;&st7;   " d=" M  8358.07,   218.22  C  8358.07    220.72   8360.10    222.75   8362.60    222.75  " /><path style="stroke-width:1.42 ;&st7;   " d=" M  8362.60,   222.75  C  8365.11    222.75   8367.14    220.72   8367.14    218.22  " /><text style="&st18;" transform="matrix(&st16;  8360.3  220.18 )">A</text><text style="&st18;" transform="matrix(&st16;  8447.39  382.22 )">9</text><path style="stroke-width:1.42 ;&st7;   " d=" M  8460.62,   380.26  C  8460.62    377.75   8458.59    375.72   8456.09    375.72  " /><path style="stroke-width:1.42 ;&st7;   " d=" M  8456.09,   375.72  C  8453.58    375.72   8451.55    377.75   8451.55    380.26  " /><path style="stroke-width:1.42 ;&st7;   " d=" M  8451.55,   380.26  C  8451.55    382.76   8453.58    384.79   8456.09    384.79  " /><path style="stroke-width:1.42 ;&st7;   " d=" M  8456.09,   384.79  C  8458.59    384.79   8460.62    382.76   8460.62    380.26  " /><text style="&st18;" transform="matrix(&st16;  8453.78  382.22 )">A</text><text style="&st18;" transform="matrix(&st16;  8537.78  382.22 )">13</text><text style="&st18;" transform="matrix(&st16;  8547.27  382.22 )">A</text><path style="stroke-width:1.42 ;&st7;   " d=" M  8554.10,   380.26  C  8554.10    377.75   8552.07    375.72   8549.57    375.72  " /><path style="stroke-width:1.42 ;&st7;   " d=" M  8549.57,   375.72  C  8547.07    375.72   8545.04    377.75   8545.04    380.26  " /><path style="stroke-width:1.42 ;&st7;   " d=" M  8545.04,   380.26  C  8545.04    382.76   8547.07    384.79   8549.57    384.79  " /><path style="stroke-width:1.42 ;&st7;   " d=" M  8549.57,   384.79  C  8552.07    384.79   8554.10    382.76   8554.10    380.26  " /><text style="&st18;" transform="matrix(&st16;  8642.86  382.22 )">8</text><path style="stroke-width:1.42 ;&st7;   " d=" M  8656.09,   380.26  C  8656.09    377.75   8654.06    375.72   8651.55    375.72  " /><path style="stroke-width:1.42 ;&st7;   " d=" M  8651.55,   375.72  C  8649.05    375.72   8647.02    377.75   8647.02    380.26  " /><path style="stroke-width:1.42 ;&st7;   " d=" M  8647.02,   380.26  C  8647.02    382.76   8649.05    384.79   8651.55    384.79  " /><path style="stroke-width:1.42 ;&st7;   " d=" M  8651.55,   384.79  C  8654.06    384.79   8656.09    382.76   8656.09    380.26  " /><text style="&st18;" transform="matrix(&st16;  8649.25  382.22 )">A</text><text style="&st18;" transform="matrix(&st16;  8724.74  382.22 )">15</text><path style="stroke-width:1.42 ;&st7;   " d=" M  8741.07,   380.26  C  8741.07    377.75   8739.04    375.72   8736.54    375.72  " /><path style="stroke-width:1.42 ;&st7;   " d=" M  8736.54,   375.72  C  8734.04    375.72   8732.01    377.75   8732.01    380.26  " /><path style="stroke-width:1.42 ;&st7;   " d=" M  8732.01,   380.26  C  8732.01    382.76   8734.04    384.79   8736.54    384.79  " /><path style="stroke-width:1.42 ;&st7;   " d=" M  8736.54,   384.79  C  8739.04    384.79   8741.07    382.76   8741.07    380.26  " /><text style="&st18;" transform="matrix(&st16;  8734.24  382.22 )">A</text><text style="&st18;" transform="matrix(&st16;  7911.98  382.22 )">8</text><text style="&st18;" transform="matrix(&st16;  7918.49  382.22 )">B</text><path style="stroke-width:1.42 ;&st7;   " d=" M  7925.21,   380.26  C  7925.21    377.75   7923.18    375.72   7920.68    375.72  " /><path style="stroke-width:1.42 ;&st7;   " d=" M  7920.68,   375.72  C  7918.17    375.72   7916.14    377.75   7916.14    380.26  " /><path style="stroke-width:1.42 ;&st7;   " d=" M  7916.14,   380.26  C  7916.14    382.76   7918.17    384.79   7920.68    384.79  " /><path style="stroke-width:1.42 ;&st7;   " d=" M  7920.68,   384.79  C  7923.18    384.79   7925.21    382.76   7925.21    380.26  " /><g ewd:figtype="title"><text style="&st18;" transform="matrix(&st16;  8138.23  390.44 )" ewd:textID="32">Combination Meter Assembly</text><text style="&st18;" transform="matrix(&st16;  8138.23  383.62 )">L25(A),L26(B)</text></g></g><g ewd:figtype="w2w" ewd:figID="199" ewd:code="IL1"><path style="stroke-width:1.42 ;&st7;  " d=" M  7593.48,   580.26  L  7589.23,   576.01  L  7584.98,   580.26  " /><path style="stroke-width:1.42 ;&st7;  " d=" M  7593.48,   576.86  L  7589.23,   572.61  L  7584.98,   576.86  " /><text style="&st18;" transform="matrix(&st16;  7573.5  568.91 )">45</text></g><g ewd:figtype="w2w" ewd:figID="200" ewd:code="AI3"><path style="stroke-width:1.42 ;&st7;  " d=" M  7593.48,   398.39  L  7589.23,   394.14  L  7584.98,   398.39  " /><path style="stroke-width:1.42 ;&st7;  " d=" M  7593.48,   401.78  L  7589.23,   397.54  L  7584.98,   401.78  " /><text style="&st18;" transform="matrix(&st16;  7573.5  390.44 )">54</text></g><g ewd:figtype="w2w" ewd:figID="201" ewd:code="IL1"><path style="stroke-width:1.42 ;&st7;  " d=" M  7627.47,   580.26  L  7623.22,   576.01  L  7618.97,   580.26  " /><path style="stroke-width:1.42 ;&st7;  " d=" M  7627.47,   576.86  L  7623.22,   572.61  L  7618.97,   576.86  " /><text style="&st18;" transform="matrix(&st16;  7607.49  568.91 )">23</text></g><g ewd:figtype="w2w" ewd:figID="202" ewd:code="AI3"><path style="stroke-width:1.42 ;&st7;  " d=" M  7627.47,   398.39  L  7623.22,   394.14  L  7618.97,   398.39  " /><path style="stroke-width:1.42 ;&st7;  " d=" M  7627.47,   401.78  L  7623.22,   397.54  L  7618.97,   401.78  " /><text style="&st18;" transform="matrix(&st16;  7607.49  390.44 )">53</text></g><g ewd:code="AI3" ewd:figID="203" ewd:comment="13" ewd:figtype="w2w"><text style="&st18;" transform="matrix(&st16;  7811.46  194.97 )">21</text><path style="stroke-width:1.42 ;&st7;  " d=" M  7831.44,   206.32  L  7827.19,   202.07  L  7822.94,   206.32  " /><path style="stroke-width:1.42 ;&st7;  " d=" M  7831.44,   202.92  L  7827.19,   198.67  L  7822.94,   202.92  " /><g ewd:code="" ewd:figID="397" ewd:comment="13" ewd:figtype="commref"><text style="&st18;" transform="matrix(&st16;  7836.22  194.97 )">(RHD *13)</text></g></g><g ewd:figtype="w2w" ewd:figID="204" ewd:code="AI3"><text style="&st18;" transform="matrix(&st16;  7811.46  186.47 )">51</text><g ewd:code="" ewd:figID="392" ewd:comment="" ewd:figtype="commref"><text style="&st18;" transform="matrix(&st16;  7836.22  186.47 )">(LHD)</text></g></g><g ewd:figtype="w2w" ewd:figID="205" ewd:code="LI1"><path style="stroke-width:1.42 ;&st7;  " d=" M  7984.41,   123.60  L  7980.16,   127.85  L  7975.91,   123.60  " /><path style="stroke-width:1.42 ;&st7;  " d=" M  7975.91,   120.20  L  7980.16,   124.45  L  7984.41,   120.20  " /><text style="&st18;" transform="matrix(&st16;  7964.43  135.48 )">18</text></g><g ewd:code="10" ewd:figID="438" ewd:comment="" ewd:figtype="comment"><text style="&st18;" transform="matrix(&st16;  7551.83  114.24 )" ewd:textID="11">*10 :w/ PMP SELECT Relay</text></g><g ewd:code="18" ewd:figID="440" ewd:comment="" ewd:figtype="comment"><text style="&st18;" transform="matrix(&st16;  7551.83  131.23 )" ewd:textID="19">*18 :w/ VSC</text></g><g ewd:code="13" ewd:figID="439" ewd:comment="" ewd:figtype="comment"><text style="&st18;" transform="matrix(&st16;  7551.83  122.73 )" ewd:textID="14">*13 :w/ ABS w/o VSC</text></g><g ewd:code="19" ewd:figID="441" ewd:comment="" ewd:figtype="comment"><text style="&st18;" transform="matrix(&st16;  7551.83  139.73 )" ewd:textID="20">*19 :w/o VSC</text></g></svg>