<?xml version="1.0" encoding="utf-8"?>
<!DOCTYPE svg PUBLIC "-//W3C//DTD SVG 1.0//EN" "http://www.w3.org/TR/2001/REC-SVG-20010904/DTD/svg10.dtd"[
	<!ENTITY ns_flows "http://ns.adobe.com/Flows/1.0/">
	<!ENTITY ns_svg "http://www.w3.org/2000/svg">
	<!ENTITY ns_xlink "http://www.w3.org/1999/xlink">
	<!ENTITY st0 "font-size:7px;font-family:'MS-PGothic';adobe-font-script:japanese;">
	<!ENTITY st1 "font-size:6px;font-family:'ArialMT';">
	<!-- White fill  -->
	<!ENTITY st2 "fill:#FFFFFF;stroke:#000000; stroke-width:1.41;stroke-linecap:round;stroke-linejoin:round;">
	<!-- Yellow fill  -->
	<!ENTITY st3 "fill:#FFFFCC;stroke:#FFFFCC; stroke-width:0.1;stroke-linecap:round;stroke-linejoin:round;">
	<!-- Gray fill  -->
	<!ENTITY st4 "fill:#CCCCCC;stroke:#CCCCCC; stroke-width:0.1;stroke-linecap:round;stroke-linejoin:round;">
	<!-- Light-blue fill -->
	<!ENTITY st5 "fill:#CCECF4;stroke:#000000; stroke-width:1.133;stroke-linecap:round;stroke-linejoin:round;">
	<!ENTITY st6 "fill:none;stroke-linecap:butt; stroke-linejoin:round;">
	<!ENTITY st7 "fill:none;stroke:#000000;stroke-linecap:round;stroke-linejoin:round;">
	<!ENTITY st8 "enable-background:new    ;">
	<!-- Black fill -->
	<!ENTITY st9 "fill:#000000;stroke:#000000; stroke-linecap:round;stroke-linejoin:round;">
	<!-- SRS note   -->
	<!ENTITY st10 "font-size:9px;font-family:'ArialMT';">
	<!ENTITY st11 "font-size:9px;font-family:'Svg Symbol';">
	<!ENTITY st12 "font-size:6px;font-family:'Svg Symbol';">
	<!ENTITY st13 "fill:none;stroke:#ff0000;stroke-linecap:round;stroke-linejoin:round;">
	<!-- Yellow fill  -->
	<!ENTITY st14 "fill:#FFFF00;stroke:#FFFF00; stroke-width:0.1;stroke-linecap:round;stroke-linejoin:round;">
	<!ENTITY st15 "font-size:6px;font-family:'MS-PGothic';adobe-font-script:japanese;">
	<!ENTITY st16 "1.00 0.00 0.00 1.00">
	<!ENTITY st17 "0.00 -1.00 1.00 0.00">
	<!ENTITY st18 "font-size:6px;font-family:'Arial';">
	<!ENTITY st19 "font-size:9px;font-family:'Arial';">
	<!ENTITY st20 "font-size:6px;font-family:'MS-PGothic','MS PGothic';adobe-font-script:japanese;">
	<!ENTITY st21 "font-size:7px;font-family:'MS-PGothic','MS PGothic';adobe-font-script:japanese;">
	<!ATTLIST svg
		xmlns:ewd CDATA #FIXED "http://shcl.co.jp/ewd"
		xmlns:a CDATA #FIXED "http://ns.adobe.com/AdobeSVGViewerExtensions/3.0/"
		ewd:ver CDATA #IMPLIED
	>
	<!ATTLIST a
		ewd:lineID CDATA #IMPLIED
		ewd:groupID CDATA #IMPLIED
		ewd:figtype CDATA #IMPLIED
		ewd:code CDATA #IMPLIED
		ewd:figID CDATA #IMPLIED
		ewd:pinNo CDATA #IMPLIED
		ewd:comment CDATA #IMPLIED >
	<!ATTLIST g
		ewd:lineID CDATA #IMPLIED
		ewd:groupID CDATA #IMPLIED
		ewd:figtype CDATA #IMPLIED
		ewd:code CDATA #IMPLIED
		ewd:figID CDATA #IMPLIED
		ewd:pinNo CDATA #IMPLIED
		ewd:comment CDATA #IMPLIED >
	<!ATTLIST text
		ewd:textID CDATA #IMPLIED >
	<!ATTLIST title
		ewd:textID CDATA #IMPLIED >
]>
<!-- Generator: Shintec Hozumi YS   -->
<svg onload="call_execInitLoadProc_svg('system')" style="overflow:visible;  enable-background:new 0 0 5661.925 710.000" viewBox="0 0 5661.925 710.000" height="710.000" width="5661.925" xml:space="preserve" ewd:ver="2.1.2.9" xmlns="&ns_svg;" xmlns:a="http://ns.adobe.com/AdobeSVGViewerExtensions/3.0/" xmlns:ewd="http://shcl.co.jp/ewd" xmlns:xlink="&ns_xlink;">
<text style="&st18;" transform="matrix(&st16;  4704.8  290.13 )">A29(A),C39(B)</text><text style="&st18;" transform="matrix(&st17;  4551.54  360.41 )">B</text><text style="&st18;" transform="matrix(&st17;  4730.01  360.69 )">G</text><text style="&st18;" transform="matrix(&st17;  4594.04  361.19 )">W</text><text style="&st18;" transform="matrix(&st17;  4764.01  363.59 )">P-L</text><text style="&st18;" transform="matrix(&st16;  4704.81  296.96 )">ECM</text><text style="&st18;" transform="matrix(&st16;  4684.84  660.98 )">R-W</text><text style="&st18;" transform="matrix(&st16;  4633.85  660.98 )">R-W</text><text style="&st18;" transform="matrix(&st16;  4633.85  677.97 )">R-W</text><text style="&st18;" transform="matrix(&st16;  4684.84  677.97 )">R-W</text><path style="stroke-width:1.42 ;&st7;  " d=" M  4827.19,   316.23  L  4835.69,   316.23  " /><path style="stroke-width:1.42 ;&st7;  " d=" M  4954.67,   384.22  L  4963.17,   384.22  " /><text style="&st18;" transform="matrix(&st17;  4959.47  363.46 )">W</text><text style="&st18;" transform="matrix(&st17;  4959.47  225.21 )">W</text><text style="&st18;" transform="matrix(&st17;  4832.0  287.11 )">P-L</text><text style="&st18;" transform="matrix(&st17;  4832.0  363.59 )">P-L</text><text style="&st18;" transform="matrix(&st17;  4891.49  224.71 )">G</text><text style="&st18;" transform="matrix(&st17;  4891.49  362.95 )">G</text><path style="stroke-width:1.42 ;&st7;  " d=" M  4886.68,   384.22  L  4895.18,   384.22  " /><text style="&st18;" transform="matrix(&st17;  4509.05  360.69 )">G</text><text style="&st18;" transform="matrix(&st16;  4637.77  643.98 )">G</text><text style="&st18;" transform="matrix(&st16;  4638.04  440.01 )">B</text><text style="&st18;" transform="matrix(&st16;  4637.26  423.02 )">W</text><text style="&st18;" transform="matrix(&st16;  4688.76  643.98 )">G</text><text style="&st18;" transform="matrix(&st16;  4689.03  440.01 )">B</text><text style="&st18;" transform="matrix(&st16;  4688.25  423.02 )">W</text><text style="&st18;" transform="matrix(&st17;  4832.0  168.13 )">P-L</text><path style="stroke-width:1.42 ;&st7;  " d=" M  4521.24,   409.72  L  4512.75,   409.72  " /><path style="stroke-width:1.42 ;&st7;  " d=" M  4521.24,   588.19  L  4512.75,   588.19  " /><text style="&st18;" transform="matrix(&st17;  4509.05  462.67 )">G</text><text style="&st18;" transform="matrix(&st17;  4509.05  547.65 )">G</text><text style="&st18;" transform="matrix(&st17;  4509.05  624.14 )">G</text><g ewd:figtype="conn" ewd:figID="60" ewd:code="I17"><path style="stroke-width:1.42 ;&st7;  " d=" M  4818.69,   129.26  L  5056.65,   129.26  L  5056.65,    78.27  L  4818.69,    78.27  L  4818.69,   129.26  " /><g ewd:lineID="229"><text style="&st18;" transform="matrix(&st16;  4826.41  137.46 )">15</text><text style="&st18;" transform="matrix(&st16;  4827.45  125.57 )">WFSE</text></g><g ewd:lineID="232"><text style="&st18;" transform="matrix(&st16;  4885.9  137.46 )">13</text><text style="&st18;" transform="matrix(&st16;  4890.82  125.57 )">TC</text></g><g ewd:lineID="235"><text style="&st18;" transform="matrix(&st16;  4956.99  137.46 )">7</text><text style="&st18;" transform="matrix(&st16;  4958.66  125.57 )">SIL</text></g><g ewd:figtype="title"><text style="&st18;" transform="matrix(&st16;  4815.29  74.58 )">DLC3</text><text style="&st18;" transform="matrix(&st16;  4815.28  67.75 )">I17</text></g></g><g ewd:figtype="conn" ewd:figID="63" ewd:code="I61"><path style="stroke-width:1.42 ;&st7;  " d=" M  4954.67,   324.73  L  4971.67,   324.73  L  4971.67,   307.73  L  4954.67,   307.73  L  4954.67,   324.73  " /><path style="stroke-width:0.85 ;&st7;  " d=" M  4963.17,   307.73  L  4963.17,   324.73  " /><text style="&st18;" transform="matrix(&st16;  4951.37  331.23 )">22</text><text style="&st18;" transform="matrix(&st16;  4960.75  331.23 )">C</text><path style="stroke-width:1.42 ;&st7;   " d=" M  4967.70,   329.26  C  4967.70    326.76   4965.67    324.73   4963.17    324.73  " /><path style="stroke-width:1.42 ;&st7;   " d=" M  4963.17,   324.73  C  4960.67    324.73   4958.64    326.76   4958.64    329.26  " /><path style="stroke-width:1.42 ;&st7;   " d=" M  4958.64,   329.26  C  4958.64    331.77   4960.67    333.80   4963.17    333.80  " /><path style="stroke-width:1.42 ;&st7;   " d=" M  4963.17,   333.80  C  4965.67    333.80   4967.70    331.77   4967.70    329.26  " /><text style="&st18;" transform="matrix(&st16;  4951.37  305.17 )">19</text><text style="&st18;" transform="matrix(&st16;  4960.75  305.17 )">C</text><path style="stroke-width:1.42 ;&st7;   " d=" M  4967.70,   303.20  C  4967.70    300.70   4965.67    298.67   4963.17    298.67  " /><path style="stroke-width:1.42 ;&st7;   " d=" M  4963.17,   298.67  C  4960.67    298.67   4958.64    300.70   4958.64    303.20  " /><path style="stroke-width:1.42 ;&st7;   " d=" M  4958.64,   303.20  C  4958.64    305.70   4960.67    307.73   4963.17    307.73  " /><path style="stroke-width:1.42 ;&st7;   " d=" M  4963.17,   307.73  C  4965.67    307.73   4967.70    305.70   4967.70    303.20  " /><g ewd:figtype="title"><text style="&st18;" transform="matrix(&st17;  4979.56  327.63 )">I61(C)</text><text style="&st18;" transform="matrix(&st17;  4986.39  327.64 )" ewd:textID="49">No. 11 Junction <tspan x="0 " dy="6.0">Connector</tspan></text></g></g><g ewd:figtype="conn" ewd:figID="64" ewd:code="I59"><path style="stroke-width:0.85 ;&st7;  " d=" M  4895.18,   307.73  L  4895.18,   324.73  " /><path style="stroke-width:1.42 ;&st7;  " d=" M  4886.68,   324.73  L  4903.68,   324.73  L  4903.68,   307.73  L  4886.68,   307.73  L  4886.68,   324.73  " /><text style="&st18;" transform="matrix(&st16;  4883.39  331.23 )">14</text><text style="&st18;" transform="matrix(&st16;  4892.99  331.23 )">B</text><path style="stroke-width:1.42 ;&st7;   " d=" M  4899.71,   329.26  C  4899.71    326.76   4897.69    324.73   4895.18    324.73  " /><path style="stroke-width:1.42 ;&st7;   " d=" M  4895.18,   324.73  C  4892.68    324.73   4890.65    326.76   4890.65    329.26  " /><path style="stroke-width:1.42 ;&st7;   " d=" M  4890.65,   329.26  C  4890.65    331.77   4892.68    333.80   4895.18    333.80  " /><path style="stroke-width:1.42 ;&st7;   " d=" M  4895.18,   333.80  C  4897.69    333.80   4899.71    331.77   4899.71    329.26  " /><text style="&st18;" transform="matrix(&st16;  4883.39  305.17 )">13</text><text style="&st18;" transform="matrix(&st16;  4892.99  305.17 )">B</text><path style="stroke-width:1.42 ;&st7;   " d=" M  4899.71,   303.20  C  4899.71    300.70   4897.69    298.67   4895.18    298.67  " /><path style="stroke-width:1.42 ;&st7;   " d=" M  4895.18,   298.67  C  4892.68    298.67   4890.65    300.70   4890.65    303.20  " /><path style="stroke-width:1.42 ;&st7;   " d=" M  4890.65,   303.20  C  4890.65    305.70   4892.68    307.73   4895.18    307.73  " /><path style="stroke-width:1.42 ;&st7;   " d=" M  4895.18,   307.73  C  4897.69    307.73   4899.71    305.70   4899.71    303.20  " /><g ewd:figtype="title"><text style="&st18;" transform="matrix(&st17;  4918.4  327.64 )" ewd:textID="48">No. 10 Junction <tspan x="0 " dy="6.0">Connector</tspan></text><text style="&st18;" transform="matrix(&st17;  4911.57  327.63 )">I59(B)</text></g></g><g ewd:figtype="conn" ewd:figID="66" ewd:code="A29,C39"><g ewd:lineID="226"><text style="&st18;" transform="matrix(&st16;  4504.05  322.73 )">8</text><path style="stroke-width:1.42 ;&st7;   " d=" M  4517.28,   320.77  C  4517.28    318.26   4515.25    316.23   4512.75    316.23  " /><path style="stroke-width:1.42 ;&st7;   " d=" M  4512.75,   316.23  C  4510.24    316.23   4508.21    318.26   4508.21    320.77  " /><path style="stroke-width:1.42 ;&st7;   " d=" M  4508.21,   320.77  C  4508.21    323.27   4510.24    325.30   4512.75    325.30  " /><path style="stroke-width:1.42 ;&st7;   " d=" M  4512.75,   325.30  C  4515.25    325.30   4517.28    323.27   4517.28    320.77  " /><text style="&st18;" transform="matrix(&st16;  4510.44  322.73 )">A</text><text style="&st18;" transform="matrix(&st16;  4507.07  312.54 )">SPD</text></g><g ewd:lineID="227"><text style="&st18;" transform="matrix(&st16;  4755.91  322.73 )">29</text><text style="&st18;" transform="matrix(&st16;  4765.4  322.73 )">A</text><path style="stroke-width:1.42 ;&st7;   " d=" M  4772.24,   320.77  C  4772.24    318.26   4770.21    316.23   4767.70    316.23  " /><path style="stroke-width:1.42 ;&st7;   " d=" M  4767.70,   316.23  C  4765.20    316.23   4763.17    318.26   4763.17    320.77  " /><path style="stroke-width:1.42 ;&st7;   " d=" M  4763.17,   320.77  C  4763.17    323.27   4765.20    325.30   4767.70    325.30  " /><path style="stroke-width:1.42 ;&st7;   " d=" M  4767.70,   325.30  C  4770.21    325.30   4772.24    323.27   4772.24    320.77  " /><text style="&st18;" transform="matrix(&st16;  4759.47  312.54 )">WFSE</text></g><g ewd:lineID="230"><text style="&st18;" transform="matrix(&st16;  4721.91  322.73 )">27</text><path style="stroke-width:1.42 ;&st7;   " d=" M  4738.24,   320.77  C  4738.24    318.26   4736.21    316.23   4733.71    316.23  " /><path style="stroke-width:1.42 ;&st7;   " d=" M  4733.71,   316.23  C  4731.21    316.23   4729.18    318.26   4729.18    320.77  " /><path style="stroke-width:1.42 ;&st7;   " d=" M  4729.18,   320.77  C  4729.18    323.27   4731.21    325.30   4733.71    325.30  " /><path style="stroke-width:1.42 ;&st7;   " d=" M  4733.71,   325.30  C  4736.21    325.30   4738.24    323.27   4738.24    320.77  " /><text style="&st18;" transform="matrix(&st16;  4731.4  322.73 )">A</text><text style="&st18;" transform="matrix(&st16;  4729.35  312.54 )">TC</text></g><g ewd:lineID="233"><text style="&st18;" transform="matrix(&st16;  4585.94  322.73 )">19</text><path style="stroke-width:1.42 ;&st7;   " d=" M  4602.26,   320.77  C  4602.26    318.26   4600.24    316.23   4597.73    316.23  " /><path style="stroke-width:1.42 ;&st7;   " d=" M  4597.73,   316.23  C  4595.23    316.23   4593.20    318.26   4593.20    320.77  " /><path style="stroke-width:1.42 ;&st7;   " d=" M  4593.20,   320.77  C  4593.20    323.27   4595.23    325.30   4597.73    325.30  " /><path style="stroke-width:1.42 ;&st7;   " d=" M  4597.73,   325.30  C  4600.24    325.30   4602.26    323.27   4602.26    320.77  " /><text style="&st18;" transform="matrix(&st16;  4595.43  322.73 )">A</text><text style="&st18;" transform="matrix(&st16;  4593.22  312.54 )">SIL</text></g><g ewd:lineID="236"><text style="&st18;" transform="matrix(&st16;  4543.44  322.73 )">15</text><path style="stroke-width:1.42 ;&st7;   " d=" M  4559.77,   320.77  C  4559.77    318.26   4557.74    316.23   4555.24    316.23  " /><path style="stroke-width:1.42 ;&st7;   " d=" M  4555.24,   316.23  C  4552.74    316.23   4550.71    318.26   4550.71    320.77  " /><path style="stroke-width:1.42 ;&st7;   " d=" M  4550.71,   320.77  C  4550.71    323.27   4552.74    325.30   4555.24    325.30  " /><path style="stroke-width:1.42 ;&st7;   " d=" M  4555.24,   325.30  C  4557.74    325.30   4559.77    323.27   4559.77    320.77  " /><text style="&st18;" transform="matrix(&st16;  4552.93  322.73 )">A</text><text style="&st18;" transform="matrix(&st16;  4546.58  312.54 )">TACH</text></g></g><g ewd:figtype="conn" ewd:figID="76" ewd:code="I59"><path style="stroke-width:0.85 ;&st7;  " d=" M  4835.69,   205.75  L  4835.69,   222.75  " /><path style="stroke-width:1.42 ;&st7;  " d=" M  4827.19,   222.75  L  4844.19,   222.75  L  4844.19,   205.75  L  4827.19,   205.75  L  4827.19,   222.75  " /><text style="&st18;" transform="matrix(&st16;  4823.9  229.25 )">10</text><text style="&st18;" transform="matrix(&st16;  4833.5  229.25 )">B</text><path style="stroke-width:1.42 ;&st7;   " d=" M  4840.22,   227.28  C  4840.22    224.78   4838.20    222.75   4835.69    222.75  " /><path style="stroke-width:1.42 ;&st7;   " d=" M  4835.69,   222.75  C  4833.19    222.75   4831.16    224.78   4831.16    227.28  " /><path style="stroke-width:1.42 ;&st7;   " d=" M  4831.16,   227.28  C  4831.16    229.78   4833.19    231.81   4835.69    231.81  " /><path style="stroke-width:1.42 ;&st7;   " d=" M  4835.69,   231.81  C  4838.20    231.81   4840.22    229.78   4840.22    227.28  " /><text style="&st18;" transform="matrix(&st16;  4827.0  203.19 )">9</text><text style="&st18;" transform="matrix(&st16;  4833.5  203.19 )">B</text><path style="stroke-width:1.42 ;&st7;   " d=" M  4840.22,   201.22  C  4840.22    198.72   4838.20    196.69   4835.69    196.69  " /><path style="stroke-width:1.42 ;&st7;   " d=" M  4835.69,   196.69  C  4833.19    196.69   4831.16    198.72   4831.16    201.22  " /><path style="stroke-width:1.42 ;&st7;   " d=" M  4831.16,   201.22  C  4831.16    203.72   4833.19    205.75   4835.69    205.75  " /><path style="stroke-width:1.42 ;&st7;   " d=" M  4835.69,   205.75  C  4838.20    205.75   4840.22    203.72   4840.22    201.22  " /><g ewd:figtype="title"><text style="&st18;" transform="matrix(&st17;  4858.91  225.65 )" ewd:textID="48">No. 10 Junction <tspan x="0 " dy="6.0">Connector</tspan></text><text style="&st18;" transform="matrix(&st17;  4852.08  225.65 )">I59(B)</text></g></g><g ewd:figtype="conn" ewd:figID="78" ewd:code="I61"><path style="stroke-width:1.42 ;&st7;  " d=" M  4504.25,   511.70  L  4521.24,   511.70  L  4521.24,   494.70  L  4504.25,   494.70  L  4504.25,   511.70  " /><path style="stroke-width:0.85 ;&st7;  " d=" M  4512.74,   511.70  L  4512.74,   494.70  " /><text style="&st18;" transform="matrix(&st16;  4500.95  518.2 )">15</text><text style="&st18;" transform="matrix(&st16;  4510.33  518.2 )">C</text><path style="stroke-width:1.42 ;&st7;   " d=" M  4517.28,   516.23  C  4517.28    513.73   4515.25    511.70   4512.75    511.70  " /><path style="stroke-width:1.42 ;&st7;   " d=" M  4512.75,   511.70  C  4510.24    511.70   4508.21    513.73   4508.21    516.23  " /><path style="stroke-width:1.42 ;&st7;   " d=" M  4508.21,   516.23  C  4508.21    518.74   4510.24    520.76   4512.75    520.76  " /><path style="stroke-width:1.42 ;&st7;   " d=" M  4512.75,   520.76  C  4515.25    520.76   4517.28    518.74   4517.28    516.23  " /><text style="&st18;" transform="matrix(&st16;  4500.95  492.14 )">17</text><text style="&st18;" transform="matrix(&st16;  4510.33  492.14 )">C</text><path style="stroke-width:1.42 ;&st7;   " d=" M  4517.28,   490.17  C  4517.28    487.67   4515.25    485.64   4512.75    485.64  " /><path style="stroke-width:1.42 ;&st7;   " d=" M  4512.75,   485.64  C  4510.24    485.64   4508.21    487.67   4508.21    490.17  " /><path style="stroke-width:1.42 ;&st7;   " d=" M  4508.21,   490.17  C  4508.21    492.67   4510.24    494.70   4512.75    494.70  " /><path style="stroke-width:1.42 ;&st7;   " d=" M  4512.75,   494.70  C  4515.25    494.70   4517.28    492.67   4517.28    490.17  " /><g ewd:figtype="title"><text style="&st18;" transform="matrix(&st17;  4529.14  514.6 )">I61(C)</text><text style="&st18;" transform="matrix(&st17;  4535.96  514.61 )" ewd:textID="49">No. 11 Junction <tspan x="0 " dy="6.0">Connector</tspan></text></g></g><g ewd:figtype="w2w" ewd:figID="138" ewd:code="AI3"><path style="stroke-width:1.42 ;&st7;  " d=" M  4839.94,   310.57  L  4835.69,   314.82  L  4831.44,   310.57  " /><path style="stroke-width:1.42 ;&st7;  " d=" M  4831.44,   307.17  L  4835.69,   311.42  L  4839.94,   307.17  " /><text style="&st18;" transform="matrix(&st16;  4819.96  322.45 )">11</text></g><g ewd:figtype="w2w" ewd:figID="139" ewd:code="AI3"><path style="stroke-width:1.42 ;&st7;  " d=" M  4890.93,   375.16  L  4895.18,   379.41  L  4899.43,   375.16  " /><path style="stroke-width:1.42 ;&st7;  " d=" M  4899.43,   378.56  L  4895.18,   382.80  L  4890.93,   378.56  " /><text style="&st18;" transform="matrix(&st16;  4879.45  390.44 )">59</text></g><g ewd:figtype="w2w" ewd:figID="140" ewd:code="AI3"><path style="stroke-width:1.42 ;&st7;  " d=" M  4967.42,   378.56  L  4963.17,   382.80  L  4958.92,   378.56  " /><path style="stroke-width:1.42 ;&st7;  " d=" M  4958.92,   375.16  L  4963.17,   379.41  L  4967.42,   375.16  " /><text style="&st18;" transform="matrix(&st16;  4947.44  390.44 )">24</text></g></svg>