<?xml version="1.0" encoding="utf-8"?>
<!DOCTYPE svg PUBLIC "-//W3C//DTD SVG 1.0//EN" "http://www.w3.org/TR/2001/REC-SVG-20010904/DTD/svg10.dtd"[
	<!ENTITY ns_flows "http://ns.adobe.com/Flows/1.0/">
	<!ENTITY ns_svg "http://www.w3.org/2000/svg">
	<!ENTITY ns_xlink "http://www.w3.org/1999/xlink">
	<!ENTITY st0 "font-size:7px;font-family:'MS-PGothic';adobe-font-script:japanese;">
	<!ENTITY st1 "font-size:6px;font-family:'ArialMT';">
	<!-- White fill  -->
	<!ENTITY st2 "fill:#FFFFFF;stroke:#000000; stroke-width:1.41;stroke-linecap:round;stroke-linejoin:round;">
	<!-- Yellow fill  -->
	<!ENTITY st3 "fill:#FFFFCC;stroke:#FFFFCC; stroke-width:0.1;stroke-linecap:round;stroke-linejoin:round;">
	<!-- Gray fill  -->
	<!ENTITY st4 "fill:#CCCCCC;stroke:#CCCCCC; stroke-width:0.1;stroke-linecap:round;stroke-linejoin:round;">
	<!-- Light-blue fill -->
	<!ENTITY st5 "fill:#CCECF4;stroke:#000000; stroke-width:1.133;stroke-linecap:round;stroke-linejoin:round;">
	<!ENTITY st6 "fill:none;stroke-linecap:butt; stroke-linejoin:round;">
	<!ENTITY st7 "fill:none;stroke:#000000;stroke-linecap:round;stroke-linejoin:round;">
	<!ENTITY st8 "enable-background:new    ;">
	<!-- Black fill -->
	<!ENTITY st9 "fill:#000000;stroke:#000000; stroke-linecap:round;stroke-linejoin:round;">
	<!-- SRS note   -->
	<!ENTITY st10 "font-size:9px;font-family:'ArialMT';">
	<!ENTITY st11 "font-size:9px;font-family:'Svg Symbol';">
	<!ENTITY st12 "font-size:6px;font-family:'Svg Symbol';">
	<!ENTITY st13 "fill:none;stroke:#ff0000;stroke-linecap:round;stroke-linejoin:round;">
	<!-- Yellow fill  -->
	<!ENTITY st14 "fill:#FFFF00;stroke:#FFFF00; stroke-width:0.1;stroke-linecap:round;stroke-linejoin:round;">
	<!ENTITY st15 "font-size:6px;font-family:'MS-PGothic';adobe-font-script:japanese;">
	<!ENTITY st16 "1.00 0.00 0.00 1.00">
	<!ENTITY st17 "0.00 -1.00 1.00 0.00">
	<!ENTITY st18 "font-size:6px;font-family:'Arial';">
	<!ENTITY st19 "font-size:9px;font-family:'Arial';">
	<!ENTITY st20 "font-size:6px;font-family:'MS-PGothic','MS PGothic';adobe-font-script:japanese;">
	<!ENTITY st21 "font-size:7px;font-family:'MS-PGothic','MS PGothic';adobe-font-script:japanese;">
	<!ATTLIST svg
		xmlns:ewd CDATA #FIXED "http://shcl.co.jp/ewd"
		xmlns:a CDATA #FIXED "http://ns.adobe.com/AdobeSVGViewerExtensions/3.0/"
		ewd:ver CDATA #IMPLIED
	>
	<!ATTLIST a
		ewd:lineID CDATA #IMPLIED
		ewd:groupID CDATA #IMPLIED
		ewd:figtype CDATA #IMPLIED
		ewd:code CDATA #IMPLIED
		ewd:figID CDATA #IMPLIED
		ewd:pinNo CDATA #IMPLIED
		ewd:comment CDATA #IMPLIED >
	<!ATTLIST g
		ewd:lineID CDATA #IMPLIED
		ewd:groupID CDATA #IMPLIED
		ewd:figtype CDATA #IMPLIED
		ewd:code CDATA #IMPLIED
		ewd:figID CDATA #IMPLIED
		ewd:pinNo CDATA #IMPLIED
		ewd:comment CDATA #IMPLIED >
	<!ATTLIST text
		ewd:textID CDATA #IMPLIED >
	<!ATTLIST title
		ewd:textID CDATA #IMPLIED >
]>
<!-- Generator: Shintec Hozumi YS   -->
<svg onload="call_execInitLoadProc_svg('system')" style="overflow:visible;  enable-background:new 0 0 3013.288 710.000" viewBox="0 0 3013.288 710.000" height="710.000" width="3013.288" xml:space="preserve" ewd:ver="2.1.2.9" xmlns="&ns_svg;" xmlns:a="http://ns.adobe.com/AdobeSVGViewerExtensions/3.0/" xmlns:ewd="http://shcl.co.jp/ewd" xmlns:xlink="&ns_xlink;">
<path style="stroke-width:1.42 ;&st7;  " d=" M  1322.25,   214.25  L  1317.28,   219.22  " /><path style="stroke-width:1.42 ;&st7;  " d=" M  1329.31,   231.25  L  1334.28,   226.28  " /><path style="stroke-width:1.42 ;&st7;  " d=" M  1317.28,   226.28  L  1322.25,   231.25  " /><path style="stroke-width:1.42 ;&st7;  " d=" M  1334.28,   219.22  L  1329.31,   214.25  " /><path style="stroke-width:1.42 ;&st7;  " d=" M  1291.78,   265.24  L  1283.29,   265.24  " /><path style="stroke-width:1.42 ;&st7;  " d=" M  1249.29,   265.24  L  1240.79,   265.24  " /><path style="stroke-width:1.42 ;&st7;  " d=" M  1376.77,   350.23  L  1368.27,   350.23  " /><text style="&st18;" transform="matrix(&st16;  1055.87  618.48 )">W-B</text><text style="&st18;" transform="matrix(&st17;  1333.42  307.05 )">(LHD)</text><text style="&st18;" transform="matrix(&st17;  1322.08  304.41 )">B-Y</text><text style="&st18;" transform="matrix(&st16;  1055.87  584.49 )">W-B</text><text style="&st18;" transform="matrix(&st16;  1004.88  584.49 )">W-B</text><text style="&st18;" transform="matrix(&st17;  1432.56  304.41 )">B-Y</text><text style="&st18;" transform="matrix(&st17;  1443.9  303.95 )">(*6)</text><text style="&st18;" transform="matrix(&st17;  1407.07  304.41 )">B-Y</text><text style="&st18;" transform="matrix(&st17;  1418.4  303.95 )">(*5)</text><text style="&st18;" transform="matrix(&st17;  1279.59  304.61 )">G-R</text><text style="&st18;" transform="matrix(&st17;  1237.1  305.46 )">G-W</text><text style="&st18;" transform="matrix(&st17;  1194.6  244.85 )">R-Y</text><text style="&st18;" transform="matrix(&st17;  1152.11  244.73 )">R-L</text><text style="&st18;" transform="matrix(&st17;  1279.59  245.12 )">G-R</text><text style="&st18;" transform="matrix(&st17;  1237.1  245.97 )">G-W</text><text style="&st18;" transform="matrix(&st17;  1333.42  154.08 )">(LHD)</text><text style="&st18;" transform="matrix(&st17;  1322.08  151.44 )">B-Y</text><text style="&st18;" transform="matrix(&st17;  1375.91  307.09 )">(RHD)</text><text style="&st18;" transform="matrix(&st17;  1364.58  304.41 )">B-Y</text><text style="&st18;" transform="matrix(&st17;  1375.91  239.1 )">(RHD)</text><text style="&st18;" transform="matrix(&st17;  1364.58  236.43 )">B-Y</text><text style="&st18;" transform="matrix(&st17;  1375.91  154.11 )">(RHD)</text><text style="&st18;" transform="matrix(&st17;  1364.58  151.44 )">B-Y</text><text style="&st18;" transform="matrix(&st16;  1084.41  144.24 )">I8</text><text style="&st18;" transform="matrix(&st16;  1084.41  151.06 )" ewd:textID="24">No. 2 Four Wheel Drive Control ECU</text><text style="&st18;" transform="matrix(&st16;  1004.88  618.48 )">W-B</text><text style="&st18;" transform="matrix(&st17;  1137.95  244.46 )">(*6)</text><text style="&st18;" transform="matrix(&st17;  1126.62  241.71 )">G</text><text style="&st18;" transform="matrix(&st17;  1101.12  241.71 )">G</text><text style="&st18;" transform="matrix(&st17;  1112.45  244.46 )">(*5)</text><g ewd:figtype="rb" ewd:figID="4" ewd:code="FUSE20"><path style="stroke-width:0.85 ;&st7;  " d=" M  1368.27,    78.27  L  1368.27,    95.27  " /><path style="stroke-width:1.42 ;&st7;  " d=" M  1370.40,   103.77  L  1366.15,   103.77  " /><path style="stroke-width:1.42 ;&st7;  " d=" M  1370.40,    95.27  L  1366.15,    95.27  " /><path style="stroke-width:1.42 ;&st7;   " d=" M  1374.65,    99.52  C  1374.65     97.17   1372.74     95.27   1370.40     95.27  " /><path style="stroke-width:1.42 ;&st7;   " d=" M  1370.40,   103.77  C  1372.74    103.77   1374.65    101.87   1374.65     99.52  " /><path style="stroke-width:1.42 ;&st7;   " d=" M  1361.90,    99.52  C  1361.90    101.87   1363.80    103.77   1366.15    103.77  " /><path style="stroke-width:1.42 ;&st7;   " d=" M  1366.15,    95.27  C  1363.80     95.27   1361.90     97.17   1361.90     99.52  " /><path style="stroke-width:0.28 ;&st9;  " d=" M  1368.27,    90.37  L  1365.44,    87.54  L  1365.44,    91.79  L  1368.27,    94.62  L  1371.10,    91.79  L  1371.10,    87.54  L  1368.27,    90.37  " /><text style="&st18;" transform="matrix(&st16;  1363.06  32.08 )">(IG)</text><text style="&st18;" transform="matrix(&st16;  1362.09  86.47 )">2</text><text style="&st18;" transform="matrix(&st16;  1366.47  101.49 )">2</text><text style="&st18;" transform="matrix(&st16;  1384.7  56.17 )">15A <tspan x="0 " dy="6.0">ECU IG</tspan></text><path style="stroke-width:0.85 ;&st7;  " d=" M  1368.27,    69.77  L  1368.27,    78.27  " /><path style="stroke-width:0.85 ;&st7;   " d=" M  1369.69,    68.36  C  1369.69     67.57   1369.05     66.94   1368.27     66.94  " /><path style="stroke-width:0.85 ;&st7;   " d=" M  1368.27,    66.94  C  1367.49     66.94   1366.85     67.57   1366.85     68.36  " /><path style="stroke-width:0.85 ;&st7;   " d=" M  1366.85,    68.36  C  1366.85     69.14   1367.49     69.77   1368.27     69.77  " /><path style="stroke-width:0.85 ;&st7;   " d=" M  1368.27,    69.77  C  1369.05     69.77   1369.69     69.14   1369.69     68.36  " /><path style="stroke-width:0.85 ;&st7;   " d=" M  1369.69,    45.69  C  1369.69     44.91   1369.05     44.28   1368.27     44.28  " /><path style="stroke-width:0.85 ;&st7;   " d=" M  1368.27,    44.28  C  1367.49     44.28   1366.85     44.91   1366.85     45.69  " /><path style="stroke-width:0.85 ;&st7;   " d=" M  1366.85,    45.69  C  1366.85     46.48   1367.49     47.11   1368.27     47.11  " /><path style="stroke-width:0.85 ;&st7;   " d=" M  1368.27,    47.11  C  1369.05     47.11   1369.69     46.48   1369.69     45.69  " /><path style="stroke-width:1.42 ;&st7;   " d=" M  1368.27,    66.94  C  1371.01     65.33   1371.92     61.80   1370.31     59.06  " /><path style="stroke-width:1.42 ;&st7;   " d=" M  1370.31,    59.06  C  1369.79     58.18   1369.15     57.55   1368.27     57.03  " /><path style="stroke-width:1.42 ;&st7;   " d=" M  1368.27,    47.11  C  1365.53     48.72   1364.62     52.25   1366.23     54.99  " /><path style="stroke-width:1.42 ;&st7;   " d=" M  1366.23,    54.99  C  1366.75     55.87   1367.39     56.51   1368.27     57.03  " /><path style="stroke-width:1.42 ;&st7;  " d=" M  1355.52,    35.78  L  1355.52,    78.27  L  1381.02,    78.27  L  1381.02,    35.78  L  1355.52,    35.78  " /></g><g ewd:code="I57" ewd:figID="5" ewd:comment="6,5" ewd:figtype="conn"><path style="stroke-width:0.85 ;&st7;  " d=" M  1368.27,   180.26  L  1368.27,   197.25  " /><path style="stroke-width:1.42 ;&st7;  " d=" M  1359.77,   180.26  L  1376.77,   180.26  L  1376.77,   197.25  L  1359.77,   197.25  L  1359.77,   180.26  " /><text style="&st18;" transform="matrix(&st16;  1359.58  203.75 )">5</text><text style="&st18;" transform="matrix(&st16;  1359.58  212.82 )">3</text><text style="&st18;" transform="matrix(&st16;  1365.97  212.82 )">A</text><path style="stroke-width:1.42 ;&st7;   " d=" M  1372.80,   210.85  C  1372.80    208.35   1370.77    206.32   1368.27    206.32  " /><path style="stroke-width:1.42 ;&st7;   " d=" M  1368.27,   206.32  C  1365.77    206.32   1363.74    208.35   1363.74    210.85  " /><path style="stroke-width:1.42 ;&st7;   " d=" M  1363.74,   210.85  C  1363.74    213.35   1365.77    215.38   1368.27    215.38  " /><path style="stroke-width:1.42 ;&st7;   " d=" M  1368.27,   215.38  C  1370.77    215.38   1372.80    213.35   1372.80    210.85  " /><path style="stroke-width:1.42 ;&st7;   " d=" M  1372.80,   201.78  C  1372.80    199.28   1370.77    197.25   1368.27    197.25  " /><path style="stroke-width:1.42 ;&st7;   " d=" M  1368.27,   197.25  C  1365.77    197.25   1363.74    199.28   1363.74    201.78  " /><path style="stroke-width:1.42 ;&st7;   " d=" M  1363.74,   201.78  C  1363.74    204.29   1365.77    206.32   1368.27    206.32  " /><path style="stroke-width:1.42 ;&st7;   " d=" M  1368.27,   206.32  C  1370.77    206.32   1372.80    204.29   1372.80    201.78  " /><text style="&st18;" transform="matrix(&st16;  1365.97  203.75 )">A</text><text style="&st18;" transform="matrix(&st16;  1359.58  177.69 )">1</text><text style="&st18;" transform="matrix(&st16;  1359.58  168.63 )">9</text><text style="&st18;" transform="matrix(&st16;  1365.97  168.63 )">A</text><text style="&st18;" transform="matrix(&st16;  1365.97  177.69 )">A</text><path style="stroke-width:1.42 ;&st7;   " d=" M  1372.80,   175.72  C  1372.80    173.22   1370.77    171.19   1368.27    171.19  " /><path style="stroke-width:1.42 ;&st7;   " d=" M  1368.27,   171.19  C  1365.77    171.19   1363.74    173.22   1363.74    175.72  " /><path style="stroke-width:1.42 ;&st7;   " d=" M  1363.74,   175.72  C  1363.74    178.23   1365.77    180.26   1368.27    180.26  " /><path style="stroke-width:1.42 ;&st7;   " d=" M  1368.27,   180.26  C  1370.77    180.26   1372.80    178.23   1372.80    175.72  " /><path style="stroke-width:1.42 ;&st7;   " d=" M  1372.80,   166.66  C  1372.80    164.15   1370.77    162.12   1368.27    162.12  " /><path style="stroke-width:1.42 ;&st7;   " d=" M  1368.27,   162.12  C  1365.77    162.12   1363.74    164.15   1363.74    166.66  " /><path style="stroke-width:1.42 ;&st7;   " d=" M  1363.74,   166.66  C  1363.74    169.16   1365.77    171.19   1368.27    171.19  " /><path style="stroke-width:1.42 ;&st7;   " d=" M  1368.27,   171.19  C  1370.77    171.19   1372.80    169.16   1372.80    166.66  " /><g ewd:figtype="title"><text style="&st18;" transform="matrix(&st17;  1343.3  200.15 )">I57(A)</text><text style="&st18;" transform="matrix(&st17;  1350.13  200.16 )" ewd:textID="28">No. 8 Junction <tspan x="0 " dy="6.0">Connector</tspan></text></g><g ewd:code="" ewd:figID="163" ewd:comment="5" ewd:figtype="commref"><text style="&st18;" transform="matrix(&st16;  1373.36  203.75 )">(*5)</text></g><g ewd:code="" ewd:figID="164" ewd:comment="6" ewd:figtype="commref"><text style="&st18;" transform="matrix(&st16;  1373.36  212.82 )">(*6)</text></g><g ewd:code="" ewd:figID="165" ewd:comment="5" ewd:figtype="commref"><text style="&st18;" transform="matrix(&st16;  1373.36  168.63 )">(*5)</text></g><g ewd:code="" ewd:figID="166" ewd:comment="6" ewd:figtype="commref"><text style="&st18;" transform="matrix(&st16;  1373.36  177.69 )">(*6)</text></g></g><g ewd:figtype="conn" ewd:figID="6" ewd:code="L32,L34"><path style="stroke-width:0.85 ;&st7;  " d=" M  1504.25,   180.26  L  1504.25,   197.25  " /><path style="stroke-width:1.42 ;&st7;  " d=" M  1495.75,   180.26  L  1512.75,   180.26  L  1512.75,   197.25  L  1495.75,   197.25  L  1495.75,   180.26  " /><text style="&st18;" transform="matrix(&st16;  1492.45  168.63 )">22</text><text style="&st18;" transform="matrix(&st16;  1492.45  177.69 )">20</text><path style="stroke-width:1.42 ;&st7;   " d=" M  1508.78,   166.66  C  1508.78    164.15   1506.75    162.12   1504.25    162.12  " /><path style="stroke-width:1.42 ;&st7;   " d=" M  1504.25,   162.12  C  1501.75    162.12   1499.72    164.15   1499.72    166.66  " /><path style="stroke-width:1.42 ;&st7;   " d=" M  1499.72,   166.66  C  1499.72    169.16   1501.75    171.19   1504.25    171.19  " /><path style="stroke-width:1.42 ;&st7;   " d=" M  1504.25,   171.19  C  1506.75    171.19   1508.78    169.16   1508.78    166.66  " /><path style="stroke-width:1.42 ;&st7;   " d=" M  1508.78,   175.72  C  1508.78    173.22   1506.75    171.19   1504.25    171.19  " /><path style="stroke-width:1.42 ;&st7;   " d=" M  1504.25,   171.19  C  1501.75    171.19   1499.72    173.22   1499.72    175.72  " /><path style="stroke-width:1.42 ;&st7;   " d=" M  1499.72,   175.72  C  1499.72    178.23   1501.75    180.26   1504.25    180.26  " /><path style="stroke-width:1.42 ;&st7;   " d=" M  1504.25,   180.26  C  1506.75    180.26   1508.78    178.23   1508.78    175.72  " /><text style="&st18;" transform="matrix(&st16;  1501.94  168.63 )">A</text><text style="&st18;" transform="matrix(&st16;  1502.06  177.69 )">B</text><text style="&st18;" transform="matrix(&st16;  1492.45  212.82 )">21</text><text style="&st18;" transform="matrix(&st16;  1492.45  203.75 )">21</text><path style="stroke-width:1.42 ;&st7;   " d=" M  1508.78,   210.85  C  1508.78    208.35   1506.75    206.32   1504.25    206.32  " /><path style="stroke-width:1.42 ;&st7;   " d=" M  1504.25,   206.32  C  1501.75    206.32   1499.72    208.35   1499.72    210.85  " /><path style="stroke-width:1.42 ;&st7;   " d=" M  1499.72,   210.85  C  1499.72    213.35   1501.75    215.38   1504.25    215.38  " /><path style="stroke-width:1.42 ;&st7;   " d=" M  1504.25,   215.38  C  1506.75    215.38   1508.78    213.35   1508.78    210.85  " /><path style="stroke-width:1.42 ;&st7;   " d=" M  1508.78,   201.78  C  1508.78    199.28   1506.75    197.25   1504.25    197.25  " /><path style="stroke-width:1.42 ;&st7;   " d=" M  1504.25,   197.25  C  1501.75    197.25   1499.72    199.28   1499.72    201.78  " /><path style="stroke-width:1.42 ;&st7;   " d=" M  1499.72,   201.78  C  1499.72    204.29   1501.75    206.32   1504.25    206.32  " /><path style="stroke-width:1.42 ;&st7;   " d=" M  1504.25,   206.32  C  1506.75    206.32   1508.78    204.29   1508.78    201.78  " /><text style="&st18;" transform="matrix(&st16;  1501.94  203.75 )">A</text><text style="&st18;" transform="matrix(&st16;  1502.06  212.82 )">B</text><g ewd:figtype="title"><text style="&st18;" transform="matrix(&st17;  1456.34  200.15 )">L34(A)</text><text style="&st18;" transform="matrix(&st17;  1463.16  200.16 )" ewd:textID="44">No. 26 Junction <tspan x="0 " dy="6.0">Connector</tspan></text><text style="&st18;" transform="matrix(&st17;  1476.45  200.15 )">L32(B)</text><text style="&st18;" transform="matrix(&st17;  1483.27  200.16 )" ewd:textID="40">No. 24 Junction <tspan x="0 " dy="6.0">Connector</tspan></text></g><g ewd:code="" ewd:figID="159" ewd:comment="" ewd:figtype="commref"><text style="&st18;" transform="matrix(&st16;  1509.34  203.75 )">(LHD)</text></g><g ewd:code="" ewd:figID="160" ewd:comment="" ewd:figtype="commref"><text style="&st18;" transform="matrix(&st16;  1509.34  212.82 )">(RHD)</text></g><g ewd:code="" ewd:figID="161" ewd:comment="" ewd:figtype="commref"><text style="&st18;" transform="matrix(&st16;  1509.34  168.63 )">(LHD)</text></g><g ewd:code="" ewd:figID="162" ewd:comment="" ewd:figtype="commref"><text style="&st18;" transform="matrix(&st16;  1509.34  177.69 )">(RHD)</text></g></g><g ewd:figtype="conn" ewd:figID="7" ewd:code="I55"><path style="stroke-width:0.85 ;&st7;  " d=" M  1368.27,   256.74  L  1368.27,   273.74  " /><path style="stroke-width:1.42 ;&st7;  " d=" M  1359.77,   256.74  L  1376.77,   256.74  L  1376.77,   273.74  L  1359.77,   273.74  L  1359.77,   256.74  " /><text style="&st18;" transform="matrix(&st16;  1359.58  280.24 )">9</text><text style="&st18;" transform="matrix(&st16;  1366.08  280.24 )">B</text><path style="stroke-width:1.42 ;&st7;   " d=" M  1372.80,   278.27  C  1372.80    275.77   1370.77    273.74   1368.27    273.74  " /><path style="stroke-width:1.42 ;&st7;   " d=" M  1368.27,   273.74  C  1365.77    273.74   1363.74    275.77   1363.74    278.27  " /><path style="stroke-width:1.42 ;&st7;   " d=" M  1363.74,   278.27  C  1363.74    280.78   1365.77    282.80   1368.27    282.80  " /><path style="stroke-width:1.42 ;&st7;   " d=" M  1368.27,   282.80  C  1370.77    282.80   1372.80    280.78   1372.80    278.27  " /><text style="&st18;" transform="matrix(&st16;  1359.58  254.18 )">3</text><text style="&st18;" transform="matrix(&st16;  1366.08  254.18 )">B</text><path style="stroke-width:1.42 ;&st7;   " d=" M  1372.80,   252.21  C  1372.80    249.71   1370.77    247.68   1368.27    247.68  " /><path style="stroke-width:1.42 ;&st7;   " d=" M  1368.27,   247.68  C  1365.77    247.68   1363.74    249.71   1363.74    252.21  " /><path style="stroke-width:1.42 ;&st7;   " d=" M  1363.74,   252.21  C  1363.74    254.71   1365.77    256.74   1368.27    256.74  " /><path style="stroke-width:1.42 ;&st7;   " d=" M  1368.27,   256.74  C  1370.77    256.74   1372.80    254.71   1372.80    252.21  " /><g ewd:figtype="title"><text style="&st18;" transform="matrix(&st17;  1384.66  276.64 )">I55(B)</text><text style="&st18;" transform="matrix(&st17;  1391.49  276.65 )" ewd:textID="27">No. 6 Junction <tspan x="0 " dy="6.0">Connector</tspan></text></g></g><g ewd:figtype="conn" ewd:figID="8" ewd:code="L4"><path style="stroke-width:1.42 ;&st7;  " d=" M  1487.25,   353.06  L  1487.25,   336.06  " /><path style="stroke-width:0.85 ;&st7;  " d=" M  1487.25,   324.73  L  1487.25,   333.23  " /><path style="stroke-width:0.85 ;&st7;   " d=" M  1488.67,   334.65  C  1488.67    333.86   1488.03    333.23   1487.25    333.23  " /><path style="stroke-width:0.85 ;&st7;   " d=" M  1487.25,   333.23  C  1486.47    333.23   1485.84    333.86   1485.84    334.65  " /><path style="stroke-width:0.85 ;&st7;   " d=" M  1485.84,   334.65  C  1485.84    335.43   1486.47    336.06   1487.25    336.06  " /><path style="stroke-width:0.85 ;&st7;   " d=" M  1487.25,   336.06  C  1488.03    336.06   1488.67    335.43   1488.67    334.65  " /><path style="stroke-width:0.85 ;&st7;   " d=" M  1497.17,   348.81  C  1497.17    348.03   1496.53    347.39   1495.75    347.39  " /><path style="stroke-width:0.85 ;&st7;   " d=" M  1495.75,   347.39  C  1494.97    347.39   1494.33    348.03   1494.33    348.81  " /><path style="stroke-width:0.85 ;&st7;   " d=" M  1494.33,   348.81  C  1494.33    349.59   1494.97    350.23   1495.75    350.23  " /><path style="stroke-width:0.85 ;&st7;   " d=" M  1495.75,   350.23  C  1496.53    350.23   1497.17    349.59   1497.17    348.81  " /><path style="stroke-width:0.85 ;&st7;   " d=" M  1480.17,   348.81  C  1480.17    348.03   1479.54    347.39   1478.75    347.39  " /><path style="stroke-width:0.85 ;&st7;   " d=" M  1478.75,   347.39  C  1477.97    347.39   1477.34    348.03   1477.34    348.81  " /><path style="stroke-width:0.85 ;&st7;   " d=" M  1477.34,   348.81  C  1477.34    349.59   1477.97    350.23   1478.75    350.23  " /><path style="stroke-width:0.85 ;&st7;   " d=" M  1478.75,   350.23  C  1479.54    350.23   1480.17    349.59   1480.17    348.81  " /><path style="stroke-width:1.42 ;&st7;  " d=" M  1453.26,   375.72  L  1521.25,   375.72  L  1521.25,   316.23  L  1453.26,   316.23  L  1453.26,   375.72  " /><path style="stroke-width:0.85 ;&st7;  " d=" M  1487.25,   324.73  L  1487.25,   316.23  " /><path style="stroke-width:0.85 ;&st7;  " d=" M  1470.25,   375.72  L  1470.25,   358.73  " /><path style="stroke-width:0.85 ;&st7;  " d=" M  1504.25,   375.72  L  1504.25,   358.73  " /><path style="stroke-width:0.85 ;&st7;  " d=" M  1470.25,   358.73  L  1470.25,   348.81  L  1477.34,   348.81  " /><path style="stroke-width:0.85 ;&st7;  " d=" M  1504.25,   358.73  L  1504.25,   348.81  L  1497.17,   348.81  " /><text style="&st18;" transform="matrix(&st16;  1489.83  324.43 )">IG</text><text style="&st18;" transform="matrix(&st16;  1506.83  372.03 )">RF</text><text style="&st18;" transform="matrix(&st16;  1472.84  372.03 )">R</text><text style="&st18;" transform="matrix(&st16;  1498.06  383.92 )">2</text><text style="&st18;" transform="matrix(&st16;  1464.07  383.92 )">4</text><text style="&st18;" transform="matrix(&st16;  1481.07  312.54 )">1</text><g ewd:figtype="title"><text style="&st18;" transform="matrix(&st17;  1529.14  378.62 )">L4</text><text style="&st18;" transform="matrix(&st17;  1535.96  378.63 )" ewd:textID="16">Center Differential Lock Switch</text></g></g><g ewd:figtype="conn" ewd:figID="16" ewd:code="I8"><g ewd:lineID="140,141"><text style="&st18;" transform="matrix(&st16;  1098.63  213.94 )">4</text><text style="&st18;" transform="matrix(&st16;  1099.14  202.05 )">SPD</text></g><g ewd:lineID="78"><text style="&st18;" transform="matrix(&st16;  1149.62  213.94 )">2</text><text style="&st18;" transform="matrix(&st16;  1150.13  202.05 )">RLP</text></g><g ewd:lineID="79"><text style="&st18;" transform="matrix(&st16;  1192.12  213.94 )">9</text><text style="&st18;" transform="matrix(&st16;  1192.62  202.05 )">FLP</text></g><g ewd:lineID="81"><text style="&st18;" transform="matrix(&st16;  1234.61  213.94 )">6</text><text style="&st18;" transform="matrix(&st16;  1236.82  202.05 )">RF</text></g><g ewd:lineID="83"><text style="&st18;" transform="matrix(&st16;  1274.0  213.94 )">12</text><text style="&st18;" transform="matrix(&st16;  1281.17  202.05 )">R</text></g></g><g ewd:figtype="w2w" ewd:figID="71" ewd:code="IL1"><path style="stroke-width:1.42 ;&st7;  " d=" M  1245.04,   274.31  L  1240.79,   270.06  L  1236.54,   274.31  " /><path style="stroke-width:1.42 ;&st7;  " d=" M  1245.04,   270.91  L  1240.79,   266.66  L  1236.54,   270.91  " /><text style="&st18;" transform="matrix(&st16;  1225.06  262.96 )">14</text></g><g ewd:figtype="w2w" ewd:figID="72" ewd:code="IL1"><path style="stroke-width:1.42 ;&st7;  " d=" M  1287.53,   274.31  L  1283.29,   270.06  L  1279.04,   274.31  " /><path style="stroke-width:1.42 ;&st7;  " d=" M  1287.53,   270.91  L  1283.29,   266.66  L  1279.04,   270.91  " /><text style="&st18;" transform="matrix(&st16;  1267.55  262.96 )">15</text></g><g ewd:figtype="w2w" ewd:figID="73" ewd:code="IL1"><path style="stroke-width:1.42 ;&st7;  " d=" M  1372.52,   355.89  L  1368.27,   351.64  L  1364.02,   355.89  " /><path style="stroke-width:1.42 ;&st7;  " d=" M  1372.52,   359.29  L  1368.27,   355.04  L  1364.02,   359.29  " /><text style="&st18;" transform="matrix(&st16;  1352.54  347.95 )">13</text></g><g ewd:code="3" ewd:figID="153" ewd:comment="" ewd:figtype="comment"><text style="&st18;" transform="matrix(&st16;  1092.91  63.24 )" ewd:textID="2">* 3 :Pick-Up Body Type</text></g><g ewd:code="5" ewd:figID="158" ewd:comment="" ewd:figtype="comment"><text style="&st18;" transform="matrix(&st16;  1092.91  80.24 )" ewd:textID="4">* 5 :12V Battery Type</text></g><g ewd:code="6" ewd:figID="145" ewd:comment="" ewd:figtype="comment"><text style="&st18;" transform="matrix(&st16;  1092.91  88.74 )" ewd:textID="5">* 6 :24V Battery Type</text></g><g ewd:code="7" ewd:figID="141" ewd:comment="" ewd:figtype="comment"><text style="&st18;" transform="matrix(&st16;  1092.91  97.24 )">* 7 :1GR-FE</text></g><g ewd:code="8" ewd:figID="204" ewd:comment="" ewd:figtype="comment"><text style="&st18;" transform="matrix(&st16;  1092.91  105.74 )">* 8 :1VD-FTV</text></g><g ewd:code="4" ewd:figID="152" ewd:comment="" ewd:figtype="comment"><text style="&st18;" transform="matrix(&st16;  1092.91  71.74 )" ewd:textID="3">* 4 :Except Pick-Up Body Type</text></g><g ewd:code="1" ewd:figID="147" ewd:comment="" ewd:figtype="comment"><text style="&st18;" transform="matrix(&st16;  1092.91  46.25 )">* 1 :1HZ</text></g><g ewd:code="12" ewd:figID="205" ewd:comment="" ewd:figtype="comment"><text style="&st18;" transform="matrix(&st16;  1092.91  114.24 )" ewd:textID="9">*12 :w/ ABS</text></g><g ewd:code="2" ewd:figID="146" ewd:comment="" ewd:figtype="comment"><text style="&st18;" transform="matrix(&st16;  1092.91  54.75 )" ewd:textID="1">* 2 :Except 1HZ</text></g></svg>