<?xml version="1.0" encoding="utf-8"?>
<!DOCTYPE svg PUBLIC "-//W3C//DTD SVG 1.0//EN" "http://www.w3.org/TR/2001/REC-SVG-20010904/DTD/svg10.dtd"[
	<!ENTITY ns_flows "http://ns.adobe.com/Flows/1.0/">
	<!ENTITY ns_svg "http://www.w3.org/2000/svg">
	<!ENTITY ns_xlink "http://www.w3.org/1999/xlink">
	<!ENTITY st0 "font-size:7px;font-family:'MS-PGothic';adobe-font-script:japanese;">
	<!ENTITY st1 "font-size:6px;font-family:'ArialMT';">
	<!-- White fill  -->
	<!ENTITY st2 "fill:#FFFFFF;stroke:#000000; stroke-width:1.41;stroke-linecap:round;stroke-linejoin:round;">
	<!-- Yellow fill  -->
	<!ENTITY st3 "fill:#FFFFCC;stroke:#FFFFCC; stroke-width:0.1;stroke-linecap:round;stroke-linejoin:round;">
	<!-- Gray fill  -->
	<!ENTITY st4 "fill:#CCCCCC;stroke:#CCCCCC; stroke-width:0.1;stroke-linecap:round;stroke-linejoin:round;">
	<!-- Light-blue fill -->
	<!ENTITY st5 "fill:#CCECF4;stroke:#000000; stroke-width:1.133;stroke-linecap:round;stroke-linejoin:round;">
	<!ENTITY st6 "fill:none;stroke-linecap:butt; stroke-linejoin:round;">
	<!ENTITY st7 "fill:none;stroke:#000000;stroke-linecap:round;stroke-linejoin:round;">
	<!ENTITY st8 "enable-background:new    ;">
	<!-- Black fill -->
	<!ENTITY st9 "fill:#000000;stroke:#000000; stroke-linecap:round;stroke-linejoin:round;">
	<!-- SRS note   -->
	<!ENTITY st10 "font-size:9px;font-family:'ArialMT';">
	<!ENTITY st11 "font-size:9px;font-family:'Svg Symbol';">
	<!ENTITY st12 "font-size:6px;font-family:'Svg Symbol';">
	<!ENTITY st13 "fill:none;stroke:#ff0000;stroke-linecap:round;stroke-linejoin:round;">
	<!-- Yellow fill  -->
	<!ENTITY st14 "fill:#FFFF00;stroke:#FFFF00; stroke-width:0.1;stroke-linecap:round;stroke-linejoin:round;">
	<!ENTITY st15 "font-size:6px;font-family:'MS-PGothic';adobe-font-script:japanese;">
	<!ENTITY st16 "1.00 0.00 0.00 1.00">
	<!ENTITY st17 "0.00 -1.00 1.00 0.00">
	<!ENTITY st18 "font-size:6px;font-family:'Arial';">
	<!ENTITY st19 "font-size:9px;font-family:'Arial';">
	<!ENTITY st20 "font-size:6px;font-family:'MS-PGothic','MS PGothic';adobe-font-script:japanese;">
	<!ENTITY st21 "font-size:7px;font-family:'MS-PGothic','MS PGothic';adobe-font-script:japanese;">
	<!ATTLIST svg
		xmlns:ewd CDATA #FIXED "http://shcl.co.jp/ewd"
		xmlns:a CDATA #FIXED "http://ns.adobe.com/AdobeSVGViewerExtensions/3.0/"
		ewd:ver CDATA #IMPLIED
	>
	<!ATTLIST a
		ewd:lineID CDATA #IMPLIED
		ewd:groupID CDATA #IMPLIED
		ewd:figtype CDATA #IMPLIED
		ewd:code CDATA #IMPLIED
		ewd:figID CDATA #IMPLIED
		ewd:pinNo CDATA #IMPLIED
		ewd:comment CDATA #IMPLIED >
	<!ATTLIST g
		ewd:lineID CDATA #IMPLIED
		ewd:groupID CDATA #IMPLIED
		ewd:figtype CDATA #IMPLIED
		ewd:code CDATA #IMPLIED
		ewd:figID CDATA #IMPLIED
		ewd:pinNo CDATA #IMPLIED
		ewd:comment CDATA #IMPLIED >
	<!ATTLIST text
		ewd:textID CDATA #IMPLIED >
	<!ATTLIST title
		ewd:textID CDATA #IMPLIED >
]>
<!-- Generator: Shintec Hozumi YS   -->
<svg onload="call_execInitLoadProc_svg('system')" style="overflow:visible;  enable-background:new 0 0 938.216 710.000" viewBox="0 0 938.216 710.000" height="710.000" width="938.216" xml:space="preserve" ewd:ver="2.1.2.9" xmlns="&ns_svg;" xmlns:a="http://ns.adobe.com/AdobeSVGViewerExtensions/3.0/" xmlns:ewd="http://shcl.co.jp/ewd" xmlns:xlink="&ns_xlink;"><script type="text/javascript" xlink:href="../../../../../system/js/ewd/fig/svgfig.js" xmlns:xlink="http://www.w3.org/1999/xlink" />
<g id="ewd_top"><a ewd:figtype="conn" style="cursor:pointer;" ewd:code="L24" ewd:figID="1"><path style="fill:#CCECF4;stroke:#000000; stroke-width:1.133; stroke-linecap:round;stroke-linejoin:round; " d=" M    59.49,   409.72  L    59.49,   511.70  L   399.43,   511.70  L   399.43,   409.72  L    59.49,   409.72 " /><title ewd:textID="9">Headlight Dimmer Switch Assembly</title></a><a ewd:figtype="conn" style="cursor:pointer;" ewd:code="L53" ewd:figID="2"><path style="fill:#CCECF4;stroke:#000000; stroke-width:1.133; stroke-linecap:round;stroke-linejoin:round; " d=" M   288.95,   622.18  L   305.95,   622.18  L   305.95,   639.18  L   288.95,   639.18  L   288.95,   622.18 " /><title ewd:textID="12">No. 31 Junction Connector</title></a><a ewd:figtype="conn" style="cursor:pointer;" ewd:code="L25" ewd:figID="3"><path style="fill:#CCECF4;stroke:#000000; stroke-width:1.133; stroke-linecap:round;stroke-linejoin:round; " d=" M   824.36,   171.76  L   824.36,   307.73  L   917.85,   307.73  L   917.85,   171.76  L   824.36,   171.76 " /><title ewd:textID="1">Combination Meter Assembly</title></a><a ewd:figtype="conn" style="cursor:pointer;" ewd:code="J1" ewd:figID="4"><path style="fill:#CCECF4;stroke:#000000; stroke-width:1.133; stroke-linecap:round;stroke-linejoin:round; " d=" M   611.90,   316.23  L   611.90,   316.23  C   611.90    311.51    608.07    307.68    603.34    307.68  L   603.34,   307.68  C   598.62    307.68    594.79    311.51    594.79    316.24  L   594.79,   316.24  C   594.79    320.96    598.62    324.79    603.34    324.79  L   603.34,   324.79  C   608.07    324.79    611.90    320.96    611.90    316.24 " /><title ewd:textID="4">Fog Light Assembly RH</title></a><a ewd:figtype="conn" style="cursor:pointer;" ewd:code="J2" ewd:figID="5"><path style="fill:#CCECF4;stroke:#000000; stroke-width:1.133; stroke-linecap:round;stroke-linejoin:round; " d=" M   688.38,   316.23  L   688.38,   316.23  C   688.38    311.51    684.55    307.68    679.83    307.68  L   679.83,   307.68  C   675.10    307.68    671.27    311.51    671.27    316.24  L   671.27,   316.24  C   671.28    320.96    675.11    324.79    679.83    324.79  L   679.83,   324.79  C   684.56    324.79    688.38    320.96    688.38    316.24 " /><title ewd:textID="3">Fog Light Assembly LH</title></a><a ewd:figtype="rb" style="cursor:pointer;" ewd:code="FUSE57" ewd:figID="6"><path style="fill:#CCECF4;stroke:#000000; stroke-width:0; stroke-linecap:round;stroke-linejoin:round; " d=" M    38.24,    35.78  L    38.24,    78.27  L    63.74,    78.27  L    63.74,    35.78  L    38.24,    35.78 " /></a><a ewd:figtype="rb" style="cursor:pointer;" ewd:code="FUSE18" ewd:figID="7"><path style="fill:#CCECF4;stroke:#000000; stroke-width:0; stroke-linecap:round;stroke-linejoin:round; " d=" M   182.72,    95.27  L   182.72,   137.76  L   208.22,   137.76  L   208.22,    95.27  L   182.72,    95.27 " /></a><a ewd:figtype="rb" style="cursor:pointer;" ewd:code="FUSE21" ewd:figID="8"><path style="fill:#CCECF4;stroke:#000000; stroke-width:0; stroke-linecap:round;stroke-linejoin:round; " d=" M   344.19,    35.78  L   344.19,    78.27  L   369.69,    78.27  L   369.69,    35.78  L   344.19,    35.78 " /></a><a ewd:figtype="rb" style="cursor:pointer;" ewd:code="2" ewd:figID="9"><path style="fill:#CCECF4;stroke:#000000; stroke-width:0; stroke-linecap:round;stroke-linejoin:round; " d=" M   365.44,   205.75  L   322.95,   205.75  L   322.95,   239.75  L   365.44,   239.75  L   365.44,   205.75 " /></a><a ewd:figtype="rb" style="cursor:pointer;" ewd:code="2" ewd:figID="10"><path style="fill:#CCECF4;stroke:#000000; stroke-width:0; stroke-linecap:round;stroke-linejoin:round; " d=" M    84.99,   248.24  L    42.49,   248.24  L    42.49,   282.24  L    84.99,   282.24  L    84.99,   248.24 " /></a><a ewd:figtype="conn" style="cursor:pointer;" ewd:code="I106" ewd:figID="11"><path style="fill:#CCECF4;stroke:#000000; stroke-width:1.133; stroke-linecap:round;stroke-linejoin:round; " d=" M   186.97,   222.75  L   203.97,   222.75  L   203.97,   239.75  L   186.97,   239.75  L   186.97,   222.75 " /><title ewd:textID="11">No. 9 Junction Connector</title></a><a ewd:figtype="fuse" style="cursor:pointer;" ewd:code="FUSE57" ewd:figID="59"><path style="&st7; stroke-width:0;" d=" M    38.24,    35.78  L    38.24,    78.27  L    63.74,    78.27  L    63.74,    35.78  L    38.24,    35.78 " /></a><a ewd:figtype="fuse" style="cursor:pointer;" ewd:code="FUSE18" ewd:figID="60"><path style="&st7; stroke-width:0;" d=" M   182.72,    95.27  L   182.72,   137.76  L   208.22,   137.76  L   208.22,    95.27  L   182.72,    95.27 " /></a><a ewd:figtype="fuse" style="cursor:pointer;" ewd:code="FUSE21" ewd:figID="61"><path style="&st7; stroke-width:0;" d=" M   344.19,    35.78  L   344.19,    78.27  L   369.69,    78.27  L   369.69,    35.78  L   344.19,    35.78 " /></a><a style="cursor:pointer;" ewd:lineID="1"><path style="stroke:#7FC97F;stroke-width:5.10 ;&st6;" d=" M    50.99,   307.73  L    50.99,   341.73  " /><path style="stroke:#FFFFFF;stroke-width:2.27 ;&st6;" d=" M    50.99,   307.73  L    50.99,   341.73  " /><path style="stroke:#000000;stroke-width:1.13 ;&st6;" d=" M    50.99,   307.73  L    50.99,   341.73  " /></a><a style="cursor:pointer;" ewd:lineID="2"><path style="stroke:#000000;stroke-width:5.10 ;&st6;" d=" M    50.99,   188.75  L    50.99,   222.75  " /><path style="stroke:#FFFFFF;stroke-width:4.53 ;&st6;" d=" M    50.99,   188.75  L    50.99,   222.75  " /><path style="stroke:#00A0C6;stroke-width:1.13 ;&st6;" d=" M    50.99,   188.75  L    50.99,   222.75  " /></a><a style="cursor:pointer;" ewd:lineID="3"><path style="stroke:#000000;stroke-width:5.10 ;&st6;" d=" M    50.99,   143.99  L    50.99,   171.76  " /><path style="stroke:#FFFFFF;stroke-width:4.53 ;&st6;" d=" M    50.99,   143.99  L    50.99,   171.76  " /><path style="stroke:#00A0C6;stroke-width:1.13 ;&st6;" d=" M    50.99,   143.99  L    50.99,   171.76  " /></a><a style="cursor:pointer;" ewd:lineID="4"><path style="stroke:#000000;stroke-width:5.10 ;&st6;" d=" M    50.99,   103.77  L    50.99,   129.26  " /><path style="stroke:#FFFFFF;stroke-width:4.53 ;&st6;" d=" M    50.99,   103.77  L    50.99,   129.26  " /><path style="stroke:#00A0C6;stroke-width:1.13 ;&st6;" d=" M    50.99,   103.77  L    50.99,   129.26  " /></a><a style="cursor:pointer;" ewd:lineID="5"><path style="stroke:#008837;stroke-width:5.10 ;&st6;" d=" M    76.49,   307.73  L    76.49,   324.73  L   127.48,   324.73  L   127.48,    27.28  L   195.47,    27.28  L   195.47,    61.28  " /></a><a style="cursor:pointer;" ewd:lineID="6"><path style="stroke:#000000;stroke-width:5.10 ;&st6;" d=" M    76.49,   222.75  L    76.49,   180.26  L    59.49,   180.26  " /><path style="stroke:#FFFFFF;stroke-width:4.53 ;&st6;" d=" M    76.49,   222.75  L    76.49,   180.26  L    59.49,   180.26  " /><path style="stroke:#00A0C6;stroke-width:1.13 ;&st6;" d=" M    76.49,   222.75  L    76.49,   180.26  L    59.49,   180.26  " /></a><a style="cursor:pointer;" ewd:lineID="7"><path style="stroke:#7FC97F;stroke-width:5.10 ;&st6;" d=" M   152.97,   391.59  L   152.97,   375.72  L    50.99,   375.72  L    50.99,   365.24  " /><path style="stroke:#FFFFFF;stroke-width:2.27 ;&st6;" d=" M   152.97,   391.59  L   152.97,   375.72  L    50.99,   375.72  L    50.99,   365.24  " /><path style="stroke:#000000;stroke-width:1.13 ;&st6;" d=" M   152.97,   391.59  L   152.97,   375.72  L    50.99,   375.72  L    50.99,   365.24  " /></a><a style="cursor:pointer;" ewd:lineID="8"><path style="stroke:#000000;stroke-width:5.10 ;&st6;" d=" M   186.97,   529.83  L   186.97,   571.19  L   288.95,   571.19  " /><path style="stroke:#FFFFFF;stroke-width:4.53 ;&st6;" d=" M   186.97,   529.83  L   186.97,   571.19  L   288.95,   571.19  " /><path style="stroke:#000000;stroke-width:1.13 ;&st6;" d=" M   186.97,   529.83  L   186.97,   571.19  L   288.95,   571.19  " /></a><a style="cursor:pointer;" ewd:lineID="9"><path style="stroke:#008837;stroke-width:5.10 ;&st6;" d=" M   195.47,   248.81  L   195.47,   265.24  L   288.95,   265.24  L   288.95,   163.26  L   322.95,   163.26  L   331.44,   171.76  L   331.44,   180.26  " /><path style="stroke:#FFFFFF;stroke-width:2.27 ;&st6;" d=" M   195.47,   248.81  L   195.47,   265.24  L   288.95,   265.24  L   288.95,   163.26  L   322.95,   163.26  L   331.44,   171.76  L   331.44,   180.26  " /><path style="stroke:#FF0000;stroke-width:1.13 ;&st6;" d=" M   195.47,   248.81  L   195.47,   265.24  L   288.95,   265.24  L   288.95,   163.26  L   322.95,   163.26  L   331.44,   171.76  L   331.44,   180.26  " /></a><a style="cursor:pointer;" ewd:lineID="10"><path style="stroke:#008837;stroke-width:5.10 ;&st6;" d=" M   195.47,   171.76  L   195.47,   213.68  " /><path style="stroke:#FFFFFF;stroke-width:2.27 ;&st6;" d=" M   195.47,   171.76  L   195.47,   213.68  " /><path style="stroke:#FF0000;stroke-width:1.13 ;&st6;" d=" M   195.47,   171.76  L   195.47,   213.68  " /></a><a style="cursor:pointer;" ewd:lineID="11"><path style="stroke:#008837;stroke-width:5.10 ;&st6;" d=" M   195.47,   171.76  L   195.47,   180.26  L   203.97,   188.75  L   254.96,   188.75  L   254.96,   154.76  " /><path style="stroke:#FFFFFF;stroke-width:2.27 ;&st6;" d=" M   195.47,   171.76  L   195.47,   180.26  L   203.97,   188.75  L   254.96,   188.75  L   254.96,   154.76  " /><path style="stroke:#FF0000;stroke-width:1.13 ;&st6;" d=" M   195.47,   171.76  L   195.47,   180.26  L   203.97,   188.75  L   254.96,   188.75  L   254.96,   154.76  " /></a><a style="cursor:pointer;" ewd:lineID="12"><path style="stroke:#008837;stroke-width:5.10 ;&st6;" d=" M   263.46,   146.26  L   331.44,   146.26  L   331.44,   180.26  " /><path style="stroke:#FFFFFF;stroke-width:2.27 ;&st6;" d=" M   263.46,   146.26  L   331.44,   146.26  L   331.44,   180.26  " /><path style="stroke:#FF0000;stroke-width:1.13 ;&st6;" d=" M   263.46,   146.26  L   331.44,   146.26  L   331.44,   180.26  " /></a><a style="cursor:pointer;" ewd:lineID="13"><path style="stroke:#000000;stroke-width:5.10 ;&st6;" d=" M   288.95,   630.68  L   254.96,   630.68  L   254.96,   681.67  " /><path style="stroke:#FFFFFF;stroke-width:4.53 ;&st6;" d=" M   288.95,   630.68  L   254.96,   630.68  L   254.96,   681.67  " /><path style="stroke:#000000;stroke-width:1.13 ;&st6;" d=" M   288.95,   630.68  L   254.96,   630.68  L   254.96,   681.67  " /></a><a style="cursor:pointer;" ewd:lineID="14"><path style="stroke:#000000;stroke-width:5.10 ;&st6;" d=" M   297.45,   639.18  L   297.45,   681.67  " /><path style="stroke:#FFFFFF;stroke-width:4.53 ;&st6;" d=" M   297.45,   639.18  L   297.45,   681.67  " /><path style="stroke:#000000;stroke-width:1.13 ;&st6;" d=" M   297.45,   639.18  L   297.45,   681.67  " /></a><a style="cursor:pointer;" ewd:lineID="15"><path style="stroke:#000000;stroke-width:5.10 ;&st6;" d=" M   297.45,   579.69  L   297.45,   622.18  " /><path style="stroke:#FFFFFF;stroke-width:4.53 ;&st6;" d=" M   297.45,   579.69  L   297.45,   622.18  " /><path style="stroke:#000000;stroke-width:1.13 ;&st6;" d=" M   297.45,   579.69  L   297.45,   622.18  " /></a><a style="cursor:pointer;" ewd:lineID="16"><path style="stroke:#000000;stroke-width:5.10 ;&st6;" d=" M   297.45,   529.83  L   297.45,   562.69  " /><path style="stroke:#FFFFFF;stroke-width:4.53 ;&st6;" d=" M   297.45,   529.83  L   297.45,   562.69  " /><path style="stroke:#000000;stroke-width:1.13 ;&st6;" d=" M   297.45,   529.83  L   297.45,   562.69  " /></a><a style="cursor:pointer;" ewd:lineID="17"><path style="stroke:#008837;stroke-width:5.10 ;&st6;" d=" M   331.44,   365.24  L   331.44,   391.59  " /><path style="stroke:#FFFFFF;stroke-width:2.27 ;&st6;" d=" M   331.44,   365.24  L   331.44,   391.59  " /><path style="stroke:#000000;stroke-width:1.13 ;&st6;" d=" M   331.44,   365.24  L   331.44,   391.59  " /></a><a style="cursor:pointer;" ewd:lineID="18"><path style="stroke:#008837;stroke-width:5.10 ;&st6;" d=" M   331.44,   265.24  L   331.44,   341.73  " /><path style="stroke:#FFFFFF;stroke-width:2.27 ;&st6;" d=" M   331.44,   265.24  L   331.44,   341.73  " /><path style="stroke:#000000;stroke-width:1.13 ;&st6;" d=" M   331.44,   265.24  L   331.44,   341.73  " /></a><a style="cursor:pointer;" ewd:lineID="19"><path style="stroke:#FF0000;stroke-width:5.10 ;&st6;" d=" M   356.94,   290.74  L   356.94,   265.24  " /><path style="stroke:#FFFFFF;stroke-width:2.27 ;&st6;" d=" M   356.94,   290.74  L   356.94,   265.24  " /><path style="stroke:#000000;stroke-width:1.13 ;&st6;" d=" M   356.94,   290.74  L   356.94,   265.24  " /></a><a style="cursor:pointer;" ewd:lineID="20"><path style="stroke:#F668B2;stroke-width:5.10 ;&st6;" d=" M   356.94,   103.77  L   356.94,   180.26  " /></a><a style="cursor:pointer;" ewd:lineID="21"><path style="stroke:#FF0000;stroke-width:5.10 ;&st6;" d=" M   407.93,   256.74  L   407.93,   299.24  L   365.44,   299.24  " /><path style="stroke:#FFFFFF;stroke-width:2.27 ;&st6;" d=" M   407.93,   256.74  L   407.93,   299.24  L   365.44,   299.24  " /><path style="stroke:#000000;stroke-width:1.13 ;&st6;" d=" M   407.93,   256.74  L   407.93,   299.24  L   365.44,   299.24  " /></a><a style="cursor:pointer;" ewd:lineID="22"><path style="stroke:#FF0000;stroke-width:5.10 ;&st6;" d=" M   407.93,   233.23  L   407.93,    27.28  L   875.35,    27.28  L   875.35,   162.69  " /><path style="stroke:#FFFFFF;stroke-width:2.27 ;&st6;" d=" M   407.93,   233.23  L   407.93,    27.28  L   875.35,    27.28  L   875.35,   162.69  " /><path style="stroke:#000000;stroke-width:1.13 ;&st6;" d=" M   407.93,   233.23  L   407.93,    27.28  L   875.35,    27.28  L   875.35,   162.69  " /></a><a style="cursor:pointer;" ewd:lineID="23"><path style="stroke:#000000;stroke-width:5.10 ;&st6;" d=" M   603.40,   681.67  L   603.40,   673.17  L   611.90,   664.67  L   628.89,   664.67  L   628.89,   588.19  L   662.89,   588.19  L   673.87,   577.20  " /><path style="stroke:#FFFFFF;stroke-width:4.53 ;&st6;" d=" M   603.40,   681.67  L   603.40,   673.17  L   611.90,   664.67  L   628.89,   664.67  L   628.89,   588.19  L   662.89,   588.19  L   673.87,   577.20  " /><path style="stroke:#000000;stroke-width:1.13 ;&st6;" d=" M   603.40,   681.67  L   603.40,   673.17  L   611.90,   664.67  L   628.89,   664.67  L   628.89,   588.19  L   662.89,   588.19  L   673.87,   577.20  " /></a><a ewd:comment="1,11" style="cursor:pointer;" ewd:lineID="24"><path style="stroke:#000000;stroke-width:5.10 ;&st6;" d=" M   603.40,   562.69  L   603.40,   681.67  " /><path style="stroke:#FFFFFF;stroke-width:4.53 ;&st6;" d=" M   603.40,   562.69  L   603.40,   681.67  " /><path style="stroke:#000000;stroke-width:1.13 ;&st6;" d=" M   603.40,   562.69  L   603.40,   681.67  " /></a><a ewd:comment="1,11" style="cursor:pointer;" ewd:lineID="25"><path style="stroke:#000000;stroke-width:5.10 ;&st6;" d=" M   603.40,   492.44  L   603.40,   545.69  " /><path style="stroke:#FFFFFF;stroke-width:4.53 ;&st6;" d=" M   603.40,   492.44  L   603.40,   545.69  " /><path style="stroke:#000000;stroke-width:1.13 ;&st6;" d=" M   603.40,   492.44  L   603.40,   545.69  " /></a><a ewd:comment="2" style="cursor:pointer;" ewd:lineID="26"><path style="stroke:#000000;stroke-width:5.10 ;&st6;" d=" M   603.40,   492.44  L   603.40,   494.70  L   611.90,   503.20  L   628.89,   503.20  L   628.89,   571.19  L   671.39,   571.19  " /><path style="stroke:#FFFFFF;stroke-width:4.53 ;&st6;" d=" M   603.40,   492.44  L   603.40,   494.70  L   611.90,   503.20  L   628.89,   503.20  L   628.89,   571.19  L   671.39,   571.19  " /><path style="stroke:#000000;stroke-width:1.13 ;&st6;" d=" M   603.40,   492.44  L   603.40,   494.70  L   611.90,   503.20  L   628.89,   503.20  L   628.89,   571.19  L   671.39,   571.19  " /></a><a style="cursor:pointer;" ewd:lineID="27"><path style="stroke:#000000;stroke-width:5.10 ;&st6;" d=" M   603.40,   415.95  L   603.40,   477.71  " /><path style="stroke:#FFFFFF;stroke-width:4.53 ;&st6;" d=" M   603.40,   415.95  L   603.40,   477.71  " /><path style="stroke:#000000;stroke-width:1.13 ;&st6;" d=" M   603.40,   415.95  L   603.40,   477.71  " /></a><a style="cursor:pointer;" ewd:lineID="28"><path style="stroke:#000000;stroke-width:5.10 ;&st6;" d=" M   603.40,   324.73  L   603.40,   401.22  " /><path style="stroke:#FFFFFF;stroke-width:4.53 ;&st6;" d=" M   603.40,   324.73  L   603.40,   401.22  " /><path style="stroke:#000000;stroke-width:1.13 ;&st6;" d=" M   603.40,   324.73  L   603.40,   401.22  " /></a><a style="cursor:pointer;" ewd:lineID="29"><path style="stroke:#FF0000;stroke-width:5.10 ;&st6;" d=" M   603.40,   265.24  L   603.40,   307.73  " /><path style="stroke:#FFFFFF;stroke-width:2.27 ;&st6;" d=" M   603.40,   265.24  L   603.40,   307.73  " /><path style="stroke:#000000;stroke-width:1.13 ;&st6;" d=" M   603.40,   265.24  L   603.40,   307.73  " /></a><a style="cursor:pointer;" ewd:lineID="30"><path style="stroke:#FF0000;stroke-width:5.10 ;&st6;" d=" M   603.40,   205.75  L   603.40,   250.23  " /><path style="stroke:#FFFFFF;stroke-width:2.27 ;&st6;" d=" M   603.40,   205.75  L   603.40,   250.23  " /><path style="stroke:#000000;stroke-width:1.13 ;&st6;" d=" M   603.40,   205.75  L   603.40,   250.23  " /></a><a style="cursor:pointer;" ewd:lineID="31"><path style="stroke:#FF0000;stroke-width:5.10 ;&st6;" d=" M   603.40,   190.74  L   603.40,   154.76  L   467.42,   154.76  L   467.42,   333.23  L   356.94,   333.23  L   356.94,   307.73  " /><path style="stroke:#FFFFFF;stroke-width:2.27 ;&st6;" d=" M   603.40,   190.74  L   603.40,   154.76  L   467.42,   154.76  L   467.42,   333.23  L   356.94,   333.23  L   356.94,   307.73  " /><path style="stroke:#000000;stroke-width:1.13 ;&st6;" d=" M   603.40,   190.74  L   603.40,   154.76  L   467.42,   154.76  L   467.42,   333.23  L   356.94,   333.23  L   356.94,   307.73  " /></a><a ewd:comment="2" style="cursor:pointer;" ewd:lineID="32"><path style="stroke:#000000;stroke-width:5.10 ;&st6;" d=" M   679.89,   579.69  L   679.89,   681.67  " /><path style="stroke:#FFFFFF;stroke-width:4.53 ;&st6;" d=" M   679.89,   579.69  L   679.89,   681.67  " /><path style="stroke:#000000;stroke-width:1.13 ;&st6;" d=" M   679.89,   579.69  L   679.89,   681.67  " /></a><a ewd:comment="1,11" style="cursor:pointer;" ewd:lineID="33"><path style="stroke:#000000;stroke-width:5.10 ;&st6;" d=" M   679.89,   492.44  L   679.89,   494.70  L   671.39,   503.20  L   654.39,   503.20  L   654.39,   554.19  L   611.90,   554.19  " /><path style="stroke:#FFFFFF;stroke-width:4.53 ;&st6;" d=" M   679.89,   492.44  L   679.89,   494.70  L   671.39,   503.20  L   654.39,   503.20  L   654.39,   554.19  L   611.90,   554.19  " /><path style="stroke:#000000;stroke-width:1.13 ;&st6;" d=" M   679.89,   492.44  L   679.89,   494.70  L   671.39,   503.20  L   654.39,   503.20  L   654.39,   554.19  L   611.90,   554.19  " /></a><a ewd:comment="2" style="cursor:pointer;" ewd:lineID="34"><path style="stroke:#000000;stroke-width:5.10 ;&st6;" d=" M   679.89,   492.44  L   679.89,   562.69  " /><path style="stroke:#FFFFFF;stroke-width:4.53 ;&st6;" d=" M   679.89,   492.44  L   679.89,   562.69  " /><path style="stroke:#000000;stroke-width:1.13 ;&st6;" d=" M   679.89,   492.44  L   679.89,   562.69  " /></a><a style="cursor:pointer;" ewd:lineID="35"><path style="stroke:#000000;stroke-width:5.10 ;&st6;" d=" M   679.89,   477.71  L   679.89,   415.95  " /><path style="stroke:#FFFFFF;stroke-width:4.53 ;&st6;" d=" M   679.89,   477.71  L   679.89,   415.95  " /><path style="stroke:#000000;stroke-width:1.13 ;&st6;" d=" M   679.89,   477.71  L   679.89,   415.95  " /></a><a style="cursor:pointer;" ewd:lineID="36"><path style="stroke:#000000;stroke-width:5.10 ;&st6;" d=" M   679.89,   401.22  L   679.89,   324.73  " /><path style="stroke:#FFFFFF;stroke-width:4.53 ;&st6;" d=" M   679.89,   401.22  L   679.89,   324.73  " /><path style="stroke:#000000;stroke-width:1.13 ;&st6;" d=" M   679.89,   401.22  L   679.89,   324.73  " /></a><a style="cursor:pointer;" ewd:lineID="37"><path style="stroke:#FF0000;stroke-width:5.10 ;&st6;" d=" M   679.89,   307.73  L   679.89,   265.24  " /><path style="stroke:#FFFFFF;stroke-width:2.27 ;&st6;" d=" M   679.89,   307.73  L   679.89,   265.24  " /><path style="stroke:#000000;stroke-width:1.13 ;&st6;" d=" M   679.89,   307.73  L   679.89,   265.24  " /></a><a style="cursor:pointer;" ewd:lineID="38"><path style="stroke:#FF0000;stroke-width:5.10 ;&st6;" d=" M   679.89,   250.23  L   679.89,   205.75  " /><path style="stroke:#FFFFFF;stroke-width:2.27 ;&st6;" d=" M   679.89,   250.23  L   679.89,   205.75  " /><path style="stroke:#000000;stroke-width:1.13 ;&st6;" d=" M   679.89,   250.23  L   679.89,   205.75  " /></a><a style="cursor:pointer;" ewd:lineID="39"><path style="stroke:#FF0000;stroke-width:5.10 ;&st6;" d=" M   679.89,   190.74  L   679.89,   137.76  L   441.93,   137.76  L   441.93,   316.23  L   373.94,   316.23  L   362.95,   305.25  " /><path style="stroke:#FFFFFF;stroke-width:2.27 ;&st6;" d=" M   679.89,   190.74  L   679.89,   137.76  L   441.93,   137.76  L   441.93,   316.23  L   373.94,   316.23  L   362.95,   305.25  " /><path style="stroke:#000000;stroke-width:1.13 ;&st6;" d=" M   679.89,   190.74  L   679.89,   137.76  L   441.93,   137.76  L   441.93,   316.23  L   373.94,   316.23  L   362.95,   305.25  " /></a><a ewd:comment="12" style="cursor:pointer;" ewd:lineID="40"><path style="stroke:#992903;stroke-width:5.10 ;&st6;" d=" M   756.37,   554.19  L   756.37,   681.67  " /></a><a ewd:comment="4" style="cursor:pointer;" ewd:lineID="41"><path style="stroke:#992903;stroke-width:5.10 ;&st6;" d=" M   807.37,   622.18  L   807.37,   681.67  " /></a><a ewd:comment="4" style="cursor:pointer;" ewd:lineID="42"><path style="stroke:#992903;stroke-width:5.10 ;&st6;" d=" M   807.37,   560.42  L   807.37,   605.18  " /></a><a ewd:comment="12" style="cursor:pointer;" ewd:lineID="43"><path style="stroke:#992903;stroke-width:5.10 ;&st6;" d=" M   807.37,   494.70  L   807.37,   503.20  L   798.87,   511.70  L   756.37,   511.70  L   756.37,   539.46  " /></a><a ewd:comment="4" style="cursor:pointer;" ewd:lineID="44"><path style="stroke:#992903;stroke-width:5.10 ;&st6;" d=" M   807.37,   494.70  L   807.37,   545.69  " /></a><a ewd:comment="4,12" style="cursor:pointer;" ewd:lineID="45"><path style="stroke:#992903;stroke-width:5.10 ;&st6;" d=" M   807.37,   454.48  L   807.37,   401.22  L   866.86,   401.22  " /></a><a ewd:comment="3" style="cursor:pointer;" ewd:lineID="46"><path style="stroke:#992903;stroke-width:5.10 ;&st6;" d=" M   875.35,   681.67  L   875.35,   622.18  " /></a><a ewd:comment="3" style="cursor:pointer;" ewd:lineID="47"><path style="stroke:#992903;stroke-width:5.10 ;&st6;" d=" M   875.35,   568.92  L   875.35,   605.18  " /></a><a ewd:comment="1" style="cursor:pointer;" ewd:lineID="48"><path style="stroke:#992903;stroke-width:5.10 ;&st6;" d=" M   875.35,   545.69  L   875.35,   409.72  " /></a><a ewd:comment="8" style="cursor:pointer;" ewd:lineID="49"><path style="stroke:#992903;stroke-width:5.10 ;&st6;" d=" M   875.35,   545.69  L   875.35,   537.20  L   883.85,   528.70  L   917.85,   528.70  L   917.85,   469.21  " /></a><a style="cursor:pointer;" ewd:lineID="50"><path style="stroke:#992903;stroke-width:5.10 ;&st6;" d=" M   875.35,   367.22  L   875.35,   392.72  " /></a><a style="cursor:pointer;" ewd:lineID="51"><path style="stroke:#992903;stroke-width:5.10 ;&st6;" d=" M   875.35,   316.80  L   875.35,   343.99  " /></a><a ewd:comment="8" style="cursor:pointer;" ewd:lineID="52"><path style="stroke:#992903;stroke-width:5.10 ;&st6;" d=" M   883.85,   401.22  L   917.85,   401.22  L   917.85,   454.48  " /></a><a ewd:figtype="w2w" style="cursor:pointer;" ewd:pinNo="3" ewd:code="IL6" ewd:figID="17"><path style="&st2;" d=" M    59.49,   350.23  L    42.49,   350.23  L    42.49,   358.73  L    59.49,   358.73  L    59.49,   350.23 " /><text style="&st8;" transform="matrix(&st16;  46.85  356.6 )"><tspan x="0" style="&st18;" y="0">IL6</tspan></text></a><a ewd:figtype="w2w" style="cursor:pointer;" ewd:pinNo="6" ewd:code="IL2" ewd:figID="18"><path style="&st2;" d=" M    59.49,   341.73  L    42.49,   341.73  L    42.49,   350.23  L    59.49,   350.23  L    59.49,   341.73 " /><text style="&st8;" transform="matrix(&st16;  46.85  348.1 )"><tspan x="0" style="&st18;" y="0">IL2</tspan></text></a><a ewd:figtype="w2w" style="cursor:pointer;" ewd:pinNo="1" ewd:code="AI1" ewd:figID="19"><path style="&st2;" d=" M    59.49,   129.26  L    42.49,   129.26  L    42.49,   137.76  L    59.49,   137.76  L    59.49,   129.26 " /><text style="&st8;" transform="matrix(&st16;  46.63  135.63 )"><tspan x="0" style="&st18;" y="0">AI1</tspan></text></a><a ewd:figtype="w2w" style="cursor:pointer;" ewd:pinNo="26" ewd:code="IL5" ewd:figID="20"><path style="&st2;" d=" M   339.94,   350.23  L   322.95,   350.23  L   322.95,   358.73  L   339.94,   358.73  L   339.94,   350.23 " /><text style="&st8;" transform="matrix(&st16;  327.31  356.6 )"><tspan x="0" style="&st18;" y="0">IL5</tspan></text></a><a ewd:figtype="w2w" style="cursor:pointer;" ewd:pinNo="21" ewd:code="IL1" ewd:figID="21"><path style="&st2;" d=" M   339.94,   341.73  L   322.95,   341.73  L   322.95,   350.23  L   339.94,   350.23  L   339.94,   341.73 " /><text style="&st8;" transform="matrix(&st16;  327.31  348.1 )"><tspan x="0" style="&st18;" y="0">IL1</tspan></text></a><a ewd:figtype="w2w" style="cursor:pointer;" ewd:pinNo="27" ewd:code="IL5" ewd:figID="22"><path style="&st2;" d=" M   416.43,   248.24  L   399.43,   248.24  L   399.43,   256.74  L   416.43,   256.74  L   416.43,   248.24 " /><text style="&st8;" transform="matrix(&st16;  403.79  254.61 )"><tspan x="0" style="&st18;" y="0">IL5</tspan></text></a><a ewd:figtype="w2w" style="cursor:pointer;" ewd:pinNo="22" ewd:code="IL1" ewd:figID="23"><path style="&st2;" d=" M   416.43,   239.75  L   399.43,   239.75  L   399.43,   248.24  L   416.43,   248.24  L   416.43,   239.75 " /><text style="&st8;" transform="matrix(&st16;  403.79  246.11 )"><tspan x="0" style="&st18;" y="0">IL1</tspan></text></a><a ewd:figtype="w2w" style="cursor:pointer;" ewd:pinNo="5" ewd:code="KI2" ewd:figID="24"><path style="&st2;" d=" M   611.90,   477.71  L   594.90,   477.71  L   594.90,   486.20  L   611.90,   486.20  L   611.90,   477.71 " /><text style="&st8;" transform="matrix(&st16;  599.03  484.07 )"><tspan x="0" style="&st18;" y="0">KI2</tspan></text></a><a ewd:figtype="w2w" style="cursor:pointer;" ewd:pinNo="5" ewd:code="JK2" ewd:figID="25"><path style="&st2;" d=" M   611.90,   401.22  L   594.90,   401.22  L   594.90,   409.72  L   611.90,   409.72  L   611.90,   401.22 " /><text style="&st8;" transform="matrix(&st16;  598.73  407.59 )"><tspan x="0" style="&st18;" y="0">JK2</tspan></text></a><a ewd:figtype="w2w" style="cursor:pointer;" ewd:pinNo="6" ewd:code="JK2" ewd:figID="26"><path style="&st2;" d=" M   611.90,   256.74  L   594.90,   256.74  L   594.90,   265.24  L   611.90,   265.24  L   611.90,   256.74 " /><text style="&st8;" transform="matrix(&st16;  598.73  263.11 )"><tspan x="0" style="&st18;" y="0">JK2</tspan></text></a><a ewd:figtype="w2w" style="cursor:pointer;" ewd:pinNo="6" ewd:code="KI2" ewd:figID="27"><path style="&st2;" d=" M   611.90,   197.25  L   594.90,   197.25  L   594.90,   205.75  L   611.90,   205.75  L   611.90,   197.25 " /><text style="&st8;" transform="matrix(&st16;  599.03  203.62 )"><tspan x="0" style="&st18;" y="0">KI2</tspan></text></a><a ewd:figtype="w2w" style="cursor:pointer;" ewd:pinNo="7" ewd:code="KI2" ewd:figID="28"><path style="&st2;" d=" M   688.38,   477.71  L   671.39,   477.71  L   671.39,   486.20  L   688.38,   486.20  L   688.38,   477.71 " /><text style="&st8;" transform="matrix(&st16;  675.52  484.07 )"><tspan x="0" style="&st18;" y="0">KI2</tspan></text></a><a ewd:figtype="w2w" style="cursor:pointer;" ewd:pinNo="7" ewd:code="JK2" ewd:figID="29"><path style="&st2;" d=" M   688.38,   401.22  L   671.39,   401.22  L   671.39,   409.72  L   688.38,   409.72  L   688.38,   401.22 " /><text style="&st8;" transform="matrix(&st16;  675.22  407.59 )"><tspan x="0" style="&st18;" y="0">JK2</tspan></text></a><a ewd:figtype="w2w" style="cursor:pointer;" ewd:pinNo="8" ewd:code="JK2" ewd:figID="30"><path style="&st2;" d=" M   688.38,   256.74  L   671.39,   256.74  L   671.39,   265.24  L   688.38,   265.24  L   688.38,   256.74 " /><text style="&st8;" transform="matrix(&st16;  675.22  263.11 )"><tspan x="0" style="&st18;" y="0">JK2</tspan></text></a><a ewd:figtype="w2w" style="cursor:pointer;" ewd:pinNo="8" ewd:code="KI2" ewd:figID="31"><path style="&st2;" d=" M   688.38,   197.25  L   671.39,   197.25  L   671.39,   205.75  L   688.38,   205.75  L   688.38,   197.25 " /><text style="&st8;" transform="matrix(&st16;  675.52  203.62 )"><tspan x="0" style="&st18;" y="0">KI2</tspan></text></a><a ewd:figtype="w2w" style="cursor:pointer;" ewd:pinNo="17" ewd:code="CA4" ewd:figID="32"><path style="&st2;" d=" M   764.87,   545.69  L   747.88,   545.69  L   747.88,   554.19  L   764.87,   554.19  L   764.87,   545.69 " /><text style="&st8;" transform="matrix(&st16;  750.77  552.06 )"><tspan x="0" style="&st18;" y="0">CA4</tspan></text></a><a ewd:figtype="w2w" style="cursor:pointer;" ewd:pinNo="1" ewd:code="AC1" ewd:figID="33"><path style="&st2;" d=" M   815.86,   545.69  L   798.87,   545.69  L   798.87,   554.19  L   815.86,   554.19  L   815.86,   545.69 " /><text style="&st8;" transform="matrix(&st16;  801.76  552.06 )"><tspan x="0" style="&st18;" y="0">AC1</tspan></text></a><a ewd:figtype="w2w" style="cursor:pointer;" ewd:pinNo="13" ewd:code="AI3" ewd:figID="34"><path style="&st2;" d=" M   815.86,   486.20  L   798.87,   486.20  L   798.87,   494.70  L   815.86,   494.70  L   815.86,   486.20 " /><text style="&st8;" transform="matrix(&st16;  803.0  492.57 )"><tspan x="0" style="&st18;" y="0">AI3</tspan></text></a><a ewd:figtype="w2w" style="cursor:pointer;" ewd:pinNo="55" ewd:code="AI3" ewd:figID="35"><path style="&st2;" d=" M   815.86,   477.71  L   798.87,   477.71  L   798.87,   486.20  L   815.86,   486.20  L   815.86,   477.71 " /><text style="&st8;" transform="matrix(&st16;  803.0  484.07 )"><tspan x="0" style="&st18;" y="0">AI3</tspan></text></a><a ewd:figtype="w2w" style="cursor:pointer;" ewd:pinNo="22" ewd:code="AI3" ewd:figID="36"><path style="&st2;" d=" M   815.86,   469.21  L   798.87,   469.21  L   798.87,   477.71  L   815.86,   477.71  L   815.86,   469.21 " /><text style="&st8;" transform="matrix(&st16;  803.0  475.58 )"><tspan x="0" style="&st18;" y="0">AI3</tspan></text></a><a ewd:figtype="w2w" style="cursor:pointer;" ewd:pinNo="45" ewd:code="AI3" ewd:figID="37"><path style="&st2;" d=" M   815.86,   460.71  L   798.87,   460.71  L   798.87,   469.21  L   815.86,   469.21  L   815.86,   460.71 " /><text style="&st8;" transform="matrix(&st16;  803.0  467.08 )"><tspan x="0" style="&st18;" y="0">AI3</tspan></text></a><a ewd:figtype="w2w" style="cursor:pointer;" ewd:pinNo="9" ewd:code="AC5" ewd:figID="38"><path style="&st2;" d=" M   883.85,   554.19  L   866.86,   554.19  L   866.86,   562.69  L   883.85,   562.69  L   883.85,   554.19 " /><text style="&st8;" transform="matrix(&st16;  869.75  560.56 )"><tspan x="0" style="&st18;" y="0">AC5</tspan></text></a><a ewd:figtype="w2w" style="cursor:pointer;" ewd:pinNo="9" ewd:code="IC2" ewd:figID="39"><path style="&st2;" d=" M   883.85,   545.69  L   866.86,   545.69  L   866.86,   554.19  L   883.85,   554.19  L   883.85,   545.69 " /><text style="&st8;" transform="matrix(&st16;  870.88  552.06 )"><tspan x="0" style="&st18;" y="0">IC2</tspan></text></a><a ewd:figtype="w2w" style="cursor:pointer;" ewd:pinNo="14" ewd:code="IL6" ewd:figID="40"><path style="&st2;" d=" M   883.85,   358.73  L   866.86,   358.73  L   866.86,   367.22  L   883.85,   367.22  L   883.85,   358.73 " /><text style="&st8;" transform="matrix(&st16;  871.22  365.09 )"><tspan x="0" style="&st18;" y="0">IL6</tspan></text></a><a ewd:figtype="w2w" style="cursor:pointer;" ewd:pinNo="4" ewd:code="IL2" ewd:figID="41"><path style="&st2;" d=" M   883.85,   350.23  L   866.86,   350.23  L   866.86,   358.73  L   883.85,   358.73  L   883.85,   350.23 " /><text style="&st8;" transform="matrix(&st16;  871.22  356.6 )"><tspan x="0" style="&st18;" y="0">IL2</tspan></text></a><a ewd:figtype="w2w" style="cursor:pointer;" ewd:pinNo="56" ewd:code="AI3" ewd:figID="42"><path style="&st2;" d=" M   926.35,   460.71  L   909.35,   460.71  L   909.35,   469.21  L   926.35,   469.21  L   926.35,   460.71 " /><text style="&st8;" transform="matrix(&st16;  913.48  467.08 )"><tspan x="0" style="&st18;" y="0">AI3</tspan></text></a><a ewd:figtype="gp" style="cursor:pointer;" ewd:code="LB" ewd:figID="43"><path style="&st2;" d=" M   244.33,   681.67  L   265.58,   681.67  L   254.96,   697.25  L   244.33,   681.67 " /><text style="&st8;" transform="matrix(&st16;  251.31  689.46 )"><tspan x="0" style="&st18;" y="0">LB</tspan></text></a><a ewd:figtype="gp" style="cursor:pointer;" ewd:code="LA" ewd:figID="44"><path style="&st2;" d=" M   286.83,   681.67  L   308.07,   681.67  L   297.45,   697.25  L   286.83,   681.67 " /><text style="&st8;" transform="matrix(&st16;  293.69  689.46 )"><tspan x="0" style="&st18;" y="0">LA</tspan></text></a><a ewd:figtype="gp" style="cursor:pointer;" ewd:code="IE" ewd:figID="45"><path style="&st2;" d=" M   592.78,   681.67  L   614.02,   681.67  L   603.40,   697.25  L   592.78,   681.67 " /><text style="&st8;" transform="matrix(&st16;  600.73  689.46 )"><tspan x="0" style="&st18;" y="0">IE</tspan></text></a><a ewd:figtype="gp" style="cursor:pointer;" ewd:code="IG" ewd:figID="46"><path style="&st2;" d=" M   669.26,   681.67  L   690.51,   681.67  L   679.89,   697.25  L   669.26,   681.67 " /><text style="&st8;" transform="matrix(&st16;  676.88  689.46 )"><tspan x="0" style="&st18;" y="0">IG</tspan></text></a><a ewd:figtype="gp" style="cursor:pointer;" ewd:code="CE" ewd:figID="47"><path style="&st2;" d=" M   745.75,   681.67  L   767.00,   681.67  L   756.37,   697.25  L   745.75,   681.67 " /><text style="&st8;" transform="matrix(&st16;  752.46  689.46 )"><tspan x="0" style="&st18;" y="0">CE</tspan></text></a><a ewd:figtype="gp" style="cursor:pointer;" ewd:code="CC" ewd:figID="48"><path style="&st2;" d=" M   796.74,   681.67  L   817.99,   681.67  L   807.37,   697.25  L   796.74,   681.67 " /><text style="&st8;" transform="matrix(&st16;  803.15  689.46 )"><tspan x="0" style="&st18;" y="0">CC</tspan></text></a><a ewd:figtype="gp" style="cursor:pointer;" ewd:code="CA" ewd:figID="49"><path style="&st2;" d=" M   864.73,   681.67  L   885.98,   681.67  L   875.35,   697.25  L   864.73,   681.67 " /><text style="&st8;" transform="matrix(&st16;  871.25  689.46 )"><tspan x="0" style="&st18;" y="0">CA</tspan></text></a><a ewd:figtype="sp" style="cursor:pointer;" ewd:code="SP71" ewd:figID="50"><path style="&st2;" d=" M    46.74,   171.76  L    55.24,   171.76  L    59.49,   176.01  L    59.49,   184.50  L    55.24,   188.75  L    46.74,   188.75  L    42.49,   184.50  L    42.49,   176.01  L    46.74,   171.76 " /></a><a ewd:figtype="sp" style="cursor:pointer;" ewd:code="SP45" ewd:figID="51"><path style="&st2;" d=" M   250.71,   137.76  L   259.21,   137.76  L   263.46,   142.01  L   263.46,   150.51  L   259.21,   154.76  L   250.71,   154.76  L   246.46,   150.51  L   246.46,   142.01  L   250.71,   137.76 " /></a><a ewd:figtype="sp" style="cursor:pointer;" ewd:code="SP82" ewd:figID="52"><path style="&st2;" d=" M   293.20,   562.69  L   301.70,   562.69  L   305.95,   566.94  L   305.95,   575.44  L   301.70,   579.69  L   293.20,   579.69  L   288.95,   575.44  L   288.95,   566.94  L   293.20,   562.69 " /></a><a ewd:figtype="sp" style="cursor:pointer;" ewd:code="SP47" ewd:figID="53"><path style="&st2;" d=" M   352.69,   290.74  L   361.19,   290.74  L   365.44,   294.99  L   365.44,   303.48  L   361.19,   307.73  L   352.69,   307.73  L   348.44,   303.48  L   348.44,   294.99  L   352.69,   290.74 " /></a><a ewd:figtype="sp" style="cursor:pointer;" ewd:code="SP75" ewd:figID="54"><path style="&st2;" d=" M   599.15,   545.69  L   607.65,   545.69  L   611.90,   549.94  L   611.90,   558.44  L   607.65,   562.69  L   599.15,   562.69  L   594.90,   558.44  L   594.90,   549.94  L   599.15,   545.69 " /></a><a ewd:figtype="sp" style="cursor:pointer;" ewd:code="SP64" ewd:figID="55"><path style="&st2;" d=" M   675.64,   562.69  L   684.14,   562.69  L   688.38,   566.94  L   688.38,   575.44  L   684.14,   579.69  L   675.64,   579.69  L   671.39,   575.44  L   671.39,   566.94  L   675.64,   562.69 " /></a><a ewd:figtype="sp" style="cursor:pointer;" ewd:code="SP19" ewd:figID="56"><path style="&st2;" d=" M   803.12,   605.18  L   811.61,   605.18  L   815.86,   609.43  L   815.86,   617.93  L   811.61,   622.18  L   803.12,   622.18  L   798.87,   617.93  L   798.87,   609.43  L   803.12,   605.18 " /></a><a ewd:figtype="sp" style="cursor:pointer;" ewd:code="SP19" ewd:figID="57"><path style="&st2;" d=" M   871.10,   605.18  L   879.60,   605.18  L   883.85,   609.43  L   883.85,   617.93  L   879.60,   622.18  L   871.10,   622.18  L   866.86,   617.93  L   866.86,   609.43  L   871.10,   605.18 " /></a><a ewd:figtype="sp" style="cursor:pointer;" ewd:code="SP60" ewd:figID="58"><path style="&st2;" d=" M   871.10,   392.72  L   879.60,   392.72  L   883.85,   396.97  L   883.85,   405.47  L   879.60,   409.72  L   871.10,   409.72  L   866.86,   405.47  L   866.86,   396.97  L   871.10,   392.72 " /></a></g></svg>