<?xml version="1.0" encoding="UTF-8"?>
<!DOCTYPE svg PUBLIC "-//W3C//DTD SVG 1.0//EN" "http://www.w3.org/TR/2001/REC-SVG-20010904/DTD/svg10.dtd"[
	<!ENTITY ns_flows "http://ns.adobe.com/Flows/1.0/">
	<!ENTITY ns_svg "http://www.w3.org/2000/svg">
	<!ENTITY ns_xlink "http://www.w3.org/1999/xlink">
	<!ENTITY st0 "font-size:7px;font-family:'MS-PGothic';adobe-font-script:japanese;">
	<!ENTITY st1 "font-size:6px;font-family:'ArialMT';">
	<!-- White fill  -->
	<!ENTITY st2 "fill:#FFFFFF;stroke:#000000; stroke-width:1.41;stroke-linecap:round;stroke-linejoin:round;">
	<!-- Yellow fill  -->
	<!ENTITY st3 "fill:#FFFFCC;stroke:#FFFFCC; stroke-width:0.1;stroke-linecap:round;stroke-linejoin:round;">
	<!-- Gray fill  -->
	<!ENTITY st4 "fill:#CCCCCC;stroke:#CCCCCC; stroke-width:0.1;stroke-linecap:round;stroke-linejoin:round;">
	<!-- Light-blue fill -->
	<!ENTITY st5 "fill:#CCECF4;stroke:#000000; stroke-width:1.133;stroke-linecap:round;stroke-linejoin:round;">
	<!ENTITY st6 "fill:none;stroke-linecap:butt; stroke-linejoin:round;">
	<!ENTITY st7 "fill:none;stroke:#000000;stroke-linecap:round;stroke-linejoin:round;">
	<!ENTITY st8 "enable-background:new    ;">
	<!-- Black fill -->
	<!ENTITY st9 "fill:#000000;stroke:#000000; stroke-linecap:round;stroke-linejoin:round;">
	<!-- SRS note   -->
	<!ENTITY st10 "font-size:9px;font-family:'ArialMT';">
	<!ENTITY st11 "font-size:9px;font-family:'Svg Symbol';">
	<!ENTITY st12 "font-size:6px;font-family:'Svg Symbol';">
	<!ENTITY st13 "fill:none;stroke:#ff0000;stroke-linecap:round;stroke-linejoin:round;">
	<!-- Yellow fill  -->
	<!ENTITY st14 "fill:#FFFF00;stroke:#FFFF00; stroke-width:0.1;stroke-linecap:round;stroke-linejoin:round;">
	<!ENTITY st15 "font-size:6px;font-family:'MS-PGothic';adobe-font-script:japanese;">
	<!ENTITY st16 "1.00 0.00 0.00 1.00">
	<!ENTITY st17 "0.00 -1.00 1.00 0.00">
	<!ENTITY st18 "font-size:6px;font-family:'Arial';">
	<!ENTITY st19 "font-size:9px;font-family:'Arial';">
	<!ENTITY st20 "font-size:6px;font-family:'MS-PGothic','MS PGothic';adobe-font-script:japanese;">
	<!ENTITY st21 "font-size:7px;font-family:'MS-PGothic','MS PGothic';adobe-font-script:japanese;">
	<!ATTLIST svg
		xmlns:ewd CDATA #FIXED "http://shcl.co.jp/ewd"
		xmlns:a CDATA #FIXED "http://ns.adobe.com/AdobeSVGViewerExtensions/3.0/"
		ewd:ver CDATA #IMPLIED
	>
	<!ATTLIST a
		ewd:lineID CDATA #IMPLIED
		ewd:groupID CDATA #IMPLIED
		ewd:figtype CDATA #IMPLIED
		ewd:code CDATA #IMPLIED
		ewd:figID CDATA #IMPLIED
		ewd:pinNo CDATA #IMPLIED
		ewd:comment CDATA #IMPLIED >
	<!ATTLIST g
		ewd:lineID CDATA #IMPLIED
		ewd:groupID CDATA #IMPLIED
		ewd:figtype CDATA #IMPLIED
		ewd:code CDATA #IMPLIED
		ewd:figID CDATA #IMPLIED
		ewd:pinNo CDATA #IMPLIED
		ewd:comment CDATA #IMPLIED >
	<!ATTLIST text
		ewd:textID CDATA #IMPLIED >
	<!ATTLIST title
		ewd:textID CDATA #IMPLIED >
]>
<!-- Generator: Shintec Hozumi YS   -->
<svg onload="call_execInitLoadProc_svg('system')" style="overflow:visible;  enable-background:new 0 0 374.392 710.000" viewBox="0 0 374.392 710.000" height="710.000" width="374.392" xml:space="preserve" ewd:ver="2.1.2.9" xmlns="&ns_svg;" xmlns:a="http://ns.adobe.com/AdobeSVGViewerExtensions/3.0/" xmlns:ewd="http://shcl.co.jp/ewd" xmlns:xlink="&ns_xlink;">
	<script type="text/javascript" xlink:href="../../../../../system/js/ewd/fig/svgfig.js"/>
<g id="ewd_top">
	<a ewd:figtype="conn" style="cursor:pointer;" ewd:code="A16" ewd:figID="1">
		<path style="fill:#CCECF4;stroke:#000000; stroke-width:1.133; stroke-linecap:round;stroke-linejoin:round; " d=" M   220.96,   307.73  L   220.96,   273.74  L   237.96,   273.74  L   237.96,   307.73  L   220.96,   307.73 "/>
		<title ewd:textID="1">Fuel Heater</title>
	</a>
	<a ewd:figtype="rb" style="cursor:pointer;" ewd:code="FUSE22" ewd:figID="2">
		<path style="fill:#CCECF4;stroke:#000000; stroke-width:0; stroke-linecap:round;stroke-linejoin:round; " d=" M   216.71,    35.78  L   216.71,    78.27  L   242.21,    78.27  L   242.21,    35.78  L   216.71,    35.78 "/>
	</a>
	<a ewd:figtype="conn" style="cursor:pointer;" ewd:code="A22" ewd:figID="3">
		<path style="fill:#CCECF4;stroke:#000000; stroke-width:1.133; stroke-linecap:round;stroke-linejoin:round; " d=" M   220.96,   409.72  L   220.96,   426.71  L   237.96,   426.71  L   237.96,   409.72  L   220.96,   409.72 "/>
		<title ewd:textID="2">No. 1 Junction Connector</title>
	</a>
	<a ewd:figtype="conn" style="cursor:pointer;" ewd:code="A23" ewd:figID="4">
		<path style="fill:#CCECF4;stroke:#000000; stroke-width:1.133; stroke-linecap:round;stroke-linejoin:round; " d=" M   314.45,   409.72  L   314.45,   426.71  L   331.44,   426.71  L   331.44,   409.72  L   314.45,   409.72 "/>
		<title ewd:textID="3">No. 2 Junction Connector</title>
	</a>
	<a ewd:figtype="fuse" style="cursor:pointer;" ewd:code="FUSE22" ewd:figID="8">
		<path style="&st7; stroke-width:0;" d=" M   216.71,    35.78  L   216.71,    78.27  L   242.21,    78.27  L   242.21,    35.78  L   216.71,    35.78 "/>
	</a>
	<a style="cursor:pointer;" ewd:lineID="1">
		<path style="stroke:#000000;stroke-width:5.10 ;&st6;" d=" M   229.46,   435.78  L   229.46,   681.67  "/>
		<path style="stroke:#FFFFFF;stroke-width:4.53 ;&st6;" d=" M   229.46,   435.78  L   229.46,   681.67  "/>
		<path style="stroke:#000000;stroke-width:1.13 ;&st6;" d=" M   229.46,   435.78  L   229.46,   681.67  "/>
	</a>
	<a style="cursor:pointer;" ewd:lineID="2">
		<path style="stroke:#000000;stroke-width:5.10 ;&st6;" d=" M   229.46,   307.73  L   229.46,   400.65  "/>
		<path style="stroke:#FFFFFF;stroke-width:4.53 ;&st6;" d=" M   229.46,   307.73  L   229.46,   400.65  "/>
		<path style="stroke:#000000;stroke-width:1.13 ;&st6;" d=" M   229.46,   307.73  L   229.46,   400.65  "/>
	</a>
	<a style="cursor:pointer;" ewd:lineID="3">
		<path style="stroke:#000000;stroke-width:5.10 ;&st6;" d=" M   229.46,   180.26  L   229.46,   273.74  "/>
	</a>
	<a style="cursor:pointer;" ewd:lineID="4">
		<path style="stroke:#000000;stroke-width:5.10 ;&st6;" d=" M   229.46,   103.77  L   229.46,   165.52  "/>
	</a>
	<a style="cursor:pointer;" ewd:lineID="5">
		<path style="stroke:#000000;stroke-width:5.10 ;&st6;" d=" M   322.95,   435.78  L   322.95,   664.67  L   237.96,   664.67  L   229.46,   673.17  L   229.46,   681.67  "/>
		<path style="stroke:#FFFFFF;stroke-width:4.53 ;&st6;" d=" M   322.95,   435.78  L   322.95,   664.67  L   237.96,   664.67  L   229.46,   673.17  L   229.46,   681.67  "/>
		<path style="stroke:#000000;stroke-width:1.13 ;&st6;" d=" M   322.95,   435.78  L   322.95,   664.67  L   237.96,   664.67  L   229.46,   673.17  L   229.46,   681.67  "/>
	</a>
	<a style="cursor:pointer;" ewd:lineID="6">
		<path style="stroke:#000000;stroke-width:5.10 ;&st6;" d=" M   322.95,   400.65  L   322.95,   333.23  L   246.46,   333.23  L   229.46,   316.23  L   229.46,   307.73  "/>
		<path style="stroke:#FFFFFF;stroke-width:4.53 ;&st6;" d=" M   322.95,   400.65  L   322.95,   333.23  L   246.46,   333.23  L   229.46,   316.23  L   229.46,   307.73  "/>
		<path style="stroke:#000000;stroke-width:1.13 ;&st6;" d=" M   322.95,   400.65  L   322.95,   333.23  L   246.46,   333.23  L   229.46,   316.23  L   229.46,   307.73  "/>
	</a>
	<g ewd:figtype="conn" ewd:figID="1" ewd:code="A16">
		<path style="stroke-width:0.85 ;&st7;  " d=" M   229.46,   277.99  L   229.46,   273.74  "/>
		<path style="stroke-width:0.85 ;&st7;  " d=" M   229.46,   289.32  L   227.34,   287.90  "/>
		<path style="stroke-width:0.85 ;&st7;  " d=" M   227.34,   287.90  L   231.59,   286.49  "/>
		<path style="stroke-width:0.85 ;&st7;  " d=" M   231.59,   286.49  L   227.34,   284.36  "/>
		<path style="stroke-width:0.85 ;&st7;  " d=" M   227.34,   284.36  L   231.59,   282.95  "/>
		<path style="stroke-width:0.85 ;&st7;  " d=" M   231.59,   282.95  L   227.34,   280.82  "/>
		<path style="stroke-width:0.85 ;&st7;  " d=" M   227.34,   280.82  L   231.59,   279.41  "/>
		<path style="stroke-width:0.85 ;&st7;  " d=" M   231.59,   279.41  L   229.46,   277.99  "/>
		<path style="stroke-width:0.85 ;&st7;  " d=" M   229.46,   292.15  L   229.46,   289.32  "/>
		<path style="stroke-width:0.85 ;&st7;  " d=" M   229.46,   307.73  L   229.46,   303.48  "/>
		<path style="stroke-width:1.42 ;&st7;  " d=" M   220.96,   307.73  L   220.96,   273.74  "/>
		<path style="stroke-width:1.42 ;&st7;  " d=" M   233.71,   292.15  L   229.46,   300.65  "/>
		<path style="stroke-width:1.42 ;&st7;  " d=" M   237.96,   307.73  L   220.96,   307.73  "/>
		<path style="stroke-width:1.42 ;&st7;  " d=" M   237.96,   273.74  L   237.96,   307.73  "/>
		<path style="stroke-width:1.42 ;&st7;  " d=" M   220.96,   273.74  L   237.96,   273.74  "/>
		<path style="stroke-width:0.85 ;&st7;   " d=" M   230.88,   302.07  C   230.88    301.29    230.24    300.65    229.46    300.65  "/>
		<path style="stroke-width:0.85 ;&st7;   " d=" M   229.46,   300.65  C   228.68    300.65    228.05    301.29    228.05    302.07  "/>
		<path style="stroke-width:0.85 ;&st7;   " d=" M   228.05,   302.07  C   228.05    302.85    228.68    303.48    229.46    303.48  "/>
		<path style="stroke-width:0.85 ;&st7;   " d=" M   229.46,   303.48  C   230.24    303.48    230.88    302.85    230.88    302.07  "/>
		<path style="stroke-width:0.85 ;&st7;   " d=" M   230.88,   293.57  C   230.88    292.79    230.24    292.15    229.46    292.15  "/>
		<path style="stroke-width:0.85 ;&st7;   " d=" M   229.46,   292.15  C   228.68    292.15    228.05    292.79    228.05    293.57  "/>
		<path style="stroke-width:0.85 ;&st7;   " d=" M   228.05,   293.57  C   228.05    294.35    228.68    294.99    229.46    294.99  "/>
		<path style="stroke-width:0.85 ;&st7;   " d=" M   229.46,   294.99  C   230.24    294.99    230.88    294.35    230.88    293.57  "/>
		<text style="&st18;" transform="matrix(&st16;  223.28  315.93 )">1</text>
		<text style="&st18;" transform="matrix(&st16;  223.28  270.05 )">2</text>
		<g ewd:figtype="title">
			<text style="&st18;" transform="matrix(&st16;  240.21  285.88 )">A16</text>
			<text style="&st18;" transform="matrix(&st16;  240.22  292.71 )" ewd:textID="1">Fuel Heater</text>
		</g>
	</g>
	<g ewd:figtype="rb" ewd:figID="2" ewd:code="FUSE22">
		<path style="stroke-width:1.42 ;&st7;  " d=" M   231.59,    95.27  L   227.34,    95.27  "/>
		<path style="stroke-width:1.42 ;&st7;  " d=" M   231.59,   103.77  L   227.34,   103.77  "/>
		<path style="stroke-width:0.85 ;&st7;  " d=" M   229.46,    78.27  L   229.46,    95.27  "/>
		<path style="stroke-width:1.42 ;&st7;   " d=" M   227.34,    95.27  C   224.99     95.27    223.09     97.17    223.09     99.52  "/>
		<path style="stroke-width:1.42 ;&st7;   " d=" M   223.09,    99.52  C   223.09    101.87    224.99    103.77    227.34    103.77  "/>
		<path style="stroke-width:1.42 ;&st7;   " d=" M   231.59,   103.77  C   233.93    103.77    235.84    101.87    235.84     99.52  "/>
		<path style="stroke-width:1.42 ;&st7;   " d=" M   235.84,    99.52  C   235.84     97.17    233.93     95.27    231.59     95.27  "/>
		<path style="stroke-width:0.28 ;&st9;  " d=" M   229.46,    90.37  L   226.63,    87.54  L   226.63,    91.79  L   229.46,    94.62  L   232.29,    91.79  L   232.29,    87.54  L   229.46,    90.37  "/>
		<text style="&st18;" transform="matrix(&st16;  245.89  53.34 )">15A <tspan x="0 " dy="6.0">FUEL </tspan><tspan x="0 " dy="6.0">HTR</tspan></text>
		<text style="&st18;" transform="matrix(&st16;  227.66  101.49 )">2</text>
		<text style="&st18;" transform="matrix(&st16;  223.28  86.47 )">2</text>
		<text style="&st18;" transform="matrix(&st16;  224.25  32.08 )">(IG)</text>
		<path style="stroke-width:1.42 ;&st7;   " d=" M   229.46,    47.11  C   226.72     48.72    225.81     52.25    227.42     54.99  "/>
		<path style="stroke-width:1.42 ;&st7;   " d=" M   227.42,    54.99  C   227.94     55.87    228.58     56.51    229.46     57.03  "/>
		<path style="stroke-width:1.42 ;&st7;   " d=" M   229.46,    66.94  C   232.20     65.33    233.11     61.80    231.50     59.06  "/>
		<path style="stroke-width:1.42 ;&st7;   " d=" M   231.50,    59.06  C   230.98     58.18    230.34     57.55    229.46     57.03  "/>
		<path style="stroke-width:0.85 ;&st7;   " d=" M   230.88,    45.69  C   230.88     44.91    230.24     44.28    229.46     44.28  "/>
		<path style="stroke-width:0.85 ;&st7;   " d=" M   229.46,    44.28  C   228.68     44.28    228.05     44.91    228.05     45.69  "/>
		<path style="stroke-width:0.85 ;&st7;   " d=" M   228.05,    45.69  C   228.05     46.48    228.68     47.11    229.46     47.11  "/>
		<path style="stroke-width:0.85 ;&st7;   " d=" M   229.46,    47.11  C   230.24     47.11    230.88     46.48    230.88     45.69  "/>
		<path style="stroke-width:0.85 ;&st7;   " d=" M   230.88,    68.36  C   230.88     67.57    230.24     66.94    229.46     66.94  "/>
		<path style="stroke-width:0.85 ;&st7;   " d=" M   229.46,    66.94  C   228.68     66.94    228.05     67.57    228.05     68.36  "/>
		<path style="stroke-width:0.85 ;&st7;   " d=" M   228.05,    68.36  C   228.05     69.14    228.68     69.77    229.46     69.77  "/>
		<path style="stroke-width:0.85 ;&st7;   " d=" M   229.46,    69.77  C   230.24     69.77    230.88     69.14    230.88     68.36  "/>
		<path style="stroke-width:0.85 ;&st7;  " d=" M   229.46,    69.77  L   229.46,    78.27  "/>
		<path style="stroke-width:1.42 ;&st7;  " d=" M   216.71,    35.78  L   216.71,    78.27  L   242.21,    78.27  L   242.21,    35.78  L   216.71,    35.78  "/>
	</g>
	<g ewd:figtype="conn" ewd:figID="3" ewd:code="A22">
		<path style="stroke-width:0.85 ;&st7;  " d=" M   229.46,   426.71  L   229.46,   409.72  "/>
		<path style="stroke-width:1.42 ;&st7;  " d=" M   220.96,   409.72  L   220.96,   426.71  L   237.96,   426.71  L   237.96,   409.72  L   220.96,   409.72  "/>
		<text style="&st18;" transform="matrix(&st16;  220.77  433.22 )">3</text>
		<text style="&st18;" transform="matrix(&st16;  227.16  433.22 )">A</text>
		<path style="stroke-width:1.42 ;&st7;   " d=" M   233.99,   431.25  C   233.99    428.74    231.96    426.71    229.46    426.71  "/>
		<path style="stroke-width:1.42 ;&st7;   " d=" M   229.46,   426.71  C   226.96    426.71    224.93    428.74    224.93    431.25  "/>
		<path style="stroke-width:1.42 ;&st7;   " d=" M   224.93,   431.25  C   224.93    433.75    226.96    435.78    229.46    435.78  "/>
		<path style="stroke-width:1.42 ;&st7;   " d=" M   229.46,   435.78  C   231.96    435.78    233.99    433.75    233.99    431.25  "/>
		<text style="&st18;" transform="matrix(&st16;  220.77  407.15 )">6</text>
		<text style="&st18;" transform="matrix(&st16;  227.16  407.15 )">A</text>
		<path style="stroke-width:1.42 ;&st7;   " d=" M   233.99,   405.18  C   233.99    402.68    231.96    400.65    229.46    400.65  "/>
		<path style="stroke-width:1.42 ;&st7;   " d=" M   229.46,   400.65  C   226.96    400.65    224.93    402.68    224.93    405.18  "/>
		<path style="stroke-width:1.42 ;&st7;   " d=" M   224.93,   405.18  C   224.93    407.69    226.96    409.72    229.46    409.72  "/>
		<path style="stroke-width:1.42 ;&st7;   " d=" M   229.46,   409.72  C   231.96    409.72    233.99    407.69    233.99    405.18  "/>
		<g ewd:figtype="title">
			<text style="&st18;" transform="matrix(&st16;  240.21  413.36 )">A22(A)</text>
			<text style="&st18;" transform="matrix(&st16;  240.22  420.18 )" ewd:textID="2">No. 1 <tspan x="0 " dy="6.0">Junction </tspan><tspan x="0 " dy="6.0">Connector</tspan></text>
		</g>
	</g>
	<g ewd:figtype="conn" ewd:figID="4" ewd:code="A23">
		<path style="stroke-width:0.85 ;&st7;  " d=" M   322.95,   426.71  L   322.95,   409.72  "/>
		<path style="stroke-width:1.42 ;&st7;  " d=" M   314.45,   409.72  L   314.45,   426.71  L   331.44,   426.71  L   331.44,   409.72  L   314.45,   409.72  "/>
		<text style="&st18;" transform="matrix(&st16;  314.25  433.22 )">1</text>
		<path style="stroke-width:1.42 ;&st7;   " d=" M   327.48,   431.25  C   327.48    428.74    325.45    426.71    322.95    426.71  "/>
		<path style="stroke-width:1.42 ;&st7;   " d=" M   322.95,   426.71  C   320.44    426.71    318.41    428.74    318.41    431.25  "/>
		<path style="stroke-width:1.42 ;&st7;   " d=" M   318.41,   431.25  C   318.41    433.75    320.44    435.78    322.95    435.78  "/>
		<path style="stroke-width:1.42 ;&st7;   " d=" M   322.95,   435.78  C   325.45    435.78    327.48    433.75    327.48    431.25  "/>
		<text style="&st18;" transform="matrix(&st16;  320.64  433.22 )">A</text>
		<text style="&st18;" transform="matrix(&st16;  314.25  407.15 )">4</text>
		<path style="stroke-width:1.42 ;&st7;   " d=" M   327.48,   405.18  C   327.48    402.68    325.45    400.65    322.95    400.65  "/>
		<path style="stroke-width:1.42 ;&st7;   " d=" M   322.95,   400.65  C   320.44    400.65    318.41    402.68    318.41    405.18  "/>
		<path style="stroke-width:1.42 ;&st7;   " d=" M   318.41,   405.18  C   318.41    407.69    320.44    409.72    322.95    409.72  "/>
		<path style="stroke-width:1.42 ;&st7;   " d=" M   322.95,   409.72  C   325.45    409.72    327.48    407.69    327.48    405.18  "/>
		<text style="&st18;" transform="matrix(&st16;  320.64  407.15 )">A</text>
		<g ewd:figtype="title">
			<text style="&st18;" transform="matrix(&st16;  333.7  413.36 )">A23(A)</text>
			<text style="&st18;" transform="matrix(&st16;  333.7  420.18 )" ewd:textID="3">No. 2 <tspan x="0 " dy="6.0">Junction </tspan><tspan x="0 " dy="6.0">Connector</tspan></text>
		</g>
	</g>
	<g ewd:figtype="w2w" ewd:figID="6" ewd:code="AI3">
		<path style="stroke-width:1.42 ;&st7;  " d=" M   233.71,   166.09  L   229.46,   170.34  L   225.21,   166.09  "/>
		<path style="stroke-width:1.42 ;&st7;  " d=" M   225.21,   162.69  L   229.46,   166.94  L   233.71,   162.69  "/>
		<text style="&st18;" transform="matrix(&st16;  213.73  177.98 )">39</text>
	</g>
	<g ewd:figtype="gp" ewd:figID="7" ewd:code="AA">
		<path style="stroke-width:0.85 ;&st7;  " d=" M   220.96,   701.50  L   237.96,   701.50  "/>
		<path style="stroke-width:0.85 ;&st7;  " d=" M   225.21,   704.33  L   233.71,   704.33  "/>
		<path style="stroke-width:0.85 ;&st7;  " d=" M   226.63,   707.17  L   232.29,   707.17  "/>
		<path style="stroke-width:0.85 ;&st7;  " d=" M   228.05,   710.00  L   230.88,   710.00  "/>
		<path style="stroke-width:0.85 ;&st7;  " d=" M   229.46,   697.25  L   229.46,   701.50  "/>
	</g>
	<path style="stroke-width:1.42 ;&st7;  " d=" M   220.96,   171.76  L   229.46,   171.76  "/>
	<text style="&st18;" transform="matrix(&st17;  225.77  373.18 )">W-B</text>
	<text style="&st18;" transform="matrix(&st17;  237.1  375.08 )">(RHD)</text>
	<text style="&st18;" transform="matrix(&st17;  319.25  373.18 )">W-B</text>
	<text style="&st18;" transform="matrix(&st17;  330.58  375.04 )">(LHD)</text>
	<text style="&st18;" transform="matrix(&st17;  225.77  543.15 )">W-B</text>
	<text style="&st18;" transform="matrix(&st17;  237.1  545.05 )">(RHD)</text>
	<text style="&st18;" transform="matrix(&st17;  319.25  543.15 )">W-B</text>
	<text style="&st18;" transform="matrix(&st17;  225.77  224.44 )">B</text>
	<text style="&st18;" transform="matrix(&st17;  330.58  545.01 )">(LHD)</text>
	<text style="&st18;" transform="matrix(&st17;  225.77  139.45 )">B</text>
	<a ewd:figtype="w2w" style="cursor:pointer;" ewd:pinNo="39" ewd:code="AI3" ewd:figID="6">
		<path style="&st2;" d=" M   237.96,   171.76  L   220.96,   171.76  L   220.96,   180.26  L   237.96,   180.26  L   237.96,   171.76 "/>
		<text style="&st8;" transform="matrix(&st16;  225.1  178.13 )"><tspan x="0" style="&st18;" y="0">AI3</tspan></text>
	</a>
	<a ewd:figtype="gp" style="cursor:pointer;" ewd:code="AA" ewd:figID="7">
		<path style="&st2;" d=" M   218.84,   681.67  L   240.08,   681.67  L   229.46,   697.25  L   218.84,   681.67 "/>
		<text style="&st8;" transform="matrix(&st16;  225.47  689.46 )"><tspan x="0" style="&st18;" y="0">AA</tspan></text>
	</a>
</g>
</svg>