<?xml version="1.0" encoding="utf-8"?>
<!DOCTYPE svg PUBLIC "-//W3C//DTD SVG 1.0//EN" "http://www.w3.org/TR/2001/REC-SVG-20010904/DTD/svg10.dtd"[
	<!ENTITY ns_flows "http://ns.adobe.com/Flows/1.0/">
	<!ENTITY ns_svg "http://www.w3.org/2000/svg">
	<!ENTITY ns_xlink "http://www.w3.org/1999/xlink">
	<!ENTITY st0 "font-size:7px;font-family:'MS-PGothic';adobe-font-script:japanese;">
	<!ENTITY st1 "font-size:6px;font-family:'ArialMT';">
	<!-- White fill  -->
	<!ENTITY st2 "fill:#FFFFFF;stroke:#000000; stroke-width:1.41;stroke-linecap:round;stroke-linejoin:round;">
	<!-- Yellow fill  -->
	<!ENTITY st3 "fill:#FFFFCC;stroke:#FFFFCC; stroke-width:0.1;stroke-linecap:round;stroke-linejoin:round;">
	<!-- Gray fill  -->
	<!ENTITY st4 "fill:#CCCCCC;stroke:#CCCCCC; stroke-width:0.1;stroke-linecap:round;stroke-linejoin:round;">
	<!-- Light-blue fill -->
	<!ENTITY st5 "fill:#CCECF4;stroke:#000000; stroke-width:1.133;stroke-linecap:round;stroke-linejoin:round;">
	<!ENTITY st6 "fill:none;stroke-linecap:butt; stroke-linejoin:round;">
	<!ENTITY st7 "fill:none;stroke:#000000;stroke-linecap:round;stroke-linejoin:round;">
	<!ENTITY st8 "enable-background:new    ;">
	<!-- Black fill -->
	<!ENTITY st9 "fill:#000000;stroke:#000000; stroke-linecap:round;stroke-linejoin:round;">
	<!-- SRS note   -->
	<!ENTITY st10 "font-size:9px;font-family:'ArialMT';">
	<!ENTITY st11 "font-size:9px;font-family:'Svg Symbol';">
	<!ENTITY st12 "font-size:6px;font-family:'Svg Symbol';">
	<!ENTITY st13 "fill:none;stroke:#ff0000;stroke-linecap:round;stroke-linejoin:round;">
	<!-- Yellow fill  -->
	<!ENTITY st14 "fill:#FFFF00;stroke:#FFFF00; stroke-width:0.1;stroke-linecap:round;stroke-linejoin:round;">
	<!ENTITY st15 "font-size:6px;font-family:'MS-PGothic';adobe-font-script:japanese;">
	<!ENTITY st16 "1.00 0.00 0.00 1.00">
	<!ENTITY st17 "0.00 -1.00 1.00 0.00">
	<!ENTITY st18 "font-size:6px;font-family:'Arial';">
	<!ENTITY st19 "font-size:9px;font-family:'Arial';">
	<!ENTITY st20 "font-size:6px;font-family:'MS-PGothic','MS PGothic';adobe-font-script:japanese;">
	<!ENTITY st21 "font-size:7px;font-family:'MS-PGothic','MS PGothic';adobe-font-script:japanese;">
	<!ATTLIST svg
		xmlns:ewd CDATA #FIXED "http://shcl.co.jp/ewd"
		xmlns:a CDATA #FIXED "http://ns.adobe.com/AdobeSVGViewerExtensions/3.0/"
		ewd:ver CDATA #IMPLIED
	>
	<!ATTLIST a
		ewd:lineID CDATA #IMPLIED
		ewd:groupID CDATA #IMPLIED
		ewd:figtype CDATA #IMPLIED
		ewd:code CDATA #IMPLIED
		ewd:figID CDATA #IMPLIED
		ewd:pinNo CDATA #IMPLIED
		ewd:comment CDATA #IMPLIED >
	<!ATTLIST g
		ewd:lineID CDATA #IMPLIED
		ewd:groupID CDATA #IMPLIED
		ewd:figtype CDATA #IMPLIED
		ewd:code CDATA #IMPLIED
		ewd:figID CDATA #IMPLIED
		ewd:pinNo CDATA #IMPLIED
		ewd:comment CDATA #IMPLIED >
	<!ATTLIST text
		ewd:textID CDATA #IMPLIED >
	<!ATTLIST title
		ewd:textID CDATA #IMPLIED >
]>
<!-- Generator: Shintec Hozumi YS   -->
<svg onload="call_execInitLoadProc_svg('system')" style="overflow:visible;  enable-background:new 0 0 1472.125 710.000" viewBox="0 0 1472.125 710.000" height="710.000" width="1472.125" xml:space="preserve" ewd:ver="2.1.2.9" xmlns="&ns_svg;" xmlns:a="http://ns.adobe.com/AdobeSVGViewerExtensions/3.0/" xmlns:ewd="http://shcl.co.jp/ewd" xmlns:xlink="&ns_xlink;">
<path style="stroke-width:1.42 ;&st7;  " d=" M  1223.80,   146.26  L  1215.30,   146.26  " /><path style="stroke-width:1.42 ;&st7;  " d=" M  1436.26,   163.26  L  1427.76,   163.26  " /><path style="stroke-width:1.42 ;&st7;  " d=" M  1232.29,   392.72  L  1240.79,   392.72  " /><path style="stroke-width:1.42 ;&st7;  " d=" M  1317.28,   460.71  L  1325.78,   460.71  " /><path style="stroke-width:1.42 ;&st7;  " d=" M  1334.28,   545.69  L  1325.78,   545.69  " /><path style="stroke-width:1.42 ;&st7;  " d=" M  1368.27,   537.20  L  1376.77,   537.20  " /><path style="stroke-width:1.42 ;&st7;  " d=" M  1334.28,   610.16  L  1329.31,   605.18  " /><path style="stroke-width:1.42 ;&st7;  " d=" M  1317.28,   617.21  L  1322.25,   622.18  " /><path style="stroke-width:1.42 ;&st7;  " d=" M  1329.31,   622.18  L  1334.28,   617.21  " /><path style="stroke-width:1.42 ;&st7;  " d=" M  1322.25,   605.18  L  1317.28,   610.16  " /><path style="stroke-width:1.42 ;&st7;  " d=" M  1334.28,   414.69  L  1329.31,   409.72  " /><path style="stroke-width:1.42 ;&st7;  " d=" M  1317.28,   421.75  L  1322.25,   426.71  " /><path style="stroke-width:1.42 ;&st7;  " d=" M  1329.31,   426.71  L  1334.28,   421.75  " /><path style="stroke-width:1.42 ;&st7;  " d=" M  1322.25,   409.72  L  1317.28,   414.69  " /><path style="stroke-width:1.42 ;&st7;  " d=" M  1436.26,   125.74  L  1431.29,   120.77  " /><path style="stroke-width:1.42 ;&st7;  " d=" M  1419.26,   132.79  L  1424.23,   137.76  " /><path style="stroke-width:1.42 ;&st7;  " d=" M  1431.29,   137.76  L  1436.26,   132.79  " /><path style="stroke-width:1.42 ;&st7;  " d=" M  1424.23,   120.77  L  1419.26,   125.74  " /><text style="&st18;" transform="matrix(&st16;  1056.72  575.99 )">B-R</text><text style="&st18;" transform="matrix(&st16;  1005.73  575.99 )">B-R</text><text style="&st18;" transform="matrix(&st17;  1211.6  176.94 )">B-Y</text><text style="&st18;" transform="matrix(&st17;  1424.07  181.87 )">R</text><text style="&st18;" transform="matrix(&st17;  1211.6  125.94 )">B-Y</text><text style="&st18;" transform="matrix(&st17;  1424.07  113.88 )">R</text><text style="&st18;" transform="matrix(&st17;  1347.58  125.94 )">B-Y</text><text style="&st18;" transform="matrix(&st17;  1237.1  379.27 )">BR</text><text style="&st18;" transform="matrix(&st17;  1126.62  380.82 )">B-R</text><text style="&st18;" transform="matrix(&st17;  1384.41  588.65 )">(*1)</text><text style="&st18;" transform="matrix(&st17;  1373.07  587.49 )">BR</text><text style="&st18;" transform="matrix(&st17;  1384.41  524.91 )">(*1)</text><text style="&st18;" transform="matrix(&st17;  1373.07  523.75 )">BR</text><text style="&st18;" transform="matrix(&st17;  1322.08  523.75 )">BR</text><text style="&st18;" transform="matrix(&st17;  1333.41  524.91 )">(*2)</text><text style="&st18;" transform="matrix(&st17;  1322.08  587.49 )">BR</text><text style="&st18;" transform="matrix(&st17;  1333.41  588.65 )">(*2)</text><text style="&st18;" transform="matrix(&st17;  1322.08  659.73 )">BR</text><text style="&st18;" transform="matrix(&st16;  1262.24  414.52 )">BR</text><text style="&st18;" transform="matrix(&st17;  1333.41  660.89 )">(*2)</text><text style="&st18;" transform="matrix(&st17;  1322.08  443.01 )">BR</text><text style="&st18;" transform="matrix(&st17;  1424.07  147.87 )">R</text><g ewd:figtype="conn" ewd:figID="11" ewd:code="L25,L26"><text style="&st18;" transform="matrix(&st16;  1241.64  281.38 )" ewd:textID="6">Meter Micro <tspan x="0 " dy="6.0">Computer</tspan></text><text style="&st18;" transform="matrix(&st16;  1132.89  346.54 )">IND</text><path style="stroke-width:0.85 ;&st7;  " d=" M  1134.56,   333.23  L  1126.06,   333.23  " /><path style="stroke-width:0.85 ;&st7;  " d=" M  1143.04,   264.08  L  1135.68,   268.33  " /><path style="stroke-width:0.85 ;&st7;  " d=" M  1240.79,   235.50  L  1240.79,   243.99  " /><path style="stroke-width:0.85 ;&st7;  " d=" M  1134.56,   273.74  L  1126.06,   273.74  " /><path style="stroke-width:0.85 ;&st7;  " d=" M  1137.69,   271.79  L  1145.05,   267.54  " /><path style="stroke-width:0.85 ;&st7;  " d=" M  1219.55,   222.75  L  1211.05,   222.75  " /><path style="stroke-width:0.85 ;&st7;  " d=" M  1432.01,   222.75  L  1423.51,   222.75  " /><path style="stroke-width:1.42 ;&st7;  " d=" M  1160.06,   280.11  L  1151.56,   280.11  " /><path style="stroke-width:1.42 ;&st7;  " d=" M  1160.06,   275.86  L  1151.56,   275.86  " /><text style="&st18;" transform="matrix(&st16;  1217.88  205.45 )">B</text><path style="stroke-width:0.28 ;&st9;  " d=" M  1130.31,   273.74  L  1124.64,   265.24  L  1135.98,   265.24  L  1130.31,   273.74  " /><path style="stroke-width:0.28 ;&st9;  " d=" M  1130.31,   333.23  L  1124.64,   324.73  L  1135.98,   324.73  L  1130.31,   333.23  " /><path style="stroke-width:0.85 ;&st7;  " d=" M  1130.31,   350.23  L  1130.31,   316.23  L  1127.48,   314.82  L  1133.14,   311.98  L  1127.48,   309.15  L  1133.14,   306.32  L  1127.48,   303.48  L  1133.14,   300.65  L  1130.31,   299.24  L  1130.31,   239.75  L  1257.79,   239.75  " /><path style="stroke-width:0.85 ;&st7;  " d=" M  1143.04,   264.08  L  1140.71,   267.12  L  1139.24,   264.58  L  1143.04,   264.08  L  1141.76,   264.82  L  1140.78,   266.10  L  1140.16,   265.03  L  1141.76,   264.82  L  1141.12,   265.19  L  1140.81,   265.59  L  1140.61,   265.25  L  1141.12,   265.19  " /><path style="stroke-width:0.28 ;&st9;  " d=" M  1427.76,   222.75  L  1422.10,   214.25  L  1433.43,   214.25  L  1427.76,   222.75  " /><path style="stroke-width:0.85 ;&st7;  " d=" M  1256.60,   238.74  L  1256.32,   239.21  L  1256.23,   239.75  L  1256.32,   240.28  L  1256.60,   240.75  L  1257.01,   241.09  L  1257.52,   241.28  L  1258.06,   241.28  L  1258.57,   241.09  L  1258.98,   240.75  L  1259.25,   240.28  L  1259.35,   239.75  L  1259.25,   239.21  L  1258.98,   238.74  L  1258.57,   238.40  L  1258.06,   238.21  L  1257.52,   238.21  L  1257.01,   238.40  L  1256.60,   238.74  L  1256.99,   239.45  L  1256.99,   240.04  L  1257.36,   240.48  L  1257.94,   240.58  L  1258.44,   240.29  L  1258.64,   239.75  L  1258.44,   239.20  L  1257.94,   238.91  L  1257.36,   239.01  L  1257.79,   239.75  " /><path style="stroke-width:0.85 ;&st7;  " d=" M  1257.79,   273.74  L  1257.79,   239.75  L  1427.76,   239.75  L  1427.76,   197.25  " /><path style="stroke-width:0.28 ;&st9;  " d=" M  1240.79,   239.75  L  1232.29,   245.41  L  1232.29,   234.08  L  1240.79,   239.75  " /><path style="stroke-width:1.42 ;&st7;  " d=" M  1215.30,   273.74  L  1215.30,   290.74  L  1300.28,   290.74  L  1300.28,   273.74  L  1215.30,   273.74  " /><path style="stroke-width:1.42 ;&st7;  " d=" M  1096.32,   197.25  L  1096.32,   350.23  L  1444.76,   350.23  L  1444.76,   197.25  L  1096.32,   197.25  " /><path style="stroke-width:0.85 ;&st7;  " d=" M  1145.05,   267.54  L  1142.71,   270.59  L  1141.25,   268.05  L  1145.05,   267.54  L  1143.76,   268.29  L  1142.78,   269.57  L  1142.16,   268.50  L  1143.76,   268.29  L  1143.12,   268.65  L  1142.81,   269.06  L  1142.62,   268.72  L  1143.12,   268.65  " /><path style="stroke-width:0.28 ;&st9;  " d=" M  1215.30,   222.75  L  1209.63,   214.25  L  1220.96,   214.25  L  1215.30,   222.75  " /><path style="stroke-width:0.85 ;&st7;  " d=" M  1215.30,   197.25  L  1215.30,   239.75  " /><path style="stroke-width:0.85 ;&st7;  " d=" M  1214.10,   238.74  L  1213.83,   239.21  L  1213.74,   239.75  L  1213.83,   240.28  L  1214.10,   240.75  L  1214.52,   241.09  L  1215.02,   241.28  L  1215.57,   241.28  L  1216.08,   241.09  L  1216.49,   240.75  L  1216.76,   240.28  L  1216.85,   239.75  L  1216.76,   239.21  L  1216.49,   238.74  L  1216.08,   238.40  L  1215.57,   238.21  L  1215.02,   238.21  L  1214.52,   238.40  L  1214.10,   238.74  L  1214.50,   239.45  L  1214.50,   240.04  L  1214.87,   240.48  L  1215.44,   240.58  L  1215.95,   240.29  L  1216.15,   239.75  L  1215.95,   239.20  L  1215.44,   238.91  L  1214.87,   239.01  L  1215.30,   239.75  " /><path style="stroke-width:0.85 ;&st7;  " d=" M  1172.80,   290.74  L  1172.80,   282.24  L  1169.97,   280.82  L  1175.64,   277.99  L  1169.97,   275.16  L  1175.64,   272.32  L  1169.97,   269.49  L  1175.64,   266.66  L  1172.80,   265.24  L  1172.80,   256.74  " /><path style="stroke-width:0.85 ;&st7;  " d=" M  1130.31,   256.74  L  1172.80,   256.74  " /><path style="stroke-width:0.85 ;&st7;  " d=" M  1130.31,   290.74  L  1172.80,   290.74  " /><path style="stroke-width:0.85 ;&st7;  " d=" M  1154.61,   255.74  L  1154.34,   256.21  L  1154.25,   256.74  L  1154.34,   257.28  L  1154.61,   257.75  L  1155.03,   258.09  L  1155.53,   258.28  L  1156.08,   258.28  L  1156.59,   258.09  L  1157.00,   257.75  L  1157.27,   257.28  L  1157.36,   256.74  L  1157.27,   256.21  L  1157.00,   255.74  L  1156.59,   255.39  L  1156.08,   255.21  L  1155.53,   255.21  L  1155.03,   255.39  L  1154.61,   255.74  L  1155.01,   256.45  L  1155.01,   257.03  L  1155.38,   257.48  L  1155.95,   257.58  L  1156.46,   257.29  L  1156.66,   256.74  L  1156.46,   256.20  L  1155.95,   255.91  L  1155.38,   256.01  L  1155.81,   256.74  " /><path style="stroke-width:0.85 ;&st7;  " d=" M  1155.81,   275.86  L  1155.81,   256.74  " /><path style="stroke-width:0.85 ;&st7;  " d=" M  1155.81,   290.74  L  1155.81,   280.11  " /><path style="stroke-width:0.85 ;&st7;  " d=" M  1129.12,   255.74  L  1128.85,   256.21  L  1128.75,   256.74  L  1128.85,   257.28  L  1129.12,   257.75  L  1129.53,   258.09  L  1130.04,   258.28  L  1130.58,   258.28  L  1131.09,   258.09  L  1131.50,   257.75  L  1131.78,   257.28  L  1131.87,   256.74  L  1131.78,   256.21  L  1131.50,   255.74  L  1131.09,   255.39  L  1130.58,   255.21  L  1130.04,   255.21  L  1129.53,   255.39  L  1129.12,   255.74  L  1129.51,   256.45  L  1129.51,   257.03  L  1129.89,   257.48  L  1130.46,   257.58  L  1130.96,   257.29  L  1131.16,   256.74  L  1130.96,   256.20  L  1130.46,   255.91  L  1129.89,   256.01  L  1130.31,   256.74  " /><path style="stroke-width:0.85 ;&st7;  " d=" M  1129.12,   289.73  L  1128.85,   290.20  L  1128.75,   290.74  L  1128.85,   291.27  L  1129.12,   291.74  L  1129.53,   292.09  L  1130.04,   292.27  L  1130.58,   292.27  L  1131.09,   292.09  L  1131.50,   291.74  L  1131.78,   291.27  L  1131.87,   290.74  L  1131.78,   290.20  L  1131.50,   289.73  L  1131.09,   289.39  L  1130.58,   289.20  L  1130.04,   289.20  L  1129.53,   289.39  L  1129.12,   289.73  L  1129.51,   290.45  L  1129.51,   291.03  L  1129.89,   291.47  L  1130.46,   291.57  L  1130.96,   291.28  L  1131.16,   290.74  L  1130.96,   290.19  L  1130.46,   289.90  L  1129.89,   290.00  L  1130.31,   290.74  " /><text style="&st18;" transform="matrix(&st16;  1430.34  205.45 )">B</text><path style="stroke-width:0.85 ;&st7;  " d=" M  1154.61,   289.73  L  1154.34,   290.20  L  1154.25,   290.74  L  1154.34,   291.27  L  1154.61,   291.74  L  1155.03,   292.09  L  1155.53,   292.27  L  1156.08,   292.27  L  1156.59,   292.09  L  1157.00,   291.74  L  1157.27,   291.27  L  1157.36,   290.74  L  1157.27,   290.20  L  1157.00,   289.73  L  1156.59,   289.39  L  1156.08,   289.20  L  1155.53,   289.20  L  1155.03,   289.39  L  1154.61,   289.73  L  1155.01,   290.45  L  1155.01,   291.03  L  1155.38,   291.47  L  1155.95,   291.57  L  1156.46,   291.28  L  1156.66,   290.74  L  1156.46,   290.19  L  1155.95,   289.90  L  1155.38,   290.00  L  1155.81,   290.74  " /><text style="&st18;" transform="matrix(&st16;  1237.13  346.53 )">ES</text><text style="&st18;" transform="matrix(&st17;  1122.65  281.22 )" ewd:textID="18">Sub Tank</text><text style="&st18;" transform="matrix(&st16;  1203.5  194.69 )">28</text><text style="&st18;" transform="matrix(&st16;  1212.99  194.69 )">A</text><path style="stroke-width:1.42 ;&st7;   " d=" M  1219.83,   192.72  C  1219.83    190.22   1217.80    188.19   1215.30    188.19  " /><path style="stroke-width:1.42 ;&st7;   " d=" M  1215.30,   188.19  C  1212.79    188.19   1210.76    190.22   1210.76    192.72  " /><path style="stroke-width:1.42 ;&st7;   " d=" M  1210.76,   192.72  C  1210.76    195.22   1212.79    197.25   1215.30    197.25  " /><path style="stroke-width:1.42 ;&st7;   " d=" M  1215.30,   197.25  C  1217.80    197.25   1219.83    195.22   1219.83    192.72  " /><text style="&st18;" transform="matrix(&st16;  1229.0  356.73 )">15</text><text style="&st18;" transform="matrix(&st16;  1238.49  356.73 )">A</text><path style="stroke-width:1.42 ;&st7;   " d=" M  1245.33,   354.76  C  1245.33    352.26   1243.30    350.23   1240.79    350.23  " /><path style="stroke-width:1.42 ;&st7;   " d=" M  1240.79,   350.23  C  1238.29    350.23   1236.26    352.26   1236.26    354.76  " /><path style="stroke-width:1.42 ;&st7;   " d=" M  1236.26,   354.76  C  1236.26    357.26   1238.29    359.29   1240.79    359.29  " /><path style="stroke-width:1.42 ;&st7;   " d=" M  1240.79,   359.29  C  1243.30    359.29   1245.33    357.26   1245.33    354.76  " /><text style="&st18;" transform="matrix(&st16;  1415.97  194.69 )">26</text><text style="&st18;" transform="matrix(&st16;  1425.46  194.69 )">A</text><path style="stroke-width:1.42 ;&st7;   " d=" M  1432.29,   192.72  C  1432.29    190.22   1430.26    188.19   1427.76    188.19  " /><path style="stroke-width:1.42 ;&st7;   " d=" M  1427.76,   188.19  C  1425.26    188.19   1423.23    190.22   1423.23    192.72  " /><path style="stroke-width:1.42 ;&st7;   " d=" M  1423.23,   192.72  C  1423.23    195.22   1425.26    197.25   1427.76    197.25  " /><path style="stroke-width:1.42 ;&st7;   " d=" M  1427.76,   197.25  C  1430.26    197.25   1432.29    195.22   1432.29    192.72  " /><text style="&st18;" transform="matrix(&st16;  1118.52  356.73 )">11</text><path style="stroke-width:1.42 ;&st7;   " d=" M  1134.84,   354.76  C  1134.84    352.26   1132.81    350.23   1130.31    350.23  " /><path style="stroke-width:1.42 ;&st7;   " d=" M  1130.31,   350.23  C  1127.81    350.23   1125.78    352.26   1125.78    354.76  " /><path style="stroke-width:1.42 ;&st7;   " d=" M  1125.78,   354.76  C  1125.78    357.26   1127.81    359.29   1130.31    359.29  " /><path style="stroke-width:1.42 ;&st7;   " d=" M  1130.31,   359.29  C  1132.81    359.29   1134.84    357.26   1134.84    354.76  " /><text style="&st18;" transform="matrix(&st16;  1128.12  356.73 )">B</text><g ewd:figtype="title"><text style="&st18;" transform="matrix(&st17;  1459.48  353.13 )" ewd:textID="1">Combination Meter Assembly</text><text style="&st18;" transform="matrix(&st17;  1452.65  353.13 )">L25(A),L26(B)</text></g></g><g ewd:figtype="conn" ewd:figID="12" ewd:code="I58,I72"><path style="stroke-width:1.42 ;&st7;  " d=" M  1266.29,   112.27  L  1283.29,   112.27  L  1283.29,   129.26  L  1266.29,   129.26  L  1266.29,   112.27  " /><path style="stroke-width:0.85 ;&st7;  " d=" M  1274.79,   112.27  L  1274.79,   129.26  " /><text style="&st18;" transform="matrix(&st16;  1266.09  100.64 )">2</text><text style="&st18;" transform="matrix(&st16;  1266.09  109.7 )">2</text><path style="stroke-width:1.42 ;&st7;   " d=" M  1279.32,    98.67  C  1279.32     96.17   1277.29     94.14   1274.79     94.14  " /><path style="stroke-width:1.42 ;&st7;   " d=" M  1274.79,    94.14  C  1272.28     94.14   1270.25     96.17   1270.25     98.67  " /><path style="stroke-width:1.42 ;&st7;   " d=" M  1270.25,    98.67  C  1270.25    101.17   1272.28    103.20   1274.79    103.20  " /><path style="stroke-width:1.42 ;&st7;   " d=" M  1274.79,   103.20  C  1277.29    103.20   1279.32    101.17   1279.32     98.67  " /><path style="stroke-width:1.42 ;&st7;   " d=" M  1279.32,   107.73  C  1279.32    105.23   1277.29    103.20   1274.79    103.20  " /><path style="stroke-width:1.42 ;&st7;   " d=" M  1274.79,   103.20  C  1272.28    103.20   1270.25    105.23   1270.25    107.73  " /><path style="stroke-width:1.42 ;&st7;   " d=" M  1270.25,   107.73  C  1270.25    110.24   1272.28    112.27   1274.79    112.27  " /><path style="stroke-width:1.42 ;&st7;   " d=" M  1274.79,   112.27  C  1277.29    112.27   1279.32    110.24   1279.32    107.73  " /><text style="&st18;" transform="matrix(&st16;  1272.6  109.7 )">B</text><text style="&st18;" transform="matrix(&st16;  1272.48  100.64 )">A</text><text style="&st18;" transform="matrix(&st16;  1266.09  144.83 )">1</text><text style="&st18;" transform="matrix(&st16;  1266.09  135.77 )">1</text><path style="stroke-width:1.42 ;&st7;   " d=" M  1279.32,   133.80  C  1279.32    131.29   1277.29    129.26   1274.79    129.26  " /><path style="stroke-width:1.42 ;&st7;   " d=" M  1274.79,   129.26  C  1272.28    129.26   1270.25    131.29   1270.25    133.80  " /><path style="stroke-width:1.42 ;&st7;   " d=" M  1270.25,   133.80  C  1270.25    136.30   1272.28    138.33   1274.79    138.33  " /><path style="stroke-width:1.42 ;&st7;   " d=" M  1274.79,   138.33  C  1277.29    138.33   1279.32    136.30   1279.32    133.80  " /><text style="&st18;" transform="matrix(&st16;  1272.6  144.83 )">B</text><path style="stroke-width:1.42 ;&st7;   " d=" M  1279.32,   142.86  C  1279.32    140.36   1277.29    138.33   1274.79    138.33  " /><path style="stroke-width:1.42 ;&st7;   " d=" M  1274.79,   138.33  C  1272.28    138.33   1270.25    140.36   1270.25    142.86  " /><path style="stroke-width:1.42 ;&st7;   " d=" M  1270.25,   142.86  C  1270.25    145.36   1272.28    147.39   1274.79    147.39  " /><path style="stroke-width:1.42 ;&st7;   " d=" M  1274.79,   147.39  C  1277.29    147.39   1279.32    145.36   1279.32    142.86  " /><text style="&st18;" transform="matrix(&st16;  1272.48  135.77 )">A</text><g ewd:figtype="title"><text style="&st18;" transform="matrix(&st17;  1256.64  132.17 )" ewd:textID="9">No. 9 Junction <tspan x="0 " dy="6.0">Connector</tspan></text><text style="&st18;" transform="matrix(&st17;  1249.82  132.16 )">I58(B)</text><text style="&st18;" transform="matrix(&st17;  1236.53  132.17 )" ewd:textID="13">No. 21 Junction <tspan x="0 " dy="6.0">Connector</tspan></text><text style="&st18;" transform="matrix(&st17;  1229.71  132.16 )">I72(A)</text></g><g ewd:code="" ewd:figID="63" ewd:comment="" ewd:figtype="commref"><text style="&st18;" transform="matrix(&st16;  1279.88  100.64 )">(LHD)</text></g><g ewd:code="" ewd:figID="64" ewd:comment="" ewd:figtype="commref"><text style="&st18;" transform="matrix(&st16;  1279.88  144.83 )">(RHD)</text></g><g ewd:code="" ewd:figID="65" ewd:comment="" ewd:figtype="commref"><text style="&st18;" transform="matrix(&st16;  1279.88  135.77 )">(LHD)</text></g><g ewd:code="" ewd:figID="66" ewd:comment="" ewd:figtype="commref"><text style="&st18;" transform="matrix(&st16;  1279.88  109.7 )">(RHD)</text></g></g><g ewd:figtype="rb" ewd:figID="13" ewd:code="FUSE16"><path style="stroke-width:1.42 ;&st7;  " d=" M  1353.40,    95.27  L  1349.15,    95.27  " /><path style="stroke-width:1.42 ;&st7;  " d=" M  1353.40,   103.77  L  1349.15,   103.77  " /><path style="stroke-width:0.85 ;&st7;  " d=" M  1351.27,    78.27  L  1351.27,    95.27  " /><path style="stroke-width:1.42 ;&st7;   " d=" M  1349.15,    95.27  C  1346.80     95.27   1344.90     97.17   1344.90     99.52  " /><path style="stroke-width:1.42 ;&st7;   " d=" M  1344.90,    99.52  C  1344.90    101.87   1346.80    103.77   1349.15    103.77  " /><path style="stroke-width:1.42 ;&st7;   " d=" M  1353.40,   103.77  C  1355.75    103.77   1357.65    101.87   1357.65     99.52  " /><path style="stroke-width:1.42 ;&st7;   " d=" M  1357.65,    99.52  C  1357.65     97.17   1355.75     95.27   1353.40     95.27  " /><path style="stroke-width:0.28 ;&st9;  " d=" M  1351.27,    90.37  L  1348.44,    87.54  L  1348.44,    91.79  L  1351.27,    94.62  L  1354.11,    91.79  L  1354.11,    87.54  L  1351.27,    90.37  " /><text style="&st18;" transform="matrix(&st16;  1367.7  56.17 )">10A <tspan x="0 " dy="6.0">MET</tspan></text><text style="&st18;" transform="matrix(&st16;  1349.47  101.49 )">2</text><text style="&st18;" transform="matrix(&st16;  1345.09  86.47 )">2</text><text style="&st18;" transform="matrix(&st16;  1346.06  32.08 )">(IG)</text><path style="stroke-width:0.85 ;&st7;  " d=" M  1351.27,    69.77  L  1351.27,    78.27  " /><path style="stroke-width:1.42 ;&st7;   " d=" M  1351.27,    47.11  C  1348.54     48.72   1347.62     52.25   1349.24     54.99  " /><path style="stroke-width:1.42 ;&st7;   " d=" M  1349.24,    54.99  C  1349.76     55.87   1350.39     56.51   1351.27     57.03  " /><path style="stroke-width:1.42 ;&st7;   " d=" M  1351.27,    66.94  C  1354.01     65.33   1354.92     61.80   1353.31     59.06  " /><path style="stroke-width:1.42 ;&st7;   " d=" M  1353.31,    59.06  C  1352.79     58.18   1352.16     57.55   1351.27     57.03  " /><path style="stroke-width:0.85 ;&st7;   " d=" M  1352.69,    45.69  C  1352.69     44.91   1352.06     44.28   1351.27     44.28  " /><path style="stroke-width:0.85 ;&st7;   " d=" M  1351.27,    44.28  C  1350.49     44.28   1349.86     44.91   1349.86     45.69  " /><path style="stroke-width:0.85 ;&st7;   " d=" M  1349.86,    45.69  C  1349.86     46.48   1350.49     47.11   1351.27     47.11  " /><path style="stroke-width:0.85 ;&st7;   " d=" M  1351.27,    47.11  C  1352.06     47.11   1352.69     46.48   1352.69     45.69  " /><path style="stroke-width:0.85 ;&st7;   " d=" M  1352.69,    68.36  C  1352.69     67.57   1352.06     66.94   1351.27     66.94  " /><path style="stroke-width:0.85 ;&st7;   " d=" M  1351.27,    66.94  C  1350.49     66.94   1349.86     67.57   1349.86     68.36  " /><path style="stroke-width:0.85 ;&st7;   " d=" M  1349.86,    68.36  C  1349.86     69.14   1350.49     69.77   1351.27     69.77  " /><path style="stroke-width:0.85 ;&st7;   " d=" M  1351.27,    69.77  C  1352.06     69.77   1352.69     69.14   1352.69     68.36  " /><path style="stroke-width:1.42 ;&st7;  " d=" M  1338.53,    35.78  L  1338.53,    78.27  L  1364.02,    78.27  L  1364.02,    35.78  L  1338.53,    35.78  " /></g><g ewd:figtype="rb" ewd:figID="14" ewd:code="FUSE5"><path style="stroke-width:1.42 ;&st7;  " d=" M  1429.89,    95.27  L  1425.64,    95.27  " /><path style="stroke-width:1.42 ;&st7;  " d=" M  1429.89,   103.77  L  1425.64,   103.77  " /><path style="stroke-width:0.85 ;&st7;  " d=" M  1427.76,    78.27  L  1427.76,    95.27  " /><path style="stroke-width:1.42 ;&st7;   " d=" M  1425.64,    95.27  C  1423.29     95.27   1421.39     97.17   1421.39     99.52  " /><path style="stroke-width:1.42 ;&st7;   " d=" M  1421.39,    99.52  C  1421.39    101.87   1423.29    103.77   1425.64    103.77  " /><path style="stroke-width:1.42 ;&st7;   " d=" M  1429.89,   103.77  C  1432.23    103.77   1434.14    101.87   1434.14     99.52  " /><path style="stroke-width:1.42 ;&st7;   " d=" M  1434.14,    99.52  C  1434.14     97.17   1432.23     95.27   1429.89     95.27  " /><path style="stroke-width:0.28 ;&st9;  " d=" M  1427.76,    90.37  L  1424.93,    87.54  L  1424.93,    91.79  L  1427.76,    94.62  L  1430.59,    91.79  L  1430.59,    87.54  L  1427.76,    90.37  " /><text style="&st18;" transform="matrix(&st16;  1444.19  53.34 )">10A <tspan x="0 " dy="6.0">DOME </tspan><tspan x="0 " dy="6.0">NO.1</tspan></text><text style="&st18;" transform="matrix(&st16;  1425.96  101.49 )">2</text><text style="&st18;" transform="matrix(&st16;  1421.58  86.47 )">2</text><text style="&st18;" transform="matrix(&st16;  1419.72  32.08 )">(BAT)</text><path style="stroke-width:0.85 ;&st7;  " d=" M  1427.76,    69.77  L  1427.76,    78.27  " /><path style="stroke-width:1.42 ;&st7;   " d=" M  1427.76,    47.11  C  1425.02     48.72   1424.11     52.25   1425.72     54.99  " /><path style="stroke-width:1.42 ;&st7;   " d=" M  1425.72,    54.99  C  1426.24     55.87   1426.88     56.51   1427.76     57.03  " /><path style="stroke-width:1.42 ;&st7;   " d=" M  1427.76,    66.94  C  1430.50     65.33   1431.41     61.80   1429.80     59.06  " /><path style="stroke-width:1.42 ;&st7;   " d=" M  1429.80,    59.06  C  1429.28     58.18   1428.64     57.55   1427.76     57.03  " /><path style="stroke-width:0.85 ;&st7;   " d=" M  1429.18,    45.69  C  1429.18     44.91   1428.54     44.28   1427.76     44.28  " /><path style="stroke-width:0.85 ;&st7;   " d=" M  1427.76,    44.28  C  1426.98     44.28   1426.35     44.91   1426.35     45.69  " /><path style="stroke-width:0.85 ;&st7;   " d=" M  1426.35,    45.69  C  1426.35     46.48   1426.98     47.11   1427.76     47.11  " /><path style="stroke-width:0.85 ;&st7;   " d=" M  1427.76,    47.11  C  1428.54     47.11   1429.18     46.48   1429.18     45.69  " /><path style="stroke-width:0.85 ;&st7;   " d=" M  1429.18,    68.36  C  1429.18     67.57   1428.54     66.94   1427.76     66.94  " /><path style="stroke-width:0.85 ;&st7;   " d=" M  1427.76,    66.94  C  1426.98     66.94   1426.35     67.57   1426.35     68.36  " /><path style="stroke-width:0.85 ;&st7;   " d=" M  1426.35,    68.36  C  1426.35     69.14   1426.98     69.77   1427.76     69.77  " /><path style="stroke-width:0.85 ;&st7;   " d=" M  1427.76,    69.77  C  1428.54     69.77   1429.18     69.14   1429.18     68.36  " /><path style="stroke-width:1.42 ;&st7;  " d=" M  1415.01,    35.78  L  1415.01,    78.27  L  1440.51,    78.27  L  1440.51,    35.78  L  1415.01,    35.78  " /></g><g ewd:figtype="w2w" ewd:figID="29" ewd:code="IL1"><path style="stroke-width:1.42 ;&st7;  " d=" M  1219.55,   155.33  L  1215.30,   151.08  L  1211.05,   155.33  " /><path style="stroke-width:1.42 ;&st7;  " d=" M  1219.55,   151.93  L  1215.30,   147.68  L  1211.05,   151.93  " /><text style="&st18;" transform="matrix(&st16;  1199.56  143.98 )">28</text></g><g ewd:figtype="w2w" ewd:figID="30" ewd:code="IL1"><path style="stroke-width:1.42 ;&st7;  " d=" M  1236.54,   383.65  L  1240.79,   387.90  L  1245.04,   383.65  " /><path style="stroke-width:1.42 ;&st7;  " d=" M  1245.04,   387.05  L  1240.79,   391.30  L  1236.54,   387.05  " /><text style="&st18;" transform="matrix(&st16;  1225.06  398.94 )">26</text></g><g ewd:figtype="w2w" ewd:figID="31" ewd:code="AC1"><path style="stroke-width:1.42 ;&st7;  " d=" M  1330.03,   554.76  L  1325.78,   550.51  L  1321.53,   554.76  " /><path style="stroke-width:1.42 ;&st7;  " d=" M  1330.03,   551.36  L  1325.78,   547.11  L  1321.53,   551.36  " /><text style="&st18;" transform="matrix(&st16;  1313.15  543.41 )">1</text></g><g ewd:code="AI3" ewd:figID="32" ewd:comment="1" ewd:figtype="w2w"><text style="&st18;" transform="matrix(&st16;  1310.04  483.92 )">55</text><g ewd:code="" ewd:figID="69" ewd:comment="1" ewd:figtype="commref"><text style="&st18;" transform="matrix(&st16;  1334.81  483.92 )">(*1)</text></g></g><g ewd:code="AI3" ewd:figID="33" ewd:comment="2" ewd:figtype="w2w"><text style="&st18;" transform="matrix(&st16;  1310.04  475.43 )">22</text><g ewd:code="" ewd:figID="67" ewd:comment="2" ewd:figtype="commref"><text style="&st18;" transform="matrix(&st16;  1334.81  475.43 )">(RHD *2)</text></g></g><g ewd:code="AI3" ewd:figID="34" ewd:comment="2" ewd:figtype="w2w"><path style="stroke-width:1.42 ;&st7;  " d=" M  1330.03,   455.04  L  1325.78,   459.29  L  1321.53,   455.04  " /><path style="stroke-width:1.42 ;&st7;  " d=" M  1321.53,   451.64  L  1325.78,   455.89  L  1330.03,   451.64  " /><text style="&st18;" transform="matrix(&st16;  1310.04  466.93 )">45</text><g ewd:code="" ewd:figID="68" ewd:comment="2" ewd:figtype="commref"><text style="&st18;" transform="matrix(&st16;  1334.81  466.93 )">(LHD *2)</text></g></g><g ewd:figtype="w2w" ewd:figID="35" ewd:code="CA2"><path style="stroke-width:1.42 ;&st7;  " d=" M  1372.52,   528.13  L  1376.77,   532.38  L  1381.02,   528.13  " /><path style="stroke-width:1.42 ;&st7;  " d=" M  1381.02,   531.53  L  1376.77,   535.78  L  1372.52,   531.53  " /><text style="&st18;" transform="matrix(&st16;  1364.14  543.41 )">3</text></g><g ewd:figtype="w2w" ewd:figID="36" ewd:code="IL1"><path style="stroke-width:1.42 ;&st7;  " d=" M  1432.01,   172.32  L  1427.76,   168.07  L  1423.51,   172.32  " /><path style="stroke-width:1.42 ;&st7;  " d=" M  1432.01,   168.92  L  1427.76,   164.67  L  1423.51,   168.92  " /><text style="&st18;" transform="matrix(&st16;  1412.03  160.98 )">59</text></g><g ewd:figtype="gp" ewd:figID="39" ewd:code="CC"><path style="stroke-width:0.85 ;&st7;  " d=" M  1325.78,   697.25  L  1325.78,   701.50  " /><path style="stroke-width:0.85 ;&st7;  " d=" M  1317.28,   701.50  L  1334.28,   701.50  " /><path style="stroke-width:0.85 ;&st7;  " d=" M  1321.53,   704.33  L  1330.03,   704.33  " /><path style="stroke-width:0.85 ;&st7;  " d=" M  1322.95,   707.17  L  1328.61,   707.17  " /><path style="stroke-width:0.85 ;&st7;  " d=" M  1324.36,   710.00  L  1327.19,   710.00  " /></g><g ewd:figtype="gp" ewd:figID="40" ewd:code="CE"><path style="stroke-width:0.85 ;&st7;  " d=" M  1376.77,   697.25  L  1376.77,   701.50  " /><path style="stroke-width:0.85 ;&st7;  " d=" M  1368.27,   701.50  L  1385.27,   701.50  " /><path style="stroke-width:0.85 ;&st7;  " d=" M  1372.52,   704.33  L  1381.02,   704.33  " /><path style="stroke-width:0.85 ;&st7;  " d=" M  1373.94,   707.17  L  1379.60,   707.17  " /><path style="stroke-width:0.85 ;&st7;  " d=" M  1375.35,   710.00  L  1378.19,   710.00  " /></g><g ewd:code="2" ewd:figID="61" ewd:comment="" ewd:figtype="comment"><text style="&st18;" transform="matrix(&st16;  1067.42  29.25 )">* 2 :1HZ</text></g><g ewd:code="1" ewd:figID="62" ewd:comment="" ewd:figtype="comment"><text style="&st18;" transform="matrix(&st16;  1067.42  20.75 )">* 1 :1VD-FTV</text></g></svg>