<?xml version="1.0" encoding="utf-8"?>
<!DOCTYPE svg PUBLIC "-//W3C//DTD SVG 1.0//EN" "http://www.w3.org/TR/2001/REC-SVG-20010904/DTD/svg10.dtd"[
	<!ENTITY ns_flows "http://ns.adobe.com/Flows/1.0/">
	<!ENTITY ns_svg "http://www.w3.org/2000/svg">
	<!ENTITY ns_xlink "http://www.w3.org/1999/xlink">
	<!ENTITY st0 "font-size:7px;font-family:'MS-PGothic';adobe-font-script:japanese;">
	<!ENTITY st1 "font-size:6px;font-family:'ArialMT';">
	<!-- White fill  -->
	<!ENTITY st2 "fill:#FFFFFF;stroke:#000000; stroke-width:1.41;stroke-linecap:round;stroke-linejoin:round;">
	<!-- Yellow fill  -->
	<!ENTITY st3 "fill:#FFFFCC;stroke:#FFFFCC; stroke-width:0.1;stroke-linecap:round;stroke-linejoin:round;">
	<!-- Gray fill  -->
	<!ENTITY st4 "fill:#CCCCCC;stroke:#CCCCCC; stroke-width:0.1;stroke-linecap:round;stroke-linejoin:round;">
	<!-- Light-blue fill -->
	<!ENTITY st5 "fill:#CCECF4;stroke:#000000; stroke-width:1.133;stroke-linecap:round;stroke-linejoin:round;">
	<!ENTITY st6 "fill:none;stroke-linecap:butt; stroke-linejoin:round;">
	<!ENTITY st7 "fill:none;stroke:#000000;stroke-linecap:round;stroke-linejoin:round;">
	<!ENTITY st8 "enable-background:new    ;">
	<!-- Black fill -->
	<!ENTITY st9 "fill:#000000;stroke:#000000; stroke-linecap:round;stroke-linejoin:round;">
	<!-- SRS note   -->
	<!ENTITY st10 "font-size:9px;font-family:'ArialMT';">
	<!ENTITY st11 "font-size:9px;font-family:'Svg Symbol';">
	<!ENTITY st12 "font-size:6px;font-family:'Svg Symbol';">
	<!ENTITY st13 "fill:none;stroke:#ff0000;stroke-linecap:round;stroke-linejoin:round;">
	<!-- Yellow fill  -->
	<!ENTITY st14 "fill:#FFFF00;stroke:#FFFF00; stroke-width:0.1;stroke-linecap:round;stroke-linejoin:round;">
	<!ENTITY st15 "font-size:6px;font-family:'MS-PGothic';adobe-font-script:japanese;">
	<!ENTITY st16 "1.00 0.00 0.00 1.00">
	<!ENTITY st17 "0.00 -1.00 1.00 0.00">
	<!ENTITY st18 "font-size:6px;font-family:'Arial';">
	<!ENTITY st19 "font-size:9px;font-family:'Arial';">
	<!ENTITY st20 "font-size:6px;font-family:'MS-PGothic','MS PGothic';adobe-font-script:japanese;">
	<!ENTITY st21 "font-size:7px;font-family:'MS-PGothic','MS PGothic';adobe-font-script:japanese;">
	<!ATTLIST svg
		xmlns:ewd CDATA #FIXED "http://shcl.co.jp/ewd"
		xmlns:a CDATA #FIXED "http://ns.adobe.com/AdobeSVGViewerExtensions/3.0/"
		ewd:ver CDATA #IMPLIED
	>
	<!ATTLIST a
		ewd:lineID CDATA #IMPLIED
		ewd:groupID CDATA #IMPLIED
		ewd:figtype CDATA #IMPLIED
		ewd:code CDATA #IMPLIED
		ewd:figID CDATA #IMPLIED
		ewd:pinNo CDATA #IMPLIED
		ewd:comment CDATA #IMPLIED >
	<!ATTLIST g
		ewd:lineID CDATA #IMPLIED
		ewd:groupID CDATA #IMPLIED
		ewd:figtype CDATA #IMPLIED
		ewd:code CDATA #IMPLIED
		ewd:figID CDATA #IMPLIED
		ewd:pinNo CDATA #IMPLIED
		ewd:comment CDATA #IMPLIED >
	<!ATTLIST text
		ewd:textID CDATA #IMPLIED >
	<!ATTLIST title
		ewd:textID CDATA #IMPLIED >
]>
<!-- Generator: Shintec Hozumi YS   -->
<svg onload="call_execInitLoadProc_svg('system')" style="overflow:visible;  enable-background:new 0 0 1538.768 710.000" viewBox="0 0 1538.768 710.000" height="710.000" width="1538.768" xml:space="preserve" ewd:ver="2.1.2.9" xmlns="&ns_svg;" xmlns:a="http://ns.adobe.com/AdobeSVGViewerExtensions/3.0/" xmlns:ewd="http://shcl.co.jp/ewd" xmlns:xlink="&ns_xlink;">
<path style="stroke-width:1.42 ;&st7;  " d=" M   679.89,   307.73  L   671.39,   307.73  " /><path style="stroke-width:1.42 ;&st7;  " d=" M   713.88,   307.73  L   705.38,   307.73  " /><path style="stroke-width:1.42 ;&st7;  " d=" M   909.35,   307.73  L   900.85,   307.73  " /><path style="stroke-width:1.42 ;&st7;  " d=" M   807.37,   299.24  L   815.86,   299.24  " /><path style="stroke-width:1.42 ;&st7;  " d=" M   781.87,   129.26  L   773.37,   129.26  " /><text style="&st18;" transform="matrix(&st17;  667.69  346.71 )">L-R</text><text style="&st18;" transform="matrix(&st17;  701.69  346.79 )">L-B</text><text style="&st18;" transform="matrix(&st17;  735.68  346.71 )">L-R</text><text style="&st18;" transform="matrix(&st17;  897.15  334.47 )">L-O</text><text style="&st18;" transform="matrix(&st17;  616.7  270.23 )">L-R</text><text style="&st18;" transform="matrix(&st17;  701.69  270.3 )">L-B</text><text style="&st18;" transform="matrix(&st17;  863.16  517.65 )">W-B</text><text style="&st18;" transform="matrix(&st17;  863.16  670.63 )">W-B</text><text style="&st18;" transform="matrix(&st17;  616.7  193.74 )">L-R</text><text style="&st18;" transform="matrix(&st17;  659.19  193.82 )">L-B</text><text style="&st18;" transform="matrix(&st17;  701.69  193.82 )">L-B</text><text style="&st18;" transform="matrix(&st17;  769.68  193.74 )">L-R</text><text style="&st18;" transform="matrix(&st17;  897.15  117.25 )">L-R</text><text style="&st18;" transform="matrix(&st17;  922.65  117.76 )">L-O</text><text style="&st18;" transform="matrix(&st17;  769.68  270.23 )">L-R</text><text style="&st18;" transform="matrix(&st17;  812.17  270.23 )">L-R</text><text style="&st18;" transform="matrix(&st17;  897.15  270.73 )">L-O</text><text style="&st18;" transform="matrix(&st17;  922.65  271.2 )">W-B</text><text style="&st18;" transform="matrix(&st17;  812.17  333.97 )">L-R</text><text style="&st18;" transform="matrix(&st17;  965.14  670.63 )">W-B</text><text style="&st18;" transform="matrix(&st17;  965.14  334.93 )">W-B</text><text style="&st18;" transform="matrix(&st17;  863.16  551.65 )">W-B</text><text style="&st18;" transform="matrix(&st17;  820.67  670.63 )">W-B</text><text style="&st18;" transform="matrix(&st16;  541.84  57.58 )">L</text><text style="&st18;" transform="matrix(&st16;  538.35  168.06 )">L-B</text><text style="&st18;" transform="matrix(&st16;  538.43  185.06 )">L-R</text><path style="stroke-width:1.42 ;&st7;  " d=" M   977.34,   278.71  L   972.37,   273.74  " /><path style="stroke-width:1.42 ;&st7;  " d=" M   960.34,   285.77  L   965.31,   290.74  " /><path style="stroke-width:1.42 ;&st7;  " d=" M   972.37,   290.74  L   977.34,   285.77  " /><path style="stroke-width:1.42 ;&st7;  " d=" M   965.31,   273.74  L   960.34,   278.71  " /><path style="stroke-width:1.42 ;&st7;  " d=" M   875.35,   525.17  L   870.38,   520.20  " /><path style="stroke-width:1.42 ;&st7;  " d=" M   858.36,   532.23  L   863.33,   537.20  " /><path style="stroke-width:1.42 ;&st7;  " d=" M   870.38,   537.20  L   875.35,   532.23  " /><path style="stroke-width:1.42 ;&st7;  " d=" M   863.33,   520.20  L   858.36,   525.17  " /><g ewd:figtype="conn" ewd:figID="9" ewd:code="I46"><path style="stroke-width:0.85 ;&st7;  " d=" M   620.40,   120.77  L   620.40,   146.26  " /><path style="stroke-width:0.85 ;&st7;  " d=" M   624.65,   137.76  L   616.15,   137.76  " /><path style="stroke-width:0.28 ;&st9;  " d=" M   620.40,   137.76  L   614.73,   129.26  L   626.06,   129.26  L   620.40,   137.76  " /><path style="stroke-width:1.42 ;&st7;  " d=" M   611.90,   146.26  L   628.89,   146.26  L   628.89,   120.77  L   611.90,   120.77  L   611.90,   146.26  " /><text style="&st18;" transform="matrix(&st16;  614.21  154.45 )">2</text><text style="&st18;" transform="matrix(&st16;  614.21  117.08 )">1</text><g ewd:figtype="title"><text style="&st18;" transform="matrix(&st17;  636.79  149.16 )">I46</text><text style="&st18;" transform="matrix(&st17;  643.61  149.17 )" ewd:textID="1">Diode <tspan x="0 " dy="6.0">(Wiper Relay)</tspan></text></g></g><g ewd:figtype="conn" ewd:figID="11" ewd:code="I59"><path style="stroke-width:0.85 ;&st7;  " d=" M   705.38,   222.75  L   705.38,   239.75  " /><path style="stroke-width:1.42 ;&st7;  " d=" M   569.40,   222.75  L   713.88,   222.75  L   713.88,   239.75  L   569.40,   239.75  L   569.40,   222.75  " /><path style="stroke-width:0.85 ;&st7;  " d=" M   620.40,   222.75  L   620.40,   239.75  " /><path style="stroke-width:0.85 ;&st7;  " d=" M   619.20,   230.24  L   618.93,   230.71  L   618.84,   231.25  L   618.93,   231.78  L   619.20,   232.25  L   619.62,   232.60  L   620.12,   232.78  L   620.67,   232.78  L   621.18,   232.60  L   621.59,   232.25  L   621.86,   231.78  L   621.95,   231.25  L   621.86,   230.71  L   621.59,   230.24  L   621.18,   229.90  L   620.67,   229.71  L   620.12,   229.71  L   619.62,   229.90  L   619.20,   230.24  L   619.60,   230.96  L   619.60,   231.54  L   619.97,   231.98  L   620.54,   232.08  L   621.05,   231.79  L   621.25,   231.25  L   621.05,   230.70  L   620.54,   230.41  L   619.97,   230.51  L   620.40,   231.25  " /><path style="stroke-width:0.85 ;&st7;  " d=" M   704.19,   230.24  L   703.92,   230.71  L   703.82,   231.25  L   703.92,   231.78  L   704.19,   232.25  L   704.60,   232.60  L   705.11,   232.78  L   705.65,   232.78  L   706.16,   232.60  L   706.57,   232.25  L   706.85,   231.78  L   706.94,   231.25  L   706.85,   230.71  L   706.57,   230.24  L   706.16,   229.90  L   705.65,   229.71  L   705.11,   229.71  L   704.60,   229.90  L   704.19,   230.24  L   704.58,   230.96  L   704.58,   231.54  L   704.96,   231.98  L   705.53,   232.08  L   706.03,   231.79  L   706.23,   231.25  L   706.03,   230.70  L   705.53,   230.41  L   704.96,   230.51  L   705.38,   231.25  " /><path style="stroke-width:0.85 ;&st7;  " d=" M   620.40,   231.25  L   577.90,   231.25  L   577.90,   222.75  " /><path style="stroke-width:0.85 ;&st7;  " d=" M   705.38,   231.25  L   662.89,   231.25  L   662.89,   222.75  " /><text style="&st18;" transform="matrix(&st16;  569.21  220.18 )">6</text><path style="stroke-width:1.42 ;&st7;   " d=" M   582.44,   218.22  C   582.44    215.71    580.41    213.68    577.90    213.68  " /><path style="stroke-width:1.42 ;&st7;   " d=" M   577.90,   213.68  C   575.40    213.68    573.37    215.71    573.37    218.22  " /><path style="stroke-width:1.42 ;&st7;   " d=" M   573.37,   218.22  C   573.37    220.72    575.40    222.75    577.90    222.75  " /><path style="stroke-width:1.42 ;&st7;   " d=" M   577.90,   222.75  C   580.41    222.75    582.44    220.72    582.44    218.22  " /><text style="&st18;" transform="matrix(&st16;  575.72  220.18 )">B</text><text style="&st18;" transform="matrix(&st16;  611.7  246.25 )">7</text><text style="&st18;" transform="matrix(&st16;  618.21  246.25 )">B</text><path style="stroke-width:1.42 ;&st7;   " d=" M   624.93,   244.28  C   624.93    241.77    622.90    239.75    620.40    239.75  " /><path style="stroke-width:1.42 ;&st7;   " d=" M   620.40,   239.75  C   617.89    239.75    615.86    241.77    615.86    244.28  " /><path style="stroke-width:1.42 ;&st7;   " d=" M   615.86,   244.28  C   615.86    246.78    617.89    248.81    620.40    248.81  " /><path style="stroke-width:1.42 ;&st7;   " d=" M   620.40,   248.81  C   622.90    248.81    624.93    246.78    624.93    244.28  " /><text style="&st18;" transform="matrix(&st16;  611.7  220.18 )">5</text><path style="stroke-width:1.42 ;&st7;   " d=" M   624.93,   218.22  C   624.93    215.71    622.90    213.68    620.40    213.68  " /><path style="stroke-width:1.42 ;&st7;   " d=" M   620.40,   213.68  C   617.89    213.68    615.86    215.71    615.86    218.22  " /><path style="stroke-width:1.42 ;&st7;   " d=" M   615.86,   218.22  C   615.86    220.72    617.89    222.75    620.40    222.75  " /><path style="stroke-width:1.42 ;&st7;   " d=" M   620.40,   222.75  C   622.90    222.75    624.93    220.72    624.93    218.22  " /><text style="&st18;" transform="matrix(&st16;  618.21  220.18 )">B</text><text style="&st18;" transform="matrix(&st16;  693.59  220.18 )">17</text><text style="&st18;" transform="matrix(&st16;  703.19  220.18 )">B</text><path style="stroke-width:1.42 ;&st7;   " d=" M   709.91,   218.22  C   709.91    215.71    707.89    213.68    705.38    213.68  " /><path style="stroke-width:1.42 ;&st7;   " d=" M   705.38,   213.68  C   702.88    213.68    700.85    215.71    700.85    218.22  " /><path style="stroke-width:1.42 ;&st7;   " d=" M   700.85,   218.22  C   700.85    220.72    702.88    222.75    705.38    222.75  " /><path style="stroke-width:1.42 ;&st7;   " d=" M   705.38,   222.75  C   707.89    222.75    709.91    220.72    709.91    218.22  " /><text style="&st18;" transform="matrix(&st16;  651.09  220.18 )">16</text><text style="&st18;" transform="matrix(&st16;  660.7  220.18 )">B</text><path style="stroke-width:1.42 ;&st7;   " d=" M   667.42,   218.22  C   667.42    215.71    665.39    213.68    662.89    213.68  " /><path style="stroke-width:1.42 ;&st7;   " d=" M   662.89,   213.68  C   660.39    213.68    658.36    215.71    658.36    218.22  " /><path style="stroke-width:1.42 ;&st7;   " d=" M   658.36,   218.22  C   658.36    220.72    660.39    222.75    662.89    222.75  " /><path style="stroke-width:1.42 ;&st7;   " d=" M   662.89,   222.75  C   665.39    222.75    667.42    220.72    667.42    218.22  " /><text style="&st18;" transform="matrix(&st16;  693.59  246.25 )">15</text><text style="&st18;" transform="matrix(&st16;  703.19  246.25 )">B</text><path style="stroke-width:1.42 ;&st7;   " d=" M   709.91,   244.28  C   709.91    241.77    707.89    239.75    705.38    239.75  " /><path style="stroke-width:1.42 ;&st7;   " d=" M   705.38,   239.75  C   702.88    239.75    700.85    241.77    700.85    244.28  " /><path style="stroke-width:1.42 ;&st7;   " d=" M   700.85,   244.28  C   700.85    246.78    702.88    248.81    705.38    248.81  " /><path style="stroke-width:1.42 ;&st7;   " d=" M   705.38,   248.81  C   707.89    248.81    709.91    246.78    709.91    244.28  " /><g ewd:figtype="title"><text style="&st18;" transform="matrix(&st17;  728.6  242.65 )" ewd:textID="7">No. 10 Junction <tspan x="0 " dy="6.0">Connector</tspan></text><text style="&st18;" transform="matrix(&st17;  721.77  242.64 )">I59(B)</text></g></g><g ewd:figtype="conn" ewd:figID="13" ewd:code="L22,L23"><text style="&st18;" transform="matrix(&st16;  869.44  482.51 )">EW</text><text style="&st18;" transform="matrix(&st16;  741.96  375.42 )">+B</text><path style="stroke-width:0.85 ;&st7;   " d=" M   868.27,   426.71  C   868.27    425.93    867.64    425.30    866.86    425.30  " /><path style="stroke-width:0.85 ;&st7;   " d=" M   866.86,   425.30  C   866.07    425.30    865.44    425.93    865.44    426.71  " /><path style="stroke-width:0.85 ;&st7;   " d=" M   865.44,   426.71  C   865.44    427.50    866.07    428.13    866.86    428.13  " /><path style="stroke-width:0.85 ;&st7;   " d=" M   866.86,   428.13  C   867.64    428.13    868.27    427.50    868.27    426.71  " /><path style="stroke-width:0.85 ;&st7;   " d=" M   740.79,   460.71  C   740.79    459.93    740.16    459.29    739.38    459.29  " /><path style="stroke-width:0.85 ;&st7;   " d=" M   739.38,   459.29  C   738.59    459.29    737.96    459.93    737.96    460.71  " /><path style="stroke-width:0.85 ;&st7;   " d=" M   737.96,   460.71  C   737.96    461.49    738.59    462.12    739.38    462.12  " /><path style="stroke-width:0.85 ;&st7;   " d=" M   739.38,   462.12  C   740.16    462.12    740.79    461.49    740.79    460.71  " /><path style="stroke-width:0.85 ;&st7;   " d=" M   706.80,   460.71  C   706.80    459.93    706.16    459.29    705.38    459.29  " /><path style="stroke-width:0.85 ;&st7;   " d=" M   705.38,   459.29  C   704.60    459.29    703.97    459.93    703.97    460.71  " /><path style="stroke-width:0.85 ;&st7;   " d=" M   703.97,   460.71  C   703.97    461.49    704.60    462.12    705.38    462.12  " /><path style="stroke-width:0.85 ;&st7;   " d=" M   705.38,   462.12  C   706.16    462.12    706.80    461.49    706.80    460.71  " /><text style="&st18;" transform="matrix(&st16;  735.64  394.69 )">+B</text><text style="&st18;" transform="matrix(&st16;  634.0  462.68 )">HI</text><path style="stroke-width:0.85 ;&st7;  " d=" M   672.80,   443.71  L   737.96,   443.71  " /><path style="stroke-width:0.85 ;&st7;  " d=" M   807.36,   418.22  L   917.85,   418.22  " /><path style="stroke-width:0.85 ;&st7;  " d=" M   807.36,   401.22  L   917.85,   401.22  " /><path style="stroke-width:0.85 ;&st7;  " d=" M   883.85,   384.22  L   883.85,   435.21  " /><path style="stroke-width:0.85 ;&st7;  " d=" M   849.86,   384.22  L   849.86,   435.21  " /><path style="stroke-width:0.85 ;&st7;  " d=" M   654.39,   384.22  L   654.39,   469.21  " /><path style="stroke-width:0.85 ;&st7;  " d=" M   671.39,   384.22  L   671.39,   367.22  " /><path style="stroke-width:0.85 ;&st7;  " d=" M   620.40,   452.21  L   756.37,   452.21  " /><path style="stroke-width:0.85 ;&st7;  " d=" M   620.40,   435.21  L   756.37,   435.21  " /><path style="stroke-width:0.85 ;&st7;  " d=" M   620.40,   418.22  L   756.37,   418.22  " /><path style="stroke-width:0.85 ;&st7;  " d=" M   620.40,   401.22  L   756.37,   401.22  " /><path style="stroke-width:0.85 ;&st7;  " d=" M   868.27,   426.71  L   899.43,   426.71  " /><path style="stroke-width:0.85 ;&st7;  " d=" M   672.80,   409.72  L   737.96,   409.72  " /><path style="stroke-width:0.85 ;&st7;  " d=" M   706.80,   460.71  L   737.96,   460.71  " /><path style="stroke-width:0.85 ;&st7;  " d=" M   866.85,   435.21  L   866.85,   486.20  " /><path style="stroke-width:0.85 ;&st7;   " d=" M   672.80,   443.71  C   672.80    442.93    672.17    442.29    671.39    442.29  " /><path style="stroke-width:0.85 ;&st7;   " d=" M   671.39,   442.29  C   670.61    442.29    669.97    442.93    669.97    443.71  " /><path style="stroke-width:0.85 ;&st7;   " d=" M   669.97,   443.71  C   669.97    444.49    670.61    445.13    671.39    445.13  " /><path style="stroke-width:0.85 ;&st7;   " d=" M   671.39,   445.13  C   672.17    445.13    672.80    444.49    672.80    443.71  " /><path style="stroke-width:0.85 ;&st7;   " d=" M   740.79,   443.71  C   740.79    442.93    740.16    442.29    739.38    442.29  " /><path style="stroke-width:0.85 ;&st7;   " d=" M   739.38,   442.29  C   738.59    442.29    737.96    442.93    737.96    443.71  " /><path style="stroke-width:0.85 ;&st7;   " d=" M   737.96,   443.71  C   737.96    444.49    738.59    445.13    739.38    445.13  " /><path style="stroke-width:0.85 ;&st7;   " d=" M   739.38,   445.13  C   740.16    445.13    740.79    444.49    740.79    443.71  " /><path style="stroke-width:0.85 ;&st7;   " d=" M   672.80,   409.72  C   672.80    408.93    672.17    408.30    671.39    408.30  " /><path style="stroke-width:0.85 ;&st7;   " d=" M   671.39,   408.30  C   670.61    408.30    669.97    408.93    669.97    409.72  " /><path style="stroke-width:0.85 ;&st7;   " d=" M   669.97,   409.72  C   669.97    410.50    670.61    411.13    671.39    411.13  " /><path style="stroke-width:0.85 ;&st7;   " d=" M   671.39,   411.13  C   672.17    411.13    672.80    410.50    672.80    409.72  " /><path style="stroke-width:0.85 ;&st7;   " d=" M   740.79,   409.72  C   740.79    408.93    740.16    408.30    739.38    408.30  " /><path style="stroke-width:0.85 ;&st7;   " d=" M   739.38,   408.30  C   738.59    408.30    737.96    408.93    737.96    409.72  " /><path style="stroke-width:0.85 ;&st7;   " d=" M   737.96,   409.72  C   737.96    410.50    738.59    411.13    739.38    411.13  " /><path style="stroke-width:0.85 ;&st7;   " d=" M   739.38,   411.13  C   740.16    411.13    740.79    410.50    740.79    409.72  " /><path style="stroke-width:0.85 ;&st7;   " d=" M   902.27,   426.71  C   902.27    425.93    901.63    425.30    900.85    425.30  " /><path style="stroke-width:0.85 ;&st7;   " d=" M   900.85,   425.30  C   900.07    425.30    899.43    425.93    899.43    426.71  " /><path style="stroke-width:0.85 ;&st7;   " d=" M   899.43,   426.71  C   899.43    427.50    900.07    428.13    900.85    428.13  " /><path style="stroke-width:0.85 ;&st7;   " d=" M   900.85,   428.13  C   901.63    428.13    902.27    427.50    902.27    426.71  " /><text style="&st18;" transform="matrix(&st16;  702.03  394.69 )">+2</text><text style="&st18;" transform="matrix(&st16;  824.45  428.68 )" ewd:textID="14">On</text><text style="&st18;" transform="matrix(&st16;  862.03  394.69 )">EW</text><text style="&st18;" transform="matrix(&st16;  896.02  394.69 )">WF</text><text style="&st18;" transform="matrix(&st16;  707.97  375.42 )">+2</text><text style="&st18;" transform="matrix(&st16;  668.04  394.69 )">+1</text><text style="&st18;" transform="matrix(&st16;  673.97  375.42 )">+1</text><text style="&st18;" transform="matrix(&st16;  630.28  411.69 )">MIST</text><text style="&st18;" transform="matrix(&st16;  903.43  375.42 )">WF</text><text style="&st18;" transform="matrix(&st16;  631.06  428.68 )">OFF</text><text style="&st18;" transform="matrix(&st16;  632.96  445.68 )">LO</text><path style="stroke-width:0.85 ;&st7;  " d=" M   705.38,   384.22  L   705.38,   367.22  " /><path style="stroke-width:0.85 ;&st7;  " d=" M   739.38,   384.22  L   739.38,   367.22  " /><path style="stroke-width:1.42 ;&st7;  " d=" M   603.40,   367.22  L   603.40,   486.20  L   934.84,   486.20  L   934.84,   367.22  L   603.40,   367.22  " /><path style="stroke-width:1.42 ;&st7;  " d=" M   807.36,   435.21  L   917.85,   435.21  L   917.85,   384.22  L   807.36,   384.22  L   807.36,   435.21  " /><path style="stroke-width:1.42 ;&st7;  " d=" M   620.40,   384.22  L   620.40,   469.21  L   756.37,   469.21  L   756.37,   384.22  L   620.40,   384.22  " /><path style="stroke-width:0.85 ;&st7;  " d=" M   900.85,   367.22  L   900.85,   384.22  " /><text style="&st18;" transform="matrix(&st16;  822.82  380.52 )" ewd:textID="2">Front Washer Switch</text><text style="&st18;" transform="matrix(&st16;  680.28  476.84 )" ewd:textID="3">Front Wiper Switch</text><path style="stroke-width:0.85 ;&st7;  " d=" M   722.38,   384.22  L   722.38,   469.21  " /><path style="stroke-width:0.85 ;&st7;  " d=" M   688.38,   384.22  L   688.38,   469.21  " /><text style="&st18;" transform="matrix(&st16;  824.45  411.69 )" ewd:textID="13">Off</text><text style="&st18;" transform="matrix(&st16;  662.69  364.66 )">2</text><path style="stroke-width:1.42 ;&st7;   " d=" M   675.92,   362.69  C   675.92    360.19    673.89    358.16    671.39    358.16  " /><path style="stroke-width:1.42 ;&st7;   " d=" M   671.39,   358.16  C   668.88    358.16    666.86    360.19    666.86    362.69  " /><path style="stroke-width:1.42 ;&st7;   " d=" M   666.86,   362.69  C   666.86    365.19    668.88    367.22    671.39    367.22  " /><path style="stroke-width:1.42 ;&st7;   " d=" M   671.39,   367.22  C   673.89    367.22    675.92    365.19    675.92    362.69  " /><text style="&st18;" transform="matrix(&st16;  669.2  364.66 )">B</text><text style="&st18;" transform="matrix(&st16;  696.69  364.66 )">1</text><text style="&st18;" transform="matrix(&st16;  703.19  364.66 )">B</text><path style="stroke-width:1.42 ;&st7;   " d=" M   709.91,   362.69  C   709.91    360.19    707.89    358.16    705.38    358.16  " /><path style="stroke-width:1.42 ;&st7;   " d=" M   705.38,   358.16  C   702.88    358.16    700.85    360.19    700.85    362.69  " /><path style="stroke-width:1.42 ;&st7;   " d=" M   700.85,   362.69  C   700.85    365.19    702.88    367.22    705.38    367.22  " /><path style="stroke-width:1.42 ;&st7;   " d=" M   705.38,   367.22  C   707.89    367.22    709.91    365.19    709.91    362.69  " /><text style="&st18;" transform="matrix(&st16;  730.68  364.66 )">3</text><text style="&st18;" transform="matrix(&st16;  737.19  364.66 )">B</text><path style="stroke-width:1.42 ;&st7;   " d=" M   743.91,   362.69  C   743.91    360.19    741.88    358.16    739.38    358.16  " /><path style="stroke-width:1.42 ;&st7;   " d=" M   739.38,   358.16  C   736.87    358.16    734.84    360.19    734.84    362.69  " /><path style="stroke-width:1.42 ;&st7;   " d=" M   734.84,   362.69  C   734.84    365.19    736.87    367.22    739.38    367.22  " /><path style="stroke-width:1.42 ;&st7;   " d=" M   739.38,   367.22  C   741.88    367.22    743.91    365.19    743.91    362.69  " /><text style="&st18;" transform="matrix(&st16;  858.16  492.71 )">2</text><path style="stroke-width:1.42 ;&st7;   " d=" M   871.39,   490.74  C   871.39    488.23    869.36    486.20    866.86    486.20  " /><path style="stroke-width:1.42 ;&st7;   " d=" M   866.86,   486.20  C   864.35    486.20    862.32    488.23    862.32    490.74  " /><path style="stroke-width:1.42 ;&st7;   " d=" M   862.32,   490.74  C   862.32    493.24    864.35    495.27    866.86    495.27  " /><path style="stroke-width:1.42 ;&st7;   " d=" M   866.86,   495.27  C   869.36    495.27    871.39    493.24    871.39    490.74  " /><text style="&st18;" transform="matrix(&st16;  864.55  492.71 )">A</text><text style="&st18;" transform="matrix(&st16;  892.16  364.66 )">1</text><path style="stroke-width:1.42 ;&st7;   " d=" M   905.38,   362.69  C   905.38    360.19    903.35    358.16    900.85    358.16  " /><path style="stroke-width:1.42 ;&st7;   " d=" M   900.85,   358.16  C   898.35    358.16    896.32    360.19    896.32    362.69  " /><path style="stroke-width:1.42 ;&st7;   " d=" M   896.32,   362.69  C   896.32    365.19    898.35    367.22    900.85    367.22  " /><path style="stroke-width:1.42 ;&st7;   " d=" M   900.85,   367.22  C   903.35    367.22    905.38    365.19    905.38    362.69  " /><text style="&st18;" transform="matrix(&st16;  898.54  364.66 )">A</text><g ewd:figtype="title"><text style="&st18;" transform="matrix(&st17;  942.74  489.1 )">L22(A),L23(B)</text><text style="&st18;" transform="matrix(&st17;  949.56  489.11 )" ewd:textID="20">Windshield Wiper Switch Assembly</text></g></g><g ewd:figtype="conn" ewd:figID="15" ewd:code="L51"><path style="stroke-width:0.85 ;&st7;  " d=" M   773.37,   222.75  L   773.37,   239.75  " /><path style="stroke-width:1.42 ;&st7;  " d=" M   764.87,   222.75  L   824.36,   222.75  L   824.36,   239.75  L   764.87,   239.75  L   764.87,   222.75  " /><path style="stroke-width:0.85 ;&st7;  " d=" M   772.18,   230.24  L   771.91,   230.71  L   771.81,   231.25  L   771.91,   231.78  L   772.18,   232.25  L   772.59,   232.60  L   773.10,   232.78  L   773.64,   232.78  L   774.15,   232.60  L   774.56,   232.25  L   774.84,   231.78  L   774.93,   231.25  L   774.84,   230.71  L   774.56,   230.24  L   774.15,   229.90  L   773.64,   229.71  L   773.10,   229.71  L   772.59,   229.90  L   772.18,   230.24  L   772.57,   230.96  L   772.57,   231.54  L   772.95,   231.98  L   773.52,   232.08  L   774.02,   231.79  L   774.22,   231.25  L   774.02,   230.70  L   773.52,   230.41  L   772.95,   230.51  L   773.37,   231.25  " /><path style="stroke-width:0.85 ;&st7;  " d=" M   773.37,   231.25  L   815.86,   231.25  L   815.86,   239.75  " /><text style="&st18;" transform="matrix(&st16;  761.57  246.25 )">11</text><text style="&st18;" transform="matrix(&st16;  770.99  246.25 )">D</text><path style="stroke-width:1.42 ;&st7;   " d=" M   777.90,   244.28  C   777.90    241.77    775.87    239.75    773.37    239.75  " /><path style="stroke-width:1.42 ;&st7;   " d=" M   773.37,   239.75  C   770.87    239.75    768.84    241.77    768.84    244.28  " /><path style="stroke-width:1.42 ;&st7;   " d=" M   768.84,   244.28  C   768.84    246.78    770.87    248.81    773.37    248.81  " /><path style="stroke-width:1.42 ;&st7;   " d=" M   773.37,   248.81  C   775.87    248.81    777.90    246.78    777.90    244.28  " /><text style="&st18;" transform="matrix(&st16;  764.68  220.18 )">9</text><text style="&st18;" transform="matrix(&st16;  770.99  220.18 )">D</text><path style="stroke-width:1.42 ;&st7;   " d=" M   777.90,   218.22  C   777.90    215.71    775.87    213.68    773.37    213.68  " /><path style="stroke-width:1.42 ;&st7;   " d=" M   773.37,   213.68  C   770.87    213.68    768.84    215.71    768.84    218.22  " /><path style="stroke-width:1.42 ;&st7;   " d=" M   768.84,   218.22  C   768.84    220.72    770.87    222.75    773.37    222.75  " /><path style="stroke-width:1.42 ;&st7;   " d=" M   773.37,   222.75  C   775.87    222.75    777.90    220.72    777.90    218.22  " /><text style="&st18;" transform="matrix(&st16;  804.07  246.25 )">10</text><text style="&st18;" transform="matrix(&st16;  813.48  246.25 )">D</text><path style="stroke-width:1.42 ;&st7;   " d=" M   820.40,   244.28  C   820.40    241.77    818.37    239.75    815.86    239.75  " /><path style="stroke-width:1.42 ;&st7;   " d=" M   815.86,   239.75  C   813.36    239.75    811.33    241.77    811.33    244.28  " /><path style="stroke-width:1.42 ;&st7;   " d=" M   811.33,   244.28  C   811.33    246.78    813.36    248.81    815.86    248.81  " /><path style="stroke-width:1.42 ;&st7;   " d=" M   815.86,   248.81  C   818.37    248.81    820.40    246.78    820.40    244.28  " /><g ewd:figtype="title"><text style="&st18;" transform="matrix(&st17;  839.08  242.65 )" ewd:textID="9">No. 25 Junction <tspan x="0 " dy="6.0">Connector</tspan></text><text style="&st18;" transform="matrix(&st17;  832.26  242.64 )">L51(D)</text></g></g><g ewd:figtype="rb" ewd:figID="16" ewd:code="2"><path style="stroke-width:1.42 ;&st7;  " d=" M   928.47,   231.25  L   924.22,   231.25  " /><path style="stroke-width:1.42 ;&st7;  " d=" M   928.47,   239.75  L   924.22,   239.75  " /><path style="stroke-width:1.42 ;&st7;  " d=" M   902.97,   231.25  L   898.72,   231.25  " /><path style="stroke-width:1.42 ;&st7;  " d=" M   902.97,   239.75  L   898.72,   239.75  " /><path style="stroke-width:1.42 ;&st7;  " d=" M   902.97,   146.26  L   898.72,   146.26  " /><path style="stroke-width:1.42 ;&st7;  " d=" M   902.97,   137.76  L   898.72,   137.76  " /><path style="stroke-width:1.42 ;&st7;  " d=" M   928.47,   146.26  L   924.22,   146.26  " /><path style="stroke-width:1.42 ;&st7;  " d=" M   928.47,   137.76  L   924.22,   137.76  " /><path style="stroke-width:1.42 ;&st7;   " d=" M   902.97,   239.75  C   905.32    239.75    907.22    237.84    907.22    235.50  " /><path style="stroke-width:1.42 ;&st7;   " d=" M   907.22,   235.50  C   907.22    233.15    905.32    231.25    902.97    231.25  " /><path style="stroke-width:1.42 ;&st7;   " d=" M   924.22,   231.25  C   921.87    231.25    919.97    233.15    919.97    235.50  " /><path style="stroke-width:1.42 ;&st7;   " d=" M   919.97,   235.50  C   919.97    237.84    921.87    239.75    924.22    239.75  " /><path style="stroke-width:1.42 ;&st7;   " d=" M   928.47,   239.75  C   930.82    239.75    932.72    237.84    932.72    235.50  " /><path style="stroke-width:1.42 ;&st7;   " d=" M   932.72,   235.50  C   932.72    233.15    930.82    231.25    928.47    231.25  " /><path style="stroke-width:1.42 ;&st7;   " d=" M   898.72,   231.25  C   896.38    231.25    894.48    233.15    894.48    235.50  " /><path style="stroke-width:1.42 ;&st7;   " d=" M   894.48,   235.50  C   894.48    237.84    896.38    239.75    898.72    239.75  " /><path style="stroke-width:1.42 ;&st7;   " d=" M   907.22,   142.01  C   907.22    139.66    905.32    137.76    902.97    137.76  " /><path style="stroke-width:1.42 ;&st7;   " d=" M   902.97,   146.26  C   905.32    146.26    907.22    144.36    907.22    142.01  " /><path style="stroke-width:1.42 ;&st7;   " d=" M   894.48,   142.01  C   894.48    144.36    896.38    146.26    898.72    146.26  " /><path style="stroke-width:1.42 ;&st7;   " d=" M   898.72,   137.76  C   896.38    137.76    894.48    139.66    894.48    142.01  " /><path style="stroke-width:1.42 ;&st7;   " d=" M   932.72,   142.01  C   932.72    139.66    930.82    137.76    928.47    137.76  " /><path style="stroke-width:1.42 ;&st7;   " d=" M   928.47,   146.26  C   930.82    146.26    932.72    144.36    932.72    142.01  " /><path style="stroke-width:1.42 ;&st7;   " d=" M   919.97,   142.01  C   919.97    144.36    921.87    146.26    924.22    146.26  " /><path style="stroke-width:1.42 ;&st7;   " d=" M   924.22,   137.76  C   921.87    137.76    919.97    139.66    919.97    142.01  " /><path style="stroke-width:0.85 ;&st7;  " d=" M   900.85,   231.25  L   900.85,   205.75  " /><path style="stroke-width:0.28 ;&st9;  " d=" M   900.85,   226.35  L   898.02,   223.52  L   898.02,   227.77  L   900.85,   230.60  L   903.68,   227.77  L   903.68,   223.52  L   900.85,   226.35  " /><path style="stroke-width:0.28 ;&st9;  " d=" M   926.34,   226.35  L   923.51,   223.52  L   923.51,   227.77  L   926.34,   230.60  L   929.18,   227.77  L   929.18,   223.52  L   926.34,   226.35  " /><path style="stroke-width:0.85 ;&st7;  " d=" M   926.34,   231.25  L   926.34,   205.75  " /><path style="stroke-width:0.28 ;&st9;  " d=" M   900.85,   151.16  L   903.68,   153.99  L   903.68,   149.74  L   900.85,   146.91  L   898.02,   149.74  L   898.02,   153.99  L   900.85,   151.16  " /><path style="stroke-width:0.85 ;&st7;  " d=" M   900.85,   171.76  L   900.85,   146.26  " /><path style="stroke-width:0.28 ;&st9;  " d=" M   926.34,   151.16  L   929.18,   153.99  L   929.18,   149.74  L   926.34,   146.91  L   923.51,   149.74  L   923.51,   153.99  L   926.34,   151.16  " /><path style="stroke-width:0.85 ;&st7;  " d=" M   926.34,   171.76  L   926.34,   146.26  " /><text style="&st18;" transform="matrix(&st16;  894.67  213.94 )">2</text><text style="&st18;" transform="matrix(&st16;  920.16  213.94 )">3</text><text style="&st18;" transform="matrix(&st16;  894.66  168.07 )">1</text><text style="&st18;" transform="matrix(&st16;  920.16  168.07 )">5</text><text style="&st18;" transform="matrix(&st17;  942.48  195.44 )" ewd:textID="17">WSH <tspan x="0 " dy="6.0">Relay</tspan></text><text style="&st18;" transform="matrix(&st16;  899.05  237.47 )">2</text><text style="&st18;" transform="matrix(&st16;  924.54  237.47 )">2</text><text style="&st18;" transform="matrix(&st16;  899.05  143.98 )">2</text><text style="&st18;" transform="matrix(&st16;  924.54  143.98 )">2</text><path style="stroke-width:1.42 ;&st7;  " d=" M   926.35,   198.67  L   932.01,   176.01  " /><path style="stroke-width:0.85 ;&st7;  " d=" M   926.35,   205.75  L   926.35,   201.50  " /><path style="stroke-width:0.85 ;&st7;  " d=" M   926.35,   171.76  L   926.35,   176.01  " /><path style="stroke-width:0.85 ;&st7;  " d=" M   900.85,   171.76  L   900.85,   180.26  " /><path style="stroke-width:0.85 ;&st7;  " d=" M   900.85,   197.25  L   900.85,   205.75  " /><path style="stroke-width:0.85 ;&st7;   " d=" M   927.76,   200.09  C   927.76    199.30    927.13    198.67    926.35    198.67  " /><path style="stroke-width:0.85 ;&st7;   " d=" M   926.35,   198.67  C   925.56    198.67    924.93    199.30    924.93    200.09  " /><path style="stroke-width:0.85 ;&st7;   " d=" M   924.93,   200.09  C   924.93    200.87    925.56    201.50    926.35    201.50  " /><path style="stroke-width:0.85 ;&st7;   " d=" M   926.35,   201.50  C   927.13    201.50    927.76    200.87    927.76    200.09  " /><path style="stroke-width:0.85 ;&st7;   " d=" M   927.76,   177.42  C   927.76    176.64    927.13    176.01    926.35    176.01  " /><path style="stroke-width:0.85 ;&st7;   " d=" M   926.35,   176.01  C   925.56    176.01    924.93    176.64    924.93    177.42  " /><path style="stroke-width:0.85 ;&st7;   " d=" M   924.93,   177.42  C   924.93    178.20    925.56    178.84    926.35    178.84  " /><path style="stroke-width:0.85 ;&st7;   " d=" M   926.35,   178.84  C   927.13    178.84    927.76    178.20    927.76    177.42  " /><path style="stroke-width:0.85 ;&st7;   " d=" M   898.32,   186.28  C   899.69    187.67    901.93    187.69    903.33    186.33  " /><path style="stroke-width:0.85 ;&st7;   " d=" M   903.33,   186.33  C   904.73    184.96    904.75    182.71    903.38    181.32  " /><path style="stroke-width:0.85 ;&st7;   " d=" M   903.38,   181.32  C   902.69    180.61    901.84    180.25    900.85    180.25  " /><path style="stroke-width:0.85 ;&st7;   " d=" M   898.32,   191.23  C   899.69    192.63    901.93    192.65    903.33    191.28  " /><path style="stroke-width:0.85 ;&st7;   " d=" M   903.33,   191.28  C   904.73    189.91    904.75    187.67    903.38    186.28  " /><path style="stroke-width:0.85 ;&st7;   " d=" M   903.38,   186.28  C   902.01    184.88    899.77    184.86    898.37    186.22  " /><path style="stroke-width:0.85 ;&st7;   " d=" M   898.37,   186.22  C   898.35    186.24    898.34    186.26    898.32    186.28  " /><path style="stroke-width:0.85 ;&st7;   " d=" M   900.85,   197.25  C   902.81    197.25    904.39    195.67    904.39    193.71  " /><path style="stroke-width:0.85 ;&st7;   " d=" M   904.39,   193.71  C   904.39    191.76    902.81    190.17    900.85    190.17  " /><path style="stroke-width:0.85 ;&st7;   " d=" M   900.85,   190.17  C   899.86    190.17    899.01    190.53    898.32    191.23  " /><path style="stroke-width:1.42 ;&st7;  " d=" M   934.84,   171.76  L   892.35,   171.76  L   892.35,   205.75  L   934.84,   205.75  L   934.84,   171.76  " /></g><g ewd:figtype="conn" ewd:figID="17" ewd:code="L53"><path style="stroke-width:0.85 ;&st7;  " d=" M   866.85,   571.19  L   866.85,   588.19  " /><path style="stroke-width:1.42 ;&st7;  " d=" M   858.36,   571.19  L   875.35,   571.19  L   875.35,   588.19  L   858.36,   588.19  L   858.36,   571.19  " /><path style="stroke-width:0.85 ;&st7;  " d=" M   866.85,   579.69  L   858.36,   579.69  " /><path style="stroke-width:0.85 ;&st7;  " d=" M   865.66,   578.69  L   865.39,   579.16  L   865.30,   579.69  L   865.39,   580.22  L   865.66,   580.69  L   866.08,   581.04  L   866.58,   581.22  L   867.13,   581.22  L   867.63,   581.04  L   868.05,   580.69  L   868.32,   580.22  L   868.41,   579.69  L   868.32,   579.16  L   868.05,   578.69  L   867.63,   578.34  L   867.13,   578.15  L   866.58,   578.15  L   866.08,   578.34  L   865.66,   578.69  L   866.06,   579.40  L   866.06,   579.98  L   866.43,   580.43  L   867.00,   580.52  L   867.51,   580.24  L   867.70,   579.69  L   867.51,   579.14  L   867.00,   578.85  L   866.43,   578.95  L   866.85,   579.69  " /><text style="&st18;" transform="matrix(&st16;  852.17  576.0 )">5</text><text style="&st18;" transform="matrix(&st16;  860.67  596.38 )">4</text><text style="&st18;" transform="matrix(&st16;  857.57  567.5 )">13</text><g ewd:figtype="title"><text style="&st18;" transform="matrix(&st17;  883.25  591.09 )">L53</text><text style="&st18;" transform="matrix(&st17;  890.07  591.09 )" ewd:textID="10">No. 31 <tspan x="0 " dy="6.0">Junction </tspan><tspan x="0 " dy="6.0">Connector</tspan></text></g></g><g ewd:figtype="w2w" ewd:figID="29" ewd:code="IL5"><path style="stroke-width:1.42 ;&st7;  " d=" M   675.64,   316.80  L   671.39,   312.55  L   667.14,   316.80  " /><path style="stroke-width:1.42 ;&st7;  " d=" M   675.64,   313.40  L   671.39,   309.15  L   667.14,   313.40  " /><text style="&st18;" transform="matrix(&st16;  655.65  305.45 )">13</text></g><g ewd:figtype="w2w" ewd:figID="30" ewd:code="IL5"><path style="stroke-width:1.42 ;&st7;  " d=" M   709.63,   316.80  L   705.38,   312.55  L   701.13,   316.80  " /><path style="stroke-width:1.42 ;&st7;  " d=" M   709.63,   313.40  L   705.38,   309.15  L   701.13,   313.40  " /><text style="&st18;" transform="matrix(&st16;  689.65  305.45 )">14</text></g><g ewd:figtype="w2w" ewd:figID="31" ewd:code="IL6"><path style="stroke-width:1.42 ;&st7;  " d=" M   777.62,   138.33  L   773.37,   134.08  L   769.12,   138.33  " /><path style="stroke-width:1.42 ;&st7;  " d=" M   777.62,   134.93  L   773.37,   130.68  L   769.12,   134.93  " /><text style="&st18;" transform="matrix(&st16;  760.74  126.98 )">2</text></g><g ewd:figtype="w2w" ewd:figID="32" ewd:code="IL5"><path style="stroke-width:1.42 ;&st7;  " d=" M   811.61,   290.17  L   815.86,   294.42  L   820.11,   290.17  " /><path style="stroke-width:1.42 ;&st7;  " d=" M   820.11,   293.57  L   815.86,   297.82  L   811.61,   293.57  " /><text style="&st18;" transform="matrix(&st16;  800.13  305.45 )">11</text></g><g ewd:figtype="w2w" ewd:figID="33" ewd:code="IL6"><path style="stroke-width:1.42 ;&st7;  " d=" M   905.10,   316.80  L   900.85,   312.55  L   896.60,   316.80  " /><path style="stroke-width:1.42 ;&st7;  " d=" M   905.10,   313.40  L   900.85,   309.15  L   896.60,   313.40  " /><text style="&st18;" transform="matrix(&st16;  888.22  305.45 )">1</text></g><g ewd:figtype="gp" ewd:figID="36" ewd:code="LB"><path style="stroke-width: 0.85 ;&st7;  " d=" M   824.36,   697.25  L   824.36,   701.50  " /><path style="stroke-width: 0.85 ;&st7;  " d=" M   815.86,   701.50  L   832.86,   701.50  " /><path style="stroke-width: 0.85 ;&st7;  " d=" M   820.11,   704.33  L   828.61,   704.33  " /><path style="stroke-width: 0.85 ;&st7;  " d=" M   821.53,   707.17  L   827.19,   707.17  " /><path style="stroke-width: 0.85 ;&st7;  " d=" M   822.95,   710.00  L   825.78,   710.00  " /></g><g ewd:figtype="gp" ewd:figID="37" ewd:code="LA"><path style="stroke-width: 0.85 ;&st7;  " d=" M   858.36,   701.50  L   875.35,   701.50  " /><path style="stroke-width: 0.85 ;&st7;  " d=" M   866.85,   697.25  L   866.85,   701.50  " /><path style="stroke-width: 0.85 ;&st7;  " d=" M   862.61,   704.33  L   871.10,   704.33  " /><path style="stroke-width: 0.85 ;&st7;  " d=" M   864.02,   707.17  L   869.69,   707.17  " /><path style="stroke-width: 0.85 ;&st7;  " d=" M   865.44,   710.00  L   868.27,   710.00  " /></g><g ewd:figtype="gp" ewd:figID="38" ewd:code="IC"><path style="stroke-width: 0.85 ;&st7;  " d=" M   968.84,   697.25  L   968.84,   701.50  " /><path style="stroke-width: 0.85 ;&st7;  " d=" M   960.34,   701.50  L   977.34,   701.50  " /><path style="stroke-width: 0.85 ;&st7;  " d=" M   964.59,   704.33  L   973.09,   704.33  " /><path style="stroke-width: 0.85 ;&st7;  " d=" M   966.00,   707.17  L   971.67,   707.17  " /><path style="stroke-width: 0.85 ;&st7;  " d=" M   967.42,   710.00  L   970.25,   710.00  " /></g></svg>