<?xml version="1.0" encoding="utf-8"?>
<!DOCTYPE svg PUBLIC "-//W3C//DTD SVG 1.0//EN" "http://www.w3.org/TR/2001/REC-SVG-20010904/DTD/svg10.dtd"[
	<!ENTITY ns_flows "http://ns.adobe.com/Flows/1.0/">
	<!ENTITY ns_svg "http://www.w3.org/2000/svg">
	<!ENTITY ns_xlink "http://www.w3.org/1999/xlink">
	<!ENTITY st0 "font-size:7px;font-family:'MS-PGothic';adobe-font-script:japanese;">
	<!ENTITY st1 "font-size:6px;font-family:'ArialMT';">
	<!-- White fill  -->
	<!ENTITY st2 "fill:#FFFFFF;stroke:#000000; stroke-width:1.41;stroke-linecap:round;stroke-linejoin:round;">
	<!-- Yellow fill  -->
	<!ENTITY st3 "fill:#FFFFCC;stroke:#FFFFCC; stroke-width:0.1;stroke-linecap:round;stroke-linejoin:round;">
	<!-- Gray fill  -->
	<!ENTITY st4 "fill:#CCCCCC;stroke:#CCCCCC; stroke-width:0.1;stroke-linecap:round;stroke-linejoin:round;">
	<!-- Light-blue fill -->
	<!ENTITY st5 "fill:#CCECF4;stroke:#000000; stroke-width:1.133;stroke-linecap:round;stroke-linejoin:round;">
	<!ENTITY st6 "fill:none;stroke-linecap:butt; stroke-linejoin:round;">
	<!ENTITY st7 "fill:none;stroke:#000000;stroke-linecap:round;stroke-linejoin:round;">
	<!ENTITY st8 "enable-background:new    ;">
	<!-- Black fill -->
	<!ENTITY st9 "fill:#000000;stroke:#000000; stroke-linecap:round;stroke-linejoin:round;">
	<!-- SRS note   -->
	<!ENTITY st10 "font-size:9px;font-family:'ArialMT';">
	<!ENTITY st11 "font-size:9px;font-family:'Svg Symbol';">
	<!ENTITY st12 "font-size:6px;font-family:'Svg Symbol';">
	<!ENTITY st13 "fill:none;stroke:#ff0000;stroke-linecap:round;stroke-linejoin:round;">
	<!-- Yellow fill  -->
	<!ENTITY st14 "fill:#FFFF00;stroke:#FFFF00; stroke-width:0.1;stroke-linecap:round;stroke-linejoin:round;">
	<!ENTITY st15 "font-size:6px;font-family:'MS-PGothic';adobe-font-script:japanese;">
	<!ENTITY st16 "1.00 0.00 0.00 1.00">
	<!ENTITY st17 "0.00 -1.00 1.00 0.00">
	<!ENTITY st18 "font-size:6px;font-family:'Arial';">
	<!ENTITY st19 "font-size:9px;font-family:'Arial';">
	<!ENTITY st20 "font-size:6px;font-family:'MS-PGothic','MS PGothic';adobe-font-script:japanese;">
	<!ENTITY st21 "font-size:7px;font-family:'MS-PGothic','MS PGothic';adobe-font-script:japanese;">
	<!ATTLIST svg
		xmlns:ewd CDATA #FIXED "http://shcl.co.jp/ewd"
		xmlns:a CDATA #FIXED "http://ns.adobe.com/AdobeSVGViewerExtensions/3.0/"
		ewd:ver CDATA #IMPLIED
	>
	<!ATTLIST a
		ewd:lineID CDATA #IMPLIED
		ewd:groupID CDATA #IMPLIED
		ewd:figtype CDATA #IMPLIED
		ewd:code CDATA #IMPLIED
		ewd:figID CDATA #IMPLIED
		ewd:pinNo CDATA #IMPLIED
		ewd:comment CDATA #IMPLIED >
	<!ATTLIST g
		ewd:lineID CDATA #IMPLIED
		ewd:groupID CDATA #IMPLIED
		ewd:figtype CDATA #IMPLIED
		ewd:code CDATA #IMPLIED
		ewd:figID CDATA #IMPLIED
		ewd:pinNo CDATA #IMPLIED
		ewd:comment CDATA #IMPLIED >
	<!ATTLIST text
		ewd:textID CDATA #IMPLIED >
	<!ATTLIST title
		ewd:textID CDATA #IMPLIED >
]>
<!-- Generator: Shintec Hozumi YS   -->
<svg onload="call_execInitLoadProc_svg('system')" style="overflow:visible;  enable-background:new 0 0 2043.031 710.000" viewBox="0 0 2043.031 710.000" height="710.000" width="2043.031" xml:space="preserve" ewd:ver="2.1.2.9" xmlns="&ns_svg;" xmlns:a="http://ns.adobe.com/AdobeSVGViewerExtensions/3.0/" xmlns:ewd="http://shcl.co.jp/ewd" xmlns:xlink="&ns_xlink;"><script type="text/javascript" xlink:href="../../../../../system/js/ewd/fig/svgfig.js" xmlns:xlink="http://www.w3.org/1999/xlink" />
<g id="ewd_top"><a ewd:figtype="rb" style="cursor:pointer;" ewd:code="FUSE20" ewd:figID="1"><path style="fill:#CCECF4;stroke:#000000; stroke-width:0; stroke-linecap:round;stroke-linejoin:round; " d=" M    46.74,    35.78  L    46.74,    78.27  L    72.24,    78.27  L    72.24,    35.78  L    46.74,    35.78 " /></a><a ewd:figtype="rb" style="cursor:pointer;" ewd:code="FUSE29" ewd:figID="2"><path style="fill:#CCECF4;stroke:#000000; stroke-width:0; stroke-linecap:round;stroke-linejoin:round; " d=" M   131.73,    35.78  L   131.73,    78.27  L   157.22,    78.27  L   157.22,    35.78  L   131.73,    35.78 " /></a><a ewd:figtype="conn" style="cursor:pointer;" ewd:code="I63,I65" ewd:figID="3"><path style="fill:#CCECF4;stroke:#000000; stroke-width:1.133; stroke-linecap:round;stroke-linejoin:round; " d=" M   135.98,   163.26  L   135.98,   180.26  L   203.97,   180.26  L   203.97,   163.26  L   135.98,   163.26 " /><title ewd:textID="11">No. 13 Junction Connector</title></a><a ewd:figtype="conn" style="cursor:pointer;" ewd:code="I57" ewd:figID="4"><path style="fill:#CCECF4;stroke:#000000; stroke-width:1.133; stroke-linecap:round;stroke-linejoin:round; " d=" M    50.99,   180.26  L    67.99,   180.26  L    67.99,   197.25  L    50.99,   197.25  L    50.99,   180.26 " /><title ewd:textID="10">No. 8 Junction Connector</title></a><a ewd:figtype="rb" style="cursor:pointer;" ewd:code="2" ewd:figID="5"><path style="fill:#CCECF4;stroke:#000000; stroke-width:0; stroke-linecap:round;stroke-linejoin:round; " d=" M   152.97,   367.22  L   110.48,   367.22  L   110.48,   401.22  L   152.97,   401.22  L   152.97,   367.22 " /></a><a ewd:figtype="conn" style="cursor:pointer;" ewd:code="I26" ewd:figID="6"><path style="fill:#CCECF4;stroke:#000000; stroke-width:1.133; stroke-linecap:round;stroke-linejoin:round; " d=" M   169.97,   545.69  L   169.97,   511.70  L   152.97,   511.70  L   152.97,   545.69  L   169.97,   545.69 " /><title ewd:textID="20">Wiper Lock Switch (Limit Switch Assembly)</title></a><a ewd:figtype="conn" style="cursor:pointer;" ewd:code="I63,I65" ewd:figID="7"><path style="fill:#CCECF4;stroke:#000000; stroke-width:1.133; stroke-linecap:round;stroke-linejoin:round; " d=" M   611.90,   367.22  L   611.90,   384.22  L   662.89,   384.22  L   662.89,   367.22  L   611.90,   367.22 " /><title ewd:textID="11">No. 13 Junction Connector</title></a><a ewd:figtype="rb" style="cursor:pointer;" ewd:code="2" ewd:figID="8"><path style="fill:#CCECF4;stroke:#000000; stroke-width:0; stroke-linecap:round;stroke-linejoin:round; " d=" M   288.95,   367.22  L   246.46,   367.22  L   246.46,   401.22  L   288.95,   401.22  L   288.95,   367.22 " /></a><a ewd:figtype="conn" style="cursor:pointer;" ewd:code="A12" ewd:figID="9"><path style="fill:#CCECF4;stroke:#000000; stroke-width:1.133; stroke-linecap:round;stroke-linejoin:round; " d=" M   747.88,   494.70  L   926.35,   494.70  L   926.35,   426.71  L   747.88,   426.71  L   747.88,   494.70 " /><title ewd:textID="18">Windshield Wiper Motor Assembly</title></a><a ewd:figtype="conn" style="cursor:pointer;" ewd:code="A23" ewd:figID="10"><path style="fill:#CCECF4;stroke:#000000; stroke-width:1.133; stroke-linecap:round;stroke-linejoin:round; " d=" M   756.37,   579.69  L   773.37,   579.69  L   773.37,   596.69  L   756.37,   596.69  L   756.37,   579.69 " /><title ewd:textID="9">No. 2 Junction Connector</title></a><a ewd:figtype="conn" style="cursor:pointer;" ewd:code="L22,L23" ewd:figID="11"><path style="fill:#CCECF4;stroke:#000000; stroke-width:1.133; stroke-linecap:round;stroke-linejoin:round; " d=" M  1104.82,   486.20  L  1104.82,   613.68  L  1436.26,   613.68  L  1436.26,   486.20  L  1104.82,   486.20 " /><title ewd:textID="19">Windshield Wiper Switch Assembly</title></a><a ewd:figtype="conn" style="cursor:pointer;" ewd:code="L22,L23" ewd:figID="12"><path style="fill:#CCECF4;stroke:#000000; stroke-width:1.133; stroke-linecap:round;stroke-linejoin:round; " d=" M  1614.73,    27.28  L  2022.66,    27.28  L  2022.66,   316.23  L  1614.73,   316.23  L  1614.73,    27.28 " /><title ewd:textID="19">Windshield Wiper Switch Assembly</title></a><a ewd:figtype="conn" style="cursor:pointer;" ewd:code="L39" ewd:figID="13"><path style="fill:#CCECF4;stroke:#000000; stroke-width:1.133; stroke-linecap:round;stroke-linejoin:round; " d=" M  1963.17,   528.70  L  1980.17,   528.70  L  1980.17,   545.69  L  1963.17,   545.69  L  1963.17,   528.70 " /><title ewd:textID="12">No. 31 Junction Connector</title></a><a ewd:figtype="conn" style="cursor:pointer;" ewd:code="A2" ewd:figID="14"><path style="fill:#CCECF4;stroke:#000000; stroke-width:1.133; stroke-linecap:round;stroke-linejoin:round; " d=" M  1398.02,   164.40  L  1398.02,   164.40  L  1398.02,   160.43  L  1406.51,   160.43  L  1406.52,   164.40  C  1407.87    165.18   1408.84    166.15   1409.63    167.50  L  1409.63,   167.50  C  1411.97    171.57   1410.58    176.77   1406.52    179.12  L  1406.51,   179.12  L  1406.51,   183.09  L  1398.02,   183.09  L  1398.02,   179.12  C  1396.66    178.33   1395.69    177.36   1394.91    176.00  L  1394.91,   176.00  C  1392.56    171.94   1393.95    166.74   1398.02    164.39 " /><title ewd:textID="17">Windshield Washer Motor and Pump Assembly</title></a><a ewd:figtype="fuse" style="cursor:pointer;" ewd:code="FUSE20" ewd:figID="38"><path style="&st7; stroke-width:0;" d=" M    46.74,    35.78  L    46.74,    78.27  L    72.24,    78.27  L    72.24,    35.78  L    46.74,    35.78 " /></a><a ewd:figtype="fuse" style="cursor:pointer;" ewd:code="FUSE29" ewd:figID="39"><path style="&st7; stroke-width:0;" d=" M   131.73,    35.78  L   131.73,    78.27  L   157.22,    78.27  L   157.22,    35.78  L   131.73,    35.78 " /></a><a ewd:comment="5" style="cursor:pointer;" ewd:lineID="1"><path style="stroke:#000000;stroke-width:5.10 ;&st6;" d=" M    59.49,   206.32  L    59.49,   282.24  L   118.98,   282.24  L   118.98,   333.23  " /><path style="stroke:#FFFFFF;stroke-width:2.27 ;&st6;" d=" M    59.49,   206.32  L    59.49,   282.24  L   118.98,   282.24  L   118.98,   333.23  " /><path style="stroke:#FFE600;stroke-width:1.13 ;&st6;" d=" M    59.49,   206.32  L    59.49,   282.24  L   118.98,   282.24  L   118.98,   333.23  " /></a><a ewd:comment="5" style="cursor:pointer;" ewd:lineID="2"><path style="stroke:#000000;stroke-width:5.10 ;&st6;" d=" M    59.49,   103.77  L    59.49,   171.19  " /><path style="stroke:#FFFFFF;stroke-width:2.27 ;&st6;" d=" M    59.49,   103.77  L    59.49,   171.19  " /><path style="stroke:#FFE600;stroke-width:1.13 ;&st6;" d=" M    59.49,   103.77  L    59.49,   171.19  " /></a><a ewd:comment="5" style="cursor:pointer;" ewd:lineID="3"><path style="stroke:#00A0C6;stroke-width:5.10 ;&st6;" d=" M   118.98,   452.21  L   118.98,   579.69  L   212.46,   579.69  L   212.46,   290.74  L   254.96,   290.74  L   254.96,   333.23  " /><path style="stroke:#FFFFFF;stroke-width:1.13 ;&st6;" d=" M   118.98,   452.21  L   118.98,   579.69  L   212.46,   579.69  L   212.46,   290.74  L   254.96,   290.74  L   254.96,   333.23  " /></a><a ewd:comment="5" style="cursor:pointer;" ewd:lineID="4"><path style="stroke:#00A0C6;stroke-width:5.10 ;&st6;" d=" M   144.48,   333.23  L   144.48,   189.32  " /></a><a style="cursor:pointer;" ewd:lineID="5"><path style="stroke:#00A0C6;stroke-width:5.10 ;&st6;" d=" M   144.48,   154.19  L   144.48,   103.77  " /></a><a ewd:comment="5" style="cursor:pointer;" ewd:lineID="6"><path style="stroke:#7FC97F;stroke-width:5.10 ;&st6;" d=" M   161.47,   452.21  L   161.47,   511.70  " /><path style="stroke:#FFFFFF;stroke-width:2.27 ;&st6;" d=" M   161.47,   452.21  L   161.47,   511.70  " /><path style="stroke:#000000;stroke-width:1.13 ;&st6;" d=" M   161.47,   452.21  L   161.47,   511.70  " /></a><a ewd:comment="6" style="cursor:pointer;" ewd:lineID="7"><path style="stroke:#00A0C6;stroke-width:5.10 ;&st6;" d=" M   195.47,   189.32  L   195.47,   197.25  L   212.46,   214.25  L  1240.79,   214.25  L  1240.79,   316.23  " /></a><a ewd:comment="5" style="cursor:pointer;" ewd:lineID="8"><path style="stroke:#000000;stroke-width:5.10 ;&st6;" d=" M   254.96,   528.70  L   254.96,   681.67  " /><path style="stroke:#FFFFFF;stroke-width:4.53 ;&st6;" d=" M   254.96,   528.70  L   254.96,   681.67  " /><path style="stroke:#000000;stroke-width:1.13 ;&st6;" d=" M   254.96,   528.70  L   254.96,   681.67  " /></a><a ewd:comment="5" style="cursor:pointer;" ewd:lineID="9"><path style="stroke:#000000;stroke-width:5.10 ;&st6;" d=" M   254.96,   452.21  L   254.96,   511.70  " /><path style="stroke:#FFFFFF;stroke-width:4.53 ;&st6;" d=" M   254.96,   452.21  L   254.96,   511.70  " /><path style="stroke:#000000;stroke-width:1.13 ;&st6;" d=" M   254.96,   452.21  L   254.96,   511.70  " /></a><a ewd:comment="5" style="cursor:pointer;" ewd:lineID="10"><path style="stroke:#00A0C6;stroke-width:5.10 ;&st6;" d=" M   280.45,   452.21  L   280.45,   503.20  L   620.40,   503.20  L   620.40,   393.29  " /><path style="stroke:#FFFFFF;stroke-width:2.27 ;&st6;" d=" M   280.45,   452.21  L   280.45,   503.20  L   620.40,   503.20  L   620.40,   393.29  " /><path style="stroke:#FF0000;stroke-width:1.13 ;&st6;" d=" M   280.45,   452.21  L   280.45,   503.20  L   620.40,   503.20  L   620.40,   393.29  " /></a><a ewd:comment="5" style="cursor:pointer;" ewd:lineID="11"><path style="stroke:#00A0C6;stroke-width:5.10 ;&st6;" d=" M   280.45,   333.23  L   280.45,   273.74  L   195.47,   273.74  L   195.47,   189.32  " /></a><a ewd:comment="5" style="cursor:pointer;" ewd:lineID="12"><path style="stroke:#00A0C6;stroke-width:5.10 ;&st6;" d=" M   620.40,   358.16  L   620.40,   161.28  " /><path style="stroke:#FFFFFF;stroke-width:2.27 ;&st6;" d=" M   620.40,   358.16  L   620.40,   161.28  " /><path style="stroke:#FF0000;stroke-width:1.13 ;&st6;" d=" M   620.40,   358.16  L   620.40,   161.28  " /></a><a ewd:comment="6" style="cursor:pointer;" ewd:lineID="13"><path style="stroke:#00A0C6;stroke-width:5.10 ;&st6;" d=" M   620.40,   160.99  L   620.40,   163.26  L   603.40,   180.26  L   603.40,   256.74  L   169.97,   256.74  L   169.97,   205.75  L   152.97,   205.75  L   144.48,   197.25  L   144.48,   189.32  " /></a><a style="cursor:pointer;" ewd:lineID="14"><path style="stroke:#00A0C6;stroke-width:5.10 ;&st6;" d=" M   620.40,   146.26  L   620.40,    95.27  L   756.37,    95.27  " /></a><a ewd:comment="5" style="cursor:pointer;" ewd:lineID="15"><path style="stroke:#00A0C6;stroke-width:5.10 ;&st6;" d=" M   654.39,   393.29  L   654.39,   435.21  L   696.88,   435.21  L   696.88,   231.25  L  1223.80,   231.25  L  1223.80,   290.74  L  1240.79,   307.73  L  1240.79,   316.23  " /><path style="stroke:#FFFFFF;stroke-width:2.27 ;&st6;" d=" M   654.39,   393.29  L   654.39,   435.21  L   696.88,   435.21  L   696.88,   231.25  L  1223.80,   231.25  L  1223.80,   290.74  L  1240.79,   307.73  L  1240.79,   316.23  " /><path style="stroke:#FF0000;stroke-width:1.13 ;&st6;" d=" M   654.39,   393.29  L   654.39,   435.21  L   696.88,   435.21  L   696.88,   231.25  L  1223.80,   231.25  L  1223.80,   290.74  L  1240.79,   307.73  L  1240.79,   316.23  " /></a><a style="cursor:pointer;" ewd:lineID="16"><path style="stroke:#000000;stroke-width:5.10 ;&st6;" d=" M   764.87,   605.75  L   764.87,   681.67  " /><path style="stroke:#FFFFFF;stroke-width:4.53 ;&st6;" d=" M   764.87,   605.75  L   764.87,   681.67  " /><path style="stroke:#000000;stroke-width:1.13 ;&st6;" d=" M   764.87,   605.75  L   764.87,   681.67  " /></a><a style="cursor:pointer;" ewd:lineID="17"><path style="stroke:#000000;stroke-width:5.10 ;&st6;" d=" M   764.87,   561.56  L   764.87,   494.70  " /><path style="stroke:#FFFFFF;stroke-width:4.53 ;&st6;" d=" M   764.87,   561.56  L   764.87,   494.70  " /><path style="stroke:#000000;stroke-width:1.13 ;&st6;" d=" M   764.87,   561.56  L   764.87,   494.70  " /></a><a style="cursor:pointer;" ewd:lineID="18"><path style="stroke:#00A0C6;stroke-width:5.10 ;&st6;" d=" M   764.87,   103.77  L   764.87,   426.71  " /></a><a style="cursor:pointer;" ewd:lineID="19"><path style="stroke:#00A0C6;stroke-width:5.10 ;&st6;" d=" M   773.37,    95.27  L  1402.27,    95.27  L  1402.27,   160.43  " /></a><a style="cursor:pointer;" ewd:lineID="20"><path style="stroke:#FF0000;stroke-width:5.10 ;&st6;" d=" M   815.86,   426.71  L   815.86,   367.22  " /></a><a style="cursor:pointer;" ewd:lineID="21"><path style="stroke:#FF0000;stroke-width:5.10 ;&st6;" d=" M   815.86,   343.99  L   815.86,   197.25  L  1274.79,   197.25  L  1274.79,   316.23  " /></a><a style="cursor:pointer;" ewd:lineID="22"><path style="stroke:#00A0C6;stroke-width:5.10 ;&st6;" d=" M   866.86,   426.71  L   866.86,   367.22  " /><path style="stroke:#FFFFFF;stroke-width:2.27 ;&st6;" d=" M   866.86,   426.71  L   866.86,   367.22  " /><path style="stroke:#000000;stroke-width:1.13 ;&st6;" d=" M   866.86,   426.71  L   866.86,   367.22  " /></a><a style="cursor:pointer;" ewd:lineID="23"><path style="stroke:#00A0C6;stroke-width:5.10 ;&st6;" d=" M   866.86,   343.71  L   866.86,   248.24  L  1206.80,   248.24  L  1206.80,   316.23  " /><path style="stroke:#FFFFFF;stroke-width:2.27 ;&st6;" d=" M   866.86,   343.71  L   866.86,   248.24  L  1206.80,   248.24  L  1206.80,   316.23  " /><path style="stroke:#000000;stroke-width:1.13 ;&st6;" d=" M   866.86,   343.71  L   866.86,   248.24  L  1206.80,   248.24  L  1206.80,   316.23  " /></a><a style="cursor:pointer;" ewd:lineID="24"><path style="stroke:#00A0C6;stroke-width:5.10 ;&st6;" d=" M   909.35,   426.71  L   909.35,   367.22  " /><path style="stroke:#FFFFFF;stroke-width:2.27 ;&st6;" d=" M   909.35,   426.71  L   909.35,   367.22  " /><path style="stroke:#FF0000;stroke-width:1.13 ;&st6;" d=" M   909.35,   426.71  L   909.35,   367.22  " /></a><a style="cursor:pointer;" ewd:lineID="25"><path style="stroke:#00A0C6;stroke-width:5.10 ;&st6;" d=" M   909.35,   352.21  L   909.35,   265.24  L  1172.80,   265.24  L  1172.80,   316.23  " /><path style="stroke:#FFFFFF;stroke-width:2.27 ;&st6;" d=" M   909.35,   352.21  L   909.35,   265.24  L  1172.80,   265.24  L  1172.80,   316.23  " /><path style="stroke:#FF0000;stroke-width:1.13 ;&st6;" d=" M   909.35,   352.21  L   909.35,   265.24  L  1172.80,   265.24  L  1172.80,   316.23  " /></a><a ewd:comment="10" style="cursor:pointer;" ewd:lineID="26"><path style="stroke:#00A0C6;stroke-width:5.10 ;&st6;" d=" M  1172.80,   477.14  L  1172.80,   331.25  " /><path style="stroke:#FFFFFF;stroke-width:2.27 ;&st6;" d=" M  1172.80,   477.14  L  1172.80,   331.25  " /><path style="stroke:#FF0000;stroke-width:1.13 ;&st6;" d=" M  1172.80,   477.14  L  1172.80,   331.25  " /></a><a ewd:comment="10" style="cursor:pointer;" ewd:lineID="27"><path style="stroke:#00A0C6;stroke-width:5.10 ;&st6;" d=" M  1206.80,   477.14  L  1206.80,   331.25  " /><path style="stroke:#FFFFFF;stroke-width:2.27 ;&st6;" d=" M  1206.80,   477.14  L  1206.80,   331.25  " /><path style="stroke:#000000;stroke-width:1.13 ;&st6;" d=" M  1206.80,   477.14  L  1206.80,   331.25  " /></a><a ewd:comment="10" style="cursor:pointer;" ewd:lineID="28"><path style="stroke:#00A0C6;stroke-width:5.10 ;&st6;" d=" M  1240.79,   477.14  L  1240.79,   330.96  " /></a><a ewd:comment="10" style="cursor:pointer;" ewd:lineID="29"><path style="stroke:#FF0000;stroke-width:5.10 ;&st6;" d=" M  1274.79,   477.14  L  1274.79,   330.96  " /></a><a ewd:comment="10" style="cursor:pointer;" ewd:lineID="30"><path style="stroke:#000000;stroke-width:5.10 ;&st6;" d=" M  1368.27,   622.75  L  1368.27,   639.18  L  1470.25,   639.18  L  1470.25,   452.21  L  1963.17,   452.21  " /><path style="stroke:#FFFFFF;stroke-width:4.53 ;&st6;" d=" M  1368.27,   622.75  L  1368.27,   639.18  L  1470.25,   639.18  L  1470.25,   452.21  L  1963.17,   452.21  " /><path style="stroke:#000000;stroke-width:1.13 ;&st6;" d=" M  1368.27,   622.75  L  1368.27,   639.18  L  1470.25,   639.18  L  1470.25,   452.21  L  1963.17,   452.21  " /></a><a ewd:comment="10" style="cursor:pointer;" ewd:lineID="31"><path style="stroke:#00A0C6;stroke-width:5.10 ;&st6;" d=" M  1402.27,   477.14  L  1402.27,   348.24  " /><path style="stroke:#FFFFFF;stroke-width:2.27 ;&st6;" d=" M  1402.27,   477.14  L  1402.27,   348.24  " /><path style="stroke:#FF7F00;stroke-width:1.13 ;&st6;" d=" M  1402.27,   477.14  L  1402.27,   348.24  " /></a><a style="cursor:pointer;" ewd:lineID="32"><path style="stroke:#00A0C6;stroke-width:5.10 ;&st6;" d=" M  1402.27,   263.26  L  1402.27,   333.23  " /><path style="stroke:#FFFFFF;stroke-width:2.27 ;&st6;" d=" M  1402.27,   263.26  L  1402.27,   333.23  " /><path style="stroke:#FF7F00;stroke-width:1.13 ;&st6;" d=" M  1402.27,   263.26  L  1402.27,   333.23  " /></a><a style="cursor:pointer;" ewd:lineID="33"><path style="stroke:#00A0C6;stroke-width:5.10 ;&st6;" d=" M  1402.27,   183.09  L  1402.27,   248.24  " /><path style="stroke:#FFFFFF;stroke-width:2.27 ;&st6;" d=" M  1402.27,   183.09  L  1402.27,   248.24  " /><path style="stroke:#FF7F00;stroke-width:1.13 ;&st6;" d=" M  1402.27,   183.09  L  1402.27,   248.24  " /></a><a ewd:comment="9" style="cursor:pointer;" ewd:lineID="34"><path style="stroke:#00A0C6;stroke-width:5.10 ;&st6;" d=" M  1631.73,   325.30  L  1631.73,   367.22  L  1419.26,   367.22  L  1402.27,   350.23  L  1402.27,   348.24  " /><path style="stroke:#FFFFFF;stroke-width:2.27 ;&st6;" d=" M  1631.73,   325.30  L  1631.73,   367.22  L  1419.26,   367.22  L  1402.27,   350.23  L  1402.27,   348.24  " /><path style="stroke:#FF7F00;stroke-width:1.13 ;&st6;" d=" M  1631.73,   325.30  L  1631.73,   367.22  L  1419.26,   367.22  L  1402.27,   350.23  L  1402.27,   348.24  " /></a><a ewd:comment="9" style="cursor:pointer;" ewd:lineID="35"><path style="stroke:#FF0000;stroke-width:5.10 ;&st6;" d=" M  1818.70,   325.30  L  1818.70,   384.22  L  1291.78,   384.22  L  1291.78,   350.23  L  1274.79,   333.23  L  1274.79,   330.96  " /></a><a ewd:comment="9" style="cursor:pointer;" ewd:lineID="36"><path style="stroke:#00A0C6;stroke-width:5.10 ;&st6;" d=" M  1869.69,   325.30  L  1869.69,   401.22  L  1257.79,   401.22  L  1257.79,   350.23  L  1240.79,   333.23  L  1240.79,   330.96  " /></a><a ewd:comment="9" style="cursor:pointer;" ewd:lineID="37"><path style="stroke:#00A0C6;stroke-width:5.10 ;&st6;" d=" M  1912.18,   325.30  L  1912.18,   418.22  L  1223.80,   418.22  L  1223.80,   350.23  L  1206.80,   333.23  L  1206.80,   331.25  " /><path style="stroke:#FFFFFF;stroke-width:2.27 ;&st6;" d=" M  1912.18,   325.30  L  1912.18,   418.22  L  1223.80,   418.22  L  1223.80,   350.23  L  1206.80,   333.23  L  1206.80,   331.25  " /><path style="stroke:#000000;stroke-width:1.13 ;&st6;" d=" M  1912.18,   325.30  L  1912.18,   418.22  L  1223.80,   418.22  L  1223.80,   350.23  L  1206.80,   333.23  L  1206.80,   331.25  " /></a><a ewd:comment="9" style="cursor:pointer;" ewd:lineID="38"><path style="stroke:#00A0C6;stroke-width:5.10 ;&st6;" d=" M  1937.68,   325.30  L  1937.68,   435.21  L  1189.80,   435.21  L  1189.80,   350.23  L  1172.80,   333.23  L  1172.80,   331.25  " /><path style="stroke:#FFFFFF;stroke-width:2.27 ;&st6;" d=" M  1937.68,   325.30  L  1937.68,   435.21  L  1189.80,   435.21  L  1189.80,   350.23  L  1172.80,   333.23  L  1172.80,   331.25  " /><path style="stroke:#FF0000;stroke-width:1.13 ;&st6;" d=" M  1937.68,   325.30  L  1937.68,   435.21  L  1189.80,   435.21  L  1189.80,   350.23  L  1172.80,   333.23  L  1172.80,   331.25  " /></a><a style="cursor:pointer;" ewd:lineID="39"><path style="stroke:#000000;stroke-width:5.10 ;&st6;" d=" M  1963.17,   537.20  L  1920.68,   537.20  L  1920.68,   681.67  " /><path style="stroke:#FFFFFF;stroke-width:4.53 ;&st6;" d=" M  1963.17,   537.20  L  1920.68,   537.20  L  1920.68,   681.67  " /><path style="stroke:#000000;stroke-width:1.13 ;&st6;" d=" M  1963.17,   537.20  L  1920.68,   537.20  L  1920.68,   681.67  " /></a><a style="cursor:pointer;" ewd:lineID="40"><path style="stroke:#000000;stroke-width:5.10 ;&st6;" d=" M  1971.67,   545.69  L  1971.67,   681.67  " /><path style="stroke:#FFFFFF;stroke-width:4.53 ;&st6;" d=" M  1971.67,   545.69  L  1971.67,   681.67  " /><path style="stroke:#000000;stroke-width:1.13 ;&st6;" d=" M  1971.67,   545.69  L  1971.67,   681.67  " /></a><a style="cursor:pointer;" ewd:lineID="41"><path style="stroke:#000000;stroke-width:5.10 ;&st6;" d=" M  1971.67,   460.71  L  1971.67,   528.70  " /><path style="stroke:#FFFFFF;stroke-width:4.53 ;&st6;" d=" M  1971.67,   460.71  L  1971.67,   528.70  " /><path style="stroke:#000000;stroke-width:1.13 ;&st6;" d=" M  1971.67,   460.71  L  1971.67,   528.70  " /></a><a ewd:comment="9" style="cursor:pointer;" ewd:lineID="42"><path style="stroke:#000000;stroke-width:5.10 ;&st6;" d=" M  1971.67,   325.30  L  1971.67,   443.71  " /><path style="stroke:#FFFFFF;stroke-width:4.53 ;&st6;" d=" M  1971.67,   325.30  L  1971.67,   443.71  " /><path style="stroke:#000000;stroke-width:1.13 ;&st6;" d=" M  1971.67,   325.30  L  1971.67,   443.71  " /></a><a ewd:figtype="w2w" style="cursor:pointer;" ewd:pinNo="2" ewd:code="AI3" ewd:figID="19"><path style="&st2;" d=" M   628.89,   146.26  L   611.90,   146.26  L   611.90,   154.76  L   628.89,   154.76  L   628.89,   146.26 " /><text style="&st8;" transform="matrix(&st16;  616.03  152.63 )"><tspan x="0" style="&st18;" y="0">AI3</tspan></text></a><a ewd:figtype="w2w" style="cursor:pointer;" ewd:pinNo="40" ewd:code="AI3" ewd:figID="20"><path style="&st2;" d=" M   824.36,   358.73  L   807.37,   358.73  L   807.37,   367.22  L   824.36,   367.22  L   824.36,   358.73 " /><text style="&st8;" transform="matrix(&st16;  811.5  365.09 )"><tspan x="0" style="&st18;" y="0">AI3</tspan></text></a><a ewd:figtype="w2w" style="cursor:pointer;" ewd:pinNo="42" ewd:code="AI3" ewd:figID="21"><path style="&st2;" d=" M   824.36,   350.23  L   807.37,   350.23  L   807.37,   358.73  L   824.36,   358.73  L   824.36,   350.23 " /><text style="&st8;" transform="matrix(&st16;  811.5  356.6 )"><tspan x="0" style="&st18;" y="0">AI3</tspan></text></a><a ewd:figtype="w2w" style="cursor:pointer;" ewd:pinNo="44" ewd:code="AI3" ewd:figID="22"><path style="&st2;" d=" M   875.35,   358.73  L   858.36,   358.73  L   858.36,   367.22  L   875.35,   367.22  L   875.35,   358.73 " /><text style="&st8;" transform="matrix(&st16;  862.49  365.09 )"><tspan x="0" style="&st18;" y="0">AI3</tspan></text></a><a ewd:figtype="w2w" style="cursor:pointer;" ewd:pinNo="1" ewd:code="AI2" ewd:figID="23"><path style="&st2;" d=" M   875.35,   350.23  L   858.36,   350.23  L   858.36,   358.73  L   875.35,   358.73  L   875.35,   350.23 " /><text style="&st8;" transform="matrix(&st16;  862.49  356.6 )"><tspan x="0" style="&st18;" y="0">AI2</tspan></text></a><a ewd:figtype="w2w" style="cursor:pointer;" ewd:pinNo="3" ewd:code="AI3" ewd:figID="24"><path style="&st2;" d=" M   917.85,   358.73  L   900.85,   358.73  L   900.85,   367.22  L   917.85,   367.22  L   917.85,   358.73 " /><text style="&st8;" transform="matrix(&st16;  904.98  365.09 )"><tspan x="0" style="&st18;" y="0">AI3</tspan></text></a><a ewd:figtype="w2w" style="cursor:pointer;" ewd:pinNo="40" ewd:code="IL1" ewd:figID="25"><path style="&st2;" d=" M  1181.30,   316.23  L  1164.31,   316.23  L  1164.31,   324.73  L  1181.30,   324.73  L  1181.30,   316.23 " /><text style="&st8;" transform="matrix(&st16;  1168.67  322.6 )"><tspan x="0" style="&st18;" y="0">IL1</tspan></text></a><a ewd:figtype="w2w" style="cursor:pointer;" ewd:pinNo="2" ewd:code="IL1" ewd:figID="26"><path style="&st2;" d=" M  1215.30,   316.23  L  1198.30,   316.23  L  1198.30,   324.73  L  1215.30,   324.73  L  1215.30,   316.23 " /><text style="&st8;" transform="matrix(&st16;  1202.66  322.6 )"><tspan x="0" style="&st18;" y="0">IL1</tspan></text></a><a ewd:figtype="w2w" style="cursor:pointer;" ewd:pinNo="41" ewd:code="IL1" ewd:figID="27"><path style="&st2;" d=" M  1249.29,   316.23  L  1232.29,   316.23  L  1232.29,   324.73  L  1249.29,   324.73  L  1249.29,   316.23 " /><text style="&st8;" transform="matrix(&st16;  1236.65  322.6 )"><tspan x="0" style="&st18;" y="0">IL1</tspan></text></a><a ewd:figtype="w2w" style="cursor:pointer;" ewd:pinNo="3" ewd:code="IL1" ewd:figID="28"><path style="&st2;" d=" M  1283.29,   316.23  L  1266.29,   316.23  L  1266.29,   324.73  L  1283.29,   324.73  L  1283.29,   316.23 " /><text style="&st8;" transform="matrix(&st16;  1270.65  322.6 )"><tspan x="0" style="&st18;" y="0">IL1</tspan></text></a><a ewd:figtype="w2w" style="cursor:pointer;" ewd:pinNo="42" ewd:code="IL1" ewd:figID="29"><path style="&st2;" d=" M  1410.76,   333.23  L  1393.77,   333.23  L  1393.77,   341.73  L  1410.76,   341.73  L  1410.76,   333.23 " /><text style="&st8;" transform="matrix(&st16;  1398.13  339.6 )"><tspan x="0" style="&st18;" y="0">IL1</tspan></text></a><a ewd:figtype="w2w" style="cursor:pointer;" ewd:pinNo="43" ewd:code="AI3" ewd:figID="30"><path style="&st2;" d=" M  1410.76,   248.24  L  1393.77,   248.24  L  1393.77,   256.74  L  1410.76,   256.74  L  1410.76,   248.24 " /><text style="&st8;" transform="matrix(&st16;  1397.9  254.61 )"><tspan x="0" style="&st18;" y="0">AI3</tspan></text></a><a ewd:figtype="gp" style="cursor:pointer;" ewd:code="IC" ewd:figID="31"><path style="&st2;" d=" M   244.33,   681.67  L   265.58,   681.67  L   254.96,   697.25  L   244.33,   681.67 " /><text style="&st8;" transform="matrix(&st16;  251.99  689.46 )"><tspan x="0" style="&st18;" y="0">IC</tspan></text></a><a ewd:figtype="gp" style="cursor:pointer;" ewd:code="AA" ewd:figID="32"><path style="&st2;" d=" M   754.25,   681.67  L   775.50,   681.67  L   764.87,   697.25  L   754.25,   681.67 " /><text style="&st8;" transform="matrix(&st16;  760.88  689.46 )"><tspan x="0" style="&st18;" y="0">AA</tspan></text></a><a ewd:figtype="gp" style="cursor:pointer;" ewd:code="LB" ewd:figID="33"><path style="&st2;" d=" M  1910.06,   681.67  L  1931.30,   681.67  L  1920.68,   697.25  L  1910.06,   681.67 " /><text style="&st8;" transform="matrix(&st16;  1917.03  689.46 )"><tspan x="0" style="&st18;" y="0">LB</tspan></text></a><a ewd:figtype="gp" style="cursor:pointer;" ewd:code="LA" ewd:figID="34"><path style="&st2;" d=" M  1961.05,   681.67  L  1982.29,   681.67  L  1971.67,   697.25  L  1961.05,   681.67 " /><text style="&st8;" transform="matrix(&st16;  1967.91  689.46 )"><tspan x="0" style="&st18;" y="0">LA</tspan></text></a><a ewd:figtype="sp" style="cursor:pointer;" ewd:code="SP66" ewd:figID="35"><path style="&st2;" d=" M   250.71,   511.70  L   259.21,   511.70  L   263.46,   515.95  L   263.46,   524.45  L   259.21,   528.70  L   250.71,   528.70  L   246.46,   524.45  L   246.46,   515.95  L   250.71,   511.70 " /></a><a ewd:figtype="sp" style="cursor:pointer;" ewd:code="SP9" ewd:figID="36"><path style="&st2;" d=" M   760.62,    86.77  L   769.12,    86.77  L   773.37,    91.02  L   773.37,    99.52  L   769.12,   103.77  L   760.62,   103.77  L   756.37,    99.52  L   756.37,    91.02  L   760.62,    86.77 " /></a><a ewd:figtype="sp" style="cursor:pointer;" ewd:code="SP82" ewd:figID="37"><path style="&st2;" d=" M  1967.42,   443.71  L  1975.92,   443.71  L  1980.17,   447.96  L  1980.17,   456.46  L  1975.92,   460.71  L  1967.42,   460.71  L  1963.17,   456.46  L  1963.17,   447.96  L  1967.42,   443.71 " /></a></g></svg>