<?xml version="1.0" encoding="utf-8"?>
<!DOCTYPE svg PUBLIC "-//W3C//DTD SVG 1.0//EN" "http://www.w3.org/TR/2001/REC-SVG-20010904/DTD/svg10.dtd"[
	<!ENTITY ns_flows "http://ns.adobe.com/Flows/1.0/">
	<!ENTITY ns_svg "http://www.w3.org/2000/svg">
	<!ENTITY ns_xlink "http://www.w3.org/1999/xlink">
	<!ENTITY st0 "font-size:7px;font-family:'MS-PGothic';adobe-font-script:japanese;">
	<!ENTITY st1 "font-size:6px;font-family:'ArialMT';">
	<!-- White fill  -->
	<!ENTITY st2 "fill:#FFFFFF;stroke:#000000; stroke-width:1.41;stroke-linecap:round;stroke-linejoin:round;">
	<!-- Yellow fill  -->
	<!ENTITY st3 "fill:#FFFFCC;stroke:#FFFFCC; stroke-width:0.1;stroke-linecap:round;stroke-linejoin:round;">
	<!-- Gray fill  -->
	<!ENTITY st4 "fill:#CCCCCC;stroke:#CCCCCC; stroke-width:0.1;stroke-linecap:round;stroke-linejoin:round;">
	<!-- Light-blue fill -->
	<!ENTITY st5 "fill:#CCECF4;stroke:#000000; stroke-width:1.133;stroke-linecap:round;stroke-linejoin:round;">
	<!ENTITY st6 "fill:none;stroke-linecap:butt; stroke-linejoin:round;">
	<!ENTITY st7 "fill:none;stroke:#000000;stroke-linecap:round;stroke-linejoin:round;">
	<!ENTITY st8 "enable-background:new    ;">
	<!-- Black fill -->
	<!ENTITY st9 "fill:#000000;stroke:#000000; stroke-linecap:round;stroke-linejoin:round;">
	<!-- SRS note   -->
	<!ENTITY st10 "font-size:9px;font-family:'ArialMT';">
	<!ENTITY st11 "font-size:9px;font-family:'Svg Symbol';">
	<!ENTITY st12 "font-size:6px;font-family:'Svg Symbol';">
	<!ENTITY st13 "fill:none;stroke:#ff0000;stroke-linecap:round;stroke-linejoin:round;">
	<!-- Yellow fill  -->
	<!ENTITY st14 "fill:#FFFF00;stroke:#FFFF00; stroke-width:0.1;stroke-linecap:round;stroke-linejoin:round;">
	<!ENTITY st15 "font-size:6px;font-family:'MS-PGothic';adobe-font-script:japanese;">
	<!ENTITY st16 "1.00 0.00 0.00 1.00">
	<!ENTITY st17 "0.00 -1.00 1.00 0.00">
	<!ENTITY st18 "font-size:6px;font-family:'Arial';">
	<!ENTITY st19 "font-size:9px;font-family:'Arial';">
	<!ENTITY st20 "font-size:6px;font-family:'MS-PGothic','MS PGothic';adobe-font-script:japanese;">
	<!ENTITY st21 "font-size:7px;font-family:'MS-PGothic','MS PGothic';adobe-font-script:japanese;">
	<!ATTLIST svg
		xmlns:ewd CDATA #FIXED "http://shcl.co.jp/ewd"
		xmlns:a CDATA #FIXED "http://ns.adobe.com/AdobeSVGViewerExtensions/3.0/"
		ewd:ver CDATA #IMPLIED
	>
	<!ATTLIST a
		ewd:lineID CDATA #IMPLIED
		ewd:groupID CDATA #IMPLIED
		ewd:figtype CDATA #IMPLIED
		ewd:code CDATA #IMPLIED
		ewd:figID CDATA #IMPLIED
		ewd:pinNo CDATA #IMPLIED
		ewd:comment CDATA #IMPLIED >
	<!ATTLIST g
		ewd:lineID CDATA #IMPLIED
		ewd:groupID CDATA #IMPLIED
		ewd:figtype CDATA #IMPLIED
		ewd:code CDATA #IMPLIED
		ewd:figID CDATA #IMPLIED
		ewd:pinNo CDATA #IMPLIED
		ewd:comment CDATA #IMPLIED >
	<!ATTLIST text
		ewd:textID CDATA #IMPLIED >
	<!ATTLIST title
		ewd:textID CDATA #IMPLIED >
]>
<!-- Generator: Shintec Hozumi YS   -->
<svg onload="call_execInitLoadProc_svg('system')" style="overflow:visible;  enable-background:new 0 0 7768.410 710.000" viewBox="0 0 7768.410 710.000" height="710.000" width="7768.410" xml:space="preserve" ewd:ver="2.1.2.9" xmlns="&ns_svg;" xmlns:a="http://ns.adobe.com/AdobeSVGViewerExtensions/3.0/" xmlns:ewd="http://shcl.co.jp/ewd" xmlns:xlink="&ns_xlink;">
<text style="&st18;" transform="matrix(&st16;  3119.82  571.72 )">A3</text><text style="&st18;" transform="matrix(&st16;  3119.82  537.72 )">A1</text><text style="&st18;" transform="matrix(&st16;  3119.82  503.73 )">A38</text><path style="stroke-width:1.42 ;&st7;  " d=" M  3271.95,   159.01  L  3271.95,   163.26  " /><text style="&st18;" transform="matrix(&st16;  3119.82  197.78 )">A11</text><text style="&st18;" transform="matrix(&st16;  3119.82  163.79 )">m3</text><text style="&st18;" transform="matrix(&st16;  3119.82  61.8 )">A15</text><text style="&st18;" transform="matrix(&st16;  3307.99  57.58 )">W-B</text><text style="&st18;" transform="matrix(&st16;  3223.01  159.56 )">W-B</text><text style="&st18;" transform="matrix(&st16;  3307.99  193.56 )">W-B</text><text style="&st18;" transform="matrix(&st16;  3307.99  159.56 )">W-B</text><text style="&st18;" transform="matrix(&st16;  3299.49  363.53 )">W-B</text><text style="&st18;" transform="matrix(&st16;  3299.49  397.52 )">W-B</text><text style="&st18;" transform="matrix(&st16;  3299.49  431.52 )">W-B</text><text style="&st18;" transform="matrix(&st16;  3299.49  499.5 )">W-B</text><text style="&st18;" transform="matrix(&st16;  3299.49  533.5 )">W-B</text><text style="&st18;" transform="matrix(&st16;  3299.49  567.49 )">W-B</text><text style="&st18;" transform="matrix(&st16;  3119.82  655.31 )" ewd:textID="39">Brake Actuator <tspan x="0 " dy="6.0">Assembly</tspan></text><text style="&st18;" transform="matrix(&st17;  3446.73  624.6 )">W-B(*1)</text><text style="&st18;" transform="matrix(&st17;  3463.73  619.64 )">W-B</text><text style="&st18;" transform="matrix(&st16;  3119.82  614.21 )">A20</text><text style="&st18;" transform="matrix(&st16;  3119.82  621.32 )" ewd:textID="39">Brake Actuator <tspan x="0 " dy="6.0">Assembly</tspan></text><text style="&st18;" transform="matrix(&st16;  3231.51  609.99 )">W-B</text><text style="&st18;" transform="matrix(&st16;  3367.48  609.99 )">W-B</text><text style="&st18;" transform="matrix(&st16;  3299.49  465.51 )">W-B</text><text style="&st18;" transform="matrix(&st16;  3078.53  23.58 )">W-B</text><text style="&st18;" transform="matrix(&st16;  3129.52  23.58 )">W-B</text><text style="&st18;" transform="matrix(&st16;  3119.82  170.89 )" ewd:textID="105">No. 1 Magnet <tspan x="0 " dy="6.0">Switch Assembly</tspan></text><text style="&st18;" transform="matrix(&st16;  3119.82  68.91 )" ewd:textID="40">Brake Fluid Level <tspan x="0 " dy="6.0">Warning Switch </tspan><tspan x="0 " dy="6.0">(Brake Master </tspan><tspan x="0 " dy="6.0"> Cylinder Reservoir </tspan><tspan x="0 " dy="6.0"> Sub-Assembly)</tspan></text><text style="&st18;" transform="matrix(&st16;  3043.34  383.36 )" ewd:textID="38">Battery (Sub)</text><text style="&st18;" transform="matrix(&st16;  3043.33  376.25 )">F2</text><text style="&st18;" transform="matrix(&st16;  3224.25  170.89 )">(*1)</text><text style="&st18;" transform="matrix(&st16;  3303.65  170.89 )">(*1 *40)</text><text style="&st18;" transform="matrix(&st16;  3079.77  34.92 )">(*2)</text><text style="&st18;" transform="matrix(&st16;  3130.76  34.92 )">(*2)</text><text style="&st18;" transform="matrix(&st16;  3303.65  68.91 )">(*1 *40)</text><text style="&st18;" transform="matrix(&st16;  3303.65  204.89 )">(*1 *31)</text><text style="&st18;" transform="matrix(&st17;  3475.06  618.4 )">(*1)</text><text style="&st18;" transform="matrix(&st16;  3300.74  374.86 )">(*1)</text><text style="&st18;" transform="matrix(&st16;  3300.74  408.85 )">(*1)</text><text style="&st18;" transform="matrix(&st16;  3300.74  442.85 )">(*1)</text><text style="&st18;" transform="matrix(&st16;  3300.74  476.84 )">(*1)</text><text style="&st18;" transform="matrix(&st16;  3300.74  510.84 )">(*1)</text><text style="&st18;" transform="matrix(&st16;  3300.74  544.83 )">(*1)</text><text style="&st18;" transform="matrix(&st16;  3300.74  578.82 )">(*1)</text><text style="&st18;" transform="matrix(&st16;  3119.82  544.83 )" ewd:textID="79">Headlight Assembly LH</text><text style="&st18;" transform="matrix(&st16;  3119.82  578.82 )" ewd:textID="79">Headlight Assembly LH</text><text style="&st18;" transform="matrix(&st16;  3119.82  510.84 )" ewd:textID="79">Headlight Assembly LH</text><text style="&st18;" transform="matrix(&st16;  3119.82  204.89 )" ewd:textID="136">Side Turn Signal <tspan x="0 " dy="6.0">Light Assembly LH</tspan></text><text style="&st18;" transform="matrix(&st16;  3227.16  621.32 )">(*1 *40)</text><text style="&st18;" transform="matrix(&st16;  3368.72  621.32 )">(*1)</text><text style="&st18;" transform="matrix(&st16;  3227.16  655.31 )">(*1 *39)</text><text style="&st18;" transform="matrix(&st16;  3384.48  117.07 )">W-B</text><text style="&st18;" transform="matrix(&st16;  3119.82  648.21 )">A42</text><text style="&st18;" transform="matrix(&st16;  3380.14  128.4 )">(*1 *39)</text><text style="&st18;" transform="matrix(&st16;  3303.65  102.9 )">(*1 *39)</text><text style="&st18;" transform="matrix(&st16;  3307.99  91.57 )">W-B</text><text style="&st18;" transform="matrix(&st16;  3303.65  128.4 )">(*1 *39)</text><text style="&st18;" transform="matrix(&st16;  3307.99  117.07 )">W-B</text><text style="&st18;" transform="matrix(&st16;  3231.51  643.98 )">W-B</text><text style="&st18;" transform="matrix(&st16;  3194.29  573.16 )">(E)</text><path style="stroke-width:1.42 ;&st7;  " d=" M  3118.98,   562.69  L  3118.98,   588.19  L  3203.96,   588.19  L  3203.96,   562.69  L  3118.98,   562.69  " /><text style="&st18;" transform="matrix(&st16;  3194.13  539.16 )">(B)</text><path style="stroke-width:1.42 ;&st7;  " d=" M  3118.98,   528.70  L  3118.98,   554.19  L  3203.96,   554.19  L  3203.96,   528.70  L  3118.98,   528.70  " /><text style="&st18;" transform="matrix(&st16;  3194.29  505.17 )">(E)</text><path style="stroke-width:1.42 ;&st7;  " d=" M  3118.98,   494.70  L  3118.98,   520.20  L  3203.96,   520.20  L  3203.96,   494.70  L  3118.98,   494.70  " /><text style="&st18;" transform="matrix(&st16;  3194.29  199.22 )">(E)</text><path style="stroke-width:1.42 ;&st7;  " d=" M  3118.98,   188.75  L  3118.98,   214.25  L  3203.96,   214.25  L  3203.96,   188.75  L  3118.98,   188.75  " /><text style="&st18;" transform="matrix(&st16;  3194.29  165.23 )">(E)</text><path style="stroke-width:1.42 ;&st7;  " d=" M  3118.98,   154.76  L  3118.98,   180.26  L  3203.96,   180.26  L  3203.96,   154.76  L  3118.98,   154.76  " /><text style="&st18;" transform="matrix(&st16;  3194.29  63.24 )">(E)</text><path style="stroke-width:1.42 ;&st7;  " d=" M  3118.98,    52.78  L  3118.98,   103.77  L  3203.96,   103.77  L  3203.96,    52.78  L  3118.98,    52.78  " /><path style="stroke-width:1.42 ;&st7;  " d=" M  3118.98,   605.18  L  3118.98,   630.68  L  3203.96,   630.68  L  3203.96,   605.18  L  3118.98,   605.18  " /><text style="&st18;" transform="matrix(&st16;  3182.11  615.65 )">(GND2)</text><text style="&st18;" transform="matrix(&st16;  3018.73  377.69 )">(GND)</text><path style="stroke-width:1.42 ;&st7;  " d=" M  3016.99,   367.22  L  3016.99,   392.72  L  3101.98,   392.72  L  3101.98,   367.22  L  3016.99,   367.22  " /><text style="&st18;" transform="matrix(&st16;  3182.11  649.65 )">(GND2)</text><path style="stroke-width:1.42 ;&st7;  " d=" M  3118.98,   639.18  L  3118.98,   664.67  L  3203.96,   664.67  L  3203.96,   639.18  L  3118.98,   639.18  " /><g ewd:figtype="conn" ewd:figID="4" ewd:code="A22"><path style="stroke-width:1.42 ;&st7;  " d=" M  3382.43,   358.73  L  3382.43,   579.69  L  3399.43,   579.69  L  3399.43,   358.73  L  3382.43,   358.73  " /><path style="stroke-width:0.85 ;&st7;  " d=" M  3382.43,   571.19  L  3399.43,   571.19  " /><path style="stroke-width:0.85 ;&st7;  " d=" M  3382.43,   367.22  L  3390.93,   367.22  L  3390.93,   571.19  " /><path style="stroke-width:0.85 ;&st7;  " d=" M  3382.43,   401.22  L  3390.93,   401.22  " /><path style="stroke-width:0.85 ;&st7;  " d=" M  3382.43,   435.21  L  3390.93,   435.21  " /><path style="stroke-width:0.85 ;&st7;  " d=" M  3382.43,   503.20  L  3390.93,   503.20  " /><path style="stroke-width:0.85 ;&st7;  " d=" M  3382.43,   537.20  L  3390.93,   537.20  " /><path style="stroke-width:0.85 ;&st7;  " d=" M  3389.74,   400.22  L  3389.47,   400.69  L  3389.37,   401.22  L  3389.47,   401.75  L  3389.74,   402.22  L  3390.15,   402.57  L  3390.66,   402.75  L  3391.20,   402.75  L  3391.71,   402.57  L  3392.12,   402.22  L  3392.40,   401.75  L  3392.49,   401.22  L  3392.40,   400.69  L  3392.12,   400.22  L  3391.71,   399.87  L  3391.20,   399.68  L  3390.66,   399.68  L  3390.15,   399.87  L  3389.74,   400.22  L  3390.13,   400.93  L  3390.13,   401.51  L  3390.51,   401.95  L  3391.08,   402.05  L  3391.58,   401.77  L  3391.78,   401.22  L  3391.58,   400.67  L  3391.08,   400.38  L  3390.51,   400.48  L  3390.93,   401.22  " /><path style="stroke-width:0.85 ;&st7;  " d=" M  3389.74,   434.21  L  3389.47,   434.68  L  3389.37,   435.21  L  3389.47,   435.75  L  3389.74,   436.22  L  3390.15,   436.56  L  3390.66,   436.75  L  3391.20,   436.75  L  3391.71,   436.56  L  3392.12,   436.22  L  3392.40,   435.75  L  3392.49,   435.21  L  3392.40,   434.68  L  3392.12,   434.21  L  3391.71,   433.86  L  3391.20,   433.68  L  3390.66,   433.68  L  3390.15,   433.86  L  3389.74,   434.21  L  3390.13,   434.92  L  3390.13,   435.50  L  3390.51,   435.95  L  3391.08,   436.05  L  3391.58,   435.76  L  3391.78,   435.21  L  3391.58,   434.67  L  3391.08,   434.38  L  3390.51,   434.48  L  3390.93,   435.21  " /><path style="stroke-width:0.85 ;&st7;  " d=" M  3389.74,   502.20  L  3389.47,   502.67  L  3389.37,   503.20  L  3389.47,   503.73  L  3389.74,   504.20  L  3390.15,   504.55  L  3390.66,   504.74  L  3391.20,   504.74  L  3391.71,   504.55  L  3392.12,   504.20  L  3392.40,   503.73  L  3392.49,   503.20  L  3392.40,   502.67  L  3392.12,   502.20  L  3391.71,   501.85  L  3391.20,   501.67  L  3390.66,   501.67  L  3390.15,   501.85  L  3389.74,   502.20  L  3390.13,   502.91  L  3390.13,   503.49  L  3390.51,   503.94  L  3391.08,   504.04  L  3391.58,   503.75  L  3391.78,   503.20  L  3391.58,   502.65  L  3391.08,   502.37  L  3390.51,   502.46  L  3390.93,   503.20  " /><path style="stroke-width:0.85 ;&st7;  " d=" M  3389.74,   536.19  L  3389.47,   536.66  L  3389.37,   537.20  L  3389.47,   537.73  L  3389.74,   538.20  L  3390.15,   538.54  L  3390.66,   538.73  L  3391.20,   538.73  L  3391.71,   538.54  L  3392.12,   538.20  L  3392.40,   537.73  L  3392.49,   537.20  L  3392.40,   536.66  L  3392.12,   536.19  L  3391.71,   535.85  L  3391.20,   535.66  L  3390.66,   535.66  L  3390.15,   535.85  L  3389.74,   536.19  L  3390.13,   536.90  L  3390.13,   537.49  L  3390.51,   537.93  L  3391.08,   538.03  L  3391.58,   537.74  L  3391.78,   537.20  L  3391.58,   536.65  L  3391.08,   536.36  L  3390.51,   536.46  L  3390.93,   537.20  " /><path style="stroke-width:0.85 ;&st7;  " d=" M  3389.74,   570.19  L  3389.47,   570.66  L  3389.37,   571.19  L  3389.47,   571.72  L  3389.74,   572.19  L  3390.15,   572.54  L  3390.66,   572.73  L  3391.20,   572.73  L  3391.71,   572.54  L  3392.12,   572.19  L  3392.40,   571.72  L  3392.49,   571.19  L  3392.40,   570.66  L  3392.12,   570.19  L  3391.71,   569.84  L  3391.20,   569.65  L  3390.66,   569.65  L  3390.15,   569.84  L  3389.74,   570.19  L  3390.13,   570.90  L  3390.13,   571.48  L  3390.51,   571.93  L  3391.08,   572.03  L  3391.58,   571.74  L  3391.78,   571.19  L  3391.58,   570.64  L  3391.08,   570.35  L  3390.51,   570.45  L  3390.93,   571.19  " /><path style="stroke-width:0.85 ;&st7;  " d=" M  3382.43,   469.21  L  3390.93,   469.21  " /><path style="stroke-width:0.85 ;&st7;  " d=" M  3389.74,   468.20  L  3389.47,   468.67  L  3389.37,   469.21  L  3389.47,   469.74  L  3389.74,   470.21  L  3390.15,   470.56  L  3390.66,   470.74  L  3391.20,   470.74  L  3391.71,   470.56  L  3392.12,   470.21  L  3392.40,   469.74  L  3392.49,   469.21  L  3392.40,   468.67  L  3392.12,   468.20  L  3391.71,   467.86  L  3391.20,   467.67  L  3390.66,   467.67  L  3390.15,   467.86  L  3389.74,   468.20  L  3390.13,   468.92  L  3390.13,   469.50  L  3390.51,   469.94  L  3391.08,   470.04  L  3391.58,   469.75  L  3391.78,   469.21  L  3391.58,   468.66  L  3391.08,   468.37  L  3390.51,   468.47  L  3390.93,   469.21  " /><path style="stroke-width:1.42 ;&st7;   " d=" M  3382.43,   367.22  C  3382.43    364.72   3380.41    362.69   3377.90    362.69  " /><path style="stroke-width:1.42 ;&st7;   " d=" M  3377.90,   362.69  C  3375.40    362.69   3373.37    364.72   3373.37    367.22  " /><path style="stroke-width:1.42 ;&st7;   " d=" M  3373.37,   367.22  C  3373.37    369.73   3375.40    371.76   3377.90    371.76  " /><path style="stroke-width:1.42 ;&st7;   " d=" M  3377.90,   371.76  C  3380.41    371.76   3382.43    369.73   3382.43    367.22  " /><path style="stroke-width:1.42 ;&st7;   " d=" M  3382.43,   401.22  C  3382.43    398.72   3380.41    396.69   3377.90    396.69  " /><path style="stroke-width:1.42 ;&st7;   " d=" M  3377.90,   396.69  C  3375.40    396.69   3373.37    398.72   3373.37    401.22  " /><path style="stroke-width:1.42 ;&st7;   " d=" M  3373.37,   401.22  C  3373.37    403.72   3375.40    405.75   3377.90    405.75  " /><path style="stroke-width:1.42 ;&st7;   " d=" M  3377.90,   405.75  C  3380.41    405.75   3382.43    403.72   3382.43    401.22  " /><path style="stroke-width:1.42 ;&st7;   " d=" M  3382.43,   435.21  C  3382.43    432.71   3380.41    430.68   3377.90    430.68  " /><path style="stroke-width:1.42 ;&st7;   " d=" M  3377.90,   430.68  C  3375.40    430.68   3373.37    432.71   3373.37    435.21  " /><path style="stroke-width:1.42 ;&st7;   " d=" M  3373.37,   435.21  C  3373.37    437.72   3375.40    439.75   3377.90    439.75  " /><path style="stroke-width:1.42 ;&st7;   " d=" M  3377.90,   439.75  C  3380.41    439.75   3382.43    437.72   3382.43    435.21  " /><path style="stroke-width:1.42 ;&st7;   " d=" M  3382.43,   469.21  C  3382.43    466.70   3380.41    464.67   3377.90    464.67  " /><path style="stroke-width:1.42 ;&st7;   " d=" M  3377.90,   464.67  C  3375.40    464.67   3373.37    466.70   3373.37    469.21  " /><path style="stroke-width:1.42 ;&st7;   " d=" M  3373.37,   469.21  C  3373.37    471.71   3375.40    473.74   3377.90    473.74  " /><path style="stroke-width:1.42 ;&st7;   " d=" M  3377.90,   473.74  C  3380.41    473.74   3382.43    471.71   3382.43    469.21  " /><path style="stroke-width:1.42 ;&st7;   " d=" M  3382.43,   503.20  C  3382.43    500.70   3380.41    498.67   3377.90    498.67  " /><path style="stroke-width:1.42 ;&st7;   " d=" M  3377.90,   498.67  C  3375.40    498.67   3373.37    500.70   3373.37    503.20  " /><path style="stroke-width:1.42 ;&st7;   " d=" M  3373.37,   503.20  C  3373.37    505.70   3375.40    507.73   3377.90    507.73  " /><path style="stroke-width:1.42 ;&st7;   " d=" M  3377.90,   507.73  C  3380.41    507.73   3382.43    505.70   3382.43    503.20  " /><path style="stroke-width:1.42 ;&st7;   " d=" M  3382.43,   537.20  C  3382.43    534.69   3380.41    532.66   3377.90    532.66  " /><path style="stroke-width:1.42 ;&st7;   " d=" M  3377.90,   532.66  C  3375.40    532.66   3373.37    534.69   3373.37    537.20  " /><path style="stroke-width:1.42 ;&st7;   " d=" M  3373.37,   537.20  C  3373.37    539.70   3375.40    541.73   3377.90    541.73  " /><path style="stroke-width:1.42 ;&st7;   " d=" M  3377.90,   541.73  C  3380.41    541.73   3382.43    539.70   3382.43    537.20  " /><path style="stroke-width:1.42 ;&st7;   " d=" M  3382.43,   571.19  C  3382.43    568.69   3380.41    566.66   3377.90    566.66  " /><path style="stroke-width:1.42 ;&st7;   " d=" M  3377.90,   566.66  C  3375.40    566.66   3373.37    568.69   3373.37    571.19  " /><path style="stroke-width:1.42 ;&st7;   " d=" M  3373.37,   571.19  C  3373.37    573.69   3375.40    575.72   3377.90    575.72  " /><path style="stroke-width:1.42 ;&st7;   " d=" M  3377.90,   575.72  C  3380.41    575.72   3382.43    573.69   3382.43    571.19  " /><text style="&st18;" transform="matrix(&st16;  3376.1  564.66 )">8</text><path style="stroke-width:1.42 ;&st7;   " d=" M  3382.43,   571.19  C  3382.43    568.69   3380.41    566.66   3377.90    566.66  " /><path style="stroke-width:1.42 ;&st7;   " d=" M  3377.90,   566.66  C  3375.40    566.66   3373.37    568.69   3373.37    571.19  " /><path style="stroke-width:1.42 ;&st7;   " d=" M  3373.37,   571.19  C  3373.37    573.69   3375.40    575.72   3377.90    575.72  " /><path style="stroke-width:1.42 ;&st7;   " d=" M  3377.90,   575.72  C  3380.41    575.72   3382.43    573.69   3382.43    571.19  " /><text style="&st18;" transform="matrix(&st16;  3375.6  573.16 )">A</text><text style="&st18;" transform="matrix(&st16;  3376.1  530.67 )">7</text><path style="stroke-width:1.42 ;&st7;   " d=" M  3382.43,   537.20  C  3382.43    534.69   3380.41    532.66   3377.90    532.66  " /><path style="stroke-width:1.42 ;&st7;   " d=" M  3377.90,   532.66  C  3375.40    532.66   3373.37    534.69   3373.37    537.20  " /><path style="stroke-width:1.42 ;&st7;   " d=" M  3373.37,   537.20  C  3373.37    539.70   3375.40    541.73   3377.90    541.73  " /><path style="stroke-width:1.42 ;&st7;   " d=" M  3377.90,   541.73  C  3380.41    541.73   3382.43    539.70   3382.43    537.20  " /><text style="&st18;" transform="matrix(&st16;  3375.6  539.16 )">A</text><text style="&st18;" transform="matrix(&st16;  3376.1  496.67 )">6</text><path style="stroke-width:1.42 ;&st7;   " d=" M  3382.43,   503.20  C  3382.43    500.70   3380.41    498.67   3377.90    498.67  " /><path style="stroke-width:1.42 ;&st7;   " d=" M  3377.90,   498.67  C  3375.40    498.67   3373.37    500.70   3373.37    503.20  " /><path style="stroke-width:1.42 ;&st7;   " d=" M  3373.37,   503.20  C  3373.37    505.70   3375.40    507.73   3377.90    507.73  " /><path style="stroke-width:1.42 ;&st7;   " d=" M  3377.90,   507.73  C  3380.41    507.73   3382.43    505.70   3382.43    503.20  " /><text style="&st18;" transform="matrix(&st16;  3375.6  505.17 )">A</text><text style="&st18;" transform="matrix(&st16;  3376.1  462.68 )">5</text><text style="&st18;" transform="matrix(&st16;  3375.6  471.18 )">A</text><path style="stroke-width:1.42 ;&st7;   " d=" M  3382.43,   469.21  C  3382.43    466.70   3380.41    464.67   3377.90    464.67  " /><path style="stroke-width:1.42 ;&st7;   " d=" M  3377.90,   464.67  C  3375.40    464.67   3373.37    466.70   3373.37    469.21  " /><path style="stroke-width:1.42 ;&st7;   " d=" M  3373.37,   469.21  C  3373.37    471.71   3375.40    473.74   3377.90    473.74  " /><path style="stroke-width:1.42 ;&st7;   " d=" M  3377.90,   473.74  C  3380.41    473.74   3382.43    471.71   3382.43    469.21  " /><text style="&st18;" transform="matrix(&st16;  3376.1  428.68 )">4</text><text style="&st18;" transform="matrix(&st16;  3375.6  437.18 )">A</text><path style="stroke-width:1.42 ;&st7;   " d=" M  3382.43,   435.21  C  3382.43    432.71   3380.41    430.68   3377.90    430.68  " /><path style="stroke-width:1.42 ;&st7;   " d=" M  3377.90,   430.68  C  3375.40    430.68   3373.37    432.71   3373.37    435.21  " /><path style="stroke-width:1.42 ;&st7;   " d=" M  3373.37,   435.21  C  3373.37    437.72   3375.40    439.75   3377.90    439.75  " /><path style="stroke-width:1.42 ;&st7;   " d=" M  3377.90,   439.75  C  3380.41    439.75   3382.43    437.72   3382.43    435.21  " /><text style="&st18;" transform="matrix(&st16;  3376.1  394.69 )">3</text><text style="&st18;" transform="matrix(&st16;  3375.6  403.19 )">A</text><path style="stroke-width:1.42 ;&st7;   " d=" M  3382.43,   401.22  C  3382.43    398.72   3380.41    396.69   3377.90    396.69  " /><path style="stroke-width:1.42 ;&st7;   " d=" M  3377.90,   396.69  C  3375.40    396.69   3373.37    398.72   3373.37    401.22  " /><path style="stroke-width:1.42 ;&st7;   " d=" M  3373.37,   401.22  C  3373.37    403.72   3375.40    405.75   3377.90    405.75  " /><path style="stroke-width:1.42 ;&st7;   " d=" M  3377.90,   405.75  C  3380.41    405.75   3382.43    403.72   3382.43    401.22  " /><text style="&st18;" transform="matrix(&st16;  3376.1  360.69 )">1</text><text style="&st18;" transform="matrix(&st16;  3375.6  369.19 )">A</text><path style="stroke-width:1.42 ;&st7;   " d=" M  3382.43,   367.22  C  3382.43    364.72   3380.41    362.69   3377.90    362.69  " /><path style="stroke-width:1.42 ;&st7;   " d=" M  3377.90,   362.69  C  3375.40    362.69   3373.37    364.72   3373.37    367.22  " /><path style="stroke-width:1.42 ;&st7;   " d=" M  3373.37,   367.22  C  3373.37    369.73   3375.40    371.76   3377.90    371.76  " /><path style="stroke-width:1.42 ;&st7;   " d=" M  3377.90,   371.76  C  3380.41    371.76   3382.43    369.73   3382.43    367.22  " /><text style="&st18;" transform="matrix(&st16;  3402.16  564.66 )">2</text><text style="&st18;" transform="matrix(&st16;  3401.66  573.16 )">A</text><path style="stroke-width:1.42 ;&st7;   " d=" M  3408.50,   571.19  C  3408.50    568.69   3406.47    566.66   3403.96    566.66  " /><path style="stroke-width:1.42 ;&st7;   " d=" M  3403.96,   566.66  C  3401.46    566.66   3399.43    568.69   3399.43    571.19  " /><path style="stroke-width:1.42 ;&st7;   " d=" M  3399.43,   571.19  C  3399.43    573.69   3401.46    575.72   3403.96    575.72  " /><path style="stroke-width:1.42 ;&st7;   " d=" M  3403.96,   575.72  C  3406.47    575.72   3408.50    573.69   3408.50    571.19  " /><g ewd:figtype="title"><text style="&st18;" transform="matrix(&st17;  3414.15  540.1 )" ewd:textID="104">No. 1 Junction <tspan x="0 " dy="6.0">Connector</tspan></text><text style="&st18;" transform="matrix(&st17;  3407.33  540.09 )">A22(A)</text></g></g><g ewd:figtype="conn" ewd:figID="5" ewd:code="A27,A28"><path style="stroke-width:1.42 ;&st7;  " d=" M  3280.45,   605.18  L  3280.45,   622.18  L  3297.45,   622.18  L  3297.45,   605.18  L  3280.45,   605.18  " /><path style="stroke-width:1.42 ;&st7;  " d=" M  3288.95,   605.18  L  3288.95,   622.18  " /><path style="stroke-width:1.42 ;&st7;   " d=" M  3280.45,   613.68  C  3280.45    611.18   3278.42    609.15   3275.92    609.15  " /><path style="stroke-width:1.42 ;&st7;   " d=" M  3275.92,   609.15  C  3273.42    609.15   3271.39    611.18   3271.39    613.68  " /><path style="stroke-width:1.42 ;&st7;   " d=" M  3271.39,   613.68  C  3271.39    616.19   3273.42    618.22   3275.92    618.22  " /><path style="stroke-width:1.42 ;&st7;   " d=" M  3275.92,   618.22  C  3278.42    618.22   3280.45    616.19   3280.45    613.68  " /><text style="&st18;" transform="matrix(&st16;  3274.12  607.15 )">2</text><text style="&st18;" transform="matrix(&st16;  3273.73  615.65 )">B</text><path style="stroke-width:1.42 ;&st7;   " d=" M  3280.45,   613.68  C  3280.45    611.18   3278.42    609.15   3275.92    609.15  " /><path style="stroke-width:1.42 ;&st7;   " d=" M  3275.92,   609.15  C  3273.42    609.15   3271.39    611.18   3271.39    613.68  " /><path style="stroke-width:1.42 ;&st7;   " d=" M  3271.39,   613.68  C  3271.39    616.19   3273.42    618.22   3275.92    618.22  " /><path style="stroke-width:1.42 ;&st7;   " d=" M  3275.92,   618.22  C  3278.42    618.22   3280.45    616.19   3280.45    613.68  " /><text style="&st18;" transform="matrix(&st16;  3300.18  607.15 )">2</text><text style="&st18;" transform="matrix(&st16;  3299.68  615.65 )">A</text><path style="stroke-width:1.42 ;&st7;   " d=" M  3306.51,   613.68  C  3306.51    611.18   3304.48    609.15   3301.98    609.15  " /><path style="stroke-width:1.42 ;&st7;   " d=" M  3301.98,   609.15  C  3299.48    609.15   3297.45    611.18   3297.45    613.68  " /><path style="stroke-width:1.42 ;&st7;   " d=" M  3297.45,   613.68  C  3297.45    616.19   3299.48    618.22   3301.98    618.22  " /><path style="stroke-width:1.42 ;&st7;   " d=" M  3301.98,   618.22  C  3304.48    618.22   3306.51    616.19   3306.51    613.68  " /><g ewd:figtype="title"><text style="&st18;" transform="matrix(&st16;  3268.55  636.9 )" ewd:textID="41">Brake Vacuum Check <tspan x="0 " dy="6.0">Valve Assembly</tspan></text><text style="&st18;" transform="matrix(&st16;  3268.54  630.07 )">A27(A),A28(B)</text></g></g><g ewd:figtype="conn" ewd:figID="11" ewd:code="A43"><path style="stroke-width:1.42 ;&st7;   " d=" M  3339.94,   120.77  C  3339.94    118.26   3337.91    116.23   3335.41    116.23  " /><path style="stroke-width:1.42 ;&st7;   " d=" M  3335.41,   116.23  C  3332.91    116.23   3330.88    118.26   3330.88    120.77  " /><path style="stroke-width:1.42 ;&st7;   " d=" M  3330.88,   120.77  C  3330.88    123.27   3332.91    125.30   3335.41    125.30  " /><path style="stroke-width:1.42 ;&st7;   " d=" M  3335.41,   125.30  C  3337.91    125.30   3339.94    123.27   3339.94    120.77  " /><path style="stroke-width:1.42 ;&st7;   " d=" M  3339.94,    95.27  C  3339.94     92.77   3337.91     90.74   3335.41     90.74  " /><path style="stroke-width:1.42 ;&st7;   " d=" M  3335.41,    90.74  C  3332.91     90.74   3330.88     92.77   3330.88     95.27  " /><path style="stroke-width:1.42 ;&st7;   " d=" M  3330.88,    95.27  C  3330.88     97.77   3332.91     99.80   3335.41     99.80  " /><path style="stroke-width:1.42 ;&st7;   " d=" M  3335.41,    99.80  C  3337.91     99.80   3339.94     97.77   3339.94     95.27  " /><path style="stroke-width:1.42 ;&st7;  " d=" M  3339.94,    86.77  L  3339.94,   129.26  L  3356.94,   129.26  L  3356.94,    86.77  L  3339.94,    86.77  " /><path style="stroke-width:0.85 ;&st7;  " d=" M  3339.94,    95.27  L  3348.44,    95.27  L  3348.44,   120.77  " /><path style="stroke-width:0.85 ;&st7;  " d=" M  3339.94,   120.77  L  3356.94,   120.77  " /><path style="stroke-width:0.85 ;&st7;  " d=" M  3347.25,   119.76  L  3346.97,   120.23  L  3346.88,   120.77  L  3346.97,   121.30  L  3347.25,   121.77  L  3347.66,   122.11  L  3348.17,   122.30  L  3348.71,   122.30  L  3349.22,   122.11  L  3349.63,   121.77  L  3349.90,   121.30  L  3350.00,   120.77  L  3349.90,   120.23  L  3349.63,   119.76  L  3349.22,   119.42  L  3348.71,   119.23  L  3348.17,   119.23  L  3347.66,   119.42  L  3347.25,   119.76  L  3347.64,   120.47  L  3347.64,   121.06  L  3348.01,   121.50  L  3348.59,   121.60  L  3349.09,   121.31  L  3349.29,   120.77  L  3349.09,   120.22  L  3348.59,   119.93  L  3348.01,   120.03  L  3348.44,   120.77  " /><text style="&st18;" transform="matrix(&st16;  3333.61  114.24 )">3</text><text style="&st18;" transform="matrix(&st16;  3333.1  122.73 )">A</text><path style="stroke-width:1.42 ;&st7;   " d=" M  3339.94,   120.77  C  3339.94    118.26   3337.91    116.23   3335.41    116.23  " /><path style="stroke-width:1.42 ;&st7;   " d=" M  3335.41,   116.23  C  3332.91    116.23   3330.88    118.26   3330.88    120.77  " /><path style="stroke-width:1.42 ;&st7;   " d=" M  3330.88,   120.77  C  3330.88    123.27   3332.91    125.30   3335.41    125.30  " /><path style="stroke-width:1.42 ;&st7;   " d=" M  3335.41,   125.30  C  3337.91    125.30   3339.94    123.27   3339.94    120.77  " /><text style="&st18;" transform="matrix(&st16;  3333.61  88.74 )">4</text><path style="stroke-width:1.42 ;&st7;   " d=" M  3339.94,    95.27  C  3339.94     92.77   3337.91     90.74   3335.41     90.74  " /><path style="stroke-width:1.42 ;&st7;   " d=" M  3335.41,    90.74  C  3332.91     90.74   3330.88     92.77   3330.88     95.27  " /><path style="stroke-width:1.42 ;&st7;   " d=" M  3330.88,    95.27  C  3330.88     97.77   3332.91     99.80   3335.41     99.80  " /><path style="stroke-width:1.42 ;&st7;   " d=" M  3335.41,    99.80  C  3337.91     99.80   3339.94     97.77   3339.94     95.27  " /><text style="&st18;" transform="matrix(&st16;  3333.1  97.24 )">A</text><text style="&st18;" transform="matrix(&st16;  3359.67  114.24 )">8</text><text style="&st18;" transform="matrix(&st16;  3359.17  122.73 )">A</text><path style="stroke-width:1.42 ;&st7;   " d=" M  3366.00,   120.77  C  3366.00    118.26   3363.97    116.23   3361.47    116.23  " /><path style="stroke-width:1.42 ;&st7;   " d=" M  3361.47,   116.23  C  3358.97    116.23   3356.94    118.26   3356.94    120.77  " /><path style="stroke-width:1.42 ;&st7;   " d=" M  3356.94,   120.77  C  3356.94    123.27   3358.97    125.30   3361.47    125.30  " /><path style="stroke-width:1.42 ;&st7;   " d=" M  3361.47,   125.30  C  3363.97    125.30   3366.00    123.27   3366.00    120.77  " /><g ewd:figtype="title"><text style="&st18;" transform="matrix(&st16;  3336.54  143.98 )" ewd:textID="116">No. 34 Junction <tspan x="0 " dy="6.0">Connector</tspan></text><text style="&st18;" transform="matrix(&st16;  3336.53  137.16 )">A43(A)</text></g></g><g ewd:figtype="conn" ewd:figID="14" ewd:code="A23"><path style="stroke-width:1.42 ;&st7;  " d=" M  3424.93,    52.78  L  3424.93,   205.75  L  3441.92,   205.75  L  3441.92,    52.78  L  3424.93,    52.78  " /><path style="stroke-width:0.85 ;&st7;  " d=" M  3424.93,    61.28  L  3441.92,    61.28  " /><path style="stroke-width:0.85 ;&st7;  " d=" M  3424.93,   163.26  L  3433.42,   163.26  " /><path style="stroke-width:0.85 ;&st7;  " d=" M  3424.93,   197.25  L  3433.42,   197.25  " /><path style="stroke-width:0.85 ;&st7;  " d=" M  3432.23,    60.27  L  3431.96,    60.74  L  3431.87,    61.28  L  3431.96,    61.81  L  3432.23,    62.28  L  3432.65,    62.62  L  3433.16,    62.81  L  3433.69,    62.81  L  3434.20,    62.62  L  3434.62,    62.28  L  3434.89,    61.81  L  3434.98,    61.28  L  3434.89,    60.74  L  3434.62,    60.27  L  3434.20,    59.93  L  3433.69,    59.74  L  3433.16,    59.74  L  3432.65,    59.93  L  3432.23,    60.27  L  3432.63,    60.98  L  3432.63,    61.57  L  3433.00,    62.01  L  3433.57,    62.11  L  3434.08,    61.82  L  3434.27,    61.28  L  3434.08,    60.73  L  3433.57,    60.44  L  3433.00,    60.54  L  3433.42,    61.28  " /><path style="stroke-width:0.85 ;&st7;  " d=" M  3432.23,   162.26  L  3431.96,   162.73  L  3431.87,   163.26  L  3431.96,   163.79  L  3432.23,   164.26  L  3432.65,   164.61  L  3433.16,   164.79  L  3433.69,   164.79  L  3434.20,   164.61  L  3434.62,   164.26  L  3434.89,   163.79  L  3434.98,   163.26  L  3434.89,   162.73  L  3434.62,   162.26  L  3434.20,   161.91  L  3433.69,   161.72  L  3433.16,   161.72  L  3432.65,   161.91  L  3432.23,   162.26  L  3432.63,   162.97  L  3432.63,   163.55  L  3433.00,   163.99  L  3433.57,   164.09  L  3434.08,   163.80  L  3434.27,   163.26  L  3434.08,   162.71  L  3433.57,   162.42  L  3433.00,   162.52  L  3433.42,   163.26  " /><path style="stroke-width:0.85 ;&st7;  " d=" M  3432.23,   196.25  L  3431.96,   196.72  L  3431.87,   197.25  L  3431.96,   197.79  L  3432.23,   198.26  L  3432.65,   198.60  L  3433.16,   198.79  L  3433.69,   198.79  L  3434.20,   198.60  L  3434.62,   198.26  L  3434.89,   197.79  L  3434.98,   197.25  L  3434.89,   196.72  L  3434.62,   196.25  L  3434.20,   195.90  L  3433.69,   195.72  L  3433.16,   195.72  L  3432.65,   195.90  L  3432.23,   196.25  L  3432.63,   196.96  L  3432.63,   197.54  L  3433.00,   197.99  L  3433.57,   198.09  L  3434.08,   197.80  L  3434.27,   197.25  L  3434.08,   196.71  L  3433.57,   196.42  L  3433.00,   196.52  L  3433.42,   197.25  " /><path style="stroke-width:1.42 ;&st7;   " d=" M  3424.93,    61.28  C  3424.93     58.77   3422.90     56.74   3420.40     56.74  " /><path style="stroke-width:1.42 ;&st7;   " d=" M  3420.40,    56.74  C  3417.89     56.74   3415.86     58.77   3415.86     61.28  " /><path style="stroke-width:1.42 ;&st7;   " d=" M  3415.86,    61.28  C  3415.86     63.78   3417.89     65.81   3420.40     65.81  " /><path style="stroke-width:1.42 ;&st7;   " d=" M  3420.40,    65.81  C  3422.90     65.81   3424.93     63.78   3424.93     61.28  " /><path style="stroke-width:1.42 ;&st7;   " d=" M  3424.93,   163.26  C  3424.93    160.75   3422.90    158.73   3420.40    158.73  " /><path style="stroke-width:1.42 ;&st7;   " d=" M  3420.40,   158.73  C  3417.89    158.73   3415.86    160.75   3415.86    163.26  " /><path style="stroke-width:1.42 ;&st7;   " d=" M  3415.86,   163.26  C  3415.86    165.76   3417.89    167.79   3420.40    167.79  " /><path style="stroke-width:1.42 ;&st7;   " d=" M  3420.40,   167.79  C  3422.90    167.79   3424.93    165.76   3424.93    163.26  " /><path style="stroke-width:0.85 ;&st7;  " d=" M  3433.42,    61.28  L  3433.42,   197.25  L  3441.92,   197.25  " /><path style="stroke-width:1.42 ;&st7;   " d=" M  3424.93,   197.25  C  3424.93    194.75   3422.90    192.72   3420.40    192.72  " /><path style="stroke-width:1.42 ;&st7;   " d=" M  3420.40,   192.72  C  3417.89    192.72   3415.86    194.75   3415.86    197.25  " /><path style="stroke-width:1.42 ;&st7;   " d=" M  3415.86,   197.25  C  3415.86    199.76   3417.89    201.78   3420.40    201.78  " /><path style="stroke-width:1.42 ;&st7;   " d=" M  3420.40,   201.78  C  3422.90    201.78   3424.93    199.76   3424.93    197.25  " /><path style="stroke-width:0.85 ;&st7;  " d=" M  3424.93,   120.77  L  3433.42,   120.77  " /><path style="stroke-width:0.85 ;&st7;  " d=" M  3432.23,   119.76  L  3431.96,   120.23  L  3431.87,   120.77  L  3431.96,   121.30  L  3432.23,   121.77  L  3432.65,   122.11  L  3433.16,   122.30  L  3433.69,   122.30  L  3434.20,   122.11  L  3434.62,   121.77  L  3434.89,   121.30  L  3434.98,   120.77  L  3434.89,   120.23  L  3434.62,   119.76  L  3434.20,   119.42  L  3433.69,   119.23  L  3433.16,   119.23  L  3432.65,   119.42  L  3432.23,   119.76  L  3432.63,   120.47  L  3432.63,   121.06  L  3433.00,   121.50  L  3433.57,   121.60  L  3434.08,   121.31  L  3434.27,   120.77  L  3434.08,   120.22  L  3433.57,   119.93  L  3433.00,   120.03  L  3433.42,   120.77  " /><path style="stroke-width:1.42 ;&st7;   " d=" M  3424.93,   120.77  C  3424.93    118.26   3422.90    116.23   3420.40    116.23  " /><path style="stroke-width:1.42 ;&st7;   " d=" M  3420.40,   116.23  C  3417.89    116.23   3415.86    118.26   3415.86    120.77  " /><path style="stroke-width:1.42 ;&st7;   " d=" M  3415.86,   120.77  C  3415.86    123.27   3417.89    125.30   3420.40    125.30  " /><path style="stroke-width:1.42 ;&st7;   " d=" M  3420.40,   125.30  C  3422.90    125.30   3424.93    123.27   3424.93    120.77  " /><text style="&st18;" transform="matrix(&st16;  3418.59  190.72 )">8</text><path style="stroke-width:1.42 ;&st7;   " d=" M  3424.93,   197.25  C  3424.93    194.75   3422.90    192.72   3420.40    192.72  " /><path style="stroke-width:1.42 ;&st7;   " d=" M  3420.40,   192.72  C  3417.89    192.72   3415.86    194.75   3415.86    197.25  " /><path style="stroke-width:1.42 ;&st7;   " d=" M  3415.86,   197.25  C  3415.86    199.76   3417.89    201.78   3420.40    201.78  " /><path style="stroke-width:1.42 ;&st7;   " d=" M  3420.40,   201.78  C  3422.90    201.78   3424.93    199.76   3424.93    197.25  " /><text style="&st18;" transform="matrix(&st16;  3418.09  199.22 )">A</text><text style="&st18;" transform="matrix(&st16;  3418.59  156.73 )">6</text><path style="stroke-width:1.42 ;&st7;   " d=" M  3424.93,   163.26  C  3424.93    160.75   3422.90    158.73   3420.40    158.73  " /><path style="stroke-width:1.42 ;&st7;   " d=" M  3420.40,   158.73  C  3417.89    158.73   3415.86    160.75   3415.86    163.26  " /><path style="stroke-width:1.42 ;&st7;   " d=" M  3415.86,   163.26  C  3415.86    165.76   3417.89    167.79   3420.40    167.79  " /><path style="stroke-width:1.42 ;&st7;   " d=" M  3420.40,   167.79  C  3422.90    167.79   3424.93    165.76   3424.93    163.26  " /><text style="&st18;" transform="matrix(&st16;  3418.09  165.23 )">A</text><text style="&st18;" transform="matrix(&st16;  3418.59  114.24 )">2</text><path style="stroke-width:1.42 ;&st7;   " d=" M  3424.93,   120.77  C  3424.93    118.26   3422.90    116.23   3420.40    116.23  " /><path style="stroke-width:1.42 ;&st7;   " d=" M  3420.40,   116.23  C  3417.89    116.23   3415.86    118.26   3415.86    120.77  " /><path style="stroke-width:1.42 ;&st7;   " d=" M  3415.86,   120.77  C  3415.86    123.27   3417.89    125.30   3420.40    125.30  " /><path style="stroke-width:1.42 ;&st7;   " d=" M  3420.40,   125.30  C  3422.90    125.30   3424.93    123.27   3424.93    120.77  " /><text style="&st18;" transform="matrix(&st16;  3418.09  122.73 )">A</text><text style="&st18;" transform="matrix(&st16;  3418.59  54.75 )">4</text><path style="stroke-width:1.42 ;&st7;   " d=" M  3424.93,    61.28  C  3424.93     58.77   3422.90     56.74   3420.40     56.74  " /><path style="stroke-width:1.42 ;&st7;   " d=" M  3420.40,    56.74  C  3417.89     56.74   3415.86     58.77   3415.86     61.28  " /><path style="stroke-width:1.42 ;&st7;   " d=" M  3415.86,    61.28  C  3415.86     63.78   3417.89     65.81   3420.40     65.81  " /><path style="stroke-width:1.42 ;&st7;   " d=" M  3420.40,    65.81  C  3422.90     65.81   3424.93     63.78   3424.93     61.28  " /><text style="&st18;" transform="matrix(&st16;  3418.09  63.24 )">A</text><text style="&st18;" transform="matrix(&st16;  3444.66  190.72 )">1</text><text style="&st18;" transform="matrix(&st16;  3444.15  199.22 )">A</text><path style="stroke-width:1.42 ;&st7;   " d=" M  3450.99,   197.25  C  3450.99    194.75   3448.96    192.72   3446.46    192.72  " /><path style="stroke-width:1.42 ;&st7;   " d=" M  3446.46,   192.72  C  3443.95    192.72   3441.92    194.75   3441.92    197.25  " /><path style="stroke-width:1.42 ;&st7;   " d=" M  3441.92,   197.25  C  3441.92    199.76   3443.95    201.78   3446.46    201.78  " /><path style="stroke-width:1.42 ;&st7;   " d=" M  3446.46,   201.78  C  3448.96    201.78   3450.99    199.76   3450.99    197.25  " /><text style="&st18;" transform="matrix(&st16;  3444.66  54.75 )">3</text><path style="stroke-width:1.42 ;&st7;   " d=" M  3450.99,    61.28  C  3450.99     58.77   3448.96     56.74   3446.46     56.74  " /><path style="stroke-width:1.42 ;&st7;   " d=" M  3446.46,    56.74  C  3443.95     56.74   3441.92     58.77   3441.92     61.28  " /><path style="stroke-width:1.42 ;&st7;   " d=" M  3441.92,    61.28  C  3441.92     63.78   3443.95     65.81   3446.46     65.81  " /><path style="stroke-width:1.42 ;&st7;   " d=" M  3446.46,    65.81  C  3448.96     65.81   3450.99     63.78   3450.99     61.28  " /><text style="&st18;" transform="matrix(&st16;  3444.15  63.24 )">A</text><g ewd:figtype="title"><text style="&st18;" transform="matrix(&st17;  3449.82  174.66 )">A23(A)</text><text style="&st18;" transform="matrix(&st17;  3456.64  174.66 )" ewd:textID="110">No. 2 Junction <tspan x="0 " dy="6.0">Connector</tspan></text></g></g><g ewd:figtype="w2w" ewd:figID="42" ewd:code="mA1"><text style="&st18;" transform="matrix(&st16;  3261.65  156.02 )">1</text><path style="stroke-width:1.42 ;&st7;  " d=" M  3277.62,   167.51  L  3273.37,   163.26  L  3277.62,   159.01  " /><path style="stroke-width:1.42 ;&st7;  " d=" M  3281.02,   167.51  L  3276.77,   163.26  L  3281.02,   159.01  " /></g><g ewd:figtype="gp" ewd:figID="116" ewd:code="HB"><path style="stroke-width:0.85 ;&st7;  " d=" M  3032.58,   710.00  L  3035.41,   710.00  " /><path style="stroke-width:0.85 ;&st7;  " d=" M  3031.16,   707.17  L  3036.82,   707.17  " /><path style="stroke-width:0.85 ;&st7;  " d=" M  3029.74,   704.33  L  3038.24,   704.33  " /><path style="stroke-width:0.85 ;&st7;  " d=" M  3025.49,   701.50  L  3042.49,   701.50  " /><path style="stroke-width:0.85 ;&st7;  " d=" M  3033.99,   697.25  L  3033.99,   701.50  " /></g><g ewd:figtype="gp" ewd:figID="117" ewd:code="AA"><path style="stroke-width:0.85 ;&st7;  " d=" M  3449.01,   710.00  L  3451.84,   710.00  " /><path style="stroke-width:0.85 ;&st7;  " d=" M  3447.59,   707.17  L  3453.25,   707.17  " /><path style="stroke-width:0.85 ;&st7;  " d=" M  3446.17,   704.33  L  3454.67,   704.33  " /><path style="stroke-width:0.85 ;&st7;  " d=" M  3441.92,   701.50  L  3458.92,   701.50  " /><path style="stroke-width:0.85 ;&st7;  " d=" M  3450.42,   697.25  L  3450.42,   701.50  " /></g><g ewd:figtype="annex" ewd:figID="20" ewd:code=" "><path style="stroke-width:1.42 ;&st7;   " d=" M  3233.71,   439.46  C  3236.06    439.46   3237.96    437.56   3237.96    435.21  " /><path style="stroke-width:1.42 ;&st7;  " d=" M  3233.71,   405.47  L  3229.46,   405.47  " /><path style="stroke-width:1.42 ;&st7;   " d=" M  3225.21,   469.21  C  3225.21    471.55   3227.11    473.46   3229.46    473.46  " /><path style="stroke-width:1.42 ;&st7;  " d=" M  3118.98,   460.71  L  3118.98,   486.20  L  3203.96,   486.20  L  3203.96,   460.71  L  3118.98,   460.71  " /><path style="stroke-width:0.85 ;&st7;  " d=" M  3203.96,   367.22  L  3225.21,   367.22  " /><path style="stroke-width:1.42 ;&st7;   " d=" M  3233.71,   473.46  C  3236.06    473.46   3237.96    471.55   3237.96    469.21  " /><path style="stroke-width:1.42 ;&st7;  " d=" M  3118.98,   358.73  L  3118.98,   384.22  L  3203.96,   384.22  L  3203.96,   358.73  L  3118.98,   358.73  " /><path style="stroke-width:1.42 ;&st7;   " d=" M  3225.21,   367.22  C  3225.21    369.57   3227.11    371.47   3229.46    371.47  " /><path style="stroke-width:0.28 ;&st9;  " d=" M  3220.31,   435.21  L  3217.48,   432.38  L  3221.73,   432.38  L  3224.56,   435.21  L  3221.73,   438.05  L  3217.48,   438.05  L  3220.31,   435.21  " /><path style="stroke-width:0.28 ;&st9;  " d=" M  3220.31,   469.21  L  3217.48,   466.37  L  3221.73,   466.37  L  3224.56,   469.21  L  3221.73,   472.04  L  3217.48,   472.04  L  3220.31,   469.21  " /><path style="stroke-width:1.42 ;&st7;  " d=" M  3233.71,   362.97  L  3229.46,   362.97  " /><path style="stroke-width:0.28 ;&st9;  " d=" M  3220.31,   401.22  L  3217.48,   398.39  L  3221.73,   398.39  L  3224.56,   401.22  L  3221.73,   404.05  L  3217.48,   404.05  L  3220.31,   401.22  " /><path style="stroke-width:1.42 ;&st7;   " d=" M  3225.21,   401.22  C  3225.21    403.57   3227.11    405.47   3229.46    405.47  " /><path style="stroke-width:1.42 ;&st7;   " d=" M  3229.46,   430.96  C  3227.11    430.96   3225.21    432.87   3225.21    435.21  " /><path style="stroke-width:1.42 ;&st7;  " d=" M  3233.71,   396.97  L  3229.46,   396.97  " /><path style="stroke-width:1.42 ;&st7;   " d=" M  3237.96,   401.22  C  3237.96    398.87   3236.06    396.97   3233.71    396.97  " /><path style="stroke-width:1.42 ;&st7;   " d=" M  3233.71,   405.47  C  3236.06    405.47   3237.96    403.57   3237.96    401.22  " /><path style="stroke-width:1.42 ;&st7;   " d=" M  3229.46,   464.96  C  3227.11    464.96   3225.21    466.86   3225.21    469.21  " /><path style="stroke-width:1.42 ;&st7;  " d=" M  3118.98,   392.72  L  3118.98,   418.22  L  3203.96,   418.22  L  3203.96,   392.72  L  3118.98,   392.72  " /><path style="stroke-width:1.42 ;&st7;   " d=" M  3229.46,   362.97  C  3227.11    362.97   3225.21    364.88   3225.21    367.22  " /><path style="stroke-width:1.42 ;&st7;   " d=" M  3225.21,   435.21  C  3225.21    437.56   3227.11    439.46   3229.46    439.46  " /><path style="stroke-width:1.42 ;&st7;  " d=" M  3233.71,   464.96  L  3229.46,   464.96  " /><path style="stroke-width:1.42 ;&st7;  " d=" M  3118.98,   426.71  L  3118.98,   452.21  L  3203.96,   452.21  L  3203.96,   426.71  L  3118.98,   426.71  " /><path style="stroke-width:1.42 ;&st7;  " d=" M  3233.71,   371.47  L  3229.46,   371.47  " /><path style="stroke-width:0.85 ;&st7;  " d=" M  3203.96,   401.22  L  3225.21,   401.22  " /><path style="stroke-width:1.42 ;&st7;  " d=" M  3233.71,   430.96  L  3229.46,   430.96  " /><path style="stroke-width:0.28 ;&st9;  " d=" M  3220.31,   367.22  L  3217.48,   364.39  L  3221.73,   364.39  L  3224.56,   367.22  L  3221.73,   370.06  L  3217.48,   370.06  L  3220.31,   367.22  " /><path style="stroke-width:0.85 ;&st7;  " d=" M  3203.96,   469.21  L  3225.21,   469.21  " /><path style="stroke-width:1.42 ;&st7;  " d=" M  3233.71,   473.46  L  3229.46,   473.46  " /><path style="stroke-width:1.42 ;&st7;   " d=" M  3237.96,   469.21  C  3237.96    466.86   3236.06    464.96   3233.71    464.96  " /><path style="stroke-width:1.42 ;&st7;   " d=" M  3233.71,   371.47  C  3236.06    371.47   3237.96    369.57   3237.96    367.22  " /><path style="stroke-width:1.42 ;&st7;  " d=" M  3233.71,   439.46  L  3229.46,   439.46  " /><path style="stroke-width:1.42 ;&st7;   " d=" M  3229.46,   396.97  C  3227.11    396.97   3225.21    398.87   3225.21    401.22  " /><path style="stroke-width:0.85 ;&st7;  " d=" M  3203.96,   435.21  L  3225.21,   435.21  " /><path style="stroke-width:1.42 ;&st7;   " d=" M  3237.96,   367.22  C  3237.96    364.88   3236.06    362.97   3233.71    362.97  " /><path style="stroke-width:1.42 ;&st7;   " d=" M  3237.96,   435.21  C  3237.96    432.87   3236.06    430.96   3233.71    430.96  " /><text style="&st18;" transform="matrix(&st16;  3119.82  442.85 )" ewd:textID="133">SUB PMP <tspan x="0 " dy="6.0">Relay</tspan></text><text style="&st18;" transform="matrix(&st16;  3183.97  437.18 )">(FPR2)</text><text style="&st18;" transform="matrix(&st16;  3119.82  408.85 )" ewd:textID="57">EFI MAIN <tspan x="0 " dy="6.0">Relay</tspan></text><text style="&st18;" transform="matrix(&st16;  3194.29  403.19 )">(E)</text><text style="&st18;" transform="matrix(&st16;  3191.81  369.19 )">(-S)</text><text style="&st18;" transform="matrix(&st16;  3119.82  374.86 )" ewd:textID="132">ST Relay</text><text style="&st18;" transform="matrix(&st16;  3229.78  369.19 )">1</text><text style="&st18;" transform="matrix(&st16;  3229.78  403.19 )">1</text><text style="&st18;" transform="matrix(&st16;  3229.78  437.18 )">1</text><text style="&st18;" transform="matrix(&st16;  3119.82  476.84 )" ewd:textID="30">A/F Relay</text><text style="&st18;" transform="matrix(&st16;  3194.29  471.18 )">(E)</text><text style="&st18;" transform="matrix(&st16;  3229.78  471.18 )">1</text></g><g ewd:code="2" ewd:figID="287" ewd:comment="" ewd:figtype="comment"><text style="&st18;" transform="matrix(&st16;  3175.06  267.21 )">* 2 :1HZ</text></g><g ewd:code="39" ewd:figID="276" ewd:comment="" ewd:figtype="comment"><text style="&st18;" transform="matrix(&st16;  3175.06  301.2 )" ewd:textID="22">*39 :w/ VSC</text></g><g ewd:code="1" ewd:figID="285" ewd:comment="" ewd:figtype="comment"><text style="&st18;" transform="matrix(&st16;  3175.06  258.71 )">* 1 :1GR-FE</text></g><g ewd:code="40" ewd:figID="277" ewd:comment="" ewd:figtype="comment"><text style="&st18;" transform="matrix(&st16;  3175.06  309.7 )" ewd:textID="23">*40 :w/o VSC</text></g><g ewd:code="31" ewd:figID="288" ewd:comment="" ewd:figtype="comment"><text style="&st18;" transform="matrix(&st16;  3175.06  275.71 )" ewd:textID="15">*31 :w/ Side Turn Signal Light</text></g><g ewd:code="38" ewd:figID="283" ewd:comment="" ewd:figtype="comment"><text style="&st18;" transform="matrix(&st16;  3175.06  292.71 )">*38 :1VD-FTV</text></g><g ewd:code="35" ewd:figID="282" ewd:comment="" ewd:figtype="comment"><text style="&st18;" transform="matrix(&st16;  3175.06  284.21 )" ewd:textID="19">*35 :w/o ABS</text></g></svg>