<?xml version="1.0" encoding="utf-8"?>
<!DOCTYPE svg PUBLIC "-//W3C//DTD SVG 1.0//EN" "http://www.w3.org/TR/2001/REC-SVG-20010904/DTD/svg10.dtd"[
	<!ENTITY ns_flows "http://ns.adobe.com/Flows/1.0/">
	<!ENTITY ns_svg "http://www.w3.org/2000/svg">
	<!ENTITY ns_xlink "http://www.w3.org/1999/xlink">
	<!ENTITY st0 "font-size:7px;font-family:'MS-PGothic';adobe-font-script:japanese;">
	<!ENTITY st1 "font-size:6px;font-family:'ArialMT';">
	<!-- White fill  -->
	<!ENTITY st2 "fill:#FFFFFF;stroke:#000000; stroke-width:1.41;stroke-linecap:round;stroke-linejoin:round;">
	<!-- Yellow fill  -->
	<!ENTITY st3 "fill:#FFFFCC;stroke:#FFFFCC; stroke-width:0.1;stroke-linecap:round;stroke-linejoin:round;">
	<!-- Gray fill  -->
	<!ENTITY st4 "fill:#CCCCCC;stroke:#CCCCCC; stroke-width:0.1;stroke-linecap:round;stroke-linejoin:round;">
	<!-- Light-blue fill -->
	<!ENTITY st5 "fill:#CCECF4;stroke:#000000; stroke-width:1.133;stroke-linecap:round;stroke-linejoin:round;">
	<!ENTITY st6 "fill:none;stroke-linecap:butt; stroke-linejoin:round;">
	<!ENTITY st7 "fill:none;stroke:#000000;stroke-linecap:round;stroke-linejoin:round;">
	<!ENTITY st8 "enable-background:new    ;">
	<!-- Black fill -->
	<!ENTITY st9 "fill:#000000;stroke:#000000; stroke-linecap:round;stroke-linejoin:round;">
	<!-- SRS note   -->
	<!ENTITY st10 "font-size:9px;font-family:'ArialMT';">
	<!ENTITY st11 "font-size:9px;font-family:'Svg Symbol';">
	<!ENTITY st12 "font-size:6px;font-family:'Svg Symbol';">
	<!ENTITY st13 "fill:none;stroke:#ff0000;stroke-linecap:round;stroke-linejoin:round;">
	<!-- Yellow fill  -->
	<!ENTITY st14 "fill:#FFFF00;stroke:#FFFF00; stroke-width:0.1;stroke-linecap:round;stroke-linejoin:round;">
	<!ENTITY st15 "font-size:6px;font-family:'MS-PGothic';adobe-font-script:japanese;">
	<!ENTITY st16 "1.00 0.00 0.00 1.00">
	<!ENTITY st17 "0.00 -1.00 1.00 0.00">
	<!ENTITY st18 "font-size:6px;font-family:'Arial';">
	<!ENTITY st19 "font-size:9px;font-family:'Arial';">
	<!ENTITY st20 "font-size:6px;font-family:'MS-PGothic','MS PGothic';adobe-font-script:japanese;">
	<!ENTITY st21 "font-size:7px;font-family:'MS-PGothic','MS PGothic';adobe-font-script:japanese;">
	<!ATTLIST svg
		xmlns:ewd CDATA #FIXED "http://shcl.co.jp/ewd"
		xmlns:a CDATA #FIXED "http://ns.adobe.com/AdobeSVGViewerExtensions/3.0/"
		ewd:ver CDATA #IMPLIED
	>
	<!ATTLIST a
		ewd:lineID CDATA #IMPLIED
		ewd:groupID CDATA #IMPLIED
		ewd:figtype CDATA #IMPLIED
		ewd:code CDATA #IMPLIED
		ewd:figID CDATA #IMPLIED
		ewd:pinNo CDATA #IMPLIED
		ewd:comment CDATA #IMPLIED >
	<!ATTLIST g
		ewd:lineID CDATA #IMPLIED
		ewd:groupID CDATA #IMPLIED
		ewd:figtype CDATA #IMPLIED
		ewd:code CDATA #IMPLIED
		ewd:figID CDATA #IMPLIED
		ewd:pinNo CDATA #IMPLIED
		ewd:comment CDATA #IMPLIED >
	<!ATTLIST text
		ewd:textID CDATA #IMPLIED >
	<!ATTLIST title
		ewd:textID CDATA #IMPLIED >
]>
<!-- Generator: Shintec Hozumi YS   -->
<svg onload="call_execInitLoadProc_svg('system')" style="overflow:visible;  enable-background:new 0 0 6731.584 710.000" viewBox="0 0 6731.584 710.000" height="710.000" width="6731.584" xml:space="preserve" ewd:ver="2.1.2.9" xmlns="&ns_svg;" xmlns:a="http://ns.adobe.com/AdobeSVGViewerExtensions/3.0/" xmlns:ewd="http://shcl.co.jp/ewd" xmlns:xlink="&ns_xlink;">
<text style="&st18;" transform="matrix(&st16;  5193.48  536.33 )" ewd:textID="74">License Plate <tspan x="0 " dy="6.0">Light Assembly RH</tspan></text><text style="&st18;" transform="matrix(&st16;  5193.48  502.34 )" ewd:textID="73">License Plate <tspan x="0 " dy="6.0">Light Assembly LH</tspan></text><text style="&st18;" transform="matrix(&st16;  5193.48  434.35 )" ewd:textID="73">License Plate <tspan x="0 " dy="6.0">Light Assembly LH</tspan></text><text style="&st18;" transform="matrix(&st16;  5193.48  400.35 )" ewd:textID="109">Trailer Socket</text><text style="&st18;" transform="matrix(&st16;  5193.48  366.36 )" ewd:textID="50">Fuel Pump (Sub)</text><text style="&st18;" transform="matrix(&st16;  5193.48  196.39 )" ewd:textID="34">Differential <tspan x="0 " dy="6.0">Lock Shift Actuator</tspan></text><text style="&st18;" transform="matrix(&st16;  5193.48  162.39 )" ewd:textID="98">Rear Differential <tspan x="0 " dy="6.0">Lock Position Switch</tspan></text><text style="&st18;" transform="matrix(&st16;  5193.48  570.33 )" ewd:textID="20">Back Buzzer <tspan x="0 " dy="6.0">Assembly</tspan></text><text style="&st18;" transform="matrix(&st16;  5193.48  604.32 )" ewd:textID="97">Rear Combination <tspan x="0 " dy="6.0">Light Assembly RH</tspan></text><text style="&st18;" transform="matrix(&st16;  5193.48  663.81 )" ewd:textID="96">Rear Combination <tspan x="0 " dy="6.0">Light Assembly LH</tspan></text><text style="&st18;" transform="matrix(&st17;  5497.72  286.95 )">(*8)</text><path style="stroke-width:1.42 ;&st7;  " d=" M  5498.58,   185.23  L  5493.61,   180.26  " /><path style="stroke-width:1.42 ;&st7;  " d=" M  5481.58,   192.28  L  5486.56,   197.25  " /><path style="stroke-width:1.42 ;&st7;  " d=" M  5493.61,   197.25  L  5498.58,   192.28  " /><path style="stroke-width:1.42 ;&st7;  " d=" M  5486.56,   180.26  L  5481.58,   185.23  " /><text style="&st18;" transform="matrix(&st16;  5331.9  196.39 )">(*8)</text><path style="stroke-width:1.42 ;&st7;  " d=" M  5418.57,   384.22  L  5413.60,   389.19  " /><path style="stroke-width:1.42 ;&st7;  " d=" M  5425.62,   401.22  L  5430.59,   396.25  " /><path style="stroke-width:1.42 ;&st7;  " d=" M  5413.60,   396.25  L  5418.57,   401.22  " /><path style="stroke-width:1.42 ;&st7;  " d=" M  5430.59,   389.19  L  5425.62,   384.22  " /><path style="stroke-width:1.42 ;&st7;  " d=" M  5418.57,   452.21  L  5413.60,   457.18  " /><path style="stroke-width:1.42 ;&st7;  " d=" M  5425.62,   469.21  L  5430.59,   464.24  " /><path style="stroke-width:1.42 ;&st7;  " d=" M  5413.60,   464.24  L  5418.57,   469.21  " /><path style="stroke-width:1.42 ;&st7;  " d=" M  5430.59,   457.18  L  5425.62,   452.21  " /><text style="&st18;" transform="matrix(&st16;  5193.47  359.25 )">T8</text><text style="&st18;" transform="matrix(&st16;  5193.47  393.25 )">T10</text><text style="&st18;" transform="matrix(&st16;  5193.47  427.24 )">T15</text><text style="&st18;" transform="matrix(&st16;  5193.47  461.24 )">T13</text><text style="&st18;" transform="matrix(&st16;  5193.47  495.23 )">T16</text><text style="&st18;" transform="matrix(&st16;  5193.47  529.23 )">T12</text><text style="&st18;" transform="matrix(&st16;  5193.47  597.21 )">T14</text><path style="stroke-width:1.42 ;&st7;  " d=" M  5418.57,   554.19  L  5413.60,   559.16  " /><path style="stroke-width:1.42 ;&st7;  " d=" M  5425.62,   571.19  L  5430.59,   566.22  " /><path style="stroke-width:1.42 ;&st7;  " d=" M  5413.60,   566.22  L  5418.57,   571.19  " /><path style="stroke-width:1.42 ;&st7;  " d=" M  5430.59,   559.16  L  5425.62,   554.19  " /><text style="&st18;" transform="matrix(&st16;  5193.47  563.22 )">T11</text><text style="&st18;" transform="matrix(&st16;  5193.47  656.7 )">T17</text><path style="stroke-width:1.42 ;&st7;  " d=" M  5498.58,   256.74  L  5490.08,   256.74  " /><path style="stroke-width:1.42 ;&st7;  " d=" M  5456.09,   256.74  L  5447.59,   256.74  " /><path style="stroke-width:1.42 ;&st7;  " d=" M  5456.09,   185.23  L  5451.12,   180.26  " /><path style="stroke-width:1.42 ;&st7;  " d=" M  5439.09,   192.28  L  5444.06,   197.25  " /><path style="stroke-width:1.42 ;&st7;  " d=" M  5451.12,   197.25  L  5456.09,   192.28  " /><path style="stroke-width:1.42 ;&st7;  " d=" M  5444.06,   180.26  L  5439.09,   185.23  " /><text style="&st18;" transform="matrix(&st16;  5193.47  155.29 )">V1</text><text style="&st18;" transform="matrix(&st16;  5193.47  189.28 )">V2</text><text style="&st18;" transform="matrix(&st16;  5330.65  652.48 )">W-B</text><text style="&st18;" transform="matrix(&st16;  5330.65  592.99 )">W-B</text><text style="&st18;" transform="matrix(&st16;  5330.65  558.99 )">W-B</text><text style="&st18;" transform="matrix(&st16;  5330.65  525.0 )">W-B</text><text style="&st18;" transform="matrix(&st16;  5330.65  491.01 )">W-B</text><text style="&st18;" transform="matrix(&st16;  5330.65  457.01 )">W-B</text><text style="&st18;" transform="matrix(&st16;  5330.65  423.02 )">W-B</text><text style="&st18;" transform="matrix(&st16;  5330.65  389.02 )">W-B</text><text style="&st18;" transform="matrix(&st16;  5330.65  355.03 )">W-B</text><text style="&st18;" transform="matrix(&st16;  5483.63  389.02 )">W-B</text><text style="&st18;" transform="matrix(&st16;  5330.65  185.06 )">W-B</text><text style="&st18;" transform="matrix(&st16;  5330.65  151.06 )">W-B</text><text style="&st18;" transform="matrix(&st17;  5443.89  288.19 )">W-B</text><text style="&st18;" transform="matrix(&st17;  5486.39  288.19 )">W-B</text><text style="&st18;" transform="matrix(&st17;  5443.89  228.7 )">W-B</text><text style="&st18;" transform="matrix(&st17;  5486.39  228.7 )">W-B</text><text style="&st18;" transform="matrix(&st17;  5418.4  628.14 )">W-B</text><text style="&st18;" transform="matrix(&st17;  5418.4  517.65 )">W-B</text><text style="&st18;" transform="matrix(&st17;  5418.4  424.17 )">W-B</text><text style="&st18;" transform="matrix(&st16;  5034.45  196.39 )">(*9)</text><text style="&st18;" transform="matrix(&st16;  5116.98  189.28 )">S2</text><text style="&st18;" transform="matrix(&st16;  5033.2  185.06 )">W-B</text><text style="&st18;" transform="matrix(&st16;  5152.18  66.08 )">W-B</text><text style="&st18;" transform="matrix(&st16;  5152.18  40.58 )">W-B</text><text style="&st18;" transform="matrix(&st16;  5152.18  15.09 )">W-B</text><text style="&st18;" transform="matrix(&st16;  5203.18  15.09 )">W-B</text><text style="&st18;" transform="matrix(&st16;  5203.18  40.58 )">W-B</text><text style="&st18;" transform="matrix(&st16;  5203.18  66.08 )">W-B</text><text style="&st18;" transform="matrix(&st16;  5153.43  26.42 )">(*6)</text><text style="&st18;" transform="matrix(&st16;  5204.42  26.42 )">(*6)</text><text style="&st18;" transform="matrix(&st16;  5204.42  51.91 )">(*7)</text><text style="&st18;" transform="matrix(&st16;  5153.43  51.91 )">(*7)</text><text style="&st18;" transform="matrix(&st16;  5204.42  77.41 )">(*8)</text><text style="&st18;" transform="matrix(&st16;  5153.43  77.41 )">(*8)</text><text style="&st18;" transform="matrix(&st17;  5455.23  286.95 )">(*8)</text><text style="&st18;" transform="matrix(&st17;  5455.23  227.46 )">(*8)</text><text style="&st18;" transform="matrix(&st16;  5331.9  162.39 )">(*8)</text><text style="&st18;" transform="matrix(&st17;  5497.72  227.46 )">(*8)</text><text style="&st18;" transform="matrix(&st16;  5484.87  400.35 )">(*8)</text><text style="&st18;" transform="matrix(&st16;  5331.9  366.36 )">(*8)</text><text style="&st18;" transform="matrix(&st16;  5331.9  400.35 )">(*8)</text><text style="&st18;" transform="matrix(&st16;  5331.9  434.35 )">(*8)</text><text style="&st18;" transform="matrix(&st16;  5331.9  468.34 )">(*8)</text><text style="&st18;" transform="matrix(&st16;  5331.9  502.34 )">(*8)</text><text style="&st18;" transform="matrix(&st16;  5331.9  536.33 )">(*8)</text><text style="&st18;" transform="matrix(&st16;  5331.9  570.33 )">(*8)</text><text style="&st18;" transform="matrix(&st16;  5331.9  604.32 )">(*8)</text><text style="&st18;" transform="matrix(&st17;  5429.73  422.93 )">(*8)</text><text style="&st18;" transform="matrix(&st17;  5429.73  516.41 )">(*8)</text><text style="&st18;" transform="matrix(&st17;  5429.73  626.89 )">(*8)</text><text style="&st18;" transform="matrix(&st16;  5331.9  663.81 )">(*8)</text><text style="&st18;" transform="matrix(&st16;  5193.48  468.34 )" ewd:textID="74">License Plate <tspan x="0 " dy="6.0">Light Assembly RH</tspan></text><text style="&st18;" transform="matrix(&st16;  5116.99  196.39 )" ewd:textID="46">Front Seat <tspan x="0 " dy="6.0">Inner Belt </tspan><tspan x="0 " dy="6.0">Assembly LH</tspan></text><text style="&st18;" transform="matrix(&st16;  5267.94  360.69 )">(E)</text><path style="stroke-width:1.42 ;&st7;  " d=" M  5192.63,   350.23  L  5192.63,   375.72  L  5277.62,   375.72  L  5277.62,   350.23  L  5192.63,   350.23  " /><text style="&st18;" transform="matrix(&st16;  5258.87  394.69 )">(GND)</text><path style="stroke-width:1.42 ;&st7;  " d=" M  5192.63,   384.22  L  5192.63,   409.72  L  5277.62,   409.72  L  5277.62,   384.22  L  5192.63,   384.22  " /><text style="&st18;" transform="matrix(&st16;  5267.94  428.68 )">(E)</text><path style="stroke-width:1.42 ;&st7;  " d=" M  5192.63,   418.22  L  5192.63,   443.71  L  5277.62,   443.71  L  5277.62,   418.22  L  5192.63,   418.22  " /><text style="&st18;" transform="matrix(&st16;  5267.94  462.68 )">(E)</text><path style="stroke-width:1.42 ;&st7;  " d=" M  5192.63,   452.21  L  5192.63,   477.71  L  5277.62,   477.71  L  5277.62,   452.21  L  5192.63,   452.21  " /><text style="&st18;" transform="matrix(&st16;  5267.94  496.67 )">(E)</text><path style="stroke-width:1.42 ;&st7;  " d=" M  5192.63,   486.20  L  5192.63,   511.70  L  5277.62,   511.70  L  5277.62,   486.20  L  5192.63,   486.20  " /><text style="&st18;" transform="matrix(&st16;  5267.94  530.67 )">(E)</text><path style="stroke-width:1.42 ;&st7;  " d=" M  5192.63,   520.20  L  5192.63,   545.69  L  5277.62,   545.69  L  5277.62,   520.20  L  5192.63,   520.20  " /><text style="&st18;" transform="matrix(&st16;  5267.94  598.65 )">(E)</text><path style="stroke-width:1.42 ;&st7;  " d=" M  5192.63,   588.19  L  5192.63,   613.68  L  5277.62,   613.68  L  5277.62,   588.19  L  5192.63,   588.19  " /><text style="&st18;" transform="matrix(&st16;  5257.47  564.66 )">(BZR-)</text><path style="stroke-width:1.42 ;&st7;  " d=" M  5192.63,   554.19  L  5192.63,   579.69  L  5277.62,   579.69  L  5277.62,   554.19  L  5192.63,   554.19  " /><text style="&st18;" transform="matrix(&st16;  5267.94  658.14 )">(E)</text><path style="stroke-width:1.42 ;&st7;  " d=" M  5192.63,   647.68  L  5192.63,   673.17  L  5277.62,   673.17  L  5277.62,   647.68  L  5192.63,   647.68  " /><path style="stroke-width:1.42 ;&st7;  " d=" M  5192.63,   146.26  L  5192.63,   171.76  L  5277.62,   171.76  L  5277.62,   146.26  L  5192.63,   146.26  " /><text style="&st18;" transform="matrix(&st16;  5260.5  156.73 )">(RRE)</text><path style="stroke-width:1.42 ;&st7;  " d=" M  5192.63,   180.26  L  5192.63,   205.75  L  5277.62,   205.75  L  5277.62,   180.26  L  5192.63,   180.26  " /><text style="&st18;" transform="matrix(&st16;  5258.87  190.72 )">(GND)</text><text style="&st18;" transform="matrix(&st16;  5092.38  190.72 )">(E)</text><path style="stroke-width:1.42 ;&st7;  " d=" M  5090.65,   180.26  L  5090.65,   214.25  L  5175.63,   214.25  L  5175.63,   180.26  L  5090.65,   180.26  " /><g ewd:figtype="w2w" ewd:figID="60" ewd:code="VT1"><path style="stroke-width:1.42 ;&st7;  " d=" M  5451.84,   265.81  L  5447.59,   261.56  L  5443.34,   265.81  " /><path style="stroke-width:1.42 ;&st7;  " d=" M  5451.84,   262.41  L  5447.59,   258.16  L  5443.34,   262.41  " /><text style="&st18;" transform="matrix(&st16;  5434.96  254.46 )">8</text></g><g ewd:figtype="w2w" ewd:figID="61" ewd:code="ST2"><path style="stroke-width:1.42 ;&st7;  " d=" M  5494.33,   265.81  L  5490.08,   261.56  L  5485.83,   265.81  " /><path style="stroke-width:1.42 ;&st7;  " d=" M  5494.33,   262.41  L  5490.08,   258.16  L  5485.83,   262.41  " /><text style="&st18;" transform="matrix(&st16;  5477.45  254.46 )">9</text></g><g ewd:figtype="gp" ewd:figID="102" ewd:code="TC"><path style="stroke-width: 0.85 ;&st7;  " d=" M  5420.68,   710.00  L  5423.51,   710.00  " /><path style="stroke-width: 0.85 ;&st7;  " d=" M  5419.26,   707.17  L  5424.92,   707.17  " /><path style="stroke-width: 0.85 ;&st7;  " d=" M  5417.84,   704.33  L  5426.34,   704.33  " /><path style="stroke-width: 0.85 ;&st7;  " d=" M  5413.59,   701.50  L  5430.59,   701.50  " /><path style="stroke-width: 0.85 ;&st7;  " d=" M  5422.09,   697.25  L  5422.09,   701.50  " /></g><g ewd:figtype="gp" ewd:figID="103" ewd:code="TB"><path style="stroke-width: 0.85 ;&st7;  " d=" M  5488.66,   353.06  L  5491.50,   353.06  " /><path style="stroke-width: 0.85 ;&st7;  " d=" M  5487.25,   350.23  L  5492.91,   350.23  " /><path style="stroke-width: 0.85 ;&st7;  " d=" M  5485.83,   347.39  L  5494.33,   347.39  " /><path style="stroke-width: 0.85 ;&st7;  " d=" M  5481.58,   344.56  L  5498.58,   344.56  " /><path style="stroke-width: 0.85 ;&st7;  " d=" M  5490.08,   340.31  L  5490.08,   344.56  " /></g></svg>