<?xml version="1.0" encoding="utf-8"?>
<!DOCTYPE svg PUBLIC "-//W3C//DTD SVG 1.0//EN" "http://www.w3.org/TR/2001/REC-SVG-20010904/DTD/svg10.dtd"[
	<!ENTITY ns_flows "http://ns.adobe.com/Flows/1.0/">
	<!ENTITY ns_svg "http://www.w3.org/2000/svg">
	<!ENTITY ns_xlink "http://www.w3.org/1999/xlink">
	<!ENTITY st0 "font-size:7px;font-family:'MS-PGothic';adobe-font-script:japanese;">
	<!ENTITY st1 "font-size:6px;font-family:'ArialMT';">
	<!-- White fill  -->
	<!ENTITY st2 "fill:#FFFFFF;stroke:#000000; stroke-width:1.41;stroke-linecap:round;stroke-linejoin:round;">
	<!-- Yellow fill  -->
	<!ENTITY st3 "fill:#FFFFCC;stroke:#FFFFCC; stroke-width:0.1;stroke-linecap:round;stroke-linejoin:round;">
	<!-- Gray fill  -->
	<!ENTITY st4 "fill:#CCCCCC;stroke:#CCCCCC; stroke-width:0.1;stroke-linecap:round;stroke-linejoin:round;">
	<!-- Light-blue fill -->
	<!ENTITY st5 "fill:#CCECF4;stroke:#000000; stroke-width:1.133;stroke-linecap:round;stroke-linejoin:round;">
	<!ENTITY st6 "fill:none;stroke-linecap:butt; stroke-linejoin:round;">
	<!ENTITY st7 "fill:none;stroke:#000000;stroke-linecap:round;stroke-linejoin:round;">
	<!ENTITY st8 "enable-background:new    ;">
	<!-- Black fill -->
	<!ENTITY st9 "fill:#000000;stroke:#000000; stroke-linecap:round;stroke-linejoin:round;">
	<!-- SRS note   -->
	<!ENTITY st10 "font-size:9px;font-family:'ArialMT';">
	<!ENTITY st11 "font-size:9px;font-family:'Svg Symbol';">
	<!ENTITY st12 "font-size:6px;font-family:'Svg Symbol';">
	<!ENTITY st13 "fill:none;stroke:#ff0000;stroke-linecap:round;stroke-linejoin:round;">
	<!-- Yellow fill  -->
	<!ENTITY st14 "fill:#FFFF00;stroke:#FFFF00; stroke-width:0.1;stroke-linecap:round;stroke-linejoin:round;">
	<!ENTITY st15 "font-size:6px;font-family:'MS-PGothic';adobe-font-script:japanese;">
	<!ENTITY st16 "1.00 0.00 0.00 1.00">
	<!ENTITY st17 "0.00 -1.00 1.00 0.00">
	<!ENTITY st18 "font-size:6px;font-family:'Arial';">
	<!ENTITY st19 "font-size:9px;font-family:'Arial';">
	<!ENTITY st20 "font-size:6px;font-family:'MS-PGothic','MS PGothic';adobe-font-script:japanese;">
	<!ENTITY st21 "font-size:7px;font-family:'MS-PGothic','MS PGothic';adobe-font-script:japanese;">
	<!ATTLIST svg
		xmlns:ewd CDATA #FIXED "http://shcl.co.jp/ewd"
		xmlns:a CDATA #FIXED "http://ns.adobe.com/AdobeSVGViewerExtensions/3.0/"
		ewd:ver CDATA #IMPLIED
	>
	<!ATTLIST a
		ewd:lineID CDATA #IMPLIED
		ewd:groupID CDATA #IMPLIED
		ewd:figtype CDATA #IMPLIED
		ewd:code CDATA #IMPLIED
		ewd:figID CDATA #IMPLIED
		ewd:pinNo CDATA #IMPLIED
		ewd:comment CDATA #IMPLIED >
	<!ATTLIST g
		ewd:lineID CDATA #IMPLIED
		ewd:groupID CDATA #IMPLIED
		ewd:figtype CDATA #IMPLIED
		ewd:code CDATA #IMPLIED
		ewd:figID CDATA #IMPLIED
		ewd:pinNo CDATA #IMPLIED
		ewd:comment CDATA #IMPLIED >
	<!ATTLIST text
		ewd:textID CDATA #IMPLIED >
	<!ATTLIST title
		ewd:textID CDATA #IMPLIED >
]>
<!-- Generator: Shintec Hozumi YS   -->
<svg onload="call_execInitLoadProc_svg('system')" style="overflow:visible;  enable-background:new 0 0 7261.924 710.000" viewBox="0 0 7261.924 710.000" height="710.000" width="7261.924" xml:space="preserve" ewd:ver="2.1.2.9" xmlns="&ns_svg;" xmlns:a="http://ns.adobe.com/AdobeSVGViewerExtensions/3.0/" xmlns:ewd="http://shcl.co.jp/ewd" xmlns:xlink="&ns_xlink;">
<text style="&st18;" transform="matrix(&st16;  4675.06  493.84 )" ewd:textID="65">Front Door Lock <tspan x="0 " dy="6.0">Actuator Assembly RH</tspan></text><text style="&st18;" transform="matrix(&st16;  4675.06  383.36 )" ewd:textID="153">Winch Motor with <tspan x="0 " dy="6.0">Magnet Switch Assembly</tspan></text><text style="&st18;" transform="matrix(&st16;  4675.06  306.87 )" ewd:textID="35">Battery (Main)</text><text style="&st18;" transform="matrix(&st16;  4675.06  629.82 )" ewd:textID="122">Power Window Regulator <tspan x="0 " dy="6.0">Master Switch Assembly</tspan></text><text style="&st18;" transform="matrix(&st16;  4598.58  26.42 )" ewd:textID="111">No. 2 <tspan x="0 " dy="6.0">Differential </tspan><tspan x="0 " dy="6.0">Lock Shift </tspan><tspan x="0 " dy="6.0">Actuator</tspan></text><text style="&st18;" transform="matrix(&st16;  4598.58  238.88 )" ewd:textID="37">Brake Fluid <tspan x="0 " dy="6.0">Level Warning </tspan><tspan x="0 " dy="6.0">Switch (Brake </tspan><tspan x="0 " dy="6.0">Master Cylinder </tspan><tspan x="0 " dy="6.0">Reservoir </tspan><tspan x="0 " dy="6.0">Sub-Assembly)</tspan></text><text style="&st18;" transform="matrix(&st16;  4598.58  298.37 )" ewd:textID="63">Four Wheel <tspan x="0 " dy="6.0">Drive Control </tspan><tspan x="0 " dy="6.0">Solenoid </tspan><tspan x="0 " dy="6.0">Assembly</tspan></text><text style="&st18;" transform="matrix(&st16;  4598.58  349.36 )" ewd:textID="63">Four Wheel <tspan x="0 " dy="6.0">Drive Control </tspan><tspan x="0 " dy="6.0">Solenoid Assembly</tspan></text><text style="&st18;" transform="matrix(&st16;  4598.58  77.41 )" ewd:textID="111">No. 2 <tspan x="0 " dy="6.0">Differential </tspan><tspan x="0 " dy="6.0">Lock Shift </tspan><tspan x="0 " dy="6.0">Actuator</tspan></text><text style="&st18;" transform="matrix(&st16;  4598.58  204.89 )" ewd:textID="76">Fuse Block <tspan x="0 " dy="6.0">Assembly</tspan></text><text style="&st18;" transform="matrix(&st16;  4675.06  561.83 )" ewd:textID="65">Front Door Lock <tspan x="0 " dy="6.0">Actuator Assembly RH</tspan></text><text style="&st18;" transform="matrix(&st16;  4675.06  527.83 )" ewd:textID="52">Door Control <tspan x="0 " dy="6.0">Relay Assembly</tspan></text><text style="&st18;" transform="matrix(&st16;  4598.58  128.4 )" ewd:textID="64">Front <tspan x="0 " dy="6.0">Differential </tspan><tspan x="0 " dy="6.0">Lock Position </tspan><tspan x="0 " dy="6.0">Switch</tspan></text><text style="&st18;" transform="matrix(&st16;  4825.2  584.49 )">P</text><text style="&st18;" transform="matrix(&st16;  4821.98  595.82 )">(*4)</text><path style="stroke-width:1.42 ;&st7;  " d=" M  4512.75,   137.76  L  4504.25,   137.76  " /><path style="stroke-width:1.42 ;&st7;  " d=" M  4512.75,    66.25  L  4507.77,    61.28  " /><path style="stroke-width:1.42 ;&st7;  " d=" M  4507.77,    78.27  L  4512.75,    73.30  " /><text style="&st18;" transform="matrix(&st16;  4598.57  70.3 )">B1</text><text style="&st18;" transform="matrix(&st16;  4598.57  19.31 )">B5</text><path style="stroke-width:1.42 ;&st7;  " d=" M  4507.77,   205.75  L  4512.75,   200.78  " /><path style="stroke-width:1.42 ;&st7;  " d=" M  4512.75,   193.73  L  4507.77,   188.75  " /><text style="&st18;" transform="matrix(&st17;  4511.88  108.26 )">(*1,*3)</text><text style="&st18;" transform="matrix(&st17;  4511.88  172.0 )">(*1,*3)</text><path style="stroke-width:1.42 ;&st7;  " d=" M  4512.75,   338.20  L  4507.77,   333.23  " /><path style="stroke-width:1.42 ;&st7;  " d=" M  4507.77,   350.23  L  4512.75,   345.26  " /><text style="&st18;" transform="matrix(&st16;  4598.57  197.78 )">I76</text><text style="&st18;" transform="matrix(&st16;  4598.57  231.78 )">I85</text><text style="&st18;" transform="matrix(&st16;  4598.57  291.27 )">I89</text><text style="&st18;" transform="matrix(&st16;  4598.57  342.26 )">I31</text><text style="&st18;" transform="matrix(&st17;  4500.55  271.2 )">W-B</text><path style="stroke-width:1.42 ;&st7;  " d=" M  4886.68,   690.17  L  4886.68,   694.42  " /><text style="&st18;" transform="matrix(&st16;  4675.06  486.73 )">O5</text><text style="&st18;" transform="matrix(&st16;  4675.06  520.73 )">O15</text><text style="&st18;" transform="matrix(&st16;  4675.06  554.72 )">O7</text><text style="&st18;" transform="matrix(&st16;  4675.06  622.71 )">O8</text><path style="stroke-width:1.42 ;&st7;  " d=" M  4937.67,   618.65  L  4932.70,   613.68  " /><path style="stroke-width:1.42 ;&st7;  " d=" M  4920.68,   625.71  L  4925.65,   630.68  " /><path style="stroke-width:1.42 ;&st7;  " d=" M  4932.70,   630.68  L  4937.67,   625.71  " /><path style="stroke-width:1.42 ;&st7;  " d=" M  4925.65,   613.68  L  4920.68,   618.65  " /><path style="stroke-width:1.42 ;&st7;  " d=" M  4937.67,   550.67  L  4932.70,   545.69  " /><path style="stroke-width:1.42 ;&st7;  " d=" M  4920.68,   557.72  L  4925.65,   562.69  " /><path style="stroke-width:1.42 ;&st7;  " d=" M  4932.70,   562.69  L  4937.67,   557.72  " /><path style="stroke-width:1.42 ;&st7;  " d=" M  4925.65,   545.69  L  4920.68,   550.67  " /><path style="stroke-width:1.42 ;&st7;  " d=" M  4971.67,   525.17  L  4966.70,   520.20  " /><path style="stroke-width:1.42 ;&st7;  " d=" M  4954.67,   532.23  L  4959.64,   537.20  " /><path style="stroke-width:1.42 ;&st7;  " d=" M  4966.70,   537.20  L  4971.67,   532.23  " /><path style="stroke-width:1.42 ;&st7;  " d=" M  4959.64,   520.20  L  4954.67,   525.17  " /><text style="&st18;" transform="matrix(&st16;  4633.77  686.47 )">W-B</text><text style="&st18;" transform="matrix(&st16;  4684.76  686.47 )">W-B</text><text style="&st18;" transform="matrix(&st16;  4633.77  457.01 )">W-B</text><text style="&st18;" transform="matrix(&st16;  4684.76  457.01 )">W-B</text><text style="&st18;" transform="matrix(&st16;  4540.29  193.56 )">W-B</text><text style="&st18;" transform="matrix(&st16;  4540.29  227.55 )">W-B</text><text style="&st18;" transform="matrix(&st16;  4540.29  287.04 )">W-B</text><text style="&st18;" transform="matrix(&st16;  4540.29  338.03 )">W-B</text><text style="&st18;" transform="matrix(&st16;  4540.29  66.08 )">W-B</text><text style="&st18;" transform="matrix(&st16;  4540.29  15.09 )">W-B</text><text style="&st18;" transform="matrix(&st17;  4517.55  398.67 )">W-B</text><text style="&st18;" transform="matrix(&st17;  4500.55  169.21 )">W-B</text><text style="&st18;" transform="matrix(&st17;  4500.55  105.47 )">W-B</text><text style="&st18;" transform="matrix(&st16;  4675.06  34.92 )" ewd:textID="35">Battery (Main)</text><text style="&st18;" transform="matrix(&st16;  4675.06  27.81 )">A36</text><text style="&st18;" transform="matrix(&st16;  4675.06  111.4 )" ewd:textID="36">Brake Actuator <tspan x="0 " dy="6.0">Assembly</tspan></text><text style="&st18;" transform="matrix(&st16;  4675.06  104.3 )">A20</text><text style="&st18;" transform="matrix(&st16;  4675.06  196.39 )" ewd:textID="35">Battery (Main)</text><text style="&st18;" transform="matrix(&st16;  4675.06  189.28 )">D9</text><text style="&st18;" transform="matrix(&st16;  4675.06  299.76 )">F1</text><text style="&st18;" transform="matrix(&st16;  4675.06  376.25 )">t1</text><text style="&st18;" transform="matrix(&st16;  4820.74  652.48 )">W-B</text><text style="&st18;" transform="matrix(&st16;  4820.74  618.48 )">W-B</text><text style="&st18;" transform="matrix(&st16;  4820.74  550.5 )">W-B</text><text style="&st18;" transform="matrix(&st16;  4820.74  516.5 )">W-B</text><text style="&st18;" transform="matrix(&st16;  4820.74  482.51 )">W-B</text><text style="&st18;" transform="matrix(&st16;  4819.11  23.58 )">B-DG</text><text style="&st18;" transform="matrix(&st16;  4825.01  185.06 )">B</text><text style="&st18;" transform="matrix(&st16;  4819.11  219.05 )">B-DG</text><text style="&st18;" transform="matrix(&st16;  4819.11  295.54 )">B-DG</text><text style="&st18;" transform="matrix(&st16;  4819.11  372.03 )">B-DG</text><text style="&st18;" transform="matrix(&st16;  4863.23  100.07 )">W-B</text><text style="&st18;" transform="matrix(&st17;  4925.48  589.89 )">W-B</text><text style="&st18;" transform="matrix(&st17;  4925.48  662.13 )">W-B</text><text style="&st18;" transform="matrix(&st17;  4959.48  645.13 )">W-B</text><text style="&st18;" transform="matrix(&st16;  4773.69  111.4 )">(*33)</text><text style="&st18;" transform="matrix(&st17;  4936.81  588.65 )">(*4)</text><text style="&st18;" transform="matrix(&st17;  4936.81  660.89 )">(*4)</text><text style="&st18;" transform="matrix(&st17;  4970.81  643.89 )">(*5)</text><text style="&st18;" transform="matrix(&st16;  4821.98  493.84 )">(*4)</text><text style="&st18;" transform="matrix(&st16;  4821.98  527.83 )">(*4)</text><text style="&st18;" transform="matrix(&st16;  4821.98  561.83 )">(*4)</text><text style="&st18;" transform="matrix(&st16;  4821.98  629.82 )">(*4)</text><text style="&st18;" transform="matrix(&st16;  4821.98  663.81 )">(*4)</text><text style="&st18;" transform="matrix(&st16;  4821.98  196.39 )">(*1)</text><text style="&st18;" transform="matrix(&st16;  4821.98  230.38 )">(*3)</text><text style="&st18;" transform="matrix(&st16;  4814.85  306.87 )">(*11,*30)</text><path style="stroke-width:1.42 ;&st7;  " d=" M  4971.67,   457.18  L  4966.70,   452.21  " /><path style="stroke-width:1.42 ;&st7;  " d=" M  4954.67,   464.24  L  4959.64,   469.21  " /><path style="stroke-width:1.42 ;&st7;  " d=" M  4966.70,   469.21  L  4971.67,   464.24  " /><path style="stroke-width:1.42 ;&st7;  " d=" M  4959.64,   452.21  L  4954.67,   457.18  " /><text style="&st18;" transform="matrix(&st17;  4959.48  500.66 )">W-B</text><text style="&st18;" transform="matrix(&st17;  4970.81  499.42 )">(*5)</text><text style="&st18;" transform="matrix(&st16;  4598.57  121.29 )">B2</text><text style="&st18;" transform="matrix(&st16;  4540.29  117.07 )">W-B</text><text style="&st18;" transform="matrix(&st16;  4534.39  77.41 )">(*23 *31)</text><text style="&st18;" transform="matrix(&st16;  4534.39  26.42 )">(*22 *31)</text><text style="&st18;" transform="matrix(&st16;  4675.06  77.41 )" ewd:textID="36">Brake Actuator <tspan x="0 " dy="6.0">Assembly</tspan></text><text style="&st18;" transform="matrix(&st16;  4675.06  70.3 )">A42</text><text style="&st18;" transform="matrix(&st16;  4774.0  66.08 )">W-B</text><text style="&st18;" transform="matrix(&st16;  4773.69  77.41 )">(*32)</text><text style="&st18;" transform="matrix(&st16;  4774.0  100.07 )">W-B</text><path style="stroke-width:1.42 ;&st7;  " d=" M  4572.23,    61.28  L  4572.23,   103.77  L  4657.22,   103.77  L  4657.22,    61.28  L  4572.23,    61.28  " /><text style="&st18;" transform="matrix(&st16;  4573.97  71.74 )">(GND)</text><path style="stroke-width:1.42 ;&st7;  " d=" M  4572.23,    10.28  L  4572.23,    52.78  L  4657.22,    52.78  L  4657.22,    10.28  L  4572.23,    10.28  " /><text style="&st18;" transform="matrix(&st16;  4573.97  20.75 )">(GND)</text><path style="stroke-width:1.42 ;&st7;  " d=" M  4572.23,   188.75  L  4572.23,   214.25  L  4657.22,   214.25  L  4657.22,   188.75  L  4572.23,   188.75  " /><text style="&st18;" transform="matrix(&st16;  4573.97  199.22 )">(E)</text><path style="stroke-width:1.42 ;&st7;  " d=" M  4572.23,   222.75  L  4572.23,   273.74  L  4657.22,   273.74  L  4657.22,   222.75  L  4572.23,   222.75  " /><text style="&st18;" transform="matrix(&st16;  4573.97  233.22 )">(E)</text><path style="stroke-width:1.42 ;&st7;  " d=" M  4572.23,   282.24  L  4572.23,   324.73  L  4657.22,   324.73  L  4657.22,   282.24  L  4572.23,   282.24  " /><text style="&st18;" transform="matrix(&st16;  4573.97  292.71 )">(L)</text><path style="stroke-width:1.42 ;&st7;  " d=" M  4572.23,   333.23  L  4572.23,   367.22  L  4657.22,   367.22  L  4657.22,   333.23  L  4572.23,   333.23  " /><text style="&st18;" transform="matrix(&st16;  4573.97  343.7 )">(L)</text><path style="stroke-width:1.42 ;&st7;  " d=" M  4674.22,   477.71  L  4674.22,   503.20  L  4759.20,   503.20  L  4759.20,   477.71  L  4674.22,   477.71  " /><text style="&st18;" transform="matrix(&st16;  4749.53  488.17 )">(E)</text><path style="stroke-width:1.42 ;&st7;  " d=" M  4674.22,   511.70  L  4674.22,   537.20  L  4759.20,   537.20  L  4759.20,   511.70  L  4674.22,   511.70  " /><text style="&st18;" transform="matrix(&st16;  4749.53  522.17 )">(E)</text><path style="stroke-width:1.42 ;&st7;  " d=" M  4674.22,   545.69  L  4674.22,   605.18  L  4759.20,   605.18  L  4759.20,   545.69  L  4674.22,   545.69  " /><text style="&st18;" transform="matrix(&st16;  4749.53  556.16 )">(E)</text><path style="stroke-width:1.42 ;&st7;  " d=" M  4674.22,   613.68  L  4674.22,   673.17  L  4759.20,   673.17  L  4759.20,   613.68  L  4674.22,   613.68  " /><text style="&st18;" transform="matrix(&st16;  4749.53  624.15 )">(E)</text><text style="&st18;" transform="matrix(&st16;  4740.45  29.25 )">(GND)</text><path style="stroke-width:1.42 ;&st7;  " d=" M  4674.22,    18.78  L  4674.22,    44.28  L  4759.20,    44.28  L  4759.20,    18.78  L  4674.22,    18.78  " /><path style="stroke-width:1.42 ;&st7;  " d=" M  4674.22,    95.27  L  4674.22,   120.77  L  4759.20,   120.77  L  4759.20,    95.27  L  4674.22,    95.27  " /><text style="&st18;" transform="matrix(&st16;  4737.35  105.74 )">(GND1)</text><path style="stroke-width:1.42 ;&st7;  " d=" M  4674.22,   180.26  L  4674.22,   205.75  L  4759.20,   205.75  L  4759.20,   180.26  L  4674.22,   180.26  " /><text style="&st18;" transform="matrix(&st16;  4740.45  190.72 )">(GND)</text><text style="&st18;" transform="matrix(&st16;  4740.45  301.2 )">(GND)</text><path style="stroke-width:1.42 ;&st7;  " d=" M  4674.22,   290.74  L  4674.22,   316.23  L  4759.20,   316.23  L  4759.20,   290.74  L  4674.22,   290.74  " /><text style="&st18;" transform="matrix(&st16;  4749.53  377.69 )">(E)</text><path style="stroke-width:1.42 ;&st7;  " d=" M  4674.22,   367.22  L  4674.22,   392.72  L  4759.20,   392.72  L  4759.20,   367.22  L  4674.22,   367.22  " /><text style="&st18;" transform="matrix(&st16;  4749.53  658.14 )">(E)</text><text style="&st18;" transform="matrix(&st16;  4749.53  590.16 )">(E)</text><path style="stroke-width:1.42 ;&st7;  " d=" M  4572.23,   112.27  L  4572.23,   154.76  L  4657.22,   154.76  L  4657.22,   112.27  L  4572.23,   112.27  " /><text style="&st18;" transform="matrix(&st16;  4573.97  122.73 )">(FRE)</text><path style="stroke-width:1.42 ;&st7;  " d=" M  4674.22,    61.28  L  4674.22,    86.77  L  4759.20,    86.77  L  4759.20,    61.28  L  4674.22,    61.28  " /><text style="&st18;" transform="matrix(&st16;  4737.35  71.74 )">(GND1)</text><g ewd:figtype="conn" ewd:figID="10" ewd:code="A25,A26"><path style="stroke-width:1.42 ;&st7;   " d=" M  4827.19,   103.77  C  4827.19    101.26   4825.16     99.24   4822.66     99.24  " /><path style="stroke-width:1.42 ;&st7;   " d=" M  4822.66,    99.24  C  4820.16     99.24   4818.13    101.26   4818.13    103.77  " /><path style="stroke-width:1.42 ;&st7;   " d=" M  4818.13,   103.77  C  4818.13    106.27   4820.16    108.30   4822.66    108.30  " /><path style="stroke-width:1.42 ;&st7;   " d=" M  4822.66,   108.30  C  4825.16    108.30   4827.19    106.27   4827.19    103.77  " /><path style="stroke-width:1.42 ;&st7;  " d=" M  4827.19,    95.27  L  4827.19,   112.27  L  4844.19,   112.27  L  4844.19,    95.27  L  4827.19,    95.27  " /><path style="stroke-width:1.42 ;&st7;  " d=" M  4835.69,    95.27  L  4835.69,   112.27  " /><text style="&st18;" transform="matrix(&st16;  4820.86  97.24 )">1</text><text style="&st18;" transform="matrix(&st16;  4820.47  105.74 )">B</text><path style="stroke-width:1.42 ;&st7;   " d=" M  4827.19,   103.77  C  4827.19    101.26   4825.16     99.24   4822.66     99.24  " /><path style="stroke-width:1.42 ;&st7;   " d=" M  4822.66,    99.24  C  4820.16     99.24   4818.13    101.26   4818.13    103.77  " /><path style="stroke-width:1.42 ;&st7;   " d=" M  4818.13,   103.77  C  4818.13    106.27   4820.16    108.30   4822.66    108.30  " /><path style="stroke-width:1.42 ;&st7;   " d=" M  4822.66,   108.30  C  4825.16    108.30   4827.19    106.27   4827.19    103.77  " /><text style="&st18;" transform="matrix(&st16;  4846.92  97.24 )">1</text><text style="&st18;" transform="matrix(&st16;  4846.42  105.74 )">A</text><path style="stroke-width:1.42 ;&st7;   " d=" M  4853.26,   103.77  C  4853.26    101.26   4851.23     99.24   4848.72     99.24  " /><path style="stroke-width:1.42 ;&st7;   " d=" M  4848.72,    99.24  C  4846.22     99.24   4844.19    101.26   4844.19    103.77  " /><path style="stroke-width:1.42 ;&st7;   " d=" M  4844.19,   103.77  C  4844.19    106.27   4846.22    108.30   4848.72    108.30  " /><path style="stroke-width:1.42 ;&st7;   " d=" M  4848.72,   108.30  C  4851.23    108.30   4853.26    106.27   4853.26    103.77  " /><g ewd:figtype="title"><text style="&st18;" transform="matrix(&st16;  4815.29  126.98 )" ewd:textID="38">Brake Vacuum <tspan x="0 " dy="6.0">Check Valve </tspan><tspan x="0 " dy="6.0">Assembly</tspan></text><text style="&st18;" transform="matrix(&st16;  4815.28  120.16 )">A25(A),A26(B)</text></g></g><g ewd:figtype="w2w" ewd:figID="70" ewd:code="OI5"><text style="&st18;" transform="matrix(&st16;  4893.38  682.93 )">2</text><path style="stroke-width: 1.42 ;&st7;  " d=" M  4877.62,   685.92  L  4881.87,   690.17  L  4877.62,   694.42  " /><path style="stroke-width: 1.42 ;&st7;  " d=" M  4881.02,   685.92  L  4885.27,   690.17  L  4881.02,   694.42  " /></g><g ewd:figtype="gp" ewd:figID="109" ewd:code="tA"><path style="stroke-width: 0.85 ;&st7;  " d=" M  4886.68,   416.80  L  4886.68,   421.05  " /><path style="stroke-width: 0.85 ;&st7;  " d=" M  4878.18,   421.05  L  4895.18,   421.05  " /><path style="stroke-width: 0.85 ;&st7;  " d=" M  4882.43,   423.88  L  4890.93,   423.88  " /><path style="stroke-width: 0.85 ;&st7;  " d=" M  4883.85,   426.71  L  4889.51,   426.71  " /><path style="stroke-width: 0.85 ;&st7;  " d=" M  4885.27,   429.55  L  4888.10,   429.55  " /></g><g ewd:figtype="gp" ewd:figID="110" ewd:code="FA"><path style="stroke-width: 0.85 ;&st7;  " d=" M  4886.68,   340.31  L  4886.68,   344.56  " /><path style="stroke-width: 0.85 ;&st7;  " d=" M  4878.18,   344.56  L  4895.18,   344.56  " /><path style="stroke-width: 0.85 ;&st7;  " d=" M  4882.43,   347.39  L  4890.93,   347.39  " /><path style="stroke-width: 0.85 ;&st7;  " d=" M  4883.85,   350.23  L  4889.51,   350.23  " /><path style="stroke-width: 0.85 ;&st7;  " d=" M  4885.27,   353.06  L  4888.10,   353.06  " /></g><g ewd:figtype="gp" ewd:figID="111" ewd:code="DA"><path style="stroke-width: 0.85 ;&st7;  " d=" M  4886.68,   255.33  L  4886.68,   259.58  " /><path style="stroke-width: 0.85 ;&st7;  " d=" M  4878.18,   259.58  L  4895.18,   259.58  " /><path style="stroke-width: 0.85 ;&st7;  " d=" M  4882.43,   262.41  L  4890.93,   262.41  " /><path style="stroke-width: 0.85 ;&st7;  " d=" M  4883.85,   265.24  L  4889.51,   265.24  " /><path style="stroke-width: 0.85 ;&st7;  " d=" M  4885.27,   268.07  L  4888.10,   268.07  " /></g><g ewd:figtype="gp" ewd:figID="112" ewd:code="AD"><path style="stroke-width: 0.85 ;&st7;  " d=" M  4886.68,   144.84  L  4886.68,   149.09  " /><path style="stroke-width: 0.85 ;&st7;  " d=" M  4878.18,   149.09  L  4895.18,   149.09  " /><path style="stroke-width: 0.85 ;&st7;  " d=" M  4882.43,   151.93  L  4890.93,   151.93  " /><path style="stroke-width: 0.85 ;&st7;  " d=" M  4883.85,   154.76  L  4889.51,   154.76  " /><path style="stroke-width: 0.85 ;&st7;  " d=" M  4885.27,   157.59  L  4888.10,   157.59  " /></g><g ewd:figtype="gp" ewd:figID="113" ewd:code="AC"><path style="stroke-width: 0.85 ;&st7;  " d=" M  4886.68,    68.36  L  4886.68,    72.61  " /><path style="stroke-width: 0.85 ;&st7;  " d=" M  4878.18,    72.61  L  4895.18,    72.61  " /><path style="stroke-width: 0.85 ;&st7;  " d=" M  4882.43,    75.44  L  4890.93,    75.44  " /><path style="stroke-width: 0.85 ;&st7;  " d=" M  4883.85,    78.27  L  4889.51,    78.27  " /><path style="stroke-width: 0.85 ;&st7;  " d=" M  4885.27,    81.11  L  4888.10,    81.11  " /></g><g ewd:figtype="gp" ewd:figID="114" ewd:code="HA"><path style="stroke-width: 0.85 ;&st7;  " d=" M  5005.66,   697.25  L  5005.66,   701.50  " /><path style="stroke-width: 0.85 ;&st7;  " d=" M  4997.16,   701.50  L  5014.16,   701.50  " /><path style="stroke-width: 0.85 ;&st7;  " d=" M  5001.41,   704.33  L  5009.91,   704.33  " /><path style="stroke-width: 0.85 ;&st7;  " d=" M  5002.83,   707.17  L  5008.49,   707.17  " /><path style="stroke-width: 0.85 ;&st7;  " d=" M  5004.25,   710.00  L  5007.08,   710.00  " /></g></svg>