<?xml version="1.0" encoding="utf-8"?>
<!DOCTYPE svg PUBLIC "-//W3C//DTD SVG 1.0//EN" "http://www.w3.org/TR/2001/REC-SVG-20010904/DTD/svg10.dtd"[
	<!ENTITY ns_flows "http://ns.adobe.com/Flows/1.0/">
	<!ENTITY ns_svg "http://www.w3.org/2000/svg">
	<!ENTITY ns_xlink "http://www.w3.org/1999/xlink">
	<!ENTITY st0 "font-size:7px;font-family:'MS-PGothic';adobe-font-script:japanese;">
	<!ENTITY st1 "font-size:6px;font-family:'ArialMT';">
	<!-- White fill  -->
	<!ENTITY st2 "fill:#FFFFFF;stroke:#000000; stroke-width:1.41;stroke-linecap:round;stroke-linejoin:round;">
	<!-- Yellow fill  -->
	<!ENTITY st3 "fill:#FFFFCC;stroke:#FFFFCC; stroke-width:0.1;stroke-linecap:round;stroke-linejoin:round;">
	<!-- Gray fill  -->
	<!ENTITY st4 "fill:#CCCCCC;stroke:#CCCCCC; stroke-width:0.1;stroke-linecap:round;stroke-linejoin:round;">
	<!-- Light-blue fill -->
	<!ENTITY st5 "fill:#CCECF4;stroke:#000000; stroke-width:1.133;stroke-linecap:round;stroke-linejoin:round;">
	<!ENTITY st6 "fill:none;stroke-linecap:butt; stroke-linejoin:round;">
	<!ENTITY st7 "fill:none;stroke:#000000;stroke-linecap:round;stroke-linejoin:round;">
	<!ENTITY st8 "enable-background:new    ;">
	<!-- Black fill -->
	<!ENTITY st9 "fill:#000000;stroke:#000000; stroke-linecap:round;stroke-linejoin:round;">
	<!-- SRS note   -->
	<!ENTITY st10 "font-size:9px;font-family:'ArialMT';">
	<!ENTITY st11 "font-size:9px;font-family:'Svg Symbol';">
	<!ENTITY st12 "font-size:6px;font-family:'Svg Symbol';">
	<!ENTITY st13 "fill:none;stroke:#ff0000;stroke-linecap:round;stroke-linejoin:round;">
	<!-- Yellow fill  -->
	<!ENTITY st14 "fill:#FFFF00;stroke:#FFFF00; stroke-width:0.1;stroke-linecap:round;stroke-linejoin:round;">
	<!ENTITY st15 "font-size:6px;font-family:'MS-PGothic';adobe-font-script:japanese;">
	<!ENTITY st16 "1.00 0.00 0.00 1.00">
	<!ENTITY st17 "0.00 -1.00 1.00 0.00">
	<!ENTITY st18 "font-size:6px;font-family:'Arial';">
	<!ENTITY st19 "font-size:9px;font-family:'Arial';">
	<!ENTITY st20 "font-size:6px;font-family:'MS-PGothic','MS PGothic';adobe-font-script:japanese;">
	<!ENTITY st21 "font-size:7px;font-family:'MS-PGothic','MS PGothic';adobe-font-script:japanese;">
	<!ATTLIST svg
		xmlns:ewd CDATA #FIXED "http://shcl.co.jp/ewd"
		xmlns:a CDATA #FIXED "http://ns.adobe.com/AdobeSVGViewerExtensions/3.0/"
		ewd:ver CDATA #IMPLIED
	>
	<!ATTLIST a
		ewd:lineID CDATA #IMPLIED
		ewd:groupID CDATA #IMPLIED
		ewd:figtype CDATA #IMPLIED
		ewd:code CDATA #IMPLIED
		ewd:figID CDATA #IMPLIED
		ewd:pinNo CDATA #IMPLIED
		ewd:comment CDATA #IMPLIED >
	<!ATTLIST g
		ewd:lineID CDATA #IMPLIED
		ewd:groupID CDATA #IMPLIED
		ewd:figtype CDATA #IMPLIED
		ewd:code CDATA #IMPLIED
		ewd:figID CDATA #IMPLIED
		ewd:pinNo CDATA #IMPLIED
		ewd:comment CDATA #IMPLIED >
	<!ATTLIST text
		ewd:textID CDATA #IMPLIED >
	<!ATTLIST title
		ewd:textID CDATA #IMPLIED >
]>
<!-- Generator: Shintec Hozumi YS   -->
<svg onload="call_execInitLoadProc_svg('system')" style="overflow:visible;  enable-background:new 0 0 7261.924 710.000" viewBox="0 0 7261.924 710.000" height="710.000" width="7261.924" xml:space="preserve" ewd:ver="2.1.2.9" xmlns="&ns_svg;" xmlns:a="http://ns.adobe.com/AdobeSVGViewerExtensions/3.0/" xmlns:ewd="http://shcl.co.jp/ewd" xmlns:xlink="&ns_xlink;">
<text style="&st18;" transform="matrix(&st16;  5193.48  502.34 )" ewd:textID="100">License Plate <tspan x="0 " dy="6.0">Light Assembly LH</tspan></text><text style="&st18;" transform="matrix(&st16;  5193.48  468.34 )" ewd:textID="101">License Plate <tspan x="0 " dy="6.0">Light Assembly RH</tspan></text><text style="&st18;" transform="matrix(&st16;  5193.48  434.35 )" ewd:textID="100">License Plate <tspan x="0 " dy="6.0">Light Assembly LH</tspan></text><text style="&st18;" transform="matrix(&st16;  5193.48  400.35 )" ewd:textID="144">Trailer Socket</text><text style="&st18;" transform="matrix(&st16;  5193.48  366.36 )" ewd:textID="72">Fuel Pump (Sub)</text><text style="&st18;" transform="matrix(&st16;  5193.48  170.89 )" ewd:textID="50">Differential Lock <tspan x="0 " dy="6.0">Shift Actuator</tspan></text><text style="&st18;" transform="matrix(&st16;  5193.48  136.9 )" ewd:textID="128">Rear Differential <tspan x="0 " dy="6.0">Lock Position Switch</tspan></text><text style="&st18;" transform="matrix(&st16;  5193.48  536.33 )" ewd:textID="101">License Plate <tspan x="0 " dy="6.0">Light Assembly RH</tspan></text><text style="&st18;" transform="matrix(&st16;  5193.48  570.33 )" ewd:textID="33">Back Buzzer Assembly</text><text style="&st18;" transform="matrix(&st16;  5193.48  663.81 )" ewd:textID="126">Rear Combination <tspan x="0 " dy="6.0">Light Assembly LH</tspan></text><text style="&st18;" transform="matrix(&st16;  5116.99  425.85 )" ewd:textID="65">Front Door <tspan x="0 " dy="6.0">Lock Actuator </tspan><tspan x="0 " dy="6.0">Assembly RH</tspan></text><text style="&st18;" transform="matrix(&st16;  5116.99  468.34 )" ewd:textID="53">Door Control <tspan x="0 " dy="6.0">Switch</tspan></text><text style="&st18;" transform="matrix(&st16;  5193.48  604.32 )" ewd:textID="127">Rear Combination <tspan x="0 " dy="6.0">Light Assembly RH</tspan></text><text style="&st18;" transform="matrix(&st16;  5116.99  536.33 )" ewd:textID="52">Door Control <tspan x="0 " dy="6.0">Relay Assembly</tspan></text><text style="&st18;" transform="matrix(&st16;  5034.45  468.34 )">(*5)</text><text style="&st18;" transform="matrix(&st16;  5037.66  414.52 )">P</text><text style="&st18;" transform="matrix(&st16;  5116.98  418.74 )">O4</text><text style="&st18;" transform="matrix(&st16;  5034.45  425.85 )">(*5)</text><text style="&st18;" transform="matrix(&st16;  5116.98  461.24 )">O14</text><text style="&st18;" transform="matrix(&st16;  5116.98  529.23 )">O15</text><text style="&st18;" transform="matrix(&st16;  5116.98  563.22 )">O9</text><text style="&st18;" transform="matrix(&st16;  5143.69  40.58 )">W-B</text><text style="&st18;" transform="matrix(&st17;  5497.72  261.46 )">(*9)</text><text style="&st18;" transform="matrix(&st17;  5418.4  424.17 )">W-B</text><text style="&st18;" transform="matrix(&st17;  5418.4  517.65 )">W-B</text><text style="&st18;" transform="matrix(&st17;  5418.4  628.14 )">W-B</text><text style="&st18;" transform="matrix(&st17;  5486.39  203.21 )">W-B</text><text style="&st18;" transform="matrix(&st17;  5443.89  203.21 )">W-B</text><text style="&st18;" transform="matrix(&st17;  5486.39  262.7 )">W-B</text><text style="&st18;" transform="matrix(&st17;  5443.89  262.7 )">W-B</text><text style="&st18;" transform="matrix(&st16;  5330.65  125.57 )">W-B</text><text style="&st18;" transform="matrix(&st16;  5330.65  159.56 )">W-B</text><text style="&st18;" transform="matrix(&st16;  5483.63  355.03 )">W-B</text><text style="&st18;" transform="matrix(&st16;  5330.65  389.02 )">W-B</text><text style="&st18;" transform="matrix(&st16;  5330.65  423.02 )">W-B</text><text style="&st18;" transform="matrix(&st16;  5330.65  457.01 )">W-B</text><text style="&st18;" transform="matrix(&st16;  5330.65  491.01 )">W-B</text><text style="&st18;" transform="matrix(&st16;  5330.65  525.0 )">W-B</text><text style="&st18;" transform="matrix(&st16;  5330.65  558.99 )">W-B</text><text style="&st18;" transform="matrix(&st16;  5330.65  592.99 )">W-B</text><text style="&st18;" transform="matrix(&st16;  5330.65  652.48 )">W-B</text><text style="&st18;" transform="matrix(&st16;  5193.47  163.79 )">V2</text><text style="&st18;" transform="matrix(&st16;  5193.47  129.79 )">V1</text><path style="stroke-width:1.42 ;&st7;  " d=" M  5444.06,   154.76  L  5439.09,   159.73  " /><path style="stroke-width:1.42 ;&st7;  " d=" M  5451.12,   171.76  L  5456.09,   166.79  " /><path style="stroke-width:1.42 ;&st7;  " d=" M  5439.09,   166.79  L  5444.06,   171.76  " /><path style="stroke-width:1.42 ;&st7;  " d=" M  5456.09,   159.73  L  5451.12,   154.76  " /><path style="stroke-width:1.42 ;&st7;  " d=" M  5456.09,   231.25  L  5447.59,   231.25  " /><path style="stroke-width:1.42 ;&st7;  " d=" M  5498.58,   231.25  L  5490.08,   231.25  " /><text style="&st18;" transform="matrix(&st16;  5193.47  656.7 )">T17</text><text style="&st18;" transform="matrix(&st16;  5193.47  563.22 )">T11</text><path style="stroke-width:1.42 ;&st7;  " d=" M  5337.11,   358.73  L  5337.11,   362.97  " /><path style="stroke-width:1.42 ;&st7;  " d=" M  5430.59,   559.16  L  5425.62,   554.19  " /><path style="stroke-width:1.42 ;&st7;  " d=" M  5413.60,   566.22  L  5418.57,   571.19  " /><path style="stroke-width:1.42 ;&st7;  " d=" M  5425.62,   571.19  L  5430.59,   566.22  " /><path style="stroke-width:1.42 ;&st7;  " d=" M  5418.57,   554.19  L  5413.60,   559.16  " /><text style="&st18;" transform="matrix(&st16;  5193.47  597.21 )">T14</text><text style="&st18;" transform="matrix(&st16;  5193.47  529.23 )">T12</text><text style="&st18;" transform="matrix(&st16;  5193.47  495.23 )">T16</text><text style="&st18;" transform="matrix(&st16;  5193.47  461.24 )">T13</text><text style="&st18;" transform="matrix(&st16;  5193.47  427.24 )">T15</text><text style="&st18;" transform="matrix(&st16;  5193.47  393.25 )">T10</text><text style="&st18;" transform="matrix(&st16;  5193.47  359.25 )">X2</text><path style="stroke-width:1.42 ;&st7;  " d=" M  5430.59,   457.18  L  5425.62,   452.21  " /><path style="stroke-width:1.42 ;&st7;  " d=" M  5413.60,   464.24  L  5418.57,   469.21  " /><path style="stroke-width:1.42 ;&st7;  " d=" M  5425.62,   469.21  L  5430.59,   464.24  " /><path style="stroke-width:1.42 ;&st7;  " d=" M  5418.57,   452.21  L  5413.60,   457.18  " /><path style="stroke-width:1.42 ;&st7;  " d=" M  5430.59,   355.20  L  5425.62,   350.23  " /><path style="stroke-width:1.42 ;&st7;  " d=" M  5413.60,   362.26  L  5418.57,   367.22  " /><path style="stroke-width:1.42 ;&st7;  " d=" M  5425.62,   367.22  L  5430.59,   362.26  " /><path style="stroke-width:1.42 ;&st7;  " d=" M  5418.57,   350.23  L  5413.60,   355.20  " /><path style="stroke-width:1.42 ;&st7;  " d=" M  5486.56,   154.76  L  5481.58,   159.73  " /><path style="stroke-width:1.42 ;&st7;  " d=" M  5493.61,   171.76  L  5498.58,   166.79  " /><path style="stroke-width:1.42 ;&st7;  " d=" M  5481.58,   166.79  L  5486.56,   171.76  " /><path style="stroke-width:1.42 ;&st7;  " d=" M  5498.58,   159.73  L  5493.61,   154.76  " /><text style="&st18;" transform="matrix(&st16;  5484.87  366.36 )">(*9)</text><text style="&st18;" transform="matrix(&st17;  5497.72  201.97 )">(*9)</text><path style="stroke-width:1.42 ;&st7;  " d=" M  5269.12,    40.03  L  5269.12,    44.28  " /><text style="&st18;" transform="matrix(&st16;  5203.18  40.58 )">W-B</text><text style="&st18;" transform="matrix(&st16;  5033.2  457.01 )">W-B</text><text style="&st18;" transform="matrix(&st16;  5033.2  525.0 )">W-B</text><text style="&st18;" transform="matrix(&st16;  5033.2  558.99 )">W-B</text><text style="&st18;" transform="matrix(&st16;  5048.57  635.48 )">B-DG</text><text style="&st18;" transform="matrix(&st16;  5051.05  660.98 )">B-R</text><text style="&st18;" transform="matrix(&st16;  5034.45  536.33 )">(*5)</text><text style="&st18;" transform="matrix(&st16;  5034.45  570.33 )">(*5)</text><text style="&st18;" transform="matrix(&st17;  5455.23  261.46 )">(*9)</text><text style="&st18;" transform="matrix(&st17;  5455.23  201.97 )">(*9)</text><text style="&st18;" transform="matrix(&st16;  5331.9  170.89 )">(*9)</text><text style="&st18;" transform="matrix(&st16;  5331.9  136.9 )">(*9)</text><text style="&st18;" transform="matrix(&st16;  5398.64  91.57 )">W-B</text><text style="&st18;" transform="matrix(&st16;  5399.88  102.9 )">(*9)</text><text style="&st18;" transform="matrix(&st16;  5296.66  355.03 )">W-B</text><text style="&st18;" transform="matrix(&st16;  5381.65  355.03 )">W-B</text><text style="&st18;" transform="matrix(&st16;  5297.9  366.36 )">(*9)</text><text style="&st18;" transform="matrix(&st16;  5051.44  672.31 )">(*2)</text><text style="&st18;" transform="matrix(&st16;  5047.41  646.81 )">(*1,*3)</text><text style="&st18;" transform="matrix(&st16;  5116.99  570.33 )" ewd:textID="122">Power Window <tspan x="0 " dy="6.0">Regulator </tspan><tspan x="0 " dy="6.0">Master </tspan><tspan x="0 " dy="6.0">Switch Assembly</tspan></text><text style="&st18;" transform="matrix(&st16;  5382.89  366.36 )">(*9)</text><text style="&st18;" transform="matrix(&st16;  5331.9  400.35 )">(*9)</text><text style="&st18;" transform="matrix(&st16;  5331.9  434.35 )">(*9)</text><text style="&st18;" transform="matrix(&st16;  5331.9  468.34 )">(*9)</text><text style="&st18;" transform="matrix(&st16;  5331.9  502.34 )">(*9)</text><text style="&st18;" transform="matrix(&st16;  5331.9  536.33 )">(*9)</text><text style="&st18;" transform="matrix(&st16;  5326.31  570.33 )">(*9 *36)</text><text style="&st18;" transform="matrix(&st16;  5331.9  604.32 )">(*9)</text><text style="&st18;" transform="matrix(&st17;  5429.73  422.93 )">(*9)</text><text style="&st18;" transform="matrix(&st17;  5429.73  516.41 )">(*9)</text><text style="&st18;" transform="matrix(&st17;  5429.73  626.89 )">(*9)</text><text style="&st18;" transform="matrix(&st16;  5331.9  663.81 )">(*9)</text><text style="&st18;" transform="matrix(&st16;  5330.65  321.03 )">W-B</text><text style="&st18;" transform="matrix(&st16;  5193.48  332.37 )" ewd:textID="129">Rear Fog Light <tspan x="0 " dy="6.0">Socket &amp; Wire</tspan></text><text style="&st18;" transform="matrix(&st16;  5193.47  325.26 )">T18</text><text style="&st18;" transform="matrix(&st16;  5331.9  332.37 )">(*9)</text><path style="stroke-width:1.42 ;&st7;  " d=" M  5090.65,   409.72  L  5090.65,   443.71  L  5175.63,   443.71  L  5175.63,   409.72  L  5090.65,   409.72  " /><text style="&st18;" transform="matrix(&st16;  5092.38  420.18 )">(E)</text><path style="stroke-width:1.42 ;&st7;  " d=" M  5090.65,   452.21  L  5090.65,   477.71  L  5175.63,   477.71  L  5175.63,   452.21  L  5090.65,   452.21  " /><text style="&st18;" transform="matrix(&st16;  5092.38  462.68 )">(E)</text><path style="stroke-width:1.42 ;&st7;  " d=" M  5090.65,   520.20  L  5090.65,   545.69  L  5175.63,   545.69  L  5175.63,   520.20  L  5090.65,   520.20  " /><text style="&st18;" transform="matrix(&st16;  5092.38  530.67 )">(E)</text><path style="stroke-width:1.42 ;&st7;  " d=" M  5090.65,   554.19  L  5090.65,   596.69  L  5175.63,   596.69  L  5175.63,   554.19  L  5090.65,   554.19  " /><text style="&st18;" transform="matrix(&st16;  5092.38  564.66 )">(E)</text><text style="&st18;" transform="matrix(&st16;  5258.87  165.23 )">(GND)</text><path style="stroke-width:1.42 ;&st7;  " d=" M  5192.63,   154.76  L  5192.63,   180.26  L  5277.62,   180.26  L  5277.62,   154.76  L  5192.63,   154.76  " /><text style="&st18;" transform="matrix(&st16;  5260.5  131.23 )">(RRE)</text><path style="stroke-width:1.42 ;&st7;  " d=" M  5192.63,   120.77  L  5192.63,   146.26  L  5277.62,   146.26  L  5277.62,   120.77  L  5192.63,   120.77  " /><path style="stroke-width:1.42 ;&st7;  " d=" M  5192.63,   647.68  L  5192.63,   673.17  L  5277.62,   673.17  L  5277.62,   647.68  L  5192.63,   647.68  " /><text style="&st18;" transform="matrix(&st16;  5267.94  658.14 )">(E)</text><path style="stroke-width:1.42 ;&st7;  " d=" M  5192.63,   554.19  L  5192.63,   579.69  L  5277.62,   579.69  L  5277.62,   554.19  L  5192.63,   554.19  " /><text style="&st18;" transform="matrix(&st16;  5257.47  564.66 )">(BZR-)</text><path style="stroke-width:1.42 ;&st7;  " d=" M  5192.63,   588.19  L  5192.63,   613.68  L  5277.62,   613.68  L  5277.62,   588.19  L  5192.63,   588.19  " /><text style="&st18;" transform="matrix(&st16;  5267.94  598.65 )">(E)</text><path style="stroke-width:1.42 ;&st7;  " d=" M  5192.63,   520.20  L  5192.63,   545.69  L  5277.62,   545.69  L  5277.62,   520.20  L  5192.63,   520.20  " /><text style="&st18;" transform="matrix(&st16;  5267.94  530.67 )">(E)</text><path style="stroke-width:1.42 ;&st7;  " d=" M  5192.63,   486.20  L  5192.63,   511.70  L  5277.62,   511.70  L  5277.62,   486.20  L  5192.63,   486.20  " /><text style="&st18;" transform="matrix(&st16;  5267.94  496.67 )">(E)</text><path style="stroke-width:1.42 ;&st7;  " d=" M  5192.63,   452.21  L  5192.63,   477.71  L  5277.62,   477.71  L  5277.62,   452.21  L  5192.63,   452.21  " /><text style="&st18;" transform="matrix(&st16;  5267.94  462.68 )">(E)</text><path style="stroke-width:1.42 ;&st7;  " d=" M  5192.63,   418.22  L  5192.63,   443.71  L  5277.62,   443.71  L  5277.62,   418.22  L  5192.63,   418.22  " /><text style="&st18;" transform="matrix(&st16;  5267.94  428.68 )">(E)</text><path style="stroke-width:1.42 ;&st7;  " d=" M  5192.63,   384.22  L  5192.63,   409.72  L  5277.62,   409.72  L  5277.62,   384.22  L  5192.63,   384.22  " /><text style="&st18;" transform="matrix(&st16;  5258.87  394.69 )">(GND)</text><path style="stroke-width:1.42 ;&st7;  " d=" M  5192.63,   350.23  L  5192.63,   375.72  L  5277.62,   375.72  L  5277.62,   350.23  L  5192.63,   350.23  " /><text style="&st18;" transform="matrix(&st16;  5267.94  360.69 )">(E)</text><path style="stroke-width:1.42 ;&st7;  " d=" M  5192.63,   316.23  L  5192.63,   341.73  L  5277.62,   341.73  L  5277.62,   316.23  L  5192.63,   316.23  " /><text style="&st18;" transform="matrix(&st16;  5267.94  326.7 )">(E)</text><g ewd:figtype="w2w" ewd:figID="71" ewd:code="IS3"><path style="stroke-width:1.42 ;&st7;  " d=" M  5278.18,    48.53  L  5273.93,    44.28  L  5278.18,    40.03  " /><path style="stroke-width:1.42 ;&st7;  " d=" M  5274.78,    48.53  L  5270.53,    44.28  L  5274.78,    40.03  " /><text style="&st18;" transform="matrix(&st16;  5257.27  37.04 )">12</text></g><g ewd:figtype="w2w" ewd:figID="72" ewd:code="TX1"><text style="&st18;" transform="matrix(&st16;  5343.81  351.49 )">2</text><path style="stroke-width:1.42 ;&st7;  " d=" M  5328.04,   354.48  L  5332.29,   358.73  L  5328.04,   362.97  " /><path style="stroke-width:1.42 ;&st7;  " d=" M  5331.44,   354.48  L  5335.69,   358.73  L  5331.44,   362.97  " /></g><g ewd:figtype="w2w" ewd:figID="73" ewd:code="VT1"><text style="&st18;" transform="matrix(&st16;  5434.96  228.97 )">8</text><path style="stroke-width:1.42 ;&st7;  " d=" M  5451.84,   236.91  L  5447.59,   232.66  L  5443.34,   236.91  " /><path style="stroke-width:1.42 ;&st7;  " d=" M  5451.84,   240.31  L  5447.59,   236.06  L  5443.34,   240.31  " /></g><g ewd:figtype="w2w" ewd:figID="74" ewd:code="ST2"><text style="&st18;" transform="matrix(&st16;  5477.45  228.97 )">9</text><path style="stroke-width: 1.42 ;&st7;  " d=" M  5494.33,   236.91  L  5490.08,   232.66  L  5485.83,   236.91  " /><path style="stroke-width: 1.42 ;&st7;  " d=" M  5494.33,   240.31  L  5490.08,   236.06  L  5485.83,   240.31  " /></g><g ewd:figtype="gp" ewd:figID="115" ewd:code="HB"><path style="stroke-width: 0.85 ;&st7;  " d=" M  5107.64,   697.25  L  5107.64,   701.50  " /><path style="stroke-width: 0.85 ;&st7;  " d=" M  5099.15,   701.50  L  5116.14,   701.50  " /><path style="stroke-width: 0.85 ;&st7;  " d=" M  5103.40,   704.33  L  5111.89,   704.33  " /><path style="stroke-width: 0.85 ;&st7;  " d=" M  5104.81,   707.17  L  5110.48,   707.17  " /><path style="stroke-width: 0.85 ;&st7;  " d=" M  5106.23,   710.00  L  5109.06,   710.00  " /></g><g ewd:figtype="gp" ewd:figID="116" ewd:code="TC"><path style="stroke-width: 0.85 ;&st7;  " d=" M  5422.09,   697.25  L  5422.09,   701.50  " /><path style="stroke-width: 0.85 ;&st7;  " d=" M  5413.59,   701.50  L  5430.59,   701.50  " /><path style="stroke-width: 0.85 ;&st7;  " d=" M  5417.84,   704.33  L  5426.34,   704.33  " /><path style="stroke-width: 0.85 ;&st7;  " d=" M  5419.26,   707.17  L  5424.92,   707.17  " /><path style="stroke-width: 0.85 ;&st7;  " d=" M  5420.68,   710.00  L  5423.51,   710.00  " /></g><g ewd:figtype="gp" ewd:figID="117" ewd:code="TB"><path style="stroke-width: 0.85 ;&st7;  " d=" M  5490.08,   314.82  L  5490.08,   319.07  " /><path style="stroke-width: 0.85 ;&st7;  " d=" M  5481.58,   319.07  L  5498.58,   319.07  " /><path style="stroke-width: 0.85 ;&st7;  " d=" M  5485.83,   321.90  L  5494.33,   321.90  " /><path style="stroke-width: 0.85 ;&st7;  " d=" M  5487.25,   324.73  L  5492.91,   324.73  " /><path style="stroke-width: 0.85 ;&st7;  " d=" M  5488.66,   327.56  L  5491.50,   327.56  " /></g></svg>