<?xml version="1.0" encoding="utf-8"?>
<!DOCTYPE svg PUBLIC "-//W3C//DTD SVG 1.0//EN" "http://www.w3.org/TR/2001/REC-SVG-20010904/DTD/svg10.dtd"[
	<!ENTITY ns_flows "http://ns.adobe.com/Flows/1.0/">
	<!ENTITY ns_svg "http://www.w3.org/2000/svg">
	<!ENTITY ns_xlink "http://www.w3.org/1999/xlink">
	<!ENTITY st0 "font-size:7px;font-family:'MS-PGothic';adobe-font-script:japanese;">
	<!ENTITY st1 "font-size:6px;font-family:'ArialMT';">
	<!-- White fill  -->
	<!ENTITY st2 "fill:#FFFFFF;stroke:#000000; stroke-width:1.41;stroke-linecap:round;stroke-linejoin:round;">
	<!-- Yellow fill  -->
	<!ENTITY st3 "fill:#FFFFCC;stroke:#FFFFCC; stroke-width:0.1;stroke-linecap:round;stroke-linejoin:round;">
	<!-- Gray fill  -->
	<!ENTITY st4 "fill:#CCCCCC;stroke:#CCCCCC; stroke-width:0.1;stroke-linecap:round;stroke-linejoin:round;">
	<!-- Light-blue fill -->
	<!ENTITY st5 "fill:#CCECF4;stroke:#000000; stroke-width:1.133;stroke-linecap:round;stroke-linejoin:round;">
	<!ENTITY st6 "fill:none;stroke-linecap:butt; stroke-linejoin:round;">
	<!ENTITY st7 "fill:none;stroke:#000000;stroke-linecap:round;stroke-linejoin:round;">
	<!ENTITY st8 "enable-background:new    ;">
	<!-- Black fill -->
	<!ENTITY st9 "fill:#000000;stroke:#000000; stroke-linecap:round;stroke-linejoin:round;">
	<!-- SRS note   -->
	<!ENTITY st10 "font-size:9px;font-family:'ArialMT';">
	<!ENTITY st11 "font-size:9px;font-family:'Svg Symbol';">
	<!ENTITY st12 "font-size:6px;font-family:'Svg Symbol';">
	<!ENTITY st13 "fill:none;stroke:#ff0000;stroke-linecap:round;stroke-linejoin:round;">
	<!-- Yellow fill  -->
	<!ENTITY st14 "fill:#FFFF00;stroke:#FFFF00; stroke-width:0.1;stroke-linecap:round;stroke-linejoin:round;">
	<!ENTITY st15 "font-size:6px;font-family:'MS-PGothic';adobe-font-script:japanese;">
	<!ENTITY st16 "1.00 0.00 0.00 1.00">
	<!ENTITY st17 "0.00 -1.00 1.00 0.00">
	<!ENTITY st18 "font-size:6px;font-family:'Arial';">
	<!ENTITY st19 "font-size:9px;font-family:'Arial';">
	<!ENTITY st20 "font-size:6px;font-family:'MS-PGothic','MS PGothic';adobe-font-script:japanese;">
	<!ENTITY st21 "font-size:7px;font-family:'MS-PGothic','MS PGothic';adobe-font-script:japanese;">
	<!ATTLIST svg
		xmlns:ewd CDATA #FIXED "http://shcl.co.jp/ewd"
		xmlns:a CDATA #FIXED "http://ns.adobe.com/AdobeSVGViewerExtensions/3.0/"
		ewd:ver CDATA #IMPLIED
	>
	<!ATTLIST a
		ewd:lineID CDATA #IMPLIED
		ewd:groupID CDATA #IMPLIED
		ewd:figtype CDATA #IMPLIED
		ewd:code CDATA #IMPLIED
		ewd:figID CDATA #IMPLIED
		ewd:pinNo CDATA #IMPLIED
		ewd:comment CDATA #IMPLIED >
	<!ATTLIST g
		ewd:lineID CDATA #IMPLIED
		ewd:groupID CDATA #IMPLIED
		ewd:figtype CDATA #IMPLIED
		ewd:code CDATA #IMPLIED
		ewd:figID CDATA #IMPLIED
		ewd:pinNo CDATA #IMPLIED
		ewd:comment CDATA #IMPLIED >
	<!ATTLIST text
		ewd:textID CDATA #IMPLIED >
	<!ATTLIST title
		ewd:textID CDATA #IMPLIED >
]>
<!-- Generator: Shintec Hozumi YS   -->
<svg onload="call_execInitLoadProc_svg('system')" style="overflow:visible;  enable-background:new 0 0 7261.924 710.000" viewBox="0 0 7261.924 710.000" height="710.000" width="7261.924" xml:space="preserve" ewd:ver="2.1.2.9" xmlns="&ns_svg;" xmlns:a="http://ns.adobe.com/AdobeSVGViewerExtensions/3.0/" xmlns:ewd="http://shcl.co.jp/ewd" xmlns:xlink="&ns_xlink;">
<text style="&st18;" transform="matrix(&st17;  6500.55  303.95 )">(*7)</text><text style="&st18;" transform="matrix(&st16;  6748.72  60.41 )" ewd:textID="130">Rear Heater <tspan x="0 " dy="6.0">Blower Switch</tspan></text><text style="&st18;" transform="matrix(&st16;  6748.72  94.41 )" ewd:textID="134">Rear Wiper <tspan x="0 " dy="6.0">Motor Assembly</tspan></text><text style="&st18;" transform="matrix(&st16;  6748.72  128.4 )" ewd:textID="131">Rear Window <tspan x="0 " dy="6.0">Defogger </tspan><tspan x="0 " dy="6.0">(Back Door Glass LH)</tspan></text><text style="&st18;" transform="matrix(&st16;  6748.72  170.89 )" ewd:textID="99">License Plate <tspan x="0 " dy="6.0">Light Assembly</tspan></text><text style="&st18;" transform="matrix(&st16;  6748.72  204.89 )" ewd:textID="99">License Plate <tspan x="0 " dy="6.0">Light Assembly</tspan></text><text style="&st18;" transform="matrix(&st16;  6748.72  238.88 )" ewd:textID="34">Back Door Courtesy <tspan x="0 " dy="6.0">Light Switch </tspan><tspan x="0 " dy="6.0">Assembly</tspan></text><text style="&st18;" transform="matrix(&st16;  6748.72  315.37 )" ewd:textID="144">Trailer Socket</text><text style="&st18;" transform="matrix(&st16;  6672.23  663.81 )" ewd:textID="127">Rear <tspan x="0 " dy="6.0">Combination </tspan><tspan x="0 " dy="6.0">Light Assembly RH</tspan></text><text style="&st18;" transform="matrix(&st16;  6672.23  621.32 )" ewd:textID="127">Rear <tspan x="0 " dy="6.0">Combination </tspan><tspan x="0 " dy="6.0">Light Assembly RH</tspan></text><text style="&st18;" transform="matrix(&st16;  6672.23  578.82 )" ewd:textID="50">Differential <tspan x="0 " dy="6.0">Lock Shift </tspan><tspan x="0 " dy="6.0">Actuator</tspan></text><text style="&st18;" transform="matrix(&st16;  6672.23  536.33 )" ewd:textID="128">Rear <tspan x="0 " dy="6.0">Differential Lock </tspan><tspan x="0 " dy="6.0">Position Switch</tspan></text><text style="&st18;" transform="matrix(&st16;  6748.72  349.36 )" ewd:textID="72">Fuel Pump (Sub)</text><text style="&st18;" transform="matrix(&st16;  6748.72  417.35 )" ewd:textID="126">Rear Combination <tspan x="0 " dy="6.0">Light Assembly LH</tspan></text><text style="&st18;" transform="matrix(&st16;  6902.58  417.35 )">(*23)</text><text style="&st18;" transform="matrix(&st16;  6970.88  508.0 )">W-B</text><text style="&st18;" transform="matrix(&st16;  6936.89  465.51 )">W-B</text><text style="&st18;" transform="matrix(&st16;  6672.23  493.84 )" ewd:textID="132">Rear Window <tspan x="0 " dy="6.0">Defogger (Back </tspan><tspan x="0 " dy="6.0">Door Glass RH)</tspan></text><text style="&st18;" transform="matrix(&st16;  6672.23  94.41 )" ewd:textID="67">Front Seat <tspan x="0 " dy="6.0">Inner Belt </tspan><tspan x="0 " dy="6.0">Assembly RH</tspan></text><text style="&st18;" transform="matrix(&st16;  6613.94  525.0 )">W-B</text><text style="&st18;" transform="matrix(&st16;  6554.45  525.0 )">W-B</text><text style="&st18;" transform="matrix(&st16;  6904.13  349.36 )">(*6)</text><text style="&st18;" transform="matrix(&st16;  6904.13  315.37 )">(*6)</text><path style="stroke-width:1.42 ;&st7;  " d=" M  6926.34,    82.52  L  6926.34,    86.77  " /><text style="&st18;" transform="matrix(&st16;  6748.71  87.3 )">a1</text><text style="&st18;" transform="matrix(&st16;  6748.71  53.3 )">S10</text><path style="stroke-width:1.42 ;&st7;  " d=" M  6926.34,   593.16  L  6921.37,   588.19  " /><path style="stroke-width:1.42 ;&st7;  " d=" M  6909.35,   600.22  L  6914.31,   605.18  " /><path style="stroke-width:1.42 ;&st7;  " d=" M  6921.37,   605.18  L  6926.34,   600.22  " /><path style="stroke-width:1.42 ;&st7;  " d=" M  6914.31,   588.19  L  6909.35,   593.16  " /><path style="stroke-width:1.42 ;&st7;  " d=" M  6926.34,   465.68  L  6921.37,   460.71  " /><path style="stroke-width:1.42 ;&st7;  " d=" M  6909.35,   472.74  L  6914.31,   477.71  " /><path style="stroke-width:1.42 ;&st7;  " d=" M  6921.37,   477.71  L  6926.34,   472.74  " /><path style="stroke-width:1.42 ;&st7;  " d=" M  6914.31,   460.71  L  6909.35,   465.68  " /><path style="stroke-width:1.42 ;&st7;  " d=" M  6985.83,   464.96  L  6985.83,   469.21  " /><text style="&st18;" transform="matrix(&st16;  6672.22  614.21 )">T6</text><text style="&st18;" transform="matrix(&st16;  6748.71  197.78 )">b4</text><text style="&st18;" transform="matrix(&st16;  6748.71  163.79 )">e1</text><text style="&st18;" transform="matrix(&st16;  6748.71  121.29 )">f1</text><text style="&st18;" transform="matrix(&st16;  6748.71  231.78 )">b3</text><text style="&st18;" transform="matrix(&st16;  6902.89  49.08 )">W-B</text><text style="&st18;" transform="matrix(&st16;  6868.9  83.07 )">W-B</text><text style="&st18;" transform="matrix(&st16;  6953.88  83.07 )">W-B</text><text style="&st18;" transform="matrix(&st16;  6902.89  193.56 )">W-B</text><text style="&st18;" transform="matrix(&st16;  6902.89  227.55 )">W-B</text><text style="&st18;" transform="matrix(&st16;  6902.89  304.04 )">W-B</text><text style="&st18;" transform="matrix(&st16;  6902.58  383.36 )">(*22)</text><text style="&st18;" transform="matrix(&st16;  6902.89  338.03 )">W-B</text><text style="&st18;" transform="matrix(&st16;  6902.89  406.02 )">W-B</text><text style="&st18;" transform="matrix(&st16;  6748.71  308.26 )">T10</text><text style="&st18;" transform="matrix(&st16;  6748.71  376.25 )">T7</text><text style="&st18;" transform="matrix(&st16;  6902.89  372.03 )">W-B</text><text style="&st18;" transform="matrix(&st16;  6748.71  342.26 )">T8</text><text style="&st18;" transform="matrix(&st16;  6748.71  410.25 )">T5</text><text style="&st18;" transform="matrix(&st16;  6520.46  652.48 )">W-B</text><path style="stroke-width:1.42 ;&st7;  " d=" M  6586.40,   486.20  L  6586.40,   490.45  " /><path style="stroke-width:1.42 ;&st7;  " d=" M  6518.41,   486.20  L  6518.41,   490.45  " /><text style="&st18;" transform="matrix(&st16;  6672.22  486.73 )">c1</text><text style="&st18;" transform="matrix(&st16;  6520.46  609.99 )">W-B</text><path style="stroke-width:1.42 ;&st7;  " d=" M  6535.41,   524.45  L  6535.41,   528.70  " /><path style="stroke-width:1.42 ;&st7;  " d=" M  6591.37,   520.20  L  6586.40,   525.17  " /><path style="stroke-width:1.42 ;&st7;  " d=" M  6598.42,   537.20  L  6603.40,   532.23  " /><path style="stroke-width:1.42 ;&st7;  " d=" M  6586.40,   532.23  L  6591.37,   537.20  " /><path style="stroke-width:1.42 ;&st7;  " d=" M  6603.40,   525.17  L  6598.42,   520.20  " /><text style="&st18;" transform="matrix(&st16;  6672.22  529.23 )">V1</text><text style="&st18;" transform="matrix(&st16;  6672.22  571.72 )">V2</text><text style="&st18;" transform="matrix(&st16;  6672.22  656.7 )">T1</text><path style="stroke-width:1.42 ;&st7;  " d=" M  6523.38,    78.27  L  6518.41,    83.24  " /><path style="stroke-width:1.42 ;&st7;  " d=" M  6530.44,    95.27  L  6535.41,    90.30  " /><path style="stroke-width:1.42 ;&st7;  " d=" M  6518.41,    90.30  L  6523.38,    95.27  " /><path style="stroke-width:1.42 ;&st7;  " d=" M  6535.41,    83.24  L  6530.44,    78.27  " /><text style="&st18;" transform="matrix(&st16;  6613.94  567.49 )">W-B</text><text style="&st18;" transform="matrix(&st16;  6672.22  87.3 )">S12</text><text style="&st18;" transform="matrix(&st16;  6618.21  482.51 )">B</text><text style="&st18;" transform="matrix(&st16;  6558.72  482.51 )">B</text><text style="&st18;" transform="matrix(&st16;  6588.44  83.07 )">W-B</text><text style="&st18;" transform="matrix(&st16;  6758.42  15.09 )">W-B</text><text style="&st18;" transform="matrix(&st17;  6914.15  653.63 )">W-B</text><text style="&st18;" transform="matrix(&st17;  6888.65  653.63 )">W-B</text><path style="stroke-width:1.42 ;&st7;  " d=" M  6518.41,   282.24  L  6526.91,   282.24  " /><text style="&st18;" transform="matrix(&st17;  6523.21  203.21 )">W-B</text><text style="&st18;" transform="matrix(&st17;  6523.21  381.68 )">W-B</text><text style="&st18;" transform="matrix(&st16;  6868.9  159.56 )">W-B</text><text style="&st18;" transform="matrix(&st16;  6873.16  117.07 )">B</text><text style="&st18;" transform="matrix(&st16;  6953.88  117.07 )">W-B</text><path style="stroke-width:1.42 ;&st7;  " d=" M  6926.34,   159.01  L  6926.34,   163.26  " /><text style="&st18;" transform="matrix(&st16;  6953.88  159.56 )">W-B</text><path style="stroke-width:1.42 ;&st7;  " d=" M  6909.35,   120.77  L  6909.35,   125.01  " /><text style="&st18;" transform="matrix(&st16;  6707.42  15.09 )">W-B</text><text style="&st18;" transform="matrix(&st16;  6708.67  26.42 )">(*6)</text><text style="&st18;" transform="matrix(&st16;  6759.66  26.42 )">(*6)</text><text style="&st18;" transform="matrix(&st16;  6904.13  60.41 )">(*6)</text><text style="&st18;" transform="matrix(&st16;  6870.14  94.41 )">(*6)</text><text style="&st18;" transform="matrix(&st16;  6955.12  94.41 )">(*6)</text><text style="&st18;" transform="matrix(&st17;  6914.15  517.65 )">W-B</text><text style="&st18;" transform="matrix(&st16;  6938.13  476.84 )">(*6)</text><text style="&st18;" transform="matrix(&st16;  6902.58  204.89 )">(*25)</text><text style="&st18;" transform="matrix(&st16;  6868.59  170.89 )">(*24)</text><text style="&st18;" transform="matrix(&st16;  6953.57  170.89 )">(*24)</text><text style="&st18;" transform="matrix(&st16;  6870.14  128.4 )">(*6)</text><text style="&st18;" transform="matrix(&st16;  6955.12  128.4 )">(*6)</text><text style="&st18;" transform="matrix(&st16;  6555.69  493.84 )">(*7)</text><text style="&st18;" transform="matrix(&st16;  6615.18  493.84 )">(*7)</text><text style="&st18;" transform="matrix(&st16;  6555.69  536.33 )">(*7)</text><text style="&st18;" transform="matrix(&st16;  6615.18  536.33 )">(*7)</text><text style="&st18;" transform="matrix(&st16;  6615.18  578.82 )">(*7)</text><text style="&st18;" transform="matrix(&st16;  6748.72  383.36 )" ewd:textID="126">Rear Combination <tspan x="0 " dy="6.0">Light Assembly LH</tspan></text><text style="&st18;" transform="matrix(&st16;  6584.1  94.41 )">(*7 *23)</text><text style="&st18;" transform="matrix(&st17;  6534.55  380.44 )">(*7)</text><text style="&st18;" transform="matrix(&st17;  6500.55  363.44 )">(*7)</text><text style="&st18;" transform="matrix(&st17;  6534.55  201.97 )">(*7)</text><text style="&st18;" transform="matrix(&st17;  6500.55  244.46 )">(*7)</text><text style="&st18;" transform="matrix(&st16;  6520.15  663.81 )">(*23)</text><text style="&st18;" transform="matrix(&st16;  6904.13  238.88 )">(*6)</text><text style="&st18;" transform="matrix(&st17;  6925.48  516.41 )">(*6)</text><text style="&st18;" transform="matrix(&st17;  6925.48  652.39 )">(*6)</text><text style="&st18;" transform="matrix(&st17;  6899.98  652.39 )">(*6)</text><text style="&st18;" transform="matrix(&st16;  6972.12  519.33 )">(*6)</text><text style="&st18;" transform="matrix(&st16;  6520.15  621.32 )">(*22)</text><text style="&st18;" transform="matrix(&st16;  6647.62  615.65 )">(TE)</text><text style="&st18;" transform="matrix(&st16;  6823.18  88.74 )">(E)</text><path style="stroke-width:1.42 ;&st7;  " d=" M  6747.87,    78.27  L  6747.87,   103.77  L  6832.86,   103.77  L  6832.86,    78.27  L  6747.87,    78.27  " /><text style="&st18;" transform="matrix(&st16;  6823.18  54.75 )">(E)</text><path style="stroke-width:1.42 ;&st7;  " d=" M  6747.87,    44.28  L  6747.87,    69.77  L  6832.86,    69.77  L  6832.86,    44.28  L  6747.87,    44.28  " /><text style="&st18;" transform="matrix(&st16;  6823.18  199.22 )">(E)</text><path style="stroke-width:1.42 ;&st7;  " d=" M  6747.87,   188.75  L  6747.87,   214.25  L  6832.86,   214.25  L  6832.86,   188.75  L  6747.87,   188.75  " /><text style="&st18;" transform="matrix(&st16;  6823.18  165.23 )">(E)</text><path style="stroke-width:1.42 ;&st7;  " d=" M  6747.87,   154.76  L  6747.87,   180.26  L  6832.86,   180.26  L  6832.86,   154.76  L  6747.87,   154.76  " /><text style="&st18;" transform="matrix(&st16;  6823.18  122.73 )">(E)</text><path style="stroke-width:1.42 ;&st7;  " d=" M  6747.87,   112.27  L  6747.87,   146.26  L  6832.86,   146.26  L  6832.86,   112.27  L  6747.87,   112.27  " /><text style="&st18;" transform="matrix(&st16;  6823.8  233.22 )">(-)</text><path style="stroke-width:1.42 ;&st7;  " d=" M  6747.87,   299.24  L  6747.87,   324.73  L  6832.86,   324.73  L  6832.86,   299.24  L  6747.87,   299.24  " /><text style="&st18;" transform="matrix(&st16;  6814.11  309.7 )">(GND)</text><text style="&st18;" transform="matrix(&st16;  6819.3  377.69 )">(TE)</text><path style="stroke-width:1.42 ;&st7;  " d=" M  6747.87,   333.23  L  6747.87,   358.73  L  6832.86,   358.73  L  6832.86,   333.23  L  6747.87,   333.23  " /><text style="&st18;" transform="matrix(&st16;  6823.18  343.7 )">(E)</text><path style="stroke-width:1.42 ;&st7;  " d=" M  6747.87,   401.22  L  6747.87,   426.71  L  6832.86,   426.71  L  6832.86,   401.22  L  6747.87,   401.22  " /><text style="&st18;" transform="matrix(&st16;  6823.18  411.69 )">(E)</text><text style="&st18;" transform="matrix(&st16;  6647.62  488.17 )">(RH-)</text><path style="stroke-width:1.42 ;&st7;  " d=" M  6645.89,   477.71  L  6645.89,   511.70  L  6730.87,   511.70  L  6730.87,   477.71  L  6645.89,   477.71  " /><path style="stroke-width:1.42 ;&st7;  " d=" M  6645.89,   605.18  L  6645.89,   639.18  L  6730.87,   639.18  L  6730.87,   605.18  L  6645.89,   605.18  " /><text style="&st18;" transform="matrix(&st16;  6647.62  530.67 )">(RRE)</text><path style="stroke-width:1.42 ;&st7;  " d=" M  6645.89,   520.20  L  6645.89,   554.19  L  6730.87,   554.19  L  6730.87,   520.20  L  6645.89,   520.20  " /><text style="&st18;" transform="matrix(&st16;  6647.62  573.16 )">(GND)</text><path style="stroke-width:1.42 ;&st7;  " d=" M  6645.89,   562.69  L  6645.89,   596.69  L  6730.87,   596.69  L  6730.87,   562.69  L  6645.89,   562.69  " /><text style="&st18;" transform="matrix(&st16;  6647.62  658.14 )">(E)</text><path style="stroke-width:1.42 ;&st7;  " d=" M  6645.89,   647.68  L  6645.89,   681.67  L  6730.87,   681.67  L  6730.87,   647.68  L  6645.89,   647.68  " /><text style="&st18;" transform="matrix(&st16;  6647.62  88.74 )">(E)</text><path style="stroke-width:1.42 ;&st7;  " d=" M  6645.89,    78.27  L  6645.89,   112.27  L  6730.87,   112.27  L  6730.87,    78.27  L  6645.89,    78.27  " /><path style="stroke-width:1.42 ;&st7;  " d=" M  6747.87,   367.22  L  6747.87,   392.72  L  6832.86,   392.72  L  6832.86,   367.22  L  6747.87,   367.22  " /><path style="stroke-width:1.42 ;&st7;  " d=" M  6747.87,   256.74  L  6832.86,   256.74  L  6832.86,   222.75  L  6747.87,   222.75  L  6747.87,   256.74  " /><g ewd:figtype="w2w" ewd:figID="83" ewd:code="TV2"><text style="&st18;" transform="matrix(&st16;  6525.11  521.46 )">8</text><path style="stroke-width:1.42 ;&st7;  " d=" M  6541.07,   532.95  L  6536.82,   528.70  L  6541.07,   524.45  " /><path style="stroke-width:1.42 ;&st7;  " d=" M  6544.47,   532.95  L  6540.22,   528.70  L  6544.47,   524.45  " /></g><g ewd:figtype="w2w" ewd:figID="84" ewd:code="aS2"><path style="stroke-width:1.42 ;&st7;  " d=" M  6512.74,   481.95  L  6516.99,   486.20  L  6512.74,   490.45  " /><path style="stroke-width:1.42 ;&st7;  " d=" M  6509.34,   481.95  L  6513.59,   486.20  L  6509.34,   490.45  " /><text style="&st18;" transform="matrix(&st16;  6525.11  478.97 )">3</text></g><g ewd:figtype="w2w" ewd:figID="85" ewd:code="TS2"><path style="stroke-width:1.42 ;&st7;  " d=" M  6522.66,   273.17  L  6526.91,   277.42  L  6531.16,   273.17  " /><path style="stroke-width:1.42 ;&st7;  " d=" M  6531.16,   276.57  L  6526.91,   280.82  L  6522.66,   276.57  " /><text style="&st18;" transform="matrix(&st16;  6511.18  288.46 )">13</text></g><g ewd:figtype="w2w" ewd:figID="86" ewd:code="ca4"><path style="stroke-width:1.42 ;&st7;  " d=" M  6580.73,   481.95  L  6584.98,   486.20  L  6580.73,   490.45  " /><path style="stroke-width:1.42 ;&st7;  " d=" M  6577.33,   481.95  L  6581.58,   486.20  L  6577.33,   490.45  " /><text style="&st18;" transform="matrix(&st16;  6593.1  478.97 )">1</text></g><g ewd:figtype="w2w" ewd:figID="87" ewd:code="eb2"><text style="&st18;" transform="matrix(&st16;  6916.04  156.02 )">2</text><path style="stroke-width:1.42 ;&st7;  " d=" M  6932.01,   167.51  L  6927.76,   163.26  L  6932.01,   159.01  " /><path style="stroke-width:1.42 ;&st7;  " d=" M  6935.40,   167.51  L  6931.16,   163.26  L  6935.40,   159.01  " /></g><g ewd:figtype="w2w" ewd:figID="88" ewd:code="bf1"><text style="&st18;" transform="matrix(&st16;  6916.04  113.53 )">1</text><path style="stroke-width:1.42 ;&st7;  " d=" M  6900.28,   116.52  L  6904.53,   120.77  L  6900.28,   125.01  " /><path style="stroke-width:1.42 ;&st7;  " d=" M  6903.68,   116.52  L  6907.93,   120.77  L  6903.68,   125.01  " /></g><g ewd:figtype="w2w" ewd:figID="89" ewd:code="aS1"><path style="stroke-width:1.42 ;&st7;  " d=" M  6932.01,    91.02  L  6927.76,    86.77  L  6932.01,    82.52  " /><path style="stroke-width:1.42 ;&st7;  " d=" M  6935.40,    91.02  L  6931.16,    86.77  L  6935.40,    82.52  " /><text style="&st18;" transform="matrix(&st16;  6916.04  79.53 )">4</text></g><g ewd:figtype="w2w" ewd:figID="90" ewd:code="TS1"><text style="&st18;" transform="matrix(&st16;  6975.53  461.97 )">5</text><path style="stroke-width:1.42 ;&st7;  " d=" M  6991.50,   473.46  L  6987.25,   469.21  L  6991.50,   464.96  " /><path style="stroke-width:1.42 ;&st7;  " d=" M  6994.89,   473.46  L  6990.65,   469.21  L  6994.89,   464.96  " /></g><g ewd:figtype="w2w" ewd:figID="91" ewd:code="bT1"><path style="stroke-width:1.42 ;&st7;  " d=" M  7015.57,   265.81  L  7011.33,   261.56  L  7007.08,   265.81  " /><path style="stroke-width:1.42 ;&st7;  " d=" M  7015.57,   262.41  L  7011.33,   258.16  L  7007.08,   262.41  " /><text style="&st18;" transform="matrix(&st16;  6998.7  254.46 )">2</text></g><g ewd:figtype="gp" ewd:figID="121" ewd:code="TA"><path style="stroke-width: 0.85 ;&st7;  " d=" M  6917.84,   697.25  L  6917.84,   701.50  " /><path style="stroke-width: 0.85 ;&st7;  " d=" M  6909.34,   701.50  L  6926.34,   701.50  " /><path style="stroke-width: 0.85 ;&st7;  " d=" M  6913.59,   704.33  L  6922.09,   704.33  " /><path style="stroke-width: 0.85 ;&st7;  " d=" M  6915.01,   707.17  L  6920.67,   707.17  " /><path style="stroke-width: 0.85 ;&st7;  " d=" M  6916.42,   710.00  L  6919.26,   710.00  " /></g></svg>