<?xml version="1.0" encoding="utf-8"?>
<!DOCTYPE svg PUBLIC "-//W3C//DTD SVG 1.0//EN" "http://www.w3.org/TR/2001/REC-SVG-20010904/DTD/svg10.dtd"[
	<!ENTITY ns_flows "http://ns.adobe.com/Flows/1.0/">
	<!ENTITY ns_svg "http://www.w3.org/2000/svg">
	<!ENTITY ns_xlink "http://www.w3.org/1999/xlink">
	<!ENTITY st0 "font-size:7px;font-family:'MS-PGothic';adobe-font-script:japanese;">
	<!ENTITY st1 "font-size:6px;font-family:'ArialMT';">
	<!-- White fill  -->
	<!ENTITY st2 "fill:#FFFFFF;stroke:#000000; stroke-width:1.41;stroke-linecap:round;stroke-linejoin:round;">
	<!-- Yellow fill  -->
	<!ENTITY st3 "fill:#FFFFCC;stroke:#FFFFCC; stroke-width:0.1;stroke-linecap:round;stroke-linejoin:round;">
	<!-- Gray fill  -->
	<!ENTITY st4 "fill:#CCCCCC;stroke:#CCCCCC; stroke-width:0.1;stroke-linecap:round;stroke-linejoin:round;">
	<!-- Light-blue fill -->
	<!ENTITY st5 "fill:#CCECF4;stroke:#000000; stroke-width:1.133;stroke-linecap:round;stroke-linejoin:round;">
	<!ENTITY st6 "fill:none;stroke-linecap:butt; stroke-linejoin:round;">
	<!ENTITY st7 "fill:none;stroke:#000000;stroke-linecap:round;stroke-linejoin:round;">
	<!ENTITY st8 "enable-background:new    ;">
	<!-- Black fill -->
	<!ENTITY st9 "fill:#000000;stroke:#000000; stroke-linecap:round;stroke-linejoin:round;">
	<!-- SRS note   -->
	<!ENTITY st10 "font-size:9px;font-family:'ArialMT';">
	<!ENTITY st11 "font-size:9px;font-family:'Svg Symbol';">
	<!ENTITY st12 "font-size:6px;font-family:'Svg Symbol';">
	<!ENTITY st13 "fill:none;stroke:#ff0000;stroke-linecap:round;stroke-linejoin:round;">
	<!-- Yellow fill  -->
	<!ENTITY st14 "fill:#FFFF00;stroke:#FFFF00; stroke-width:0.1;stroke-linecap:round;stroke-linejoin:round;">
	<!ENTITY st15 "font-size:6px;font-family:'MS-PGothic';adobe-font-script:japanese;">
	<!ENTITY st16 "1.00 0.00 0.00 1.00">
	<!ENTITY st17 "0.00 -1.00 1.00 0.00">
	<!ENTITY st18 "font-size:6px;font-family:'Arial';">
	<!ENTITY st19 "font-size:9px;font-family:'Arial';">
	<!ENTITY st20 "font-size:6px;font-family:'MS-PGothic','MS PGothic';adobe-font-script:japanese;">
	<!ENTITY st21 "font-size:7px;font-family:'MS-PGothic','MS PGothic';adobe-font-script:japanese;">
	<!ATTLIST svg
		xmlns:ewd CDATA #FIXED "http://shcl.co.jp/ewd"
		xmlns:a CDATA #FIXED "http://ns.adobe.com/AdobeSVGViewerExtensions/3.0/"
		ewd:ver CDATA #IMPLIED
	>
	<!ATTLIST a
		ewd:lineID CDATA #IMPLIED
		ewd:groupID CDATA #IMPLIED
		ewd:figtype CDATA #IMPLIED
		ewd:code CDATA #IMPLIED
		ewd:figID CDATA #IMPLIED
		ewd:pinNo CDATA #IMPLIED
		ewd:comment CDATA #IMPLIED >
	<!ATTLIST g
		ewd:lineID CDATA #IMPLIED
		ewd:groupID CDATA #IMPLIED
		ewd:figtype CDATA #IMPLIED
		ewd:code CDATA #IMPLIED
		ewd:figID CDATA #IMPLIED
		ewd:pinNo CDATA #IMPLIED
		ewd:comment CDATA #IMPLIED >
	<!ATTLIST text
		ewd:textID CDATA #IMPLIED >
	<!ATTLIST title
		ewd:textID CDATA #IMPLIED >
]>
<!-- Generator: Shintec Hozumi YS   -->
<svg onload="call_execInitLoadProc_svg('system')" style="overflow:visible;  enable-background:new 0 0 6743.511 710.000" viewBox="0 0 6743.511 710.000" height="710.000" width="6743.511" xml:space="preserve" ewd:ver="2.1.2.9" xmlns="&ns_svg;" xmlns:a="http://ns.adobe.com/AdobeSVGViewerExtensions/3.0/" xmlns:ewd="http://shcl.co.jp/ewd" xmlns:xlink="&ns_xlink;">
<text style="&st18;" transform="matrix(&st16;  6230.3  60.41 )" ewd:textID="120">Rear Heater <tspan x="0 " dy="6.0">Blower Switch</tspan></text><text style="&st18;" transform="matrix(&st16;  6230.3  94.41 )" ewd:textID="124">Rear Wiper <tspan x="0 " dy="6.0">Motor Assembly</tspan></text><text style="&st18;" transform="matrix(&st16;  6230.3  128.4 )" ewd:textID="121">Rear Window <tspan x="0 " dy="6.0">Defogger </tspan><tspan x="0 " dy="6.0">(Back Door Glass LH)</tspan></text><text style="&st18;" transform="matrix(&st16;  6230.3  170.89 )" ewd:textID="91">License Plate <tspan x="0 " dy="6.0">Light Assembly</tspan></text><text style="&st18;" transform="matrix(&st16;  6230.3  204.89 )" ewd:textID="91">License Plate <tspan x="0 " dy="6.0">Light Assembly</tspan></text><text style="&st18;" transform="matrix(&st16;  6230.3  238.88 )" ewd:textID="28">Back Door Courtesy <tspan x="0 " dy="6.0">Light Switch </tspan><tspan x="0 " dy="6.0">Assembly</tspan></text><text style="&st18;" transform="matrix(&st16;  6230.3  315.37 )" ewd:textID="132">Trailer Socket</text><text style="&st18;" transform="matrix(&st16;  6153.82  663.81 )" ewd:textID="118">Rear <tspan x="0 " dy="6.0">Combination </tspan><tspan x="0 " dy="6.0">Light Assembly RH</tspan></text><text style="&st18;" transform="matrix(&st16;  6153.82  621.32 )" ewd:textID="118">Rear <tspan x="0 " dy="6.0">Combination </tspan><tspan x="0 " dy="6.0">Light Assembly RH</tspan></text><text style="&st18;" transform="matrix(&st16;  6153.82  578.82 )" ewd:textID="43">Differential <tspan x="0 " dy="6.0">Lock Shift </tspan><tspan x="0 " dy="6.0">Actuator</tspan></text><text style="&st18;" transform="matrix(&st16;  6153.82  536.33 )" ewd:textID="119">Rear <tspan x="0 " dy="6.0">Differential Lock </tspan><tspan x="0 " dy="6.0">Position Switch</tspan></text><text style="&st18;" transform="matrix(&st16;  6230.3  349.36 )" ewd:textID="64">Fuel Pump (Sub)</text><text style="&st18;" transform="matrix(&st16;  6230.3  417.35 )" ewd:textID="117">Rear Combination <tspan x="0 " dy="6.0">Light Assembly LH</tspan></text><text style="&st18;" transform="matrix(&st16;  6384.17  417.35 )">(*23)</text><text style="&st18;" transform="matrix(&st16;  6452.47  508.0 )">W-B</text><text style="&st18;" transform="matrix(&st16;  6418.47  465.51 )">W-B</text><text style="&st18;" transform="matrix(&st16;  6490.73  465.51 )">B</text><text style="&st18;" transform="matrix(&st16;  6153.82  493.84 )" ewd:textID="122">Rear Window <tspan x="0 " dy="6.0">Defogger (Back </tspan><tspan x="0 " dy="6.0">Door Glass RH)</tspan></text><text style="&st18;" transform="matrix(&st16;  6153.82  94.41 )" ewd:textID="59">Front Seat <tspan x="0 " dy="6.0">Inner Belt </tspan><tspan x="0 " dy="6.0">Assembly RH</tspan></text><text style="&st18;" transform="matrix(&st16;  6095.53  525.0 )">W-B</text><text style="&st18;" transform="matrix(&st16;  6036.04  525.0 )">W-B</text><text style="&st18;" transform="matrix(&st16;  6385.72  349.36 )">(*6)</text><text style="&st18;" transform="matrix(&st16;  6385.72  315.37 )">(*6)</text><path style="stroke-width:1.42 ;&st7;  " d=" M  6407.93,    82.52  L  6407.93,    86.77  " /><text style="&st18;" transform="matrix(&st16;  6230.3  87.3 )">a1</text><text style="&st18;" transform="matrix(&st16;  6230.3  53.3 )">S10</text><path style="stroke-width:1.42 ;&st7;  " d=" M  6407.93,   593.16  L  6402.96,   588.19  " /><path style="stroke-width:1.42 ;&st7;  " d=" M  6390.93,   600.22  L  6395.90,   605.18  " /><path style="stroke-width:1.42 ;&st7;  " d=" M  6402.96,   605.18  L  6407.93,   600.22  " /><path style="stroke-width:1.42 ;&st7;  " d=" M  6395.90,   588.19  L  6390.93,   593.16  " /><path style="stroke-width:1.42 ;&st7;  " d=" M  6407.93,   465.68  L  6402.96,   460.71  " /><path style="stroke-width:1.42 ;&st7;  " d=" M  6390.93,   472.74  L  6395.90,   477.71  " /><path style="stroke-width:1.42 ;&st7;  " d=" M  6402.96,   477.71  L  6407.93,   472.74  " /><path style="stroke-width:1.42 ;&st7;  " d=" M  6395.90,   460.71  L  6390.93,   465.68  " /><path style="stroke-width:1.42 ;&st7;  " d=" M  6467.42,   464.96  L  6467.42,   469.21  " /><text style="&st18;" transform="matrix(&st16;  6153.81  614.21 )">T6</text><path style="stroke-width:1.42 ;&st7;  " d=" M  6489.39,   299.24  L  6484.42,   304.21  " /><path style="stroke-width:1.42 ;&st7;  " d=" M  6496.44,   316.23  L  6501.41,   311.26  " /><path style="stroke-width:1.42 ;&st7;  " d=" M  6484.42,   311.26  L  6489.39,   316.23  " /><path style="stroke-width:1.42 ;&st7;  " d=" M  6501.41,   304.21  L  6496.44,   299.24  " /><path style="stroke-width:1.42 ;&st7;  " d=" M  6501.41,   256.74  L  6492.92,   256.74  " /><path style="stroke-width:1.42 ;&st7;  " d=" M  6489.39,   188.75  L  6484.42,   193.73  " /><path style="stroke-width:1.42 ;&st7;  " d=" M  6496.44,   205.75  L  6501.41,   200.78  " /><path style="stroke-width:1.42 ;&st7;  " d=" M  6484.42,   200.78  L  6489.39,   205.75  " /><path style="stroke-width:1.42 ;&st7;  " d=" M  6501.41,   193.73  L  6496.44,   188.75  " /><text style="&st18;" transform="matrix(&st16;  6230.3  197.78 )">b4</text><text style="&st18;" transform="matrix(&st16;  6230.3  163.79 )">e1</text><text style="&st18;" transform="matrix(&st16;  6230.3  121.29 )">f1</text><text style="&st18;" transform="matrix(&st16;  6230.3  231.78 )">b3</text><text style="&st18;" transform="matrix(&st16;  6384.48  49.08 )">W-B</text><text style="&st18;" transform="matrix(&st16;  6350.48  83.07 )">W-B</text><text style="&st18;" transform="matrix(&st16;  6435.47  83.07 )">W-B</text><path style="stroke-width:1.42 ;&st7;  " d=" M  6501.41,   372.20  L  6496.44,   367.22  " /><path style="stroke-width:1.42 ;&st7;  " d=" M  6484.42,   379.25  L  6489.39,   384.22  " /><path style="stroke-width:1.42 ;&st7;  " d=" M  6496.44,   384.22  L  6501.41,   379.25  " /><path style="stroke-width:1.42 ;&st7;  " d=" M  6489.39,   367.22  L  6484.42,   372.20  " /><text style="&st18;" transform="matrix(&st16;  6384.48  193.56 )">W-B</text><text style="&st18;" transform="matrix(&st16;  6384.48  227.55 )">W-B</text><text style="&st18;" transform="matrix(&st16;  6384.48  304.04 )">W-B</text><text style="&st18;" transform="matrix(&st16;  6384.17  383.36 )">(*22)</text><text style="&st18;" transform="matrix(&st16;  6384.48  338.03 )">W-B</text><text style="&st18;" transform="matrix(&st16;  6384.48  406.02 )">W-B</text><text style="&st18;" transform="matrix(&st16;  6230.3  308.26 )">T10</text><text style="&st18;" transform="matrix(&st16;  6230.3  376.25 )">T7</text><text style="&st18;" transform="matrix(&st16;  6384.48  372.03 )">W-B</text><text style="&st18;" transform="matrix(&st16;  6230.3  342.26 )">T8</text><text style="&st18;" transform="matrix(&st16;  6230.3  410.25 )">T5</text><text style="&st18;" transform="matrix(&st16;  6002.04  652.48 )">W-B</text><path style="stroke-width:1.42 ;&st7;  " d=" M  6067.99,   486.20  L  6067.99,   490.45  " /><path style="stroke-width:1.42 ;&st7;  " d=" M  6000.00,   486.20  L  6000.00,   490.45  " /><text style="&st18;" transform="matrix(&st16;  6153.81  486.73 )">c1</text><text style="&st18;" transform="matrix(&st16;  6002.04  609.99 )">W-B</text><path style="stroke-width:1.42 ;&st7;  " d=" M  6016.99,   524.45  L  6016.99,   528.70  " /><path style="stroke-width:1.42 ;&st7;  " d=" M  6072.95,   520.20  L  6067.99,   525.17  " /><path style="stroke-width:1.42 ;&st7;  " d=" M  6080.01,   537.20  L  6084.98,   532.23  " /><path style="stroke-width:1.42 ;&st7;  " d=" M  6067.99,   532.23  L  6072.95,   537.20  " /><path style="stroke-width:1.42 ;&st7;  " d=" M  6084.98,   525.17  L  6080.01,   520.20  " /><text style="&st18;" transform="matrix(&st16;  6153.81  529.23 )">V1</text><text style="&st18;" transform="matrix(&st16;  6153.81  571.72 )">V2</text><text style="&st18;" transform="matrix(&st16;  6153.81  656.7 )">T1</text><path style="stroke-width:1.42 ;&st7;  " d=" M  6004.97,    78.27  L  6000.00,    83.24  " /><path style="stroke-width:1.42 ;&st7;  " d=" M  6012.02,    95.27  L  6016.99,    90.30  " /><path style="stroke-width:1.42 ;&st7;  " d=" M  6000.00,    90.30  L  6004.97,    95.27  " /><path style="stroke-width:1.42 ;&st7;  " d=" M  6016.99,    83.24  L  6012.02,    78.27  " /><text style="&st18;" transform="matrix(&st16;  6095.53  567.49 )">W-B</text><text style="&st18;" transform="matrix(&st16;  6153.81  87.3 )">S12</text><text style="&st18;" transform="matrix(&st16;  6099.79  482.51 )">B</text><text style="&st18;" transform="matrix(&st16;  6040.3  482.51 )">B</text><text style="&st18;" transform="matrix(&st16;  6070.03  83.07 )">W-B</text><text style="&st18;" transform="matrix(&st16;  6240.0  15.09 )">W-B</text><text style="&st18;" transform="matrix(&st17;  6489.22  237.2 )">W-B</text><text style="&st18;" transform="matrix(&st17;  6489.22  288.19 )">W-B</text><text style="&st18;" transform="matrix(&st17;  6489.22  347.68 )">W-B</text><text style="&st18;" transform="matrix(&st17;  6395.74  653.63 )">W-B</text><text style="&st18;" transform="matrix(&st17;  6370.24  653.63 )">W-B</text><path style="stroke-width:1.42 ;&st7;  " d=" M  6000.00,   282.24  L  6008.50,   282.24  " /><text style="&st18;" transform="matrix(&st17;  6004.8  203.21 )">W-B</text><text style="&st18;" transform="matrix(&st17;  6004.8  381.68 )">W-B</text><text style="&st18;" transform="matrix(&st16;  6350.48  159.56 )">W-B</text><text style="&st18;" transform="matrix(&st16;  6354.75  117.07 )">B</text><text style="&st18;" transform="matrix(&st16;  6435.47  117.07 )">W-B</text><path style="stroke-width:1.42 ;&st7;  " d=" M  6407.93,   159.01  L  6407.93,   163.26  " /><text style="&st18;" transform="matrix(&st16;  6435.47  159.56 )">W-B</text><path style="stroke-width:1.42 ;&st7;  " d=" M  6390.93,   120.77  L  6390.93,   125.01  " /><text style="&st18;" transform="matrix(&st16;  6189.01  15.09 )">W-B</text><text style="&st18;" transform="matrix(&st16;  6190.25  26.42 )">(*6)</text><text style="&st18;" transform="matrix(&st16;  6241.24  26.42 )">(*6)</text><text style="&st18;" transform="matrix(&st16;  6385.72  60.41 )">(*6)</text><text style="&st18;" transform="matrix(&st16;  6351.73  94.41 )">(*6)</text><text style="&st18;" transform="matrix(&st16;  6436.71  94.41 )">(*6)</text><text style="&st18;" transform="matrix(&st17;  6395.74  517.65 )">W-B</text><text style="&st18;" transform="matrix(&st16;  6419.71  476.84 )">(*6)</text><text style="&st18;" transform="matrix(&st16;  6487.7  476.84 )">(*6)</text><text style="&st18;" transform="matrix(&st16;  6384.17  204.89 )">(*25)</text><text style="&st18;" transform="matrix(&st16;  6350.17  170.89 )">(*24)</text><text style="&st18;" transform="matrix(&st16;  6435.16  170.89 )">(*24)</text><text style="&st18;" transform="matrix(&st16;  6351.73  128.4 )">(*6)</text><text style="&st18;" transform="matrix(&st16;  6436.71  128.4 )">(*6)</text><text style="&st18;" transform="matrix(&st16;  6037.28  493.84 )">(*7)</text><text style="&st18;" transform="matrix(&st16;  6096.77  493.84 )">(*7)</text><text style="&st18;" transform="matrix(&st16;  6037.28  536.33 )">(*7)</text><text style="&st18;" transform="matrix(&st16;  6096.77  536.33 )">(*7)</text><text style="&st18;" transform="matrix(&st16;  6096.77  578.82 )">(*7)</text><text style="&st18;" transform="matrix(&st16;  6230.3  383.36 )" ewd:textID="117">Rear Combination <tspan x="0 " dy="6.0">Light Assembly LH</tspan></text><text style="&st18;" transform="matrix(&st16;  6071.27  94.41 )">(*7)</text><text style="&st18;" transform="matrix(&st17;  6016.13  380.44 )">(*7)</text><text style="&st18;" transform="matrix(&st17;  6016.13  201.97 )">(*7)</text><text style="&st18;" transform="matrix(&st16;  6001.73  663.81 )">(*23)</text><text style="&st18;" transform="matrix(&st16;  6385.72  238.88 )">(*6)</text><text style="&st18;" transform="matrix(&st17;  6407.07  516.41 )">(*6)</text><text style="&st18;" transform="matrix(&st17;  6407.07  652.39 )">(*6)</text><text style="&st18;" transform="matrix(&st17;  6381.57  652.39 )">(*6)</text><text style="&st18;" transform="matrix(&st16;  6453.71  519.33 )">(*6)</text><text style="&st18;" transform="matrix(&st16;  6001.73  621.32 )">(*22)</text><text style="&st18;" transform="matrix(&st16;  6129.21  615.65 )">(TE)</text><text style="&st18;" transform="matrix(&st16;  6304.77  88.74 )">(E)</text><path style="stroke-width:1.42 ;&st7;  " d=" M  6229.46,    78.27  L  6229.46,   103.77  L  6314.44,   103.77  L  6314.44,    78.27  L  6229.46,    78.27  " /><text style="&st18;" transform="matrix(&st16;  6304.77  54.75 )">(E)</text><path style="stroke-width:1.42 ;&st7;  " d=" M  6229.46,    44.28  L  6229.46,    69.77  L  6314.44,    69.77  L  6314.44,    44.28  L  6229.46,    44.28  " /><text style="&st18;" transform="matrix(&st16;  6304.77  199.22 )">(E)</text><path style="stroke-width:1.42 ;&st7;  " d=" M  6229.46,   188.75  L  6229.46,   214.25  L  6314.44,   214.25  L  6314.44,   188.75  L  6229.46,   188.75  " /><text style="&st18;" transform="matrix(&st16;  6304.77  165.23 )">(E)</text><path style="stroke-width:1.42 ;&st7;  " d=" M  6229.46,   154.76  L  6229.46,   180.26  L  6314.44,   180.26  L  6314.44,   154.76  L  6229.46,   154.76  " /><text style="&st18;" transform="matrix(&st16;  6304.77  122.73 )">(E)</text><path style="stroke-width:1.42 ;&st7;  " d=" M  6229.46,   112.27  L  6229.46,   146.26  L  6314.44,   146.26  L  6314.44,   112.27  L  6229.46,   112.27  " /><text style="&st18;" transform="matrix(&st16;  6305.39  233.22 )">(-)</text><path style="stroke-width:1.42 ;&st7;  " d=" M  6229.46,   299.24  L  6229.46,   324.73  L  6314.44,   324.73  L  6314.44,   299.24  L  6229.46,   299.24  " /><text style="&st18;" transform="matrix(&st16;  6295.69  309.7 )">(GND)</text><text style="&st18;" transform="matrix(&st16;  6300.89  377.69 )">(TE)</text><path style="stroke-width:1.42 ;&st7;  " d=" M  6229.46,   333.23  L  6229.46,   358.73  L  6314.44,   358.73  L  6314.44,   333.23  L  6229.46,   333.23  " /><text style="&st18;" transform="matrix(&st16;  6304.77  343.7 )">(E)</text><path style="stroke-width:1.42 ;&st7;  " d=" M  6229.46,   401.22  L  6229.46,   426.71  L  6314.44,   426.71  L  6314.44,   401.22  L  6229.46,   401.22  " /><text style="&st18;" transform="matrix(&st16;  6304.77  411.69 )">(E)</text><text style="&st18;" transform="matrix(&st16;  6129.21  488.17 )">(RH-)</text><path style="stroke-width:1.42 ;&st7;  " d=" M  6127.47,   477.71  L  6127.47,   511.70  L  6212.46,   511.70  L  6212.46,   477.71  L  6127.47,   477.71  " /><path style="stroke-width:1.42 ;&st7;  " d=" M  6127.47,   605.18  L  6127.47,   639.18  L  6212.46,   639.18  L  6212.46,   605.18  L  6127.47,   605.18  " /><text style="&st18;" transform="matrix(&st16;  6129.21  530.67 )">(RRE)</text><path style="stroke-width:1.42 ;&st7;  " d=" M  6127.47,   520.20  L  6127.47,   554.19  L  6212.46,   554.19  L  6212.46,   520.20  L  6127.47,   520.20  " /><text style="&st18;" transform="matrix(&st16;  6129.21  573.16 )">(GND)</text><path style="stroke-width:1.42 ;&st7;  " d=" M  6127.47,   562.69  L  6127.47,   596.69  L  6212.46,   596.69  L  6212.46,   562.69  L  6127.47,   562.69  " /><text style="&st18;" transform="matrix(&st16;  6129.21  658.14 )">(E)</text><path style="stroke-width:1.42 ;&st7;  " d=" M  6127.47,   647.68  L  6127.47,   681.67  L  6212.46,   681.67  L  6212.46,   647.68  L  6127.47,   647.68  " /><text style="&st18;" transform="matrix(&st16;  6129.21  88.74 )">(E)</text><path style="stroke-width:1.42 ;&st7;  " d=" M  6127.47,    78.27  L  6127.47,   112.27  L  6212.46,   112.27  L  6212.46,    78.27  L  6127.47,    78.27  " /><path style="stroke-width:1.42 ;&st7;  " d=" M  6229.46,   367.22  L  6229.46,   392.72  L  6314.44,   392.72  L  6314.44,   367.22  L  6229.46,   367.22  " /><path style="stroke-width:1.42 ;&st7;  " d=" M  6229.46,   256.74  L  6314.44,   256.74  L  6314.44,   222.75  L  6229.46,   222.75  L  6229.46,   256.74  " /><g ewd:figtype="w2w" ewd:figID="75" ewd:code="TV2"><text style="&st18;" transform="matrix(&st16;  6006.7  521.46 )">8</text><path style="stroke-width:1.42 ;&st7;  " d=" M  6022.66,   532.95  L  6018.41,   528.70  L  6022.66,   524.45  " /><path style="stroke-width:1.42 ;&st7;  " d=" M  6026.06,   532.95  L  6021.81,   528.70  L  6026.06,   524.45  " /></g><g ewd:figtype="w2w" ewd:figID="78" ewd:code="ca4"><path style="stroke-width:1.42 ;&st7;  " d=" M  6062.32,   481.95  L  6066.57,   486.20  L  6062.32,   490.45  " /><path style="stroke-width:1.42 ;&st7;  " d=" M  6058.92,   481.95  L  6063.17,   486.20  L  6058.92,   490.45  " /><text style="&st18;" transform="matrix(&st16;  6074.68  478.97 )">1</text></g><g ewd:figtype="w2w" ewd:figID="79" ewd:code="eb2"><text style="&st18;" transform="matrix(&st16;  6397.63  156.02 )">2</text><path style="stroke-width:1.42 ;&st7;  " d=" M  6413.59,   167.51  L  6409.34,   163.26  L  6413.59,   159.01  " /><path style="stroke-width:1.42 ;&st7;  " d=" M  6416.99,   167.51  L  6412.74,   163.26  L  6416.99,   159.01  " /></g><g ewd:figtype="w2w" ewd:figID="80" ewd:code="bf1"><text style="&st18;" transform="matrix(&st16;  6397.63  113.53 )">1</text><path style="stroke-width:1.42 ;&st7;  " d=" M  6381.86,   116.52  L  6386.11,   120.77  L  6381.86,   125.01  " /><path style="stroke-width:1.42 ;&st7;  " d=" M  6385.26,   116.52  L  6389.51,   120.77  L  6385.26,   125.01  " /></g><g ewd:figtype="w2w" ewd:figID="81" ewd:code="aS1"><path style="stroke-width:1.42 ;&st7;  " d=" M  6413.59,    91.02  L  6409.34,    86.77  L  6413.59,    82.52  " /><path style="stroke-width:1.42 ;&st7;  " d=" M  6416.99,    91.02  L  6412.74,    86.77  L  6416.99,    82.52  " /><text style="&st18;" transform="matrix(&st16;  6397.63  79.53 )">4</text></g><g ewd:figtype="w2w" ewd:figID="82" ewd:code="TS1"><text style="&st18;" transform="matrix(&st16;  6457.12  461.97 )">5</text><path style="stroke-width:1.42 ;&st7;  " d=" M  6473.08,   473.46  L  6468.83,   469.21  L  6473.08,   464.96  " /><path style="stroke-width:1.42 ;&st7;  " d=" M  6476.48,   473.46  L  6472.23,   469.21  L  6476.48,   464.96  " /></g><g ewd:figtype="w2w" ewd:figID="83" ewd:code="bT1"><path style="stroke-width:1.42 ;&st7;  " d=" M  6497.16,   265.81  L  6492.91,   261.56  L  6488.66,   265.81  " /><path style="stroke-width:1.42 ;&st7;  " d=" M  6497.16,   262.41  L  6492.91,   258.16  L  6488.66,   262.41  " /><text style="&st18;" transform="matrix(&st16;  6480.28  254.46 )">2</text></g><g ewd:figtype="gp" ewd:figID="113" ewd:code="TA"><path style="stroke-width: 0.85 ;&st7;  " d=" M  6399.43,   697.25  L  6399.43,   701.50  " /><path style="stroke-width: 0.85 ;&st7;  " d=" M  6390.93,   701.50  L  6407.93,   701.50  " /><path style="stroke-width: 0.85 ;&st7;  " d=" M  6395.18,   704.33  L  6403.68,   704.33  " /><path style="stroke-width: 0.85 ;&st7;  " d=" M  6396.60,   707.17  L  6402.26,   707.17  " /><path style="stroke-width: 0.85 ;&st7;  " d=" M  6398.01,   710.00  L  6400.84,   710.00  " /></g></svg>