<?xml version="1.0" encoding="utf-8"?>
<!DOCTYPE svg PUBLIC "-//W3C//DTD SVG 1.0//EN" "http://www.w3.org/TR/2001/REC-SVG-20010904/DTD/svg10.dtd"[
	<!ENTITY ns_flows "http://ns.adobe.com/Flows/1.0/">
	<!ENTITY ns_svg "http://www.w3.org/2000/svg">
	<!ENTITY ns_xlink "http://www.w3.org/1999/xlink">
	<!ENTITY st0 "font-size:7px;font-family:'MS-PGothic';adobe-font-script:japanese;">
	<!ENTITY st1 "font-size:6px;font-family:'ArialMT';">
	<!-- White fill  -->
	<!ENTITY st2 "fill:#FFFFFF;stroke:#000000; stroke-width:1.41;stroke-linecap:round;stroke-linejoin:round;">
	<!-- Yellow fill  -->
	<!ENTITY st3 "fill:#FFFFCC;stroke:#FFFFCC; stroke-width:0.1;stroke-linecap:round;stroke-linejoin:round;">
	<!-- Gray fill  -->
	<!ENTITY st4 "fill:#CCCCCC;stroke:#CCCCCC; stroke-width:0.1;stroke-linecap:round;stroke-linejoin:round;">
	<!-- Light-blue fill -->
	<!ENTITY st5 "fill:#CCECF4;stroke:#000000; stroke-width:1.133;stroke-linecap:round;stroke-linejoin:round;">
	<!ENTITY st6 "fill:none;stroke-linecap:butt; stroke-linejoin:round;">
	<!ENTITY st7 "fill:none;stroke:#000000;stroke-linecap:round;stroke-linejoin:round;">
	<!ENTITY st8 "enable-background:new    ;">
	<!-- Black fill -->
	<!ENTITY st9 "fill:#000000;stroke:#000000; stroke-linecap:round;stroke-linejoin:round;">
	<!-- SRS note   -->
	<!ENTITY st10 "font-size:9px;font-family:'ArialMT';">
	<!ENTITY st11 "font-size:9px;font-family:'Svg Symbol';">
	<!ENTITY st12 "font-size:6px;font-family:'Svg Symbol';">
	<!ENTITY st13 "fill:none;stroke:#ff0000;stroke-linecap:round;stroke-linejoin:round;">
	<!-- Yellow fill  -->
	<!ENTITY st14 "fill:#FFFF00;stroke:#FFFF00; stroke-width:0.1;stroke-linecap:round;stroke-linejoin:round;">
	<!ENTITY st15 "font-size:6px;font-family:'MS-PGothic';adobe-font-script:japanese;">
	<!ENTITY st16 "1.00 0.00 0.00 1.00">
	<!ENTITY st17 "0.00 -1.00 1.00 0.00">
	<!ENTITY st18 "font-size:6px;font-family:'Arial';">
	<!ENTITY st19 "font-size:9px;font-family:'Arial';">
	<!ENTITY st20 "font-size:6px;font-family:'MS-PGothic','MS PGothic';adobe-font-script:japanese;">
	<!ENTITY st21 "font-size:7px;font-family:'MS-PGothic','MS PGothic';adobe-font-script:japanese;">
	<!ATTLIST svg
		xmlns:ewd CDATA #FIXED "http://shcl.co.jp/ewd"
		xmlns:a CDATA #FIXED "http://ns.adobe.com/AdobeSVGViewerExtensions/3.0/"
		ewd:ver CDATA #IMPLIED
	>
	<!ATTLIST a
		ewd:lineID CDATA #IMPLIED
		ewd:groupID CDATA #IMPLIED
		ewd:figtype CDATA #IMPLIED
		ewd:code CDATA #IMPLIED
		ewd:figID CDATA #IMPLIED
		ewd:pinNo CDATA #IMPLIED
		ewd:comment CDATA #IMPLIED >
	<!ATTLIST g
		ewd:lineID CDATA #IMPLIED
		ewd:groupID CDATA #IMPLIED
		ewd:figtype CDATA #IMPLIED
		ewd:code CDATA #IMPLIED
		ewd:figID CDATA #IMPLIED
		ewd:pinNo CDATA #IMPLIED
		ewd:comment CDATA #IMPLIED >
	<!ATTLIST text
		ewd:textID CDATA #IMPLIED >
	<!ATTLIST title
		ewd:textID CDATA #IMPLIED >
]>
<!-- Generator: Shintec Hozumi YS   -->
<svg onload="call_execInitLoadProc_svg('system')" style="overflow:visible;  enable-background:new 0 0 7261.924 710.000" viewBox="0 0 7261.924 710.000" height="710.000" width="7261.924" xml:space="preserve" ewd:ver="2.1.2.9" xmlns="&ns_svg;" xmlns:a="http://ns.adobe.com/AdobeSVGViewerExtensions/3.0/" xmlns:ewd="http://shcl.co.jp/ewd" xmlns:xlink="&ns_xlink;">
<text style="&st18;" transform="matrix(&st16;  5711.89  502.34 )" ewd:textID="100">License Plate <tspan x="0 " dy="6.0">Light Assembly LH</tspan></text><text style="&st18;" transform="matrix(&st16;  5711.89  366.36 )" ewd:textID="72">Fuel Pump (Sub)</text><text style="&st18;" transform="matrix(&st16;  5711.89  179.39 )" ewd:textID="50">Differential <tspan x="0 " dy="6.0">Lock Shift Actuator</tspan></text><text style="&st18;" transform="matrix(&st16;  5711.89  468.34 )" ewd:textID="101">License Plate <tspan x="0 " dy="6.0">Light Assembly RH</tspan></text><text style="&st18;" transform="matrix(&st16;  5711.89  434.35 )" ewd:textID="100">License Plate <tspan x="0 " dy="6.0">Light Assembly LH</tspan></text><text style="&st18;" transform="matrix(&st16;  5711.89  145.4 )" ewd:textID="128">Rear Differential <tspan x="0 " dy="6.0">Lock Position Switch</tspan></text><text style="&st18;" transform="matrix(&st16;  5635.4  170.89 )" ewd:textID="67">Front Seat <tspan x="0 " dy="6.0">Inner Belt </tspan><tspan x="0 " dy="6.0">Assembly RH</tspan></text><text style="&st18;" transform="matrix(&st16;  5711.89  663.81 )" ewd:textID="126">Rear Combination <tspan x="0 " dy="6.0">Light Assembly LH</tspan></text><text style="&st18;" transform="matrix(&st16;  5711.89  570.33 )" ewd:textID="33">Back Buzzer Assembly</text><text style="&st18;" transform="matrix(&st16;  5711.89  604.32 )" ewd:textID="127">Rear Combination <tspan x="0 " dy="6.0">Light Assembly RH</tspan></text><text style="&st18;" transform="matrix(&st16;  5711.89  536.33 )" ewd:textID="101">License Plate <tspan x="0 " dy="6.0">Light Assembly RH</tspan></text><text style="&st18;" transform="matrix(&st16;  5711.89  400.35 )" ewd:textID="144">Trailer Socket</text><text style="&st18;" transform="matrix(&st16;  5850.31  179.39 )">(*8)</text><path style="stroke-width:1.42 ;&st7;  " d=" M  5936.98,   350.23  L  5932.01,   355.20  " /><path style="stroke-width:1.42 ;&st7;  " d=" M  5944.03,   367.22  L  5949.01,   362.26  " /><path style="stroke-width:1.42 ;&st7;  " d=" M  5932.01,   362.26  L  5936.98,   367.22  " /><path style="stroke-width:1.42 ;&st7;  " d=" M  5949.01,   355.20  L  5944.03,   350.23  " /><path style="stroke-width:1.42 ;&st7;  " d=" M  5936.98,   452.21  L  5932.01,   457.18  " /><path style="stroke-width:1.42 ;&st7;  " d=" M  5944.03,   469.21  L  5949.01,   464.24  " /><path style="stroke-width:1.42 ;&st7;  " d=" M  5932.01,   464.24  L  5936.98,   469.21  " /><path style="stroke-width:1.42 ;&st7;  " d=" M  5949.01,   457.18  L  5944.03,   452.21  " /><text style="&st18;" transform="matrix(&st16;  5711.88  359.25 )">T8</text><text style="&st18;" transform="matrix(&st16;  5711.88  393.25 )">T10</text><text style="&st18;" transform="matrix(&st16;  5711.88  427.24 )">T15</text><text style="&st18;" transform="matrix(&st16;  5711.88  461.24 )">T13</text><text style="&st18;" transform="matrix(&st16;  5711.88  495.23 )">T16</text><text style="&st18;" transform="matrix(&st16;  5711.88  529.23 )">T12</text><text style="&st18;" transform="matrix(&st16;  5711.88  597.21 )">T14</text><path style="stroke-width:1.42 ;&st7;  " d=" M  5936.98,   554.19  L  5932.01,   559.16  " /><path style="stroke-width:1.42 ;&st7;  " d=" M  5944.03,   571.19  L  5949.01,   566.22  " /><path style="stroke-width:1.42 ;&st7;  " d=" M  5932.01,   566.22  L  5936.98,   571.19  " /><path style="stroke-width:1.42 ;&st7;  " d=" M  5949.01,   559.16  L  5944.03,   554.19  " /><text style="&st18;" transform="matrix(&st16;  5711.88  563.22 )">T11</text><text style="&st18;" transform="matrix(&st16;  5711.88  656.7 )">T17</text><path style="stroke-width:1.42 ;&st7;  " d=" M  5974.50,   239.75  L  5966.00,   239.75  " /><path style="stroke-width:1.42 ;&st7;  " d=" M  5974.50,   168.23  L  5969.53,   163.26  " /><path style="stroke-width:1.42 ;&st7;  " d=" M  5957.50,   175.29  L  5962.47,   180.26  " /><path style="stroke-width:1.42 ;&st7;  " d=" M  5969.53,   180.26  L  5974.50,   175.29  " /><path style="stroke-width:1.42 ;&st7;  " d=" M  5962.47,   163.26  L  5957.50,   168.23  " /><text style="&st18;" transform="matrix(&st16;  5711.88  138.29 )">V1</text><text style="&st18;" transform="matrix(&st16;  5711.88  172.29 )">V2</text><text style="&st18;" transform="matrix(&st16;  5849.07  652.48 )">W-B</text><text style="&st18;" transform="matrix(&st16;  5849.07  592.99 )">W-B</text><text style="&st18;" transform="matrix(&st16;  5849.07  558.99 )">W-B</text><text style="&st18;" transform="matrix(&st16;  5849.07  525.0 )">W-B</text><text style="&st18;" transform="matrix(&st16;  5849.07  491.01 )">W-B</text><text style="&st18;" transform="matrix(&st16;  5849.07  457.01 )">W-B</text><text style="&st18;" transform="matrix(&st16;  5849.07  423.02 )">W-B</text><text style="&st18;" transform="matrix(&st16;  5849.07  389.02 )">W-B</text><text style="&st18;" transform="matrix(&st16;  5849.07  355.03 )">W-B</text><text style="&st18;" transform="matrix(&st16;  5849.07  168.06 )">W-B</text><text style="&st18;" transform="matrix(&st16;  5849.07  134.07 )">W-B</text><text style="&st18;" transform="matrix(&st17;  5962.31  271.2 )">W-B</text><text style="&st18;" transform="matrix(&st17;  5962.31  211.71 )">W-B</text><text style="&st18;" transform="matrix(&st17;  5936.81  628.14 )">W-B</text><text style="&st18;" transform="matrix(&st17;  5936.81  517.65 )">W-B</text><text style="&st18;" transform="matrix(&st17;  5936.81  424.17 )">W-B</text><text style="&st18;" transform="matrix(&st16;  5547.28  170.89 )">(*9 *23)</text><text style="&st18;" transform="matrix(&st16;  5635.4  163.79 )">S12</text><text style="&st18;" transform="matrix(&st16;  5551.62  159.56 )">W-B</text><text style="&st18;" transform="matrix(&st16;  5670.6  66.08 )">W-B</text><text style="&st18;" transform="matrix(&st16;  5670.6  40.58 )">W-B</text><text style="&st18;" transform="matrix(&st16;  5670.6  15.09 )">W-B</text><text style="&st18;" transform="matrix(&st16;  5721.59  15.09 )">W-B</text><text style="&st18;" transform="matrix(&st16;  5721.59  40.58 )">W-B</text><text style="&st18;" transform="matrix(&st16;  5721.59  66.08 )">W-B</text><text style="&st18;" transform="matrix(&st16;  5671.84  26.42 )">(*6)</text><text style="&st18;" transform="matrix(&st16;  5722.83  26.42 )">(*6)</text><text style="&st18;" transform="matrix(&st16;  5722.83  51.91 )">(*7)</text><text style="&st18;" transform="matrix(&st16;  5671.84  51.91 )">(*7)</text><text style="&st18;" transform="matrix(&st16;  5722.83  77.41 )">(*8)</text><text style="&st18;" transform="matrix(&st16;  5671.84  77.41 )">(*8)</text><text style="&st18;" transform="matrix(&st17;  5973.64  269.95 )">(*8)</text><text style="&st18;" transform="matrix(&st17;  5973.64  210.46 )">(*8)</text><text style="&st18;" transform="matrix(&st16;  5850.31  145.4 )">(*8)</text><text style="&st18;" transform="matrix(&st16;  5850.31  366.36 )">(*8)</text><text style="&st18;" transform="matrix(&st16;  5850.31  400.35 )">(*8)</text><text style="&st18;" transform="matrix(&st16;  5850.31  434.35 )">(*8)</text><text style="&st18;" transform="matrix(&st16;  5850.31  468.34 )">(*8)</text><text style="&st18;" transform="matrix(&st16;  5850.31  502.34 )">(*8)</text><text style="&st18;" transform="matrix(&st16;  5850.31  536.33 )">(*8)</text><text style="&st18;" transform="matrix(&st16;  5844.73  570.33 )">(*8 *36)</text><text style="&st18;" transform="matrix(&st16;  5850.31  604.32 )">(*8)</text><text style="&st18;" transform="matrix(&st17;  5948.14  422.93 )">(*8)</text><text style="&st18;" transform="matrix(&st17;  5948.14  516.41 )">(*8)</text><text style="&st18;" transform="matrix(&st17;  5948.14  626.89 )">(*8)</text><text style="&st18;" transform="matrix(&st16;  5850.31  663.81 )">(*8)</text><text style="&st18;" transform="matrix(&st16;  5635.4  128.4 )" ewd:textID="67">Front Seat <tspan x="0 " dy="6.0">Inner Belt </tspan><tspan x="0 " dy="6.0">Assembly RH</tspan></text><text style="&st18;" transform="matrix(&st16;  5547.28  128.4 )">(*9 *22)</text><text style="&st18;" transform="matrix(&st16;  5635.4  121.29 )">S19</text><text style="&st18;" transform="matrix(&st16;  5551.62  117.07 )">W-B</text><text style="&st18;" transform="matrix(&st16;  5711.89  332.37 )" ewd:textID="129">Rear Fog Light <tspan x="0 " dy="6.0">Socket &amp; Wire</tspan></text><text style="&st18;" transform="matrix(&st16;  5711.88  325.26 )">T18</text><text style="&st18;" transform="matrix(&st16;  5849.07  321.03 )">W-B</text><text style="&st18;" transform="matrix(&st16;  5850.31  332.37 )">(*8)</text><text style="&st18;" transform="matrix(&st16;  5786.35  360.69 )">(E)</text><path style="stroke-width:1.42 ;&st7;  " d=" M  5711.04,   350.23  L  5711.04,   375.72  L  5796.03,   375.72  L  5796.03,   350.23  L  5711.04,   350.23  " /><text style="&st18;" transform="matrix(&st16;  5777.28  394.69 )">(GND)</text><path style="stroke-width:1.42 ;&st7;  " d=" M  5711.04,   384.22  L  5711.04,   409.72  L  5796.03,   409.72  L  5796.03,   384.22  L  5711.04,   384.22  " /><text style="&st18;" transform="matrix(&st16;  5786.35  428.68 )">(E)</text><path style="stroke-width:1.42 ;&st7;  " d=" M  5711.04,   418.22  L  5711.04,   443.71  L  5796.03,   443.71  L  5796.03,   418.22  L  5711.04,   418.22  " /><text style="&st18;" transform="matrix(&st16;  5786.35  462.68 )">(E)</text><path style="stroke-width:1.42 ;&st7;  " d=" M  5711.04,   452.21  L  5711.04,   477.71  L  5796.03,   477.71  L  5796.03,   452.21  L  5711.04,   452.21  " /><text style="&st18;" transform="matrix(&st16;  5786.35  496.67 )">(E)</text><path style="stroke-width:1.42 ;&st7;  " d=" M  5711.04,   486.20  L  5711.04,   511.70  L  5796.03,   511.70  L  5796.03,   486.20  L  5711.04,   486.20  " /><text style="&st18;" transform="matrix(&st16;  5786.35  530.67 )">(E)</text><path style="stroke-width:1.42 ;&st7;  " d=" M  5711.04,   520.20  L  5711.04,   545.69  L  5796.03,   545.69  L  5796.03,   520.20  L  5711.04,   520.20  " /><text style="&st18;" transform="matrix(&st16;  5786.35  598.65 )">(E)</text><path style="stroke-width:1.42 ;&st7;  " d=" M  5711.04,   588.19  L  5711.04,   613.68  L  5796.03,   613.68  L  5796.03,   588.19  L  5711.04,   588.19  " /><text style="&st18;" transform="matrix(&st16;  5775.89  564.66 )">(BZR-)</text><path style="stroke-width:1.42 ;&st7;  " d=" M  5711.04,   554.19  L  5711.04,   579.69  L  5796.03,   579.69  L  5796.03,   554.19  L  5711.04,   554.19  " /><text style="&st18;" transform="matrix(&st16;  5786.35  658.14 )">(E)</text><path style="stroke-width:1.42 ;&st7;  " d=" M  5711.04,   647.68  L  5711.04,   673.17  L  5796.03,   673.17  L  5796.03,   647.68  L  5711.04,   647.68  " /><path style="stroke-width:1.42 ;&st7;  " d=" M  5711.04,   129.26  L  5711.04,   154.76  L  5796.03,   154.76  L  5796.03,   129.26  L  5711.04,   129.26  " /><text style="&st18;" transform="matrix(&st16;  5778.91  139.73 )">(RRE)</text><path style="stroke-width:1.42 ;&st7;  " d=" M  5711.04,   163.26  L  5711.04,   188.75  L  5796.03,   188.75  L  5796.03,   163.26  L  5711.04,   163.26  " /><text style="&st18;" transform="matrix(&st16;  5777.28  173.73 )">(GND)</text><text style="&st18;" transform="matrix(&st16;  5610.8  165.23 )">(E)</text><path style="stroke-width:1.42 ;&st7;  " d=" M  5609.06,   154.76  L  5609.06,   188.75  L  5694.05,   188.75  L  5694.05,   154.76  L  5609.06,   154.76  " /><text style="&st18;" transform="matrix(&st16;  5610.8  122.73 )">(E)</text><path style="stroke-width:1.42 ;&st7;  " d=" M  5609.06,   112.27  L  5609.06,   146.26  L  5694.05,   146.26  L  5694.05,   112.27  L  5609.06,   112.27  " /><text style="&st18;" transform="matrix(&st16;  5786.35  326.7 )">(E)</text><path style="stroke-width:1.42 ;&st7;  " d=" M  5711.04,   316.23  L  5711.04,   341.73  L  5796.03,   341.73  L  5796.03,   316.23  L  5711.04,   316.23  " /><g ewd:figtype="w2w" ewd:figID="75" ewd:code="VT1"><path style="stroke-width:1.42 ;&st7;  " d=" M  5970.25,   248.81  L  5966.00,   244.56  L  5961.75,   248.81  " /><path style="stroke-width:1.42 ;&st7;  " d=" M  5970.25,   245.41  L  5966.00,   241.16  L  5961.75,   245.41  " /><text style="&st18;" transform="matrix(&st16;  5953.37  237.47 )">8</text></g><g ewd:figtype="w2w" ewd:figID="76" ewd:code="ST2"><path style="stroke-width:1.42 ;&st7;  " d=" M  6012.74,   248.81  L  6008.49,   244.56  L  6004.24,   248.81  " /><path style="stroke-width:1.42 ;&st7;  " d=" M  6012.74,   245.41  L  6008.49,   241.16  L  6004.24,   245.41  " /><text style="&st18;" transform="matrix(&st16;  5995.86  237.47 )">9</text></g><g ewd:figtype="gp" ewd:figID="118" ewd:code="TC"><path style="stroke-width:0.85 ;&st7;  " d=" M  5939.09,   710.00  L  5941.92,   710.00  " /><path style="stroke-width:0.85 ;&st7;  " d=" M  5937.67,   707.17  L  5943.34,   707.17  " /><path style="stroke-width:0.85 ;&st7;  " d=" M  5936.26,   704.33  L  5944.75,   704.33  " /><path style="stroke-width:0.85 ;&st7;  " d=" M  5932.01,   701.50  L  5949.00,   701.50  " /><path style="stroke-width:0.85 ;&st7;  " d=" M  5940.50,   697.25  L  5940.50,   701.50  " /></g><g ewd:figtype="gp" ewd:figID="119" ewd:code="TB"><path style="stroke-width:0.85 ;&st7;  " d=" M  6007.08,   336.06  L  6009.91,   336.06  " /><path style="stroke-width:0.85 ;&st7;  " d=" M  6005.66,   333.23  L  6011.33,   333.23  " /><path style="stroke-width:0.85 ;&st7;  " d=" M  6004.24,   330.40  L  6012.74,   330.40  " /><path style="stroke-width:0.85 ;&st7;  " d=" M  5999.99,   327.56  L  6016.99,   327.56  " /><path style="stroke-width:0.85 ;&st7;  " d=" M  6008.49,   323.31  L  6008.49,   327.56  " /></g><g ewd:code="6" ewd:figID="231" ewd:comment="" ewd:figtype="comment"><text style="&st18;" transform="matrix(&st16;  5503.67  539.16 )" ewd:textID="4">* 6 :4-Door Except Pick-Up Body Type</text></g><g ewd:code="22" ewd:figID="232" ewd:comment="" ewd:figtype="comment"><text style="&st18;" transform="matrix(&st16;  5503.67  573.16 )" ewd:textID="16">*22 :Australia</text></g><g ewd:code="36" ewd:figID="292" ewd:comment="" ewd:figtype="comment"><text style="&st18;" transform="matrix(&st16;  5503.67  590.16 )" ewd:textID="26">*36 :w/ Back Buzzer</text></g><g ewd:code="8" ewd:figID="233" ewd:comment="" ewd:figtype="comment"><text style="&st18;" transform="matrix(&st16;  5503.67  556.16 )" ewd:textID="6">* 8 :4-Door Pick-Up Body Type</text></g><g ewd:code="7" ewd:figID="234" ewd:comment="" ewd:figtype="comment"><text style="&st18;" transform="matrix(&st16;  5503.67  547.66 )" ewd:textID="5">* 7 :2-Door Except Pick-Up Body Type</text></g><g ewd:code="9" ewd:figID="235" ewd:comment="" ewd:figtype="comment"><text style="&st18;" transform="matrix(&st16;  5503.67  564.66 )" ewd:textID="7">* 9 :2-Door Pick-Up Body Type</text></g><g ewd:code="23" ewd:figID="285" ewd:comment="" ewd:figtype="comment"><text style="&st18;" transform="matrix(&st16;  5503.67  581.66 )" ewd:textID="17">*23 :Except Australia</text></g></svg>