<?xml version="1.0" encoding="utf-8"?>
<!DOCTYPE svg PUBLIC "-//W3C//DTD SVG 1.0//EN" "http://www.w3.org/TR/2001/REC-SVG-20010904/DTD/svg10.dtd"[
	<!ENTITY ns_flows "http://ns.adobe.com/Flows/1.0/">
	<!ENTITY ns_svg "http://www.w3.org/2000/svg">
	<!ENTITY ns_xlink "http://www.w3.org/1999/xlink">
	<!ENTITY st0 "font-size:7px;font-family:'MS-PGothic';adobe-font-script:japanese;">
	<!ENTITY st1 "font-size:6px;font-family:'ArialMT';">
	<!-- White fill  -->
	<!ENTITY st2 "fill:#FFFFFF;stroke:#000000; stroke-width:1.41;stroke-linecap:round;stroke-linejoin:round;">
	<!-- Yellow fill  -->
	<!ENTITY st3 "fill:#FFFFCC;stroke:#FFFFCC; stroke-width:0.1;stroke-linecap:round;stroke-linejoin:round;">
	<!-- Gray fill  -->
	<!ENTITY st4 "fill:#CCCCCC;stroke:#CCCCCC; stroke-width:0.1;stroke-linecap:round;stroke-linejoin:round;">
	<!-- Light-blue fill -->
	<!ENTITY st5 "fill:#CCECF4;stroke:#000000; stroke-width:1.133;stroke-linecap:round;stroke-linejoin:round;">
	<!ENTITY st6 "fill:none;stroke-linecap:butt; stroke-linejoin:round;">
	<!ENTITY st7 "fill:none;stroke:#000000;stroke-linecap:round;stroke-linejoin:round;">
	<!ENTITY st8 "enable-background:new    ;">
	<!-- Black fill -->
	<!ENTITY st9 "fill:#000000;stroke:#000000; stroke-linecap:round;stroke-linejoin:round;">
	<!-- SRS note   -->
	<!ENTITY st10 "font-size:9px;font-family:'ArialMT';">
	<!ENTITY st11 "font-size:9px;font-family:'Svg Symbol';">
	<!ENTITY st12 "font-size:6px;font-family:'Svg Symbol';">
	<!ENTITY st13 "fill:none;stroke:#ff0000;stroke-linecap:round;stroke-linejoin:round;">
	<!-- Yellow fill  -->
	<!ENTITY st14 "fill:#FFFF00;stroke:#FFFF00; stroke-width:0.1;stroke-linecap:round;stroke-linejoin:round;">
	<!ENTITY st15 "font-size:6px;font-family:'MS-PGothic';adobe-font-script:japanese;">
	<!ENTITY st16 "1.00 0.00 0.00 1.00">
	<!ENTITY st17 "0.00 -1.00 1.00 0.00">
	<!ENTITY st18 "font-size:6px;font-family:'Arial';">
	<!ENTITY st19 "font-size:9px;font-family:'Arial';">
	<!ENTITY st20 "font-size:6px;font-family:'MS-PGothic','MS PGothic';adobe-font-script:japanese;">
	<!ENTITY st21 "font-size:7px;font-family:'MS-PGothic','MS PGothic';adobe-font-script:japanese;">
	<!ATTLIST svg
		xmlns:ewd CDATA #FIXED "http://shcl.co.jp/ewd"
		xmlns:a CDATA #FIXED "http://ns.adobe.com/AdobeSVGViewerExtensions/3.0/"
		ewd:ver CDATA #IMPLIED
	>
	<!ATTLIST a
		ewd:lineID CDATA #IMPLIED
		ewd:groupID CDATA #IMPLIED
		ewd:figtype CDATA #IMPLIED
		ewd:code CDATA #IMPLIED
		ewd:figID CDATA #IMPLIED
		ewd:pinNo CDATA #IMPLIED
		ewd:comment CDATA #IMPLIED >
	<!ATTLIST g
		ewd:lineID CDATA #IMPLIED
		ewd:groupID CDATA #IMPLIED
		ewd:figtype CDATA #IMPLIED
		ewd:code CDATA #IMPLIED
		ewd:figID CDATA #IMPLIED
		ewd:pinNo CDATA #IMPLIED
		ewd:comment CDATA #IMPLIED >
	<!ATTLIST text
		ewd:textID CDATA #IMPLIED >
	<!ATTLIST title
		ewd:textID CDATA #IMPLIED >
]>
<!-- Generator: Shintec Hozumi YS   -->
<svg onload="call_execInitLoadProc_svg('system')" style="overflow:visible;  enable-background:new 0 0 1873.081 710.000" viewBox="0 0 1873.081 710.000" height="710.000" width="1873.081" xml:space="preserve" ewd:ver="2.1.2.9" xmlns="&ns_svg;" xmlns:a="http://ns.adobe.com/AdobeSVGViewerExtensions/3.0/" xmlns:ewd="http://shcl.co.jp/ewd" xmlns:xlink="&ns_xlink;">
<path style="stroke-width:1.42 ;&st7;  " d=" M   353.41,   265.24  L   348.44,   270.21  " /><path style="stroke-width:1.42 ;&st7;  " d=" M   360.47,   282.24  L   365.44,   277.27  " /><path style="stroke-width:1.42 ;&st7;  " d=" M   348.44,   277.27  L   353.41,   282.24  " /><path style="stroke-width:1.42 ;&st7;  " d=" M   365.44,   270.21  L   360.47,   265.24  " /><path style="stroke-width:1.42 ;&st7;  " d=" M   225.93,   537.20  L   220.96,   542.17  " /><path style="stroke-width:1.42 ;&st7;  " d=" M   232.99,   554.19  L   237.96,   549.22  " /><path style="stroke-width:1.42 ;&st7;  " d=" M   220.96,   549.22  L   225.93,   554.19  " /><path style="stroke-width:1.42 ;&st7;  " d=" M   237.96,   542.17  L   232.99,   537.20  " /><path style="stroke-width:1.42 ;&st7;  " d=" M   174.94,   537.20  L   169.97,   542.17  " /><path style="stroke-width:1.42 ;&st7;  " d=" M   182.00,   554.19  L   186.97,   549.22  " /><path style="stroke-width:1.42 ;&st7;  " d=" M   169.97,   549.22  L   174.94,   554.19  " /><path style="stroke-width:1.42 ;&st7;  " d=" M   186.97,   542.17  L   182.00,   537.20  " /><path style="stroke-width:1.42 ;&st7;  " d=" M    59.49,   146.26  L    67.99,   146.26  " /><path style="stroke-width:1.42 ;&st7;  " d=" M   305.95,   367.22  L   314.45,   367.22  " /><path style="stroke-width:1.42 ;&st7;  " d=" M   348.44,   367.22  L   356.94,   367.22  " /><text style="&st18;" transform="matrix(&st17;  364.58  324.05 )">(LHD)</text><text style="&st18;" transform="matrix(&st17;  353.25  322.07 )">L-W</text><text style="&st18;" transform="matrix(&st17;  200.27  611.14 )">W-B</text><text style="&st18;" transform="matrix(&st17;  225.77  517.65 )">W-B</text><text style="&st18;" transform="matrix(&st17;  237.1  523.59 )">(RHD,*2)</text><text style="&st18;" transform="matrix(&st17;  186.11  516.41 )">(*1)</text><text style="&st18;" transform="matrix(&st17;  211.6  613.04 )">(RHD)</text><text style="&st18;" transform="matrix(&st17;  64.29  84.11 )">L-W</text><text style="&st18;" transform="matrix(&st17;  64.29  228.59 )">L-W</text><text style="&st18;" transform="matrix(&st17;  98.29  227.85 )">R-Y</text><text style="&st18;" transform="matrix(&st17;  353.25  228.59 )">L-W</text><text style="&st18;" transform="matrix(&st17;  183.27  397.82 )">R-B</text><text style="&st18;" transform="matrix(&st17;  310.75  397.82 )">R-Y</text><text style="&st18;" transform="matrix(&st17;  353.25  398.56 )">L-W</text><text style="&st18;" transform="matrix(&st17;  166.28  398.56 )">L-W</text><text style="&st18;" transform="matrix(&st17;  225.77  611.14 )">W-B</text><text style="&st18;" transform="matrix(&st17;  174.77  517.65 )">W-B</text><text style="&st18;" transform="matrix(&st17;  174.77  611.14 )">W-B</text><text style="&st18;" transform="matrix(&st17;  319.25  517.65 )">W-B</text><text style="&st18;" transform="matrix(&st17;  319.25  611.14 )">W-B</text><text style="&st18;" transform="matrix(&st17;  237.1  609.9 )">(*2)</text><text style="&st18;" transform="matrix(&st17;  186.11  609.9 )">(*1)</text><text style="&st18;" transform="matrix(&st16;  257.86  346.53 )">R-Y</text><text style="&st18;" transform="matrix(&st17;  390.07  324.09 )">(RHD)</text><text style="&st18;" transform="matrix(&st17;  378.74  322.07 )">L-W</text><text style="&st18;" transform="matrix(&st17;  364.58  230.56 )">(LHD)</text><text style="&st18;" transform="matrix(&st16;  486.58  15.09 )">L-W</text><text style="&st18;" transform="matrix(&st16;  487.32  125.57 )">R-Y</text><text style="&st18;" transform="matrix(&st16;  486.58  142.56 )">L-W</text><text style="&st18;" transform="matrix(&st16;  487.36  423.02 )">B-L</text><g ewd:figtype="rb" ewd:figID="9" ewd:code="FUSE13"><path style="stroke-width:1.42 ;&st7;  " d=" M   418.56,   231.25  L   414.31,   231.25  " /><path style="stroke-width:1.42 ;&st7;  " d=" M   418.56,   239.75  L   414.31,   239.75  " /><path style="stroke-width:1.42 ;&st7;  " d=" M   469.55,   231.25  L   465.30,   231.25  " /><path style="stroke-width:1.42 ;&st7;  " d=" M   469.55,   239.75  L   465.30,   239.75  " /><path style="stroke-width:1.42 ;&st7;  " d=" M   469.55,   350.23  L   465.30,   350.23  " /><path style="stroke-width:1.42 ;&st7;  " d=" M   469.55,   341.73  L   465.30,   341.73  " /><path style="stroke-width:1.42 ;&st7;   " d=" M   414.31,   231.25  C   411.96    231.25    410.06    233.15    410.06    235.50  " /><path style="stroke-width:1.42 ;&st7;   " d=" M   410.06,   235.50  C   410.06    237.84    411.96    239.75    414.31    239.75  " /><path style="stroke-width:1.42 ;&st7;   " d=" M   418.56,   239.75  C   420.90    239.75    422.80    237.84    422.80    235.50  " /><path style="stroke-width:1.42 ;&st7;   " d=" M   422.80,   235.50  C   422.80    233.15    420.90    231.25    418.56    231.25  " /><path style="stroke-width:1.42 ;&st7;   " d=" M   465.30,   231.25  C   462.95    231.25    461.05    233.15    461.05    235.50  " /><path style="stroke-width:1.42 ;&st7;   " d=" M   461.05,   235.50  C   461.05    237.84    462.95    239.75    465.30    239.75  " /><path style="stroke-width:1.42 ;&st7;   " d=" M   469.55,   239.75  C   471.89    239.75    473.80    237.84    473.80    235.50  " /><path style="stroke-width:1.42 ;&st7;   " d=" M   473.80,   235.50  C   473.80    233.15    471.89    231.25    469.55    231.25  " /><path style="stroke-width:1.42 ;&st7;   " d=" M   461.05,   345.98  C   461.05    348.32    462.95    350.23    465.30    350.23  " /><path style="stroke-width:1.42 ;&st7;   " d=" M   465.30,   341.73  C   462.95    341.73    461.05    343.63    461.05    345.98  " /><path style="stroke-width:1.42 ;&st7;   " d=" M   473.80,   345.98  C   473.80    343.63    471.89    341.73    469.55    341.73  " /><path style="stroke-width:1.42 ;&st7;   " d=" M   469.55,   350.23  C   471.89    350.23    473.80    348.32    473.80    345.98  " /><path style="stroke-width:0.85 ;&st7;  " d=" M   416.43,   265.24  L   416.43,   239.75  " /><path style="stroke-width:0.28 ;&st9;  " d=" M   416.43,   244.64  L   419.26,   247.47  L   419.26,   243.22  L   416.43,   240.39  L   413.60,   243.22  L   413.60,   247.47  L   416.43,   244.64  " /><path style="stroke-width:0.85 ;&st7;  " d=" M   416.43,   307.73  L   416.43,   324.73  L   467.42,   324.73  " /><path style="stroke-width:0.85 ;&st7;  " d=" M   466.23,   323.73  L   465.96,   324.20  L   465.86,   324.73  L   465.96,   325.26  L   466.23,   325.73  L   466.64,   326.08  L   467.15,   326.27  L   467.69,   326.27  L   468.20,   326.08  L   468.61,   325.73  L   468.89,   325.26  L   468.98,   324.73  L   468.89,   324.20  L   468.61,   323.73  L   468.20,   323.38  L   467.69,   323.20  L   467.15,   323.20  L   466.64,   323.38  L   466.23,   323.73  L   466.62,   324.44  L   466.62,   325.02  L   467.00,   325.47  L   467.57,   325.57  L   468.07,   325.28  L   468.27,   324.73  L   468.07,   324.18  L   467.57,   323.90  L   467.00,   323.99  L   467.42,   324.73  " /><path style="stroke-width:0.85 ;&st7;  " d=" M   467.42,   265.24  L   467.42,   239.75  " /><path style="stroke-width:0.28 ;&st9;  " d=" M   467.42,   244.64  L   470.25,   247.47  L   470.25,   243.22  L   467.42,   240.39  L   464.59,   243.22  L   464.59,   247.47  L   467.42,   244.64  " /><path style="stroke-width:0.28 ;&st9;  " d=" M   467.42,   336.83  L   464.59,   334.00  L   464.59,   338.25  L   467.42,   341.08  L   470.25,   338.25  L   470.25,   334.00  L   467.42,   336.83  " /><path style="stroke-width:0.85 ;&st7;  " d=" M   467.42,   341.73  L   467.42,   307.73  " /><text style="&st18;" transform="matrix(&st16;  410.25  261.55 )">2</text><text style="&st18;" transform="matrix(&st16;  410.25  315.93 )">1</text><text style="&st18;" transform="matrix(&st17;  438.23  309.81 )">10A H/LP LO LH</text><text style="&st18;" transform="matrix(&st16;  414.63  237.47 )">2</text><text style="&st18;" transform="matrix(&st16;  461.24  261.55 )">2</text><text style="&st18;" transform="matrix(&st16;  461.24  315.93 )">1</text><text style="&st18;" transform="matrix(&st17;  489.23  309.85 )">10A H/LP LO RH</text><text style="&st18;" transform="matrix(&st16;  465.62  237.47 )">2</text><text style="&st18;" transform="matrix(&st16;  465.62  347.95 )">2</text><path style="stroke-width:0.85 ;&st7;  " d=" M   467.42,   299.24  L   467.42,   307.73  " /><path style="stroke-width:0.85 ;&st7;   " d=" M   468.84,   297.82  C   468.84    297.04    468.20    296.40    467.42    296.40  " /><path style="stroke-width:0.85 ;&st7;   " d=" M   467.42,   296.40  C   466.64    296.40    466.01    297.04    466.01    297.82  " /><path style="stroke-width:0.85 ;&st7;   " d=" M   466.01,   297.82  C   466.01    298.60    466.64    299.24    467.42    299.24  " /><path style="stroke-width:0.85 ;&st7;   " d=" M   467.42,   299.24  C   468.20    299.24    468.84    298.60    468.84    297.82  " /><path style="stroke-width:0.85 ;&st7;   " d=" M   468.84,   275.16  C   468.84    274.37    468.20    273.74    467.42    273.74  " /><path style="stroke-width:0.85 ;&st7;   " d=" M   467.42,   273.74  C   466.64    273.74    466.01    274.37    466.01    275.16  " /><path style="stroke-width:0.85 ;&st7;   " d=" M   466.01,   275.16  C   466.01    275.94    466.64    276.57    467.42    276.57  " /><path style="stroke-width:0.85 ;&st7;   " d=" M   467.42,   276.57  C   468.20    276.57    468.84    275.94    468.84    275.16  " /><path style="stroke-width:1.42 ;&st7;   " d=" M   467.42,   296.40  C   470.16    294.79    471.07    291.26    469.46    288.52  " /><path style="stroke-width:1.42 ;&st7;   " d=" M   469.46,   288.52  C   468.94    287.64    468.30    287.01    467.42    286.49  " /><path style="stroke-width:1.42 ;&st7;   " d=" M   467.42,   276.57  C   464.68    278.19    463.77    281.71    465.39    284.45  " /><path style="stroke-width:1.42 ;&st7;   " d=" M   465.39,   284.45  C   465.90    285.33    466.54    285.97    467.42    286.49  " /><path style="stroke-width:1.42 ;&st7;  " d=" M   454.67,   265.24  L   454.67,   307.73  L   480.17,   307.73  L   480.17,   265.24  L   454.67,   265.24  " /><path style="stroke-width:0.85 ;&st7;  " d=" M   467.42,   265.24  L   467.42,   273.74  " /></g><g ewd:figtype="rb" ewd:figID="10" ewd:code="FUSE12"><path style="stroke-width:0.85 ;&st7;  " d=" M   416.43,   299.24  L   416.43,   307.73  " /><path style="stroke-width:0.85 ;&st7;   " d=" M   417.85,   297.82  C   417.85    297.04    417.21    296.40    416.43    296.40  " /><path style="stroke-width:0.85 ;&st7;   " d=" M   416.43,   296.40  C   415.65    296.40    415.01    297.04    415.01    297.82  " /><path style="stroke-width:0.85 ;&st7;   " d=" M   415.01,   297.82  C   415.01    298.60    415.65    299.24    416.43    299.24  " /><path style="stroke-width:0.85 ;&st7;   " d=" M   416.43,   299.24  C   417.21    299.24    417.85    298.60    417.85    297.82  " /><path style="stroke-width:0.85 ;&st7;   " d=" M   417.85,   275.16  C   417.85    274.37    417.21    273.74    416.43    273.74  " /><path style="stroke-width:0.85 ;&st7;   " d=" M   416.43,   273.74  C   415.65    273.74    415.01    274.37    415.01    275.16  " /><path style="stroke-width:0.85 ;&st7;   " d=" M   415.01,   275.16  C   415.01    275.94    415.65    276.57    416.43    276.57  " /><path style="stroke-width:0.85 ;&st7;   " d=" M   416.43,   276.57  C   417.21    276.57    417.85    275.94    417.85    275.16  " /><path style="stroke-width:1.42 ;&st7;   " d=" M   416.43,   296.40  C   419.17    294.79    420.08    291.26    418.47    288.52  " /><path style="stroke-width:1.42 ;&st7;   " d=" M   418.47,   288.52  C   417.95    287.64    417.31    287.01    416.43    286.49  " /><path style="stroke-width:1.42 ;&st7;   " d=" M   416.43,   276.57  C   413.69    278.19    412.78    281.71    414.39    284.45  " /><path style="stroke-width:1.42 ;&st7;   " d=" M   414.39,   284.45  C   414.91    285.33    415.55    285.97    416.43    286.49  " /><path style="stroke-width:1.42 ;&st7;  " d=" M   403.68,   265.24  L   403.68,   307.73  L   429.18,   307.73  L   429.18,   265.24  L   403.68,   265.24  " /><path style="stroke-width:0.85 ;&st7;  " d=" M   416.43,   265.24  L   416.43,   273.74  " /></g><g ewd:figtype="conn" ewd:figID="11" ewd:code="I62,I71"><path style="stroke-width: 0.85 ;&st7; stroke-dasharray:3, 1.5;" d=" M    89.24,   285.64  L    76.49,   285.64  " /><path style="stroke-width: 0.85 ;&st7; stroke-dasharray:3, 1.5;" d=" M    76.49,   294.70  L    89.24,   294.70  " /><path style="stroke-width:1.42 ;&st7;  " d=" M    59.49,   316.23  L   110.48,   316.23  L   110.48,   299.24  L    59.49,   299.24  L    59.49,   316.23  " /><path style="stroke-width:0.85 ;&st7;  " d=" M   100.79,   306.73  L   100.52,   307.20  L   100.42,   307.73  L   100.52,   308.27  L   100.79,   308.74  L   101.20,   309.08  L   101.71,   309.27  L   102.25,   309.27  L   102.76,   309.08  L   103.18,   308.74  L   103.45,   308.27  L   103.54,   307.73  L   103.45,   307.20  L   103.18,   306.73  L   102.76,   306.39  L   102.25,   306.20  L   101.71,   306.20  L   101.20,   306.39  L   100.79,   306.73  L   101.18,   307.44  L   101.18,   308.03  L   101.56,   308.47  L   102.13,   308.57  L   102.63,   308.28  L   102.83,   307.73  L   102.63,   307.19  L   102.13,   306.90  L   101.56,   307.00  L   101.98,   307.73  " /><path style="stroke-width:0.85 ;&st7;  " d=" M   101.98,   316.23  L   101.98,   299.24  " /><path style="stroke-width:0.85 ;&st7;  " d=" M    67.99,   299.24  L    67.99,   307.73  L   101.98,   307.73  " /><text style="&st18;" transform="matrix(&st16;  59.29  287.61 )">2</text><text style="&st18;" transform="matrix(&st16;  59.29  296.67 )">3</text><path style="stroke-width:1.42 ;&st7;   " d=" M    72.52,   294.70  C    72.52    292.20     70.49    290.17     67.99    290.17  " /><path style="stroke-width:1.42 ;&st7;   " d=" M    67.99,   290.17  C    65.49    290.17     63.46    292.20     63.46    294.70  " /><path style="stroke-width:1.42 ;&st7;   " d=" M    63.46,   294.70  C    63.46    297.21     65.49    299.24     67.99    299.24  " /><path style="stroke-width:1.42 ;&st7;   " d=" M    67.99,   299.24  C    70.49    299.24     72.52    297.21     72.52    294.70  " /><path style="stroke-width:1.42 ;&st7;   " d=" M    72.52,   285.64  C    72.52    283.13     70.49    281.10     67.99    281.10  " /><path style="stroke-width:1.42 ;&st7;   " d=" M    67.99,   281.10  C    65.49    281.10     63.46    283.13     63.46    285.64  " /><path style="stroke-width:1.42 ;&st7;   " d=" M    63.46,   285.64  C    63.46    288.14     65.49    290.17     67.99    290.17  " /><path style="stroke-width:1.42 ;&st7;   " d=" M    67.99,   290.17  C    70.49    290.17     72.52    288.14     72.52    285.64  " /><text style="&st18;" transform="matrix(&st16;  65.8  296.67 )">B</text><text style="&st18;" transform="matrix(&st16;  65.68  287.61 )">A</text><text style="&st18;" transform="matrix(&st16;  93.29  296.67 )">8</text><text style="&st18;" transform="matrix(&st16;  93.29  287.61 )">6</text><path style="stroke-width:1.42 ;&st7;   " d=" M   106.52,   294.70  C   106.52    292.20    104.49    290.17    101.98    290.17  " /><path style="stroke-width:1.42 ;&st7;   " d=" M   101.98,   290.17  C    99.48    290.17     97.45    292.20     97.45    294.70  " /><path style="stroke-width:1.42 ;&st7;   " d=" M    97.45,   294.70  C    97.45    297.21     99.48    299.24    101.98    299.24  " /><path style="stroke-width:1.42 ;&st7;   " d=" M   101.98,   299.24  C   104.49    299.24    106.52    297.21    106.52    294.70  " /><path style="stroke-width:1.42 ;&st7;   " d=" M   106.52,   285.64  C   106.52    283.13    104.49    281.10    101.98    281.10  " /><path style="stroke-width:1.42 ;&st7;   " d=" M   101.98,   281.10  C    99.48    281.10     97.45    283.13     97.45    285.64  " /><path style="stroke-width:1.42 ;&st7;   " d=" M    97.45,   285.64  C    97.45    288.14     99.48    290.17    101.98    290.17  " /><path style="stroke-width:1.42 ;&st7;   " d=" M   101.98,   290.17  C   104.49    290.17    106.52    288.14    106.52    285.64  " /><text style="&st18;" transform="matrix(&st16;  99.68  287.61 )">A</text><text style="&st18;" transform="matrix(&st16;  99.79  296.67 )">B</text><text style="&st18;" transform="matrix(&st16;  93.29  322.73 )">1</text><text style="&st18;" transform="matrix(&st16;  93.29  331.8 )">2</text><path style="stroke-width:1.42 ;&st7;   " d=" M   106.52,   320.77  C   106.52    318.26    104.49    316.23    101.98    316.23  " /><path style="stroke-width:1.42 ;&st7;   " d=" M   101.98,   316.23  C    99.48    316.23     97.45    318.26     97.45    320.77  " /><path style="stroke-width:1.42 ;&st7;   " d=" M    97.45,   320.77  C    97.45    323.27     99.48    325.30    101.98    325.30  " /><path style="stroke-width:1.42 ;&st7;   " d=" M   101.98,   325.30  C   104.49    325.30    106.52    323.27    106.52    320.77  " /><path style="stroke-width:1.42 ;&st7;   " d=" M   106.52,   329.83  C   106.52    327.33    104.49    325.30    101.98    325.30  " /><path style="stroke-width:1.42 ;&st7;   " d=" M   101.98,   325.30  C    99.48    325.30     97.45    327.33     97.45    329.83  " /><path style="stroke-width:1.42 ;&st7;   " d=" M    97.45,   329.83  C    97.45    332.33     99.48    334.36    101.98    334.36  " /><path style="stroke-width:1.42 ;&st7;   " d=" M   101.98,   334.36  C   104.49    334.36    106.52    332.33    106.52    329.83  " /><text style="&st18;" transform="matrix(&st16;  99.68  322.73 )">A</text><text style="&st18;" transform="matrix(&st16;  99.79  331.8 )">B</text><g ewd:figtype="title"><text style="&st18;" transform="matrix(&st17;  34.81  319.13 )">I71(A)</text><text style="&st18;" transform="matrix(&st17;  55.79  319.14 )" ewd:textID="20">No. 12 Junction Connector</text><text style="&st18;" transform="matrix(&st17;  48.97  319.13 )">I62(B)</text><text style="&st18;" transform="matrix(&st17;  41.63  319.14 )" ewd:textID="22">No. 20 Junction Connector</text></g><g ewd:code="" ewd:figID="84" ewd:comment="" ewd:figtype="commref"><text style="&st18;" transform="matrix(&st16;  107.08  322.73 )">(LHD)</text></g><g ewd:code="" ewd:figID="85" ewd:comment="" ewd:figtype="commref"><text style="&st18;" transform="matrix(&st16;  107.08  331.8 )">(RHD)</text></g><g ewd:code="" ewd:figID="86" ewd:comment="" ewd:figtype="commref"><text style="&st18;" transform="matrix(&st16;  107.08  296.67 )">(RHD)</text></g><g ewd:code="" ewd:figID="87" ewd:comment="" ewd:figtype="commref"><text style="&st18;" transform="matrix(&st16;  107.08  287.61 )">(LHD)</text></g></g><g ewd:code="A22" ewd:figID="12" ewd:comment="2,7,6" ewd:figtype="conn"><path style="stroke-width:0.85 ;&st7;  " d=" M   322.95,   537.20  L   322.95,   554.19  " /><path style="stroke-width:1.42 ;&st7;  " d=" M   314.45,   537.20  L   331.44,   537.20  L   331.44,   554.19  L   314.45,   554.19  L   314.45,   537.20  " /><text style="&st18;" transform="matrix(&st16;  314.25  578.82 )">4</text><text style="&st18;" transform="matrix(&st16;  314.25  560.69 )">2</text><text style="&st18;" transform="matrix(&st16;  314.25  569.76 )">3</text><text style="&st18;" transform="matrix(&st16;  320.64  560.69 )">A</text><path style="stroke-width:1.42 ;&st7;   " d=" M   327.48,   567.79  C   327.48    565.29    325.45    563.26    322.95    563.26  " /><path style="stroke-width:1.42 ;&st7;   " d=" M   322.95,   563.26  C   320.44    563.26    318.41    565.29    318.41    567.79  " /><path style="stroke-width:1.42 ;&st7;   " d=" M   318.41,   567.79  C   318.41    570.29    320.44    572.32    322.95    572.32  " /><path style="stroke-width:1.42 ;&st7;   " d=" M   322.95,   572.32  C   325.45    572.32    327.48    570.29    327.48    567.79  " /><path style="stroke-width:1.42 ;&st7;   " d=" M   327.48,   558.73  C   327.48    556.22    325.45    554.19    322.95    554.19  " /><path style="stroke-width:1.42 ;&st7;   " d=" M   322.95,   554.19  C   320.44    554.19    318.41    556.22    318.41    558.73  " /><path style="stroke-width:1.42 ;&st7;   " d=" M   318.41,   558.73  C   318.41    561.23    320.44    563.26    322.95    563.26  " /><path style="stroke-width:1.42 ;&st7;   " d=" M   322.95,   563.26  C   325.45    563.26    327.48    561.23    327.48    558.73  " /><text style="&st18;" transform="matrix(&st16;  320.64  578.82 )">A</text><text style="&st18;" transform="matrix(&st16;  320.64  569.76 )">A</text><path style="stroke-width:1.42 ;&st7;   " d=" M   327.48,   576.86  C   327.48    574.35    325.45    572.32    322.95    572.32  " /><path style="stroke-width:1.42 ;&st7;   " d=" M   322.95,   572.32  C   320.44    572.32    318.41    574.35    318.41    576.86  " /><path style="stroke-width:1.42 ;&st7;   " d=" M   318.41,   576.86  C   318.41    579.36    320.44    581.39    322.95    581.39  " /><path style="stroke-width:1.42 ;&st7;   " d=" M   322.95,   581.39  C   325.45    581.39    327.48    579.36    327.48    576.86  " /><text style="&st18;" transform="matrix(&st16;  314.25  534.63 )">7</text><path style="stroke-width:1.42 ;&st7;   " d=" M   327.48,   532.66  C   327.48    530.16    325.45    528.13    322.95    528.13  " /><path style="stroke-width:1.42 ;&st7;   " d=" M   322.95,   528.13  C   320.44    528.13    318.41    530.16    318.41    532.66  " /><path style="stroke-width:1.42 ;&st7;   " d=" M   318.41,   532.66  C   318.41    535.17    320.44    537.20    322.95    537.20  " /><path style="stroke-width:1.42 ;&st7;   " d=" M   322.95,   537.20  C   325.45    537.20    327.48    535.17    327.48    532.66  " /><text style="&st18;" transform="matrix(&st16;  320.64  534.63 )">A</text><g ewd:figtype="title"><text style="&st18;" transform="matrix(&st17;  297.98  557.09 )">A22(A)</text><text style="&st18;" transform="matrix(&st17;  304.8  557.1 )" ewd:textID="19">No. 1 Junction <tspan x="0 " dy="6.0">Connector</tspan></text></g><g ewd:code="" ewd:figID="60" ewd:comment="2" ewd:figtype="commref"><text style="&st18;" transform="matrix(&st16;  328.04  578.82 )">(*2)</text></g><g ewd:code="" ewd:figID="61" ewd:comment="6" ewd:figtype="commref"><text style="&st18;" transform="matrix(&st16;  328.04  560.69 )">(*6)</text></g><g ewd:code="" ewd:figID="62" ewd:comment="7" ewd:figtype="commref"><text style="&st18;" transform="matrix(&st16;  328.04  569.76 )">(*7)</text></g></g><g ewd:figtype="conn" ewd:figID="13" ewd:code="I36"><path style="stroke-width:0.85 ;&st7;  " d=" M   170.59,   452.21  L   178.47,   452.21  " /><path style="stroke-width:0.85 ;&st7;  " d=" M   186.97,   435.94  L   186.97,   443.71  " /><path style="stroke-width:0.85 ;&st7;  " d=" M   169.97,   435.94  L   169.97,   443.71  " /><path style="stroke-width:0.85 ;&st7;  " d=" M   178.47,   452.21  L   186.35,   452.21  " /><path style="stroke-width:0.85 ;&st7;  " d=" M   178.47,   460.71  L   178.47,   452.21  " /><path style="stroke-width:0.85 ;&st7;   " d=" M   173.09,   447.96  C   172.30    446.62    170.57    446.18    169.23    446.97  " /><path style="stroke-width:0.85 ;&st7;   " d=" M   169.23,   446.97  C   167.89    447.76    167.45    449.49    168.24    450.83  " /><path style="stroke-width:0.85 ;&st7;   " d=" M   168.24,   450.83  C   168.76    451.72    169.65    452.22    170.68    452.21  " /><path style="stroke-width:0.85 ;&st7;   " d=" M   169.97,   443.80  C   168.46    444.18    167.55    445.71    167.93    447.22  " /><path style="stroke-width:0.85 ;&st7;   " d=" M   167.93,   447.22  C   168.31    448.73    169.85    449.64    171.35    449.26  " /><path style="stroke-width:0.85 ;&st7;   " d=" M   171.35,   449.26  C   172.11    449.07    172.69    448.63    173.09    447.96  " /><path style="stroke-width:0.85 ;&st7;   " d=" M   186.26,   452.21  C   187.82    452.22    189.08    450.97    189.09    449.41  " /><path style="stroke-width:0.85 ;&st7;   " d=" M   189.09,   449.41  C   189.10    447.86    187.85    446.59    186.29    446.58  " /><path style="stroke-width:0.85 ;&st7;   " d=" M   186.29,   446.58  C   185.26    446.57    184.38    447.07    183.85    447.96  " /><path style="stroke-width:0.85 ;&st7;   " d=" M   183.85,   447.96  C   184.64    449.30    186.37    449.74    187.71    448.95  " /><path style="stroke-width:0.85 ;&st7;   " d=" M   187.71,   448.95  C   189.05    448.16    189.49    446.43    188.70    445.09  " /><path style="stroke-width:0.85 ;&st7;   " d=" M   188.70,   445.09  C   188.30    444.42    187.73    443.99    186.97    443.80  " /><path style="stroke-width:1.42 ;&st7;   " d=" M   174.22,   435.21  C   167.18    435.21    161.47    440.92    161.47    447.96  " /><path style="stroke-width:1.42 ;&st7;   " d=" M   161.47,   447.96  C   161.47    455.00    167.18    460.71    174.22    460.71  " /><path style="stroke-width:1.42 ;&st7;   " d=" M   182.72,   460.71  C   189.76    460.71    195.47    455.00    195.47    447.96  " /><path style="stroke-width:1.42 ;&st7;   " d=" M   195.47,   447.96  C   195.47    440.92    189.76    435.21    182.72    435.21  " /><path style="stroke-width:1.42 ;&st7;  " d=" M   178.47,   435.21  L   174.22,   435.21  " /><path style="stroke-width:1.42 ;&st7;  " d=" M   178.47,   460.71  L   174.22,   460.71  " /><path style="stroke-width:1.42 ;&st7;  " d=" M   178.47,   435.21  L   182.72,   435.21  " /><path style="stroke-width:1.42 ;&st7;  " d=" M   178.47,   460.71  L   182.72,   460.71  " /><path style="stroke-width:0.85 ;&st7;  " d=" M   177.28,   451.21  L   177.01,   451.68  L   176.91,   452.21  L   177.01,   452.74  L   177.28,   453.21  L   177.69,   453.56  L   178.20,   453.75  L   178.74,   453.75  L   179.25,   453.56  L   179.66,   453.21  L   179.93,   452.74  L   180.03,   452.21  L   179.93,   451.68  L   179.66,   451.21  L   179.25,   450.86  L   178.74,   450.67  L   178.20,   450.67  L   177.69,   450.86  L   177.28,   451.21  L   177.67,   451.92  L   177.67,   452.50  L   178.05,   452.95  L   178.62,   453.05  L   179.12,   452.76  L   179.32,   452.21  L   179.12,   451.66  L   178.62,   451.37  L   178.05,   451.47  L   178.47,   452.21  " /><path style="stroke-width:1.42 ;&st7;  " d=" M   152.97,   418.22  L   152.97,   477.71  L   203.97,   477.71  L   203.97,   418.22  L   152.97,   418.22  " /><path style="stroke-width:0.85 ;&st7;  " d=" M   169.97,   418.22  L   169.97,   435.94  " /><path style="stroke-width:0.85 ;&st7;  " d=" M   186.97,   418.22  L   186.97,   435.94  " /><path style="stroke-width:0.85 ;&st7;  " d=" M   178.47,   460.71  L   178.47,   477.71  " /><text style="&st18;" transform="matrix(&st16;  181.05  474.02 )">B</text><text style="&st18;" transform="matrix(&st16;  189.55  426.41 )">LO</text><text style="&st18;" transform="matrix(&st16;  172.56  426.41 )">HI</text><text style="&st18;" transform="matrix(&st16;  180.78  414.53 )">1</text><text style="&st18;" transform="matrix(&st16;  163.79  414.53 )">2</text><text style="&st18;" transform="matrix(&st16;  172.29  485.9 )">3</text><g ewd:figtype="title"><text style="&st18;" transform="matrix(&st17;  218.68  480.61 )" ewd:textID="13">Headlight <tspan x="0 " dy="6.0">Assembly RH</tspan></text><text style="&st18;" transform="matrix(&st17;  211.86  480.6 )">I36</text></g></g><g ewd:figtype="conn" ewd:figID="14" ewd:code="A1"><path style="stroke-width:0.85 ;&st7;  " d=" M   315.06,   452.21  L   322.95,   452.21  " /><path style="stroke-width:0.85 ;&st7;  " d=" M   331.44,   435.94  L   331.44,   443.71  " /><path style="stroke-width:0.85 ;&st7;  " d=" M   314.45,   435.94  L   314.45,   443.71  " /><path style="stroke-width:0.85 ;&st7;  " d=" M   322.95,   452.21  L   330.83,   452.21  " /><path style="stroke-width:0.85 ;&st7;  " d=" M   322.95,   460.71  L   322.95,   452.21  " /><path style="stroke-width:0.85 ;&st7;   " d=" M   317.56,   447.96  C   316.77    446.62    315.04    446.18    313.71    446.97  " /><path style="stroke-width:0.85 ;&st7;   " d=" M   313.71,   446.97  C   312.37    447.76    311.92    449.49    312.71    450.83  " /><path style="stroke-width:0.85 ;&st7;   " d=" M   312.71,   450.83  C   313.24    451.72    314.12    452.22    315.16    452.21  " /><path style="stroke-width:0.85 ;&st7;   " d=" M   314.45,   443.80  C   312.94    444.18    312.03    445.71    312.41    447.22  " /><path style="stroke-width:0.85 ;&st7;   " d=" M   312.41,   447.22  C   312.79    448.73    314.32    449.64    315.83    449.26  " /><path style="stroke-width:0.85 ;&st7;   " d=" M   315.83,   449.26  C   316.59    449.07    317.17    448.63    317.56    447.96  " /><path style="stroke-width:0.85 ;&st7;   " d=" M   330.74,   452.21  C   332.29    452.22    333.56    450.97    333.57    449.41  " /><path style="stroke-width:0.85 ;&st7;   " d=" M   333.57,   449.41  C   333.58    447.86    332.33    446.59    330.77    446.58  " /><path style="stroke-width:0.85 ;&st7;   " d=" M   330.77,   446.58  C   329.74    446.57    328.85    447.07    328.33    447.96  " /><path style="stroke-width:0.85 ;&st7;   " d=" M   328.33,   447.96  C   329.12    449.30    330.85    449.74    332.19    448.95  " /><path style="stroke-width:0.85 ;&st7;   " d=" M   332.19,   448.95  C   333.53    448.16    333.97    446.43    333.18    445.09  " /><path style="stroke-width:0.85 ;&st7;   " d=" M   333.18,   445.09  C   332.78    444.42    332.20    443.99    331.44    443.80  " /><path style="stroke-width:1.42 ;&st7;   " d=" M   318.70,   435.21  C   311.66    435.21    305.95    440.92    305.95    447.96  " /><path style="stroke-width:1.42 ;&st7;   " d=" M   305.95,   447.96  C   305.95    455.00    311.66    460.71    318.70    460.71  " /><path style="stroke-width:1.42 ;&st7;   " d=" M   327.20,   460.71  C   334.24    460.71    339.94    455.00    339.94    447.96  " /><path style="stroke-width:1.42 ;&st7;   " d=" M   339.94,   447.96  C   339.94    440.92    334.24    435.21    327.20    435.21  " /><path style="stroke-width:1.42 ;&st7;  " d=" M   322.95,   435.21  L   318.70,   435.21  " /><path style="stroke-width:1.42 ;&st7;  " d=" M   322.95,   460.71  L   318.70,   460.71  " /><path style="stroke-width:1.42 ;&st7;  " d=" M   322.95,   435.21  L   327.20,   435.21  " /><path style="stroke-width:1.42 ;&st7;  " d=" M   322.95,   460.71  L   327.20,   460.71  " /><path style="stroke-width:0.85 ;&st7;  " d=" M   321.75,   451.21  L   321.48,   451.68  L   321.39,   452.21  L   321.48,   452.74  L   321.75,   453.21  L   322.17,   453.56  L   322.67,   453.75  L   323.22,   453.75  L   323.72,   453.56  L   324.14,   453.21  L   324.41,   452.74  L   324.50,   452.21  L   324.41,   451.68  L   324.14,   451.21  L   323.72,   450.86  L   323.22,   450.67  L   322.67,   450.67  L   322.17,   450.86  L   321.75,   451.21  L   322.15,   451.92  L   322.15,   452.50  L   322.52,   452.95  L   323.09,   453.05  L   323.60,   452.76  L   323.80,   452.21  L   323.60,   451.66  L   323.09,   451.37  L   322.52,   451.47  L   322.95,   452.21  " /><path style="stroke-width:1.42 ;&st7;  " d=" M   297.45,   418.22  L   297.45,   477.71  L   348.44,   477.71  L   348.44,   418.22  L   297.45,   418.22  " /><path style="stroke-width:0.85 ;&st7;  " d=" M   314.45,   418.22  L   314.45,   435.94  " /><path style="stroke-width:0.85 ;&st7;  " d=" M   331.44,   418.22  L   331.44,   435.94  " /><path style="stroke-width:0.85 ;&st7;  " d=" M   322.95,   460.71  L   322.95,   477.71  " /><text style="&st18;" transform="matrix(&st16;  325.53  474.02 )">B</text><text style="&st18;" transform="matrix(&st16;  334.03  426.41 )">LO</text><text style="&st18;" transform="matrix(&st16;  317.03  426.41 )">HI</text><text style="&st18;" transform="matrix(&st16;  316.76  485.9 )">3</text><text style="&st18;" transform="matrix(&st16;  325.26  414.53 )">1</text><text style="&st18;" transform="matrix(&st16;  308.26  414.53 )">2</text><g ewd:figtype="title"><text style="&st18;" transform="matrix(&st17;  363.16  480.61 )" ewd:textID="12">Headlight <tspan x="0 " dy="6.0">Assembly LH</tspan></text><text style="&st18;" transform="matrix(&st17;  356.34  480.6 )">A1</text></g></g><g ewd:figtype="w2w" ewd:figID="21" ewd:code="IL1"><path style="stroke-width:1.42 ;&st7;  " d=" M    72.24,   140.60  L    67.99,   144.84  L    63.74,   140.60  " /><path style="stroke-width:1.42 ;&st7;  " d=" M    63.74,   137.20  L    67.99,   141.45  L    72.24,   137.20  " /><text style="&st18;" transform="matrix(&st16;  52.26  152.48 )">58</text></g><g ewd:figtype="w2w" ewd:figID="22" ewd:code="AI3"><path style="stroke-width:1.42 ;&st7;  " d=" M   318.70,   361.56  L   314.45,   365.81  L   310.20,   361.56  " /><path style="stroke-width:1.42 ;&st7;  " d=" M   310.20,   358.16  L   314.45,   362.41  L   318.70,   358.16  " /><text style="&st18;" transform="matrix(&st16;  301.82  373.44 )">4</text></g><g ewd:figtype="w2w" ewd:figID="23" ewd:code="AI3"><path style="stroke-width:1.42 ;&st7;  " d=" M   361.19,   361.56  L   356.94,   365.81  L   352.69,   361.56  " /><path style="stroke-width:1.42 ;&st7;  " d=" M   352.69,   358.16  L   356.94,   362.41  L   361.19,   358.16  " /><text style="&st18;" transform="matrix(&st16;  344.31  373.44 )">1</text></g><g ewd:figtype="gp" ewd:figID="36" ewd:code="IE"><path style="stroke-width: 0.85 ;&st7;  " d=" M   177.05,   710.00  L   179.89,   710.00  " /><path style="stroke-width: 0.85 ;&st7;  " d=" M   175.64,   707.17  L   181.30,   707.17  " /><path style="stroke-width: 0.85 ;&st7;  " d=" M   174.22,   704.33  L   182.72,   704.33  " /><path style="stroke-width: 0.85 ;&st7;  " d=" M   169.97,   701.50  L   186.97,   701.50  " /><path style="stroke-width: 0.85 ;&st7;  " d=" M   178.47,   697.25  L   178.47,   701.50  " /></g><g ewd:figtype="gp" ewd:figID="37" ewd:code="IG"><path style="stroke-width: 0.85 ;&st7;  " d=" M   228.05,   710.00  L   230.88,   710.00  " /><path style="stroke-width: 0.85 ;&st7;  " d=" M   226.63,   707.17  L   232.29,   707.17  " /><path style="stroke-width: 0.85 ;&st7;  " d=" M   225.21,   704.33  L   233.71,   704.33  " /><path style="stroke-width: 0.85 ;&st7;  " d=" M   220.96,   701.50  L   237.96,   701.50  " /><path style="stroke-width: 0.85 ;&st7;  " d=" M   229.46,   697.25  L   229.46,   701.50  " /></g><g ewd:figtype="gp" ewd:figID="38" ewd:code="AA"><path style="stroke-width: 0.85 ;&st7;  " d=" M   321.53,   710.00  L   324.36,   710.00  " /><path style="stroke-width: 0.85 ;&st7;  " d=" M   320.11,   707.17  L   325.78,   707.17  " /><path style="stroke-width: 0.85 ;&st7;  " d=" M   318.70,   704.33  L   327.20,   704.33  " /><path style="stroke-width: 0.85 ;&st7;  " d=" M   314.45,   701.50  L   331.44,   701.50  " /><path style="stroke-width: 0.85 ;&st7;  " d=" M   322.95,   697.25  L   322.95,   701.50  " /></g></svg>