<?xml version="1.0" encoding="utf-8"?>
<!DOCTYPE svg PUBLIC "-//W3C//DTD SVG 1.0//EN" "http://www.w3.org/TR/2001/REC-SVG-20010904/DTD/svg10.dtd"[
	<!ENTITY ns_flows "http://ns.adobe.com/Flows/1.0/">
	<!ENTITY ns_svg "http://www.w3.org/2000/svg">
	<!ENTITY ns_xlink "http://www.w3.org/1999/xlink">
	<!ENTITY st0 "font-size:7px;font-family:'MS-PGothic';adobe-font-script:japanese;">
	<!ENTITY st1 "font-size:6px;font-family:'ArialMT';">
	<!-- White fill  -->
	<!ENTITY st2 "fill:#FFFFFF;stroke:#000000; stroke-width:1.41;stroke-linecap:round;stroke-linejoin:round;">
	<!-- Yellow fill  -->
	<!ENTITY st3 "fill:#FFFFCC;stroke:#FFFFCC; stroke-width:0.1;stroke-linecap:round;stroke-linejoin:round;">
	<!-- Gray fill  -->
	<!ENTITY st4 "fill:#CCCCCC;stroke:#CCCCCC; stroke-width:0.1;stroke-linecap:round;stroke-linejoin:round;">
	<!-- Light-blue fill -->
	<!ENTITY st5 "fill:#CCECF4;stroke:#000000; stroke-width:1.133;stroke-linecap:round;stroke-linejoin:round;">
	<!ENTITY st6 "fill:none;stroke-linecap:butt; stroke-linejoin:round;">
	<!ENTITY st7 "fill:none;stroke:#000000;stroke-linecap:round;stroke-linejoin:round;">
	<!ENTITY st8 "enable-background:new    ;">
	<!-- Black fill -->
	<!ENTITY st9 "fill:#000000;stroke:#000000; stroke-linecap:round;stroke-linejoin:round;">
	<!-- SRS note   -->
	<!ENTITY st10 "font-size:9px;font-family:'ArialMT';">
	<!ENTITY st11 "font-size:9px;font-family:'Svg Symbol';">
	<!ENTITY st12 "font-size:6px;font-family:'Svg Symbol';">
	<!ENTITY st13 "fill:none;stroke:#ff0000;stroke-linecap:round;stroke-linejoin:round;">
	<!-- Yellow fill  -->
	<!ENTITY st14 "fill:#FFFF00;stroke:#FFFF00; stroke-width:0.1;stroke-linecap:round;stroke-linejoin:round;">
	<!ENTITY st15 "font-size:6px;font-family:'MS-PGothic';adobe-font-script:japanese;">
	<!ENTITY st16 "1.00 0.00 0.00 1.00">
	<!ENTITY st17 "0.00 -1.00 1.00 0.00">
	<!ENTITY st18 "font-size:6px;font-family:'Arial';">
	<!ENTITY st19 "font-size:9px;font-family:'Arial';">
	<!ENTITY st20 "font-size:6px;font-family:'MS-PGothic','MS PGothic';adobe-font-script:japanese;">
	<!ENTITY st21 "font-size:7px;font-family:'MS-PGothic','MS PGothic';adobe-font-script:japanese;">
	<!ATTLIST svg
		xmlns:ewd CDATA #FIXED "http://shcl.co.jp/ewd"
		xmlns:a CDATA #FIXED "http://ns.adobe.com/AdobeSVGViewerExtensions/3.0/"
		ewd:ver CDATA #IMPLIED
	>
	<!ATTLIST a
		ewd:lineID CDATA #IMPLIED
		ewd:groupID CDATA #IMPLIED
		ewd:figtype CDATA #IMPLIED
		ewd:code CDATA #IMPLIED
		ewd:figID CDATA #IMPLIED
		ewd:pinNo CDATA #IMPLIED
		ewd:comment CDATA #IMPLIED >
	<!ATTLIST g
		ewd:lineID CDATA #IMPLIED
		ewd:groupID CDATA #IMPLIED
		ewd:figtype CDATA #IMPLIED
		ewd:code CDATA #IMPLIED
		ewd:figID CDATA #IMPLIED
		ewd:pinNo CDATA #IMPLIED
		ewd:comment CDATA #IMPLIED >
	<!ATTLIST text
		ewd:textID CDATA #IMPLIED >
	<!ATTLIST title
		ewd:textID CDATA #IMPLIED >
]>
<!-- Generator: Shintec Hozumi YS   -->
<svg onload="call_execInitLoadProc_svg('system')" style="overflow:visible;  enable-background:new 0 0 1873.081 710.000" viewBox="0 0 1873.081 710.000" height="710.000" width="1873.081" xml:space="preserve" ewd:ver="2.1.2.9" xmlns="&ns_svg;" xmlns:a="http://ns.adobe.com/AdobeSVGViewerExtensions/3.0/" xmlns:ewd="http://shcl.co.jp/ewd" xmlns:xlink="&ns_xlink;"><script type="text/javascript" xlink:href="../../../../../system/js/ewd/fig/svgfig.js" xmlns:xlink="http://www.w3.org/1999/xlink" />
<g id="ewd_top"><a ewd:figtype="conn" style="cursor:pointer;" ewd:code="L25,L26" ewd:figID="1"><path style="fill:#CCECF4;stroke:#000000; stroke-width:1.133; stroke-linecap:round;stroke-linejoin:round; " d=" M  1623.23,   333.23  L  1699.72,   333.23  L  1699.72,   163.26  L  1623.23,   163.26  L  1623.23,   333.23 " /><title ewd:textID="6">Combination Meter Assembly</title></a><a ewd:figtype="conn" style="cursor:pointer;" ewd:code="L39" ewd:figID="2"><path style="fill:#CCECF4;stroke:#000000; stroke-width:1.133; stroke-linecap:round;stroke-linejoin:round; " d=" M  1215.30,   562.69  L  1232.29,   562.69  L  1232.29,   579.69  L  1215.30,   579.69  L  1215.30,   562.69 " /><title ewd:textID="26">No. 31 Junction Connector</title></a><a ewd:figtype="conn" style="cursor:pointer;" ewd:code="L32,L34" ewd:figID="3"><path style="fill:#CCECF4;stroke:#000000; stroke-width:1.133; stroke-linecap:round;stroke-linejoin:round; " d=" M  1198.30,   239.75  L  1249.29,   239.75  L  1249.29,   222.75  L  1198.30,   222.75  L  1198.30,   239.75 " /><title ewd:textID="24">No. 24 Junction Connector , No. 26 Junction Connector</title></a><a ewd:figtype="rb" style="cursor:pointer;" ewd:code="2" ewd:figID="4"><path style="fill:#CCECF4;stroke:#000000; stroke-width:0; stroke-linecap:round;stroke-linejoin:round; " d=" M   790.37,   503.20  L   747.88,   503.20  L   747.88,   537.20  L   790.37,   537.20  L   790.37,   503.20 " /></a><a ewd:figtype="rb" style="cursor:pointer;" ewd:code="FUSE11" ewd:figID="5"><path style="fill:#CCECF4;stroke:#000000; stroke-width:0; stroke-linecap:round;stroke-linejoin:round; " d=" M   599.15,   265.24  L   599.15,   307.73  L   624.65,   307.73  L   624.65,   265.24  L   599.15,   265.24 " /></a><a ewd:figtype="rb" style="cursor:pointer;" ewd:code="2" ewd:figID="6"><path style="fill:#CCECF4;stroke:#000000; stroke-width:0; stroke-linecap:round;stroke-linejoin:round; " d=" M   662.89,   503.20  L   705.38,   503.20  L   705.38,   537.20  L   662.89,   537.20  L   662.89,   503.20 " /></a><a ewd:figtype="rb" style="cursor:pointer;" ewd:code="FUSE10" ewd:figID="7"><path style="fill:#CCECF4;stroke:#000000; stroke-width:0; stroke-linecap:round;stroke-linejoin:round; " d=" M   650.14,   265.24  L   650.14,   307.73  L   675.64,   307.73  L   675.64,   265.24  L   650.14,   265.24 " /></a><a ewd:figtype="rb" style="cursor:pointer;" ewd:code="FUSE56" ewd:figID="8"><path style="fill:#CCECF4;stroke:#000000; stroke-width:0; stroke-linecap:round;stroke-linejoin:round; " d=" M   718.13,    35.78  L   718.13,    78.27  L   743.63,    78.27  L   743.63,    35.78  L   718.13,    35.78 " /></a><a ewd:figtype="rb" style="cursor:pointer;" ewd:code="FUSE13" ewd:figID="9"><path style="fill:#CCECF4;stroke:#000000; stroke-width:0; stroke-linecap:round;stroke-linejoin:round; " d=" M   454.67,   265.24  L   454.67,   307.73  L   480.17,   307.73  L   480.17,   265.24  L   454.67,   265.24 " /></a><a ewd:figtype="rb" style="cursor:pointer;" ewd:code="FUSE12" ewd:figID="10"><path style="fill:#CCECF4;stroke:#000000; stroke-width:0; stroke-linecap:round;stroke-linejoin:round; " d=" M   403.68,   265.24  L   403.68,   307.73  L   429.18,   307.73  L   429.18,   265.24  L   403.68,   265.24 " /></a><a ewd:figtype="conn" style="cursor:pointer;" ewd:code="I62,I71" ewd:figID="11"><path style="fill:#CCECF4;stroke:#000000; stroke-width:1.133; stroke-linecap:round;stroke-linejoin:round; " d=" M    59.49,   316.23  L   110.48,   316.23  L   110.48,   299.24  L    59.49,   299.24  L    59.49,   316.23 " /><title ewd:textID="21">No. 12 Junction Connector , No. 20 Junction Connector</title></a><a ewd:figtype="conn" style="cursor:pointer;" ewd:code="A22" ewd:figID="12"><path style="fill:#CCECF4;stroke:#000000; stroke-width:1.133; stroke-linecap:round;stroke-linejoin:round; " d=" M   314.45,   537.20  L   331.44,   537.20  L   331.44,   554.19  L   314.45,   554.19  L   314.45,   537.20 " /><title ewd:textID="19">No. 1 Junction Connector</title></a><a ewd:figtype="conn" style="cursor:pointer;" ewd:code="I36" ewd:figID="13"><path style="fill:#CCECF4;stroke:#000000; stroke-width:1.133; stroke-linecap:round;stroke-linejoin:round; " d=" M   152.97,   477.71  L   203.97,   477.71  L   203.97,   418.22  L   152.97,   418.22  L   152.97,   477.71 " /><title ewd:textID="13">Headlight Assembly RH</title></a><a ewd:figtype="conn" style="cursor:pointer;" ewd:code="A1" ewd:figID="14"><path style="fill:#CCECF4;stroke:#000000; stroke-width:1.133; stroke-linecap:round;stroke-linejoin:round; " d=" M   297.45,   477.71  L   348.44,   477.71  L   348.44,   418.22  L   297.45,   418.22  L   297.45,   477.71 " /><title ewd:textID="12">Headlight Assembly LH</title></a><a ewd:figtype="conn" style="cursor:pointer;" ewd:code="L24" ewd:figID="15"><path style="fill:#CCECF4;stroke:#000000; stroke-width:1.133; stroke-linecap:round;stroke-linejoin:round; " d=" M  1104.82,   452.21  L  1427.76,   452.21  L  1427.76,   333.23  L  1104.82,   333.23  L  1104.82,   452.21 " /><title ewd:textID="14">Headlight Dimmer Switch Assembly</title></a><a ewd:figtype="fuse" style="cursor:pointer;" ewd:code="FUSE12" ewd:figID="53"><path style="&st7; stroke-width:0;" d=" M   403.68,   265.24  L   403.68,   307.73  L   429.18,   307.73  L   429.18,   265.24  L   403.68,   265.24 " /></a><a ewd:figtype="fuse" style="cursor:pointer;" ewd:code="FUSE13" ewd:figID="54"><path style="&st7; stroke-width:0;" d=" M   454.67,   265.24  L   454.67,   307.73  L   480.17,   307.73  L   480.17,   265.24  L   454.67,   265.24 " /></a><a ewd:figtype="fuse" style="cursor:pointer;" ewd:code="FUSE11" ewd:figID="55"><path style="&st7; stroke-width:0;" d=" M   599.15,   265.24  L   599.15,   307.73  L   624.65,   307.73  L   624.65,   265.24  L   599.15,   265.24 " /></a><a ewd:figtype="fuse" style="cursor:pointer;" ewd:code="FUSE10" ewd:figID="56"><path style="&st7; stroke-width:0;" d=" M   650.14,   265.24  L   650.14,   307.73  L   675.64,   307.73  L   675.64,   265.24  L   650.14,   265.24 " /></a><a ewd:figtype="fuse" style="cursor:pointer;" ewd:code="FUSE56" ewd:figID="57"><path style="&st7; stroke-width:0;" d=" M   718.13,    35.78  L   718.13,    78.27  L   743.63,    78.27  L   743.63,    35.78  L   718.13,    35.78 " /></a><a style="cursor:pointer;" ewd:lineID="1"><path style="stroke:#00A0C6;stroke-width:5.10 ;&st6;" d=" M    67.99,   154.76  L    67.99,   281.10  " /><path style="stroke:#FFFFFF;stroke-width:1.13 ;&st6;" d=" M    67.99,   154.76  L    67.99,   281.10  " /></a><a style="cursor:pointer;" ewd:lineID="2"><path style="stroke:#00A0C6;stroke-width:5.10 ;&st6;" d=" M    67.99,   140.03  L    67.99,    18.78  L  1657.22,    18.78  L  1657.22,   154.19  " /><path style="stroke:#FFFFFF;stroke-width:1.13 ;&st6;" d=" M    67.99,   140.03  L    67.99,    18.78  L  1657.22,    18.78  L  1657.22,   154.19  " /></a><a style="cursor:pointer;" ewd:lineID="3"><path style="stroke:#000000;stroke-width:5.10 ;&st6;" d=" M   178.47,   681.67  L   178.47,   673.17  L   186.97,   664.67  L   203.97,   664.67  L   203.97,   545.69  L   220.96,   545.69  " /><path style="stroke:#FFFFFF;stroke-width:4.53 ;&st6;" d=" M   178.47,   681.67  L   178.47,   673.17  L   186.97,   664.67  L   203.97,   664.67  L   203.97,   545.69  L   220.96,   545.69  " /><path style="stroke:#000000;stroke-width:1.13 ;&st6;" d=" M   178.47,   681.67  L   178.47,   673.17  L   186.97,   664.67  L   203.97,   664.67  L   203.97,   545.69  L   220.96,   545.69  " /></a><a ewd:comment="1" style="cursor:pointer;" ewd:lineID="4"><path style="stroke:#000000;stroke-width:5.10 ;&st6;" d=" M   178.47,   554.19  L   178.47,   681.67  " /><path style="stroke:#FFFFFF;stroke-width:4.53 ;&st6;" d=" M   178.47,   554.19  L   178.47,   681.67  " /><path style="stroke:#000000;stroke-width:1.13 ;&st6;" d=" M   178.47,   554.19  L   178.47,   681.67  " /></a><a ewd:comment="1" style="cursor:pointer;" ewd:lineID="5"><path style="stroke:#000000;stroke-width:5.10 ;&st6;" d=" M   178.47,   537.20  L   178.47,   477.71  " /><path style="stroke:#FFFFFF;stroke-width:4.53 ;&st6;" d=" M   178.47,   537.20  L   178.47,   477.71  " /><path style="stroke:#000000;stroke-width:1.13 ;&st6;" d=" M   178.47,   537.20  L   178.47,   477.71  " /></a><a ewd:comment="2" style="cursor:pointer;" ewd:lineID="6"><path style="stroke:#000000;stroke-width:5.10 ;&st6;" d=" M   178.47,   477.71  L   178.47,   486.20  L   186.97,   494.70  L   229.46,   494.70  L   229.46,   537.20  " /><path style="stroke:#FFFFFF;stroke-width:4.53 ;&st6;" d=" M   178.47,   477.71  L   178.47,   486.20  L   186.97,   494.70  L   229.46,   494.70  L   229.46,   537.20  " /><path style="stroke:#000000;stroke-width:1.13 ;&st6;" d=" M   178.47,   477.71  L   178.47,   486.20  L   186.97,   494.70  L   229.46,   494.70  L   229.46,   537.20  " /></a><a ewd:comment="2" style="cursor:pointer;" ewd:lineID="7"><path style="stroke:#000000;stroke-width:5.10 ;&st6;" d=" M   229.46,   681.67  L   229.46,   554.19  " /><path style="stroke:#FFFFFF;stroke-width:4.53 ;&st6;" d=" M   229.46,   681.67  L   229.46,   554.19  " /><path style="stroke:#000000;stroke-width:1.13 ;&st6;" d=" M   229.46,   681.67  L   229.46,   554.19  " /></a><a style="cursor:pointer;" ewd:lineID="8"><path style="stroke:#FF0000;stroke-width:5.10 ;&st6;" d=" M   314.45,   375.72  L   314.45,   418.22  " /><path style="stroke:#FFFFFF;stroke-width:2.27 ;&st6;" d=" M   314.45,   375.72  L   314.45,   418.22  " /><path style="stroke:#FFE600;stroke-width:1.13 ;&st6;" d=" M   314.45,   375.72  L   314.45,   418.22  " /></a><a style="cursor:pointer;" ewd:lineID="9"><path style="stroke:#FF0000;stroke-width:5.10 ;&st6;" d=" M   314.45,   360.71  L   314.45,   350.23  L   101.98,   350.23  L   101.98,   334.36  " /><path style="stroke:#FFFFFF;stroke-width:2.27 ;&st6;" d=" M   314.45,   360.71  L   314.45,   350.23  L   101.98,   350.23  L   101.98,   334.36  " /><path style="stroke:#FFE600;stroke-width:1.13 ;&st6;" d=" M   314.45,   360.71  L   314.45,   350.23  L   101.98,   350.23  L   101.98,   334.36  " /></a><a style="cursor:pointer;" ewd:lineID="10"><path style="stroke:#000000;stroke-width:5.10 ;&st6;" d=" M   322.95,   581.39  L   322.95,   681.67  " /><path style="stroke:#FFFFFF;stroke-width:4.53 ;&st6;" d=" M   322.95,   581.39  L   322.95,   681.67  " /><path style="stroke:#000000;stroke-width:1.13 ;&st6;" d=" M   322.95,   581.39  L   322.95,   681.67  " /></a><a style="cursor:pointer;" ewd:lineID="11"><path style="stroke:#000000;stroke-width:5.10 ;&st6;" d=" M   322.95,   528.13  L   322.95,   477.71  " /><path style="stroke:#FFFFFF;stroke-width:4.53 ;&st6;" d=" M   322.95,   528.13  L   322.95,   477.71  " /><path style="stroke:#000000;stroke-width:1.13 ;&st6;" d=" M   322.95,   528.13  L   322.95,   477.71  " /></a><a style="cursor:pointer;" ewd:lineID="12"><path style="stroke:#00A0C6;stroke-width:5.10 ;&st6;" d=" M   356.94,   375.72  L   356.94,   409.72  L   331.44,   409.72  L   331.44,   418.22  " /><path style="stroke:#FFFFFF;stroke-width:1.13 ;&st6;" d=" M   356.94,   375.72  L   356.94,   409.72  L   331.44,   409.72  L   331.44,   418.22  " /></a><a style="cursor:pointer;" ewd:lineID="13"><path style="stroke:#00A0C6;stroke-width:5.10 ;&st6;" d=" M   356.94,   360.99  L   356.94,   358.73  L   365.44,   350.23  L   382.44,   350.23  L   382.44,   214.25  L   407.93,   214.25  L   416.43,   222.75  L   416.43,   231.25  " /><path style="stroke:#FFFFFF;stroke-width:1.13 ;&st6;" d=" M   356.94,   360.99  L   356.94,   358.73  L   365.44,   350.23  L   382.44,   350.23  L   382.44,   214.25  L   407.93,   214.25  L   416.43,   222.75  L   416.43,   231.25  " /></a><a style="cursor:pointer;" ewd:lineID="14"><path style="stroke:#00A0C6;stroke-width:5.10 ;&st6;" d=" M   356.94,   282.24  L   356.94,   360.71  " /><path style="stroke:#FFFFFF;stroke-width:1.13 ;&st6;" d=" M   356.94,   282.24  L   356.94,   360.71  " /></a><a style="cursor:pointer;" ewd:lineID="15"><path style="stroke:#00A0C6;stroke-width:5.10 ;&st6;" d=" M   416.43,   231.25  L   416.43,   197.25  L   356.94,   197.25  L   356.94,   265.24  " /><path style="stroke:#FFFFFF;stroke-width:1.13 ;&st6;" d=" M   416.43,   231.25  L   416.43,   197.25  L   356.94,   197.25  L   356.94,   265.24  " /></a><a style="cursor:pointer;" ewd:lineID="16"><path style="stroke:#FF0000;stroke-width:5.10 ;&st6;" d=" M   467.42,   231.25  L   467.42,   163.26  L   186.97,   163.26  L   186.97,   418.22  " /><path style="stroke:#FFFFFF;stroke-width:2.27 ;&st6;" d=" M   467.42,   231.25  L   467.42,   163.26  L   186.97,   163.26  L   186.97,   418.22  " /><path style="stroke:#000000;stroke-width:1.13 ;&st6;" d=" M   467.42,   231.25  L   467.42,   163.26  L   186.97,   163.26  L   186.97,   418.22  " /></a><a style="cursor:pointer;" ewd:lineID="17"><path style="stroke:#000000;stroke-width:5.10 ;&st6;" d=" M   611.90,   350.23  L   611.90,   588.19  L   671.39,   588.19  L   671.39,   571.19  " /><path style="stroke:#FFFFFF;stroke-width:4.53 ;&st6;" d=" M   611.90,   350.23  L   611.90,   588.19  L   671.39,   588.19  L   671.39,   571.19  " /><path style="stroke:#FF0000;stroke-width:1.13 ;&st6;" d=" M   611.90,   350.23  L   611.90,   588.19  L   671.39,   588.19  L   671.39,   571.19  " /></a><a style="cursor:pointer;" ewd:lineID="18"><path style="stroke:#00A0C6;stroke-width:5.10 ;&st6;" d=" M   611.90,   231.25  L   611.90,   146.26  L   169.97,   146.26  L   169.97,   418.22  " /><path style="stroke:#FFFFFF;stroke-width:1.13 ;&st6;" d=" M   611.90,   231.25  L   611.90,   146.26  L   169.97,   146.26  L   169.97,   418.22  " /></a><a style="cursor:pointer;" ewd:lineID="19"><path style="stroke:#000000;stroke-width:5.10 ;&st6;" d=" M   637.39,   469.21  L   637.39,   426.71  L   467.42,   426.71  L   467.42,   350.23  " /><path style="stroke:#FFFFFF;stroke-width:2.27 ;&st6;" d=" M   637.39,   469.21  L   637.39,   426.71  L   467.42,   426.71  L   467.42,   350.23  " /><path style="stroke:#00A0C6;stroke-width:1.13 ;&st6;" d=" M   637.39,   469.21  L   637.39,   426.71  L   467.42,   426.71  L   467.42,   350.23  " /></a><a style="cursor:pointer;" ewd:lineID="20"><path style="stroke:#FF0000;stroke-width:5.10 ;&st6;" d=" M   662.89,   231.25  L   662.89,   129.26  L   101.98,   129.26  L   101.98,   281.10  " /><path style="stroke:#FFFFFF;stroke-width:2.27 ;&st6;" d=" M   662.89,   231.25  L   662.89,   129.26  L   101.98,   129.26  L   101.98,   281.10  " /><path style="stroke:#FFE600;stroke-width:1.13 ;&st6;" d=" M   662.89,   231.25  L   662.89,   129.26  L   101.98,   129.26  L   101.98,   281.10  " /></a><a style="cursor:pointer;" ewd:lineID="21"><path style="stroke:#00A0C6;stroke-width:5.10 ;&st6;" d=" M   671.39,   469.21  L   671.39,   426.71  L   688.38,   426.71  " /><path style="stroke:#FFFFFF;stroke-width:2.27 ;&st6;" d=" M   671.39,   469.21  L   671.39,   426.71  L   688.38,   426.71  " /><path style="stroke:#FF0000;stroke-width:1.13 ;&st6;" d=" M   671.39,   469.21  L   671.39,   426.71  L   688.38,   426.71  " /></a><a style="cursor:pointer;" ewd:lineID="22"><path style="stroke:#00A0C6;stroke-width:5.10 ;&st6;" d=" M   696.88,   571.19  L   696.88,   605.18  L   943.34,   605.18  L   943.34,    95.27  L  1368.27,    95.27  L  1368.27,   146.26  " /></a><a style="cursor:pointer;" ewd:lineID="23"><path style="stroke:#00A0C6;stroke-width:5.10 ;&st6;" d=" M   696.88,   469.21  L   696.88,   435.21  " /><path style="stroke:#FFFFFF;stroke-width:2.27 ;&st6;" d=" M   696.88,   469.21  L   696.88,   435.21  " /><path style="stroke:#FF0000;stroke-width:1.13 ;&st6;" d=" M   696.88,   469.21  L   696.88,   435.21  " /></a><a style="cursor:pointer;" ewd:lineID="24"><path style="stroke:#00A0C6;stroke-width:5.10 ;&st6;" d=" M   705.38,   426.71  L   756.37,   426.71  L   756.37,   469.21  " /><path style="stroke:#FFFFFF;stroke-width:2.27 ;&st6;" d=" M   705.38,   426.71  L   756.37,   426.71  L   756.37,   469.21  " /><path style="stroke:#FF0000;stroke-width:1.13 ;&st6;" d=" M   705.38,   426.71  L   756.37,   426.71  L   756.37,   469.21  " /></a><a style="cursor:pointer;" ewd:lineID="25"><path style="stroke:#FF0000;stroke-width:5.10 ;&st6;" d=" M   730.88,   418.22  L   730.88,   588.19  L   756.37,   588.19  L   756.37,   571.19  " /></a><a style="cursor:pointer;" ewd:lineID="26"><path style="stroke:#FF0000;stroke-width:5.10 ;&st6;" d=" M   730.88,   160.99  L   730.88,   401.22  " /></a><a style="cursor:pointer;" ewd:lineID="27"><path style="stroke:#FF0000;stroke-width:5.10 ;&st6;" d=" M   730.88,   146.26  L   730.88,   103.77  " /></a><a style="cursor:pointer;" ewd:lineID="28"><path style="stroke:#FF0000;stroke-width:5.10 ;&st6;" d=" M   739.38,   409.72  L   781.87,   409.72  L   781.87,   469.21  " /></a><a style="cursor:pointer;" ewd:lineID="29"><path style="stroke:#FF0000;stroke-width:5.10 ;&st6;" d=" M   781.87,   571.19  L   781.87,   588.19  L   892.35,   588.19  L   892.35,    52.78  L  1206.80,    52.78  L  1206.80,   146.26  " /><path style="stroke:#FFFFFF;stroke-width:1.13 ;&st6;" d=" M   781.87,   571.19  L   781.87,   588.19  L   892.35,   588.19  L   892.35,    52.78  L  1206.80,    52.78  L  1206.80,   146.26  " /></a><a style="cursor:pointer;" ewd:lineID="30"><path style="stroke:#FF0000;stroke-width:5.10 ;&st6;" d=" M  1206.80,   257.88  L  1206.80,   315.10  " /><path style="stroke:#FFFFFF;stroke-width:1.13 ;&st6;" d=" M  1206.80,   257.88  L  1206.80,   315.10  " /></a><a style="cursor:pointer;" ewd:lineID="31"><path style="stroke:#FF0000;stroke-width:5.10 ;&st6;" d=" M  1206.80,   204.62  L  1206.80,   161.28  " /><path style="stroke:#FFFFFF;stroke-width:1.13 ;&st6;" d=" M  1206.80,   204.62  L  1206.80,   161.28  " /></a><a style="cursor:pointer;" ewd:lineID="32"><path style="stroke:#000000;stroke-width:5.10 ;&st6;" d=" M  1215.30,   571.19  L  1181.30,   571.19  L  1181.30,   681.67  " /><path style="stroke:#FFFFFF;stroke-width:4.53 ;&st6;" d=" M  1215.30,   571.19  L  1181.30,   571.19  L  1181.30,   681.67  " /><path style="stroke:#000000;stroke-width:1.13 ;&st6;" d=" M  1215.30,   571.19  L  1181.30,   571.19  L  1181.30,   681.67  " /></a><a style="cursor:pointer;" ewd:lineID="33"><path style="stroke:#000000;stroke-width:5.10 ;&st6;" d=" M  1223.80,   579.69  L  1223.80,   681.67  " /><path style="stroke:#FFFFFF;stroke-width:4.53 ;&st6;" d=" M  1223.80,   579.69  L  1223.80,   681.67  " /><path style="stroke:#000000;stroke-width:1.13 ;&st6;" d=" M  1223.80,   579.69  L  1223.80,   681.67  " /></a><a style="cursor:pointer;" ewd:lineID="34"><path style="stroke:#000000;stroke-width:5.10 ;&st6;" d=" M  1223.80,   562.69  L  1223.80,   520.20  " /><path style="stroke:#FFFFFF;stroke-width:4.53 ;&st6;" d=" M  1223.80,   562.69  L  1223.80,   520.20  " /><path style="stroke:#000000;stroke-width:1.13 ;&st6;" d=" M  1223.80,   562.69  L  1223.80,   520.20  " /></a><a style="cursor:pointer;" ewd:lineID="35"><path style="stroke:#000000;stroke-width:5.10 ;&st6;" d=" M  1223.80,   503.20  L  1223.80,   470.34  " /><path style="stroke:#FFFFFF;stroke-width:4.53 ;&st6;" d=" M  1223.80,   503.20  L  1223.80,   470.34  " /><path style="stroke:#000000;stroke-width:1.13 ;&st6;" d=" M  1223.80,   503.20  L  1223.80,   470.34  " /></a><a style="cursor:pointer;" ewd:lineID="36"><path style="stroke:#FF0000;stroke-width:5.10 ;&st6;" d=" M  1240.79,   257.88  L  1240.79,   273.74  L  1334.28,   273.74  L  1334.28,   315.10  " /><path style="stroke:#FFFFFF;stroke-width:1.13 ;&st6;" d=" M  1240.79,   257.88  L  1240.79,   273.74  L  1334.28,   273.74  L  1334.28,   315.10  " /></a><a style="cursor:pointer;" ewd:lineID="37"><path style="stroke:#00A0C6;stroke-width:5.10 ;&st6;" d=" M  1368.27,   315.10  L  1368.27,   160.99  " /></a><a ewd:comment="5" style="cursor:pointer;" ewd:lineID="38"><path style="stroke:#992903;stroke-width:5.10 ;&st6;" d=" M  1606.23,   562.69  L  1606.23,   681.67  " /></a><a ewd:comment="4" style="cursor:pointer;" ewd:lineID="39"><path style="stroke:#992903;stroke-width:5.10 ;&st6;" d=" M  1657.22,   622.18  L  1657.22,   681.67  " /></a><a ewd:comment="4" style="cursor:pointer;" ewd:lineID="40"><path style="stroke:#992903;stroke-width:5.10 ;&st6;" d=" M  1657.22,   568.92  L  1657.22,   605.18  " /></a><a ewd:comment="4" style="cursor:pointer;" ewd:lineID="41"><path style="stroke:#992903;stroke-width:5.10 ;&st6;" d=" M  1657.22,   554.19  L  1657.22,   494.70  " /></a><a ewd:comment="5" style="cursor:pointer;" ewd:lineID="42"><path style="stroke:#992903;stroke-width:5.10 ;&st6;" d=" M  1657.22,   494.70  L  1657.22,   503.20  L  1648.72,   511.70  L  1606.23,   511.70  L  1606.23,   547.96  " /></a><a ewd:comment="9" style="cursor:pointer;" ewd:lineID="43"><path style="stroke:#992903;stroke-width:5.10 ;&st6;" d=" M  1657.22,   462.97  L  1657.22,   401.22  " /></a><a ewd:comment="5,10" style="cursor:pointer;" ewd:lineID="44"><path style="stroke:#992903;stroke-width:5.10 ;&st6;" d=" M  1657.22,   462.97  L  1657.22,   460.71  L  1665.72,   452.21  L  1742.21,   452.21  L  1742.21,   435.21  L  1753.19,   424.23  " /></a><a ewd:comment="8" style="cursor:pointer;" ewd:lineID="45"><path style="stroke:#992903;stroke-width:5.10 ;&st6;" d=" M  1657.22,   401.22  L  1657.22,   409.72  L  1665.72,   418.22  L  1750.71,   418.22  " /></a><a style="cursor:pointer;" ewd:lineID="46"><path style="stroke:#992903;stroke-width:5.10 ;&st6;" d=" M  1657.22,   386.49  L  1657.22,   342.29  " /></a><a ewd:comment="3" style="cursor:pointer;" ewd:lineID="47"><path style="stroke:#992903;stroke-width:5.10 ;&st6;" d=" M  1759.21,   622.18  L  1759.21,   681.67  " /></a><a ewd:comment="3" style="cursor:pointer;" ewd:lineID="48"><path style="stroke:#992903;stroke-width:5.10 ;&st6;" d=" M  1759.21,   568.92  L  1759.21,   605.18  " /></a><a ewd:comment="3" style="cursor:pointer;" ewd:lineID="49"><path style="stroke:#992903;stroke-width:5.10 ;&st6;" d=" M  1759.21,   545.69  L  1759.21,   426.71  " /></a><a ewd:comment="3" style="cursor:pointer;" ewd:lineID="50"><path style="stroke:#992903;stroke-width:5.10 ;&st6;" d=" M  1767.70,   418.22  L  1810.20,   418.22  L  1810.20,   471.47  " /></a><a ewd:comment="3" style="cursor:pointer;" ewd:lineID="51"><path style="stroke:#992903;stroke-width:5.10 ;&st6;" d=" M  1810.20,   486.20  L  1810.20,   528.70  L  1767.70,   528.70  L  1759.21,   537.20  L  1759.21,   545.69  " /></a><a ewd:figtype="w2w" style="cursor:pointer;" ewd:pinNo="58" ewd:code="IL1" ewd:figID="21"><path style="&st2;" d=" M    76.49,   146.26  L    59.49,   146.26  L    59.49,   154.76  L    76.49,   154.76  L    76.49,   146.26 " /><text style="&st8;" transform="matrix(&st16;  63.85  152.63 )"><tspan x="0" style="&st18;" y="0">IL1</tspan></text></a><a ewd:figtype="w2w" style="cursor:pointer;" ewd:pinNo="4" ewd:code="AI3" ewd:figID="22"><path style="&st2;" d=" M   322.95,   367.22  L   305.95,   367.22  L   305.95,   375.72  L   322.95,   375.72  L   322.95,   367.22 " /><text style="&st8;" transform="matrix(&st16;  310.08  373.59 )"><tspan x="0" style="&st18;" y="0">AI3</tspan></text></a><a ewd:figtype="w2w" style="cursor:pointer;" ewd:pinNo="1" ewd:code="AI3" ewd:figID="23"><path style="&st2;" d=" M   365.44,   367.22  L   348.44,   367.22  L   348.44,   375.72  L   365.44,   375.72  L   365.44,   367.22 " /><text style="&st8;" transform="matrix(&st16;  352.58  373.59 )"><tspan x="0" style="&st18;" y="0">AI3</tspan></text></a><a ewd:figtype="w2w" style="cursor:pointer;" ewd:pinNo="4" ewd:code="AI4" ewd:figID="24"><path style="&st2;" d=" M   739.38,   146.26  L   722.38,   146.26  L   722.38,   154.76  L   739.38,   154.76  L   739.38,   146.26 " /><text style="&st8;" transform="matrix(&st16;  726.51  152.63 )"><tspan x="0" style="&st18;" y="0">AI4</tspan></text></a><a ewd:figtype="w2w" style="cursor:pointer;" ewd:pinNo="7" ewd:code="IL2" ewd:figID="25"><path style="&st2;" d=" M  1215.30,   146.26  L  1198.30,   146.26  L  1198.30,   154.76  L  1215.30,   154.76  L  1215.30,   146.26 " /><text style="&st8;" transform="matrix(&st16;  1202.66  152.63 )"><tspan x="0" style="&st18;" y="0">IL2</tspan></text></a><a ewd:figtype="w2w" style="cursor:pointer;" ewd:pinNo="8" ewd:code="IL2" ewd:figID="26"><path style="&st2;" d=" M  1376.77,   146.26  L  1359.77,   146.26  L  1359.77,   154.76  L  1376.77,   154.76  L  1376.77,   146.26 " /><text style="&st8;" transform="matrix(&st16;  1364.13  152.63 )"><tspan x="0" style="&st18;" y="0">IL2</tspan></text></a><a ewd:figtype="w2w" style="cursor:pointer;" ewd:pinNo="3" ewd:code="CA2" ewd:figID="27"><path style="&st2;" d=" M  1614.73,   554.19  L  1597.73,   554.19  L  1597.73,   562.69  L  1614.73,   562.69  L  1614.73,   554.19 " /><text style="&st8;" transform="matrix(&st16;  1600.63  560.56 )"><tspan x="0" style="&st18;" y="0">CA2</tspan></text></a><a ewd:figtype="w2w" style="cursor:pointer;" ewd:pinNo="1" ewd:code="AC1" ewd:figID="28"><path style="&st2;" d=" M  1665.72,   554.19  L  1648.72,   554.19  L  1648.72,   562.69  L  1665.72,   562.69  L  1665.72,   554.19 " /><text style="&st8;" transform="matrix(&st16;  1651.62  560.56 )"><tspan x="0" style="&st18;" y="0">AC1</tspan></text></a><a ewd:figtype="w2w" style="cursor:pointer;" ewd:pinNo="55" ewd:code="AI3" ewd:figID="29"><path style="&st2;" d=" M  1665.72,   486.20  L  1648.72,   486.20  L  1648.72,   494.70  L  1665.72,   494.70  L  1665.72,   486.20 " /><text style="&st8;" transform="matrix(&st16;  1652.86  492.57 )"><tspan x="0" style="&st18;" y="0">AI3</tspan></text></a><a ewd:figtype="w2w" style="cursor:pointer;" ewd:pinNo="22" ewd:code="AI3" ewd:figID="30"><path style="&st2;" d=" M  1665.72,   477.71  L  1648.72,   477.71  L  1648.72,   486.20  L  1665.72,   486.20  L  1665.72,   477.71 " /><text style="&st8;" transform="matrix(&st16;  1652.86  484.07 )"><tspan x="0" style="&st18;" y="0">AI3</tspan></text></a><a ewd:figtype="w2w" style="cursor:pointer;" ewd:pinNo="45" ewd:code="AI3" ewd:figID="31"><path style="&st2;" d=" M  1665.72,   469.21  L  1648.72,   469.21  L  1648.72,   477.71  L  1665.72,   477.71  L  1665.72,   469.21 " /><text style="&st8;" transform="matrix(&st16;  1652.86  475.58 )"><tspan x="0" style="&st18;" y="0">AI3</tspan></text></a><a ewd:figtype="w2w" style="cursor:pointer;" ewd:pinNo="26" ewd:code="IL1" ewd:figID="32"><path style="&st2;" d=" M  1665.72,   392.72  L  1648.72,   392.72  L  1648.72,   401.22  L  1665.72,   401.22  L  1665.72,   392.72 " /><text style="&st8;" transform="matrix(&st16;  1653.08  399.09 )"><tspan x="0" style="&st18;" y="0">IL1</tspan></text></a><a ewd:figtype="w2w" style="cursor:pointer;" ewd:pinNo="9" ewd:code="AC5" ewd:figID="33"><path style="&st2;" d=" M  1767.70,   554.19  L  1750.71,   554.19  L  1750.71,   562.69  L  1767.70,   562.69  L  1767.70,   554.19 " /><text style="&st8;" transform="matrix(&st16;  1753.6  560.56 )"><tspan x="0" style="&st18;" y="0">AC5</tspan></text></a><a ewd:figtype="w2w" style="cursor:pointer;" ewd:pinNo="9" ewd:code="IC2" ewd:figID="34"><path style="&st2;" d=" M  1767.70,   545.69  L  1750.71,   545.69  L  1750.71,   554.19  L  1767.70,   554.19  L  1767.70,   545.69 " /><text style="&st8;" transform="matrix(&st16;  1754.73  552.06 )"><tspan x="0" style="&st18;" y="0">IC2</tspan></text></a><a ewd:figtype="w2w" style="cursor:pointer;" ewd:pinNo="56" ewd:code="AI3" ewd:figID="35"><path style="&st2;" d=" M  1818.70,   477.71  L  1801.70,   477.71  L  1801.70,   486.20  L  1818.70,   486.20  L  1818.70,   477.71 " /><text style="&st8;" transform="matrix(&st16;  1805.83  484.07 )"><tspan x="0" style="&st18;" y="0">AI3</tspan></text></a><a ewd:figtype="gp" style="cursor:pointer;" ewd:code="IE" ewd:figID="36"><path style="&st2;" d=" M   167.85,   681.67  L   189.09,   681.67  L   178.47,   697.25  L   167.85,   681.67 " /><text style="&st8;" transform="matrix(&st16;  175.8  689.46 )"><tspan x="0" style="&st18;" y="0">IE</tspan></text></a><a ewd:figtype="gp" style="cursor:pointer;" ewd:code="IG" ewd:figID="37"><path style="&st2;" d=" M   218.84,   681.67  L   240.08,   681.67  L   229.46,   697.25  L   218.84,   681.67 " /><text style="&st8;" transform="matrix(&st16;  226.45  689.46 )"><tspan x="0" style="&st18;" y="0">IG</tspan></text></a><a ewd:figtype="gp" style="cursor:pointer;" ewd:code="AA" ewd:figID="38"><path style="&st2;" d=" M   312.32,   681.67  L   333.57,   681.67  L   322.95,   697.25  L   312.32,   681.67 " /><text style="&st8;" transform="matrix(&st16;  318.96  689.46 )"><tspan x="0" style="&st18;" y="0">AA</tspan></text></a><a ewd:figtype="gp" style="cursor:pointer;" ewd:code="LB" ewd:figID="39"><path style="&st2;" d=" M  1170.68,   681.67  L  1191.93,   681.67  L  1181.30,   697.25  L  1170.68,   681.67 " /><text style="&st8;" transform="matrix(&st16;  1177.65  689.46 )"><tspan x="0" style="&st18;" y="0">LB</tspan></text></a><a ewd:figtype="gp" style="cursor:pointer;" ewd:code="LA" ewd:figID="40"><path style="&st2;" d=" M  1213.17,   681.67  L  1234.42,   681.67  L  1223.80,   697.25  L  1213.17,   681.67 " /><text style="&st8;" transform="matrix(&st16;  1220.03  689.46 )"><tspan x="0" style="&st18;" y="0">LA</tspan></text></a><a ewd:figtype="gp" style="cursor:pointer;" ewd:code="CE" ewd:figID="41"><path style="&st2;" d=" M  1595.61,   681.67  L  1616.85,   681.67  L  1606.23,   697.25  L  1595.61,   681.67 " /><text style="&st8;" transform="matrix(&st16;  1602.32  689.46 )"><tspan x="0" style="&st18;" y="0">CE</tspan></text></a><a ewd:figtype="gp" style="cursor:pointer;" ewd:code="CC" ewd:figID="42"><path style="&st2;" d=" M  1646.60,   681.67  L  1667.85,   681.67  L  1657.22,   697.25  L  1646.60,   681.67 " /><text style="&st8;" transform="matrix(&st16;  1653.01  689.46 )"><tspan x="0" style="&st18;" y="0">CC</tspan></text></a><a ewd:figtype="gp" style="cursor:pointer;" ewd:code="CA" ewd:figID="43"><path style="&st2;" d=" M  1748.58,   681.67  L  1769.83,   681.67  L  1759.21,   697.25  L  1748.58,   681.67 " /><text style="&st8;" transform="matrix(&st16;  1755.11  689.46 )"><tspan x="0" style="&st18;" y="0">CA</tspan></text></a><a ewd:figtype="sp" style="cursor:pointer;" ewd:code="SP75" ewd:figID="44"><path style="&st2;" d=" M   174.22,   537.20  L   182.72,   537.20  L   186.97,   541.44  L   186.97,   549.94  L   182.72,   554.19  L   174.22,   554.19  L   169.97,   549.94  L   169.97,   541.44  L   174.22,   537.20 " /></a><a ewd:figtype="sp" style="cursor:pointer;" ewd:code="SP64" ewd:figID="45"><path style="&st2;" d=" M   225.21,   537.20  L   233.71,   537.20  L   237.96,   541.44  L   237.96,   549.94  L   233.71,   554.19  L   225.21,   554.19  L   220.96,   549.94  L   220.96,   541.44  L   225.21,   537.20 " /></a><a ewd:figtype="sp" style="cursor:pointer;" ewd:code="SP68" ewd:figID="46"><path style="&st2;" d=" M   352.69,   265.24  L   361.19,   265.24  L   365.44,   269.49  L   365.44,   277.99  L   361.19,   282.24  L   352.69,   282.24  L   348.44,   277.99  L   348.44,   269.49  L   352.69,   265.24 " /></a><a ewd:figtype="sp" style="cursor:pointer;" ewd:code="SP80" ewd:figID="47"><path style="&st2;" d=" M   692.63,   418.22  L   701.13,   418.22  L   705.38,   422.46  L   705.38,   430.96  L   701.13,   435.21  L   692.63,   435.21  L   688.38,   430.96  L   688.38,   422.46  L   692.63,   418.22 " /></a><a ewd:figtype="sp" style="cursor:pointer;" ewd:code="SP70" ewd:figID="48"><path style="&st2;" d=" M   726.63,   401.22  L   735.13,   401.22  L   739.38,   405.47  L   739.38,   413.97  L   735.13,   418.22  L   726.63,   418.22  L   722.38,   413.97  L   722.38,   405.47  L   726.63,   401.22 " /></a><a ewd:figtype="sp" style="cursor:pointer;" ewd:code="SP82" ewd:figID="49"><path style="&st2;" d=" M  1219.55,   503.20  L  1228.04,   503.20  L  1232.29,   507.45  L  1232.29,   515.95  L  1228.04,   520.20  L  1219.55,   520.20  L  1215.30,   515.95  L  1215.30,   507.45  L  1219.55,   503.20 " /></a><a ewd:figtype="sp" style="cursor:pointer;" ewd:code="SP19" ewd:figID="50"><path style="&st2;" d=" M  1652.97,   605.18  L  1661.47,   605.18  L  1665.72,   609.43  L  1665.72,   617.93  L  1661.47,   622.18  L  1652.97,   622.18  L  1648.72,   617.93  L  1648.72,   609.43  L  1652.97,   605.18 " /></a><a ewd:figtype="sp" style="cursor:pointer;" ewd:code="SP19" ewd:figID="51"><path style="&st2;" d=" M  1754.96,   605.18  L  1763.46,   605.18  L  1767.70,   609.43  L  1767.70,   617.93  L  1763.46,   622.18  L  1754.96,   622.18  L  1750.71,   617.93  L  1750.71,   609.43  L  1754.96,   605.18 " /></a><a ewd:figtype="sp" style="cursor:pointer;" ewd:code="SP60" ewd:figID="52"><path style="&st2;" d=" M  1754.96,   409.72  L  1763.46,   409.72  L  1767.70,   413.97  L  1767.70,   422.46  L  1763.46,   426.71  L  1754.96,   426.71  L  1750.71,   422.46  L  1750.71,   413.97  L  1754.96,   409.72 " /></a></g></svg>