<?xml version="1.0" encoding="utf-8"?>
<!DOCTYPE svg PUBLIC "-//W3C//DTD SVG 1.0//EN" "http://www.w3.org/TR/2001/REC-SVG-20010904/DTD/svg10.dtd"[
	<!ENTITY ns_flows "http://ns.adobe.com/Flows/1.0/">
	<!ENTITY ns_svg "http://www.w3.org/2000/svg">
	<!ENTITY ns_xlink "http://www.w3.org/1999/xlink">
	<!ENTITY st0 "font-size:7px;font-family:'MS-PGothic';adobe-font-script:japanese;">
	<!ENTITY st1 "font-size:6px;font-family:'ArialMT';">
	<!-- White fill  -->
	<!ENTITY st2 "fill:#FFFFFF;stroke:#000000; stroke-width:1.41;stroke-linecap:round;stroke-linejoin:round;">
	<!-- Yellow fill  -->
	<!ENTITY st3 "fill:#FFFFCC;stroke:#FFFFCC; stroke-width:0.1;stroke-linecap:round;stroke-linejoin:round;">
	<!-- Gray fill  -->
	<!ENTITY st4 "fill:#CCCCCC;stroke:#CCCCCC; stroke-width:0.1;stroke-linecap:round;stroke-linejoin:round;">
	<!-- Light-blue fill -->
	<!ENTITY st5 "fill:#CCECF4;stroke:#000000; stroke-width:1.133;stroke-linecap:round;stroke-linejoin:round;">
	<!ENTITY st6 "fill:none;stroke-linecap:butt; stroke-linejoin:round;">
	<!ENTITY st7 "fill:none;stroke:#000000;stroke-linecap:round;stroke-linejoin:round;">
	<!ENTITY st8 "enable-background:new    ;">
	<!-- Black fill -->
	<!ENTITY st9 "fill:#000000;stroke:#000000; stroke-linecap:round;stroke-linejoin:round;">
	<!-- SRS note   -->
	<!ENTITY st10 "font-size:9px;font-family:'ArialMT';">
	<!ENTITY st11 "font-size:9px;font-family:'Svg Symbol';">
	<!ENTITY st12 "font-size:6px;font-family:'Svg Symbol';">
	<!ENTITY st13 "fill:none;stroke:#ff0000;stroke-linecap:round;stroke-linejoin:round;">
	<!-- Yellow fill  -->
	<!ENTITY st14 "fill:#FFFF00;stroke:#FFFF00; stroke-width:0.1;stroke-linecap:round;stroke-linejoin:round;">
	<!ENTITY st15 "font-size:6px;font-family:'MS-PGothic';adobe-font-script:japanese;">
	<!ENTITY st16 "1.00 0.00 0.00 1.00">
	<!ENTITY st17 "0.00 -1.00 1.00 0.00">
	<!ENTITY st18 "font-size:6px;font-family:'Arial';">
	<!ENTITY st19 "font-size:9px;font-family:'Arial';">
	<!ENTITY st20 "font-size:6px;font-family:'MS-PGothic','MS PGothic';adobe-font-script:japanese;">
	<!ENTITY st21 "font-size:7px;font-family:'MS-PGothic','MS PGothic';adobe-font-script:japanese;">
	<!ATTLIST svg
		xmlns:ewd CDATA #FIXED "http://shcl.co.jp/ewd"
		xmlns:a CDATA #FIXED "http://ns.adobe.com/AdobeSVGViewerExtensions/3.0/"
		ewd:ver CDATA #IMPLIED
	>
	<!ATTLIST a
		ewd:lineID CDATA #IMPLIED
		ewd:groupID CDATA #IMPLIED
		ewd:figtype CDATA #IMPLIED
		ewd:code CDATA #IMPLIED
		ewd:figID CDATA #IMPLIED
		ewd:pinNo CDATA #IMPLIED
		ewd:comment CDATA #IMPLIED >
	<!ATTLIST g
		ewd:lineID CDATA #IMPLIED
		ewd:groupID CDATA #IMPLIED
		ewd:figtype CDATA #IMPLIED
		ewd:code CDATA #IMPLIED
		ewd:figID CDATA #IMPLIED
		ewd:pinNo CDATA #IMPLIED
		ewd:comment CDATA #IMPLIED >
	<!ATTLIST text
		ewd:textID CDATA #IMPLIED >
	<!ATTLIST title
		ewd:textID CDATA #IMPLIED >
]>
<!-- Generator: Shintec Hozumi YS   -->
<svg onload="call_execInitLoadProc_svg('system')" style="overflow:visible;  enable-background:new 0 0 1873.081 710.000" viewBox="0 0 1873.081 710.000" height="710.000" width="1873.081" xml:space="preserve" ewd:ver="2.1.2.9" xmlns="&ns_svg;" xmlns:a="http://ns.adobe.com/AdobeSVGViewerExtensions/3.0/" xmlns:ewd="http://shcl.co.jp/ewd" xmlns:xlink="&ns_xlink;">
<path style="stroke-width:1.42 ;&st7;  " d=" M  1220.27,   503.20  L  1215.30,   508.17  " /><path style="stroke-width:1.42 ;&st7;  " d=" M  1227.32,   520.20  L  1232.29,   515.23  " /><path style="stroke-width:1.42 ;&st7;  " d=" M  1215.30,   515.23  L  1220.27,   520.20  " /><path style="stroke-width:1.42 ;&st7;  " d=" M  1232.29,   508.17  L  1227.32,   503.20  " /><path style="stroke-width:1.42 ;&st7;  " d=" M  1376.77,   154.76  L  1368.27,   154.76  " /><path style="stroke-width:1.42 ;&st7;  " d=" M  1215.30,   154.76  L  1206.80,   154.76  " /><text style="&st18;" transform="matrix(&st17;  1203.1  194.63 )">R-W</text><text style="&st18;" transform="matrix(&st17;  1364.58  292.31 )">L</text><text style="&st18;" transform="matrix(&st17;  1330.58  296.61 )">R-W</text><text style="&st18;" transform="matrix(&st17;  1203.1  296.61 )">R-W</text><text style="&st18;" transform="matrix(&st16;  1060.25  91.57 )">L</text><text style="&st18;" transform="matrix(&st16;  1055.95  49.08 )">R-W</text><text style="&st18;" transform="matrix(&st16;  1055.99  15.09 )">L-W</text><text style="&st18;" transform="matrix(&st17;  1203.1  118.14 )">R-W</text><text style="&st18;" transform="matrix(&st17;  1364.58  113.84 )">L</text><text style="&st18;" transform="matrix(&st17;  1220.1  492.16 )">W-B</text><text style="&st18;" transform="matrix(&st17;  1220.1  543.15 )">W-B</text><text style="&st18;" transform="matrix(&st17;  1220.1  628.14 )">W-B</text><text style="&st18;" transform="matrix(&st16;  1004.99  15.09 )">L-W</text><text style="&st18;" transform="matrix(&st16;  1004.96  49.08 )">R-W</text><text style="&st18;" transform="matrix(&st16;  1009.26  91.57 )">L</text><text style="&st18;" transform="matrix(&st17;  1177.61  628.14 )">W-B</text><g ewd:figtype="conn" ewd:figID="2" ewd:code="L39"><path style="stroke-width:0.85 ;&st7;  " d=" M  1222.60,   570.19  L  1222.33,   570.66  L  1222.24,   571.19  L  1222.33,   571.72  L  1222.60,   572.19  L  1223.02,   572.54  L  1223.52,   572.73  L  1224.07,   572.73  L  1224.57,   572.54  L  1224.99,   572.19  L  1225.26,   571.72  L  1225.35,   571.19  L  1225.26,   570.66  L  1224.99,   570.19  L  1224.57,   569.84  L  1224.07,   569.65  L  1223.52,   569.65  L  1223.02,   569.84  L  1222.60,   570.19  L  1223.00,   570.90  L  1223.00,   571.48  L  1223.37,   571.93  L  1223.94,   572.03  L  1224.45,   571.74  L  1224.64,   571.19  L  1224.45,   570.64  L  1223.94,   570.35  L  1223.37,   570.45  L  1223.80,   571.19  " /><path style="stroke-width:0.85 ;&st7;  " d=" M  1215.30,   571.19  L  1223.80,   571.19  " /><path style="stroke-width:0.85 ;&st7;  " d=" M  1223.80,   562.69  L  1223.80,   579.69  " /><path style="stroke-width:1.42 ;&st7;  " d=" M  1215.30,   562.69  L  1232.29,   562.69  L  1232.29,   579.69  L  1215.30,   579.69  L  1215.30,   562.69  " /><text style="&st18;" transform="matrix(&st16;  1209.11  567.5 )">5</text><text style="&st18;" transform="matrix(&st16;  1217.61  587.88 )">4</text><text style="&st18;" transform="matrix(&st16;  1214.51  559.0 )">13</text><g ewd:figtype="title"><text style="&st18;" transform="matrix(&st17;  1240.19  582.59 )">L39</text><text style="&st18;" transform="matrix(&st17;  1247.01  582.59 )" ewd:textID="26">No. 31 <tspan x="0 " dy="6.0">Junction Connector</tspan></text></g></g><g ewd:figtype="conn" ewd:figID="3" ewd:code="L32,L34"><path style="stroke-width: 0.85 ;&st7; stroke-dasharray:3, 1.5;" d=" M  1228.04,   244.28  L  1215.30,   244.28  " /><path style="stroke-width: 0.85 ;&st7; stroke-dasharray:3, 1.5;" d=" M  1215.30,   253.34  L  1228.04,   253.34  " /><path style="stroke-width:0.85 ;&st7;  " d=" M  1206.80,   222.75  L  1206.80,   239.75  " /><path style="stroke-width:1.42 ;&st7;  " d=" M  1198.30,   239.75  L  1249.29,   239.75  L  1249.29,   222.75  L  1198.30,   222.75  L  1198.30,   239.75  " /><path style="stroke-width:0.85 ;&st7;  " d=" M  1206.80,   231.25  L  1240.79,   231.25  L  1240.79,   239.75  " /><path style="stroke-width:0.85 ;&st7;  " d=" M  1205.61,   230.24  L  1205.33,   230.71  L  1205.24,   231.25  L  1205.33,   231.78  L  1205.61,   232.25  L  1206.02,   232.60  L  1206.53,   232.78  L  1207.07,   232.78  L  1207.58,   232.60  L  1207.99,   232.25  L  1208.26,   231.78  L  1208.36,   231.25  L  1208.26,   230.71  L  1207.99,   230.24  L  1207.58,   229.90  L  1207.07,   229.71  L  1206.53,   229.71  L  1206.02,   229.90  L  1205.61,   230.24  L  1206.00,   230.96  L  1206.00,   231.54  L  1206.37,   231.98  L  1206.95,   232.08  L  1207.45,   231.79  L  1207.65,   231.25  L  1207.45,   230.70  L  1206.95,   230.41  L  1206.37,   230.51  L  1206.80,   231.25  " /><text style="&st18;" transform="matrix(&st16;  1198.1  246.25 )">6</text><text style="&st18;" transform="matrix(&st16;  1198.1  255.31 )">3</text><text style="&st18;" transform="matrix(&st16;  1204.49  246.25 )">A</text><path style="stroke-width:1.42 ;&st7;   " d=" M  1211.33,   253.34  C  1211.33    250.84   1209.30    248.81   1206.80    248.81  " /><path style="stroke-width:1.42 ;&st7;   " d=" M  1206.80,   248.81  C  1204.30    248.81   1202.27    250.84   1202.27    253.34  " /><path style="stroke-width:1.42 ;&st7;   " d=" M  1202.27,   253.34  C  1202.27    255.85   1204.30    257.88   1206.80    257.88  " /><path style="stroke-width:1.42 ;&st7;   " d=" M  1206.80,   257.88  C  1209.30    257.88   1211.33    255.85   1211.33    253.34  " /><path style="stroke-width:1.42 ;&st7;   " d=" M  1211.33,   244.28  C  1211.33    241.77   1209.30    239.75   1206.80    239.75  " /><path style="stroke-width:1.42 ;&st7;   " d=" M  1206.80,   239.75  C  1204.30    239.75   1202.27    241.77   1202.27    244.28  " /><path style="stroke-width:1.42 ;&st7;   " d=" M  1202.27,   244.28  C  1202.27    246.78   1204.30    248.81   1206.80    248.81  " /><path style="stroke-width:1.42 ;&st7;   " d=" M  1206.80,   248.81  C  1209.30    248.81   1211.33    246.78   1211.33    244.28  " /><text style="&st18;" transform="matrix(&st16;  1204.61  255.31 )">B</text><text style="&st18;" transform="matrix(&st16;  1198.1  211.12 )">4</text><text style="&st18;" transform="matrix(&st16;  1198.1  220.18 )">1</text><text style="&st18;" transform="matrix(&st16;  1204.49  211.12 )">A</text><path style="stroke-width:1.42 ;&st7;   " d=" M  1211.33,   209.15  C  1211.33    206.65   1209.30    204.62   1206.80    204.62  " /><path style="stroke-width:1.42 ;&st7;   " d=" M  1206.80,   204.62  C  1204.30    204.62   1202.27    206.65   1202.27    209.15  " /><path style="stroke-width:1.42 ;&st7;   " d=" M  1202.27,   209.15  C  1202.27    211.65   1204.30    213.68   1206.80    213.68  " /><path style="stroke-width:1.42 ;&st7;   " d=" M  1206.80,   213.68  C  1209.30    213.68   1211.33    211.65   1211.33    209.15  " /><path style="stroke-width:1.42 ;&st7;   " d=" M  1211.33,   218.22  C  1211.33    215.71   1209.30    213.68   1206.80    213.68  " /><path style="stroke-width:1.42 ;&st7;   " d=" M  1206.80,   213.68  C  1204.30    213.68   1202.27    215.71   1202.27    218.22  " /><path style="stroke-width:1.42 ;&st7;   " d=" M  1202.27,   218.22  C  1202.27    220.72   1204.30    222.75   1206.80    222.75  " /><path style="stroke-width:1.42 ;&st7;   " d=" M  1206.80,   222.75  C  1209.30    222.75   1211.33    220.72   1211.33    218.22  " /><text style="&st18;" transform="matrix(&st16;  1204.61  220.18 )">B</text><text style="&st18;" transform="matrix(&st16;  1232.1  255.31 )">2</text><text style="&st18;" transform="matrix(&st16;  1232.1  246.25 )">5</text><path style="stroke-width:1.42 ;&st7;   " d=" M  1245.33,   244.28  C  1245.33    241.77   1243.30    239.75   1240.79    239.75  " /><path style="stroke-width:1.42 ;&st7;   " d=" M  1240.79,   239.75  C  1238.29    239.75   1236.26    241.77   1236.26    244.28  " /><path style="stroke-width:1.42 ;&st7;   " d=" M  1236.26,   244.28  C  1236.26    246.78   1238.29    248.81   1240.79    248.81  " /><path style="stroke-width:1.42 ;&st7;   " d=" M  1240.79,   248.81  C  1243.30    248.81   1245.33    246.78   1245.33    244.28  " /><path style="stroke-width:1.42 ;&st7;   " d=" M  1245.33,   253.34  C  1245.33    250.84   1243.30    248.81   1240.79    248.81  " /><path style="stroke-width:1.42 ;&st7;   " d=" M  1240.79,   248.81  C  1238.29    248.81   1236.26    250.84   1236.26    253.34  " /><path style="stroke-width:1.42 ;&st7;   " d=" M  1236.26,   253.34  C  1236.26    255.85   1238.29    257.88   1240.79    257.88  " /><path style="stroke-width:1.42 ;&st7;   " d=" M  1240.79,   257.88  C  1243.30    257.88   1245.33    255.85   1245.33    253.34  " /><text style="&st18;" transform="matrix(&st16;  1238.49  246.25 )">A</text><text style="&st18;" transform="matrix(&st16;  1238.6  255.31 )">B</text><g ewd:figtype="title"><text style="&st18;" transform="matrix(&st17;  1278.17  238.4 )" ewd:textID="23">No. 24 Junction Connector</text><text style="&st18;" transform="matrix(&st17;  1271.35  238.4 )">L32(B)</text><text style="&st18;" transform="matrix(&st17;  1264.01  238.4 )" ewd:textID="25">No. 26 Junction Connector</text><text style="&st18;" transform="matrix(&st17;  1257.19  238.4 )">L34(A)</text></g><g ewd:code="" ewd:figID="76" ewd:comment="" ewd:figtype="commref"><text style="&st18;" transform="matrix(&st16;  1211.89  211.12 )">(LHD)</text></g><g ewd:code="" ewd:figID="77" ewd:comment="" ewd:figtype="commref"><text style="&st18;" transform="matrix(&st16;  1211.89  220.18 )">(RHD)</text></g><g ewd:code="" ewd:figID="78" ewd:comment="" ewd:figtype="commref"><text style="&st18;" transform="matrix(&st16;  1245.89  255.31 )">(RHD)</text></g><g ewd:code="" ewd:figID="79" ewd:comment="" ewd:figtype="commref"><text style="&st18;" transform="matrix(&st16;  1245.89  246.25 )">(LHD)</text></g></g><g ewd:figtype="conn" ewd:figID="15" ewd:code="L24"><path style="stroke-width: 0.85 ;&st7; stroke-dasharray:3, 1.5;" d=" M  1342.78,   328.70  L  1351.27,   328.70  " /><path style="stroke-width: 0.85 ;&st7; stroke-dasharray:3, 1.5;" d=" M  1342.78,   319.63  L  1351.27,   319.63  " /><path style="stroke-width: 0.85 ;&st7; stroke-dasharray:3, 1.5;" d=" M  1215.30,   328.70  L  1317.28,   328.70  " /><path style="stroke-width: 0.85 ;&st7; stroke-dasharray:3, 1.5;" d=" M  1215.30,   319.63  L  1317.28,   319.63  " /><path style="stroke-width:0.85 ;&st7;   " d=" M  1208.21,   409.72  C  1208.21    408.93   1207.58    408.30   1206.80    408.30  " /><path style="stroke-width:0.85 ;&st7;   " d=" M  1206.80,   408.30  C  1206.02    408.30   1205.38    408.93   1205.38    409.72  " /><path style="stroke-width:0.85 ;&st7;   " d=" M  1205.38,   409.72  C  1205.38    410.50   1206.02    411.13   1206.80    411.13  " /><path style="stroke-width:0.85 ;&st7;   " d=" M  1206.80,   411.13  C  1207.58    411.13   1208.21    410.50   1208.21    409.72  " /><path style="stroke-width:0.85 ;&st7;   " d=" M  1225.21,   409.72  C  1225.21    408.93   1224.58    408.30   1223.80    408.30  " /><path style="stroke-width:0.85 ;&st7;   " d=" M  1223.80,   408.30  C  1223.01    408.30   1222.38    408.93   1222.38    409.72  " /><path style="stroke-width:0.85 ;&st7;   " d=" M  1222.38,   409.72  C  1222.38    410.50   1223.01    411.13   1223.80    411.13  " /><path style="stroke-width:0.85 ;&st7;   " d=" M  1223.80,   411.13  C  1224.58    411.13   1225.21    410.50   1225.21    409.72  " /><path style="stroke-width:0.85 ;&st7;   " d=" M  1352.69,   392.72  C  1352.69    391.94   1352.06    391.30   1351.27    391.30  " /><path style="stroke-width:0.85 ;&st7;   " d=" M  1351.27,   391.30  C  1350.49    391.30   1349.86    391.94   1349.86    392.72  " /><path style="stroke-width:0.85 ;&st7;   " d=" M  1349.86,   392.72  C  1349.86    393.50   1350.49    394.14   1351.27    394.14  " /><path style="stroke-width:0.85 ;&st7;   " d=" M  1351.27,   394.14  C  1352.06    394.14   1352.69    393.50   1352.69    392.72  " /><path style="stroke-width:0.85 ;&st7;   " d=" M  1395.18,   375.72  C  1395.18    374.94   1394.55    374.31   1393.77    374.31  " /><path style="stroke-width:0.85 ;&st7;   " d=" M  1393.77,   374.31  C  1392.98    374.31   1392.35    374.94   1392.35    375.72  " /><path style="stroke-width:0.85 ;&st7;   " d=" M  1392.35,   375.72  C  1392.35    376.50   1392.98    377.14   1393.77    377.14  " /><path style="stroke-width:0.85 ;&st7;   " d=" M  1393.77,   377.14  C  1394.55    377.14   1395.18    376.50   1395.18    375.72  " /><path style="stroke-width:0.85 ;&st7;   " d=" M  1369.69,   409.72  C  1369.69    408.93   1369.05    408.30   1368.27    408.30  " /><path style="stroke-width:0.85 ;&st7;   " d=" M  1368.27,   408.30  C  1367.49    408.30   1366.85    408.93   1366.85    409.72  " /><path style="stroke-width:0.85 ;&st7;   " d=" M  1366.85,   409.72  C  1366.85    410.50   1367.49    411.13   1368.27    411.13  " /><path style="stroke-width:0.85 ;&st7;   " d=" M  1368.27,   411.13  C  1369.05    411.13   1369.69    410.50   1369.69    409.72  " /><path style="stroke-width:0.85 ;&st7;   " d=" M  1395.18,   409.72  C  1395.18    408.93   1394.55    408.30   1393.77    408.30  " /><path style="stroke-width:0.85 ;&st7;   " d=" M  1393.77,   408.30  C  1392.98    408.30   1392.35    408.93   1392.35    409.72  " /><path style="stroke-width:0.85 ;&st7;   " d=" M  1392.35,   409.72  C  1392.35    410.50   1392.98    411.13   1393.77    411.13  " /><path style="stroke-width:0.85 ;&st7;   " d=" M  1393.77,   411.13  C  1394.55    411.13   1395.18    410.50   1395.18    409.72  " /><path style="stroke-width:0.85 ;&st7;   " d=" M  1395.18,   392.72  C  1395.18    391.94   1394.55    391.30   1393.77    391.30  " /><path style="stroke-width:0.85 ;&st7;   " d=" M  1393.77,   391.30  C  1392.98    391.30   1392.35    391.94   1392.35    392.72  " /><path style="stroke-width:0.85 ;&st7;   " d=" M  1392.35,   392.72  C  1392.35    393.50   1392.98    394.14   1393.77    394.14  " /><path style="stroke-width:0.85 ;&st7;   " d=" M  1393.77,   394.14  C  1394.55    394.14   1395.18    393.50   1395.18    392.72  " /><path style="stroke-width:0.85 ;&st7;   " d=" M  1369.69,   375.72  C  1369.69    374.94   1369.05    374.31   1368.27    374.31  " /><path style="stroke-width:0.85 ;&st7;   " d=" M  1368.27,   374.31  C  1367.49    374.31   1366.85    374.94   1366.85    375.72  " /><path style="stroke-width:0.85 ;&st7;   " d=" M  1366.85,   375.72  C  1366.85    376.50   1367.49    377.14   1368.27    377.14  " /><path style="stroke-width:0.85 ;&st7;   " d=" M  1368.27,   377.14  C  1369.05    377.14   1369.69    376.50   1369.69    375.72  " /><path style="stroke-width:0.85 ;&st7;   " d=" M  1335.69,   375.72  C  1335.69    374.94   1335.06    374.31   1334.28    374.31  " /><path style="stroke-width:0.85 ;&st7;   " d=" M  1334.28,   374.31  C  1333.49    374.31   1332.86    374.94   1332.86    375.72  " /><path style="stroke-width:0.85 ;&st7;   " d=" M  1332.86,   375.72  C  1332.86    376.50   1333.49    377.14   1334.28    377.14  " /><path style="stroke-width:0.85 ;&st7;   " d=" M  1334.28,   377.14  C  1335.06    377.14   1335.69    376.50   1335.69    375.72  " /><path style="stroke-width:0.85 ;&st7;  " d=" M  1222.60,   434.21  L  1222.33,   434.68  L  1222.24,   435.21  L  1222.33,   435.75  L  1222.60,   436.22  L  1223.02,   436.56  L  1223.52,   436.75  L  1224.07,   436.75  L  1224.57,   436.56  L  1224.99,   436.22  L  1225.26,   435.75  L  1225.35,   435.21  L  1225.26,   434.68  L  1224.99,   434.21  L  1224.57,   433.86  L  1224.07,   433.68  L  1223.52,   433.68  L  1223.02,   433.86  L  1222.60,   434.21  L  1223.00,   434.92  L  1223.00,   435.50  L  1223.37,   435.95  L  1223.94,   436.05  L  1224.45,   435.76  L  1224.64,   435.21  L  1224.45,   434.67  L  1223.94,   434.38  L  1223.37,   434.48  L  1223.80,   435.21  " /><path style="stroke-width:0.85 ;&st7;  " d=" M  1223.80,   418.22  L  1223.80,   452.21  " /><path style="stroke-width:0.85 ;&st7;  " d=" M  1393.77,   418.22  L  1393.77,   435.21  L  1223.80,   435.21  " /><path style="stroke-width:0.85 ;&st7;  " d=" M  1368.27,   350.23  L  1368.27,   333.23  " /><path style="stroke-width:0.85 ;&st7;  " d=" M  1334.28,   350.23  L  1334.28,   333.23  " /><path style="stroke-width:0.85 ;&st7;  " d=" M  1206.80,   350.23  L  1206.80,   333.23  " /><path style="stroke-width:1.42 ;&st7;  " d=" M  1104.81,   452.21  L  1427.76,   452.21  L  1427.76,   333.23  L  1104.81,   333.23  L  1104.81,   452.21  " /><path style="stroke-width:0.85 ;&st7;  " d=" M  1181.30,   350.23  L  1181.30,   418.22  " /><path style="stroke-width:0.85 ;&st7;  " d=" M  1376.77,   350.23  L  1376.77,   418.22  " /><path style="stroke-width:1.42 ;&st7;  " d=" M  1266.29,   350.23  L  1266.29,   418.22  L  1410.76,   418.22  L  1410.76,   350.23  L  1266.29,   350.23  " /><path style="stroke-width:0.85 ;&st7;  " d=" M  1291.78,   367.22  L  1410.76,   367.22  " /><path style="stroke-width:0.85 ;&st7;  " d=" M  1291.78,   384.22  L  1410.76,   384.22  " /><path style="stroke-width:0.85 ;&st7;  " d=" M  1291.78,   401.22  L  1410.76,   401.22  " /><path style="stroke-width:0.85 ;&st7;  " d=" M  1342.78,   350.23  L  1342.78,   418.22  " /><path style="stroke-width:0.85 ;&st7;  " d=" M  1325.78,   350.23  L  1325.78,   418.22  " /><path style="stroke-width:0.85 ;&st7;  " d=" M  1291.78,   350.23  L  1291.78,   418.22  " /><path style="stroke-width:0.85 ;&st7;  " d=" M  1359.77,   350.23  L  1359.77,   418.22  " /><text style="&st18;" transform="matrix(&st16;  1187.61  360.69 )">T</text><path style="stroke-width:0.85 ;&st7;  " d=" M  1147.31,   350.23  L  1147.31,   418.22  " /><path style="stroke-width:0.85 ;&st7;  " d=" M  1198.30,   350.23  L  1198.30,   418.22  " /><path style="stroke-width:0.85 ;&st7;  " d=" M  1215.30,   350.23  L  1215.30,   418.22  " /><path style="stroke-width:0.85 ;&st7;  " d=" M  1147.31,   401.22  L  1232.29,   401.22  " /><path style="stroke-width:0.85 ;&st7;  " d=" M  1147.31,   384.22  L  1232.29,   384.22  " /><path style="stroke-width:0.85 ;&st7;  " d=" M  1147.31,   367.22  L  1232.29,   367.22  " /><path style="stroke-width:1.42 ;&st7;  " d=" M  1121.81,   350.23  L  1121.81,   418.22  L  1232.29,   418.22  L  1232.29,   350.23  L  1121.81,   350.23  " /><path style="stroke-width:0.85 ;&st7;  " d=" M  1208.21,   409.72  L  1222.38,   409.72  " /><path style="stroke-width:0.85 ;&st7;  " d=" M  1369.69,   375.72  L  1392.35,   375.72  " /><path style="stroke-width:0.85 ;&st7;  " d=" M  1335.69,   375.72  L  1366.85,   375.72  " /><path style="stroke-width:0.85 ;&st7;  " d=" M  1369.69,   409.72  L  1392.35,   409.72  " /><path style="stroke-width:0.85 ;&st7;  " d=" M  1352.69,   392.72  L  1392.35,   392.72  " /><text style="&st18;" transform="matrix(&st16;  1209.38  341.42 )">H</text><text style="&st18;" transform="matrix(&st16;  1363.64  360.69 )">HU</text><text style="&st18;" transform="matrix(&st16;  1379.91  357.87 )">(EL)(LHD) <tspan x="0 " dy="6.0">ED(RHD)</tspan></text><text style="&st18;" transform="matrix(&st16;  1302.52  411.69 )" ewd:textID="15">High</text><text style="&st18;" transform="matrix(&st16;  1303.3  394.69 )" ewd:textID="18">Low</text><text style="&st18;" transform="matrix(&st16;  1301.71  377.69 )" ewd:textID="9">Flash</text><text style="&st18;" transform="matrix(&st16;  1329.92  360.69 )">HF</text><text style="&st18;" transform="matrix(&st16;  1346.95  360.69 )">HL</text><text style="&st18;" transform="matrix(&st16;  1157.39  411.69 )" ewd:textID="11">Head</text><text style="&st18;" transform="matrix(&st16;  1159.25  394.69 )" ewd:textID="27">Tail</text><text style="&st18;" transform="matrix(&st16;  1157.97  377.69 )">OFF</text><text style="&st18;" transform="matrix(&st16;  1204.3  360.69 )">H</text><text style="&st18;" transform="matrix(&st16;  1219.86  360.69 )">EL</text><text style="&st18;" transform="matrix(&st17;  1133.71  402.89 )" ewd:textID="17">Light <tspan x="0 " dy="6.0">Control Switch</tspan></text><text style="&st18;" transform="matrix(&st17;  1281.01  402.93 )" ewd:textID="8">Dimmer Switch</text><text style="&st18;" transform="matrix(&st16;  1226.38  448.52 )">EL</text><text style="&st18;" transform="matrix(&st16;  1370.85  341.42 )">HU</text><text style="&st18;" transform="matrix(&st16;  1336.86  341.42 )">HF</text><path style="stroke-width:0.85 ;&st7;  " d=" M  1191.22,   392.72  L  1222.38,   392.72  " /><path style="stroke-width:0.85 ;&st7;   " d=" M  1225.21,   392.72  C  1225.21    391.94   1224.58    391.30   1223.80    391.30  " /><path style="stroke-width:0.85 ;&st7;   " d=" M  1223.80,   391.30  C  1223.01    391.30   1222.38    391.94   1222.38    392.72  " /><path style="stroke-width:0.85 ;&st7;   " d=" M  1222.38,   392.72  C  1222.38    393.50   1223.01    394.14   1223.80    394.14  " /><path style="stroke-width:0.85 ;&st7;   " d=" M  1223.80,   394.14  C  1224.58    394.14   1225.21    393.50   1225.21    392.72  " /><path style="stroke-width:0.85 ;&st7;   " d=" M  1191.22,   392.72  C  1191.22    391.94   1190.58    391.30   1189.80    391.30  " /><path style="stroke-width:0.85 ;&st7;   " d=" M  1189.80,   391.30  C  1189.02    391.30   1188.38    391.94   1188.38    392.72  " /><path style="stroke-width:0.85 ;&st7;   " d=" M  1188.38,   392.72  C  1188.38    393.50   1189.02    394.14   1189.80    394.14  " /><path style="stroke-width:0.85 ;&st7;   " d=" M  1189.80,   394.14  C  1190.58    394.14   1191.22    393.50   1191.22    392.72  " /><path style="stroke-width:0.85 ;&st7;   " d=" M  1191.22,   409.72  C  1191.22    408.93   1190.58    408.30   1189.80    408.30  " /><path style="stroke-width:0.85 ;&st7;   " d=" M  1189.80,   408.30  C  1189.02    408.30   1188.38    408.93   1188.38    409.72  " /><path style="stroke-width:0.85 ;&st7;   " d=" M  1188.38,   409.72  C  1188.38    410.50   1189.02    411.13   1189.80    411.13  " /><path style="stroke-width:0.85 ;&st7;   " d=" M  1189.80,   411.13  C  1190.58    411.13   1191.22    410.50   1191.22    409.72  " /><path style="stroke-width:0.85 ;&st7;  " d=" M  1191.22,   409.72  L  1205.38,   409.72  " /><text style="&st18;" transform="matrix(&st16;  1195.0  321.6 )">20</text><text style="&st18;" transform="matrix(&st16;  1195.0  330.67 )">11</text><path style="stroke-width:1.42 ;&st7;   " d=" M  1211.33,   328.70  C  1211.33    326.19   1209.30    324.16   1206.80    324.16  " /><path style="stroke-width:1.42 ;&st7;   " d=" M  1206.80,   324.16  C  1204.30    324.16   1202.27    326.19   1202.27    328.70  " /><path style="stroke-width:1.42 ;&st7;   " d=" M  1202.27,   328.70  C  1202.27    331.20   1204.30    333.23   1206.80    333.23  " /><path style="stroke-width:1.42 ;&st7;   " d=" M  1206.80,   333.23  C  1209.30    333.23   1211.33    331.20   1211.33    328.70  " /><path style="stroke-width:1.42 ;&st7;   " d=" M  1211.33,   319.63  C  1211.33    317.13   1209.30    315.10   1206.80    315.10  " /><path style="stroke-width:1.42 ;&st7;   " d=" M  1206.80,   315.10  C  1204.30    315.10   1202.27    317.13   1202.27    319.63  " /><path style="stroke-width:1.42 ;&st7;   " d=" M  1202.27,   319.63  C  1202.27    322.14   1204.30    324.16   1206.80    324.16  " /><path style="stroke-width:1.42 ;&st7;   " d=" M  1206.80,   324.16  C  1209.30    324.16   1211.33    322.14   1211.33    319.63  " /><text style="&st18;" transform="matrix(&st16;  1204.42  330.67 )">D</text><text style="&st18;" transform="matrix(&st16;  1204.38  321.6 )">C</text><text style="&st18;" transform="matrix(&st16;  1212.0  458.71 )">12</text><text style="&st18;" transform="matrix(&st16;  1212.0  467.78 )">19</text><path style="stroke-width:1.42 ;&st7;   " d=" M  1228.33,   456.74  C  1228.33    454.24   1226.30    452.21   1223.80    452.21  " /><path style="stroke-width:1.42 ;&st7;   " d=" M  1223.80,   452.21  C  1221.29    452.21   1219.26    454.24   1219.26    456.74  " /><path style="stroke-width:1.42 ;&st7;   " d=" M  1219.26,   456.74  C  1219.26    459.25   1221.29    461.27   1223.80    461.27  " /><path style="stroke-width:1.42 ;&st7;   " d=" M  1223.80,   461.27  C  1226.30    461.27   1228.33    459.25   1228.33    456.74  " /><text style="&st18;" transform="matrix(&st16;  1221.41  467.78 )">D</text><path style="stroke-width:1.42 ;&st7;   " d=" M  1228.33,   465.81  C  1228.33    463.30   1226.30    461.27   1223.80    461.27  " /><path style="stroke-width:1.42 ;&st7;   " d=" M  1223.80,   461.27  C  1221.29    461.27   1219.26    463.30   1219.26    465.81  " /><path style="stroke-width:1.42 ;&st7;   " d=" M  1219.26,   465.81  C  1219.26    468.31   1221.29    470.34   1223.80    470.34  " /><path style="stroke-width:1.42 ;&st7;   " d=" M  1223.80,   470.34  C  1226.30    470.34   1228.33    468.31   1228.33    465.81  " /><text style="&st18;" transform="matrix(&st16;  1221.37  458.71 )">C</text><text style="&st18;" transform="matrix(&st16;  1322.48  330.67 )">14</text><text style="&st18;" transform="matrix(&st16;  1322.48  321.6 )">17</text><text style="&st18;" transform="matrix(&st16;  1331.9  330.67 )">D</text><path style="stroke-width:1.42 ;&st7;   " d=" M  1338.81,   319.63  C  1338.81    317.13   1336.78    315.10   1334.28    315.10  " /><path style="stroke-width:1.42 ;&st7;   " d=" M  1334.28,   315.10  C  1331.77    315.10   1329.74    317.13   1329.74    319.63  " /><path style="stroke-width:1.42 ;&st7;   " d=" M  1329.74,   319.63  C  1329.74    322.14   1331.77    324.16   1334.28    324.16  " /><path style="stroke-width:1.42 ;&st7;   " d=" M  1334.28,   324.16  C  1336.78    324.16   1338.81    322.14   1338.81    319.63  " /><path style="stroke-width:1.42 ;&st7;   " d=" M  1338.81,   328.70  C  1338.81    326.19   1336.78    324.16   1334.28    324.16  " /><path style="stroke-width:1.42 ;&st7;   " d=" M  1334.28,   324.16  C  1331.77    324.16   1329.74    326.19   1329.74    328.70  " /><path style="stroke-width:1.42 ;&st7;   " d=" M  1329.74,   328.70  C  1329.74    331.20   1331.77    333.23   1334.28    333.23  " /><path style="stroke-width:1.42 ;&st7;   " d=" M  1334.28,   333.23  C  1336.78    333.23   1338.81    331.20   1338.81    328.70  " /><text style="&st18;" transform="matrix(&st16;  1331.86  321.6 )">C</text><text style="&st18;" transform="matrix(&st16;  1356.48  330.67 )">20</text><text style="&st18;" transform="matrix(&st16;  1356.48  321.6 )">11</text><text style="&st18;" transform="matrix(&st16;  1365.89  330.67 )">D</text><text style="&st18;" transform="matrix(&st16;  1365.85  321.6 )">C</text><path style="stroke-width:1.42 ;&st7;   " d=" M  1372.80,   328.70  C  1372.80    326.19   1370.77    324.16   1368.27    324.16  " /><path style="stroke-width:1.42 ;&st7;   " d=" M  1368.27,   324.16  C  1365.77    324.16   1363.74    326.19   1363.74    328.70  " /><path style="stroke-width:1.42 ;&st7;   " d=" M  1363.74,   328.70  C  1363.74    331.20   1365.77    333.23   1368.27    333.23  " /><path style="stroke-width:1.42 ;&st7;   " d=" M  1368.27,   333.23  C  1370.77    333.23   1372.80    331.20   1372.80    328.70  " /><path style="stroke-width:1.42 ;&st7;   " d=" M  1372.80,   319.63  C  1372.80    317.13   1370.77    315.10   1368.27    315.10  " /><path style="stroke-width:1.42 ;&st7;   " d=" M  1368.27,   315.10  C  1365.77    315.10   1363.74    317.13   1363.74    319.63  " /><path style="stroke-width:1.42 ;&st7;   " d=" M  1363.74,   319.63  C  1363.74    322.14   1365.77    324.16   1368.27    324.16  " /><path style="stroke-width:1.42 ;&st7;   " d=" M  1368.27,   324.16  C  1370.77    324.16   1372.80    322.14   1372.80    319.63  " /><g ewd:figtype="title"><text style="&st18;" transform="matrix(&st17;  1435.66  446.61 )">L24(C),(D)</text><text style="&st18;" transform="matrix(&st17;  1442.48  446.62 )" ewd:textID="14">Headlight Dimmer Switch Assembly</text></g><g ewd:code="" ewd:figID="80" ewd:comment="" ewd:figtype="commref"><text style="&st18;" transform="matrix(&st16;  1228.89  458.71 )">(LHD)</text></g><g ewd:code="" ewd:figID="81" ewd:comment="" ewd:figtype="commref"><text style="&st18;" transform="matrix(&st16;  1228.89  467.78 )">(RHD)</text></g><g ewd:code="" ewd:figID="82" ewd:comment="" ewd:figtype="commref"><text style="&st18;" transform="matrix(&st16;  1373.36  321.6 )">(LHD)</text></g><g ewd:code="" ewd:figID="83" ewd:comment="" ewd:figtype="commref"><text style="&st18;" transform="matrix(&st16;  1373.36  330.67 )">(RHD)</text></g></g><g ewd:figtype="w2w" ewd:figID="25" ewd:code="IL2"><path style="stroke-width:1.42 ;&st7;  " d=" M  1211.05,   160.43  L  1206.80,   156.18  L  1202.55,   160.43  " /><path style="stroke-width:1.42 ;&st7;  " d=" M  1211.05,   163.82  L  1206.80,   159.58  L  1202.55,   163.82  " /><text style="&st18;" transform="matrix(&st16;  1194.17  152.48 )">7</text></g><g ewd:figtype="w2w" ewd:figID="26" ewd:code="IL2"><path style="stroke-width:1.42 ;&st7;  " d=" M  1372.52,   160.43  L  1368.27,   156.18  L  1364.02,   160.43  " /><path style="stroke-width:1.42 ;&st7;  " d=" M  1372.52,   163.82  L  1368.27,   159.58  L  1364.02,   163.82  " /><text style="&st18;" transform="matrix(&st16;  1355.64  152.48 )">8</text></g><g ewd:figtype="gp" ewd:figID="39" ewd:code="LB"><path style="stroke-width: 0.85 ;&st7;  " d=" M  1179.89,   710.00  L  1182.72,   710.00  " /><path style="stroke-width: 0.85 ;&st7;  " d=" M  1178.47,   707.17  L  1184.13,   707.17  " /><path style="stroke-width: 0.85 ;&st7;  " d=" M  1177.05,   704.33  L  1185.55,   704.33  " /><path style="stroke-width: 0.85 ;&st7;  " d=" M  1172.80,   701.50  L  1189.80,   701.50  " /><path style="stroke-width: 0.85 ;&st7;  " d=" M  1181.30,   697.25  L  1181.30,   701.50  " /></g><g ewd:figtype="gp" ewd:figID="40" ewd:code="LA"><path style="stroke-width: 0.85 ;&st7;  " d=" M  1222.38,   710.00  L  1225.21,   710.00  " /><path style="stroke-width: 0.85 ;&st7;  " d=" M  1220.96,   707.17  L  1226.63,   707.17  " /><path style="stroke-width: 0.85 ;&st7;  " d=" M  1219.55,   704.33  L  1228.04,   704.33  " /><path style="stroke-width: 0.85 ;&st7;  " d=" M  1215.30,   701.50  L  1232.29,   701.50  " /><path style="stroke-width: 0.85 ;&st7;  " d=" M  1223.80,   697.25  L  1223.80,   701.50  " /></g></svg>