<?xml version="1.0" encoding="utf-8"?>
<!DOCTYPE svg PUBLIC "-//W3C//DTD SVG 1.0//EN" "http://www.w3.org/TR/2001/REC-SVG-20010904/DTD/svg10.dtd"[
	<!ENTITY ns_flows "http://ns.adobe.com/Flows/1.0/">
	<!ENTITY ns_svg "http://www.w3.org/2000/svg">
	<!ENTITY ns_xlink "http://www.w3.org/1999/xlink">
	<!ENTITY st0 "font-size:7px;font-family:'MS-PGothic';adobe-font-script:japanese;">
	<!ENTITY st1 "font-size:6px;font-family:'ArialMT';">
	<!-- White fill  -->
	<!ENTITY st2 "fill:#FFFFFF;stroke:#000000; stroke-width:1.41;stroke-linecap:round;stroke-linejoin:round;">
	<!-- Yellow fill  -->
	<!ENTITY st3 "fill:#FFFFCC;stroke:#FFFFCC; stroke-width:0.1;stroke-linecap:round;stroke-linejoin:round;">
	<!-- Gray fill  -->
	<!ENTITY st4 "fill:#CCCCCC;stroke:#CCCCCC; stroke-width:0.1;stroke-linecap:round;stroke-linejoin:round;">
	<!-- Light-blue fill -->
	<!ENTITY st5 "fill:#CCECF4;stroke:#000000; stroke-width:1.133;stroke-linecap:round;stroke-linejoin:round;">
	<!ENTITY st6 "fill:none;stroke-linecap:butt; stroke-linejoin:round;">
	<!ENTITY st7 "fill:none;stroke:#000000;stroke-linecap:round;stroke-linejoin:round;">
	<!ENTITY st8 "enable-background:new    ;">
	<!-- Black fill -->
	<!ENTITY st9 "fill:#000000;stroke:#000000; stroke-linecap:round;stroke-linejoin:round;">
	<!-- SRS note   -->
	<!ENTITY st10 "font-size:9px;font-family:'ArialMT';">
	<!ENTITY st11 "font-size:9px;font-family:'Svg Symbol';">
	<!ENTITY st12 "font-size:6px;font-family:'Svg Symbol';">
	<!ENTITY st13 "fill:none;stroke:#ff0000;stroke-linecap:round;stroke-linejoin:round;">
	<!-- Yellow fill  -->
	<!ENTITY st14 "fill:#FFFF00;stroke:#FFFF00; stroke-width:0.1;stroke-linecap:round;stroke-linejoin:round;">
	<!ENTITY st15 "font-size:6px;font-family:'MS-PGothic';adobe-font-script:japanese;">
	<!ENTITY st16 "1.00 0.00 0.00 1.00">
	<!ENTITY st17 "0.00 -1.00 1.00 0.00">
	<!ENTITY st18 "font-size:6px;font-family:'Arial';">
	<!ENTITY st19 "font-size:9px;font-family:'Arial';">
	<!ENTITY st20 "font-size:6px;font-family:'MS-PGothic','MS PGothic';adobe-font-script:japanese;">
	<!ENTITY st21 "font-size:7px;font-family:'MS-PGothic','MS PGothic';adobe-font-script:japanese;">
	<!ATTLIST svg
		xmlns:ewd CDATA #FIXED "http://shcl.co.jp/ewd"
		xmlns:a CDATA #FIXED "http://ns.adobe.com/AdobeSVGViewerExtensions/3.0/"
		ewd:ver CDATA #IMPLIED
	>
	<!ATTLIST a
		ewd:lineID CDATA #IMPLIED
		ewd:groupID CDATA #IMPLIED
		ewd:figtype CDATA #IMPLIED
		ewd:code CDATA #IMPLIED
		ewd:figID CDATA #IMPLIED
		ewd:pinNo CDATA #IMPLIED
		ewd:comment CDATA #IMPLIED >
	<!ATTLIST g
		ewd:lineID CDATA #IMPLIED
		ewd:groupID CDATA #IMPLIED
		ewd:figtype CDATA #IMPLIED
		ewd:code CDATA #IMPLIED
		ewd:figID CDATA #IMPLIED
		ewd:pinNo CDATA #IMPLIED
		ewd:comment CDATA #IMPLIED >
	<!ATTLIST text
		ewd:textID CDATA #IMPLIED >
	<!ATTLIST title
		ewd:textID CDATA #IMPLIED >
]>
<!-- Generator: Shintec Hozumi YS   -->
<svg onload="call_execInitLoadProc_svg('system')" style="overflow:visible;  enable-background:new 0 0 1932.571 710.000" viewBox="0 0 1932.571 710.000" height="710.000" width="1932.571" xml:space="preserve" ewd:ver="2.1.2.9" xmlns="&ns_svg;" xmlns:a="http://ns.adobe.com/AdobeSVGViewerExtensions/3.0/" xmlns:ewd="http://shcl.co.jp/ewd" xmlns:xlink="&ns_xlink;">
<path style="stroke-width:1.42 ;&st7;  " d=" M   861.88,   469.21  L   866.86,   464.24  " /><path style="stroke-width:1.42 ;&st7;  " d=" M   849.86,   464.24  L   854.83,   469.21  " /><path style="stroke-width:1.42 ;&st7;  " d=" M   866.86,   457.18  L   861.88,   452.21  " /><text style="&st18;" transform="matrix(&st17;  854.66  186.12 )">R</text><text style="&st18;" transform="matrix(&st17;  905.65  513.31 )">R</text><text style="&st18;" transform="matrix(&st17;  880.16  516.68 )">L-R</text><text style="&st18;" transform="matrix(&st17;  812.17  516.68 )">L-R</text><text style="&st18;" transform="matrix(&st17;  786.67  516.68 )">L-R</text><text style="&st18;" transform="matrix(&st17;  752.68  516.76 )">B-L</text><text style="&st18;" transform="matrix(&st17;  812.17  649.25 )">L</text><text style="&st18;" transform="matrix(&st16;  928.47  643.98 )">R-W</text><text style="&st18;" transform="matrix(&st17;  727.18  458.09 )">W-R</text><text style="&st18;" transform="matrix(&st17;  854.66  513.31 )">R</text><text style="&st18;" transform="matrix(&st17;  854.66  249.86 )">R</text><path style="stroke-width:1.42 ;&st7;  " d=" M   866.86,   214.25  L   858.36,   214.25  " /><path style="stroke-width:1.42 ;&st7;  " d=" M   854.83,   452.21  L   849.86,   457.18  " /><path style="stroke-width:1.42 ;&st7;  " d=" M   824.36,   482.68  L   819.39,   477.71  " /><path style="stroke-width:1.42 ;&st7;  " d=" M   807.37,   489.73  L   812.33,   494.70  " /><path style="stroke-width:1.42 ;&st7;  " d=" M   819.39,   494.70  L   824.36,   489.73  " /><path style="stroke-width:1.42 ;&st7;  " d=" M   812.33,   477.71  L   807.37,   482.68  " /><text style="&st18;" transform="matrix(&st16;  537.57  125.57 )">L-W</text><text style="&st18;" transform="matrix(&st16;  529.47  270.04 )">L-W(RHD)</text><text style="&st18;" transform="matrix(&st16;  529.51  253.05 )">L-W(LHD)</text><text style="&st18;" transform="matrix(&st16;  538.31  219.05 )">R-B</text><text style="&st18;" transform="matrix(&st16;  537.57  202.05 )">L-W</text><text style="&st18;" transform="matrix(&st16;  538.31  185.06 )">R-Y</text><g ewd:figtype="rb" ewd:figID="1" ewd:code="FUSE13"><text style="&st18;" transform="matrix(&st16;  618.6  407.44 )">2</text><text style="&st18;" transform="matrix(&st16;  618.6  296.96 )">2</text><text style="&st18;" transform="matrix(&st17;  642.2  369.34 )">10A H/LP LO RH</text><text style="&st18;" transform="matrix(&st16;  614.21  375.42 )">1</text><text style="&st18;" transform="matrix(&st16;  614.21  321.04 )">2</text><text style="&st18;" transform="matrix(&st16;  567.6  296.96 )">2</text><text style="&st18;" transform="matrix(&st17;  591.21  369.3 )">10A H/LP LO LH</text><text style="&st18;" transform="matrix(&st16;  563.22  375.42 )">1</text><text style="&st18;" transform="matrix(&st16;  563.22  321.04 )">2</text><path style="stroke-width:0.85 ;&st7;  " d=" M   620.40,   401.22  L   620.40,   367.22  " /><path style="stroke-width:0.28 ;&st9;  " d=" M   620.40,   396.32  L   617.56,   393.49  L   617.56,   397.74  L   620.40,   400.57  L   623.23,   397.74  L   623.23,   393.49  L   620.40,   396.32  " /><path style="stroke-width:0.28 ;&st9;  " d=" M   620.40,   304.13  L   623.23,   306.96  L   623.23,   302.71  L   620.40,   299.88  L   617.56,   302.71  L   617.56,   306.96  L   620.40,   304.13  " /><path style="stroke-width:0.85 ;&st7;  " d=" M   620.40,   324.73  L   620.40,   299.24  " /><path style="stroke-width:0.85 ;&st7;  " d=" M   619.20,   383.22  L   618.93,   383.69  L   618.84,   384.22  L   618.93,   384.75  L   619.20,   385.22  L   619.62,   385.57  L   620.12,   385.76  L   620.67,   385.76  L   621.18,   385.57  L   621.59,   385.22  L   621.86,   384.75  L   621.95,   384.22  L   621.86,   383.69  L   621.59,   383.22  L   621.18,   382.87  L   620.67,   382.69  L   620.12,   382.69  L   619.62,   382.87  L   619.20,   383.22  L   619.60,   383.93  L   619.60,   384.51  L   619.97,   384.96  L   620.54,   385.06  L   621.05,   384.77  L   621.25,   384.22  L   621.05,   383.67  L   620.54,   383.39  L   619.97,   383.48  L   620.40,   384.22  " /><path style="stroke-width:0.85 ;&st7;  " d=" M   569.40,   367.22  L   569.40,   384.22  L   620.40,   384.22  " /><path style="stroke-width:0.28 ;&st9;  " d=" M   569.40,   304.13  L   572.24,   306.96  L   572.24,   302.71  L   569.40,   299.88  L   566.57,   302.71  L   566.57,   306.96  L   569.40,   304.13  " /><path style="stroke-width:0.85 ;&st7;  " d=" M   569.40,   324.73  L   569.40,   299.24  " /><path style="stroke-width:1.42 ;&st7;   " d=" M   622.52,   409.72  C   624.87    409.72    626.77    407.81    626.77    405.47  " /><path style="stroke-width:1.42 ;&st7;   " d=" M   626.77,   405.47  C   626.77    403.12    624.87    401.22    622.52    401.22  " /><path style="stroke-width:1.42 ;&st7;   " d=" M   618.27,   401.22  C   615.92    401.22    614.02    403.12    614.02    405.47  " /><path style="stroke-width:1.42 ;&st7;   " d=" M   614.02,   405.47  C   614.02    407.81    615.92    409.72    618.27    409.72  " /><path style="stroke-width:1.42 ;&st7;   " d=" M   626.77,   294.99  C   626.77    292.64    624.87    290.74    622.52    290.74  " /><path style="stroke-width:1.42 ;&st7;   " d=" M   622.52,   299.24  C   624.87    299.24    626.77    297.33    626.77    294.99  " /><path style="stroke-width:1.42 ;&st7;   " d=" M   614.02,   294.99  C   614.02    297.33    615.92    299.24    618.27    299.24  " /><path style="stroke-width:1.42 ;&st7;   " d=" M   618.27,   290.74  C   615.92    290.74    614.02    292.64    614.02    294.99  " /><path style="stroke-width:1.42 ;&st7;   " d=" M   575.78,   294.99  C   575.78    292.64    573.88    290.74    571.53    290.74  " /><path style="stroke-width:1.42 ;&st7;   " d=" M   571.53,   299.24  C   573.88    299.24    575.78    297.33    575.78    294.99  " /><path style="stroke-width:1.42 ;&st7;   " d=" M   563.03,   294.99  C   563.03    297.33    564.93    299.24    567.28    299.24  " /><path style="stroke-width:1.42 ;&st7;   " d=" M   567.28,   290.74  C   564.93    290.74    563.03    292.64    563.03    294.99  " /><path style="stroke-width:1.42 ;&st7;  " d=" M   622.52,   401.22  L   618.27,   401.22  " /><path style="stroke-width:1.42 ;&st7;  " d=" M   622.52,   409.72  L   618.27,   409.72  " /><path style="stroke-width:1.42 ;&st7;  " d=" M   622.52,   299.24  L   618.27,   299.24  " /><path style="stroke-width:1.42 ;&st7;  " d=" M   622.52,   290.74  L   618.27,   290.74  " /><path style="stroke-width:1.42 ;&st7;  " d=" M   571.53,   299.24  L   567.28,   299.24  " /><path style="stroke-width:1.42 ;&st7;  " d=" M   571.53,   290.74  L   567.28,   290.74  " /><path style="stroke-width:0.85 ;&st7;  " d=" M   620.40,   324.73  L   620.40,   333.23  " /><path style="stroke-width:1.42 ;&st7;  " d=" M   607.65,   324.73  L   607.65,   367.22  L   633.14,   367.22  L   633.14,   324.73  L   607.65,   324.73  " /><path style="stroke-width:1.42 ;&st7;   " d=" M   620.40,   336.06  C   617.66    337.68    616.75    341.20    618.36    343.94  " /><path style="stroke-width:1.42 ;&st7;   " d=" M   618.36,   343.94  C   618.88    344.82    619.51    345.46    620.40    345.98  " /><path style="stroke-width:1.42 ;&st7;   " d=" M   620.40,   355.89  C   623.13    354.28    624.05    350.75    622.43    348.01  " /><path style="stroke-width:1.42 ;&st7;   " d=" M   622.43,   348.01  C   621.91    347.13    621.28    346.50    620.40    345.98  " /><path style="stroke-width:0.85 ;&st7;   " d=" M   621.81,   334.65  C   621.81    333.86    621.18    333.23    620.40    333.23  " /><path style="stroke-width:0.85 ;&st7;   " d=" M   620.40,   333.23  C   619.61    333.23    618.98    333.86    618.98    334.65  " /><path style="stroke-width:0.85 ;&st7;   " d=" M   618.98,   334.65  C   618.98    335.43    619.61    336.06    620.40    336.06  " /><path style="stroke-width:0.85 ;&st7;   " d=" M   620.40,   336.06  C   621.18    336.06    621.81    335.43    621.81    334.65  " /><path style="stroke-width:0.85 ;&st7;   " d=" M   621.81,   357.31  C   621.81    356.53    621.18    355.89    620.40    355.89  " /><path style="stroke-width:0.85 ;&st7;   " d=" M   620.40,   355.89  C   619.61    355.89    618.98    356.53    618.98    357.31  " /><path style="stroke-width:0.85 ;&st7;   " d=" M   618.98,   357.31  C   618.98    358.09    619.61    358.73    620.40    358.73  " /><path style="stroke-width:0.85 ;&st7;   " d=" M   620.40,   358.73  C   621.18    358.73    621.81    358.09    621.81    357.31  " /><path style="stroke-width:0.85 ;&st7;  " d=" M   620.40,   358.73  L   620.40,   367.22  " /></g><g ewd:figtype="rb" ewd:figID="2" ewd:code="FUSE10"><path style="stroke-width:1.42 ;&st7;   " d=" M   733.00,   409.72  C   735.35    409.72    737.25    407.81    737.25    405.47  " /><text style="&st18;" transform="matrix(&st16;  729.08  407.44 )">2</text><text style="&st18;" transform="matrix(&st16;  729.08  296.96 )">2</text><text style="&st18;" transform="matrix(&st17;  752.68  368.29 )">10A H/LP HI RH</text><text style="&st18;" transform="matrix(&st16;  724.69  375.42 )">1</text><text style="&st18;" transform="matrix(&st16;  724.69  321.04 )">2</text><text style="&st18;" transform="matrix(&st16;  678.09  296.96 )">2</text><text style="&st18;" transform="matrix(&st17;  701.69  368.26 )">10A H/LP HI LH</text><text style="&st18;" transform="matrix(&st16;  673.7  375.42 )">1</text><text style="&st18;" transform="matrix(&st16;  673.7  321.04 )">2</text><path style="stroke-width:1.42 ;&st7;  " d=" M   733.00,   401.22  L   728.75,   401.22  " /><path style="stroke-width:0.85 ;&st7;  " d=" M   730.88,   401.22  L   730.88,   367.22  " /><path style="stroke-width:0.28 ;&st9;  " d=" M   730.88,   396.32  L   728.04,   393.49  L   728.04,   397.74  L   730.88,   400.57  L   733.71,   397.74  L   733.71,   393.49  L   730.88,   396.32  " /><path style="stroke-width:0.28 ;&st9;  " d=" M   730.88,   304.13  L   733.71,   306.96  L   733.71,   302.71  L   730.88,   299.88  L   728.04,   302.71  L   728.04,   306.96  L   730.88,   304.13  " /><path style="stroke-width:0.85 ;&st7;  " d=" M   730.88,   324.73  L   730.88,   299.24  " /><path style="stroke-width:0.85 ;&st7;  " d=" M   729.68,   383.22  L   729.41,   383.69  L   729.32,   384.22  L   729.41,   384.75  L   729.68,   385.22  L   730.10,   385.57  L   730.61,   385.76  L   731.15,   385.76  L   731.66,   385.57  L   732.07,   385.22  L   732.34,   384.75  L   732.44,   384.22  L   732.34,   383.69  L   732.07,   383.22  L   731.66,   382.87  L   731.15,   382.69  L   730.61,   382.69  L   730.10,   382.87  L   729.68,   383.22  L   730.08,   383.93  L   730.08,   384.51  L   730.45,   384.96  L   731.02,   385.06  L   731.53,   384.77  L   731.73,   384.22  L   731.53,   383.67  L   731.02,   383.39  L   730.45,   383.48  L   730.88,   384.22  " /><path style="stroke-width:0.85 ;&st7;  " d=" M   679.89,   367.22  L   679.89,   384.22  L   730.88,   384.22  " /><path style="stroke-width:0.28 ;&st9;  " d=" M   679.89,   304.13  L   682.72,   306.96  L   682.72,   302.71  L   679.89,   299.88  L   677.05,   302.71  L   677.05,   306.96  L   679.89,   304.13  " /><path style="stroke-width:0.85 ;&st7;  " d=" M   679.89,   324.73  L   679.89,   299.24  " /><path style="stroke-width:1.42 ;&st7;   " d=" M   737.25,   405.47  C   737.25    403.12    735.35    401.22    733.00    401.22  " /><path style="stroke-width:1.42 ;&st7;   " d=" M   728.75,   401.22  C   726.41    401.22    724.50    403.12    724.50    405.47  " /><path style="stroke-width:1.42 ;&st7;   " d=" M   724.50,   405.47  C   724.50    407.81    726.41    409.72    728.75    409.72  " /><path style="stroke-width:1.42 ;&st7;   " d=" M   737.25,   294.99  C   737.25    292.64    735.35    290.74    733.00    290.74  " /><path style="stroke-width:1.42 ;&st7;   " d=" M   733.00,   299.24  C   735.35    299.24    737.25    297.33    737.25    294.99  " /><path style="stroke-width:1.42 ;&st7;   " d=" M   724.50,   294.99  C   724.50    297.33    726.41    299.24    728.75    299.24  " /><path style="stroke-width:1.42 ;&st7;   " d=" M   728.75,   290.74  C   726.41    290.74    724.50    292.64    724.50    294.99  " /><path style="stroke-width:1.42 ;&st7;   " d=" M   686.26,   294.99  C   686.26    292.64    684.36    290.74    682.01    290.74  " /><path style="stroke-width:1.42 ;&st7;   " d=" M   682.01,   299.24  C   684.36    299.24    686.26    297.33    686.26    294.99  " /><path style="stroke-width:1.42 ;&st7;   " d=" M   673.51,   294.99  C   673.51    297.33    675.41    299.24    677.76    299.24  " /><path style="stroke-width:1.42 ;&st7;   " d=" M   677.76,   290.74  C   675.41    290.74    673.51    292.64    673.51    294.99  " /><path style="stroke-width:1.42 ;&st7;  " d=" M   733.00,   409.72  L   728.75,   409.72  " /><path style="stroke-width:1.42 ;&st7;  " d=" M   733.00,   299.24  L   728.75,   299.24  " /><path style="stroke-width:1.42 ;&st7;  " d=" M   733.00,   290.74  L   728.75,   290.74  " /><path style="stroke-width:1.42 ;&st7;  " d=" M   682.01,   299.24  L   677.76,   299.24  " /><path style="stroke-width:1.42 ;&st7;  " d=" M   682.01,   290.74  L   677.76,   290.74  " /><path style="stroke-width:0.85 ;&st7;  " d=" M   679.89,   324.73  L   679.89,   333.23  " /><path style="stroke-width:1.42 ;&st7;  " d=" M   667.14,   324.73  L   667.14,   367.22  L   692.63,   367.22  L   692.63,   324.73  L   667.14,   324.73  " /><path style="stroke-width:1.42 ;&st7;   " d=" M   679.89,   336.06  C   677.15    337.68    676.24    341.20    677.85    343.94  " /><path style="stroke-width:1.42 ;&st7;   " d=" M   677.85,   343.94  C   678.37    344.82    679.00    345.46    679.89    345.98  " /><path style="stroke-width:1.42 ;&st7;   " d=" M   679.89,   355.89  C   682.62    354.28    683.54    350.75    681.92    348.01  " /><path style="stroke-width:1.42 ;&st7;   " d=" M   681.92,   348.01  C   681.40    347.13    680.77    346.50    679.89    345.98  " /><path style="stroke-width:0.85 ;&st7;   " d=" M   681.30,   334.65  C   681.30    333.86    680.67    333.23    679.89    333.23  " /><path style="stroke-width:0.85 ;&st7;   " d=" M   679.89,   333.23  C   679.10    333.23    678.47    333.86    678.47    334.65  " /><path style="stroke-width:0.85 ;&st7;   " d=" M   678.47,   334.65  C   678.47    335.43    679.10    336.06    679.89    336.06  " /><path style="stroke-width:0.85 ;&st7;   " d=" M   679.89,   336.06  C   680.67    336.06    681.30    335.43    681.30    334.65  " /><path style="stroke-width:0.85 ;&st7;   " d=" M   681.30,   357.31  C   681.30    356.53    680.67    355.89    679.89    355.89  " /><path style="stroke-width:0.85 ;&st7;   " d=" M   679.89,   355.89  C   679.10    355.89    678.47    356.53    678.47    357.31  " /><path style="stroke-width:0.85 ;&st7;   " d=" M   678.47,   357.31  C   678.47    358.09    679.10    358.73    679.89    358.73  " /><path style="stroke-width:0.85 ;&st7;   " d=" M   679.89,   358.73  C   680.67    358.73    681.30    358.09    681.30    357.31  " /><path style="stroke-width:0.85 ;&st7;  " d=" M   679.89,   358.73  L   679.89,   367.22  " /></g><g ewd:figtype="rb" ewd:figID="3" ewd:code="FUSE11"><path style="stroke-width:0.85 ;&st7;  " d=" M   730.88,   324.73  L   730.88,   333.23  " /><path style="stroke-width:1.42 ;&st7;  " d=" M   718.13,   324.73  L   718.13,   367.22  L   743.63,   367.22  L   743.63,   324.73  L   718.13,   324.73  " /><path style="stroke-width:1.42 ;&st7;   " d=" M   730.88,   336.06  C   728.14    337.68    727.23    341.20    728.84    343.94  " /><path style="stroke-width:1.42 ;&st7;   " d=" M   728.84,   343.94  C   729.36    344.82    730.00    345.46    730.88    345.98  " /><path style="stroke-width:1.42 ;&st7;   " d=" M   730.88,   355.89  C   733.62    354.28    734.53    350.75    732.91    348.01  " /><path style="stroke-width:1.42 ;&st7;   " d=" M   732.91,   348.01  C   732.40    347.13    731.76    346.50    730.88    345.98  " /><path style="stroke-width:0.85 ;&st7;   " d=" M   732.29,   334.65  C   732.29    333.86    731.66    333.23    730.88    333.23  " /><path style="stroke-width:0.85 ;&st7;   " d=" M   730.88,   333.23  C   730.10    333.23    729.46    333.86    729.46    334.65  " /><path style="stroke-width:0.85 ;&st7;   " d=" M   729.46,   334.65  C   729.46    335.43    730.10    336.06    730.88    336.06  " /><path style="stroke-width:0.85 ;&st7;   " d=" M   730.88,   336.06  C   731.66    336.06    732.29    335.43    732.29    334.65  " /><path style="stroke-width:0.85 ;&st7;   " d=" M   732.29,   357.31  C   732.29    356.53    731.66    355.89    730.88    355.89  " /><path style="stroke-width:0.85 ;&st7;   " d=" M   730.88,   355.89  C   730.10    355.89    729.46    356.53    729.46    357.31  " /><path style="stroke-width:0.85 ;&st7;   " d=" M   729.46,   357.31  C   729.46    358.09    730.10    358.73    730.88    358.73  " /><path style="stroke-width:0.85 ;&st7;   " d=" M   730.88,   358.73  C   731.66    358.73    732.29    358.09    732.29    357.31  " /><path style="stroke-width:0.85 ;&st7;  " d=" M   730.88,   358.73  L   730.88,   367.22  " /></g><g ewd:figtype="rb" ewd:figID="6" ewd:code="FUSE56"><text style="&st18;" transform="matrix(&st16;  874.78  56.17 )">50A <tspan x="0 " dy="6.0">HEAD</tspan></text><text style="&st18;" transform="matrix(&st16;  856.56  109.99 )">4</text><text style="&st18;" transform="matrix(&st16;  852.17  86.47 )">2</text><text style="&st18;" transform="matrix(&st16;  850.31  32.08 )">(BAT)</text><path style="stroke-width:0.28 ;&st9;  " d=" M   858.36,    98.87  L   855.52,    96.04  L   855.52,   100.29  L   858.36,   103.12  L   861.19,   100.29  L   861.19,    96.04  L   858.36,    98.87  " /><path style="stroke-width:1.42 ;&st7;   " d=" M   856.23,   103.77  C   853.89    103.77    851.98    105.67    851.98    108.02  " /><path style="stroke-width:1.42 ;&st7;   " d=" M   851.98,   108.02  C   851.98    110.36    853.89    112.27    856.23    112.27  " /><path style="stroke-width:1.42 ;&st7;   " d=" M   860.48,   112.27  C   862.83    112.27    864.73    110.36    864.73    108.02  " /><path style="stroke-width:1.42 ;&st7;   " d=" M   864.73,   108.02  C   864.73    105.67    862.83    103.77    860.48    103.77  " /><path style="stroke-width:1.42 ;&st7;  " d=" M   860.48,   103.77  L   856.23,   103.77  " /><path style="stroke-width:1.42 ;&st7;  " d=" M   860.48,   112.27  L   856.23,   112.27  " /><path style="stroke-width:0.85 ;&st7;  " d=" M   858.36,    78.27  L   858.36,   103.77  " /><path style="stroke-width:1.42 ;&st7;  " d=" M   845.61,    35.78  L   845.61,    78.27  L   871.10,    78.27  L   871.10,    35.78  L   845.61,    35.78  " /><path style="stroke-width:1.42 ;&st7;   " d=" M   858.36,    47.11  C   855.62     48.72    854.71     52.25    856.32     54.99  " /><path style="stroke-width:1.42 ;&st7;   " d=" M   856.32,    54.99  C   856.84     55.87    857.47     56.51    858.36     57.03  " /><path style="stroke-width:1.42 ;&st7;   " d=" M   858.36,    66.94  C   861.09     65.33    862.01     61.80    860.39     59.06  " /><path style="stroke-width:1.42 ;&st7;   " d=" M   860.39,    59.06  C   859.87     58.18    859.24     57.55    858.36     57.03  " /><path style="stroke-width:0.85 ;&st7;   " d=" M   859.77,    45.69  C   859.77     44.91    859.14     44.28    858.36     44.28  " /><path style="stroke-width:0.85 ;&st7;   " d=" M   858.36,    44.28  C   857.57     44.28    856.94     44.91    856.94     45.69  " /><path style="stroke-width:0.85 ;&st7;   " d=" M   856.94,    45.69  C   856.94     46.48    857.57     47.11    858.36     47.11  " /><path style="stroke-width:0.85 ;&st7;   " d=" M   858.36,    47.11  C   859.14     47.11    859.77     46.48    859.77     45.69  " /><path style="stroke-width:0.85 ;&st7;   " d=" M   859.77,    68.36  C   859.77     67.57    859.14     66.94    858.36     66.94  " /><path style="stroke-width:0.85 ;&st7;   " d=" M   858.36,    66.94  C   857.57     66.94    856.94     67.57    856.94     68.36  " /><path style="stroke-width:0.85 ;&st7;   " d=" M   856.94,    68.36  C   856.94     69.14    857.57     69.77    858.36     69.77  " /><path style="stroke-width:0.85 ;&st7;   " d=" M   858.36,    69.77  C   859.14     69.77    859.77     69.14    859.77     68.36  " /><path style="stroke-width:0.85 ;&st7;  " d=" M   858.36,    69.77  L   858.36,    78.27  " /></g><g ewd:figtype="rb" ewd:figID="9" ewd:code="2"><text style="&st18;" transform="matrix(&st16;  784.18  604.88 )">5</text><text style="&st18;" transform="matrix(&st16;  809.68  604.88 )">2</text><text style="&st18;" transform="matrix(&st16;  775.68  576.0 )">4</text><text style="&st18;" transform="matrix(&st16;  784.18  559.0 )">3</text><text style="&st18;" transform="matrix(&st16;  809.68  559.0 )">1</text><text style="&st18;" transform="matrix(&st17;  832.0  586.38 )" ewd:textID="7">DIM <tspan x="0 " dy="6.0">Relay</tspan></text><text style="&st18;" transform="matrix(&st16;  814.06  534.92 )">2</text><text style="&st18;" transform="matrix(&st16;  788.57  534.92 )">2</text><text style="&st18;" transform="matrix(&st16;  754.57  534.92 )">2</text><text style="&st18;" transform="matrix(&st16;  788.57  628.4 )">2</text><text style="&st18;" transform="matrix(&st16;  814.06  628.4 )">2</text><path style="stroke-width:0.28 ;&st9;  " d=" M   815.86,   542.09  L   818.70,   544.92  L   818.70,   540.67  L   815.86,   537.84  L   813.03,   540.67  L   813.03,   544.92  L   815.86,   542.09  " /><path style="stroke-width:0.85 ;&st7;  " d=" M   815.86,   562.69  L   815.86,   537.20  " /><path style="stroke-width:0.28 ;&st9;  " d=" M   790.37,   542.09  L   793.20,   544.92  L   793.20,   540.67  L   790.37,   537.84  L   787.53,   540.67  L   787.53,   544.92  L   790.37,   542.09  " /><path style="stroke-width:0.85 ;&st7;  " d=" M   790.37,   562.69  L   790.37,   537.20  " /><path style="stroke-width:0.28 ;&st9;  " d=" M   756.37,   542.09  L   759.21,   544.92  L   759.21,   540.67  L   756.37,   537.84  L   753.54,   540.67  L   753.54,   544.92  L   756.37,   542.09  " /><path style="stroke-width:0.85 ;&st7;  " d=" M   756.37,   537.20  L   756.37,   579.69  L   781.87,   579.69  " /><path style="stroke-width:0.85 ;&st7;  " d=" M   790.37,   622.18  L   790.37,   596.69  " /><path style="stroke-width:0.28 ;&st9;  " d=" M   790.37,   617.29  L   787.53,   614.45  L   787.53,   618.70  L   790.37,   621.54  L   793.20,   618.70  L   793.20,   614.45  L   790.37,   617.29  " /><path style="stroke-width:0.28 ;&st9;  " d=" M   815.86,   617.29  L   813.03,   614.45  L   813.03,   618.70  L   815.86,   621.54  L   818.70,   618.70  L   818.70,   614.45  L   815.86,   617.29  " /><path style="stroke-width:0.85 ;&st7;  " d=" M   815.86,   622.18  L   815.86,   596.69  " /><path style="stroke-width:1.42 ;&st7;   " d=" M   822.24,   532.95  C   822.24    530.60    820.34    528.70    817.99    528.70  " /><path style="stroke-width:1.42 ;&st7;   " d=" M   817.99,   537.20  C   820.34    537.20    822.24    535.29    822.24    532.95  " /><path style="stroke-width:1.42 ;&st7;   " d=" M   809.49,   532.95  C   809.49    535.29    811.39    537.20    813.74    537.20  " /><path style="stroke-width:1.42 ;&st7;   " d=" M   813.74,   528.70  C   811.39    528.70    809.49    530.60    809.49    532.95  " /><path style="stroke-width:1.42 ;&st7;   " d=" M   796.74,   532.95  C   796.74    530.60    794.84    528.70    792.49    528.70  " /><path style="stroke-width:1.42 ;&st7;   " d=" M   792.49,   537.20  C   794.84    537.20    796.74    535.29    796.74    532.95  " /><path style="stroke-width:1.42 ;&st7;   " d=" M   783.99,   532.95  C   783.99    535.29    785.90    537.20    788.24    537.20  " /><path style="stroke-width:1.42 ;&st7;   " d=" M   788.24,   528.70  C   785.90    528.70    783.99    530.60    783.99    532.95  " /><path style="stroke-width:1.42 ;&st7;   " d=" M   762.75,   532.95  C   762.75    530.60    760.85    528.70    758.50    528.70  " /><path style="stroke-width:1.42 ;&st7;   " d=" M   758.50,   537.20  C   760.85    537.20    762.75    535.29    762.75    532.95  " /><path style="stroke-width:1.42 ;&st7;   " d=" M   750.00,   532.95  C   750.00    535.29    751.90    537.20    754.25    537.20  " /><path style="stroke-width:1.42 ;&st7;   " d=" M   754.25,   528.70  C   751.90    528.70    750.00    530.60    750.00    532.95  " /><path style="stroke-width:1.42 ;&st7;   " d=" M   792.49,   630.68  C   794.84    630.68    796.74    628.78    796.74    626.43  " /><path style="stroke-width:1.42 ;&st7;   " d=" M   796.74,   626.43  C   796.74    624.08    794.84    622.18    792.49    622.18  " /><path style="stroke-width:1.42 ;&st7;   " d=" M   813.74,   622.18  C   811.39    622.18    809.49    624.08    809.49    626.43  " /><path style="stroke-width:1.42 ;&st7;   " d=" M   809.49,   626.43  C   809.49    628.78    811.39    630.68    813.74    630.68  " /><path style="stroke-width:1.42 ;&st7;   " d=" M   817.99,   630.68  C   820.34    630.68    822.24    628.78    822.24    626.43  " /><path style="stroke-width:1.42 ;&st7;   " d=" M   822.24,   626.43  C   822.24    624.08    820.34    622.18    817.99    622.18  " /><path style="stroke-width:1.42 ;&st7;   " d=" M   788.24,   622.18  C   785.90    622.18    783.99    624.08    783.99    626.43  " /><path style="stroke-width:1.42 ;&st7;   " d=" M   783.99,   626.43  C   783.99    628.78    785.90    630.68    788.24    630.68  " /><path style="stroke-width:1.42 ;&st7;  " d=" M   817.99,   537.20  L   813.74,   537.20  " /><path style="stroke-width:1.42 ;&st7;  " d=" M   817.99,   528.70  L   813.74,   528.70  " /><path style="stroke-width:1.42 ;&st7;  " d=" M   792.49,   537.20  L   788.24,   537.20  " /><path style="stroke-width:1.42 ;&st7;  " d=" M   792.49,   528.70  L   788.24,   528.70  " /><path style="stroke-width:1.42 ;&st7;  " d=" M   758.50,   537.20  L   754.25,   537.20  " /><path style="stroke-width:1.42 ;&st7;  " d=" M   758.50,   528.70  L   754.25,   528.70  " /><path style="stroke-width:1.42 ;&st7;  " d=" M   817.99,   622.18  L   813.74,   622.18  " /><path style="stroke-width:1.42 ;&st7;  " d=" M   817.99,   630.68  L   813.74,   630.68  " /><path style="stroke-width:1.42 ;&st7;  " d=" M   792.49,   622.18  L   788.24,   622.18  " /><path style="stroke-width:1.42 ;&st7;  " d=" M   792.49,   630.68  L   788.24,   630.68  " /><path style="stroke-width:1.42 ;&st7;  " d=" M   781.87,   562.69  L   824.36,   562.69  L   824.36,   596.69  L   781.87,   596.69  L   781.87,   562.69  " /><path style="stroke-width:0.85 ;&st7;   " d=" M   787.54,   579.69  C   787.54    578.91    786.90    578.27    786.12    578.27  " /><path style="stroke-width:0.85 ;&st7;   " d=" M   786.12,   578.27  C   785.34    578.27    784.70    578.91    784.70    579.69  " /><path style="stroke-width:0.85 ;&st7;   " d=" M   784.70,   579.69  C   784.70    580.47    785.34    581.10    786.12    581.10  " /><path style="stroke-width:0.85 ;&st7;   " d=" M   786.12,   581.10  C   786.90    581.10    787.54    580.47    787.54    579.69  " /><path style="stroke-width:0.85 ;&st7;   " d=" M   791.78,   591.02  C   791.78    590.24    791.15    589.60    790.37    589.60  " /><path style="stroke-width:0.85 ;&st7;   " d=" M   790.37,   589.60  C   789.59    589.60    788.95    590.24    788.95    591.02  " /><path style="stroke-width:0.85 ;&st7;   " d=" M   788.95,   591.02  C   788.95    591.80    789.59    592.44    790.37    592.44  " /><path style="stroke-width:0.85 ;&st7;   " d=" M   790.37,   592.44  C   791.15    592.44    791.78    591.80    791.78    591.02  " /><path style="stroke-width:0.85 ;&st7;   " d=" M   791.78,   568.36  C   791.78    567.57    791.15    566.94    790.37    566.94  " /><path style="stroke-width:0.85 ;&st7;   " d=" M   790.37,   566.94  C   789.59    566.94    788.95    567.57    788.95    568.36  " /><path style="stroke-width:0.85 ;&st7;   " d=" M   788.95,   568.36  C   788.95    569.14    789.59    569.77    790.37    569.77  " /><path style="stroke-width:0.85 ;&st7;   " d=" M   790.37,   569.77  C   791.15    569.77    791.78    569.14    791.78    568.36  " /><path style="stroke-width:0.85 ;&st7;   " d=" M   813.33,   577.21  C   814.70    578.61    816.95    578.63    818.34    577.26  " /><path style="stroke-width:0.85 ;&st7;   " d=" M   818.34,   577.26  C   819.74    575.89    819.76    573.65    818.39    572.25  " /><path style="stroke-width:0.85 ;&st7;   " d=" M   818.39,   572.25  C   817.70    571.54    816.85    571.19    815.86    571.19  " /><path style="stroke-width:0.85 ;&st7;   " d=" M   813.33,   582.17  C   814.70    583.56    816.95    583.59    818.34    582.22  " /><path style="stroke-width:0.85 ;&st7;   " d=" M   818.34,   582.22  C   819.74    580.85    819.76    578.61    818.39    577.21  " /><path style="stroke-width:0.85 ;&st7;   " d=" M   818.39,   577.21  C   817.02    575.81    814.78    575.79    813.38    577.16  " /><path style="stroke-width:0.85 ;&st7;   " d=" M   813.38,   577.16  C   813.37    577.18    813.35    577.19    813.33    577.21  " /><path style="stroke-width:0.85 ;&st7;   " d=" M   815.86,   588.19  C   817.82    588.19    819.40    586.60    819.40    584.65  " /><path style="stroke-width:0.85 ;&st7;   " d=" M   819.40,   584.65  C   819.40    582.69    817.82    581.10    815.86    581.10  " /><path style="stroke-width:0.85 ;&st7;   " d=" M   815.86,   581.10  C   814.87    581.10    814.03    581.46    813.33    582.17  " /><path style="stroke-width:1.42 ;&st7;  " d=" M   790.37,   569.77  L   784.70,   592.44  " /><path style="stroke-width:0.85 ;&st7;  " d=" M   790.37,   592.44  L   790.37,   596.69  " /><path style="stroke-width:0.85 ;&st7;  " d=" M   781.87,   579.69  L   784.70,   579.69  " /><path style="stroke-width:0.85 ;&st7;  " d=" M   790.37,   562.69  L   790.37,   566.94  " /><path style="stroke-width:0.85 ;&st7;  " d=" M   815.86,   562.69  L   815.86,   571.19  " /><path style="stroke-width:0.85 ;&st7;  " d=" M   815.86,   588.19  L   815.86,   596.69  " /></g><g ewd:figtype="rb" ewd:figID="10" ewd:code="2"><text style="&st18;" transform="matrix(&st16;  877.67  604.88 )">5</text><text style="&st18;" transform="matrix(&st16;  903.16  604.88 )">2</text><text style="&st18;" transform="matrix(&st16;  877.67  559.0 )">3</text><text style="&st18;" transform="matrix(&st16;  903.16  559.0 )">1</text><text style="&st18;" transform="matrix(&st16;  882.05  628.4 )">2</text><text style="&st18;" transform="matrix(&st16;  907.55  628.4 )">2</text><text style="&st18;" transform="matrix(&st16;  882.05  534.92 )">2</text><text style="&st18;" transform="matrix(&st16;  907.55  534.92 )">2</text><text style="&st18;" transform="matrix(&st17;  925.48  586.81 )" ewd:textID="10">H-LP <tspan x="0 " dy="6.0">Relay</tspan></text><path style="stroke-width:0.85 ;&st7;  " d=" M   883.85,   622.18  L   883.85,   596.69  " /><path style="stroke-width:0.28 ;&st9;  " d=" M   883.85,   617.29  L   881.02,   614.45  L   881.02,   618.70  L   883.85,   621.54  L   886.68,   618.70  L   886.68,   614.45  L   883.85,   617.29  " /><path style="stroke-width:0.28 ;&st9;  " d=" M   909.35,   617.29  L   906.51,   614.45  L   906.51,   618.70  L   909.35,   621.54  L   912.18,   618.70  L   912.18,   614.45  L   909.35,   617.29  " /><path style="stroke-width:0.85 ;&st7;  " d=" M   909.35,   622.18  L   909.35,   596.69  " /><path style="stroke-width:0.28 ;&st9;  " d=" M   883.85,   542.09  L   886.68,   544.92  L   886.68,   540.67  L   883.85,   537.84  L   881.02,   540.67  L   881.02,   544.92  L   883.85,   542.09  " /><path style="stroke-width:0.85 ;&st7;  " d=" M   883.85,   562.69  L   883.85,   537.20  " /><path style="stroke-width:0.28 ;&st9;  " d=" M   909.35,   542.09  L   912.18,   544.92  L   912.18,   540.67  L   909.35,   537.84  L   906.51,   540.67  L   906.51,   544.92  L   909.35,   542.09  " /><path style="stroke-width:0.85 ;&st7;  " d=" M   909.35,   562.69  L   909.35,   537.20  " /><path style="stroke-width:1.42 ;&st7;   " d=" M   885.98,   630.68  C   888.32    630.68    890.23    628.78    890.23    626.43  " /><path style="stroke-width:1.42 ;&st7;   " d=" M   890.23,   626.43  C   890.23    624.08    888.32    622.18    885.98    622.18  " /><path style="stroke-width:1.42 ;&st7;   " d=" M   907.22,   622.18  C   904.88    622.18    902.97    624.08    902.97    626.43  " /><path style="stroke-width:1.42 ;&st7;   " d=" M   902.97,   626.43  C   902.97    628.78    904.88    630.68    907.22    630.68  " /><path style="stroke-width:1.42 ;&st7;   " d=" M   911.47,   630.68  C   913.82    630.68    915.72    628.78    915.72    626.43  " /><path style="stroke-width:1.42 ;&st7;   " d=" M   915.72,   626.43  C   915.72    624.08    913.82    622.18    911.47    622.18  " /><path style="stroke-width:1.42 ;&st7;   " d=" M   881.73,   622.18  C   879.38    622.18    877.48    624.08    877.48    626.43  " /><path style="stroke-width:1.42 ;&st7;   " d=" M   877.48,   626.43  C   877.48    628.78    879.38    630.68    881.73    630.68  " /><path style="stroke-width:1.42 ;&st7;   " d=" M   890.23,   532.95  C   890.23    530.60    888.32    528.70    885.98    528.70  " /><path style="stroke-width:1.42 ;&st7;   " d=" M   885.98,   537.20  C   888.32    537.20    890.23    535.29    890.23    532.95  " /><path style="stroke-width:1.42 ;&st7;   " d=" M   877.48,   532.95  C   877.48    535.29    879.38    537.20    881.73    537.20  " /><path style="stroke-width:1.42 ;&st7;   " d=" M   881.73,   528.70  C   879.38    528.70    877.48    530.60    877.48    532.95  " /><path style="stroke-width:1.42 ;&st7;   " d=" M   915.72,   532.95  C   915.72    530.60    913.82    528.70    911.47    528.70  " /><path style="stroke-width:1.42 ;&st7;   " d=" M   911.47,   537.20  C   913.82    537.20    915.72    535.29    915.72    532.95  " /><path style="stroke-width:1.42 ;&st7;   " d=" M   902.97,   532.95  C   902.97    535.29    904.88    537.20    907.22    537.20  " /><path style="stroke-width:1.42 ;&st7;   " d=" M   907.22,   528.70  C   904.88    528.70    902.97    530.60    902.97    532.95  " /><path style="stroke-width:1.42 ;&st7;  " d=" M   911.47,   622.18  L   907.22,   622.18  " /><path style="stroke-width:1.42 ;&st7;  " d=" M   911.47,   630.68  L   907.22,   630.68  " /><path style="stroke-width:1.42 ;&st7;  " d=" M   885.98,   622.18  L   881.73,   622.18  " /><path style="stroke-width:1.42 ;&st7;  " d=" M   885.98,   630.68  L   881.73,   630.68  " /><path style="stroke-width:1.42 ;&st7;  " d=" M   885.98,   537.20  L   881.73,   537.20  " /><path style="stroke-width:1.42 ;&st7;  " d=" M   885.98,   528.70  L   881.73,   528.70  " /><path style="stroke-width:1.42 ;&st7;  " d=" M   911.47,   537.20  L   907.22,   537.20  " /><path style="stroke-width:1.42 ;&st7;  " d=" M   911.47,   528.70  L   907.22,   528.70  " /><path style="stroke-width:1.42 ;&st7;  " d=" M   917.85,   562.69  L   875.35,   562.69  L   875.35,   596.69  L   917.85,   596.69  L   917.85,   562.69  " /><path style="stroke-width:0.85 ;&st7;   " d=" M   885.27,   591.02  C   885.27    590.24    884.63    589.60    883.85    589.60  " /><path style="stroke-width:0.85 ;&st7;   " d=" M   883.85,   589.60  C   883.07    589.60    882.44    590.24    882.44    591.02  " /><path style="stroke-width:0.85 ;&st7;   " d=" M   882.44,   591.02  C   882.44    591.80    883.07    592.44    883.85    592.44  " /><path style="stroke-width:0.85 ;&st7;   " d=" M   883.85,   592.44  C   884.63    592.44    885.27    591.80    885.27    591.02  " /><path style="stroke-width:0.85 ;&st7;   " d=" M   885.27,   568.36  C   885.27    567.57    884.63    566.94    883.85    566.94  " /><path style="stroke-width:0.85 ;&st7;   " d=" M   883.85,   566.94  C   883.07    566.94    882.44    567.57    882.44    568.36  " /><path style="stroke-width:0.85 ;&st7;   " d=" M   882.44,   568.36  C   882.44    569.14    883.07    569.77    883.85    569.77  " /><path style="stroke-width:0.85 ;&st7;   " d=" M   883.85,   569.77  C   884.63    569.77    885.27    569.14    885.27    568.36  " /><path style="stroke-width:0.85 ;&st7;   " d=" M   906.82,   577.21  C   908.19    578.61    910.43    578.63    911.83    577.26  " /><path style="stroke-width:0.85 ;&st7;   " d=" M   911.83,   577.26  C   913.22    575.89    913.25    573.65    911.88    572.25  " /><path style="stroke-width:0.85 ;&st7;   " d=" M   911.88,   572.25  C   911.18    571.54    910.34    571.19    909.35    571.19  " /><path style="stroke-width:0.85 ;&st7;   " d=" M   906.82,   582.17  C   908.19    583.56    910.43    583.59    911.83    582.22  " /><path style="stroke-width:0.85 ;&st7;   " d=" M   911.83,   582.22  C   913.22    580.85    913.25    578.61    911.88    577.21  " /><path style="stroke-width:0.85 ;&st7;   " d=" M   911.88,   577.21  C   910.51    575.81    908.27    575.79    906.87    577.16  " /><path style="stroke-width:0.85 ;&st7;   " d=" M   906.87,   577.16  C   906.85    577.18    906.84    577.19    906.82    577.21  " /><path style="stroke-width:0.85 ;&st7;   " d=" M   909.35,   588.19  C   911.30    588.19    912.89    586.60    912.89    584.65  " /><path style="stroke-width:0.85 ;&st7;   " d=" M   912.89,   584.65  C   912.89    582.69    911.30    581.10    909.35    581.10  " /><path style="stroke-width:0.85 ;&st7;   " d=" M   909.35,   581.10  C   908.36    581.10    907.51    581.46    906.82    582.17  " /><path style="stroke-width:1.42 ;&st7;  " d=" M   883.85,   569.77  L   878.19,   592.44  " /><path style="stroke-width:0.85 ;&st7;  " d=" M   883.85,   596.69  L   883.85,   592.44  " /><path style="stroke-width:0.85 ;&st7;  " d=" M   883.85,   566.94  L   883.85,   562.69  " /><path style="stroke-width:0.85 ;&st7;  " d=" M   909.35,   562.69  L   909.35,   571.19  " /><path style="stroke-width:0.85 ;&st7;  " d=" M   909.35,   588.19  L   909.35,   596.69  " /></g><g ewd:figtype="rb" ewd:figID="12" ewd:code="FUSE12"><path style="stroke-width:0.85 ;&st7;  " d=" M   569.40,   324.73  L   569.40,   333.23  " /><path style="stroke-width:1.42 ;&st7;  " d=" M   556.66,   324.73  L   556.66,   367.22  L   582.15,   367.22  L   582.15,   324.73  L   556.66,   324.73  " /><path style="stroke-width:1.42 ;&st7;   " d=" M   569.40,   336.06  C   566.67    337.68    565.76    341.20    567.37    343.94  " /><path style="stroke-width:1.42 ;&st7;   " d=" M   567.37,   343.94  C   567.89    344.82    568.52    345.46    569.40    345.98  " /><path style="stroke-width:1.42 ;&st7;   " d=" M   569.40,   355.89  C   572.14    354.28    573.05    350.75    571.44    348.01  " /><path style="stroke-width:1.42 ;&st7;   " d=" M   571.44,   348.01  C   570.92    347.13    570.29    346.50    569.40    345.98  " /><path style="stroke-width:0.85 ;&st7;   " d=" M   570.82,   334.65  C   570.82    333.86    570.19    333.23    569.40    333.23  " /><path style="stroke-width:0.85 ;&st7;   " d=" M   569.40,   333.23  C   568.62    333.23    567.99    333.86    567.99    334.65  " /><path style="stroke-width:0.85 ;&st7;   " d=" M   567.99,   334.65  C   567.99    335.43    568.62    336.06    569.40    336.06  " /><path style="stroke-width:0.85 ;&st7;   " d=" M   569.40,   336.06  C   570.19    336.06    570.82    335.43    570.82    334.65  " /><path style="stroke-width:0.85 ;&st7;   " d=" M   570.82,   357.31  C   570.82    356.53    570.19    355.89    569.40    355.89  " /><path style="stroke-width:0.85 ;&st7;   " d=" M   569.40,   355.89  C   568.62    355.89    567.99    356.53    567.99    357.31  " /><path style="stroke-width:0.85 ;&st7;   " d=" M   567.99,   357.31  C   567.99    358.09    568.62    358.73    569.40    358.73  " /><path style="stroke-width:0.85 ;&st7;   " d=" M   569.40,   358.73  C   570.19    358.73    570.82    358.09    570.82    357.31  " /><path style="stroke-width:0.85 ;&st7;  " d=" M   569.40,   358.73  L   569.40,   367.22  " /></g><g ewd:figtype="w2w" ewd:figID="25" ewd:code="AI4"><text style="&st18;" transform="matrix(&st16;  845.72  211.97 )">4</text><path style="stroke-width:1.42 ;&st7;  " d=" M   862.61,   219.92  L   858.36,   215.67  L   854.11,   219.92  " /><path style="stroke-width:1.42 ;&st7;  " d=" M   862.61,   223.31  L   858.36,   219.07  L   854.11,   223.31  " /></g><g ewd:code="7" ewd:figID="83" ewd:comment="" ewd:figtype="comment"><text style="&st18;" transform="matrix(&st16;  608.49  71.74 )" ewd:textID="2">* 7 :1VD-FTV, RHD 1HZ 12V Battery Type</text></g><g ewd:code="2" ewd:figID="85" ewd:comment="" ewd:figtype="comment"><text style="&st18;" transform="matrix(&st16;  608.49  54.75 )">* 2 :LHD 1HZ</text></g><g ewd:code="1" ewd:figID="86" ewd:comment="" ewd:figtype="comment"><text style="&st18;" transform="matrix(&st16;  608.49  46.25 )">* 1 :LHD 1GR-FE, LHD 1VD-FTV</text></g><g ewd:code="6" ewd:figID="84" ewd:comment="" ewd:figtype="comment"><text style="&st18;" transform="matrix(&st16;  608.49  63.24 )" ewd:textID="1">* 6 :1GR-FE, RHD 1HZ 24V Battery Type</text></g></svg>