<?xml version="1.0" encoding="utf-8"?>
<!DOCTYPE svg PUBLIC "-//W3C//DTD SVG 1.0//EN" "http://www.w3.org/TR/2001/REC-SVG-20010904/DTD/svg10.dtd"[
	<!ENTITY ns_flows "http://ns.adobe.com/Flows/1.0/">
	<!ENTITY ns_svg "http://www.w3.org/2000/svg">
	<!ENTITY ns_xlink "http://www.w3.org/1999/xlink">
	<!ENTITY st0 "font-size:7px;font-family:'MS-PGothic';adobe-font-script:japanese;">
	<!ENTITY st1 "font-size:6px;font-family:'ArialMT';">
	<!-- White fill  -->
	<!ENTITY st2 "fill:#FFFFFF;stroke:#000000; stroke-width:1.41;stroke-linecap:round;stroke-linejoin:round;">
	<!-- Yellow fill  -->
	<!ENTITY st3 "fill:#FFFFCC;stroke:#FFFFCC; stroke-width:0.1;stroke-linecap:round;stroke-linejoin:round;">
	<!-- Gray fill  -->
	<!ENTITY st4 "fill:#CCCCCC;stroke:#CCCCCC; stroke-width:0.1;stroke-linecap:round;stroke-linejoin:round;">
	<!-- Light-blue fill -->
	<!ENTITY st5 "fill:#CCECF4;stroke:#000000; stroke-width:1.133;stroke-linecap:round;stroke-linejoin:round;">
	<!ENTITY st6 "fill:none;stroke-linecap:butt; stroke-linejoin:round;">
	<!ENTITY st7 "fill:none;stroke:#000000;stroke-linecap:round;stroke-linejoin:round;">
	<!ENTITY st8 "enable-background:new    ;">
	<!-- Black fill -->
	<!ENTITY st9 "fill:#000000;stroke:#000000; stroke-linecap:round;stroke-linejoin:round;">
	<!-- SRS note   -->
	<!ENTITY st10 "font-size:9px;font-family:'ArialMT';">
	<!ENTITY st11 "font-size:9px;font-family:'Svg Symbol';">
	<!ENTITY st12 "font-size:6px;font-family:'Svg Symbol';">
	<!ENTITY st13 "fill:none;stroke:#ff0000;stroke-linecap:round;stroke-linejoin:round;">
	<!-- Yellow fill  -->
	<!ENTITY st14 "fill:#FFFF00;stroke:#FFFF00; stroke-width:0.1;stroke-linecap:round;stroke-linejoin:round;">
	<!ENTITY st15 "font-size:6px;font-family:'MS-PGothic';adobe-font-script:japanese;">
	<!ENTITY st16 "1.00 0.00 0.00 1.00">
	<!ENTITY st17 "0.00 -1.00 1.00 0.00">
	<!ENTITY st18 "font-size:6px;font-family:'Arial';">
	<!ENTITY st19 "font-size:9px;font-family:'Arial';">
	<!ENTITY st20 "font-size:6px;font-family:'MS-PGothic','MS PGothic';adobe-font-script:japanese;">
	<!ENTITY st21 "font-size:7px;font-family:'MS-PGothic','MS PGothic';adobe-font-script:japanese;">
	<!ATTLIST svg
		xmlns:ewd CDATA #FIXED "http://shcl.co.jp/ewd"
		xmlns:a CDATA #FIXED "http://ns.adobe.com/AdobeSVGViewerExtensions/3.0/"
		ewd:ver CDATA #IMPLIED
	>
	<!ATTLIST a
		ewd:lineID CDATA #IMPLIED
		ewd:groupID CDATA #IMPLIED
		ewd:figtype CDATA #IMPLIED
		ewd:code CDATA #IMPLIED
		ewd:figID CDATA #IMPLIED
		ewd:pinNo CDATA #IMPLIED
		ewd:comment CDATA #IMPLIED >
	<!ATTLIST g
		ewd:lineID CDATA #IMPLIED
		ewd:groupID CDATA #IMPLIED
		ewd:figtype CDATA #IMPLIED
		ewd:code CDATA #IMPLIED
		ewd:figID CDATA #IMPLIED
		ewd:pinNo CDATA #IMPLIED
		ewd:comment CDATA #IMPLIED >
	<!ATTLIST text
		ewd:textID CDATA #IMPLIED >
	<!ATTLIST title
		ewd:textID CDATA #IMPLIED >
]>
<!-- Generator: Shintec Hozumi YS   -->
<svg onload="call_execInitLoadProc_svg('system')" style="overflow:visible;  enable-background:new 0 0 2060.014 710.000" viewBox="0 0 2060.014 710.000" height="710.000" width="2060.014" xml:space="preserve" ewd:ver="2.1.2.9" xmlns="&ns_svg;" xmlns:a="http://ns.adobe.com/AdobeSVGViewerExtensions/3.0/" xmlns:ewd="http://shcl.co.jp/ewd" xmlns:xlink="&ns_xlink;"><script type="text/javascript" xlink:href="../../../../../system/js/ewd/fig/svgfig.js" xmlns:xlink="http://www.w3.org/1999/xlink" />
<g id="ewd_top"><a ewd:figtype="rb" style="cursor:pointer;" ewd:code="FUSE5" ewd:figID="1"><path style="fill:#CCECF4;stroke:#000000; stroke-width:0; stroke-linecap:round;stroke-linejoin:round; " d=" M   429.18,    35.78  L   429.18,    78.27  L   454.67,    78.27  L   454.67,    35.78  L   429.18,    35.78 " /></a><a ewd:figtype="conn" style="cursor:pointer;" ewd:code="S7,S8" ewd:figID="2"><path style="fill:#CCECF4;stroke:#000000; stroke-width:1.133; stroke-linecap:round;stroke-linejoin:round; " d=" M   467.42,   282.24  L   424.93,   282.24  L   424.93,   358.73  L   467.42,   358.73  L   467.42,   282.24 " /><title ewd:textID="34">No. 3 Room Light Assembly</title></a><a ewd:figtype="conn" style="cursor:pointer;" ewd:code="Y4" ewd:figID="3"><path style="fill:#CCECF4;stroke:#000000; stroke-width:1.133; stroke-linecap:round;stroke-linejoin:round; " d=" M   237.96,   367.22  L   237.96,   452.21  L   297.45,   452.21  L   297.45,   367.22  L   237.96,   367.22 " /><title ewd:textID="33">No. 2 Room Light Assembly</title></a><a ewd:figtype="conn" style="cursor:pointer;" ewd:code="Y1,Y2" ewd:figID="4"><path style="fill:#CCECF4;stroke:#000000; stroke-width:1.133; stroke-linecap:round;stroke-linejoin:round; " d=" M   331.44,   367.22  L   331.44,   452.21  L   390.93,   452.21  L   390.93,   367.22  L   331.44,   367.22 " /><title ewd:textID="34">No. 3 Room Light Assembly</title></a><a ewd:figtype="conn" style="cursor:pointer;" ewd:code="Y6" ewd:figID="5"><path style="fill:#CCECF4;stroke:#000000; stroke-width:1.133; stroke-linecap:round;stroke-linejoin:round; " d=" M   144.48,   367.22  L   144.48,   452.21  L   203.97,   452.21  L   203.97,   367.22  L   144.48,   367.22 " /><title ewd:textID="32">No. 1 Room Light Assembly</title></a><a ewd:figtype="conn" style="cursor:pointer;" ewd:code="Y5" ewd:figID="6"><path style="fill:#CCECF4;stroke:#000000; stroke-width:1.133; stroke-linecap:round;stroke-linejoin:round; " d=" M    50.99,   367.22  L    50.99,   452.21  L   110.48,   452.21  L   110.48,   367.22  L    50.99,   367.22 " /><title ewd:textID="32">No. 1 Room Light Assembly</title></a><a ewd:figtype="conn" style="cursor:pointer;" ewd:code="I21" ewd:figID="7"><path style="fill:#CCECF4;stroke:#000000; stroke-width:1.133; stroke-linecap:round;stroke-linejoin:round; " d=" M   560.91,   231.25  L   577.90,   231.25  L   577.90,   205.75  L   560.91,   205.75  L   560.91,   231.25 " /><title ewd:textID="28">Diode (Interior Light)</title></a><a ewd:figtype="conn" style="cursor:pointer;" ewd:code="I20" ewd:figID="8"><path style="fill:#CCECF4;stroke:#000000; stroke-width:1.133; stroke-linecap:round;stroke-linejoin:round; " d=" M   722.38,   231.25  L   739.38,   231.25  L   739.38,   205.75  L   722.38,   205.75  L   722.38,   231.25 " /><title ewd:textID="27">Diode (Door Courtesy)</title></a><a ewd:figtype="conn" style="cursor:pointer;" ewd:code="I67" ewd:figID="9"><path style="fill:#CCECF4;stroke:#000000; stroke-width:1.133; stroke-linecap:round;stroke-linejoin:round; " d=" M   722.38,   290.74  L   739.38,   290.74  L   739.38,   307.73  L   722.38,   307.73  L   722.38,   290.74 " /><title ewd:textID="38">No. 16 Junction Connector</title></a><a ewd:figtype="conn" style="cursor:pointer;" ewd:code="S6,S29" ewd:figID="10"><path style="fill:#CCECF4;stroke:#000000; stroke-width:1.133; stroke-linecap:round;stroke-linejoin:round; " d=" M   739.38,   554.19  L   739.38,   520.20  L   722.38,   520.20  L   722.38,   554.19  L   739.38,   554.19 " /><title ewd:textID="30">Front Door Courtesy Light Switch Assembly LH</title></a><a ewd:figtype="conn" style="cursor:pointer;" ewd:code="U1" ewd:figID="11"><path style="fill:#CCECF4;stroke:#000000; stroke-width:1.133; stroke-linecap:round;stroke-linejoin:round; " d=" M   807.37,   554.19  L   807.37,   520.20  L   790.37,   520.20  L   790.37,   554.19  L   807.37,   554.19 " /><title ewd:textID="30">Front Door Courtesy Light Switch Assembly LH</title></a><a ewd:figtype="conn" style="cursor:pointer;" ewd:code="I61" ewd:figID="12"><path style="fill:#CCECF4;stroke:#000000; stroke-width:1.133; stroke-linecap:round;stroke-linejoin:round; " d=" M   917.85,   239.75  L   934.84,   239.75  L   934.84,   256.74  L   917.85,   256.74  L   917.85,   239.75 " /><title ewd:textID="37">No. 11 Junction Connector</title></a><a ewd:figtype="conn" style="cursor:pointer;" ewd:code="S4,S20" ewd:figID="13"><path style="fill:#CCECF4;stroke:#000000; stroke-width:1.133; stroke-linecap:round;stroke-linejoin:round; " d=" M  1155.81,   409.72  L  1155.81,   375.72  L  1138.81,   375.72  L  1138.81,   409.72  L  1155.81,   409.72 " /><title ewd:textID="31">Front Door Courtesy Light Switch Assembly RH</title></a><a ewd:figtype="conn" style="cursor:pointer;" ewd:code="S13,S16" ewd:figID="14"><path style="fill:#CCECF4;stroke:#000000; stroke-width:1.133; stroke-linecap:round;stroke-linejoin:round; " d=" M  1223.80,   409.72  L  1223.80,   375.72  L  1206.80,   375.72  L  1206.80,   409.72  L  1223.80,   409.72 " /><title ewd:textID="45">Rear Door Courtesy Light Switch Assembly RH</title></a><a ewd:figtype="conn" style="cursor:pointer;" ewd:code="U2,U3" ewd:figID="15"><path style="fill:#CCECF4;stroke:#000000; stroke-width:1.133; stroke-linecap:round;stroke-linejoin:round; " d=" M  1291.78,   409.72  L  1291.78,   375.72  L  1274.79,   375.72  L  1274.79,   409.72  L  1291.78,   409.72 " /><title ewd:textID="44">Rear Door Courtesy Light Switch Assembly LH</title></a><a ewd:figtype="conn" style="cursor:pointer;" ewd:code="b3" ewd:figID="16"><path style="fill:#CCECF4;stroke:#000000; stroke-width:1.133; stroke-linecap:round;stroke-linejoin:round; " d=" M  1359.77,   409.72  L  1359.77,   375.72  L  1342.78,   375.72  L  1342.78,   409.72  L  1359.77,   409.72 " /><title ewd:textID="25">Back Door Courtesy Light Switch Assembly</title></a><a ewd:figtype="rb" style="cursor:pointer;" ewd:code="FUSE16" ewd:figID="17"><path style="fill:#CCECF4;stroke:#000000; stroke-width:0; stroke-linecap:round;stroke-linejoin:round; " d=" M  2009.91,    35.78  L  2009.91,    78.27  L  2035.41,    78.27  L  2035.41,    35.78  L  2009.91,    35.78 " /></a><a ewd:figtype="conn" style="cursor:pointer;" ewd:code="L35,L36" ewd:figID="18"><path style="fill:#CCECF4;stroke:#000000; stroke-width:1.133; stroke-linecap:round;stroke-linejoin:round; " d=" M   892.35,   520.20  L   892.35,   537.20  L   909.35,   537.20  L   909.35,   520.20  L   892.35,   520.20 " /><title ewd:textID="41">No. 27 Junction Connector , No. 28 Junction Connector</title></a><a ewd:figtype="conn" style="cursor:pointer;" ewd:code="L25" ewd:figID="19"><path style="fill:#CCECF4;stroke:#000000; stroke-width:1.133; stroke-linecap:round;stroke-linejoin:round; " d=" M  1623.23,   154.76  L  1623.23,   333.23  L  1861.19,   333.23  L  1861.19,   154.76  L  1623.23,   154.76 " /><title ewd:textID="26">Combination Meter Assembly</title></a><a ewd:figtype="conn" style="cursor:pointer;" ewd:code="I72,I106,I118" ewd:figID="20"><path style="fill:#CCECF4;stroke:#000000; stroke-width:1.133; stroke-linecap:round;stroke-linejoin:round; " d=" M  1937.68,   112.27  L  1954.67,   112.27  L  1954.67,   129.26  L  1937.68,   129.26  L  1937.68,   112.27 " /><title ewd:textID="36">No. 9 Junction Connector , No. 36 Junction Connector , No. 21 Junction Connector</title></a><a ewd:figtype="fuse" style="cursor:pointer;" ewd:code="FUSE5" ewd:figID="76"><path style="&st7; stroke-width:0;" d=" M   429.18,    35.78  L   429.18,    78.27  L   454.67,    78.27  L   454.67,    35.78  L   429.18,    35.78 " /></a><a ewd:figtype="fuse" style="cursor:pointer;" ewd:code="FUSE16" ewd:figID="77"><path style="&st7; stroke-width:0;" d=" M  2009.91,    35.78  L  2009.91,    78.27  L  2035.41,    78.27  L  2035.41,    35.78  L  2009.91,    35.78 " /></a><a ewd:comment="3" style="cursor:pointer;" ewd:lineID="1"><path style="stroke:#F668B2;stroke-width:5.10 ;&st6;" d=" M    59.49,   452.21  L    59.49,   460.71  L    50.99,   469.21  L    25.50,   469.21  L    25.50,   579.69  " /></a><a ewd:comment="28,19,28,20" style="cursor:pointer;" ewd:lineID="2"><path style="stroke:#F668B2;stroke-width:5.10 ;&st6;" d=" M    59.49,   452.21  L    59.49,   579.69  " /></a><a ewd:comment="29,19,29,20" style="cursor:pointer;" ewd:lineID="3"><path style="stroke:#99D9E8;stroke-width:5.10 ;&st6;" d=" M    59.49,   452.21  L    59.49,   460.71  L    76.49,   477.71  L    93.48,   477.71  L    93.48,   545.69  L    76.49,   545.69  L    59.49,   571.19  L    59.49,   579.69  " /></a><a ewd:comment="20" style="cursor:pointer;" ewd:lineID="4"><path style="stroke:#000000;stroke-width:5.10 ;&st6;" d=" M    67.99,   248.24  L    67.99,   256.74  L    59.49,   265.24  L    42.49,   265.24  L    42.49,   350.23  L    59.49,   350.23  L    67.99,   358.73  L    67.99,   367.22  " /><path style="stroke:#FFFFFF;stroke-width:1.13 ;&st6;" d=" M    67.99,   248.24  L    67.99,   256.74  L    59.49,   265.24  L    42.49,   265.24  L    42.49,   350.23  L    59.49,   350.23  L    67.99,   358.73  L    67.99,   367.22  " /></a><a ewd:comment="28,19" style="cursor:pointer;" ewd:lineID="5"><path style="stroke:#F668B2;stroke-width:5.10 ;&st6;" d=" M    67.99,   248.24  L    67.99,   367.22  " /></a><a ewd:comment="29,19" style="cursor:pointer;" ewd:lineID="6"><path style="stroke:#FF0000;stroke-width:5.10 ;&st6;" d=" M    67.99,   248.24  L    67.99,   256.74  L    84.99,   282.24  L   101.98,   282.24  L   101.98,   333.23  L    84.99,   333.23  L    67.99,   358.73  L    67.99,   367.22  " /></a><a ewd:comment="3" style="cursor:pointer;" ewd:lineID="7"><path style="stroke:#000000;stroke-width:5.10 ;&st6;" d=" M   127.48,   248.24  L   127.48,   350.23  L    93.48,   350.23  L    67.99,   358.73  L    67.99,   367.22  " /><path style="stroke:#FFFFFF;stroke-width:1.13 ;&st6;" d=" M   127.48,   248.24  L   127.48,   350.23  L    93.48,   350.23  L    67.99,   358.73  L    67.99,   367.22  " /></a><a ewd:comment="3" style="cursor:pointer;" ewd:lineID="8"><path style="stroke:#FF0000;stroke-width:5.10 ;&st6;" d=" M   127.48,   233.51  L   127.48,   205.75  L   433.43,   205.75  L   441.93,   197.25  L   441.93,   194.99  " /></a><a ewd:comment="18" style="cursor:pointer;" ewd:lineID="9"><path style="stroke:#F668B2;stroke-width:5.10 ;&st6;" d=" M   152.97,   452.21  L   152.97,   520.20  L   237.96,   520.20  " /></a><a ewd:comment="17,18" style="cursor:pointer;" ewd:lineID="10"><path style="stroke:#F668B2;stroke-width:5.10 ;&st6;" d=" M   246.46,   528.70  L   246.46,   562.69  L    84.99,   562.69  L    59.49,   571.19  L    59.49,   579.69  " /></a><a ewd:comment="17,18" style="cursor:pointer;" ewd:lineID="11"><path style="stroke:#F668B2;stroke-width:5.10 ;&st6;" d=" M   246.46,   452.21  L   246.46,   511.70  " /></a><a ewd:comment="18" style="cursor:pointer;" ewd:lineID="12"><path style="stroke:#FF0000;stroke-width:5.10 ;&st6;" d=" M   246.46,   299.24  L   161.47,   299.24  L   161.47,   367.22  " /></a><a ewd:comment="17,18" style="cursor:pointer;" ewd:lineID="13"><path style="stroke:#FF0000;stroke-width:5.10 ;&st6;" d=" M   254.96,   307.73  L   254.96,   367.22  " /></a><a ewd:comment="17,18" style="cursor:pointer;" ewd:lineID="14"><path style="stroke:#FF0000;stroke-width:5.10 ;&st6;" d=" M   254.96,   290.74  L   254.96,   265.24  L    93.48,   265.24  L    67.99,   256.74  L    67.99,   248.24  " /></a><a ewd:comment="17" style="cursor:pointer;" ewd:lineID="15"><path style="stroke:#FF0000;stroke-width:5.10 ;&st6;" d=" M   263.46,   299.24  L   348.44,   299.24  L   348.44,   358.16  " /></a><a ewd:comment="17" style="cursor:pointer;" ewd:lineID="16"><path style="stroke:#F668B2;stroke-width:5.10 ;&st6;" d=" M   339.94,   461.27  L   339.94,   520.20  L   254.96,   520.20  " /></a><a ewd:comment="5" style="cursor:pointer;" ewd:lineID="17"><path style="stroke:#F668B2;stroke-width:5.10 ;&st6;" d=" M   433.43,   367.79  L   433.43,   435.21  L   569.40,   435.21  L   569.40,   373.46  " /></a><a ewd:comment="17,18,19,20" style="cursor:pointer;" ewd:lineID="18"><path style="stroke:#FF0000;stroke-width:5.10 ;&st6;" d=" M   433.43,   137.76  L    67.99,   137.76  L    67.99,   225.01  " /></a><a ewd:comment="5" style="cursor:pointer;" ewd:lineID="19"><path style="stroke:#FF0000;stroke-width:5.10 ;&st6;" d=" M   441.93,   194.99  L   441.93,   273.17  " /></a><a ewd:comment="3,5" style="cursor:pointer;" ewd:lineID="20"><path style="stroke:#FF0000;stroke-width:5.10 ;&st6;" d=" M   441.93,   146.26  L   441.93,   180.26  " /></a><a style="cursor:pointer;" ewd:lineID="21"><path style="stroke:#FF0000;stroke-width:5.10 ;&st6;" d=" M   441.93,   103.77  L   441.93,   129.26  " /></a><a style="cursor:pointer;" ewd:lineID="22"><path style="stroke:#FF0000;stroke-width:5.10 ;&st6;" d=" M   450.42,   137.76  L   577.90,   137.76  L   577.90,    35.78  L  1648.72,    35.78  L  1648.72,    86.77  " /></a><a ewd:comment="3" style="cursor:pointer;" ewd:lineID="23"><path style="stroke:#F668B2;stroke-width:5.10 ;&st6;" d=" M   569.40,   373.46  L   569.40,   375.72  L   577.90,   384.22  L   594.90,   384.22  L   594.90,   647.68  L    25.50,   647.68  L    25.50,   594.42  " /></a><a ewd:comment="3,5" style="cursor:pointer;" ewd:lineID="24"><path style="stroke:#F668B2;stroke-width:5.10 ;&st6;" d=" M   569.40,   299.24  L   569.40,   358.73  " /></a><a style="cursor:pointer;" ewd:lineID="25"><path style="stroke:#F668B2;stroke-width:5.10 ;&st6;" d=" M   569.40,   231.25  L   569.40,   282.24  " /></a><a style="cursor:pointer;" ewd:lineID="26"><path style="stroke:#000000;stroke-width:5.10 ;&st6;" d=" M   569.40,   205.75  L   569.40,   154.76  L   654.39,   154.76  " /></a><a ewd:comment="17,18,19,20" style="cursor:pointer;" ewd:lineID="27"><path style="stroke:#F668B2;stroke-width:5.10 ;&st6;" d=" M   577.90,   290.74  L   628.89,   290.74  L   628.89,   622.18  L    59.49,   622.18  L    59.49,   602.92  " /></a><a style="cursor:pointer;" ewd:lineID="28"><path style="stroke:#000000;stroke-width:5.10 ;&st6;" d=" M   656.88,   148.75  L   637.39,   129.26  L   637.39,    61.28  L  1495.75,    61.28  L  1495.75,   188.75  " /></a><a ewd:comment="7" style="cursor:pointer;" ewd:lineID="29"><path style="stroke:#000000;stroke-width:5.10 ;&st6;" d=" M   662.89,   367.22  L   662.89,   401.22  L   722.38,   401.22  L   730.88,   409.72  L   730.88,   418.22  " /></a><a style="cursor:pointer;" ewd:lineID="30"><path style="stroke:#000000;stroke-width:5.10 ;&st6;" d=" M   662.89,   163.26  L   662.89,   350.23  " /></a><a style="cursor:pointer;" ewd:lineID="31"><path style="stroke:#000000;stroke-width:5.10 ;&st6;" d=" M   662.89,   146.26  L   662.89,   103.77  L  1206.80,   103.77  " /></a><a style="cursor:pointer;" ewd:lineID="32"><path style="stroke:#000000;stroke-width:5.10 ;&st6;" d=" M   668.90,   148.75  L   688.38,   129.26  L  1147.31,   129.26  L  1147.31,   188.75  " /></a><a ewd:comment="9" style="cursor:pointer;" ewd:lineID="33"><path style="stroke:#000000;stroke-width:5.10 ;&st6;" d=" M   671.39,   358.73  L   773.37,   358.73  L   773.37,   401.22  L   790.37,   401.22  L   798.87,   409.72  L   798.87,   411.98  " /></a><a style="cursor:pointer;" ewd:lineID="34"><path style="stroke:#000000;stroke-width:5.10 ;&st6;" d=" M   671.39,   154.76  L   730.88,   154.76  L   730.88,   205.75  " /></a><a ewd:comment="21" style="cursor:pointer;" ewd:lineID="35"><path style="stroke:#000000;stroke-width:5.10 ;&st6;" d=" M   730.88,   432.95  L   730.88,   502.07  " /></a><a ewd:comment="6" style="cursor:pointer;" ewd:lineID="36"><path style="stroke:#000000;stroke-width:5.10 ;&st6;" d=" M   730.88,   325.86  L   730.88,   418.22  " /><path style="stroke:#FFFFFF;stroke-width:1.13 ;&st6;" d=" M   730.88,   325.86  L   730.88,   418.22  " /></a><a ewd:comment="8" style="cursor:pointer;" ewd:lineID="37"><path style="stroke:#000000;stroke-width:5.10 ;&st6;" d=" M   730.88,   325.86  L   730.88,   333.23  L   739.38,   341.73  L   798.87,   341.73  L   798.87,   411.70  " /><path style="stroke:#FFFFFF;stroke-width:1.13 ;&st6;" d=" M   730.88,   325.86  L   730.88,   333.23  L   739.38,   341.73  L   798.87,   341.73  L   798.87,   411.70  " /></a><a style="cursor:pointer;" ewd:lineID="38"><path style="stroke:#000000;stroke-width:5.10 ;&st6;" d=" M   730.88,   231.25  L   730.88,   281.67  " /><path style="stroke:#FFFFFF;stroke-width:1.13 ;&st6;" d=" M   730.88,   231.25  L   730.88,   281.67  " /></a><a style="cursor:pointer;" ewd:lineID="39"><path style="stroke:#000000;stroke-width:5.10 ;&st6;" d=" M   730.88,   231.25  L   730.88,   239.75  L   739.38,   248.24  L   908.78,   248.24  " /><path style="stroke:#FFFFFF;stroke-width:1.13 ;&st6;" d=" M   730.88,   231.25  L   730.88,   239.75  L   739.38,   248.24  L   908.78,   248.24  " /></a><a style="cursor:pointer;" ewd:lineID="40"><path style="stroke:#000000;stroke-width:5.10 ;&st6;" d=" M   748.44,   299.24  L   900.85,   299.24  L   900.85,   411.70  " /><path style="stroke:#FFFFFF;stroke-width:1.13 ;&st6;" d=" M   748.44,   299.24  L   900.85,   299.24  L   900.85,   411.70  " /></a><a ewd:comment="22" style="cursor:pointer;" ewd:lineID="41"><path style="stroke:#000000;stroke-width:5.10 ;&st6;" d=" M   798.87,   435.21  L   798.87,   520.20  " /></a><a style="cursor:pointer;" ewd:lineID="42"><path style="stroke:#000000;stroke-width:5.10 ;&st6;" d=" M   900.85,   555.33  L   900.85,   664.67  L  1691.22,   664.67  L  1691.22,   342.29  " /><path style="stroke:#FFFFFF;stroke-width:1.13 ;&st6;" d=" M   900.85,   555.33  L   900.85,   664.67  L  1691.22,   664.67  L  1691.22,   342.29  " /></a><a style="cursor:pointer;" ewd:lineID="43"><path style="stroke:#000000;stroke-width:5.10 ;&st6;" d=" M   900.85,   502.07  L   900.85,   426.71  " /><path style="stroke:#FFFFFF;stroke-width:1.13 ;&st6;" d=" M   900.85,   502.07  L   900.85,   426.71  " /></a><a style="cursor:pointer;" ewd:lineID="44"><path style="stroke:#000000;stroke-width:5.10 ;&st6;" d=" M   926.35,   265.81  L   926.35,   401.22  L   909.35,   401.22  L   900.85,   409.72  L   900.85,   411.70  " /><path style="stroke:#FFFFFF;stroke-width:1.13 ;&st6;" d=" M   926.35,   265.81  L   926.35,   401.22  L   909.35,   401.22  L   900.85,   409.72  L   900.85,   411.70  " /></a><a style="cursor:pointer;" ewd:lineID="45"><path style="stroke:#000000;stroke-width:5.10 ;&st6;" d=" M   926.35,   230.68  L   926.35,   171.76  L  1138.81,   171.76  L  1147.31,   180.26  L  1147.31,   188.75  " /><path style="stroke:#FFFFFF;stroke-width:1.13 ;&st6;" d=" M   926.35,   230.68  L   926.35,   171.76  L  1138.81,   171.76  L  1147.31,   180.26  L  1147.31,   188.75  " /></a><a style="cursor:pointer;" ewd:lineID="46"><path style="stroke:#000000;stroke-width:5.10 ;&st6;" d=" M  1147.31,   203.48  L  1147.31,   357.59  " /><path style="stroke:#FFFFFF;stroke-width:1.13 ;&st6;" d=" M  1147.31,   203.48  L  1147.31,   357.59  " /></a><a ewd:comment="4" style="cursor:pointer;" ewd:lineID="47"><path style="stroke:#000000;stroke-width:5.10 ;&st6;" d=" M  1215.30,   203.48  L  1215.30,   357.59  " /></a><a ewd:comment="4" style="cursor:pointer;" ewd:lineID="48"><path style="stroke:#000000;stroke-width:5.10 ;&st6;" d=" M  1215.30,   112.27  L  1215.30,   188.75  " /></a><a ewd:comment="4" style="cursor:pointer;" ewd:lineID="49"><path style="stroke:#000000;stroke-width:5.10 ;&st6;" d=" M  1221.31,   109.78  L  1232.29,   120.77  L  1283.29,   120.77  L  1283.29,   182.52  " /></a><a ewd:comment="2" style="cursor:pointer;" ewd:lineID="50"><path style="stroke:#000000;stroke-width:5.10 ;&st6;" d=" M  1223.80,   103.77  L  1351.27,   103.77  L  1351.27,   188.75  " /></a><a ewd:comment="4" style="cursor:pointer;" ewd:lineID="51"><path style="stroke:#000000;stroke-width:5.10 ;&st6;" d=" M  1283.29,   205.75  L  1283.29,   357.59  " /><path style="stroke:#FFFFFF;stroke-width:1.13 ;&st6;" d=" M  1283.29,   205.75  L  1283.29,   357.59  " /></a><a ewd:comment="2" style="cursor:pointer;" ewd:lineID="52"><path style="stroke:#000000;stroke-width:5.10 ;&st6;" d=" M  1351.27,   579.69  L  1351.27,   681.67  " /><path style="stroke:#FFFFFF;stroke-width:4.53 ;&st6;" d=" M  1351.27,   579.69  L  1351.27,   681.67  " /><path style="stroke:#000000;stroke-width:1.13 ;&st6;" d=" M  1351.27,   579.69  L  1351.27,   681.67  " /></a><a ewd:comment="2" style="cursor:pointer;" ewd:lineID="53"><path style="stroke:#000000;stroke-width:5.10 ;&st6;" d=" M  1351.27,   517.93  L  1351.27,   562.69  " /><path style="stroke:#FFFFFF;stroke-width:4.53 ;&st6;" d=" M  1351.27,   517.93  L  1351.27,   562.69  " /><path style="stroke:#000000;stroke-width:1.13 ;&st6;" d=" M  1351.27,   517.93  L  1351.27,   562.69  " /></a><a ewd:comment="2" style="cursor:pointer;" ewd:lineID="54"><path style="stroke:#000000;stroke-width:5.10 ;&st6;" d=" M  1351.27,   469.21  L  1351.27,   503.20  " /><path style="stroke:#FFFFFF;stroke-width:4.53 ;&st6;" d=" M  1351.27,   469.21  L  1351.27,   503.20  " /><path style="stroke:#000000;stroke-width:1.13 ;&st6;" d=" M  1351.27,   469.21  L  1351.27,   503.20  " /></a><a ewd:comment="2" style="cursor:pointer;" ewd:lineID="55"><path style="stroke:#000000;stroke-width:5.10 ;&st6;" d=" M  1351.27,   409.72  L  1351.27,   452.21  " /><path style="stroke:#FFFFFF;stroke-width:4.53 ;&st6;" d=" M  1351.27,   409.72  L  1351.27,   452.21  " /><path style="stroke:#000000;stroke-width:1.13 ;&st6;" d=" M  1351.27,   409.72  L  1351.27,   452.21  " /></a><a ewd:comment="2" style="cursor:pointer;" ewd:lineID="56"><path style="stroke:#000000;stroke-width:5.10 ;&st6;" d=" M  1351.27,   307.73  L  1351.27,   375.72  " /></a><a ewd:comment="2" style="cursor:pointer;" ewd:lineID="57"><path style="stroke:#000000;stroke-width:5.10 ;&st6;" d=" M  1351.27,   256.74  L  1351.27,   293.00  " /></a><a ewd:comment="2" style="cursor:pointer;" ewd:lineID="58"><path style="stroke:#000000;stroke-width:5.10 ;&st6;" d=" M  1351.27,   203.48  L  1351.27,   242.01  " /></a><a style="cursor:pointer;" ewd:lineID="59"><path style="stroke:#000000;stroke-width:5.10 ;&st6;" d=" M  1648.72,   342.29  L  1648.72,   392.72  L  1495.75,   392.72  L  1495.75,   211.98  " /></a><a style="cursor:pointer;" ewd:lineID="60"><path style="stroke:#FF0000;stroke-width:5.10 ;&st6;" d=" M  1648.72,   145.69  L  1648.72,   110.00  " /></a><a ewd:comment="12" style="cursor:pointer;" ewd:lineID="61"><path style="stroke:#992903;stroke-width:5.10 ;&st6;" d=" M  1750.71,   571.19  L  1750.71,   681.67  " /></a><a ewd:comment="12" style="cursor:pointer;" ewd:lineID="62"><path style="stroke:#992903;stroke-width:5.10 ;&st6;" d=" M  1750.71,   556.46  L  1750.71,   520.20  L  1793.20,   520.20  L  1801.70,   511.70  L  1801.70,   503.20  " /></a><a style="cursor:pointer;" ewd:lineID="63"><path style="stroke:#000000;stroke-width:5.10 ;&st6;" d=" M  1793.20,   110.28  L  1793.20,   129.26  L  1827.19,   129.26  L  1835.69,   137.76  L  1835.69,   145.69  " /><path style="stroke:#FFFFFF;stroke-width:2.27 ;&st6;" d=" M  1793.20,   110.28  L  1793.20,   129.26  L  1827.19,   129.26  L  1835.69,   137.76  L  1835.69,   145.69  " /><path style="stroke:#FFE600;stroke-width:1.13 ;&st6;" d=" M  1793.20,   110.28  L  1793.20,   129.26  L  1827.19,   129.26  L  1835.69,   137.76  L  1835.69,   145.69  " /></a><a ewd:comment="11" style="cursor:pointer;" ewd:lineID="64"><path style="stroke:#992903;stroke-width:5.10 ;&st6;" d=" M  1801.70,   639.18  L  1801.70,   681.67  " /></a><a ewd:comment="11" style="cursor:pointer;" ewd:lineID="65"><path style="stroke:#992903;stroke-width:5.10 ;&st6;" d=" M  1801.70,   577.42  L  1801.70,   622.18  " /></a><a ewd:comment="11" style="cursor:pointer;" ewd:lineID="66"><path style="stroke:#992903;stroke-width:5.10 ;&st6;" d=" M  1801.70,   562.69  L  1801.70,   503.20  " /></a><a ewd:comment="12,14" style="cursor:pointer;" ewd:lineID="67"><path style="stroke:#992903;stroke-width:5.10 ;&st6;" d=" M  1801.70,   462.97  L  1801.70,   460.71  L  1810.20,   452.21  L  1869.69,   452.21  L  1869.69,   435.21  L  1880.67,   424.23  " /></a><a ewd:comment="15" style="cursor:pointer;" ewd:lineID="68"><path style="stroke:#992903;stroke-width:5.10 ;&st6;" d=" M  1801.70,   401.22  L  1801.70,   462.97  " /></a><a ewd:comment="13" style="cursor:pointer;" ewd:lineID="69"><path style="stroke:#992903;stroke-width:5.10 ;&st6;" d=" M  1801.70,   401.22  L  1801.70,   409.72  L  1810.20,   418.22  L  1878.19,   418.22  " /></a><a style="cursor:pointer;" ewd:lineID="70"><path style="stroke:#992903;stroke-width:5.10 ;&st6;" d=" M  1801.70,   342.29  L  1801.70,   377.99  " /></a><a style="cursor:pointer;" ewd:lineID="71"><path style="stroke:#000000;stroke-width:5.10 ;&st6;" d=" M  1835.69,   103.77  L  1835.69,   145.69  " /><path style="stroke:#FFFFFF;stroke-width:2.27 ;&st6;" d=" M  1835.69,   103.77  L  1835.69,   145.69  " /><path style="stroke:#FFE600;stroke-width:1.13 ;&st6;" d=" M  1835.69,   103.77  L  1835.69,   145.69  " /></a><a style="cursor:pointer;" ewd:lineID="72"><path style="stroke:#000000;stroke-width:5.10 ;&st6;" d=" M  1835.69,    88.75  L  1835.69,    52.78  L  1946.17,    52.78  L  1946.17,    85.07  " /><path style="stroke:#FFFFFF;stroke-width:2.27 ;&st6;" d=" M  1835.69,    88.75  L  1835.69,    52.78  L  1946.17,    52.78  L  1946.17,    85.07  " /><path style="stroke:#FFE600;stroke-width:1.13 ;&st6;" d=" M  1835.69,    88.75  L  1835.69,    52.78  L  1946.17,    52.78  L  1946.17,    85.07  " /></a><a ewd:comment="10" style="cursor:pointer;" ewd:lineID="73"><path style="stroke:#992903;stroke-width:5.10 ;&st6;" d=" M  1886.68,   639.18  L  1886.68,   681.67  " /></a><a ewd:comment="10" style="cursor:pointer;" ewd:lineID="74"><path style="stroke:#992903;stroke-width:5.10 ;&st6;" d=" M  1886.68,   585.92  L  1886.68,   622.18  " /></a><a ewd:comment="10" style="cursor:pointer;" ewd:lineID="75"><path style="stroke:#992903;stroke-width:5.10 ;&st6;" d=" M  1886.68,   562.69  L  1886.68,   554.19  L  1895.18,   545.69  L  1929.18,   545.69  L  1929.18,   477.71  " /></a><a ewd:comment="10" style="cursor:pointer;" ewd:lineID="76"><path style="stroke:#992903;stroke-width:5.10 ;&st6;" d=" M  1886.68,   426.71  L  1886.68,   562.69  " /></a><a ewd:comment="10" style="cursor:pointer;" ewd:lineID="77"><path style="stroke:#992903;stroke-width:5.10 ;&st6;" d=" M  1895.18,   418.22  L  1929.18,   418.22  L  1929.18,   462.97  " /></a><a style="cursor:pointer;" ewd:lineID="78"><path style="stroke:#000000;stroke-width:5.10 ;&st6;" d=" M  1946.17,    85.07  L  1946.17,    78.27  L  1954.67,    69.77  L  1971.67,    69.77  L  1971.67,    35.78  L  1793.20,    35.78  L  1793.20,    95.27  " /><path style="stroke:#FFFFFF;stroke-width:2.27 ;&st6;" d=" M  1946.17,    85.07  L  1946.17,    78.27  L  1954.67,    69.77  L  1971.67,    69.77  L  1971.67,    35.78  L  1793.20,    35.78  L  1793.20,    95.27  " /><path style="stroke:#FFE600;stroke-width:1.13 ;&st6;" d=" M  1946.17,    85.07  L  1946.17,    78.27  L  1954.67,    69.77  L  1971.67,    69.77  L  1971.67,    35.78  L  1793.20,    35.78  L  1793.20,    95.27  " /></a><a style="cursor:pointer;" ewd:lineID="79"><path style="stroke:#000000;stroke-width:5.10 ;&st6;" d=" M  2022.66,   103.77  L  2022.66,   180.26  L  1946.17,   180.26  L  1946.17,   156.46  " /><path style="stroke:#FFFFFF;stroke-width:2.27 ;&st6;" d=" M  2022.66,   103.77  L  2022.66,   180.26  L  1946.17,   180.26  L  1946.17,   156.46  " /><path style="stroke:#FFE600;stroke-width:1.13 ;&st6;" d=" M  2022.66,   103.77  L  2022.66,   180.26  L  1946.17,   180.26  L  1946.17,   156.46  " /></a><a ewd:figtype="w2w" style="cursor:pointer;" ewd:pinNo="4" ewd:code="YS4" ewd:figID="23"><path style="&st2;" d=" M    33.99,   579.69  L    17.00,   579.69  L    17.00,   588.19  L    33.99,   588.19  L    33.99,   579.69 " /><text style="&st8;" transform="matrix(&st16;  20.6  586.06 )"><tspan x="0" style="&st18;" y="0">YS4</tspan></text></a><a ewd:figtype="w2w" style="cursor:pointer;" ewd:pinNo="4" ewd:code="YI3" ewd:figID="24"><path style="&st2;" d=" M    67.99,   588.19  L    50.99,   588.19  L    50.99,   596.69  L    67.99,   596.69  L    67.99,   588.19 " /><text style="&st8;" transform="matrix(&st16;  55.24  594.56 )"><tspan x="0" style="&st18;" y="0">YI3</tspan></text></a><a ewd:figtype="w2w" style="cursor:pointer;" ewd:pinNo="4" ewd:code="YI2" ewd:figID="25"><path style="&st2;" d=" M    67.99,   579.69  L    50.99,   579.69  L    50.99,   588.19  L    67.99,   588.19  L    67.99,   579.69 " /><text style="&st8;" transform="matrix(&st16;  55.24  586.06 )"><tspan x="0" style="&st18;" y="0">YI2</tspan></text></a><a ewd:figtype="w2w" style="cursor:pointer;" ewd:pinNo="10" ewd:code="YI3" ewd:figID="26"><path style="&st2;" d=" M    76.49,   239.75  L    59.49,   239.75  L    59.49,   248.24  L    76.49,   248.24  L    76.49,   239.75 " /><text style="&st8;" transform="matrix(&st16;  63.74  246.11 )"><tspan x="0" style="&st18;" y="0">YI3</tspan></text></a><a ewd:figtype="w2w" style="cursor:pointer;" ewd:pinNo="3" ewd:code="YI2" ewd:figID="27"><path style="&st2;" d=" M    76.49,   231.25  L    59.49,   231.25  L    59.49,   239.75  L    76.49,   239.75  L    76.49,   231.25 " /><text style="&st8;" transform="matrix(&st16;  63.74  237.62 )"><tspan x="0" style="&st18;" y="0">YI2</tspan></text></a><a ewd:figtype="w2w" style="cursor:pointer;" ewd:pinNo="3" ewd:code="YS4" ewd:figID="28"><path style="&st2;" d=" M   135.98,   239.75  L   118.98,   239.75  L   118.98,   248.24  L   135.98,   248.24  L   135.98,   239.75 " /><text style="&st8;" transform="matrix(&st16;  122.59  246.11 )"><tspan x="0" style="&st18;" y="0">YS4</tspan></text></a><a ewd:figtype="w2w" style="cursor:pointer;" ewd:pinNo="16" ewd:code="IS3" ewd:figID="29"><path style="&st2;" d=" M   450.42,   180.26  L   433.43,   180.26  L   433.43,   188.75  L   450.42,   188.75  L   450.42,   180.26 " /><text style="&st8;" transform="matrix(&st16;  438.05  186.62 )"><tspan x="0" style="&st18;" y="0">IS3</tspan></text></a><a ewd:figtype="w2w" style="cursor:pointer;" ewd:pinNo="17" ewd:code="IS3" ewd:figID="30"><path style="&st2;" d=" M   577.90,   358.73  L   560.91,   358.73  L   560.91,   367.22  L   577.90,   367.22  L   577.90,   358.73 " /><text style="&st8;" transform="matrix(&st16;  565.53  365.09 )"><tspan x="0" style="&st18;" y="0">IS3</tspan></text></a><a ewd:figtype="w2w" style="cursor:pointer;" ewd:pinNo="6" ewd:code="IS3" ewd:figID="31"><path style="&st2;" d=" M   739.38,   418.22  L   722.38,   418.22  L   722.38,   426.71  L   739.38,   426.71  L   739.38,   418.22 " /><text style="&st8;" transform="matrix(&st16;  727.0  424.58 )"><tspan x="0" style="&st18;" y="0">IS3</tspan></text></a><a ewd:figtype="w2w" style="cursor:pointer;" ewd:pinNo="9" ewd:code="UI5" ewd:figID="32"><path style="&st2;" d=" M   807.37,   426.71  L   790.37,   426.71  L   790.37,   435.21  L   807.37,   435.21  L   807.37,   426.71 " /><text style="&st8;" transform="matrix(&st16;  794.43  433.08 )"><tspan x="0" style="&st18;" y="0">UI5</tspan></text></a><a ewd:figtype="w2w" style="cursor:pointer;" ewd:pinNo="8" ewd:code="UI4" ewd:figID="33"><path style="&st2;" d=" M   807.37,   418.22  L   790.37,   418.22  L   790.37,   426.71  L   807.37,   426.71  L   807.37,   418.22 " /><text style="&st8;" transform="matrix(&st16;  794.43  424.58 )"><tspan x="0" style="&st18;" y="0">UI4</tspan></text></a><a ewd:figtype="w2w" style="cursor:pointer;" ewd:pinNo="2" ewd:code="LI1" ewd:figID="34"><path style="&st2;" d=" M   909.35,   418.22  L   892.35,   418.22  L   892.35,   426.71  L   909.35,   426.71  L   909.35,   418.22 " /><text style="&st8;" transform="matrix(&st16;  896.71  424.58 )"><tspan x="0" style="&st18;" y="0">LI1</tspan></text></a><a ewd:figtype="w2w" style="cursor:pointer;" ewd:pinNo="10" ewd:code="IS3" ewd:figID="35"><path style="&st2;" d=" M  1155.81,   188.75  L  1138.81,   188.75  L  1138.81,   197.25  L  1155.81,   197.25  L  1155.81,   188.75 " /><text style="&st8;" transform="matrix(&st16;  1143.43  195.12 )"><tspan x="0" style="&st18;" y="0">IS3</tspan></text></a><a ewd:figtype="w2w" style="cursor:pointer;" ewd:pinNo="5" ewd:code="IS3" ewd:figID="36"><path style="&st2;" d=" M  1223.80,   188.75  L  1206.80,   188.75  L  1206.80,   197.25  L  1223.80,   197.25  L  1223.80,   188.75 " /><text style="&st8;" transform="matrix(&st16;  1211.42  195.12 )"><tspan x="0" style="&st18;" y="0">IS3</tspan></text></a><a ewd:figtype="w2w" style="cursor:pointer;" ewd:pinNo="3" ewd:code="UI5" ewd:figID="37"><path style="&st2;" d=" M  1291.78,   197.25  L  1274.79,   197.25  L  1274.79,   205.75  L  1291.78,   205.75  L  1291.78,   197.25 " /><text style="&st8;" transform="matrix(&st16;  1278.85  203.62 )"><tspan x="0" style="&st18;" y="0">UI5</tspan></text></a><a ewd:figtype="w2w" style="cursor:pointer;" ewd:pinNo="9" ewd:code="UI4" ewd:figID="38"><path style="&st2;" d=" M  1291.78,   188.75  L  1274.79,   188.75  L  1274.79,   197.25  L  1291.78,   197.25  L  1291.78,   188.75 " /><text style="&st8;" transform="matrix(&st16;  1278.85  195.12 )"><tspan x="0" style="&st18;" y="0">UI4</tspan></text></a><a ewd:figtype="w2w" style="cursor:pointer;" ewd:pinNo="2" ewd:code="bT1" ewd:figID="39"><path style="&st2;" d=" M  1359.77,   503.20  L  1342.78,   503.20  L  1342.78,   511.70  L  1359.77,   511.70  L  1359.77,   503.20 " /><text style="&st8;" transform="matrix(&st16;  1346.38  509.57 )"><tspan x="0" style="&st18;" y="0">bT1</tspan></text></a><a ewd:figtype="w2w" style="cursor:pointer;" ewd:pinNo="4" ewd:code="bT1" ewd:figID="40"><path style="&st2;" d=" M  1359.77,   299.24  L  1342.78,   299.24  L  1342.78,   307.73  L  1359.77,   307.73  L  1359.77,   299.24 " /><text style="&st8;" transform="matrix(&st16;  1346.38  305.6 )"><tspan x="0" style="&st18;" y="0">bT1</tspan></text></a><a ewd:figtype="w2w" style="cursor:pointer;" ewd:pinNo="3" ewd:code="TS2" ewd:figID="41"><path style="&st2;" d=" M  1359.77,   248.24  L  1342.78,   248.24  L  1342.78,   256.74  L  1359.77,   256.74  L  1359.77,   248.24 " /><text style="&st8;" transform="matrix(&st16;  1346.38  254.61 )"><tspan x="0" style="&st18;" y="0">TS2</tspan></text></a><a ewd:figtype="w2w" style="cursor:pointer;" ewd:pinNo="18" ewd:code="IS2" ewd:figID="42"><path style="&st2;" d=" M  1359.77,   188.75  L  1342.78,   188.75  L  1342.78,   197.25  L  1359.77,   197.25  L  1359.77,   188.75 " /><text style="&st8;" transform="matrix(&st16;  1347.4  195.12 )"><tspan x="0" style="&st18;" y="0">IS2</tspan></text></a><a ewd:figtype="w2w" style="cursor:pointer;" ewd:pinNo="9" ewd:code="IL6" ewd:figID="43"><path style="&st2;" d=" M  1504.25,   197.25  L  1487.25,   197.25  L  1487.25,   205.75  L  1504.25,   205.75  L  1504.25,   197.25 " /><text style="&st8;" transform="matrix(&st16;  1491.61  203.62 )"><tspan x="0" style="&st18;" y="0">IL6</tspan></text></a><a ewd:figtype="w2w" style="cursor:pointer;" ewd:pinNo="3" ewd:code="IL2" ewd:figID="44"><path style="&st2;" d=" M  1504.25,   188.75  L  1487.25,   188.75  L  1487.25,   197.25  L  1504.25,   197.25  L  1504.25,   188.75 " /><text style="&st8;" transform="matrix(&st16;  1491.61  195.12 )"><tspan x="0" style="&st18;" y="0">IL2</tspan></text></a><a ewd:figtype="w2w" style="cursor:pointer;" ewd:pinNo="8" ewd:code="IL6" ewd:figID="45"><path style="&st2;" d=" M  1657.22,    95.27  L  1640.23,    95.27  L  1640.23,   103.77  L  1657.22,   103.77  L  1657.22,    95.27 " /><text style="&st8;" transform="matrix(&st16;  1644.59  101.64 )"><tspan x="0" style="&st18;" y="0">IL6</tspan></text></a><a ewd:figtype="w2w" style="cursor:pointer;" ewd:pinNo="2" ewd:code="IL2" ewd:figID="46"><path style="&st2;" d=" M  1657.22,    86.77  L  1640.23,    86.77  L  1640.23,    95.27  L  1657.22,    95.27  L  1657.22,    86.77 " /><text style="&st8;" transform="matrix(&st16;  1644.59  93.14 )"><tspan x="0" style="&st18;" y="0">IL2</tspan></text></a><a ewd:figtype="w2w" style="cursor:pointer;" ewd:pinNo="17" ewd:code="CA4" ewd:figID="47"><path style="&st2;" d=" M  1759.21,   562.69  L  1742.21,   562.69  L  1742.21,   571.19  L  1759.21,   571.19  L  1759.21,   562.69 " /><text style="&st8;" transform="matrix(&st16;  1745.1  569.06 )"><tspan x="0" style="&st18;" y="0">CA4</tspan></text></a><a ewd:figtype="w2w" style="cursor:pointer;" ewd:pinNo="22" ewd:code="IL2" ewd:figID="48"><path style="&st2;" d=" M  1801.70,    95.27  L  1784.70,    95.27  L  1784.70,   103.77  L  1801.70,   103.77  L  1801.70,    95.27 " /><text style="&st8;" transform="matrix(&st16;  1789.06  101.64 )"><tspan x="0" style="&st18;" y="0">IL2</tspan></text></a><a ewd:figtype="w2w" style="cursor:pointer;" ewd:pinNo="1" ewd:code="AC1" ewd:figID="49"><path style="&st2;" d=" M  1810.20,   562.69  L  1793.20,   562.69  L  1793.20,   571.19  L  1810.20,   571.19  L  1810.20,   562.69 " /><text style="&st8;" transform="matrix(&st16;  1796.09  569.06 )"><tspan x="0" style="&st18;" y="0">AC1</tspan></text></a><a ewd:figtype="w2w" style="cursor:pointer;" ewd:pinNo="55" ewd:code="AI3" ewd:figID="50"><path style="&st2;" d=" M  1810.20,   494.70  L  1793.20,   494.70  L  1793.20,   503.20  L  1810.20,   503.20  L  1810.20,   494.70 " /><text style="&st8;" transform="matrix(&st16;  1797.33  501.07 )"><tspan x="0" style="&st18;" y="0">AI3</tspan></text></a><a ewd:figtype="w2w" style="cursor:pointer;" ewd:pinNo="13" ewd:code="AI3" ewd:figID="51"><path style="&st2;" d=" M  1810.20,   486.20  L  1793.20,   486.20  L  1793.20,   494.70  L  1810.20,   494.70  L  1810.20,   486.20 " /><text style="&st8;" transform="matrix(&st16;  1797.33  492.57 )"><tspan x="0" style="&st18;" y="0">AI3</tspan></text></a><a ewd:figtype="w2w" style="cursor:pointer;" ewd:pinNo="22" ewd:code="AI3" ewd:figID="52"><path style="&st2;" d=" M  1810.20,   477.71  L  1793.20,   477.71  L  1793.20,   486.20  L  1810.20,   486.20  L  1810.20,   477.71 " /><text style="&st8;" transform="matrix(&st16;  1797.33  484.07 )"><tspan x="0" style="&st18;" y="0">AI3</tspan></text></a><a ewd:figtype="w2w" style="cursor:pointer;" ewd:pinNo="45" ewd:code="AI3" ewd:figID="53"><path style="&st2;" d=" M  1810.20,   469.21  L  1793.20,   469.21  L  1793.20,   477.71  L  1810.20,   477.71  L  1810.20,   469.21 " /><text style="&st8;" transform="matrix(&st16;  1797.33  475.58 )"><tspan x="0" style="&st18;" y="0">AI3</tspan></text></a><a ewd:figtype="w2w" style="cursor:pointer;" ewd:pinNo="14" ewd:code="IL6" ewd:figID="54"><path style="&st2;" d=" M  1810.20,   392.72  L  1793.20,   392.72  L  1793.20,   401.22  L  1810.20,   401.22  L  1810.20,   392.72 " /><text style="&st8;" transform="matrix(&st16;  1797.56  399.09 )"><tspan x="0" style="&st18;" y="0">IL6</tspan></text></a><a ewd:figtype="w2w" style="cursor:pointer;" ewd:pinNo="4" ewd:code="IL2" ewd:figID="55"><path style="&st2;" d=" M  1810.20,   384.22  L  1793.20,   384.22  L  1793.20,   392.72  L  1810.20,   392.72  L  1810.20,   384.22 " /><text style="&st8;" transform="matrix(&st16;  1797.56  390.59 )"><tspan x="0" style="&st18;" y="0">IL2</tspan></text></a><a ewd:figtype="w2w" style="cursor:pointer;" ewd:pinNo="18" ewd:code="LI1" ewd:figID="56"><path style="&st2;" d=" M  1844.19,    95.27  L  1827.19,    95.27  L  1827.19,   103.77  L  1844.19,   103.77  L  1844.19,    95.27 " /><text style="&st8;" transform="matrix(&st16;  1831.55  101.64 )"><tspan x="0" style="&st18;" y="0">LI1</tspan></text></a><a ewd:figtype="w2w" style="cursor:pointer;" ewd:pinNo="9" ewd:code="AC5" ewd:figID="57"><path style="&st2;" d=" M  1895.18,   571.19  L  1878.19,   571.19  L  1878.19,   579.69  L  1895.18,   579.69  L  1895.18,   571.19 " /><text style="&st8;" transform="matrix(&st16;  1881.08  577.56 )"><tspan x="0" style="&st18;" y="0">AC5</tspan></text></a><a ewd:figtype="w2w" style="cursor:pointer;" ewd:pinNo="9" ewd:code="IC2" ewd:figID="58"><path style="&st2;" d=" M  1895.18,   562.69  L  1878.19,   562.69  L  1878.19,   571.19  L  1895.18,   571.19  L  1895.18,   562.69 " /><text style="&st8;" transform="matrix(&st16;  1882.21  569.06 )"><tspan x="0" style="&st18;" y="0">IC2</tspan></text></a><a ewd:figtype="w2w" style="cursor:pointer;" ewd:pinNo="56" ewd:code="AI3" ewd:figID="59"><path style="&st2;" d=" M  1937.68,   469.21  L  1920.68,   469.21  L  1920.68,   477.71  L  1937.68,   477.71  L  1937.68,   469.21 " /><text style="&st8;" transform="matrix(&st16;  1924.81  475.58 )"><tspan x="0" style="&st18;" y="0">AI3</tspan></text></a><a ewd:figtype="gp" style="cursor:pointer;" ewd:code="TA" ewd:figID="60"><path style="&st2;" d=" M  1340.65,   681.67  L  1361.90,   681.67  L  1351.27,   697.25  L  1340.65,   681.67 " /><text style="&st8;" transform="matrix(&st16;  1347.4  689.46 )"><tspan x="0" style="&st18;" y="0">TA</tspan></text></a><a ewd:figtype="gp" style="cursor:pointer;" ewd:code="CE" ewd:figID="61"><path style="&st2;" d=" M  1740.08,   681.67  L  1761.33,   681.67  L  1750.71,   697.25  L  1740.08,   681.67 " /><text style="&st8;" transform="matrix(&st16;  1746.79  689.46 )"><tspan x="0" style="&st18;" y="0">CE</tspan></text></a><a ewd:figtype="gp" style="cursor:pointer;" ewd:code="CC" ewd:figID="62"><path style="&st2;" d=" M  1791.08,   681.67  L  1812.32,   681.67  L  1801.70,   697.25  L  1791.08,   681.67 " /><text style="&st8;" transform="matrix(&st16;  1797.49  689.46 )"><tspan x="0" style="&st18;" y="0">CC</tspan></text></a><a ewd:figtype="gp" style="cursor:pointer;" ewd:code="CA" ewd:figID="63"><path style="&st2;" d=" M  1876.06,   681.67  L  1897.31,   681.67  L  1886.68,   697.25  L  1876.06,   681.67 " /><text style="&st8;" transform="matrix(&st16;  1882.58  689.46 )"><tspan x="0" style="&st18;" y="0">CA</tspan></text></a><a ewd:figtype="sp" style="cursor:pointer;" ewd:code="SP118" ewd:figID="64"><path style="&st2;" d=" M   242.21,   511.70  L   250.71,   511.70  L   254.96,   515.95  L   254.96,   524.45  L   250.71,   528.70  L   242.21,   528.70  L   237.96,   524.45  L   237.96,   515.95  L   242.21,   511.70 " /></a><a ewd:figtype="sp" style="cursor:pointer;" ewd:code="SP117" ewd:figID="65"><path style="&st2;" d=" M   250.71,   290.74  L   259.21,   290.74  L   263.46,   294.99  L   263.46,   303.48  L   259.21,   307.73  L   250.71,   307.73  L   246.46,   303.48  L   246.46,   294.99  L   250.71,   290.74 " /></a><a ewd:figtype="sp" style="cursor:pointer;" ewd:code="SP51" ewd:figID="66"><path style="&st2;" d=" M   437.68,   129.26  L   446.18,   129.26  L   450.42,   133.51  L   450.42,   142.01  L   446.18,   146.26  L   437.68,   146.26  L   433.43,   142.01  L   433.43,   133.51  L   437.68,   129.26 " /></a><a ewd:figtype="sp" style="cursor:pointer;" ewd:code="SP73" ewd:figID="67"><path style="&st2;" d=" M   565.16,   282.24  L   573.65,   282.24  L   577.90,   286.49  L   577.90,   294.99  L   573.65,   299.24  L   565.16,   299.24  L   560.91,   294.99  L   560.91,   286.49  L   565.16,   282.24 " /></a><a ewd:figtype="sp" style="cursor:pointer;" ewd:code="SP52" ewd:figID="68"><path style="&st2;" d=" M   658.64,   350.23  L   667.14,   350.23  L   671.39,   354.48  L   671.39,   362.97  L   667.14,   367.22  L   658.64,   367.22  L   654.39,   362.97  L   654.39,   354.48  L   658.64,   350.23 " /></a><a ewd:figtype="sp" style="cursor:pointer;" ewd:code="SP52" ewd:figID="69"><path style="&st2;" d=" M   658.64,   146.26  L   667.14,   146.26  L   671.39,   150.51  L   671.39,   159.01  L   667.14,   163.26  L   658.64,   163.26  L   654.39,   159.01  L   654.39,   150.51  L   658.64,   146.26 " /></a><a ewd:figtype="sp" style="cursor:pointer;" ewd:code="SP52" ewd:figID="70"><path style="&st2;" d=" M  1211.05,    95.27  L  1219.55,    95.27  L  1223.80,    99.52  L  1223.80,   108.02  L  1219.55,   112.27  L  1211.05,   112.27  L  1206.80,   108.02  L  1206.80,    99.52  L  1211.05,    95.27 " /></a><a ewd:figtype="sp" style="cursor:pointer;" ewd:code="SP106" ewd:figID="71"><path style="&st2;" d=" M  1347.02,   562.69  L  1355.52,   562.69  L  1359.77,   566.94  L  1359.77,   575.44  L  1355.52,   579.69  L  1347.02,   579.69  L  1342.78,   575.44  L  1342.78,   566.94  L  1347.02,   562.69 " /></a><a ewd:figtype="sp" style="cursor:pointer;" ewd:code="SP119" ewd:figID="72"><path style="&st2;" d=" M  1347.02,   452.21  L  1355.52,   452.21  L  1359.77,   456.46  L  1359.77,   464.96  L  1355.52,   469.21  L  1347.02,   469.21  L  1342.78,   464.96  L  1342.78,   456.46  L  1347.02,   452.21 " /></a><a ewd:figtype="sp" style="cursor:pointer;" ewd:code="SP19" ewd:figID="73"><path style="&st2;" d=" M  1797.45,   622.18  L  1805.95,   622.18  L  1810.20,   626.43  L  1810.20,   634.93  L  1805.95,   639.18  L  1797.45,   639.18  L  1793.20,   634.93  L  1793.20,   626.43  L  1797.45,   622.18 " /></a><a ewd:figtype="sp" style="cursor:pointer;" ewd:code="SP19" ewd:figID="74"><path style="&st2;" d=" M  1882.44,   622.18  L  1890.93,   622.18  L  1895.18,   626.43  L  1895.18,   634.93  L  1890.93,   639.18  L  1882.44,   639.18  L  1878.19,   634.93  L  1878.19,   626.43  L  1882.44,   622.18 " /></a><a ewd:figtype="sp" style="cursor:pointer;" ewd:code="SP60" ewd:figID="75"><path style="&st2;" d=" M  1882.44,   409.72  L  1890.93,   409.72  L  1895.18,   413.97  L  1895.18,   422.46  L  1890.93,   426.71  L  1882.44,   426.71  L  1878.19,   422.46  L  1878.19,   413.97  L  1882.44,   409.72 " /></a></g></svg>