<?xml version="1.0" encoding="utf-8"?>
<!DOCTYPE svg PUBLIC "-//W3C//DTD SVG 1.0//EN" "http://www.w3.org/TR/2001/REC-SVG-20010904/DTD/svg10.dtd"[
	<!ENTITY ns_flows "http://ns.adobe.com/Flows/1.0/">
	<!ENTITY ns_svg "http://www.w3.org/2000/svg">
	<!ENTITY ns_xlink "http://www.w3.org/1999/xlink">
	<!ENTITY st0 "font-size:7px;font-family:'MS-PGothic';adobe-font-script:japanese;">
	<!ENTITY st1 "font-size:6px;font-family:'ArialMT';">
	<!-- White fill  -->
	<!ENTITY st2 "fill:#FFFFFF;stroke:#000000; stroke-width:1.41;stroke-linecap:round;stroke-linejoin:round;">
	<!-- Yellow fill  -->
	<!ENTITY st3 "fill:#FFFFCC;stroke:#FFFFCC; stroke-width:0.1;stroke-linecap:round;stroke-linejoin:round;">
	<!-- Gray fill  -->
	<!ENTITY st4 "fill:#CCCCCC;stroke:#CCCCCC; stroke-width:0.1;stroke-linecap:round;stroke-linejoin:round;">
	<!-- Light-blue fill -->
	<!ENTITY st5 "fill:#CCECF4;stroke:#000000; stroke-width:1.133;stroke-linecap:round;stroke-linejoin:round;">
	<!ENTITY st6 "fill:none;stroke-linecap:butt; stroke-linejoin:round;">
	<!ENTITY st7 "fill:none;stroke:#000000;stroke-linecap:round;stroke-linejoin:round;">
	<!ENTITY st8 "enable-background:new    ;">
	<!-- Black fill -->
	<!ENTITY st9 "fill:#000000;stroke:#000000; stroke-linecap:round;stroke-linejoin:round;">
	<!-- SRS note   -->
	<!ENTITY st10 "font-size:9px;font-family:'ArialMT';">
	<!ENTITY st11 "font-size:9px;font-family:'Svg Symbol';">
	<!ENTITY st12 "font-size:6px;font-family:'Svg Symbol';">
	<!ENTITY st13 "fill:none;stroke:#ff0000;stroke-linecap:round;stroke-linejoin:round;">
	<!-- Yellow fill  -->
	<!ENTITY st14 "fill:#FFFF00;stroke:#FFFF00; stroke-width:0.1;stroke-linecap:round;stroke-linejoin:round;">
	<!ENTITY st15 "font-size:6px;font-family:'MS-PGothic';adobe-font-script:japanese;">
	<!ENTITY st16 "1.00 0.00 0.00 1.00">
	<!ENTITY st17 "0.00 -1.00 1.00 0.00">
	<!ENTITY st18 "font-size:6px;font-family:'Arial';">
	<!ENTITY st19 "font-size:9px;font-family:'Arial';">
	<!ENTITY st20 "font-size:6px;font-family:'MS-PGothic','MS PGothic';adobe-font-script:japanese;">
	<!ENTITY st21 "font-size:7px;font-family:'MS-PGothic','MS PGothic';adobe-font-script:japanese;">
	<!ATTLIST svg
		xmlns:ewd CDATA #FIXED "http://shcl.co.jp/ewd"
		xmlns:a CDATA #FIXED "http://ns.adobe.com/AdobeSVGViewerExtensions/3.0/"
		ewd:ver CDATA #IMPLIED
	>
	<!ATTLIST a
		ewd:lineID CDATA #IMPLIED
		ewd:groupID CDATA #IMPLIED
		ewd:figtype CDATA #IMPLIED
		ewd:code CDATA #IMPLIED
		ewd:figID CDATA #IMPLIED
		ewd:pinNo CDATA #IMPLIED
		ewd:comment CDATA #IMPLIED >
	<!ATTLIST g
		ewd:lineID CDATA #IMPLIED
		ewd:groupID CDATA #IMPLIED
		ewd:figtype CDATA #IMPLIED
		ewd:code CDATA #IMPLIED
		ewd:figID CDATA #IMPLIED
		ewd:pinNo CDATA #IMPLIED
		ewd:comment CDATA #IMPLIED >
	<!ATTLIST text
		ewd:textID CDATA #IMPLIED >
	<!ATTLIST title
		ewd:textID CDATA #IMPLIED >
]>
<!-- Generator: Shintec Hozumi YS   -->
<svg onload="call_execInitLoadProc_svg('system')" style="overflow:visible;  enable-background:new 0 0 2051.551 710.000" viewBox="0 0 2051.551 710.000" height="710.000" width="2051.551" xml:space="preserve" ewd:ver="2.1.2.9" xmlns="&ns_svg;" xmlns:a="http://ns.adobe.com/AdobeSVGViewerExtensions/3.0/" xmlns:ewd="http://shcl.co.jp/ewd" xmlns:xlink="&ns_xlink;">
<text style="&st18;" transform="matrix(&st16;  1262.88  202.05 )" ewd:textID="29">No. 30 Junction Connector</text><text style="&st18;" transform="matrix(&st16;  1225.84  448.51 )">W-B</text><text style="&st18;" transform="matrix(&st16;  1276.83  448.51 )">W-B</text><text style="&st18;" transform="matrix(&st16;  1166.35  448.51 )">W-B</text><text style="&st18;" transform="matrix(&st16;  1106.86  448.51 )">W-B</text><text style="&st18;" transform="matrix(&st17;  1084.12  534.65 )">W-B</text><text style="&st18;" transform="matrix(&st17;  1356.08  407.17 )">W-B</text><text style="&st18;" transform="matrix(&st17;  1305.09  407.17 )">W-B</text><text style="&st18;" transform="matrix(&st17;  1254.09  407.17 )">W-B</text><text style="&st18;" transform="matrix(&st17;  1203.1  407.17 )">W-B</text><text style="&st18;" transform="matrix(&st17;  1135.11  407.17 )">W-B</text><text style="&st18;" transform="matrix(&st17;  1084.12  407.17 )">W-B</text><text style="&st18;" transform="matrix(&st17;  1356.08  267.2 )">G</text><text style="&st18;" transform="matrix(&st17;  1305.09  267.2 )">G</text><text style="&st18;" transform="matrix(&st17;  1254.09  267.2 )">G</text><text style="&st18;" transform="matrix(&st17;  1203.1  267.2 )">G</text><text style="&st18;" transform="matrix(&st17;  1135.11  267.2 )">G</text><text style="&st18;" transform="matrix(&st17;  1084.12  267.2 )">G</text><text style="&st18;" transform="matrix(&st17;  1424.07  267.2 )">G</text><text style="&st18;" transform="matrix(&st17;  1424.07  432.67 )">W-B</text><text style="&st18;" transform="matrix(&st16;  1262.88  195.23 )">L52(A)</text><text style="&st18;" transform="matrix(&st16;  1004.88  660.98 )">W-B</text><text style="&st18;" transform="matrix(&st16;  1055.87  660.98 )">W-B</text><path style="stroke-width:1.42 ;&st7;  " d=" M  1317.28,   448.68  L  1312.31,   443.71  " /><path style="stroke-width:1.42 ;&st7;  " d=" M  1300.28,   455.74  L  1305.25,   460.71  " /><path style="stroke-width:1.42 ;&st7;  " d=" M  1312.31,   460.71  L  1317.28,   455.74  " /><path style="stroke-width:1.42 ;&st7;  " d=" M  1305.25,   443.71  L  1300.28,   448.68  " /><path style="stroke-width:1.42 ;&st7;  " d=" M  1266.29,   448.68  L  1261.32,   443.71  " /><path style="stroke-width:1.42 ;&st7;  " d=" M  1249.29,   455.74  L  1254.26,   460.71  " /><path style="stroke-width:1.42 ;&st7;  " d=" M  1261.32,   460.71  L  1266.29,   455.74  " /><path style="stroke-width:1.42 ;&st7;  " d=" M  1254.26,   443.71  L  1249.29,   448.68  " /><path style="stroke-width:1.42 ;&st7;  " d=" M  1215.30,   448.68  L  1210.33,   443.71  " /><path style="stroke-width:1.42 ;&st7;  " d=" M  1198.30,   455.74  L  1203.27,   460.71  " /><path style="stroke-width:1.42 ;&st7;  " d=" M  1210.33,   460.71  L  1215.30,   455.74  " /><path style="stroke-width:1.42 ;&st7;  " d=" M  1203.27,   443.71  L  1198.30,   448.68  " /><path style="stroke-width:1.42 ;&st7;  " d=" M  1147.31,   448.68  L  1142.34,   443.71  " /><path style="stroke-width:1.42 ;&st7;  " d=" M  1130.31,   455.74  L  1135.28,   460.71  " /><path style="stroke-width:1.42 ;&st7;  " d=" M  1142.34,   460.71  L  1147.31,   455.74  " /><path style="stroke-width:1.42 ;&st7;  " d=" M  1135.28,   443.71  L  1130.31,   448.68  " /><path style="stroke-width:1.42 ;&st7;  " d=" M  1096.32,   448.68  L  1091.35,   443.71  " /><path style="stroke-width:1.42 ;&st7;  " d=" M  1079.32,   455.74  L  1084.29,   460.71  " /><path style="stroke-width:1.42 ;&st7;  " d=" M  1091.35,   460.71  L  1096.32,   455.74  " /><path style="stroke-width:1.42 ;&st7;  " d=" M  1084.29,   443.71  L  1079.32,   448.68  " /><text style="&st18;" transform="matrix(&st17;  1146.45  271.51 )">(*11)</text><text style="&st18;" transform="matrix(&st17;  1146.45  407.48 )">(*11)</text><g ewd:figtype="conn" ewd:figID="16" ewd:code="L45"><path style="stroke-width:0.85 ;&st7;   " d=" M  1087.82,   345.98  C  1089.37    345.99   1090.64    344.73   1090.65    343.18  " /><path style="stroke-width:0.85 ;&st7;   " d=" M  1090.65,   343.18  C  1090.66    341.62   1089.41    340.36   1087.85    340.35  " /><path style="stroke-width:0.85 ;&st7;   " d=" M  1087.85,   340.35  C  1086.82    340.34   1085.94    340.84   1085.41    341.73  " /><path style="stroke-width:0.85 ;&st7;   " d=" M  1085.41,   341.73  C  1086.20    343.07   1087.93    343.51   1089.27    342.72  " /><path style="stroke-width:0.85 ;&st7;   " d=" M  1089.27,   342.72  C  1090.61    341.93   1091.05    340.20   1090.26    338.86  " /><path style="stroke-width:0.85 ;&st7;   " d=" M  1090.26,   338.86  C  1089.73    337.97   1088.85    337.47   1087.82    337.48  " /><path style="stroke-width:1.42 ;&st7;   " d=" M  1096.32,   341.73  C  1096.32    337.03   1092.51    333.23   1087.82    333.23  " /><path style="stroke-width:1.42 ;&st7;   " d=" M  1087.82,   333.23  C  1083.12    333.23   1079.32    337.03   1079.32    341.73  " /><path style="stroke-width:1.42 ;&st7;   " d=" M  1079.32,   341.73  C  1079.32    346.42   1083.12    350.23   1087.82    350.23  " /><path style="stroke-width:1.42 ;&st7;   " d=" M  1087.82,   350.23  C  1092.51    350.23   1096.32    346.42   1096.32    341.73  " /><path style="stroke-width:0.85 ;&st7;  " d=" M  1087.82,   333.23  L  1087.82,   337.48  " /><path style="stroke-width:0.85 ;&st7;  " d=" M  1087.82,   345.98  L  1087.82,   350.23  " /><text style="&st18;" transform="matrix(&st16;  1081.63  358.42 )">2</text><text style="&st18;" transform="matrix(&st16;  1081.63  329.54 )">1</text><g ewd:figtype="title"><text style="&st18;" transform="matrix(&st17;  1104.21  353.13 )">L45</text><text style="&st18;" transform="matrix(&st17;  1111.03  353.13 )" ewd:textID="9">Antenna <tspan x="0 " dy="6.0">Switch Assembly</tspan></text></g></g><g ewd:figtype="conn" ewd:figID="17" ewd:code="L54"><path style="stroke-width:0.85 ;&st7;   " d=" M  1138.81,   345.98  C  1140.36    345.99   1141.63    344.73   1141.64    343.18  " /><path style="stroke-width:0.85 ;&st7;   " d=" M  1141.64,   343.18  C  1141.65    341.62   1140.40    340.36   1138.84    340.35  " /><path style="stroke-width:0.85 ;&st7;   " d=" M  1138.84,   340.35  C  1137.81    340.34   1136.93    340.84   1136.40    341.73  " /><path style="stroke-width:0.85 ;&st7;   " d=" M  1136.40,   341.73  C  1137.19    343.07   1138.92    343.51   1140.26    342.72  " /><path style="stroke-width:0.85 ;&st7;   " d=" M  1140.26,   342.72  C  1141.60    341.93   1142.04    340.20   1141.25    338.86  " /><path style="stroke-width:0.85 ;&st7;   " d=" M  1141.25,   338.86  C  1140.73    337.97   1139.84    337.47   1138.81    337.48  " /><path style="stroke-width:1.42 ;&st7;   " d=" M  1147.31,   341.73  C  1147.31    337.03   1143.50    333.23   1138.81    333.23  " /><path style="stroke-width:1.42 ;&st7;   " d=" M  1138.81,   333.23  C  1134.12    333.23   1130.31    337.03   1130.31    341.73  " /><path style="stroke-width:1.42 ;&st7;   " d=" M  1130.31,   341.73  C  1130.31    346.42   1134.12    350.23   1138.81    350.23  " /><path style="stroke-width:1.42 ;&st7;   " d=" M  1138.81,   350.23  C  1143.50    350.23   1147.31    346.42   1147.31    341.73  " /><path style="stroke-width:0.85 ;&st7;  " d=" M  1138.81,   333.23  L  1138.81,   337.48  " /><path style="stroke-width:0.85 ;&st7;  " d=" M  1138.81,   345.98  L  1138.81,   350.23  " /><text style="&st18;" transform="matrix(&st16;  1132.63  358.42 )">6</text><text style="&st18;" transform="matrix(&st16;  1132.63  329.54 )">3</text><g ewd:figtype="title"><text style="&st18;" transform="matrix(&st17;  1162.03  353.13 )" ewd:textID="20">Headlight <tspan x="0 " dy="6.0">Leveling Switch</tspan></text><text style="&st18;" transform="matrix(&st17;  1155.2  353.13 )">L54</text></g></g><g ewd:code="L10" ewd:figID="18" ewd:comment="6,5" ewd:figtype="conn"><path style="stroke-width:0.85 ;&st7;   " d=" M  1206.80,   345.98  C  1208.35    345.99   1209.62    344.73   1209.63    343.18  " /><path style="stroke-width:0.85 ;&st7;   " d=" M  1209.63,   343.18  C  1209.64    341.62   1208.39    340.36   1206.83    340.35  " /><path style="stroke-width:0.85 ;&st7;   " d=" M  1206.83,   340.35  C  1205.80    340.34   1204.92    340.84   1204.39    341.73  " /><path style="stroke-width:0.85 ;&st7;   " d=" M  1204.39,   341.73  C  1205.18    343.07   1206.91    343.51   1208.25    342.72  " /><path style="stroke-width:0.85 ;&st7;   " d=" M  1208.25,   342.72  C  1209.59    341.93   1210.03    340.20   1209.24    338.86  " /><path style="stroke-width:0.85 ;&st7;   " d=" M  1209.24,   338.86  C  1208.71    337.97   1207.83    337.47   1206.80    337.48  " /><path style="stroke-width:1.42 ;&st7;   " d=" M  1215.30,   341.73  C  1215.30    337.03   1211.49    333.23   1206.80    333.23  " /><path style="stroke-width:1.42 ;&st7;   " d=" M  1206.80,   333.23  C  1202.10    333.23   1198.30    337.03   1198.30    341.73  " /><path style="stroke-width:1.42 ;&st7;   " d=" M  1198.30,   341.73  C  1198.30    346.42   1202.10    350.23   1206.80    350.23  " /><path style="stroke-width:1.42 ;&st7;   " d=" M  1206.80,   350.23  C  1211.49    350.23   1215.30    346.42   1215.30    341.73  " /><path style="stroke-width:0.85 ;&st7;  " d=" M  1206.80,   333.23  L  1206.80,   337.48  " /><path style="stroke-width:0.85 ;&st7;  " d=" M  1206.80,   345.98  L  1206.80,   350.23  " /><text style="&st18;" transform="matrix(&st16;  1198.1  365.79 )">2</text><text style="&st18;" transform="matrix(&st16;  1198.1  356.73 )">2</text><text style="&st18;" transform="matrix(&st16;  1204.49  356.73 )">A</text><path style="stroke-width:1.42 ;&st7;   " d=" M  1211.33,   363.82  C  1211.33    361.32   1209.30    359.29   1206.80    359.29  " /><path style="stroke-width:1.42 ;&st7;   " d=" M  1206.80,   359.29  C  1204.30    359.29   1202.27    361.32   1202.27    363.82  " /><path style="stroke-width:1.42 ;&st7;   " d=" M  1202.27,   363.82  C  1202.27    366.33   1204.30    368.36   1206.80    368.36  " /><path style="stroke-width:1.42 ;&st7;   " d=" M  1206.80,   368.36  C  1209.30    368.36   1211.33    366.33   1211.33    363.82  " /><path style="stroke-width:1.42 ;&st7;   " d=" M  1211.33,   354.76  C  1211.33    352.26   1209.30    350.23   1206.80    350.23  " /><path style="stroke-width:1.42 ;&st7;   " d=" M  1206.80,   350.23  C  1204.30    350.23   1202.27    352.26   1202.27    354.76  " /><path style="stroke-width:1.42 ;&st7;   " d=" M  1202.27,   354.76  C  1202.27    357.26   1204.30    359.29   1206.80    359.29  " /><path style="stroke-width:1.42 ;&st7;   " d=" M  1206.80,   359.29  C  1209.30    359.29   1211.33    357.26   1211.33    354.76  " /><text style="&st18;" transform="matrix(&st16;  1204.61  365.79 )">B</text><text style="&st18;" transform="matrix(&st16;  1198.1  321.6 )">1</text><text style="&st18;" transform="matrix(&st16;  1198.1  330.67 )">1</text><text style="&st18;" transform="matrix(&st16;  1204.61  330.67 )">B</text><text style="&st18;" transform="matrix(&st16;  1204.49  321.6 )">A</text><path style="stroke-width:1.42 ;&st7;   " d=" M  1211.33,   319.63  C  1211.33    317.13   1209.30    315.10   1206.80    315.10  " /><path style="stroke-width:1.42 ;&st7;   " d=" M  1206.80,   315.10  C  1204.30    315.10   1202.27    317.13   1202.27    319.63  " /><path style="stroke-width:1.42 ;&st7;   " d=" M  1202.27,   319.63  C  1202.27    322.14   1204.30    324.16   1206.80    324.16  " /><path style="stroke-width:1.42 ;&st7;   " d=" M  1206.80,   324.16  C  1209.30    324.16   1211.33    322.14   1211.33    319.63  " /><path style="stroke-width:1.42 ;&st7;   " d=" M  1211.33,   328.70  C  1211.33    326.19   1209.30    324.16   1206.80    324.16  " /><path style="stroke-width:1.42 ;&st7;   " d=" M  1206.80,   324.16  C  1204.30    324.16   1202.27    326.19   1202.27    328.70  " /><path style="stroke-width:1.42 ;&st7;   " d=" M  1202.27,   328.70  C  1202.27    331.20   1204.30    333.23   1206.80    333.23  " /><path style="stroke-width:1.42 ;&st7;   " d=" M  1206.80,   333.23  C  1209.30    333.23   1211.33    331.20   1211.33    328.70  " /><g ewd:figtype="title"><text style="&st18;" transform="matrix(&st17;  1187.52  353.13 )" ewd:textID="10">Ashtray <tspan x="0 " dy="6.0">Receptacle Light</tspan></text><text style="&st18;" transform="matrix(&st17;  1180.7  353.13 )">L10(A),(B)</text></g><g ewd:code="" ewd:figID="115" ewd:comment="6" ewd:figtype="commref"><text style="&st18;" transform="matrix(&st16;  1211.89  365.79 )">(*6)</text></g><g ewd:code="" ewd:figID="116" ewd:comment="5" ewd:figtype="commref"><text style="&st18;" transform="matrix(&st16;  1211.89  356.73 )">(*5)</text></g><g ewd:code="" ewd:figID="117" ewd:comment="6" ewd:figtype="commref"><text style="&st18;" transform="matrix(&st16;  1211.89  330.67 )">(*6)</text></g><g ewd:code="" ewd:figID="118" ewd:comment="5" ewd:figtype="commref"><text style="&st18;" transform="matrix(&st16;  1211.89  321.6 )">(*5)</text></g></g><g ewd:figtype="conn" ewd:figID="19" ewd:code="L8"><path style="stroke-width:0.85 ;&st7;   " d=" M  1257.79,   345.98  C  1259.34    345.99   1260.61    344.73   1260.62    343.18  " /><path style="stroke-width:0.85 ;&st7;   " d=" M  1260.62,   343.18  C  1260.63    341.62   1259.38    340.36   1257.82    340.35  " /><path style="stroke-width:0.85 ;&st7;   " d=" M  1257.82,   340.35  C  1256.79    340.34   1255.91    340.84   1255.38    341.73  " /><path style="stroke-width:0.85 ;&st7;   " d=" M  1255.38,   341.73  C  1256.17    343.07   1257.90    343.51   1259.24    342.72  " /><path style="stroke-width:0.85 ;&st7;   " d=" M  1259.24,   342.72  C  1260.58    341.93   1261.02    340.20   1260.23    338.86  " /><path style="stroke-width:0.85 ;&st7;   " d=" M  1260.23,   338.86  C  1259.71    337.97   1258.82    337.47   1257.79    337.48  " /><path style="stroke-width:1.42 ;&st7;   " d=" M  1266.29,   341.73  C  1266.29    337.03   1262.48    333.23   1257.79    333.23  " /><path style="stroke-width:1.42 ;&st7;   " d=" M  1257.79,   333.23  C  1253.10    333.23   1249.29    337.03   1249.29    341.73  " /><path style="stroke-width:1.42 ;&st7;   " d=" M  1249.29,   341.73  C  1249.29    346.42   1253.10    350.23   1257.79    350.23  " /><path style="stroke-width:1.42 ;&st7;   " d=" M  1257.79,   350.23  C  1262.48    350.23   1266.29    346.42   1266.29    341.73  " /><path style="stroke-width:0.85 ;&st7;  " d=" M  1257.79,   333.23  L  1257.79,   337.48  " /><path style="stroke-width:0.85 ;&st7;  " d=" M  1257.79,   345.98  L  1257.79,   350.23  " /><text style="&st18;" transform="matrix(&st16;  1251.61  358.42 )">1</text><text style="&st18;" transform="matrix(&st16;  1251.61  329.54 )">2</text><g ewd:figtype="title"><text style="&st18;" transform="matrix(&st17;  1281.01  353.13 )" ewd:textID="16">Fuel Control <tspan x="0 " dy="6.0">Switch Assembly</tspan></text><text style="&st18;" transform="matrix(&st17;  1274.18  353.13 )">L8</text></g></g><g ewd:figtype="conn" ewd:figID="20" ewd:code="L19"><path style="stroke-width:0.85 ;&st7;   " d=" M  1308.78,   345.98  C  1310.34    345.99   1311.60    344.73   1311.61    343.18  " /><path style="stroke-width:0.85 ;&st7;   " d=" M  1311.61,   343.18  C  1311.62    341.62   1310.37    340.36   1308.82    340.35  " /><path style="stroke-width:0.85 ;&st7;   " d=" M  1308.82,   340.35  C  1307.78    340.34   1306.90    340.84   1306.37    341.73  " /><path style="stroke-width:0.85 ;&st7;   " d=" M  1306.37,   341.73  C  1307.17    343.07   1308.89    343.51   1310.23    342.72  " /><path style="stroke-width:0.85 ;&st7;   " d=" M  1310.23,   342.72  C  1311.57    341.93   1312.01    340.20   1311.22    338.86  " /><path style="stroke-width:0.85 ;&st7;   " d=" M  1311.22,   338.86  C  1310.70    337.97   1309.81    337.47   1308.78    337.48  " /><path style="stroke-width:1.42 ;&st7;   " d=" M  1317.28,   341.73  C  1317.28    337.03   1313.47    333.23   1308.78    333.23  " /><path style="stroke-width:1.42 ;&st7;   " d=" M  1308.78,   333.23  C  1304.09    333.23   1300.28    337.03   1300.28    341.73  " /><path style="stroke-width:1.42 ;&st7;   " d=" M  1300.28,   341.73  C  1300.28    346.42   1304.09    350.23   1308.78    350.23  " /><path style="stroke-width:1.42 ;&st7;   " d=" M  1308.78,   350.23  C  1313.47    350.23   1317.28    346.42   1317.28    341.73  " /><path style="stroke-width:0.85 ;&st7;  " d=" M  1308.78,   333.23  L  1308.78,   337.48  " /><path style="stroke-width:0.85 ;&st7;  " d=" M  1308.78,   345.98  L  1308.78,   350.23  " /><text style="&st18;" transform="matrix(&st16;  1302.6  358.42 )">1</text><text style="&st18;" transform="matrix(&st16;  1302.6  329.54 )">2</text><g ewd:figtype="title"><text style="&st18;" transform="matrix(&st17;  1325.17  353.13 )">L19</text><text style="&st18;" transform="matrix(&st17;  1332.0  353.13 )" ewd:textID="11">Cigarette Lighter <tspan x="0 " dy="6.0">Illumination (Cigarette </tspan><tspan x="0 " dy="6.0">Lighter Bezel Stay)</tspan></text></g></g><g ewd:figtype="conn" ewd:figID="21" ewd:code="L7"><path style="stroke-width:0.85 ;&st7;   " d=" M  1359.77,   345.98  C  1361.33    345.99   1362.60    344.73   1362.61    343.18  " /><path style="stroke-width:0.85 ;&st7;   " d=" M  1362.61,   343.18  C  1362.62    341.62   1361.36    340.36   1359.81    340.35  " /><path style="stroke-width:0.85 ;&st7;   " d=" M  1359.81,   340.35  C  1358.77    340.34   1357.89    340.84   1357.37    341.73  " /><path style="stroke-width:0.85 ;&st7;   " d=" M  1357.36,   341.73  C  1358.16    343.07   1359.88    343.51   1361.22    342.72  " /><path style="stroke-width:0.85 ;&st7;   " d=" M  1361.22,   342.72  C  1362.56    341.93   1363.01    340.20   1362.21    338.86  " /><path style="stroke-width:0.85 ;&st7;   " d=" M  1362.21,   338.86  C  1361.69    337.97   1360.81    337.47   1359.77    337.48  " /><path style="stroke-width:1.42 ;&st7;   " d=" M  1368.27,   341.73  C  1368.27    337.03   1364.47    333.23   1359.77    333.23  " /><path style="stroke-width:1.42 ;&st7;   " d=" M  1359.77,   333.23  C  1355.08    333.23   1351.27    337.03   1351.27    341.73  " /><path style="stroke-width:1.42 ;&st7;   " d=" M  1351.27,   341.73  C  1351.27    346.42   1355.08    350.23   1359.77    350.23  " /><path style="stroke-width:1.42 ;&st7;   " d=" M  1359.77,   350.23  C  1364.47    350.23   1368.27    346.42   1368.27    341.73  " /><path style="stroke-width:0.85 ;&st7;  " d=" M  1359.77,   333.23  L  1359.77,   337.48  " /><path style="stroke-width:0.85 ;&st7;  " d=" M  1359.77,   345.98  L  1359.77,   350.23  " /><text style="&st18;" transform="matrix(&st16;  1353.59  358.42 )">2</text><text style="&st18;" transform="matrix(&st16;  1353.59  329.54 )">1</text><g ewd:figtype="title"><text style="&st18;" transform="matrix(&st17;  1376.17  353.13 )">L7</text><text style="&st18;" transform="matrix(&st17;  1382.99  353.13 )" ewd:textID="35">Rear Window Defogger <tspan x="0 " dy="6.0">Switch Assembly</tspan></text></g></g><g ewd:figtype="conn" ewd:figID="22" ewd:code="L9"><path style="stroke-width:1.42 ;&st7;  " d=" M  1410.76,   333.23  L  1410.76,   367.22  L  1444.76,   367.22  L  1444.76,   333.23  L  1410.76,   333.23  " /><g ewd:lineID="60"><text style="&st18;" transform="matrix(&st16;  1421.58  375.42 )">8</text><text style="&st18;" transform="matrix(&st16;  1421.11  363.53 )">GND</text></g><g ewd:lineID="61"><text style="&st18;" transform="matrix(&st16;  1421.58  329.54 )">3</text><text style="&st18;" transform="matrix(&st16;  1421.42  340.86 )">ILL+</text></g><g ewd:figtype="title"><text style="&st18;" transform="matrix(&st17;  1459.48  370.13 )" ewd:textID="12">Clock Assembly</text><text style="&st18;" transform="matrix(&st17;  1452.65  370.12 )">L9</text></g></g><g ewd:figtype="conn" ewd:figID="23" ewd:code="L42"><path style="stroke-width:1.42 ;&st7;  " d=" M  1487.25,   333.23  L  1487.25,   367.22  L  1521.25,   367.22  L  1521.25,   333.23  L  1487.25,   333.23  " /><g ewd:lineID="62"><text style="&st18;" transform="matrix(&st16;  1498.06  375.42 )">7</text></g><g ewd:lineID="63"><text style="&st18;" transform="matrix(&st16;  1494.96  329.54 )">10</text><text style="&st18;" transform="matrix(&st16;  1497.91  340.86 )">ILL+</text></g></g><g ewd:figtype="gp" ewd:figID="62" ewd:code="LA"><path style="stroke-width: 0.85 ;&st7;  " d=" M  1086.40,   710.00  L  1089.23,   710.00  " /><path style="stroke-width: 0.85 ;&st7;  " d=" M  1084.98,   707.17  L  1090.65,   707.17  " /><path style="stroke-width: 0.85 ;&st7;  " d=" M  1083.57,   704.33  L  1092.07,   704.33  " /><path style="stroke-width: 0.85 ;&st7;  " d=" M  1079.32,   701.50  L  1096.32,   701.50  " /><path style="stroke-width: 0.85 ;&st7;  " d=" M  1087.82,   697.25  L  1087.82,   701.50  " /></g><g ewd:figtype="gp" ewd:figID="63" ewd:code="LB"><path style="stroke-width: 0.85 ;&st7;  " d=" M  1427.76,   697.25  L  1427.76,   701.50  " /><path style="stroke-width: 0.85 ;&st7;  " d=" M  1419.26,   701.50  L  1436.26,   701.50  " /><path style="stroke-width: 0.85 ;&st7;  " d=" M  1423.51,   704.33  L  1432.01,   704.33  " /><path style="stroke-width: 0.85 ;&st7;  " d=" M  1424.93,   707.17  L  1430.59,   707.17  " /><path style="stroke-width: 0.85 ;&st7;  " d=" M  1426.34,   710.00  L  1429.18,   710.00  " /></g></svg>