<?xml version="1.0" encoding="utf-8"?>
<!DOCTYPE svg PUBLIC "-//W3C//DTD SVG 1.0//EN" "http://www.w3.org/TR/2001/REC-SVG-20010904/DTD/svg10.dtd"[
	<!ENTITY ns_flows "http://ns.adobe.com/Flows/1.0/">
	<!ENTITY ns_svg "http://www.w3.org/2000/svg">
	<!ENTITY ns_xlink "http://www.w3.org/1999/xlink">
	<!ENTITY st0 "font-size:7px;font-family:'MS-PGothic';adobe-font-script:japanese;">
	<!ENTITY st1 "font-size:6px;font-family:'ArialMT';">
	<!-- White fill  -->
	<!ENTITY st2 "fill:#FFFFFF;stroke:#000000; stroke-width:1.41;stroke-linecap:round;stroke-linejoin:round;">
	<!-- Yellow fill  -->
	<!ENTITY st3 "fill:#FFFFCC;stroke:#FFFFCC; stroke-width:0.1;stroke-linecap:round;stroke-linejoin:round;">
	<!-- Gray fill  -->
	<!ENTITY st4 "fill:#CCCCCC;stroke:#CCCCCC; stroke-width:0.1;stroke-linecap:round;stroke-linejoin:round;">
	<!-- Light-blue fill -->
	<!ENTITY st5 "fill:#CCECF4;stroke:#000000; stroke-width:1.133;stroke-linecap:round;stroke-linejoin:round;">
	<!ENTITY st6 "fill:none;stroke-linecap:butt; stroke-linejoin:round;">
	<!ENTITY st7 "fill:none;stroke:#000000;stroke-linecap:round;stroke-linejoin:round;">
	<!ENTITY st8 "enable-background:new    ;">
	<!-- Black fill -->
	<!ENTITY st9 "fill:#000000;stroke:#000000; stroke-linecap:round;stroke-linejoin:round;">
	<!-- SRS note   -->
	<!ENTITY st10 "font-size:9px;font-family:'ArialMT';">
	<!ENTITY st11 "font-size:9px;font-family:'Svg Symbol';">
	<!ENTITY st12 "font-size:6px;font-family:'Svg Symbol';">
	<!ENTITY st13 "fill:none;stroke:#ff0000;stroke-linecap:round;stroke-linejoin:round;">
	<!-- Yellow fill  -->
	<!ENTITY st14 "fill:#FFFF00;stroke:#FFFF00; stroke-width:0.1;stroke-linecap:round;stroke-linejoin:round;">
	<!ENTITY st15 "font-size:6px;font-family:'MS-PGothic';adobe-font-script:japanese;">
	<!ENTITY st16 "1.00 0.00 0.00 1.00">
	<!ENTITY st17 "0.00 -1.00 1.00 0.00">
	<!ENTITY st18 "font-size:6px;font-family:'Arial';">
	<!ENTITY st19 "font-size:9px;font-family:'Arial';">
	<!ENTITY st20 "font-size:6px;font-family:'MS-PGothic','MS PGothic';adobe-font-script:japanese;">
	<!ENTITY st21 "font-size:7px;font-family:'MS-PGothic','MS PGothic';adobe-font-script:japanese;">
	<!ATTLIST svg
		xmlns:ewd CDATA #FIXED "http://shcl.co.jp/ewd"
		xmlns:a CDATA #FIXED "http://ns.adobe.com/AdobeSVGViewerExtensions/3.0/"
		ewd:ver CDATA #IMPLIED
	>
	<!ATTLIST a
		ewd:lineID CDATA #IMPLIED
		ewd:groupID CDATA #IMPLIED
		ewd:figtype CDATA #IMPLIED
		ewd:code CDATA #IMPLIED
		ewd:figID CDATA #IMPLIED
		ewd:pinNo CDATA #IMPLIED
		ewd:comment CDATA #IMPLIED >
	<!ATTLIST g
		ewd:lineID CDATA #IMPLIED
		ewd:groupID CDATA #IMPLIED
		ewd:figtype CDATA #IMPLIED
		ewd:code CDATA #IMPLIED
		ewd:figID CDATA #IMPLIED
		ewd:pinNo CDATA #IMPLIED
		ewd:comment CDATA #IMPLIED >
	<!ATTLIST text
		ewd:textID CDATA #IMPLIED >
	<!ATTLIST title
		ewd:textID CDATA #IMPLIED >
]>
<!-- Generator: Shintec Hozumi YS   -->
<svg onload="call_execInitLoadProc_svg('system')" style="overflow:visible;  enable-background:new 0 0 2007.536 710.000" viewBox="0 0 2007.536 710.000" height="710.000" width="2007.536" xml:space="preserve" ewd:ver="2.1.2.9" xmlns="&ns_svg;" xmlns:a="http://ns.adobe.com/AdobeSVGViewerExtensions/3.0/" xmlns:ewd="http://shcl.co.jp/ewd" xmlns:xlink="&ns_xlink;">
<path style="stroke-width:1.42 ;&st7;  " d=" M   722.38,    86.77  L   713.88,    86.77  " /><path style="stroke-width:1.42 ;&st7;  " d=" M   671.39,   134.24  L   666.42,   129.26  " /><path style="stroke-width:1.42 ;&st7;  " d=" M   654.39,   141.29  L   659.36,   146.26  " /><path style="stroke-width:1.42 ;&st7;  " d=" M   666.42,   146.26  L   671.39,   141.29  " /><path style="stroke-width:1.42 ;&st7;  " d=" M   659.36,   129.26  L   654.39,   134.24  " /><text style="&st18;" transform="matrix(&st17;  786.67  267.2 )">G</text><text style="&st18;" transform="matrix(&st17;  863.16  267.2 )">G</text><text style="&st18;" transform="matrix(&st17;  710.18  139.72 )">G</text><text style="&st18;" transform="matrix(&st17;  950.98  405.93 )">(*4)</text><text style="&st18;" transform="matrix(&st17;  939.65  407.17 )">W-B</text><text style="&st18;" transform="matrix(&st17;  939.65  517.65 )">W-B</text><text style="&st18;" transform="matrix(&st17;  950.98  269.95 )">(*4)</text><text style="&st18;" transform="matrix(&st17;  939.65  267.2 )">G</text><text style="&st18;" transform="matrix(&st17;  710.19  407.17 )">W-B</text><text style="&st18;" transform="matrix(&st17;  863.16  407.17 )">W-B</text><text style="&st18;" transform="matrix(&st17;  786.67  407.17 )">W-B</text><text style="&st18;" transform="matrix(&st17;  710.18  267.2 )">G</text><text style="&st18;" transform="matrix(&st17;  721.52  145.62 )">(RHD)</text><text style="&st18;" transform="matrix(&st17;  625.2  267.2 )">G</text><text style="&st18;" transform="matrix(&st17;  636.53  273.06 )">(LHD)</text><text style="&st18;" transform="matrix(&st17;  721.52  273.1 )">(RHD)</text><text style="&st18;" transform="matrix(&st16;  685.93  100.07 )">G</text><text style="&st18;" transform="matrix(&st16;  680.07  111.4 )">(LHD)</text><text style="&st18;" transform="matrix(&st16;  685.93  176.56 )">G</text><text style="&st18;" transform="matrix(&st16;  680.07  187.89 )">(LHD)</text><text style="&st18;" transform="matrix(&st17;  786.67  517.65 )">W-B</text><text style="&st18;" transform="matrix(&st16;  541.45  49.08 )">G</text><g ewd:figtype="conn" ewd:figID="13" ewd:code="L38"><path style="stroke-width:0.85 ;&st7;  " d=" M  1087.82,   205.75  L  1087.82,   214.25  " /><path style="stroke-width:0.85 ;&st7;  " d=" M  1086.63,   204.75  L  1086.35,   205.22  L  1086.26,   205.75  L  1086.35,   206.28  L  1086.63,   206.75  L  1087.04,   207.10  L  1087.55,   207.29  L  1088.09,   207.29  L  1088.60,   207.10  L  1089.01,   206.75  L  1089.28,   206.28  L  1089.38,   205.75  L  1089.28,   205.22  L  1089.01,   204.75  L  1088.60,   204.40  L  1088.09,   204.22  L  1087.55,   204.22  L  1087.04,   204.40  L  1086.63,   204.75  L  1087.02,   205.46  L  1087.02,   206.04  L  1087.39,   206.49  L  1087.97,   206.59  L  1088.47,   206.30  L  1088.67,   205.75  L  1088.47,   205.20  L  1087.97,   204.92  L  1087.39,   205.01  L  1087.82,   205.75  " /><path style="stroke-width:0.85 ;&st7;  " d=" M   942.15,   204.75  L   941.88,   205.22  L   941.78,   205.75  L   941.88,   206.28  L   942.15,   206.75  L   942.56,   207.10  L   943.07,   207.29  L   943.61,   207.29  L   944.12,   207.10  L   944.53,   206.75  L   944.81,   206.28  L   944.90,   205.75  L   944.81,   205.22  L   944.53,   204.75  L   944.12,   204.40  L   943.61,   204.22  L   943.07,   204.22  L   942.56,   204.40  L   942.15,   204.75  L   942.54,   205.46  L   942.54,   206.04  L   942.92,   206.49  L   943.49,   206.59  L   943.99,   206.30  L   944.19,   205.75  L   943.99,   205.20  L   943.49,   204.92  L   942.92,   205.01  L   943.34,   205.75  " /><path style="stroke-width:0.85 ;&st7;  " d=" M   865.66,   204.75  L   865.39,   205.22  L   865.30,   205.75  L   865.39,   206.28  L   865.66,   206.75  L   866.08,   207.10  L   866.58,   207.29  L   867.13,   207.29  L   867.63,   207.10  L   868.05,   206.75  L   868.32,   206.28  L   868.41,   205.75  L   868.32,   205.22  L   868.05,   204.75  L   867.63,   204.40  L   867.13,   204.22  L   866.58,   204.22  L   866.08,   204.40  L   865.66,   204.75  L   866.06,   205.46  L   866.06,   206.04  L   866.43,   206.49  L   867.00,   206.59  L   867.51,   206.30  L   867.70,   205.75  L   867.51,   205.20  L   867.00,   204.92  L   866.43,   205.01  L   866.85,   205.75  " /><path style="stroke-width:0.85 ;&st7;  " d=" M   789.17,   204.75  L   788.90,   205.22  L   788.81,   205.75  L   788.90,   206.28  L   789.17,   206.75  L   789.59,   207.10  L   790.10,   207.29  L   790.64,   207.29  L   791.15,   207.10  L   791.56,   206.75  L   791.83,   206.28  L   791.93,   205.75  L   791.83,   205.22  L   791.56,   204.75  L   791.15,   204.40  L   790.64,   204.22  L   790.10,   204.22  L   789.59,   204.40  L   789.17,   204.75  L   789.57,   205.46  L   789.57,   206.04  L   789.94,   206.49  L   790.51,   206.59  L   791.02,   206.30  L   791.22,   205.75  L   791.02,   205.20  L   790.51,   204.92  L   789.94,   205.01  L   790.37,   205.75  " /><path style="stroke-width:0.85 ;&st7;  " d=" M   712.69,   204.75  L   712.42,   205.22  L   712.32,   205.75  L   712.42,   206.28  L   712.69,   206.75  L   713.10,   207.10  L   713.61,   207.29  L   714.15,   207.29  L   714.66,   207.10  L   715.07,   206.75  L   715.35,   206.28  L   715.44,   205.75  L   715.35,   205.22  L   715.07,   204.75  L   714.66,   204.40  L   714.15,   204.22  L   713.61,   204.22  L   713.10,   204.40  L   712.69,   204.75  L   713.08,   205.46  L   713.08,   206.04  L   713.46,   206.49  L   714.03,   206.59  L   714.53,   206.30  L   714.73,   205.75  L   714.53,   205.20  L   714.03,   204.92  L   713.46,   205.01  L   713.88,   205.75  " /><path style="stroke-width:0.85 ;&st7;  " d=" M   943.34,   205.75  L   943.34,   214.25  " /><path style="stroke-width:0.85 ;&st7;  " d=" M   866.85,   205.75  L   866.85,   214.25  " /><path style="stroke-width:0.85 ;&st7;  " d=" M   790.37,   205.75  L   790.37,   214.25  " /><path style="stroke-width:0.85 ;&st7;  " d=" M   713.88,   205.75  L  1504.25,   205.75  L  1504.25,   197.25  " /><path style="stroke-width:0.85 ;&st7;  " d=" M   713.88,   197.25  L   713.88,   214.25  " /><path style="stroke-width:0.85 ;&st7;  " d=" M  1205.61,   204.75  L  1205.33,   205.22  L  1205.24,   205.75  L  1205.33,   206.28  L  1205.61,   206.75  L  1206.02,   207.10  L  1206.53,   207.29  L  1207.07,   207.29  L  1207.58,   207.10  L  1207.99,   206.75  L  1208.26,   206.28  L  1208.36,   205.75  L  1208.26,   205.22  L  1207.99,   204.75  L  1207.58,   204.40  L  1207.07,   204.22  L  1206.53,   204.22  L  1206.02,   204.40  L  1205.61,   204.75  L  1206.00,   205.46  L  1206.00,   206.04  L  1206.37,   206.49  L  1206.95,   206.59  L  1207.45,   206.30  L  1207.65,   205.75  L  1207.45,   205.20  L  1206.95,   204.92  L  1206.37,   205.01  L  1206.80,   205.75  " /><path style="stroke-width:1.42 ;&st7;  " d=" M   705.38,   197.25  L   705.38,   214.25  L  1512.75,   214.25  L  1512.75,   197.25  L   705.38,   197.25  " /><path style="stroke-width:0.85 ;&st7;  " d=" M  1257.79,   205.75  L  1257.79,   214.25  " /><path style="stroke-width:0.85 ;&st7;  " d=" M  1256.60,   204.75  L  1256.32,   205.22  L  1256.23,   205.75  L  1256.32,   206.28  L  1256.60,   206.75  L  1257.01,   207.10  L  1257.52,   207.29  L  1258.06,   207.29  L  1258.57,   207.10  L  1258.98,   206.75  L  1259.25,   206.28  L  1259.35,   205.75  L  1259.25,   205.22  L  1258.98,   204.75  L  1258.57,   204.40  L  1258.06,   204.22  L  1257.52,   204.22  L  1257.01,   204.40  L  1256.60,   204.75  L  1256.99,   205.46  L  1256.99,   206.04  L  1257.36,   206.49  L  1257.94,   206.59  L  1258.44,   206.30  L  1258.64,   205.75  L  1258.44,   205.20  L  1257.94,   204.92  L  1257.36,   205.01  L  1257.79,   205.75  " /><path style="stroke-width:0.85 ;&st7;  " d=" M  1308.78,   205.75  L  1308.78,   214.25  " /><path style="stroke-width:0.85 ;&st7;  " d=" M  1307.59,   204.75  L  1307.32,   205.22  L  1307.22,   205.75  L  1307.32,   206.28  L  1307.59,   206.75  L  1308.00,   207.10  L  1308.51,   207.29  L  1309.05,   207.29  L  1309.56,   207.10  L  1309.97,   206.75  L  1310.25,   206.28  L  1310.34,   205.75  L  1310.25,   205.22  L  1309.97,   204.75  L  1309.56,   204.40  L  1309.05,   204.22  L  1308.51,   204.22  L  1308.00,   204.40  L  1307.59,   204.75  L  1307.98,   205.46  L  1307.98,   206.04  L  1308.36,   206.49  L  1308.93,   206.59  L  1309.43,   206.30  L  1309.63,   205.75  L  1309.43,   205.20  L  1308.93,   204.92  L  1308.36,   205.01  L  1308.78,   205.75  " /><path style="stroke-width:0.85 ;&st7;  " d=" M  1359.77,   205.75  L  1359.77,   214.25  " /><path style="stroke-width:0.85 ;&st7;  " d=" M  1358.58,   204.75  L  1358.31,   205.22  L  1358.21,   205.75  L  1358.31,   206.28  L  1358.58,   206.75  L  1358.99,   207.10  L  1359.50,   207.29  L  1360.04,   207.29  L  1360.55,   207.10  L  1360.96,   206.75  L  1361.24,   206.28  L  1361.33,   205.75  L  1361.24,   205.22  L  1360.96,   204.75  L  1360.55,   204.40  L  1360.04,   204.22  L  1359.50,   204.22  L  1358.99,   204.40  L  1358.58,   204.75  L  1358.97,   205.46  L  1358.97,   206.04  L  1359.35,   206.49  L  1359.92,   206.59  L  1360.42,   206.30  L  1360.62,   205.75  L  1360.42,   205.20  L  1359.92,   204.92  L  1359.35,   205.01  L  1359.77,   205.75  " /><path style="stroke-width:0.85 ;&st7;  " d=" M  1427.76,   205.75  L  1427.76,   214.25  " /><path style="stroke-width:0.85 ;&st7;  " d=" M  1426.57,   204.75  L  1426.30,   205.22  L  1426.20,   205.75  L  1426.30,   206.28  L  1426.57,   206.75  L  1426.98,   207.10  L  1427.49,   207.29  L  1428.03,   207.29  L  1428.54,   207.10  L  1428.95,   206.75  L  1429.23,   206.28  L  1429.32,   205.75  L  1429.23,   205.22  L  1428.95,   204.75  L  1428.54,   204.40  L  1428.03,   204.22  L  1427.49,   204.22  L  1426.98,   204.40  L  1426.57,   204.75  L  1426.96,   205.46  L  1426.96,   206.04  L  1427.34,   206.49  L  1427.91,   206.59  L  1428.41,   206.30  L  1428.61,   205.75  L  1428.41,   205.20  L  1427.91,   204.92  L  1427.34,   205.01  L  1427.76,   205.75  " /><path style="stroke-width:0.85 ;&st7;  " d=" M  1504.25,   205.75  L  1504.25,   214.25  " /><path style="stroke-width:0.85 ;&st7;  " d=" M  1503.06,   204.75  L  1502.78,   205.22  L  1502.69,   205.75  L  1502.78,   206.28  L  1503.06,   206.75  L  1503.47,   207.10  L  1503.98,   207.29  L  1504.52,   207.29  L  1505.03,   207.10  L  1505.44,   206.75  L  1505.71,   206.28  L  1505.81,   205.75  L  1505.71,   205.22  L  1505.44,   204.75  L  1505.03,   204.40  L  1504.52,   204.22  L  1503.98,   204.22  L  1503.47,   204.40  L  1503.06,   204.75  L  1503.45,   205.46  L  1503.45,   206.04  L  1503.82,   206.49  L  1504.40,   206.59  L  1504.90,   206.30  L  1505.10,   205.75  L  1504.90,   205.20  L  1504.40,   204.92  L  1503.82,   205.01  L  1504.25,   205.75  " /><path style="stroke-width:0.85 ;&st7;  " d=" M  1206.80,   205.75  L  1206.80,   214.25  " /><path style="stroke-width:0.85 ;&st7;  " d=" M  1137.62,   204.75  L  1137.34,   205.22  L  1137.25,   205.75  L  1137.34,   206.28  L  1137.62,   206.75  L  1138.03,   207.10  L  1138.54,   207.29  L  1139.08,   207.29  L  1139.59,   207.10  L  1140.00,   206.75  L  1140.27,   206.28  L  1140.37,   205.75  L  1140.27,   205.22  L  1140.00,   204.75  L  1139.59,   204.40  L  1139.08,   204.22  L  1138.54,   204.22  L  1138.03,   204.40  L  1137.62,   204.75  L  1138.01,   205.46  L  1138.01,   206.04  L  1138.38,   206.49  L  1138.96,   206.59  L  1139.46,   206.30  L  1139.66,   205.75  L  1139.46,   205.20  L  1138.96,   204.92  L  1138.38,   205.01  L  1138.81,   205.75  " /><path style="stroke-width:0.85 ;&st7;  " d=" M  1138.81,   205.75  L  1138.81,   214.25  " /><text style="&st18;" transform="matrix(&st16;  707.7  222.44 )">9</text><text style="&st18;" transform="matrix(&st16;  707.7  193.56 )">4</text><text style="&st18;" transform="matrix(&st16;  781.08  222.44 )">11</text><text style="&st18;" transform="matrix(&st16;  857.57  222.44 )">13</text><text style="&st18;" transform="matrix(&st16;  934.06  222.44 )">10</text><text style="&st18;" transform="matrix(&st16;  1081.63  222.44 )">2</text><text style="&st18;" transform="matrix(&st16;  1129.52  222.44 )">13</text><text style="&st18;" transform="matrix(&st16;  1200.61  222.44 )">6</text><text style="&st18;" transform="matrix(&st16;  1251.61  222.44 )">7</text><text style="&st18;" transform="matrix(&st16;  1302.6  222.44 )">8</text><text style="&st18;" transform="matrix(&st16;  1353.59  222.44 )">3</text><text style="&st18;" transform="matrix(&st16;  1421.58  222.44 )">5</text><text style="&st18;" transform="matrix(&st16;  1498.06  222.44 )">1</text><text style="&st18;" transform="matrix(&st16;  1494.96  193.56 )">12</text><g ewd:figtype="title"><text style="&st18;" transform="matrix(&st16;  829.46  193.56 )" ewd:textID="27">No. 30 Junction Connector</text><text style="&st18;" transform="matrix(&st16;  829.45  186.73 )">L38</text></g></g><g ewd:figtype="conn" ewd:figID="14" ewd:code="L39"><path style="stroke-width:1.42 ;&st7;  " d=" M   705.38,   452.21  L   705.38,   469.21  L   951.84,   469.21  L   951.84,   452.21  L   705.38,   452.21  " /><path style="stroke-width:0.85 ;&st7;  " d=" M   866.85,   452.21  L   866.85,   460.71  " /><path style="stroke-width:0.85 ;&st7;  " d=" M   790.37,   452.21  L   790.37,   469.21  " /><path style="stroke-width:0.85 ;&st7;  " d=" M   789.17,   459.71  L   788.90,   460.18  L   788.81,   460.71  L   788.90,   461.24  L   789.17,   461.71  L   789.59,   462.06  L   790.10,   462.24  L   790.64,   462.24  L   791.15,   462.06  L   791.56,   461.71  L   791.83,   461.24  L   791.93,   460.71  L   791.83,   460.18  L   791.56,   459.71  L   791.15,   459.36  L   790.64,   459.17  L   790.10,   459.17  L   789.59,   459.36  L   789.17,   459.71  L   789.57,   460.42  L   789.57,   461.00  L   789.94,   461.44  L   790.51,   461.54  L   791.02,   461.26  L   791.22,   460.71  L   791.02,   460.16  L   790.51,   459.87  L   789.94,   459.97  L   790.37,   460.71  " /><path style="stroke-width:0.85 ;&st7;  " d=" M   865.66,   459.71  L   865.39,   460.18  L   865.30,   460.71  L   865.39,   461.24  L   865.66,   461.71  L   866.08,   462.06  L   866.58,   462.24  L   867.13,   462.24  L   867.63,   462.06  L   868.05,   461.71  L   868.32,   461.24  L   868.41,   460.71  L   868.32,   460.18  L   868.05,   459.71  L   867.63,   459.36  L   867.13,   459.17  L   866.58,   459.17  L   866.08,   459.36  L   865.66,   459.71  L   866.06,   460.42  L   866.06,   461.00  L   866.43,   461.44  L   867.00,   461.54  L   867.51,   461.26  L   867.70,   460.71  L   867.51,   460.16  L   867.00,   459.87  L   866.43,   459.97  L   866.85,   460.71  " /><path style="stroke-width:0.85 ;&st7;  " d=" M   942.15,   459.71  L   941.88,   460.18  L   941.78,   460.71  L   941.88,   461.24  L   942.15,   461.71  L   942.56,   462.06  L   943.07,   462.24  L   943.61,   462.24  L   944.12,   462.06  L   944.53,   461.71  L   944.81,   461.24  L   944.90,   460.71  L   944.81,   460.18  L   944.53,   459.71  L   944.12,   459.36  L   943.61,   459.17  L   943.07,   459.17  L   942.56,   459.36  L   942.15,   459.71  L   942.54,   460.42  L   942.54,   461.00  L   942.92,   461.44  L   943.49,   461.54  L   943.99,   461.26  L   944.19,   460.71  L   943.99,   460.16  L   943.49,   459.87  L   942.92,   459.97  L   943.34,   460.71  " /><path style="stroke-width:0.85 ;&st7;  " d=" M   943.34,   460.71  L   713.88,   460.71  L   713.88,   452.21  " /><path style="stroke-width:0.85 ;&st7;  " d=" M   943.34,   452.21  L   943.34,   469.21  " /><text style="&st18;" transform="matrix(&st16;  704.59  448.52 )">11</text><text style="&st18;" transform="matrix(&st16;  784.18  477.4 )">5</text><text style="&st18;" transform="matrix(&st16;  784.18  448.52 )">2</text><text style="&st18;" transform="matrix(&st16;  860.67  448.52 )">1</text><text style="&st18;" transform="matrix(&st16;  937.16  477.4 )">4</text><text style="&st18;" transform="matrix(&st16;  937.16  448.52 )">9</text><g ewd:figtype="title"><text style="&st18;" transform="matrix(&st16;  820.96  483.92 )" ewd:textID="28">No. 31 Junction <tspan x="0 " dy="6.0">Connector</tspan></text><text style="&st18;" transform="matrix(&st16;  820.95  477.1 )">L39</text></g></g><g ewd:figtype="conn" ewd:figID="22" ewd:code="L17"><path style="stroke-width:0.85 ;&st7;  " d=" M   713.88,   333.23  L   713.88,   337.48  " /><path style="stroke-width:0.85 ;&st7;  " d=" M   713.88,   345.98  L   713.88,   350.23  " /><path style="stroke-width:0.85 ;&st7;   " d=" M   713.88,   345.98  C   715.44    345.99    716.70    344.73    716.71    343.18  " /><path style="stroke-width:0.85 ;&st7;   " d=" M   716.71,   343.18  C   716.72    341.62    715.47    340.36    713.91    340.35  " /><path style="stroke-width:0.85 ;&st7;   " d=" M   713.91,   340.35  C   712.88    340.34    712.00    340.84    711.47    341.73  " /><path style="stroke-width:0.85 ;&st7;   " d=" M   711.47,   341.73  C   712.26    343.07    713.99    343.51    715.33    342.72  " /><path style="stroke-width:0.85 ;&st7;   " d=" M   715.33,   342.72  C   716.67    341.93    717.11    340.20    716.32    338.86  " /><path style="stroke-width:0.85 ;&st7;   " d=" M   716.32,   338.86  C   715.80    337.97    714.91    337.47    713.88    337.48  " /><path style="stroke-width:1.42 ;&st7;   " d=" M   722.38,   341.73  C   722.38    337.03    718.57    333.23    713.88    333.23  " /><path style="stroke-width:1.42 ;&st7;   " d=" M   713.88,   333.23  C   709.19    333.23    705.38    337.03    705.38    341.73  " /><path style="stroke-width:1.42 ;&st7;   " d=" M   705.38,   341.73  C   705.38    346.42    709.19    350.23    713.88    350.23  " /><path style="stroke-width:1.42 ;&st7;   " d=" M   713.88,   350.23  C   718.57    350.23    722.38    346.42    722.38    341.73  " /><text style="&st18;" transform="matrix(&st16;  707.7  329.54 )">1</text><text style="&st18;" transform="matrix(&st16;  707.7  358.42 )">2</text><g ewd:figtype="title"><text style="&st18;" transform="matrix(&st17;  730.27  353.13 )">L17</text><text style="&st18;" transform="matrix(&st17;  737.1  353.13 )" ewd:textID="33">Transmission Control Switch</text></g></g><g ewd:figtype="conn" ewd:figID="23" ewd:code="L18"><path style="stroke-width:0.85 ;&st7;  " d=" M   790.37,   333.23  L   790.37,   337.48  " /><path style="stroke-width:0.85 ;&st7;  " d=" M   790.37,   345.98  L   790.37,   350.23  " /><path style="stroke-width:0.85 ;&st7;   " d=" M   790.37,   345.98  C   791.92    345.99    793.19    344.73    793.20    343.18  " /><path style="stroke-width:0.85 ;&st7;   " d=" M   793.20,   343.18  C   793.21    341.62    791.96    340.36    790.40    340.35  " /><path style="stroke-width:0.85 ;&st7;   " d=" M   790.40,   340.35  C   789.37    340.34    788.49    340.84    787.96    341.73  " /><path style="stroke-width:0.85 ;&st7;   " d=" M   787.96,   341.73  C   788.75    343.07    790.48    343.51    791.82    342.72  " /><path style="stroke-width:0.85 ;&st7;   " d=" M   791.82,   342.72  C   793.16    341.93    793.60    340.20    792.81    338.86  " /><path style="stroke-width:0.85 ;&st7;   " d=" M   792.81,   338.86  C   792.28    337.97    791.40    337.47    790.37    337.48  " /><path style="stroke-width:1.42 ;&st7;   " d=" M   798.87,   341.73  C   798.87    337.03    795.06    333.23    790.37    333.23  " /><path style="stroke-width:1.42 ;&st7;   " d=" M   790.37,   333.23  C   785.67    333.23    781.87    337.03    781.87    341.73  " /><path style="stroke-width:1.42 ;&st7;   " d=" M   781.87,   341.73  C   781.87    346.42    785.67    350.23    790.37    350.23  " /><path style="stroke-width:1.42 ;&st7;   " d=" M   790.37,   350.23  C   795.06    350.23    798.87    346.42    798.87    341.73  " /><text style="&st18;" transform="matrix(&st16;  784.18  358.42 )">2</text><text style="&st18;" transform="matrix(&st16;  784.18  329.54 )">1</text><g ewd:figtype="title"><text style="&st18;" transform="matrix(&st17;  806.76  353.13 )">L18</text><text style="&st18;" transform="matrix(&st17;  813.58  353.13 )" ewd:textID="10">Door Control Switch Assembly</text></g></g><g ewd:figtype="conn" ewd:figID="24" ewd:code="L6"><path style="stroke-width:0.85 ;&st7;  " d=" M   866.86,   333.23  L   866.86,   337.48  " /><path style="stroke-width:0.85 ;&st7;  " d=" M   866.86,   345.98  L   866.86,   350.23  " /><path style="stroke-width:0.85 ;&st7;   " d=" M   866.86,   345.98  C   868.41    345.99    869.68    344.73    869.69    343.18  " /><path style="stroke-width:0.85 ;&st7;   " d=" M   869.69,   343.18  C   869.70    341.62    868.44    340.36    866.89    340.35  " /><path style="stroke-width:0.85 ;&st7;   " d=" M   866.89,   340.35  C   865.86    340.34    864.97    340.84    864.45    341.73  " /><path style="stroke-width:0.85 ;&st7;   " d=" M   864.45,   341.73  C   865.24    343.07    866.97    343.51    868.31    342.72  " /><path style="stroke-width:0.85 ;&st7;   " d=" M   868.31,   342.72  C   869.64    341.93    870.09    340.20    869.30    338.86  " /><path style="stroke-width:0.85 ;&st7;   " d=" M   869.30,   338.86  C   868.77    337.97    867.89    337.47    866.86    337.48  " /><path style="stroke-width:1.42 ;&st7;   " d=" M   875.35,   341.73  C   875.35    337.03    871.55    333.23    866.86    333.23  " /><path style="stroke-width:1.42 ;&st7;   " d=" M   866.86,   333.23  C   862.16    333.23    858.36    337.03    858.36    341.73  " /><path style="stroke-width:1.42 ;&st7;   " d=" M   858.36,   341.73  C   858.36    346.42    862.16    350.23    866.86    350.23  " /><path style="stroke-width:1.42 ;&st7;   " d=" M   866.86,   350.23  C   871.55    350.23    875.35    346.42    875.35    341.73  " /><text style="&st18;" transform="matrix(&st16;  860.67  358.42 )">2</text><text style="&st18;" transform="matrix(&st16;  860.67  329.54 )">1</text><g ewd:figtype="title"><text style="&st18;" transform="matrix(&st17;  890.07  353.13 )" ewd:textID="16">Idle Up Switch</text><text style="&st18;" transform="matrix(&st17;  883.25  353.13 )">L6</text></g></g><g ewd:figtype="conn" ewd:figID="25" ewd:code="L14"><path style="stroke-width:0.85 ;&st7;  " d=" M   943.34,   333.23  L   943.34,   337.48  " /><path style="stroke-width:0.85 ;&st7;  " d=" M   943.34,   345.98  L   943.34,   350.23  " /><path style="stroke-width:0.85 ;&st7;   " d=" M   943.34,   345.98  C   944.90    345.99    946.17    344.73    946.18    343.18  " /><path style="stroke-width:0.85 ;&st7;   " d=" M   946.18,   343.18  C   946.18    341.62    944.93    340.36    943.38    340.35  " /><path style="stroke-width:0.85 ;&st7;   " d=" M   943.38,   340.35  C   942.34    340.34    941.46    340.84    940.94    341.73  " /><path style="stroke-width:0.85 ;&st7;   " d=" M   940.93,   341.73  C   941.73    343.07    943.45    343.51    944.79    342.72  " /><path style="stroke-width:0.85 ;&st7;   " d=" M   944.79,   342.72  C   946.13    341.93    946.58    340.20    945.78    338.86  " /><path style="stroke-width:0.85 ;&st7;   " d=" M   945.78,   338.86  C   945.26    337.97    944.38    337.47    943.34    337.48  " /><path style="stroke-width:1.42 ;&st7;   " d=" M   951.84,   341.73  C   951.84    337.03    948.04    333.23    943.34    333.23  " /><path style="stroke-width:1.42 ;&st7;   " d=" M   943.34,   333.23  C   938.65    333.23    934.84    337.03    934.84    341.73  " /><path style="stroke-width:1.42 ;&st7;   " d=" M   934.84,   341.73  C   934.84    346.42    938.65    350.23    943.34    350.23  " /><path style="stroke-width:1.42 ;&st7;   " d=" M   943.34,   350.23  C   948.04    350.23    951.84    346.42    951.84    341.73  " /><text style="&st18;" transform="matrix(&st16;  937.16  358.42 )">9</text><text style="&st18;" transform="matrix(&st16;  937.16  329.54 )">8</text><g ewd:figtype="title"><text style="&st18;" transform="matrix(&st17;  959.73  353.13 )">L14</text><text style="&st18;" transform="matrix(&st17;  966.56  353.13 )" ewd:textID="12">Hazard Warning Signal <tspan x="0 " dy="6.0">Switch Assembly</tspan></text></g></g><g ewd:figtype="w2w" ewd:figID="34" ewd:code="IL1"><path style="stroke-width:1.42 ;&st7;  " d=" M   718.13,    92.44  L   713.88,    88.19  L   709.63,    92.44  " /><path style="stroke-width:1.42 ;&st7;  " d=" M   718.13,    95.84  L   713.88,    91.59  L   709.63,    95.84  " /><text style="&st18;" transform="matrix(&st16;  698.15  84.49 )">44</text></g><g ewd:figtype="gp" ewd:figID="49" ewd:code="LB"><path style="stroke-width:0.85 ;&st7;  " d=" M   788.95,   710.00  L   791.78,   710.00  " /><path style="stroke-width:0.85 ;&st7;  " d=" M   787.53,   707.17  L   793.20,   707.17  " /><path style="stroke-width:0.85 ;&st7;  " d=" M   786.12,   704.33  L   794.62,   704.33  " /><path style="stroke-width:0.85 ;&st7;  " d=" M   781.87,   701.50  L   798.87,   701.50  " /><path style="stroke-width:0.85 ;&st7;  " d=" M   790.37,   697.25  L   790.37,   701.50  " /></g><g ewd:code="4" ewd:figID="95" ewd:comment="" ewd:figtype="comment"><text style="&st18;" transform="matrix(&st16;  744.47  46.25 )" ewd:textID="1">* 4 :12V Battery Type Except Soft Top Body Type</text></g></svg>