<?xml version="1.0" encoding="UTF-8"?>
<!DOCTYPE svg PUBLIC "-//W3C//DTD SVG 1.0//EN" "http://www.w3.org/TR/2001/REC-SVG-20010904/DTD/svg10.dtd"[
	<!ENTITY ns_flows "http://ns.adobe.com/Flows/1.0/">
	<!ENTITY ns_svg "http://www.w3.org/2000/svg">
	<!ENTITY ns_xlink "http://www.w3.org/1999/xlink">
	<!ENTITY st0 "font-size:7px;font-family:'MS-PGothic';adobe-font-script:japanese;">
	<!ENTITY st1 "font-size:6px;font-family:'ArialMT';">
	<!-- White fill  -->
	<!ENTITY st2 "fill:#FFFFFF;stroke:#000000; stroke-width:1.41;stroke-linecap:round;stroke-linejoin:round;">
	<!-- Yellow fill  -->
	<!ENTITY st3 "fill:#FFFFCC;stroke:#FFFFCC; stroke-width:0.1;stroke-linecap:round;stroke-linejoin:round;">
	<!-- Gray fill  -->
	<!ENTITY st4 "fill:#CCCCCC;stroke:#CCCCCC; stroke-width:0.1;stroke-linecap:round;stroke-linejoin:round;">
	<!-- Light-blue fill -->
	<!ENTITY st5 "fill:#CCECF4;stroke:#000000; stroke-width:1.133;stroke-linecap:round;stroke-linejoin:round;">
	<!ENTITY st6 "fill:none;stroke-linecap:butt; stroke-linejoin:round;">
	<!ENTITY st7 "fill:none;stroke:#000000;stroke-linecap:round;stroke-linejoin:round;">
	<!ENTITY st8 "enable-background:new    ;">
	<!-- Black fill -->
	<!ENTITY st9 "fill:#000000;stroke:#000000; stroke-linecap:round;stroke-linejoin:round;">
	<!-- SRS note   -->
	<!ENTITY st10 "font-size:9px;font-family:'ArialMT';">
	<!ENTITY st11 "font-size:9px;font-family:'Svg Symbol';">
	<!ENTITY st12 "font-size:6px;font-family:'Svg Symbol';">
	<!ENTITY st13 "fill:none;stroke:#ff0000;stroke-linecap:round;stroke-linejoin:round;">
	<!-- Yellow fill  -->
	<!ENTITY st14 "fill:#FFFF00;stroke:#FFFF00; stroke-width:0.1;stroke-linecap:round;stroke-linejoin:round;">
	<!ENTITY st15 "font-size:6px;font-family:'MS-PGothic';adobe-font-script:japanese;">
	<!ENTITY st16 "1.00 0.00 0.00 1.00">
	<!ENTITY st17 "0.00 -1.00 1.00 0.00">
	<!ENTITY st18 "font-size:6px;font-family:'Arial';">
	<!ENTITY st19 "font-size:9px;font-family:'Arial';">
	<!ENTITY st20 "font-size:6px;font-family:'MS-PGothic','MS PGothic';adobe-font-script:japanese;">
	<!ENTITY st21 "font-size:7px;font-family:'MS-PGothic','MS PGothic';adobe-font-script:japanese;">
	<!ATTLIST svg
		xmlns:ewd CDATA #FIXED "http://shcl.co.jp/ewd"
		xmlns:a CDATA #FIXED "http://ns.adobe.com/AdobeSVGViewerExtensions/3.0/"
		ewd:ver CDATA #IMPLIED
	>
	<!ATTLIST a
		ewd:lineID CDATA #IMPLIED
		ewd:groupID CDATA #IMPLIED
		ewd:figtype CDATA #IMPLIED
		ewd:code CDATA #IMPLIED
		ewd:figID CDATA #IMPLIED
		ewd:pinNo CDATA #IMPLIED
		ewd:comment CDATA #IMPLIED >
	<!ATTLIST g
		ewd:lineID CDATA #IMPLIED
		ewd:groupID CDATA #IMPLIED
		ewd:figtype CDATA #IMPLIED
		ewd:code CDATA #IMPLIED
		ewd:figID CDATA #IMPLIED
		ewd:pinNo CDATA #IMPLIED
		ewd:comment CDATA #IMPLIED >
	<!ATTLIST text
		ewd:textID CDATA #IMPLIED >
	<!ATTLIST title
		ewd:textID CDATA #IMPLIED >
]>
<!-- Generator: Shintec Hozumi YS   -->
<svg onload="call_execInitLoadProc_svg('system')" style="overflow:visible;  enable-background:new 0 0 1018.413 710.000" viewBox="0 0 1018.413 710.000" height="710.000" width="1018.413" xml:space="preserve" ewd:ver="2.1.2.9" xmlns="&ns_svg;" xmlns:a="http://ns.adobe.com/AdobeSVGViewerExtensions/3.0/" xmlns:ewd="http://shcl.co.jp/ewd" xmlns:xlink="&ns_xlink;">
	<script type="text/javascript" xlink:href="../../../../../system/js/ewd/fig/svgfig.js"/>
<g id="ewd_top">
	<a ewd:figtype="rb" style="cursor:pointer;" ewd:code="FUSE1" ewd:figID="1">
		<path style="fill:#CCECF4;stroke:#000000; stroke-width:0; stroke-linecap:round;stroke-linejoin:round; " d=" M    72.24,    35.78  L    72.24,    78.27  L    97.73,    78.27  L    97.73,    35.78  L    72.24,    35.78 "/>
	</a>
	<a ewd:figtype="conn" style="cursor:pointer;" ewd:code="L21" ewd:figID="2">
		<path style="fill:#CCECF4;stroke:#000000; stroke-width:1.133; stroke-linecap:round;stroke-linejoin:round; " d=" M   586.40,   180.26  L   645.89,   180.26  L   645.89,   112.27  L   586.40,   112.27  L   586.40,   180.26 "/>
		<title ewd:textID="2">Ignition or Starter Switch Assembly</title>
	</a>
	<a ewd:figtype="conn" style="cursor:pointer;" ewd:code="I61" ewd:figID="3">
		<path style="fill:#CCECF4;stroke:#000000; stroke-width:1.133; stroke-linecap:round;stroke-linejoin:round; " d=" M    76.49,   180.26  L    93.48,   180.26  L    93.48,   197.25  L    76.49,   197.25  L    76.49,   180.26 "/>
		<title ewd:textID="4">No. 11 Junction Connector</title>
	</a>
	<a ewd:figtype="conn" style="cursor:pointer;" ewd:code="I76" ewd:figID="4">
		<path style="fill:#CCECF4;stroke:#000000; stroke-width:1.133; stroke-linecap:round;stroke-linejoin:round; " d=" M   756.37,   282.24  L   968.84,   282.24  L   968.84,   137.76  L   756.37,   137.76  L   756.37,   282.24 "/>
		<title ewd:textID="1">Fuse Block Assembly</title>
	</a>
	<a ewd:figtype="conn" style="cursor:pointer;" ewd:code="I10" ewd:figID="5">
		<path style="fill:#CCECF4;stroke:#000000; stroke-width:1.133; stroke-linecap:round;stroke-linejoin:round; " d=" M    67.99,   341.73  L   186.97,   341.73  L   186.97,   299.24  L    67.99,   299.24  L    67.99,   341.73 "/>
		<title ewd:textID="5">Option Connector (Power Outlet Socket)</title>
	</a>
	<a ewd:figtype="conn" style="cursor:pointer;" ewd:code="I54" ewd:figID="6">
		<path style="fill:#CCECF4;stroke:#000000; stroke-width:1.133; stroke-linecap:round;stroke-linejoin:round; " d=" M    76.49,   477.71  L    93.48,   477.71  L    93.48,   494.70  L    76.49,   494.70  L    76.49,   477.71 "/>
		<title ewd:textID="3">No. 5 Junction Connector</title>
	</a>
	<a ewd:figtype="jb" style="cursor:pointer;" ewd:code="3" ewd:figID="8">
		<path style="&st4; " d=" M   152.97,   103.77  L   229.46,   103.77  L   229.46,    35.78  L   152.97,    35.78  L   152.97,   103.77  "/>
	</a>
	<a ewd:figtype="jb" style="cursor:pointer;" ewd:code="3" ewd:figID="9">
		<path style="&st4; " d=" M   348.44,    35.78  L   348.44,   103.77  L   399.43,   103.77  L   399.43,    35.78  L   348.44,    35.78  "/>
	</a>
	<a ewd:figtype="jb" style="cursor:pointer;" ewd:code="3" ewd:figID="10">
		<path style="&st4; " d=" M   263.46,    35.78  L   263.46,   103.77  L   331.44,   103.77  L   331.44,    35.78  L   263.46,    35.78  "/>
	</a>
	<a ewd:figtype="fuse" style="cursor:pointer;" ewd:code="FUSE1" ewd:figID="30">
		<path style="&st7; stroke-width:0;" d=" M    72.24,    35.78  L    72.24,    78.27  L    97.73,    78.27  L    97.73,    35.78  L    72.24,    35.78 "/>
	</a>
	<a ewd:figtype="fuse" style="cursor:pointer;" ewd:code="FUSE37" ewd:figID="31">
		<path style="&st7; stroke-width:0;" d=" M   157.22,    35.78  L   157.22,    78.27  L   182.72,    78.27  L   182.72,    35.78  L   157.22,    35.78 "/>
	</a>
	<a ewd:figtype="fuse" style="cursor:pointer;" ewd:code="FUSE36" ewd:figID="32">
		<path style="&st7; stroke-width:0;" d=" M   267.71,    35.78  L   267.71,    78.27  L   293.20,    78.27  L   293.20,    35.78  L   267.71,    35.78 "/>
	</a>
	<a ewd:figtype="fuse" style="cursor:pointer;" ewd:code="FUSE35" ewd:figID="33">
		<path style="&st7; stroke-width:0;" d=" M   352.69,    35.78  L   352.69,    78.27  L   378.19,    78.27  L   378.19,    35.78  L   352.69,    35.78 "/>
	</a>
	<a ewd:figtype="fuse" style="cursor:pointer;" ewd:code="FUSE60,FUSE59,FUSE58" ewd:figID="34">
		<path style="&st7; stroke-width:0;" d=" M   756.37,   282.24  L   968.84,   282.24  L   968.84,   137.76  L   756.37,   137.76  L   756.37,   282.24 "/>
	</a>
	<a ewd:comment="4" style="cursor:pointer;" ewd:lineID="1">
		<path style="stroke:#000000;stroke-width:5.10 ;&st6;" d=" M    84.99,   681.67  L    84.99,   503.77  "/>
		<path style="stroke:#FFFFFF;stroke-width:4.53 ;&st6;" d=" M    84.99,   681.67  L    84.99,   503.77  "/>
		<path style="stroke:#000000;stroke-width:1.13 ;&st6;" d=" M    84.99,   681.67  L    84.99,   503.77  "/>
	</a>
	<a ewd:comment="4" style="cursor:pointer;" ewd:lineID="2">
		<path style="stroke:#000000;stroke-width:5.10 ;&st6;" d=" M    84.99,   341.73  L    84.99,   468.64  "/>
		<path style="stroke:#FFFFFF;stroke-width:2.27 ;&st6;" d=" M    84.99,   341.73  L    84.99,   468.64  "/>
		<path style="stroke:#FFE600;stroke-width:1.13 ;&st6;" d=" M    84.99,   341.73  L    84.99,   468.64  "/>
	</a>
	<a ewd:comment="4" style="cursor:pointer;" ewd:lineID="3">
		<path style="stroke:#000000;stroke-width:5.10 ;&st6;" d=" M    84.99,   206.32  L    84.99,   299.24  "/>
		<path style="stroke:#FFFFFF;stroke-width:2.27 ;&st6;" d=" M    84.99,   206.32  L    84.99,   299.24  "/>
		<path style="stroke:#FFE600;stroke-width:1.13 ;&st6;" d=" M    84.99,   206.32  L    84.99,   299.24  "/>
	</a>
	<a ewd:comment="4" style="cursor:pointer;" ewd:lineID="4">
		<path style="stroke:#999999;stroke-width:5.10 ;&st6;" d=" M    84.99,   103.77  L    84.99,   171.19  "/>
	</a>
	<a ewd:comment="4" style="cursor:pointer;" ewd:lineID="5">
		<path style="stroke:#00A0C6;stroke-width:5.10 ;&st6;" d=" M   169.97,   239.75  L   169.97,   299.24  "/>
		<path style="stroke:#FFFFFF;stroke-width:2.27 ;&st6;" d=" M   169.97,   239.75  L   169.97,   299.24  "/>
		<path style="stroke:#FF0000;stroke-width:1.13 ;&st6;" d=" M   169.97,   239.75  L   169.97,   299.24  "/>
	</a>
	<a ewd:comment="4" style="cursor:pointer;" ewd:lineID="6">
		<path style="stroke:#00A0C6;stroke-width:5.10 ;&st6;" d=" M   169.97,   169.77  L   169.97,   222.75  "/>
		<path style="stroke:#FFFFFF;stroke-width:2.27 ;&st6;" d=" M   169.97,   169.77  L   169.97,   222.75  "/>
		<path style="stroke:#FF0000;stroke-width:1.13 ;&st6;" d=" M   169.97,   169.77  L   169.97,   222.75  "/>
	</a>
	<a ewd:comment="4" style="cursor:pointer;" ewd:lineID="7">
		<path style="stroke:#00A0C6;stroke-width:5.10 ;&st6;" d=" M   169.97,   103.77  L   169.97,   154.76  "/>
		<path style="stroke:#FFFFFF;stroke-width:2.27 ;&st6;" d=" M   169.97,   103.77  L   169.97,   154.76  "/>
		<path style="stroke:#FF0000;stroke-width:1.13 ;&st6;" d=" M   169.97,   103.77  L   169.97,   154.76  "/>
	</a>
	<a style="cursor:pointer;" ewd:lineID="8"> d=" M   280.45,   178.27  L   280.45,   418.22 
	
		<path style="stroke:#000000;stroke-width:5.10 ;&st6;" d=" M   280.45,   178.27  L   280.45,   418.22  "/>
		<path style="stroke:#FFFFFF;stroke-width:4.53 ;&st6;" d=" M   280.45,   178.27  L   280.45,   418.22  "/>
	</a>
	<a style="cursor:pointer;" ewd:lineID="9"> d=" M   280.45,   103.77  L   280.45,   154.76 
	
		<path style="stroke:#000000;stroke-width:5.10 ;&st6;" d=" M   280.45,   103.77  L   280.45,   154.76  "/>
		<path style="stroke:#FFFFFF;stroke-width:4.53 ;&st6;" d=" M   280.45,   103.77  L   280.45,   154.76  "/>
	</a>
	<a style="cursor:pointer;" ewd:lineID="10"> d=" M   288.95,   426.71  L   892.35,   426.71  L   892.35,   282.24 
	
		<path style="stroke:#000000;stroke-width:5.10 ;&st6;" d=" M   288.95,   426.71  L   892.35,   426.71  L   892.35,   282.24  "/>
		<path style="stroke:#FFFFFF;stroke-width:4.53 ;&st6;" d=" M   288.95,   426.71  L   892.35,   426.71  L   892.35,   282.24  "/>
	</a>
	<a style="cursor:pointer;" ewd:lineID="11">
		<path style="stroke:#000000;stroke-width:5.10 ;&st6;" d=" M   365.44,   195.27  L   365.44,   231.25  "/>
		<path style="stroke:#FFFFFF;stroke-width:2.27 ;&st6;" d=" M   365.44,   195.27  L   365.44,   231.25  "/>
		<path style="stroke:#00A0C6;stroke-width:1.13 ;&st6;" d=" M   365.44,   195.27  L   365.44,   231.25  "/>
	</a>
	<a style="cursor:pointer;" ewd:lineID="12">
		<path style="stroke:#000000;stroke-width:5.10 ;&st6;" d=" M   365.44,   103.77  L   365.44,   154.76  "/>
		<path style="stroke:#FFFFFF;stroke-width:2.27 ;&st6;" d=" M   365.44,   103.77  L   365.44,   154.76  "/>
		<path style="stroke:#00A0C6;stroke-width:1.13 ;&st6;" d=" M   365.44,   103.77  L   365.44,   154.76  "/>
	</a>
	<a style="cursor:pointer;" ewd:lineID="13">
		<path style="stroke:#000000;stroke-width:5.10 ;&st6;" d=" M   586.40,   146.26  L   458.92,   146.26  L   458.92,   367.22  L   365.44,   367.22  L   365.44,   246.26  "/>
		<path style="stroke:#FFFFFF;stroke-width:2.27 ;&st6;" d=" M   586.40,   146.26  L   458.92,   146.26  L   458.92,   367.22  L   365.44,   367.22  L   365.44,   246.26  "/>
		<path style="stroke:#00A0C6;stroke-width:1.13 ;&st6;" d=" M   586.40,   146.26  L   458.92,   146.26  L   458.92,   367.22  L   365.44,   367.22  L   365.44,   246.26  "/>
	</a>
	<a style="cursor:pointer;" ewd:lineID="14"> d=" M   645.89,   146.26  L   679.89,   146.26  L   679.89,   224.73 
	
		<path style="stroke:#000000;stroke-width:5.10 ;&st6;" d=" M   645.89,   146.26  L   679.89,   146.26  L   679.89,   224.73  "/>
		<path style="stroke:#FFFFFF;stroke-width:4.53 ;&st6;" d=" M   645.89,   146.26  L   679.89,   146.26  L   679.89,   224.73  "/>
	</a>
	<a style="cursor:pointer;" ewd:lineID="15">
		<path style="stroke:#FF0000;stroke-width:5.10 ;&st6;" d=" M   645.89,   129.26  L   722.38,   129.26  L   722.38,   224.73  "/>
		<path style="stroke:#FFFFFF;stroke-width:2.27 ;&st6;" d=" M   645.89,   129.26  L   722.38,   129.26  L   722.38,   224.73  "/>
		<path style="stroke:#008837;stroke-width:1.13 ;&st6;" d=" M   645.89,   129.26  L   722.38,   129.26  L   722.38,   224.73  "/>
	</a>
	<a style="cursor:pointer;" ewd:lineID="16"> d=" M   679.89,   239.75  L   679.89,   350.23 
	
		<path style="stroke:#000000;stroke-width:5.10 ;&st6;" d=" M   679.89,   239.75  L   679.89,   350.23  "/>
		<path style="stroke:#FFFFFF;stroke-width:4.53 ;&st6;" d=" M   679.89,   239.75  L   679.89,   350.23  "/>
	</a>
	<a style="cursor:pointer;" ewd:lineID="17"> d=" M   688.38,   358.73  L   790.37,   358.73  L   790.37,   282.24 
	
		<path style="stroke:#000000;stroke-width:5.10 ;&st6;" d=" M   688.38,   358.73  L   790.37,   358.73  L   790.37,   282.24  "/>
		<path style="stroke:#FFFFFF;stroke-width:4.53 ;&st6;" d=" M   688.38,   358.73  L   790.37,   358.73  L   790.37,   282.24  "/>
	</a>
	<a style="cursor:pointer;" ewd:lineID="18">
		<path style="stroke:#FF0000;stroke-width:5.10 ;&st6;" d=" M   722.38,   239.75  L   722.38,   392.72  L   832.86,   392.72  "/>
		<path style="stroke:#FFFFFF;stroke-width:2.27 ;&st6;" d=" M   722.38,   239.75  L   722.38,   392.72  L   832.86,   392.72  "/>
		<path style="stroke:#008837;stroke-width:1.13 ;&st6;" d=" M   722.38,   239.75  L   722.38,   392.72  L   832.86,   392.72  "/>
	</a>
	<a style="cursor:pointer;" ewd:lineID="19">
		<path style="stroke:#FF0000;stroke-width:5.10 ;&st6;" d=" M   841.36,   384.22  L   841.36,   282.24  "/>
		<path style="stroke:#FFFFFF;stroke-width:2.27 ;&st6;" d=" M   841.36,   384.22  L   841.36,   282.24  "/>
		<path style="stroke:#008837;stroke-width:1.13 ;&st6;" d=" M   841.36,   384.22  L   841.36,   282.24  "/>
	</a>
	<a ewd:comment="2" style="cursor:pointer;" ewd:lineID="20">
		<path style="stroke:#000000;stroke-width:5.10 ;&st6;" d=" M   943.34,   435.21  L   943.34,   681.67  "/>
		<path style="stroke:#FFFFFF;stroke-width:4.53 ;&st6;" d=" M   943.34,   435.21  L   943.34,   681.67  "/>
		<path style="stroke:#000000;stroke-width:1.13 ;&st6;" d=" M   943.34,   435.21  L   943.34,   681.67  "/>
	</a>
	<a ewd:comment="2" style="cursor:pointer;" ewd:lineID="21">
		<path style="stroke:#000000;stroke-width:5.10 ;&st6;" d=" M   943.34,   282.24  L   943.34,   418.22  "/>
		<path style="stroke:#FFFFFF;stroke-width:4.53 ;&st6;" d=" M   943.34,   282.24  L   943.34,   418.22  "/>
		<path style="stroke:#000000;stroke-width:1.13 ;&st6;" d=" M   943.34,   282.24  L   943.34,   418.22  "/>
	</a>
	<a ewd:comment="3" style="cursor:pointer;" ewd:lineID="22">
		<path style="stroke:#000000;stroke-width:5.10 ;&st6;" d=" M   943.34,   282.24  L   943.34,   290.74  L   951.84,   299.24  L  1002.83,   299.24  L  1002.83,   418.22  "/>
		<path style="stroke:#FFFFFF;stroke-width:4.53 ;&st6;" d=" M   943.34,   282.24  L   943.34,   290.74  L   951.84,   299.24  L  1002.83,   299.24  L  1002.83,   418.22  "/>
		<path style="stroke:#000000;stroke-width:1.13 ;&st6;" d=" M   943.34,   282.24  L   943.34,   290.74  L   951.84,   299.24  L  1002.83,   299.24  L  1002.83,   418.22  "/>
	</a>
	<a style="cursor:pointer;" ewd:lineID="23">
		<path style="stroke:#000000;stroke-width:5.10 ;&st6;" d=" M   951.84,   426.71  L   977.34,   426.71  L   977.34,   664.67  L   994.33,   664.67  L  1002.83,   673.17  L  1002.83,   681.67  "/>
		<path style="stroke:#FFFFFF;stroke-width:4.53 ;&st6;" d=" M   951.84,   426.71  L   977.34,   426.71  L   977.34,   664.67  L   994.33,   664.67  L  1002.83,   673.17  L  1002.83,   681.67  "/>
		<path style="stroke:#000000;stroke-width:1.13 ;&st6;" d=" M   951.84,   426.71  L   977.34,   426.71  L   977.34,   664.67  L   994.33,   664.67  L  1002.83,   673.17  L  1002.83,   681.67  "/>
	</a>
	<a ewd:comment="3" style="cursor:pointer;" ewd:lineID="24">
		<path style="stroke:#000000;stroke-width:5.10 ;&st6;" d=" M  1002.83,   435.21  L  1002.83,   681.67  "/>
		<path style="stroke:#FFFFFF;stroke-width:4.53 ;&st6;" d=" M  1002.83,   435.21  L  1002.83,   681.67  "/>
		<path style="stroke:#000000;stroke-width:1.13 ;&st6;" d=" M  1002.83,   435.21  L  1002.83,   681.67  "/>
	</a>
	<g ewd:figtype="rb" ewd:figID="1" ewd:code="FUSE1">
		<path style="stroke-width:1.42 ;&st7;  " d=" M    87.11,    95.27  L    82.86,    95.27  "/>
		<path style="stroke-width:1.42 ;&st7;  " d=" M    87.11,   103.77  L    82.86,   103.77  "/>
		<path style="stroke-width:0.85 ;&st7;  " d=" M    84.99,    78.27  L    84.99,    95.27  "/>
		<path style="stroke-width:1.42 ;&st7;   " d=" M    82.86,    95.27  C    80.51     95.27     78.61     97.17     78.61     99.52  "/>
		<path style="stroke-width:1.42 ;&st7;   " d=" M    78.61,    99.52  C    78.61    101.87     80.51    103.77     82.86    103.77  "/>
		<path style="stroke-width:1.42 ;&st7;   " d=" M    87.11,   103.77  C    89.46    103.77     91.36    101.87     91.36     99.52  "/>
		<path style="stroke-width:1.42 ;&st7;   " d=" M    91.36,    99.52  C    91.36     97.17     89.46     95.27     87.11     95.27  "/>
		<path style="stroke-width:0.28 ;&st9;  " d=" M    84.99,    90.37  L    82.15,    87.54  L    82.15,    91.79  L    84.99,    94.62  L    87.82,    91.79  L    87.82,    87.54  L    84.99,    90.37  "/>
		<text style="&st18;" transform="matrix(&st16;  76.48  32.08 )">(ACC)</text>
		<text style="&st18;" transform="matrix(&st16;  101.41  56.17 )">7.5A <tspan x="0 " dy="6.0">ACC</tspan></text>
		<text style="&st18;" transform="matrix(&st16;  83.19  101.49 )">2</text>
		<text style="&st18;" transform="matrix(&st16;  78.8  86.47 )">2</text>
		<path style="stroke-width:0.85 ;&st7;  " d=" M    84.99,    69.77  L    84.99,    78.27  "/>
		<path style="stroke-width:0.85 ;&st7;   " d=" M    86.40,    68.36  C    86.40     67.57     85.77     66.94     84.99     66.94  "/>
		<path style="stroke-width:0.85 ;&st7;   " d=" M    84.99,    66.94  C    84.20     66.94     83.57     67.57     83.57     68.36  "/>
		<path style="stroke-width:0.85 ;&st7;   " d=" M    83.57,    68.36  C    83.57     69.14     84.20     69.77     84.99     69.77  "/>
		<path style="stroke-width:0.85 ;&st7;   " d=" M    84.99,    69.77  C    85.77     69.77     86.40     69.14     86.40     68.36  "/>
		<path style="stroke-width:0.85 ;&st7;   " d=" M    86.40,    45.69  C    86.40     44.91     85.77     44.28     84.99     44.28  "/>
		<path style="stroke-width:0.85 ;&st7;   " d=" M    84.99,    44.28  C    84.20     44.28     83.57     44.91     83.57     45.69  "/>
		<path style="stroke-width:0.85 ;&st7;   " d=" M    83.57,    45.69  C    83.57     46.48     84.20     47.11     84.99     47.11  "/>
		<path style="stroke-width:0.85 ;&st7;   " d=" M    84.99,    47.11  C    85.77     47.11     86.40     46.48     86.40     45.69  "/>
		<path style="stroke-width:1.42 ;&st7;   " d=" M    84.99,    66.94  C    87.72     65.33     88.64     61.80     87.02     59.06  "/>
		<path style="stroke-width:1.42 ;&st7;   " d=" M    87.02,    59.06  C    86.50     58.18     85.87     57.55     84.99     57.03  "/>
		<path style="stroke-width:1.42 ;&st7;   " d=" M    84.99,    47.11  C    82.25     48.72     81.34     52.25     82.95     54.99  "/>
		<path style="stroke-width:1.42 ;&st7;   " d=" M    82.95,    54.99  C    83.47     55.87     84.10     56.51     84.99     57.03  "/>
		<path style="stroke-width:1.42 ;&st7;  " d=" M    72.24,    35.78  L    72.24,    78.27  L    97.73,    78.27  L    97.73,    35.78  L    72.24,    35.78  "/>
	</g>
	<g ewd:figtype="conn" ewd:figID="2" ewd:code="L21">
		<path style="stroke-width:0.85 ;&st7;  " d=" M   586.40,   146.26  L   601.98,   146.26  "/>
		<path style="stroke-width:0.85 ;&st7;  " d=" M   645.89,   146.26  L   633.14,   146.26  "/>
		<path style="stroke-width:0.85 ;&st7;   " d=" M   604.82,   146.26  C   604.82    145.48    604.18    144.84    603.40    144.84  "/>
		<path style="stroke-width:0.85 ;&st7;   " d=" M   603.40,   144.84  C   602.62    144.84    601.98    145.48    601.98    146.26  "/>
		<path style="stroke-width:0.85 ;&st7;   " d=" M   601.98,   146.26  C   601.98    147.04    602.62    147.68    603.40    147.68  "/>
		<path style="stroke-width:0.85 ;&st7;   " d=" M   603.40,   147.68  C   604.18    147.68    604.82    147.04    604.82    146.26  "/>
		<path style="stroke-width:0.85 ;&st7;   " d=" M   630.31,   137.76  C   630.31    136.98    629.68    136.35    628.89    136.35  "/>
		<path style="stroke-width:0.85 ;&st7;   " d=" M   628.89,   136.35  C   628.11    136.35    627.48    136.98    627.48    137.76  "/>
		<path style="stroke-width:0.85 ;&st7;   " d=" M   627.48,   137.76  C   627.48    138.54    628.11    139.18    628.89    139.18  "/>
		<path style="stroke-width:0.85 ;&st7;   " d=" M   628.89,   139.18  C   629.68    139.18    630.31    138.54    630.31    137.76  "/>
		<path style="stroke-width:0.85 ;&st7;   " d=" M   630.31,   154.76  C   630.31    153.98    629.68    153.34    628.89    153.34  "/>
		<path style="stroke-width:0.85 ;&st7;   " d=" M   628.89,   153.34  C   628.11    153.34    627.48    153.98    627.48    154.76  "/>
		<path style="stroke-width:0.85 ;&st7;   " d=" M   627.48,   154.76  C   627.48    155.54    628.11    156.18    628.89    156.18  "/>
		<path style="stroke-width:0.85 ;&st7;   " d=" M   628.89,   156.18  C   629.68    156.18    630.31    155.54    630.31    154.76  "/>
		<path style="stroke-width:0.85 ;&st7;   " d=" M   633.14,   146.26  C   633.14    145.48    632.51    144.84    631.73    144.84  "/>
		<path style="stroke-width:0.85 ;&st7;   " d=" M   631.73,   144.84  C   630.95    144.84    630.31    145.48    630.31    146.26  "/>
		<path style="stroke-width:0.85 ;&st7;   " d=" M   630.31,   146.26  C   630.31    147.04    630.95    147.68    631.73    147.68  "/>
		<path style="stroke-width:0.85 ;&st7;   " d=" M   631.73,   147.68  C   632.51    147.68    633.14    147.04    633.14    146.26  "/>
		<path style="stroke-width:1.42 ;&st7;   " d=" M   621.33,   128.42  C   620.35    125.43    617.60    123.56    614.46    123.74  "/>
		<path style="stroke-width:0.85 ;&st7;  " d=" M   645.89,   129.26  L   628.89,   129.26  L   628.89,   136.35  "/>
		<path style="stroke-width:0.85 ;&st7;  " d=" M   628.89,   156.18  L   628.89,   163.26  L   645.89,   163.26  "/>
		<path style="stroke-width:1.42 ;&st7;  " d=" M   586.40,   180.26  L   645.89,   180.26  L   645.89,   112.27  L   586.40,   112.27  L   586.40,   180.26  "/>
		<path style="stroke-width:1.42 ;&st7;  " d=" M   614.46,   123.74  L   604.63,   145.55  L   621.33,   128.42  "/>
		<text style="&st18;" transform="matrix(&st16;  634.14  159.57 )">ST1</text>
		<text style="&st18;" transform="matrix(&st16;  634.92  142.57 )">IG1</text>
		<text style="&st18;" transform="matrix(&st16;  631.43  125.57 )">ACC</text>
		<text style="&st18;" transform="matrix(&st16;  588.28  142.57 )">AM1</text>
		<text style="&st18;" transform="matrix(&st16;  580.22  142.57 )">4</text>
		<text style="&st18;" transform="matrix(&st16;  648.48  142.57 )">1</text>
		<text style="&st18;" transform="matrix(&st16;  648.48  125.57 )">2</text>
		<g ewd:figtype="title">
			<text style="&st18;" transform="matrix(&st16;  582.99  187.87 )">L21</text>
			<text style="&st18;" transform="matrix(&st16;  583.0  194.97 )" ewd:textID="2">Ignition or Starter <tspan x="0 " dy="6.0">Switch Assembly</tspan></text>
		</g>
	</g>
	<g ewd:figtype="conn" ewd:figID="3" ewd:code="I61">
		<path style="stroke-width:0.85 ;&st7;  " d=" M    84.99,   180.26  L    84.99,   197.25  "/>
		<path style="stroke-width:1.42 ;&st7;  " d=" M    76.49,   180.26  L    93.48,   180.26  L    93.48,   197.25  L    76.49,   197.25  L    76.49,   180.26  "/>
		<text style="&st18;" transform="matrix(&st16;  76.29  203.75 )">7</text>
		<text style="&st18;" transform="matrix(&st16;  82.56  203.75 )">C</text>
		<path style="stroke-width:1.42 ;&st7;   " d=" M    89.52,   201.78  C    89.52    199.28     87.49    197.25     84.99    197.25  "/>
		<path style="stroke-width:1.42 ;&st7;   " d=" M    84.99,   197.25  C    82.48    197.25     80.45    199.28     80.45    201.78  "/>
		<path style="stroke-width:1.42 ;&st7;   " d=" M    80.45,   201.78  C    80.45    204.29     82.48    206.32     84.99    206.32  "/>
		<path style="stroke-width:1.42 ;&st7;   " d=" M    84.99,   206.32  C    87.49    206.32     89.52    204.29     89.52    201.78  "/>
		<text style="&st18;" transform="matrix(&st16;  76.29  177.69 )">5</text>
		<text style="&st18;" transform="matrix(&st16;  82.56  177.69 )">C</text>
		<path style="stroke-width:1.42 ;&st7;   " d=" M    89.52,   175.72  C    89.52    173.22     87.49    171.19     84.99    171.19  "/>
		<path style="stroke-width:1.42 ;&st7;   " d=" M    84.99,   171.19  C    82.48    171.19     80.45    173.22     80.45    175.72  "/>
		<path style="stroke-width:1.42 ;&st7;   " d=" M    80.45,   175.72  C    80.45    178.23     82.48    180.26     84.99    180.26  "/>
		<path style="stroke-width:1.42 ;&st7;   " d=" M    84.99,   180.26  C    87.49    180.26     89.52    178.23     89.52    175.72  "/>
		<g ewd:figtype="title">
			<text style="&st18;" transform="matrix(&st17;  101.38  200.15 )">I61(C)</text>
			<text style="&st18;" transform="matrix(&st17;  108.2  200.16 )" ewd:textID="4">No. 11 <tspan x="0 " dy="6.0">Junction Connector</tspan></text>
		</g>
	</g>
	<g ewd:figtype="conn" ewd:figID="4" ewd:code="I76">
		<path style="stroke:#000000;stroke-width:5.10 ;&st6;" d=" M   790.37,   222.75  L   790.37,   188.75  "/>
		<path style="stroke:#000000;stroke-width:5.10 ;&st6;" d=" M   841.36,   222.75  L   841.36,   188.75  "/>
		<path style="stroke:#000000;stroke-width:5.10 ;&st6;" d=" M   892.35,   222.75  L   892.35,   188.75  "/>
		<path style="stroke:#000000;stroke-width:5.10 ;&st6;" d=" M   790.37,   256.74  L   790.37,   282.24  "/>
		<path style="stroke:#FFFFFF;stroke-width:2.27 ;&st6;" d=" M   790.37,   256.74  L   790.37,   282.24  "/>
		<path style="stroke:#FFE600;stroke-width:1.13 ;&st6;" d=" M   790.37,   256.74  L   790.37,   282.24  "/>
		<path style="stroke:#00A0C6;stroke-width:5.10 ;&st6;" d=" M   841.36,   256.74  L   841.36,   282.24  "/>
		<path style="stroke:#FFFFFF;stroke-width:2.27 ;&st6;" d=" M   841.36,   256.74  L   841.36,   282.24  "/>
		<path style="stroke:#FF0000;stroke-width:1.13 ;&st6;" d=" M   841.36,   256.74  L   841.36,   282.24  "/> d=" M   892.35,   256.74  L   892.35,   282.24 
	
		<path style="stroke:#000000;stroke-width:5.10 ;&st6;" d=" M   892.35,   256.74  L   892.35,   282.24  "/>
		<path style="stroke:#FFFFFF;stroke-width:4.53 ;&st6;" d=" M   892.35,   256.74  L   892.35,   282.24  "/>
		<path style="stroke:#000000;stroke-width:5.10 ;&st6;" d=" M   943.34,   282.24  L   943.34,   188.75  "/>
		<path style="stroke:#FFFFFF;stroke-width:4.53 ;&st6;" d=" M   943.34,   282.24  L   943.34,   188.75  "/>
		<path style="stroke:#000000;stroke-width:1.13 ;&st6;" d=" M   943.34,   282.24  L   943.34,   188.75  "/>
		<text style="&st18;" transform="matrix(&st17;  939.65  211.71 )">W-B</text>
		<text style="&st18;" transform="matrix(&st16;  787.02  177.98 )">IG</text>
		<text style="&st18;" transform="matrix(&st16;  834.71  177.98 )">ACC</text>
		<path style="stroke-width:1.42 ;&st7;  " d=" M   756.37,   282.24  L   968.84,   282.24  L   968.84,   137.76  L   756.37,   137.76  L   756.37,   282.24  "/>
		<path style="stroke-width:1.42 ;&st7;  " d=" M   773.37,   163.26  L   773.37,   188.75  L   807.36,   188.75  L   807.36,   163.26  L   773.37,   163.26  "/>
		<path style="stroke-width:1.42 ;&st7;  " d=" M   824.36,   163.26  L   824.36,   188.75  L   858.36,   188.75  L   858.36,   163.26  L   824.36,   163.26  "/>
		<path style="stroke-width:1.42 ;&st7;  " d=" M   875.35,   163.26  L   875.35,   188.75  L   909.35,   188.75  L   909.35,   163.26  L   875.35,   163.26  "/>
		<path style="stroke-width:1.42 ;&st7;  " d=" M   926.34,   163.26  L   926.34,   188.75  L   960.34,   188.75  L   960.34,   163.26  L   926.34,   163.26  "/>
		<text style="&st18;" transform="matrix(&st16;  888.61  177.98 )">+B</text>
		<text style="&st18;" transform="matrix(&st16;  939.68  177.98 )">-E</text>
		<text style="&st18;" transform="matrix(&st17;  800.84  248.69 )">10A IG</text>
		<text style="&st18;" transform="matrix(&st17;  851.83  251.98 )">10A ACC</text>
		<text style="&st18;" transform="matrix(&st17;  902.82  249.07 )">20A +B</text>
		<text style="&st18;" transform="matrix(&st16;  792.95  278.55 )">IG</text>
		<text style="&st18;" transform="matrix(&st16;  843.94  278.55 )">ACC</text>
		<text style="&st18;" transform="matrix(&st16;  894.93  278.55 )">+B</text>
		<text style="&st18;" transform="matrix(&st16;  945.93  278.55 )">E</text>
		<text style="&st18;" transform="matrix(&st17;  786.67  270.42 )">B-Y</text>
		<text style="&st18;" transform="matrix(&st17;  837.66  270.23 )">L-R</text>
		<text style="&st18;" transform="matrix(&st17;  888.66  267.71 )">W</text>
		<text style="&st18;" transform="matrix(&st17;  786.67  207.44 )">B</text>
		<text style="&st18;" transform="matrix(&st17;  837.66  207.44 )">B</text>
		<text style="&st18;" transform="matrix(&st17;  888.65  207.44 )">B</text>
		<path style="stroke-width:1.42 ;&st7;   " d=" M   793.20,   253.91  C   793.20    252.35    791.93    251.08    790.37    251.08  "/>
		<path style="stroke-width:1.42 ;&st7;   " d=" M   790.37,   251.08  C   788.80    251.08    787.54    252.35    787.54    253.91  "/>
		<path style="stroke-width:1.42 ;&st7;   " d=" M   787.54,   253.91  C   787.54    255.47    788.80    256.74    790.37    256.74  "/>
		<path style="stroke-width:1.42 ;&st7;   " d=" M   790.37,   256.74  C   791.93    256.74    793.20    255.47    793.20    253.91  "/>
		<path style="stroke-width:1.42 ;&st7;   " d=" M   793.20,   225.58  C   793.20    224.02    791.93    222.75    790.37    222.75  "/>
		<path style="stroke-width:1.42 ;&st7;   " d=" M   790.37,   222.75  C   788.80    222.75    787.54    224.02    787.54    225.58  "/>
		<path style="stroke-width:1.42 ;&st7;   " d=" M   787.54,   225.58  C   787.54    227.15    788.80    228.41    790.37    228.41  "/>
		<path style="stroke-width:1.42 ;&st7;   " d=" M   790.37,   228.41  C   791.93    228.41    793.20    227.15    793.20    225.58  "/>
		<path style="stroke-width:1.42 ;&st7;   " d=" M   790.37,   228.41  C   787.24    229.55    785.63    233.02    786.77    236.14  "/>
		<path style="stroke-width:1.42 ;&st7;   " d=" M   786.77,   236.14  C   787.40    237.88    788.63    239.11    790.37    239.75  "/>
		<path style="stroke-width:1.42 ;&st7;   " d=" M   790.37,   251.08  C   793.50    249.94    795.11    246.47    793.97    243.35  "/>
		<path style="stroke-width:1.42 ;&st7;   " d=" M   793.97,   243.35  C   793.34    241.61    792.11    240.38    790.37    239.74  "/>
		<path style="stroke-width:1.42 ;&st7;   " d=" M   844.19,   253.91  C   844.19    252.35    842.92    251.08    841.36    251.08  "/>
		<path style="stroke-width:1.42 ;&st7;   " d=" M   841.36,   251.08  C   839.79    251.08    838.53    252.35    838.53    253.91  "/>
		<path style="stroke-width:1.42 ;&st7;   " d=" M   838.53,   253.91  C   838.53    255.47    839.79    256.74    841.36    256.74  "/>
		<path style="stroke-width:1.42 ;&st7;   " d=" M   841.36,   256.74  C   842.92    256.74    844.19    255.47    844.19    253.91  "/>
		<path style="stroke-width:1.42 ;&st7;   " d=" M   844.19,   225.58  C   844.19    224.02    842.92    222.75    841.36    222.75  "/>
		<path style="stroke-width:1.42 ;&st7;   " d=" M   841.36,   222.75  C   839.79    222.75    838.53    224.02    838.53    225.58  "/>
		<path style="stroke-width:1.42 ;&st7;   " d=" M   838.53,   225.58  C   838.53    227.15    839.79    228.41    841.36    228.41  "/>
		<path style="stroke-width:1.42 ;&st7;   " d=" M   841.36,   228.41  C   842.92    228.41    844.19    227.15    844.19    225.58  "/>
		<path style="stroke-width:1.42 ;&st7;   " d=" M   841.36,   228.41  C   838.23    229.55    836.62    233.02    837.76    236.14  "/>
		<path style="stroke-width:1.42 ;&st7;   " d=" M   837.76,   236.14  C   838.39    237.88    839.62    239.11    841.36    239.75  "/>
		<path style="stroke-width:1.42 ;&st7;   " d=" M   841.36,   251.08  C   844.49    249.94    846.10    246.47    844.96    243.35  "/>
		<path style="stroke-width:1.42 ;&st7;   " d=" M   844.96,   243.35  C   844.33    241.61    843.10    240.38    841.36    239.74  "/>
		<path style="stroke-width:1.42 ;&st7;   " d=" M   895.18,   253.91  C   895.18    252.35    893.92    251.08    892.35    251.08  "/>
		<path style="stroke-width:1.42 ;&st7;   " d=" M   892.35,   251.08  C   890.79    251.08    889.52    252.35    889.52    253.91  "/>
		<path style="stroke-width:1.42 ;&st7;   " d=" M   889.52,   253.91  C   889.52    255.47    890.79    256.74    892.35    256.74  "/>
		<path style="stroke-width:1.42 ;&st7;   " d=" M   892.35,   256.74  C   893.92    256.74    895.18    255.47    895.18    253.91  "/>
		<path style="stroke-width:1.42 ;&st7;   " d=" M   895.18,   225.58  C   895.18    224.02    893.92    222.75    892.35    222.75  "/>
		<path style="stroke-width:1.42 ;&st7;   " d=" M   892.35,   222.75  C   890.79    222.75    889.52    224.02    889.52    225.58  "/>
		<path style="stroke-width:1.42 ;&st7;   " d=" M   889.52,   225.58  C   889.52    227.15    890.79    228.41    892.35    228.41  "/>
		<path style="stroke-width:1.42 ;&st7;   " d=" M   892.35,   228.41  C   893.92    228.41    895.18    227.15    895.18    225.58  "/>
		<path style="stroke-width:1.42 ;&st7;   " d=" M   892.35,   228.41  C   889.22    229.55    887.61    233.02    888.75    236.14  "/>
		<path style="stroke-width:1.42 ;&st7;   " d=" M   888.75,   236.14  C   889.38    237.88    890.61    239.11    892.35    239.75  "/>
		<path style="stroke-width:1.42 ;&st7;   " d=" M   892.35,   251.08  C   895.48    249.94    897.09    246.47    895.95    243.35  "/>
		<path style="stroke-width:1.42 ;&st7;   " d=" M   895.95,   243.35  C   895.32    241.61    894.09    240.38    892.35    239.74  "/>
		<text style="&st18;" transform="matrix(&st16;  886.17  290.43 )">1</text>
		<text style="&st18;" transform="matrix(&st16;  784.18  290.43 )">2</text>
		<text style="&st18;" transform="matrix(&st16;  835.18  290.43 )">3</text>
		<text style="&st18;" transform="matrix(&st16;  937.16  290.43 )">4</text>
		<g ewd:figtype="title">
			<text style="&st18;" transform="matrix(&st16;  761.47  134.07 )" ewd:textID="1">Fuse Block Assembly</text>
			<text style="&st18;" transform="matrix(&st16;  761.46  127.24 )">I76</text>
		</g>
	</g>
	<g ewd:figtype="conn" ewd:figID="5" ewd:code="I10">
		<g ewd:lineID="2">
			<text style="&st18;" transform="matrix(&st16;  78.8  349.92 )">3</text>
			<text style="&st18;" transform="matrix(&st16;  82.88  338.03 )">E</text>
		</g>
		<g ewd:lineID="3">
			<text style="&st18;" transform="matrix(&st16;  78.8  295.55 )">2</text>
			<text style="&st18;" transform="matrix(&st16;  78.34  306.87 )">ACC</text>
		</g>
		<g ewd:lineID="5">
			<text style="&st18;" transform="matrix(&st16;  163.79  295.55 )">1</text>
			<text style="&st18;" transform="matrix(&st16;  166.62  306.87 )">IG</text>
		</g>
		<path style="stroke-width:1.42 ;&st7;  " d=" M    67.99,   341.73  L   186.97,   341.73  L   186.97,   299.24  L    67.99,   299.24  L    67.99,   341.73  "/>
		<g ewd:figtype="title">
			<text style="&st18;" transform="matrix(&st16;  141.06  349.62 )">I10</text>
			<text style="&st18;" transform="matrix(&st16;  141.07  356.45 )" ewd:textID="5">Option Connector <tspan x="0 " dy="6.0">(Power Outlet Socket)</tspan></text>
		</g>
	</g>
	<g ewd:figtype="conn" ewd:figID="6" ewd:code="I54">
		<path style="stroke-width:1.42 ;&st7;  " d=" M    76.49,   477.71  L    93.48,   477.71  L    93.48,   494.70  L    76.49,   494.70  L    76.49,   477.71  "/>
		<path style="stroke-width:0.85 ;&st7;  " d=" M    84.99,   477.71  L    84.99,   494.70  "/>
		<text style="&st18;" transform="matrix(&st16;  76.29  501.2 )">1</text>
		<path style="stroke-width:1.42 ;&st7;   " d=" M    89.52,   499.24  C    89.52    496.73     87.49    494.70     84.99    494.70  "/>
		<path style="stroke-width:1.42 ;&st7;   " d=" M    84.99,   494.70  C    82.48    494.70     80.45    496.73     80.45    499.24  "/>
		<path style="stroke-width:1.42 ;&st7;   " d=" M    80.45,   499.24  C    80.45    501.74     82.48    503.77     84.99    503.77  "/>
		<path style="stroke-width:1.42 ;&st7;   " d=" M    84.99,   503.77  C    87.49    503.77     89.52    501.74     89.52    499.24  "/>
		<text style="&st18;" transform="matrix(&st16;  82.68  501.2 )">A</text>
		<text style="&st18;" transform="matrix(&st16;  73.19  475.14 )">12</text>
		<path style="stroke-width:1.42 ;&st7;   " d=" M    89.52,   473.17  C    89.52    470.67     87.49    468.64     84.99    468.64  "/>
		<path style="stroke-width:1.42 ;&st7;   " d=" M    84.99,   468.64  C    82.48    468.64     80.45    470.67     80.45    473.17  "/>
		<path style="stroke-width:1.42 ;&st7;   " d=" M    80.45,   473.17  C    80.45    475.68     82.48    477.71     84.99    477.71  "/>
		<path style="stroke-width:1.42 ;&st7;   " d=" M    84.99,   477.71  C    87.49    477.71     89.52    475.68     89.52    473.17  "/>
		<text style="&st18;" transform="matrix(&st16;  82.68  475.14 )">A</text>
		<g ewd:figtype="title">
			<text style="&st18;" transform="matrix(&st17;  108.2  497.61 )" ewd:textID="3">No. 5 Junction Connector</text>
			<text style="&st18;" transform="matrix(&st17;  101.38  497.6 )">I54(A)</text>
		</g>
	</g>
	<g ewd:figtype="jb" ewd:figID="8" ewd:code="3">
		<path style="stroke-width:0.85 ;&st7;  " d=" M   169.97,    78.27  L   169.97,    95.27  "/>
		<path style="stroke-width:1.42 ;&st7;  " d=" M   172.10,   103.77  L   167.85,   103.77  "/>
		<path style="stroke-width:1.42 ;&st7;  " d=" M   172.10,    95.27  L   167.85,    95.27  "/>
		<path style="stroke-width:0.85 ;&st7;  " d=" M   169.97,    69.77  L   169.97,    78.27  "/>
		<path style="stroke-width:1.42 ;&st7;   " d=" M   169.97,    47.11  C   167.23     48.72    166.32     52.25    167.93     54.99  "/>
		<path style="stroke-width:1.42 ;&st7;   " d=" M   167.93,    54.99  C   168.45     55.87    169.09     56.51    169.97     57.03  "/>
		<path style="stroke-width:1.42 ;&st7;   " d=" M   169.97,    66.94  C   172.71     65.33    173.62     61.80    172.01     59.06  "/>
		<path style="stroke-width:1.42 ;&st7;   " d=" M   172.01,    59.06  C   171.49     58.18    170.85     57.55    169.97     57.03  "/>
		<path style="stroke-width:0.85 ;&st7;   " d=" M   171.39,    45.69  C   171.39     44.91    170.75     44.28    169.97     44.28  "/>
		<path style="stroke-width:0.85 ;&st7;   " d=" M   169.97,    44.28  C   169.19     44.28    168.56     44.91    168.56     45.69  "/>
		<path style="stroke-width:0.85 ;&st7;   " d=" M   168.56,    45.69  C   168.56     46.48    169.19     47.11    169.97     47.11  "/>
		<path style="stroke-width:0.85 ;&st7;   " d=" M   169.97,    47.11  C   170.75     47.11    171.39     46.48    171.39     45.69  "/>
		<path style="stroke-width:0.85 ;&st7;   " d=" M   171.39,    68.36  C   171.39     67.57    170.75     66.94    169.97     66.94  "/>
		<path style="stroke-width:0.85 ;&st7;   " d=" M   169.97,    66.94  C   169.19     66.94    168.56     67.57    168.56     68.36  "/>
		<path style="stroke-width:0.85 ;&st7;   " d=" M   168.56,    68.36  C   168.56     69.14    169.19     69.77    169.97     69.77  "/>
		<path style="stroke-width:0.85 ;&st7;   " d=" M   169.97,    69.77  C   170.75     69.77    171.39     69.14    171.39     68.36  "/>
		<path style="stroke-width:1.42 ;&st7;   " d=" M   176.35,    99.52  C   176.35     97.17    174.44     95.27    172.10     95.27  "/>
		<path style="stroke-width:1.42 ;&st7;   " d=" M   172.10,   103.77  C   174.44    103.77    176.35    101.87    176.35     99.52  "/>
		<path style="stroke-width:1.42 ;&st7;   " d=" M   163.60,    99.52  C   163.60    101.87    165.50    103.77    167.85    103.77  "/>
		<path style="stroke-width:1.42 ;&st7;   " d=" M   167.85,    95.27  C   165.50     95.27    163.60     97.17    163.60     99.52  "/>
		<path style="stroke-width:1.42 ;&st7;  " d=" M   157.22,    35.78  L   157.22,    78.27  L   182.72,    78.27  L   182.72,    35.78  L   157.22,    35.78  "/>
		<path style="stroke-width:0.28 ;&st9;  " d=" M   169.97,    90.37  L   167.14,    87.54  L   167.14,    91.79  L   169.97,    94.62  L   172.80,    91.79  L   172.80,    87.54  L   169.97,    90.37  "/>
		<text style="&st18;" transform="matrix(&st16;  159.46  101.49 )">1</text>
		<text style="&st18;" transform="matrix(&st16;  166.31  101.49 )">3F</text>
		<text style="&st18;" transform="matrix(&st16;  186.4  56.17 )">50A <tspan x="0 " dy="6.0">AM1 NO.2</tspan></text>
		<text style="&st18;" transform="matrix(&st16;  161.93  32.08 )">(BAT)</text>
	</g>
	<g ewd:figtype="jb" ewd:figID="9" ewd:code="3">
		<path style="stroke-width:1.42 ;&st7;  " d=" M   367.56,   103.77  L   363.31,   103.77  "/>
		<path style="stroke-width:0.85 ;&st7;  " d=" M   365.44,    78.27  L   365.44,    95.27  "/>
		<path style="stroke-width:1.42 ;&st7;   " d=" M   359.07,    99.52  C   359.07    101.87    360.97    103.77    363.31    103.77  "/>
		<path style="stroke-width:1.42 ;&st7;   " d=" M   367.56,   103.77  C   369.91    103.77    371.81    101.87    371.81     99.52  "/>
		<path style="stroke-width:1.42 ;&st7;   " d=" M   371.81,    99.52  C   371.81     97.17    369.91     95.27    367.56     95.27  "/>
		<path style="stroke-width:0.85 ;&st7;   " d=" M   366.86,    68.36  C   366.86     67.57    366.22     66.94    365.44     66.94  "/>
		<path style="stroke-width:0.85 ;&st7;   " d=" M   365.44,    66.94  C   364.66     66.94    364.02     67.57    364.02     68.36  "/>
		<path style="stroke-width:0.85 ;&st7;   " d=" M   364.02,    68.36  C   364.02     69.14    364.66     69.77    365.44     69.77  "/>
		<path style="stroke-width:0.85 ;&st7;   " d=" M   365.44,    69.77  C   366.22     69.77    366.86     69.14    366.86     68.36  "/>
		<path style="stroke-width:0.85 ;&st7;   " d=" M   366.86,    45.69  C   366.86     44.91    366.22     44.28    365.44     44.28  "/>
		<path style="stroke-width:0.85 ;&st7;   " d=" M   365.44,    44.28  C   364.66     44.28    364.02     44.91    364.02     45.69  "/>
		<path style="stroke-width:0.85 ;&st7;   " d=" M   364.02,    45.69  C   364.02     46.48    364.66     47.11    365.44     47.11  "/>
		<path style="stroke-width:0.85 ;&st7;   " d=" M   365.44,    47.11  C   366.22     47.11    366.86     46.48    366.86     45.69  "/>
		<path style="stroke-width:1.42 ;&st7;   " d=" M   365.44,    66.94  C   368.18     65.33    369.09     61.80    367.48     59.06  "/>
		<path style="stroke-width:1.42 ;&st7;   " d=" M   367.48,    59.06  C   366.96     58.18    366.32     57.55    365.44     57.03  "/>
		<path style="stroke-width:1.42 ;&st7;   " d=" M   365.44,    47.11  C   362.70     48.72    361.79     52.25    363.40     54.99  "/>
		<path style="stroke-width:1.42 ;&st7;   " d=" M   363.40,    54.99  C   363.92     55.87    364.56     56.51    365.44     57.03  "/>
		<path style="stroke-width:0.85 ;&st7;  " d=" M   365.44,    69.77  L   365.44,    78.27  "/>
		<path style="stroke-width:1.42 ;&st7;  " d=" M   367.56,    95.27  L   363.31,    95.27  "/>
		<path style="stroke-width:0.28 ;&st9;  " d=" M   365.44,    90.37  L   362.61,    87.54  L   362.61,    91.79  L   365.44,    94.62  L   368.27,    91.79  L   368.27,    87.54  L   365.44,    90.37  "/>
		<path style="stroke-width:1.42 ;&st7;  " d=" M   352.69,    35.78  L   352.69,    78.27  L   378.19,    78.27  L   378.19,    35.78  L   352.69,    35.78  "/>
		<path style="stroke-width:1.42 ;&st7;   " d=" M   363.31,    95.27  C   360.97     95.27    359.07     97.17    359.07     99.52  "/>
		<text style="&st18;" transform="matrix(&st16;  354.93  101.49 )">1</text>
		<text style="&st18;" transform="matrix(&st16;  357.4  32.08 )">(BAT)</text>
		<text style="&st18;" transform="matrix(&st16;  381.86  56.17 )">30A <tspan x="0 " dy="6.0">AM1</tspan></text>
		<text style="&st18;" transform="matrix(&st16;  361.43  101.49 )">3G</text>
	</g>
	<g ewd:figtype="jb" ewd:figID="10" ewd:code="3">
		<path style="stroke-width:0.85 ;&st7;  " d=" M   280.45,    78.27  L   280.45,    95.27  "/>
		<path style="stroke-width:1.42 ;&st7;  " d=" M   282.58,   103.77  L   278.33,   103.77  "/>
		<path style="stroke-width:1.42 ;&st7;  " d=" M   282.58,    95.27  L   278.33,    95.27  "/>
		<path style="stroke-width:0.85 ;&st7;  " d=" M   280.45,    69.77  L   280.45,    78.27  "/>
		<path style="stroke-width:0.85 ;&st7;   " d=" M   281.87,    45.69  C   281.87     44.91    281.24     44.28    280.45     44.28  "/>
		<path style="stroke-width:0.85 ;&st7;   " d=" M   280.45,    44.28  C   279.67     44.28    279.04     44.91    279.04     45.69  "/>
		<path style="stroke-width:0.85 ;&st7;   " d=" M   279.04,    45.69  C   279.04     46.48    279.67     47.11    280.45     47.11  "/>
		<path style="stroke-width:0.85 ;&st7;   " d=" M   280.45,    47.11  C   281.24     47.11    281.87     46.48    281.87     45.69  "/>
		<path style="stroke-width:0.85 ;&st7;   " d=" M   281.87,    68.36  C   281.87     67.57    281.24     66.94    280.45     66.94  "/>
		<path style="stroke-width:0.85 ;&st7;   " d=" M   280.45,    66.94  C   279.67     66.94    279.04     67.57    279.04     68.36  "/>
		<path style="stroke-width:0.85 ;&st7;   " d=" M   279.04,    68.36  C   279.04     69.14    279.67     69.77    280.45     69.77  "/>
		<path style="stroke-width:0.85 ;&st7;   " d=" M   280.45,    69.77  C   281.24     69.77    281.87     69.14    281.87     68.36  "/>
		<path style="stroke-width:1.42 ;&st7;   " d=" M   286.83,    99.52  C   286.83     97.17    284.92     95.27    282.58     95.27  "/>
		<path style="stroke-width:1.42 ;&st7;   " d=" M   282.58,   103.77  C   284.92    103.77    286.83    101.87    286.83     99.52  "/>
		<path style="stroke-width:1.42 ;&st7;   " d=" M   274.08,    99.52  C   274.08    101.87    275.98    103.77    278.33    103.77  "/>
		<path style="stroke-width:1.42 ;&st7;   " d=" M   278.33,    95.27  C   275.98     95.27    274.08     97.17    274.08     99.52  "/>
		<path style="stroke-width:1.42 ;&st7;   " d=" M   280.45,    66.94  C   283.19     65.33    284.10     61.80    282.49     59.06  "/>
		<path style="stroke-width:1.42 ;&st7;   " d=" M   282.49,    59.06  C   281.97     58.18    281.34     57.55    280.45     57.03  "/>
		<path style="stroke-width:1.42 ;&st7;   " d=" M   280.45,    47.11  C   277.72     48.72    276.80     52.25    278.42     54.99  "/>
		<path style="stroke-width:1.42 ;&st7;   " d=" M   278.42,    54.99  C   278.94     55.87    279.57     56.51    280.45     57.03  "/>
		<path style="stroke-width:1.42 ;&st7;  " d=" M   267.71,    35.78  L   267.71,    78.27  L   293.20,    78.27  L   293.20,    35.78  L   267.71,    35.78  "/>
		<path style="stroke-width:0.28 ;&st9;  " d=" M   280.45,    90.37  L   277.62,    87.54  L   277.62,    91.79  L   280.45,    94.62  L   283.29,    91.79  L   283.29,    87.54  L   280.45,    90.37  "/>
		<text style="&st18;" transform="matrix(&st16;  269.95  101.49 )">1</text>
		<text style="&st18;" transform="matrix(&st16;  277.76  101.49 )">3I</text>
		<text style="&st18;" transform="matrix(&st16;  296.88  56.17 )">50A <tspan x="0 " dy="6.0">ALT MAIN</tspan></text>
		<text style="&st18;" transform="matrix(&st16;  272.41  32.08 )">(BAT)</text>
	</g>
	<g ewd:figtype="w2w" ewd:figID="11" ewd:code="AI4">
		<path style="stroke-width:1.42 ;&st7;  " d=" M   174.22,   168.92  L   169.97,   164.67  L   165.72,   168.92  "/>
		<path style="stroke-width:1.42 ;&st7;  " d=" M   174.22,   172.32  L   169.97,   168.07  L   165.72,   172.32  "/>
		<text style="&st18;" transform="matrix(&st16;  157.34  160.98 )">2</text>
	</g>
	<g ewd:code="AI1" ewd:figID="12" ewd:comment="2" ewd:figtype="w2w">
		<path style="stroke-width:1.42 ;&st7;  " d=" M   284.70,   180.82  L   280.45,   176.57  L   276.20,   180.82  "/>
		<path style="stroke-width:1.42 ;&st7;  " d=" M   284.70,   177.42  L   280.45,   173.17  L   276.20,   177.42  "/>
		<text style="&st18;" transform="matrix(&st16;  267.82  169.48 )">6</text>
		<g ewd:code="" ewd:figID="36" ewd:comment="2" ewd:figtype="commref">
			<text style="&st18;" transform="matrix(&st16;  289.48  169.48 )">(*2)</text>
		</g>
	</g>
	<g ewd:code="AI1" ewd:figID="13" ewd:comment="1" ewd:figtype="w2w">
		<text style="&st18;" transform="matrix(&st16;  267.82  160.98 )">5</text>
		<g ewd:code="" ewd:figID="35" ewd:comment="1" ewd:figtype="commref">
			<text style="&st18;" transform="matrix(&st16;  289.48  160.98 )">(*1)</text>
		</g>
	</g>
	<g ewd:figtype="w2w" ewd:figID="14" ewd:code="IL3">
		<path style="stroke-width:1.42 ;&st7;  " d=" M   369.69,   248.81  L   365.44,   244.56  L   361.19,   248.81  "/>
		<path style="stroke-width:1.42 ;&st7;  " d=" M   369.69,   245.41  L   365.44,   241.16  L   361.19,   245.41  "/>
		<text style="&st18;" transform="matrix(&st16;  352.81  237.47 )">4</text>
	</g>
	<g ewd:code="AI3" ewd:figID="15" ewd:comment="4" ewd:figtype="w2w">
		<path style="stroke-width:1.42 ;&st7;  " d=" M   369.69,   194.42  L   365.44,   190.17  L   361.19,   194.42  "/>
		<path style="stroke-width:1.42 ;&st7;  " d=" M   369.69,   197.82  L   365.44,   193.57  L   361.19,   197.82  "/>
		<text style="&st18;" transform="matrix(&st16;  352.81  186.47 )">5</text>
		<g ewd:code="" ewd:figID="41" ewd:comment="4" ewd:figtype="commref">
			<text style="&st18;" transform="matrix(&st16;  374.47  186.47 )">(*4)</text>
		</g>
	</g>
	<g ewd:code="AI2" ewd:figID="16" ewd:comment="3" ewd:figtype="w2w">
		<text style="&st18;" transform="matrix(&st16;  352.81  177.98 )">9</text>
		<g ewd:code="" ewd:figID="42" ewd:comment="3" ewd:figtype="commref">
			<text style="&st18;" transform="matrix(&st16;  374.47  177.98 )">(RHD *3)</text>
		</g>
	</g>
	<g ewd:code="AI2" ewd:figID="17" ewd:comment="2" ewd:figtype="w2w">
		<text style="&st18;" transform="matrix(&st16;  352.81  169.48 )">7</text>
		<g ewd:code="" ewd:figID="43" ewd:comment="2" ewd:figtype="commref">
			<text style="&st18;" transform="matrix(&st16;  374.47  169.48 )">(RHD *2)</text>
		</g>
	</g>
	<g ewd:code="AI6" ewd:figID="18" ewd:comment="3,2" ewd:figtype="w2w">
		<text style="&st18;" transform="matrix(&st16;  352.81  160.98 )">8</text>
		<g ewd:code="" ewd:figID="44" ewd:comment="3,2" ewd:figtype="commref">
			<text style="&st18;" transform="matrix(&st16;  374.47  160.98 )">(LHD *3,LHD *2)</text>
		</g>
	</g>
	<g ewd:figtype="w2w" ewd:figID="19" ewd:code="IL3">
		<path style="stroke-width:1.42 ;&st7;  " d=" M   675.64,   222.18  L   679.89,   226.43  L   684.14,   222.18  "/>
		<path style="stroke-width:1.42 ;&st7;  " d=" M   684.14,   225.58  L   679.89,   229.83  L   675.64,   225.58  "/>
		<text style="&st18;" transform="matrix(&st16;  667.25  237.47 )">2</text>
	</g>
	<g ewd:figtype="w2w" ewd:figID="20" ewd:code="IL3">
		<path style="stroke-width:1.42 ;&st7;  " d=" M   718.13,   222.18  L   722.38,   226.43  L   726.63,   222.18  "/>
		<path style="stroke-width:1.42 ;&st7;  " d=" M   726.63,   225.58  L   722.38,   229.83  L   718.13,   225.58  "/>
		<text style="&st18;" transform="matrix(&st16;  709.75  237.47 )">1</text>
	</g>
	<g ewd:figtype="gp" ewd:figID="21" ewd:code="IA">
		<path style="stroke-width:0.85 ;&st7;  " d=" M    84.99,   697.25  L    84.99,   701.50  "/>
		<path style="stroke-width:0.85 ;&st7;  " d=" M    76.49,   701.50  L    93.48,   701.50  "/>
		<path style="stroke-width:0.85 ;&st7;  " d=" M    80.74,   704.33  L    89.24,   704.33  "/>
		<path style="stroke-width:0.85 ;&st7;  " d=" M    82.15,   707.17  L    87.82,   707.17  "/>
		<path style="stroke-width:0.85 ;&st7;  " d=" M    83.57,   710.00  L    86.40,   710.00  "/>
	</g>
	<g ewd:figtype="gp" ewd:figID="22" ewd:code="IG">
		<path style="stroke-width:0.85 ;&st7;  " d=" M   941.93,   710.00  L   944.76,   710.00  "/>
		<path style="stroke-width:0.85 ;&st7;  " d=" M   940.51,   707.17  L   946.17,   707.17  "/>
		<path style="stroke-width:0.85 ;&st7;  " d=" M   939.09,   704.33  L   947.59,   704.33  "/>
		<path style="stroke-width:0.85 ;&st7;  " d=" M   934.84,   701.50  L   951.84,   701.50  "/>
		<path style="stroke-width:0.85 ;&st7;  " d=" M   943.34,   697.25  L   943.34,   701.50  "/>
	</g>
	<g ewd:figtype="gp" ewd:figID="23" ewd:code="IE">
		<path style="stroke-width:0.85 ;&st7;  " d=" M  1002.83,   697.25  L  1002.83,   701.50  "/>
		<path style="stroke-width:0.85 ;&st7;  " d=" M   994.33,   701.50  L  1011.33,   701.50  "/>
		<path style="stroke-width:0.85 ;&st7;  " d=" M   998.58,   704.33  L  1007.08,   704.33  "/>
		<path style="stroke-width:0.85 ;&st7;  " d=" M  1000.00,   707.17  L  1005.66,   707.17  "/>
		<path style="stroke-width:0.85 ;&st7;  " d=" M  1001.42,   710.00  L  1004.25,   710.00  "/>
	</g>
	<g ewd:figtype=" " ewd:figID="34" ewd:code="FUSE60,FUSE59,FUSE58">
		<text style="&st18;" transform="matrix(&st17;  939.65  211.71 )">W-B</text>
		<text style="&st18;" transform="matrix(&st16;  787.02  177.98 )">IG</text>
		<text style="&st18;" transform="matrix(&st16;  834.71  177.98 )">ACC</text>
		<path style="stroke-width:1.42 ;&st7;  " d=" M   756.37,   282.24  L   968.84,   282.24  L   968.84,   137.76  L   756.37,   137.76  L   756.37,   282.24  "/>
		<path style="stroke-width:1.42 ;&st7;  " d=" M   773.37,   163.26  L   773.37,   188.75  L   807.36,   188.75  L   807.36,   163.26  L   773.37,   163.26  "/>
		<path style="stroke-width:1.42 ;&st7;  " d=" M   824.36,   163.26  L   824.36,   188.75  L   858.36,   188.75  L   858.36,   163.26  L   824.36,   163.26  "/>
		<path style="stroke-width:1.42 ;&st7;  " d=" M   875.35,   163.26  L   875.35,   188.75  L   909.35,   188.75  L   909.35,   163.26  L   875.35,   163.26  "/>
		<path style="stroke-width:1.42 ;&st7;  " d=" M   926.34,   163.26  L   926.34,   188.75  L   960.34,   188.75  L   960.34,   163.26  L   926.34,   163.26  "/>
		<text style="&st18;" transform="matrix(&st16;  888.61  177.98 )">+B</text>
		<text style="&st18;" transform="matrix(&st16;  939.68  177.98 )">-E</text>
		<text style="&st18;" transform="matrix(&st17;  800.84  248.69 )">10A IG</text>
		<text style="&st18;" transform="matrix(&st17;  851.83  251.98 )">10A ACC</text>
		<text style="&st18;" transform="matrix(&st17;  902.82  249.07 )">20A +B</text>
		<text style="&st18;" transform="matrix(&st16;  792.95  278.55 )">IG</text>
		<text style="&st18;" transform="matrix(&st16;  843.94  278.55 )">ACC</text>
		<text style="&st18;" transform="matrix(&st16;  894.93  278.55 )">+B</text>
		<text style="&st18;" transform="matrix(&st16;  945.93  278.55 )">E</text>
		<text style="&st18;" transform="matrix(&st17;  786.67  270.42 )">B-Y</text>
		<text style="&st18;" transform="matrix(&st17;  837.66  270.23 )">L-R</text>
		<text style="&st18;" transform="matrix(&st17;  888.66  267.71 )">W</text>
		<text style="&st18;" transform="matrix(&st17;  786.67  207.44 )">B</text>
		<text style="&st18;" transform="matrix(&st17;  837.66  207.44 )">B</text>
		<text style="&st18;" transform="matrix(&st17;  888.65  207.44 )">B</text>
		<path style="stroke-width:1.42 ;&st7;   " d=" M   793.20,   253.91  C   793.20    252.35    791.93    251.08    790.37    251.08  "/>
		<path style="stroke-width:1.42 ;&st7;   " d=" M   790.37,   251.08  C   788.80    251.08    787.54    252.35    787.54    253.91  "/>
		<path style="stroke-width:1.42 ;&st7;   " d=" M   787.54,   253.91  C   787.54    255.47    788.80    256.74    790.37    256.74  "/>
		<path style="stroke-width:1.42 ;&st7;   " d=" M   790.37,   256.74  C   791.93    256.74    793.20    255.47    793.20    253.91  "/>
		<path style="stroke-width:1.42 ;&st7;   " d=" M   793.20,   225.58  C   793.20    224.02    791.93    222.75    790.37    222.75  "/>
		<path style="stroke-width:1.42 ;&st7;   " d=" M   790.37,   222.75  C   788.80    222.75    787.54    224.02    787.54    225.58  "/>
		<path style="stroke-width:1.42 ;&st7;   " d=" M   787.54,   225.58  C   787.54    227.15    788.80    228.41    790.37    228.41  "/>
		<path style="stroke-width:1.42 ;&st7;   " d=" M   790.37,   228.41  C   791.93    228.41    793.20    227.15    793.20    225.58  "/>
		<path style="stroke-width:1.42 ;&st7;   " d=" M   790.37,   228.41  C   787.24    229.55    785.63    233.02    786.77    236.14  "/>
		<path style="stroke-width:1.42 ;&st7;   " d=" M   786.77,   236.14  C   787.40    237.88    788.63    239.11    790.37    239.75  "/>
		<path style="stroke-width:1.42 ;&st7;   " d=" M   790.37,   251.08  C   793.50    249.94    795.11    246.47    793.97    243.35  "/>
		<path style="stroke-width:1.42 ;&st7;   " d=" M   793.97,   243.35  C   793.34    241.61    792.11    240.38    790.37    239.74  "/>
		<path style="stroke-width:1.42 ;&st7;   " d=" M   844.19,   253.91  C   844.19    252.35    842.92    251.08    841.36    251.08  "/>
		<path style="stroke-width:1.42 ;&st7;   " d=" M   841.36,   251.08  C   839.79    251.08    838.53    252.35    838.53    253.91  "/>
		<path style="stroke-width:1.42 ;&st7;   " d=" M   838.53,   253.91  C   838.53    255.47    839.79    256.74    841.36    256.74  "/>
		<path style="stroke-width:1.42 ;&st7;   " d=" M   841.36,   256.74  C   842.92    256.74    844.19    255.47    844.19    253.91  "/>
		<path style="stroke-width:1.42 ;&st7;   " d=" M   844.19,   225.58  C   844.19    224.02    842.92    222.75    841.36    222.75  "/>
		<path style="stroke-width:1.42 ;&st7;   " d=" M   841.36,   222.75  C   839.79    222.75    838.53    224.02    838.53    225.58  "/>
		<path style="stroke-width:1.42 ;&st7;   " d=" M   838.53,   225.58  C   838.53    227.15    839.79    228.41    841.36    228.41  "/>
		<path style="stroke-width:1.42 ;&st7;   " d=" M   841.36,   228.41  C   842.92    228.41    844.19    227.15    844.19    225.58  "/>
		<path style="stroke-width:1.42 ;&st7;   " d=" M   841.36,   228.41  C   838.23    229.55    836.62    233.02    837.76    236.14  "/>
		<path style="stroke-width:1.42 ;&st7;   " d=" M   837.76,   236.14  C   838.39    237.88    839.62    239.11    841.36    239.75  "/>
		<path style="stroke-width:1.42 ;&st7;   " d=" M   841.36,   251.08  C   844.49    249.94    846.10    246.47    844.96    243.35  "/>
		<path style="stroke-width:1.42 ;&st7;   " d=" M   844.96,   243.35  C   844.33    241.61    843.10    240.38    841.36    239.74  "/>
		<path style="stroke-width:1.42 ;&st7;   " d=" M   895.18,   253.91  C   895.18    252.35    893.92    251.08    892.35    251.08  "/>
		<path style="stroke-width:1.42 ;&st7;   " d=" M   892.35,   251.08  C   890.79    251.08    889.52    252.35    889.52    253.91  "/>
		<path style="stroke-width:1.42 ;&st7;   " d=" M   889.52,   253.91  C   889.52    255.47    890.79    256.74    892.35    256.74  "/>
		<path style="stroke-width:1.42 ;&st7;   " d=" M   892.35,   256.74  C   893.92    256.74    895.18    255.47    895.18    253.91  "/>
		<path style="stroke-width:1.42 ;&st7;   " d=" M   895.18,   225.58  C   895.18    224.02    893.92    222.75    892.35    222.75  "/>
		<path style="stroke-width:1.42 ;&st7;   " d=" M   892.35,   222.75  C   890.79    222.75    889.52    224.02    889.52    225.58  "/>
		<path style="stroke-width:1.42 ;&st7;   " d=" M   889.52,   225.58  C   889.52    227.15    890.79    228.41    892.35    228.41  "/>
		<path style="stroke-width:1.42 ;&st7;   " d=" M   892.35,   228.41  C   893.92    228.41    895.18    227.15    895.18    225.58  "/>
		<path style="stroke-width:1.42 ;&st7;   " d=" M   892.35,   228.41  C   889.22    229.55    887.61    233.02    888.75    236.14  "/>
		<path style="stroke-width:1.42 ;&st7;   " d=" M   888.75,   236.14  C   889.38    237.88    890.61    239.11    892.35    239.75  "/>
		<path style="stroke-width:1.42 ;&st7;   " d=" M   892.35,   251.08  C   895.48    249.94    897.09    246.47    895.95    243.35  "/>
		<path style="stroke-width:1.42 ;&st7;   " d=" M   895.95,   243.35  C   895.32    241.61    894.09    240.38    892.35    239.74  "/>
		<g ewd:figtype="title">
			<text style="&st18;" transform="matrix(&st16;  761.47  134.07 )" ewd:textID="1">Fuse Block Assembly</text>
			<text style="&st18;" transform="matrix(&st16;  761.46  127.24 )">I76</text>
		</g>
	</g>
	<g ewd:code="4" ewd:figID="38" ewd:comment="" ewd:figtype="comment">
		<text style="&st18;" transform="matrix(&st16;  812.46  80.24 )">* 4 :1VD-FTV</text>
	</g>
	<g ewd:code="3" ewd:figID="40" ewd:comment="" ewd:figtype="comment">
		<text style="&st18;" transform="matrix(&st16;  812.46  71.74 )">* 3 :1GR-FE</text>
	</g>
	<g ewd:code="1" ewd:figID="37" ewd:comment="" ewd:figtype="comment">
		<text style="&st18;" transform="matrix(&st16;  812.46  54.75 )">* 1 :1GR-FE, 1VD-FTV</text>
	</g>
	<g ewd:code="2" ewd:figID="39" ewd:comment="" ewd:figtype="comment">
		<text style="&st18;" transform="matrix(&st16;  812.46  63.24 )">* 2 :1HZ</text>
	</g>
	<path style="stroke-width:1.42 ;&st7;  " d=" M   934.84,   430.24  L   939.81,   435.21  "/>
	<path style="stroke-width:1.42 ;&st7;  " d=" M   288.95,   171.76  L   280.45,   171.76  "/>
	<path style="stroke-width:1.42 ;&st7;  " d=" M   939.81,   418.22  L   934.84,   423.19  "/>
	<path style="stroke-width:1.42 ;&st7;  " d=" M   178.47,   163.26  L   169.97,   163.26  "/>
	<path style="stroke-width:1.42 ;&st7;  " d=" M   373.94,   188.75  L   365.44,   188.75  "/>
	<path style="stroke-width:1.42 ;&st7;  " d=" M   951.84,   423.19  L   946.87,   418.22  "/>
	<path style="stroke-width:1.42 ;&st7;  " d=" M   373.94,   239.75  L   365.44,   239.75  "/>
	<path style="stroke-width:1.42 ;&st7;  " d=" M   946.87,   435.21  L   951.84,   430.24  "/>
	<path style="stroke-width:1.42 ;&st7;  " d=" M   671.39,   231.25  L   679.89,   231.25  "/>
	<path style="stroke-width:1.42 ;&st7;  " d=" M   713.88,   231.25  L   722.38,   231.25  "/>
	<path style="stroke-width:1.42 ;&st7;  " d=" M   178.47,   227.72  L   173.50,   222.75  "/>
	<path style="stroke-width:1.42 ;&st7;  " d=" M   161.47,   234.78  L   166.44,   239.75  "/>
	<path style="stroke-width:1.42 ;&st7;  " d=" M   173.50,   239.75  L   178.47,   234.78  "/>
	<path style="stroke-width:1.42 ;&st7;  " d=" M   166.44,   222.75  L   161.47,   227.72  "/>
	<path style="stroke-width:1.42 ;&st7;  " d=" M  1011.33,   423.19  L  1006.36,   418.22  "/>
	<path style="stroke-width:1.42 ;&st7;  " d=" M   994.33,   430.24  L   999.30,   435.21  "/>
	<path style="stroke-width:1.42 ;&st7;  " d=" M  1006.36,   435.21  L  1011.33,   430.24  "/>
	<path style="stroke-width:1.42 ;&st7;  " d=" M   999.30,   418.22  L   994.33,   423.19  "/>
	<path style="stroke-width:1.42 ;&st7;  " d=" M   288.95,   423.19  L   283.98,   418.22  "/>
	<path style="stroke-width:1.42 ;&st7;  " d=" M   271.95,   430.24  L   276.92,   435.21  "/>
	<path style="stroke-width:1.42 ;&st7;  " d=" M   283.98,   435.21  L   288.95,   430.24  "/>
	<path style="stroke-width:1.42 ;&st7;  " d=" M   276.92,   418.22  L   271.95,   423.19  "/>
	<path style="stroke-width:1.42 ;&st7;  " d=" M   688.38,   355.20  L   683.41,   350.23  "/>
	<path style="stroke-width:1.42 ;&st7;  " d=" M   671.39,   362.26  L   676.36,   367.22  "/>
	<path style="stroke-width:1.42 ;&st7;  " d=" M   683.41,   367.22  L   688.38,   362.26  "/>
	<path style="stroke-width:1.42 ;&st7;  " d=" M   676.36,   350.23  L   671.39,   355.20  "/>
	<path style="stroke-width:1.42 ;&st7;  " d=" M   849.86,   389.19  L   844.89,   384.22  "/>
	<path style="stroke-width:1.42 ;&st7;  " d=" M   832.86,   396.25  L   837.83,   401.22  "/>
	<path style="stroke-width:1.42 ;&st7;  " d=" M   844.89,   401.22  L   849.86,   396.25  "/>
	<path style="stroke-width:1.42 ;&st7;  " d=" M   837.83,   384.22  L   832.86,   389.19  "/>
	<text style="&st18;" transform="matrix(&st17;  361.74  134.33 )">B-L</text>
	<text style="&st18;" transform="matrix(&st17;  718.68  194.13 )">R-G</text>
	<text style="&st18;" transform="matrix(&st17;  676.19  191.22 )">W</text>
	<text style="&st18;" transform="matrix(&st17;  276.76  131.73 )">W</text>
	<text style="&st18;" transform="matrix(&st17;  177.61  269.95 )">(*4)</text>
	<text style="&st18;" transform="matrix(&st17;  166.28  270.23 )">L-R</text>
	<text style="&st18;" transform="matrix(&st17;  81.29  270.42 )">B-Y</text>
	<text style="&st18;" transform="matrix(&st17;  92.62  269.95 )">(*4)</text>
	<text style="&st18;" transform="matrix(&st17;  177.61  133.98 )">(*4)</text>
	<text style="&st18;" transform="matrix(&st17;  166.28  134.25 )">L-R</text>
	<text style="&st18;" transform="matrix(&st17;  81.29  133.09 )">GR</text>
	<text style="&st18;" transform="matrix(&st17;  92.62  133.98 )">(*4)</text>
	<text style="&st18;" transform="matrix(&st17;  92.62  414.43 )">(*4)</text>
	<text style="&st18;" transform="matrix(&st17;  81.29  414.9 )">B-Y</text>
	<text style="&st18;" transform="matrix(&st17;  81.29  568.65 )">W-B</text>
	<text style="&st18;" transform="matrix(&st17;  92.62  567.4 )">(*4)</text>
	<text style="&st18;" transform="matrix(&st17;  361.74  295.8 )">B-L</text>
	<text style="&st18;" transform="matrix(&st17;  361.74  219.31 )">B-L</text>
	<text style="&st18;" transform="matrix(&st17;  276.76  216.71 )">W</text>
	<text style="&st18;" transform="matrix(&st17;  786.67  335.69 )">W</text>
	<text style="&st18;" transform="matrix(&st17;  837.66  338.6 )">R-G</text>
	<text style="&st18;" transform="matrix(&st17;  888.66  335.69 )">W</text>
	<text style="&st18;" transform="matrix(&st17;  939.65  339.18 )">W-B</text>
	<text style="&st18;" transform="matrix(&st17;  950.98  352.25 )">(LHD *2,RHD)</text>
	<text style="&st18;" transform="matrix(&st16;  311.48  423.02 )">W</text>
	<text style="&st18;" transform="matrix(&st17;  676.19  293.2 )">W</text>
	<text style="&st18;" transform="matrix(&st17;  718.68  296.11 )">R-G</text>
	<text style="&st18;" transform="matrix(&st17;  166.28  202.24 )">L-R</text>
	<text style="&st18;" transform="matrix(&st17;  177.61  201.97 )">(*4)</text>
	<text style="&st18;" transform="matrix(&st17;  950.98  567.4 )">(*2)</text>
	<text style="&st18;" transform="matrix(&st17;  939.65  568.65 )">W-B</text>
	<text style="&st18;" transform="matrix(&st17;  999.14  568.65 )">W-B</text>
	<text style="&st18;" transform="matrix(&st17;  984.97  570.55 )">(RHD)</text>
	<text style="&st18;" transform="matrix(&st17;  973.64  568.65 )">W-B</text>
	<text style="&st18;" transform="matrix(&st17;  1010.47  574.54 )">(LHD *3)</text>
	<text style="&st18;" transform="matrix(&st17;  999.14  339.18 )">W-B</text>
	<text style="&st18;" transform="matrix(&st17;  1010.47  345.08 )">(LHD *3)</text>
	<text style="&st18;" transform="matrix(&st16;  487.36  142.56 )">B-L</text>
	<text style="&st18;" transform="matrix(&st16;  538.35  142.56 )">B-L</text>
	<text style="&st18;" transform="matrix(&st16;  540.95  423.02 )">W</text>
	<text style="&st18;" transform="matrix(&st16;  489.95  423.02 )">W</text>
	<a ewd:figtype="w2w" style="cursor:pointer;" ewd:pinNo="2" ewd:code="AI4" ewd:figID="11">
		<path style="&st2;" d=" M   178.47,   154.76  L   161.47,   154.76  L   161.47,   163.26  L   178.47,   163.26  L   178.47,   154.76 "/>
		<text style="&st8;" transform="matrix(&st16;  165.61  161.13 )"><tspan x="0" style="&st18;" y="0">AI4</tspan></text>
	</a>
	<a ewd:figtype="w2w" style="cursor:pointer;" ewd:pinNo="6" ewd:code="AI1" ewd:figID="12">
		<path style="&st2;" d=" M   288.95,   163.26  L   271.95,   163.26  L   271.95,   171.76  L   288.95,   171.76  L   288.95,   163.26 "/>
		<text style="&st8;" transform="matrix(&st16;  276.09  169.63 )"><tspan x="0" style="&st18;" y="0">AI1</tspan></text>
	</a>
	<a ewd:figtype="w2w" style="cursor:pointer;" ewd:pinNo="5" ewd:code="AI1" ewd:figID="13">
		<path style="&st2;" d=" M   288.95,   154.76  L   271.95,   154.76  L   271.95,   163.26  L   288.95,   163.26  L   288.95,   154.76 "/>
		<text style="&st8;" transform="matrix(&st16;  276.09  161.13 )"><tspan x="0" style="&st18;" y="0">AI1</tspan></text>
	</a>
	<a ewd:figtype="w2w" style="cursor:pointer;" ewd:pinNo="4" ewd:code="IL3" ewd:figID="14">
		<path style="&st2;" d=" M   373.94,   231.25  L   356.94,   231.25  L   356.94,   239.75  L   373.94,   239.75  L   373.94,   231.25 "/>
		<text style="&st8;" transform="matrix(&st16;  361.3  237.62 )"><tspan x="0" style="&st18;" y="0">IL3</tspan></text>
	</a>
	<a ewd:figtype="w2w" style="cursor:pointer;" ewd:pinNo="5" ewd:code="AI3" ewd:figID="15">
		<path style="&st2;" d=" M   373.94,   180.26  L   356.94,   180.26  L   356.94,   188.75  L   373.94,   188.75  L   373.94,   180.26 "/>
		<text style="&st8;" transform="matrix(&st16;  361.07  186.62 )"><tspan x="0" style="&st18;" y="0">AI3</tspan></text>
	</a>
	<a ewd:figtype="w2w" style="cursor:pointer;" ewd:pinNo="9" ewd:code="AI2" ewd:figID="16">
		<path style="&st2;" d=" M   373.94,   171.76  L   356.94,   171.76  L   356.94,   180.26  L   373.94,   180.26  L   373.94,   171.76 "/>
		<text style="&st8;" transform="matrix(&st16;  361.07  178.13 )"><tspan x="0" style="&st18;" y="0">AI2</tspan></text>
	</a>
	<a ewd:figtype="w2w" style="cursor:pointer;" ewd:pinNo="7" ewd:code="AI2" ewd:figID="17">
		<path style="&st2;" d=" M   373.94,   163.26  L   356.94,   163.26  L   356.94,   171.76  L   373.94,   171.76  L   373.94,   163.26 "/>
		<text style="&st8;" transform="matrix(&st16;  361.07  169.63 )"><tspan x="0" style="&st18;" y="0">AI2</tspan></text>
	</a>
	<a ewd:figtype="w2w" style="cursor:pointer;" ewd:pinNo="8" ewd:code="AI6" ewd:figID="18">
		<path style="&st2;" d=" M   373.94,   154.76  L   356.94,   154.76  L   356.94,   163.26  L   373.94,   163.26  L   373.94,   154.76 "/>
		<text style="&st8;" transform="matrix(&st16;  361.07  161.13 )"><tspan x="0" style="&st18;" y="0">AI6</tspan></text>
	</a>
	<a ewd:figtype="w2w" style="cursor:pointer;" ewd:pinNo="2" ewd:code="IL3" ewd:figID="19">
		<path style="&st2;" d=" M   688.38,   231.25  L   671.39,   231.25  L   671.39,   239.75  L   688.38,   239.75  L   688.38,   231.25 "/>
		<text style="&st8;" transform="matrix(&st16;  675.75  237.62 )"><tspan x="0" style="&st18;" y="0">IL3</tspan></text>
	</a>
	<a ewd:figtype="w2w" style="cursor:pointer;" ewd:pinNo="1" ewd:code="IL3" ewd:figID="20">
		<path style="&st2;" d=" M   730.88,   231.25  L   713.88,   231.25  L   713.88,   239.75  L   730.88,   239.75  L   730.88,   231.25 "/>
		<text style="&st8;" transform="matrix(&st16;  718.24  237.62 )"><tspan x="0" style="&st18;" y="0">IL3</tspan></text>
	</a>
	<a ewd:figtype="gp" style="cursor:pointer;" ewd:code="IA" ewd:figID="21">
		<path style="&st2;" d=" M    74.36,   681.67  L    95.61,   681.67  L    84.99,   697.25  L    74.36,   681.67 "/>
		<text style="&st8;" transform="matrix(&st16;  82.13  689.46 )"><tspan x="0" style="&st18;" y="0">IA</tspan></text>
	</a>
	<a ewd:figtype="gp" style="cursor:pointer;" ewd:code="IG" ewd:figID="22">
		<path style="&st2;" d=" M   932.72,   681.67  L   953.97,   681.67  L   943.34,   697.25  L   932.72,   681.67 "/>
		<text style="&st8;" transform="matrix(&st16;  940.33  689.46 )"><tspan x="0" style="&st18;" y="0">IG</tspan></text>
	</a>
	<a ewd:figtype="gp" style="cursor:pointer;" ewd:code="IE" ewd:figID="23">
		<path style="&st2;" d=" M   992.21,   681.67  L  1013.46,   681.67  L  1002.83,   697.25  L   992.21,   681.67 "/>
		<text style="&st8;" transform="matrix(&st16;  1000.16  689.46 )"><tspan x="0" style="&st18;" y="0">IE</tspan></text>
	</a>
	<a ewd:figtype="sp" style="cursor:pointer;" ewd:code="SP79" ewd:figID="24">
		<path style="&st2;" d=" M   165.72,   222.75  L   174.22,   222.75  L   178.47,   227.00  L   178.47,   235.50  L   174.22,   239.75  L   165.72,   239.75  L   161.47,   235.50  L   161.47,   227.00  L   165.72,   222.75 "/>
	</a>
	<a ewd:figtype="sp" style="cursor:pointer;" ewd:code="SP72" ewd:figID="25">
		<path style="&st2;" d=" M   276.20,   418.22  L   284.70,   418.22  L   288.95,   422.46  L   288.95,   430.96  L   284.70,   435.21  L   276.20,   435.21  L   271.95,   430.96  L   271.95,   422.46  L   276.20,   418.22 "/>
	</a>
	<a ewd:figtype="sp" style="cursor:pointer;" ewd:code="SP55" ewd:figID="26">
		<path style="&st2;" d=" M   675.64,   350.23  L   684.14,   350.23  L   688.38,   354.48  L   688.38,   362.97  L   684.14,   367.22  L   675.64,   367.22  L   671.39,   362.97  L   671.39,   354.48  L   675.64,   350.23 "/>
	</a>
	<a ewd:figtype="sp" style="cursor:pointer;" ewd:code="SP57" ewd:figID="27">
		<path style="&st2;" d=" M   837.11,   384.22  L   845.61,   384.22  L   849.86,   388.47  L   849.86,   396.97  L   845.61,   401.22  L   837.11,   401.22  L   832.86,   396.97  L   832.86,   388.47  L   837.11,   384.22 "/>
	</a>
	<a ewd:figtype="sp" style="cursor:pointer;" ewd:code="SP54" ewd:figID="28">
		<path style="&st2;" d=" M   939.09,   418.22  L   947.59,   418.22  L   951.84,   422.46  L   951.84,   430.96  L   947.59,   435.21  L   939.09,   435.21  L   934.84,   430.96  L   934.84,   422.46  L   939.09,   418.22 "/>
	</a>
	<a ewd:figtype="sp" style="cursor:pointer;" ewd:code="SP76" ewd:figID="29">
		<path style="&st2;" d=" M   998.58,   418.22  L  1007.08,   418.22  L  1011.33,   422.46  L  1011.33,   430.96  L  1007.08,   435.21  L   998.58,   435.21  L   994.33,   430.96  L   994.33,   422.46  L   998.58,   418.22 "/>
	</a>
</g>
</svg>