<?xml version="1.0" encoding="utf-8"?>
<!DOCTYPE svg PUBLIC "-//W3C//DTD SVG 1.0//EN" "http://www.w3.org/TR/2001/REC-SVG-20010904/DTD/svg10.dtd"[
	<!ENTITY ns_flows "http://ns.adobe.com/Flows/1.0/">
	<!ENTITY ns_svg "http://www.w3.org/2000/svg">
	<!ENTITY ns_xlink "http://www.w3.org/1999/xlink">
	<!ENTITY st0 "font-size:7px;font-family:'MS-PGothic';adobe-font-script:japanese;">
	<!ENTITY st1 "font-size:6px;font-family:'ArialMT';">
	<!-- White fill  -->
	<!ENTITY st2 "fill:#FFFFFF;stroke:#000000; stroke-width:1.41;stroke-linecap:round;stroke-linejoin:round;">
	<!-- Yellow fill  -->
	<!ENTITY st3 "fill:#FFFFCC;stroke:#FFFFCC; stroke-width:0.1;stroke-linecap:round;stroke-linejoin:round;">
	<!-- Gray fill  -->
	<!ENTITY st4 "fill:#CCCCCC;stroke:#CCCCCC; stroke-width:0.1;stroke-linecap:round;stroke-linejoin:round;">
	<!-- Light-blue fill -->
	<!ENTITY st5 "fill:#CCECF4;stroke:#000000; stroke-width:1.133;stroke-linecap:round;stroke-linejoin:round;">
	<!ENTITY st6 "fill:none;stroke-linecap:butt; stroke-linejoin:round;">
	<!ENTITY st7 "fill:none;stroke:#000000;stroke-linecap:round;stroke-linejoin:round;">
	<!ENTITY st8 "enable-background:new    ;">
	<!-- Black fill -->
	<!ENTITY st9 "fill:#000000;stroke:#000000; stroke-linecap:round;stroke-linejoin:round;">
	<!-- SRS note   -->
	<!ENTITY st10 "font-size:9px;font-family:'ArialMT';">
	<!ENTITY st11 "font-size:9px;font-family:'Svg Symbol';">
	<!ENTITY st12 "font-size:6px;font-family:'Svg Symbol';">
	<!ENTITY st13 "fill:none;stroke:#ff0000;stroke-linecap:round;stroke-linejoin:round;">
	<!-- Yellow fill  -->
	<!ENTITY st14 "fill:#FFFF00;stroke:#FFFF00; stroke-width:0.1;stroke-linecap:round;stroke-linejoin:round;">
	<!ENTITY st15 "font-size:6px;font-family:'MS-PGothic';adobe-font-script:japanese;">
	<!ENTITY st16 "1.00 0.00 0.00 1.00">
	<!ENTITY st17 "0.00 -1.00 1.00 0.00">
	<!ENTITY st18 "font-size:6px;font-family:'Arial';">
	<!ENTITY st19 "font-size:9px;font-family:'Arial';">
	<!ENTITY st20 "font-size:6px;font-family:'MS-PGothic','MS PGothic';adobe-font-script:japanese;">
	<!ENTITY st21 "font-size:7px;font-family:'MS-PGothic','MS PGothic';adobe-font-script:japanese;">
	<!ATTLIST svg
		xmlns:ewd CDATA #FIXED "http://shcl.co.jp/ewd"
		xmlns:a CDATA #FIXED "http://ns.adobe.com/AdobeSVGViewerExtensions/3.0/"
		ewd:ver CDATA #IMPLIED
	>
	<!ATTLIST a
		ewd:lineID CDATA #IMPLIED
		ewd:groupID CDATA #IMPLIED
		ewd:figtype CDATA #IMPLIED
		ewd:code CDATA #IMPLIED
		ewd:figID CDATA #IMPLIED
		ewd:pinNo CDATA #IMPLIED
		ewd:comment CDATA #IMPLIED >
	<!ATTLIST g
		ewd:lineID CDATA #IMPLIED
		ewd:groupID CDATA #IMPLIED
		ewd:figtype CDATA #IMPLIED
		ewd:code CDATA #IMPLIED
		ewd:figID CDATA #IMPLIED
		ewd:pinNo CDATA #IMPLIED
		ewd:comment CDATA #IMPLIED >
	<!ATTLIST text
		ewd:textID CDATA #IMPLIED >
	<!ATTLIST title
		ewd:textID CDATA #IMPLIED >
]>
<!-- Generator: Shintec Hozumi YS   -->
<svg onload="call_execInitLoadProc_svg('system')" style="overflow:visible;  enable-background:new 0 0 3078.923 710.000" viewBox="0 0 3078.923 710.000" height="710.000" width="3078.923" xml:space="preserve" ewd:ver="2.1.2.9" xmlns="&ns_svg;" xmlns:a="http://ns.adobe.com/AdobeSVGViewerExtensions/3.0/" xmlns:ewd="http://shcl.co.jp/ewd" xmlns:xlink="&ns_xlink;">
<path style="stroke-width:1.42 ;&st7;  " d=" M  2716.02,   630.68  L  2711.05,   635.65  " /><path style="stroke-width:1.42 ;&st7;  " d=" M  2723.07,   647.68  L  2728.04,   642.71  " /><path style="stroke-width:1.42 ;&st7;  " d=" M  2711.05,   642.71  L  2716.02,   647.68  " /><path style="stroke-width:1.42 ;&st7;  " d=" M  2728.04,   635.65  L  2723.07,   630.68  " /><text style="&st18;" transform="matrix(&st16;  2874.64  635.48 )">W-R</text><text style="&st18;" transform="matrix(&st16;  2875.46  592.99 )">B-L</text><text style="&st18;" transform="matrix(&st16;  2735.31  660.98 )">L-R</text><text style="&st18;" transform="matrix(&st16;  2735.31  635.48 )">L-R</text><text style="&st18;" transform="matrix(&st16;  2561.36  187.89 )">(*3)</text><text style="&st18;" transform="matrix(&st16;  2561.36  153.9 )">(*8)</text><text style="&st18;" transform="matrix(&st16;  2564.11  176.56 )">G</text><text style="&st18;" transform="matrix(&st16;  2612.35  187.89 )">(*3)</text><text style="&st18;" transform="matrix(&st16;  2564.11  142.56 )">G</text><text style="&st18;" transform="matrix(&st16;  2612.35  153.9 )">(*8)</text><text style="&st18;" transform="matrix(&st16;  2611.23  338.03 )">W-L</text><text style="&st18;" transform="matrix(&st16;  2612.08  635.48 )">L-R</text><text style="&st18;" transform="matrix(&st16;  2611.23  465.51 )">W-L</text><text style="&st18;" transform="matrix(&st16;  2612.08  448.51 )">L-R</text><text style="&st18;" transform="matrix(&st16;  2560.23  465.51 )">W-L</text><text style="&st18;" transform="matrix(&st16;  2561.09  635.48 )">L-R</text><text style="&st18;" transform="matrix(&st16;  2561.09  448.51 )">L-R</text><text style="&st18;" transform="matrix(&st16;  2560.23  338.03 )">W-L</text><text style="&st18;" transform="matrix(&st16;  2615.1  287.04 )">G</text><text style="&st18;" transform="matrix(&st16;  2564.11  287.04 )">G</text><text style="&st18;" transform="matrix(&st16;  2615.1  100.07 )">G</text><text style="&st18;" transform="matrix(&st16;  2564.11  100.07 )">G</text><text style="&st18;" transform="matrix(&st17;  2724.35  423.2 )">L-R</text><text style="&st18;" transform="matrix(&st16;  2615.1  176.56 )">G</text><text style="&st18;" transform="matrix(&st16;  2615.1  142.56 )">G</text><g ewd:figtype="rb" ewd:figID="1" ewd:code="FUSE10"><path style="stroke-width:1.42 ;&st7;  " d=" M  2902.27,   634.93  L  2906.51,   634.93  " /><path style="stroke-width:1.42 ;&st7;  " d=" M  2906.51,   643.43  L  2902.27,   643.43  " /><path style="stroke-width:1.42 ;&st7;  " d=" M  2902.27,   592.44  L  2906.51,   592.44  " /><path style="stroke-width:1.42 ;&st7;  " d=" M  2906.51,   600.93  L  2902.27,   600.93  " /><path style="stroke-width:1.42 ;&st7;   " d=" M  2898.02,   639.18  C  2898.02    641.53   2899.92    643.43   2902.27    643.43  " /><path style="stroke-width:1.42 ;&st7;   " d=" M  2902.27,   634.93  C  2899.92    634.93   2898.02    636.83   2898.02    639.18  " /><path style="stroke-width:1.42 ;&st7;   " d=" M  2902.27,   592.44  C  2899.92    592.44   2898.02    594.34   2898.02    596.69  " /><path style="stroke-width:1.42 ;&st7;   " d=" M  2898.02,   596.69  C  2898.02    599.03   2899.92    600.93   2902.27    600.93  " /><path style="stroke-width:1.42 ;&st7;   " d=" M  2906.51,   600.93  C  2908.86    600.93   2910.76    599.03   2910.76    596.69  " /><path style="stroke-width:1.42 ;&st7;   " d=" M  2910.76,   596.69  C  2910.76    594.34   2908.86    592.44   2906.51    592.44  " /><path style="stroke-width:1.42 ;&st7;   " d=" M  2910.76,   639.18  C  2910.76    636.83   2908.86    634.93   2906.51    634.93  " /><path style="stroke-width:1.42 ;&st7;   " d=" M  2906.51,   643.43  C  2908.86    643.43   2910.76    641.53   2910.76    639.18  " /><path style="stroke-width:0.85 ;&st7;  " d=" M  2930.82,   638.18  L  2930.54,   638.65  L  2930.45,   639.18  L  2930.54,   639.71  L  2930.82,   640.18  L  2931.23,   640.53  L  2931.74,   640.71  L  2932.28,   640.71  L  2932.79,   640.53  L  2933.20,   640.18  L  2933.47,   639.71  L  2933.57,   639.18  L  2933.47,   638.65  L  2933.20,   638.18  L  2932.79,   637.83  L  2932.28,   637.64  L  2931.74,   637.64  L  2931.23,   637.83  L  2930.82,   638.18  L  2931.21,   638.89  L  2931.21,   639.47  L  2931.58,   639.92  L  2932.16,   640.01  L  2932.66,   639.73  L  2932.86,   639.18  L  2932.66,   638.63  L  2932.16,   638.34  L  2931.58,   638.44  L  2932.01,   639.18  " /><path style="stroke-width:0.85 ;&st7;  " d=" M  2930.82,   595.68  L  2930.54,   596.15  L  2930.45,   596.69  L  2930.54,   597.22  L  2930.82,   597.69  L  2931.23,   598.03  L  2931.74,   598.22  L  2932.28,   598.22  L  2932.79,   598.03  L  2933.20,   597.69  L  2933.47,   597.22  L  2933.57,   596.69  L  2933.47,   596.15  L  2933.20,   595.68  L  2932.79,   595.34  L  2932.28,   595.15  L  2931.74,   595.15  L  2931.23,   595.34  L  2930.82,   595.68  L  2931.21,   596.39  L  2931.21,   596.98  L  2931.58,   597.42  L  2932.16,   597.52  L  2932.66,   597.23  L  2932.86,   596.69  L  2932.66,   596.14  L  2932.16,   595.85  L  2931.58,   595.95  L  2932.01,   596.69  " /><path style="stroke-width:0.85 ;&st7;  " d=" M  2966.00,   681.67  L  2932.01,   681.67  L  2932.01,   639.18  " /><path style="stroke-width:0.85 ;&st7;  " d=" M  2966.00,   554.19  L  2932.01,   554.19  L  2932.01,   596.69  " /><path style="stroke-width:0.85 ;&st7;  " d=" M  2910.76,   639.18  L  2966.00,   639.18  " /><path style="stroke-width:0.85 ;&st7;  " d=" M  2966.00,   596.69  L  2910.76,   596.69  " /><path style="stroke-width:0.85 ;&st7;  " d=" M  3008.50,   681.67  L  3033.99,   681.67  " /><path style="stroke-width:0.85 ;&st7;  " d=" M  3008.50,   554.19  L  3033.99,   554.19  " /><path style="stroke-width:0.85 ;&st7;  " d=" M  3008.50,   596.69  L  3033.99,   596.69  " /><path style="stroke-width:0.85 ;&st7;  " d=" M  3008.50,   639.18  L  3033.99,   639.18  " /><path style="stroke-width:0.28 ;&st9;  " d=" M  2915.66,   596.69  L  2918.49,   593.85  L  2914.24,   593.85  L  2911.41,   596.69  L  2914.24,   599.52  L  2918.49,   599.52  L  2915.66,   596.69  " /><path style="stroke-width:0.28 ;&st9;  " d=" M  2915.66,   639.18  L  2918.49,   636.35  L  2914.24,   636.35  L  2911.41,   639.18  L  2914.24,   642.01  L  2918.49,   642.01  L  2915.66,   639.18  " /><text style="&st18;" transform="matrix(&st16;  3011.08  677.98 )">2</text><text style="&st18;" transform="matrix(&st16;  2959.82  677.98 )">1</text><text style="&st18;" transform="matrix(&st16;  2964.47  663.81 )">10A H/LP HI LH</text><text style="&st18;" transform="matrix(&st16;  2963.39  536.33 )">10A H/LP LO RH</text><text style="&st18;" transform="matrix(&st16;  2959.82  550.5 )">1</text><text style="&st18;" transform="matrix(&st16;  3011.08  550.5 )">2</text><text style="&st18;" transform="matrix(&st16;  3011.08  593.0 )">2</text><text style="&st18;" transform="matrix(&st16;  2959.82  593.0 )">1</text><text style="&st18;" transform="matrix(&st16;  2963.43  578.82 )">10A H/LP LO LH</text><text style="&st18;" transform="matrix(&st16;  2964.43  621.32 )">10A H/LP HI RH</text><text style="&st18;" transform="matrix(&st16;  2959.82  635.49 )">1</text><text style="&st18;" transform="matrix(&st16;  3011.08  635.49 )">2</text><text style="&st18;" transform="matrix(&st16;  2902.59  598.65 )">2</text><text style="&st18;" transform="matrix(&st16;  2902.59  641.15 )">2</text><path style="stroke-width:0.85 ;&st7;  " d=" M  2974.50,   681.67  L  2966.00,   681.67  " /><path style="stroke-width:1.42 ;&st7;   " d=" M  2997.17,   681.67  C  2995.55    678.93   2992.03    678.02   2989.29    679.63  " /><path style="stroke-width:1.42 ;&st7;   " d=" M  2989.29,   679.63  C  2988.41    680.15   2987.77    680.79   2987.25    681.67  " /><path style="stroke-width:0.85 ;&st7;   " d=" M  2977.34,   681.67  C  2977.34    680.89   2976.70    680.25   2975.92    680.25  " /><path style="stroke-width:0.85 ;&st7;   " d=" M  2975.92,   680.25  C  2975.14    680.25   2974.50    680.89   2974.50    681.67  " /><path style="stroke-width:0.85 ;&st7;   " d=" M  2974.50,   681.67  C  2974.50    682.45   2975.14    683.09   2975.92    683.09  " /><path style="stroke-width:0.85 ;&st7;   " d=" M  2975.92,   683.09  C  2976.70    683.09   2977.34    682.45   2977.34    681.67  " /><path style="stroke-width:0.85 ;&st7;   " d=" M  3000.00,   681.67  C  3000.00    680.89   2999.36    680.25   2998.58    680.25  " /><path style="stroke-width:0.85 ;&st7;   " d=" M  2998.58,   680.25  C  2997.80    680.25   2997.17    680.89   2997.17    681.67  " /><path style="stroke-width:0.85 ;&st7;   " d=" M  2997.17,   681.67  C  2997.17    682.45   2997.80    683.09   2998.58    683.09  " /><path style="stroke-width:0.85 ;&st7;   " d=" M  2998.58,   683.09  C  2999.36    683.09   3000.00    682.45   3000.00    681.67  " /><path style="stroke-width:1.42 ;&st7;   " d=" M  2977.34,   681.67  C  2978.95    684.41   2982.48    685.32   2985.21    683.71  " /><path style="stroke-width:1.42 ;&st7;   " d=" M  2985.21,   683.71  C  2986.10    683.19   2986.73    682.55   2987.25    681.67  " /><path style="stroke-width:1.42 ;&st7;  " d=" M  2966.00,   668.92  L  2966.00,   694.42  L  3008.50,   694.42  L  3008.50,   668.92  L  2966.00,   668.92  " /><path style="stroke-width:0.85 ;&st7;  " d=" M  3008.50,   681.67  L  3000.00,   681.67  " /></g><g ewd:figtype="rb" ewd:figID="10" ewd:code="FUSE11"><path style="stroke-width:0.85 ;&st7;  " d=" M  2974.50,   639.18  L  2966.00,   639.18  " /><path style="stroke-width:1.42 ;&st7;   " d=" M  2977.34,   639.18  C  2978.95    641.92   2982.48    642.83   2985.21    641.22  " /><path style="stroke-width:1.42 ;&st7;   " d=" M  2985.21,   641.22  C  2986.10    640.70   2986.73    640.06   2987.25    639.18  " /><path style="stroke-width:0.85 ;&st7;   " d=" M  3000.00,   639.18  C  3000.00    638.40   2999.36    637.76   2998.58    637.76  " /><path style="stroke-width:0.85 ;&st7;   " d=" M  2998.58,   637.76  C  2997.80    637.76   2997.17    638.40   2997.17    639.18  " /><path style="stroke-width:0.85 ;&st7;   " d=" M  2997.17,   639.18  C  2997.17    639.96   2997.80    640.59   2998.58    640.59  " /><path style="stroke-width:0.85 ;&st7;   " d=" M  2998.58,   640.59  C  2999.36    640.59   3000.00    639.96   3000.00    639.18  " /><path style="stroke-width:0.85 ;&st7;   " d=" M  2977.34,   639.18  C  2977.34    638.40   2976.70    637.76   2975.92    637.76  " /><path style="stroke-width:0.85 ;&st7;   " d=" M  2975.92,   637.76  C  2975.14    637.76   2974.50    638.40   2974.50    639.18  " /><path style="stroke-width:0.85 ;&st7;   " d=" M  2974.50,   639.18  C  2974.50    639.96   2975.14    640.59   2975.92    640.59  " /><path style="stroke-width:0.85 ;&st7;   " d=" M  2975.92,   640.59  C  2976.70    640.59   2977.34    639.96   2977.34    639.18  " /><path style="stroke-width:1.42 ;&st7;   " d=" M  2997.17,   639.18  C  2995.55    636.44   2992.03    635.53   2989.29    637.14  " /><path style="stroke-width:1.42 ;&st7;   " d=" M  2989.29,   637.14  C  2988.41    637.66   2987.77    638.30   2987.25    639.18  " /><path style="stroke-width:0.85 ;&st7;  " d=" M  3008.50,   639.18  L  3000.00,   639.18  " /><path style="stroke-width:1.42 ;&st7;  " d=" M  2966.00,   626.43  L  2966.00,   651.93  L  3008.50,   651.93  L  3008.50,   626.43  L  2966.00,   626.43  " /></g><g ewd:figtype="rb" ewd:figID="12" ewd:code="FUSE25"><path style="stroke-width:1.42 ;&st7;  " d=" M  2762.04,   473.46  L  2757.79,   473.46  " /><path style="stroke-width:1.42 ;&st7;  " d=" M  2757.79,   464.96  L  2762.04,   464.96  " /><path style="stroke-width:1.42 ;&st7;  " d=" M  2762.04,   388.47  L  2757.79,   388.47  " /><path style="stroke-width:1.42 ;&st7;  " d=" M  2757.79,   379.97  L  2762.04,   379.97  " /><path style="stroke-width:1.42 ;&st7;  " d=" M  2757.79,   286.49  L  2762.04,   286.49  " /><path style="stroke-width:1.42 ;&st7;  " d=" M  2762.04,   294.99  L  2757.79,   294.99  " /><path style="stroke-width:1.42 ;&st7;  " d=" M  2757.79,   337.48  L  2762.04,   337.48  " /><path style="stroke-width:1.42 ;&st7;  " d=" M  2762.04,   345.98  L  2757.79,   345.98  " /><path style="stroke-width:1.42 ;&st7;   " d=" M  2762.04,   473.46  C  2764.39    473.46   2766.29    471.55   2766.29    469.21  " /><path style="stroke-width:1.42 ;&st7;   " d=" M  2766.29,   469.21  C  2766.29    466.86   2764.39    464.96   2762.04    464.96  " /><path style="stroke-width:1.42 ;&st7;   " d=" M  2757.79,   464.96  C  2755.44    464.96   2753.54    466.86   2753.54    469.21  " /><path style="stroke-width:1.42 ;&st7;   " d=" M  2753.54,   469.21  C  2753.54    471.55   2755.44    473.46   2757.79    473.46  " /><path style="stroke-width:1.42 ;&st7;   " d=" M  2766.29,   290.74  C  2766.29    288.39   2764.39    286.49   2762.04    286.49  " /><path style="stroke-width:1.42 ;&st7;   " d=" M  2757.79,   379.97  C  2755.44    379.97   2753.54    381.87   2753.54    384.22  " /><path style="stroke-width:1.42 ;&st7;   " d=" M  2762.04,   388.47  C  2764.39    388.47   2766.29    386.57   2766.29    384.22  " /><path style="stroke-width:1.42 ;&st7;   " d=" M  2766.29,   384.22  C  2766.29    381.87   2764.39    379.97   2762.04    379.97  " /><path style="stroke-width:1.42 ;&st7;   " d=" M  2757.79,   286.49  C  2755.44    286.49   2753.54    288.39   2753.54    290.74  " /><path style="stroke-width:1.42 ;&st7;   " d=" M  2753.54,   290.74  C  2753.54    293.08   2755.44    294.99   2757.79    294.99  " /><path style="stroke-width:1.42 ;&st7;   " d=" M  2762.04,   294.99  C  2764.39    294.99   2766.29    293.08   2766.29    290.74  " /><path style="stroke-width:1.42 ;&st7;   " d=" M  2757.79,   337.48  C  2755.44    337.48   2753.54    339.38   2753.54    341.73  " /><path style="stroke-width:1.42 ;&st7;   " d=" M  2753.54,   341.73  C  2753.54    344.07   2755.44    345.98   2757.79    345.98  " /><path style="stroke-width:1.42 ;&st7;   " d=" M  2762.04,   345.98  C  2764.39    345.98   2766.29    344.07   2766.29    341.73  " /><path style="stroke-width:1.42 ;&st7;   " d=" M  2766.29,   341.73  C  2766.29    339.38   2764.39    337.48   2762.04    337.48  " /><path style="stroke-width:1.42 ;&st7;   " d=" M  2753.54,   384.22  C  2753.54    386.57   2755.44    388.47   2757.79    388.47  " /><path style="stroke-width:0.28 ;&st9;  " d=" M  2771.18,   469.21  L  2774.01,   466.37  L  2769.77,   466.37  L  2766.93,   469.21  L  2769.77,   472.04  L  2774.01,   472.04  L  2771.18,   469.21  " /><path style="stroke-width:0.85 ;&st7;  " d=" M  2821.53,   469.21  L  2766.29,   469.21  " /><path style="stroke-width:0.85 ;&st7;  " d=" M  2864.02,   469.21  L  2889.52,   469.21  " /><path style="stroke-width:0.28 ;&st9;  " d=" M  2771.18,   290.74  L  2774.01,   287.90  L  2769.77,   287.90  L  2766.93,   290.74  L  2769.77,   293.57  L  2774.01,   293.57  L  2771.18,   290.74  " /><path style="stroke-width:0.28 ;&st9;  " d=" M  2771.18,   384.22  L  2774.01,   381.39  L  2769.77,   381.39  L  2766.93,   384.22  L  2769.77,   387.05  L  2774.01,   387.05  L  2771.18,   384.22  " /><path style="stroke-width:0.85 ;&st7;  " d=" M  2787.53,   384.22  L  2766.29,   384.22  " /><path style="stroke-width:0.85 ;&st7;  " d=" M  2766.29,   290.74  L  2821.53,   290.74  " /><path style="stroke-width:0.85 ;&st7;  " d=" M  2864.02,   341.73  L  2889.52,   341.73  " /><path style="stroke-width:0.85 ;&st7;  " d=" M  2786.34,   383.22  L  2786.07,   383.69  L  2785.97,   384.22  L  2786.07,   384.75  L  2786.34,   385.22  L  2786.75,   385.57  L  2787.26,   385.76  L  2787.81,   385.76  L  2788.31,   385.57  L  2788.73,   385.22  L  2789.00,   384.75  L  2789.09,   384.22  L  2789.00,   383.69  L  2788.73,   383.22  L  2788.31,   382.87  L  2787.81,   382.69  L  2787.26,   382.69  L  2786.75,   382.87  L  2786.34,   383.22  L  2786.73,   383.93  L  2786.73,   384.51  L  2787.11,   384.96  L  2787.68,   385.06  L  2788.18,   384.77  L  2788.38,   384.22  L  2788.18,   383.67  L  2787.68,   383.39  L  2787.11,   383.48  L  2787.53,   384.22  " /><path style="stroke-width:0.85 ;&st7;  " d=" M  2864.02,   426.71  L  2889.52,   426.71  " /><path style="stroke-width:0.85 ;&st7;  " d=" M  2864.02,   248.24  L  2889.52,   248.24  " /><path style="stroke-width:0.85 ;&st7;  " d=" M  2864.02,   384.22  L  2889.52,   384.22  " /><path style="stroke-width:0.85 ;&st7;  " d=" M  2864.02,   290.74  L  2889.52,   290.74  " /><path style="stroke-width:0.85 ;&st7;  " d=" M  2821.53,   384.22  L  2787.53,   384.22  L  2787.53,   426.71  L  2821.53,   426.71  " /><path style="stroke-width:0.85 ;&st7;  " d=" M  2766.29,   341.73  L  2821.53,   341.73  " /><path style="stroke-width:0.85 ;&st7;  " d=" M  2821.53,   248.24  L  2787.53,   248.24  L  2787.53,   290.74  " /><path style="stroke-width:0.28 ;&st9;  " d=" M  2771.18,   341.73  L  2774.01,   338.90  L  2769.77,   338.90  L  2766.93,   341.73  L  2769.77,   344.56  L  2774.01,   344.56  L  2771.18,   341.73  " /><path style="stroke-width:0.85 ;&st7;  " d=" M  2786.34,   289.73  L  2786.07,   290.20  L  2785.97,   290.74  L  2786.07,   291.27  L  2786.34,   291.74  L  2786.75,   292.09  L  2787.26,   292.27  L  2787.81,   292.27  L  2788.31,   292.09  L  2788.73,   291.74  L  2789.00,   291.27  L  2789.09,   290.74  L  2789.00,   290.20  L  2788.73,   289.73  L  2788.31,   289.39  L  2787.81,   289.20  L  2787.26,   289.20  L  2786.75,   289.39  L  2786.34,   289.73  L  2786.73,   290.45  L  2786.73,   291.03  L  2787.11,   291.47  L  2787.68,   291.57  L  2788.18,   291.28  L  2788.38,   290.74  L  2788.18,   290.19  L  2787.68,   289.90  L  2787.11,   290.00  L  2787.53,   290.74  " /><text style="&st18;" transform="matrix(&st16;  2758.11  471.18 )">2</text><text style="&st18;" transform="matrix(&st16;  2827.71  451.35 )">30A DOOR</text><text style="&st18;" transform="matrix(&st16;  2866.6  465.52 )">2</text><text style="&st18;" transform="matrix(&st16;  2815.34  465.52 )">1</text><text style="&st18;" transform="matrix(&st16;  2758.11  292.71 )">2</text><text style="&st18;" transform="matrix(&st16;  2758.11  386.19 )">2</text><text style="&st18;" transform="matrix(&st16;  2866.6  338.04 )">2</text><text style="&st18;" transform="matrix(&st16;  2815.34  338.04 )">1</text><text style="&st18;" transform="matrix(&st16;  2824.15  323.87 )">30A TRAILER</text><text style="&st18;" transform="matrix(&st16;  2866.6  380.53 )">2</text><text style="&st18;" transform="matrix(&st16;  2815.34  380.53 )">1</text><text style="&st18;" transform="matrix(&st16;  2825.35  366.36 )">15A FR FOG</text><text style="&st18;" transform="matrix(&st16;  2866.6  244.55 )">2</text><text style="&st18;" transform="matrix(&st16;  2815.34  244.55 )">1</text><text style="&st18;" transform="matrix(&st16;  2829.73  230.38 )">10A TAIL</text><text style="&st18;" transform="matrix(&st16;  2826.9  272.88 )">10A PANEL</text><text style="&st18;" transform="matrix(&st16;  2815.34  287.05 )">1</text><text style="&st18;" transform="matrix(&st16;  2866.6  287.05 )">2</text><text style="&st18;" transform="matrix(&st16;  2825.35  408.85 )">15A RR FOG</text><text style="&st18;" transform="matrix(&st16;  2815.34  423.02 )">1</text><text style="&st18;" transform="matrix(&st16;  2866.6  423.02 )">2</text><text style="&st18;" transform="matrix(&st16;  2758.11  343.7 )">2</text><path style="stroke-width:0.85 ;&st7;  " d=" M  2830.03,   426.71  L  2821.53,   426.71  " /><path style="stroke-width:1.42 ;&st7;   " d=" M  2852.69,   426.71  C  2851.08    423.98   2847.55    423.06   2844.81    424.68  " /><path style="stroke-width:1.42 ;&st7;   " d=" M  2844.81,   424.68  C  2843.93    425.20   2843.29    425.83   2842.78    426.71  " /><path style="stroke-width:1.42 ;&st7;   " d=" M  2832.86,   426.71  C  2834.47    429.45   2838.00    430.36   2840.74    428.75  " /><path style="stroke-width:1.42 ;&st7;   " d=" M  2840.74,   428.75  C  2841.62    428.23   2842.26    427.60   2842.78    426.71  " /><path style="stroke-width:0.85 ;&st7;   " d=" M  2855.52,   426.71  C  2855.52    425.93   2854.89    425.30   2854.11    425.30  " /><path style="stroke-width:0.85 ;&st7;   " d=" M  2854.11,   425.30  C  2853.32    425.30   2852.69    425.93   2852.69    426.71  " /><path style="stroke-width:0.85 ;&st7;   " d=" M  2852.69,   426.71  C  2852.69    427.50   2853.32    428.13   2854.11    428.13  " /><path style="stroke-width:0.85 ;&st7;   " d=" M  2854.11,   428.13  C  2854.89    428.13   2855.52    427.50   2855.52    426.71  " /><path style="stroke-width:0.85 ;&st7;   " d=" M  2832.86,   426.71  C  2832.86    425.93   2832.23    425.30   2831.44    425.30  " /><path style="stroke-width:0.85 ;&st7;   " d=" M  2831.44,   425.30  C  2830.66    425.30   2830.03    425.93   2830.03    426.71  " /><path style="stroke-width:0.85 ;&st7;   " d=" M  2830.03,   426.71  C  2830.03    427.50   2830.66    428.13   2831.44    428.13  " /><path style="stroke-width:0.85 ;&st7;   " d=" M  2831.44,   428.13  C  2832.23    428.13   2832.86    427.50   2832.86    426.71  " /><path style="stroke-width:0.85 ;&st7;  " d=" M  2864.02,   426.71  L  2855.52,   426.71  " /><path style="stroke-width:1.42 ;&st7;  " d=" M  2821.53,   413.97  L  2821.53,   439.46  L  2864.02,   439.46  L  2864.02,   413.97  L  2821.53,   413.97  " /></g><g ewd:figtype="rb" ewd:figID="14" ewd:code="FUSE31"><path style="stroke-width:0.85 ;&st7;  " d=" M  2830.03,   469.21  L  2821.53,   469.21  " /><path style="stroke-width:0.85 ;&st7;   " d=" M  2855.52,   469.21  C  2855.52    468.42   2854.89    467.79   2854.11    467.79  " /><path style="stroke-width:0.85 ;&st7;   " d=" M  2854.11,   467.79  C  2853.32    467.79   2852.69    468.42   2852.69    469.21  " /><path style="stroke-width:0.85 ;&st7;   " d=" M  2852.69,   469.21  C  2852.69    469.99   2853.32    470.62   2854.11    470.62  " /><path style="stroke-width:0.85 ;&st7;   " d=" M  2854.11,   470.62  C  2854.89    470.62   2855.52    469.99   2855.52    469.21  " /><path style="stroke-width:0.85 ;&st7;   " d=" M  2832.86,   469.21  C  2832.86    468.42   2832.23    467.79   2831.44    467.79  " /><path style="stroke-width:0.85 ;&st7;   " d=" M  2831.44,   467.79  C  2830.66    467.79   2830.03    468.42   2830.03    469.21  " /><path style="stroke-width:0.85 ;&st7;   " d=" M  2830.03,   469.21  C  2830.03    469.99   2830.66    470.62   2831.44    470.62  " /><path style="stroke-width:0.85 ;&st7;   " d=" M  2831.44,   470.62  C  2832.23    470.62   2832.86    469.99   2832.86    469.21  " /><path style="stroke-width:1.42 ;&st7;   " d=" M  2852.69,   469.21  C  2851.08    466.47   2847.55    465.56   2844.81    467.17  " /><path style="stroke-width:1.42 ;&st7;   " d=" M  2844.81,   467.17  C  2843.93    467.69   2843.29    468.32   2842.78    469.21  " /><path style="stroke-width:1.42 ;&st7;   " d=" M  2832.86,   469.21  C  2834.47    471.94   2838.00    472.86   2840.74    471.24  " /><path style="stroke-width:1.42 ;&st7;   " d=" M  2840.74,   471.24  C  2841.62    470.72   2842.26    470.09   2842.78    469.21  " /><path style="stroke-width:0.85 ;&st7;  " d=" M  2864.02,   469.21  L  2855.52,   469.21  " /><path style="stroke-width:1.42 ;&st7;  " d=" M  2821.53,   456.46  L  2821.53,   481.95  L  2864.02,   481.95  L  2864.02,   456.46  L  2821.53,   456.46  " /></g><g ewd:figtype="rb" ewd:figID="16" ewd:code="2"><path style="stroke-width:1.42 ;&st7;  " d=" M  2757.79,   660.42  L  2762.04,   660.42  " /><path style="stroke-width:1.42 ;&st7;  " d=" M  2762.04,   668.92  L  2757.79,   668.92  " /><path style="stroke-width:1.42 ;&st7;  " d=" M  2859.77,   634.93  L  2855.52,   634.93  " /><path style="stroke-width:1.42 ;&st7;  " d=" M  2859.77,   592.44  L  2855.52,   592.44  " /><path style="stroke-width:1.42 ;&st7;  " d=" M  2859.77,   600.93  L  2855.52,   600.93  " /><path style="stroke-width:1.42 ;&st7;  " d=" M  2859.77,   643.43  L  2855.52,   643.43  " /><path style="stroke-width:0.85 ;&st7;  " d=" M  2821.53,   664.67  L  2838.53,   664.67  " /><path style="stroke-width:1.42 ;&st7;  " d=" M  2757.79,   634.93  L  2762.04,   634.93  " /><path style="stroke-width:1.42 ;&st7;  " d=" M  2762.04,   643.43  L  2757.79,   643.43  " /><path style="stroke-width:1.42 ;&st7;   " d=" M  2762.04,   668.92  C  2764.39    668.92   2766.29    667.02   2766.29    664.67  " /><path style="stroke-width:1.42 ;&st7;   " d=" M  2766.29,   664.67  C  2766.29    662.33   2764.39    660.42   2762.04    660.42  " /><path style="stroke-width:1.42 ;&st7;   " d=" M  2864.02,   639.18  C  2864.02    636.83   2862.12    634.93   2859.77    634.93  " /><path style="stroke-width:1.42 ;&st7;   " d=" M  2838.38,   672.16  C  2840.29    670.02   2840.35    666.89   2838.53    664.67  " /><path style="stroke-width:1.42 ;&st7;   " d=" M  2838.67,   657.19  C  2836.76    659.33   2836.70    662.46   2838.53    664.67  " /><path style="stroke-width:1.42 ;&st7;   " d=" M  2855.52,   592.44  C  2853.18    592.44   2851.27    594.34   2851.27    596.69  " /><path style="stroke-width:1.42 ;&st7;   " d=" M  2855.52,   634.93  C  2853.18    634.93   2851.27    636.83   2851.27    639.18  " /><path style="stroke-width:1.42 ;&st7;   " d=" M  2851.27,   639.18  C  2851.27    641.53   2853.18    643.43   2855.52    643.43  " /><path style="stroke-width:1.42 ;&st7;   " d=" M  2859.77,   643.43  C  2862.12    643.43   2864.02    641.53   2864.02    639.18  " /><path style="stroke-width:1.42 ;&st7;   " d=" M  2851.27,   596.69  C  2851.27    599.03   2853.18    600.93   2855.52    600.93  " /><path style="stroke-width:1.42 ;&st7;   " d=" M  2859.77,   600.93  C  2862.12    600.93   2864.02    599.03   2864.02    596.69  " /><path style="stroke-width:1.42 ;&st7;   " d=" M  2864.02,   596.69  C  2864.02    594.34   2862.12    592.44   2859.77    592.44  " /><path style="stroke-width:1.42 ;&st7;   " d=" M  2757.79,   634.93  C  2755.44    634.93   2753.54    636.83   2753.54    639.18  " /><path style="stroke-width:1.42 ;&st7;   " d=" M  2753.54,   639.18  C  2753.54    641.53   2755.44    643.43   2757.79    643.43  " /><path style="stroke-width:1.42 ;&st7;   " d=" M  2762.04,   643.43  C  2764.39    643.43   2766.29    641.53   2766.29    639.18  " /><path style="stroke-width:1.42 ;&st7;   " d=" M  2766.29,   639.18  C  2766.29    636.83   2764.39    634.93   2762.04    634.93  " /><path style="stroke-width:1.42 ;&st7;   " d=" M  2753.54,   664.67  C  2753.54    667.02   2755.44    668.92   2757.79    668.92  " /><path style="stroke-width:1.42 ;&st7;   " d=" M  2757.79,   660.42  C  2755.44    660.42   2753.54    662.33   2753.54    664.67  " /><path style="stroke-width:0.28 ;&st9;  " d=" M  2771.18,   664.67  L  2774.01,   661.84  L  2769.77,   661.84  L  2766.93,   664.67  L  2769.77,   667.51  L  2774.01,   667.51  L  2771.18,   664.67  " /><path style="stroke-width:0.85 ;&st7;  " d=" M  2851.27,   639.18  L  2821.53,   639.18  " /><path style="stroke-width:0.85 ;&st7;  " d=" M  2851.27,   596.69  L  2804.53,   596.69  L  2804.53,   630.68  " /><path style="stroke-width:0.85 ;&st7;  " d=" M  2787.53,   664.67  L  2766.29,   664.67  " /><path style="stroke-width:0.85 ;&st7;  " d=" M  2787.53,   639.18  L  2766.29,   639.18  " /><path style="stroke-width:0.28 ;&st9;  " d=" M  2846.38,   639.18  L  2843.54,   636.35  L  2847.79,   636.35  L  2850.63,   639.18  L  2847.79,   642.01  L  2843.54,   642.01  L  2846.38,   639.18  " /><path style="stroke-width:0.28 ;&st9;  " d=" M  2846.38,   596.69  L  2843.54,   593.85  L  2847.79,   593.85  L  2850.63,   596.69  L  2847.79,   599.52  L  2843.54,   599.52  L  2846.38,   596.69  " /><path style="stroke-width:0.28 ;&st9;  " d=" M  2771.18,   639.18  L  2774.01,   636.35  L  2769.77,   636.35  L  2766.93,   639.18  L  2769.77,   642.01  L  2774.01,   642.01  L  2771.18,   639.18  " /><text style="&st18;" transform="matrix(&st16;  2824.11  660.98 )">2</text><text style="&st18;" transform="matrix(&st16;  2798.35  626.99 )">4</text><text style="&st18;" transform="matrix(&st16;  2855.85  598.65 )">2</text><text style="&st18;" transform="matrix(&st16;  2790.9  680.81 )" ewd:textID="12">DIM Relay</text><text style="&st18;" transform="matrix(&st16;  2758.11  666.64 )">2</text><text style="&st18;" transform="matrix(&st16;  2855.85  641.15 )">2</text><text style="&st18;" transform="matrix(&st16;  2781.35  660.98 )">1</text><text style="&st18;" transform="matrix(&st16;  2781.35  635.49 )">3</text><text style="&st18;" transform="matrix(&st16;  2758.11  641.15 )">2</text><text style="&st18;" transform="matrix(&st16;  2824.11  635.49 )">5</text><path style="stroke-width:0.85 ;&st7;  " d=" M  2796.03,   664.67  L  2787.53,   664.67  " /><path style="stroke-width:0.85 ;&st7;  " d=" M  2821.53,   664.67  L  2813.03,   664.67  " /><path style="stroke-width:0.85 ;&st7;  " d=" M  2821.53,   639.18  L  2817.28,   639.18  " /><path style="stroke-width:0.85 ;&st7;  " d=" M  2804.53,   630.68  L  2804.53,   633.51  " /><path style="stroke-width:0.85 ;&st7;  " d=" M  2791.78,   639.18  L  2787.53,   639.18  " /><path style="stroke-width:1.42 ;&st7;  " d=" M  2794.62,   639.18  L  2817.28,   633.51  " /><path style="stroke-width:0.85 ;&st7;   " d=" M  2802.05,   667.20  C  2803.45    665.84   2803.47    663.59   2802.10    662.20  " /><path style="stroke-width:0.85 ;&st7;   " d=" M  2802.10,   662.20  C  2800.73    660.80   2798.49    660.78   2797.10    662.14  " /><path style="stroke-width:0.85 ;&st7;   " d=" M  2797.10,   662.14  C  2796.39    662.84   2796.03    663.68   2796.03    664.67  " /><path style="stroke-width:0.85 ;&st7;   " d=" M  2807.01,   667.20  C  2808.41    665.84   2808.43    663.59   2807.06    662.20  " /><path style="stroke-width:0.85 ;&st7;   " d=" M  2807.06,   662.20  C  2805.69    660.80   2803.45    660.78   2802.05    662.14  " /><path style="stroke-width:0.85 ;&st7;   " d=" M  2802.05,   662.14  C  2800.66    663.51   2800.63    665.76   2802.00    667.15  " /><path style="stroke-width:0.85 ;&st7;   " d=" M  2802.00,   667.15  C  2802.02    667.17   2802.03    667.19   2802.05    667.20  " /><path style="stroke-width:0.85 ;&st7;   " d=" M  2813.03,   664.67  C  2813.03    662.72   2811.44    661.13   2809.49    661.13  " /><path style="stroke-width:0.85 ;&st7;   " d=" M  2809.49,   661.13  C  2807.53    661.13   2805.95    662.72   2805.95    664.67  " /><path style="stroke-width:0.85 ;&st7;   " d=" M  2805.95,   664.67  C  2805.95    665.66   2806.30    666.51   2807.01    667.20  " /><path style="stroke-width:0.85 ;&st7;   " d=" M  2817.28,   639.18  C  2817.28    638.40   2816.65    637.76   2815.86    637.76  " /><path style="stroke-width:0.85 ;&st7;   " d=" M  2815.86,   637.76  C  2815.08    637.76   2814.45    638.40   2814.45    639.18  " /><path style="stroke-width:0.85 ;&st7;   " d=" M  2814.45,   639.18  C  2814.45    639.96   2815.08    640.59   2815.86    640.59  " /><path style="stroke-width:0.85 ;&st7;   " d=" M  2815.86,   640.59  C  2816.65    640.59   2817.28    639.96   2817.28    639.18  " /><path style="stroke-width:0.85 ;&st7;   " d=" M  2794.62,   639.18  C  2794.62    638.40   2793.98    637.76   2793.20    637.76  " /><path style="stroke-width:0.85 ;&st7;   " d=" M  2793.20,   637.76  C  2792.42    637.76   2791.78    638.40   2791.78    639.18  " /><path style="stroke-width:0.85 ;&st7;   " d=" M  2791.78,   639.18  C  2791.78    639.96   2792.42    640.59   2793.20    640.59  " /><path style="stroke-width:0.85 ;&st7;   " d=" M  2793.20,   640.59  C  2793.98    640.59   2794.62    639.96   2794.62    639.18  " /><path style="stroke-width:0.85 ;&st7;   " d=" M  2805.95,   634.93  C  2805.95    634.15   2805.31    633.51   2804.53    633.51  " /><path style="stroke-width:0.85 ;&st7;   " d=" M  2804.53,   633.51  C  2803.75    633.51   2803.11    634.15   2803.11    634.93  " /><path style="stroke-width:0.85 ;&st7;   " d=" M  2803.11,   634.93  C  2803.11    635.71   2803.75    636.35   2804.53    636.35  " /><path style="stroke-width:0.85 ;&st7;   " d=" M  2804.53,   636.35  C  2805.31    636.35   2805.95    635.71   2805.95    634.93  " /><path style="stroke-width:1.42 ;&st7;  " d=" M  2821.53,   630.68  L  2821.53,   673.17  L  2787.53,   673.17  L  2787.53,   630.68  L  2821.53,   630.68  " /></g><g ewd:figtype="rb" ewd:figID="18" ewd:code="FUSE13"><path style="stroke-width:0.85 ;&st7;  " d=" M  2974.50,   554.19  L  2966.00,   554.19  " /><path style="stroke-width:1.42 ;&st7;   " d=" M  2997.17,   554.19  C  2995.55    551.45   2992.03    550.54   2989.29    552.16  " /><path style="stroke-width:1.42 ;&st7;   " d=" M  2989.29,   552.16  C  2988.41    552.68   2987.77    553.31   2987.25    554.19  " /><path style="stroke-width:1.42 ;&st7;   " d=" M  2977.34,   554.19  C  2978.95    556.93   2982.48    557.84   2985.21    556.23  " /><path style="stroke-width:1.42 ;&st7;   " d=" M  2985.21,   556.23  C  2986.10    555.71   2986.73    555.07   2987.25    554.19  " /><path style="stroke-width:0.85 ;&st7;   " d=" M  3000.00,   554.19  C  3000.00    553.41   2999.36    552.78   2998.58    552.78  " /><path style="stroke-width:0.85 ;&st7;   " d=" M  2998.58,   552.78  C  2997.80    552.78   2997.17    553.41   2997.17    554.19  " /><path style="stroke-width:0.85 ;&st7;   " d=" M  2997.17,   554.19  C  2997.17    554.97   2997.80    555.61   2998.58    555.61  " /><path style="stroke-width:0.85 ;&st7;   " d=" M  2998.58,   555.61  C  2999.36    555.61   3000.00    554.97   3000.00    554.19  " /><path style="stroke-width:0.85 ;&st7;   " d=" M  2977.34,   554.19  C  2977.34    553.41   2976.70    552.78   2975.92    552.78  " /><path style="stroke-width:0.85 ;&st7;   " d=" M  2975.92,   552.78  C  2975.14    552.78   2974.50    553.41   2974.50    554.19  " /><path style="stroke-width:0.85 ;&st7;   " d=" M  2974.50,   554.19  C  2974.50    554.97   2975.14    555.61   2975.92    555.61  " /><path style="stroke-width:0.85 ;&st7;   " d=" M  2975.92,   555.61  C  2976.70    555.61   2977.34    554.97   2977.34    554.19  " /><path style="stroke-width:1.42 ;&st7;  " d=" M  2966.00,   541.44  L  2966.00,   566.94  L  3008.50,   566.94  L  3008.50,   541.44  L  2966.00,   541.44  " /><path style="stroke-width:0.85 ;&st7;  " d=" M  3008.50,   554.19  L  3000.00,   554.19  " /></g><g ewd:figtype="rb" ewd:figID="20" ewd:code="FUSE12"><path style="stroke-width:0.85 ;&st7;  " d=" M  2974.50,   596.69  L  2966.00,   596.69  " /><path style="stroke-width:0.85 ;&st7;   " d=" M  2977.34,   596.69  C  2977.34    595.90   2976.70    595.27   2975.92    595.27  " /><path style="stroke-width:0.85 ;&st7;   " d=" M  2975.92,   595.27  C  2975.14    595.27   2974.50    595.90   2974.50    596.69  " /><path style="stroke-width:0.85 ;&st7;   " d=" M  2974.50,   596.69  C  2974.50    597.47   2975.14    598.10   2975.92    598.10  " /><path style="stroke-width:0.85 ;&st7;   " d=" M  2975.92,   598.10  C  2976.70    598.10   2977.34    597.47   2977.34    596.69  " /><path style="stroke-width:0.85 ;&st7;   " d=" M  3000.00,   596.69  C  3000.00    595.90   2999.36    595.27   2998.58    595.27  " /><path style="stroke-width:0.85 ;&st7;   " d=" M  2998.58,   595.27  C  2997.80    595.27   2997.17    595.90   2997.17    596.69  " /><path style="stroke-width:0.85 ;&st7;   " d=" M  2997.17,   596.69  C  2997.17    597.47   2997.80    598.10   2998.58    598.10  " /><path style="stroke-width:0.85 ;&st7;   " d=" M  2998.58,   598.10  C  2999.36    598.10   3000.00    597.47   3000.00    596.69  " /><path style="stroke-width:1.42 ;&st7;   " d=" M  2977.34,   596.69  C  2978.95    599.42   2982.48    600.34   2985.21    598.72  " /><path style="stroke-width:1.42 ;&st7;   " d=" M  2985.21,   598.72  C  2986.10    598.20   2986.73    597.57   2987.25    596.69  " /><path style="stroke-width:1.42 ;&st7;   " d=" M  2997.17,   596.69  C  2995.55    593.95   2992.03    593.04   2989.29    594.65  " /><path style="stroke-width:1.42 ;&st7;   " d=" M  2989.29,   594.65  C  2988.41    595.17   2987.77    595.80   2987.25    596.69  " /><path style="stroke-width:0.85 ;&st7;  " d=" M  3008.50,   596.69  L  3000.00,   596.69  " /><path style="stroke-width:1.42 ;&st7;  " d=" M  2966.00,   583.94  L  2966.00,   609.43  L  3008.50,   609.43  L  3008.50,   583.94  L  2966.00,   583.94  " /></g><g ewd:figtype="rb" ewd:figID="49" ewd:code="FUSE14"><path style="stroke-width:1.42 ;&st7;  " d=" M  2757.79,   142.01  L  2762.04,   142.01  " /><path style="stroke-width:1.42 ;&st7;  " d=" M  2762.04,   150.51  L  2757.79,   150.51  " /><path style="stroke-width:1.42 ;&st7;  " d=" M  2757.79,    99.52  L  2762.04,    99.52  " /><path style="stroke-width:1.42 ;&st7;  " d=" M  2762.04,   108.02  L  2757.79,   108.02  " /><path style="stroke-width:1.42 ;&st7;   " d=" M  2753.54,   146.26  C  2753.54    148.61   2755.44    150.51   2757.79    150.51  " /><path style="stroke-width:1.42 ;&st7;   " d=" M  2766.29,   146.26  C  2766.29    143.91   2764.39    142.01   2762.04    142.01  " /><path style="stroke-width:1.42 ;&st7;   " d=" M  2762.04,   150.51  C  2764.39    150.51   2766.29    148.61   2766.29    146.26  " /><path style="stroke-width:1.42 ;&st7;   " d=" M  2753.54,   103.77  C  2753.54    106.11   2755.44    108.02   2757.79    108.02  " /><path style="stroke-width:1.42 ;&st7;   " d=" M  2757.79,   142.01  C  2755.44    142.01   2753.54    143.91   2753.54    146.26  " /><path style="stroke-width:1.42 ;&st7;   " d=" M  2757.79,    99.52  C  2755.44     99.52   2753.54    101.42   2753.54    103.77  " /><path style="stroke-width:1.42 ;&st7;   " d=" M  2762.04,   108.02  C  2764.39    108.02   2766.29    106.11   2766.29    103.77  " /><path style="stroke-width:1.42 ;&st7;   " d=" M  2766.29,   103.77  C  2766.29    101.42   2764.39     99.52   2762.04     99.52  " /><path style="stroke-width:0.28 ;&st9;  " d=" M  2771.18,   146.26  L  2774.01,   143.43  L  2769.77,   143.43  L  2766.93,   146.26  L  2769.77,   149.09  L  2774.01,   149.09  L  2771.18,   146.26  " /><path style="stroke-width:0.85 ;&st7;  " d=" M  2786.34,   102.77  L  2786.07,   103.24  L  2785.97,   103.77  L  2786.07,   104.30  L  2786.34,   104.77  L  2786.75,   105.12  L  2787.26,   105.30  L  2787.81,   105.30  L  2788.31,   105.12  L  2788.73,   104.77  L  2789.00,   104.30  L  2789.09,   103.77  L  2789.00,   103.24  L  2788.73,   102.77  L  2788.31,   102.42  L  2787.81,   102.23  L  2787.26,   102.23  L  2786.75,   102.42  L  2786.34,   102.77  L  2786.73,   103.48  L  2786.73,   104.06  L  2787.11,   104.50  L  2787.68,   104.60  L  2788.18,   104.31  L  2788.38,   103.77  L  2788.18,   103.22  L  2787.68,   102.93  L  2787.11,   103.03  L  2787.53,   103.77  " /><path style="stroke-width:0.85 ;&st7;  " d=" M  2864.02,   146.26  L  2889.52,   146.26  " /><path style="stroke-width:0.85 ;&st7;  " d=" M  2864.02,   103.77  L  2889.52,   103.77  " /><path style="stroke-width:0.85 ;&st7;  " d=" M  2864.02,    61.28  L  2889.52,    61.28  " /><path style="stroke-width:0.85 ;&st7;  " d=" M  2766.29,   103.77  L  2821.53,   103.77  " /><path style="stroke-width:0.85 ;&st7;  " d=" M  2821.53,    61.28  L  2787.53,    61.28  L  2787.53,   103.77  " /><path style="stroke-width:0.85 ;&st7;  " d=" M  2766.29,   146.26  L  2821.53,   146.26  " /><path style="stroke-width:0.28 ;&st9;  " d=" M  2771.18,   103.77  L  2774.01,   100.94  L  2769.77,   100.94  L  2766.93,   103.77  L  2769.77,   106.60  L  2774.01,   106.60  L  2771.18,   103.77  " /><text style="&st18;" transform="matrix(&st16;  2758.11  148.23 )">2</text><text style="&st18;" transform="matrix(&st16;  2866.6  142.57 )">2</text><text style="&st18;" transform="matrix(&st16;  2815.34  142.57 )">1</text><text style="&st18;" transform="matrix(&st16;  2830.16  128.4 )">10A MET</text><text style="&st18;" transform="matrix(&st16;  2866.6  57.59 )">2</text><text style="&st18;" transform="matrix(&st16;  2815.34  57.59 )">1</text><text style="&st18;" transform="matrix(&st16;  2831.28  43.41 )">10A IGN</text><text style="&st18;" transform="matrix(&st16;  2832.29  85.91 )">10A INJ</text><text style="&st18;" transform="matrix(&st16;  2815.34  100.08 )">1</text><text style="&st18;" transform="matrix(&st16;  2866.6  100.08 )">2</text><text style="&st18;" transform="matrix(&st16;  2758.11  105.74 )">2</text><path style="stroke-width:0.85 ;&st7;  " d=" M  2830.03,    61.28  L  2821.53,    61.28  " /><path style="stroke-width:0.85 ;&st7;   " d=" M  2832.86,    61.28  C  2832.86     60.49   2832.23     59.86   2831.44     59.86  " /><path style="stroke-width:0.85 ;&st7;   " d=" M  2831.44,    59.86  C  2830.66     59.86   2830.03     60.49   2830.03     61.28  " /><path style="stroke-width:0.85 ;&st7;   " d=" M  2830.03,    61.28  C  2830.03     62.06   2830.66     62.69   2831.44     62.69  " /><path style="stroke-width:0.85 ;&st7;   " d=" M  2831.44,    62.69  C  2832.23     62.69   2832.86     62.06   2832.86     61.28  " /><path style="stroke-width:1.42 ;&st7;   " d=" M  2852.69,    61.28  C  2851.08     58.54   2847.55     57.63   2844.81     59.24  " /><path style="stroke-width:1.42 ;&st7;   " d=" M  2844.81,    59.24  C  2843.93     59.76   2843.29     60.39   2842.78     61.28  " /><path style="stroke-width:1.42 ;&st7;   " d=" M  2832.86,    61.28  C  2834.47     64.01   2838.00     64.92   2840.74     63.31  " /><path style="stroke-width:1.42 ;&st7;   " d=" M  2840.74,    63.31  C  2841.62     62.79   2842.26     62.16   2842.78     61.28  " /><path style="stroke-width:0.85 ;&st7;   " d=" M  2855.52,    61.28  C  2855.52     60.49   2854.89     59.86   2854.11     59.86  " /><path style="stroke-width:0.85 ;&st7;   " d=" M  2854.11,    59.86  C  2853.32     59.86   2852.69     60.49   2852.69     61.28  " /><path style="stroke-width:0.85 ;&st7;   " d=" M  2852.69,    61.28  C  2852.69     62.06   2853.32     62.69   2854.11     62.69  " /><path style="stroke-width:0.85 ;&st7;   " d=" M  2854.11,    62.69  C  2854.89     62.69   2855.52     62.06   2855.52     61.28  " /><path style="stroke-width:1.42 ;&st7;  " d=" M  2821.53,    48.53  L  2821.53,    74.02  L  2864.02,    74.02  L  2864.02,    48.53  L  2821.53,    48.53  " /><path style="stroke-width:0.85 ;&st7;  " d=" M  2864.02,    61.28  L  2855.52,    61.28  " /></g><g ewd:figtype="rb" ewd:figID="50" ewd:code="FUSE15"><path style="stroke-width:0.85 ;&st7;  " d=" M  2830.03,   103.77  L  2821.53,   103.77  " /><path style="stroke-width:1.42 ;&st7;   " d=" M  2852.69,   103.77  C  2851.08    101.03   2847.55    100.12   2844.81    101.73  " /><path style="stroke-width:1.42 ;&st7;   " d=" M  2844.81,   101.73  C  2843.93    102.25   2843.29    102.89   2842.78    103.77  " /><path style="stroke-width:1.42 ;&st7;   " d=" M  2832.86,   103.77  C  2834.47    106.51   2838.00    107.42   2840.74    105.80  " /><path style="stroke-width:1.42 ;&st7;   " d=" M  2840.74,   105.80  C  2841.62    105.29   2842.26    104.65   2842.78    103.77  " /><path style="stroke-width:0.85 ;&st7;   " d=" M  2855.52,   103.77  C  2855.52    102.99   2854.89    102.35   2854.11    102.35  " /><path style="stroke-width:0.85 ;&st7;   " d=" M  2854.11,   102.35  C  2853.32    102.35   2852.69    102.99   2852.69    103.77  " /><path style="stroke-width:0.85 ;&st7;   " d=" M  2852.69,   103.77  C  2852.69    104.55   2853.32    105.18   2854.11    105.18  " /><path style="stroke-width:0.85 ;&st7;   " d=" M  2854.11,   105.18  C  2854.89    105.18   2855.52    104.55   2855.52    103.77  " /><path style="stroke-width:0.85 ;&st7;   " d=" M  2832.86,   103.77  C  2832.86    102.99   2832.23    102.35   2831.44    102.35  " /><path style="stroke-width:0.85 ;&st7;   " d=" M  2831.44,   102.35  C  2830.66    102.35   2830.03    102.99   2830.03    103.77  " /><path style="stroke-width:0.85 ;&st7;   " d=" M  2830.03,   103.77  C  2830.03    104.55   2830.66    105.18   2831.44    105.18  " /><path style="stroke-width:0.85 ;&st7;   " d=" M  2831.44,   105.18  C  2832.23    105.18   2832.86    104.55   2832.86    103.77  " /><path style="stroke-width:0.85 ;&st7;  " d=" M  2864.02,   103.77  L  2855.52,   103.77  " /><path style="stroke-width:1.42 ;&st7;  " d=" M  2821.53,    91.02  L  2821.53,   116.52  L  2864.02,   116.52  L  2864.02,    91.02  L  2821.53,    91.02  " /></g><g ewd:figtype="rb" ewd:figID="51" ewd:code="FUSE16"><path style="stroke-width:0.85 ;&st7;  " d=" M  2830.03,   146.26  L  2821.53,   146.26  " /><path style="stroke-width:0.85 ;&st7;   " d=" M  2832.86,   146.26  C  2832.86    145.48   2832.23    144.84   2831.44    144.84  " /><path style="stroke-width:0.85 ;&st7;   " d=" M  2831.44,   144.84  C  2830.66    144.84   2830.03    145.48   2830.03    146.26  " /><path style="stroke-width:0.85 ;&st7;   " d=" M  2830.03,   146.26  C  2830.03    147.04   2830.66    147.68   2831.44    147.68  " /><path style="stroke-width:0.85 ;&st7;   " d=" M  2831.44,   147.68  C  2832.23    147.68   2832.86    147.04   2832.86    146.26  " /><path style="stroke-width:0.85 ;&st7;   " d=" M  2855.52,   146.26  C  2855.52    145.48   2854.89    144.84   2854.11    144.84  " /><path style="stroke-width:0.85 ;&st7;   " d=" M  2854.11,   144.84  C  2853.32    144.84   2852.69    145.48   2852.69    146.26  " /><path style="stroke-width:0.85 ;&st7;   " d=" M  2852.69,   146.26  C  2852.69    147.04   2853.32    147.68   2854.11    147.68  " /><path style="stroke-width:0.85 ;&st7;   " d=" M  2854.11,   147.68  C  2854.89    147.68   2855.52    147.04   2855.52    146.26  " /><path style="stroke-width:1.42 ;&st7;   " d=" M  2832.86,   146.26  C  2834.47    149.00   2838.00    149.91   2840.74    148.30  " /><path style="stroke-width:1.42 ;&st7;   " d=" M  2840.74,   148.30  C  2841.62    147.78   2842.26    147.14   2842.78    146.26  " /><path style="stroke-width:1.42 ;&st7;   " d=" M  2852.69,   146.26  C  2851.08    143.52   2847.55    142.61   2844.81    144.22  " /><path style="stroke-width:1.42 ;&st7;   " d=" M  2844.81,   144.22  C  2843.93    144.74   2843.29    145.38   2842.78    146.26  " /><path style="stroke-width:1.42 ;&st7;  " d=" M  2821.53,   133.51  L  2821.53,   159.01  L  2864.02,   159.01  L  2864.02,   133.51  L  2821.53,   133.51  " /><path style="stroke-width:0.85 ;&st7;  " d=" M  2864.02,   146.26  L  2855.52,   146.26  " /></g><g ewd:figtype="rb" ewd:figID="52" ewd:code="FUSE18"><path style="stroke-width:0.85 ;&st7;  " d=" M  2830.03,   248.24  L  2821.53,   248.24  " /><path style="stroke-width:0.85 ;&st7;   " d=" M  2832.86,   248.24  C  2832.86    247.46   2832.23    246.83   2831.44    246.83  " /><path style="stroke-width:0.85 ;&st7;   " d=" M  2831.44,   246.83  C  2830.66    246.83   2830.03    247.46   2830.03    248.24  " /><path style="stroke-width:0.85 ;&st7;   " d=" M  2830.03,   248.24  C  2830.03    249.03   2830.66    249.66   2831.44    249.66  " /><path style="stroke-width:0.85 ;&st7;   " d=" M  2831.44,   249.66  C  2832.23    249.66   2832.86    249.03   2832.86    248.24  " /><path style="stroke-width:0.85 ;&st7;   " d=" M  2855.52,   248.24  C  2855.52    247.46   2854.89    246.83   2854.11    246.83  " /><path style="stroke-width:0.85 ;&st7;   " d=" M  2854.11,   246.83  C  2853.32    246.83   2852.69    247.46   2852.69    248.24  " /><path style="stroke-width:0.85 ;&st7;   " d=" M  2852.69,   248.24  C  2852.69    249.03   2853.32    249.66   2854.11    249.66  " /><path style="stroke-width:0.85 ;&st7;   " d=" M  2854.11,   249.66  C  2854.89    249.66   2855.52    249.03   2855.52    248.24  " /><path style="stroke-width:1.42 ;&st7;   " d=" M  2832.86,   248.24  C  2834.47    250.98   2838.00    251.89   2840.74    250.28  " /><path style="stroke-width:1.42 ;&st7;   " d=" M  2840.74,   250.28  C  2841.62    249.76   2842.26    249.13   2842.78    248.24  " /><path style="stroke-width:1.42 ;&st7;   " d=" M  2852.69,   248.24  C  2851.08    245.51   2847.55    244.59   2844.81    246.21  " /><path style="stroke-width:1.42 ;&st7;   " d=" M  2844.81,   246.21  C  2843.93    246.73   2843.29    247.36   2842.78    248.24  " /><path style="stroke-width:1.42 ;&st7;  " d=" M  2821.53,   235.50  L  2821.53,   260.99  L  2864.02,   260.99  L  2864.02,   235.50  L  2821.53,   235.50  " /><path style="stroke-width:0.85 ;&st7;  " d=" M  2864.02,   248.24  L  2855.52,   248.24  " /></g><g ewd:figtype="rb" ewd:figID="53" ewd:code="FUSE17"><path style="stroke-width:0.85 ;&st7;  " d=" M  2830.03,   290.74  L  2821.53,   290.74  " /><path style="stroke-width:1.42 ;&st7;   " d=" M  2852.69,   290.74  C  2851.08    288.00   2847.55    287.09   2844.81    288.70  " /><path style="stroke-width:1.42 ;&st7;   " d=" M  2844.81,   288.70  C  2843.93    289.22   2843.29    289.85   2842.78    290.74  " /><path style="stroke-width:1.42 ;&st7;   " d=" M  2832.86,   290.74  C  2834.47    293.47   2838.00    294.39   2840.74    292.77  " /><path style="stroke-width:1.42 ;&st7;   " d=" M  2840.74,   292.77  C  2841.62    292.25   2842.26    291.62   2842.78    290.74  " /><path style="stroke-width:0.85 ;&st7;   " d=" M  2832.86,   290.74  C  2832.86    289.95   2832.23    289.32   2831.44    289.32  " /><path style="stroke-width:0.85 ;&st7;   " d=" M  2831.44,   289.32  C  2830.66    289.32   2830.03    289.95   2830.03    290.74  " /><path style="stroke-width:0.85 ;&st7;   " d=" M  2830.03,   290.74  C  2830.03    291.52   2830.66    292.15   2831.44    292.15  " /><path style="stroke-width:0.85 ;&st7;   " d=" M  2831.44,   292.15  C  2832.23    292.15   2832.86    291.52   2832.86    290.74  " /><path style="stroke-width:0.85 ;&st7;   " d=" M  2855.52,   290.74  C  2855.52    289.95   2854.89    289.32   2854.11    289.32  " /><path style="stroke-width:0.85 ;&st7;   " d=" M  2854.11,   289.32  C  2853.32    289.32   2852.69    289.95   2852.69    290.74  " /><path style="stroke-width:0.85 ;&st7;   " d=" M  2852.69,   290.74  C  2852.69    291.52   2853.32    292.15   2854.11    292.15  " /><path style="stroke-width:0.85 ;&st7;   " d=" M  2854.11,   292.15  C  2854.89    292.15   2855.52    291.52   2855.52    290.74  " /><path style="stroke-width:0.85 ;&st7;  " d=" M  2864.02,   290.74  L  2855.52,   290.74  " /><path style="stroke-width:1.42 ;&st7;  " d=" M  2821.53,   277.99  L  2821.53,   303.48  L  2864.02,   303.48  L  2864.02,   277.99  L  2821.53,   277.99  " /></g><g ewd:figtype="rb" ewd:figID="54" ewd:code="FUSE34"><path style="stroke-width:0.85 ;&st7;  " d=" M  2830.03,   341.73  L  2821.53,   341.73  " /><path style="stroke-width:1.42 ;&st7;   " d=" M  2832.86,   341.73  C  2834.47    344.47   2838.00    345.38   2840.74    343.77  " /><path style="stroke-width:1.42 ;&st7;   " d=" M  2840.74,   343.77  C  2841.62    343.25   2842.26    342.61   2842.78    341.73  " /><path style="stroke-width:1.42 ;&st7;   " d=" M  2852.69,   341.73  C  2851.08    338.99   2847.55    338.08   2844.81    339.69  " /><path style="stroke-width:1.42 ;&st7;   " d=" M  2844.81,   339.69  C  2843.93    340.21   2843.29    340.85   2842.78    341.73  " /><path style="stroke-width:0.85 ;&st7;   " d=" M  2832.86,   341.73  C  2832.86    340.95   2832.23    340.31   2831.44    340.31  " /><path style="stroke-width:0.85 ;&st7;   " d=" M  2831.44,   340.31  C  2830.66    340.31   2830.03    340.95   2830.03    341.73  " /><path style="stroke-width:0.85 ;&st7;   " d=" M  2830.03,   341.73  C  2830.03    342.51   2830.66    343.14   2831.44    343.14  " /><path style="stroke-width:0.85 ;&st7;   " d=" M  2831.44,   343.14  C  2832.23    343.14   2832.86    342.51   2832.86    341.73  " /><path style="stroke-width:0.85 ;&st7;   " d=" M  2855.52,   341.73  C  2855.52    340.95   2854.89    340.31   2854.11    340.31  " /><path style="stroke-width:0.85 ;&st7;   " d=" M  2854.11,   340.31  C  2853.32    340.31   2852.69    340.95   2852.69    341.73  " /><path style="stroke-width:0.85 ;&st7;   " d=" M  2852.69,   341.73  C  2852.69    342.51   2853.32    343.14   2854.11    343.14  " /><path style="stroke-width:0.85 ;&st7;   " d=" M  2854.11,   343.14  C  2854.89    343.14   2855.52    342.51   2855.52    341.73  " /><path style="stroke-width:1.42 ;&st7;  " d=" M  2821.53,   328.98  L  2821.53,   354.48  L  2864.02,   354.48  L  2864.02,   328.98  L  2821.53,   328.98  " /><path style="stroke-width:0.85 ;&st7;  " d=" M  2864.02,   341.73  L  2855.52,   341.73  " /></g><g ewd:figtype="rb" ewd:figID="55" ewd:code="FUSE21"><path style="stroke-width:0.85 ;&st7;  " d=" M  2830.03,   384.22  L  2821.53,   384.22  " /><path style="stroke-width:0.85 ;&st7;   " d=" M  2832.86,   384.22  C  2832.86    383.44   2832.23    382.80   2831.44    382.80  " /><path style="stroke-width:0.85 ;&st7;   " d=" M  2831.44,   382.80  C  2830.66    382.80   2830.03    383.44   2830.03    384.22  " /><path style="stroke-width:0.85 ;&st7;   " d=" M  2830.03,   384.22  C  2830.03    385.00   2830.66    385.64   2831.44    385.64  " /><path style="stroke-width:0.85 ;&st7;   " d=" M  2831.44,   385.64  C  2832.23    385.64   2832.86    385.00   2832.86    384.22  " /><path style="stroke-width:0.85 ;&st7;   " d=" M  2855.52,   384.22  C  2855.52    383.44   2854.89    382.80   2854.11    382.80  " /><path style="stroke-width:0.85 ;&st7;   " d=" M  2854.11,   382.80  C  2853.32    382.80   2852.69    383.44   2852.69    384.22  " /><path style="stroke-width:0.85 ;&st7;   " d=" M  2852.69,   384.22  C  2852.69    385.00   2853.32    385.64   2854.11    385.64  " /><path style="stroke-width:0.85 ;&st7;   " d=" M  2854.11,   385.64  C  2854.89    385.64   2855.52    385.00   2855.52    384.22  " /><path style="stroke-width:1.42 ;&st7;   " d=" M  2832.86,   384.22  C  2834.47    386.96   2838.00    387.87   2840.74    386.26  " /><path style="stroke-width:1.42 ;&st7;   " d=" M  2840.74,   386.26  C  2841.62    385.74   2842.26    385.10   2842.78    384.22  " /><path style="stroke-width:1.42 ;&st7;   " d=" M  2852.69,   384.22  C  2851.08    381.48   2847.55    380.57   2844.81    382.18  " /><path style="stroke-width:1.42 ;&st7;   " d=" M  2844.81,   382.18  C  2843.93    382.70   2843.29    383.34   2842.78    384.22  " /><path style="stroke-width:1.42 ;&st7;  " d=" M  2821.53,   371.47  L  2821.53,   396.97  L  2864.02,   396.97  L  2864.02,   371.47  L  2821.53,   371.47  " /><path style="stroke-width:0.85 ;&st7;  " d=" M  2864.02,   384.22  L  2855.52,   384.22  " /></g><g ewd:code="3" ewd:figID="188" ewd:comment="" ewd:figtype="comment"><text style="&st18;" transform="matrix(&st16;  2937.1  46.25 )" ewd:textID="1">* 3 :1HZ 24V Battery Type</text></g><g ewd:code="8" ewd:figID="187" ewd:comment="" ewd:figtype="comment"><text style="&st18;" transform="matrix(&st16;  2937.1  54.75 )" ewd:textID="4">* 8 :1VD-FTV, 1HZ 12V Battery Type</text></g></svg>