<?xml version="1.0" encoding="utf-8"?>
<!DOCTYPE svg PUBLIC "-//W3C//DTD SVG 1.0//EN" "http://www.w3.org/TR/2001/REC-SVG-20010904/DTD/svg10.dtd"[
	<!ENTITY ns_flows "http://ns.adobe.com/Flows/1.0/">
	<!ENTITY ns_svg "http://www.w3.org/2000/svg">
	<!ENTITY ns_xlink "http://www.w3.org/1999/xlink">
	<!ENTITY st0 "font-size:7px;font-family:'MS-PGothic';adobe-font-script:japanese;">
	<!ENTITY st1 "font-size:6px;font-family:'ArialMT';">
	<!-- White fill  -->
	<!ENTITY st2 "fill:#FFFFFF;stroke:#000000; stroke-width:1.41;stroke-linecap:round;stroke-linejoin:round;">
	<!-- Yellow fill  -->
	<!ENTITY st3 "fill:#FFFFCC;stroke:#FFFFCC; stroke-width:0.1;stroke-linecap:round;stroke-linejoin:round;">
	<!-- Gray fill  -->
	<!ENTITY st4 "fill:#CCCCCC;stroke:#CCCCCC; stroke-width:0.1;stroke-linecap:round;stroke-linejoin:round;">
	<!-- Light-blue fill -->
	<!ENTITY st5 "fill:#CCECF4;stroke:#000000; stroke-width:1.133;stroke-linecap:round;stroke-linejoin:round;">
	<!ENTITY st6 "fill:none;stroke-linecap:butt; stroke-linejoin:round;">
	<!ENTITY st7 "fill:none;stroke:#000000;stroke-linecap:round;stroke-linejoin:round;">
	<!ENTITY st8 "enable-background:new    ;">
	<!-- Black fill -->
	<!ENTITY st9 "fill:#000000;stroke:#000000; stroke-linecap:round;stroke-linejoin:round;">
	<!-- SRS note   -->
	<!ENTITY st10 "font-size:9px;font-family:'ArialMT';">
	<!ENTITY st11 "font-size:9px;font-family:'Svg Symbol';">
	<!ENTITY st12 "font-size:6px;font-family:'Svg Symbol';">
	<!ENTITY st13 "fill:none;stroke:#ff0000;stroke-linecap:round;stroke-linejoin:round;">
	<!-- Yellow fill  -->
	<!ENTITY st14 "fill:#FFFF00;stroke:#FFFF00; stroke-width:0.1;stroke-linecap:round;stroke-linejoin:round;">
	<!ENTITY st15 "font-size:6px;font-family:'MS-PGothic';adobe-font-script:japanese;">
	<!ENTITY st16 "1.00 0.00 0.00 1.00">
	<!ENTITY st17 "0.00 -1.00 1.00 0.00">
	<!ENTITY st18 "font-size:6px;font-family:'Arial';">
	<!ENTITY st19 "font-size:9px;font-family:'Arial';">
	<!ENTITY st20 "font-size:6px;font-family:'MS-PGothic','MS PGothic';adobe-font-script:japanese;">
	<!ENTITY st21 "font-size:7px;font-family:'MS-PGothic','MS PGothic';adobe-font-script:japanese;">
	<!ATTLIST svg
		xmlns:ewd CDATA #FIXED "http://shcl.co.jp/ewd"
		xmlns:a CDATA #FIXED "http://ns.adobe.com/AdobeSVGViewerExtensions/3.0/"
		ewd:ver CDATA #IMPLIED
	>
	<!ATTLIST a
		ewd:lineID CDATA #IMPLIED
		ewd:groupID CDATA #IMPLIED
		ewd:figtype CDATA #IMPLIED
		ewd:code CDATA #IMPLIED
		ewd:figID CDATA #IMPLIED
		ewd:pinNo CDATA #IMPLIED
		ewd:comment CDATA #IMPLIED >
	<!ATTLIST g
		ewd:lineID CDATA #IMPLIED
		ewd:groupID CDATA #IMPLIED
		ewd:figtype CDATA #IMPLIED
		ewd:code CDATA #IMPLIED
		ewd:figID CDATA #IMPLIED
		ewd:pinNo CDATA #IMPLIED
		ewd:comment CDATA #IMPLIED >
	<!ATTLIST text
		ewd:textID CDATA #IMPLIED >
	<!ATTLIST title
		ewd:textID CDATA #IMPLIED >
]>
<!-- Generator: Shintec Hozumi YS   -->
<svg onload="call_execInitLoadProc_svg('system')" style="overflow:visible;  enable-background:new 0 0 3078.923 710.000" viewBox="0 0 3078.923 710.000" height="710.000" width="3078.923" xml:space="preserve" ewd:ver="2.1.2.9" xmlns="&ns_svg;" xmlns:a="http://ns.adobe.com/AdobeSVGViewerExtensions/3.0/" xmlns:ewd="http://shcl.co.jp/ewd" xmlns:xlink="&ns_xlink;">
<path style="stroke-width:1.42 ;&st7;  " d=" M   458.92,    40.03  L   458.92,    44.28  " /><path style="stroke-width:1.42 ;&st7;  " d=" M   378.91,   528.70  L   373.94,   533.67  " /><path style="stroke-width:1.42 ;&st7;  " d=" M   385.96,   545.69  L   390.93,   540.73  " /><path style="stroke-width:1.42 ;&st7;  " d=" M   373.94,   540.73  L   378.91,   545.69  " /><path style="stroke-width:1.42 ;&st7;  " d=" M   390.93,   533.67  L   385.96,   528.70  " /><path style="stroke-width:1.42 ;&st7;  " d=" M   441.93,   277.99  L   441.93,   282.24  " /><path style="stroke-width:1.42 ;&st7;  " d=" M   458.92,   447.96  L   458.92,   452.21  " /><path style="stroke-width:1.42 ;&st7;  " d=" M   458.92,   218.50  L   458.92,   222.75  " /><path style="stroke-width:1.42 ;&st7;  " d=" M   458.92,    82.52  L   458.92,    86.77  " /><path style="stroke-width:1.42 ;&st7;  " d=" M   441.93,   575.44  L   441.93,   579.69  " /><path style="stroke-width:1.42 ;&st7;  " d=" M   441.93,   617.93  L   441.93,   622.18  " /><path style="stroke-width:1.42 ;&st7;  " d=" M   441.93,   532.95  L   441.93,   537.20  " /><text style="&st18;" transform="matrix(&st16;  489.95  448.51 )">W</text><text style="&st18;" transform="matrix(&st16;  69.34  482.51 )">B(*3)</text><text style="&st18;" transform="matrix(&st16;  173.26  306.87 )">(*3)</text><text style="&st18;" transform="matrix(&st16;  169.22  332.37 )">(*4,*5)</text><text style="&st18;" transform="matrix(&st16;  172.91  295.54 )">B-L</text><text style="&st18;" transform="matrix(&st16;  172.91  278.54 )">B-L</text><text style="&st18;" transform="matrix(&st16;  172.91  321.03 )">B-L</text><text style="&st18;" transform="matrix(&st17;  149.28  646.76 )">B-DG</text><text style="&st18;" transform="matrix(&st17;  109.62  643.89 )">(*1)</text><text style="&st18;" transform="matrix(&st17;  98.29  646.76 )">B-DG</text><text style="&st18;" transform="matrix(&st17;  194.61  647.92 )">(*3,*9)</text><text style="&st18;" transform="matrix(&st17;  183.27  646.76 )">B-DG</text><text style="&st18;" transform="matrix(&st17;  58.63  643.89 )">(*5)</text><text style="&st18;" transform="matrix(&st17;  47.3  646.76 )">B-DG</text><text style="&st18;" transform="matrix(&st17;  24.63  643.89 )">(*5)</text><text style="&st18;" transform="matrix(&st17;  13.3  646.76 )">B-DG</text><text style="&st18;" transform="matrix(&st16;  405.86  533.5 )">L</text><text style="&st18;" transform="matrix(&st16;  486.54  278.54 )">W-R</text><text style="&st18;" transform="matrix(&st16;  351.38  40.58 )">B-L</text><text style="&st18;" transform="matrix(&st16;  351.46  83.07 )">L-R</text><text style="&st18;" transform="matrix(&st16;  351.34  125.57 )">R-B</text><text style="&st18;" transform="matrix(&st16;  350.56  168.06 )">W-R</text><text style="&st18;" transform="matrix(&st16;  353.98  210.55 )">W</text><text style="&st18;" transform="matrix(&st16;  350.6  618.48 )">W-L</text><text style="&st18;" transform="matrix(&st16;  65.8  499.5 )">B</text><text style="&st18;" transform="matrix(&st16;  354.87  533.5 )">L</text><text style="&st18;" transform="matrix(&st16;  62.78  510.84 )">(*5)</text><text style="&st18;" transform="matrix(&st16;  354.83  575.99 )">R</text><text style="&st18;" transform="matrix(&st16;  487.36  40.58 )">B-L</text><text style="&st18;" transform="matrix(&st16;  490.85  533.5 )">L</text><text style="&st18;" transform="matrix(&st16;  486.58  618.48 )">W-L</text><text style="&st18;" transform="matrix(&st16;  487.43  83.07 )">L-R</text><text style="&st18;" transform="matrix(&st16;  487.71  204.89 )">(*3)</text><text style="&st18;" transform="matrix(&st16;  490.81  575.99 )">R</text><text style="&st18;" transform="matrix(&st16;  487.32  219.05 )">R-B</text><text style="&st18;" transform="matrix(&st16;  487.71  230.38 )">(*8)</text><text style="&st18;" transform="matrix(&st16;  487.71  485.34 )">(*3)</text><text style="&st18;" transform="matrix(&st16;  489.95  474.01 )">W</text><text style="&st18;" transform="matrix(&st16;  487.71  459.84 )">(*8)</text><text style="&st18;" transform="matrix(&st16;  487.71  544.83 )">(*3)</text><text style="&st18;" transform="matrix(&st16;  490.85  508.0 )">L</text><text style="&st18;" transform="matrix(&st16;  487.71  519.33 )">(*8)</text><text style="&st18;" transform="matrix(&st16;  487.32  193.56 )">R-B</text><g ewd:figtype="rb" ewd:figID="2" ewd:code="FUSE49"><path style="stroke-width:1.42 ;&st7;  " d=" M   327.20,   541.44  L   322.95,   541.44  " /><path style="stroke-width:1.42 ;&st7;  " d=" M   327.20,   532.95  L   322.95,   532.95  " /><path style="stroke-width:1.42 ;&st7;  " d=" M   327.20,   583.94  L   322.95,   583.94  " /><path style="stroke-width:1.42 ;&st7;  " d=" M   327.20,   575.44  L   322.95,   575.44  " /><path style="stroke-width:1.42 ;&st7;  " d=" M   327.20,   626.43  L   322.95,   626.43  " /><path style="stroke-width:1.42 ;&st7;  " d=" M   327.20,   617.93  L   322.95,   617.93  " /><path style="stroke-width:1.42 ;&st7;   " d=" M   331.44,   537.20  C   331.44    534.85    329.54    532.95    327.20    532.95  " /><path style="stroke-width:1.42 ;&st7;   " d=" M   327.20,   541.44  C   329.54    541.44    331.44    539.54    331.44    537.20  " /><path style="stroke-width:1.42 ;&st7;   " d=" M   318.70,   537.20  C   318.70    539.54    320.60    541.44    322.95    541.44  " /><path style="stroke-width:1.42 ;&st7;   " d=" M   322.95,   532.95  C   320.60    532.95    318.70    534.85    318.70    537.20  " /><path style="stroke-width:1.42 ;&st7;   " d=" M   331.44,   579.69  C   331.44    577.34    329.54    575.44    327.20    575.44  " /><path style="stroke-width:1.42 ;&st7;   " d=" M   327.20,   583.94  C   329.54    583.94    331.44    582.04    331.44    579.69  " /><path style="stroke-width:1.42 ;&st7;   " d=" M   318.70,   579.69  C   318.70    582.04    320.60    583.94    322.95    583.94  " /><path style="stroke-width:1.42 ;&st7;   " d=" M   322.95,   575.44  C   320.60    575.44    318.70    577.34    318.70    579.69  " /><path style="stroke-width:1.42 ;&st7;   " d=" M   331.44,   622.18  C   331.44    619.83    329.54    617.93    327.20    617.93  " /><path style="stroke-width:1.42 ;&st7;   " d=" M   327.20,   626.43  C   329.54    626.43    331.44    624.53    331.44    622.18  " /><path style="stroke-width:1.42 ;&st7;   " d=" M   318.70,   622.18  C   318.70    624.53    320.60    626.43    322.95    626.43  " /><path style="stroke-width:1.42 ;&st7;   " d=" M   322.95,   617.93  C   320.60    617.93    318.70    619.83    318.70    622.18  " /><text style="&st18;" transform="matrix(&st16;  248.77  491.01 )">1</text><text style="&st18;" transform="matrix(&st16;  300.03  491.01 )">2</text><path style="stroke-width:0.85 ;&st7;  " d=" M   236.77,   621.18  L   236.50,   621.65  L   236.40,   622.18  L   236.50,   622.71  L   236.77,   623.18  L   237.18,   623.53  L   237.69,   623.72  L   238.23,   623.72  L   238.74,   623.53  L   239.15,   623.18  L   239.42,   622.71  L   239.52,   622.18  L   239.42,   621.65  L   239.15,   621.18  L   238.74,   620.83  L   238.23,   620.65  L   237.69,   620.65  L   237.18,   620.83  L   236.77,   621.18  L   237.16,   621.89  L   237.16,   622.47  L   237.54,   622.92  L   238.11,   623.02  L   238.61,   622.73  L   238.81,   622.18  L   238.61,   621.63  L   238.11,   621.35  L   237.54,   621.44  L   237.96,   622.18  " /><path style="stroke-width:0.85 ;&st7;  " d=" M   236.77,   578.69  L   236.50,   579.16  L   236.40,   579.69  L   236.50,   580.22  L   236.77,   580.69  L   237.18,   581.04  L   237.69,   581.22  L   238.23,   581.22  L   238.74,   581.04  L   239.15,   580.69  L   239.42,   580.22  L   239.52,   579.69  L   239.42,   579.16  L   239.15,   578.69  L   238.74,   578.34  L   238.23,   578.15  L   237.69,   578.15  L   237.18,   578.34  L   236.77,   578.69  L   237.16,   579.40  L   237.16,   579.98  L   237.54,   580.43  L   238.11,   580.52  L   238.61,   580.24  L   238.81,   579.69  L   238.61,   579.14  L   238.11,   578.85  L   237.54,   578.95  L   237.96,   579.69  " /><path style="stroke-width:0.85 ;&st7;  " d=" M   236.77,   536.19  L   236.50,   536.66  L   236.40,   537.20  L   236.50,   537.73  L   236.77,   538.20  L   237.18,   538.54  L   237.69,   538.73  L   238.23,   538.73  L   238.74,   538.54  L   239.15,   538.20  L   239.42,   537.73  L   239.52,   537.20  L   239.42,   536.66  L   239.15,   536.19  L   238.74,   535.85  L   238.23,   535.66  L   237.69,   535.66  L   237.18,   535.85  L   236.77,   536.19  L   237.16,   536.90  L   237.16,   537.49  L   237.54,   537.93  L   238.11,   538.03  L   238.61,   537.74  L   238.81,   537.20  L   238.61,   536.65  L   238.11,   536.36  L   237.54,   536.46  L   237.96,   537.20  " /><path style="stroke-width:0.85 ;&st7;  " d=" M   236.77,   493.70  L   236.50,   494.17  L   236.40,   494.70  L   236.50,   495.24  L   236.77,   495.71  L   237.18,   496.05  L   237.69,   496.24  L   238.23,   496.24  L   238.74,   496.05  L   239.15,   495.71  L   239.42,   495.24  L   239.52,   494.70  L   239.42,   494.17  L   239.15,   493.70  L   238.74,   493.35  L   238.23,   493.17  L   237.69,   493.17  L   237.18,   493.35  L   236.77,   493.70  L   237.16,   494.41  L   237.16,   494.99  L   237.54,   495.44  L   238.11,   495.54  L   238.61,   495.25  L   238.81,   494.70  L   238.61,   494.16  L   238.11,   493.87  L   237.54,   493.97  L   237.96,   494.70  " /><path style="stroke-width:0.85 ;&st7;  " d=" M   236.77,   451.21  L   236.50,   451.68  L   236.40,   452.21  L   236.50,   452.74  L   236.77,   453.21  L   237.18,   453.56  L   237.69,   453.75  L   238.23,   453.75  L   238.74,   453.56  L   239.15,   453.21  L   239.42,   452.74  L   239.52,   452.21  L   239.42,   451.68  L   239.15,   451.21  L   238.74,   450.86  L   238.23,   450.67  L   237.69,   450.67  L   237.18,   450.86  L   236.77,   451.21  L   237.16,   451.92  L   237.16,   452.50  L   237.54,   452.95  L   238.11,   453.05  L   238.61,   452.76  L   238.81,   452.21  L   238.61,   451.66  L   238.11,   451.37  L   237.54,   451.47  L   237.96,   452.21  " /><path style="stroke-width:0.85 ;&st7;  " d=" M   236.77,   408.71  L   236.50,   409.18  L   236.40,   409.72  L   236.50,   410.25  L   236.77,   410.72  L   237.18,   411.07  L   237.69,   411.25  L   238.23,   411.25  L   238.74,   411.07  L   239.15,   410.72  L   239.42,   410.25  L   239.52,   409.72  L   239.42,   409.18  L   239.15,   408.71  L   238.74,   408.37  L   238.23,   408.18  L   237.69,   408.18  L   237.18,   408.37  L   236.77,   408.71  L   237.16,   409.43  L   237.16,   410.01  L   237.54,   410.45  L   238.11,   410.55  L   238.61,   410.26  L   238.81,   409.72  L   238.61,   409.17  L   238.11,   408.88  L   237.54,   408.98  L   237.96,   409.72  " /><path style="stroke-width:0.85 ;&st7;  " d=" M   236.77,   366.22  L   236.50,   366.69  L   236.40,   367.22  L   236.50,   367.76  L   236.77,   368.23  L   237.18,   368.57  L   237.69,   368.76  L   238.23,   368.76  L   238.74,   368.57  L   239.15,   368.23  L   239.42,   367.76  L   239.52,   367.22  L   239.42,   366.69  L   239.15,   366.22  L   238.74,   365.88  L   238.23,   365.69  L   237.69,   365.69  L   237.18,   365.88  L   236.77,   366.22  L   237.16,   366.93  L   237.16,   367.52  L   237.54,   367.96  L   238.11,   368.06  L   238.61,   367.77  L   238.81,   367.22  L   238.61,   366.68  L   238.11,   366.39  L   237.54,   366.49  L   237.96,   367.22  " /><path style="stroke-width:0.85 ;&st7;  " d=" M   236.77,   323.73  L   236.50,   324.20  L   236.40,   324.73  L   236.50,   325.26  L   236.77,   325.73  L   237.18,   326.08  L   237.69,   326.27  L   238.23,   326.27  L   238.74,   326.08  L   239.15,   325.73  L   239.42,   325.26  L   239.52,   324.73  L   239.42,   324.20  L   239.15,   323.73  L   238.74,   323.38  L   238.23,   323.20  L   237.69,   323.20  L   237.18,   323.38  L   236.77,   323.73  L   237.16,   324.44  L   237.16,   325.02  L   237.54,   325.47  L   238.11,   325.57  L   238.61,   325.28  L   238.81,   324.73  L   238.61,   324.18  L   238.11,   323.90  L   237.54,   323.99  L   237.96,   324.73  " /><path style="stroke-width:0.85 ;&st7;  " d=" M   236.77,   281.24  L   236.50,   281.71  L   236.40,   282.24  L   236.50,   282.77  L   236.77,   283.24  L   237.18,   283.59  L   237.69,   283.77  L   238.23,   283.77  L   238.74,   283.59  L   239.15,   283.24  L   239.42,   282.77  L   239.52,   282.24  L   239.42,   281.71  L   239.15,   281.24  L   238.74,   280.89  L   238.23,   280.70  L   237.69,   280.70  L   237.18,   280.89  L   236.77,   281.24  L   237.16,   281.95  L   237.16,   282.53  L   237.54,   282.97  L   238.11,   283.07  L   238.61,   282.79  L   238.81,   282.24  L   238.61,   281.69  L   238.11,   281.40  L   237.54,   281.50  L   237.96,   282.24  " /><path style="stroke-width:0.85 ;&st7;  " d=" M   297.45,   494.70  L   322.95,   494.70  " /><path style="stroke-width:0.85 ;&st7;  " d=" M   297.45,   452.21  L   322.95,   452.21  " /><path style="stroke-width:0.85 ;&st7;  " d=" M   297.45,   409.72  L   322.95,   409.72  " /><path style="stroke-width:0.85 ;&st7;  " d=" M   297.45,   367.22  L   322.95,   367.22  " /><path style="stroke-width:0.85 ;&st7;  " d=" M   297.45,   324.73  L   322.95,   324.73  " /><path style="stroke-width:0.85 ;&st7;  " d=" M   297.45,   282.24  L   322.95,   282.24  " /><path style="stroke-width:0.85 ;&st7;  " d=" M   237.96,   622.18  L   254.96,   622.18  " /><path style="stroke-width:0.85 ;&st7;  " d=" M   237.96,   579.69  L   254.96,   579.69  " /><path style="stroke-width:0.85 ;&st7;  " d=" M   237.96,   537.20  L   254.96,   537.20  " /><path style="stroke-width:0.85 ;&st7;  " d=" M   237.96,   494.70  L   254.96,   494.70  " /><path style="stroke-width:0.85 ;&st7;  " d=" M   237.96,   452.21  L   254.96,   452.21  " /><path style="stroke-width:0.85 ;&st7;  " d=" M   237.96,   409.72  L   254.96,   409.72  " /><path style="stroke-width:0.85 ;&st7;  " d=" M   237.96,   367.22  L   254.96,   367.22  " /><path style="stroke-width:0.85 ;&st7;  " d=" M   297.45,   664.67  L   322.95,   664.67  " /><path style="stroke-width:0.85 ;&st7;  " d=" M   297.45,   622.18  L   318.70,   622.18  " /><path style="stroke-width:0.85 ;&st7;  " d=" M   297.45,   579.69  L   318.70,   579.69  " /><path style="stroke-width:0.85 ;&st7;  " d=" M   297.45,   537.20  L   318.70,   537.20  " /><path style="stroke-width:0.85 ;&st7;  " d=" M   237.96,   282.24  L   237.96,   664.67  L   254.96,   664.67  " /><path style="stroke-width:0.28 ;&st9;  " d=" M   230.11,   324.73  L   232.94,   321.90  L   228.69,   321.90  L   225.86,   324.73  L   228.69,   327.56  L   232.94,   327.56  L   230.11,   324.73  " /><path style="stroke-width:0.28 ;&st9;  " d=" M   230.11,   282.24  L   232.94,   279.41  L   228.69,   279.41  L   225.86,   282.24  L   228.69,   285.07  L   232.94,   285.07  L   230.11,   282.24  " /><path style="stroke-width:0.28 ;&st9;  " d=" M   313.80,   537.20  L   310.97,   534.36  L   315.22,   534.36  L   318.05,   537.20  L   315.22,   540.03  L   310.97,   540.03  L   313.80,   537.20  " /><path style="stroke-width:0.28 ;&st9;  " d=" M   313.80,   579.69  L   310.97,   576.86  L   315.22,   576.86  L   318.05,   579.69  L   315.22,   582.52  L   310.97,   582.52  L   313.80,   579.69  " /><path style="stroke-width:0.28 ;&st9;  " d=" M   313.80,   622.18  L   310.97,   619.35  L   315.22,   619.35  L   318.05,   622.18  L   315.22,   625.01  L   310.97,   625.01  L   313.80,   622.18  " /><path style="stroke-width:0.85 ;&st7;  " d=" M   225.21,   324.73  L   254.96,   324.73  " /><path style="stroke-width:0.85 ;&st7;  " d=" M   225.21,   282.24  L   254.96,   282.24  " /><text style="&st18;" transform="matrix(&st16;  253.93  476.84 )">15A TURN&amp;HAZ</text><text style="&st18;" transform="matrix(&st16;  323.27  539.16 )">4</text><text style="&st18;" transform="matrix(&st16;  323.27  581.66 )">4</text><text style="&st18;" transform="matrix(&st16;  323.27  624.15 )">4</text><text style="&st18;" transform="matrix(&st16;  256.84  264.38 )">15A EFI MAIN</text><text style="&st18;" transform="matrix(&st16;  300.03  278.55 )">2</text><text style="&st18;" transform="matrix(&st16;  248.77  278.55 )">1</text><text style="&st18;" transform="matrix(&st16;  255.29  306.87 )">15A EFI MAIN2</text><text style="&st18;" transform="matrix(&st16;  300.03  321.04 )">2</text><text style="&st18;" transform="matrix(&st16;  248.77  321.04 )">1</text><text style="&st18;" transform="matrix(&st16;  257.11  646.81 )">50A ABS MTR</text><text style="&st18;" transform="matrix(&st16;  300.03  660.98 )">2</text><text style="&st18;" transform="matrix(&st16;  248.77  660.98 )">1</text><text style="&st18;" transform="matrix(&st16;  260.83  604.32 )">50A MAIN1</text><text style="&st18;" transform="matrix(&st16;  300.03  618.49 )">2</text><text style="&st18;" transform="matrix(&st16;  248.77  618.49 )">1</text><text style="&st18;" transform="matrix(&st16;  261.57  561.83 )">50A HEAD</text><text style="&st18;" transform="matrix(&st16;  300.03  576.0 )">2</text><text style="&st18;" transform="matrix(&st16;  248.77  576.0 )">1</text><text style="&st18;" transform="matrix(&st16;  263.78  519.33 )">50A AM2</text><text style="&st18;" transform="matrix(&st16;  300.03  533.51 )">2</text><text style="&st18;" transform="matrix(&st16;  248.77  533.51 )">1</text><text style="&st18;" transform="matrix(&st16;  248.77  363.53 )">1</text><text style="&st18;" transform="matrix(&st16;  300.03  363.53 )">2</text><text style="&st18;" transform="matrix(&st16;  261.34  349.36 )">10A HORN</text><text style="&st18;" transform="matrix(&st16;  248.77  406.03 )">1</text><text style="&st18;" transform="matrix(&st16;  300.03  406.03 )">2</text><text style="&st18;" transform="matrix(&st16;  257.65  391.86 )">30A ABS SOL</text><text style="&st18;" transform="matrix(&st16;  248.77  448.52 )">1</text><text style="&st18;" transform="matrix(&st16;  300.03  448.52 )">2</text><text style="&st18;" transform="matrix(&st16;  260.02  434.35 )">7.5A ALT-S</text><path style="stroke-width:0.85 ;&st7;  " d=" M   263.46,   282.24  L   254.96,   282.24  " /><path style="stroke-width:0.85 ;&st7;   " d=" M   266.29,   282.24  C   266.29    281.46    265.65    280.82    264.87    280.82  " /><path style="stroke-width:0.85 ;&st7;   " d=" M   264.87,   280.82  C   264.09    280.82    263.46    281.46    263.46    282.24  " /><path style="stroke-width:0.85 ;&st7;   " d=" M   263.46,   282.24  C   263.46    283.02    264.09    283.65    264.87    283.65  " /><path style="stroke-width:0.85 ;&st7;   " d=" M   264.87,   283.65  C   265.65    283.65    266.29    283.02    266.29    282.24  " /><path style="stroke-width:0.85 ;&st7;   " d=" M   288.95,   282.24  C   288.95    281.46    288.32    280.82    287.54    280.82  " /><path style="stroke-width:0.85 ;&st7;   " d=" M   287.54,   280.82  C   286.75    280.82    286.12    281.46    286.12    282.24  " /><path style="stroke-width:0.85 ;&st7;   " d=" M   286.12,   282.24  C   286.12    283.02    286.75    283.65    287.54    283.65  " /><path style="stroke-width:0.85 ;&st7;   " d=" M   287.54,   283.65  C   288.32    283.65    288.95    283.02    288.95    282.24  " /><path style="stroke-width:1.42 ;&st7;   " d=" M   266.29,   282.24  C   267.90    284.98    271.43    285.89    274.17    284.27  " /><path style="stroke-width:1.42 ;&st7;   " d=" M   274.17,   284.27  C   275.05    283.76    275.68    283.12    276.20    282.24  " /><path style="stroke-width:1.42 ;&st7;   " d=" M   286.12,   282.24  C   284.51    279.50    280.98    278.59    278.24    280.20  " /><path style="stroke-width:1.42 ;&st7;   " d=" M   278.24,   280.20  C   277.36    280.72    276.72    281.36    276.20    282.24  " /><path style="stroke-width:1.42 ;&st7;  " d=" M   254.96,   269.49  L   254.96,   294.99  L   297.45,   294.99  L   297.45,   269.49  L   254.96,   269.49  " /><path style="stroke-width:0.85 ;&st7;  " d=" M   297.45,   282.24  L   288.95,   282.24  " /></g><g ewd:figtype="rb" ewd:figID="3" ewd:code="FUSE50"><path style="stroke-width:0.85 ;&st7;  " d=" M   263.46,   324.73  L   254.96,   324.73  " /><path style="stroke-width:0.85 ;&st7;   " d=" M   266.29,   324.73  C   266.29    323.95    265.65    323.31    264.87    323.31  " /><path style="stroke-width:0.85 ;&st7;   " d=" M   264.87,   323.31  C   264.09    323.31    263.46    323.95    263.46    324.73  " /><path style="stroke-width:0.85 ;&st7;   " d=" M   263.46,   324.73  C   263.46    325.51    264.09    326.15    264.87    326.15  " /><path style="stroke-width:0.85 ;&st7;   " d=" M   264.87,   326.15  C   265.65    326.15    266.29    325.51    266.29    324.73  " /><path style="stroke-width:0.85 ;&st7;   " d=" M   288.95,   324.73  C   288.95    323.95    288.32    323.31    287.54    323.31  " /><path style="stroke-width:0.85 ;&st7;   " d=" M   287.54,   323.31  C   286.75    323.31    286.12    323.95    286.12    324.73  " /><path style="stroke-width:0.85 ;&st7;   " d=" M   286.12,   324.73  C   286.12    325.51    286.75    326.15    287.54    326.15  " /><path style="stroke-width:0.85 ;&st7;   " d=" M   287.54,   326.15  C   288.32    326.15    288.95    325.51    288.95    324.73  " /><path style="stroke-width:1.42 ;&st7;   " d=" M   266.29,   324.73  C   267.90    327.47    271.43    328.38    274.17    326.77  " /><path style="stroke-width:1.42 ;&st7;   " d=" M   274.17,   326.77  C   275.05    326.25    275.68    325.61    276.20    324.73  " /><path style="stroke-width:1.42 ;&st7;   " d=" M   286.12,   324.73  C   284.51    321.99    280.98    321.08    278.24    322.69  " /><path style="stroke-width:1.42 ;&st7;   " d=" M   278.24,   322.69  C   277.36    323.21    276.72    323.85    276.20    324.73  " /><path style="stroke-width:1.42 ;&st7;  " d=" M   254.96,   311.98  L   254.96,   337.48  L   297.45,   337.48  L   297.45,   311.98  L   254.96,   311.98  " /><path style="stroke-width:0.85 ;&st7;  " d=" M   297.45,   324.73  L   288.95,   324.73  " /></g><g ewd:figtype="rb" ewd:figID="4" ewd:code="FUSE47"><path style="stroke-width:0.85 ;&st7;  " d=" M   263.46,   367.22  L   254.96,   367.22  " /><path style="stroke-width:1.42 ;&st7;   " d=" M   286.12,   367.22  C   284.51    364.49    280.98    363.57    278.24    365.19  " /><path style="stroke-width:1.42 ;&st7;   " d=" M   278.24,   365.19  C   277.36    365.71    276.72    366.34    276.20    367.22  " /><path style="stroke-width:1.42 ;&st7;   " d=" M   266.29,   367.22  C   267.90    369.96    271.43    370.87    274.17    369.26  " /><path style="stroke-width:1.42 ;&st7;   " d=" M   274.17,   369.26  C   275.05    368.74    275.68    368.11    276.20    367.22  " /><path style="stroke-width:0.85 ;&st7;   " d=" M   288.95,   367.22  C   288.95    366.44    288.32    365.81    287.54    365.81  " /><path style="stroke-width:0.85 ;&st7;   " d=" M   287.54,   365.81  C   286.75    365.81    286.12    366.44    286.12    367.22  " /><path style="stroke-width:0.85 ;&st7;   " d=" M   286.12,   367.22  C   286.12    368.01    286.75    368.64    287.54    368.64  " /><path style="stroke-width:0.85 ;&st7;   " d=" M   287.54,   368.64  C   288.32    368.64    288.95    368.01    288.95    367.22  " /><path style="stroke-width:0.85 ;&st7;   " d=" M   266.29,   367.22  C   266.29    366.44    265.65    365.81    264.87    365.81  " /><path style="stroke-width:0.85 ;&st7;   " d=" M   264.87,   365.81  C   264.09    365.81    263.46    366.44    263.46    367.22  " /><path style="stroke-width:0.85 ;&st7;   " d=" M   263.46,   367.22  C   263.46    368.01    264.09    368.64    264.87    368.64  " /><path style="stroke-width:0.85 ;&st7;   " d=" M   264.87,   368.64  C   265.65    368.64    266.29    368.01    266.29    367.22  " /><path style="stroke-width:0.85 ;&st7;  " d=" M   297.45,   367.22  L   288.95,   367.22  " /><path style="stroke-width:1.42 ;&st7;  " d=" M   254.96,   354.48  L   254.96,   379.97  L   297.45,   379.97  L   297.45,   354.48  L   254.96,   354.48  " /></g><g ewd:figtype="rb" ewd:figID="5" ewd:code="FUSE53"><path style="stroke-width:0.85 ;&st7;  " d=" M   263.46,   409.72  L   254.96,   409.72  " /><path style="stroke-width:1.42 ;&st7;   " d=" M   286.12,   409.72  C   284.51    406.98    280.98    406.07    278.24    407.68  " /><path style="stroke-width:1.42 ;&st7;   " d=" M   278.24,   407.68  C   277.36    408.20    276.72    408.83    276.20    409.72  " /><path style="stroke-width:1.42 ;&st7;   " d=" M   266.29,   409.72  C   267.90    412.45    271.43    413.37    274.17    411.75  " /><path style="stroke-width:1.42 ;&st7;   " d=" M   274.17,   411.75  C   275.05    411.23    275.68    410.60    276.20    409.72  " /><path style="stroke-width:0.85 ;&st7;   " d=" M   288.95,   409.72  C   288.95    408.93    288.32    408.30    287.54    408.30  " /><path style="stroke-width:0.85 ;&st7;   " d=" M   287.54,   408.30  C   286.75    408.30    286.12    408.93    286.12    409.72  " /><path style="stroke-width:0.85 ;&st7;   " d=" M   286.12,   409.72  C   286.12    410.50    286.75    411.13    287.54    411.13  " /><path style="stroke-width:0.85 ;&st7;   " d=" M   287.54,   411.13  C   288.32    411.13    288.95    410.50    288.95    409.72  " /><path style="stroke-width:0.85 ;&st7;   " d=" M   266.29,   409.72  C   266.29    408.93    265.65    408.30    264.87    408.30  " /><path style="stroke-width:0.85 ;&st7;   " d=" M   264.87,   408.30  C   264.09    408.30    263.46    408.93    263.46    409.72  " /><path style="stroke-width:0.85 ;&st7;   " d=" M   263.46,   409.72  C   263.46    410.50    264.09    411.13    264.87    411.13  " /><path style="stroke-width:0.85 ;&st7;   " d=" M   264.87,   411.13  C   265.65    411.13    266.29    410.50    266.29    409.72  " /><path style="stroke-width:0.85 ;&st7;  " d=" M   297.45,   409.72  L   288.95,   409.72  " /><path style="stroke-width:1.42 ;&st7;  " d=" M   254.96,   396.97  L   254.96,   422.46  L   297.45,   422.46  L   297.45,   396.97  L   254.96,   396.97  " /></g><g ewd:figtype="rb" ewd:figID="6" ewd:code="FUSE44"><path style="stroke-width:0.85 ;&st7;  " d=" M   263.46,   452.21  L   254.96,   452.21  " /><path style="stroke-width:1.42 ;&st7;   " d=" M   286.12,   452.21  C   284.51    449.47    280.98    448.56    278.24    450.17  " /><path style="stroke-width:1.42 ;&st7;   " d=" M   278.24,   450.17  C   277.36    450.69    276.72    451.33    276.20    452.21  " /><path style="stroke-width:1.42 ;&st7;   " d=" M   266.29,   452.21  C   267.90    454.95    271.43    455.86    274.17    454.25  " /><path style="stroke-width:1.42 ;&st7;   " d=" M   274.17,   454.25  C   275.05    453.73    275.68    453.09    276.20    452.21  " /><path style="stroke-width:0.85 ;&st7;   " d=" M   288.95,   452.21  C   288.95    451.43    288.32    450.79    287.54    450.79  " /><path style="stroke-width:0.85 ;&st7;   " d=" M   287.54,   450.79  C   286.75    450.79    286.12    451.43    286.12    452.21  " /><path style="stroke-width:0.85 ;&st7;   " d=" M   286.12,   452.21  C   286.12    452.99    286.75    453.63    287.54    453.63  " /><path style="stroke-width:0.85 ;&st7;   " d=" M   287.54,   453.63  C   288.32    453.63    288.95    452.99    288.95    452.21  " /><path style="stroke-width:0.85 ;&st7;   " d=" M   266.29,   452.21  C   266.29    451.43    265.65    450.79    264.87    450.79  " /><path style="stroke-width:0.85 ;&st7;   " d=" M   264.87,   450.79  C   264.09    450.79    263.46    451.43    263.46    452.21  " /><path style="stroke-width:0.85 ;&st7;   " d=" M   263.46,   452.21  C   263.46    452.99    264.09    453.63    264.87    453.63  " /><path style="stroke-width:0.85 ;&st7;   " d=" M   264.87,   453.63  C   265.65    453.63    266.29    452.99    266.29    452.21  " /><path style="stroke-width:0.85 ;&st7;  " d=" M   297.45,   452.21  L   288.95,   452.21  " /><path style="stroke-width:1.42 ;&st7;  " d=" M   254.96,   439.46  L   254.96,   464.96  L   297.45,   464.96  L   297.45,   439.46  L   254.96,   439.46  " /></g><g ewd:figtype="rb" ewd:figID="7" ewd:code="FUSE51"><path style="stroke-width:0.85 ;&st7;  " d=" M   263.46,   494.70  L   254.96,   494.70  " /><path style="stroke-width:1.42 ;&st7;   " d=" M   286.12,   494.70  C   284.51    491.96    280.98    491.05    278.24    492.67  " /><path style="stroke-width:1.42 ;&st7;   " d=" M   278.24,   492.67  C   277.36    493.19    276.72    493.82    276.20    494.70  " /><path style="stroke-width:1.42 ;&st7;   " d=" M   266.29,   494.70  C   267.90    497.44    271.43    498.35    274.17    496.74  " /><path style="stroke-width:1.42 ;&st7;   " d=" M   274.17,   496.74  C   275.05    496.22    275.68    495.58    276.20    494.70  " /><path style="stroke-width:0.85 ;&st7;   " d=" M   288.95,   494.70  C   288.95    493.92    288.32    493.29    287.54    493.29  " /><path style="stroke-width:0.85 ;&st7;   " d=" M   287.54,   493.29  C   286.75    493.29    286.12    493.92    286.12    494.70  " /><path style="stroke-width:0.85 ;&st7;   " d=" M   286.12,   494.70  C   286.12    495.48    286.75    496.12    287.54    496.12  " /><path style="stroke-width:0.85 ;&st7;   " d=" M   287.54,   496.12  C   288.32    496.12    288.95    495.48    288.95    494.70  " /><path style="stroke-width:0.85 ;&st7;   " d=" M   266.29,   494.70  C   266.29    493.92    265.65    493.29    264.87    493.29  " /><path style="stroke-width:0.85 ;&st7;   " d=" M   264.87,   493.29  C   264.09    493.29    263.46    493.92    263.46    494.70  " /><path style="stroke-width:0.85 ;&st7;   " d=" M   263.46,   494.70  C   263.46    495.48    264.09    496.12    264.87    496.12  " /><path style="stroke-width:0.85 ;&st7;   " d=" M   264.87,   496.12  C   265.65    496.12    266.29    495.48    266.29    494.70  " /><path style="stroke-width:0.85 ;&st7;  " d=" M   297.45,   494.70  L   288.95,   494.70  " /><path style="stroke-width:1.42 ;&st7;  " d=" M   254.96,   481.95  L   254.96,   507.45  L   297.45,   507.45  L   297.45,   481.95  L   254.96,   481.95  " /></g><g ewd:figtype="conn" ewd:figID="8" ewd:code="A37,E3"><path style="stroke-width:0.85 ;&st7;  " d=" M    50.99,   435.21  L    50.99,   438.05  " /><path style="stroke-width:0.85 ;&st7;  " d=" M    50.99,   429.55  L    50.99,   432.38  " /><path style="stroke-width:0.85 ;&st7;  " d=" M    50.99,   423.88  L    50.99,   426.71  " /><path style="stroke-width:0.85 ;&st7;  " d=" M    50.99,   418.22  L    50.99,   401.22  " /><path style="stroke-width:1.42 ;&st7;  " d=" M    33.99,   401.22  L    67.99,   401.22  L    67.99,   460.71  L    33.99,   460.71  L    33.99,   401.22  " /><path style="stroke-width:1.42 ;&st7;  " d=" M    55.24,   443.71  L    55.24,   442.29  L    46.74,   442.29  L    46.74,   443.71  L    55.24,   443.71  " /><path style="stroke-width:1.42 ;&st7;  " d=" M    55.24,   423.88  L    46.74,   423.88  L    46.74,   422.46  L    55.24,   422.46  L    55.24,   423.88  " /><path style="stroke-width:0.85 ;&st7;  " d=" M    50.99,   443.71  L    50.99,   460.71  " /><path style="stroke-width:0.85 ;&st7;  " d=" M    42.49,   438.05  L    59.49,   438.05  " /><path style="stroke-width:0.85 ;&st7;  " d=" M    42.49,   418.22  L    59.49,   418.22  " /><text style="&st18;" transform="matrix(&st16;  42.3  467.21 )">1</text><path style="stroke-width:1.42 ;&st7;   " d=" M    55.52,   465.24  C    55.52    462.74     53.49    460.71     50.99    460.71  " /><path style="stroke-width:1.42 ;&st7;   " d=" M    50.99,   460.71  C    48.49    460.71     46.46    462.74     46.46    465.24  " /><path style="stroke-width:1.42 ;&st7;   " d=" M    46.46,   465.24  C    46.46    467.74     48.49    469.77     50.99    469.77  " /><path style="stroke-width:1.42 ;&st7;   " d=" M    50.99,   469.77  C    53.49    469.77     55.52    467.74     55.52    465.24  " /><text style="&st18;" transform="matrix(&st16;  48.8  467.21 )">B</text><path style="stroke-width:1.42 ;&st7;   " d=" M    55.52,   396.69  C    55.52    394.18     53.49    392.15     50.99    392.15  " /><path style="stroke-width:1.42 ;&st7;   " d=" M    50.99,   392.15  C    48.49    392.15     46.46    394.18     46.46    396.69  " /><path style="stroke-width:1.42 ;&st7;   " d=" M    46.46,   396.69  C    46.46    399.19     48.49    401.22     50.99    401.22  " /><path style="stroke-width:1.42 ;&st7;   " d=" M    50.99,   401.22  C    53.49    401.22     55.52    399.19     55.52    396.69  " /><text style="&st18;" transform="matrix(&st16;  42.3  398.65 )">1</text><text style="&st18;" transform="matrix(&st16;  48.69  398.65 )">A</text><g ewd:figtype="title"><text style="&st18;" transform="matrix(&st17;  75.88  463.61 )">A37(A),E3(B)</text><text style="&st18;" transform="matrix(&st17;  82.71  463.61 )" ewd:textID="8">Battery (Sub)</text></g></g><g ewd:figtype="conn" ewd:figID="9" ewd:code="E2,F2"><path style="stroke-width:0.85 ;&st7;  " d=" M    50.99,   562.69  L    50.99,   565.52  " /><path style="stroke-width:0.85 ;&st7;  " d=" M    50.99,   557.03  L    50.99,   559.86  " /><path style="stroke-width:0.85 ;&st7;  " d=" M    50.99,   551.36  L    50.99,   554.19  " /><path style="stroke-width:0.85 ;&st7;  " d=" M    50.99,   545.69  L    50.99,   528.70  " /><path style="stroke-width:0.85 ;&st7;  " d=" M    42.49,   565.52  L    59.49,   565.52  " /><path style="stroke-width:0.85 ;&st7;  " d=" M    42.49,   545.69  L    59.49,   545.69  " /><path style="stroke-width:1.42 ;&st7;  " d=" M    33.99,   528.70  L    67.99,   528.70  L    67.99,   588.19  L    33.99,   588.19  L    33.99,   528.70  " /><path style="stroke-width:1.42 ;&st7;  " d=" M    55.24,   571.19  L    55.24,   569.77  L    46.74,   569.77  L    46.74,   571.19  L    55.24,   571.19  " /><path style="stroke-width:1.42 ;&st7;  " d=" M    55.24,   551.36  L    46.74,   551.36  L    46.74,   549.94  L    55.24,   549.94  L    55.24,   551.36  " /><path style="stroke-width:0.85 ;&st7;  " d=" M    50.99,   571.19  L    50.99,   588.19  " /><text style="&st18;" transform="matrix(&st16;  42.3  594.69 )">1</text><text style="&st18;" transform="matrix(&st16;  48.8  594.69 )">B</text><path style="stroke-width:1.42 ;&st7;   " d=" M    55.52,   592.72  C    55.52    590.22     53.49    588.19     50.99    588.19  " /><path style="stroke-width:1.42 ;&st7;   " d=" M    50.99,   588.19  C    48.49    588.19     46.46    590.22     46.46    592.72  " /><path style="stroke-width:1.42 ;&st7;   " d=" M    46.46,   592.72  C    46.46    595.22     48.49    597.25     50.99    597.25  " /><path style="stroke-width:1.42 ;&st7;   " d=" M    50.99,   597.25  C    53.49    597.25     55.52    595.22     55.52    592.72  " /><text style="&st18;" transform="matrix(&st16;  42.3  526.13 )">1</text><text style="&st18;" transform="matrix(&st16;  48.69  526.13 )">A</text><path style="stroke-width:1.42 ;&st7;   " d=" M    55.52,   524.16  C    55.52    521.66     53.49    519.63     50.99    519.63  " /><path style="stroke-width:1.42 ;&st7;   " d=" M    50.99,   519.63  C    48.49    519.63     46.46    521.66     46.46    524.16  " /><path style="stroke-width:1.42 ;&st7;   " d=" M    46.46,   524.16  C    46.46    526.67     48.49    528.70     50.99    528.70  " /><path style="stroke-width:1.42 ;&st7;   " d=" M    50.99,   528.70  C    53.49    528.70     55.52    526.67     55.52    524.16  " /><g ewd:figtype="title"><text style="&st18;" transform="matrix(&st17;  82.71  591.09 )" ewd:textID="8">Battery (Sub)</text><text style="&st18;" transform="matrix(&st17;  75.88  591.09 )">E2(A),F2(B)</text></g></g><g ewd:figtype="conn" ewd:figID="11" ewd:code="A35,A36,D9,E1,E4,F1"><path style="stroke-width:0.85 ;&st7;  " d=" M   152.97,   562.69  L   152.97,   565.52  " /><path style="stroke-width:0.85 ;&st7;  " d=" M   152.97,   557.03  L   152.97,   559.86  " /><path style="stroke-width:0.85 ;&st7;  " d=" M   152.97,   551.36  L   152.97,   554.19  " /><path style="stroke-width:0.85 ;&st7;  " d=" M   152.97,   571.19  L   152.97,   588.19  " /><path style="stroke-width:0.85 ;&st7;  " d=" M   152.97,   545.69  L   152.97,   528.70  " /><path style="stroke-width:0.85 ;&st7;  " d=" M   144.48,   565.52  L   161.47,   565.52  " /><path style="stroke-width:0.85 ;&st7;  " d=" M   144.48,   545.69  L   161.47,   545.69  " /><path style="stroke-width:0.85 ;&st7;  " d=" M   126.29,   536.19  L   126.01,   536.66  L   125.92,   537.20  L   126.01,   537.73  L   126.29,   538.20  L   126.70,   538.54  L   127.21,   538.73  L   127.75,   538.73  L   128.26,   538.54  L   128.67,   538.20  L   128.94,   537.73  L   129.04,   537.20  L   128.94,   536.66  L   128.67,   536.19  L   128.26,   535.85  L   127.75,   535.66  L   127.21,   535.66  L   126.70,   535.85  L   126.29,   536.19  L   126.68,   536.90  L   126.68,   537.49  L   127.05,   537.93  L   127.63,   538.03  L   128.13,   537.74  L   128.33,   537.20  L   128.13,   536.65  L   127.63,   536.36  L   127.05,   536.46  L   127.48,   537.20  " /><path style="stroke-width:0.85 ;&st7;  " d=" M   127.48,   528.70  L   127.48,   537.20  " /><path style="stroke-width:0.85 ;&st7;  " d=" M   151.78,   578.69  L   151.51,   579.16  L   151.42,   579.69  L   151.51,   580.22  L   151.78,   580.69  L   152.20,   581.04  L   152.70,   581.22  L   153.25,   581.22  L   153.75,   581.04  L   154.17,   580.69  L   154.44,   580.22  L   154.53,   579.69  L   154.44,   579.16  L   154.17,   578.69  L   153.75,   578.34  L   153.25,   578.15  L   152.70,   578.15  L   152.20,   578.34  L   151.78,   578.69  L   152.18,   579.40  L   152.18,   579.98  L   152.55,   580.43  L   153.12,   580.52  L   153.63,   580.24  L   153.82,   579.69  L   153.63,   579.14  L   153.12,   578.85  L   152.55,   578.95  L   152.97,   579.69  " /><path style="stroke-width:0.85 ;&st7;  " d=" M   151.78,   536.19  L   151.51,   536.66  L   151.42,   537.20  L   151.51,   537.73  L   151.78,   538.20  L   152.20,   538.54  L   152.70,   538.73  L   153.25,   538.73  L   153.75,   538.54  L   154.17,   538.20  L   154.44,   537.73  L   154.53,   537.20  L   154.44,   536.66  L   154.17,   536.19  L   153.75,   535.85  L   153.25,   535.66  L   152.70,   535.66  L   152.20,   535.85  L   151.78,   536.19  L   152.18,   536.90  L   152.18,   537.49  L   152.55,   537.93  L   153.12,   538.03  L   153.63,   537.74  L   153.82,   537.20  L   153.63,   536.65  L   153.12,   536.36  L   152.55,   536.46  L   152.97,   537.20  " /><path style="stroke-width:0.85 ;&st7;  " d=" M   101.98,   588.19  L   101.98,   579.69  L   186.97,   579.69  L   186.97,   588.19  " /><path style="stroke-width:0.85 ;&st7;  " d=" M   152.97,   537.20  L   101.98,   537.20  L   101.98,   528.70  " /><path style="stroke-width:1.42 ;&st7;  " d=" M    93.48,   528.70  L   203.97,   528.70  L   203.97,   588.19  L    93.48,   588.19  L    93.48,   528.70  " /><path style="stroke-width:1.42 ;&st7;  " d=" M   157.22,   571.19  L   157.22,   569.77  L   148.73,   569.77  L   148.73,   571.19  L   157.22,   571.19  " /><path style="stroke-width:1.42 ;&st7;  " d=" M   157.22,   551.36  L   148.73,   551.36  L   148.73,   549.94  L   157.22,   549.94  L   157.22,   551.36  " /><text style="&st18;" transform="matrix(&st16;  118.78  526.13 )">1</text><path style="stroke-width:1.42 ;&st7;   " d=" M   132.01,   524.16  C   132.01    521.66    129.98    519.63    127.48    519.63  " /><path style="stroke-width:1.42 ;&st7;   " d=" M   127.48,   519.63  C   124.98    519.63    122.95    521.66    122.95    524.16  " /><path style="stroke-width:1.42 ;&st7;   " d=" M   122.95,   524.16  C   122.95    526.67    124.98    528.70    127.48    528.70  " /><path style="stroke-width:1.42 ;&st7;   " d=" M   127.48,   528.70  C   129.98    528.70    132.01    526.67    132.01    524.16  " /><text style="&st18;" transform="matrix(&st16;  125.37  526.13 )">F</text><text style="&st18;" transform="matrix(&st16;  93.29  594.69 )">1</text><path style="stroke-width:1.42 ;&st7;   " d=" M   106.52,   592.72  C   106.52    590.22    104.49    588.19    101.98    588.19  " /><path style="stroke-width:1.42 ;&st7;   " d=" M   101.98,   588.19  C    99.48    588.19     97.45    590.22     97.45    592.72  " /><path style="stroke-width:1.42 ;&st7;   " d=" M    97.45,   592.72  C    97.45    595.22     99.48    597.25    101.98    597.25  " /><path style="stroke-width:1.42 ;&st7;   " d=" M   101.98,   597.25  C   104.49    597.25    106.52    595.22    106.52    592.72  " /><text style="&st18;" transform="matrix(&st16;  99.6  594.69 )">D</text><text style="&st18;" transform="matrix(&st16;  93.29  526.13 )">1</text><path style="stroke-width:1.42 ;&st7;   " d=" M   106.52,   524.16  C   106.52    521.66    104.49    519.63    101.98    519.63  " /><path style="stroke-width:1.42 ;&st7;   " d=" M   101.98,   519.63  C    99.48    519.63     97.45    521.66     97.45    524.16  " /><path style="stroke-width:1.42 ;&st7;   " d=" M    97.45,   524.16  C    97.45    526.67     99.48    528.70    101.98    528.70  " /><path style="stroke-width:1.42 ;&st7;   " d=" M   101.98,   528.70  C   104.49    528.70    106.52    526.67    106.52    524.16  " /><text style="&st18;" transform="matrix(&st16;  99.87  526.13 )">E</text><text style="&st18;" transform="matrix(&st16;  144.28  594.69 )">1</text><text style="&st18;" transform="matrix(&st16;  150.79  594.69 )">B</text><path style="stroke-width:1.42 ;&st7;   " d=" M   157.51,   592.72  C   157.51    590.22    155.48    588.19    152.97    588.19  " /><path style="stroke-width:1.42 ;&st7;   " d=" M   152.97,   588.19  C   150.47    588.19    148.44    590.22    148.44    592.72  " /><path style="stroke-width:1.42 ;&st7;   " d=" M   148.44,   592.72  C   148.44    595.22    150.47    597.25    152.97    597.25  " /><path style="stroke-width:1.42 ;&st7;   " d=" M   152.97,   597.25  C   155.48    597.25    157.51    595.22    157.51    592.72  " /><text style="&st18;" transform="matrix(&st16;  178.27  594.69 )">1</text><text style="&st18;" transform="matrix(&st16;  184.51  594.69 )">G</text><path style="stroke-width:1.42 ;&st7;   " d=" M   191.50,   592.72  C   191.50    590.22    189.47    588.19    186.97    588.19  " /><path style="stroke-width:1.42 ;&st7;   " d=" M   186.97,   588.19  C   184.47    588.19    182.44    590.22    182.44    592.72  " /><path style="stroke-width:1.42 ;&st7;   " d=" M   182.44,   592.72  C   182.44    595.22    184.47    597.25    186.97    597.25  " /><path style="stroke-width:1.42 ;&st7;   " d=" M   186.97,   597.25  C   189.47    597.25    191.50    595.22    191.50    592.72  " /><text style="&st18;" transform="matrix(&st16;  144.28  526.13 )">1</text><path style="stroke-width:1.42 ;&st7;   " d=" M   157.51,   524.16  C   157.51    521.66    155.48    519.63    152.97    519.63  " /><path style="stroke-width:1.42 ;&st7;   " d=" M   152.97,   519.63  C   150.47    519.63    148.44    521.66    148.44    524.16  " /><path style="stroke-width:1.42 ;&st7;   " d=" M   148.44,   524.16  C   148.44    526.67    150.47    528.70    152.97    528.70  " /><path style="stroke-width:1.42 ;&st7;   " d=" M   152.97,   528.70  C   155.48    528.70    157.51    526.67    157.51    524.16  " /><text style="&st18;" transform="matrix(&st16;  150.67  526.13 )">A</text><g ewd:figtype="title"><text style="&st18;" transform="matrix(&st17;  211.31  591.09 )">A35(A),A36(B),D9(D), <tspan x="0 " dy="6.0">E1(E),E4(F),F1(G)</tspan></text><text style="&st18;" transform="matrix(&st17;  224.35  591.09 )" ewd:textID="7">Battery (Main)</text></g></g><g ewd:figtype="rb" ewd:figID="13" ewd:code="FUSE55"><path style="stroke-width:0.85 ;&st7;  " d=" M   263.46,   537.20  L   254.96,   537.20  " /><path style="stroke-width:1.42 ;&st7;   " d=" M   286.12,   537.20  C   284.51    534.46    280.98    533.55    278.24    535.16  " /><path style="stroke-width:1.42 ;&st7;   " d=" M   278.24,   535.16  C   277.36    535.68    276.72    536.31    276.20    537.20  " /><path style="stroke-width:1.42 ;&st7;   " d=" M   266.29,   537.20  C   267.90    539.93    271.43    540.85    274.17    539.23  " /><path style="stroke-width:1.42 ;&st7;   " d=" M   274.17,   539.23  C   275.05    538.71    275.68    538.08    276.20    537.20  " /><path style="stroke-width:1.42 ;&st7;  " d=" M   254.96,   524.45  L   254.96,   549.94  L   297.45,   549.94  L   297.45,   524.45  L   254.96,   524.45  " /><path style="stroke-width:0.85 ;&st7;  " d=" M   297.45,   537.20  L   288.95,   537.20  " /><path style="stroke-width:0.85 ;&st7;   " d=" M   288.95,   537.20  C   288.95    536.41    288.32    535.78    287.54    535.78  " /><path style="stroke-width:0.85 ;&st7;   " d=" M   287.54,   535.78  C   286.75    535.78    286.12    536.41    286.12    537.20  " /><path style="stroke-width:0.85 ;&st7;   " d=" M   286.12,   537.20  C   286.12    537.98    286.75    538.61    287.54    538.61  " /><path style="stroke-width:0.85 ;&st7;   " d=" M   287.54,   538.61  C   288.32    538.61    288.95    537.98    288.95    537.20  " /><path style="stroke-width:0.85 ;&st7;   " d=" M   266.29,   537.20  C   266.29    536.41    265.65    535.78    264.87    535.78  " /><path style="stroke-width:0.85 ;&st7;   " d=" M   264.87,   535.78  C   264.09    535.78    263.46    536.41    263.46    537.20  " /><path style="stroke-width:0.85 ;&st7;   " d=" M   263.46,   537.20  C   263.46    537.98    264.09    538.61    264.87    538.61  " /><path style="stroke-width:0.85 ;&st7;   " d=" M   264.87,   538.61  C   265.65    538.61    266.29    537.98    266.29    537.20  " /></g><g ewd:figtype="rb" ewd:figID="15" ewd:code="FUSE56"><path style="stroke-width:0.85 ;&st7;  " d=" M   263.46,   579.69  L   254.96,   579.69  " /><path style="stroke-width:0.85 ;&st7;   " d=" M   266.29,   579.69  C   266.29    578.91    265.65    578.27    264.87    578.27  " /><path style="stroke-width:0.85 ;&st7;   " d=" M   264.87,   578.27  C   264.09    578.27    263.46    578.91    263.46    579.69  " /><path style="stroke-width:0.85 ;&st7;   " d=" M   263.46,   579.69  C   263.46    580.47    264.09    581.10    264.87    581.10  " /><path style="stroke-width:0.85 ;&st7;   " d=" M   264.87,   581.10  C   265.65    581.10    266.29    580.47    266.29    579.69  " /><path style="stroke-width:0.85 ;&st7;   " d=" M   288.95,   579.69  C   288.95    578.91    288.32    578.27    287.54    578.27  " /><path style="stroke-width:0.85 ;&st7;   " d=" M   287.54,   578.27  C   286.75    578.27    286.12    578.91    286.12    579.69  " /><path style="stroke-width:0.85 ;&st7;   " d=" M   286.12,   579.69  C   286.12    580.47    286.75    581.10    287.54    581.10  " /><path style="stroke-width:0.85 ;&st7;   " d=" M   287.54,   581.10  C   288.32    581.10    288.95    580.47    288.95    579.69  " /><path style="stroke-width:1.42 ;&st7;   " d=" M   266.29,   579.69  C   267.90    582.43    271.43    583.34    274.17    581.73  " /><path style="stroke-width:1.42 ;&st7;   " d=" M   274.17,   581.73  C   275.05    581.21    275.68    580.57    276.20    579.69  " /><path style="stroke-width:1.42 ;&st7;   " d=" M   286.12,   579.69  C   284.51    576.95    280.98    576.04    278.24    577.65  " /><path style="stroke-width:1.42 ;&st7;   " d=" M   278.24,   577.65  C   277.36    578.17    276.72    578.81    276.20    579.69  " /><path style="stroke-width:1.42 ;&st7;  " d=" M   254.96,   566.94  L   254.96,   592.44  L   297.45,   592.44  L   297.45,   566.94  L   254.96,   566.94  " /><path style="stroke-width:0.85 ;&st7;  " d=" M   297.45,   579.69  L   288.95,   579.69  " /></g><g ewd:figtype="rb" ewd:figID="17" ewd:code="FUSE57"><path style="stroke-width:0.85 ;&st7;  " d=" M   263.46,   622.18  L   254.96,   622.18  " /><path style="stroke-width:0.85 ;&st7;   " d=" M   266.29,   622.18  C   266.29    621.40    265.65    620.76    264.87    620.76  " /><path style="stroke-width:0.85 ;&st7;   " d=" M   264.87,   620.76  C   264.09    620.76    263.46    621.40    263.46    622.18  " /><path style="stroke-width:0.85 ;&st7;   " d=" M   263.46,   622.18  C   263.46    622.96    264.09    623.60    264.87    623.60  " /><path style="stroke-width:0.85 ;&st7;   " d=" M   264.87,   623.60  C   265.65    623.60    266.29    622.96    266.29    622.18  " /><path style="stroke-width:0.85 ;&st7;   " d=" M   288.95,   622.18  C   288.95    621.40    288.32    620.76    287.54    620.76  " /><path style="stroke-width:0.85 ;&st7;   " d=" M   287.54,   620.76  C   286.75    620.76    286.12    621.40    286.12    622.18  " /><path style="stroke-width:0.85 ;&st7;   " d=" M   286.12,   622.18  C   286.12    622.96    286.75    623.60    287.54    623.60  " /><path style="stroke-width:0.85 ;&st7;   " d=" M   287.54,   623.60  C   288.32    623.60    288.95    622.96    288.95    622.18  " /><path style="stroke-width:1.42 ;&st7;   " d=" M   266.29,   622.18  C   267.90    624.92    271.43    625.83    274.17    624.22  " /><path style="stroke-width:1.42 ;&st7;   " d=" M   274.17,   624.22  C   275.05    623.70    275.68    623.06    276.20    622.18  " /><path style="stroke-width:1.42 ;&st7;   " d=" M   286.12,   622.18  C   284.51    619.44    280.98    618.53    278.24    620.14  " /><path style="stroke-width:1.42 ;&st7;   " d=" M   278.24,   620.14  C   277.36    620.66    276.72    621.30    276.20    622.18  " /><path style="stroke-width:1.42 ;&st7;  " d=" M   254.96,   609.43  L   254.96,   634.93  L   297.45,   634.93  L   297.45,   609.43  L   254.96,   609.43  " /><path style="stroke-width:0.85 ;&st7;  " d=" M   297.45,   622.18  L   288.95,   622.18  " /></g><g ewd:figtype="rb" ewd:figID="19" ewd:code="FUSE54"><path style="stroke-width:0.85 ;&st7;  " d=" M   263.46,   664.67  L   254.96,   664.67  " /><path style="stroke-width:0.85 ;&st7;   " d=" M   266.29,   664.67  C   266.29    663.89    265.65    663.26    264.87    663.26  " /><path style="stroke-width:0.85 ;&st7;   " d=" M   264.87,   663.26  C   264.09    663.26    263.46    663.89    263.46    664.67  " /><path style="stroke-width:0.85 ;&st7;   " d=" M   263.46,   664.67  C   263.46    665.46    264.09    666.09    264.87    666.09  " /><path style="stroke-width:0.85 ;&st7;   " d=" M   264.87,   666.09  C   265.65    666.09    266.29    665.46    266.29    664.67  " /><path style="stroke-width:0.85 ;&st7;   " d=" M   288.95,   664.67  C   288.95    663.89    288.32    663.26    287.54    663.26  " /><path style="stroke-width:0.85 ;&st7;   " d=" M   287.54,   663.26  C   286.75    663.26    286.12    663.89    286.12    664.67  " /><path style="stroke-width:0.85 ;&st7;   " d=" M   286.12,   664.67  C   286.12    665.46    286.75    666.09    287.54    666.09  " /><path style="stroke-width:0.85 ;&st7;   " d=" M   287.54,   666.09  C   288.32    666.09    288.95    665.46    288.95    664.67  " /><path style="stroke-width:1.42 ;&st7;   " d=" M   266.29,   664.67  C   267.90    667.41    271.43    668.32    274.17    666.71  " /><path style="stroke-width:1.42 ;&st7;   " d=" M   274.17,   666.71  C   275.05    666.19    275.68    665.56    276.20    664.67  " /><path style="stroke-width:1.42 ;&st7;   " d=" M   286.12,   664.67  C   284.51    661.94    280.98    661.02    278.24    662.64  " /><path style="stroke-width:1.42 ;&st7;   " d=" M   278.24,   662.64  C   277.36    663.16    276.72    663.79    276.20    664.67  " /><path style="stroke-width:1.42 ;&st7;  " d=" M   254.96,   651.93  L   254.96,   677.42  L   297.45,   677.42  L   297.45,   651.93  L   254.96,   651.93  " /><path style="stroke-width:0.85 ;&st7;  " d=" M   297.45,   664.67  L   288.95,   664.67  " /></g><g ewd:figtype="jb" ewd:figID="75" ewd:code="4"><path style="stroke-width:1.42 ;&st7;  " d=" M   220.96,   286.49  L   216.71,   286.49  " /><path style="stroke-width:1.42 ;&st7;  " d=" M   216.71,   277.99  L   220.96,   277.99  " /><path style="stroke-width:1.42 ;&st7;   " d=" M   225.21,   282.24  C   225.21    279.89    223.31    277.99    220.96    277.99  " /><path style="stroke-width:1.42 ;&st7;   " d=" M   220.96,   286.49  C   223.31    286.49    225.21    284.58    225.21    282.24  " /><path style="stroke-width:1.42 ;&st7;   " d=" M   212.46,   282.24  C   212.46    284.58    214.37    286.49    216.71    286.49  " /><path style="stroke-width:1.42 ;&st7;   " d=" M   216.71,   277.99  C   214.37    277.99    212.46    279.89    212.46    282.24  " /><text style="&st18;" transform="matrix(&st16;  217.04  275.0 )">1</text><text style="&st18;" transform="matrix(&st16;  214.98  284.21 )">4A</text></g><g ewd:figtype="jb" ewd:figID="76" ewd:code="4"><path style="stroke-width:1.42 ;&st7;  " d=" M   220.96,   328.98  L   216.71,   328.98  " /><path style="stroke-width:1.42 ;&st7;  " d=" M   216.71,   320.48  L   220.96,   320.48  " /><path style="stroke-width:1.42 ;&st7;   " d=" M   225.21,   324.73  C   225.21    322.38    223.31    320.48    220.96    320.48  " /><path style="stroke-width:1.42 ;&st7;   " d=" M   220.96,   328.98  C   223.31    328.98    225.21    327.08    225.21    324.73  " /><path style="stroke-width:1.42 ;&st7;   " d=" M   212.46,   324.73  C   212.46    327.08    214.37    328.98    216.71    328.98  " /><path style="stroke-width:1.42 ;&st7;   " d=" M   216.71,   320.48  C   214.37    320.48    212.46    322.38    212.46    324.73  " /><text style="&st18;" transform="matrix(&st16;  217.04  317.49 )">1</text><text style="&st18;" transform="matrix(&st16;  215.1  326.7 )">4B</text></g><g ewd:code="3" ewd:figID="77" ewd:comment="2,1" ewd:figtype="jb"><text style="&st18;" transform="matrix(&st16;  255.95  69.19 )">50A AM1 NO.2</text><text style="&st18;" transform="matrix(&st16;  263.82  154.18 )">50A HTR</text><path style="stroke-width:1.42 ;&st7;  " d=" M   335.69,   218.50  L   331.44,   218.50  " /><path style="stroke-width:1.42 ;&st7;  " d=" M   335.69,   210.00  L   331.44,   210.00  " /><path style="stroke-width:1.42 ;&st7;  " d=" M   335.69,   176.01  L   331.44,   176.01  " /><path style="stroke-width:1.42 ;&st7;  " d=" M   335.69,   167.51  L   331.44,   167.51  " /><path style="stroke-width:1.42 ;&st7;  " d=" M    97.73,   125.01  L   101.98,   125.01  " /><path style="stroke-width:1.42 ;&st7;  " d=" M   101.98,   133.51  L    97.73,   133.51  " /><path style="stroke-width:1.42 ;&st7;  " d=" M   335.69,   133.51  L   331.44,   133.51  " /><path style="stroke-width:1.42 ;&st7;  " d=" M   335.69,   125.01  L   331.44,   125.01  " /><path style="stroke-width:1.42 ;&st7;  " d=" M   335.69,    40.03  L   331.44,    40.03  " /><path style="stroke-width:1.42 ;&st7;  " d=" M   335.69,    48.53  L   331.44,    48.53  " /><path style="stroke-width:1.42 ;&st7;  " d=" M   335.69,    82.52  L   331.44,    82.52  " /><path style="stroke-width:1.42 ;&st7;  " d=" M   335.69,    91.02  L   331.44,    91.02  " /><path style="stroke-width:0.85 ;&st7;  " d=" M   178.47,   214.25  L   186.97,   214.25  " /><path style="stroke-width:0.85 ;&st7;  " d=" M   288.95,   129.26  L   297.45,   129.26  " /><path style="stroke-width:0.85 ;&st7;  " d=" M   178.47,   171.76  L   186.97,   171.76  " /><path style="stroke-width:0.85 ;&st7;  " d=" M   288.95,    44.28  L   297.45,    44.28  " /><path style="stroke-width:0.85 ;&st7;  " d=" M   288.95,    86.77  L   297.45,    86.77  " /><path style="stroke-width:0.85 ;&st7;  " d=" M   288.95,   171.76  L   297.45,   171.76  " /><path style="stroke-width:0.85 ;&st7;  " d=" M   178.47,   129.26  L   186.97,   129.26  " /><path style="stroke-width:0.85 ;&st7;  " d=" M   288.95,   214.25  L   297.45,   214.25  " /><path style="stroke-width:1.42 ;&st7;   " d=" M   155.81,   214.25  C   157.42    216.99    160.95    217.90    163.69    216.29  " /><path style="stroke-width:1.42 ;&st7;   " d=" M   163.69,   216.29  C   164.57    215.77    165.20    215.13    165.72    214.25  " /><path style="stroke-width:1.42 ;&st7;   " d=" M   175.64,   129.26  C   174.02    126.53    170.50    125.61    167.76    127.23  " /><path style="stroke-width:1.42 ;&st7;   " d=" M   167.76,   127.23  C   166.88    127.75    166.24    128.38    165.72    129.26  " /><path style="stroke-width:1.42 ;&st7;   " d=" M   155.81,   129.26  C   157.42    132.00    160.95    132.91    163.69    131.30  " /><path style="stroke-width:1.42 ;&st7;   " d=" M   163.69,   131.30  C   164.57    130.78    165.20    130.15    165.72    129.26  " /><path style="stroke-width:1.42 ;&st7;   " d=" M   339.94,   214.25  C   339.94    211.90    338.04    210.00    335.69    210.00  " /><path style="stroke-width:1.42 ;&st7;   " d=" M   335.69,   218.50  C   338.04    218.50    339.94    216.60    339.94    214.25  " /><path style="stroke-width:1.42 ;&st7;   " d=" M   327.20,   214.25  C   327.20    216.60    329.10    218.50    331.44    218.50  " /><path style="stroke-width:1.42 ;&st7;   " d=" M   331.44,   210.00  C   329.10    210.00    327.20    211.90    327.20    214.25  " /><path style="stroke-width:1.42 ;&st7;   " d=" M   339.94,   171.76  C   339.94    169.41    338.04    167.51    335.69    167.51  " /><path style="stroke-width:1.42 ;&st7;   " d=" M   335.69,   176.01  C   338.04    176.01    339.94    174.10    339.94    171.76  " /><path style="stroke-width:1.42 ;&st7;   " d=" M   327.20,   171.76  C   327.20    174.10    329.10    176.01    331.44    176.01  " /><path style="stroke-width:1.42 ;&st7;   " d=" M   331.44,   167.51  C   329.10    167.51    327.20    169.41    327.20    171.76  " /><path style="stroke-width:1.42 ;&st7;   " d=" M    97.73,   125.01  C    95.39    125.01     93.48    126.92     93.48    129.26  " /><path style="stroke-width:1.42 ;&st7;   " d=" M   339.94,   129.26  C   339.94    126.92    338.04    125.01    335.69    125.01  " /><path style="stroke-width:1.42 ;&st7;   " d=" M   335.69,   133.51  C   338.04    133.51    339.94    131.61    339.94    129.26  " /><path style="stroke-width:1.42 ;&st7;   " d=" M   327.20,   129.26  C   327.20    131.61    329.10    133.51    331.44    133.51  " /><path style="stroke-width:1.42 ;&st7;   " d=" M   331.44,   125.01  C   329.10    125.01    327.20    126.92    327.20    129.26  " /><path style="stroke-width:1.42 ;&st7;   " d=" M    93.48,   129.26  C    93.48    131.61     95.39    133.51     97.73    133.51  " /><path style="stroke-width:1.42 ;&st7;   " d=" M   101.98,   133.51  C   104.33    133.51    106.23    131.61    106.23    129.26  " /><path style="stroke-width:1.42 ;&st7;   " d=" M   106.23,   129.26  C   106.23    126.92    104.33    125.01    101.98    125.01  " /><path style="stroke-width:1.42 ;&st7;   " d=" M   331.44,    40.03  C   329.10     40.03    327.20     41.93    327.20     44.28  " /><path style="stroke-width:1.42 ;&st7;   " d=" M   327.20,    44.28  C   327.20     46.62    329.10     48.53    331.44     48.53  " /><path style="stroke-width:1.42 ;&st7;   " d=" M   335.69,    48.53  C   338.04     48.53    339.94     46.62    339.94     44.28  " /><path style="stroke-width:1.42 ;&st7;   " d=" M   339.94,    44.28  C   339.94     41.93    338.04     40.03    335.69     40.03  " /><path style="stroke-width:1.42 ;&st7;   " d=" M   331.44,    82.52  C   329.10     82.52    327.20     84.42    327.20     86.77  " /><path style="stroke-width:1.42 ;&st7;   " d=" M   327.20,    86.77  C   327.20     89.12    329.10     91.02    331.44     91.02  " /><path style="stroke-width:1.42 ;&st7;   " d=" M   335.69,    91.02  C   338.04     91.02    339.94     89.12    339.94     86.77  " /><path style="stroke-width:1.42 ;&st7;   " d=" M   339.94,    86.77  C   339.94     84.42    338.04     82.52    335.69     82.52  " /><path style="stroke-width:1.42 ;&st7;   " d=" M   286.12,    44.28  C   284.51     41.54    280.98     40.63    278.24     42.24  " /><path style="stroke-width:1.42 ;&st7;   " d=" M   278.24,    42.24  C   277.36     42.76    276.72     43.40    276.20     44.28  " /><path style="stroke-width:0.85 ;&st7;   " d=" M   178.47,   214.25  C   178.47    213.47    177.84    212.83    177.05    212.83  " /><path style="stroke-width:0.85 ;&st7;   " d=" M   177.05,   212.83  C   176.27    212.83    175.64    213.47    175.64    214.25  " /><path style="stroke-width:0.85 ;&st7;   " d=" M   175.64,   214.25  C   175.64    215.03    176.27    215.67    177.05    215.67  " /><path style="stroke-width:0.85 ;&st7;   " d=" M   177.05,   215.67  C   177.84    215.67    178.47    215.03    178.47    214.25  " /><path style="stroke-width:0.85 ;&st7;   " d=" M   155.81,   214.25  C   155.81    213.47    155.17    212.83    154.39    212.83  " /><path style="stroke-width:0.85 ;&st7;   " d=" M   154.39,   212.83  C   153.61    212.83    152.97    213.47    152.97    214.25  " /><path style="stroke-width:0.85 ;&st7;   " d=" M   152.97,   214.25  C   152.97    215.03    153.61    215.67    154.39    215.67  " /><path style="stroke-width:0.85 ;&st7;   " d=" M   154.39,   215.67  C   155.17    215.67    155.81    215.03    155.81    214.25  " /><path style="stroke-width:1.42 ;&st7;   " d=" M   286.12,    86.77  C   284.51     84.03    280.98     83.12    278.24     84.73  " /><path style="stroke-width:1.42 ;&st7;   " d=" M   278.24,    84.73  C   277.36     85.25    276.72     85.89    276.20     86.77  " /><path style="stroke-width:1.42 ;&st7;   " d=" M   266.29,    86.77  C   267.90     89.51    271.43     90.42    274.17     88.81  " /><path style="stroke-width:1.42 ;&st7;   " d=" M   274.17,    88.81  C   275.05     88.29    275.68     87.65    276.20     86.77  " /><path style="stroke-width:1.42 ;&st7;   " d=" M   286.12,   214.25  C   284.51    211.51    280.98    210.60    278.24    212.21  " /><path style="stroke-width:1.42 ;&st7;   " d=" M   278.24,   212.21  C   277.36    212.73    276.72    213.37    276.20    214.25  " /><path style="stroke-width:0.85 ;&st7;   " d=" M   288.95,   129.26  C   288.95    128.48    288.32    127.85    287.54    127.85  " /><path style="stroke-width:0.85 ;&st7;   " d=" M   287.54,   127.85  C   286.75    127.85    286.12    128.48    286.12    129.26  " /><path style="stroke-width:0.85 ;&st7;   " d=" M   286.12,   129.26  C   286.12    130.05    286.75    130.68    287.54    130.68  " /><path style="stroke-width:0.85 ;&st7;   " d=" M   287.54,   130.68  C   288.32    130.68    288.95    130.05    288.95    129.26  " /><path style="stroke-width:0.85 ;&st7;   " d=" M   178.47,   171.76  C   178.47    170.97    177.84    170.34    177.05    170.34  " /><path style="stroke-width:0.85 ;&st7;   " d=" M   177.05,   170.34  C   176.27    170.34    175.64    170.97    175.64    171.76  " /><path style="stroke-width:0.85 ;&st7;   " d=" M   175.64,   171.76  C   175.64    172.54    176.27    173.17    177.05    173.17  " /><path style="stroke-width:0.85 ;&st7;   " d=" M   177.05,   173.17  C   177.84    173.17    178.47    172.54    178.47    171.76  " /><path style="stroke-width:0.85 ;&st7;   " d=" M   155.81,   171.76  C   155.81    170.97    155.17    170.34    154.39    170.34  " /><path style="stroke-width:0.85 ;&st7;   " d=" M   154.39,   170.34  C   153.61    170.34    152.97    170.97    152.97    171.76  " /><path style="stroke-width:0.85 ;&st7;   " d=" M   152.97,   171.76  C   152.97    172.54    153.61    173.17    154.39    173.17  " /><path style="stroke-width:0.85 ;&st7;   " d=" M   154.39,   173.17  C   155.17    173.17    155.81    172.54    155.81    171.76  " /><path style="stroke-width:0.85 ;&st7;   " d=" M   266.29,   129.26  C   266.29    128.48    265.65    127.85    264.87    127.85  " /><path style="stroke-width:0.85 ;&st7;   " d=" M   264.87,   127.85  C   264.09    127.85    263.46    128.48    263.46    129.26  " /><path style="stroke-width:0.85 ;&st7;   " d=" M   263.46,   129.26  C   263.46    130.05    264.09    130.68    264.87    130.68  " /><path style="stroke-width:0.85 ;&st7;   " d=" M   264.87,   130.68  C   265.65    130.68    266.29    130.05    266.29    129.26  " /><path style="stroke-width:1.42 ;&st7;   " d=" M   266.29,    44.28  C   267.90     47.02    271.43     47.93    274.17     46.31  " /><path style="stroke-width:1.42 ;&st7;   " d=" M   274.17,    46.31  C   275.05     45.80    275.68     45.16    276.20     44.28  " /><path style="stroke-width:0.85 ;&st7;   " d=" M   178.47,   129.26  C   178.47    128.48    177.84    127.85    177.05    127.85  " /><path style="stroke-width:0.85 ;&st7;   " d=" M   177.05,   127.85  C   176.27    127.85    175.64    128.48    175.64    129.26  " /><path style="stroke-width:0.85 ;&st7;   " d=" M   175.64,   129.26  C   175.64    130.05    176.27    130.68    177.05    130.68  " /><path style="stroke-width:0.85 ;&st7;   " d=" M   177.05,   130.68  C   177.84    130.68    178.47    130.05    178.47    129.26  " /><path style="stroke-width:0.85 ;&st7;   " d=" M   266.29,    44.28  C   266.29     43.50    265.65     42.86    264.87     42.86  " /><path style="stroke-width:0.85 ;&st7;   " d=" M   264.87,    42.86  C   264.09     42.86    263.46     43.50    263.46     44.28  " /><path style="stroke-width:0.85 ;&st7;   " d=" M   263.46,    44.28  C   263.46     45.06    264.09     45.69    264.87     45.69  " /><path style="stroke-width:0.85 ;&st7;   " d=" M   264.87,    45.69  C   265.65     45.69    266.29     45.06    266.29     44.28  " /><path style="stroke-width:0.85 ;&st7;   " d=" M   288.95,    44.28  C   288.95     43.50    288.32     42.86    287.54     42.86  " /><path style="stroke-width:0.85 ;&st7;   " d=" M   287.54,    42.86  C   286.75     42.86    286.12     43.50    286.12     44.28  " /><path style="stroke-width:0.85 ;&st7;   " d=" M   286.12,    44.28  C   286.12     45.06    286.75     45.69    287.54     45.69  " /><path style="stroke-width:0.85 ;&st7;   " d=" M   287.54,    45.69  C   288.32     45.69    288.95     45.06    288.95     44.28  " /><path style="stroke-width:1.42 ;&st7;   " d=" M   175.64,   214.25  C   174.02    211.51    170.50    210.60    167.76    212.21  " /><path style="stroke-width:1.42 ;&st7;   " d=" M   167.76,   212.21  C   166.88    212.73    166.24    213.37    165.72    214.25  " /><path style="stroke-width:0.85 ;&st7;   " d=" M   266.29,    86.77  C   266.29     85.99    265.65     85.35    264.87     85.35  " /><path style="stroke-width:0.85 ;&st7;   " d=" M   264.87,    85.35  C   264.09     85.35    263.46     85.99    263.46     86.77  " /><path style="stroke-width:0.85 ;&st7;   " d=" M   263.46,    86.77  C   263.46     87.55    264.09     88.19    264.87     88.19  " /><path style="stroke-width:0.85 ;&st7;   " d=" M   264.87,    88.19  C   265.65     88.19    266.29     87.55    266.29     86.77  " /><path style="stroke-width:0.85 ;&st7;   " d=" M   288.95,    86.77  C   288.95     85.99    288.32     85.35    287.54     85.35  " /><path style="stroke-width:0.85 ;&st7;   " d=" M   287.54,    85.35  C   286.75     85.35    286.12     85.99    286.12     86.77  " /><path style="stroke-width:0.85 ;&st7;   " d=" M   286.12,    86.77  C   286.12     87.55    286.75     88.19    287.54     88.19  " /><path style="stroke-width:0.85 ;&st7;   " d=" M   287.54,    88.19  C   288.32     88.19    288.95     87.55    288.95     86.77  " /><path style="stroke-width:1.42 ;&st7;   " d=" M   155.81,   171.76  C   157.42    174.49    160.95    175.41    163.69    173.79  " /><path style="stroke-width:1.42 ;&st7;   " d=" M   163.69,   173.79  C   164.57    173.27    165.20    172.64    165.72    171.76  " /><path style="stroke-width:1.42 ;&st7;   " d=" M   175.64,   171.76  C   174.02    169.02    170.50    168.11    167.76    169.72  " /><path style="stroke-width:1.42 ;&st7;   " d=" M   167.76,   169.72  C   166.88    170.24    166.24    170.87    165.72    171.76  " /><path style="stroke-width:0.85 ;&st7;   " d=" M   266.29,   171.76  C   266.29    170.97    265.65    170.34    264.87    170.34  " /><path style="stroke-width:0.85 ;&st7;   " d=" M   264.87,   170.34  C   264.09    170.34    263.46    170.97    263.46    171.76  " /><path style="stroke-width:0.85 ;&st7;   " d=" M   263.46,   171.76  C   263.46    172.54    264.09    173.17    264.87    173.17  " /><path style="stroke-width:0.85 ;&st7;   " d=" M   264.87,   173.17  C   265.65    173.17    266.29    172.54    266.29    171.76  " /><path style="stroke-width:0.85 ;&st7;   " d=" M   288.95,   171.76  C   288.95    170.97    288.32    170.34    287.54    170.34  " /><path style="stroke-width:0.85 ;&st7;   " d=" M   287.54,   170.34  C   286.75    170.34    286.12    170.97    286.12    171.76  " /><path style="stroke-width:0.85 ;&st7;   " d=" M   286.12,   171.76  C   286.12    172.54    286.75    173.17    287.54    173.17  " /><path style="stroke-width:0.85 ;&st7;   " d=" M   287.54,   173.17  C   288.32    173.17    288.95    172.54    288.95    171.76  " /><path style="stroke-width:1.42 ;&st7;   " d=" M   266.29,   171.76  C   267.90    174.49    271.43    175.41    274.17    173.79  " /><path style="stroke-width:1.42 ;&st7;   " d=" M   274.17,   173.79  C   275.05    173.27    275.68    172.64    276.20    171.76  " /><path style="stroke-width:1.42 ;&st7;   " d=" M   286.12,   171.76  C   284.51    169.02    280.98    168.11    278.24    169.72  " /><path style="stroke-width:1.42 ;&st7;   " d=" M   278.24,   169.72  C   277.36    170.24    276.72    170.87    276.20    171.76  " /><path style="stroke-width:0.85 ;&st7;   " d=" M   155.81,   129.26  C   155.81    128.48    155.17    127.85    154.39    127.85  " /><path style="stroke-width:0.85 ;&st7;   " d=" M   154.39,   127.85  C   153.61    127.85    152.97    128.48    152.97    129.26  " /><path style="stroke-width:0.85 ;&st7;   " d=" M   152.97,   129.26  C   152.97    130.05    153.61    130.68    154.39    130.68  " /><path style="stroke-width:0.85 ;&st7;   " d=" M   154.39,   130.68  C   155.17    130.68    155.81    130.05    155.81    129.26  " /><path style="stroke-width:1.42 ;&st7;   " d=" M   266.29,   214.25  C   267.90    216.99    271.43    217.90    274.17    216.29  " /><path style="stroke-width:1.42 ;&st7;   " d=" M   274.17,   216.29  C   275.05    215.77    275.68    215.13    276.20    214.25  " /><path style="stroke-width:0.85 ;&st7;   " d=" M   266.29,   214.25  C   266.29    213.47    265.65    212.83    264.87    212.83  " /><path style="stroke-width:0.85 ;&st7;   " d=" M   264.87,   212.83  C   264.09    212.83    263.46    213.47    263.46    214.25  " /><path style="stroke-width:0.85 ;&st7;   " d=" M   263.46,   214.25  C   263.46    215.03    264.09    215.67    264.87    215.67  " /><path style="stroke-width:0.85 ;&st7;   " d=" M   264.87,   215.67  C   265.65    215.67    266.29    215.03    266.29    214.25  " /><path style="stroke-width:0.85 ;&st7;   " d=" M   288.95,   214.25  C   288.95    213.47    288.32    212.83    287.54    212.83  " /><path style="stroke-width:0.85 ;&st7;   " d=" M   287.54,   212.83  C   286.75    212.83    286.12    213.47    286.12    214.25  " /><path style="stroke-width:0.85 ;&st7;   " d=" M   286.12,   214.25  C   286.12    215.03    286.75    215.67    287.54    215.67  " /><path style="stroke-width:0.85 ;&st7;   " d=" M   287.54,   215.67  C   288.32    215.67    288.95    215.03    288.95    214.25  " /><path style="stroke-width:1.42 ;&st7;   " d=" M   266.29,   129.26  C   267.90    132.00    271.43    132.91    274.17    131.30  " /><path style="stroke-width:1.42 ;&st7;   " d=" M   274.17,   131.30  C   275.05    130.78    275.68    130.15    276.20    129.26  " /><path style="stroke-width:1.42 ;&st7;   " d=" M   286.12,   129.26  C   284.51    126.53    280.98    125.61    278.24    127.23  " /><path style="stroke-width:1.42 ;&st7;   " d=" M   278.24,   127.23  C   277.36    127.75    276.72    128.38    276.20    129.26  " /><path style="stroke-width:0.28 ;&st9;  " d=" M   322.30,   214.25  L   319.47,   211.42  L   323.72,   211.42  L   326.55,   214.25  L   323.72,   217.08  L   319.47,   217.08  L   322.30,   214.25  " /><path style="stroke-width:0.28 ;&st9;  " d=" M   322.30,   171.76  L   319.47,   168.92  L   323.72,   168.92  L   326.55,   171.76  L   323.72,   174.59  L   319.47,   174.59  L   322.30,   171.76  " /><path style="stroke-width:0.28 ;&st9;  " d=" M   322.30,   129.26  L   319.47,   126.43  L   323.72,   126.43  L   326.55,   129.26  L   323.72,   132.10  L   319.47,   132.10  L   322.30,   129.26  " /><path style="stroke-width:0.28 ;&st9;  " d=" M   111.13,   129.26  L   113.96,   126.43  L   109.71,   126.43  L   106.88,   129.26  L   109.71,   132.10  L   113.96,   132.10  L   111.13,   129.26  " /><path style="stroke-width:0.28 ;&st9;  " d=" M   322.30,    86.77  L   319.47,    83.94  L   323.72,    83.94  L   326.55,    86.77  L   323.72,    89.60  L   319.47,    89.60  L   322.30,    86.77  " /><path style="stroke-width:0.85 ;&st7;  " d=" M   126.29,   128.26  L   126.01,   128.73  L   125.92,   129.26  L   126.01,   129.80  L   126.29,   130.27  L   126.70,   130.61  L   127.21,   130.80  L   127.75,   130.80  L   128.26,   130.61  L   128.67,   130.27  L   128.94,   129.80  L   129.04,   129.26  L   128.94,   128.73  L   128.67,   128.26  L   128.26,   127.92  L   127.75,   127.73  L   127.21,   127.73  L   126.70,   127.92  L   126.29,   128.26  L   126.68,   128.97  L   126.68,   129.56  L   127.05,   130.00  L   127.63,   130.10  L   128.13,   129.81  L   128.33,   129.26  L   128.13,   128.72  L   127.63,   128.43  L   127.05,   128.53  L   127.48,   129.26  " /><path style="stroke-width:0.85 ;&st7;  " d=" M   229.46,   214.25  L   229.46,    44.28  " /><path style="stroke-width:0.85 ;&st7;  " d=" M   144.48,   214.25  L   127.48,   214.25  L   127.48,   171.76  " /><path style="stroke-width:0.85 ;&st7;  " d=" M   127.48,   129.26  L   127.48,   171.76  " /><path style="stroke-width:0.85 ;&st7;  " d=" M   297.45,    44.28  L   327.20,    44.28  " /><path style="stroke-width:0.85 ;&st7;  " d=" M   297.45,    86.77  L   327.20,    86.77  " /><path style="stroke-width:0.85 ;&st7;  " d=" M   297.45,   129.26  L   327.20,   129.26  " /><path style="stroke-width:0.85 ;&st7;  " d=" M   297.45,   171.76  L   327.20,   171.76  " /><path style="stroke-width:0.28 ;&st9;  " d=" M   322.30,    44.28  L   319.47,    41.45  L   323.72,    41.45  L   326.55,    44.28  L   323.72,    47.11  L   319.47,    47.11  L   322.30,    44.28  " /><path style="stroke-width:0.85 ;&st7;  " d=" M   297.45,   214.25  L   327.20,   214.25  " /><path style="stroke-width:1.42 ;&st7;  " d=" M   144.48,   201.50  L   144.48,   227.00  L   186.97,   227.00  L   186.97,   201.50  L   144.48,   201.50  " /><path style="stroke-width:0.85 ;&st7;  " d=" M   144.48,   214.25  L   152.97,   214.25  " /><path style="stroke-width:0.85 ;&st7;  " d=" M   229.46,   129.26  L   254.96,   129.26  " /><path style="stroke-width:1.42 ;&st7;  " d=" M   144.48,   159.01  L   144.48,   184.50  L   186.97,   184.50  L   186.97,   159.01  L   144.48,   159.01  " /><path style="stroke-width:0.85 ;&st7;  " d=" M   144.48,   171.76  L   152.97,   171.76  " /><path style="stroke-width:0.85 ;&st7;  " d=" M   106.23,   129.26  L   144.48,   129.26  " /><path style="stroke-width:0.85 ;&st7;  " d=" M   228.27,    85.77  L   228.00,    86.24  L   227.90,    86.77  L   228.00,    87.30  L   228.27,    87.77  L   228.68,    88.12  L   229.19,    88.31  L   229.73,    88.31  L   230.24,    88.12  L   230.65,    87.77  L   230.93,    87.30  L   231.02,    86.77  L   230.93,    86.24  L   230.65,    85.77  L   230.24,    85.42  L   229.73,    85.24  L   229.19,    85.24  L   228.68,    85.42  L   228.27,    85.77  L   228.66,    86.48  L   228.66,    87.06  L   229.04,    87.51  L   229.61,    87.61  L   230.11,    87.32  L   230.31,    86.77  L   230.11,    86.22  L   229.61,    85.94  L   229.04,    86.03  L   229.46,    86.77  " /><path style="stroke-width:0.85 ;&st7;  " d=" M   228.27,   128.26  L   228.00,   128.73  L   227.90,   129.26  L   228.00,   129.80  L   228.27,   130.27  L   228.68,   130.61  L   229.19,   130.80  L   229.73,   130.80  L   230.24,   130.61  L   230.65,   130.27  L   230.93,   129.80  L   231.02,   129.26  L   230.93,   128.73  L   230.65,   128.26  L   230.24,   127.92  L   229.73,   127.73  L   229.19,   127.73  L   228.68,   127.92  L   228.27,   128.26  L   228.66,   128.97  L   228.66,   129.56  L   229.04,   130.00  L   229.61,   130.10  L   230.11,   129.81  L   230.31,   129.26  L   230.11,   128.72  L   229.61,   128.43  L   229.04,   128.53  L   229.46,   129.26  " /><path style="stroke-width:0.85 ;&st7;  " d=" M   228.27,   170.75  L   228.00,   171.22  L   227.90,   171.76  L   228.00,   172.29  L   228.27,   172.76  L   228.68,   173.11  L   229.19,   173.29  L   229.73,   173.29  L   230.24,   173.11  L   230.65,   172.76  L   230.93,   172.29  L   231.02,   171.76  L   230.93,   171.22  L   230.65,   170.75  L   230.24,   170.41  L   229.73,   170.22  L   229.19,   170.22  L   228.68,   170.41  L   228.27,   170.75  L   228.66,   171.47  L   228.66,   172.05  L   229.04,   172.49  L   229.61,   172.59  L   230.11,   172.30  L   230.31,   171.76  L   230.11,   171.21  L   229.61,   170.92  L   229.04,   171.02  L   229.46,   171.76  " /><path style="stroke-width:0.85 ;&st7;  " d=" M   186.97,   129.26  L   229.46,   129.26  " /><path style="stroke-width:0.85 ;&st7;  " d=" M   144.48,   129.26  L   152.97,   129.26  " /><path style="stroke-width:1.42 ;&st7;  " d=" M   144.48,   116.52  L   144.48,   142.01  L   186.97,   142.01  L   186.97,   116.52  L   144.48,   116.52  " /><path style="stroke-width:0.85 ;&st7;  " d=" M   229.46,   214.25  L   254.96,   214.25  " /><path style="stroke-width:0.85 ;&st7;  " d=" M   229.46,   171.76  L   254.96,   171.76  " /><path style="stroke-width:0.85 ;&st7;  " d=" M   229.46,    86.77  L   254.96,    86.77  " /><path style="stroke-width:0.85 ;&st7;  " d=" M   229.46,    44.28  L   254.96,    44.28  " /><path style="stroke-width:0.85 ;&st7;  " d=" M   127.48,   171.76  L   144.48,   171.76  " /><path style="stroke-width:0.85 ;&st7;  " d=" M   186.97,   214.25  L   212.46,   214.25  " /><path style="stroke-width:0.85 ;&st7;  " d=" M   186.97,   171.76  L   212.46,   171.76  " /><path style="stroke-width:0.85 ;&st7;  " d=" M   126.29,   170.75  L   126.01,   171.22  L   125.92,   171.76  L   126.01,   172.29  L   126.29,   172.76  L   126.70,   173.11  L   127.21,   173.29  L   127.75,   173.29  L   128.26,   173.11  L   128.67,   172.76  L   128.94,   172.29  L   129.04,   171.76  L   128.94,   171.22  L   128.67,   170.75  L   128.26,   170.41  L   127.75,   170.22  L   127.21,   170.22  L   126.70,   170.41  L   126.29,   170.75  L   126.68,   171.47  L   126.68,   172.05  L   127.05,   172.49  L   127.63,   172.59  L   128.13,   172.30  L   128.33,   171.76  L   128.13,   171.21  L   127.63,   170.92  L   127.05,   171.02  L   127.48,   171.76  " /><path style="stroke-width:0.85 ;&st7;  " d=" M   254.96,    44.28  L   263.46,    44.28  " /><path style="stroke-width:1.42 ;&st7;  " d=" M   254.96,    31.53  L   254.96,    57.03  L   297.45,    57.03  L   297.45,    31.53  L   254.96,    31.53  " /><path style="stroke-width:0.85 ;&st7;  " d=" M   254.96,    86.77  L   263.46,    86.77  " /><path style="stroke-width:1.42 ;&st7;  " d=" M   254.96,    74.02  L   254.96,    99.52  L   297.45,    99.52  L   297.45,    74.02  L   254.96,    74.02  " /><path style="stroke-width:1.42 ;&st7;  " d=" M   254.96,   116.52  L   254.96,   142.01  L   297.45,   142.01  L   297.45,   116.52  L   254.96,   116.52  " /><path style="stroke-width:0.85 ;&st7;  " d=" M   254.96,   129.26  L   263.46,   129.26  " /><path style="stroke-width:0.85 ;&st7;  " d=" M   254.96,   171.76  L   263.46,   171.76  " /><path style="stroke-width:1.42 ;&st7;  " d=" M   254.96,   159.01  L   254.96,   184.50  L   297.45,   184.50  L   297.45,   159.01  L   254.96,   159.01  " /><path style="stroke-width:0.85 ;&st7;  " d=" M   254.96,   214.25  L   263.46,   214.25  " /><path style="stroke-width:1.42 ;&st7;  " d=" M   254.96,   201.50  L   254.96,   227.00  L   297.45,   227.00  L   297.45,   201.50  L   254.96,   201.50  " /><text style="&st18;" transform="matrix(&st16;  331.77  207.01 )">1</text><text style="&st18;" transform="matrix(&st16;  330.88  216.22 )">3I</text><text style="&st18;" transform="matrix(&st16;  331.77  164.52 )">1</text><text style="&st18;" transform="matrix(&st16;  329.91  173.73 )">3E</text><text style="&st18;" transform="matrix(&st16;  331.77  122.03 )">1</text><text style="&st18;" transform="matrix(&st16;  329.52  131.23 )">3H</text><text style="&st18;" transform="matrix(&st16;  96.12  131.23 )">3B</text><text style="&st18;" transform="matrix(&st16;  331.77  79.53 )">1</text><text style="&st18;" transform="matrix(&st16;  329.91  88.74 )">3F</text><text style="&st18;" transform="matrix(&st16;  329.56  46.25 )">3G</text><text style="&st18;" transform="matrix(&st16;  331.77  37.04 )">1</text><text style="&st18;" transform="matrix(&st16;  98.06  122.03 )">1</text><text style="&st18;" transform="matrix(&st16;  148.72  196.67 )">80A GLOW2</text><text style="&st18;" transform="matrix(&st16;  148.72  154.18 )">80A GLOW1</text><g ewd:code="" ewd:figID="195" ewd:comment="1,2" ewd:figtype="commref"><text style="&st18;" transform="matrix(&st16;  146.12  105.47 )">140A ALT (*1) <tspan x="0 " dy="6.0">100A ALT (*2)</tspan></text></g><text style="&st18;" transform="matrix(&st16;  255.64  196.67 )">50A ALT MAIN</text><text style="&st18;" transform="matrix(&st16;  263.78  26.7 )">30A AM1</text><text style="&st18;" transform="matrix(&st16;  255.95  111.69 )">50A AM1 NO.3</text></g><g ewd:code="AI3" ewd:figID="78" ewd:comment="1" ewd:figtype="w2w"><text style="&st18;" transform="matrix(&st16;  414.63  37.04 )">5</text><g ewd:code="" ewd:figID="167" ewd:comment="1" ewd:figtype="commref"><text style="&st18;" transform="matrix(&st16;  411.22  55.45 )">(*1)</text></g></g><g ewd:figtype="w2w" ewd:figID="79" ewd:code="AI1"><path style="stroke-width:1.42 ;&st7;  " d=" M   450.99,   626.43  L   446.74,   622.18  L   450.99,   617.93  " /><path style="stroke-width:1.42 ;&st7;  " d=" M   447.59,   626.43  L   443.34,   622.18  L   447.59,   617.93  " /><text style="&st18;" transform="matrix(&st16;  431.63  614.94 )">1</text></g><g ewd:figtype="w2w" ewd:figID="80" ewd:code="AI4"><path style="stroke-width:1.42 ;&st7;  " d=" M   450.99,   583.94  L   446.74,   579.69  L   450.99,   575.44  " /><path style="stroke-width:1.42 ;&st7;  " d=" M   447.59,   583.94  L   443.34,   579.69  L   447.59,   575.44  " /><text style="&st18;" transform="matrix(&st16;  431.63  572.45 )">4</text></g><g ewd:figtype="w2w" ewd:figID="81" ewd:code="AI4"><path style="stroke-width:1.42 ;&st7;  " d=" M   450.99,   541.44  L   446.74,   537.20  L   450.99,   532.95  " /><path style="stroke-width:1.42 ;&st7;  " d=" M   447.59,   541.44  L   443.34,   537.20  L   447.59,   532.95  " /><text style="&st18;" transform="matrix(&st16;  431.63  529.96 )">3</text></g><g ewd:code="AI1" ewd:figID="82" ewd:comment="1" ewd:figtype="w2w"><text style="&st18;" transform="matrix(&st16;  431.63  444.97 )">5</text><g ewd:code="" ewd:figID="171" ewd:comment="1" ewd:figtype="commref"><text style="&st18;" transform="matrix(&st16;  428.21  463.39 )">(*1)</text></g></g><g ewd:figtype="w2w" ewd:figID="83" ewd:code="AI1"><path style="stroke-width:1.42 ;&st7;  " d=" M   447.59,   286.49  L   443.34,   282.24  L   447.59,   277.99  " /><path style="stroke-width:1.42 ;&st7;  " d=" M   450.99,   286.49  L   446.74,   282.24  L   450.99,   277.99  " /><text style="&st18;" transform="matrix(&st16;  431.63  275.0 )">2</text></g><g ewd:code="AI1" ewd:figID="84" ewd:comment="1" ewd:figtype="w2w"><text style="&st18;" transform="matrix(&st16;  431.63  215.51 )">6</text><g ewd:code="" ewd:figID="173" ewd:comment="1" ewd:figtype="commref"><text style="&st18;" transform="matrix(&st16;  428.21  233.92 )">(*1)</text></g></g><g ewd:code="AI4" ewd:figID="85" ewd:comment="1" ewd:figtype="w2w"><text style="&st18;" transform="matrix(&st16;  431.63  79.53 )">2</text><g ewd:code="" ewd:figID="175" ewd:comment="1" ewd:figtype="commref"><text style="&st18;" transform="matrix(&st16;  428.21  97.95 )">(*1)</text></g></g><g ewd:code="AI6" ewd:figID="86" ewd:comment="6" ewd:figtype="w2w"><text style="&st18;" transform="matrix(&st16;  431.63  37.04 )">8</text><g ewd:code="" ewd:figID="169" ewd:comment="6" ewd:figtype="commref"><text style="&st18;" transform="matrix(&st16;  428.21  55.45 )">(*6)</text></g></g><g ewd:code="AI1" ewd:figID="87" ewd:comment="2" ewd:figtype="w2w"><path style="stroke-width:1.42 ;&st7;  " d=" M   464.59,   447.96  L   460.34,   452.21  L   464.59,   456.46  " /><path style="stroke-width:1.42 ;&st7;  " d=" M   467.99,   447.96  L   463.74,   452.21  L   467.99,   456.46  " /><text style="&st18;" transform="matrix(&st16;  448.62  444.97 )">6</text><g ewd:code="" ewd:figID="170" ewd:comment="2" ewd:figtype="commref"><text style="&st18;" transform="matrix(&st16;  445.21  463.39 )">(*2)</text></g></g><g ewd:code="AI4" ewd:figID="88" ewd:comment="2" ewd:figtype="w2w"><path style="stroke-width:1.42 ;&st7;  " d=" M   464.59,   218.50  L   460.34,   222.75  L   464.59,   227.00  " /><path style="stroke-width:1.42 ;&st7;  " d=" M   467.99,   218.50  L   463.74,   222.75  L   467.99,   227.00  " /><text style="&st18;" transform="matrix(&st16;  448.62  215.51 )">2</text><g ewd:code="" ewd:figID="172" ewd:comment="2" ewd:figtype="commref"><text style="&st18;" transform="matrix(&st16;  445.21  233.92 )">(*2)</text></g></g><g ewd:code="AI1" ewd:figID="89" ewd:comment="2" ewd:figtype="w2w"><path style="stroke-width:1.42 ;&st7;  " d=" M   467.99,    82.52  L   463.74,    86.77  L   467.99,    91.02  " /><path style="stroke-width:1.42 ;&st7;  " d=" M   464.59,    82.52  L   460.34,    86.77  L   464.59,    91.02  " /><text style="&st18;" transform="matrix(&st16;  448.62  79.53 )">4</text><g ewd:code="" ewd:figID="174" ewd:comment="2" ewd:figtype="commref"><text style="&st18;" transform="matrix(&st16;  445.21  97.95 )">(*2)</text></g></g><g ewd:code="AI2" ewd:figID="90" ewd:comment="7" ewd:figtype="w2w"><path style="stroke-width:1.42 ;&st7;  " d=" M   464.59,    40.03  L   460.34,    44.28  L   464.59,    48.53  " /><path style="stroke-width:1.42 ;&st7;  " d=" M   467.99,    40.03  L   463.74,    44.28  L   467.99,    48.53  " /><text style="&st18;" transform="matrix(&st16;  448.62  37.04 )">7</text><g ewd:code="" ewd:figID="168" ewd:comment="7" ewd:figtype="commref"><text style="&st18;" transform="matrix(&st16;  445.21  55.45 )">(*7)</text></g></g><g ewd:figtype="gp" ewd:figID="97" ewd:code="FC"><path style="stroke-width:0.85 ;&st7;  " d=" M    15.58,   710.00  L    18.41,   710.00  " /><path style="stroke-width:0.85 ;&st7;  " d=" M    14.16,   707.17  L    19.83,   707.17  " /><path style="stroke-width:0.85 ;&st7;  " d=" M    12.75,   704.33  L    21.25,   704.33  " /><path style="stroke-width:0.85 ;&st7;  " d=" M     8.50,   701.50  L    25.50,   701.50  " /><path style="stroke-width:0.85 ;&st7;  " d=" M    17.00,   697.25  L    17.00,   701.50  " /></g><g ewd:figtype="gp" ewd:figID="98" ewd:code="FB"><path style="stroke-width:0.85 ;&st7;  " d=" M    49.58,   710.00  L    52.41,   710.00  " /><path style="stroke-width:0.85 ;&st7;  " d=" M    48.16,   707.17  L    53.82,   707.17  " /><path style="stroke-width:0.85 ;&st7;  " d=" M    46.74,   704.33  L    55.24,   704.33  " /><path style="stroke-width:0.85 ;&st7;  " d=" M    42.49,   701.50  L    59.49,   701.50  " /><path style="stroke-width:0.85 ;&st7;  " d=" M    50.99,   697.25  L    50.99,   701.50  " /></g><g ewd:figtype="gp" ewd:figID="99" ewd:code="DA"><path style="stroke-width:0.85 ;&st7;  " d=" M   100.57,   710.00  L   103.40,   710.00  " /><path style="stroke-width:0.85 ;&st7;  " d=" M    99.15,   707.17  L   104.82,   707.17  " /><path style="stroke-width:0.85 ;&st7;  " d=" M    97.73,   704.33  L   106.23,   704.33  " /><path style="stroke-width:0.85 ;&st7;  " d=" M    93.48,   701.50  L   110.48,   701.50  " /><path style="stroke-width:0.85 ;&st7;  " d=" M   101.98,   697.25  L   101.98,   701.50  " /></g><g ewd:figtype="gp" ewd:figID="100" ewd:code="AC"><path style="stroke-width:0.85 ;&st7;  " d=" M   151.56,   710.00  L   154.39,   710.00  " /><path style="stroke-width:0.85 ;&st7;  " d=" M   150.14,   707.17  L   155.81,   707.17  " /><path style="stroke-width:0.85 ;&st7;  " d=" M   148.73,   704.33  L   157.22,   704.33  " /><path style="stroke-width:0.85 ;&st7;  " d=" M   152.97,   697.25  L   152.97,   701.50  " /><path style="stroke-width:0.85 ;&st7;  " d=" M   144.48,   701.50  L   161.47,   701.50  " /></g><g ewd:figtype="gp" ewd:figID="101" ewd:code="FA"><path style="stroke-width:0.85 ;&st7;  " d=" M   185.55,   710.00  L   188.39,   710.00  " /><path style="stroke-width:0.85 ;&st7;  " d=" M   184.14,   707.17  L   189.80,   707.17  " /><path style="stroke-width:0.85 ;&st7;  " d=" M   182.72,   704.33  L   191.22,   704.33  " /><path style="stroke-width:0.85 ;&st7;  " d=" M   178.47,   701.50  L   195.47,   701.50  " /><path style="stroke-width:0.85 ;&st7;  " d=" M   186.97,   697.25  L   186.97,   701.50  " /></g><g ewd:figtype="annex" ewd:figID="73" ewd:code=" "><path style="stroke-width:1.42 ;&st7;   " d=" M    53.82,   372.89  C    53.82    371.33     52.56    370.06     50.99    370.06  " /><path style="stroke-width:1.42 ;&st7;   " d=" M    50.99,   370.06  C    49.43    370.06     48.16    371.33     48.16    372.89  " /><path style="stroke-width:1.42 ;&st7;   " d=" M    48.16,   372.89  C    48.16    374.45     49.43    375.72     50.99    375.72  " /><path style="stroke-width:1.42 ;&st7;   " d=" M    50.99,   375.72  C    52.56    375.72     53.82    374.45     53.82    372.89  " /><path style="stroke-width:1.42 ;&st7;   " d=" M    50.99,   347.39  C    47.86    348.53     46.25    352.00     47.39    355.12  " /><path style="stroke-width:1.42 ;&st7;   " d=" M    47.39,   355.12  C    48.02    356.86     49.25    358.09     50.99    358.73  " /><path style="stroke-width:1.42 ;&st7;   " d=" M    50.99,   370.06  C    54.12    368.92     55.74    365.45     54.59    362.33  " /><path style="stroke-width:1.42 ;&st7;   " d=" M    54.59,   362.33  C    53.96    360.59     52.73    359.36     50.99    358.72  " /><path style="stroke-width:1.42 ;&st7;   " d=" M    53.82,   344.56  C    53.82    343.00     52.56    341.73     50.99    341.73  " /><path style="stroke-width:1.42 ;&st7;   " d=" M    50.99,   341.73  C    49.43    341.73     48.16    343.00     48.16    344.56  " /><path style="stroke-width:1.42 ;&st7;   " d=" M    48.16,   344.56  C    48.16    346.13     49.43    347.39     50.99    347.39  " /><path style="stroke-width:1.42 ;&st7;   " d=" M    50.99,   347.39  C    52.56    347.39     53.82    346.13     53.82    344.56  " /><text style="&st18;" transform="matrix(&st16;  56.08  357.87 )">FL MAIN <tspan x="0 " dy="6.0">3.0W</tspan></text></g><g ewd:figtype="annex" ewd:figID="74" ewd:code=" "><path style="stroke-width:1.42 ;&st7;   " d=" M   155.81,   432.38  C   155.81    430.82    154.54    429.55    152.97    429.55  " /><path style="stroke-width:1.42 ;&st7;   " d=" M   152.97,   429.55  C   151.41    429.55    150.14    430.82    150.14    432.38  " /><path style="stroke-width:1.42 ;&st7;   " d=" M   150.14,   432.38  C   150.14    433.94    151.41    435.21    152.97    435.21  " /><path style="stroke-width:1.42 ;&st7;   " d=" M   152.97,   435.21  C   154.54    435.21    155.81    433.94    155.81    432.38  " /><path style="stroke-width:1.42 ;&st7;   " d=" M   152.97,   406.88  C   149.85    408.02    148.23    411.49    149.37    414.61  " /><path style="stroke-width:1.42 ;&st7;   " d=" M   149.37,   414.61  C   150.01    416.35    151.24    417.58    152.97    418.22  " /><path style="stroke-width:1.42 ;&st7;   " d=" M   155.81,   404.05  C   155.81    402.49    154.54    401.22    152.97    401.22  " /><path style="stroke-width:1.42 ;&st7;   " d=" M   152.97,   401.22  C   151.41    401.22    150.14    402.49    150.14    404.05  " /><path style="stroke-width:1.42 ;&st7;   " d=" M   150.14,   404.05  C   150.14    405.62    151.41    406.88    152.97    406.88  " /><path style="stroke-width:1.42 ;&st7;   " d=" M   152.97,   406.88  C   154.54    406.88    155.81    405.62    155.81    404.05  " /><path style="stroke-width:1.42 ;&st7;   " d=" M   152.98,   429.55  C   156.11    428.41    157.72    424.95    156.58    421.82  " /><path style="stroke-width:1.42 ;&st7;   " d=" M   156.58,   421.82  C   155.94    420.08    154.71    418.85    152.97    418.21  " /><text style="&st18;" transform="matrix(&st16;  158.07  417.36 )">FL MAIN <tspan x="0 " dy="6.0">3.0W</tspan></text></g></svg>