<?xml version="1.0" encoding="utf-8"?>
<!DOCTYPE svg PUBLIC "-//W3C//DTD SVG 1.0//EN" "http://www.w3.org/TR/2001/REC-SVG-20010904/DTD/svg10.dtd"[
	<!ENTITY ns_flows "http://ns.adobe.com/Flows/1.0/">
	<!ENTITY ns_svg "http://www.w3.org/2000/svg">
	<!ENTITY ns_xlink "http://www.w3.org/1999/xlink">
	<!ENTITY st0 "font-size:7px;font-family:'MS-PGothic';adobe-font-script:japanese;">
	<!ENTITY st1 "font-size:6px;font-family:'ArialMT';">
	<!-- White fill  -->
	<!ENTITY st2 "fill:#FFFFFF;stroke:#000000; stroke-width:1.41;stroke-linecap:round;stroke-linejoin:round;">
	<!-- Yellow fill  -->
	<!ENTITY st3 "fill:#FFFFCC;stroke:#FFFFCC; stroke-width:0.1;stroke-linecap:round;stroke-linejoin:round;">
	<!-- Gray fill  -->
	<!ENTITY st4 "fill:#CCCCCC;stroke:#CCCCCC; stroke-width:0.1;stroke-linecap:round;stroke-linejoin:round;">
	<!-- Light-blue fill -->
	<!ENTITY st5 "fill:#CCECF4;stroke:#000000; stroke-width:1.133;stroke-linecap:round;stroke-linejoin:round;">
	<!ENTITY st6 "fill:none;stroke-linecap:butt; stroke-linejoin:round;">
	<!ENTITY st7 "fill:none;stroke:#000000;stroke-linecap:round;stroke-linejoin:round;">
	<!ENTITY st8 "enable-background:new    ;">
	<!-- Black fill -->
	<!ENTITY st9 "fill:#000000;stroke:#000000; stroke-linecap:round;stroke-linejoin:round;">
	<!-- SRS note   -->
	<!ENTITY st10 "font-size:9px;font-family:'ArialMT';">
	<!ENTITY st11 "font-size:9px;font-family:'Svg Symbol';">
	<!ENTITY st12 "font-size:6px;font-family:'Svg Symbol';">
	<!ENTITY st13 "fill:none;stroke:#ff0000;stroke-linecap:round;stroke-linejoin:round;">
	<!-- Yellow fill  -->
	<!ENTITY st14 "fill:#FFFF00;stroke:#FFFF00; stroke-width:0.1;stroke-linecap:round;stroke-linejoin:round;">
	<!ENTITY st15 "font-size:6px;font-family:'MS-PGothic';adobe-font-script:japanese;">
	<!ENTITY st16 "1.00 0.00 0.00 1.00">
	<!ENTITY st17 "0.00 -1.00 1.00 0.00">
	<!ENTITY st18 "font-size:6px;font-family:'Arial';">
	<!ENTITY st19 "font-size:9px;font-family:'Arial';">
	<!ENTITY st20 "font-size:6px;font-family:'MS-PGothic','MS PGothic';adobe-font-script:japanese;">
	<!ENTITY st21 "font-size:7px;font-family:'MS-PGothic','MS PGothic';adobe-font-script:japanese;">
	<!ATTLIST svg
		xmlns:ewd CDATA #FIXED "http://shcl.co.jp/ewd"
		xmlns:a CDATA #FIXED "http://ns.adobe.com/AdobeSVGViewerExtensions/3.0/"
		ewd:ver CDATA #IMPLIED
	>
	<!ATTLIST a
		ewd:lineID CDATA #IMPLIED
		ewd:groupID CDATA #IMPLIED
		ewd:figtype CDATA #IMPLIED
		ewd:code CDATA #IMPLIED
		ewd:figID CDATA #IMPLIED
		ewd:pinNo CDATA #IMPLIED
		ewd:comment CDATA #IMPLIED >
	<!ATTLIST g
		ewd:lineID CDATA #IMPLIED
		ewd:groupID CDATA #IMPLIED
		ewd:figtype CDATA #IMPLIED
		ewd:code CDATA #IMPLIED
		ewd:figID CDATA #IMPLIED
		ewd:pinNo CDATA #IMPLIED
		ewd:comment CDATA #IMPLIED >
	<!ATTLIST text
		ewd:textID CDATA #IMPLIED >
	<!ATTLIST title
		ewd:textID CDATA #IMPLIED >
]>
<!-- Generator: Shintec Hozumi YS   -->
<svg onload="call_execInitLoadProc_svg('system')" style="overflow:visible;  enable-background:new 0 0 3078.923 710.000" viewBox="0 0 3078.923 710.000" height="710.000" width="3078.923" xml:space="preserve" ewd:ver="2.1.2.9" xmlns="&ns_svg;" xmlns:a="http://ns.adobe.com/AdobeSVGViewerExtensions/3.0/" xmlns:ewd="http://shcl.co.jp/ewd" xmlns:xlink="&ns_xlink;"><script type="text/javascript" xlink:href="../../../../../system/js/ewd/fig/svgfig.js" xmlns:xlink="http://www.w3.org/1999/xlink" />
<g id="ewd_top"><a ewd:figtype="rb" style="cursor:pointer;" ewd:code="FUSE10" ewd:figID="1"><path style="fill:#CCECF4;stroke:#000000; stroke-width:0; stroke-linecap:round;stroke-linejoin:round; " d=" M  2966.00,   668.92  L  2966.00,   694.42  L  3008.50,   694.42  L  3008.50,   668.92  L  2966.00,   668.92 " /></a><a ewd:figtype="rb" style="cursor:pointer;" ewd:code="FUSE49" ewd:figID="2"><path style="fill:#CCECF4;stroke:#000000; stroke-width:0; stroke-linecap:round;stroke-linejoin:round; " d=" M   254.96,   269.49  L   254.96,   294.99  L   297.45,   294.99  L   297.45,   269.49  L   254.96,   269.49 " /></a><a ewd:figtype="rb" style="cursor:pointer;" ewd:code="FUSE50" ewd:figID="3"><path style="fill:#CCECF4;stroke:#000000; stroke-width:0; stroke-linecap:round;stroke-linejoin:round; " d=" M   254.96,   311.98  L   254.96,   337.48  L   297.45,   337.48  L   297.45,   311.98  L   254.96,   311.98 " /></a><a ewd:figtype="rb" style="cursor:pointer;" ewd:code="FUSE47" ewd:figID="4"><path style="fill:#CCECF4;stroke:#000000; stroke-width:0; stroke-linecap:round;stroke-linejoin:round; " d=" M   254.96,   354.48  L   254.96,   379.97  L   297.45,   379.97  L   297.45,   354.48  L   254.96,   354.48 " /></a><a ewd:figtype="rb" style="cursor:pointer;" ewd:code="FUSE53" ewd:figID="5"><path style="fill:#CCECF4;stroke:#000000; stroke-width:0; stroke-linecap:round;stroke-linejoin:round; " d=" M   254.96,   396.97  L   254.96,   422.46  L   297.45,   422.46  L   297.45,   396.97  L   254.96,   396.97 " /></a><a ewd:figtype="rb" style="cursor:pointer;" ewd:code="FUSE44" ewd:figID="6"><path style="fill:#CCECF4;stroke:#000000; stroke-width:0; stroke-linecap:round;stroke-linejoin:round; " d=" M   254.96,   439.46  L   254.96,   464.96  L   297.45,   464.96  L   297.45,   439.46  L   254.96,   439.46 " /></a><a ewd:figtype="rb" style="cursor:pointer;" ewd:code="FUSE51" ewd:figID="7"><path style="fill:#CCECF4;stroke:#000000; stroke-width:0; stroke-linecap:round;stroke-linejoin:round; " d=" M   254.96,   481.95  L   254.96,   507.45  L   297.45,   507.45  L   297.45,   481.95  L   254.96,   481.95 " /></a><a ewd:figtype="conn" style="cursor:pointer;" ewd:code="A37,E3" ewd:figID="8"><path style="fill:#CCECF4;stroke:#000000; stroke-width:1.133; stroke-linecap:round;stroke-linejoin:round; " d=" M    33.99,   401.22  L    67.99,   401.22  L    67.99,   460.71  L    33.99,   460.71  L    33.99,   401.22 " /><title ewd:textID="8">Battery (Sub)</title></a><a ewd:figtype="conn" style="cursor:pointer;" ewd:code="E2,F2" ewd:figID="9"><path style="fill:#CCECF4;stroke:#000000; stroke-width:1.133; stroke-linecap:round;stroke-linejoin:round; " d=" M    33.99,   528.70  L    67.99,   528.70  L    67.99,   588.19  L    33.99,   588.19  L    33.99,   528.70 " /><title ewd:textID="8">Battery (Sub)</title></a><a ewd:figtype="rb" style="cursor:pointer;" ewd:code="FUSE11" ewd:figID="10"><path style="fill:#CCECF4;stroke:#000000; stroke-width:0; stroke-linecap:round;stroke-linejoin:round; " d=" M  2966.00,   626.43  L  2966.00,   651.93  L  3008.50,   651.93  L  3008.50,   626.43  L  2966.00,   626.43 " /></a><a ewd:figtype="conn" style="cursor:pointer;" ewd:code="A35,A36,D9,E1,E4,F1" ewd:figID="11"><path style="fill:#CCECF4;stroke:#000000; stroke-width:1.133; stroke-linecap:round;stroke-linejoin:round; " d=" M    93.48,   528.70  L   203.97,   528.70  L   203.97,   588.19  L    93.48,   588.19  L    93.48,   528.70 " /><title ewd:textID="7">Battery (Main)</title></a><a ewd:figtype="rb" style="cursor:pointer;" ewd:code="FUSE25" ewd:figID="12"><path style="fill:#CCECF4;stroke:#000000; stroke-width:0; stroke-linecap:round;stroke-linejoin:round; " d=" M  2821.53,   413.97  L  2821.53,   439.46  L  2864.02,   439.46  L  2864.02,   413.97  L  2821.53,   413.97 " /></a><a ewd:figtype="rb" style="cursor:pointer;" ewd:code="FUSE55" ewd:figID="13"><path style="fill:#CCECF4;stroke:#000000; stroke-width:0; stroke-linecap:round;stroke-linejoin:round; " d=" M   254.96,   524.45  L   254.96,   549.94  L   297.45,   549.94  L   297.45,   524.45  L   254.96,   524.45 " /></a><a ewd:figtype="rb" style="cursor:pointer;" ewd:code="FUSE31" ewd:figID="14"><path style="fill:#CCECF4;stroke:#000000; stroke-width:0; stroke-linecap:round;stroke-linejoin:round; " d=" M  2821.53,   456.46  L  2821.53,   481.95  L  2864.02,   481.95  L  2864.02,   456.46  L  2821.53,   456.46 " /></a><a ewd:figtype="rb" style="cursor:pointer;" ewd:code="FUSE56" ewd:figID="15"><path style="fill:#CCECF4;stroke:#000000; stroke-width:0; stroke-linecap:round;stroke-linejoin:round; " d=" M   254.96,   566.94  L   254.96,   592.44  L   297.45,   592.44  L   297.45,   566.94  L   254.96,   566.94 " /></a><a ewd:figtype="rb" style="cursor:pointer;" ewd:code="2" ewd:figID="16"><path style="fill:#CCECF4;stroke:#000000; stroke-width:0; stroke-linecap:round;stroke-linejoin:round; " d=" M  2821.53,   630.68  L  2821.53,   673.17  L  2787.53,   673.17  L  2787.53,   630.68  L  2821.53,   630.68 " /></a><a ewd:figtype="rb" style="cursor:pointer;" ewd:code="FUSE57" ewd:figID="17"><path style="fill:#CCECF4;stroke:#000000; stroke-width:0; stroke-linecap:round;stroke-linejoin:round; " d=" M   254.96,   609.43  L   254.96,   634.93  L   297.45,   634.93  L   297.45,   609.43  L   254.96,   609.43 " /></a><a ewd:figtype="rb" style="cursor:pointer;" ewd:code="FUSE13" ewd:figID="18"><path style="fill:#CCECF4;stroke:#000000; stroke-width:0; stroke-linecap:round;stroke-linejoin:round; " d=" M  2966.00,   541.44  L  2966.00,   566.94  L  3008.50,   566.94  L  3008.50,   541.44  L  2966.00,   541.44 " /></a><a ewd:figtype="rb" style="cursor:pointer;" ewd:code="FUSE54" ewd:figID="19"><path style="fill:#CCECF4;stroke:#000000; stroke-width:0; stroke-linecap:round;stroke-linejoin:round; " d=" M   254.96,   651.93  L   254.96,   677.42  L   297.45,   677.42  L   297.45,   651.93  L   254.96,   651.93 " /></a><a ewd:figtype="rb" style="cursor:pointer;" ewd:code="FUSE12" ewd:figID="20"><path style="fill:#CCECF4;stroke:#000000; stroke-width:0; stroke-linecap:round;stroke-linejoin:round; " d=" M  2966.00,   583.94  L  2966.00,   609.43  L  3008.50,   609.43  L  3008.50,   583.94  L  2966.00,   583.94 " /></a><a ewd:figtype="rb" style="cursor:pointer;" ewd:code="2" ewd:figID="21"><path style="fill:#CCECF4;stroke:#000000; stroke-width:0; stroke-linecap:round;stroke-linejoin:round; " d=" M   679.89,   273.74  L   679.89,   316.23  L   713.88,   316.23  L   713.88,   273.74  L   679.89,   273.74 " /></a><a ewd:figtype="rb" style="cursor:pointer;" ewd:code="FUSE4" ewd:figID="22"><path style="fill:#CCECF4;stroke:#000000; stroke-width:0; stroke-linecap:round;stroke-linejoin:round; " d=" M   926.35,   243.99  L   926.35,   269.49  L   968.84,   269.49  L   968.84,   243.99  L   926.35,   243.99 " /></a><a ewd:figtype="rb" style="cursor:pointer;" ewd:code="FUSE28" ewd:figID="23"><path style="fill:#CCECF4;stroke:#000000; stroke-width:0; stroke-linecap:round;stroke-linejoin:round; " d=" M   688.38,   354.48  L   688.38,   379.97  L   730.88,   379.97  L   730.88,   354.48  L   688.38,   354.48 " /></a><a ewd:figtype="rb" style="cursor:pointer;" ewd:code="FUSE2" ewd:figID="24"><path style="fill:#CCECF4;stroke:#000000; stroke-width:0; stroke-linecap:round;stroke-linejoin:round; " d=" M   688.38,   396.97  L   688.38,   422.46  L   730.88,   422.46  L   730.88,   396.97  L   688.38,   396.97 " /></a><a ewd:figtype="rb" style="cursor:pointer;" ewd:code="FUSE33" ewd:figID="25"><path style="fill:#CCECF4;stroke:#000000; stroke-width:0; stroke-linecap:round;stroke-linejoin:round; " d=" M   688.38,   439.46  L   688.38,   464.96  L   730.88,   464.96  L   730.88,   439.46  L   688.38,   439.46 " /></a><a ewd:figtype="rb" style="cursor:pointer;" ewd:code="FUSE26" ewd:figID="26"><path style="fill:#CCECF4;stroke:#000000; stroke-width:0; stroke-linecap:round;stroke-linejoin:round; " d=" M   939.09,   294.99  L   939.09,   320.48  L   981.59,   320.48  L   981.59,   294.99  L   939.09,   294.99 " /></a><a ewd:figtype="rb" style="cursor:pointer;" ewd:code="FUSE27" ewd:figID="27"><path style="fill:#CCECF4;stroke:#000000; stroke-width:0; stroke-linecap:round;stroke-linejoin:round; " d=" M   939.09,   337.48  L   939.09,   362.97  L   981.59,   362.97  L   981.59,   337.48  L   939.09,   337.48 " /></a><a ewd:figtype="conn" style="cursor:pointer;" ewd:code="L21" ewd:figID="28"><path style="fill:#CCECF4;stroke:#000000; stroke-width:1.133; stroke-linecap:round;stroke-linejoin:round; " d=" M  1614.73,   171.76  L  1674.22,   171.76  L  1674.22,    52.78  L  1614.73,    52.78  L  1614.73,   171.76 " /><title ewd:textID="15">Ignition or Starter Switch Assembly</title></a><a ewd:figtype="rb" style="cursor:pointer;" ewd:code="2" ewd:figID="29"><path style="fill:#CCECF4;stroke:#000000; stroke-width:0; stroke-linecap:round;stroke-linejoin:round; " d=" M  1249.29,    78.27  L  1249.29,   120.77  L  1283.29,   120.77  L  1283.29,    78.27  L  1249.29,    78.27 " /></a><a ewd:figtype="rb" style="cursor:pointer;" ewd:code="FUSE29" ewd:figID="30"><path style="fill:#CCECF4;stroke:#000000; stroke-width:0; stroke-linecap:round;stroke-linejoin:round; " d=" M  1342.78,    74.02  L  1342.78,    99.52  L  1385.27,    99.52  L  1385.27,    74.02  L  1342.78,    74.02 " /></a><a ewd:figtype="rb" style="cursor:pointer;" ewd:code="FUSE20" ewd:figID="31"><path style="fill:#CCECF4;stroke:#000000; stroke-width:0; stroke-linecap:round;stroke-linejoin:round; " d=" M  1342.78,   116.52  L  1342.78,   142.01  L  1385.27,   142.01  L  1385.27,   116.52  L  1342.78,   116.52 " /></a><a ewd:figtype="rb" style="cursor:pointer;" ewd:code="FUSE23" ewd:figID="32"><path style="fill:#CCECF4;stroke:#000000; stroke-width:0; stroke-linecap:round;stroke-linejoin:round; " d=" M  1342.78,   159.01  L  1342.78,   184.50  L  1385.27,   184.50  L  1385.27,   159.01  L  1342.78,   159.01 " /></a><a ewd:figtype="rb" style="cursor:pointer;" ewd:code="FUSE30" ewd:figID="33"><path style="fill:#CCECF4;stroke:#000000; stroke-width:0; stroke-linecap:round;stroke-linejoin:round; " d=" M  1342.78,   201.50  L  1342.78,   227.00  L  1385.27,   227.00  L  1385.27,   201.50  L  1342.78,   201.50 " /></a><a ewd:figtype="rb" style="cursor:pointer;" ewd:code="2" ewd:figID="34"><path style="fill:#CCECF4;stroke:#000000; stroke-width:0; stroke-linecap:round;stroke-linejoin:round; " d=" M  1249.29,   307.73  L  1249.29,   350.23  L  1283.29,   350.23  L  1283.29,   307.73  L  1249.29,   307.73 " /></a><a ewd:figtype="rb" style="cursor:pointer;" ewd:code="FUSE22" ewd:figID="35"><path style="fill:#CCECF4;stroke:#000000; stroke-width:0; stroke-linecap:round;stroke-linejoin:round; " d=" M  1342.78,   303.48  L  1342.78,   328.98  L  1385.27,   328.98  L  1385.27,   303.48  L  1342.78,   303.48 " /></a><a ewd:figtype="rb" style="cursor:pointer;" ewd:code="FUSE29" ewd:figID="36"><path style="fill:#CCECF4;stroke:#000000; stroke-width:0; stroke-linecap:round;stroke-linejoin:round; " d=" M  1342.78,   345.98  L  1342.78,   371.47  L  1385.27,   371.47  L  1385.27,   345.98  L  1342.78,   345.98 " /></a><a ewd:figtype="rb" style="cursor:pointer;" ewd:code="FUSE32" ewd:figID="37"><path style="fill:#CCECF4;stroke:#000000; stroke-width:0; stroke-linecap:round;stroke-linejoin:round; " d=" M  1342.78,   388.47  L  1342.78,   413.97  L  1385.27,   413.97  L  1385.27,   388.47  L  1342.78,   388.47 " /></a><a ewd:figtype="rb" style="cursor:pointer;" ewd:code="2" ewd:figID="38"><path style="fill:#CCECF4;stroke:#000000; stroke-width:0; stroke-linecap:round;stroke-linejoin:round; " d=" M  1946.17,   384.22  L  1946.17,   426.71  L  1980.17,   426.71  L  1980.17,   384.22  L  1946.17,   384.22 " /></a><a ewd:figtype="rb" style="cursor:pointer;" ewd:code="FUSE3" ewd:figID="39"><path style="fill:#CCECF4;stroke:#000000; stroke-width:0; stroke-linecap:round;stroke-linejoin:round; " d=" M  1946.17,   142.01  L  1946.17,   167.51  L  1988.67,   167.51  L  1988.67,   142.01  L  1946.17,   142.01 " /></a><a ewd:figtype="rb" style="cursor:pointer;" ewd:code="FUSE1" ewd:figID="40"><path style="fill:#CCECF4;stroke:#000000; stroke-width:0; stroke-linecap:round;stroke-linejoin:round; " d=" M  1946.17,    99.52  L  1946.17,   125.01  L  1988.67,   125.01  L  1988.67,    99.52  L  1946.17,    99.52 " /></a><a ewd:figtype="rb" style="cursor:pointer;" ewd:code="FUSE19" ewd:figID="41"><path style="fill:#CCECF4;stroke:#000000; stroke-width:0; stroke-linecap:round;stroke-linejoin:round; " d=" M  1946.17,    57.03  L  1946.17,    82.52  L  1988.67,    82.52  L  1988.67,    57.03  L  1946.17,    57.03 " /></a><a ewd:figtype="rb" style="cursor:pointer;" ewd:code="2" ewd:figID="42"><path style="fill:#CCECF4;stroke:#000000; stroke-width:0; stroke-linecap:round;stroke-linejoin:round; " d=" M  2413.60,   171.76  L  2413.60,   214.25  L  2447.59,   214.25  L  2447.59,   171.76  L  2413.60,   171.76 " /></a><a ewd:figtype="rb" style="cursor:pointer;" ewd:code="2" ewd:figID="43"><path style="fill:#CCECF4;stroke:#000000; stroke-width:0; stroke-linecap:round;stroke-linejoin:round; " d=" M  2413.60,   282.24  L  2413.60,   324.73  L  2447.59,   324.73  L  2447.59,   282.24  L  2413.60,   282.24 " /></a><a ewd:figtype="rb" style="cursor:pointer;" ewd:code="2" ewd:figID="44"><path style="fill:#CCECF4;stroke:#000000; stroke-width:0; stroke-linecap:round;stroke-linejoin:round; " d=" M  2320.11,   579.69  L  2354.11,   579.69  L  2354.11,   596.69  L  2320.11,   596.69  L  2320.11,   579.69 " /></a><a ewd:figtype="rb" style="cursor:pointer;" ewd:code="FUSE5" ewd:figID="45"><path style="fill:#CCECF4;stroke:#000000; stroke-width:0; stroke-linecap:round;stroke-linejoin:round; " d=" M  2430.59,   490.45  L  2430.59,   515.95  L  2473.09,   515.95  L  2473.09,   490.45  L  2430.59,   490.45 " /></a><a ewd:figtype="rb" style="cursor:pointer;" ewd:code="FUSE6" ewd:figID="46"><path style="fill:#CCECF4;stroke:#000000; stroke-width:0; stroke-linecap:round;stroke-linejoin:round; " d=" M  2430.59,   532.95  L  2430.59,   558.44  L  2473.09,   558.44  L  2473.09,   532.95  L  2430.59,   532.95 " /></a><a ewd:figtype="rb" style="cursor:pointer;" ewd:code="FUSE24" ewd:figID="47"><path style="fill:#CCECF4;stroke:#000000; stroke-width:0; stroke-linecap:round;stroke-linejoin:round; " d=" M  2430.59,   575.44  L  2430.59,   600.93  L  2473.09,   600.93  L  2473.09,   575.44  L  2430.59,   575.44 " /></a><a ewd:figtype="rb" style="cursor:pointer;" ewd:code="2" ewd:figID="48"><path style="fill:#CCECF4;stroke:#000000; stroke-width:0; stroke-linecap:round;stroke-linejoin:round; " d=" M  2430.59,   630.68  L  2430.59,   673.17  L  2464.59,   673.17  L  2464.59,   630.68  L  2430.59,   630.68 " /></a><a ewd:figtype="rb" style="cursor:pointer;" ewd:code="FUSE14" ewd:figID="49"><path style="fill:#CCECF4;stroke:#000000; stroke-width:0; stroke-linecap:round;stroke-linejoin:round; " d=" M  2821.53,    48.53  L  2821.53,    74.02  L  2864.02,    74.02  L  2864.02,    48.53  L  2821.53,    48.53 " /></a><a ewd:figtype="rb" style="cursor:pointer;" ewd:code="FUSE15" ewd:figID="50"><path style="fill:#CCECF4;stroke:#000000; stroke-width:0; stroke-linecap:round;stroke-linejoin:round; " d=" M  2821.53,    91.02  L  2821.53,   116.52  L  2864.02,   116.52  L  2864.02,    91.02  L  2821.53,    91.02 " /></a><a ewd:figtype="rb" style="cursor:pointer;" ewd:code="FUSE16" ewd:figID="51"><path style="fill:#CCECF4;stroke:#000000; stroke-width:0; stroke-linecap:round;stroke-linejoin:round; " d=" M  2821.53,   133.51  L  2821.53,   159.01  L  2864.02,   159.01  L  2864.02,   133.51  L  2821.53,   133.51 " /></a><a ewd:figtype="rb" style="cursor:pointer;" ewd:code="FUSE18" ewd:figID="52"><path style="fill:#CCECF4;stroke:#000000; stroke-width:0; stroke-linecap:round;stroke-linejoin:round; " d=" M  2821.53,   235.50  L  2821.53,   260.99  L  2864.02,   260.99  L  2864.02,   235.50  L  2821.53,   235.50 " /></a><a ewd:figtype="rb" style="cursor:pointer;" ewd:code="FUSE17" ewd:figID="53"><path style="fill:#CCECF4;stroke:#000000; stroke-width:0; stroke-linecap:round;stroke-linejoin:round; " d=" M  2821.53,   277.99  L  2821.53,   303.48  L  2864.02,   303.48  L  2864.02,   277.99  L  2821.53,   277.99 " /></a><a ewd:figtype="rb" style="cursor:pointer;" ewd:code="FUSE34" ewd:figID="54"><path style="fill:#CCECF4;stroke:#000000; stroke-width:0; stroke-linecap:round;stroke-linejoin:round; " d=" M  2821.53,   328.98  L  2821.53,   354.48  L  2864.02,   354.48  L  2864.02,   328.98  L  2821.53,   328.98 " /></a><a ewd:figtype="rb" style="cursor:pointer;" ewd:code="FUSE21" ewd:figID="55"><path style="fill:#CCECF4;stroke:#000000; stroke-width:0; stroke-linecap:round;stroke-linejoin:round; " d=" M  2821.53,   371.47  L  2821.53,   396.97  L  2864.02,   396.97  L  2864.02,   371.47  L  2821.53,   371.47 " /></a><a ewd:figtype="conn" style="cursor:pointer;" ewd:code="I19" ewd:figID="56"><path style="fill:#CCECF4;stroke:#000000; stroke-width:1.133; stroke-linecap:round;stroke-linejoin:round; " d=" M   841.36,   418.22  L   841.36,   384.22  L   824.36,   384.22  L   824.36,   418.22  L   841.36,   418.22 " /><title ewd:textID="16">Stop Light Switch Assembly</title></a><a ewd:figtype="jb" style="cursor:pointer;" ewd:code="4" ewd:figID="75"><path style="&st4; " d=" M   212.46,   265.24  L   212.46,   290.74  L   225.21,   290.74  L   225.21,   265.24  L   212.46,   265.24  " /></a><a ewd:figtype="jb" style="cursor:pointer;" ewd:code="4" ewd:figID="76"><path style="&st4; " d=" M   212.46,   307.73  L   212.46,   333.23  L   225.21,   333.23  L   225.21,   307.73  L   212.46,   307.73  " /></a><a ewd:figtype="jb" style="cursor:pointer;" ewd:code="3" ewd:figID="77"><path style="&st4; " d=" M    93.48,    18.78  L    93.48,   231.25  L   339.94,   231.25  L   339.94,    18.78  L    93.48,    18.78  " /></a><a ewd:figtype="fuse" style="cursor:pointer;" ewd:code="FUSE41" ewd:figID="117"><path style="&st7; stroke-width:0;" d=" M   144.48,   201.50  L   144.48,   227.00  L   186.97,   227.00  L   186.97,   201.50  L   144.48,   201.50 " /></a><a ewd:figtype="fuse" style="cursor:pointer;" ewd:code="FUSE40" ewd:figID="118"><path style="&st7; stroke-width:0;" d=" M   144.48,   159.01  L   144.48,   184.50  L   186.97,   184.50  L   186.97,   159.01  L   144.48,   159.01 " /></a><a ewd:figtype="fuse" style="cursor:pointer;" ewd:code="FUSE42,FUSE43" ewd:figID="119"><path style="&st7; stroke-width:0;" d=" M   144.48,   116.52  L   144.48,   142.01  L   186.97,   142.01  L   186.97,   116.52  L   144.48,   116.52 " /></a><a ewd:figtype="fuse" style="cursor:pointer;" ewd:code="FUSE54" ewd:figID="120"><path style="&st7; stroke-width:0;" d=" M   254.96,   651.93  L   254.96,   677.42  L   297.45,   677.42  L   297.45,   651.93  L   254.96,   651.93 " /></a><a ewd:figtype="fuse" style="cursor:pointer;" ewd:code="FUSE57" ewd:figID="121"><path style="&st7; stroke-width:0;" d=" M   254.96,   609.43  L   254.96,   634.93  L   297.45,   634.93  L   297.45,   609.43  L   254.96,   609.43 " /></a><a ewd:figtype="fuse" style="cursor:pointer;" ewd:code="FUSE56" ewd:figID="122"><path style="&st7; stroke-width:0;" d=" M   254.96,   566.94  L   254.96,   592.44  L   297.45,   592.44  L   297.45,   566.94  L   254.96,   566.94 " /></a><a ewd:figtype="fuse" style="cursor:pointer;" ewd:code="FUSE55" ewd:figID="123"><path style="&st7; stroke-width:0;" d=" M   254.96,   524.45  L   254.96,   549.94  L   297.45,   549.94  L   297.45,   524.45  L   254.96,   524.45 " /></a><a ewd:figtype="fuse" style="cursor:pointer;" ewd:code="FUSE51" ewd:figID="124"><path style="&st7; stroke-width:0;" d=" M   254.96,   481.95  L   254.96,   507.45  L   297.45,   507.45  L   297.45,   481.95  L   254.96,   481.95 " /></a><a ewd:figtype="fuse" style="cursor:pointer;" ewd:code="FUSE44" ewd:figID="125"><path style="&st7; stroke-width:0;" d=" M   254.96,   439.46  L   254.96,   464.96  L   297.45,   464.96  L   297.45,   439.46  L   254.96,   439.46 " /></a><a ewd:figtype="fuse" style="cursor:pointer;" ewd:code="FUSE53" ewd:figID="126"><path style="&st7; stroke-width:0;" d=" M   254.96,   396.97  L   254.96,   422.46  L   297.45,   422.46  L   297.45,   396.97  L   254.96,   396.97 " /></a><a ewd:figtype="fuse" style="cursor:pointer;" ewd:code="FUSE47" ewd:figID="127"><path style="&st7; stroke-width:0;" d=" M   254.96,   354.48  L   254.96,   379.97  L   297.45,   379.97  L   297.45,   354.48  L   254.96,   354.48 " /></a><a ewd:figtype="fuse" style="cursor:pointer;" ewd:code="FUSE50" ewd:figID="128"><path style="&st7; stroke-width:0;" d=" M   254.96,   311.98  L   254.96,   337.48  L   297.45,   337.48  L   297.45,   311.98  L   254.96,   311.98 " /></a><a ewd:figtype="fuse" style="cursor:pointer;" ewd:code="FUSE49" ewd:figID="129"><path style="&st7; stroke-width:0;" d=" M   254.96,   269.49  L   254.96,   294.99  L   297.45,   294.99  L   297.45,   269.49  L   254.96,   269.49 " /></a><a ewd:figtype="fuse" style="cursor:pointer;" ewd:code="FUSE36" ewd:figID="130"><path style="&st7; stroke-width:0;" d=" M   254.96,   201.50  L   254.96,   227.00  L   297.45,   227.00  L   297.45,   201.50  L   254.96,   201.50 " /></a><a ewd:figtype="fuse" style="cursor:pointer;" ewd:code="FUSE39" ewd:figID="131"><path style="&st7; stroke-width:0;" d=" M   254.96,   159.01  L   254.96,   184.50  L   297.45,   184.50  L   297.45,   159.01  L   254.96,   159.01 " /></a><a ewd:figtype="fuse" style="cursor:pointer;" ewd:code="FUSE38" ewd:figID="132"><path style="&st7; stroke-width:0;" d=" M   254.96,   116.52  L   254.96,   142.01  L   297.45,   142.01  L   297.45,   116.52  L   254.96,   116.52 " /></a><a ewd:figtype="fuse" style="cursor:pointer;" ewd:code="FUSE37" ewd:figID="133"><path style="&st7; stroke-width:0;" d=" M   254.96,    74.02  L   254.96,    99.52  L   297.45,    99.52  L   297.45,    74.02  L   254.96,    74.02 " /></a><a ewd:figtype="fuse" style="cursor:pointer;" ewd:code="FUSE35" ewd:figID="134"><path style="&st7; stroke-width:0;" d=" M   254.96,    31.53  L   254.96,    57.03  L   297.45,    57.03  L   297.45,    31.53  L   254.96,    31.53 " /></a><a ewd:figtype="fuse" style="cursor:pointer;" ewd:code="FUSE33" ewd:figID="135"><path style="&st7; stroke-width:0;" d=" M   688.38,   439.46  L   688.38,   464.96  L   730.88,   464.96  L   730.88,   439.46  L   688.38,   439.46 " /></a><a ewd:figtype="fuse" style="cursor:pointer;" ewd:code="FUSE2" ewd:figID="136"><path style="&st7; stroke-width:0;" d=" M   688.38,   396.97  L   688.38,   422.46  L   730.88,   422.46  L   730.88,   396.97  L   688.38,   396.97 " /></a><a ewd:figtype="fuse" style="cursor:pointer;" ewd:code="FUSE28" ewd:figID="137"><path style="&st7; stroke-width:0;" d=" M   688.38,   354.48  L   688.38,   379.97  L   730.88,   379.97  L   730.88,   354.48  L   688.38,   354.48 " /></a><a ewd:figtype="fuse" style="cursor:pointer;" ewd:code="FUSE4" ewd:figID="138"><path style="&st7; stroke-width:0;" d=" M   926.35,   243.99  L   926.35,   269.49  L   968.84,   269.49  L   968.84,   243.99  L   926.35,   243.99 " /></a><a ewd:figtype="fuse" style="cursor:pointer;" ewd:code="FUSE27" ewd:figID="139"><path style="&st7; stroke-width:0;" d=" M   939.09,   337.48  L   939.09,   362.97  L   981.59,   362.97  L   981.59,   337.48  L   939.09,   337.48 " /></a><a ewd:figtype="fuse" style="cursor:pointer;" ewd:code="FUSE26" ewd:figID="140"><path style="&st7; stroke-width:0;" d=" M   939.09,   294.99  L   939.09,   320.48  L   981.59,   320.48  L   981.59,   294.99  L   939.09,   294.99 " /></a><a ewd:figtype="fuse" style="cursor:pointer;" ewd:code="FUSE32" ewd:figID="141"><path style="&st7; stroke-width:0;" d=" M  1342.78,   388.47  L  1342.78,   413.97  L  1385.27,   413.97  L  1385.27,   388.47  L  1342.78,   388.47 " /></a><a ewd:figtype="fuse" style="cursor:pointer;" ewd:code="FUSE29" ewd:figID="142"><path style="&st7; stroke-width:0;" d=" M  1342.78,   345.98  L  1342.78,   371.47  L  1385.27,   371.47  L  1385.27,   345.98  L  1342.78,   345.98 " /></a><a ewd:figtype="fuse" style="cursor:pointer;" ewd:code="FUSE22" ewd:figID="143"><path style="&st7; stroke-width:0;" d=" M  1342.78,   303.48  L  1342.78,   328.98  L  1385.27,   328.98  L  1385.27,   303.48  L  1342.78,   303.48 " /></a><a ewd:figtype="fuse" style="cursor:pointer;" ewd:code="FUSE30" ewd:figID="144"><path style="&st7; stroke-width:0;" d=" M  1342.78,   201.50  L  1342.78,   227.00  L  1385.27,   227.00  L  1385.27,   201.50  L  1342.78,   201.50 " /></a><a ewd:figtype="fuse" style="cursor:pointer;" ewd:code="FUSE23" ewd:figID="145"><path style="&st7; stroke-width:0;" d=" M  1342.78,   159.01  L  1342.78,   184.50  L  1385.27,   184.50  L  1385.27,   159.01  L  1342.78,   159.01 " /></a><a ewd:figtype="fuse" style="cursor:pointer;" ewd:code="FUSE20" ewd:figID="146"><path style="&st7; stroke-width:0;" d=" M  1342.78,   116.52  L  1342.78,   142.01  L  1385.27,   142.01  L  1385.27,   116.52  L  1342.78,   116.52 " /></a><a ewd:figtype="fuse" style="cursor:pointer;" ewd:code="FUSE29" ewd:figID="147"><path style="&st7; stroke-width:0;" d=" M  1342.78,    74.02  L  1342.78,    99.52  L  1385.27,    99.52  L  1385.27,    74.02  L  1342.78,    74.02 " /></a><a ewd:figtype="fuse" style="cursor:pointer;" ewd:code="FUSE3" ewd:figID="148"><path style="&st7; stroke-width:0;" d=" M  1946.17,   142.01  L  1946.17,   167.51  L  1988.67,   167.51  L  1988.67,   142.01  L  1946.17,   142.01 " /></a><a ewd:figtype="fuse" style="cursor:pointer;" ewd:code="FUSE1" ewd:figID="149"><path style="&st7; stroke-width:0;" d=" M  1946.17,    99.52  L  1946.17,   125.01  L  1988.67,   125.01  L  1988.67,    99.52  L  1946.17,    99.52 " /></a><a ewd:figtype="fuse" style="cursor:pointer;" ewd:code="FUSE19" ewd:figID="150"><path style="&st7; stroke-width:0;" d=" M  1946.17,    57.03  L  1946.17,    82.52  L  1988.67,    82.52  L  1988.67,    57.03  L  1946.17,    57.03 " /></a><a ewd:figtype="fuse" style="cursor:pointer;" ewd:code="FUSE24" ewd:figID="151"><path style="&st7; stroke-width:0;" d=" M  2430.59,   575.44  L  2430.59,   600.93  L  2473.09,   600.93  L  2473.09,   575.44  L  2430.59,   575.44 " /></a><a ewd:figtype="fuse" style="cursor:pointer;" ewd:code="FUSE6" ewd:figID="152"><path style="&st7; stroke-width:0;" d=" M  2430.59,   532.95  L  2430.59,   558.44  L  2473.09,   558.44  L  2473.09,   532.95  L  2430.59,   532.95 " /></a><a ewd:figtype="fuse" style="cursor:pointer;" ewd:code="FUSE5" ewd:figID="153"><path style="&st7; stroke-width:0;" d=" M  2430.59,   490.45  L  2430.59,   515.95  L  2473.09,   515.95  L  2473.09,   490.45  L  2430.59,   490.45 " /></a><a ewd:figtype="fuse" style="cursor:pointer;" ewd:code="FUSE31" ewd:figID="154"><path style="&st7; stroke-width:0;" d=" M  2821.53,   456.46  L  2821.53,   481.95  L  2864.02,   481.95  L  2864.02,   456.46  L  2821.53,   456.46 " /></a><a ewd:figtype="fuse" style="cursor:pointer;" ewd:code="FUSE25" ewd:figID="155"><path style="&st7; stroke-width:0;" d=" M  2821.53,   413.97  L  2821.53,   439.46  L  2864.02,   439.46  L  2864.02,   413.97  L  2821.53,   413.97 " /></a><a ewd:figtype="fuse" style="cursor:pointer;" ewd:code="FUSE21" ewd:figID="156"><path style="&st7; stroke-width:0;" d=" M  2821.53,   371.47  L  2821.53,   396.97  L  2864.02,   396.97  L  2864.02,   371.47  L  2821.53,   371.47 " /></a><a ewd:figtype="fuse" style="cursor:pointer;" ewd:code="FUSE34" ewd:figID="157"><path style="&st7; stroke-width:0;" d=" M  2821.53,   328.98  L  2821.53,   354.48  L  2864.02,   354.48  L  2864.02,   328.98  L  2821.53,   328.98 " /></a><a ewd:figtype="fuse" style="cursor:pointer;" ewd:code="FUSE17" ewd:figID="158"><path style="&st7; stroke-width:0;" d=" M  2821.53,   277.99  L  2821.53,   303.48  L  2864.02,   303.48  L  2864.02,   277.99  L  2821.53,   277.99 " /></a><a ewd:figtype="fuse" style="cursor:pointer;" ewd:code="FUSE18" ewd:figID="159"><path style="&st7; stroke-width:0;" d=" M  2821.53,   235.50  L  2821.53,   260.99  L  2864.02,   260.99  L  2864.02,   235.50  L  2821.53,   235.50 " /></a><a ewd:figtype="fuse" style="cursor:pointer;" ewd:code="FUSE16" ewd:figID="160"><path style="&st7; stroke-width:0;" d=" M  2821.53,   133.51  L  2821.53,   159.01  L  2864.02,   159.01  L  2864.02,   133.51  L  2821.53,   133.51 " /></a><a ewd:figtype="fuse" style="cursor:pointer;" ewd:code="FUSE15" ewd:figID="161"><path style="&st7; stroke-width:0;" d=" M  2821.53,    91.02  L  2821.53,   116.52  L  2864.02,   116.52  L  2864.02,    91.02  L  2821.53,    91.02 " /></a><a ewd:figtype="fuse" style="cursor:pointer;" ewd:code="FUSE14" ewd:figID="162"><path style="&st7; stroke-width:0;" d=" M  2821.53,    48.53  L  2821.53,    74.02  L  2864.02,    74.02  L  2864.02,    48.53  L  2821.53,    48.53 " /></a><a ewd:figtype="fuse" style="cursor:pointer;" ewd:code="FUSE10" ewd:figID="163"><path style="&st7; stroke-width:0;" d=" M  2966.00,   668.92  L  2966.00,   694.42  L  3008.50,   694.42  L  3008.50,   668.92  L  2966.00,   668.92 " /></a><a ewd:figtype="fuse" style="cursor:pointer;" ewd:code="FUSE11" ewd:figID="164"><path style="&st7; stroke-width:0;" d=" M  2966.00,   626.43  L  2966.00,   651.93  L  3008.50,   651.93  L  3008.50,   626.43  L  2966.00,   626.43 " /></a><a ewd:figtype="fuse" style="cursor:pointer;" ewd:code="FUSE12" ewd:figID="165"><path style="&st7; stroke-width:0;" d=" M  2966.00,   583.94  L  2966.00,   609.43  L  3008.50,   609.43  L  3008.50,   583.94  L  2966.00,   583.94 " /></a><a ewd:figtype="fuse" style="cursor:pointer;" ewd:code="FUSE13" ewd:figID="166"><path style="&st7; stroke-width:0;" d=" M  2966.00,   541.44  L  2966.00,   566.94  L  3008.50,   566.94  L  3008.50,   541.44  L  2966.00,   541.44 " /></a><a ewd:comment="5" style="cursor:pointer;" ewd:lineID="1"><path style="stroke:#000000;stroke-width:5.10 ;&st6;" d=" M    50.99,   597.25  L    50.99,   605.18  L    42.49,   613.68  L    17.00,   613.68  L    17.00,   681.67  " /><path style="stroke:#FFFFFF;stroke-width:2.27 ;&st6;" d=" M    50.99,   597.25  L    50.99,   605.18  L    42.49,   613.68  L    17.00,   613.68  L    17.00,   681.67  " /><path style="stroke:#666666;stroke-width:1.13 ;&st6;" d=" M    50.99,   597.25  L    50.99,   605.18  L    42.49,   613.68  L    17.00,   613.68  L    17.00,   681.67  " /></a><a ewd:comment="5" style="cursor:pointer;" ewd:lineID="2"><path style="stroke:#000000;stroke-width:5.10 ;&st6;" d=" M    50.99,   597.25  L    50.99,   681.67  " /><path style="stroke:#FFFFFF;stroke-width:2.27 ;&st6;" d=" M    50.99,   597.25  L    50.99,   681.67  " /><path style="stroke:#666666;stroke-width:1.13 ;&st6;" d=" M    50.99,   597.25  L    50.99,   681.67  " /></a><a ewd:comment="3" style="cursor:pointer;" ewd:lineID="3"><path style="stroke:#000000;stroke-width:5.10 ;&st6;" d=" M    50.99,   469.77  L    50.99,   486.20  L   127.48,   486.20  L   127.48,   519.63  " /></a><a ewd:comment="3" style="cursor:pointer;" ewd:lineID="4"><path style="stroke:#000000;stroke-width:5.10 ;&st6;" d=" M    50.99,   341.73  L    50.99,   299.24  L   195.47,   299.24  L   195.47,   316.23  L   203.97,   324.73  L   212.46,   324.73  " /><path style="stroke:#FFFFFF;stroke-width:2.27 ;&st6;" d=" M    50.99,   341.73  L    50.99,   299.24  L   195.47,   299.24  L   195.47,   316.23  L   203.97,   324.73  L   212.46,   324.73  " /><path style="stroke:#00A0C6;stroke-width:1.13 ;&st6;" d=" M    50.99,   341.73  L    50.99,   299.24  L   195.47,   299.24  L   195.47,   316.23  L   203.97,   324.73  L   212.46,   324.73  " /></a><a ewd:comment="1" style="cursor:pointer;" ewd:lineID="5"><path style="stroke:#000000;stroke-width:5.10 ;&st6;" d=" M   101.98,   597.25  L   101.98,   681.67  " /><path style="stroke:#FFFFFF;stroke-width:2.27 ;&st6;" d=" M   101.98,   597.25  L   101.98,   681.67  " /><path style="stroke:#666666;stroke-width:1.13 ;&st6;" d=" M   101.98,   597.25  L   101.98,   681.67  " /></a><a ewd:comment="5" style="cursor:pointer;" ewd:lineID="6"><path style="stroke:#000000;stroke-width:5.10 ;&st6;" d=" M   101.98,   519.63  L   101.98,   503.20  L    50.99,   503.20  L    50.99,   519.63  " /></a><a style="cursor:pointer;" ewd:lineID="7"><path style="stroke:#000000;stroke-width:5.10 ;&st6;" d=" M   152.97,   597.25  L   152.97,   681.67  " /><path style="stroke:#FFFFFF;stroke-width:2.27 ;&st6;" d=" M   152.97,   597.25  L   152.97,   681.67  " /><path style="stroke:#666666;stroke-width:1.13 ;&st6;" d=" M   152.97,   597.25  L   152.97,   681.67  " /></a><a ewd:comment="3,9" style="cursor:pointer;" ewd:lineID="8"><path style="stroke:#000000;stroke-width:5.10 ;&st6;" d=" M   186.97,   597.25  L   186.97,   681.67  " /><path style="stroke:#FFFFFF;stroke-width:2.27 ;&st6;" d=" M   186.97,   597.25  L   186.97,   681.67  " /><path style="stroke:#666666;stroke-width:1.13 ;&st6;" d=" M   186.97,   597.25  L   186.97,   681.67  " /></a><a ewd:comment="4,5" style="cursor:pointer;" ewd:lineID="9"><path style="stroke:#000000;stroke-width:5.10 ;&st6;" d=" M   212.46,   324.73  L   152.97,   324.73  L   152.97,   401.22  " /><path style="stroke:#FFFFFF;stroke-width:2.27 ;&st6;" d=" M   212.46,   324.73  L   152.97,   324.73  L   152.97,   401.22  " /><path style="stroke:#00A0C6;stroke-width:1.13 ;&st6;" d=" M   212.46,   324.73  L   152.97,   324.73  L   152.97,   401.22  " /></a><a style="cursor:pointer;" ewd:lineID="10"><path style="stroke:#000000;stroke-width:5.10 ;&st6;" d=" M   212.46,   282.24  L    76.49,   282.24  L    76.49,   129.26  L    93.48,   129.26  " /><path style="stroke:#FFFFFF;stroke-width:2.27 ;&st6;" d=" M   212.46,   282.24  L    76.49,   282.24  L    76.49,   129.26  L    93.48,   129.26  " /><path style="stroke:#00A0C6;stroke-width:1.13 ;&st6;" d=" M   212.46,   282.24  L    76.49,   282.24  L    76.49,   129.26  L    93.48,   129.26  " /></a><a style="cursor:pointer;" ewd:lineID="11"><path style="stroke:#000000;stroke-width:5.10 ;&st6;" d=" M   331.44,   622.18  L   424.93,   622.18  " /><path style="stroke:#FFFFFF;stroke-width:4.53 ;&st6;" d=" M   331.44,   622.18  L   424.93,   622.18  " /><path style="stroke:#00A0C6;stroke-width:1.13 ;&st6;" d=" M   331.44,   622.18  L   424.93,   622.18  " /></a><a style="cursor:pointer;" ewd:lineID="12"><path style="stroke:#FF0000;stroke-width:5.10 ;&st6;" d=" M   331.44,   579.69  L   424.93,   579.69  " /></a><a style="cursor:pointer;" ewd:lineID="13"><path style="stroke:#00A0C6;stroke-width:5.10 ;&st6;" d=" M   331.44,   537.20  L   373.94,   537.20  " /></a><a style="cursor:pointer;" ewd:lineID="14"> d=" M   339.94,   214.25  L   373.94,   214.25  L   373.94,   452.21  L   424.93,   452.21 
	
		<path style="stroke:#000000;stroke-width:5.10 ;&st6;" d=" M   339.94,   214.25  L   373.94,   214.25  L   373.94,   452.21  L   424.93,   452.21  " /><path style="stroke:#FFFFFF;stroke-width:4.53 ;&st6;" d=" M   339.94,   214.25  L   373.94,   214.25  L   373.94,   452.21  L   424.93,   452.21  " /></a><a style="cursor:pointer;" ewd:lineID="15"><path style="stroke:#000000;stroke-width:5.10 ;&st6;" d=" M   339.94,   171.76  L   390.93,   171.76  L   390.93,   282.24  L   424.93,   282.24  " /><path style="stroke:#FFFFFF;stroke-width:4.53 ;&st6;" d=" M   339.94,   171.76  L   390.93,   171.76  L   390.93,   282.24  L   424.93,   282.24  " /><path style="stroke:#FF0000;stroke-width:1.13 ;&st6;" d=" M   339.94,   171.76  L   390.93,   171.76  L   390.93,   282.24  L   424.93,   282.24  " /></a><a style="cursor:pointer;" ewd:lineID="16"><path style="stroke:#00A0C6;stroke-width:5.10 ;&st6;" d=" M   339.94,    86.77  L   424.93,    86.77  " /><path style="stroke:#FFFFFF;stroke-width:2.27 ;&st6;" d=" M   339.94,    86.77  L   424.93,    86.77  " /><path style="stroke:#FF0000;stroke-width:1.13 ;&st6;" d=" M   339.94,    86.77  L   424.93,    86.77  " /></a><a style="cursor:pointer;" ewd:lineID="17"><path style="stroke:#000000;stroke-width:5.10 ;&st6;" d=" M   339.94,    44.28  L   407.93,    44.28  " /><path style="stroke:#FFFFFF;stroke-width:2.27 ;&st6;" d=" M   339.94,    44.28  L   407.93,    44.28  " /><path style="stroke:#00A0C6;stroke-width:1.13 ;&st6;" d=" M   339.94,    44.28  L   407.93,    44.28  " /></a><a style="cursor:pointer;" ewd:lineID="18"><path style="stroke:#00A0C6;stroke-width:5.10 ;&st6;" d=" M   390.93,   537.20  L   424.93,   537.20  " /></a><a style="cursor:pointer;" ewd:lineID="19"><path style="stroke:#FF0000;stroke-width:5.10 ;&st6;" d=" M   424.93,   222.75  L   407.93,   222.75  L   407.93,   129.26  L   339.94,   129.26  " /><path style="stroke:#FFFFFF;stroke-width:2.27 ;&st6;" d=" M   424.93,   222.75  L   407.93,   222.75  L   407.93,   129.26  L   339.94,   129.26  " /><path style="stroke:#000000;stroke-width:1.13 ;&st6;" d=" M   424.93,   222.75  L   407.93,   222.75  L   407.93,   129.26  L   339.94,   129.26  " /></a><a ewd:comment="3" style="cursor:pointer;" ewd:lineID="20"><path style="stroke:#00A0C6;stroke-width:5.10 ;&st6;" d=" M   448.16,   537.20  L  1453.26,   537.20  " /></a><a ewd:comment="8" style="cursor:pointer;" ewd:lineID="21"><path style="stroke:#00A0C6;stroke-width:5.10 ;&st6;" d=" M   448.16,   537.20  L   450.42,   537.20  L   458.92,   528.70  L   458.92,   511.70  L  1436.26,   511.70  L  1436.26,   120.77  L  1478.75,   120.77  L  1478.75,   129.26  L  1487.25,   137.76  L  1495.75,   137.76  " /></a><a style="cursor:pointer;" ewd:lineID="22"><path style="stroke:#000000;stroke-width:5.10 ;&st6;" d=" M   448.16,   282.24  L   637.39,   282.24  " /><path style="stroke:#FFFFFF;stroke-width:4.53 ;&st6;" d=" M   448.16,   282.24  L   637.39,   282.24  " /><path style="stroke:#FF0000;stroke-width:1.13 ;&st6;" d=" M   448.16,   282.24  L   637.39,   282.24  " /></a><a ewd:comment="8" style="cursor:pointer;" ewd:lineID="23"> d=" M   465.44,   452.21  L   577.90,   452.21 
	
		<path style="stroke:#000000;stroke-width:5.10 ;&st6;" d=" M   465.44,   452.21  L   577.90,   452.21  " /><path style="stroke:#FFFFFF;stroke-width:4.53 ;&st6;" d=" M   465.44,   452.21  L   577.90,   452.21  " /></a><a ewd:comment="3" style="cursor:pointer;" ewd:lineID="24"> d=" M   465.44,   452.21  L   467.42,   452.21  L   475.92,   460.71  L   475.92,   477.71  L   620.40,   477.71  L   620.40,   460.71  L   628.89,   452.21  L   637.39,   452.21 
	
		<path style="stroke:#000000;stroke-width:5.10 ;&st6;" d=" M   465.44,   452.21  L   467.42,   452.21  L   475.92,   460.71  L   475.92,   477.71  L   620.40,   477.71  L   620.40,   460.71  L   628.89,   452.21  L   637.39,   452.21  " /><path style="stroke:#FFFFFF;stroke-width:4.53 ;&st6;" d=" M   465.44,   452.21  L   467.42,   452.21  L   475.92,   460.71  L   475.92,   477.71  L   620.40,   477.71  L   620.40,   460.71  L   628.89,   452.21  L   637.39,   452.21  " /></a><a ewd:comment="8" style="cursor:pointer;" ewd:lineID="25"><path style="stroke:#FF0000;stroke-width:5.10 ;&st6;" d=" M   465.44,   222.75  L  1121.81,   222.75  L  1121.81,   316.23  L  1215.30,   316.23  " /><path style="stroke:#FFFFFF;stroke-width:2.27 ;&st6;" d=" M   465.44,   222.75  L  1121.81,   222.75  L  1121.81,   316.23  L  1215.30,   316.23  " /><path style="stroke:#000000;stroke-width:1.13 ;&st6;" d=" M   465.44,   222.75  L  1121.81,   222.75  L  1121.81,   316.23  L  1215.30,   316.23  " /></a><a style="cursor:pointer;" ewd:lineID="26"><path style="stroke:#00A0C6;stroke-width:5.10 ;&st6;" d=" M   465.44,    86.77  L  1096.32,    86.77  " /><path style="stroke:#FFFFFF;stroke-width:2.27 ;&st6;" d=" M   465.44,    86.77  L  1096.32,    86.77  " /><path style="stroke:#FF0000;stroke-width:1.13 ;&st6;" d=" M   465.44,    86.77  L  1096.32,    86.77  " /></a><a style="cursor:pointer;" ewd:lineID="27"><path style="stroke:#000000;stroke-width:5.10 ;&st6;" d=" M   465.44,    44.28  L  1487.25,    44.28  " /><path style="stroke:#FFFFFF;stroke-width:2.27 ;&st6;" d=" M   465.44,    44.28  L  1487.25,    44.28  " /><path style="stroke:#00A0C6;stroke-width:1.13 ;&st6;" d=" M   465.44,    44.28  L  1487.25,    44.28  " /></a><a ewd:comment="8" style="cursor:pointer;" ewd:lineID="28"> d=" M   594.90,   452.21  L   637.39,   452.21 
	
		<path style="stroke:#000000;stroke-width:5.10 ;&st6;" d=" M   594.90,   452.21  L   637.39,   452.21  " /><path style="stroke:#FFFFFF;stroke-width:4.53 ;&st6;" d=" M   594.90,   452.21  L   637.39,   452.21  " /></a><a ewd:comment="8" style="cursor:pointer;" ewd:lineID="29"> d=" M   637.39,   367.22  L   586.40,   367.22  L   586.40,   443.71 
	
		<path style="stroke:#000000;stroke-width:5.10 ;&st6;" d=" M   637.39,   367.22  L   586.40,   367.22  L   586.40,   443.71  " /><path style="stroke:#FFFFFF;stroke-width:4.53 ;&st6;" d=" M   637.39,   367.22  L   586.40,   367.22  L   586.40,   443.71  " /></a><a style="cursor:pointer;" ewd:lineID="30"><path style="stroke:#00A0C6;stroke-width:5.10 ;&st6;" d=" M   756.37,   282.24  L   798.87,   282.24  " /></a><a style="cursor:pointer;" ewd:lineID="31"><path style="stroke:#008837;stroke-width:5.10 ;&st6;" d=" M   781.87,   452.21  L   832.86,   452.21  L   832.86,   436.35  " /><path style="stroke:#FFFFFF;stroke-width:2.27 ;&st6;" d=" M   781.87,   452.21  L   832.86,   452.21  L   832.86,   436.35  " /><path style="stroke:#FFE600;stroke-width:1.13 ;&st6;" d=" M   781.87,   452.21  L   832.86,   452.21  L   832.86,   436.35  " /></a><a style="cursor:pointer;" ewd:lineID="32"><path style="stroke:#00A0C6;stroke-width:5.10 ;&st6;" d=" M   807.37,   273.74  L   807.37,   256.74  L   875.35,   256.74  " /></a><a style="cursor:pointer;" ewd:lineID="33"><path style="stroke:#008837;stroke-width:5.10 ;&st6;" d=" M   871.10,   350.23  L   832.86,   350.23  L   832.86,   366.09  " /></a><a style="cursor:pointer;" ewd:lineID="34"><path style="stroke:#00A0C6;stroke-width:5.10 ;&st6;" d=" M  1104.82,    95.27  L  1104.82,   494.70  L  2277.62,   494.70  L  2277.62,   452.21  L  2728.04,   452.21  L  2728.04,   384.22  L  2753.54,   384.22  " /><path style="stroke:#FFFFFF;stroke-width:2.27 ;&st6;" d=" M  1104.82,    95.27  L  1104.82,   494.70  L  2277.62,   494.70  L  2277.62,   452.21  L  2728.04,   452.21  L  2728.04,   384.22  L  2753.54,   384.22  " /><path style="stroke:#FF0000;stroke-width:1.13 ;&st6;" d=" M  1104.82,    95.27  L  1104.82,   494.70  L  2277.62,   494.70  L  2277.62,   452.21  L  2728.04,   452.21  L  2728.04,   384.22  L  2753.54,   384.22  " /></a><a style="cursor:pointer;" ewd:lineID="35"><path style="stroke:#00A0C6;stroke-width:5.10 ;&st6;" d=" M  1113.31,    86.77  L  1215.30,    86.77  " /><path style="stroke:#FFFFFF;stroke-width:2.27 ;&st6;" d=" M  1113.31,    86.77  L  1215.30,    86.77  " /><path style="stroke:#FF0000;stroke-width:1.13 ;&st6;" d=" M  1113.31,    86.77  L  1215.30,    86.77  " /></a><a style="cursor:pointer;" ewd:lineID="36"><path style="stroke:#000000;stroke-width:5.10 ;&st6;" d=" M  1155.81,   681.67  L  1155.81,   571.19  " /><path style="stroke:#FFFFFF;stroke-width:4.53 ;&st6;" d=" M  1155.81,   681.67  L  1155.81,   571.19  " /><path style="stroke:#000000;stroke-width:1.13 ;&st6;" d=" M  1155.81,   681.67  L  1155.81,   571.19  " /></a><a style="cursor:pointer;" ewd:lineID="37"><path style="stroke:#000000;stroke-width:5.10 ;&st6;" d=" M  1155.81,   554.19  L  1155.81,   452.21  " /><path style="stroke:#FFFFFF;stroke-width:4.53 ;&st6;" d=" M  1155.81,   554.19  L  1155.81,   452.21  " /><path style="stroke:#000000;stroke-width:1.13 ;&st6;" d=" M  1155.81,   554.19  L  1155.81,   452.21  " /></a><a style="cursor:pointer;" ewd:lineID="38"><path style="stroke:#000000;stroke-width:5.10 ;&st6;" d=" M  1155.81,   435.21  L  1155.81,   375.72  " /><path style="stroke:#FFFFFF;stroke-width:4.53 ;&st6;" d=" M  1155.81,   435.21  L  1155.81,   375.72  " /><path style="stroke:#000000;stroke-width:1.13 ;&st6;" d=" M  1155.81,   435.21  L  1155.81,   375.72  " /></a><a style="cursor:pointer;" ewd:lineID="39"><path style="stroke:#000000;stroke-width:5.10 ;&st6;" d=" M  1155.81,   358.73  L  1155.81,   137.76  L  1215.30,   137.76  " /><path style="stroke:#FFFFFF;stroke-width:4.53 ;&st6;" d=" M  1155.81,   358.73  L  1155.81,   137.76  L  1215.30,   137.76  " /><path style="stroke:#000000;stroke-width:1.13 ;&st6;" d=" M  1155.81,   358.73  L  1155.81,   137.76  L  1215.30,   137.76  " /></a><a ewd:comment="3" style="cursor:pointer;" ewd:lineID="40"><path style="stroke:#000000;stroke-width:5.10 ;&st6;" d=" M  1164.31,   562.69  L  2192.63,   562.69  L  2192.63,   231.25  L  2379.60,   231.25  " /><path style="stroke:#FFFFFF;stroke-width:4.53 ;&st6;" d=" M  1164.31,   562.69  L  2192.63,   562.69  L  2192.63,   231.25  L  2379.60,   231.25  " /><path style="stroke:#000000;stroke-width:1.13 ;&st6;" d=" M  1164.31,   562.69  L  2192.63,   562.69  L  2192.63,   231.25  L  2379.60,   231.25  " /></a><a ewd:comment="3" style="cursor:pointer;" ewd:lineID="41"><path style="stroke:#000000;stroke-width:5.10 ;&st6;" d=" M  1164.31,   443.71  L  1886.68,   443.71  " /><path style="stroke:#FFFFFF;stroke-width:4.53 ;&st6;" d=" M  1164.31,   443.71  L  1886.68,   443.71  " /><path style="stroke:#000000;stroke-width:1.13 ;&st6;" d=" M  1164.31,   443.71  L  1886.68,   443.71  " /></a><a ewd:comment="8" style="cursor:pointer;" ewd:lineID="42"><path style="stroke:#000000;stroke-width:5.10 ;&st6;" d=" M  1215.30,   367.22  L  1164.31,   367.22  " /><path style="stroke:#FFFFFF;stroke-width:4.53 ;&st6;" d=" M  1215.30,   367.22  L  1164.31,   367.22  " /><path style="stroke:#000000;stroke-width:1.13 ;&st6;" d=" M  1215.30,   367.22  L  1164.31,   367.22  " /></a><a ewd:comment="8" style="cursor:pointer;" ewd:lineID="43"> d=" M  1215.30,   341.73  L  1172.80,   341.73  L  1172.80,   265.24 
	
		<path style="stroke:#000000;stroke-width:5.10 ;&st6;" d=" M  1215.30,   341.73  L  1172.80,   341.73  L  1172.80,   265.24  " /><path style="stroke:#FFFFFF;stroke-width:4.53 ;&st6;" d=" M  1215.30,   341.73  L  1172.80,   341.73  L  1172.80,   265.24  " /></a><a ewd:comment="8" style="cursor:pointer;" ewd:lineID="44"> d=" M  1215.30,   112.27  L  1172.80,   112.27  L  1172.80,   248.24 
	
		<path style="stroke:#000000;stroke-width:5.10 ;&st6;" d=" M  1215.30,   112.27  L  1172.80,   112.27  L  1172.80,   248.24  " /><path style="stroke:#FFFFFF;stroke-width:4.53 ;&st6;" d=" M  1215.30,   112.27  L  1172.80,   112.27  L  1172.80,   248.24  " /></a><a ewd:comment="3" style="cursor:pointer;" ewd:lineID="45"> d=" M  1215.30,   112.27  L  1206.80,   112.27  L  1198.30,   120.77  L  1198.30,   239.75  L  1784.70,   239.75  L  1784.70,   112.27  L  1776.20,   103.77  L  1767.70,   103.77 
	
		<path style="stroke:#000000;stroke-width:5.10 ;&st6;" d=" M  1215.30,   112.27  L  1206.80,   112.27  L  1198.30,   120.77  L  1198.30,   239.75  L  1784.70,   239.75  L  1784.70,   112.27  L  1776.20,   103.77  L  1767.70,   103.77  " /><path style="stroke:#FFFFFF;stroke-width:4.53 ;&st6;" d=" M  1215.30,   112.27  L  1206.80,   112.27  L  1198.30,   120.77  L  1198.30,   239.75  L  1784.70,   239.75  L  1784.70,   112.27  L  1776.20,   103.77  L  1767.70,   103.77  " /></a><a ewd:comment="3" style="cursor:pointer;" ewd:lineID="46"><path style="stroke:#00A0C6;stroke-width:5.10 ;&st6;" d=" M  1461.76,   528.70  L  1461.76,   137.76  L  1495.75,   137.76  " /></a><a style="cursor:pointer;" ewd:lineID="47"><path style="stroke:#00A0C6;stroke-width:5.10 ;&st6;" d=" M  1518.98,   137.76  L  1614.73,   137.76  " /></a><a style="cursor:pointer;" ewd:lineID="48"><path style="stroke:#000000;stroke-width:5.10 ;&st6;" d=" M  1614.73,    86.77  L  1597.73,    86.77  L  1597.73,    44.28  L  1510.76,    44.28  " /><path style="stroke:#FFFFFF;stroke-width:2.27 ;&st6;" d=" M  1614.73,    86.77  L  1597.73,    86.77  L  1597.73,    44.28  L  1510.76,    44.28  " /><path style="stroke:#00A0C6;stroke-width:1.13 ;&st6;" d=" M  1614.73,    86.77  L  1597.73,    86.77  L  1597.73,    44.28  L  1510.76,    44.28  " /></a><a style="cursor:pointer;" ewd:lineID="49"><path style="stroke:#008837;stroke-width:5.10 ;&st6;" d=" M  1674.22,   137.76  L  1691.22,   137.76  L  1691.22,   180.26  L  1744.48,   180.26  " /></a><a style="cursor:pointer;" ewd:lineID="50"><path style="stroke:#000000;stroke-width:5.10 ;&st6;" d=" M  1674.22,   103.77  L  1708.21,   103.77  L  1708.21,   154.76  L  1744.48,   154.76  " /></a><a style="cursor:pointer;" ewd:lineID="51"> d=" M  1674.22,    86.77  L  1725.21,    86.77  L  1725.21,   103.77  L  1744.19,   103.77 
	
		<path style="stroke:#000000;stroke-width:5.10 ;&st6;" d=" M  1674.22,    86.77  L  1725.21,    86.77  L  1725.21,   103.77  L  1744.19,   103.77  " /><path style="stroke:#FFFFFF;stroke-width:4.53 ;&st6;" d=" M  1674.22,    86.77  L  1725.21,    86.77  L  1725.21,   103.77  L  1744.19,   103.77  " /></a><a style="cursor:pointer;" ewd:lineID="52"><path style="stroke:#FF0000;stroke-width:5.10 ;&st6;" d=" M  1674.22,    69.77  L  1744.19,    69.77  " /><path style="stroke:#FFFFFF;stroke-width:2.27 ;&st6;" d=" M  1674.22,    69.77  L  1744.19,    69.77  " /><path style="stroke:#008837;stroke-width:1.13 ;&st6;" d=" M  1674.22,    69.77  L  1744.19,    69.77  " /></a><a style="cursor:pointer;" ewd:lineID="53"><path style="stroke:#000000;stroke-width:5.10 ;&st6;" d=" M  1767.70,   154.76  L  1886.68,   154.76  " /></a><a ewd:comment="8" style="cursor:pointer;" ewd:lineID="54"> d=" M  1767.70,   103.77  L  1810.20,   103.77  L  1810.20,   256.74  L  1181.30,   256.74 
	
		<path style="stroke:#000000;stroke-width:5.10 ;&st6;" d=" M  1767.70,   103.77  L  1810.20,   103.77  L  1810.20,   256.74  L  1181.30,   256.74  " /><path style="stroke:#FFFFFF;stroke-width:4.53 ;&st6;" d=" M  1767.70,   103.77  L  1810.20,   103.77  L  1810.20,   256.74  L  1181.30,   256.74  " /></a><a ewd:comment="8" style="cursor:pointer;" ewd:lineID="55"><path style="stroke:#FF0000;stroke-width:5.10 ;&st6;" d=" M  1767.70,    69.77  L  1827.19,    69.77  " /><path style="stroke:#FFFFFF;stroke-width:2.27 ;&st6;" d=" M  1767.70,    69.77  L  1827.19,    69.77  " /><path style="stroke:#008837;stroke-width:1.13 ;&st6;" d=" M  1767.70,    69.77  L  1827.19,    69.77  " /></a><a ewd:comment="8" style="cursor:pointer;" ewd:lineID="56"><path style="stroke:#FF0000;stroke-width:5.10 ;&st6;" d=" M  1844.19,    69.77  L  1886.68,    69.77  " /><path style="stroke:#FFFFFF;stroke-width:2.27 ;&st6;" d=" M  1844.19,    69.77  L  1886.68,    69.77  " /><path style="stroke:#008837;stroke-width:1.13 ;&st6;" d=" M  1844.19,    69.77  L  1886.68,    69.77  " /></a><a ewd:comment="3" style="cursor:pointer;" ewd:lineID="57"><path style="stroke:#FF0000;stroke-width:5.10 ;&st6;" d=" M  1886.68,   418.22  L  1844.19,   418.22  L  1844.19,    86.77  L  1793.20,    86.77  L  1776.20,    69.77  L  1767.70,    69.77  " /><path style="stroke:#FFFFFF;stroke-width:2.27 ;&st6;" d=" M  1886.68,   418.22  L  1844.19,   418.22  L  1844.19,    86.77  L  1793.20,    86.77  L  1776.20,    69.77  L  1767.70,    69.77  " /><path style="stroke:#008837;stroke-width:1.13 ;&st6;" d=" M  1886.68,   418.22  L  1844.19,   418.22  L  1844.19,    86.77  L  1793.20,    86.77  L  1776.20,    69.77  L  1767.70,    69.77  " /></a><a ewd:comment="3" style="cursor:pointer;" ewd:lineID="58"><path style="stroke:#FF0000;stroke-width:5.10 ;&st6;" d=" M  1886.68,   392.72  L  1810.20,   392.72  L  1810.20,   282.24  L  1138.81,   282.24  L  1138.81,   197.25  L   475.92,   197.25  L   475.92,   214.25  L   467.42,   222.75  L   465.44,   222.75  " /><path style="stroke:#FFFFFF;stroke-width:2.27 ;&st6;" d=" M  1886.68,   392.72  L  1810.20,   392.72  L  1810.20,   282.24  L  1138.81,   282.24  L  1138.81,   197.25  L   475.92,   197.25  L   475.92,   214.25  L   467.42,   222.75  L   465.44,   222.75  " /><path style="stroke:#000000;stroke-width:1.13 ;&st6;" d=" M  1886.68,   392.72  L  1810.20,   392.72  L  1810.20,   282.24  L  1138.81,   282.24  L  1138.81,   197.25  L   475.92,   197.25  L   475.92,   214.25  L   467.42,   222.75  L   465.44,   222.75  " /></a><a style="cursor:pointer;" ewd:lineID="59"><path style="stroke:#000000;stroke-width:5.10 ;&st6;" d=" M  2328.61,   290.74  L  2252.12,   290.74  L  2252.12,   588.19  L  2269.12,   588.19  " /><path style="stroke:#FFFFFF;stroke-width:4.53 ;&st6;" d=" M  2328.61,   290.74  L  2252.12,   290.74  L  2252.12,   588.19  L  2269.12,   588.19  " /><path style="stroke:#00A0C6;stroke-width:1.13 ;&st6;" d=" M  2328.61,   290.74  L  2252.12,   290.74  L  2252.12,   588.19  L  2269.12,   588.19  " /></a><a style="cursor:pointer;" ewd:lineID="60"><path style="stroke:#000000;stroke-width:5.10 ;&st6;" d=" M  2331.10,   296.75  L  2311.61,   316.23  L  2311.61,   469.21  L  2753.54,   469.21  " /><path style="stroke:#FFFFFF;stroke-width:4.53 ;&st6;" d=" M  2331.10,   296.75  L  2311.61,   316.23  L  2311.61,   469.21  L  2753.54,   469.21  " /><path style="stroke:#00A0C6;stroke-width:1.13 ;&st6;" d=" M  2331.10,   296.75  L  2311.61,   316.23  L  2311.61,   469.21  L  2753.54,   469.21  " /></a><a style="cursor:pointer;" ewd:lineID="61"><path style="stroke:#000000;stroke-width:5.10 ;&st6;" d=" M  2337.11,   282.24  L  2337.11,   265.24  L  2226.63,   265.24  L  2226.63,   622.18  L   448.16,   622.18  " /><path style="stroke:#FFFFFF;stroke-width:4.53 ;&st6;" d=" M  2337.11,   282.24  L  2337.11,   265.24  L  2226.63,   265.24  L  2226.63,   622.18  L   448.16,   622.18  " /><path style="stroke:#00A0C6;stroke-width:1.13 ;&st6;" d=" M  2337.11,   282.24  L  2337.11,   265.24  L  2226.63,   265.24  L  2226.63,   622.18  L   448.16,   622.18  " /></a><a style="cursor:pointer;" ewd:lineID="62"><path style="stroke:#000000;stroke-width:5.10 ;&st6;" d=" M  2345.61,   290.74  L  2379.60,   290.74  " /><path style="stroke:#FFFFFF;stroke-width:4.53 ;&st6;" d=" M  2345.61,   290.74  L  2379.60,   290.74  " /><path style="stroke:#00A0C6;stroke-width:1.13 ;&st6;" d=" M  2345.61,   290.74  L  2379.60,   290.74  " /></a><a style="cursor:pointer;" ewd:lineID="63"><path style="stroke:#FF0000;stroke-width:5.10 ;&st6;" d=" M  2354.11,   664.67  L  1852.69,   664.67  L  1852.69,   579.69  L   448.16,   579.69  " /></a><a ewd:comment="3" style="cursor:pointer;" ewd:lineID="64"><path style="stroke:#008837;stroke-width:5.10 ;&st6;" d=" M  2379.60,   205.75  L  2269.12,   205.75  L  2269.12,   120.77  L  2456.09,   120.77  L  2467.07,   109.78  " /></a><a ewd:comment="3" style="cursor:pointer;" ewd:lineID="65"><path style="stroke:#00A0C6;stroke-width:5.10 ;&st6;" d=" M  2379.60,   180.26  L  2158.64,   180.26  L  2158.64,   537.20  L  1470.25,   537.20  " /></a><a style="cursor:pointer;" ewd:lineID="66"><path style="stroke:#FF0000;stroke-width:5.10 ;&st6;" d=" M  2396.60,   664.67  L  2371.10,   664.67  " /></a><a style="cursor:pointer;" ewd:lineID="67"><path style="stroke:#FF0000;stroke-width:5.10 ;&st6;" d=" M  2396.60,   639.18  L  2362.61,   639.18  L  2362.61,   656.18  " /></a><a style="cursor:pointer;" ewd:lineID="68"><path style="stroke:#008837;stroke-width:5.10 ;&st6;" d=" M  2464.59,   103.77  L  2124.65,   103.77  L  2124.65,   469.21  L  1827.19,   469.21  L  1827.19,   180.26  L  1767.70,   180.26  " /></a><a style="cursor:pointer;" ewd:lineID="69"><path style="stroke:#008837;stroke-width:5.10 ;&st6;" d=" M  2490.08,   290.74  L  2753.54,   290.74  " /></a><a ewd:comment="3" style="cursor:pointer;" ewd:lineID="70"><path style="stroke:#008837;stroke-width:5.10 ;&st6;" d=" M  2490.08,   180.26  L  2736.54,   180.26  L  2736.54,   154.76  L  2745.04,   146.26  L  2753.54,   146.26  " /></a><a style="cursor:pointer;" ewd:lineID="71"><path style="stroke:#00A0C6;stroke-width:5.10 ;&st6;" d=" M  2507.08,   639.18  L  2711.05,   639.18  " /><path style="stroke:#FFFFFF;stroke-width:2.27 ;&st6;" d=" M  2507.08,   639.18  L  2711.05,   639.18  " /><path style="stroke:#FF0000;stroke-width:1.13 ;&st6;" d=" M  2507.08,   639.18  L  2711.05,   639.18  " /></a><a style="cursor:pointer;" ewd:lineID="72"><path style="stroke:#00A0C6;stroke-width:5.10 ;&st6;" d=" M  2719.55,   647.68  L  2719.55,   664.67  L  2753.54,   664.67  " /><path style="stroke:#FFFFFF;stroke-width:2.27 ;&st6;" d=" M  2719.55,   647.68  L  2719.55,   664.67  L  2753.54,   664.67  " /><path style="stroke:#FF0000;stroke-width:1.13 ;&st6;" d=" M  2719.55,   647.68  L  2719.55,   664.67  L  2753.54,   664.67  " /></a><a style="cursor:pointer;" ewd:lineID="73"><path style="stroke:#00A0C6;stroke-width:5.10 ;&st6;" d=" M  2728.04,   639.18  L  2753.54,   639.18  " /><path style="stroke:#FFFFFF;stroke-width:2.27 ;&st6;" d=" M  2728.04,   639.18  L  2753.54,   639.18  " /><path style="stroke:#FF0000;stroke-width:1.13 ;&st6;" d=" M  2728.04,   639.18  L  2753.54,   639.18  " /></a><a style="cursor:pointer;" ewd:lineID="74"><path style="stroke:#000000;stroke-width:5.10 ;&st6;" d=" M  2753.54,   341.73  L  2337.11,   341.73  L  2337.11,   299.24  " /><path style="stroke:#FFFFFF;stroke-width:4.53 ;&st6;" d=" M  2753.54,   341.73  L  2337.11,   341.73  L  2337.11,   299.24  " /><path style="stroke:#00A0C6;stroke-width:1.13 ;&st6;" d=" M  2753.54,   341.73  L  2337.11,   341.73  L  2337.11,   299.24  " /></a><a ewd:comment="8" style="cursor:pointer;" ewd:lineID="75"><path style="stroke:#008837;stroke-width:5.10 ;&st6;" d=" M  2753.54,   146.26  L  2473.09,   146.26  L  2473.09,   112.27  " /></a><a style="cursor:pointer;" ewd:lineID="76"><path style="stroke:#008837;stroke-width:5.10 ;&st6;" d=" M  2753.54,   103.77  L  2481.59,   103.77  " /></a><a style="cursor:pointer;" ewd:lineID="77"><path style="stroke:#000000;stroke-width:5.10 ;&st6;" d=" M  2864.02,   596.69  L  2898.02,   596.69  " /><path style="stroke:#FFFFFF;stroke-width:2.27 ;&st6;" d=" M  2864.02,   596.69  L  2898.02,   596.69  " /><path style="stroke:#00A0C6;stroke-width:1.13 ;&st6;" d=" M  2864.02,   596.69  L  2898.02,   596.69  " /></a><a style="cursor:pointer;" ewd:lineID="78"><path style="stroke:#000000;stroke-width:5.10 ;&st6;" d=" M  2898.02,   639.18  L  2864.02,   639.18  " /><path style="stroke:#FFFFFF;stroke-width:4.53 ;&st6;" d=" M  2898.02,   639.18  L  2864.02,   639.18  " /><path style="stroke:#FF0000;stroke-width:1.13 ;&st6;" d=" M  2898.02,   639.18  L  2864.02,   639.18  " /></a><a style="cursor:pointer;" ewd:lineID="79"><path style="stroke:#000000;stroke-width:0.85 ;&st6;" d=" M    50.99,   392.15  L    50.99,   375.72  " /></a><a style="cursor:pointer;" ewd:lineID="80"><path style="stroke:#000000;stroke-width:0.85 ;&st6;" d=" M   152.97,   435.21  L   152.97,   519.63  " /></a><a ewd:figtype="w2w" style="cursor:pointer;" ewd:pinNo="5" ewd:code="AI3" ewd:figID="78"><path style="&st2;" d=" M   424.93,    40.03  L   407.93,    40.03  L   407.93,    48.53  L   424.93,    48.53  L   424.93,    40.03 " /><text style="&st8;" transform="matrix(&st16;  412.07  46.4 )"><tspan x="0" style="&st18;" y="0">AI3</tspan></text></a><a ewd:figtype="w2w" style="cursor:pointer;" ewd:pinNo="1" ewd:code="AI1" ewd:figID="79"><path style="&st2;" d=" M   441.93,   617.93  L   424.93,   617.93  L   424.93,   626.43  L   441.93,   626.43  L   441.93,   617.93 " /><text style="&st8;" transform="matrix(&st16;  429.06  624.3 )"><tspan x="0" style="&st18;" y="0">AI1</tspan></text></a><a ewd:figtype="w2w" style="cursor:pointer;" ewd:pinNo="4" ewd:code="AI4" ewd:figID="80"><path style="&st2;" d=" M   441.93,   575.44  L   424.93,   575.44  L   424.93,   583.94  L   441.93,   583.94  L   441.93,   575.44 " /><text style="&st8;" transform="matrix(&st16;  429.06  581.81 )"><tspan x="0" style="&st18;" y="0">AI4</tspan></text></a><a ewd:figtype="w2w" style="cursor:pointer;" ewd:pinNo="3" ewd:code="AI4" ewd:figID="81"><path style="&st2;" d=" M   441.93,   532.95  L   424.93,   532.95  L   424.93,   541.44  L   441.93,   541.44  L   441.93,   532.95 " /><text style="&st8;" transform="matrix(&st16;  429.06  539.32 )"><tspan x="0" style="&st18;" y="0">AI4</tspan></text></a><a ewd:figtype="w2w" style="cursor:pointer;" ewd:pinNo="5" ewd:code="AI1" ewd:figID="82"><path style="&st2;" d=" M   441.93,   447.96  L   424.93,   447.96  L   424.93,   456.46  L   441.93,   456.46  L   441.93,   447.96 " /><text style="&st8;" transform="matrix(&st16;  429.06  454.33 )"><tspan x="0" style="&st18;" y="0">AI1</tspan></text></a><a ewd:figtype="w2w" style="cursor:pointer;" ewd:pinNo="2" ewd:code="AI1" ewd:figID="83"><path style="&st2;" d=" M   441.93,   277.99  L   424.93,   277.99  L   424.93,   286.49  L   441.93,   286.49  L   441.93,   277.99 " /><text style="&st8;" transform="matrix(&st16;  429.06  284.36 )"><tspan x="0" style="&st18;" y="0">AI1</tspan></text></a><a ewd:figtype="w2w" style="cursor:pointer;" ewd:pinNo="6" ewd:code="AI1" ewd:figID="84"><path style="&st2;" d=" M   441.93,   218.50  L   424.93,   218.50  L   424.93,   227.00  L   441.93,   227.00  L   441.93,   218.50 " /><text style="&st8;" transform="matrix(&st16;  429.06  224.87 )"><tspan x="0" style="&st18;" y="0">AI1</tspan></text></a><a ewd:figtype="w2w" style="cursor:pointer;" ewd:pinNo="2" ewd:code="AI4" ewd:figID="85"><path style="&st2;" d=" M   441.93,    82.52  L   424.93,    82.52  L   424.93,    91.02  L   441.93,    91.02  L   441.93,    82.52 " /><text style="&st8;" transform="matrix(&st16;  429.06  88.89 )"><tspan x="0" style="&st18;" y="0">AI4</tspan></text></a><a ewd:figtype="w2w" style="cursor:pointer;" ewd:pinNo="8" ewd:code="AI6" ewd:figID="86"><path style="&st2;" d=" M   441.93,    40.03  L   424.93,    40.03  L   424.93,    48.53  L   441.93,    48.53  L   441.93,    40.03 " /><text style="&st8;" transform="matrix(&st16;  429.06  46.4 )"><tspan x="0" style="&st18;" y="0">AI6</tspan></text></a><a ewd:figtype="w2w" style="cursor:pointer;" ewd:pinNo="6" ewd:code="AI1" ewd:figID="87"><path style="&st2;" d=" M   458.92,   447.96  L   441.93,   447.96  L   441.93,   456.46  L   458.92,   456.46  L   458.92,   447.96 " /><text style="&st8;" transform="matrix(&st16;  446.06  454.33 )"><tspan x="0" style="&st18;" y="0">AI1</tspan></text></a><a ewd:figtype="w2w" style="cursor:pointer;" ewd:pinNo="2" ewd:code="AI4" ewd:figID="88"><path style="&st2;" d=" M   458.92,   218.50  L   441.93,   218.50  L   441.93,   227.00  L   458.92,   227.00  L   458.92,   218.50 " /><text style="&st8;" transform="matrix(&st16;  446.06  224.87 )"><tspan x="0" style="&st18;" y="0">AI4</tspan></text></a><a ewd:figtype="w2w" style="cursor:pointer;" ewd:pinNo="4" ewd:code="AI1" ewd:figID="89"><path style="&st2;" d=" M   458.92,    82.52  L   441.93,    82.52  L   441.93,    91.02  L   458.92,    91.02  L   458.92,    82.52 " /><text style="&st8;" transform="matrix(&st16;  446.06  88.89 )"><tspan x="0" style="&st18;" y="0">AI1</tspan></text></a><a ewd:figtype="w2w" style="cursor:pointer;" ewd:pinNo="7" ewd:code="AI2" ewd:figID="90"><path style="&st2;" d=" M   458.92,    40.03  L   441.93,    40.03  L   441.93,    48.53  L   458.92,    48.53  L   458.92,    40.03 " /><text style="&st8;" transform="matrix(&st16;  446.06  46.4 )"><tspan x="0" style="&st18;" y="0">AI2</tspan></text></a><a ewd:figtype="w2w" style="cursor:pointer;" ewd:pinNo="4" ewd:code="IL3" ewd:figID="91"><path style="&st2;" d=" M  1504.25,    40.03  L  1487.25,    40.03  L  1487.25,    48.53  L  1504.25,    48.53  L  1504.25,    40.03 " /><text style="&st8;" transform="matrix(&st16;  1491.61  46.4 )"><tspan x="0" style="&st18;" y="0">IL3</tspan></text></a><a ewd:figtype="w2w" style="cursor:pointer;" ewd:pinNo="3" ewd:code="IL3" ewd:figID="92"><path style="&st2;" d=" M  1512.75,   133.51  L  1495.75,   133.51  L  1495.75,   142.01  L  1512.75,   142.01  L  1512.75,   133.51 " /><text style="&st8;" transform="matrix(&st16;  1500.11  139.88 )"><tspan x="0" style="&st18;" y="0">IL3</tspan></text></a><a ewd:figtype="w2w" style="cursor:pointer;" ewd:pinNo="5" ewd:code="IL3" ewd:figID="93"><path style="&st2;" d=" M  1767.70,   176.01  L  1750.71,   176.01  L  1750.71,   184.50  L  1767.70,   184.50  L  1767.70,   176.01 " /><text style="&st8;" transform="matrix(&st16;  1755.07  182.38 )"><tspan x="0" style="&st18;" y="0">IL3</tspan></text></a><a ewd:figtype="w2w" style="cursor:pointer;" ewd:pinNo="6" ewd:code="IL3" ewd:figID="94"><path style="&st2;" d=" M  1767.70,   150.51  L  1750.71,   150.51  L  1750.71,   159.01  L  1767.70,   159.01  L  1767.70,   150.51 " /><text style="&st8;" transform="matrix(&st16;  1755.07  156.88 )"><tspan x="0" style="&st18;" y="0">IL3</tspan></text></a><a ewd:figtype="w2w" style="cursor:pointer;" ewd:pinNo="2" ewd:code="IL3" ewd:figID="95"><path style="&st2;" d=" M  1767.70,    99.52  L  1750.71,    99.52  L  1750.71,   108.02  L  1767.70,   108.02  L  1767.70,    99.52 " /><text style="&st8;" transform="matrix(&st16;  1755.07  105.89 )"><tspan x="0" style="&st18;" y="0">IL3</tspan></text></a><a ewd:figtype="w2w" style="cursor:pointer;" ewd:pinNo="1" ewd:code="IL3" ewd:figID="96"><path style="&st2;" d=" M  1767.70,    65.52  L  1750.71,    65.52  L  1750.71,    74.02  L  1767.70,    74.02  L  1767.70,    65.52 " /><text style="&st8;" transform="matrix(&st16;  1755.07  71.89 )"><tspan x="0" style="&st18;" y="0">IL3</tspan></text></a><a ewd:figtype="gp" style="cursor:pointer;" ewd:code="FC" ewd:figID="97"><path style="&st2;" d=" M     6.37,   681.67  L    27.62,   681.67  L    17.00,   697.25  L     6.37,   681.67 " /><text style="&st8;" transform="matrix(&st16;  13.08  689.46 )"><tspan x="0" style="&st18;" y="0">FC</tspan></text></a><a ewd:figtype="gp" style="cursor:pointer;" ewd:code="FB" ewd:figID="98"><path style="&st2;" d=" M    40.37,   681.67  L    61.61,   681.67  L    50.99,   697.25  L    40.37,   681.67 " /><text style="&st8;" transform="matrix(&st16;  47.3  689.46 )"><tspan x="0" style="&st18;" y="0">FB</tspan></text></a><a ewd:figtype="gp" style="cursor:pointer;" ewd:code="DA" ewd:figID="99"><path style="&st2;" d=" M    91.36,   681.67  L   112.61,   681.67  L   101.98,   697.25  L    91.36,   681.67 " /><text style="&st8;" transform="matrix(&st16;  97.92  689.46 )"><tspan x="0" style="&st18;" y="0">DA</tspan></text></a><a ewd:figtype="gp" style="cursor:pointer;" ewd:code="AC" ewd:figID="100"><path style="&st2;" d=" M   142.35,   681.67  L   163.60,   681.67  L   152.97,   697.25  L   142.35,   681.67 " /><text style="&st8;" transform="matrix(&st16;  148.87  689.46 )"><tspan x="0" style="&st18;" y="0">AC</tspan></text></a><a ewd:figtype="gp" style="cursor:pointer;" ewd:code="FA" ewd:figID="101"><path style="&st2;" d=" M   176.35,   681.67  L   197.59,   681.67  L   186.97,   697.25  L   176.35,   681.67 " /><text style="&st8;" transform="matrix(&st16;  183.17  689.46 )"><tspan x="0" style="&st18;" y="0">FA</tspan></text></a><a ewd:figtype="gp" style="cursor:pointer;" ewd:code="IC" ewd:figID="102"><path style="&st2;" d=" M  1145.18,   681.67  L  1166.43,   681.67  L  1155.81,   697.25  L  1145.18,   681.67 " /><text style="&st8;" transform="matrix(&st16;  1152.83  689.46 )"><tspan x="0" style="&st18;" y="0">IC</tspan></text></a><a ewd:figtype="sp" style="cursor:pointer;" ewd:code="SP4" ewd:figID="103"><path style="&st2;" d=" M   378.19,   528.70  L   386.69,   528.70  L   390.93,   532.95  L   390.93,   541.44  L   386.69,   545.69  L   378.19,   545.69  L   373.94,   541.44  L   373.94,   532.95  L   378.19,   528.70 " /></a><a ewd:figtype="sp" style="cursor:pointer;" ewd:code="SP72" ewd:figID="104"><path style="&st2;" d=" M   582.15,   443.71  L   590.65,   443.71  L   594.90,   447.96  L   594.90,   456.46  L   590.65,   460.71  L   582.15,   460.71  L   577.90,   456.46  L   577.90,   447.96  L   582.15,   443.71 " /></a><a ewd:figtype="sp" style="cursor:pointer;" ewd:code="SP56" ewd:figID="105"><path style="&st2;" d=" M   803.12,   273.74  L   811.61,   273.74  L   815.86,   277.99  L   815.86,   286.49  L   811.61,   290.74  L   803.12,   290.74  L   798.87,   286.49  L   798.87,   277.99  L   803.12,   273.74 " /></a><a ewd:figtype="sp" style="cursor:pointer;" ewd:code="SP79" ewd:figID="106"><path style="&st2;" d=" M  1100.57,    78.27  L  1109.06,    78.27  L  1113.31,    82.52  L  1113.31,    91.02  L  1109.06,    95.27  L  1100.57,    95.27  L  1096.32,    91.02  L  1096.32,    82.52  L  1100.57,    78.27 " /></a><a ewd:figtype="sp" style="cursor:pointer;" ewd:code="SP66" ewd:figID="107"><path style="&st2;" d=" M  1151.56,   554.19  L  1160.06,   554.19  L  1164.31,   558.44  L  1164.31,   566.94  L  1160.06,   571.19  L  1151.56,   571.19  L  1147.31,   566.94  L  1147.31,   558.44  L  1151.56,   554.19 " /></a><a ewd:figtype="sp" style="cursor:pointer;" ewd:code="SP66" ewd:figID="108"><path style="&st2;" d=" M  1151.56,   435.21  L  1160.06,   435.21  L  1164.31,   439.46  L  1164.31,   447.96  L  1160.06,   452.21  L  1151.56,   452.21  L  1147.31,   447.96  L  1147.31,   439.46  L  1151.56,   435.21 " /></a><a ewd:figtype="sp" style="cursor:pointer;" ewd:code="SP66" ewd:figID="109"><path style="&st2;" d=" M  1151.56,   358.73  L  1160.06,   358.73  L  1164.31,   362.97  L  1164.31,   371.47  L  1160.06,   375.72  L  1151.56,   375.72  L  1147.31,   371.47  L  1147.31,   362.97  L  1151.56,   358.73 " /></a><a ewd:figtype="sp" style="cursor:pointer;" ewd:code="SP55" ewd:figID="110"><path style="&st2;" d=" M  1168.55,   248.24  L  1177.05,   248.24  L  1181.30,   252.49  L  1181.30,   260.99  L  1177.05,   265.24  L  1168.55,   265.24  L  1164.31,   260.99  L  1164.31,   252.49  L  1168.55,   248.24 " /></a><a ewd:figtype="sp" style="cursor:pointer;" ewd:code="SP67" ewd:figID="111"><path style="&st2;" d=" M  1457.51,   528.70  L  1466.01,   528.70  L  1470.25,   532.95  L  1470.25,   541.44  L  1466.01,   545.69  L  1457.51,   545.69  L  1453.26,   541.44  L  1453.26,   532.95  L  1457.51,   528.70 " /></a><a ewd:figtype="sp" style="cursor:pointer;" ewd:code="SP57" ewd:figID="112"><path style="&st2;" d=" M  1831.44,    61.28  L  1839.94,    61.28  L  1844.19,    65.52  L  1844.19,    74.02  L  1839.94,    78.27  L  1831.44,    78.27  L  1827.19,    74.02  L  1827.19,    65.52  L  1831.44,    61.28 " /></a><a ewd:figtype="sp" style="cursor:pointer;" ewd:code="SP71" ewd:figID="113"><path style="&st2;" d=" M  2332.86,   282.24  L  2341.36,   282.24  L  2345.61,   286.49  L  2345.61,   294.99  L  2341.36,   299.24  L  2332.86,   299.24  L  2328.61,   294.99  L  2328.61,   286.49  L  2332.86,   282.24 " /></a><a ewd:figtype="sp" style="cursor:pointer;" ewd:code="SP70" ewd:figID="114"><path style="&st2;" d=" M  2358.36,   656.18  L  2366.85,   656.18  L  2371.10,   660.42  L  2371.10,   668.92  L  2366.85,   673.17  L  2358.36,   673.17  L  2354.11,   668.92  L  2354.11,   660.42  L  2358.36,   656.18 " /></a><a ewd:figtype="sp" style="cursor:pointer;" ewd:code="SP59" ewd:figID="115"><path style="&st2;" d=" M  2468.84,    95.27  L  2477.34,    95.27  L  2481.59,    99.52  L  2481.59,   108.02  L  2477.34,   112.27  L  2468.84,   112.27  L  2464.59,   108.02  L  2464.59,    99.52  L  2468.84,    95.27 " /></a><a ewd:figtype="sp" style="cursor:pointer;" ewd:code="SP80" ewd:figID="116"><path style="&st2;" d=" M  2715.30,   630.68  L  2723.79,   630.68  L  2728.04,   634.93  L  2728.04,   643.43  L  2723.79,   647.68  L  2715.30,   647.68  L  2711.05,   643.43  L  2711.05,   634.93  L  2715.30,   630.68 " /></a></g></svg>