<?xml version="1.0" encoding="utf-8"?>
<!DOCTYPE svg PUBLIC "-//W3C//DTD SVG 1.0//EN" "http://www.w3.org/TR/2001/REC-SVG-20010904/DTD/svg10.dtd"[
	<!ENTITY ns_flows "http://ns.adobe.com/Flows/1.0/">
	<!ENTITY ns_svg "http://www.w3.org/2000/svg">
	<!ENTITY ns_xlink "http://www.w3.org/1999/xlink">
	<!ENTITY st0 "font-size:7px;font-family:'MS-PGothic';adobe-font-script:japanese;">
	<!ENTITY st1 "font-size:6px;font-family:'ArialMT';">
	<!-- White fill  -->
	<!ENTITY st2 "fill:#FFFFFF;stroke:#000000; stroke-width:1.41;stroke-linecap:round;stroke-linejoin:round;">
	<!-- Yellow fill  -->
	<!ENTITY st3 "fill:#FFFFCC;stroke:#FFFFCC; stroke-width:0.1;stroke-linecap:round;stroke-linejoin:round;">
	<!-- Gray fill  -->
	<!ENTITY st4 "fill:#CCCCCC;stroke:#CCCCCC; stroke-width:0.1;stroke-linecap:round;stroke-linejoin:round;">
	<!-- Light-blue fill -->
	<!ENTITY st5 "fill:#CCECF4;stroke:#000000; stroke-width:1.133;stroke-linecap:round;stroke-linejoin:round;">
	<!ENTITY st6 "fill:none;stroke-linecap:butt; stroke-linejoin:round;">
	<!ENTITY st7 "fill:none;stroke:#000000;stroke-linecap:round;stroke-linejoin:round;">
	<!ENTITY st8 "enable-background:new    ;">
	<!-- Black fill -->
	<!ENTITY st9 "fill:#000000;stroke:#000000; stroke-linecap:round;stroke-linejoin:round;">
	<!-- SRS note   -->
	<!ENTITY st10 "font-size:9px;font-family:'ArialMT';">
	<!ENTITY st11 "font-size:9px;font-family:'Svg Symbol';">
	<!ENTITY st12 "font-size:6px;font-family:'Svg Symbol';">
	<!ENTITY st13 "fill:none;stroke:#ff0000;stroke-linecap:round;stroke-linejoin:round;">
	<!-- Yellow fill  -->
	<!ENTITY st14 "fill:#FFFF00;stroke:#FFFF00; stroke-width:0.1;stroke-linecap:round;stroke-linejoin:round;">
	<!ENTITY st15 "font-size:6px;font-family:'MS-PGothic';adobe-font-script:japanese;">
	<!ENTITY st16 "1.00 0.00 0.00 1.00">
	<!ENTITY st17 "0.00 -1.00 1.00 0.00">
	<!ENTITY st18 "font-size:6px;font-family:'Arial';">
	<!ENTITY st19 "font-size:9px;font-family:'Arial';">
	<!ENTITY st20 "font-size:6px;font-family:'MS-PGothic','MS PGothic';adobe-font-script:japanese;">
	<!ENTITY st21 "font-size:7px;font-family:'MS-PGothic','MS PGothic';adobe-font-script:japanese;">
	<!ATTLIST svg
		xmlns:ewd CDATA #FIXED "http://shcl.co.jp/ewd"
		xmlns:a CDATA #FIXED "http://ns.adobe.com/AdobeSVGViewerExtensions/3.0/"
		ewd:ver CDATA #IMPLIED
	>
	<!ATTLIST a
		ewd:lineID CDATA #IMPLIED
		ewd:groupID CDATA #IMPLIED
		ewd:figtype CDATA #IMPLIED
		ewd:code CDATA #IMPLIED
		ewd:figID CDATA #IMPLIED
		ewd:pinNo CDATA #IMPLIED
		ewd:comment CDATA #IMPLIED >
	<!ATTLIST g
		ewd:lineID CDATA #IMPLIED
		ewd:groupID CDATA #IMPLIED
		ewd:figtype CDATA #IMPLIED
		ewd:code CDATA #IMPLIED
		ewd:figID CDATA #IMPLIED
		ewd:pinNo CDATA #IMPLIED
		ewd:comment CDATA #IMPLIED >
	<!ATTLIST text
		ewd:textID CDATA #IMPLIED >
	<!ATTLIST title
		ewd:textID CDATA #IMPLIED >
]>
<!-- Generator: Shintec Hozumi YS   -->
<svg onload="call_execInitLoadProc_svg('system')" style="overflow:visible;  enable-background:new 0 0 3078.923 710.000" viewBox="0 0 3078.923 710.000" height="710.000" width="3078.923" xml:space="preserve" ewd:ver="2.1.2.9" xmlns="&ns_svg;" xmlns:a="http://ns.adobe.com/AdobeSVGViewerExtensions/3.0/" xmlns:ewd="http://shcl.co.jp/ewd" xmlns:xlink="&ns_xlink;">
<path style="stroke-width:1.42 ;&st7;  " d=" M   458.92,    40.03  L   458.92,    44.28  " /><path style="stroke-width:1.42 ;&st7;  " d=" M   378.91,   554.19  L   373.94,   559.16  " /><path style="stroke-width:1.42 ;&st7;  " d=" M   385.96,   571.19  L   390.93,   566.22  " /><path style="stroke-width:1.42 ;&st7;  " d=" M   373.94,   566.22  L   378.91,   571.19  " /><path style="stroke-width:1.42 ;&st7;  " d=" M   390.93,   559.16  L   385.96,   554.19  " /><path style="stroke-width:1.42 ;&st7;  " d=" M   441.93,   277.99  L   441.93,   282.24  " /><path style="stroke-width:1.42 ;&st7;  " d=" M   458.92,   447.96  L   458.92,   452.21  " /><path style="stroke-width:1.42 ;&st7;  " d=" M   458.92,   218.50  L   458.92,   222.75  " /><path style="stroke-width:1.42 ;&st7;  " d=" M   458.92,    82.52  L   458.92,    86.77  " /><path style="stroke-width:1.42 ;&st7;  " d=" M   441.93,   600.93  L   441.93,   605.18  " /><path style="stroke-width:1.42 ;&st7;  " d=" M   441.93,   643.43  L   441.93,   647.68  " /><path style="stroke-width:1.42 ;&st7;  " d=" M   441.93,   558.44  L   441.93,   562.69  " /><text style="&st18;" transform="matrix(&st16;  489.95  448.51 )">W</text><text style="&st18;" transform="matrix(&st16;  69.34  482.51 )">B(*3)</text><text style="&st18;" transform="matrix(&st16;  173.26  289.87 )">(*3)</text><text style="&st18;" transform="matrix(&st16;  169.22  315.37 )">(*4,*5)</text><text style="&st18;" transform="matrix(&st16;  172.91  278.54 )">B-L</text><text style="&st18;" transform="matrix(&st16;  172.91  261.54 )">B-L</text><text style="&st18;" transform="matrix(&st16;  172.91  304.04 )">B-L</text><text style="&st18;" transform="matrix(&st17;  149.28  646.76 )">B-DG</text><text style="&st18;" transform="matrix(&st17;  109.62  643.89 )">(*1)</text><text style="&st18;" transform="matrix(&st17;  98.29  646.76 )">B-DG</text><text style="&st18;" transform="matrix(&st17;  194.61  647.92 )">(*3,*9)</text><text style="&st18;" transform="matrix(&st17;  183.27  646.76 )">B-DG</text><text style="&st18;" transform="matrix(&st17;  58.63  643.89 )">(*5)</text><text style="&st18;" transform="matrix(&st17;  47.3  646.76 )">B-DG</text><text style="&st18;" transform="matrix(&st17;  24.63  643.89 )">(*5)</text><text style="&st18;" transform="matrix(&st17;  13.3  646.76 )">B-DG</text><text style="&st18;" transform="matrix(&st16;  405.86  558.99 )">L</text><text style="&st18;" transform="matrix(&st16;  486.54  278.54 )">W-R</text><text style="&st18;" transform="matrix(&st16;  351.38  40.58 )">B-L</text><text style="&st18;" transform="matrix(&st16;  351.46  83.07 )">L-R</text><text style="&st18;" transform="matrix(&st16;  351.34  125.57 )">R-B</text><text style="&st18;" transform="matrix(&st16;  350.56  168.06 )">W-R</text><text style="&st18;" transform="matrix(&st16;  353.98  210.55 )">W</text><text style="&st18;" transform="matrix(&st16;  350.6  643.98 )">W-L</text><text style="&st18;" transform="matrix(&st16;  65.8  499.5 )">B</text><text style="&st18;" transform="matrix(&st16;  354.87  558.99 )">L</text><text style="&st18;" transform="matrix(&st16;  62.78  510.84 )">(*5)</text><text style="&st18;" transform="matrix(&st16;  354.83  601.49 )">R</text><text style="&st18;" transform="matrix(&st16;  487.36  40.58 )">B-L</text><text style="&st18;" transform="matrix(&st16;  490.85  558.99 )">L</text><text style="&st18;" transform="matrix(&st16;  486.58  643.98 )">W-L</text><text style="&st18;" transform="matrix(&st16;  487.43  83.07 )">L-R</text><text style="&st18;" transform="matrix(&st16;  487.71  204.89 )">(*3)</text><text style="&st18;" transform="matrix(&st16;  490.81  601.49 )">R</text><text style="&st18;" transform="matrix(&st16;  487.32  219.05 )">R-B</text><text style="&st18;" transform="matrix(&st16;  487.71  230.38 )">(*8)</text><text style="&st18;" transform="matrix(&st16;  487.71  485.34 )">(*3)</text><text style="&st18;" transform="matrix(&st16;  489.95  474.01 )">W</text><text style="&st18;" transform="matrix(&st16;  487.71  459.84 )">(*8)</text><text style="&st18;" transform="matrix(&st16;  487.71  570.33 )">(*3)</text><text style="&st18;" transform="matrix(&st16;  490.85  533.5 )">L</text><text style="&st18;" transform="matrix(&st16;  476.54  544.83 )">(*1 *11,*12)</text><text style="&st18;" transform="matrix(&st16;  487.32  193.56 )">R-B</text><text style="&st18;" transform="matrix(&st16;  480.3  584.49 )">L(*1 *10)</text><g ewd:figtype="rb" ewd:figID="2" ewd:code="FUSE49"><path style="stroke-width:1.42 ;&st7;  " d=" M   335.69,   566.94  L   331.44,   566.94  " /><path style="stroke-width:1.42 ;&st7;  " d=" M   335.69,   558.44  L   331.44,   558.44  " /><path style="stroke-width:1.42 ;&st7;  " d=" M   335.69,   609.43  L   331.44,   609.43  " /><path style="stroke-width:1.42 ;&st7;  " d=" M   335.69,   600.93  L   331.44,   600.93  " /><path style="stroke-width:1.42 ;&st7;  " d=" M   335.69,   651.93  L   331.44,   651.93  " /><path style="stroke-width:1.42 ;&st7;  " d=" M   335.69,   643.43  L   331.44,   643.43  " /><path style="stroke-width:1.42 ;&st7;   " d=" M   339.94,   562.69  C   339.94    560.34    338.04    558.44    335.69    558.44  " /><path style="stroke-width:1.42 ;&st7;   " d=" M   335.69,   566.94  C   338.04    566.94    339.94    565.04    339.94    562.69  " /><path style="stroke-width:1.42 ;&st7;   " d=" M   327.20,   562.69  C   327.20    565.04    329.10    566.94    331.44    566.94  " /><path style="stroke-width:1.42 ;&st7;   " d=" M   331.44,   558.44  C   329.10    558.44    327.20    560.34    327.20    562.69  " /><path style="stroke-width:1.42 ;&st7;   " d=" M   339.94,   605.18  C   339.94    602.84    338.04    600.93    335.69    600.93  " /><path style="stroke-width:1.42 ;&st7;   " d=" M   335.69,   609.43  C   338.04    609.43    339.94    607.53    339.94    605.18  " /><path style="stroke-width:1.42 ;&st7;   " d=" M   327.20,   605.18  C   327.20    607.53    329.10    609.43    331.44    609.43  " /><path style="stroke-width:1.42 ;&st7;   " d=" M   331.44,   600.93  C   329.10    600.93    327.20    602.84    327.20    605.18  " /><path style="stroke-width:1.42 ;&st7;   " d=" M   339.94,   647.68  C   339.94    645.33    338.04    643.43    335.69    643.43  " /><path style="stroke-width:1.42 ;&st7;   " d=" M   335.69,   651.93  C   338.04    651.93    339.94    650.02    339.94    647.68  " /><path style="stroke-width:1.42 ;&st7;   " d=" M   327.20,   647.68  C   327.20    650.02    329.10    651.93    331.44    651.93  " /><path style="stroke-width:1.42 ;&st7;   " d=" M   331.44,   643.43  C   329.10    643.43    327.20    645.33    327.20    647.68  " /><text style="&st18;" transform="matrix(&st16;  257.27  516.51 )">1</text><text style="&st18;" transform="matrix(&st16;  308.53  516.51 )">2</text><path style="stroke-width:0.85 ;&st7;  " d=" M   245.27,   646.67  L   244.99,   647.14  L   244.90,   647.68  L   244.99,   648.21  L   245.27,   648.68  L   245.68,   649.03  L   246.19,   649.21  L   246.73,   649.21  L   247.24,   649.03  L   247.65,   648.68  L   247.92,   648.21  L   248.02,   647.68  L   247.92,   647.14  L   247.65,   646.67  L   247.24,   646.33  L   246.73,   646.14  L   246.19,   646.14  L   245.68,   646.33  L   245.27,   646.67  L   245.66,   647.39  L   245.66,   647.97  L   246.03,   648.41  L   246.61,   648.51  L   247.11,   648.22  L   247.31,   647.68  L   247.11,   647.13  L   246.61,   646.84  L   246.03,   646.94  L   246.46,   647.68  " /><path style="stroke-width:0.85 ;&st7;  " d=" M   245.27,   604.18  L   244.99,   604.65  L   244.90,   605.18  L   244.99,   605.72  L   245.27,   606.19  L   245.68,   606.53  L   246.19,   606.72  L   246.73,   606.72  L   247.24,   606.53  L   247.65,   606.19  L   247.92,   605.72  L   248.02,   605.18  L   247.92,   604.65  L   247.65,   604.18  L   247.24,   603.84  L   246.73,   603.65  L   246.19,   603.65  L   245.68,   603.84  L   245.27,   604.18  L   245.66,   604.89  L   245.66,   605.48  L   246.03,   605.92  L   246.61,   606.02  L   247.11,   605.73  L   247.31,   605.18  L   247.11,   604.64  L   246.61,   604.35  L   246.03,   604.45  L   246.46,   605.18  " /><path style="stroke-width:0.85 ;&st7;  " d=" M   245.27,   561.69  L   244.99,   562.16  L   244.90,   562.69  L   244.99,   563.22  L   245.27,   563.69  L   245.68,   564.04  L   246.19,   564.23  L   246.73,   564.23  L   247.24,   564.04  L   247.65,   563.69  L   247.92,   563.22  L   248.02,   562.69  L   247.92,   562.16  L   247.65,   561.69  L   247.24,   561.34  L   246.73,   561.16  L   246.19,   561.16  L   245.68,   561.34  L   245.27,   561.69  L   245.66,   562.40  L   245.66,   562.98  L   246.03,   563.43  L   246.61,   563.53  L   247.11,   563.24  L   247.31,   562.69  L   247.11,   562.14  L   246.61,   561.86  L   246.03,   561.95  L   246.46,   562.69  " /><path style="stroke-width:0.85 ;&st7;  " d=" M   245.27,   519.20  L   244.99,   519.67  L   244.90,   520.20  L   244.99,   520.73  L   245.27,   521.20  L   245.68,   521.55  L   246.19,   521.73  L   246.73,   521.73  L   247.24,   521.55  L   247.65,   521.20  L   247.92,   520.73  L   248.02,   520.20  L   247.92,   519.67  L   247.65,   519.20  L   247.24,   518.85  L   246.73,   518.66  L   246.19,   518.66  L   245.68,   518.85  L   245.27,   519.20  L   245.66,   519.91  L   245.66,   520.49  L   246.03,   520.94  L   246.61,   521.03  L   247.11,   520.75  L   247.31,   520.20  L   247.11,   519.65  L   246.61,   519.36  L   246.03,   519.46  L   246.46,   520.20  " /><path style="stroke-width:0.85 ;&st7;  " d=" M   245.27,   476.70  L   244.99,   477.17  L   244.90,   477.71  L   244.99,   478.24  L   245.27,   478.71  L   245.68,   479.05  L   246.19,   479.24  L   246.73,   479.24  L   247.24,   479.05  L   247.65,   478.71  L   247.92,   478.24  L   248.02,   477.71  L   247.92,   477.17  L   247.65,   476.70  L   247.24,   476.36  L   246.73,   476.17  L   246.19,   476.17  L   245.68,   476.36  L   245.27,   476.70  L   245.66,   477.41  L   245.66,   478.00  L   246.03,   478.44  L   246.61,   478.54  L   247.11,   478.25  L   247.31,   477.71  L   247.11,   477.16  L   246.61,   476.87  L   246.03,   476.97  L   246.46,   477.71  " /><path style="stroke-width:0.85 ;&st7;  " d=" M   245.27,   434.21  L   244.99,   434.68  L   244.90,   435.21  L   244.99,   435.75  L   245.27,   436.22  L   245.68,   436.56  L   246.19,   436.75  L   246.73,   436.75  L   247.24,   436.56  L   247.65,   436.22  L   247.92,   435.75  L   248.02,   435.21  L   247.92,   434.68  L   247.65,   434.21  L   247.24,   433.86  L   246.73,   433.68  L   246.19,   433.68  L   245.68,   433.86  L   245.27,   434.21  L   245.66,   434.92  L   245.66,   435.50  L   246.03,   435.95  L   246.61,   436.05  L   247.11,   435.76  L   247.31,   435.21  L   247.11,   434.67  L   246.61,   434.38  L   246.03,   434.48  L   246.46,   435.21  " /><path style="stroke-width:0.85 ;&st7;  " d=" M   245.27,   391.72  L   244.99,   392.19  L   244.90,   392.72  L   244.99,   393.25  L   245.27,   393.72  L   245.68,   394.07  L   246.19,   394.26  L   246.73,   394.26  L   247.24,   394.07  L   247.65,   393.72  L   247.92,   393.25  L   248.02,   392.72  L   247.92,   392.19  L   247.65,   391.72  L   247.24,   391.37  L   246.73,   391.18  L   246.19,   391.18  L   245.68,   391.37  L   245.27,   391.72  L   245.66,   392.43  L   245.66,   393.01  L   246.03,   393.46  L   246.61,   393.56  L   247.11,   393.27  L   247.31,   392.72  L   247.11,   392.17  L   246.61,   391.88  L   246.03,   391.98  L   246.46,   392.72  " /><path style="stroke-width:0.85 ;&st7;  " d=" M   245.27,   306.73  L   244.99,   307.20  L   244.90,   307.73  L   244.99,   308.27  L   245.27,   308.74  L   245.68,   309.08  L   246.19,   309.27  L   246.73,   309.27  L   247.24,   309.08  L   247.65,   308.74  L   247.92,   308.27  L   248.02,   307.73  L   247.92,   307.20  L   247.65,   306.73  L   247.24,   306.39  L   246.73,   306.20  L   246.19,   306.20  L   245.68,   306.39  L   245.27,   306.73  L   245.66,   307.44  L   245.66,   308.03  L   246.03,   308.47  L   246.61,   308.57  L   247.11,   308.28  L   247.31,   307.73  L   247.11,   307.19  L   246.61,   306.90  L   246.03,   307.00  L   246.46,   307.73  " /><path style="stroke-width:0.85 ;&st7;  " d=" M   245.27,   264.24  L   244.99,   264.71  L   244.90,   265.24  L   244.99,   265.77  L   245.27,   266.24  L   245.68,   266.59  L   246.19,   266.78  L   246.73,   266.78  L   247.24,   266.59  L   247.65,   266.24  L   247.92,   265.77  L   248.02,   265.24  L   247.92,   264.71  L   247.65,   264.24  L   247.24,   263.89  L   246.73,   263.71  L   246.19,   263.71  L   245.68,   263.89  L   245.27,   264.24  L   245.66,   264.95  L   245.66,   265.53  L   246.03,   265.98  L   246.61,   266.08  L   247.11,   265.79  L   247.31,   265.24  L   247.11,   264.69  L   246.61,   264.41  L   246.03,   264.50  L   246.46,   265.24  " /><path style="stroke-width:0.85 ;&st7;  " d=" M   305.95,   520.20  L   331.44,   520.20  " /><path style="stroke-width:0.85 ;&st7;  " d=" M   305.95,   477.71  L   331.44,   477.71  " /><path style="stroke-width:0.85 ;&st7;  " d=" M   305.95,   435.21  L   331.44,   435.21  " /><path style="stroke-width:0.85 ;&st7;  " d=" M   305.95,   392.72  L   331.44,   392.72  " /><path style="stroke-width:0.85 ;&st7;  " d=" M   305.95,   307.73  L   331.44,   307.73  " /><path style="stroke-width:0.85 ;&st7;  " d=" M   305.95,   265.24  L   331.44,   265.24  " /><path style="stroke-width:0.85 ;&st7;  " d=" M   246.46,   647.68  L   263.46,   647.68  " /><path style="stroke-width:0.85 ;&st7;  " d=" M   246.46,   605.18  L   263.46,   605.18  " /><path style="stroke-width:0.85 ;&st7;  " d=" M   246.46,   562.69  L   263.46,   562.69  " /><path style="stroke-width:0.85 ;&st7;  " d=" M   246.46,   520.20  L   263.46,   520.20  " /><path style="stroke-width:0.85 ;&st7;  " d=" M   246.46,   477.71  L   263.46,   477.71  " /><path style="stroke-width:0.85 ;&st7;  " d=" M   246.46,   435.21  L   263.46,   435.21  " /><path style="stroke-width:0.85 ;&st7;  " d=" M   246.46,   392.72  L   263.46,   392.72  " /><path style="stroke-width:0.85 ;&st7;  " d=" M   305.95,   690.17  L   331.44,   690.17  " /><path style="stroke-width:0.85 ;&st7;  " d=" M   305.95,   647.68  L   327.20,   647.68  " /><path style="stroke-width:0.85 ;&st7;  " d=" M   305.95,   605.18  L   327.20,   605.18  " /><path style="stroke-width:0.85 ;&st7;  " d=" M   305.95,   562.69  L   327.20,   562.69  " /><path style="stroke-width:0.85 ;&st7;  " d=" M   246.46,   265.24  L   246.46,   690.17  L   263.46,   690.17  " /><path style="stroke-width:0.28 ;&st9;  " d=" M   238.61,   307.73  L   241.44,   304.90  L   237.19,   304.90  L   234.36,   307.73  L   237.19,   310.57  L   241.44,   310.57  L   238.61,   307.73  " /><path style="stroke-width:0.28 ;&st9;  " d=" M   238.61,   265.24  L   241.44,   262.41  L   237.19,   262.41  L   234.36,   265.24  L   237.19,   268.07  L   241.44,   268.07  L   238.61,   265.24  " /><path style="stroke-width:0.28 ;&st9;  " d=" M   322.30,   562.69  L   319.47,   559.86  L   323.72,   559.86  L   326.55,   562.69  L   323.72,   565.52  L   319.47,   565.52  L   322.30,   562.69  " /><path style="stroke-width:0.28 ;&st9;  " d=" M   322.30,   605.18  L   319.47,   602.35  L   323.72,   602.35  L   326.55,   605.18  L   323.72,   608.02  L   319.47,   608.02  L   322.30,   605.18  " /><path style="stroke-width:0.28 ;&st9;  " d=" M   322.30,   647.68  L   319.47,   644.84  L   323.72,   644.84  L   326.55,   647.68  L   323.72,   650.51  L   319.47,   650.51  L   322.30,   647.68  " /><path style="stroke-width:0.85 ;&st7;  " d=" M   233.71,   307.73  L   263.46,   307.73  " /><path style="stroke-width:0.85 ;&st7;  " d=" M   233.71,   265.24  L   263.46,   265.24  " /><text style="&st18;" transform="matrix(&st16;  262.43  502.34 )">15A TURN&amp;HAZ</text><text style="&st18;" transform="matrix(&st16;  331.77  564.66 )">4</text><text style="&st18;" transform="matrix(&st16;  331.77  607.15 )">4</text><text style="&st18;" transform="matrix(&st16;  331.77  649.65 )">4</text><text style="&st18;" transform="matrix(&st16;  265.34  247.38 )">15A EFI MAIN</text><text style="&st18;" transform="matrix(&st16;  308.53  261.55 )">2</text><text style="&st18;" transform="matrix(&st16;  257.27  261.55 )">1</text><text style="&st18;" transform="matrix(&st16;  263.79  289.87 )">15A EFI MAIN2</text><text style="&st18;" transform="matrix(&st16;  308.53  304.04 )">2</text><text style="&st18;" transform="matrix(&st16;  257.27  304.04 )">1</text><text style="&st18;" transform="matrix(&st16;  265.61  672.31 )">50A ABS MTR</text><text style="&st18;" transform="matrix(&st16;  308.53  686.48 )">2</text><text style="&st18;" transform="matrix(&st16;  257.27  686.48 )">1</text><text style="&st18;" transform="matrix(&st16;  269.33  629.82 )">50A MAIN1</text><text style="&st18;" transform="matrix(&st16;  308.53  643.99 )">2</text><text style="&st18;" transform="matrix(&st16;  257.27  643.99 )">1</text><text style="&st18;" transform="matrix(&st16;  270.07  587.32 )">50A HEAD</text><text style="&st18;" transform="matrix(&st16;  308.53  601.49 )">2</text><text style="&st18;" transform="matrix(&st16;  257.27  601.49 )">1</text><text style="&st18;" transform="matrix(&st16;  272.28  544.83 )">50A AM2</text><text style="&st18;" transform="matrix(&st16;  308.53  559.0 )">2</text><text style="&st18;" transform="matrix(&st16;  257.27  559.0 )">1</text><text style="&st18;" transform="matrix(&st16;  257.27  389.03 )">1</text><text style="&st18;" transform="matrix(&st16;  308.53  389.03 )">2</text><text style="&st18;" transform="matrix(&st16;  269.83  374.86 )">10A HORN</text><text style="&st18;" transform="matrix(&st16;  257.27  431.52 )">1</text><text style="&st18;" transform="matrix(&st16;  308.53  431.52 )">2</text><text style="&st18;" transform="matrix(&st16;  266.15  417.35 )">30A ABS SOL</text><text style="&st18;" transform="matrix(&st16;  257.27  474.02 )">1</text><text style="&st18;" transform="matrix(&st16;  308.53  474.02 )">2</text><text style="&st18;" transform="matrix(&st16;  268.52  459.84 )">7.5A ALT-S</text><path style="stroke-width:0.85 ;&st7;  " d=" M   245.27,   349.22  L   244.99,   349.69  L   244.90,   350.23  L   244.99,   350.76  L   245.27,   351.23  L   245.68,   351.58  L   246.19,   351.76  L   246.73,   351.76  L   247.24,   351.58  L   247.65,   351.23  L   247.92,   350.76  L   248.02,   350.23  L   247.92,   349.69  L   247.65,   349.22  L   247.24,   348.88  L   246.73,   348.69  L   246.19,   348.69  L   245.68,   348.88  L   245.27,   349.22  L   245.66,   349.94  L   245.66,   350.52  L   246.03,   350.96  L   246.61,   351.06  L   247.11,   350.77  L   247.31,   350.23  L   247.11,   349.68  L   246.61,   349.39  L   246.03,   349.49  L   246.46,   350.23  " /><path style="stroke-width:0.85 ;&st7;  " d=" M   305.95,   350.23  L   331.44,   350.23  " /><path style="stroke-width:0.85 ;&st7;  " d=" M   246.46,   350.23  L   263.46,   350.23  " /><text style="&st18;" transform="matrix(&st16;  257.27  346.54 )">1</text><text style="&st18;" transform="matrix(&st16;  308.53  346.54 )">2</text><text style="&st18;" transform="matrix(&st16;  272.9  332.37 )">15A A/F</text><path style="stroke-width:0.85 ;&st7;  " d=" M   271.95,   265.24  L   263.46,   265.24  " /><path style="stroke-width:0.85 ;&st7;   " d=" M   274.79,   265.24  C   274.79    264.46    274.15    263.82    273.37    263.82  " /><path style="stroke-width:0.85 ;&st7;   " d=" M   273.37,   263.82  C   272.59    263.82    271.95    264.46    271.95    265.24  " /><path style="stroke-width:0.85 ;&st7;   " d=" M   271.95,   265.24  C   271.95    266.02    272.59    266.66    273.37    266.66  " /><path style="stroke-width:0.85 ;&st7;   " d=" M   273.37,   266.66  C   274.15    266.66    274.79    266.02    274.79    265.24  " /><path style="stroke-width:0.85 ;&st7;   " d=" M   297.45,   265.24  C   297.45    264.46    296.82    263.82    296.03    263.82  " /><path style="stroke-width:0.85 ;&st7;   " d=" M   296.03,   263.82  C   295.25    263.82    294.62    264.46    294.62    265.24  " /><path style="stroke-width:0.85 ;&st7;   " d=" M   294.62,   265.24  C   294.62    266.02    295.25    266.66    296.03    266.66  " /><path style="stroke-width:0.85 ;&st7;   " d=" M   296.03,   266.66  C   296.82    266.66    297.45    266.02    297.45    265.24  " /><path style="stroke-width:1.42 ;&st7;   " d=" M   274.79,   265.24  C   276.40    267.98    279.93    268.89    282.67    267.28  " /><path style="stroke-width:1.42 ;&st7;   " d=" M   282.67,   267.28  C   283.55    266.76    284.18    266.12    284.70    265.24  " /><path style="stroke-width:1.42 ;&st7;   " d=" M   294.62,   265.24  C   293.00    262.50    289.48    261.59    286.74    263.20  " /><path style="stroke-width:1.42 ;&st7;   " d=" M   286.74,   263.20  C   285.86    263.72    285.22    264.36    284.70    265.24  " /><path style="stroke-width:1.42 ;&st7;  " d=" M   263.46,   252.49  L   263.46,   277.99  L   305.95,   277.99  L   305.95,   252.49  L   263.46,   252.49  " /><path style="stroke-width:0.85 ;&st7;  " d=" M   305.95,   265.24  L   297.45,   265.24  " /></g><g ewd:figtype="rb" ewd:figID="3" ewd:code="FUSE50"><path style="stroke-width:0.85 ;&st7;  " d=" M   271.95,   307.73  L   263.46,   307.73  " /><path style="stroke-width:0.85 ;&st7;   " d=" M   274.79,   307.73  C   274.79    306.95    274.15    306.32    273.37    306.32  " /><path style="stroke-width:0.85 ;&st7;   " d=" M   273.37,   306.32  C   272.59    306.32    271.95    306.95    271.95    307.73  " /><path style="stroke-width:0.85 ;&st7;   " d=" M   271.95,   307.73  C   271.95    308.52    272.59    309.15    273.37    309.15  " /><path style="stroke-width:0.85 ;&st7;   " d=" M   273.37,   309.15  C   274.15    309.15    274.79    308.52    274.79    307.73  " /><path style="stroke-width:0.85 ;&st7;   " d=" M   297.45,   307.73  C   297.45    306.95    296.82    306.32    296.03    306.32  " /><path style="stroke-width:0.85 ;&st7;   " d=" M   296.03,   306.32  C   295.25    306.32    294.62    306.95    294.62    307.73  " /><path style="stroke-width:0.85 ;&st7;   " d=" M   294.62,   307.73  C   294.62    308.52    295.25    309.15    296.03    309.15  " /><path style="stroke-width:0.85 ;&st7;   " d=" M   296.03,   309.15  C   296.82    309.15    297.45    308.52    297.45    307.73  " /><path style="stroke-width:1.42 ;&st7;   " d=" M   274.79,   307.73  C   276.40    310.47    279.93    311.38    282.67    309.77  " /><path style="stroke-width:1.42 ;&st7;   " d=" M   282.67,   309.77  C   283.55    309.25    284.18    308.62    284.70    307.73  " /><path style="stroke-width:1.42 ;&st7;   " d=" M   294.62,   307.73  C   293.00    305.00    289.48    304.08    286.74    305.70  " /><path style="stroke-width:1.42 ;&st7;   " d=" M   286.74,   305.70  C   285.86    306.22    285.22    306.85    284.70    307.73  " /><path style="stroke-width:1.42 ;&st7;  " d=" M   263.46,   294.99  L   263.46,   320.48  L   305.95,   320.48  L   305.95,   294.99  L   263.46,   294.99  " /><path style="stroke-width:0.85 ;&st7;  " d=" M   305.95,   307.73  L   297.45,   307.73  " /></g><g ewd:figtype="rb" ewd:figID="4" ewd:code="FUSE47"><path style="stroke-width:0.85 ;&st7;  " d=" M   271.95,   392.72  L   263.46,   392.72  " /><path style="stroke-width:1.42 ;&st7;   " d=" M   294.62,   392.72  C   293.00    389.98    289.48    389.07    286.74    390.68  " /><path style="stroke-width:1.42 ;&st7;   " d=" M   286.74,   390.68  C   285.86    391.20    285.22    391.84    284.70    392.72  " /><path style="stroke-width:1.42 ;&st7;   " d=" M   274.79,   392.72  C   276.40    395.46    279.93    396.37    282.67    394.76  " /><path style="stroke-width:1.42 ;&st7;   " d=" M   282.67,   394.76  C   283.55    394.24    284.18    393.60    284.70    392.72  " /><path style="stroke-width:0.85 ;&st7;   " d=" M   297.45,   392.72  C   297.45    391.94    296.82    391.30    296.03    391.30  " /><path style="stroke-width:0.85 ;&st7;   " d=" M   296.03,   391.30  C   295.25    391.30    294.62    391.94    294.62    392.72  " /><path style="stroke-width:0.85 ;&st7;   " d=" M   294.62,   392.72  C   294.62    393.50    295.25    394.14    296.03    394.14  " /><path style="stroke-width:0.85 ;&st7;   " d=" M   296.03,   394.14  C   296.82    394.14    297.45    393.50    297.45    392.72  " /><path style="stroke-width:0.85 ;&st7;   " d=" M   274.79,   392.72  C   274.79    391.94    274.15    391.30    273.37    391.30  " /><path style="stroke-width:0.85 ;&st7;   " d=" M   273.37,   391.30  C   272.59    391.30    271.95    391.94    271.95    392.72  " /><path style="stroke-width:0.85 ;&st7;   " d=" M   271.95,   392.72  C   271.95    393.50    272.59    394.14    273.37    394.14  " /><path style="stroke-width:0.85 ;&st7;   " d=" M   273.37,   394.14  C   274.15    394.14    274.79    393.50    274.79    392.72  " /><path style="stroke-width:0.85 ;&st7;  " d=" M   305.95,   392.72  L   297.45,   392.72  " /><path style="stroke-width:1.42 ;&st7;  " d=" M   263.46,   379.97  L   263.46,   405.47  L   305.95,   405.47  L   305.95,   379.97  L   263.46,   379.97  " /></g><g ewd:figtype="rb" ewd:figID="5" ewd:code="FUSE53"><path style="stroke-width:0.85 ;&st7;  " d=" M   271.95,   435.21  L   263.46,   435.21  " /><path style="stroke-width:1.42 ;&st7;   " d=" M   294.62,   435.21  C   293.00    432.47    289.48    431.56    286.74    433.18  " /><path style="stroke-width:1.42 ;&st7;   " d=" M   286.74,   433.18  C   285.86    433.70    285.22    434.33    284.70    435.21  " /><path style="stroke-width:1.42 ;&st7;   " d=" M   274.79,   435.21  C   276.40    437.95    279.93    438.86    282.67    437.25  " /><path style="stroke-width:1.42 ;&st7;   " d=" M   282.67,   437.25  C   283.55    436.73    284.18    436.09    284.70    435.21  " /><path style="stroke-width:0.85 ;&st7;   " d=" M   297.45,   435.21  C   297.45    434.43    296.82    433.80    296.03    433.80  " /><path style="stroke-width:0.85 ;&st7;   " d=" M   296.03,   433.80  C   295.25    433.80    294.62    434.43    294.62    435.21  " /><path style="stroke-width:0.85 ;&st7;   " d=" M   294.62,   435.21  C   294.62    435.99    295.25    436.63    296.03    436.63  " /><path style="stroke-width:0.85 ;&st7;   " d=" M   296.03,   436.63  C   296.82    436.63    297.45    435.99    297.45    435.21  " /><path style="stroke-width:0.85 ;&st7;   " d=" M   274.79,   435.21  C   274.79    434.43    274.15    433.80    273.37    433.80  " /><path style="stroke-width:0.85 ;&st7;   " d=" M   273.37,   433.80  C   272.59    433.80    271.95    434.43    271.95    435.21  " /><path style="stroke-width:0.85 ;&st7;   " d=" M   271.95,   435.21  C   271.95    435.99    272.59    436.63    273.37    436.63  " /><path style="stroke-width:0.85 ;&st7;   " d=" M   273.37,   436.63  C   274.15    436.63    274.79    435.99    274.79    435.21  " /><path style="stroke-width:0.85 ;&st7;  " d=" M   305.95,   435.21  L   297.45,   435.21  " /><path style="stroke-width:1.42 ;&st7;  " d=" M   263.46,   422.46  L   263.46,   447.96  L   305.95,   447.96  L   305.95,   422.46  L   263.46,   422.46  " /></g><g ewd:figtype="rb" ewd:figID="6" ewd:code="FUSE44"><path style="stroke-width:0.85 ;&st7;  " d=" M   271.95,   477.71  L   263.46,   477.71  " /><path style="stroke-width:1.42 ;&st7;   " d=" M   294.62,   477.71  C   293.00    474.97    289.48    474.06    286.74    475.67  " /><path style="stroke-width:1.42 ;&st7;   " d=" M   286.74,   475.67  C   285.86    476.19    285.22    476.82    284.70    477.71  " /><path style="stroke-width:1.42 ;&st7;   " d=" M   274.79,   477.71  C   276.40    480.44    279.93    481.36    282.67    479.74  " /><path style="stroke-width:1.42 ;&st7;   " d=" M   282.67,   479.74  C   283.55    479.22    284.18    478.59    284.70    477.71  " /><path style="stroke-width:0.85 ;&st7;   " d=" M   297.45,   477.71  C   297.45    476.92    296.82    476.29    296.03    476.29  " /><path style="stroke-width:0.85 ;&st7;   " d=" M   296.03,   476.29  C   295.25    476.29    294.62    476.92    294.62    477.71  " /><path style="stroke-width:0.85 ;&st7;   " d=" M   294.62,   477.71  C   294.62    478.49    295.25    479.12    296.03    479.12  " /><path style="stroke-width:0.85 ;&st7;   " d=" M   296.03,   479.12  C   296.82    479.12    297.45    478.49    297.45    477.71  " /><path style="stroke-width:0.85 ;&st7;   " d=" M   274.79,   477.71  C   274.79    476.92    274.15    476.29    273.37    476.29  " /><path style="stroke-width:0.85 ;&st7;   " d=" M   273.37,   476.29  C   272.59    476.29    271.95    476.92    271.95    477.71  " /><path style="stroke-width:0.85 ;&st7;   " d=" M   271.95,   477.71  C   271.95    478.49    272.59    479.12    273.37    479.12  " /><path style="stroke-width:0.85 ;&st7;   " d=" M   273.37,   479.12  C   274.15    479.12    274.79    478.49    274.79    477.71  " /><path style="stroke-width:0.85 ;&st7;  " d=" M   305.95,   477.71  L   297.45,   477.71  " /><path style="stroke-width:1.42 ;&st7;  " d=" M   263.46,   464.96  L   263.46,   490.45  L   305.95,   490.45  L   305.95,   464.96  L   263.46,   464.96  " /></g><g ewd:figtype="rb" ewd:figID="7" ewd:code="FUSE51"><path style="stroke-width:0.85 ;&st7;  " d=" M   271.95,   520.20  L   263.46,   520.20  " /><path style="stroke-width:1.42 ;&st7;   " d=" M   294.62,   520.20  C   293.00    517.46    289.48    516.55    286.74    518.16  " /><path style="stroke-width:1.42 ;&st7;   " d=" M   286.74,   518.16  C   285.86    518.68    285.22    519.32    284.70    520.20  " /><path style="stroke-width:1.42 ;&st7;   " d=" M   274.79,   520.20  C   276.40    522.94    279.93    523.85    282.67    522.24  " /><path style="stroke-width:1.42 ;&st7;   " d=" M   282.67,   522.24  C   283.55    521.72    284.18    521.08    284.70    520.20  " /><path style="stroke-width:0.85 ;&st7;   " d=" M   297.45,   520.20  C   297.45    519.42    296.82    518.78    296.03    518.78  " /><path style="stroke-width:0.85 ;&st7;   " d=" M   296.03,   518.78  C   295.25    518.78    294.62    519.42    294.62    520.20  " /><path style="stroke-width:0.85 ;&st7;   " d=" M   294.62,   520.20  C   294.62    520.98    295.25    521.61    296.03    521.61  " /><path style="stroke-width:0.85 ;&st7;   " d=" M   296.03,   521.61  C   296.82    521.61    297.45    520.98    297.45    520.20  " /><path style="stroke-width:0.85 ;&st7;   " d=" M   274.79,   520.20  C   274.79    519.42    274.15    518.78    273.37    518.78  " /><path style="stroke-width:0.85 ;&st7;   " d=" M   273.37,   518.78  C   272.59    518.78    271.95    519.42    271.95    520.20  " /><path style="stroke-width:0.85 ;&st7;   " d=" M   271.95,   520.20  C   271.95    520.98    272.59    521.61    273.37    521.61  " /><path style="stroke-width:0.85 ;&st7;   " d=" M   273.37,   521.61  C   274.15    521.61    274.79    520.98    274.79    520.20  " /><path style="stroke-width:0.85 ;&st7;  " d=" M   305.95,   520.20  L   297.45,   520.20  " /><path style="stroke-width:1.42 ;&st7;  " d=" M   263.46,   507.45  L   263.46,   532.95  L   305.95,   532.95  L   305.95,   507.45  L   263.46,   507.45  " /></g><g ewd:figtype="conn" ewd:figID="8" ewd:code="A37,E3"><path style="stroke-width:0.85 ;&st7;  " d=" M    50.99,   435.21  L    50.99,   438.05  " /><path style="stroke-width:0.85 ;&st7;  " d=" M    50.99,   429.55  L    50.99,   432.38  " /><path style="stroke-width:0.85 ;&st7;  " d=" M    50.99,   423.88  L    50.99,   426.71  " /><path style="stroke-width:0.85 ;&st7;  " d=" M    50.99,   418.22  L    50.99,   401.22  " /><path style="stroke-width:1.42 ;&st7;  " d=" M    33.99,   401.22  L    67.99,   401.22  L    67.99,   460.71  L    33.99,   460.71  L    33.99,   401.22  " /><path style="stroke-width:1.42 ;&st7;  " d=" M    55.24,   443.71  L    55.24,   442.29  L    46.74,   442.29  L    46.74,   443.71  L    55.24,   443.71  " /><path style="stroke-width:1.42 ;&st7;  " d=" M    55.24,   423.88  L    46.74,   423.88  L    46.74,   422.46  L    55.24,   422.46  L    55.24,   423.88  " /><path style="stroke-width:0.85 ;&st7;  " d=" M    50.99,   443.71  L    50.99,   460.71  " /><path style="stroke-width:0.85 ;&st7;  " d=" M    42.49,   438.05  L    59.49,   438.05  " /><path style="stroke-width:0.85 ;&st7;  " d=" M    42.49,   418.22  L    59.49,   418.22  " /><text style="&st18;" transform="matrix(&st16;  42.3  467.21 )">1</text><path style="stroke-width:1.42 ;&st7;   " d=" M    55.52,   465.24  C    55.52    462.74     53.49    460.71     50.99    460.71  " /><path style="stroke-width:1.42 ;&st7;   " d=" M    50.99,   460.71  C    48.49    460.71     46.46    462.74     46.46    465.24  " /><path style="stroke-width:1.42 ;&st7;   " d=" M    46.46,   465.24  C    46.46    467.74     48.49    469.77     50.99    469.77  " /><path style="stroke-width:1.42 ;&st7;   " d=" M    50.99,   469.77  C    53.49    469.77     55.52    467.74     55.52    465.24  " /><text style="&st18;" transform="matrix(&st16;  48.8  467.21 )">B</text><path style="stroke-width:1.42 ;&st7;   " d=" M    55.52,   396.69  C    55.52    394.18     53.49    392.15     50.99    392.15  " /><path style="stroke-width:1.42 ;&st7;   " d=" M    50.99,   392.15  C    48.49    392.15     46.46    394.18     46.46    396.69  " /><path style="stroke-width:1.42 ;&st7;   " d=" M    46.46,   396.69  C    46.46    399.19     48.49    401.22     50.99    401.22  " /><path style="stroke-width:1.42 ;&st7;   " d=" M    50.99,   401.22  C    53.49    401.22     55.52    399.19     55.52    396.69  " /><text style="&st18;" transform="matrix(&st16;  42.3  398.65 )">1</text><text style="&st18;" transform="matrix(&st16;  48.69  398.65 )">A</text><g ewd:figtype="title"><text style="&st18;" transform="matrix(&st17;  75.88  463.61 )">A37(A),E3(B)</text><text style="&st18;" transform="matrix(&st17;  82.71  463.61 )" ewd:textID="11">Battery (Sub)</text></g></g><g ewd:figtype="conn" ewd:figID="9" ewd:code="E2,F2"><path style="stroke-width:0.85 ;&st7;  " d=" M    50.99,   562.69  L    50.99,   565.52  " /><path style="stroke-width:0.85 ;&st7;  " d=" M    50.99,   557.03  L    50.99,   559.86  " /><path style="stroke-width:0.85 ;&st7;  " d=" M    50.99,   551.36  L    50.99,   554.19  " /><path style="stroke-width:0.85 ;&st7;  " d=" M    50.99,   545.69  L    50.99,   528.70  " /><path style="stroke-width:0.85 ;&st7;  " d=" M    42.49,   565.52  L    59.49,   565.52  " /><path style="stroke-width:0.85 ;&st7;  " d=" M    42.49,   545.69  L    59.49,   545.69  " /><path style="stroke-width:1.42 ;&st7;  " d=" M    33.99,   528.70  L    67.99,   528.70  L    67.99,   588.19  L    33.99,   588.19  L    33.99,   528.70  " /><path style="stroke-width:1.42 ;&st7;  " d=" M    55.24,   571.19  L    55.24,   569.77  L    46.74,   569.77  L    46.74,   571.19  L    55.24,   571.19  " /><path style="stroke-width:1.42 ;&st7;  " d=" M    55.24,   551.36  L    46.74,   551.36  L    46.74,   549.94  L    55.24,   549.94  L    55.24,   551.36  " /><path style="stroke-width:0.85 ;&st7;  " d=" M    50.99,   571.19  L    50.99,   588.19  " /><text style="&st18;" transform="matrix(&st16;  42.3  594.69 )">1</text><text style="&st18;" transform="matrix(&st16;  48.8  594.69 )">B</text><path style="stroke-width:1.42 ;&st7;   " d=" M    55.52,   592.72  C    55.52    590.22     53.49    588.19     50.99    588.19  " /><path style="stroke-width:1.42 ;&st7;   " d=" M    50.99,   588.19  C    48.49    588.19     46.46    590.22     46.46    592.72  " /><path style="stroke-width:1.42 ;&st7;   " d=" M    46.46,   592.72  C    46.46    595.22     48.49    597.25     50.99    597.25  " /><path style="stroke-width:1.42 ;&st7;   " d=" M    50.99,   597.25  C    53.49    597.25     55.52    595.22     55.52    592.72  " /><text style="&st18;" transform="matrix(&st16;  42.3  526.13 )">1</text><text style="&st18;" transform="matrix(&st16;  48.69  526.13 )">A</text><path style="stroke-width:1.42 ;&st7;   " d=" M    55.52,   524.16  C    55.52    521.66     53.49    519.63     50.99    519.63  " /><path style="stroke-width:1.42 ;&st7;   " d=" M    50.99,   519.63  C    48.49    519.63     46.46    521.66     46.46    524.16  " /><path style="stroke-width:1.42 ;&st7;   " d=" M    46.46,   524.16  C    46.46    526.67     48.49    528.70     50.99    528.70  " /><path style="stroke-width:1.42 ;&st7;   " d=" M    50.99,   528.70  C    53.49    528.70     55.52    526.67     55.52    524.16  " /><g ewd:figtype="title"><text style="&st18;" transform="matrix(&st17;  82.71  591.09 )" ewd:textID="11">Battery (Sub)</text><text style="&st18;" transform="matrix(&st17;  75.88  591.09 )">E2(A),F2(B)</text></g></g><g ewd:figtype="conn" ewd:figID="11" ewd:code="A35,A36,D9,E1,E4,F1"><path style="stroke-width:0.85 ;&st7;  " d=" M   152.97,   562.69  L   152.97,   565.52  " /><path style="stroke-width:0.85 ;&st7;  " d=" M   152.97,   557.03  L   152.97,   559.86  " /><path style="stroke-width:0.85 ;&st7;  " d=" M   152.97,   551.36  L   152.97,   554.19  " /><path style="stroke-width:0.85 ;&st7;  " d=" M   152.97,   571.19  L   152.97,   588.19  " /><path style="stroke-width:0.85 ;&st7;  " d=" M   152.97,   545.69  L   152.97,   528.70  " /><path style="stroke-width:0.85 ;&st7;  " d=" M   144.48,   565.52  L   161.47,   565.52  " /><path style="stroke-width:0.85 ;&st7;  " d=" M   144.48,   545.69  L   161.47,   545.69  " /><path style="stroke-width:0.85 ;&st7;  " d=" M   126.29,   536.19  L   126.01,   536.66  L   125.92,   537.20  L   126.01,   537.73  L   126.29,   538.20  L   126.70,   538.54  L   127.21,   538.73  L   127.75,   538.73  L   128.26,   538.54  L   128.67,   538.20  L   128.94,   537.73  L   129.04,   537.20  L   128.94,   536.66  L   128.67,   536.19  L   128.26,   535.85  L   127.75,   535.66  L   127.21,   535.66  L   126.70,   535.85  L   126.29,   536.19  L   126.68,   536.90  L   126.68,   537.49  L   127.05,   537.93  L   127.63,   538.03  L   128.13,   537.74  L   128.33,   537.20  L   128.13,   536.65  L   127.63,   536.36  L   127.05,   536.46  L   127.48,   537.20  " /><path style="stroke-width:0.85 ;&st7;  " d=" M   127.48,   528.70  L   127.48,   537.20  " /><path style="stroke-width:0.85 ;&st7;  " d=" M   151.78,   578.69  L   151.51,   579.16  L   151.42,   579.69  L   151.51,   580.22  L   151.78,   580.69  L   152.20,   581.04  L   152.70,   581.22  L   153.25,   581.22  L   153.75,   581.04  L   154.17,   580.69  L   154.44,   580.22  L   154.53,   579.69  L   154.44,   579.16  L   154.17,   578.69  L   153.75,   578.34  L   153.25,   578.15  L   152.70,   578.15  L   152.20,   578.34  L   151.78,   578.69  L   152.18,   579.40  L   152.18,   579.98  L   152.55,   580.43  L   153.12,   580.52  L   153.63,   580.24  L   153.82,   579.69  L   153.63,   579.14  L   153.12,   578.85  L   152.55,   578.95  L   152.97,   579.69  " /><path style="stroke-width:0.85 ;&st7;  " d=" M   151.78,   536.19  L   151.51,   536.66  L   151.42,   537.20  L   151.51,   537.73  L   151.78,   538.20  L   152.20,   538.54  L   152.70,   538.73  L   153.25,   538.73  L   153.75,   538.54  L   154.17,   538.20  L   154.44,   537.73  L   154.53,   537.20  L   154.44,   536.66  L   154.17,   536.19  L   153.75,   535.85  L   153.25,   535.66  L   152.70,   535.66  L   152.20,   535.85  L   151.78,   536.19  L   152.18,   536.90  L   152.18,   537.49  L   152.55,   537.93  L   153.12,   538.03  L   153.63,   537.74  L   153.82,   537.20  L   153.63,   536.65  L   153.12,   536.36  L   152.55,   536.46  L   152.97,   537.20  " /><path style="stroke-width:0.85 ;&st7;  " d=" M   101.98,   588.19  L   101.98,   579.69  L   186.97,   579.69  L   186.97,   588.19  " /><path style="stroke-width:0.85 ;&st7;  " d=" M   152.97,   537.20  L   101.98,   537.20  L   101.98,   528.70  " /><path style="stroke-width:1.42 ;&st7;  " d=" M    93.48,   528.70  L   203.97,   528.70  L   203.97,   588.19  L    93.48,   588.19  L    93.48,   528.70  " /><path style="stroke-width:1.42 ;&st7;  " d=" M   157.22,   571.19  L   157.22,   569.77  L   148.73,   569.77  L   148.73,   571.19  L   157.22,   571.19  " /><path style="stroke-width:1.42 ;&st7;  " d=" M   157.22,   551.36  L   148.73,   551.36  L   148.73,   549.94  L   157.22,   549.94  L   157.22,   551.36  " /><text style="&st18;" transform="matrix(&st16;  118.78  526.13 )">1</text><path style="stroke-width:1.42 ;&st7;   " d=" M   132.01,   524.16  C   132.01    521.66    129.98    519.63    127.48    519.63  " /><path style="stroke-width:1.42 ;&st7;   " d=" M   127.48,   519.63  C   124.98    519.63    122.95    521.66    122.95    524.16  " /><path style="stroke-width:1.42 ;&st7;   " d=" M   122.95,   524.16  C   122.95    526.67    124.98    528.70    127.48    528.70  " /><path style="stroke-width:1.42 ;&st7;   " d=" M   127.48,   528.70  C   129.98    528.70    132.01    526.67    132.01    524.16  " /><text style="&st18;" transform="matrix(&st16;  125.37  526.13 )">F</text><text style="&st18;" transform="matrix(&st16;  93.29  594.69 )">1</text><path style="stroke-width:1.42 ;&st7;   " d=" M   106.52,   592.72  C   106.52    590.22    104.49    588.19    101.98    588.19  " /><path style="stroke-width:1.42 ;&st7;   " d=" M   101.98,   588.19  C    99.48    588.19     97.45    590.22     97.45    592.72  " /><path style="stroke-width:1.42 ;&st7;   " d=" M    97.45,   592.72  C    97.45    595.22     99.48    597.25    101.98    597.25  " /><path style="stroke-width:1.42 ;&st7;   " d=" M   101.98,   597.25  C   104.49    597.25    106.52    595.22    106.52    592.72  " /><text style="&st18;" transform="matrix(&st16;  99.6  594.69 )">D</text><text style="&st18;" transform="matrix(&st16;  93.29  526.13 )">1</text><path style="stroke-width:1.42 ;&st7;   " d=" M   106.52,   524.16  C   106.52    521.66    104.49    519.63    101.98    519.63  " /><path style="stroke-width:1.42 ;&st7;   " d=" M   101.98,   519.63  C    99.48    519.63     97.45    521.66     97.45    524.16  " /><path style="stroke-width:1.42 ;&st7;   " d=" M    97.45,   524.16  C    97.45    526.67     99.48    528.70    101.98    528.70  " /><path style="stroke-width:1.42 ;&st7;   " d=" M   101.98,   528.70  C   104.49    528.70    106.52    526.67    106.52    524.16  " /><text style="&st18;" transform="matrix(&st16;  99.87  526.13 )">E</text><text style="&st18;" transform="matrix(&st16;  144.28  594.69 )">1</text><text style="&st18;" transform="matrix(&st16;  150.79  594.69 )">B</text><path style="stroke-width:1.42 ;&st7;   " d=" M   157.51,   592.72  C   157.51    590.22    155.48    588.19    152.97    588.19  " /><path style="stroke-width:1.42 ;&st7;   " d=" M   152.97,   588.19  C   150.47    588.19    148.44    590.22    148.44    592.72  " /><path style="stroke-width:1.42 ;&st7;   " d=" M   148.44,   592.72  C   148.44    595.22    150.47    597.25    152.97    597.25  " /><path style="stroke-width:1.42 ;&st7;   " d=" M   152.97,   597.25  C   155.48    597.25    157.51    595.22    157.51    592.72  " /><text style="&st18;" transform="matrix(&st16;  178.27  594.69 )">1</text><text style="&st18;" transform="matrix(&st16;  184.51  594.69 )">G</text><path style="stroke-width:1.42 ;&st7;   " d=" M   191.50,   592.72  C   191.50    590.22    189.47    588.19    186.97    588.19  " /><path style="stroke-width:1.42 ;&st7;   " d=" M   186.97,   588.19  C   184.47    588.19    182.44    590.22    182.44    592.72  " /><path style="stroke-width:1.42 ;&st7;   " d=" M   182.44,   592.72  C   182.44    595.22    184.47    597.25    186.97    597.25  " /><path style="stroke-width:1.42 ;&st7;   " d=" M   186.97,   597.25  C   189.47    597.25    191.50    595.22    191.50    592.72  " /><text style="&st18;" transform="matrix(&st16;  150.67  526.13 )">A</text><path style="stroke-width:1.42 ;&st7;   " d=" M   157.51,   524.16  C   157.51    521.66    155.48    519.63    152.97    519.63  " /><path style="stroke-width:1.42 ;&st7;   " d=" M   152.97,   519.63  C   150.47    519.63    148.44    521.66    148.44    524.16  " /><path style="stroke-width:1.42 ;&st7;   " d=" M   148.44,   524.16  C   148.44    526.67    150.47    528.70    152.97    528.70  " /><path style="stroke-width:1.42 ;&st7;   " d=" M   152.97,   528.70  C   155.48    528.70    157.51    526.67    157.51    524.16  " /><text style="&st18;" transform="matrix(&st16;  144.28  526.13 )">1</text><g ewd:figtype="title"><text style="&st18;" transform="matrix(&st17;  211.31  591.09 )">A35(A),A36(B),D9(D), <tspan x="0 " dy="6.0">E1(E),E4(F),F1(G)</tspan></text><text style="&st18;" transform="matrix(&st17;  224.35  591.09 )" ewd:textID="10">Battery (Main)</text></g></g><g ewd:figtype="rb" ewd:figID="13" ewd:code="FUSE55"><path style="stroke-width:0.85 ;&st7;  " d=" M   271.95,   562.69  L   263.46,   562.69  " /><path style="stroke-width:1.42 ;&st7;   " d=" M   294.62,   562.69  C   293.00    559.95    289.48    559.04    286.74    560.65  " /><path style="stroke-width:1.42 ;&st7;   " d=" M   286.74,   560.65  C   285.86    561.17    285.22    561.81    284.70    562.69  " /><path style="stroke-width:1.42 ;&st7;   " d=" M   274.79,   562.69  C   276.40    565.43    279.93    566.34    282.67    564.73  " /><path style="stroke-width:1.42 ;&st7;   " d=" M   282.67,   564.73  C   283.55    564.21    284.18    563.57    284.70    562.69  " /><path style="stroke-width:1.42 ;&st7;  " d=" M   263.46,   549.94  L   263.46,   575.44  L   305.95,   575.44  L   305.95,   549.94  L   263.46,   549.94  " /><path style="stroke-width:0.85 ;&st7;  " d=" M   305.95,   562.69  L   297.45,   562.69  " /><path style="stroke-width:0.85 ;&st7;   " d=" M   297.45,   562.69  C   297.45    561.91    296.82    561.27    296.03    561.27  " /><path style="stroke-width:0.85 ;&st7;   " d=" M   296.03,   561.27  C   295.25    561.27    294.62    561.91    294.62    562.69  " /><path style="stroke-width:0.85 ;&st7;   " d=" M   294.62,   562.69  C   294.62    563.47    295.25    564.11    296.03    564.11  " /><path style="stroke-width:0.85 ;&st7;   " d=" M   296.03,   564.11  C   296.82    564.11    297.45    563.47    297.45    562.69  " /><path style="stroke-width:0.85 ;&st7;   " d=" M   274.79,   562.69  C   274.79    561.91    274.15    561.27    273.37    561.27  " /><path style="stroke-width:0.85 ;&st7;   " d=" M   273.37,   561.27  C   272.59    561.27    271.95    561.91    271.95    562.69  " /><path style="stroke-width:0.85 ;&st7;   " d=" M   271.95,   562.69  C   271.95    563.47    272.59    564.11    273.37    564.11  " /><path style="stroke-width:0.85 ;&st7;   " d=" M   273.37,   564.11  C   274.15    564.11    274.79    563.47    274.79    562.69  " /></g><g ewd:figtype="rb" ewd:figID="15" ewd:code="FUSE56"><path style="stroke-width:0.85 ;&st7;  " d=" M   271.95,   605.18  L   263.46,   605.18  " /><path style="stroke-width:0.85 ;&st7;   " d=" M   274.79,   605.18  C   274.79    604.40    274.15    603.77    273.37    603.77  " /><path style="stroke-width:0.85 ;&st7;   " d=" M   273.37,   603.77  C   272.59    603.77    271.95    604.40    271.95    605.18  " /><path style="stroke-width:0.85 ;&st7;   " d=" M   271.95,   605.18  C   271.95    605.97    272.59    606.60    273.37    606.60  " /><path style="stroke-width:0.85 ;&st7;   " d=" M   273.37,   606.60  C   274.15    606.60    274.79    605.97    274.79    605.18  " /><path style="stroke-width:0.85 ;&st7;   " d=" M   297.45,   605.18  C   297.45    604.40    296.82    603.77    296.03    603.77  " /><path style="stroke-width:0.85 ;&st7;   " d=" M   296.03,   603.77  C   295.25    603.77    294.62    604.40    294.62    605.18  " /><path style="stroke-width:0.85 ;&st7;   " d=" M   294.62,   605.18  C   294.62    605.97    295.25    606.60    296.03    606.60  " /><path style="stroke-width:0.85 ;&st7;   " d=" M   296.03,   606.60  C   296.82    606.60    297.45    605.97    297.45    605.18  " /><path style="stroke-width:1.42 ;&st7;   " d=" M   274.79,   605.18  C   276.40    607.92    279.93    608.83    282.67    607.22  " /><path style="stroke-width:1.42 ;&st7;   " d=" M   282.67,   607.22  C   283.55    606.70    284.18    606.07    284.70    605.18  " /><path style="stroke-width:1.42 ;&st7;   " d=" M   294.62,   605.18  C   293.00    602.45    289.48    601.53    286.74    603.15  " /><path style="stroke-width:1.42 ;&st7;   " d=" M   286.74,   603.15  C   285.86    603.67    285.22    604.30    284.70    605.18  " /><path style="stroke-width:1.42 ;&st7;  " d=" M   263.46,   592.44  L   263.46,   617.93  L   305.95,   617.93  L   305.95,   592.44  L   263.46,   592.44  " /><path style="stroke-width:0.85 ;&st7;  " d=" M   305.95,   605.18  L   297.45,   605.18  " /></g><g ewd:figtype="rb" ewd:figID="17" ewd:code="FUSE57"><path style="stroke-width:0.85 ;&st7;  " d=" M   271.95,   647.68  L   263.46,   647.68  " /><path style="stroke-width:0.85 ;&st7;   " d=" M   274.79,   647.68  C   274.79    646.89    274.15    646.26    273.37    646.26  " /><path style="stroke-width:0.85 ;&st7;   " d=" M   273.37,   646.26  C   272.59    646.26    271.95    646.89    271.95    647.68  " /><path style="stroke-width:0.85 ;&st7;   " d=" M   271.95,   647.68  C   271.95    648.46    272.59    649.09    273.37    649.09  " /><path style="stroke-width:0.85 ;&st7;   " d=" M   273.37,   649.09  C   274.15    649.09    274.79    648.46    274.79    647.68  " /><path style="stroke-width:0.85 ;&st7;   " d=" M   297.45,   647.68  C   297.45    646.89    296.82    646.26    296.03    646.26  " /><path style="stroke-width:0.85 ;&st7;   " d=" M   296.03,   646.26  C   295.25    646.26    294.62    646.89    294.62    647.68  " /><path style="stroke-width:0.85 ;&st7;   " d=" M   294.62,   647.68  C   294.62    648.46    295.25    649.09    296.03    649.09  " /><path style="stroke-width:0.85 ;&st7;   " d=" M   296.03,   649.09  C   296.82    649.09    297.45    648.46    297.45    647.68  " /><path style="stroke-width:1.42 ;&st7;   " d=" M   274.79,   647.68  C   276.40    650.41    279.93    651.33    282.67    649.71  " /><path style="stroke-width:1.42 ;&st7;   " d=" M   282.67,   649.71  C   283.55    649.19    284.18    648.56    284.70    647.68  " /><path style="stroke-width:1.42 ;&st7;   " d=" M   294.62,   647.68  C   293.00    644.94    289.48    644.03    286.74    645.64  " /><path style="stroke-width:1.42 ;&st7;   " d=" M   286.74,   645.64  C   285.86    646.16    285.22    646.80    284.70    647.68  " /><path style="stroke-width:1.42 ;&st7;  " d=" M   263.46,   634.93  L   263.46,   660.42  L   305.95,   660.42  L   305.95,   634.93  L   263.46,   634.93  " /><path style="stroke-width:0.85 ;&st7;  " d=" M   305.95,   647.68  L   297.45,   647.68  " /></g><g ewd:figtype="rb" ewd:figID="19" ewd:code="FUSE54"><path style="stroke-width:0.85 ;&st7;  " d=" M   271.95,   690.17  L   263.46,   690.17  " /><path style="stroke-width:0.85 ;&st7;   " d=" M   274.79,   690.17  C   274.79    689.39    274.15    688.75    273.37    688.75  " /><path style="stroke-width:0.85 ;&st7;   " d=" M   273.37,   688.75  C   272.59    688.75    271.95    689.39    271.95    690.17  " /><path style="stroke-width:0.85 ;&st7;   " d=" M   271.95,   690.17  C   271.95    690.95    272.59    691.59    273.37    691.59  " /><path style="stroke-width:0.85 ;&st7;   " d=" M   273.37,   691.59  C   274.15    691.59    274.79    690.95    274.79    690.17  " /><path style="stroke-width:0.85 ;&st7;   " d=" M   297.45,   690.17  C   297.45    689.39    296.82    688.75    296.03    688.75  " /><path style="stroke-width:0.85 ;&st7;   " d=" M   296.03,   688.75  C   295.25    688.75    294.62    689.39    294.62    690.17  " /><path style="stroke-width:0.85 ;&st7;   " d=" M   294.62,   690.17  C   294.62    690.95    295.25    691.59    296.03    691.59  " /><path style="stroke-width:0.85 ;&st7;   " d=" M   296.03,   691.59  C   296.82    691.59    297.45    690.95    297.45    690.17  " /><path style="stroke-width:1.42 ;&st7;   " d=" M   274.79,   690.17  C   276.40    692.91    279.93    693.82    282.67    692.21  " /><path style="stroke-width:1.42 ;&st7;   " d=" M   282.67,   692.21  C   283.55    691.69    284.18    691.05    284.70    690.17  " /><path style="stroke-width:1.42 ;&st7;   " d=" M   294.62,   690.17  C   293.00    687.43    289.48    686.52    286.74    688.13  " /><path style="stroke-width:1.42 ;&st7;   " d=" M   286.74,   688.13  C   285.86    688.65    285.22    689.29    284.70    690.17  " /><path style="stroke-width:1.42 ;&st7;  " d=" M   263.46,   677.42  L   263.46,   702.92  L   305.95,   702.92  L   305.95,   677.42  L   263.46,   677.42  " /><path style="stroke-width:0.85 ;&st7;  " d=" M   305.95,   690.17  L   297.45,   690.17  " /></g><g ewd:figtype="rb" ewd:figID="60" ewd:code="FUSE48"><path style="stroke-width:0.85 ;&st7;  " d=" M   271.95,   350.23  L   263.46,   350.23  " /><path style="stroke-width:1.42 ;&st7;   " d=" M   294.62,   350.23  C   293.00    347.49    289.48    346.58    286.74    348.19  " /><path style="stroke-width:1.42 ;&st7;   " d=" M   286.74,   348.19  C   285.86    348.71    285.22    349.34    284.70    350.23  " /><path style="stroke-width:1.42 ;&st7;   " d=" M   274.79,   350.23  C   276.40    352.96    279.93    353.88    282.67    352.26  " /><path style="stroke-width:1.42 ;&st7;   " d=" M   282.67,   352.26  C   283.55    351.74    284.18    351.11    284.70    350.23  " /><path style="stroke-width:0.85 ;&st7;   " d=" M   297.45,   350.23  C   297.45    349.44    296.82    348.81    296.03    348.81  " /><path style="stroke-width:0.85 ;&st7;   " d=" M   296.03,   348.81  C   295.25    348.81    294.62    349.44    294.62    350.23  " /><path style="stroke-width:0.85 ;&st7;   " d=" M   294.62,   350.23  C   294.62    351.01    295.25    351.64    296.03    351.64  " /><path style="stroke-width:0.85 ;&st7;   " d=" M   296.03,   351.64  C   296.82    351.64    297.45    351.01    297.45    350.23  " /><path style="stroke-width:0.85 ;&st7;   " d=" M   274.79,   350.23  C   274.79    349.44    274.15    348.81    273.37    348.81  " /><path style="stroke-width:0.85 ;&st7;   " d=" M   273.37,   348.81  C   272.59    348.81    271.95    349.44    271.95    350.23  " /><path style="stroke-width:0.85 ;&st7;   " d=" M   271.95,   350.23  C   271.95    351.01    272.59    351.64    273.37    351.64  " /><path style="stroke-width:0.85 ;&st7;   " d=" M   273.37,   351.64  C   274.15    351.64    274.79    351.01    274.79    350.23  " /><path style="stroke-width:0.85 ;&st7;  " d=" M   305.95,   350.23  L   297.45,   350.23  " /><path style="stroke-width:1.42 ;&st7;  " d=" M   263.46,   337.48  L   263.46,   362.97  L   305.95,   362.97  L   305.95,   337.48  L   263.46,   337.48  " /></g><g ewd:figtype="jb" ewd:figID="80" ewd:code="4"><path style="stroke-width:1.42 ;&st7;  " d=" M   229.46,   269.49  L   225.21,   269.49  " /><path style="stroke-width:1.42 ;&st7;  " d=" M   225.21,   260.99  L   229.46,   260.99  " /><path style="stroke-width:1.42 ;&st7;   " d=" M   233.71,   265.24  C   233.71    262.89    231.81    260.99    229.46    260.99  " /><path style="stroke-width:1.42 ;&st7;   " d=" M   229.46,   269.49  C   231.81    269.49    233.71    267.59    233.71    265.24  " /><path style="stroke-width:1.42 ;&st7;   " d=" M   220.96,   265.24  C   220.96    267.59    222.87    269.49    225.21    269.49  " /><path style="stroke-width:1.42 ;&st7;   " d=" M   225.21,   260.99  C   222.87    260.99    220.96    262.89    220.96    265.24  " /><text style="&st18;" transform="matrix(&st16;  225.54  258.0 )">1</text><text style="&st18;" transform="matrix(&st16;  223.48  267.21 )">4A</text></g><g ewd:figtype="jb" ewd:figID="81" ewd:code="4"><path style="stroke-width:1.42 ;&st7;  " d=" M   229.46,   311.98  L   225.21,   311.98  " /><path style="stroke-width:1.42 ;&st7;  " d=" M   225.21,   303.48  L   229.46,   303.48  " /><path style="stroke-width:1.42 ;&st7;   " d=" M   233.71,   307.73  C   233.71    305.39    231.81    303.48    229.46    303.48  " /><path style="stroke-width:1.42 ;&st7;   " d=" M   229.46,   311.98  C   231.81    311.98    233.71    310.08    233.71    307.73  " /><path style="stroke-width:1.42 ;&st7;   " d=" M   220.96,   307.73  C   220.96    310.08    222.87    311.98    225.21    311.98  " /><path style="stroke-width:1.42 ;&st7;   " d=" M   225.21,   303.48  C   222.87    303.48    220.96    305.39    220.96    307.73  " /><text style="&st18;" transform="matrix(&st16;  225.54  300.5 )">1</text><text style="&st18;" transform="matrix(&st16;  223.6  309.7 )">4B</text></g><g ewd:code="3" ewd:figID="82" ewd:comment="2,1" ewd:figtype="jb"><text style="&st18;" transform="matrix(&st16;  255.95  69.19 )">50A AM1 NO.2</text><text style="&st18;" transform="matrix(&st16;  263.82  154.18 )">50A HTR</text><path style="stroke-width:1.42 ;&st7;  " d=" M   335.69,   218.50  L   331.44,   218.50  " /><path style="stroke-width:1.42 ;&st7;  " d=" M   335.69,   210.00  L   331.44,   210.00  " /><path style="stroke-width:1.42 ;&st7;  " d=" M   335.69,   176.01  L   331.44,   176.01  " /><path style="stroke-width:1.42 ;&st7;  " d=" M   335.69,   167.51  L   331.44,   167.51  " /><path style="stroke-width:1.42 ;&st7;  " d=" M    97.73,   125.01  L   101.98,   125.01  " /><path style="stroke-width:1.42 ;&st7;  " d=" M   101.98,   133.51  L    97.73,   133.51  " /><path style="stroke-width:1.42 ;&st7;  " d=" M   335.69,   133.51  L   331.44,   133.51  " /><path style="stroke-width:1.42 ;&st7;  " d=" M   335.69,   125.01  L   331.44,   125.01  " /><path style="stroke-width:1.42 ;&st7;  " d=" M   335.69,    40.03  L   331.44,    40.03  " /><path style="stroke-width:1.42 ;&st7;  " d=" M   335.69,    48.53  L   331.44,    48.53  " /><path style="stroke-width:1.42 ;&st7;  " d=" M   335.69,    82.52  L   331.44,    82.52  " /><path style="stroke-width:1.42 ;&st7;  " d=" M   335.69,    91.02  L   331.44,    91.02  " /><path style="stroke-width:0.85 ;&st7;  " d=" M   178.47,   214.25  L   186.97,   214.25  " /><path style="stroke-width:0.85 ;&st7;  " d=" M   288.95,   129.26  L   297.45,   129.26  " /><path style="stroke-width:0.85 ;&st7;  " d=" M   178.47,   171.76  L   186.97,   171.76  " /><path style="stroke-width:0.85 ;&st7;  " d=" M   288.95,    44.28  L   297.45,    44.28  " /><path style="stroke-width:0.85 ;&st7;  " d=" M   288.95,    86.77  L   297.45,    86.77  " /><path style="stroke-width:0.85 ;&st7;  " d=" M   288.95,   171.76  L   297.45,   171.76  " /><path style="stroke-width:0.85 ;&st7;  " d=" M   178.47,   129.26  L   186.97,   129.26  " /><path style="stroke-width:0.85 ;&st7;  " d=" M   288.95,   214.25  L   297.45,   214.25  " /><path style="stroke-width:1.42 ;&st7;   " d=" M   155.81,   214.25  C   157.42    216.99    160.95    217.90    163.69    216.29  " /><path style="stroke-width:1.42 ;&st7;   " d=" M   163.69,   216.29  C   164.57    215.77    165.20    215.13    165.72    214.25  " /><path style="stroke-width:1.42 ;&st7;   " d=" M   175.64,   129.26  C   174.02    126.53    170.50    125.61    167.76    127.23  " /><path style="stroke-width:1.42 ;&st7;   " d=" M   167.76,   127.23  C   166.88    127.75    166.24    128.38    165.72    129.26  " /><path style="stroke-width:1.42 ;&st7;   " d=" M   155.81,   129.26  C   157.42    132.00    160.95    132.91    163.69    131.30  " /><path style="stroke-width:1.42 ;&st7;   " d=" M   163.69,   131.30  C   164.57    130.78    165.20    130.15    165.72    129.26  " /><path style="stroke-width:1.42 ;&st7;   " d=" M   339.94,   214.25  C   339.94    211.90    338.04    210.00    335.69    210.00  " /><path style="stroke-width:1.42 ;&st7;   " d=" M   335.69,   218.50  C   338.04    218.50    339.94    216.60    339.94    214.25  " /><path style="stroke-width:1.42 ;&st7;   " d=" M   327.20,   214.25  C   327.20    216.60    329.10    218.50    331.44    218.50  " /><path style="stroke-width:1.42 ;&st7;   " d=" M   331.44,   210.00  C   329.10    210.00    327.20    211.90    327.20    214.25  " /><path style="stroke-width:1.42 ;&st7;   " d=" M   339.94,   171.76  C   339.94    169.41    338.04    167.51    335.69    167.51  " /><path style="stroke-width:1.42 ;&st7;   " d=" M   335.69,   176.01  C   338.04    176.01    339.94    174.10    339.94    171.76  " /><path style="stroke-width:1.42 ;&st7;   " d=" M   327.20,   171.76  C   327.20    174.10    329.10    176.01    331.44    176.01  " /><path style="stroke-width:1.42 ;&st7;   " d=" M   331.44,   167.51  C   329.10    167.51    327.20    169.41    327.20    171.76  " /><path style="stroke-width:1.42 ;&st7;   " d=" M    97.73,   125.01  C    95.39    125.01     93.48    126.92     93.48    129.26  " /><path style="stroke-width:1.42 ;&st7;   " d=" M   339.94,   129.26  C   339.94    126.92    338.04    125.01    335.69    125.01  " /><path style="stroke-width:1.42 ;&st7;   " d=" M   335.69,   133.51  C   338.04    133.51    339.94    131.61    339.94    129.26  " /><path style="stroke-width:1.42 ;&st7;   " d=" M   327.20,   129.26  C   327.20    131.61    329.10    133.51    331.44    133.51  " /><path style="stroke-width:1.42 ;&st7;   " d=" M   331.44,   125.01  C   329.10    125.01    327.20    126.92    327.20    129.26  " /><path style="stroke-width:1.42 ;&st7;   " d=" M    93.48,   129.26  C    93.48    131.61     95.39    133.51     97.73    133.51  " /><path style="stroke-width:1.42 ;&st7;   " d=" M   101.98,   133.51  C   104.33    133.51    106.23    131.61    106.23    129.26  " /><path style="stroke-width:1.42 ;&st7;   " d=" M   106.23,   129.26  C   106.23    126.92    104.33    125.01    101.98    125.01  " /><path style="stroke-width:1.42 ;&st7;   " d=" M   331.44,    40.03  C   329.10     40.03    327.20     41.93    327.20     44.28  " /><path style="stroke-width:1.42 ;&st7;   " d=" M   327.20,    44.28  C   327.20     46.62    329.10     48.53    331.44     48.53  " /><path style="stroke-width:1.42 ;&st7;   " d=" M   335.69,    48.53  C   338.04     48.53    339.94     46.62    339.94     44.28  " /><path style="stroke-width:1.42 ;&st7;   " d=" M   339.94,    44.28  C   339.94     41.93    338.04     40.03    335.69     40.03  " /><path style="stroke-width:1.42 ;&st7;   " d=" M   331.44,    82.52  C   329.10     82.52    327.20     84.42    327.20     86.77  " /><path style="stroke-width:1.42 ;&st7;   " d=" M   327.20,    86.77  C   327.20     89.12    329.10     91.02    331.44     91.02  " /><path style="stroke-width:1.42 ;&st7;   " d=" M   335.69,    91.02  C   338.04     91.02    339.94     89.12    339.94     86.77  " /><path style="stroke-width:1.42 ;&st7;   " d=" M   339.94,    86.77  C   339.94     84.42    338.04     82.52    335.69     82.52  " /><path style="stroke-width:1.42 ;&st7;   " d=" M   286.12,    44.28  C   284.51     41.54    280.98     40.63    278.24     42.24  " /><path style="stroke-width:1.42 ;&st7;   " d=" M   278.24,    42.24  C   277.36     42.76    276.72     43.40    276.20     44.28  " /><path style="stroke-width:0.85 ;&st7;   " d=" M   178.47,   214.25  C   178.47    213.47    177.84    212.83    177.05    212.83  " /><path style="stroke-width:0.85 ;&st7;   " d=" M   177.05,   212.83  C   176.27    212.83    175.64    213.47    175.64    214.25  " /><path style="stroke-width:0.85 ;&st7;   " d=" M   175.64,   214.25  C   175.64    215.03    176.27    215.67    177.05    215.67  " /><path style="stroke-width:0.85 ;&st7;   " d=" M   177.05,   215.67  C   177.84    215.67    178.47    215.03    178.47    214.25  " /><path style="stroke-width:0.85 ;&st7;   " d=" M   155.81,   214.25  C   155.81    213.47    155.17    212.83    154.39    212.83  " /><path style="stroke-width:0.85 ;&st7;   " d=" M   154.39,   212.83  C   153.61    212.83    152.97    213.47    152.97    214.25  " /><path style="stroke-width:0.85 ;&st7;   " d=" M   152.97,   214.25  C   152.97    215.03    153.61    215.67    154.39    215.67  " /><path style="stroke-width:0.85 ;&st7;   " d=" M   154.39,   215.67  C   155.17    215.67    155.81    215.03    155.81    214.25  " /><path style="stroke-width:1.42 ;&st7;   " d=" M   286.12,    86.77  C   284.51     84.03    280.98     83.12    278.24     84.73  " /><path style="stroke-width:1.42 ;&st7;   " d=" M   278.24,    84.73  C   277.36     85.25    276.72     85.89    276.20     86.77  " /><path style="stroke-width:1.42 ;&st7;   " d=" M   266.29,    86.77  C   267.90     89.51    271.43     90.42    274.17     88.81  " /><path style="stroke-width:1.42 ;&st7;   " d=" M   274.17,    88.81  C   275.05     88.29    275.68     87.65    276.20     86.77  " /><path style="stroke-width:1.42 ;&st7;   " d=" M   286.12,   214.25  C   284.51    211.51    280.98    210.60    278.24    212.21  " /><path style="stroke-width:1.42 ;&st7;   " d=" M   278.24,   212.21  C   277.36    212.73    276.72    213.37    276.20    214.25  " /><path style="stroke-width:0.85 ;&st7;   " d=" M   288.95,   129.26  C   288.95    128.48    288.32    127.85    287.54    127.85  " /><path style="stroke-width:0.85 ;&st7;   " d=" M   287.54,   127.85  C   286.75    127.85    286.12    128.48    286.12    129.26  " /><path style="stroke-width:0.85 ;&st7;   " d=" M   286.12,   129.26  C   286.12    130.05    286.75    130.68    287.54    130.68  " /><path style="stroke-width:0.85 ;&st7;   " d=" M   287.54,   130.68  C   288.32    130.68    288.95    130.05    288.95    129.26  " /><path style="stroke-width:0.85 ;&st7;   " d=" M   178.47,   171.76  C   178.47    170.97    177.84    170.34    177.05    170.34  " /><path style="stroke-width:0.85 ;&st7;   " d=" M   177.05,   170.34  C   176.27    170.34    175.64    170.97    175.64    171.76  " /><path style="stroke-width:0.85 ;&st7;   " d=" M   175.64,   171.76  C   175.64    172.54    176.27    173.17    177.05    173.17  " /><path style="stroke-width:0.85 ;&st7;   " d=" M   177.05,   173.17  C   177.84    173.17    178.47    172.54    178.47    171.76  " /><path style="stroke-width:0.85 ;&st7;   " d=" M   155.81,   171.76  C   155.81    170.97    155.17    170.34    154.39    170.34  " /><path style="stroke-width:0.85 ;&st7;   " d=" M   154.39,   170.34  C   153.61    170.34    152.97    170.97    152.97    171.76  " /><path style="stroke-width:0.85 ;&st7;   " d=" M   152.97,   171.76  C   152.97    172.54    153.61    173.17    154.39    173.17  " /><path style="stroke-width:0.85 ;&st7;   " d=" M   154.39,   173.17  C   155.17    173.17    155.81    172.54    155.81    171.76  " /><path style="stroke-width:0.85 ;&st7;   " d=" M   266.29,   129.26  C   266.29    128.48    265.65    127.85    264.87    127.85  " /><path style="stroke-width:0.85 ;&st7;   " d=" M   264.87,   127.85  C   264.09    127.85    263.46    128.48    263.46    129.26  " /><path style="stroke-width:0.85 ;&st7;   " d=" M   263.46,   129.26  C   263.46    130.05    264.09    130.68    264.87    130.68  " /><path style="stroke-width:0.85 ;&st7;   " d=" M   264.87,   130.68  C   265.65    130.68    266.29    130.05    266.29    129.26  " /><path style="stroke-width:1.42 ;&st7;   " d=" M   266.29,    44.28  C   267.90     47.02    271.43     47.93    274.17     46.31  " /><path style="stroke-width:1.42 ;&st7;   " d=" M   274.17,    46.31  C   275.05     45.80    275.68     45.16    276.20     44.28  " /><path style="stroke-width:0.85 ;&st7;   " d=" M   178.47,   129.26  C   178.47    128.48    177.84    127.85    177.05    127.85  " /><path style="stroke-width:0.85 ;&st7;   " d=" M   177.05,   127.85  C   176.27    127.85    175.64    128.48    175.64    129.26  " /><path style="stroke-width:0.85 ;&st7;   " d=" M   175.64,   129.26  C   175.64    130.05    176.27    130.68    177.05    130.68  " /><path style="stroke-width:0.85 ;&st7;   " d=" M   177.05,   130.68  C   177.84    130.68    178.47    130.05    178.47    129.26  " /><path style="stroke-width:0.85 ;&st7;   " d=" M   266.29,    44.28  C   266.29     43.50    265.65     42.86    264.87     42.86  " /><path style="stroke-width:0.85 ;&st7;   " d=" M   264.87,    42.86  C   264.09     42.86    263.46     43.50    263.46     44.28  " /><path style="stroke-width:0.85 ;&st7;   " d=" M   263.46,    44.28  C   263.46     45.06    264.09     45.69    264.87     45.69  " /><path style="stroke-width:0.85 ;&st7;   " d=" M   264.87,    45.69  C   265.65     45.69    266.29     45.06    266.29     44.28  " /><path style="stroke-width:0.85 ;&st7;   " d=" M   288.95,    44.28  C   288.95     43.50    288.32     42.86    287.54     42.86  " /><path style="stroke-width:0.85 ;&st7;   " d=" M   287.54,    42.86  C   286.75     42.86    286.12     43.50    286.12     44.28  " /><path style="stroke-width:0.85 ;&st7;   " d=" M   286.12,    44.28  C   286.12     45.06    286.75     45.69    287.54     45.69  " /><path style="stroke-width:0.85 ;&st7;   " d=" M   287.54,    45.69  C   288.32     45.69    288.95     45.06    288.95     44.28  " /><path style="stroke-width:1.42 ;&st7;   " d=" M   175.64,   214.25  C   174.02    211.51    170.50    210.60    167.76    212.21  " /><path style="stroke-width:1.42 ;&st7;   " d=" M   167.76,   212.21  C   166.88    212.73    166.24    213.37    165.72    214.25  " /><path style="stroke-width:0.85 ;&st7;   " d=" M   266.29,    86.77  C   266.29     85.99    265.65     85.35    264.87     85.35  " /><path style="stroke-width:0.85 ;&st7;   " d=" M   264.87,    85.35  C   264.09     85.35    263.46     85.99    263.46     86.77  " /><path style="stroke-width:0.85 ;&st7;   " d=" M   263.46,    86.77  C   263.46     87.55    264.09     88.19    264.87     88.19  " /><path style="stroke-width:0.85 ;&st7;   " d=" M   264.87,    88.19  C   265.65     88.19    266.29     87.55    266.29     86.77  " /><path style="stroke-width:0.85 ;&st7;   " d=" M   288.95,    86.77  C   288.95     85.99    288.32     85.35    287.54     85.35  " /><path style="stroke-width:0.85 ;&st7;   " d=" M   287.54,    85.35  C   286.75     85.35    286.12     85.99    286.12     86.77  " /><path style="stroke-width:0.85 ;&st7;   " d=" M   286.12,    86.77  C   286.12     87.55    286.75     88.19    287.54     88.19  " /><path style="stroke-width:0.85 ;&st7;   " d=" M   287.54,    88.19  C   288.32     88.19    288.95     87.55    288.95     86.77  " /><path style="stroke-width:1.42 ;&st7;   " d=" M   155.81,   171.76  C   157.42    174.49    160.95    175.41    163.69    173.79  " /><path style="stroke-width:1.42 ;&st7;   " d=" M   163.69,   173.79  C   164.57    173.27    165.20    172.64    165.72    171.76  " /><path style="stroke-width:1.42 ;&st7;   " d=" M   175.64,   171.76  C   174.02    169.02    170.50    168.11    167.76    169.72  " /><path style="stroke-width:1.42 ;&st7;   " d=" M   167.76,   169.72  C   166.88    170.24    166.24    170.87    165.72    171.76  " /><path style="stroke-width:0.85 ;&st7;   " d=" M   266.29,   171.76  C   266.29    170.97    265.65    170.34    264.87    170.34  " /><path style="stroke-width:0.85 ;&st7;   " d=" M   264.87,   170.34  C   264.09    170.34    263.46    170.97    263.46    171.76  " /><path style="stroke-width:0.85 ;&st7;   " d=" M   263.46,   171.76  C   263.46    172.54    264.09    173.17    264.87    173.17  " /><path style="stroke-width:0.85 ;&st7;   " d=" M   264.87,   173.17  C   265.65    173.17    266.29    172.54    266.29    171.76  " /><path style="stroke-width:0.85 ;&st7;   " d=" M   288.95,   171.76  C   288.95    170.97    288.32    170.34    287.54    170.34  " /><path style="stroke-width:0.85 ;&st7;   " d=" M   287.54,   170.34  C   286.75    170.34    286.12    170.97    286.12    171.76  " /><path style="stroke-width:0.85 ;&st7;   " d=" M   286.12,   171.76  C   286.12    172.54    286.75    173.17    287.54    173.17  " /><path style="stroke-width:0.85 ;&st7;   " d=" M   287.54,   173.17  C   288.32    173.17    288.95    172.54    288.95    171.76  " /><path style="stroke-width:1.42 ;&st7;   " d=" M   266.29,   171.76  C   267.90    174.49    271.43    175.41    274.17    173.79  " /><path style="stroke-width:1.42 ;&st7;   " d=" M   274.17,   173.79  C   275.05    173.27    275.68    172.64    276.20    171.76  " /><path style="stroke-width:1.42 ;&st7;   " d=" M   286.12,   171.76  C   284.51    169.02    280.98    168.11    278.24    169.72  " /><path style="stroke-width:1.42 ;&st7;   " d=" M   278.24,   169.72  C   277.36    170.24    276.72    170.87    276.20    171.76  " /><path style="stroke-width:0.85 ;&st7;   " d=" M   155.81,   129.26  C   155.81    128.48    155.17    127.85    154.39    127.85  " /><path style="stroke-width:0.85 ;&st7;   " d=" M   154.39,   127.85  C   153.61    127.85    152.97    128.48    152.97    129.26  " /><path style="stroke-width:0.85 ;&st7;   " d=" M   152.97,   129.26  C   152.97    130.05    153.61    130.68    154.39    130.68  " /><path style="stroke-width:0.85 ;&st7;   " d=" M   154.39,   130.68  C   155.17    130.68    155.81    130.05    155.81    129.26  " /><path style="stroke-width:1.42 ;&st7;   " d=" M   266.29,   214.25  C   267.90    216.99    271.43    217.90    274.17    216.29  " /><path style="stroke-width:1.42 ;&st7;   " d=" M   274.17,   216.29  C   275.05    215.77    275.68    215.13    276.20    214.25  " /><path style="stroke-width:0.85 ;&st7;   " d=" M   266.29,   214.25  C   266.29    213.47    265.65    212.83    264.87    212.83  " /><path style="stroke-width:0.85 ;&st7;   " d=" M   264.87,   212.83  C   264.09    212.83    263.46    213.47    263.46    214.25  " /><path style="stroke-width:0.85 ;&st7;   " d=" M   263.46,   214.25  C   263.46    215.03    264.09    215.67    264.87    215.67  " /><path style="stroke-width:0.85 ;&st7;   " d=" M   264.87,   215.67  C   265.65    215.67    266.29    215.03    266.29    214.25  " /><path style="stroke-width:0.85 ;&st7;   " d=" M   288.95,   214.25  C   288.95    213.47    288.32    212.83    287.54    212.83  " /><path style="stroke-width:0.85 ;&st7;   " d=" M   287.54,   212.83  C   286.75    212.83    286.12    213.47    286.12    214.25  " /><path style="stroke-width:0.85 ;&st7;   " d=" M   286.12,   214.25  C   286.12    215.03    286.75    215.67    287.54    215.67  " /><path style="stroke-width:0.85 ;&st7;   " d=" M   287.54,   215.67  C   288.32    215.67    288.95    215.03    288.95    214.25  " /><path style="stroke-width:1.42 ;&st7;   " d=" M   266.29,   129.26  C   267.90    132.00    271.43    132.91    274.17    131.30  " /><path style="stroke-width:1.42 ;&st7;   " d=" M   274.17,   131.30  C   275.05    130.78    275.68    130.15    276.20    129.26  " /><path style="stroke-width:1.42 ;&st7;   " d=" M   286.12,   129.26  C   284.51    126.53    280.98    125.61    278.24    127.23  " /><path style="stroke-width:1.42 ;&st7;   " d=" M   278.24,   127.23  C   277.36    127.75    276.72    128.38    276.20    129.26  " /><path style="stroke-width:0.28 ;&st9;  " d=" M   322.30,   214.25  L   319.47,   211.42  L   323.72,   211.42  L   326.55,   214.25  L   323.72,   217.08  L   319.47,   217.08  L   322.30,   214.25  " /><path style="stroke-width:0.28 ;&st9;  " d=" M   322.30,   171.76  L   319.47,   168.92  L   323.72,   168.92  L   326.55,   171.76  L   323.72,   174.59  L   319.47,   174.59  L   322.30,   171.76  " /><path style="stroke-width:0.28 ;&st9;  " d=" M   322.30,   129.26  L   319.47,   126.43  L   323.72,   126.43  L   326.55,   129.26  L   323.72,   132.10  L   319.47,   132.10  L   322.30,   129.26  " /><path style="stroke-width:0.28 ;&st9;  " d=" M   111.13,   129.26  L   113.96,   126.43  L   109.71,   126.43  L   106.88,   129.26  L   109.71,   132.10  L   113.96,   132.10  L   111.13,   129.26  " /><path style="stroke-width:0.28 ;&st9;  " d=" M   322.30,    86.77  L   319.47,    83.94  L   323.72,    83.94  L   326.55,    86.77  L   323.72,    89.60  L   319.47,    89.60  L   322.30,    86.77  " /><path style="stroke-width:0.85 ;&st7;  " d=" M   126.29,   128.26  L   126.01,   128.73  L   125.92,   129.26  L   126.01,   129.80  L   126.29,   130.27  L   126.70,   130.61  L   127.21,   130.80  L   127.75,   130.80  L   128.26,   130.61  L   128.67,   130.27  L   128.94,   129.80  L   129.04,   129.26  L   128.94,   128.73  L   128.67,   128.26  L   128.26,   127.92  L   127.75,   127.73  L   127.21,   127.73  L   126.70,   127.92  L   126.29,   128.26  L   126.68,   128.97  L   126.68,   129.56  L   127.05,   130.00  L   127.63,   130.10  L   128.13,   129.81  L   128.33,   129.26  L   128.13,   128.72  L   127.63,   128.43  L   127.05,   128.53  L   127.48,   129.26  " /><path style="stroke-width:0.85 ;&st7;  " d=" M   229.46,   214.25  L   229.46,    44.28  " /><path style="stroke-width:0.85 ;&st7;  " d=" M   144.48,   214.25  L   127.48,   214.25  L   127.48,   171.76  " /><path style="stroke-width:0.85 ;&st7;  " d=" M   127.48,   129.26  L   127.48,   171.76  " /><path style="stroke-width:0.85 ;&st7;  " d=" M   297.45,    44.28  L   327.20,    44.28  " /><path style="stroke-width:0.85 ;&st7;  " d=" M   297.45,    86.77  L   327.20,    86.77  " /><path style="stroke-width:0.85 ;&st7;  " d=" M   297.45,   129.26  L   327.20,   129.26  " /><path style="stroke-width:0.85 ;&st7;  " d=" M   297.45,   171.76  L   327.20,   171.76  " /><path style="stroke-width:0.28 ;&st9;  " d=" M   322.30,    44.28  L   319.47,    41.45  L   323.72,    41.45  L   326.55,    44.28  L   323.72,    47.11  L   319.47,    47.11  L   322.30,    44.28  " /><path style="stroke-width:0.85 ;&st7;  " d=" M   297.45,   214.25  L   327.20,   214.25  " /><path style="stroke-width:1.42 ;&st7;  " d=" M   144.48,   201.50  L   144.48,   227.00  L   186.97,   227.00  L   186.97,   201.50  L   144.48,   201.50  " /><path style="stroke-width:0.85 ;&st7;  " d=" M   144.48,   214.25  L   152.97,   214.25  " /><path style="stroke-width:0.85 ;&st7;  " d=" M   229.46,   129.26  L   254.96,   129.26  " /><path style="stroke-width:1.42 ;&st7;  " d=" M   144.48,   159.01  L   144.48,   184.50  L   186.97,   184.50  L   186.97,   159.01  L   144.48,   159.01  " /><path style="stroke-width:0.85 ;&st7;  " d=" M   144.48,   171.76  L   152.97,   171.76  " /><path style="stroke-width:0.85 ;&st7;  " d=" M   106.23,   129.26  L   144.48,   129.26  " /><path style="stroke-width:0.85 ;&st7;  " d=" M   228.27,    85.77  L   228.00,    86.24  L   227.90,    86.77  L   228.00,    87.30  L   228.27,    87.77  L   228.68,    88.12  L   229.19,    88.31  L   229.73,    88.31  L   230.24,    88.12  L   230.65,    87.77  L   230.93,    87.30  L   231.02,    86.77  L   230.93,    86.24  L   230.65,    85.77  L   230.24,    85.42  L   229.73,    85.24  L   229.19,    85.24  L   228.68,    85.42  L   228.27,    85.77  L   228.66,    86.48  L   228.66,    87.06  L   229.04,    87.51  L   229.61,    87.61  L   230.11,    87.32  L   230.31,    86.77  L   230.11,    86.22  L   229.61,    85.94  L   229.04,    86.03  L   229.46,    86.77  " /><path style="stroke-width:0.85 ;&st7;  " d=" M   228.27,   128.26  L   228.00,   128.73  L   227.90,   129.26  L   228.00,   129.80  L   228.27,   130.27  L   228.68,   130.61  L   229.19,   130.80  L   229.73,   130.80  L   230.24,   130.61  L   230.65,   130.27  L   230.93,   129.80  L   231.02,   129.26  L   230.93,   128.73  L   230.65,   128.26  L   230.24,   127.92  L   229.73,   127.73  L   229.19,   127.73  L   228.68,   127.92  L   228.27,   128.26  L   228.66,   128.97  L   228.66,   129.56  L   229.04,   130.00  L   229.61,   130.10  L   230.11,   129.81  L   230.31,   129.26  L   230.11,   128.72  L   229.61,   128.43  L   229.04,   128.53  L   229.46,   129.26  " /><path style="stroke-width:0.85 ;&st7;  " d=" M   228.27,   170.75  L   228.00,   171.22  L   227.90,   171.76  L   228.00,   172.29  L   228.27,   172.76  L   228.68,   173.11  L   229.19,   173.29  L   229.73,   173.29  L   230.24,   173.11  L   230.65,   172.76  L   230.93,   172.29  L   231.02,   171.76  L   230.93,   171.22  L   230.65,   170.75  L   230.24,   170.41  L   229.73,   170.22  L   229.19,   170.22  L   228.68,   170.41  L   228.27,   170.75  L   228.66,   171.47  L   228.66,   172.05  L   229.04,   172.49  L   229.61,   172.59  L   230.11,   172.30  L   230.31,   171.76  L   230.11,   171.21  L   229.61,   170.92  L   229.04,   171.02  L   229.46,   171.76  " /><path style="stroke-width:0.85 ;&st7;  " d=" M   186.97,   129.26  L   229.46,   129.26  " /><path style="stroke-width:0.85 ;&st7;  " d=" M   144.48,   129.26  L   152.97,   129.26  " /><path style="stroke-width:1.42 ;&st7;  " d=" M   144.48,   116.52  L   144.48,   142.01  L   186.97,   142.01  L   186.97,   116.52  L   144.48,   116.52  " /><path style="stroke-width:0.85 ;&st7;  " d=" M   229.46,   214.25  L   254.96,   214.25  " /><path style="stroke-width:0.85 ;&st7;  " d=" M   229.46,   171.76  L   254.96,   171.76  " /><path style="stroke-width:0.85 ;&st7;  " d=" M   229.46,    86.77  L   254.96,    86.77  " /><path style="stroke-width:0.85 ;&st7;  " d=" M   229.46,    44.28  L   254.96,    44.28  " /><path style="stroke-width:0.85 ;&st7;  " d=" M   127.48,   171.76  L   144.48,   171.76  " /><path style="stroke-width:0.85 ;&st7;  " d=" M   186.97,   214.25  L   212.46,   214.25  " /><path style="stroke-width:0.85 ;&st7;  " d=" M   186.97,   171.76  L   212.46,   171.76  " /><path style="stroke-width:0.85 ;&st7;  " d=" M   126.29,   170.75  L   126.01,   171.22  L   125.92,   171.76  L   126.01,   172.29  L   126.29,   172.76  L   126.70,   173.11  L   127.21,   173.29  L   127.75,   173.29  L   128.26,   173.11  L   128.67,   172.76  L   128.94,   172.29  L   129.04,   171.76  L   128.94,   171.22  L   128.67,   170.75  L   128.26,   170.41  L   127.75,   170.22  L   127.21,   170.22  L   126.70,   170.41  L   126.29,   170.75  L   126.68,   171.47  L   126.68,   172.05  L   127.05,   172.49  L   127.63,   172.59  L   128.13,   172.30  L   128.33,   171.76  L   128.13,   171.21  L   127.63,   170.92  L   127.05,   171.02  L   127.48,   171.76  " /><path style="stroke-width:0.85 ;&st7;  " d=" M   254.96,    44.28  L   263.46,    44.28  " /><path style="stroke-width:1.42 ;&st7;  " d=" M   254.96,    31.53  L   254.96,    57.03  L   297.45,    57.03  L   297.45,    31.53  L   254.96,    31.53  " /><path style="stroke-width:0.85 ;&st7;  " d=" M   254.96,    86.77  L   263.46,    86.77  " /><path style="stroke-width:1.42 ;&st7;  " d=" M   254.96,    74.02  L   254.96,    99.52  L   297.45,    99.52  L   297.45,    74.02  L   254.96,    74.02  " /><path style="stroke-width:1.42 ;&st7;  " d=" M   254.96,   116.52  L   254.96,   142.01  L   297.45,   142.01  L   297.45,   116.52  L   254.96,   116.52  " /><path style="stroke-width:0.85 ;&st7;  " d=" M   254.96,   129.26  L   263.46,   129.26  " /><path style="stroke-width:0.85 ;&st7;  " d=" M   254.96,   171.76  L   263.46,   171.76  " /><path style="stroke-width:1.42 ;&st7;  " d=" M   254.96,   159.01  L   254.96,   184.50  L   297.45,   184.50  L   297.45,   159.01  L   254.96,   159.01  " /><path style="stroke-width:0.85 ;&st7;  " d=" M   254.96,   214.25  L   263.46,   214.25  " /><path style="stroke-width:1.42 ;&st7;  " d=" M   254.96,   201.50  L   254.96,   227.00  L   297.45,   227.00  L   297.45,   201.50  L   254.96,   201.50  " /><text style="&st18;" transform="matrix(&st16;  331.77  207.01 )">1</text><text style="&st18;" transform="matrix(&st16;  330.88  216.22 )">3I</text><text style="&st18;" transform="matrix(&st16;  331.77  164.52 )">1</text><text style="&st18;" transform="matrix(&st16;  329.91  173.73 )">3E</text><text style="&st18;" transform="matrix(&st16;  331.77  122.03 )">1</text><text style="&st18;" transform="matrix(&st16;  329.52  131.23 )">3H</text><text style="&st18;" transform="matrix(&st16;  96.12  131.23 )">3B</text><text style="&st18;" transform="matrix(&st16;  331.77  79.53 )">1</text><text style="&st18;" transform="matrix(&st16;  329.91  88.74 )">3F</text><text style="&st18;" transform="matrix(&st16;  329.56  46.25 )">3G</text><text style="&st18;" transform="matrix(&st16;  331.77  37.04 )">1</text><text style="&st18;" transform="matrix(&st16;  98.06  122.03 )">1</text><text style="&st18;" transform="matrix(&st16;  148.72  196.67 )">80A GLOW2</text><text style="&st18;" transform="matrix(&st16;  148.72  154.18 )">80A GLOW1</text><g ewd:code="" ewd:figID="221" ewd:comment="1,2" ewd:figtype="commref"><text style="&st18;" transform="matrix(&st16;  146.12  105.47 )">140A ALT (*1) <tspan x="0 " dy="6.0">100A ALT (*2)</tspan></text></g><text style="&st18;" transform="matrix(&st16;  255.64  196.67 )">50A ALT MAIN</text><text style="&st18;" transform="matrix(&st16;  263.78  26.7 )">30A AM1</text><text style="&st18;" transform="matrix(&st16;  255.95  111.69 )">50A AM1 NO.3</text></g><g ewd:code="AI3" ewd:figID="83" ewd:comment="13" ewd:figtype="w2w"><text style="&st18;" transform="matrix(&st16;  397.63  37.04 )">3</text><g ewd:code="" ewd:figID="178" ewd:comment="13" ewd:figtype="commref"><text style="&st18;" transform="matrix(&st16;  392.67  55.45 )">(*13)</text></g></g><g ewd:code="AI3" ewd:figID="84" ewd:comment="14" ewd:figtype="w2w"><text style="&st18;" transform="matrix(&st16;  414.63  37.04 )">5</text><g ewd:code="" ewd:figID="213" ewd:comment="14" ewd:figtype="commref"><text style="&st18;" transform="matrix(&st16;  409.67  55.45 )">(*14)</text></g></g><g ewd:figtype="w2w" ewd:figID="85" ewd:code="AI1"><path style="stroke-width:1.42 ;&st7;  " d=" M   450.99,   651.93  L   446.74,   647.68  L   450.99,   643.43  " /><path style="stroke-width:1.42 ;&st7;  " d=" M   447.59,   651.93  L   443.34,   647.68  L   447.59,   643.43  " /><text style="&st18;" transform="matrix(&st16;  431.63  640.44 )">1</text></g><g ewd:figtype="w2w" ewd:figID="86" ewd:code="AI4"><path style="stroke-width:1.42 ;&st7;  " d=" M   450.99,   609.43  L   446.74,   605.18  L   450.99,   600.93  " /><path style="stroke-width:1.42 ;&st7;  " d=" M   447.59,   609.43  L   443.34,   605.18  L   447.59,   600.93  " /><text style="&st18;" transform="matrix(&st16;  431.63  597.95 )">4</text></g><g ewd:figtype="w2w" ewd:figID="87" ewd:code="AI4"><path style="stroke-width:1.42 ;&st7;  " d=" M   450.99,   566.94  L   446.74,   562.69  L   450.99,   558.44  " /><path style="stroke-width:1.42 ;&st7;  " d=" M   447.59,   566.94  L   443.34,   562.69  L   447.59,   558.44  " /><text style="&st18;" transform="matrix(&st16;  431.63  555.45 )">3</text></g><g ewd:code="AI1" ewd:figID="88" ewd:comment="1" ewd:figtype="w2w"><text style="&st18;" transform="matrix(&st16;  431.63  444.97 )">5</text><g ewd:code="" ewd:figID="182" ewd:comment="1" ewd:figtype="commref"><text style="&st18;" transform="matrix(&st16;  428.21  463.39 )">(*1)</text></g></g><g ewd:figtype="w2w" ewd:figID="89" ewd:code="AI1"><path style="stroke-width:1.42 ;&st7;  " d=" M   447.59,   286.49  L   443.34,   282.24  L   447.59,   277.99  " /><path style="stroke-width:1.42 ;&st7;  " d=" M   450.99,   286.49  L   446.74,   282.24  L   450.99,   277.99  " /><text style="&st18;" transform="matrix(&st16;  431.63  275.0 )">2</text></g><g ewd:code="AI1" ewd:figID="90" ewd:comment="1" ewd:figtype="w2w"><text style="&st18;" transform="matrix(&st16;  431.63  215.51 )">6</text><g ewd:code="" ewd:figID="184" ewd:comment="1" ewd:figtype="commref"><text style="&st18;" transform="matrix(&st16;  428.21  233.92 )">(*1)</text></g></g><g ewd:code="AI4" ewd:figID="91" ewd:comment="1" ewd:figtype="w2w"><text style="&st18;" transform="matrix(&st16;  431.63  79.53 )">2</text><g ewd:code="" ewd:figID="186" ewd:comment="1" ewd:figtype="commref"><text style="&st18;" transform="matrix(&st16;  428.21  97.95 )">(*1)</text></g></g><g ewd:code="AI7" ewd:figID="92" ewd:comment="6" ewd:figtype="w2w"><text style="&st18;" transform="matrix(&st16;  431.63  37.04 )">8</text><g ewd:code="" ewd:figID="180" ewd:comment="6" ewd:figtype="commref"><text style="&st18;" transform="matrix(&st16;  428.21  55.45 )">(*6)</text></g></g><g ewd:code="AI1" ewd:figID="93" ewd:comment="2" ewd:figtype="w2w"><path style="stroke-width:1.42 ;&st7;  " d=" M   464.59,   447.96  L   460.34,   452.21  L   464.59,   456.46  " /><path style="stroke-width:1.42 ;&st7;  " d=" M   467.99,   447.96  L   463.74,   452.21  L   467.99,   456.46  " /><text style="&st18;" transform="matrix(&st16;  448.62  444.97 )">6</text><g ewd:code="" ewd:figID="181" ewd:comment="2" ewd:figtype="commref"><text style="&st18;" transform="matrix(&st16;  445.21  463.39 )">(*2)</text></g></g><g ewd:code="AI4" ewd:figID="94" ewd:comment="2" ewd:figtype="w2w"><path style="stroke-width:1.42 ;&st7;  " d=" M   464.59,   218.50  L   460.34,   222.75  L   464.59,   227.00  " /><path style="stroke-width:1.42 ;&st7;  " d=" M   467.99,   218.50  L   463.74,   222.75  L   467.99,   227.00  " /><text style="&st18;" transform="matrix(&st16;  448.62  215.51 )">2</text><g ewd:code="" ewd:figID="183" ewd:comment="2" ewd:figtype="commref"><text style="&st18;" transform="matrix(&st16;  445.21  233.92 )">(*2)</text></g></g><g ewd:code="AI1" ewd:figID="95" ewd:comment="2" ewd:figtype="w2w"><path style="stroke-width:1.42 ;&st7;  " d=" M   467.99,    82.52  L   463.74,    86.77  L   467.99,    91.02  " /><path style="stroke-width:1.42 ;&st7;  " d=" M   464.59,    82.52  L   460.34,    86.77  L   464.59,    91.02  " /><text style="&st18;" transform="matrix(&st16;  448.62  79.53 )">4</text><g ewd:code="" ewd:figID="185" ewd:comment="2" ewd:figtype="commref"><text style="&st18;" transform="matrix(&st16;  445.21  97.95 )">(*2)</text></g></g><g ewd:code="AI2" ewd:figID="96" ewd:comment="7" ewd:figtype="w2w"><path style="stroke-width:1.42 ;&st7;  " d=" M   464.59,    40.03  L   460.34,    44.28  L   464.59,    48.53  " /><path style="stroke-width:1.42 ;&st7;  " d=" M   467.99,    40.03  L   463.74,    44.28  L   467.99,    48.53  " /><text style="&st18;" transform="matrix(&st16;  448.62  37.04 )">7</text><g ewd:code="" ewd:figID="179" ewd:comment="7" ewd:figtype="commref"><text style="&st18;" transform="matrix(&st16;  445.21  55.45 )">(*7)</text></g></g><g ewd:figtype="gp" ewd:figID="103" ewd:code="FC"><path style="stroke-width:0.85 ;&st7;  " d=" M    15.58,   710.00  L    18.41,   710.00  " /><path style="stroke-width:0.85 ;&st7;  " d=" M    14.16,   707.17  L    19.83,   707.17  " /><path style="stroke-width:0.85 ;&st7;  " d=" M    12.75,   704.33  L    21.25,   704.33  " /><path style="stroke-width:0.85 ;&st7;  " d=" M     8.50,   701.50  L    25.50,   701.50  " /><path style="stroke-width:0.85 ;&st7;  " d=" M    17.00,   697.25  L    17.00,   701.50  " /></g><g ewd:figtype="gp" ewd:figID="104" ewd:code="FB"><path style="stroke-width:0.85 ;&st7;  " d=" M    49.58,   710.00  L    52.41,   710.00  " /><path style="stroke-width:0.85 ;&st7;  " d=" M    48.16,   707.17  L    53.82,   707.17  " /><path style="stroke-width:0.85 ;&st7;  " d=" M    46.74,   704.33  L    55.24,   704.33  " /><path style="stroke-width:0.85 ;&st7;  " d=" M    42.49,   701.50  L    59.49,   701.50  " /><path style="stroke-width:0.85 ;&st7;  " d=" M    50.99,   697.25  L    50.99,   701.50  " /></g><g ewd:figtype="gp" ewd:figID="105" ewd:code="DA"><path style="stroke-width:0.85 ;&st7;  " d=" M   100.57,   710.00  L   103.40,   710.00  " /><path style="stroke-width:0.85 ;&st7;  " d=" M    99.15,   707.17  L   104.82,   707.17  " /><path style="stroke-width:0.85 ;&st7;  " d=" M    97.73,   704.33  L   106.23,   704.33  " /><path style="stroke-width:0.85 ;&st7;  " d=" M    93.48,   701.50  L   110.48,   701.50  " /><path style="stroke-width:0.85 ;&st7;  " d=" M   101.98,   697.25  L   101.98,   701.50  " /></g><g ewd:figtype="gp" ewd:figID="106" ewd:code="AC"><path style="stroke-width:0.85 ;&st7;  " d=" M   151.56,   710.00  L   154.39,   710.00  " /><path style="stroke-width:0.85 ;&st7;  " d=" M   150.14,   707.17  L   155.81,   707.17  " /><path style="stroke-width:0.85 ;&st7;  " d=" M   148.73,   704.33  L   157.22,   704.33  " /><path style="stroke-width:0.85 ;&st7;  " d=" M   152.97,   697.25  L   152.97,   701.50  " /><path style="stroke-width:0.85 ;&st7;  " d=" M   144.48,   701.50  L   161.47,   701.50  " /></g><g ewd:figtype="gp" ewd:figID="107" ewd:code="FA"><path style="stroke-width:0.85 ;&st7;  " d=" M   185.55,   710.00  L   188.39,   710.00  " /><path style="stroke-width:0.85 ;&st7;  " d=" M   184.14,   707.17  L   189.80,   707.17  " /><path style="stroke-width:0.85 ;&st7;  " d=" M   182.72,   704.33  L   191.22,   704.33  " /><path style="stroke-width:0.85 ;&st7;  " d=" M   178.47,   701.50  L   195.47,   701.50  " /><path style="stroke-width:0.85 ;&st7;  " d=" M   186.97,   697.25  L   186.97,   701.50  " /></g><g ewd:figtype="annex" ewd:figID="75" ewd:code=" "><path style="stroke-width:1.42 ;&st7;   " d=" M    53.82,   344.56  C    53.82    343.00     52.56    341.73     50.99    341.73  " /><path style="stroke-width:1.42 ;&st7;   " d=" M    50.99,   341.73  C    49.43    341.73     48.16    343.00     48.16    344.56  " /><path style="stroke-width:1.42 ;&st7;   " d=" M    48.16,   344.56  C    48.16    346.13     49.43    347.39     50.99    347.39  " /><path style="stroke-width:1.42 ;&st7;   " d=" M    50.99,   347.39  C    52.56    347.39     53.82    346.13     53.82    344.56  " /><path style="stroke-width:1.42 ;&st7;   " d=" M    53.82,   372.89  C    53.82    371.33     52.56    370.06     50.99    370.06  " /><path style="stroke-width:1.42 ;&st7;   " d=" M    50.99,   370.06  C    49.43    370.06     48.16    371.33     48.16    372.89  " /><path style="stroke-width:1.42 ;&st7;   " d=" M    48.16,   372.89  C    48.16    374.45     49.43    375.72     50.99    375.72  " /><path style="stroke-width:1.42 ;&st7;   " d=" M    50.99,   375.72  C    52.56    375.72     53.82    374.45     53.82    372.89  " /><path style="stroke-width:1.42 ;&st7;   " d=" M    50.99,   347.39  C    47.86    348.53     46.25    352.00     47.39    355.12  " /><path style="stroke-width:1.42 ;&st7;   " d=" M    47.39,   355.12  C    48.02    356.86     49.25    358.09     50.99    358.73  " /><path style="stroke-width:1.42 ;&st7;   " d=" M    50.99,   370.06  C    54.12    368.92     55.74    365.45     54.59    362.33  " /><path style="stroke-width:1.42 ;&st7;   " d=" M    54.59,   362.33  C    53.96    360.59     52.73    359.36     50.99    358.72  " /><text style="&st18;" transform="matrix(&st16;  56.08  357.87 )">FL MAIN <tspan x="0 " dy="6.0">3.0W</tspan></text></g><g ewd:figtype="annex" ewd:figID="76" ewd:code=" "><path style="stroke-width:1.42 ;&st7;   " d=" M   152.98,   429.55  C   156.11    428.41    157.72    424.95    156.58    421.82  " /><path style="stroke-width:1.42 ;&st7;   " d=" M   156.58,   421.82  C   155.94    420.08    154.71    418.85    152.97    418.21  " /><path style="stroke-width:1.42 ;&st7;   " d=" M   155.81,   432.38  C   155.81    430.82    154.54    429.55    152.97    429.55  " /><path style="stroke-width:1.42 ;&st7;   " d=" M   152.97,   429.55  C   151.41    429.55    150.14    430.82    150.14    432.38  " /><path style="stroke-width:1.42 ;&st7;   " d=" M   150.14,   432.38  C   150.14    433.94    151.41    435.21    152.97    435.21  " /><path style="stroke-width:1.42 ;&st7;   " d=" M   152.97,   435.21  C   154.54    435.21    155.81    433.94    155.81    432.38  " /><path style="stroke-width:1.42 ;&st7;   " d=" M   152.97,   406.88  C   149.85    408.02    148.23    411.49    149.37    414.61  " /><path style="stroke-width:1.42 ;&st7;   " d=" M   149.37,   414.61  C   150.01    416.35    151.24    417.58    152.97    418.22  " /><path style="stroke-width:1.42 ;&st7;   " d=" M   155.81,   404.05  C   155.81    402.49    154.54    401.22    152.97    401.22  " /><path style="stroke-width:1.42 ;&st7;   " d=" M   152.97,   401.22  C   151.41    401.22    150.14    402.49    150.14    404.05  " /><path style="stroke-width:1.42 ;&st7;   " d=" M   150.14,   404.05  C   150.14    405.62    151.41    406.88    152.97    406.88  " /><path style="stroke-width:1.42 ;&st7;   " d=" M   152.97,   406.88  C   154.54    406.88    155.81    405.62    155.81    404.05  " /><text style="&st18;" transform="matrix(&st16;  158.07  417.36 )">FL MAIN <tspan x="0 " dy="6.0">3.0W</tspan></text></g></svg>