<?xml version="1.0" encoding="utf-8"?>
<!DOCTYPE svg PUBLIC "-//W3C//DTD SVG 1.0//EN" "http://www.w3.org/TR/2001/REC-SVG-20010904/DTD/svg10.dtd"[
	<!ENTITY ns_flows "http://ns.adobe.com/Flows/1.0/">
	<!ENTITY ns_svg "http://www.w3.org/2000/svg">
	<!ENTITY ns_xlink "http://www.w3.org/1999/xlink">
	<!ENTITY st0 "font-size:7px;font-family:'MS-PGothic';adobe-font-script:japanese;">
	<!ENTITY st1 "font-size:6px;font-family:'ArialMT';">
	<!-- White fill  -->
	<!ENTITY st2 "fill:#FFFFFF;stroke:#000000; stroke-width:1.41;stroke-linecap:round;stroke-linejoin:round;">
	<!-- Yellow fill  -->
	<!ENTITY st3 "fill:#FFFFCC;stroke:#FFFFCC; stroke-width:0.1;stroke-linecap:round;stroke-linejoin:round;">
	<!-- Gray fill  -->
	<!ENTITY st4 "fill:#CCCCCC;stroke:#CCCCCC; stroke-width:0.1;stroke-linecap:round;stroke-linejoin:round;">
	<!-- Light-blue fill -->
	<!ENTITY st5 "fill:#CCECF4;stroke:#000000; stroke-width:1.133;stroke-linecap:round;stroke-linejoin:round;">
	<!ENTITY st6 "fill:none;stroke-linecap:butt; stroke-linejoin:round;">
	<!ENTITY st7 "fill:none;stroke:#000000;stroke-linecap:round;stroke-linejoin:round;">
	<!ENTITY st8 "enable-background:new    ;">
	<!-- Black fill -->
	<!ENTITY st9 "fill:#000000;stroke:#000000; stroke-linecap:round;stroke-linejoin:round;">
	<!-- SRS note   -->
	<!ENTITY st10 "font-size:9px;font-family:'ArialMT';">
	<!ENTITY st11 "font-size:9px;font-family:'Svg Symbol';">
	<!ENTITY st12 "font-size:6px;font-family:'Svg Symbol';">
	<!ENTITY st13 "fill:none;stroke:#ff0000;stroke-linecap:round;stroke-linejoin:round;">
	<!-- Yellow fill  -->
	<!ENTITY st14 "fill:#FFFF00;stroke:#FFFF00; stroke-width:0.1;stroke-linecap:round;stroke-linejoin:round;">
	<!ENTITY st15 "font-size:6px;font-family:'MS-PGothic';adobe-font-script:japanese;">
	<!ENTITY st16 "1.00 0.00 0.00 1.00">
	<!ENTITY st17 "0.00 -1.00 1.00 0.00">
	<!ENTITY st18 "font-size:6px;font-family:'Arial';">
	<!ENTITY st19 "font-size:9px;font-family:'Arial';">
	<!ENTITY st20 "font-size:6px;font-family:'MS-PGothic','MS PGothic';adobe-font-script:japanese;">
	<!ENTITY st21 "font-size:7px;font-family:'MS-PGothic','MS PGothic';adobe-font-script:japanese;">
	<!ATTLIST svg
		xmlns:ewd CDATA #FIXED "http://shcl.co.jp/ewd"
		xmlns:a CDATA #FIXED "http://ns.adobe.com/AdobeSVGViewerExtensions/3.0/"
		ewd:ver CDATA #IMPLIED
	>
	<!ATTLIST a
		ewd:lineID CDATA #IMPLIED
		ewd:groupID CDATA #IMPLIED
		ewd:figtype CDATA #IMPLIED
		ewd:code CDATA #IMPLIED
		ewd:figID CDATA #IMPLIED
		ewd:pinNo CDATA #IMPLIED
		ewd:comment CDATA #IMPLIED >
	<!ATTLIST g
		ewd:lineID CDATA #IMPLIED
		ewd:groupID CDATA #IMPLIED
		ewd:figtype CDATA #IMPLIED
		ewd:code CDATA #IMPLIED
		ewd:figID CDATA #IMPLIED
		ewd:pinNo CDATA #IMPLIED
		ewd:comment CDATA #IMPLIED >
	<!ATTLIST text
		ewd:textID CDATA #IMPLIED >
	<!ATTLIST title
		ewd:textID CDATA #IMPLIED >
]>
<!-- Generator: Shintec Hozumi YS   -->
<svg onload="call_execInitLoadProc_svg('system')" style="overflow:visible;  enable-background:new 0 0 1036.396 710.000" viewBox="0 0 1036.396 710.000" height="710.000" width="1036.396" xml:space="preserve" ewd:ver="2.1.2.9" xmlns="&ns_svg;" xmlns:a="http://ns.adobe.com/AdobeSVGViewerExtensions/3.0/" xmlns:ewd="http://shcl.co.jp/ewd" xmlns:xlink="&ns_xlink;">
<path style="stroke-width:1.42 ;&st7;  " d=" M   637.39,   124.29  L   642.36,   129.26  " /><path style="stroke-width:1.42 ;&st7;  " d=" M   654.39,   117.24  L   649.42,   112.27  " /><path style="stroke-width:1.42 ;&st7;  " d=" M   948.31,   384.22  L   943.34,   389.19  " /><path style="stroke-width:1.42 ;&st7;  " d=" M   955.37,   401.22  L   960.34,   396.25  " /><path style="stroke-width:1.42 ;&st7;  " d=" M   943.34,   396.25  L   948.31,   401.22  " /><path style="stroke-width:1.42 ;&st7;  " d=" M   960.34,   389.19  L   955.37,   384.22  " /><path style="stroke-width:1.42 ;&st7;  " d=" M   948.31,   520.20  L   943.34,   525.17  " /><path style="stroke-width:1.42 ;&st7;  " d=" M   955.37,   537.20  L   960.34,   532.23  " /><path style="stroke-width:1.42 ;&st7;  " d=" M   943.34,   532.23  L   948.31,   537.20  " /><path style="stroke-width:1.42 ;&st7;  " d=" M   960.34,   525.17  L   955.37,   520.20  " /><path style="stroke-width:1.42 ;&st7;  " d=" M   960.34,   452.21  L   951.84,   452.21  " /><path style="stroke-width:1.42 ;&st7;  " d=" M   586.40,   392.72  L   577.90,   392.72  " /><path style="stroke-width:1.42 ;&st7;  " d=" M   620.40,   392.72  L   611.90,   392.72  " /><path style="stroke-width:1.42 ;&st7;  " d=" M   654.39,   392.72  L   645.89,   392.72  " /><path style="stroke-width:1.42 ;&st7;  " d=" M   688.38,   392.72  L   679.89,   392.72  " /><path style="stroke-width:1.42 ;&st7;  " d=" M   722.38,   392.72  L   713.88,   392.72  " /><path style="stroke-width:1.42 ;&st7;  " d=" M   756.37,   392.72  L   747.88,   392.72  " /><path style="stroke-width:1.42 ;&st7;  " d=" M   637.39,    61.28  L   645.89,    61.28  " /><path style="stroke-width:1.42 ;&st7;  " d=" M   671.39,   503.20  L   679.89,   503.20  " /><path style="stroke-width:1.42 ;&st7;  " d=" M   637.39,   503.20  L   645.89,   503.20  " /><path style="stroke-width:1.42 ;&st7;  " d=" M   603.40,   503.20  L   611.90,   503.20  " /><path style="stroke-width:1.42 ;&st7;  " d=" M   569.40,   503.20  L   577.90,   503.20  " /><path style="stroke-width:1.42 ;&st7;  " d=" M   688.38,   452.21  L   679.89,   452.21  " /><path style="stroke-width:1.42 ;&st7;  " d=" M   654.39,   452.21  L   645.89,   452.21  " /><path style="stroke-width:1.42 ;&st7;  " d=" M   603.40,   443.71  L   611.90,   443.71  " /><path style="stroke-width:1.42 ;&st7;  " d=" M   569.40,   443.71  L   577.90,   443.71  " /><path style="stroke-width:1.42 ;&st7;  " d=" M   705.38,   443.71  L   713.88,   443.71  " /><path style="stroke-width:1.42 ;&st7;  " d=" M   739.38,   443.71  L   747.88,   443.71  " /><path style="stroke-width:1.42 ;&st7;  " d=" M   642.36,   112.27  L   637.39,   117.24  " /><path style="stroke-width:1.42 ;&st7;  " d=" M   649.42,   129.26  L   654.39,   124.29  " /><text style="&st18;" transform="matrix(&st17;  628.03  125.48 )">(*2)</text><text style="&st18;" transform="matrix(&st17;  616.7  122.34 )">L</text><text style="&st18;" transform="matrix(&st17;  653.53  142.48 )">(*1)</text><text style="&st18;" transform="matrix(&st17;  653.53  108.48 )">(*1)</text><text style="&st18;" transform="matrix(&st17;  959.48  587.5 )">(LHD)</text><text style="&st18;" transform="matrix(&st17;  948.15  585.64 )">W-B</text><text style="&st18;" transform="matrix(&st17;  642.2  105.34 )">L</text><text style="&st18;" transform="matrix(&st17;  642.2  139.33 )">L</text><text style="&st18;" transform="matrix(&st17;  713.02  150.97 )">(*1)</text><text style="&st18;" transform="matrix(&st17;  701.69  147.83 )">L</text><text style="&st18;" transform="matrix(&st17;  959.48  494.02 )">(LHD)</text><text style="&st18;" transform="matrix(&st17;  948.15  492.16 )">W-B</text><text style="&st18;" transform="matrix(&st17;  948.15  424.17 )">W-B</text><text style="&st18;" transform="matrix(&st17;  948.15  364.68 )">W-B</text><text style="&st18;" transform="matrix(&st17;  916.98  587.54 )">(RHD)</text><text style="&st18;" transform="matrix(&st17;  905.65  585.64 )">W-B</text><text style="&st18;" transform="matrix(&st17;  916.98  494.06 )">(RHD)</text><text style="&st18;" transform="matrix(&st17;  905.65  492.16 )">W-B</text><text style="&st18;" transform="matrix(&st17;  990.64  364.68 )">W-B</text><text style="&st18;" transform="matrix(&st17;  744.18  482.69 )">R-L</text><text style="&st18;" transform="matrix(&st17;  710.18  480.17 )">W</text><text style="&st18;" transform="matrix(&st17;  710.18  420.68 )">W</text><text style="&st18;" transform="matrix(&st17;  744.18  423.2 )">R-L</text><text style="&st18;" transform="matrix(&st17;  888.65  360.69 )">G</text><text style="&st18;" transform="matrix(&st17;  837.66  360.34 )">R</text><text style="&st18;" transform="matrix(&st17;  744.18  363.71 )">R-L</text><text style="&st18;" transform="matrix(&st17;  710.18  361.19 )">W</text><text style="&st18;" transform="matrix(&st17;  585.54  533.41 )">(*1)</text><text style="&st18;" transform="matrix(&st17;  574.21  534.07 )">R-G</text><text style="&st18;" transform="matrix(&st17;  687.52  533.41 )">(*1)</text><text style="&st18;" transform="matrix(&st17;  676.19  533.8 )">R-B</text><text style="&st18;" transform="matrix(&st17;  653.53  533.41 )">(*1)</text><text style="&st18;" transform="matrix(&st17;  642.2  534.07 )">R-G</text><text style="&st18;" transform="matrix(&st17;  619.53  533.41 )">(*1)</text><text style="&st18;" transform="matrix(&st17;  608.2  533.8 )">R-B</text><text style="&st18;" transform="matrix(&st17;  585.54  482.42 )">(*1)</text><text style="&st18;" transform="matrix(&st17;  574.21  479.67 )">G</text><text style="&st18;" transform="matrix(&st17;  619.53  482.42 )">(*1)</text><text style="&st18;" transform="matrix(&st17;  608.2  479.32 )">R</text><text style="&st18;" transform="matrix(&st17;  687.52  482.42 )">(*1)</text><text style="&st18;" transform="matrix(&st17;  676.19  482.81 )">R-B</text><text style="&st18;" transform="matrix(&st17;  642.2  482.69 )">L-R</text><text style="&st18;" transform="matrix(&st17;  653.53  482.42 )">(*1)</text><text style="&st18;" transform="matrix(&st17;  687.52  422.93 )">(*1)</text><text style="&st18;" transform="matrix(&st17;  676.19  423.32 )">R-B</text><text style="&st18;" transform="matrix(&st17;  653.53  422.93 )">(*1)</text><text style="&st18;" transform="matrix(&st17;  642.2  423.2 )">L-R</text><text style="&st18;" transform="matrix(&st17;  619.53  422.93 )">(*1)</text><text style="&st18;" transform="matrix(&st17;  608.2  419.83 )">R</text><text style="&st18;" transform="matrix(&st17;  585.54  422.93 )">(*1)</text><text style="&st18;" transform="matrix(&st17;  574.21  420.18 )">G</text><text style="&st18;" transform="matrix(&st17;  687.52  363.44 )">(*1)</text><text style="&st18;" transform="matrix(&st17;  676.19  363.83 )">R-B</text><text style="&st18;" transform="matrix(&st17;  653.53  363.44 )">(*1)</text><text style="&st18;" transform="matrix(&st17;  642.2  363.71 )">L-R</text><text style="&st18;" transform="matrix(&st17;  619.53  363.44 )">(*1)</text><text style="&st18;" transform="matrix(&st17;  608.2  360.34 )">R</text><text style="&st18;" transform="matrix(&st17;  585.54  363.44 )">(*1)</text><text style="&st18;" transform="matrix(&st17;  574.21  360.69 )">G</text><text style="&st18;" transform="matrix(&st16;  538.04  542.0 )">R-G</text><text style="&st18;" transform="matrix(&st16;  538.7  553.33 )">(*1)</text><text style="&st18;" transform="matrix(&st16;  541.84  15.09 )">L</text><text style="&st18;" transform="matrix(&st16;  535.59  26.42 )">(LHD)</text><text style="&st18;" transform="matrix(&st16;  541.84  40.58 )">L</text><text style="&st18;" transform="matrix(&st16;  535.56  51.91 )">(RHD)</text><text style="&st18;" transform="matrix(&st16;  538.31  567.49 )">R-B</text><text style="&st18;" transform="matrix(&st16;  538.7  578.82 )">(*1)</text><text style="&st18;" transform="matrix(&st16;  538.04  592.99 )">R-G</text><text style="&st18;" transform="matrix(&st16;  538.7  604.32 )">(*1)</text><text style="&st18;" transform="matrix(&st16;  538.31  618.48 )">R-B</text><text style="&st18;" transform="matrix(&st16;  538.7  629.82 )">(*1)</text><text style="&st18;" transform="matrix(&st16;  540.95  643.98 )">W</text><text style="&st18;" transform="matrix(&st16;  538.43  669.48 )">R-L</text><g ewd:figtype="conn" ewd:figID="2" ewd:code="O2,P2"><path style="stroke-width:1.42 ;&st7;  " d=" M   845.61,   415.38  L   845.61,   419.35  " /><path style="stroke-width:1.42 ;&st7;  " d=" M   837.11,   419.35  L   837.11,   415.38  " /><path style="stroke-width:1.42 ;&st7;  " d=" M   837.11,   415.38  L   845.61,   415.38  " /><path style="stroke-width:1.42 ;&st7;  " d=" M   845.61,   438.05  L   845.61,   434.08  " /><path style="stroke-width:1.42 ;&st7;  " d=" M   837.11,   434.08  L   837.11,   438.05  " /><path style="stroke-width:1.42 ;&st7;  " d=" M   837.11,   438.05  L   845.61,   438.05  " /><path style="stroke-width:1.42 ;&st7;   " d=" M   849.86,   426.71  C   849.86    422.02    846.05    418.22    841.36    418.22  " /><path style="stroke-width:1.42 ;&st7;   " d=" M   841.36,   418.22  C   836.67    418.22    832.86    422.02    832.86    426.71  " /><path style="stroke-width:1.42 ;&st7;   " d=" M   832.86,   426.71  C   832.86    431.41    836.67    435.21    841.36    435.21  " /><path style="stroke-width:1.42 ;&st7;   " d=" M   841.36,   435.21  C   846.05    435.21    849.86    431.41    849.86    426.71  " /><text style="&st18;" transform="matrix(&st16;  838.63  428.68 )">M</text><text style="&st18;" transform="matrix(&st16;  832.67  403.75 )">1</text><text style="&st18;" transform="matrix(&st16;  832.67  412.82 )">1</text><path style="stroke-width:1.42 ;&st7;   " d=" M   845.89,   401.78  C   845.89    399.28    843.86    397.25    841.36    397.25  " /><path style="stroke-width:1.42 ;&st7;   " d=" M   841.36,   397.25  C   838.86    397.25    836.83    399.28    836.83    401.78  " /><path style="stroke-width:1.42 ;&st7;   " d=" M   836.83,   401.78  C   836.83    404.29    838.86    406.32    841.36    406.32  " /><path style="stroke-width:1.42 ;&st7;   " d=" M   841.36,   406.32  C   843.86    406.32    845.89    404.29    845.89    401.78  " /><path style="stroke-width:1.42 ;&st7;   " d=" M   845.89,   410.85  C   845.89    408.35    843.86    406.32    841.36    406.32  " /><path style="stroke-width:1.42 ;&st7;   " d=" M   841.36,   406.32  C   838.86    406.32    836.83    408.35    836.83    410.85  " /><path style="stroke-width:1.42 ;&st7;   " d=" M   836.83,   410.85  C   836.83    413.35    838.86    415.38    841.36    415.38  " /><path style="stroke-width:1.42 ;&st7;   " d=" M   841.36,   415.38  C   843.86    415.38    845.89    413.35    845.89    410.85  " /><text style="&st18;" transform="matrix(&st16;  839.05  403.75 )">A</text><text style="&st18;" transform="matrix(&st16;  839.17  412.82 )">B</text><text style="&st18;" transform="matrix(&st16;  832.67  444.55 )">2</text><text style="&st18;" transform="matrix(&st16;  832.67  453.61 )">2</text><path style="stroke-width:1.42 ;&st7;   " d=" M   845.89,   442.58  C   845.89    440.07    843.86    438.05    841.36    438.05  " /><path style="stroke-width:1.42 ;&st7;   " d=" M   841.36,   438.05  C   838.86    438.05    836.83    440.07    836.83    442.58  " /><path style="stroke-width:1.42 ;&st7;   " d=" M   836.83,   442.58  C   836.83    445.08    838.86    447.11    841.36    447.11  " /><path style="stroke-width:1.42 ;&st7;   " d=" M   841.36,   447.11  C   843.86    447.11    845.89    445.08    845.89    442.58  " /><path style="stroke-width:1.42 ;&st7;   " d=" M   845.89,   451.64  C   845.89    449.14    843.86    447.11    841.36    447.11  " /><path style="stroke-width:1.42 ;&st7;   " d=" M   841.36,   447.11  C   838.86    447.11    836.83    449.14    836.83    451.64  " /><path style="stroke-width:1.42 ;&st7;   " d=" M   836.83,   451.64  C   836.83    454.15    838.86    456.18    841.36    456.18  " /><path style="stroke-width:1.42 ;&st7;   " d=" M   841.36,   456.18  C   843.86    456.18    845.89    454.15    845.89    451.64  " /><text style="&st18;" transform="matrix(&st16;  839.17  453.61 )">B</text><text style="&st18;" transform="matrix(&st16;  839.05  444.55 )">A</text><g ewd:figtype="title"><text style="&st18;" transform="matrix(&st17;  823.22  455.12 )" ewd:textID="6">Front Power Window <tspan x="0 " dy="6.0">Regulator Motor Assembly LH</tspan></text><text style="&st18;" transform="matrix(&st17;  796.28  455.11 )">O2(A)</text><text style="&st18;" transform="matrix(&st17;  803.1  455.12 )" ewd:textID="7">Front Power Window <tspan x="0 " dy="6.0">Regulator Motor Assembly RH</tspan></text><text style="&st18;" transform="matrix(&st17;  816.39  455.11 )">P2(B)</text></g><g ewd:code="" ewd:figID="59" ewd:comment="" ewd:figtype="commref"><text style="&st18;" transform="matrix(&st16;  846.45  453.61 )">(LHD)</text></g><g ewd:code="" ewd:figID="60" ewd:comment="" ewd:figtype="commref"><text style="&st18;" transform="matrix(&st16;  846.45  444.55 )">(RHD)</text></g><g ewd:code="" ewd:figID="61" ewd:comment="" ewd:figtype="commref"><text style="&st18;" transform="matrix(&st16;  846.45  403.75 )">(RHD)</text></g><g ewd:code="" ewd:figID="62" ewd:comment="" ewd:figtype="commref"><text style="&st18;" transform="matrix(&st16;  846.45  412.82 )">(LHD)</text></g></g><g ewd:figtype="conn" ewd:figID="5" ewd:code="O8,O9,P9,P10"><path style="stroke-width: 0.85 ;&st7; stroke-dasharray:3, 1.5;" d=" M   849.86,   339.46  L   879.60,   339.46  " /><path style="stroke-width: 0.85 ;&st7; stroke-dasharray:3, 1.5;" d=" M   849.86,   330.40  L   879.60,   330.40  " /><path style="stroke-width: 0.85 ;&st7; stroke-dasharray:3, 1.5;" d=" M   849.86,   321.33  L   879.60,   321.33  " /><path style="stroke-width: 0.85 ;&st7; stroke-dasharray:3, 1.5;" d=" M   849.86,   312.27  L   879.60,   312.27  " /><path style="stroke-width: 0.85 ;&st7; stroke-dasharray:3, 1.5;" d=" M   756.37,   339.46  L   828.61,   339.46  " /><path style="stroke-width: 0.85 ;&st7; stroke-dasharray:3, 1.5;" d=" M   756.37,   330.40  L   828.61,   330.40  " /><path style="stroke-width: 0.85 ;&st7; stroke-dasharray:3, 1.5;" d=" M   756.37,   321.33  L   828.61,   321.33  " /><path style="stroke-width: 0.85 ;&st7; stroke-dasharray:3, 1.5;" d=" M   722.38,   339.46  L   735.13,   339.46  " /><path style="stroke-width: 0.85 ;&st7; stroke-dasharray:3, 1.5;" d=" M   722.38,   330.40  L   735.13,   330.40  " /><path style="stroke-width: 0.85 ;&st7; stroke-dasharray:3, 1.5;" d=" M   900.85,   312.27  L   939.09,   312.27  " /><path style="stroke-width: 0.85 ;&st7; stroke-dasharray:3, 1.5;" d=" M   900.85,   321.33  L   939.09,   321.33  " /><path style="stroke-width: 0.85 ;&st7; stroke-dasharray:3, 1.5;" d=" M   900.85,   330.40  L   939.09,   330.40  " /><path style="stroke-width: 0.85 ;&st7; stroke-dasharray:3, 1.5;" d=" M   900.85,   339.46  L   939.09,   339.46  " /><path style="stroke-width: 0.85 ;&st7; stroke-dasharray:3, 1.5;" d=" M   756.37,   312.27  L   824.36,   312.27  " /><path style="stroke-width: 0.85 ;&st7; stroke-dasharray:3, 1.5;" d=" M   722.38,   312.27  L   735.13,   312.27  " /><path style="stroke-width: 0.85 ;&st7; stroke-dasharray:3, 1.5;" d=" M   620.40,   330.40  L   628.89,   330.40  " /><path style="stroke-width: 0.85 ;&st7; stroke-dasharray:3, 1.5;" d=" M   688.38,   330.40  L   701.13,   330.40  " /><path style="stroke-width: 0.85 ;&st7; stroke-dasharray:3, 1.5;" d=" M   586.40,   330.40  L   599.15,   330.40  " /><path style="stroke-width: 0.85 ;&st7; stroke-dasharray:3, 1.5;" d=" M   722.38,   321.33  L   735.13,   321.33  " /><path style="stroke-width: 0.85 ;&st7; stroke-dasharray:3, 1.5;" d=" M   654.39,   330.40  L   662.89,   330.40  " /><path style="stroke-width: 0.85 ;&st7; stroke-dasharray:3, 1.5;" d=" M   654.39,   312.27  L   662.89,   312.27  " /><path style="stroke-width: 0.85 ;&st7; stroke-dasharray:3, 1.5;" d=" M   586.40,   312.27  L   599.15,   312.27  " /><path style="stroke-width: 0.85 ;&st7; stroke-dasharray:3, 1.5;" d=" M   688.38,   312.27  L   696.88,   312.27  " /><path style="stroke-width: 0.85 ;&st7; stroke-dasharray:3, 1.5;" d=" M   620.40,   312.27  L   628.89,   312.27  " /><path style="stroke-width: 0.85 ;&st7; stroke-dasharray:3, 1.5;" d=" M   654.39,   183.65  L   688.38,   183.65  " /><path style="stroke-width: 0.85 ;&st7; stroke-dasharray:3, 1.5;" d=" M   654.39,   165.52  L   692.63,   165.52  " /><path style="stroke-width: 0.85 ;&st7; stroke-dasharray:3, 1.5;" d=" M   960.34,   330.40  L   981.59,   330.40  " /><path style="stroke-width: 0.85 ;&st7; stroke-dasharray:3, 1.5;" d=" M   960.34,   312.27  L   981.59,   312.27  " /><path style="stroke-width:1.42 ;&st7;  " d=" M   560.91,   197.25  L   560.91,   307.73  L  1011.33,   307.73  L  1011.33,   197.25  L   560.91,   197.25  " /><g ewd:lineID="35"><text style="&st18;" transform="matrix(&st16;  566.11  314.24 )">10</text><path style="stroke-width:0.85 ;&st7;  " d=" M   577.90,   316.80  L   577.90,   325.86  " /><text style="&st18;" transform="matrix(&st16;  566.11  332.37 )">10</text><path style="stroke-width:1.42 ;&st7;   " d=" M   582.44,   330.40  C   582.44    327.89    580.41    325.86    577.90    325.86  " /><path style="stroke-width:1.42 ;&st7;   " d=" M   577.90,   325.86  C   575.40    325.86    573.37    327.89    573.37    330.40  " /><path style="stroke-width:1.42 ;&st7;   " d=" M   573.37,   330.40  C   573.37    332.90    575.40    334.93    577.90    334.93  " /><path style="stroke-width:1.42 ;&st7;   " d=" M   577.90,   334.93  C   580.41    334.93    582.44    332.90    582.44    330.40  " /><path style="stroke-width:1.42 ;&st7;   " d=" M   582.44,   312.27  C   582.44    309.76    580.41    307.73    577.90    307.73  " /><path style="stroke-width:1.42 ;&st7;   " d=" M   577.90,   307.73  C   575.40    307.73    573.37    309.76    573.37    312.27  " /><path style="stroke-width:1.42 ;&st7;   " d=" M   573.37,   312.27  C   573.37    314.77    575.40    316.80    577.90    316.80  " /><path style="stroke-width:1.42 ;&st7;   " d=" M   577.90,   316.80  C   580.41    316.80    582.44    314.77    582.44    312.27  " /><text style="&st18;" transform="matrix(&st16;  575.6  332.37 )">A</text><text style="&st18;" transform="matrix(&st16;  575.48  314.24 )">C</text><text style="&st18;" transform="matrix(&st16;  575.52  304.04 )">U</text></g><g ewd:lineID="38"><text style="&st18;" transform="matrix(&st16;  603.2  314.24 )">9</text><path style="stroke-width:0.85 ;&st7;  " d=" M   611.90,   316.80  L   611.90,   325.86  " /><text style="&st18;" transform="matrix(&st16;  603.2  332.37 )">7</text><path style="stroke-width:1.42 ;&st7;   " d=" M   616.43,   312.27  C   616.43    309.76    614.40    307.73    611.90    307.73  " /><path style="stroke-width:1.42 ;&st7;   " d=" M   611.90,   307.73  C   609.39    307.73    607.37    309.76    607.37    312.27  " /><path style="stroke-width:1.42 ;&st7;   " d=" M   607.37,   312.27  C   607.37    314.77    609.39    316.80    611.90    316.80  " /><path style="stroke-width:1.42 ;&st7;   " d=" M   611.90,   316.80  C   614.40    316.80    616.43    314.77    616.43    312.27  " /><text style="&st18;" transform="matrix(&st16;  609.48  314.24 )">C</text><path style="stroke-width:1.42 ;&st7;   " d=" M   616.43,   330.40  C   616.43    327.89    614.40    325.86    611.90    325.86  " /><path style="stroke-width:1.42 ;&st7;   " d=" M   611.90,   325.86  C   609.39    325.86    607.37    327.89    607.37    330.40  " /><path style="stroke-width:1.42 ;&st7;   " d=" M   607.37,   330.40  C   607.37    332.90    609.39    334.93    611.90    334.93  " /><path style="stroke-width:1.42 ;&st7;   " d=" M   611.90,   334.93  C   614.40    334.93    616.43    332.90    616.43    330.40  " /><text style="&st18;" transform="matrix(&st16;  609.59  332.37 )">A</text><text style="&st18;" transform="matrix(&st16;  609.52  304.04 )">D</text></g><g ewd:lineID="41"><text style="&st18;" transform="matrix(&st16;  634.1  314.24 )">11</text><text style="&st18;" transform="matrix(&st16;  634.1  332.37 )">11</text><path style="stroke-width:0.85 ;&st7;  " d=" M   645.89,   325.86  L   645.89,   316.80  " /><path style="stroke-width:1.42 ;&st7;   " d=" M   650.42,   312.27  C   650.42    309.76    648.40    307.73    645.89    307.73  " /><path style="stroke-width:1.42 ;&st7;   " d=" M   645.89,   307.73  C   643.39    307.73    641.36    309.76    641.36    312.27  " /><path style="stroke-width:1.42 ;&st7;   " d=" M   641.36,   312.27  C   641.36    314.77    643.39    316.80    645.89    316.80  " /><path style="stroke-width:1.42 ;&st7;   " d=" M   645.89,   316.80  C   648.40    316.80    650.42    314.77    650.42    312.27  " /><text style="&st18;" transform="matrix(&st16;  643.59  332.37 )">A</text><text style="&st18;" transform="matrix(&st16;  643.47  314.24 )">C</text><path style="stroke-width:1.42 ;&st7;   " d=" M   650.42,   330.40  C   650.42    327.89    648.40    325.86    645.89    325.86  " /><path style="stroke-width:1.42 ;&st7;   " d=" M   645.89,   325.86  C   643.39    325.86    641.36    327.89    641.36    330.40  " /><path style="stroke-width:1.42 ;&st7;   " d=" M   641.36,   330.40  C   641.36    332.90    643.39    334.93    645.89    334.93  " /><path style="stroke-width:1.42 ;&st7;   " d=" M   645.89,   334.93  C   648.40    334.93    650.42    332.90    650.42    330.40  " /><text style="&st18;" transform="matrix(&st16;  643.51  304.04 )">U</text></g><g ewd:comment="2,2" ewd:lineID="42,43"><text style="&st18;" transform="matrix(&st16;  634.1  185.62 )">13</text><text style="&st18;" transform="matrix(&st16;  637.2  194.69 )">6</text><text style="&st18;" transform="matrix(&st16;  637.2  176.56 )">9</text><text style="&st18;" transform="matrix(&st16;  637.2  167.49 )">8</text><path style="stroke-width:1.42 ;&st7;   " d=" M   650.42,   192.72  C   650.42    190.22    648.40    188.19    645.89    188.19  " /><path style="stroke-width:1.42 ;&st7;   " d=" M   645.89,   188.19  C   643.39    188.19    641.36    190.22    641.36    192.72  " /><path style="stroke-width:1.42 ;&st7;   " d=" M   641.36,   192.72  C   641.36    195.22    643.39    197.25    645.89    197.25  " /><path style="stroke-width:1.42 ;&st7;   " d=" M   645.89,   197.25  C   648.40    197.25    650.42    195.22    650.42    192.72  " /><path style="stroke-width:1.42 ;&st7;   " d=" M   650.42,   174.59  C   650.42    172.09    648.40    170.06    645.89    170.06  " /><path style="stroke-width:1.42 ;&st7;   " d=" M   645.89,   170.06  C   643.39    170.06    641.36    172.09    641.36    174.59  " /><path style="stroke-width:1.42 ;&st7;   " d=" M   641.36,   174.59  C   641.36    177.09    643.39    179.12    645.89    179.12  " /><path style="stroke-width:1.42 ;&st7;   " d=" M   645.89,   179.12  C   648.40    179.12    650.42    177.09    650.42    174.59  " /><path style="stroke-width:1.42 ;&st7;   " d=" M   650.42,   165.52  C   650.42    163.02    648.40    160.99    645.89    160.99  " /><path style="stroke-width:1.42 ;&st7;   " d=" M   645.89,   160.99  C   643.39    160.99    641.36    163.02    641.36    165.52  " /><path style="stroke-width:1.42 ;&st7;   " d=" M   641.36,   165.52  C   641.36    168.03    643.39    170.06    645.89    170.06  " /><path style="stroke-width:1.42 ;&st7;   " d=" M   645.89,   170.06  C   648.40    170.06    650.42    168.03    650.42    165.52  " /><path style="stroke-width:1.42 ;&st7;   " d=" M   650.42,   183.65  C   650.42    181.15    648.40    179.12    645.89    179.12  " /><path style="stroke-width:1.42 ;&st7;   " d=" M   645.89,   179.12  C   643.39    179.12    641.36    181.15    641.36    183.65  " /><path style="stroke-width:1.42 ;&st7;   " d=" M   641.36,   183.65  C   641.36    186.16    643.39    188.19    645.89    188.19  " /><path style="stroke-width:1.42 ;&st7;   " d=" M   645.89,   188.19  C   648.40    188.19    650.42    186.16    650.42    183.65  " /><text style="&st18;" transform="matrix(&st16;  643.47  167.49 )">C</text><text style="&st18;" transform="matrix(&st16;  643.51  176.56 )">D</text><text style="&st18;" transform="matrix(&st16;  643.59  185.62 )">A</text><text style="&st18;" transform="matrix(&st16;  643.7  194.69 )">B</text><text style="&st18;" transform="matrix(&st16;  640.99  204.89 )">BW</text><g ewd:code="" ewd:figID="87" ewd:comment="2" ewd:figtype="commref"><text style="&st18;" transform="matrix(&st16;  650.99  194.69 )">(RHD *2)</text></g><g ewd:code="" ewd:figID="92" ewd:comment="2" ewd:figtype="commref"><text style="&st18;" transform="matrix(&st16;  650.99  176.56 )">(LHD *2)</text></g></g><g ewd:lineID="45"><text style="&st18;" transform="matrix(&st16;  696.69  167.49 )">7</text><path style="stroke-width:0.85 ;&st7;  " d=" M   705.38,   188.19  L   705.38,   197.25  " /><path style="stroke-width:0.85 ;&st7;  " d=" M   705.38,   170.06  L   705.38,   179.12  " /><text style="&st18;" transform="matrix(&st16;  693.59  185.62 )">14</text><text style="&st18;" transform="matrix(&st16;  703.08  185.62 )">A</text><text style="&st18;" transform="matrix(&st16;  702.96  167.49 )">C</text><path style="stroke-width:1.42 ;&st7;   " d=" M   709.91,   165.52  C   709.91    163.02    707.89    160.99    705.38    160.99  " /><path style="stroke-width:1.42 ;&st7;   " d=" M   705.38,   160.99  C   702.88    160.99    700.85    163.02    700.85    165.52  " /><path style="stroke-width:1.42 ;&st7;   " d=" M   700.85,   165.52  C   700.85    168.03    702.88    170.06    705.38    170.06  " /><path style="stroke-width:1.42 ;&st7;   " d=" M   705.38,   170.06  C   707.89    170.06    709.91    168.03    709.91    165.52  " /><path style="stroke-width:1.42 ;&st7;   " d=" M   709.91,   183.65  C   709.91    181.15    707.89    179.12    705.38    179.12  " /><path style="stroke-width:1.42 ;&st7;   " d=" M   705.38,   179.12  C   702.88    179.12    700.85    181.15    700.85    183.65  " /><path style="stroke-width:1.42 ;&st7;   " d=" M   700.85,   183.65  C   700.85    186.16    702.88    188.19    705.38    188.19  " /><path style="stroke-width:1.42 ;&st7;   " d=" M   705.38,   188.19  C   707.89    188.19    709.91    186.16    709.91    183.65  " /><text style="&st18;" transform="matrix(&st16;  703.19  204.89 )">B</text></g><g ewd:lineID="48"><text style="&st18;" transform="matrix(&st16;  668.09  332.37 )">12</text><text style="&st18;" transform="matrix(&st16;  668.09  314.24 )">14</text><path style="stroke-width:0.85 ;&st7;  " d=" M   679.89,   316.80  L   679.89,   325.86  " /><text style="&st18;" transform="matrix(&st16;  677.47  314.24 )">C</text><text style="&st18;" transform="matrix(&st16;  677.58  332.37 )">A</text><path style="stroke-width:1.42 ;&st7;   " d=" M   684.42,   312.27  C   684.42    309.76    682.39    307.73    679.89    307.73  " /><path style="stroke-width:1.42 ;&st7;   " d=" M   679.89,   307.73  C   677.38    307.73    675.35    309.76    675.35    312.27  " /><path style="stroke-width:1.42 ;&st7;   " d=" M   675.35,   312.27  C   675.35    314.77    677.38    316.80    679.89    316.80  " /><path style="stroke-width:1.42 ;&st7;   " d=" M   679.89,   316.80  C   682.39    316.80    684.42    314.77    684.42    312.27  " /><path style="stroke-width:1.42 ;&st7;   " d=" M   684.42,   330.40  C   684.42    327.89    682.39    325.86    679.89    325.86  " /><path style="stroke-width:1.42 ;&st7;   " d=" M   679.89,   325.86  C   677.38    325.86    675.35    327.89    675.35    330.40  " /><path style="stroke-width:1.42 ;&st7;   " d=" M   675.35,   330.40  C   675.35    332.90    677.38    334.93    679.89    334.93  " /><path style="stroke-width:1.42 ;&st7;   " d=" M   679.89,   334.93  C   682.39    334.93    684.42    332.90    684.42    330.40  " /><text style="&st18;" transform="matrix(&st16;  677.5  304.04 )">D</text></g><g ewd:lineID="50"><text style="&st18;" transform="matrix(&st16;  702.08  323.3 )">10</text><text style="&st18;" transform="matrix(&st16;  705.19  332.37 )">9</text><text style="&st18;" transform="matrix(&st16;  702.08  314.24 )">12</text><text style="&st18;" transform="matrix(&st16;  705.19  341.43 )">5</text><path style="stroke-width:1.42 ;&st7;   " d=" M   718.41,   312.27  C   718.41    309.76    716.38    307.73    713.88    307.73  " /><path style="stroke-width:1.42 ;&st7;   " d=" M   713.88,   307.73  C   711.38    307.73    709.35    309.76    709.35    312.27  " /><path style="stroke-width:1.42 ;&st7;   " d=" M   709.35,   312.27  C   709.35    314.77    711.38    316.80    713.88    316.80  " /><path style="stroke-width:1.42 ;&st7;   " d=" M   713.88,   316.80  C   716.38    316.80    718.41    314.77    718.41    312.27  " /><path style="stroke-width:1.42 ;&st7;   " d=" M   718.41,   321.33  C   718.41    318.83    716.38    316.80    713.88    316.80  " /><path style="stroke-width:1.42 ;&st7;   " d=" M   713.88,   316.80  C   711.38    316.80    709.35    318.83    709.35    321.33  " /><path style="stroke-width:1.42 ;&st7;   " d=" M   709.35,   321.33  C   709.35    323.83    711.38    325.86    713.88    325.86  " /><path style="stroke-width:1.42 ;&st7;   " d=" M   713.88,   325.86  C   716.38    325.86    718.41    323.83    718.41    321.33  " /><path style="stroke-width:1.42 ;&st7;   " d=" M   718.41,   330.40  C   718.41    327.89    716.38    325.86    713.88    325.86  " /><path style="stroke-width:1.42 ;&st7;   " d=" M   713.88,   325.86  C   711.38    325.86    709.35    327.89    709.35    330.40  " /><path style="stroke-width:1.42 ;&st7;   " d=" M   709.35,   330.40  C   709.35    332.90    711.38    334.93    713.88    334.93  " /><path style="stroke-width:1.42 ;&st7;   " d=" M   713.88,   334.93  C   716.38    334.93    718.41    332.90    718.41    330.40  " /><path style="stroke-width:1.42 ;&st7;   " d=" M   718.41,   339.46  C   718.41    336.96    716.38    334.93    713.88    334.93  " /><path style="stroke-width:1.42 ;&st7;   " d=" M   713.88,   334.93  C   711.38    334.93    709.35    336.96    709.35    339.46  " /><path style="stroke-width:1.42 ;&st7;   " d=" M   709.35,   339.46  C   709.35    341.97    711.38    343.99    713.88    343.99  " /><path style="stroke-width:1.42 ;&st7;   " d=" M   713.88,   343.99  C   716.38    343.99    718.41    341.97    718.41    339.46  " /><text style="&st18;" transform="matrix(&st16;  711.5  323.3 )">D</text><text style="&st18;" transform="matrix(&st16;  711.58  332.37 )">A</text><text style="&st18;" transform="matrix(&st16;  711.69  341.43 )">B</text><text style="&st18;" transform="matrix(&st16;  711.46  314.24 )">C</text><text style="&st18;" transform="matrix(&st16;  711.5  304.04 )">U</text></g><g ewd:lineID="52"><text style="&st18;" transform="matrix(&st16;  739.18  323.3 )">7</text><text style="&st18;" transform="matrix(&st16;  739.18  332.37 )">2</text><text style="&st18;" transform="matrix(&st16;  739.18  341.43 )">8</text><text style="&st18;" transform="matrix(&st16;  739.18  314.24 )">5</text><text style="&st18;" transform="matrix(&st16;  745.69  341.43 )">B</text><text style="&st18;" transform="matrix(&st16;  745.57  332.37 )">A</text><text style="&st18;" transform="matrix(&st16;  745.49  323.3 )">D</text><text style="&st18;" transform="matrix(&st16;  745.45  314.24 )">C</text><path style="stroke-width:1.42 ;&st7;   " d=" M   752.41,   339.46  C   752.41    336.96    750.38    334.93    747.88    334.93  " /><path style="stroke-width:1.42 ;&st7;   " d=" M   747.88,   334.93  C   745.37    334.93    743.34    336.96    743.34    339.46  " /><path style="stroke-width:1.42 ;&st7;   " d=" M   743.34,   339.46  C   743.34    341.97    745.37    343.99    747.88    343.99  " /><path style="stroke-width:1.42 ;&st7;   " d=" M   747.88,   343.99  C   750.38    343.99    752.41    341.97    752.41    339.46  " /><path style="stroke-width:1.42 ;&st7;   " d=" M   752.41,   330.40  C   752.41    327.89    750.38    325.86    747.88    325.86  " /><path style="stroke-width:1.42 ;&st7;   " d=" M   747.88,   325.86  C   745.37    325.86    743.34    327.89    743.34    330.40  " /><path style="stroke-width:1.42 ;&st7;   " d=" M   743.34,   330.40  C   743.34    332.90    745.37    334.93    747.88    334.93  " /><path style="stroke-width:1.42 ;&st7;   " d=" M   747.88,   334.93  C   750.38    334.93    752.41    332.90    752.41    330.40  " /><path style="stroke-width:1.42 ;&st7;   " d=" M   752.41,   321.33  C   752.41    318.83    750.38    316.80    747.88    316.80  " /><path style="stroke-width:1.42 ;&st7;   " d=" M   747.88,   316.80  C   745.37    316.80    743.34    318.83    743.34    321.33  " /><path style="stroke-width:1.42 ;&st7;   " d=" M   743.34,   321.33  C   743.34    323.83    745.37    325.86    747.88    325.86  " /><path style="stroke-width:1.42 ;&st7;   " d=" M   747.88,   325.86  C   750.38    325.86    752.41    323.83    752.41    321.33  " /><path style="stroke-width:1.42 ;&st7;   " d=" M   752.41,   312.27  C   752.41    309.76    750.38    307.73    747.88    307.73  " /><path style="stroke-width:1.42 ;&st7;   " d=" M   747.88,   307.73  C   745.37    307.73    743.34    309.76    743.34    312.27  " /><path style="stroke-width:1.42 ;&st7;   " d=" M   743.34,   312.27  C   743.34    314.77    745.37    316.80    747.88    316.80  " /><path style="stroke-width:1.42 ;&st7;   " d=" M   747.88,   316.80  C   750.38    316.80    752.41    314.77    752.41    312.27  " /><text style="&st18;" transform="matrix(&st16;  745.49  304.04 )">D</text></g><g ewd:lineID="53"><text style="&st18;" transform="matrix(&st16;  832.67  341.43 )">1</text><text style="&st18;" transform="matrix(&st16;  832.67  332.37 )">8</text><text style="&st18;" transform="matrix(&st16;  832.67  323.3 )">4</text><text style="&st18;" transform="matrix(&st16;  829.56  314.24 )">13</text><text style="&st18;" transform="matrix(&st16;  838.98  323.3 )">D</text><text style="&st18;" transform="matrix(&st16;  839.05  332.37 )">A</text><text style="&st18;" transform="matrix(&st16;  838.94  314.24 )">C</text><path style="stroke-width:1.42 ;&st7;   " d=" M   845.89,   339.46  C   845.89    336.96    843.86    334.93    841.36    334.93  " /><path style="stroke-width:1.42 ;&st7;   " d=" M   841.36,   334.93  C   838.86    334.93    836.83    336.96    836.83    339.46  " /><path style="stroke-width:1.42 ;&st7;   " d=" M   836.83,   339.46  C   836.83    341.97    838.86    343.99    841.36    343.99  " /><path style="stroke-width:1.42 ;&st7;   " d=" M   841.36,   343.99  C   843.86    343.99    845.89    341.97    845.89    339.46  " /><path style="stroke-width:1.42 ;&st7;   " d=" M   845.89,   312.27  C   845.89    309.76    843.86    307.73    841.36    307.73  " /><path style="stroke-width:1.42 ;&st7;   " d=" M   841.36,   307.73  C   838.86    307.73    836.83    309.76    836.83    312.27  " /><path style="stroke-width:1.42 ;&st7;   " d=" M   836.83,   312.27  C   836.83    314.77    838.86    316.80    841.36    316.80  " /><path style="stroke-width:1.42 ;&st7;   " d=" M   841.36,   316.80  C   843.86    316.80    845.89    314.77    845.89    312.27  " /><path style="stroke-width:1.42 ;&st7;   " d=" M   845.89,   321.33  C   845.89    318.83    843.86    316.80    841.36    316.80  " /><path style="stroke-width:1.42 ;&st7;   " d=" M   841.36,   316.80  C   838.86    316.80    836.83    318.83    836.83    321.33  " /><path style="stroke-width:1.42 ;&st7;   " d=" M   836.83,   321.33  C   836.83    323.83    838.86    325.86    841.36    325.86  " /><path style="stroke-width:1.42 ;&st7;   " d=" M   841.36,   325.86  C   843.86    325.86    845.89    323.83    845.89    321.33  " /><path style="stroke-width:1.42 ;&st7;   " d=" M   845.89,   330.40  C   845.89    327.89    843.86    325.86    841.36    325.86  " /><path style="stroke-width:1.42 ;&st7;   " d=" M   841.36,   325.86  C   838.86    325.86    836.83    327.89    836.83    330.40  " /><path style="stroke-width:1.42 ;&st7;   " d=" M   836.83,   330.40  C   836.83    332.90    838.86    334.93    841.36    334.93  " /><path style="stroke-width:1.42 ;&st7;   " d=" M   841.36,   334.93  C   843.86    334.93    845.89    332.90    845.89    330.40  " /><text style="&st18;" transform="matrix(&st16;  839.17  341.43 )">B</text><text style="&st18;" transform="matrix(&st16;  838.98  304.04 )">D</text></g><g ewd:lineID="54"><text style="&st18;" transform="matrix(&st16;  883.66  332.37 )">1</text><text style="&st18;" transform="matrix(&st16;  883.66  341.43 )">2</text><text style="&st18;" transform="matrix(&st16;  883.66  323.3 )">3</text><text style="&st18;" transform="matrix(&st16;  883.66  314.24 )">6</text><text style="&st18;" transform="matrix(&st16;  890.16  341.43 )">B</text><path style="stroke-width:1.42 ;&st7;   " d=" M   896.88,   312.27  C   896.88    309.76    894.85    307.73    892.35    307.73  " /><path style="stroke-width:1.42 ;&st7;   " d=" M   892.35,   307.73  C   889.85    307.73    887.82    309.76    887.82    312.27  " /><path style="stroke-width:1.42 ;&st7;   " d=" M   887.82,   312.27  C   887.82    314.77    889.85    316.80    892.35    316.80  " /><path style="stroke-width:1.42 ;&st7;   " d=" M   892.35,   316.80  C   894.85    316.80    896.88    314.77    896.88    312.27  " /><path style="stroke-width:1.42 ;&st7;   " d=" M   896.88,   321.33  C   896.88    318.83    894.85    316.80    892.35    316.80  " /><path style="stroke-width:1.42 ;&st7;   " d=" M   892.35,   316.80  C   889.85    316.80    887.82    318.83    887.82    321.33  " /><path style="stroke-width:1.42 ;&st7;   " d=" M   887.82,   321.33  C   887.82    323.83    889.85    325.86    892.35    325.86  " /><path style="stroke-width:1.42 ;&st7;   " d=" M   892.35,   325.86  C   894.85    325.86    896.88    323.83    896.88    321.33  " /><path style="stroke-width:1.42 ;&st7;   " d=" M   896.88,   330.40  C   896.88    327.89    894.85    325.86    892.35    325.86  " /><path style="stroke-width:1.42 ;&st7;   " d=" M   892.35,   325.86  C   889.85    325.86    887.82    327.89    887.82    330.40  " /><path style="stroke-width:1.42 ;&st7;   " d=" M   887.82,   330.40  C   887.82    332.90    889.85    334.93    892.35    334.93  " /><path style="stroke-width:1.42 ;&st7;   " d=" M   892.35,   334.93  C   894.85    334.93    896.88    332.90    896.88    330.40  " /><path style="stroke-width:1.42 ;&st7;   " d=" M   896.88,   339.46  C   896.88    336.96    894.85    334.93    892.35    334.93  " /><path style="stroke-width:1.42 ;&st7;   " d=" M   892.35,   334.93  C   889.85    334.93    887.82    336.96    887.82    339.46  " /><path style="stroke-width:1.42 ;&st7;   " d=" M   887.82,   339.46  C   887.82    341.97    889.85    343.99    892.35    343.99  " /><path style="stroke-width:1.42 ;&st7;   " d=" M   892.35,   343.99  C   894.85    343.99    896.88    341.97    896.88    339.46  " /><text style="&st18;" transform="matrix(&st16;  889.93  314.24 )">C</text><text style="&st18;" transform="matrix(&st16;  889.97  323.3 )">D</text><text style="&st18;" transform="matrix(&st16;  890.05  332.37 )">A</text><text style="&st18;" transform="matrix(&st16;  889.97  304.04 )">U</text></g><g ewd:lineID="60"><text style="&st18;" transform="matrix(&st16;  943.15  332.37 )">6</text><text style="&st18;" transform="matrix(&st16;  943.15  323.3 )">6</text><text style="&st18;" transform="matrix(&st16;  943.15  314.24 )">1</text><text style="&st18;" transform="matrix(&st16;  943.15  341.43 )">9</text><path style="stroke-width:1.42 ;&st7;   " d=" M   956.37,   312.27  C   956.37    309.76    954.34    307.73    951.84    307.73  " /><path style="stroke-width:1.42 ;&st7;   " d=" M   951.84,   307.73  C   949.34    307.73    947.31    309.76    947.31    312.27  " /><path style="stroke-width:1.42 ;&st7;   " d=" M   947.31,   312.27  C   947.31    314.77    949.34    316.80    951.84    316.80  " /><path style="stroke-width:1.42 ;&st7;   " d=" M   951.84,   316.80  C   954.34    316.80    956.37    314.77    956.37    312.27  " /><text style="&st18;" transform="matrix(&st16;  949.46  323.3 )">D</text><text style="&st18;" transform="matrix(&st16;  949.42  314.24 )">C</text><path style="stroke-width:1.42 ;&st7;   " d=" M   956.37,   321.33  C   956.37    318.83    954.34    316.80    951.84    316.80  " /><path style="stroke-width:1.42 ;&st7;   " d=" M   951.84,   316.80  C   949.34    316.80    947.31    318.83    947.31    321.33  " /><path style="stroke-width:1.42 ;&st7;   " d=" M   947.31,   321.33  C   947.31    323.83    949.34    325.86    951.84    325.86  " /><path style="stroke-width:1.42 ;&st7;   " d=" M   951.84,   325.86  C   954.34    325.86    956.37    323.83    956.37    321.33  " /><path style="stroke-width:1.42 ;&st7;   " d=" M   956.37,   330.40  C   956.37    327.89    954.34    325.86    951.84    325.86  " /><path style="stroke-width:1.42 ;&st7;   " d=" M   951.84,   325.86  C   949.34    325.86    947.31    327.89    947.31    330.40  " /><path style="stroke-width:1.42 ;&st7;   " d=" M   947.31,   330.40  C   947.31    332.90    949.34    334.93    951.84    334.93  " /><path style="stroke-width:1.42 ;&st7;   " d=" M   951.84,   334.93  C   954.34    334.93    956.37    332.90    956.37    330.40  " /><text style="&st18;" transform="matrix(&st16;  949.54  332.37 )">A</text><text style="&st18;" transform="matrix(&st16;  949.65  341.43 )">B</text><path style="stroke-width:1.42 ;&st7;   " d=" M   956.37,   339.46  C   956.37    336.96    954.34    334.93    951.84    334.93  " /><path style="stroke-width:1.42 ;&st7;   " d=" M   951.84,   334.93  C   949.34    334.93    947.31    336.96    947.31    339.46  " /><path style="stroke-width:1.42 ;&st7;   " d=" M   947.31,   339.46  C   947.31    341.97    949.34    343.99    951.84    343.99  " /><path style="stroke-width:1.42 ;&st7;   " d=" M   951.84,   343.99  C   954.34    343.99    956.37    341.97    956.37    339.46  " /><text style="&st18;" transform="matrix(&st16;  949.73  304.04 )">E</text></g><g ewd:lineID="61"><text style="&st18;" transform="matrix(&st16;  985.64  332.37 )">5</text><text style="&st18;" transform="matrix(&st16;  985.64  314.24 )">2</text><path style="stroke-width:0.85 ;&st7;  " d=" M   994.33,   316.80  L   994.33,   325.86  " /><text style="&st18;" transform="matrix(&st16;  992.03  332.37 )">A</text><path style="stroke-width:1.42 ;&st7;   " d=" M   998.87,   312.27  C   998.87    309.76    996.84    307.73    994.33    307.73  " /><path style="stroke-width:1.42 ;&st7;   " d=" M   994.33,   307.73  C   991.83    307.73    989.80    309.76    989.80    312.27  " /><path style="stroke-width:1.42 ;&st7;   " d=" M   989.80,   312.27  C   989.80    314.77    991.83    316.80    994.33    316.80  " /><path style="stroke-width:1.42 ;&st7;   " d=" M   994.33,   316.80  C   996.84    316.80    998.87    314.77    998.87    312.27  " /><path style="stroke-width:1.42 ;&st7;   " d=" M   998.87,   330.40  C   998.87    327.89    996.84    325.86    994.33    325.86  " /><path style="stroke-width:1.42 ;&st7;   " d=" M   994.33,   325.86  C   991.83    325.86    989.80    327.89    989.80    330.40  " /><path style="stroke-width:1.42 ;&st7;   " d=" M   989.80,   330.40  C   989.80    332.90    991.83    334.93    994.33    334.93  " /><path style="stroke-width:1.42 ;&st7;   " d=" M   994.33,   334.93  C   996.84    334.93    998.87    332.90    998.87    330.40  " /><text style="&st18;" transform="matrix(&st16;  991.91  314.24 )">C</text><text style="&st18;" transform="matrix(&st16;  992.22  304.04 )">E</text></g><g ewd:figtype="title"><text style="&st18;" transform="matrix(&st16;  786.96  186.73 )">O8(A),O9(B),P9(C),P10(D)</text><text style="&st18;" transform="matrix(&st16;  786.96  193.56 )" ewd:textID="14">Power Window Regulator Master Switch Assembly</text></g></g><g ewd:figtype="conn" ewd:figID="8" ewd:code="I54"><path style="stroke-width:0.85 ;&st7;  " d=" M   909.35,   520.20  L   909.35,   537.20  " /><path style="stroke-width:1.42 ;&st7;  " d=" M   900.85,   520.20  L   917.85,   520.20  L   917.85,   537.20  L   900.85,   537.20  L   900.85,   520.20  " /><text style="&st18;" transform="matrix(&st16;  900.65  543.7 )">1</text><text style="&st18;" transform="matrix(&st16;  907.04  543.7 )">A</text><path style="stroke-width:1.42 ;&st7;   " d=" M   913.88,   541.73  C   913.88    539.22    911.85    537.20    909.35    537.20  " /><path style="stroke-width:1.42 ;&st7;   " d=" M   909.35,   537.20  C   906.84    537.20    904.82    539.22    904.82    541.73  " /><path style="stroke-width:1.42 ;&st7;   " d=" M   904.82,   541.73  C   904.82    544.23    906.84    546.26    909.35    546.26  " /><path style="stroke-width:1.42 ;&st7;   " d=" M   909.35,   546.26  C   911.85    546.26    913.88    544.23    913.88    541.73  " /><text style="&st18;" transform="matrix(&st16;  897.55  517.64 )">11</text><text style="&st18;" transform="matrix(&st16;  907.04  517.64 )">A</text><path style="stroke-width:1.42 ;&st7;   " d=" M   913.88,   515.67  C   913.88    513.16    911.85    511.13    909.35    511.13  " /><path style="stroke-width:1.42 ;&st7;   " d=" M   909.35,   511.13  C   906.84    511.13    904.82    513.16    904.82    515.67  " /><path style="stroke-width:1.42 ;&st7;   " d=" M   904.82,   515.67  C   904.82    518.17    906.84    520.20    909.35    520.20  " /><path style="stroke-width:1.42 ;&st7;   " d=" M   909.35,   520.20  C   911.85    520.20    913.88    518.17    913.88    515.67  " /><g ewd:figtype="title"><text style="&st18;" transform="matrix(&st17;  932.56  540.1 )" ewd:textID="12">No. 5 Junction <tspan x="0 " dy="6.0">Connector</tspan></text><text style="&st18;" transform="matrix(&st17;  925.74  540.09 )">I54(A)</text></g></g><g ewd:figtype="w2w" ewd:figID="19" ewd:code="QU1"><path style="stroke-width:1.42 ;&st7;  " d=" M   582.15,   497.54  L   577.90,   501.78  L   573.65,   497.54  " /><path style="stroke-width:1.42 ;&st7;  " d=" M   573.65,   494.14  L   577.90,   498.39  L   582.15,   494.14  " /><text style="&st18;" transform="matrix(&st16;  565.27  509.42 )">5</text></g><g ewd:figtype="w2w" ewd:figID="20" ewd:code="UI3"><path style="stroke-width:1.42 ;&st7;  " d=" M   582.15,   438.05  L   577.90,   442.29  L   573.65,   438.05  " /><path style="stroke-width:1.42 ;&st7;  " d=" M   573.65,   434.65  L   577.90,   438.90  L   582.15,   434.65  " /><text style="&st18;" transform="matrix(&st16;  565.27  449.93 )">4</text></g><g ewd:figtype="w2w" ewd:figID="21" ewd:code="OI3"><path style="stroke-width:1.42 ;&st7;  " d=" M   582.15,   401.78  L   577.90,   397.54  L   573.65,   401.78  " /><path style="stroke-width:1.42 ;&st7;  " d=" M   582.15,   398.39  L   577.90,   394.14  L   573.65,   398.39  " /><text style="&st18;" transform="matrix(&st16;  565.27  390.44 )">3</text></g><g ewd:figtype="w2w" ewd:figID="22" ewd:code="PI3"><text style="&st18;" transform="matrix(&st16;  565.27  381.94 )">3</text></g><g ewd:figtype="w2w" ewd:figID="23" ewd:code="QU1"><path style="stroke-width:1.42 ;&st7;  " d=" M   616.15,   497.54  L   611.90,   501.78  L   607.65,   497.54  " /><path style="stroke-width:1.42 ;&st7;  " d=" M   607.65,   494.14  L   611.90,   498.39  L   616.15,   494.14  " /><text style="&st18;" transform="matrix(&st16;  599.27  509.42 )">4</text></g><g ewd:figtype="w2w" ewd:figID="24" ewd:code="UI3"><path style="stroke-width:1.42 ;&st7;  " d=" M   616.15,   438.05  L   611.90,   442.29  L   607.65,   438.05  " /><path style="stroke-width:1.42 ;&st7;  " d=" M   607.65,   434.65  L   611.90,   438.90  L   616.15,   434.65  " /><text style="&st18;" transform="matrix(&st16;  599.27  449.93 )">3</text></g><g ewd:figtype="w2w" ewd:figID="25" ewd:code="OI3"><path style="stroke-width:1.42 ;&st7;  " d=" M   616.15,   401.78  L   611.90,   397.54  L   607.65,   401.78  " /><path style="stroke-width:1.42 ;&st7;  " d=" M   616.15,   398.39  L   611.90,   394.14  L   607.65,   398.39  " /><text style="&st18;" transform="matrix(&st16;  599.27  390.44 )">4</text></g><g ewd:figtype="w2w" ewd:figID="26" ewd:code="PI3"><text style="&st18;" transform="matrix(&st16;  599.27  381.94 )">4</text></g><g ewd:figtype="w2w" ewd:figID="27" ewd:code="RS1"><path style="stroke-width:1.42 ;&st7;  " d=" M   650.14,   497.54  L   645.89,   501.78  L   641.64,   497.54  " /><path style="stroke-width:1.42 ;&st7;  " d=" M   641.64,   494.14  L   645.89,   498.39  L   650.14,   494.14  " /><text style="&st18;" transform="matrix(&st16;  633.26  509.42 )">5</text></g><g ewd:figtype="w2w" ewd:figID="28" ewd:code="IS2"><path style="stroke-width:1.42 ;&st7;  " d=" M   650.14,   457.88  L   645.89,   453.63  L   641.64,   457.88  " /><path style="stroke-width:1.42 ;&st7;  " d=" M   650.14,   461.27  L   645.89,   457.03  L   641.64,   461.27  " /><text style="&st18;" transform="matrix(&st16;  633.26  449.93 )">7</text></g><g ewd:figtype="w2w" ewd:figID="29" ewd:code="OI3"><path style="stroke-width:1.42 ;&st7;  " d=" M   650.14,   401.78  L   645.89,   397.54  L   641.64,   401.78  " /><path style="stroke-width:1.42 ;&st7;  " d=" M   650.14,   398.39  L   645.89,   394.14  L   641.64,   398.39  " /><text style="&st18;" transform="matrix(&st16;  633.26  390.44 )">5</text></g><g ewd:figtype="w2w" ewd:figID="30" ewd:code="PI3"><text style="&st18;" transform="matrix(&st16;  633.26  381.94 )">5</text></g><g ewd:figtype="w2w" ewd:figID="31" ewd:code="OI3"><text style="&st18;" transform="matrix(&st16;  633.26  75.99 )">8</text><g ewd:code="" ewd:figID="70" ewd:comment="" ewd:figtype="commref"><text style="&st18;" transform="matrix(&st16;  654.92  75.99 )">(RHD)</text></g></g><g ewd:figtype="w2w" ewd:figID="32" ewd:code="PI3"><path style="stroke-width:1.42 ;&st7;  " d=" M   641.64,    52.21  L   645.89,    56.46  L   650.14,    52.21  " /><path style="stroke-width:1.42 ;&st7;  " d=" M   650.14,    55.61  L   645.89,    59.86  L   641.64,    55.61  " /><text style="&st18;" transform="matrix(&st16;  633.26  67.49 )">8</text><g ewd:code="" ewd:figID="69" ewd:comment="" ewd:figtype="commref"><text style="&st18;" transform="matrix(&st16;  654.92  67.49 )">(LHD)</text></g></g><g ewd:figtype="w2w" ewd:figID="33" ewd:code="RS1"><path style="stroke-width:1.42 ;&st7;  " d=" M   684.14,   497.54  L   679.89,   501.78  L   675.64,   497.54  " /><path style="stroke-width:1.42 ;&st7;  " d=" M   675.64,   494.14  L   679.89,   498.39  L   684.14,   494.14  " /><text style="&st18;" transform="matrix(&st16;  667.25  509.42 )">4</text></g><g ewd:figtype="w2w" ewd:figID="34" ewd:code="IS2"><path style="stroke-width:1.42 ;&st7;  " d=" M   684.14,   457.88  L   679.89,   453.63  L   675.64,   457.88  " /><path style="stroke-width:1.42 ;&st7;  " d=" M   684.14,   461.27  L   679.89,   457.03  L   675.64,   461.27  " /><text style="&st18;" transform="matrix(&st16;  667.25  449.93 )">8</text></g><g ewd:figtype="w2w" ewd:figID="35" ewd:code="OI3"><path style="stroke-width:1.42 ;&st7;  " d=" M   684.14,   401.78  L   679.89,   397.54  L   675.64,   401.78  " /><path style="stroke-width:1.42 ;&st7;  " d=" M   684.14,   398.39  L   679.89,   394.14  L   675.64,   398.39  " /><text style="&st18;" transform="matrix(&st16;  667.25  390.44 )">6</text></g><g ewd:figtype="w2w" ewd:figID="36" ewd:code="PI3"><text style="&st18;" transform="matrix(&st16;  667.25  381.94 )">6</text></g><g ewd:figtype="w2w" ewd:figID="37" ewd:code="PI2"><text style="&st18;" transform="matrix(&st16;  701.25  458.43 )">4</text></g><g ewd:figtype="w2w" ewd:figID="38" ewd:code="OI2"><path style="stroke-width:1.42 ;&st7;  " d=" M   718.13,   438.05  L   713.88,   442.29  L   709.63,   438.05  " /><path style="stroke-width:1.42 ;&st7;  " d=" M   709.63,   434.65  L   713.88,   438.90  L   718.13,   434.65  " /><text style="&st18;" transform="matrix(&st16;  701.25  449.93 )">4</text></g><g ewd:figtype="w2w" ewd:figID="39" ewd:code="OI3"><path style="stroke-width:1.42 ;&st7;  " d=" M   718.13,   401.78  L   713.88,   397.54  L   709.63,   401.78  " /><path style="stroke-width:1.42 ;&st7;  " d=" M   718.13,   398.39  L   713.88,   394.14  L   709.63,   398.39  " /><text style="&st18;" transform="matrix(&st16;  701.25  390.44 )">1</text></g><g ewd:figtype="w2w" ewd:figID="40" ewd:code="PI3"><text style="&st18;" transform="matrix(&st16;  701.25  381.94 )">1</text></g><g ewd:figtype="w2w" ewd:figID="41" ewd:code="PI2"><text style="&st18;" transform="matrix(&st16;  735.24  458.43 )">5</text></g><g ewd:figtype="w2w" ewd:figID="42" ewd:code="OI2"><path style="stroke-width:1.42 ;&st7;  " d=" M   752.12,   438.05  L   747.87,   442.29  L   743.63,   438.05  " /><path style="stroke-width:1.42 ;&st7;  " d=" M   743.63,   434.65  L   747.87,   438.90  L   752.12,   434.65  " /><text style="&st18;" transform="matrix(&st16;  735.24  449.93 )">5</text></g><g ewd:figtype="w2w" ewd:figID="43" ewd:code="OI3"><path style="stroke-width:1.42 ;&st7;  " d=" M   752.12,   401.78  L   747.87,   397.54  L   743.63,   401.78  " /><path style="stroke-width:1.42 ;&st7;  " d=" M   752.12,   398.39  L   747.87,   394.14  L   743.63,   398.39  " /><text style="&st18;" transform="matrix(&st16;  735.24  390.44 )">2</text></g><g ewd:figtype="w2w" ewd:figID="44" ewd:code="PI3"><text style="&st18;" transform="matrix(&st16;  735.24  381.94 )">2</text></g><g ewd:figtype="w2w" ewd:figID="45" ewd:code="OI3"><path style="stroke-width:1.42 ;&st7;  " d=" M   956.09,   461.27  L   951.84,   457.03  L   947.59,   461.27  " /><path style="stroke-width:1.42 ;&st7;  " d=" M   956.09,   457.88  L   951.84,   453.63  L   947.59,   457.88  " /><text style="&st18;" transform="matrix(&st16;  936.11  449.93 )">12</text><g ewd:code="" ewd:figID="66" ewd:comment="" ewd:figtype="commref"><text style="&st18;" transform="matrix(&st16;  960.87  449.93 )">(RHD)</text></g></g><g ewd:figtype="w2w" ewd:figID="46" ewd:code="PI3"><text style="&st18;" transform="matrix(&st16;  936.11  441.43 )">12</text><g ewd:code="" ewd:figID="65" ewd:comment="" ewd:figtype="commref"><text style="&st18;" transform="matrix(&st16;  960.87  441.43 )">(LHD)</text></g></g><g ewd:figtype="gp" ewd:figID="47" ewd:code="IA"><path style="stroke-width:0.85 ;&st7;  " d=" M   907.93,   710.00  L   910.76,   710.00  " /><path style="stroke-width:0.85 ;&st7;  " d=" M   906.51,   707.17  L   912.18,   707.17  " /><path style="stroke-width:0.85 ;&st7;  " d=" M   905.10,   704.33  L   913.60,   704.33  " /><path style="stroke-width:0.85 ;&st7;  " d=" M   900.85,   701.50  L   917.85,   701.50  " /><path style="stroke-width:0.85 ;&st7;  " d=" M   909.35,   697.25  L   909.35,   701.50  " /></g><g ewd:figtype="gp" ewd:figID="48" ewd:code="IC"><path style="stroke-width:0.85 ;&st7;  " d=" M   950.42,   710.00  L   953.26,   710.00  " /><path style="stroke-width:0.85 ;&st7;  " d=" M   949.01,   707.17  L   954.67,   707.17  " /><path style="stroke-width:0.85 ;&st7;  " d=" M   947.59,   704.33  L   956.09,   704.33  " /><path style="stroke-width:0.85 ;&st7;  " d=" M   943.34,   701.50  L   960.34,   701.50  " /><path style="stroke-width:0.85 ;&st7;  " d=" M   951.84,   697.25  L   951.84,   701.50  " /></g><g ewd:code="" ewd:figID="67" ewd:comment="" ewd:figtype="commref"><text style="&st18;" transform="matrix(&st16;  756.91  381.94 )">(LHD)</text></g><g ewd:code="" ewd:figID="68" ewd:comment="" ewd:figtype="commref"><text style="&st18;" transform="matrix(&st16;  756.91  390.44 )">(RHD)</text></g><g ewd:code="" ewd:figID="79" ewd:comment="2" ewd:figtype="commref"><text style="&st18;" transform="matrix(&st16;  956.93  341.43 )">(RHD *2)</text></g><g ewd:code="" ewd:figID="80" ewd:comment="2" ewd:figtype="commref"><text style="&st18;" transform="matrix(&st16;  956.93  323.3 )">(LHD *2)</text></g><g ewd:code="" ewd:figID="81" ewd:comment="1" ewd:figtype="commref"><text style="&st18;" transform="matrix(&st16;  999.43  332.37 )">(RHD *1)</text></g><g ewd:code="" ewd:figID="82" ewd:comment="1" ewd:figtype="commref"><text style="&st18;" transform="matrix(&st16;  999.43  314.24 )">(LHD *1)</text></g><g ewd:code="" ewd:figID="93" ewd:comment="1" ewd:figtype="commref"><text style="&st18;" transform="matrix(&st16;  710.48  185.62 )">(RHD *1)</text></g><g ewd:code="" ewd:figID="94" ewd:comment="1" ewd:figtype="commref"><text style="&st18;" transform="matrix(&st16;  710.48  167.49 )">(LHD *1)</text></g><g ewd:code="" ewd:figID="95" ewd:comment="" ewd:figtype="commref"><text style="&st18;" transform="matrix(&st16;  756.91  458.43 )">(RHD)</text></g><g ewd:code="" ewd:figID="96" ewd:comment="" ewd:figtype="commref"><text style="&st18;" transform="matrix(&st16;  756.91  449.93 )">(LHD)</text></g><g ewd:code="4" ewd:figID="88" ewd:comment="" ewd:figtype="comment"><text style="&st18;" transform="matrix(&st16;  727.47  80.24 )" ewd:textID="4">* 4 :Rear Forward Facing Seats 2-Door Except Pick-Up Body Type</text></g><g ewd:code="1" ewd:figID="91" ewd:comment="" ewd:figtype="comment"><text style="&st18;" transform="matrix(&st16;  727.47  46.25 )" ewd:textID="1">* 1 :4-Door</text></g><g ewd:code="2" ewd:figID="90" ewd:comment="" ewd:figtype="comment"><text style="&st18;" transform="matrix(&st16;  727.47  54.75 )" ewd:textID="2">* 2 :2-Door</text></g><g ewd:code="3" ewd:figID="89" ewd:comment="" ewd:figtype="comment"><text style="&st18;" transform="matrix(&st16;  727.47  63.24 )" ewd:textID="3">* 3 :Pick-Up Body Type, 4-Door Except Pick-Up Body Type, <tspan x="14.17" dy="8.5">Rear Bench Seats 2-Door Except Pick-Up Body Type</tspan></text></g></svg>