<?xml version="1.0" encoding="UTF-8"?>
<!DOCTYPE svg PUBLIC "-//W3C//DTD SVG 1.0//EN" "http://www.w3.org/TR/2001/REC-SVG-20010904/DTD/svg10.dtd"[
	<!ENTITY ns_flows "http://ns.adobe.com/Flows/1.0/">
	<!ENTITY ns_svg "http://www.w3.org/2000/svg">
	<!ENTITY ns_xlink "http://www.w3.org/1999/xlink">
	<!ENTITY st0 "font-size:7px;font-family:'MS-PGothic';adobe-font-script:japanese;">
	<!ENTITY st1 "font-size:6px;font-family:'ArialMT';">
	<!-- White fill  -->
	<!ENTITY st2 "fill:#FFFFFF;stroke:#000000; stroke-width:1.41;stroke-linecap:round;stroke-linejoin:round;">
	<!-- Yellow fill  -->
	<!ENTITY st3 "fill:#FFFFCC;stroke:#FFFFCC; stroke-width:0.1;stroke-linecap:round;stroke-linejoin:round;">
	<!-- Gray fill  -->
	<!ENTITY st4 "fill:#CCCCCC;stroke:#CCCCCC; stroke-width:0.1;stroke-linecap:round;stroke-linejoin:round;">
	<!-- Light-blue fill -->
	<!ENTITY st5 "fill:#CCECF4;stroke:#000000; stroke-width:1.133;stroke-linecap:round;stroke-linejoin:round;">
	<!ENTITY st6 "fill:none;stroke-linecap:butt; stroke-linejoin:round;">
	<!ENTITY st7 "fill:none;stroke:#000000;stroke-linecap:round;stroke-linejoin:round;">
	<!ENTITY st8 "enable-background:new    ;">
	<!-- Black fill -->
	<!ENTITY st9 "fill:#000000;stroke:#000000; stroke-linecap:round;stroke-linejoin:round;">
	<!-- SRS note   -->
	<!ENTITY st10 "font-size:9px;font-family:'ArialMT';">
	<!ENTITY st11 "font-size:9px;font-family:'Svg Symbol';">
	<!ENTITY st12 "font-size:6px;font-family:'Svg Symbol';">
	<!ENTITY st13 "fill:none;stroke:#ff0000;stroke-linecap:round;stroke-linejoin:round;">
	<!-- Yellow fill  -->
	<!ENTITY st14 "fill:#FFFF00;stroke:#FFFF00; stroke-width:0.1;stroke-linecap:round;stroke-linejoin:round;">
	<!ENTITY st15 "font-size:6px;font-family:'MS-PGothic';adobe-font-script:japanese;">
	<!ENTITY st16 "1.00 0.00 0.00 1.00">
	<!ENTITY st17 "0.00 -1.00 1.00 0.00">
	<!ENTITY st18 "font-size:6px;font-family:'Arial';">
	<!ENTITY st19 "font-size:9px;font-family:'Arial';">
	<!ENTITY st20 "font-size:6px;font-family:'MS-PGothic','MS PGothic';adobe-font-script:japanese;">
	<!ENTITY st21 "font-size:7px;font-family:'MS-PGothic','MS PGothic';adobe-font-script:japanese;">
	<!ATTLIST svg
		xmlns:ewd CDATA #FIXED "http://shcl.co.jp/ewd"
		xmlns:a CDATA #FIXED "http://ns.adobe.com/AdobeSVGViewerExtensions/3.0/"
		ewd:ver CDATA #IMPLIED
	>
	<!ATTLIST a
		ewd:lineID CDATA #IMPLIED
		ewd:groupID CDATA #IMPLIED
		ewd:figtype CDATA #IMPLIED
		ewd:code CDATA #IMPLIED
		ewd:figID CDATA #IMPLIED
		ewd:pinNo CDATA #IMPLIED
		ewd:comment CDATA #IMPLIED >
	<!ATTLIST g
		ewd:lineID CDATA #IMPLIED
		ewd:groupID CDATA #IMPLIED
		ewd:figtype CDATA #IMPLIED
		ewd:code CDATA #IMPLIED
		ewd:figID CDATA #IMPLIED
		ewd:pinNo CDATA #IMPLIED
		ewd:comment CDATA #IMPLIED >
	<!ATTLIST text
		ewd:textID CDATA #IMPLIED >
	<!ATTLIST title
		ewd:textID CDATA #IMPLIED >
]>
<!-- Generator: Shintec Hozumi YS   -->
<svg onload="call_execInitLoadProc_svg('system')" style="overflow:visible;  enable-background:new 0 0 946.715 710.000" viewBox="0 0 946.715 710.000" height="710.000" width="946.715" xml:space="preserve" ewd:ver="2.1.2.9" xmlns="&ns_svg;" xmlns:a="http://ns.adobe.com/AdobeSVGViewerExtensions/3.0/" xmlns:ewd="http://shcl.co.jp/ewd" xmlns:xlink="&ns_xlink;">
	<script type="text/javascript" xlink:href="../../../../../system/js/ewd/fig/svgfig.js"/>
<g id="ewd_top">
	<a ewd:figtype="conn" style="cursor:pointer;" ewd:code="I109" ewd:figID="1">
		<path style="fill:#CCECF4;stroke:#000000; stroke-width:1.133; stroke-linecap:round;stroke-linejoin:round; " d=" M   594.90,   154.76  L   611.90,   154.76  L   611.90,   171.76  L   594.90,   171.76  L   594.90,   154.76 "/>
		<title ewd:textID="2">No. 13 Junction Connector</title>
	</a>
	<a ewd:figtype="rb" style="cursor:pointer;" ewd:code="FUSE29" ewd:figID="2">
		<path style="fill:#CCECF4;stroke:#000000; stroke-width:0; stroke-linecap:round;stroke-linejoin:round; " d=" M   590.65,    35.78  L   590.65,    78.27  L   616.15,    78.27  L   616.15,    35.78  L   590.65,    35.78 "/>
	</a>
	<a ewd:figtype="conn" style="cursor:pointer;" ewd:code="S9" ewd:figID="3">
		<path style="fill:#CCECF4;stroke:#000000; stroke-width:1.133; stroke-linecap:round;stroke-linejoin:round; " d=" M   586.40,   460.71  L   773.37,   460.71  L   773.37,   418.22  L   586.40,   418.22  L   586.40,   460.71 "/>
		<title ewd:textID="7">Rear Wiper Relay Assembly</title>
	</a>
	<a ewd:figtype="conn" style="cursor:pointer;" ewd:code="a1" ewd:figID="4">
		<path style="fill:#CCECF4;stroke:#000000; stroke-width:1.133; stroke-linecap:round;stroke-linejoin:round; " d=" M   807.37,   443.71  L   926.35,   443.71  L   926.35,   375.72  L   807.37,   375.72  L   807.37,   443.71 "/>
		<title ewd:textID="6">Rear Wiper Motor Assembly</title>
	</a>
	<a ewd:figtype="conn" style="cursor:pointer;" ewd:code="I93" ewd:figID="5">
		<path style="fill:#CCECF4;stroke:#000000; stroke-width:1.133; stroke-linecap:round;stroke-linejoin:round; " d=" M   764.87,   622.18  L   781.87,   622.18  L   781.87,   639.18  L   764.87,   639.18  L   764.87,   622.18 "/>
		<title ewd:textID="1">No. 5 Junction Connector</title>
	</a>
	<a ewd:figtype="conn" style="cursor:pointer;" ewd:code="S11" ewd:figID="6">
		<path style="fill:#CCECF4;stroke:#000000; stroke-width:1.133; stroke-linecap:round;stroke-linejoin:round; " d=" M   365.44,   477.71  L   407.93,   477.71  L   407.93,   426.71  L   365.44,   426.71  L   365.44,   477.71 "/>
		<title ewd:textID="5">Rear Washer Motor Assembly</title>
	</a>
	<a ewd:figtype="conn" style="cursor:pointer;" ewd:code="L22,L23" ewd:figID="7">
		<path style="fill:#CCECF4;stroke:#000000; stroke-width:1.133; stroke-linecap:round;stroke-linejoin:round; " d=" M    84.99,   375.72  L    84.99,   477.71  L   271.95,   477.71  L   271.95,   375.72  L    84.99,   375.72 "/>
		<title ewd:textID="9">Windshield Wiper Switch Assembly</title>
	</a>
	<a ewd:figtype="conn" style="cursor:pointer;" ewd:code="L53" ewd:figID="8">
		<path style="fill:#CCECF4;stroke:#000000; stroke-width:1.133; stroke-linecap:round;stroke-linejoin:round; " d=" M   144.48,   588.19  L   161.47,   588.19  L   161.47,   605.18  L   144.48,   605.18  L   144.48,   588.19 "/>
		<title ewd:textID="3">No. 31 Junction Connector</title>
	</a>
	<a ewd:figtype="fuse" style="cursor:pointer;" ewd:code="FUSE29" ewd:figID="29">
		<path style="&st7; stroke-width:0;" d=" M   590.65,    35.78  L   590.65,    78.27  L   616.15,    78.27  L   616.15,    35.78  L   590.65,    35.78 "/>
	</a>
	<a style="cursor:pointer;" ewd:lineID="1">
		<path style="stroke:#000000;stroke-width:5.10 ;&st6;" d=" M   144.48,   596.69  L   101.98,   596.69  L   101.98,   681.67  "/>
		<path style="stroke:#FFFFFF;stroke-width:4.53 ;&st6;" d=" M   144.48,   596.69  L   101.98,   596.69  L   101.98,   681.67  "/>
		<path style="stroke:#000000;stroke-width:1.13 ;&st6;" d=" M   144.48,   596.69  L   101.98,   596.69  L   101.98,   681.67  "/>
	</a>
	<a style="cursor:pointer;" ewd:lineID="2">
		<path style="stroke:#000000;stroke-width:5.10 ;&st6;" d=" M   152.97,   681.67  L   152.97,   605.18  "/>
		<path style="stroke:#FFFFFF;stroke-width:4.53 ;&st6;" d=" M   152.97,   681.67  L   152.97,   605.18  "/>
		<path style="stroke:#000000;stroke-width:1.13 ;&st6;" d=" M   152.97,   681.67  L   152.97,   605.18  "/>
	</a>
	<a style="cursor:pointer;" ewd:lineID="3">
		<path style="stroke:#000000;stroke-width:5.10 ;&st6;" d=" M   152.97,   588.19  L   152.97,   537.20  "/>
		<path style="stroke:#FFFFFF;stroke-width:4.53 ;&st6;" d=" M   152.97,   588.19  L   152.97,   537.20  "/>
		<path style="stroke:#000000;stroke-width:1.13 ;&st6;" d=" M   152.97,   588.19  L   152.97,   537.20  "/>
	</a>
	<a style="cursor:pointer;" ewd:lineID="4">
		<path style="stroke:#000000;stroke-width:5.10 ;&st6;" d=" M   152.97,   520.20  L   152.97,   486.77  "/>
		<path style="stroke:#FFFFFF;stroke-width:4.53 ;&st6;" d=" M   152.97,   520.20  L   152.97,   486.77  "/>
		<path style="stroke:#000000;stroke-width:1.13 ;&st6;" d=" M   152.97,   520.20  L   152.97,   486.77  "/>
	</a>
	<a style="cursor:pointer;" ewd:lineID="5">
		<path style="stroke:#00A0C6;stroke-width:5.10 ;&st6;" d=" M   186.97,   357.59  L   186.97,   299.24  L   679.89,   299.24  L   679.89,   333.23  "/>
		<path style="stroke:#FFFFFF;stroke-width:1.13 ;&st6;" d=" M   186.97,   357.59  L   186.97,   299.24  L   679.89,   299.24  L   679.89,   333.23  "/>
	</a>
	<a style="cursor:pointer;" ewd:lineID="6">
		<path style="stroke:#7FC97F;stroke-width:5.10 ;&st6;" d=" M   220.96,   357.59  L   220.96,   316.23  L   637.39,   316.23  L   637.39,   333.23  "/>
		<path style="stroke:#FFFFFF;stroke-width:2.27 ;&st6;" d=" M   220.96,   357.59  L   220.96,   316.23  L   637.39,   316.23  L   637.39,   333.23  "/>
		<path style="stroke:#000000;stroke-width:1.13 ;&st6;" d=" M   220.96,   357.59  L   220.96,   316.23  L   637.39,   316.23  L   637.39,   333.23  "/>
	</a>
	<a style="cursor:pointer;" ewd:lineID="7">
		<path style="stroke:#00A0C6;stroke-width:5.10 ;&st6;" d=" M   254.96,   552.21  L   254.96,   579.69  L   382.44,   579.69  L   382.44,   477.71  "/>
		<path style="stroke:#FFFFFF;stroke-width:2.27 ;&st6;" d=" M   254.96,   552.21  L   254.96,   579.69  L   382.44,   579.69  L   382.44,   477.71  "/>
		<path style="stroke:#FF7F00;stroke-width:1.13 ;&st6;" d=" M   254.96,   552.21  L   254.96,   579.69  L   382.44,   579.69  L   382.44,   477.71  "/>
	</a>
	<a style="cursor:pointer;" ewd:lineID="8">
		<path style="stroke:#00A0C6;stroke-width:5.10 ;&st6;" d=" M   254.96,   495.84  L   254.96,   537.20  "/>
		<path style="stroke:#FFFFFF;stroke-width:2.27 ;&st6;" d=" M   254.96,   495.84  L   254.96,   537.20  "/>
		<path style="stroke:#FF7F00;stroke-width:1.13 ;&st6;" d=" M   254.96,   495.84  L   254.96,   537.20  "/>
	</a>
	<a style="cursor:pointer;" ewd:lineID="9">
		<path style="stroke:#00A0C6;stroke-width:5.10 ;&st6;" d=" M   382.44,   426.71  L   382.44,   273.74  L   594.90,   273.74  "/>
	</a>
	<a style="cursor:pointer;" ewd:lineID="10">
		<path style="stroke:#00A0C6;stroke-width:5.10 ;&st6;" d=" M   603.40,   418.22  L   603.40,   282.24  "/>
	</a>
	<a style="cursor:pointer;" ewd:lineID="11">
		<path style="stroke:#00A0C6;stroke-width:5.10 ;&st6;" d=" M   603.40,   265.24  L   603.40,   237.48  "/>
	</a>
	<a style="cursor:pointer;" ewd:lineID="12">
		<path style="stroke:#00A0C6;stroke-width:5.10 ;&st6;" d=" M   603.40,   222.75  L   603.40,   180.82  "/>
	</a>
	<a style="cursor:pointer;" ewd:lineID="13">
		<path style="stroke:#00A0C6;stroke-width:5.10 ;&st6;" d=" M   603.40,   145.69  L   603.40,   103.77  "/>
	</a>
	<a style="cursor:pointer;" ewd:lineID="14">
		<path style="stroke:#00A0C6;stroke-width:5.10 ;&st6;" d=" M   603.40,   103.77  L   603.40,   112.27  L   611.90,   120.77  L   662.89,   120.77  L   662.89,   154.76  "/>
	</a>
	<a style="cursor:pointer;" ewd:lineID="15">
		<path style="stroke:#7FC97F;stroke-width:5.10 ;&st6;" d=" M   637.39,   418.22  L   637.39,   348.24  "/>
		<path style="stroke:#FFFFFF;stroke-width:2.27 ;&st6;" d=" M   637.39,   418.22  L   637.39,   348.24  "/>
		<path style="stroke:#000000;stroke-width:1.13 ;&st6;" d=" M   637.39,   418.22  L   637.39,   348.24  "/>
	</a>
	<a style="cursor:pointer;" ewd:lineID="16">
		<path style="stroke:#00A0C6;stroke-width:5.10 ;&st6;" d=" M   662.89,   171.76  L   662.89,   205.75  L   611.90,   205.75  L   603.40,   214.25  L   603.40,   222.75  "/>
	</a>
	<a style="cursor:pointer;" ewd:lineID="17">
		<path style="stroke:#00A0C6;stroke-width:5.10 ;&st6;" d=" M   679.89,   418.22  L   679.89,   348.24  "/>
		<path style="stroke:#FFFFFF;stroke-width:1.13 ;&st6;" d=" M   679.89,   418.22  L   679.89,   348.24  "/>
	</a>
	<a style="cursor:pointer;" ewd:lineID="18">
		<path style="stroke:#00A0C6;stroke-width:5.10 ;&st6;" d=" M   713.88,   418.22  L   713.88,   290.74  L   866.86,   290.74  L   866.86,   326.71  "/>
		<path style="stroke:#FFFFFF;stroke-width:2.27 ;&st6;" d=" M   713.88,   418.22  L   713.88,   290.74  L   866.86,   290.74  L   866.86,   326.71  "/>
		<path style="stroke:#FFE600;stroke-width:1.13 ;&st6;" d=" M   713.88,   418.22  L   713.88,   290.74  L   866.86,   290.74  L   866.86,   326.71  "/>
	</a>
	<a style="cursor:pointer;" ewd:lineID="19">
		<path style="stroke:#000000;stroke-width:5.10 ;&st6;" d=" M   773.37,   648.24  L   773.37,   681.67  "/>
		<path style="stroke:#FFFFFF;stroke-width:4.53 ;&st6;" d=" M   773.37,   648.24  L   773.37,   681.67  "/>
		<path style="stroke:#000000;stroke-width:1.13 ;&st6;" d=" M   773.37,   648.24  L   773.37,   681.67  "/>
	</a>
	<a style="cursor:pointer;" ewd:lineID="20">
		<path style="stroke:#000000;stroke-width:5.10 ;&st6;" d=" M   773.37,   579.69  L   773.37,   613.12  "/>
		<path style="stroke:#FFFFFF;stroke-width:4.53 ;&st6;" d=" M   773.37,   579.69  L   773.37,   613.12  "/>
		<path style="stroke:#000000;stroke-width:1.13 ;&st6;" d=" M   773.37,   579.69  L   773.37,   613.12  "/>
	</a>
	<a style="cursor:pointer;" ewd:lineID="21">
		<path style="stroke:#000000;stroke-width:5.10 ;&st6;" d=" M   815.86,   528.70  L   773.37,   528.70  L   773.37,   564.96  "/>
		<path style="stroke:#FFFFFF;stroke-width:4.53 ;&st6;" d=" M   815.86,   528.70  L   773.37,   528.70  L   773.37,   564.96  "/>
		<path style="stroke:#000000;stroke-width:1.13 ;&st6;" d=" M   815.86,   528.70  L   773.37,   528.70  L   773.37,   564.96  "/>
	</a>
	<a style="cursor:pointer;" ewd:lineID="22">
		<path style="stroke:#000000;stroke-width:5.10 ;&st6;" d=" M   824.36,   639.18  L   824.36,   681.67  "/>
		<path style="stroke:#FFFFFF;stroke-width:4.53 ;&st6;" d=" M   824.36,   639.18  L   824.36,   681.67  "/>
		<path style="stroke:#000000;stroke-width:1.13 ;&st6;" d=" M   824.36,   639.18  L   824.36,   681.67  "/>
	</a>
	<a style="cursor:pointer;" ewd:lineID="23">
		<path style="stroke:#000000;stroke-width:5.10 ;&st6;" d=" M   824.36,   579.69  L   824.36,   622.18  "/>
		<path style="stroke:#FFFFFF;stroke-width:4.53 ;&st6;" d=" M   824.36,   579.69  L   824.36,   622.18  "/>
		<path style="stroke:#000000;stroke-width:1.13 ;&st6;" d=" M   824.36,   579.69  L   824.36,   622.18  "/>
	</a>
	<a style="cursor:pointer;" ewd:lineID="24">
		<path style="stroke:#000000;stroke-width:5.10 ;&st6;" d=" M   824.36,   564.96  L   824.36,   537.20  "/>
		<path style="stroke:#FFFFFF;stroke-width:4.53 ;&st6;" d=" M   824.36,   564.96  L   824.36,   537.20  "/>
		<path style="stroke:#000000;stroke-width:1.13 ;&st6;" d=" M   824.36,   564.96  L   824.36,   537.20  "/>
	</a>
	<a style="cursor:pointer;" ewd:lineID="25">
		<path style="stroke:#000000;stroke-width:5.10 ;&st6;" d=" M   824.36,   520.20  L   824.36,   492.44  "/>
		<path style="stroke:#FFFFFF;stroke-width:4.53 ;&st6;" d=" M   824.36,   520.20  L   824.36,   492.44  "/>
		<path style="stroke:#000000;stroke-width:1.13 ;&st6;" d=" M   824.36,   520.20  L   824.36,   492.44  "/>
	</a>
	<a style="cursor:pointer;" ewd:lineID="26">
		<path style="stroke:#000000;stroke-width:5.10 ;&st6;" d=" M   824.36,   477.71  L   824.36,   443.71  "/>
		<path style="stroke:#FFFFFF;stroke-width:4.53 ;&st6;" d=" M   824.36,   477.71  L   824.36,   443.71  "/>
		<path style="stroke:#000000;stroke-width:1.13 ;&st6;" d=" M   824.36,   477.71  L   824.36,   443.71  "/>
	</a>
	<a style="cursor:pointer;" ewd:lineID="27">
		<path style="stroke:#F668B2;stroke-width:5.10 ;&st6;" d=" M   824.36,   375.72  L   824.36,   341.73  "/>
	</a>
	<a style="cursor:pointer;" ewd:lineID="28">
		<path style="stroke:#7FC97F;stroke-width:5.10 ;&st6;" d=" M   824.36,   327.00  L   824.36,   307.73  L   756.37,   307.73  L   756.37,   418.22  "/>
	</a>
	<a style="cursor:pointer;" ewd:lineID="29">
		<path style="stroke:#FFE600;stroke-width:5.10 ;&st6;" d=" M   866.86,   375.72  L   866.86,   341.73  "/>
	</a>
	<a style="cursor:pointer;" ewd:lineID="30">
		<path style="stroke:#00A0C6;stroke-width:5.10 ;&st6;" d=" M   909.35,   375.72  L   909.35,   341.73  "/>
	</a>
	<a style="cursor:pointer;" ewd:lineID="31">
		<path style="stroke:#00A0C6;stroke-width:5.10 ;&st6;" d=" M   909.35,   327.00  L   909.35,   273.74  L   611.90,   273.74  "/>
	</a>
	<g ewd:figtype="conn" ewd:figID="1" ewd:code="I109">
		<path style="stroke-width:0.85 ;&st7;  " d=" M   603.40,   154.76  L   603.40,   171.76  "/>
		<path style="stroke-width:1.42 ;&st7;  " d=" M   594.90,   154.76  L   611.90,   154.76  L   611.90,   171.76  L   594.90,   171.76  L   594.90,   154.76  "/>
		<text style="&st18;" transform="matrix(&st16;  594.71  178.26 )">6</text>
		<text style="&st18;" transform="matrix(&st16;  601.21  178.26 )">B</text>
		<path style="stroke-width:1.42 ;&st7;   " d=" M   607.93,   176.29  C   607.93    173.79    605.90    171.76    603.40    171.76  "/>
		<path style="stroke-width:1.42 ;&st7;   " d=" M   603.40,   171.76  C   600.90    171.76    598.87    173.79    598.87    176.29  "/>
		<path style="stroke-width:1.42 ;&st7;   " d=" M   598.87,   176.29  C   598.87    178.79    600.90    180.82    603.40    180.82  "/>
		<path style="stroke-width:1.42 ;&st7;   " d=" M   603.40,   180.82  C   605.90    180.82    607.93    178.79    607.93    176.29  "/>
		<text style="&st18;" transform="matrix(&st16;  594.71  152.2 )">5</text>
		<text style="&st18;" transform="matrix(&st16;  601.21  152.2 )">B</text>
		<path style="stroke-width:1.42 ;&st7;   " d=" M   607.93,   150.23  C   607.93    147.72    605.90    145.69    603.40    145.69  "/>
		<path style="stroke-width:1.42 ;&st7;   " d=" M   603.40,   145.69  C   600.90    145.69    598.87    147.72    598.87    150.23  "/>
		<path style="stroke-width:1.42 ;&st7;   " d=" M   598.87,   150.23  C   598.87    152.73    600.90    154.76    603.40    154.76  "/>
		<path style="stroke-width:1.42 ;&st7;   " d=" M   603.40,   154.76  C   605.90    154.76    607.93    152.73    607.93    150.23  "/>
		<g ewd:figtype="title">
			<text style="&st18;" transform="matrix(&st17;  619.79  174.66 )">I109(B)</text>
			<text style="&st18;" transform="matrix(&st17;  626.62  174.66 )" ewd:textID="2">No. 13 <tspan x="0 " dy="6.0">Junction </tspan><tspan x="0 " dy="6.0">Connector</tspan></text>
		</g>
	</g>
	<g ewd:figtype="rb" ewd:figID="2" ewd:code="FUSE29">
		<path style="stroke-width:1.42 ;&st7;  " d=" M   605.52,    95.27  L   601.27,    95.27  "/>
		<path style="stroke-width:1.42 ;&st7;  " d=" M   605.52,   103.77  L   601.27,   103.77  "/>
		<path style="stroke-width:0.85 ;&st7;  " d=" M   603.40,    78.27  L   603.40,    95.27  "/>
		<path style="stroke-width:1.42 ;&st7;   " d=" M   601.27,    95.27  C   598.93     95.27    597.03     97.17    597.03     99.52  "/>
		<path style="stroke-width:1.42 ;&st7;   " d=" M   597.03,    99.52  C   597.03    101.87    598.93    103.77    601.27    103.77  "/>
		<path style="stroke-width:1.42 ;&st7;   " d=" M   605.52,   103.77  C   607.87    103.77    609.77    101.87    609.77     99.52  "/>
		<path style="stroke-width:1.42 ;&st7;   " d=" M   609.77,    99.52  C   609.77     97.17    607.87     95.27    605.52     95.27  "/>
		<path style="stroke-width:0.28 ;&st9;  " d=" M   603.40,    90.37  L   600.57,    87.54  L   600.57,    91.79  L   603.40,    94.62  L   606.23,    91.79  L   606.23,    87.54  L   603.40,    90.37  "/>
		<text style="&st18;" transform="matrix(&st16;  619.82  56.17 )">20A <tspan x="0 " dy="6.0">WIP</tspan></text>
		<text style="&st18;" transform="matrix(&st16;  601.6  101.49 )">2</text>
		<text style="&st18;" transform="matrix(&st16;  597.21  86.47 )">2</text>
		<text style="&st18;" transform="matrix(&st16;  598.19  32.08 )">(IG)</text>
		<path style="stroke-width:0.85 ;&st7;  " d=" M   603.40,    69.77  L   603.40,    78.27  "/>
		<path style="stroke-width:1.42 ;&st7;   " d=" M   603.40,    47.11  C   600.66     48.72    599.75     52.25    601.36     54.99  "/>
		<path style="stroke-width:1.42 ;&st7;   " d=" M   601.36,    54.99  C   601.88     55.87    602.52     56.51    603.40     57.03  "/>
		<path style="stroke-width:1.42 ;&st7;   " d=" M   603.40,    66.94  C   606.14     65.33    607.05     61.80    605.44     59.06  "/>
		<path style="stroke-width:1.42 ;&st7;   " d=" M   605.44,    59.06  C   604.92     58.18    604.28     57.55    603.40     57.03  "/>
		<path style="stroke-width:0.85 ;&st7;   " d=" M   604.82,    45.69  C   604.82     44.91    604.18     44.28    603.40     44.28  "/>
		<path style="stroke-width:0.85 ;&st7;   " d=" M   603.40,    44.28  C   602.62     44.28    601.98     44.91    601.98     45.69  "/>
		<path style="stroke-width:0.85 ;&st7;   " d=" M   601.98,    45.69  C   601.98     46.48    602.62     47.11    603.40     47.11  "/>
		<path style="stroke-width:0.85 ;&st7;   " d=" M   603.40,    47.11  C   604.18     47.11    604.82     46.48    604.82     45.69  "/>
		<path style="stroke-width:0.85 ;&st7;   " d=" M   604.82,    68.36  C   604.82     67.57    604.18     66.94    603.40     66.94  "/>
		<path style="stroke-width:0.85 ;&st7;   " d=" M   603.40,    66.94  C   602.62     66.94    601.98     67.57    601.98     68.36  "/>
		<path style="stroke-width:0.85 ;&st7;   " d=" M   601.98,    68.36  C   601.98     69.14    602.62     69.77    603.40     69.77  "/>
		<path style="stroke-width:0.85 ;&st7;   " d=" M   603.40,    69.77  C   604.18     69.77    604.82     69.14    604.82     68.36  "/>
		<path style="stroke-width:1.42 ;&st7;  " d=" M   590.65,    35.78  L   590.65,    78.27  L   616.15,    78.27  L   616.15,    35.78  L   590.65,    35.78  "/>
	</g>
	<g ewd:figtype="conn" ewd:figID="3" ewd:code="S9">
		<g ewd:lineID="10">
			<text style="&st18;" transform="matrix(&st16;  597.21  414.53 )">1</text>
			<text style="&st18;" transform="matrix(&st16;  601.21  425.85 )">B</text>
		</g>
		<g ewd:lineID="15">
			<text style="&st18;" transform="matrix(&st16;  631.21  414.53 )">6</text>
			<text style="&st18;" transform="matrix(&st16;  631.06  425.85 )">LSW</text>
		</g>
		<g ewd:lineID="17">
			<text style="&st18;" transform="matrix(&st16;  673.7  414.53 )">4</text>
			<text style="&st18;" transform="matrix(&st16;  675.91  425.85 )">C1</text>
		</g>
		<g ewd:lineID="18">
			<text style="&st18;" transform="matrix(&st16;  707.7  414.53 )">2</text>
			<text style="&st18;" transform="matrix(&st16;  708.05  425.85 )">+SM</text>
		</g>
		<g ewd:lineID="28">
			<text style="&st18;" transform="matrix(&st16;  750.19  414.53 )">3</text>
			<text style="&st18;" transform="matrix(&st16;  751.82  425.85 )">LM</text>
		</g>
		<path style="stroke-width:1.42 ;&st7;  " d=" M   586.40,   460.71  L   773.37,   460.71  L   773.37,   418.22  L   586.40,   418.22  L   586.40,   460.71  "/>
		<g ewd:figtype="title">
			<text style="&st18;" transform="matrix(&st16;  583.0  475.43 )" ewd:textID="7">Rear Wiper Relay Assembly</text>
			<text style="&st18;" transform="matrix(&st16;  582.99  468.6 )">S9</text>
		</g>
	</g>
	<g ewd:figtype="conn" ewd:figID="4" ewd:code="a1">
		<path style="stroke-width:1.42 ;&st7;  " d=" M   820.11,   412.55  L   828.61,   412.55  "/>
		<path style="stroke-width:1.42 ;&st7;  " d=" M   820.11,   408.58  L   820.11,   412.55  "/>
		<path style="stroke-width:1.42 ;&st7;  " d=" M   828.61,   412.55  L   828.61,   408.58  "/>
		<path style="stroke-width:1.42 ;&st7;  " d=" M   820.11,   389.89  L   828.61,   389.89  "/>
		<path style="stroke-width:1.42 ;&st7;  " d=" M   820.11,   393.85  L   820.11,   389.89  "/>
		<path style="stroke-width:1.42 ;&st7;  " d=" M   828.61,   389.89  L   828.61,   393.85  "/>
		<path style="stroke-width:1.42 ;&st7;  " d=" M   886.69,   409.43  L   868.27,   401.22  "/>
		<path style="stroke-width:1.42 ;&st7;   " d=" M   815.86,   401.22  C   815.86    405.91    819.67    409.72    824.36    409.72  "/>
		<path style="stroke-width:1.42 ;&st7;   " d=" M   824.36,   409.72  C   829.06    409.72    832.86    405.91    832.86    401.22  "/>
		<path style="stroke-width:1.42 ;&st7;   " d=" M   832.86,   401.22  C   832.86    396.52    829.06    392.72    824.36    392.72  "/>
		<path style="stroke-width:1.42 ;&st7;   " d=" M   824.36,   392.72  C   819.67    392.72    815.86    396.52    815.86    401.22  "/>
		<path style="stroke-width:0.85 ;&st7;   " d=" M   885.27,   409.72  C   885.27    408.93    884.63    408.30    883.85    408.30  "/>
		<path style="stroke-width:0.85 ;&st7;   " d=" M   883.85,   408.30  C   883.07    408.30    882.44    408.93    882.44    409.72  "/>
		<path style="stroke-width:0.85 ;&st7;   " d=" M   882.44,   409.72  C   882.44    410.50    883.07    411.13    883.85    411.13  "/>
		<path style="stroke-width:0.85 ;&st7;   " d=" M   883.85,   411.13  C   884.63    411.13    885.27    410.50    885.27    409.72  "/>
		<path style="stroke-width:0.85 ;&st7;   " d=" M   885.27,   392.72  C   885.27    391.94    884.63    391.30    883.85    391.30  "/>
		<path style="stroke-width:0.85 ;&st7;   " d=" M   883.85,   391.30  C   883.07    391.30    882.44    391.94    882.44    392.72  "/>
		<path style="stroke-width:0.85 ;&st7;   " d=" M   882.44,   392.72  C   882.44    393.50    883.07    394.14    883.85    394.14  "/>
		<path style="stroke-width:0.85 ;&st7;   " d=" M   883.85,   394.14  C   884.63    394.14    885.27    393.50    885.27    392.72  "/>
		<path style="stroke-width:0.85 ;&st7;   " d=" M   875.35,   404.33  C   877.99    401.81    878.16    397.68    875.73    394.95  "/>
		<path style="stroke-width:0.85 ;&st7;   " d=" M   868.27,   401.22  C   868.27    400.44    867.64    399.80    866.86    399.80  "/>
		<path style="stroke-width:0.85 ;&st7;   " d=" M   866.86,   399.80  C   866.07    399.80    865.44    400.44    865.44    401.22  "/>
		<path style="stroke-width:0.85 ;&st7;   " d=" M   865.44,   401.22  C   865.44    402.00    866.07    402.63    866.86    402.63  "/>
		<path style="stroke-width:0.85 ;&st7;   " d=" M   866.86,   402.63  C   867.64    402.63    868.27    402.00    868.27    401.22  "/>
		<path style="stroke-width:0.85 ;&st7;   " d=" M   872.10,   395.53  C   870.63    398.87    872.07    402.75    875.35    404.33  "/>
		<path style="stroke-width:0.85 ;&st7;   " d=" M   875.73,   394.95  C   874.87    394.06    873.45    394.03    872.56    394.89  "/>
		<path style="stroke-width:0.85 ;&st7;   " d=" M   872.56,   394.89  C   872.36    395.09    872.22    395.28    872.10    395.53  "/>
		<path style="stroke-width:0.85 ;&st7;   " d=" M   875.09,   398.18  C   875.09    397.79    874.77    397.47    874.38    397.47  "/>
		<path style="stroke-width:0.85 ;&st7;   " d=" M   874.38,   397.47  C   873.99    397.47    873.67    397.79    873.67    398.18  "/>
		<path style="stroke-width:0.85 ;&st7;   " d=" M   873.67,   398.18  C   873.67    398.57    873.99    398.89    874.38    398.89  "/>
		<path style="stroke-width:0.85 ;&st7;   " d=" M   874.38,   398.89  C   874.77    398.89    875.09    398.57    875.09    398.18  "/>
		<path style="stroke-width:1.42 ;&st7;  " d=" M   807.36,   443.71  L   926.34,   443.71  L   926.34,   375.72  L   807.36,   375.72  L   807.36,   443.71  "/>
		<path style="stroke-width:0.85 ;&st7;  " d=" M   823.17,   425.71  L   822.90,   426.18  L   822.80,   426.71  L   822.90,   427.25  L   823.17,   427.72  L   823.58,   428.06  L   824.09,   428.25  L   824.63,   428.25  L   825.14,   428.06  L   825.55,   427.72  L   825.83,   427.25  L   825.92,   426.71  L   825.83,   426.18  L   825.55,   425.71  L   825.14,   425.37  L   824.63,   425.18  L   824.09,   425.18  L   823.58,   425.37  L   823.17,   425.71  L   823.56,   426.42  L   823.56,   427.01  L   823.94,   427.45  L   824.51,   427.55  L   825.01,   427.26  L   825.21,   426.71  L   825.01,   426.17  L   824.51,   425.88  L   823.94,   425.98  L   824.36,   426.71  "/>
		<path style="stroke-width:0.85 ;&st7;  " d=" M   866.85,   375.72  L   866.85,   399.80  "/>
		<path style="stroke-width:0.85 ;&st7;  " d=" M   824.36,   412.55  L   824.36,   443.71  "/>
		<path style="stroke-width:0.85 ;&st7;  " d=" M   824.36,   426.71  L   883.85,   426.71  L   883.85,   411.13  "/>
		<path style="stroke-width:0.85 ;&st7;  " d=" M   824.36,   375.72  L   824.36,   389.89  "/>
		<path style="stroke-width:0.85 ;&st7;  " d=" M   885.27,   392.72  L   909.35,   392.72  L   909.35,   375.72  "/>
		<text style="&st18;" transform="matrix(&st16;  821.63  403.19 )">M</text>
		<text style="&st18;" transform="matrix(&st16;  911.93  383.92 )">B</text>
		<text style="&st18;" transform="matrix(&st16;  826.95  440.02 )">E</text>
		<text style="&st18;" transform="matrix(&st16;  869.44  383.92 )">S</text>
		<text style="&st18;" transform="matrix(&st16;  826.95  383.92 )">+1</text>
		<text style="&st18;" transform="matrix(&st16;  818.18  451.9 )">2</text>
		<text style="&st18;" transform="matrix(&st16;  818.18  372.03 )">3</text>
		<text style="&st18;" transform="matrix(&st16;  860.67  372.03 )">4</text>
		<text style="&st18;" transform="matrix(&st16;  903.16  372.03 )">1</text>
		<g ewd:figtype="title">
			<text style="&st18;" transform="matrix(&st17;  941.06  446.62 )" ewd:textID="6">Rear Wiper Motor Assembly</text>
			<text style="&st18;" transform="matrix(&st17;  934.24  446.61 )">a1</text>
		</g>
	</g>
	<g ewd:figtype="conn" ewd:figID="5" ewd:code="I93">
		<path style="stroke-width:0.85 ;&st7;  " d=" M   773.37,   622.18  L   773.37,   639.18  "/>
		<path style="stroke-width:1.42 ;&st7;  " d=" M   764.87,   622.18  L   781.87,   622.18  L   781.87,   639.18  L   764.87,   639.18  L   764.87,   622.18  "/>
		<text style="&st18;" transform="matrix(&st16;  764.68  645.68 )">1</text>
		<text style="&st18;" transform="matrix(&st16;  771.07  645.68 )">A</text>
		<path style="stroke-width:1.42 ;&st7;   " d=" M   777.90,   643.71  C   777.90    641.21    775.87    639.18    773.37    639.18  "/>
		<path style="stroke-width:1.42 ;&st7;   " d=" M   773.37,   639.18  C   770.87    639.18    768.84    641.21    768.84    643.71  "/>
		<path style="stroke-width:1.42 ;&st7;   " d=" M   768.84,   643.71  C   768.84    646.21    770.87    648.24    773.37    648.24  "/>
		<path style="stroke-width:1.42 ;&st7;   " d=" M   773.37,   648.24  C   775.87    648.24    777.90    646.21    777.90    643.71  "/>
		<text style="&st18;" transform="matrix(&st16;  764.68  619.62 )">6</text>
		<text style="&st18;" transform="matrix(&st16;  771.07  619.62 )">A</text>
		<path style="stroke-width:1.42 ;&st7;   " d=" M   777.90,   617.65  C   777.90    615.15    775.87    613.12    773.37    613.12  "/>
		<path style="stroke-width:1.42 ;&st7;   " d=" M   773.37,   613.12  C   770.87    613.12    768.84    615.15    768.84    617.65  "/>
		<path style="stroke-width:1.42 ;&st7;   " d=" M   768.84,   617.65  C   768.84    620.15    770.87    622.18    773.37    622.18  "/>
		<path style="stroke-width:1.42 ;&st7;   " d=" M   773.37,   622.18  C   775.87    622.18    777.90    620.15    777.90    617.65  "/>
		<g ewd:figtype="title">
			<text style="&st18;" transform="matrix(&st17;  789.76  642.08 )">I93(A)</text>
			<text style="&st18;" transform="matrix(&st17;  796.59  642.08 )" ewd:textID="1">No. 5 Junction <tspan x="0 " dy="6.0">Connector</tspan></text>
		</g>
	</g>
	<g ewd:figtype="conn" ewd:figID="6" ewd:code="S11">
		<path style="stroke-width:1.42 ;&st7;  " d=" M   378.19,   463.54  L   386.69,   463.54  "/>
		<path style="stroke-width:1.42 ;&st7;  " d=" M   378.19,   459.58  L   378.19,   463.54  "/>
		<path style="stroke-width:1.42 ;&st7;  " d=" M   386.69,   463.54  L   386.69,   459.58  "/>
		<path style="stroke-width:1.42 ;&st7;  " d=" M   378.19,   440.88  L   386.69,   440.88  "/>
		<path style="stroke-width:1.42 ;&st7;  " d=" M   378.19,   444.84  L   378.19,   440.88  "/>
		<path style="stroke-width:1.42 ;&st7;  " d=" M   386.69,   440.88  L   386.69,   444.84  "/>
		<path style="stroke-width:1.42 ;&st7;   " d=" M   373.94,   452.21  C   373.94    456.90    377.74    460.71    382.44    460.71  "/>
		<path style="stroke-width:1.42 ;&st7;   " d=" M   382.44,   460.71  C   387.13    460.71    390.93    456.90    390.93    452.21  "/>
		<path style="stroke-width:1.42 ;&st7;   " d=" M   390.93,   452.21  C   390.93    447.52    387.13    443.71    382.44    443.71  "/>
		<path style="stroke-width:1.42 ;&st7;   " d=" M   382.44,   443.71  C   377.74    443.71    373.94    447.52    373.94    452.21  "/>
		<path style="stroke-width:0.85 ;&st7;  " d=" M   382.44,   426.71  L   382.44,   440.88  "/>
		<path style="stroke-width:0.85 ;&st7;  " d=" M   382.44,   477.71  L   382.44,   463.54  "/>
		<path style="stroke-width:1.42 ;&st7;  " d=" M   365.44,   477.71  L   407.93,   477.71  L   407.93,   426.71  L   365.44,   426.71  L   365.44,   477.71  "/>
		<text style="&st18;" transform="matrix(&st16;  385.02  434.91 )">B</text>
		<text style="&st18;" transform="matrix(&st16;  385.02  474.02 )">L</text>
		<text style="&st18;" transform="matrix(&st16;  379.71  454.18 )">M</text>
		<text style="&st18;" transform="matrix(&st16;  376.25  485.9 )">1</text>
		<text style="&st18;" transform="matrix(&st16;  376.25  423.02 )">2</text>
		<g ewd:figtype="title">
			<text style="&st18;" transform="matrix(&st17;  422.65  480.61 )" ewd:textID="5">Rear Washer Motor Assembly</text>
			<text style="&st18;" transform="matrix(&st17;  415.83  480.6 )">S11</text>
		</g>
	</g>
	<g ewd:figtype="conn" ewd:figID="7" ewd:code="L22,L23">
		<path style="stroke-width: 0.85 ;&st7; stroke-dasharray:3, 1.5;" d=" M   208.22,   362.12  L   195.47,   362.12  "/>
		<path style="stroke-width: 0.85 ;&st7; stroke-dasharray:3, 1.5;" d=" M   195.47,   371.19  L   208.22,   371.19  "/>
		<path style="stroke-width:0.85 ;&st7;   " d=" M   154.39,   452.21  C   154.39    451.43    153.76    450.79    152.97    450.79  "/>
		<path style="stroke-width:0.85 ;&st7;   " d=" M   152.97,   450.79  C   152.19    450.79    151.56    451.43    151.56    452.21  "/>
		<path style="stroke-width:0.85 ;&st7;   " d=" M   151.56,   452.21  C   151.56    452.99    152.19    453.63    152.97    453.63  "/>
		<path style="stroke-width:0.85 ;&st7;   " d=" M   152.97,   453.63  C   153.76    453.63    154.39    452.99    154.39    452.21  "/>
		<path style="stroke-width:0.85 ;&st7;   " d=" M   222.38,   452.21  C   222.38    451.43    221.75    450.79    220.96    450.79  "/>
		<path style="stroke-width:0.85 ;&st7;   " d=" M   220.96,   450.79  C   220.18    450.79    219.55    451.43    219.55    452.21  "/>
		<path style="stroke-width:0.85 ;&st7;   " d=" M   219.55,   452.21  C   219.55    452.99    220.18    453.63    220.96    453.63  "/>
		<path style="stroke-width:0.85 ;&st7;   " d=" M   220.96,   453.63  C   221.75    453.63    222.38    452.99    222.38    452.21  "/>
		<path style="stroke-width:0.85 ;&st7;   " d=" M   154.39,   401.22  C   154.39    400.44    153.76    399.80    152.97    399.80  "/>
		<path style="stroke-width:0.85 ;&st7;   " d=" M   152.97,   399.80  C   152.19    399.80    151.56    400.44    151.56    401.22  "/>
		<path style="stroke-width:0.85 ;&st7;   " d=" M   151.56,   401.22  C   151.56    402.00    152.19    402.63    152.97    402.63  "/>
		<path style="stroke-width:0.85 ;&st7;   " d=" M   152.97,   402.63  C   153.76    402.63    154.39    402.00    154.39    401.22  "/>
		<path style="stroke-width:0.85 ;&st7;   " d=" M   256.37,   401.22  C   256.37    400.44    255.74    399.80    254.96    399.80  "/>
		<path style="stroke-width:0.85 ;&st7;   " d=" M   254.96,   399.80  C   254.18    399.80    253.54    400.44    253.54    401.22  "/>
		<path style="stroke-width:0.85 ;&st7;   " d=" M   253.54,   401.22  C   253.54    402.00    254.18    402.63    254.96    402.63  "/>
		<path style="stroke-width:0.85 ;&st7;   " d=" M   254.96,   402.63  C   255.74    402.63    256.37    402.00    256.37    401.22  "/>
		<path style="stroke-width:0.85 ;&st7;   " d=" M   256.37,   469.21  C   256.37    468.42    255.74    467.79    254.96    467.79  "/>
		<path style="stroke-width:0.85 ;&st7;   " d=" M   254.96,   467.79  C   254.18    467.79    253.54    468.42    253.54    469.21  "/>
		<path style="stroke-width:0.85 ;&st7;   " d=" M   253.54,   469.21  C   253.54    469.99    254.18    470.62    254.96    470.62  "/>
		<path style="stroke-width:0.85 ;&st7;   " d=" M   254.96,   470.62  C   255.74    470.62    256.37    469.99    256.37    469.21  "/>
		<path style="stroke-width:0.85 ;&st7;   " d=" M   222.38,   469.21  C   222.38    468.42    221.75    467.79    220.96    467.79  "/>
		<path style="stroke-width:0.85 ;&st7;   " d=" M   220.96,   467.79  C   220.18    467.79    219.55    468.42    219.55    469.21  "/>
		<path style="stroke-width:0.85 ;&st7;   " d=" M   219.55,   469.21  C   219.55    469.99    220.18    470.62    220.96    470.62  "/>
		<path style="stroke-width:0.85 ;&st7;   " d=" M   220.96,   470.62  C   221.75    470.62    222.38    469.99    222.38    469.21  "/>
		<path style="stroke-width:0.85 ;&st7;   " d=" M   154.39,   469.21  C   154.39    468.42    153.76    467.79    152.97    467.79  "/>
		<path style="stroke-width:0.85 ;&st7;   " d=" M   152.97,   467.79  C   152.19    467.79    151.56    468.42    151.56    469.21  "/>
		<path style="stroke-width:0.85 ;&st7;   " d=" M   151.56,   469.21  C   151.56    469.99    152.19    470.62    152.97    470.62  "/>
		<path style="stroke-width:0.85 ;&st7;   " d=" M   152.97,   470.62  C   153.76    470.62    154.39    469.99    154.39    469.21  "/>
		<path style="stroke-width:0.85 ;&st7;   " d=" M   154.39,   435.21  C   154.39    434.43    153.76    433.80    152.97    433.80  "/>
		<path style="stroke-width:0.85 ;&st7;   " d=" M   152.97,   433.80  C   152.19    433.80    151.56    434.43    151.56    435.21  "/>
		<path style="stroke-width:0.85 ;&st7;   " d=" M   151.56,   435.21  C   151.56    435.99    152.19    436.63    152.97    436.63  "/>
		<path style="stroke-width:0.85 ;&st7;   " d=" M   152.97,   436.63  C   153.76    436.63    154.39    435.99    154.39    435.21  "/>
		<path style="stroke-width:0.85 ;&st7;   " d=" M   188.39,   435.21  C   188.39    434.43    187.75    433.80    186.97    433.80  "/>
		<path style="stroke-width:0.85 ;&st7;   " d=" M   186.97,   433.80  C   186.19    433.80    185.55    434.43    185.55    435.21  "/>
		<path style="stroke-width:0.85 ;&st7;   " d=" M   185.55,   435.21  C   185.55    435.99    186.19    436.63    186.97    436.63  "/>
		<path style="stroke-width:0.85 ;&st7;   " d=" M   186.97,   436.63  C   187.75    436.63    188.39    435.99    188.39    435.21  "/>
		<path style="stroke-width:0.85 ;&st7;  " d=" M   203.97,   375.72  L   203.97,   477.71  "/>
		<path style="stroke-width:0.85 ;&st7;  " d=" M   169.97,   375.72  L   169.97,   477.71  "/>
		<path style="stroke-width:1.42 ;&st7;  " d=" M    84.99,   375.72  L    84.99,   477.71  L   271.95,   477.71  L   271.95,   375.72  L    84.99,   375.72  "/>
		<path style="stroke-width:0.85 ;&st7;  " d=" M   154.39,   452.21  L   219.55,   452.21  "/>
		<path style="stroke-width:0.85 ;&st7;  " d=" M   135.98,   375.72  L   135.98,   477.71  "/>
		<path style="stroke-width:0.85 ;&st7;  " d=" M    84.99,   460.71  L   271.95,   460.71  "/>
		<path style="stroke-width:0.85 ;&st7;  " d=" M    84.99,   443.71  L   271.95,   443.71  "/>
		<path style="stroke-width:0.85 ;&st7;  " d=" M    84.99,   409.72  L   271.95,   409.72  "/>
		<path style="stroke-width:0.85 ;&st7;  " d=" M    84.99,   392.72  L   271.95,   392.72  "/>
		<path style="stroke-width:0.85 ;&st7;  " d=" M   237.96,   375.72  L   237.96,   477.71  "/>
		<path style="stroke-width:0.85 ;&st7;  " d=" M   154.39,   401.22  L   253.54,   401.22  "/>
		<path style="stroke-width:0.85 ;&st7;  " d=" M   222.38,   469.21  L   253.54,   469.21  "/>
		<path style="stroke-width:0.85 ;&st7;  " d=" M    84.99,   426.71  L   271.95,   426.71  "/>
		<path style="stroke-width:0.85 ;&st7;  " d=" M   154.39,   469.21  L   219.55,   469.21  "/>
		<path style="stroke-width:0.85 ;&st7;  " d=" M   154.39,   435.21  L   185.55,   435.21  "/>
		<text style="&st18;" transform="matrix(&st16;  250.13  386.19 )">WR</text>
		<text style="&st18;" transform="matrix(&st16;  215.75  386.19 )">+1R</text>
		<text style="&st18;" transform="matrix(&st16;  181.14  386.19 )">C1R</text>
		<text style="&st18;" transform="matrix(&st16;  148.15  386.19 )">EW</text>
		<text style="&st18;" transform="matrix(&st16;  100.69  403.19 )" ewd:textID="8">Washer</text>
		<text style="&st18;" transform="matrix(&st16;  106.04  437.18 )">LO</text>
		<text style="&st18;" transform="matrix(&st16;  95.23  471.18 )" ewd:textID="4">On+Washer</text>
		<text style="&st18;" transform="matrix(&st16;  107.09  454.18 )">HI</text>
		<text style="&st18;" transform="matrix(&st16;  104.14  420.18 )">OFF</text>
		<text style="&st18;" transform="matrix(&st16;  144.28  484.21 )">2</text>
		<text style="&st18;" transform="matrix(&st16;  150.67  484.21 )">A</text>
		<path style="stroke-width:1.42 ;&st7;   " d=" M   157.51,   482.24  C   157.51    479.73    155.48    477.71    152.97    477.71  "/>
		<path style="stroke-width:1.42 ;&st7;   " d=" M   152.97,   477.71  C   150.47    477.71    148.44    479.73    148.44    482.24  "/>
		<path style="stroke-width:1.42 ;&st7;   " d=" M   148.44,   482.24  C   148.44    484.74    150.47    486.77    152.97    486.77  "/>
		<path style="stroke-width:1.42 ;&st7;   " d=" M   152.97,   486.77  C   155.48    486.77    157.51    484.74    157.51    482.24  "/>
		<text style="&st18;" transform="matrix(&st16;  178.27  373.16 )">5</text>
		<text style="&st18;" transform="matrix(&st16;  178.27  364.09 )">6</text>
		<path style="stroke-width:1.42 ;&st7;   " d=" M   191.50,   371.19  C   191.50    368.69    189.47    366.66    186.97    366.66  "/>
		<path style="stroke-width:1.42 ;&st7;   " d=" M   186.97,   366.66  C   184.47    366.66    182.44    368.69    182.44    371.19  "/>
		<path style="stroke-width:1.42 ;&st7;   " d=" M   182.44,   371.19  C   182.44    373.69    184.47    375.72    186.97    375.72  "/>
		<path style="stroke-width:1.42 ;&st7;   " d=" M   186.97,   375.72  C   189.47    375.72    191.50    373.69    191.50    371.19  "/>
		<path style="stroke-width:1.42 ;&st7;   " d=" M   191.50,   362.12  C   191.50    359.62    189.47    357.59    186.97    357.59  "/>
		<path style="stroke-width:1.42 ;&st7;   " d=" M   186.97,   357.59  C   184.47    357.59    182.44    359.62    182.44    362.12  "/>
		<path style="stroke-width:1.42 ;&st7;   " d=" M   182.44,   362.12  C   182.44    364.63    184.47    366.66    186.97    366.66  "/>
		<path style="stroke-width:1.42 ;&st7;   " d=" M   186.97,   366.66  C   189.47    366.66    191.50    364.63    191.50    362.12  "/>
		<text style="&st18;" transform="matrix(&st16;  184.66  364.09 )">A</text>
		<text style="&st18;" transform="matrix(&st16;  184.66  373.16 )">A</text>
		<text style="&st18;" transform="matrix(&st16;  212.27  373.16 )">4</text>
		<text style="&st18;" transform="matrix(&st16;  212.27  364.09 )">7</text>
		<text style="&st18;" transform="matrix(&st16;  218.66  373.16 )">A</text>
		<text style="&st18;" transform="matrix(&st16;  218.66  364.09 )">A</text>
		<path style="stroke-width:1.42 ;&st7;   " d=" M   225.50,   362.12  C   225.50    359.62    223.47    357.59    220.96    357.59  "/>
		<path style="stroke-width:1.42 ;&st7;   " d=" M   220.96,   357.59  C   218.46    357.59    216.43    359.62    216.43    362.12  "/>
		<path style="stroke-width:1.42 ;&st7;   " d=" M   216.43,   362.12  C   216.43    364.63    218.46    366.66    220.96    366.66  "/>
		<path style="stroke-width:1.42 ;&st7;   " d=" M   220.96,   366.66  C   223.47    366.66    225.50    364.63    225.50    362.12  "/>
		<path style="stroke-width:1.42 ;&st7;   " d=" M   225.50,   371.19  C   225.50    368.69    223.47    366.66    220.96    366.66  "/>
		<path style="stroke-width:1.42 ;&st7;   " d=" M   220.96,   366.66  C   218.46    366.66    216.43    368.69    216.43    371.19  "/>
		<path style="stroke-width:1.42 ;&st7;   " d=" M   216.43,   371.19  C   216.43    373.69    218.46    375.72    220.96    375.72  "/>
		<path style="stroke-width:1.42 ;&st7;   " d=" M   220.96,   375.72  C   223.47    375.72    225.50    373.69    225.50    371.19  "/>
		<text style="&st18;" transform="matrix(&st16;  243.16  493.27 )">10</text>
		<text style="&st18;" transform="matrix(&st16;  246.26  484.21 )">5</text>
		<path style="stroke-width:1.42 ;&st7;   " d=" M   259.49,   482.24  C   259.49    479.73    257.46    477.71    254.96    477.71  "/>
		<path style="stroke-width:1.42 ;&st7;   " d=" M   254.96,   477.71  C   252.45    477.71    250.42    479.73    250.42    482.24  "/>
		<path style="stroke-width:1.42 ;&st7;   " d=" M   250.42,   482.24  C   250.42    484.74    252.45    486.77    254.96    486.77  "/>
		<path style="stroke-width:1.42 ;&st7;   " d=" M   254.96,   486.77  C   257.46    486.77    259.49    484.74    259.49    482.24  "/>
		<path style="stroke-width:1.42 ;&st7;   " d=" M   259.49,   491.30  C   259.49    488.80    257.46    486.77    254.96    486.77  "/>
		<path style="stroke-width:1.42 ;&st7;   " d=" M   254.96,   486.77  C   252.45    486.77    250.42    488.80    250.42    491.30  "/>
		<path style="stroke-width:1.42 ;&st7;   " d=" M   250.42,   491.30  C   250.42    493.81    252.45    495.84    254.96    495.84  "/>
		<path style="stroke-width:1.42 ;&st7;   " d=" M   254.96,   495.84  C   257.46    495.84    259.49    493.81    259.49    491.30  "/>
		<text style="&st18;" transform="matrix(&st16;  252.77  493.27 )">B</text>
		<text style="&st18;" transform="matrix(&st16;  252.77  484.21 )">B</text>
		<g ewd:figtype="title">
			<text style="&st18;" transform="matrix(&st17;  279.85  472.11 )">L22(A),L23(B)</text>
			<text style="&st18;" transform="matrix(&st17;  286.67  472.11 )" ewd:textID="9">Windshield Wiper Switch Assembly</text>
		</g>
		<g ewd:code="" ewd:figID="30" ewd:comment="" ewd:figtype="commref">
			<text style="&st18;" transform="matrix(&st16;  226.06  373.16 )">(RHD)</text>
		</g>
		<g ewd:code="" ewd:figID="31" ewd:comment="" ewd:figtype="commref">
			<text style="&st18;" transform="matrix(&st16;  226.06  364.09 )">(LHD)</text>
		</g>
		<g ewd:code="" ewd:figID="32" ewd:comment="" ewd:figtype="commref">
			<text style="&st18;" transform="matrix(&st16;  260.05  484.21 )">(LHD)</text>
		</g>
		<g ewd:code="" ewd:figID="33" ewd:comment="" ewd:figtype="commref">
			<text style="&st18;" transform="matrix(&st16;  260.05  493.27 )">(RHD)</text>
		</g>
	</g>
	<g ewd:figtype="conn" ewd:figID="8" ewd:code="L53">
		<path style="stroke-width:0.85 ;&st7;  " d=" M   151.78,   595.68  L   151.51,   596.15  L   151.42,   596.69  L   151.51,   597.22  L   151.78,   597.69  L   152.20,   598.03  L   152.70,   598.22  L   153.25,   598.22  L   153.75,   598.03  L   154.17,   597.69  L   154.44,   597.22  L   154.53,   596.69  L   154.44,   596.15  L   154.17,   595.68  L   153.75,   595.34  L   153.25,   595.15  L   152.70,   595.15  L   152.20,   595.34  L   151.78,   595.68  L   152.18,   596.39  L   152.18,   596.98  L   152.55,   597.42  L   153.12,   597.52  L   153.63,   597.23  L   153.82,   596.69  L   153.63,   596.14  L   153.12,   595.85  L   152.55,   595.95  L   152.97,   596.69  "/>
		<path style="stroke-width:0.85 ;&st7;  " d=" M   152.97,   596.69  L   144.48,   596.69  "/>
		<path style="stroke-width:1.42 ;&st7;  " d=" M   144.48,   588.19  L   161.47,   588.19  L   161.47,   605.18  L   144.48,   605.18  L   144.48,   588.19  "/>
		<path style="stroke-width:0.85 ;&st7;  " d=" M   152.97,   588.19  L   152.97,   605.18  "/>
		<text style="&st18;" transform="matrix(&st16;  138.29  593.0 )">5</text>
		<text style="&st18;" transform="matrix(&st16;  146.79  613.38 )">4</text>
		<text style="&st18;" transform="matrix(&st16;  143.69  584.5 )">13</text>
		<g ewd:figtype="title">
			<text style="&st18;" transform="matrix(&st17;  176.19  608.09 )" ewd:textID="3">No. 31 Junction <tspan x="0 " dy="6.0">Connector</tspan></text>
			<text style="&st18;" transform="matrix(&st17;  169.37  608.08 )">L53</text>
		</g>
	</g>
	<g ewd:figtype="w2w" ewd:figID="10" ewd:code="LS2">
		<path style="stroke-width:1.42 ;&st7;  " d=" M   259.21,   554.76  L   254.96,   550.51  L   250.71,   554.76  "/>
		<path style="stroke-width:1.42 ;&st7;  " d=" M   259.21,   551.36  L   254.96,   547.11  L   250.71,   551.36  "/>
		<text style="&st18;" transform="matrix(&st16;  239.22  543.41 )">11</text>
	</g>
	<g ewd:figtype="w2w" ewd:figID="11" ewd:code="IS2">
		<path style="stroke-width:1.42 ;&st7;  " d=" M   607.65,   240.31  L   603.40,   236.06  L   599.15,   240.31  "/>
		<path style="stroke-width:1.42 ;&st7;  " d=" M   607.65,   236.91  L   603.40,   232.66  L   599.15,   236.91  "/>
		<text style="&st18;" transform="matrix(&st16;  587.67  228.97 )">11</text>
	</g>
	<g ewd:figtype="w2w" ewd:figID="12" ewd:code="LS2">
		<path style="stroke-width:1.42 ;&st7;  " d=" M   641.64,   350.79  L   637.39,   346.54  L   633.14,   350.79  "/>
		<path style="stroke-width:1.42 ;&st7;  " d=" M   641.64,   347.39  L   637.39,   343.14  L   633.14,   347.39  "/>
		<text style="&st18;" transform="matrix(&st16;  624.76  339.45 )">7</text>
	</g>
	<g ewd:figtype="w2w" ewd:figID="13" ewd:code="LS2">
		<path style="stroke-width:1.42 ;&st7;  " d=" M   684.14,   350.79  L   679.89,   346.54  L   675.64,   350.79  "/>
		<path style="stroke-width:1.42 ;&st7;  " d=" M   684.14,   347.39  L   679.89,   343.14  L   675.64,   347.39  "/>
		<text style="&st18;" transform="matrix(&st16;  667.25  339.45 )">3</text>
	</g>
	<g ewd:figtype="w2w" ewd:figID="14" ewd:code="IS3">
		<path style="stroke-width:1.42 ;&st7;  " d=" M   777.62,   565.52  L   773.37,   569.77  L   769.12,   565.52  "/>
		<path style="stroke-width:1.42 ;&st7;  " d=" M   769.12,   562.12  L   773.37,   566.37  L   777.62,   562.12  "/>
		<text style="&st18;" transform="matrix(&st16;  757.64  577.41 )">12</text>
	</g>
	<g ewd:figtype="w2w" ewd:figID="15" ewd:code="TS2">
		<path style="stroke-width:1.42 ;&st7;  " d=" M   820.11,   562.12  L   824.36,   566.37  L   828.61,   562.12  "/>
		<path style="stroke-width:1.42 ;&st7;  " d=" M   828.61,   565.52  L   824.36,   569.77  L   820.11,   565.52  "/>
		<text style="&st18;" transform="matrix(&st16;  808.63  577.41 )">13</text>
	</g>
	<g ewd:figtype="w2w" ewd:figID="16" ewd:code="aS1">
		<path style="stroke-width:1.42 ;&st7;  " d=" M   828.61,   495.27  L   824.36,   491.02  L   820.11,   495.27  "/>
		<path style="stroke-width:1.42 ;&st7;  " d=" M   828.61,   491.87  L   824.36,   487.62  L   820.11,   491.87  "/>
		<text style="&st18;" transform="matrix(&st16;  811.73  483.92 )">4</text>
	</g>
	<g ewd:figtype="w2w" ewd:figID="17" ewd:code="aS1">
		<path style="stroke-width:1.42 ;&st7;  " d=" M   828.61,   327.56  L   824.36,   331.81  L   820.11,   327.56  "/>
		<path style="stroke-width:1.42 ;&st7;  " d=" M   820.11,   324.16  L   824.36,   328.41  L   828.61,   324.16  "/>
		<text style="&st18;" transform="matrix(&st16;  811.73  339.45 )">1</text>
	</g>
	<g ewd:figtype="w2w" ewd:figID="18" ewd:code="aS1">
		<path style="stroke-width:1.42 ;&st7;  " d=" M   871.10,   327.56  L   866.85,   331.81  L   862.61,   327.56  "/>
		<path style="stroke-width:1.42 ;&st7;  " d=" M   862.61,   324.16  L   866.85,   328.41  L   871.10,   324.16  "/>
		<text style="&st18;" transform="matrix(&st16;  854.22  339.45 )">2</text>
	</g>
	<g ewd:figtype="w2w" ewd:figID="19" ewd:code="aS1">
		<path style="stroke-width:1.42 ;&st7;  " d=" M   913.60,   327.56  L   909.35,   331.81  L   905.10,   327.56  "/>
		<path style="stroke-width:1.42 ;&st7;  " d=" M   905.10,   324.16  L   909.35,   328.41  L   913.60,   324.16  "/>
		<text style="&st18;" transform="matrix(&st16;  896.72  339.45 )">3</text>
	</g>
	<g ewd:figtype="gp" ewd:figID="20" ewd:code="LB">
		<path style="stroke-width:0.85 ;&st7;  " d=" M   100.57,   710.00  L   103.40,   710.00  "/>
		<path style="stroke-width:0.85 ;&st7;  " d=" M    99.15,   707.17  L   104.82,   707.17  "/>
		<path style="stroke-width:0.85 ;&st7;  " d=" M    97.73,   704.33  L   106.23,   704.33  "/>
		<path style="stroke-width:0.85 ;&st7;  " d=" M    93.48,   701.50  L   110.48,   701.50  "/>
		<path style="stroke-width:0.85 ;&st7;  " d=" M   101.98,   697.25  L   101.98,   701.50  "/>
	</g>
	<g ewd:figtype="gp" ewd:figID="21" ewd:code="LA">
		<path style="stroke-width:0.85 ;&st7;  " d=" M   152.97,   697.25  L   152.97,   701.50  "/>
		<path style="stroke-width:0.85 ;&st7;  " d=" M   144.48,   701.50  L   161.47,   701.50  "/>
		<path style="stroke-width:0.85 ;&st7;  " d=" M   148.73,   704.33  L   157.22,   704.33  "/>
		<path style="stroke-width:0.85 ;&st7;  " d=" M   150.14,   707.17  L   155.81,   707.17  "/>
		<path style="stroke-width:0.85 ;&st7;  " d=" M   151.56,   710.00  L   154.39,   710.00  "/>
	</g>
	<g ewd:figtype="gp" ewd:figID="22" ewd:code="IA">
		<path style="stroke-width:0.85 ;&st7;  " d=" M   771.95,   710.00  L   774.79,   710.00  "/>
		<path style="stroke-width:0.85 ;&st7;  " d=" M   770.54,   707.17  L   776.20,   707.17  "/>
		<path style="stroke-width:0.85 ;&st7;  " d=" M   769.12,   704.33  L   777.62,   704.33  "/>
		<path style="stroke-width:0.85 ;&st7;  " d=" M   764.87,   701.50  L   781.87,   701.50  "/>
		<path style="stroke-width:0.85 ;&st7;  " d=" M   773.37,   697.25  L   773.37,   701.50  "/>
	</g>
	<g ewd:figtype="gp" ewd:figID="23" ewd:code="TA">
		<path style="stroke-width:0.85 ;&st7;  " d=" M   824.36,   697.25  L   824.36,   701.50  "/>
		<path style="stroke-width:0.85 ;&st7;  " d=" M   815.86,   701.50  L   832.86,   701.50  "/>
		<path style="stroke-width:0.85 ;&st7;  " d=" M   820.11,   704.33  L   828.61,   704.33  "/>
		<path style="stroke-width:0.85 ;&st7;  " d=" M   821.53,   707.17  L   827.19,   707.17  "/>
		<path style="stroke-width:0.85 ;&st7;  " d=" M   822.95,   710.00  L   825.78,   710.00  "/>
	</g>
	<path style="stroke-width:1.42 ;&st7;  " d=" M   815.86,   634.21  L   820.83,   639.18  "/>
	<path style="stroke-width:1.42 ;&st7;  " d=" M   827.89,   639.18  L   832.86,   634.21  "/>
	<path style="stroke-width:1.42 ;&st7;  " d=" M   820.83,   622.18  L   815.86,   627.15  "/>
	<path style="stroke-width:1.42 ;&st7;  " d=" M   820.83,   520.20  L   815.86,   525.17  "/>
	<path style="stroke-width:1.42 ;&st7;  " d=" M   827.89,   537.20  L   832.86,   532.23  "/>
	<path style="stroke-width:1.42 ;&st7;  " d=" M   815.86,   532.23  L   820.83,   537.20  "/>
	<path style="stroke-width:1.42 ;&st7;  " d=" M   832.86,   525.17  L   827.89,   520.20  "/>
	<path style="stroke-width:1.42 ;&st7;  " d=" M   149.44,   520.20  L   144.48,   525.17  "/>
	<path style="stroke-width:1.42 ;&st7;  " d=" M   156.50,   537.20  L   161.47,   532.23  "/>
	<path style="stroke-width:1.42 ;&st7;  " d=" M   144.48,   532.23  L   149.44,   537.20  "/>
	<path style="stroke-width:1.42 ;&st7;  " d=" M   161.47,   525.17  L   156.50,   520.20  "/>
	<path style="stroke-width:1.42 ;&st7;  " d=" M   599.87,   265.24  L   594.90,   270.21  "/>
	<path style="stroke-width:1.42 ;&st7;  " d=" M   606.93,   282.24  L   611.90,   277.27  "/>
	<path style="stroke-width:1.42 ;&st7;  " d=" M   594.90,   277.27  L   599.87,   282.24  "/>
	<path style="stroke-width:1.42 ;&st7;  " d=" M   611.90,   270.21  L   606.93,   265.24  "/>
	<path style="stroke-width:1.42 ;&st7;  " d=" M   659.36,   154.76  L   654.39,   159.73  "/>
	<path style="stroke-width:1.42 ;&st7;  " d=" M   666.42,   171.76  L   671.39,   166.79  "/>
	<path style="stroke-width:1.42 ;&st7;  " d=" M   654.39,   166.79  L   659.36,   171.76  "/>
	<path style="stroke-width:1.42 ;&st7;  " d=" M   671.39,   159.73  L   666.42,   154.76  "/>
	<path style="stroke-width:1.42 ;&st7;  " d=" M   832.86,   486.20  L   824.36,   486.20  "/>
	<path style="stroke-width:1.42 ;&st7;  " d=" M   815.86,   571.19  L   824.36,   571.19  "/>
	<path style="stroke-width:1.42 ;&st7;  " d=" M   688.38,   341.73  L   679.89,   341.73  "/>
	<path style="stroke-width:1.42 ;&st7;  " d=" M   645.89,   341.73  L   637.39,   341.73  "/>
	<path style="stroke-width:1.42 ;&st7;  " d=" M   611.90,   231.25  L   603.40,   231.25  "/>
	<path style="stroke-width:1.42 ;&st7;  " d=" M   900.85,   333.23  L   909.35,   333.23  "/>
	<path style="stroke-width:1.42 ;&st7;  " d=" M   858.36,   333.23  L   866.86,   333.23  "/>
	<path style="stroke-width:1.42 ;&st7;  " d=" M   815.86,   333.23  L   824.36,   333.23  "/>
	<path style="stroke-width:1.42 ;&st7;  " d=" M   263.46,   545.69  L   254.96,   545.69  "/>
	<path style="stroke-width:1.42 ;&st7;  " d=" M   764.87,   571.19  L   773.37,   571.19  "/>
	<path style="stroke-width:1.42 ;&st7;  " d=" M   832.86,   627.15  L   827.89,   622.18  "/>
	<text style="&st18;" transform="matrix(&st16;  792.41  525.0 )">W-B</text>
	<text style="&st18;" transform="matrix(&st17;  98.29  657.88 )">W-B</text>
	<text style="&st18;" transform="matrix(&st17;  769.68  666.38 )">W-B</text>
	<text style="&st18;" transform="matrix(&st17;  820.67  606.89 )">W-B</text>
	<text style="&st18;" transform="matrix(&st17;  820.67  513.4 )">W-B</text>
	<text style="&st18;" transform="matrix(&st17;  149.28  509.16 )">W-B</text>
	<text style="&st18;" transform="matrix(&st17;  670.53  141.33 )">(LHD)</text>
	<text style="&st18;" transform="matrix(&st17;  659.19  135.09 )">L</text>
	<text style="&st18;" transform="matrix(&st16;  652.32  270.04 )">L</text>
	<text style="&st18;" transform="matrix(&st17;  820.67  555.9 )">W-B</text>
	<text style="&st18;" transform="matrix(&st17;  820.67  666.38 )">W-B</text>
	<text style="&st18;" transform="matrix(&st17;  676.19  381.56 )">L-W</text>
	<text style="&st18;" transform="matrix(&st17;  633.7  382.99 )">LG-B</text>
	<text style="&st18;" transform="matrix(&st17;  599.7  377.3 )">L</text>
	<text style="&st18;" transform="matrix(&st17;  378.74  377.3 )">L</text>
	<text style="&st18;" transform="matrix(&st17;  599.7  254.07 )">L</text>
	<text style="&st18;" transform="matrix(&st17;  710.19  380.78 )">L-Y</text>
	<text style="&st18;" transform="matrix(&st17;  752.68  379.51 )">LG</text>
	<text style="&st18;" transform="matrix(&st17;  183.27  339.07 )">L-W</text>
	<text style="&st18;" transform="matrix(&st17;  217.27  340.5 )">LG-B</text>
	<text style="&st18;" transform="matrix(&st17;  769.68  606.89 )">W-B</text>
	<text style="&st18;" transform="matrix(&st17;  149.28  657.88 )">W-B</text>
	<text style="&st18;" transform="matrix(&st17;  149.28  560.15 )">W-B</text>
	<text style="&st18;" transform="matrix(&st17;  611.04  141.37 )">(RHD)</text>
	<text style="&st18;" transform="matrix(&st17;  599.7  135.09 )">L</text>
	<text style="&st18;" transform="matrix(&st17;  599.7  194.58 )">L</text>
	<text style="&st18;" transform="matrix(&st17;  820.67  470.91 )">W-B</text>
	<text style="&st18;" transform="matrix(&st17;  611.04  200.86 )">(RHD)</text>
	<text style="&st18;" transform="matrix(&st17;  670.53  200.82 )">(LHD)</text>
	<text style="&st18;" transform="matrix(&st17;  659.19  194.58 )">L</text>
	<text style="&st18;" transform="matrix(&st17;  905.65  356.05 )">L</text>
	<text style="&st18;" transform="matrix(&st17;  863.16  356.16 )">Y</text>
	<text style="&st18;" transform="matrix(&st17;  820.67  355.97 )">P</text>
	<text style="&st18;" transform="matrix(&st17;  251.26  517.19 )">L-O</text>
	<text style="&st18;" transform="matrix(&st17;  378.74  517.19 )">L-O</text>
	<text style="&st18;" transform="matrix(&st16;  541.84  270.04 )">L</text>
	<text style="&st18;" transform="matrix(&st16;  490.85  270.04 )">L</text>
	<text style="&st18;" transform="matrix(&st16;  537.57  295.54 )">L-W</text>
	<text style="&st18;" transform="matrix(&st16;  486.58  295.54 )">L-W</text>
	<text style="&st18;" transform="matrix(&st16;  536.14  312.54 )">LG-B</text>
	<text style="&st18;" transform="matrix(&st16;  485.15  312.54 )">LG-B</text>
	<a ewd:figtype="w2w" style="cursor:pointer;" ewd:pinNo="11" ewd:code="LS2" ewd:figID="10">
		<path style="&st2;" d=" M   263.46,   537.20  L   246.46,   537.20  L   246.46,   545.69  L   263.46,   545.69  L   263.46,   537.20 "/>
		<text style="&st8;" transform="matrix(&st16;  250.18  543.57 )"><tspan x="0" style="&st18;" y="0">LS2</tspan></text>
	</a>
	<a ewd:figtype="w2w" style="cursor:pointer;" ewd:pinNo="11" ewd:code="IS2" ewd:figID="11">
		<path style="&st2;" d=" M   611.90,   222.75  L   594.90,   222.75  L   594.90,   231.25  L   611.90,   231.25  L   611.90,   222.75 "/>
		<text style="&st8;" transform="matrix(&st16;  599.52  229.12 )"><tspan x="0" style="&st18;" y="0">IS2</tspan></text>
	</a>
	<a ewd:figtype="w2w" style="cursor:pointer;" ewd:pinNo="7" ewd:code="LS2" ewd:figID="12">
		<path style="&st2;" d=" M   645.89,   333.23  L   628.89,   333.23  L   628.89,   341.73  L   645.89,   341.73  L   645.89,   333.23 "/>
		<text style="&st8;" transform="matrix(&st16;  632.62  339.6 )"><tspan x="0" style="&st18;" y="0">LS2</tspan></text>
	</a>
	<a ewd:figtype="w2w" style="cursor:pointer;" ewd:pinNo="3" ewd:code="LS2" ewd:figID="13">
		<path style="&st2;" d=" M   688.38,   333.23  L   671.39,   333.23  L   671.39,   341.73  L   688.38,   341.73  L   688.38,   333.23 "/>
		<text style="&st8;" transform="matrix(&st16;  675.11  339.6 )"><tspan x="0" style="&st18;" y="0">LS2</tspan></text>
	</a>
	<a ewd:figtype="w2w" style="cursor:pointer;" ewd:pinNo="12" ewd:code="IS3" ewd:figID="14">
		<path style="&st2;" d=" M   781.87,   571.19  L   764.87,   571.19  L   764.87,   579.69  L   781.87,   579.69  L   781.87,   571.19 "/>
		<text style="&st8;" transform="matrix(&st16;  769.5  577.56 )"><tspan x="0" style="&st18;" y="0">IS3</tspan></text>
	</a>
	<a ewd:figtype="w2w" style="cursor:pointer;" ewd:pinNo="13" ewd:code="TS2" ewd:figID="15">
		<path style="&st2;" d=" M   832.86,   571.19  L   815.86,   571.19  L   815.86,   579.69  L   832.86,   579.69  L   832.86,   571.19 "/>
		<text style="&st8;" transform="matrix(&st16;  819.47  577.56 )"><tspan x="0" style="&st18;" y="0">TS2</tspan></text>
	</a>
	<a ewd:figtype="w2w" style="cursor:pointer;" ewd:pinNo="4" ewd:code="aS1" ewd:figID="16">
		<path style="&st2;" d=" M   832.86,   477.71  L   815.86,   477.71  L   815.86,   486.20  L   832.86,   486.20  L   832.86,   477.71 "/>
		<text style="&st8;" transform="matrix(&st16;  820.0  484.07 )"><tspan x="0" style="&st18;" y="0">aS1</tspan></text>
	</a>
	<a ewd:figtype="w2w" style="cursor:pointer;" ewd:pinNo="1" ewd:code="aS1" ewd:figID="17">
		<path style="&st2;" d=" M   832.86,   333.23  L   815.86,   333.23  L   815.86,   341.73  L   832.86,   341.73  L   832.86,   333.23 "/>
		<text style="&st8;" transform="matrix(&st16;  820.0  339.6 )"><tspan x="0" style="&st18;" y="0">aS1</tspan></text>
	</a>
	<a ewd:figtype="w2w" style="cursor:pointer;" ewd:pinNo="2" ewd:code="aS1" ewd:figID="18">
		<path style="&st2;" d=" M   875.35,   333.23  L   858.36,   333.23  L   858.36,   341.73  L   875.35,   341.73  L   875.35,   333.23 "/>
		<text style="&st8;" transform="matrix(&st16;  862.49  339.6 )"><tspan x="0" style="&st18;" y="0">aS1</tspan></text>
	</a>
	<a ewd:figtype="w2w" style="cursor:pointer;" ewd:pinNo="3" ewd:code="aS1" ewd:figID="19">
		<path style="&st2;" d=" M   917.85,   333.23  L   900.85,   333.23  L   900.85,   341.73  L   917.85,   341.73  L   917.85,   333.23 "/>
		<text style="&st8;" transform="matrix(&st16;  904.98  339.6 )"><tspan x="0" style="&st18;" y="0">aS1</tspan></text>
	</a>
	<a ewd:figtype="gp" style="cursor:pointer;" ewd:code="LB" ewd:figID="20">
		<path style="&st2;" d=" M    91.36,   681.67  L   112.61,   681.67  L   101.98,   697.25  L    91.36,   681.67 "/>
		<text style="&st8;" transform="matrix(&st16;  98.33  689.46 )"><tspan x="0" style="&st18;" y="0">LB</tspan></text>
	</a>
	<a ewd:figtype="gp" style="cursor:pointer;" ewd:code="LA" ewd:figID="21">
		<path style="&st2;" d=" M   142.35,   681.67  L   163.60,   681.67  L   152.97,   697.25  L   142.35,   681.67 "/>
		<text style="&st8;" transform="matrix(&st16;  149.21  689.46 )"><tspan x="0" style="&st18;" y="0">LA</tspan></text>
	</a>
	<a ewd:figtype="gp" style="cursor:pointer;" ewd:code="IA" ewd:figID="22">
		<path style="&st2;" d=" M   762.75,   681.67  L   783.99,   681.67  L   773.37,   697.25  L   762.75,   681.67 "/>
		<text style="&st8;" transform="matrix(&st16;  770.51  689.46 )"><tspan x="0" style="&st18;" y="0">IA</tspan></text>
	</a>
	<a ewd:figtype="gp" style="cursor:pointer;" ewd:code="TA" ewd:figID="23">
		<path style="&st2;" d=" M   813.74,   681.67  L   834.99,   681.67  L   824.36,   697.25  L   813.74,   681.67 "/>
		<text style="&st8;" transform="matrix(&st16;  820.49  689.46 )"><tspan x="0" style="&st18;" y="0">TA</tspan></text>
	</a>
	<a ewd:figtype="sp" style="cursor:pointer;" ewd:code="SP82" ewd:figID="24">
		<path style="&st2;" d=" M   148.73,   520.20  L   157.22,   520.20  L   161.47,   524.45  L   161.47,   532.95  L   157.22,   537.20  L   148.73,   537.20  L   144.48,   532.95  L   144.48,   524.45  L   148.73,   520.20 "/>
	</a>
	<a ewd:figtype="sp" style="cursor:pointer;" ewd:code="SP102" ewd:figID="25">
		<path style="&st2;" d=" M   599.15,   265.24  L   607.65,   265.24  L   611.90,   269.49  L   611.90,   277.99  L   607.65,   282.24  L   599.15,   282.24  L   594.90,   277.99  L   594.90,   269.49  L   599.15,   265.24 "/>
	</a>
	<a ewd:figtype="sp" style="cursor:pointer;" ewd:code="SP46" ewd:figID="26">
		<path style="&st2;" d=" M   658.64,   154.76  L   667.14,   154.76  L   671.39,   159.01  L   671.39,   167.51  L   667.14,   171.76  L   658.64,   171.76  L   654.39,   167.51  L   654.39,   159.01  L   658.64,   154.76 "/>
	</a>
	<a ewd:figtype="sp" style="cursor:pointer;" ewd:code="SP107" ewd:figID="27">
		<path style="&st2;" d=" M   820.11,   622.18  L   828.61,   622.18  L   832.86,   626.43  L   832.86,   634.93  L   828.61,   639.18  L   820.11,   639.18  L   815.86,   634.93  L   815.86,   626.43  L   820.11,   622.18 "/>
	</a>
	<a ewd:figtype="sp" style="cursor:pointer;" ewd:code="SP100" ewd:figID="28">
		<path style="&st2;" d=" M   820.11,   520.20  L   828.61,   520.20  L   832.86,   524.45  L   832.86,   532.95  L   828.61,   537.20  L   820.11,   537.20  L   815.86,   532.95  L   815.86,   524.45  L   820.11,   520.20 "/>
	</a>
</g>
</svg>