<?xml version="1.0" encoding="utf-8"?>
<!DOCTYPE svg PUBLIC "-//W3C//DTD SVG 1.0//EN" "http://www.w3.org/TR/2001/REC-SVG-20010904/DTD/svg10.dtd"[
	<!ENTITY ns_flows "http://ns.adobe.com/Flows/1.0/">
	<!ENTITY ns_svg "http://www.w3.org/2000/svg">
	<!ENTITY ns_xlink "http://www.w3.org/1999/xlink">
	<!ENTITY st0 "font-size:7px;font-family:'MS-PGothic';adobe-font-script:japanese;">
	<!ENTITY st1 "font-size:6px;font-family:'ArialMT';">
	<!-- White fill  -->
	<!ENTITY st2 "fill:#FFFFFF;stroke:#000000; stroke-width:1.41;stroke-linecap:round;stroke-linejoin:round;">
	<!-- Yellow fill  -->
	<!ENTITY st3 "fill:#FFFFCC;stroke:#FFFFCC; stroke-width:0.1;stroke-linecap:round;stroke-linejoin:round;">
	<!-- Gray fill  -->
	<!ENTITY st4 "fill:#CCCCCC;stroke:#CCCCCC; stroke-width:0.1;stroke-linecap:round;stroke-linejoin:round;">
	<!-- Light-blue fill -->
	<!ENTITY st5 "fill:#CCECF4;stroke:#000000; stroke-width:1.133;stroke-linecap:round;stroke-linejoin:round;">
	<!ENTITY st6 "fill:none;stroke-linecap:butt; stroke-linejoin:round;">
	<!ENTITY st7 "fill:none;stroke:#000000;stroke-linecap:round;stroke-linejoin:round;">
	<!ENTITY st8 "enable-background:new    ;">
	<!-- Black fill -->
	<!ENTITY st9 "fill:#000000;stroke:#000000; stroke-linecap:round;stroke-linejoin:round;">
	<!-- SRS note   -->
	<!ENTITY st10 "font-size:9px;font-family:'ArialMT';">
	<!ENTITY st11 "font-size:9px;font-family:'Svg Symbol';">
	<!ENTITY st12 "font-size:6px;font-family:'Svg Symbol';">
	<!ENTITY st13 "fill:none;stroke:#ff0000;stroke-linecap:round;stroke-linejoin:round;">
	<!-- Yellow fill  -->
	<!ENTITY st14 "fill:#FFFF00;stroke:#FFFF00; stroke-width:0.1;stroke-linecap:round;stroke-linejoin:round;">
	<!ENTITY st15 "font-size:6px;font-family:'MS-PGothic';adobe-font-script:japanese;">
	<!ENTITY st16 "1.00 0.00 0.00 1.00">
	<!ENTITY st17 "0.00 -1.00 1.00 0.00">
	<!ENTITY st18 "font-size:6px;font-family:'Arial';">
	<!ENTITY st19 "font-size:9px;font-family:'Arial';">
	<!ENTITY st20 "font-size:6px;font-family:'MS-PGothic','MS PGothic';adobe-font-script:japanese;">
	<!ENTITY st21 "font-size:7px;font-family:'MS-PGothic','MS PGothic';adobe-font-script:japanese;">
	<!ATTLIST svg
		xmlns:ewd CDATA #FIXED "http://shcl.co.jp/ewd"
		xmlns:a CDATA #FIXED "http://ns.adobe.com/AdobeSVGViewerExtensions/3.0/"
		ewd:ver CDATA #IMPLIED
	>
	<!ATTLIST a
		ewd:lineID CDATA #IMPLIED
		ewd:groupID CDATA #IMPLIED
		ewd:figtype CDATA #IMPLIED
		ewd:code CDATA #IMPLIED
		ewd:figID CDATA #IMPLIED
		ewd:pinNo CDATA #IMPLIED
		ewd:comment CDATA #IMPLIED >
	<!ATTLIST g
		ewd:lineID CDATA #IMPLIED
		ewd:groupID CDATA #IMPLIED
		ewd:figtype CDATA #IMPLIED
		ewd:code CDATA #IMPLIED
		ewd:figID CDATA #IMPLIED
		ewd:pinNo CDATA #IMPLIED
		ewd:comment CDATA #IMPLIED >
	<!ATTLIST text
		ewd:textID CDATA #IMPLIED >
	<!ATTLIST title
		ewd:textID CDATA #IMPLIED >
]>
<!-- Generator: Shintec Hozumi YS   -->
<svg onload="call_execInitLoadProc_svg('system')" style="overflow:visible;  enable-background:new 0 0 946.715 710.000" viewBox="0 0 946.715 710.000" height="710.000" width="946.715" xml:space="preserve" ewd:ver="2.1.2.9" xmlns="&ns_svg;" xmlns:a="http://ns.adobe.com/AdobeSVGViewerExtensions/3.0/" xmlns:ewd="http://shcl.co.jp/ewd" xmlns:xlink="&ns_xlink;">
<path style="stroke-width:1.42 ;&st7;  " d=" M   815.86,   634.21  L   820.83,   639.18  " /><path style="stroke-width:1.42 ;&st7;  " d=" M   827.89,   639.18  L   832.86,   634.21  " /><path style="stroke-width:1.42 ;&st7;  " d=" M   820.83,   622.18  L   815.86,   627.15  " /><path style="stroke-width:1.42 ;&st7;  " d=" M   820.83,   520.20  L   815.86,   525.17  " /><path style="stroke-width:1.42 ;&st7;  " d=" M   827.89,   537.20  L   832.86,   532.23  " /><path style="stroke-width:1.42 ;&st7;  " d=" M   815.86,   532.23  L   820.83,   537.20  " /><path style="stroke-width:1.42 ;&st7;  " d=" M   832.86,   525.17  L   827.89,   520.20  " /><path style="stroke-width:1.42 ;&st7;  " d=" M   599.87,   265.24  L   594.90,   270.21  " /><path style="stroke-width:1.42 ;&st7;  " d=" M   606.93,   282.24  L   611.90,   277.27  " /><path style="stroke-width:1.42 ;&st7;  " d=" M   594.90,   277.27  L   599.87,   282.24  " /><path style="stroke-width:1.42 ;&st7;  " d=" M   611.90,   270.21  L   606.93,   265.24  " /><path style="stroke-width:1.42 ;&st7;  " d=" M   659.36,   154.76  L   654.39,   159.73  " /><path style="stroke-width:1.42 ;&st7;  " d=" M   666.42,   171.76  L   671.39,   166.79  " /><path style="stroke-width:1.42 ;&st7;  " d=" M   654.39,   166.79  L   659.36,   171.76  " /><path style="stroke-width:1.42 ;&st7;  " d=" M   671.39,   159.73  L   666.42,   154.76  " /><path style="stroke-width:1.42 ;&st7;  " d=" M   832.86,   486.20  L   824.36,   486.20  " /><path style="stroke-width:1.42 ;&st7;  " d=" M   815.86,   571.19  L   824.36,   571.19  " /><path style="stroke-width:1.42 ;&st7;  " d=" M   688.38,   341.73  L   679.89,   341.73  " /><path style="stroke-width:1.42 ;&st7;  " d=" M   645.89,   341.73  L   637.39,   341.73  " /><path style="stroke-width:1.42 ;&st7;  " d=" M   611.90,   231.25  L   603.40,   231.25  " /><path style="stroke-width:1.42 ;&st7;  " d=" M   900.85,   333.23  L   909.35,   333.23  " /><path style="stroke-width:1.42 ;&st7;  " d=" M   858.36,   333.23  L   866.86,   333.23  " /><path style="stroke-width:1.42 ;&st7;  " d=" M   815.86,   333.23  L   824.36,   333.23  " /><path style="stroke-width:1.42 ;&st7;  " d=" M   764.87,   571.19  L   773.37,   571.19  " /><path style="stroke-width:1.42 ;&st7;  " d=" M   832.86,   627.15  L   827.89,   622.18  " /><text style="&st18;" transform="matrix(&st16;  792.41  525.0 )">W-B</text><text style="&st18;" transform="matrix(&st17;  769.68  666.38 )">W-B</text><text style="&st18;" transform="matrix(&st17;  820.67  606.89 )">W-B</text><text style="&st18;" transform="matrix(&st17;  820.67  513.4 )">W-B</text><text style="&st18;" transform="matrix(&st17;  670.53  141.33 )">(LHD)</text><text style="&st18;" transform="matrix(&st17;  659.19  135.09 )">L</text><text style="&st18;" transform="matrix(&st16;  652.32  270.04 )">L</text><text style="&st18;" transform="matrix(&st17;  820.67  555.9 )">W-B</text><text style="&st18;" transform="matrix(&st17;  820.67  666.38 )">W-B</text><text style="&st18;" transform="matrix(&st17;  676.19  381.56 )">L-W</text><text style="&st18;" transform="matrix(&st17;  633.7  382.99 )">LG-B</text><text style="&st18;" transform="matrix(&st17;  599.7  377.3 )">L</text><text style="&st18;" transform="matrix(&st17;  599.7  254.07 )">L</text><text style="&st18;" transform="matrix(&st17;  710.19  380.78 )">L-Y</text><text style="&st18;" transform="matrix(&st17;  752.68  379.51 )">LG</text><text style="&st18;" transform="matrix(&st17;  769.68  606.89 )">W-B</text><text style="&st18;" transform="matrix(&st17;  611.04  141.37 )">(RHD)</text><text style="&st18;" transform="matrix(&st17;  599.7  135.09 )">L</text><text style="&st18;" transform="matrix(&st17;  599.7  194.58 )">L</text><text style="&st18;" transform="matrix(&st17;  820.67  470.91 )">W-B</text><text style="&st18;" transform="matrix(&st17;  611.04  200.86 )">(RHD)</text><text style="&st18;" transform="matrix(&st17;  670.53  200.82 )">(LHD)</text><text style="&st18;" transform="matrix(&st17;  659.19  194.58 )">L</text><text style="&st18;" transform="matrix(&st17;  905.65  356.05 )">L</text><text style="&st18;" transform="matrix(&st17;  863.16  356.16 )">Y</text><text style="&st18;" transform="matrix(&st17;  820.67  355.97 )">P</text><text style="&st18;" transform="matrix(&st16;  541.84  270.04 )">L</text><text style="&st18;" transform="matrix(&st16;  537.57  295.54 )">L-W</text><text style="&st18;" transform="matrix(&st16;  536.14  312.54 )">LG-B</text><g ewd:figtype="conn" ewd:figID="1" ewd:code="I65"><path style="stroke-width:0.85 ;&st7;  " d=" M   603.40,   154.76  L   603.40,   171.76  " /><path style="stroke-width:1.42 ;&st7;  " d=" M   594.90,   154.76  L   611.90,   154.76  L   611.90,   171.76  L   594.90,   171.76  L   594.90,   154.76  " /><text style="&st18;" transform="matrix(&st16;  594.71  178.26 )">6</text><text style="&st18;" transform="matrix(&st16;  601.21  178.26 )">B</text><path style="stroke-width:1.42 ;&st7;   " d=" M   607.93,   176.29  C   607.93    173.79    605.90    171.76    603.40    171.76  " /><path style="stroke-width:1.42 ;&st7;   " d=" M   603.40,   171.76  C   600.90    171.76    598.87    173.79    598.87    176.29  " /><path style="stroke-width:1.42 ;&st7;   " d=" M   598.87,   176.29  C   598.87    178.79    600.90    180.82    603.40    180.82  " /><path style="stroke-width:1.42 ;&st7;   " d=" M   603.40,   180.82  C   605.90    180.82    607.93    178.79    607.93    176.29  " /><text style="&st18;" transform="matrix(&st16;  594.71  152.2 )">5</text><text style="&st18;" transform="matrix(&st16;  601.21  152.2 )">B</text><path style="stroke-width:1.42 ;&st7;   " d=" M   607.93,   150.23  C   607.93    147.72    605.90    145.69    603.40    145.69  " /><path style="stroke-width:1.42 ;&st7;   " d=" M   603.40,   145.69  C   600.90    145.69    598.87    147.72    598.87    150.23  " /><path style="stroke-width:1.42 ;&st7;   " d=" M   598.87,   150.23  C   598.87    152.73    600.90    154.76    603.40    154.76  " /><path style="stroke-width:1.42 ;&st7;   " d=" M   603.40,   154.76  C   605.90    154.76    607.93    152.73    607.93    150.23  " /><g ewd:figtype="title"><text style="&st18;" transform="matrix(&st17;  619.79  174.66 )">I65(B)</text><text style="&st18;" transform="matrix(&st17;  626.62  174.66 )" ewd:textID="2">No. 13 <tspan x="0 " dy="6.0">Junction </tspan><tspan x="0 " dy="6.0">Connector</tspan></text></g></g><g ewd:figtype="rb" ewd:figID="2" ewd:code="FUSE29"><path style="stroke-width:1.42 ;&st7;  " d=" M   605.52,    95.27  L   601.27,    95.27  " /><path style="stroke-width:1.42 ;&st7;  " d=" M   605.52,   103.77  L   601.27,   103.77  " /><path style="stroke-width:0.85 ;&st7;  " d=" M   603.40,    78.27  L   603.40,    95.27  " /><path style="stroke-width:1.42 ;&st7;   " d=" M   601.27,    95.27  C   598.93     95.27    597.03     97.17    597.03     99.52  " /><path style="stroke-width:1.42 ;&st7;   " d=" M   597.03,    99.52  C   597.03    101.87    598.93    103.77    601.27    103.77  " /><path style="stroke-width:1.42 ;&st7;   " d=" M   605.52,   103.77  C   607.87    103.77    609.77    101.87    609.77     99.52  " /><path style="stroke-width:1.42 ;&st7;   " d=" M   609.77,    99.52  C   609.77     97.17    607.87     95.27    605.52     95.27  " /><path style="stroke-width:0.28 ;&st9;  " d=" M   603.40,    90.37  L   600.57,    87.54  L   600.57,    91.79  L   603.40,    94.62  L   606.23,    91.79  L   606.23,    87.54  L   603.40,    90.37  " /><text style="&st18;" transform="matrix(&st16;  619.82  56.17 )">20A <tspan x="0 " dy="6.0">WIP</tspan></text><text style="&st18;" transform="matrix(&st16;  601.6  101.49 )">2</text><text style="&st18;" transform="matrix(&st16;  597.21  86.47 )">2</text><text style="&st18;" transform="matrix(&st16;  598.19  32.08 )">(IG)</text><path style="stroke-width:0.85 ;&st7;  " d=" M   603.40,    69.77  L   603.40,    78.27  " /><path style="stroke-width:1.42 ;&st7;   " d=" M   603.40,    47.11  C   600.66     48.72    599.75     52.25    601.36     54.99  " /><path style="stroke-width:1.42 ;&st7;   " d=" M   601.36,    54.99  C   601.88     55.87    602.52     56.51    603.40     57.03  " /><path style="stroke-width:1.42 ;&st7;   " d=" M   603.40,    66.94  C   606.14     65.33    607.05     61.80    605.44     59.06  " /><path style="stroke-width:1.42 ;&st7;   " d=" M   605.44,    59.06  C   604.92     58.18    604.28     57.55    603.40     57.03  " /><path style="stroke-width:0.85 ;&st7;   " d=" M   604.82,    45.69  C   604.82     44.91    604.18     44.28    603.40     44.28  " /><path style="stroke-width:0.85 ;&st7;   " d=" M   603.40,    44.28  C   602.62     44.28    601.98     44.91    601.98     45.69  " /><path style="stroke-width:0.85 ;&st7;   " d=" M   601.98,    45.69  C   601.98     46.48    602.62     47.11    603.40     47.11  " /><path style="stroke-width:0.85 ;&st7;   " d=" M   603.40,    47.11  C   604.18     47.11    604.82     46.48    604.82     45.69  " /><path style="stroke-width:0.85 ;&st7;   " d=" M   604.82,    68.36  C   604.82     67.57    604.18     66.94    603.40     66.94  " /><path style="stroke-width:0.85 ;&st7;   " d=" M   603.40,    66.94  C   602.62     66.94    601.98     67.57    601.98     68.36  " /><path style="stroke-width:0.85 ;&st7;   " d=" M   601.98,    68.36  C   601.98     69.14    602.62     69.77    603.40     69.77  " /><path style="stroke-width:0.85 ;&st7;   " d=" M   603.40,    69.77  C   604.18     69.77    604.82     69.14    604.82     68.36  " /><path style="stroke-width:1.42 ;&st7;  " d=" M   590.65,    35.78  L   590.65,    78.27  L   616.15,    78.27  L   616.15,    35.78  L   590.65,    35.78  " /></g><g ewd:figtype="conn" ewd:figID="3" ewd:code="S9"><path style="stroke-width:1.42 ;&st7;  " d=" M   586.40,   460.71  L   773.37,   460.71  L   773.37,   418.22  L   586.40,   418.22  L   586.40,   460.71  " /><g ewd:lineID="10"><text style="&st18;" transform="matrix(&st16;  597.21  414.53 )">1</text><text style="&st18;" transform="matrix(&st16;  601.21  425.85 )">B</text></g><g ewd:lineID="15"><text style="&st18;" transform="matrix(&st16;  631.21  414.53 )">6</text><text style="&st18;" transform="matrix(&st16;  631.06  425.85 )">LSW</text></g><g ewd:lineID="17"><text style="&st18;" transform="matrix(&st16;  673.7  414.53 )">4</text><text style="&st18;" transform="matrix(&st16;  675.91  425.85 )">C1</text></g><g ewd:lineID="18"><text style="&st18;" transform="matrix(&st16;  707.7  414.53 )">2</text><text style="&st18;" transform="matrix(&st16;  708.05  425.85 )">+SM</text></g><g ewd:lineID="28"><text style="&st18;" transform="matrix(&st16;  750.19  414.53 )">3</text><text style="&st18;" transform="matrix(&st16;  751.82  425.85 )">LM</text></g><g ewd:figtype="title"><text style="&st18;" transform="matrix(&st16;  583.0  475.43 )" ewd:textID="7">Rear Wiper Relay Assembly</text><text style="&st18;" transform="matrix(&st16;  582.99  468.6 )">S9</text></g></g><g ewd:figtype="conn" ewd:figID="4" ewd:code="a1"><path style="stroke-width:1.42 ;&st7;  " d=" M   820.11,   412.55  L   828.61,   412.55  " /><path style="stroke-width:1.42 ;&st7;  " d=" M   820.11,   408.58  L   820.11,   412.55  " /><path style="stroke-width:1.42 ;&st7;  " d=" M   828.61,   412.55  L   828.61,   408.58  " /><path style="stroke-width:1.42 ;&st7;  " d=" M   820.11,   389.89  L   828.61,   389.89  " /><path style="stroke-width:1.42 ;&st7;  " d=" M   820.11,   393.85  L   820.11,   389.89  " /><path style="stroke-width:1.42 ;&st7;  " d=" M   828.61,   389.89  L   828.61,   393.85  " /><path style="stroke-width:1.42 ;&st7;  " d=" M   886.69,   409.43  L   868.27,   401.22  " /><path style="stroke-width:1.42 ;&st7;   " d=" M   815.86,   401.22  C   815.86    405.91    819.67    409.72    824.36    409.72  " /><path style="stroke-width:1.42 ;&st7;   " d=" M   824.36,   409.72  C   829.06    409.72    832.86    405.91    832.86    401.22  " /><path style="stroke-width:1.42 ;&st7;   " d=" M   832.86,   401.22  C   832.86    396.52    829.06    392.72    824.36    392.72  " /><path style="stroke-width:1.42 ;&st7;   " d=" M   824.36,   392.72  C   819.67    392.72    815.86    396.52    815.86    401.22  " /><path style="stroke-width:0.85 ;&st7;   " d=" M   885.27,   409.72  C   885.27    408.93    884.63    408.30    883.85    408.30  " /><path style="stroke-width:0.85 ;&st7;   " d=" M   883.85,   408.30  C   883.07    408.30    882.44    408.93    882.44    409.72  " /><path style="stroke-width:0.85 ;&st7;   " d=" M   882.44,   409.72  C   882.44    410.50    883.07    411.13    883.85    411.13  " /><path style="stroke-width:0.85 ;&st7;   " d=" M   883.85,   411.13  C   884.63    411.13    885.27    410.50    885.27    409.72  " /><path style="stroke-width:0.85 ;&st7;   " d=" M   885.27,   392.72  C   885.27    391.94    884.63    391.30    883.85    391.30  " /><path style="stroke-width:0.85 ;&st7;   " d=" M   883.85,   391.30  C   883.07    391.30    882.44    391.94    882.44    392.72  " /><path style="stroke-width:0.85 ;&st7;   " d=" M   882.44,   392.72  C   882.44    393.50    883.07    394.14    883.85    394.14  " /><path style="stroke-width:0.85 ;&st7;   " d=" M   883.85,   394.14  C   884.63    394.14    885.27    393.50    885.27    392.72  " /><path style="stroke-width:0.85 ;&st7;   " d=" M   875.35,   404.33  C   877.99    401.81    878.16    397.68    875.73    394.95  " /><path style="stroke-width:0.85 ;&st7;   " d=" M   868.27,   401.22  C   868.27    400.44    867.64    399.80    866.86    399.80  " /><path style="stroke-width:0.85 ;&st7;   " d=" M   866.86,   399.80  C   866.07    399.80    865.44    400.44    865.44    401.22  " /><path style="stroke-width:0.85 ;&st7;   " d=" M   865.44,   401.22  C   865.44    402.00    866.07    402.63    866.86    402.63  " /><path style="stroke-width:0.85 ;&st7;   " d=" M   866.86,   402.63  C   867.64    402.63    868.27    402.00    868.27    401.22  " /><path style="stroke-width:0.85 ;&st7;   " d=" M   872.10,   395.53  C   870.63    398.87    872.07    402.75    875.35    404.33  " /><path style="stroke-width:0.85 ;&st7;   " d=" M   875.73,   394.95  C   874.87    394.06    873.45    394.03    872.56    394.89  " /><path style="stroke-width:0.85 ;&st7;   " d=" M   872.56,   394.89  C   872.36    395.09    872.22    395.28    872.10    395.53  " /><path style="stroke-width:0.85 ;&st7;   " d=" M   875.09,   398.18  C   875.09    397.79    874.77    397.47    874.38    397.47  " /><path style="stroke-width:0.85 ;&st7;   " d=" M   874.38,   397.47  C   873.99    397.47    873.67    397.79    873.67    398.18  " /><path style="stroke-width:0.85 ;&st7;   " d=" M   873.67,   398.18  C   873.67    398.57    873.99    398.89    874.38    398.89  " /><path style="stroke-width:0.85 ;&st7;   " d=" M   874.38,   398.89  C   874.77    398.89    875.09    398.57    875.09    398.18  " /><path style="stroke-width:1.42 ;&st7;  " d=" M   807.36,   443.71  L   926.34,   443.71  L   926.34,   375.72  L   807.36,   375.72  L   807.36,   443.71  " /><path style="stroke-width:0.85 ;&st7;  " d=" M   823.17,   425.71  L   822.90,   426.18  L   822.80,   426.71  L   822.90,   427.25  L   823.17,   427.72  L   823.58,   428.06  L   824.09,   428.25  L   824.63,   428.25  L   825.14,   428.06  L   825.55,   427.72  L   825.83,   427.25  L   825.92,   426.71  L   825.83,   426.18  L   825.55,   425.71  L   825.14,   425.37  L   824.63,   425.18  L   824.09,   425.18  L   823.58,   425.37  L   823.17,   425.71  L   823.56,   426.42  L   823.56,   427.01  L   823.94,   427.45  L   824.51,   427.55  L   825.01,   427.26  L   825.21,   426.71  L   825.01,   426.17  L   824.51,   425.88  L   823.94,   425.98  L   824.36,   426.71  " /><path style="stroke-width:0.85 ;&st7;  " d=" M   866.85,   375.72  L   866.85,   399.80  " /><path style="stroke-width:0.85 ;&st7;  " d=" M   824.36,   412.55  L   824.36,   443.71  " /><path style="stroke-width:0.85 ;&st7;  " d=" M   824.36,   426.71  L   883.85,   426.71  L   883.85,   411.13  " /><path style="stroke-width:0.85 ;&st7;  " d=" M   824.36,   375.72  L   824.36,   389.89  " /><path style="stroke-width:0.85 ;&st7;  " d=" M   885.27,   392.72  L   909.35,   392.72  L   909.35,   375.72  " /><text style="&st18;" transform="matrix(&st16;  821.63  403.19 )">M</text><text style="&st18;" transform="matrix(&st16;  911.93  383.92 )">B</text><text style="&st18;" transform="matrix(&st16;  826.95  440.02 )">E</text><text style="&st18;" transform="matrix(&st16;  869.44  383.92 )">S</text><text style="&st18;" transform="matrix(&st16;  826.95  383.92 )">+1</text><text style="&st18;" transform="matrix(&st16;  818.18  451.9 )">2</text><text style="&st18;" transform="matrix(&st16;  818.18  372.03 )">3</text><text style="&st18;" transform="matrix(&st16;  860.67  372.03 )">4</text><text style="&st18;" transform="matrix(&st16;  903.16  372.03 )">1</text><g ewd:figtype="title"><text style="&st18;" transform="matrix(&st17;  941.06  446.62 )" ewd:textID="6">Rear Wiper Motor Assembly</text><text style="&st18;" transform="matrix(&st17;  934.24  446.61 )">a1</text></g></g><g ewd:figtype="conn" ewd:figID="5" ewd:code="I54"><path style="stroke-width:0.85 ;&st7;  " d=" M   773.37,   622.18  L   773.37,   639.18  " /><path style="stroke-width:1.42 ;&st7;  " d=" M   764.87,   622.18  L   781.87,   622.18  L   781.87,   639.18  L   764.87,   639.18  L   764.87,   622.18  " /><text style="&st18;" transform="matrix(&st16;  764.68  645.68 )">1</text><text style="&st18;" transform="matrix(&st16;  771.07  645.68 )">A</text><path style="stroke-width:1.42 ;&st7;   " d=" M   777.90,   643.71  C   777.90    641.21    775.87    639.18    773.37    639.18  " /><path style="stroke-width:1.42 ;&st7;   " d=" M   773.37,   639.18  C   770.87    639.18    768.84    641.21    768.84    643.71  " /><path style="stroke-width:1.42 ;&st7;   " d=" M   768.84,   643.71  C   768.84    646.21    770.87    648.24    773.37    648.24  " /><path style="stroke-width:1.42 ;&st7;   " d=" M   773.37,   648.24  C   775.87    648.24    777.90    646.21    777.90    643.71  " /><text style="&st18;" transform="matrix(&st16;  764.68  619.62 )">6</text><text style="&st18;" transform="matrix(&st16;  771.07  619.62 )">A</text><path style="stroke-width:1.42 ;&st7;   " d=" M   777.90,   617.65  C   777.90    615.15    775.87    613.12    773.37    613.12  " /><path style="stroke-width:1.42 ;&st7;   " d=" M   773.37,   613.12  C   770.87    613.12    768.84    615.15    768.84    617.65  " /><path style="stroke-width:1.42 ;&st7;   " d=" M   768.84,   617.65  C   768.84    620.15    770.87    622.18    773.37    622.18  " /><path style="stroke-width:1.42 ;&st7;   " d=" M   773.37,   622.18  C   775.87    622.18    777.90    620.15    777.90    617.65  " /><g ewd:figtype="title"><text style="&st18;" transform="matrix(&st17;  789.76  642.08 )">I54(A)</text><text style="&st18;" transform="matrix(&st17;  796.59  642.08 )" ewd:textID="1">No. 5 Junction <tspan x="0 " dy="6.0">Connector</tspan></text></g></g><g ewd:figtype="w2w" ewd:figID="11" ewd:code="IS2"><path style="stroke-width:1.42 ;&st7;  " d=" M   607.65,   240.31  L   603.40,   236.06  L   599.15,   240.31  " /><path style="stroke-width:1.42 ;&st7;  " d=" M   607.65,   236.91  L   603.40,   232.66  L   599.15,   236.91  " /><text style="&st18;" transform="matrix(&st16;  587.67  228.97 )">11</text></g><g ewd:figtype="w2w" ewd:figID="12" ewd:code="LS1"><path style="stroke-width:1.42 ;&st7;  " d=" M   641.64,   350.79  L   637.39,   346.54  L   633.14,   350.79  " /><path style="stroke-width:1.42 ;&st7;  " d=" M   641.64,   347.39  L   637.39,   343.14  L   633.14,   347.39  " /><text style="&st18;" transform="matrix(&st16;  624.76  339.45 )">5</text></g><g ewd:figtype="w2w" ewd:figID="13" ewd:code="LS1"><path style="stroke-width:1.42 ;&st7;  " d=" M   684.14,   350.79  L   679.89,   346.54  L   675.64,   350.79  " /><path style="stroke-width:1.42 ;&st7;  " d=" M   684.14,   347.39  L   679.89,   343.14  L   675.64,   347.39  " /><text style="&st18;" transform="matrix(&st16;  667.25  339.45 )">6</text></g><g ewd:figtype="w2w" ewd:figID="14" ewd:code="IS1"><path style="stroke-width:1.42 ;&st7;  " d=" M   777.62,   565.52  L   773.37,   569.77  L   769.12,   565.52  " /><path style="stroke-width:1.42 ;&st7;  " d=" M   769.12,   562.12  L   773.37,   566.37  L   777.62,   562.12  " /><text style="&st18;" transform="matrix(&st16;  757.64  577.41 )">12</text></g><g ewd:figtype="w2w" ewd:figID="15" ewd:code="TS2"><path style="stroke-width:1.42 ;&st7;  " d=" M   820.11,   562.12  L   824.36,   566.37  L   828.61,   562.12  " /><path style="stroke-width:1.42 ;&st7;  " d=" M   828.61,   565.52  L   824.36,   569.77  L   820.11,   565.52  " /><text style="&st18;" transform="matrix(&st16;  808.63  577.41 )">13</text></g><g ewd:figtype="w2w" ewd:figID="16" ewd:code="aS1"><path style="stroke-width:1.42 ;&st7;  " d=" M   828.61,   495.27  L   824.36,   491.02  L   820.11,   495.27  " /><path style="stroke-width:1.42 ;&st7;  " d=" M   828.61,   491.87  L   824.36,   487.62  L   820.11,   491.87  " /><text style="&st18;" transform="matrix(&st16;  811.73  483.92 )">4</text></g><g ewd:figtype="w2w" ewd:figID="17" ewd:code="aS1"><path style="stroke-width:1.42 ;&st7;  " d=" M   828.61,   327.56  L   824.36,   331.81  L   820.11,   327.56  " /><path style="stroke-width:1.42 ;&st7;  " d=" M   820.11,   324.16  L   824.36,   328.41  L   828.61,   324.16  " /><text style="&st18;" transform="matrix(&st16;  811.73  339.45 )">1</text></g><g ewd:figtype="w2w" ewd:figID="18" ewd:code="aS1"><path style="stroke-width:1.42 ;&st7;  " d=" M   871.10,   327.56  L   866.85,   331.81  L   862.61,   327.56  " /><path style="stroke-width:1.42 ;&st7;  " d=" M   862.61,   324.16  L   866.85,   328.41  L   871.10,   324.16  " /><text style="&st18;" transform="matrix(&st16;  854.22  339.45 )">2</text></g><g ewd:figtype="w2w" ewd:figID="19" ewd:code="aS1"><path style="stroke-width:1.42 ;&st7;  " d=" M   913.60,   327.56  L   909.35,   331.81  L   905.10,   327.56  " /><path style="stroke-width:1.42 ;&st7;  " d=" M   905.10,   324.16  L   909.35,   328.41  L   913.60,   324.16  " /><text style="&st18;" transform="matrix(&st16;  896.72  339.45 )">3</text></g><g ewd:figtype="gp" ewd:figID="22" ewd:code="IA"><path style="stroke-width: 0.85 ;&st7;  " d=" M   771.95,   710.00  L   774.79,   710.00  " /><path style="stroke-width: 0.85 ;&st7;  " d=" M   770.54,   707.17  L   776.20,   707.17  " /><path style="stroke-width: 0.85 ;&st7;  " d=" M   769.12,   704.33  L   777.62,   704.33  " /><path style="stroke-width: 0.85 ;&st7;  " d=" M   764.87,   701.50  L   781.87,   701.50  " /><path style="stroke-width: 0.85 ;&st7;  " d=" M   773.37,   697.25  L   773.37,   701.50  " /></g><g ewd:figtype="gp" ewd:figID="23" ewd:code="TA"><path style="stroke-width: 0.85 ;&st7;  " d=" M   824.36,   697.25  L   824.36,   701.50  " /><path style="stroke-width: 0.85 ;&st7;  " d=" M   815.86,   701.50  L   832.86,   701.50  " /><path style="stroke-width: 0.85 ;&st7;  " d=" M   820.11,   704.33  L   828.61,   704.33  " /><path style="stroke-width: 0.85 ;&st7;  " d=" M   821.53,   707.17  L   827.19,   707.17  " /><path style="stroke-width: 0.85 ;&st7;  " d=" M   822.95,   710.00  L   825.78,   710.00  " /></g></svg>