<?xml version="1.0" encoding="utf-8"?>
<!DOCTYPE svg PUBLIC "-//W3C//DTD SVG 1.0//EN" "http://www.w3.org/TR/2001/REC-SVG-20010904/DTD/svg10.dtd"[
	<!ENTITY ns_flows "http://ns.adobe.com/Flows/1.0/">
	<!ENTITY ns_svg "http://www.w3.org/2000/svg">
	<!ENTITY ns_xlink "http://www.w3.org/1999/xlink">
	<!ENTITY st0 "font-size:7px;font-family:'MS-PGothic';adobe-font-script:japanese;">
	<!ENTITY st1 "font-size:6px;font-family:'ArialMT';">
	<!-- White fill  -->
	<!ENTITY st2 "fill:#FFFFFF;stroke:#000000; stroke-width:1.41;stroke-linecap:round;stroke-linejoin:round;">
	<!-- Yellow fill  -->
	<!ENTITY st3 "fill:#FFFFCC;stroke:#FFFFCC; stroke-width:0.1;stroke-linecap:round;stroke-linejoin:round;">
	<!-- Gray fill  -->
	<!ENTITY st4 "fill:#CCCCCC;stroke:#CCCCCC; stroke-width:0.1;stroke-linecap:round;stroke-linejoin:round;">
	<!-- Light-blue fill -->
	<!ENTITY st5 "fill:#CCECF4;stroke:#000000; stroke-width:1.133;stroke-linecap:round;stroke-linejoin:round;">
	<!ENTITY st6 "fill:none;stroke-linecap:butt; stroke-linejoin:round;">
	<!ENTITY st7 "fill:none;stroke:#000000;stroke-linecap:round;stroke-linejoin:round;">
	<!ENTITY st8 "enable-background:new    ;">
	<!-- Black fill -->
	<!ENTITY st9 "fill:#000000;stroke:#000000; stroke-linecap:round;stroke-linejoin:round;">
	<!-- SRS note   -->
	<!ENTITY st10 "font-size:9px;font-family:'ArialMT';">
	<!ENTITY st11 "font-size:9px;font-family:'Svg Symbol';">
	<!ENTITY st12 "font-size:6px;font-family:'Svg Symbol';">
	<!ENTITY st13 "fill:none;stroke:#ff0000;stroke-linecap:round;stroke-linejoin:round;">
	<!-- Yellow fill  -->
	<!ENTITY st14 "fill:#FFFF00;stroke:#FFFF00; stroke-width:0.1;stroke-linecap:round;stroke-linejoin:round;">
	<!ENTITY st15 "font-size:6px;font-family:'MS-PGothic';adobe-font-script:japanese;">
	<!ENTITY st16 "1.00 0.00 0.00 1.00">
	<!ENTITY st17 "0.00 -1.00 1.00 0.00">
	<!ENTITY st18 "font-size:6px;font-family:'Arial';">
	<!ENTITY st19 "font-size:9px;font-family:'Arial';">
	<!ENTITY st20 "font-size:6px;font-family:'MS-PGothic','MS PGothic';adobe-font-script:japanese;">
	<!ENTITY st21 "font-size:7px;font-family:'MS-PGothic','MS PGothic';adobe-font-script:japanese;">
	<!ATTLIST svg
		xmlns:ewd CDATA #FIXED "http://shcl.co.jp/ewd"
		xmlns:a CDATA #FIXED "http://ns.adobe.com/AdobeSVGViewerExtensions/3.0/"
		ewd:ver CDATA #IMPLIED
	>
	<!ATTLIST a
		ewd:lineID CDATA #IMPLIED
		ewd:groupID CDATA #IMPLIED
		ewd:figtype CDATA #IMPLIED
		ewd:code CDATA #IMPLIED
		ewd:figID CDATA #IMPLIED
		ewd:pinNo CDATA #IMPLIED
		ewd:comment CDATA #IMPLIED >
	<!ATTLIST g
		ewd:lineID CDATA #IMPLIED
		ewd:groupID CDATA #IMPLIED
		ewd:figtype CDATA #IMPLIED
		ewd:code CDATA #IMPLIED
		ewd:figID CDATA #IMPLIED
		ewd:pinNo CDATA #IMPLIED
		ewd:comment CDATA #IMPLIED >
	<!ATTLIST text
		ewd:textID CDATA #IMPLIED >
	<!ATTLIST title
		ewd:textID CDATA #IMPLIED >
]>
<!-- Generator: Shintec Hozumi YS   -->
<svg onload="call_execInitLoadProc_svg('system')" style="overflow:visible;  enable-background:new 0 0 2057.925 710.000" viewBox="0 0 2057.925 710.000" height="710.000" width="2057.925" xml:space="preserve" ewd:ver="2.1.2.9" xmlns="&ns_svg;" xmlns:a="http://ns.adobe.com/AdobeSVGViewerExtensions/3.0/" xmlns:ewd="http://shcl.co.jp/ewd" xmlns:xlink="&ns_xlink;">
<path style="stroke-width:1.42 ;&st7;  " d=" M  1903.68,   635.65  L  1898.71,   630.68  " /><path style="stroke-width:1.42 ;&st7;  " d=" M  1886.68,   642.71  L  1891.65,   647.68  " /><text style="&st18;" transform="matrix(&st17;  1766.84  563.16 )">(*6)</text><text style="&st18;" transform="matrix(&st17;  1755.51  612.98 )">BR</text><path style="stroke-width:1.42 ;&st7;  " d=" M  1806.67,   443.71  L  1801.70,   448.68  " /><path style="stroke-width:1.42 ;&st7;  " d=" M  1813.72,   460.71  L  1818.70,   455.74  " /><path style="stroke-width:1.42 ;&st7;  " d=" M  1801.70,   455.74  L  1806.67,   460.71  " /><path style="stroke-width:1.42 ;&st7;  " d=" M  1818.70,   448.68  L  1813.72,   443.71  " /><text style="&st18;" transform="matrix(&st17;  1766.84  614.15 )">(*6)</text><path style="stroke-width:1.42 ;&st7;  " d=" M  2002.14,   120.77  L  1997.17,   125.74  " /><path style="stroke-width:1.42 ;&st7;  " d=" M  1997.17,   132.79  L  2002.14,   137.76  " /><text style="&st18;" transform="matrix(&st17;  1891.49  663.98 )">BR</text><path style="stroke-width:1.42 ;&st7;  " d=" M  1776.20,   120.77  L  1767.70,   120.77  " /><path style="stroke-width:1.42 ;&st7;  " d=" M  1929.18,   503.20  L  1937.68,   503.20  " /><path style="stroke-width:1.42 ;&st7;  " d=" M  1801.70,   401.22  L  1810.20,   401.22  " /><path style="stroke-width:1.42 ;&st7;  " d=" M  1903.68,   596.69  L  1895.18,   596.69  " /><text style="&st18;" transform="matrix(&st17;  1902.82  665.14 )">(*1)</text><path style="stroke-width:1.42 ;&st7;  " d=" M  1898.71,   647.68  L  1903.68,   642.71  " /><path style="stroke-width:1.42 ;&st7;  " d=" M  1891.66,   630.68  L  1886.68,   635.65  " /><text style="&st18;" transform="matrix(&st17;  1902.82  622.65 )">(*1)</text><text style="&st18;" transform="matrix(&st17;  1891.49  621.48 )">BR</text><text style="&st18;" transform="matrix(&st17;  1636.53  377.33 )">R</text><text style="&st18;" transform="matrix(&st17;  1764.01  159.94 )">B-Y</text><text style="&st18;" transform="matrix(&st17;  1764.01  83.45 )">B-Y</text><text style="&st18;" transform="matrix(&st17;  1925.48  125.94 )">B-Y</text><text style="&st18;" transform="matrix(&st17;  1902.82  549.04 )">(LHD *1)</text><text style="&st18;" transform="matrix(&st17;  1891.49  540.75 )">BR</text><text style="&st18;" transform="matrix(&st17;  1945.31  549.08 )">(RHD *1)</text><text style="&st18;" transform="matrix(&st17;  1933.98  540.75 )">BR</text><text style="&st18;" transform="matrix(&st17;  1945.31  489.59 )">(RHD *1)</text><text style="&st18;" transform="matrix(&st17;  1933.98  481.26 )">BR</text><path style="stroke-width:1.42 ;&st7;  " d=" M  1806.67,   630.68  L  1801.70,   635.65  " /><text style="&st18;" transform="matrix(&st17;  1806.5  379.27 )">BR</text><path style="stroke-width:1.42 ;&st7;  " d=" M  1813.72,   647.68  L  1818.70,   642.71  " /><path style="stroke-width:1.42 ;&st7;  " d=" M  1801.70,   642.71  L  1806.67,   647.68  " /><path style="stroke-width:1.42 ;&st7;  " d=" M  1818.70,   635.65  L  1813.72,   630.68  " /><path style="stroke-width:1.42 ;&st7;  " d=" M  1818.70,   588.19  L  1810.20,   588.19  " /><path style="stroke-width:1.42 ;&st7;  " d=" M  1750.71,   579.69  L  1759.21,   579.69  " /><path style="stroke-width:1.42 ;&st7;  " d=" M  1801.70,   503.20  L  1810.20,   503.20  " /><text style="&st18;" transform="matrix(&st17;  1806.5  430.26 )">BR</text><text style="&st18;" transform="matrix(&st16;  1578.63  558.99 )">R</text><text style="&st18;" transform="matrix(&st16;  1527.63  558.99 )">R</text><text style="&st18;" transform="matrix(&st17;  1755.51  561.99 )">BR</text><text style="&st18;" transform="matrix(&st17;  1806.5  612.98 )">BR</text><text style="&st18;" transform="matrix(&st17;  1806.5  668.22 )">BR</text><text style="&st18;" transform="matrix(&st17;  1817.83  669.39 )">(*2)</text><text style="&st18;" transform="matrix(&st17;  1806.5  561.99 )">BR</text><text style="&st18;" transform="matrix(&st17;  1817.83  563.16 )">(*2)</text><text style="&st18;" transform="matrix(&st17;  1817.83  614.15 )">(*2)</text><text style="&st18;" transform="matrix(&st17;  1806.5  481.26 )">BR</text><text style="&st18;" transform="matrix(&st17;  1817.83  486.45 )">(*2,*6)</text><g ewd:figtype="conn" ewd:figID="7" ewd:code="I58,I72"><path style="stroke-width:1.42 ;&st7;  " d=" M  1844.19,    86.77  L  1861.19,    86.77  L  1861.19,   103.77  L  1844.19,   103.77  L  1844.19,    86.77  " /><path style="stroke-width:0.85 ;&st7;  " d=" M  1852.69,    86.77  L  1852.69,   103.77  " /><text style="&st18;" transform="matrix(&st16;  1844.0  84.21 )">2</text><text style="&st18;" transform="matrix(&st16;  1844.0  75.14 )">2</text><text style="&st18;" transform="matrix(&st16;  1850.39  75.14 )">A</text><path style="stroke-width:1.42 ;&st7;   " d=" M  1857.22,    82.24  C  1857.22     79.73   1855.19     77.71   1852.69     77.71  " /><path style="stroke-width:1.42 ;&st7;   " d=" M  1852.69,    77.71  C  1850.19     77.71   1848.16     79.73   1848.16     82.24  " /><path style="stroke-width:1.42 ;&st7;   " d=" M  1848.16,    82.24  C  1848.16     84.74   1850.19     86.77   1852.69     86.77  " /><path style="stroke-width:1.42 ;&st7;   " d=" M  1852.69,    86.77  C  1855.19     86.77   1857.22     84.74   1857.22     82.24  " /><path style="stroke-width:1.42 ;&st7;   " d=" M  1857.22,    73.17  C  1857.22     70.67   1855.19     68.64   1852.69     68.64  " /><path style="stroke-width:1.42 ;&st7;   " d=" M  1852.69,    68.64  C  1850.19     68.64   1848.16     70.67   1848.16     73.17  " /><path style="stroke-width:1.42 ;&st7;   " d=" M  1848.16,    73.17  C  1848.16     75.68   1850.19     77.71   1852.69     77.71  " /><path style="stroke-width:1.42 ;&st7;   " d=" M  1852.69,    77.71  C  1855.19     77.71   1857.22     75.68   1857.22     73.17  " /><text style="&st18;" transform="matrix(&st16;  1850.5  84.21 )">B</text><text style="&st18;" transform="matrix(&st16;  1844.0  110.27 )">1</text><text style="&st18;" transform="matrix(&st16;  1844.0  119.33 )">1</text><text style="&st18;" transform="matrix(&st16;  1850.5  119.33 )">B</text><text style="&st18;" transform="matrix(&st16;  1850.39  110.27 )">A</text><path style="stroke-width:1.42 ;&st7;   " d=" M  1857.22,   117.37  C  1857.22    114.86   1855.19    112.83   1852.69    112.83  " /><path style="stroke-width:1.42 ;&st7;   " d=" M  1852.69,   112.83  C  1850.19    112.83   1848.16    114.86   1848.16    117.37  " /><path style="stroke-width:1.42 ;&st7;   " d=" M  1848.16,   117.37  C  1848.16    119.87   1850.19    121.90   1852.69    121.90  " /><path style="stroke-width:1.42 ;&st7;   " d=" M  1852.69,   121.90  C  1855.19    121.90   1857.22    119.87   1857.22    117.37  " /><path style="stroke-width:1.42 ;&st7;   " d=" M  1857.22,   108.30  C  1857.22    105.80   1855.19    103.77   1852.69    103.77  " /><path style="stroke-width:1.42 ;&st7;   " d=" M  1852.69,   103.77  C  1850.19    103.77   1848.16    105.80   1848.16    108.30  " /><path style="stroke-width:1.42 ;&st7;   " d=" M  1848.16,   108.30  C  1848.16    110.80   1850.19    112.83   1852.69    112.83  " /><path style="stroke-width:1.42 ;&st7;   " d=" M  1852.69,   112.83  C  1855.19    112.83   1857.22    110.80   1857.22    108.30  " /><g ewd:figtype="title"><text style="&st18;" transform="matrix(&st17;  1807.61  106.67 )">I72(A)</text><text style="&st18;" transform="matrix(&st17;  1814.43  106.67 )" ewd:textID="35">No. 21 Junction <tspan x="0 " dy="6.0">Connector</tspan></text><text style="&st18;" transform="matrix(&st17;  1827.72  106.67 )">I58(B)</text><text style="&st18;" transform="matrix(&st17;  1834.55  106.67 )" ewd:textID="27">No. 9 Junction <tspan x="0 " dy="6.0">Connector</tspan></text></g><g ewd:code="" ewd:figID="58" ewd:comment="" ewd:figtype="commref"><text style="&st18;" transform="matrix(&st16;  1857.78  84.21 )">(RHD)</text></g><g ewd:code="" ewd:figID="59" ewd:comment="" ewd:figtype="commref"><text style="&st18;" transform="matrix(&st16;  1857.78  75.14 )">(LHD)</text></g><g ewd:code="" ewd:figID="60" ewd:comment="" ewd:figtype="commref"><text style="&st18;" transform="matrix(&st16;  1857.78  119.33 )">(RHD)</text></g><g ewd:code="" ewd:figID="61" ewd:comment="" ewd:figtype="commref"><text style="&st18;" transform="matrix(&st16;  1857.78  110.27 )">(LHD)</text></g></g><g ewd:figtype="conn" ewd:figID="8" ewd:code="L25,L26"><path style="stroke-width:0.85 ;&st7;  " d=" M  1686.97,   265.24  L  1678.47,   265.24  " /><path style="stroke-width:0.85 ;&st7;  " d=" M  1695.45,   255.58  L  1688.09,   259.83  " /><path style="stroke-width:0.85 ;&st7;  " d=" M  1690.10,   263.29  L  1697.46,   259.05  " /><path style="stroke-width:1.42 ;&st7;  " d=" M  1674.22,   299.24  L  1674.22,   316.23  " /><path style="stroke-width:0.85 ;&st7;  " d=" M  1674.22,   310.57  L  1682.72,   316.23  " /><path style="stroke-width:0.85 ;&st7;  " d=" M  1682.72,   299.24  L  1674.22,   304.90  " /><path style="stroke-width:0.85 ;&st7;  " d=" M  1708.21,   311.98  L  1708.21,   320.48  " /><path style="stroke-width:0.85 ;&st7;  " d=" M  1771.95,   222.75  L  1763.46,   222.75  " /><path style="stroke-width:0.85 ;&st7;  " d=" M  1809.00,   238.74  L  1808.73,   239.21  L  1808.64,   239.75  L  1808.73,   240.28  L  1809.00,   240.75  L  1809.42,   241.09  L  1809.92,   241.28  L  1810.47,   241.28  L  1810.98,   241.09  L  1811.39,   240.75  L  1811.66,   240.28  L  1811.75,   239.75  L  1811.66,   239.21  L  1811.39,   238.74  L  1810.98,   238.40  L  1810.47,   238.21  L  1809.92,   238.21  L  1809.42,   238.40  L  1809.00,   238.74  L  1809.40,   239.45  L  1809.40,   240.04  L  1809.77,   240.48  L  1810.34,   240.58  L  1810.85,   240.29  L  1811.05,   239.75  L  1810.85,   239.20  L  1810.34,   238.91  L  1809.77,   239.01  L  1810.20,   239.75  " /><path style="stroke-width:0.28 ;&st9;  " d=" M  1682.72,   265.24  L  1677.05,   256.74  L  1688.38,   256.74  L  1682.72,   265.24  " /><path style="stroke-width:0.85 ;&st7;  " d=" M  1695.45,   255.58  L  1693.12,   258.62  L  1691.65,   256.08  L  1695.45,   255.58  L  1694.17,   256.32  L  1693.18,   257.60  L  1692.57,   256.53  L  1694.17,   256.32  L  1693.53,   256.69  L  1693.22,   257.09  L  1693.02,   256.75  L  1693.53,   256.69  " /><path style="stroke-width:0.85 ;&st7;  " d=" M  1697.45,   259.05  L  1695.12,   262.09  L  1693.65,   259.55  L  1697.45,   259.05  L  1696.17,   259.79  L  1695.19,   261.07  L  1694.57,   260.00  L  1696.17,   259.79  L  1695.53,   260.16  L  1695.22,   260.56  L  1695.03,   260.22  L  1695.53,   260.16  " /><path style="stroke-width:0.85 ;&st7;  " d=" M  1682.72,   316.23  L  1680.58,   313.05  L  1678.96,   315.49  L  1682.72,   316.23  L  1681.49,   315.41  L  1680.58,   314.07  L  1679.90,   315.10  L  1681.49,   315.41  L  1680.87,   315.00  L  1680.59,   314.58  L  1680.37,   314.90  L  1680.87,   315.00  " /><path style="stroke-width:0.85 ;&st7;  " d=" M  1640.23,   307.73  L  1648.72,   307.73  L  1650.14,   304.90  L  1652.97,   310.57  L  1655.81,   304.90  L  1658.64,   310.57  L  1661.47,   304.90  L  1664.30,   310.57  L  1665.72,   307.73  L  1674.22,   307.73  " /><path style="stroke-width:0.85 ;&st7;  " d=" M  1640.23,   350.23  L  1640.23,   290.74  L  1637.39,   289.32  L  1643.06,   286.49  L  1637.39,   283.65  L  1643.06,   280.82  L  1637.39,   277.99  L  1643.06,   275.16  L  1640.23,   273.74  L  1640.23,   265.24  " /><path style="stroke-width:0.85 ;&st7;  " d=" M  1639.03,   264.24  L  1638.76,   264.71  L  1638.67,   265.24  L  1638.76,   265.77  L  1639.03,   266.24  L  1639.45,   266.59  L  1639.95,   266.78  L  1640.50,   266.78  L  1641.00,   266.59  L  1641.42,   266.24  L  1641.69,   265.77  L  1641.78,   265.24  L  1641.69,   264.71  L  1641.42,   264.24  L  1641.00,   263.89  L  1640.50,   263.71  L  1639.95,   263.71  L  1639.45,   263.89  L  1639.03,   264.24  L  1639.43,   264.95  L  1639.43,   265.53  L  1639.80,   265.98  L  1640.37,   266.08  L  1640.88,   265.79  L  1641.08,   265.24  L  1640.88,   264.69  L  1640.37,   264.41  L  1639.80,   264.50  L  1640.23,   265.24  " /><path style="stroke-width:0.85 ;&st7;  " d=" M  1635.98,   265.24  L  1644.47,   265.24  " /><path style="stroke-width:0.85 ;&st7;  " d=" M  2005.66,   197.25  L  2005.66,   239.75  L  1810.20,   239.75  L  1810.20,   316.23  " /><path style="stroke-width:0.85 ;&st7;  " d=" M  1682.72,   239.75  L  1682.72,   273.74  L  1685.55,   275.16  L  1679.89,   277.99  L  1685.55,   280.82  L  1679.89,   283.65  L  1685.55,   286.49  L  1679.89,   289.32  L  1682.72,   290.74  L  1682.72,   299.24  " /><path style="stroke-width:0.85 ;&st7;  " d=" M  1810.20,   239.75  L  1682.72,   239.75  " /><path style="stroke-width:0.85 ;&st7;  " d=" M  1639.03,   306.73  L  1638.76,   307.20  L  1638.67,   307.73  L  1638.76,   308.27  L  1639.03,   308.74  L  1639.45,   309.08  L  1639.95,   309.27  L  1640.50,   309.27  L  1641.00,   309.08  L  1641.42,   308.74  L  1641.69,   308.27  L  1641.78,   307.73  L  1641.69,   307.20  L  1641.42,   306.73  L  1641.00,   306.39  L  1640.50,   306.20  L  1639.95,   306.20  L  1639.45,   306.39  L  1639.03,   306.73  L  1639.43,   307.44  L  1639.43,   308.03  L  1639.80,   308.47  L  1640.37,   308.57  L  1640.88,   308.28  L  1641.08,   307.73  L  1640.88,   307.19  L  1640.37,   306.90  L  1639.80,   307.00  L  1640.23,   307.73  " /><path style="stroke-width:0.85 ;&st7;  " d=" M  1716.71,   324.73  L  1712.46,   333.23  " /><path style="stroke-width:0.85 ;&st7;  " d=" M  1733.71,   324.73  L  1729.46,   333.23  " /><path style="stroke-width:0.85 ;&st7;  " d=" M  1767.70,   197.25  L  1767.70,   239.75  " /><path style="stroke-width:1.42 ;&st7;  " d=" M  1759.21,   316.23  L  1759.21,   333.23  L  1869.69,   333.23  L  1869.69,   316.23  L  1759.21,   316.23  " /><path style="stroke-width:1.42 ;&st7;  " d=" M  1614.73,   197.25  L  1614.73,   350.23  L  2022.66,   350.23  L  2022.66,   197.25  L  1614.73,   197.25  " /><path style="stroke-width:0.85 ;&st7;  " d=" M  1725.21,   324.73  L  1720.96,   333.23  " /><path style="stroke-width:0.85 ;&st7;  " d=" M  1716.71,   324.73  L  1733.71,   324.73  " /><path style="stroke-width:0.85 ;&st7;  " d=" M  1682.72,   316.23  L  1725.21,   316.23  L  1725.21,   324.73  " /><path style="stroke-width:0.28 ;&st9;  " d=" M  1708.21,   316.23  L  1699.72,   321.90  L  1699.72,   310.57  L  1708.21,   316.23  " /><path style="stroke-width:0.85 ;&st7;  " d=" M  1766.51,   238.74  L  1766.24,   239.21  L  1766.15,   239.75  L  1766.24,   240.28  L  1766.51,   240.75  L  1766.92,   241.09  L  1767.43,   241.28  L  1767.98,   241.28  L  1768.48,   241.09  L  1768.90,   240.75  L  1769.17,   240.28  L  1769.26,   239.75  L  1769.17,   239.21  L  1768.90,   238.74  L  1768.48,   238.40  L  1767.98,   238.21  L  1767.43,   238.21  L  1766.92,   238.40  L  1766.51,   238.74  L  1766.91,   239.45  L  1766.91,   240.04  L  1767.28,   240.48  L  1767.85,   240.58  L  1768.36,   240.29  L  1768.55,   239.75  L  1768.36,   239.20  L  1767.85,   238.91  L  1767.28,   239.01  L  1767.70,   239.75  " /><text style="&st18;" transform="matrix(&st16;  1770.29  205.45 )">B</text><text style="&st18;" transform="matrix(&st16;  1642.81  346.54 )">A/B</text><text style="&st18;" transform="matrix(&st17;  1675.06  265.7 )">SRS</text><text style="&st18;" transform="matrix(&st16;  1635.32  261.54 )">IG2</text><text style="&st18;" transform="matrix(&st16;  1784.69  326.7 )" ewd:textID="24">Meter Micro Computer</text><path style="stroke-width:0.28 ;&st9;  " d=" M  1793.20,   239.75  L  1784.70,   245.41  L  1784.70,   234.08  L  1793.20,   239.75  " /><path style="stroke-width:0.28 ;&st9;  " d=" M  2005.66,   222.75  L  2000.00,   214.25  L  2011.33,   214.25  L  2005.66,   222.75  " /><path style="stroke-width:0.28 ;&st9;  " d=" M  1767.70,   222.75  L  1762.04,   214.25  L  1773.37,   214.25  L  1767.70,   222.75  " /><path style="stroke-width:0.85 ;&st7;  " d=" M  1793.20,   235.50  L  1793.20,   243.99  " /><path style="stroke-width:0.85 ;&st7;  " d=" M  2009.91,   222.75  L  2001.42,   222.75  " /><text style="&st18;" transform="matrix(&st16;  2008.25  205.45 )">B</text><text style="&st18;" transform="matrix(&st16;  1806.54  346.53 )">ES</text><text style="&st18;" transform="matrix(&st16;  1628.43  356.73 )">19</text><text style="&st18;" transform="matrix(&st16;  1638.04  356.73 )">B</text><path style="stroke-width:1.42 ;&st7;   " d=" M  1644.76,   354.76  C  1644.76    352.26   1642.73    350.23   1640.23    350.23  " /><path style="stroke-width:1.42 ;&st7;   " d=" M  1640.23,   350.23  C  1637.72    350.23   1635.69    352.26   1635.69    354.76  " /><path style="stroke-width:1.42 ;&st7;   " d=" M  1635.69,   354.76  C  1635.69    357.26   1637.72    359.29   1640.23    359.29  " /><path style="stroke-width:1.42 ;&st7;   " d=" M  1640.23,   359.29  C  1642.73    359.29   1644.76    357.26   1644.76    354.76  " /><text style="&st18;" transform="matrix(&st16;  1755.91  194.69 )">28</text><path style="stroke-width:1.42 ;&st7;   " d=" M  1772.24,   192.72  C  1772.24    190.22   1770.21    188.19   1767.70    188.19  " /><path style="stroke-width:1.42 ;&st7;   " d=" M  1767.70,   188.19  C  1765.20    188.19   1763.17    190.22   1763.17    192.72  " /><path style="stroke-width:1.42 ;&st7;   " d=" M  1763.17,   192.72  C  1763.17    195.22   1765.20    197.25   1767.70    197.25  " /><path style="stroke-width:1.42 ;&st7;   " d=" M  1767.70,   197.25  C  1770.21    197.25   1772.24    195.22   1772.24    192.72  " /><text style="&st18;" transform="matrix(&st16;  1765.4  194.69 )">A</text><text style="&st18;" transform="matrix(&st16;  1798.4  356.73 )">15</text><text style="&st18;" transform="matrix(&st16;  1807.89  356.73 )">A</text><path style="stroke-width:1.42 ;&st7;   " d=" M  1814.73,   354.76  C  1814.73    352.26   1812.70    350.23   1810.20    350.23  " /><path style="stroke-width:1.42 ;&st7;   " d=" M  1810.20,   350.23  C  1807.69    350.23   1805.66    352.26   1805.66    354.76  " /><path style="stroke-width:1.42 ;&st7;   " d=" M  1805.66,   354.76  C  1805.66    357.26   1807.69    359.29   1810.20    359.29  " /><path style="stroke-width:1.42 ;&st7;   " d=" M  1810.20,   359.29  C  1812.70    359.29   1814.73    357.26   1814.73    354.76  " /><text style="&st18;" transform="matrix(&st16;  1993.87  194.69 )">26</text><path style="stroke-width:1.42 ;&st7;   " d=" M  2010.20,   192.72  C  2010.20    190.22   2008.17    188.19   2005.66    188.19  " /><path style="stroke-width:1.42 ;&st7;   " d=" M  2005.66,   188.19  C  2003.16    188.19   2001.13    190.22   2001.13    192.72  " /><path style="stroke-width:1.42 ;&st7;   " d=" M  2001.13,   192.72  C  2001.13    195.22   2003.16    197.25   2005.66    197.25  " /><path style="stroke-width:1.42 ;&st7;   " d=" M  2005.66,   197.25  C  2008.17    197.25   2010.20    195.22   2010.20    192.72  " /><text style="&st18;" transform="matrix(&st16;  2003.36  194.69 )">A</text><g ewd:figtype="title"><text style="&st18;" transform="matrix(&st16;  1951.26  358.12 )">L25(A),L26(B)</text><text style="&st18;" transform="matrix(&st16;  1951.27  364.94 )" ewd:textID="11">Combination Meter Assembly</text></g></g><g ewd:figtype="rb" ewd:figID="10" ewd:code="FUSE5"><path style="stroke-width:1.42 ;&st7;  " d=" M  2007.79,    95.27  L  2003.54,    95.27  " /><path style="stroke-width:1.42 ;&st7;  " d=" M  2007.79,   103.77  L  2003.54,   103.77  " /><path style="stroke-width:0.85 ;&st7;  " d=" M  2005.66,    78.27  L  2005.66,    95.27  " /><path style="stroke-width:1.42 ;&st7;   " d=" M  2003.54,    95.27  C  2001.19     95.27   1999.29     97.17   1999.29     99.52  " /><path style="stroke-width:1.42 ;&st7;   " d=" M  1999.29,    99.52  C  1999.29    101.87   2001.19    103.77   2003.54    103.77  " /><path style="stroke-width:1.42 ;&st7;   " d=" M  2007.79,   103.77  C  2010.14    103.77   2012.04    101.87   2012.04     99.52  " /><path style="stroke-width:1.42 ;&st7;   " d=" M  2012.04,    99.52  C  2012.04     97.17   2010.14     95.27   2007.79     95.27  " /><path style="stroke-width:0.28 ;&st9;  " d=" M  2005.66,    90.37  L  2002.83,    87.54  L  2002.83,    91.79  L  2005.66,    94.62  L  2008.50,    91.79  L  2008.50,    87.54  L  2005.66,    90.37  " /><text style="&st18;" transform="matrix(&st16;  2022.09  53.34 )">10A <tspan x="0 " dy="6.0">DOME </tspan><tspan x="0 " dy="6.0">NO.1</tspan></text><text style="&st18;" transform="matrix(&st16;  2003.86  101.49 )">2</text><text style="&st18;" transform="matrix(&st16;  1999.48  86.47 )">2</text><text style="&st18;" transform="matrix(&st16;  1997.62  32.08 )">(BAT)</text><path style="stroke-width:0.85 ;&st7;  " d=" M  2005.66,    69.77  L  2005.66,    78.27  " /><path style="stroke-width:1.42 ;&st7;   " d=" M  2005.66,    47.11  C  2002.93     48.72   2002.02     52.25   2003.63     54.99  " /><path style="stroke-width:1.42 ;&st7;   " d=" M  2003.63,    54.99  C  2004.15     55.87   2004.78     56.51   2005.66     57.03  " /><path style="stroke-width:1.42 ;&st7;   " d=" M  2005.66,    66.94  C  2008.40     65.33   2009.31     61.80   2007.70     59.06  " /><path style="stroke-width:1.42 ;&st7;   " d=" M  2007.70,    59.06  C  2007.18     58.18   2006.55     57.55   2005.66     57.03  " /><path style="stroke-width:0.85 ;&st7;   " d=" M  2007.08,    45.69  C  2007.08     44.91   2006.45     44.28   2005.66     44.28  " /><path style="stroke-width:0.85 ;&st7;   " d=" M  2005.66,    44.28  C  2004.88     44.28   2004.25     44.91   2004.25     45.69  " /><path style="stroke-width:0.85 ;&st7;   " d=" M  2004.25,    45.69  C  2004.25     46.48   2004.88     47.11   2005.66     47.11  " /><path style="stroke-width:0.85 ;&st7;   " d=" M  2005.66,    47.11  C  2006.45     47.11   2007.08     46.48   2007.08     45.69  " /><path style="stroke-width:0.85 ;&st7;   " d=" M  2007.08,    68.36  C  2007.08     67.57   2006.45     66.94   2005.66     66.94  " /><path style="stroke-width:0.85 ;&st7;   " d=" M  2005.66,    66.94  C  2004.88     66.94   2004.25     67.57   2004.25     68.36  " /><path style="stroke-width:0.85 ;&st7;   " d=" M  2004.25,    68.36  C  2004.25     69.14   2004.88     69.77   2005.66     69.77  " /><path style="stroke-width:0.85 ;&st7;   " d=" M  2005.66,    69.77  C  2006.45     69.77   2007.08     69.14   2007.08     68.36  " /><path style="stroke-width:1.42 ;&st7;  " d=" M  1992.92,    35.78  L  1992.92,    78.27  L  2018.41,    78.27  L  2018.41,    35.78  L  1992.92,    35.78  " /></g><g ewd:figtype="rb" ewd:figID="12" ewd:code="FUSE16"><path style="stroke-width:1.42 ;&st7;  " d=" M  1931.30,    95.27  L  1927.05,    95.27  " /><path style="stroke-width:1.42 ;&st7;  " d=" M  1931.30,   103.77  L  1927.05,   103.77  " /><path style="stroke-width:0.85 ;&st7;  " d=" M  1929.18,    78.27  L  1929.18,    95.27  " /><path style="stroke-width:1.42 ;&st7;   " d=" M  1927.05,    95.27  C  1924.71     95.27   1922.80     97.17   1922.80     99.52  " /><path style="stroke-width:1.42 ;&st7;   " d=" M  1922.80,    99.52  C  1922.80    101.87   1924.71    103.77   1927.05    103.77  " /><path style="stroke-width:1.42 ;&st7;   " d=" M  1931.30,   103.77  C  1933.65    103.77   1935.55    101.87   1935.55     99.52  " /><path style="stroke-width:1.42 ;&st7;   " d=" M  1935.55,    99.52  C  1935.55     97.17   1933.65     95.27   1931.30     95.27  " /><path style="stroke-width:0.28 ;&st9;  " d=" M  1929.18,    90.37  L  1926.34,    87.54  L  1926.34,    91.79  L  1929.18,    94.62  L  1932.01,    91.79  L  1932.01,    87.54  L  1929.18,    90.37  " /><text style="&st18;" transform="matrix(&st16;  1945.6  56.17 )">10A <tspan x="0 " dy="6.0">MET</tspan></text><text style="&st18;" transform="matrix(&st16;  1927.38  101.49 )">2</text><text style="&st18;" transform="matrix(&st16;  1922.99  86.47 )">2</text><text style="&st18;" transform="matrix(&st16;  1923.97  32.08 )">(IG)</text><path style="stroke-width:0.85 ;&st7;  " d=" M  1929.18,    69.77  L  1929.18,    78.27  " /><path style="stroke-width:1.42 ;&st7;   " d=" M  1929.18,    47.11  C  1926.44     48.72   1925.53     52.25   1927.14     54.99  " /><path style="stroke-width:1.42 ;&st7;   " d=" M  1927.14,    54.99  C  1927.66     55.87   1928.30     56.51   1929.18     57.03  " /><path style="stroke-width:1.42 ;&st7;   " d=" M  1929.18,    66.94  C  1931.92     65.33   1932.83     61.80   1931.21     59.06  " /><path style="stroke-width:1.42 ;&st7;   " d=" M  1931.21,    59.06  C  1930.69     58.18   1930.06     57.55   1929.18     57.03  " /><path style="stroke-width:0.85 ;&st7;   " d=" M  1930.59,    45.69  C  1930.59     44.91   1929.96     44.28   1929.18     44.28  " /><path style="stroke-width:0.85 ;&st7;   " d=" M  1929.18,    44.28  C  1928.40     44.28   1927.76     44.91   1927.76     45.69  " /><path style="stroke-width:0.85 ;&st7;   " d=" M  1927.76,    45.69  C  1927.76     46.48   1928.40     47.11   1929.18     47.11  " /><path style="stroke-width:0.85 ;&st7;   " d=" M  1929.18,    47.11  C  1929.96     47.11   1930.59     46.48   1930.59     45.69  " /><path style="stroke-width:0.85 ;&st7;   " d=" M  1930.59,    68.36  C  1930.59     67.57   1929.96     66.94   1929.18     66.94  " /><path style="stroke-width:0.85 ;&st7;   " d=" M  1929.18,    66.94  C  1928.40     66.94   1927.76     67.57   1927.76     68.36  " /><path style="stroke-width:0.85 ;&st7;   " d=" M  1927.76,    68.36  C  1927.76     69.14   1928.40     69.77   1929.18     69.77  " /><path style="stroke-width:0.85 ;&st7;   " d=" M  1929.18,    69.77  C  1929.96     69.77   1930.59     69.14   1930.59     68.36  " /><path style="stroke-width:1.42 ;&st7;  " d=" M  1916.43,    35.78  L  1916.43,    78.27  L  1941.92,    78.27  L  1941.92,    35.78  L  1916.43,    35.78  " /></g><g ewd:figtype="w2w" ewd:figID="31" ewd:code="CA2"><path style="stroke-width:1.42 ;&st7;  " d=" M  1763.45,   574.02  L  1759.21,   578.27  L  1754.96,   574.02  " /><path style="stroke-width:1.42 ;&st7;  " d=" M  1754.96,   570.62  L  1759.21,   574.87  L  1763.45,   570.62  " /><text style="&st18;" transform="matrix(&st16;  1746.57  585.91 )">3</text></g><g ewd:figtype="w2w" ewd:figID="32" ewd:code="IL1"><path style="stroke-width:1.42 ;&st7;  " d=" M  1771.95,   129.83  L  1767.70,   125.58  L  1763.45,   129.83  " /><path style="stroke-width:1.42 ;&st7;  " d=" M  1771.95,   126.43  L  1767.70,   122.18  L  1763.45,   126.43  " /><text style="&st18;" transform="matrix(&st16;  1751.97  118.49 )">28</text></g><g ewd:figtype="w2w" ewd:figID="33" ewd:code="AC1"><path style="stroke-width:1.42 ;&st7;  " d=" M  1814.45,   593.85  L  1810.20,   589.60  L  1805.95,   593.85  " /><path style="stroke-width:1.42 ;&st7;  " d=" M  1814.45,   597.25  L  1810.20,   593.00  L  1805.95,   597.25  " /><text style="&st18;" transform="matrix(&st16;  1797.57  585.91 )">1</text></g><g ewd:code="AI3" ewd:figID="34" ewd:comment="6" ewd:figtype="w2w"><text style="&st18;" transform="matrix(&st16;  1794.46  526.42 )">55</text><g ewd:code="" ewd:figID="81" ewd:comment="6" ewd:figtype="commref"><text style="&st18;" transform="matrix(&st16;  1819.23  526.42 )">(*6)</text></g></g><g ewd:code="AI3" ewd:figID="35" ewd:comment="2" ewd:figtype="w2w"><text style="&st18;" transform="matrix(&st16;  1794.46  517.92 )">22</text><g ewd:code="" ewd:figID="79" ewd:comment="2" ewd:figtype="commref"><text style="&st18;" transform="matrix(&st16;  1819.23  517.92 )">(RHD *2)</text></g></g><g ewd:code="AI3" ewd:figID="36" ewd:comment="2" ewd:figtype="w2w"><path style="stroke-width:1.42 ;&st7;  " d=" M  1805.95,   494.14  L  1810.20,   498.39  L  1814.45,   494.14  " /><path style="stroke-width:1.42 ;&st7;  " d=" M  1814.45,   497.54  L  1810.20,   501.78  L  1805.95,   497.54  " /><text style="&st18;" transform="matrix(&st16;  1794.46  509.42 )">45</text><g ewd:code="" ewd:figID="80" ewd:comment="2" ewd:figtype="commref"><text style="&st18;" transform="matrix(&st16;  1819.23  509.42 )">(LHD *2)</text></g></g><g ewd:figtype="w2w" ewd:figID="37" ewd:code="IL1"><path style="stroke-width:1.42 ;&st7;  " d=" M  1814.45,   395.55  L  1810.20,   399.80  L  1805.95,   395.55  " /><path style="stroke-width:1.42 ;&st7;  " d=" M  1805.95,   392.15  L  1810.20,   396.40  L  1814.45,   392.15  " /><text style="&st18;" transform="matrix(&st16;  1794.46  407.44 )">26</text></g><g ewd:figtype="w2w" ewd:figID="38" ewd:code="AC5"><path style="stroke-width:1.42 ;&st7;  " d=" M  1899.43,   605.75  L  1895.18,   601.50  L  1890.93,   605.75  " /><path style="stroke-width:1.42 ;&st7;  " d=" M  1899.43,   602.35  L  1895.18,   598.10  L  1890.93,   602.35  " /><text style="&st18;" transform="matrix(&st16;  1882.55  594.41 )">9</text><g ewd:code="" ewd:figID="63" ewd:comment="" ewd:figtype="commref"><text style="&st18;" transform="matrix(&st16;  1904.21  594.41 )">(RHD)</text></g></g><g ewd:figtype="w2w" ewd:figID="39" ewd:code="IC2"><text style="&st18;" transform="matrix(&st16;  1882.55  585.91 )">9</text><g ewd:code="" ewd:figID="62" ewd:comment="" ewd:figtype="commref"><text style="&st18;" transform="matrix(&st16;  1904.21  585.91 )">(LHD)</text></g></g><g ewd:figtype="w2w" ewd:figID="40" ewd:code="AI3"><path style="stroke-width:1.42 ;&st7;  " d=" M  1941.92,   497.54  L  1937.68,   501.78  L  1933.43,   497.54  " /><path style="stroke-width:1.42 ;&st7;  " d=" M  1933.43,   494.14  L  1937.68,   498.39  L  1941.92,   494.14  " /><text style="&st18;" transform="matrix(&st16;  1921.94  509.42 )">56</text></g><g ewd:figtype="w2w" ewd:figID="41" ewd:code="IL1"><path style="stroke-width:1.42 ;&st7;  " d=" M  2009.91,   172.32  L  2005.66,   168.07  L  2001.41,   172.32  " /><path style="stroke-width:1.42 ;&st7;  " d=" M  2009.91,   168.92  L  2005.66,   164.67  L  2001.41,   168.92  " /><text style="&st18;" transform="matrix(&st16;  1989.93  160.98 )">59</text></g><g ewd:figtype="gp" ewd:figID="44" ewd:code="CE"><path style="stroke-width:0.85 ;&st7;  " d=" M  1757.79,   710.00  L  1760.62,   710.00  " /><path style="stroke-width:0.85 ;&st7;  " d=" M  1756.37,   707.17  L  1762.04,   707.17  " /><path style="stroke-width:0.85 ;&st7;  " d=" M  1754.96,   704.33  L  1763.45,   704.33  " /><path style="stroke-width:0.85 ;&st7;  " d=" M  1750.71,   701.50  L  1767.70,   701.50  " /><path style="stroke-width:0.85 ;&st7;  " d=" M  1759.21,   697.25  L  1759.21,   701.50  " /></g><g ewd:figtype="gp" ewd:figID="45" ewd:code="CC"><path style="stroke-width:0.85 ;&st7;  " d=" M  1808.78,   710.00  L  1811.61,   710.00  " /><path style="stroke-width:0.85 ;&st7;  " d=" M  1807.36,   707.17  L  1813.03,   707.17  " /><path style="stroke-width:0.85 ;&st7;  " d=" M  1805.95,   704.33  L  1814.45,   704.33  " /><path style="stroke-width:0.85 ;&st7;  " d=" M  1801.70,   701.50  L  1818.70,   701.50  " /><path style="stroke-width:0.85 ;&st7;  " d=" M  1810.20,   697.25  L  1810.20,   701.50  " /></g><g ewd:figtype="gp" ewd:figID="46" ewd:code="CA"><path style="stroke-width:0.85 ;&st7;  " d=" M  1893.77,   710.00  L  1896.60,   710.00  " /><path style="stroke-width:0.85 ;&st7;  " d=" M  1892.35,   707.17  L  1898.02,   707.17  " /><path style="stroke-width:0.85 ;&st7;  " d=" M  1890.93,   704.33  L  1899.43,   704.33  " /><path style="stroke-width:0.85 ;&st7;  " d=" M  1886.68,   701.50  L  1903.68,   701.50  " /><path style="stroke-width:0.85 ;&st7;  " d=" M  1895.18,   697.25  L  1895.18,   701.50  " /></g><g ewd:code="1" ewd:figID="56" ewd:comment="" ewd:figtype="comment"><text style="&st18;" transform="matrix(&st16;  1645.32  54.75 )">* 1 :1GR-FE</text></g><g ewd:code="2" ewd:figID="57" ewd:comment="" ewd:figtype="comment"><text style="&st18;" transform="matrix(&st16;  1645.32  63.24 )">* 2 :1HZ</text></g><g ewd:code="6" ewd:figID="82" ewd:comment="" ewd:figtype="comment"><text style="&st18;" transform="matrix(&st16;  1645.32  71.74 )">* 6 :1VD-FTV</text></g></svg>