<?xml version="1.0" encoding="utf-8"?>
<!DOCTYPE svg PUBLIC "-//W3C//DTD SVG 1.0//EN" "http://www.w3.org/TR/2001/REC-SVG-20010904/DTD/svg10.dtd"[
	<!ENTITY ns_flows "http://ns.adobe.com/Flows/1.0/">
	<!ENTITY ns_svg "http://www.w3.org/2000/svg">
	<!ENTITY ns_xlink "http://www.w3.org/1999/xlink">
	<!ENTITY st0 "font-size:7px;font-family:'MS-PGothic';adobe-font-script:japanese;">
	<!ENTITY st1 "font-size:6px;font-family:'ArialMT';">
	<!-- White fill  -->
	<!ENTITY st2 "fill:#FFFFFF;stroke:#000000; stroke-width:1.41;stroke-linecap:round;stroke-linejoin:round;">
	<!-- Yellow fill  -->
	<!ENTITY st3 "fill:#FFFFCC;stroke:#FFFFCC; stroke-width:0.1;stroke-linecap:round;stroke-linejoin:round;">
	<!-- Gray fill  -->
	<!ENTITY st4 "fill:#CCCCCC;stroke:#CCCCCC; stroke-width:0.1;stroke-linecap:round;stroke-linejoin:round;">
	<!-- Light-blue fill -->
	<!ENTITY st5 "fill:#CCECF4;stroke:#000000; stroke-width:1.133;stroke-linecap:round;stroke-linejoin:round;">
	<!ENTITY st6 "fill:none;stroke-linecap:butt; stroke-linejoin:round;">
	<!ENTITY st7 "fill:none;stroke:#000000;stroke-linecap:round;stroke-linejoin:round;">
	<!ENTITY st8 "enable-background:new    ;">
	<!-- Black fill -->
	<!ENTITY st9 "fill:#000000;stroke:#000000; stroke-linecap:round;stroke-linejoin:round;">
	<!-- SRS note   -->
	<!ENTITY st10 "font-size:9px;font-family:'ArialMT';">
	<!ENTITY st11 "font-size:9px;font-family:'Svg Symbol';">
	<!ENTITY st12 "font-size:6px;font-family:'Svg Symbol';">
	<!ENTITY st13 "fill:none;stroke:#ff0000;stroke-linecap:round;stroke-linejoin:round;">
	<!-- Yellow fill  -->
	<!ENTITY st14 "fill:#FFFF00;stroke:#FFFF00; stroke-width:0.1;stroke-linecap:round;stroke-linejoin:round;">
	<!ENTITY st15 "font-size:6px;font-family:'MS-PGothic';adobe-font-script:japanese;">
	<!ENTITY st16 "1.00 0.00 0.00 1.00">
	<!ENTITY st17 "0.00 -1.00 1.00 0.00">
	<!ENTITY st18 "font-size:6px;font-family:'Arial';">
	<!ENTITY st19 "font-size:9px;font-family:'Arial';">
	<!ENTITY st20 "font-size:6px;font-family:'MS-PGothic','MS PGothic';adobe-font-script:japanese;">
	<!ENTITY st21 "font-size:7px;font-family:'MS-PGothic','MS PGothic';adobe-font-script:japanese;">
	<!ATTLIST svg
		xmlns:ewd CDATA #FIXED "http://shcl.co.jp/ewd"
		xmlns:a CDATA #FIXED "http://ns.adobe.com/AdobeSVGViewerExtensions/3.0/"
		ewd:ver CDATA #IMPLIED
	>
	<!ATTLIST a
		ewd:lineID CDATA #IMPLIED
		ewd:groupID CDATA #IMPLIED
		ewd:figtype CDATA #IMPLIED
		ewd:code CDATA #IMPLIED
		ewd:figID CDATA #IMPLIED
		ewd:pinNo CDATA #IMPLIED
		ewd:comment CDATA #IMPLIED >
	<!ATTLIST g
		ewd:lineID CDATA #IMPLIED
		ewd:groupID CDATA #IMPLIED
		ewd:figtype CDATA #IMPLIED
		ewd:code CDATA #IMPLIED
		ewd:figID CDATA #IMPLIED
		ewd:pinNo CDATA #IMPLIED
		ewd:comment CDATA #IMPLIED >
	<!ATTLIST text
		ewd:textID CDATA #IMPLIED >
	<!ATTLIST title
		ewd:textID CDATA #IMPLIED >
]>
<!-- Generator: Shintec Hozumi YS   -->
<svg onload="call_execInitLoadProc_svg('system')" style="overflow:visible;  enable-background:new 0 0 973.931 710.000" viewBox="0 0 973.931 710.000" height="710.000" width="973.931" xml:space="preserve" ewd:ver="2.1.2.9" xmlns="&ns_svg;" xmlns:a="http://ns.adobe.com/AdobeSVGViewerExtensions/3.0/" xmlns:ewd="http://shcl.co.jp/ewd" xmlns:xlink="&ns_xlink;"><script type="text/javascript" xlink:href="../../../../../system/js/ewd/fig/svgfig.js" xmlns:xlink="http://www.w3.org/1999/xlink" />
<g id="ewd_top"><a ewd:figtype="rb" style="cursor:pointer;" ewd:code="FUSE3" ewd:figID="1"><path style="fill:#CCECF4;stroke:#000000; stroke-width:0; stroke-linecap:round;stroke-linejoin:round; " d=" M   794.62,    35.78  L   794.62,    78.27  L   820.11,    78.27  L   820.11,    35.78  L   794.62,    35.78 " /></a><a ewd:figtype="conn" style="cursor:pointer;" ewd:code="I59,I70" ewd:figID="2"><path style="fill:#CCECF4;stroke:#000000; stroke-width:1.133; stroke-linecap:round;stroke-linejoin:round; " d=" M   577.90,    78.27  L   577.90,    95.27  L   747.88,    95.27  L   747.88,    78.27  L   577.90,    78.27 " /><title ewd:textID="4">No. 10 Junction Connector , No. 19 Junction Connector</title></a><a ewd:figtype="rb" style="cursor:pointer;" ewd:code="FUSE55" ewd:figID="3"><path style="fill:#CCECF4;stroke:#000000; stroke-width:0; stroke-linecap:round;stroke-linejoin:round; " d=" M   267.71,    35.78  L   267.71,    78.27  L   293.20,    78.27  L   293.20,    35.78  L   267.71,    35.78 " /></a><a ewd:figtype="rb" style="cursor:pointer;" ewd:code="1" ewd:figID="4"><path style="fill:#CCECF4;stroke:#000000; stroke-width:0; stroke-linecap:round;stroke-linejoin:round; " d=" M   348.44,   290.74  L   305.95,   290.74  L   305.95,   324.73  L   348.44,   324.73  L   348.44,   290.74 " /></a><a ewd:figtype="conn" style="cursor:pointer;" ewd:code="A22" ewd:figID="5"><path style="fill:#CCECF4;stroke:#000000; stroke-width:1.133; stroke-linecap:round;stroke-linejoin:round; " d=" M   441.93,   511.70  L   441.93,   528.70  L   458.92,   528.70  L   458.92,   511.70  L   441.93,   511.70 " /><title ewd:textID="2">No. 1 Junction Connector</title></a><a ewd:figtype="conn" style="cursor:pointer;" ewd:code="D2,D3,D6,D7" ewd:figID="6"><path style="fill:#CCECF4;stroke:#000000; stroke-width:1.133; stroke-linecap:round;stroke-linejoin:round; " d=" M   229.46,   630.68  L   331.44,   630.68  L   331.44,   596.69  L   229.46,   596.69  L   229.46,   630.68 " /><title ewd:textID="7">Starter Assembly</title></a><a ewd:figtype="conn" style="cursor:pointer;" ewd:code="A36,D8,D9" ewd:figID="7"><path style="fill:#CCECF4;stroke:#000000; stroke-width:1.133; stroke-linecap:round;stroke-linejoin:round; " d=" M    93.48,   486.20  L   152.97,   486.20  L   152.97,   545.69  L    93.48,   545.69  L    93.48,   486.20 " /><title ewd:textID="1">Battery (Main)</title></a><a ewd:figtype="conn" style="cursor:pointer;" ewd:code="A29,I84" ewd:figID="8"><path style="fill:#CCECF4;stroke:#000000; stroke-width:1.133; stroke-linecap:round;stroke-linejoin:round; " d=" M   637.39,   341.73  L   637.39,   375.72  L   671.39,   375.72  L   671.39,   341.73  L   637.39,   341.73 " /><title>ECM</title></a><a ewd:figtype="fuse" style="cursor:pointer;" ewd:code="FUSE55" ewd:figID="24"><path style="&st7; stroke-width:0;" d=" M   267.71,    35.78  L   267.71,    78.27  L   293.20,    78.27  L   293.20,    35.78  L   267.71,    35.78 " /></a><a ewd:figtype="fuse" style="cursor:pointer;" ewd:code="FUSE3" ewd:figID="25"><path style="&st7; stroke-width:0;" d=" M   794.62,    35.78  L   794.62,    78.27  L   820.11,    78.27  L   820.11,    35.78  L   794.62,    35.78 " /></a><a ewd:comment="1" style="cursor:pointer;" ewd:lineID="1"><path style="stroke:#000000;stroke-width:5.10 ;&st6;" d=" M   101.98,   554.76  L   101.98,   562.69  L    93.48,   571.19  L    76.49,   571.19  L    76.49,   664.67  L    93.48,   664.67  L   101.98,   673.17  L   101.98,   681.67  " /></a><a ewd:comment="2" style="cursor:pointer;" ewd:lineID="2"><path style="stroke:#000000;stroke-width:5.10 ;&st6;" d=" M   101.98,   554.76  L   101.98,   681.67  " /><path style="stroke:#FFFFFF;stroke-width:2.27 ;&st6;" d=" M   101.98,   554.76  L   101.98,   681.67  " /><path style="stroke:#666666;stroke-width:1.13 ;&st6;" d=" M   101.98,   554.76  L   101.98,   681.67  " /></a><a style="cursor:pointer;" ewd:lineID="3"><path style="stroke:#000000;stroke-width:5.10 ;&st6;" d=" M   135.98,   554.76  L   135.98,   681.67  " /><path style="stroke:#FFFFFF;stroke-width:2.27 ;&st6;" d=" M   135.98,   554.76  L   135.98,   681.67  " /><path style="stroke:#666666;stroke-width:1.13 ;&st6;" d=" M   135.98,   554.76  L   135.98,   681.67  " /></a><a style="cursor:pointer;" ewd:lineID="4"><path style="stroke:#000000;stroke-width:5.10 ;&st6;" d=" M   246.46,   578.56  L   246.46,   452.21  L   135.98,   452.21  L   135.98,   477.14  " /></a><a ewd:comment="1" style="cursor:pointer;" ewd:lineID="5"><path style="stroke:#000000;stroke-width:5.10 ;&st6;" d=" M   280.45,   443.71  L   280.45,   562.12  L   305.95,   562.12  L   314.45,   570.62  L   314.45,   578.56  " /></a><a ewd:comment="1" style="cursor:pointer;" ewd:lineID="6"><path style="stroke:#000000;stroke-width:5.10 ;&st6;" d=" M   280.45,   428.98  L   280.45,   375.72  L   305.95,   375.72  L   314.45,   367.22  L   314.45,   358.73  " /><path style="stroke:#FFFFFF;stroke-width:1.13 ;&st6;" d=" M   280.45,   428.98  L   280.45,   375.72  L   305.95,   375.72  L   314.45,   367.22  L   314.45,   358.73  " /></a><a style="cursor:pointer;" ewd:lineID="7"><path style="stroke:#00A0C6;stroke-width:5.10 ;&st6;" d=" M   280.45,   137.76  L   280.45,   103.77  " /></a><a ewd:comment="2" style="cursor:pointer;" ewd:lineID="8"><path style="stroke:#000000;stroke-width:5.10 ;&st6;" d=" M   314.45,   500.93  L   314.45,   578.56  " /><path style="stroke:#FFFFFF;stroke-width:1.13 ;&st6;" d=" M   314.45,   500.93  L   314.45,   578.56  " /></a><a ewd:comment="2" style="cursor:pointer;" ewd:lineID="9"><path style="stroke:#000000;stroke-width:5.10 ;&st6;" d=" M   314.45,   449.94  L   314.45,   486.20  " /><path style="stroke:#FFFFFF;stroke-width:1.13 ;&st6;" d=" M   314.45,   449.94  L   314.45,   486.20  " /></a><a ewd:comment="2" style="cursor:pointer;" ewd:lineID="10"><path style="stroke:#000000;stroke-width:5.10 ;&st6;" d=" M   314.45,   358.73  L   314.45,   435.21  " /><path style="stroke:#FFFFFF;stroke-width:1.13 ;&st6;" d=" M   314.45,   358.73  L   314.45,   435.21  " /></a><a style="cursor:pointer;" ewd:lineID="11"><path style="stroke:#00A0C6;stroke-width:5.10 ;&st6;" d=" M   314.45,   256.74  L   314.45,   222.75  L   280.45,   222.75  L   280.45,   154.76  " /></a><a style="cursor:pointer;" ewd:lineID="12"><path style="stroke:#000000;stroke-width:5.10 ;&st6;" d=" M   339.94,   358.73  L   339.94,   384.22  L   450.42,   384.22  L   450.42,   502.63  " /><path style="stroke:#FFFFFF;stroke-width:4.53 ;&st6;" d=" M   339.94,   358.73  L   339.94,   384.22  L   450.42,   384.22  L   450.42,   502.63  " /><path style="stroke:#000000;stroke-width:1.13 ;&st6;" d=" M   339.94,   358.73  L   339.94,   384.22  L   450.42,   384.22  L   450.42,   502.63  " /></a><a ewd:comment="1" style="cursor:pointer;" ewd:lineID="13"><path style="stroke:#000000;stroke-width:5.10 ;&st6;" d=" M   339.94,   256.74  L   339.94,   214.25  " /><path style="stroke:#FFFFFF;stroke-width:1.13 ;&st6;" d=" M   339.94,   256.74  L   339.94,   214.25  " /></a><a ewd:comment="2" style="cursor:pointer;" ewd:lineID="14"><path style="stroke:#000000;stroke-width:5.10 ;&st6;" d=" M   339.94,   256.74  L   339.94,   248.24  L   348.44,   239.75  L   611.90,   239.75  L   611.90,   205.75  L   594.90,   205.75  L   586.40,   197.25  L   586.40,   188.75  " /><path style="stroke:#FFFFFF;stroke-width:1.13 ;&st6;" d=" M   339.94,   256.74  L   339.94,   248.24  L   348.44,   239.75  L   611.90,   239.75  L   611.90,   205.75  L   594.90,   205.75  L   586.40,   197.25  L   586.40,   188.75  " /></a><a ewd:comment="1" style="cursor:pointer;" ewd:lineID="15"><path style="stroke:#000000;stroke-width:5.10 ;&st6;" d=" M   348.44,   205.75  L   586.40,   205.75  L   586.40,   188.75  " /><path style="stroke:#FFFFFF;stroke-width:1.13 ;&st6;" d=" M   348.44,   205.75  L   586.40,   205.75  L   586.40,   188.75  " /></a><a style="cursor:pointer;" ewd:lineID="16"><path style="stroke:#000000;stroke-width:5.10 ;&st6;" d=" M   450.42,   546.83  L   450.42,   681.67  " /><path style="stroke:#FFFFFF;stroke-width:4.53 ;&st6;" d=" M   450.42,   546.83  L   450.42,   681.67  " /><path style="stroke:#000000;stroke-width:1.13 ;&st6;" d=" M   450.42,   546.83  L   450.42,   681.67  " /></a><a style="cursor:pointer;" ewd:lineID="17"><path style="stroke:#000000;stroke-width:5.10 ;&st6;" d=" M   586.40,   165.52  L   586.40,   113.40  " /><path style="stroke:#FFFFFF;stroke-width:1.13 ;&st6;" d=" M   586.40,   165.52  L   586.40,   113.40  " /></a><a ewd:comment="5" style="cursor:pointer;" ewd:lineID="18"><path style="stroke:#000000;stroke-width:5.10 ;&st6;" d=" M   654.39,   188.75  L   654.39,   323.60  " /><path style="stroke:#FFFFFF;stroke-width:1.13 ;&st6;" d=" M   654.39,   188.75  L   654.39,   323.60  " /></a><a ewd:comment="3" style="cursor:pointer;" ewd:lineID="19"><path style="stroke:#000000;stroke-width:5.10 ;&st6;" d=" M   654.39,   113.40  L   654.39,   120.77  L   662.89,   129.26  L   713.88,   129.26  L   713.88,   307.73  L   662.89,   307.73  L   654.39,   315.67  L   654.39,   323.60  " /><path style="stroke:#FFFFFF;stroke-width:1.13 ;&st6;" d=" M   654.39,   113.40  L   654.39,   120.77  L   662.89,   129.26  L   713.88,   129.26  L   713.88,   307.73  L   662.89,   307.73  L   654.39,   315.67  L   654.39,   323.60  " /></a><a ewd:comment="5" style="cursor:pointer;" ewd:lineID="20"><path style="stroke:#000000;stroke-width:5.10 ;&st6;" d=" M   654.39,   113.40  L   654.39,   165.24  " /><path style="stroke:#FFFFFF;stroke-width:1.13 ;&st6;" d=" M   654.39,   113.40  L   654.39,   165.24  " /></a><a style="cursor:pointer;" ewd:lineID="21"><path style="stroke:#000000;stroke-width:5.10 ;&st6;" d=" M   807.37,   103.77  L   807.37,   163.26  L   739.38,   163.26  L   739.38,   113.40  " /><path style="stroke:#FFFFFF;stroke-width:1.13 ;&st6;" d=" M   807.37,   103.77  L   807.37,   163.26  L   739.38,   163.26  L   739.38,   113.40  " /></a><a ewd:figtype="w2w" style="cursor:pointer;" ewd:pinNo="3" ewd:code="DA1" ewd:figID="12"><path style="&st2;" d=" M   288.95,   435.21  L   271.95,   435.21  L   271.95,   443.71  L   288.95,   443.71  L   288.95,   435.21 " /><text style="&st8;" transform="matrix(&st16;  274.88  441.58 )"><tspan x="0" style="&st18;" y="0">DA1</tspan></text></a><a ewd:figtype="w2w" style="cursor:pointer;" ewd:pinNo="1" ewd:code="CD1" ewd:figID="13"><path style="&st2;" d=" M   322.95,   486.20  L   305.95,   486.20  L   305.95,   494.70  L   322.95,   494.70  L   322.95,   486.20 " /><text style="&st8;" transform="matrix(&st16;  308.77  492.57 )"><tspan x="0" style="&st18;" y="0">CD1</tspan></text></a><a ewd:figtype="w2w" style="cursor:pointer;" ewd:pinNo="2" ewd:code="AC11" ewd:figID="14"><path style="&st2;" d=" M   322.95,   435.21  L   305.95,   435.21  L   305.95,   443.71  L   322.95,   443.71  L   322.95,   435.21 " /><text style="&st8;" transform="matrix(&st16;  307.34  441.58 )"><tspan x="0" style="&st18;" y="0">AC11</tspan></text></a><a ewd:figtype="w2w" style="cursor:pointer;" ewd:pinNo="34" ewd:code="AI3" ewd:figID="15"><path style="&st2;" d=" M   594.90,   180.26  L   577.90,   180.26  L   577.90,   188.75  L   594.90,   188.75  L   594.90,   180.26 " /><text style="&st8;" transform="matrix(&st16;  582.04  186.62 )"><tspan x="0" style="&st18;" y="0">AI3</tspan></text></a><a ewd:figtype="w2w" style="cursor:pointer;" ewd:pinNo="7" ewd:code="AI3" ewd:figID="16"><path style="&st2;" d=" M   594.90,   171.76  L   577.90,   171.76  L   577.90,   180.26  L   594.90,   180.26  L   594.90,   171.76 " /><text style="&st8;" transform="matrix(&st16;  582.04  178.13 )"><tspan x="0" style="&st18;" y="0">AI3</tspan></text></a><a ewd:figtype="w2w" style="cursor:pointer;" ewd:pinNo="46" ewd:code="AI3" ewd:figID="17"><path style="&st2;" d=" M   662.89,   180.26  L   645.89,   180.26  L   645.89,   188.75  L   662.89,   188.75  L   662.89,   180.26 " /><text style="&st8;" transform="matrix(&st16;  650.03  186.62 )"><tspan x="0" style="&st18;" y="0">AI3</tspan></text></a><a ewd:figtype="w2w" style="cursor:pointer;" ewd:pinNo="29" ewd:code="AI3" ewd:figID="18"><path style="&st2;" d=" M   662.89,   171.76  L   645.89,   171.76  L   645.89,   180.26  L   662.89,   180.26  L   662.89,   171.76 " /><text style="&st8;" transform="matrix(&st16;  650.03  178.13 )"><tspan x="0" style="&st18;" y="0">AI3</tspan></text></a><a ewd:figtype="gp" style="cursor:pointer;" ewd:code="DA" ewd:figID="19"><path style="&st2;" d=" M    91.36,   681.67  L   112.61,   681.67  L   101.98,   697.25  L    91.36,   681.67 " /><text style="&st8;" transform="matrix(&st16;  97.92  689.46 )"><tspan x="0" style="&st18;" y="0">DA</tspan></text></a><a ewd:figtype="gp" style="cursor:pointer;" ewd:code="AC" ewd:figID="20"><path style="&st2;" d=" M   125.35,   681.67  L   146.60,   681.67  L   135.98,   697.25  L   125.35,   681.67 " /><text style="&st8;" transform="matrix(&st16;  131.88  689.46 )"><tspan x="0" style="&st18;" y="0">AC</tspan></text></a><a ewd:figtype="gp" style="cursor:pointer;" ewd:code="AA" ewd:figID="21"><path style="&st2;" d=" M   439.80,   681.67  L   461.05,   681.67  L   450.42,   697.25  L   439.80,   681.67 " /><text style="&st8;" transform="matrix(&st16;  446.44  689.46 )"><tspan x="0" style="&st18;" y="0">AA</tspan></text></a><a ewd:figtype="sp" style="cursor:pointer;" ewd:code="SP4" ewd:figID="22"><path style="&st2;" d=" M   276.20,   137.76  L   284.70,   137.76  L   288.95,   142.01  L   288.95,   150.51  L   284.70,   154.76  L   276.20,   154.76  L   271.95,   150.51  L   271.95,   142.01  L   276.20,   137.76 " /></a><a ewd:figtype="sp" style="cursor:pointer;" ewd:code="SP2" ewd:figID="23"><path style="&st2;" d=" M   335.69,   197.25  L   344.19,   197.25  L   348.44,   201.50  L   348.44,   210.00  L   344.19,   214.25  L   335.69,   214.25  L   331.44,   210.00  L   331.44,   201.50  L   335.69,   197.25 " /></a></g></svg>