<?xml version="1.0" encoding="utf-8"?>
<!DOCTYPE svg PUBLIC "-//W3C//DTD SVG 1.0//EN" "http://www.w3.org/TR/2001/REC-SVG-20010904/DTD/svg10.dtd"[
	<!ENTITY ns_flows "http://ns.adobe.com/Flows/1.0/">
	<!ENTITY ns_svg "http://www.w3.org/2000/svg">
	<!ENTITY ns_xlink "http://www.w3.org/1999/xlink">
	<!ENTITY st0 "font-size:7px;font-family:'MS-PGothic';adobe-font-script:japanese;">
	<!ENTITY st1 "font-size:6px;font-family:'ArialMT';">
	<!-- White fill  -->
	<!ENTITY st2 "fill:#FFFFFF;stroke:#000000; stroke-width:1.41;stroke-linecap:round;stroke-linejoin:round;">
	<!-- Yellow fill  -->
	<!ENTITY st3 "fill:#FFFFCC;stroke:#FFFFCC; stroke-width:0.1;stroke-linecap:round;stroke-linejoin:round;">
	<!-- Gray fill  -->
	<!ENTITY st4 "fill:#CCCCCC;stroke:#CCCCCC; stroke-width:0.1;stroke-linecap:round;stroke-linejoin:round;">
	<!-- Light-blue fill -->
	<!ENTITY st5 "fill:#CCECF4;stroke:#000000; stroke-width:1.133;stroke-linecap:round;stroke-linejoin:round;">
	<!ENTITY st6 "fill:none;stroke-linecap:butt; stroke-linejoin:round;">
	<!ENTITY st7 "fill:none;stroke:#000000;stroke-linecap:round;stroke-linejoin:round;">
	<!ENTITY st8 "enable-background:new    ;">
	<!-- Black fill -->
	<!ENTITY st9 "fill:#000000;stroke:#000000; stroke-linecap:round;stroke-linejoin:round;">
	<!-- SRS note   -->
	<!ENTITY st10 "font-size:9px;font-family:'ArialMT';">
	<!ENTITY st11 "font-size:9px;font-family:'Svg Symbol';">
	<!ENTITY st12 "font-size:6px;font-family:'Svg Symbol';">
	<!ENTITY st13 "fill:none;stroke:#ff0000;stroke-linecap:round;stroke-linejoin:round;">
	<!-- Yellow fill  -->
	<!ENTITY st14 "fill:#FFFF00;stroke:#FFFF00; stroke-width:0.1;stroke-linecap:round;stroke-linejoin:round;">
	<!ENTITY st15 "font-size:6px;font-family:'MS-PGothic';adobe-font-script:japanese;">
	<!ENTITY st16 "1.00 0.00 0.00 1.00">
	<!ENTITY st17 "0.00 -1.00 1.00 0.00">
	<!ENTITY st18 "font-size:6px;font-family:'Arial';">
	<!ENTITY st19 "font-size:9px;font-family:'Arial';">
	<!ENTITY st20 "font-size:6px;font-family:'MS-PGothic','MS PGothic';adobe-font-script:japanese;">
	<!ENTITY st21 "font-size:7px;font-family:'MS-PGothic','MS PGothic';adobe-font-script:japanese;">
	<!ATTLIST svg
		xmlns:ewd CDATA #FIXED "http://shcl.co.jp/ewd"
		xmlns:a CDATA #FIXED "http://ns.adobe.com/AdobeSVGViewerExtensions/3.0/"
		ewd:ver CDATA #IMPLIED
	>
	<!ATTLIST a
		ewd:lineID CDATA #IMPLIED
		ewd:groupID CDATA #IMPLIED
		ewd:figtype CDATA #IMPLIED
		ewd:code CDATA #IMPLIED
		ewd:figID CDATA #IMPLIED
		ewd:pinNo CDATA #IMPLIED
		ewd:comment CDATA #IMPLIED >
	<!ATTLIST g
		ewd:lineID CDATA #IMPLIED
		ewd:groupID CDATA #IMPLIED
		ewd:figtype CDATA #IMPLIED
		ewd:code CDATA #IMPLIED
		ewd:figID CDATA #IMPLIED
		ewd:pinNo CDATA #IMPLIED
		ewd:comment CDATA #IMPLIED >
	<!ATTLIST text
		ewd:textID CDATA #IMPLIED >
	<!ATTLIST title
		ewd:textID CDATA #IMPLIED >
]>
<!-- Generator: Shintec Hozumi YS   -->
<svg onload="call_execInitLoadProc_svg('system')" style="overflow:visible;  enable-background:new 0 0 1541.615 710.000" viewBox="0 0 1541.615 710.000" height="710.000" width="1541.615" xml:space="preserve" ewd:ver="2.1.2.9" xmlns="&ns_svg;" xmlns:a="http://ns.adobe.com/AdobeSVGViewerExtensions/3.0/" xmlns:ewd="http://shcl.co.jp/ewd" xmlns:xlink="&ns_xlink;">
<path style="stroke-width:1.42 ;&st7;  " d=" M  1189.80,   299.24  L  1198.30,   299.24  " /><path style="stroke-width:1.42 ;&st7;  " d=" M  1189.80,   358.73  L  1198.30,   358.73  " /><path style="stroke-width:1.42 ;&st7;  " d=" M  1206.80,   562.69  L  1198.30,   562.69  " /><path style="stroke-width:1.42 ;&st7;  " d=" M  1206.80,   508.17  L  1201.83,   503.20  " /><path style="stroke-width:1.42 ;&st7;  " d=" M  1189.80,   515.23  L  1194.77,   520.20  " /><path style="stroke-width:1.42 ;&st7;  " d=" M  1201.83,   520.20  L  1206.80,   515.23  " /><path style="stroke-width:1.42 ;&st7;  " d=" M  1194.77,   503.20  L  1189.80,   508.17  " /><path style="stroke-width:1.42 ;&st7;  " d=" M  1271.26,   596.69  L  1266.29,   601.66  " /><path style="stroke-width:1.42 ;&st7;  " d=" M  1278.31,   613.68  L  1283.29,   608.71  " /><path style="stroke-width:1.42 ;&st7;  " d=" M  1266.29,   608.71  L  1271.26,   613.68  " /><path style="stroke-width:1.42 ;&st7;  " d=" M  1283.29,   601.66  L  1278.31,   596.69  " /><path style="stroke-width:1.42 ;&st7;  " d=" M  1359.77,   627.15  L  1354.80,   622.18  " /><path style="stroke-width:1.42 ;&st7;  " d=" M  1342.78,   634.21  L  1347.74,   639.18  " /><path style="stroke-width:1.42 ;&st7;  " d=" M  1354.80,   639.18  L  1359.77,   634.21  " /><path style="stroke-width:1.42 ;&st7;  " d=" M  1347.74,   622.18  L  1342.78,   627.15  " /><path style="stroke-width:1.42 ;&st7;  " d=" M  1283.29,   244.72  L  1278.31,   239.75  " /><path style="stroke-width:1.42 ;&st7;  " d=" M  1266.29,   251.77  L  1271.26,   256.74  " /><path style="stroke-width:1.42 ;&st7;  " d=" M  1278.31,   256.74  L  1283.29,   251.77  " /><path style="stroke-width:1.42 ;&st7;  " d=" M  1271.26,   239.75  L  1266.29,   244.72  " /><path style="stroke-width:1.42 ;&st7;  " d=" M  1359.77,   244.72  L  1354.80,   239.75  " /><path style="stroke-width:1.42 ;&st7;  " d=" M  1342.78,   251.77  L  1347.74,   256.74  " /><path style="stroke-width:1.42 ;&st7;  " d=" M  1354.80,   256.74  L  1359.77,   251.77  " /><path style="stroke-width:1.42 ;&st7;  " d=" M  1347.74,   239.75  L  1342.78,   244.72  " /><path style="stroke-width:1.42 ;&st7;  " d=" M  1436.26,   244.72  L  1431.29,   239.75  " /><path style="stroke-width:1.42 ;&st7;  " d=" M  1419.26,   251.77  L  1424.23,   256.74  " /><path style="stroke-width:1.42 ;&st7;  " d=" M  1431.29,   256.74  L  1436.26,   251.77  " /><path style="stroke-width:1.42 ;&st7;  " d=" M  1424.23,   239.75  L  1419.26,   244.72  " /><path style="stroke-width:1.42 ;&st7;  " d=" M  1206.80,   244.72  L  1201.83,   239.75  " /><path style="stroke-width:1.42 ;&st7;  " d=" M  1189.80,   251.77  L  1194.77,   256.74  " /><path style="stroke-width:1.42 ;&st7;  " d=" M  1201.83,   256.74  L  1206.80,   251.77  " /><path style="stroke-width:1.42 ;&st7;  " d=" M  1194.77,   239.75  L  1189.80,   244.72  " /><path style="stroke-width:1.42 ;&st7;  " d=" M  1206.80,   460.71  L  1198.30,   460.71  " /><text style="&st18;" transform="matrix(&st17;  1435.4  490.7 )">(*2 *3)</text><text style="&st18;" transform="matrix(&st17;  1424.07  487.91 )">W-B</text><text style="&st18;" transform="matrix(&st17;  1435.4  346.22 )">(*2 *3)</text><text style="&st18;" transform="matrix(&st17;  1424.07  339.44 )">G</text><text style="&st18;" transform="matrix(&st17;  1347.58  339.44 )">G</text><text style="&st18;" transform="matrix(&st17;  1358.91  346.22 )">(*2 *4)</text><text style="&st18;" transform="matrix(&st17;  1271.09  339.44 )">G</text><text style="&st18;" transform="matrix(&st17;  1282.42  346.22 )">(*2 *4)</text><text style="&st18;" transform="matrix(&st17;  1347.58  487.91 )">W-B</text><text style="&st18;" transform="matrix(&st17;  1358.91  490.7 )">(*2 *4)</text><text style="&st18;" transform="matrix(&st17;  1271.09  487.91 )">W-B</text><text style="&st18;" transform="matrix(&st17;  1282.42  490.7 )">(*2 *4)</text><text style="&st18;" transform="matrix(&st17;  1194.6  275.7 )">G</text><text style="&st18;" transform="matrix(&st17;  1205.94  278.45 )">(*2)</text><text style="&st18;" transform="matrix(&st17;  1194.6  339.44 )">G</text><text style="&st18;" transform="matrix(&st17;  1205.94  343.74 )">(*14)</text><text style="&st18;" transform="matrix(&st17;  1143.61  360.69 )">G</text><text style="&st18;" transform="matrix(&st17;  1154.94  364.99 )">(*15)</text><text style="&st18;" transform="matrix(&st17;  1194.6  386.18 )">G</text><text style="&st18;" transform="matrix(&st17;  1205.94  390.49 )">(*14)</text><text style="&st18;" transform="matrix(&st17;  1194.6  445.42 )">W-B</text><text style="&st18;" transform="matrix(&st17;  1205.94  445.73 )">(*14)</text><text style="&st18;" transform="matrix(&st17;  1143.61  487.91 )">W-B</text><text style="&st18;" transform="matrix(&st17;  1154.94  488.22 )">(*15)</text><text style="&st18;" transform="matrix(&st17;  1194.6  487.91 )">W-B</text><text style="&st18;" transform="matrix(&st17;  1205.94  488.22 )">(*14)</text><text style="&st18;" transform="matrix(&st17;  1194.6  543.15 )">W-B</text><text style="&st18;" transform="matrix(&st17;  1205.94  541.91 )">(*2)</text><text style="&st18;" transform="matrix(&st17;  1194.6  598.39 )">W-B</text><text style="&st18;" transform="matrix(&st17;  1205.94  597.15 )">(*2)</text><text style="&st18;" transform="matrix(&st16;  1310.83  660.98 )">W-B</text><text style="&st18;" transform="matrix(&st16;  1312.07  672.31 )">(*2)</text><text style="&st18;" transform="matrix(&st17;  1271.09  645.13 )">W-B</text><text style="&st18;" transform="matrix(&st17;  1282.42  643.89 )">(*2)</text><text style="&st18;" transform="matrix(&st16;  1008.87  244.55 )">G</text><text style="&st18;" transform="matrix(&st16;  1006.12  255.88 )">(*2)</text><text style="&st18;" transform="matrix(&st16;  1059.86  244.55 )">G</text><text style="&st18;" transform="matrix(&st16;  1057.11  255.88 )">(*2)</text><text style="&st18;" transform="matrix(&st16;  1229.83  244.55 )">G</text><text style="&st18;" transform="matrix(&st16;  1227.08  255.88 )">(*2)</text><text style="&st18;" transform="matrix(&st16;  1306.32  244.55 )">G</text><text style="&st18;" transform="matrix(&st16;  1303.57  255.88 )">(*2)</text><text style="&st18;" transform="matrix(&st16;  1391.31  244.55 )">G</text><text style="&st18;" transform="matrix(&st16;  1388.55  255.88 )">(*2)</text><g ewd:figtype="conn" ewd:figID="15" ewd:code="b4"><path style="stroke-width:0.85 ;&st7;  " d=" M  1147.31,   401.22  L  1147.31,   405.47  " /><path style="stroke-width:0.85 ;&st7;  " d=" M  1147.31,   413.97  L  1147.31,   418.22  " /><path style="stroke-width:0.85 ;&st7;   " d=" M  1147.31,   413.97  C  1148.86    413.98   1150.13    412.72   1150.14    411.17  " /><path style="stroke-width:0.85 ;&st7;   " d=" M  1150.14,   411.17  C  1150.15    409.61   1148.90    408.34   1147.34    408.33  " /><path style="stroke-width:0.85 ;&st7;   " d=" M  1147.34,   408.33  C  1146.31    408.33   1145.43    408.83   1144.90    409.72  " /><path style="stroke-width:0.85 ;&st7;   " d=" M  1144.90,   409.72  C  1145.69    411.06   1147.42    411.50   1148.76    410.71  " /><path style="stroke-width:0.85 ;&st7;   " d=" M  1148.76,   410.71  C  1150.10    409.92   1150.54    408.19   1149.75    406.85  " /><path style="stroke-width:0.85 ;&st7;   " d=" M  1149.75,   406.85  C  1149.22    405.96   1148.34    405.46   1147.31    405.47  " /><path style="stroke-width:1.42 ;&st7;   " d=" M  1155.81,   409.72  C  1155.81    405.02   1152.00    401.22   1147.31    401.22  " /><path style="stroke-width:1.42 ;&st7;   " d=" M  1147.31,   401.22  C  1142.61    401.22   1138.81    405.02   1138.81    409.72  " /><path style="stroke-width:1.42 ;&st7;   " d=" M  1138.81,   409.72  C  1138.81    414.41   1142.61    418.22   1147.31    418.22  " /><path style="stroke-width:1.42 ;&st7;   " d=" M  1147.31,   418.22  C  1152.00    418.22   1155.81    414.41   1155.81    409.72  " /><text style="&st18;" transform="matrix(&st16;  1141.12  426.41 )">2</text><text style="&st18;" transform="matrix(&st16;  1141.12  397.53 )">1</text><g ewd:figtype="title"><text style="&st18;" transform="matrix(&st17;  1170.52  421.12 )" ewd:textID="16">License Plate <tspan x="0 " dy="6.0">Light Assembly</tspan></text><text style="&st18;" transform="matrix(&st17;  1163.7  421.11 )">b4</text></g></g><g ewd:figtype="conn" ewd:figID="16" ewd:code="e1"><path style="stroke-width:0.85 ;&st7;  " d=" M  1198.30,   401.22  L  1198.30,   405.47  " /><path style="stroke-width:0.85 ;&st7;  " d=" M  1198.30,   413.97  L  1198.30,   418.22  " /><path style="stroke-width:0.85 ;&st7;   " d=" M  1198.30,   413.97  C  1199.85    413.98   1201.12    412.72   1201.13    411.17  " /><path style="stroke-width:0.85 ;&st7;   " d=" M  1201.13,   411.17  C  1201.14    409.61   1199.89    408.34   1198.33    408.33  " /><path style="stroke-width:0.85 ;&st7;   " d=" M  1198.33,   408.33  C  1197.30    408.33   1196.42    408.83   1195.89    409.72  " /><path style="stroke-width:0.85 ;&st7;   " d=" M  1195.89,   409.72  C  1196.68    411.06   1198.41    411.50   1199.75    410.71  " /><path style="stroke-width:0.85 ;&st7;   " d=" M  1199.75,   410.71  C  1201.09    409.92   1201.53    408.19   1200.74    406.85  " /><path style="stroke-width:0.85 ;&st7;   " d=" M  1200.74,   406.85  C  1200.22    405.96   1199.33    405.46   1198.30    405.47  " /><path style="stroke-width:1.42 ;&st7;   " d=" M  1206.80,   409.72  C  1206.80    405.02   1202.99    401.22   1198.30    401.22  " /><path style="stroke-width:1.42 ;&st7;   " d=" M  1198.30,   401.22  C  1193.61    401.22   1189.80    405.02   1189.80    409.72  " /><path style="stroke-width:1.42 ;&st7;   " d=" M  1189.80,   409.72  C  1189.80    414.41   1193.61    418.22   1198.30    418.22  " /><path style="stroke-width:1.42 ;&st7;   " d=" M  1198.30,   418.22  C  1202.99    418.22   1206.80    414.41   1206.80    409.72  " /><text style="&st18;" transform="matrix(&st16;  1192.12  426.41 )">1</text><text style="&st18;" transform="matrix(&st16;  1192.12  397.53 )">2</text><g ewd:figtype="title"><text style="&st18;" transform="matrix(&st17;  1221.52  421.12 )" ewd:textID="16">License Plate Light Assembly</text><text style="&st18;" transform="matrix(&st17;  1214.69  421.11 )">e1</text></g></g><g ewd:figtype="conn" ewd:figID="18" ewd:code="T5"><path style="stroke-width:0.85 ;&st7;  " d=" M  1274.79,   422.46  L  1274.79,   426.71  " /><path style="stroke-width:0.85 ;&st7;  " d=" M  1274.79,   409.72  L  1274.79,   413.97  " /><path style="stroke-width:1.42 ;&st7;   " d=" M  1283.29,   418.22  C  1283.29    413.52   1279.48    409.72   1274.79    409.72  " /><path style="stroke-width:1.42 ;&st7;   " d=" M  1274.79,   409.72  C  1270.09    409.72   1266.29    413.52   1266.29    418.22  " /><path style="stroke-width:1.42 ;&st7;   " d=" M  1266.29,   418.22  C  1266.29    422.91   1270.09    426.71   1274.79    426.71  " /><path style="stroke-width:1.42 ;&st7;   " d=" M  1274.79,   426.71  C  1279.48    426.71   1283.29    422.91   1283.29    418.22  " /><path style="stroke-width:0.85 ;&st7;   " d=" M  1272.38,   418.22  C  1273.17    419.55   1274.90    420.00   1276.24    419.21  " /><path style="stroke-width:0.85 ;&st7;   " d=" M  1276.24,   419.21  C  1277.58    418.42   1278.02    416.69   1277.23    415.35  " /><path style="stroke-width:0.85 ;&st7;   " d=" M  1277.23,   415.35  C  1276.70    414.46   1275.82    413.96   1274.79    413.97  " /><path style="stroke-width:0.85 ;&st7;   " d=" M  1274.79,   422.46  C  1276.34    422.47   1277.61    421.22   1277.62    419.67  " /><path style="stroke-width:0.85 ;&st7;   " d=" M  1277.62,   419.67  C  1277.63    418.11   1276.38    416.84   1274.82    416.83  " /><path style="stroke-width:0.85 ;&st7;   " d=" M  1274.82,   416.83  C  1273.79    416.83   1272.91    417.33   1272.38    418.22  " /><path style="stroke-width:1.42 ;&st7;  " d=" M  1249.29,   392.72  L  1249.29,   443.71  L  1291.78,   443.71  L  1291.78,   392.72  L  1249.29,   392.72  " /><path style="stroke-width:0.85 ;&st7;  " d=" M  1274.79,   409.72  L  1274.79,   392.72  " /><path style="stroke-width:0.85 ;&st7;  " d=" M  1274.79,   426.71  L  1274.79,   443.71  " /><text style="&st18;" transform="matrix(&st16;  1277.37  440.02 )">E</text><text style="&st18;" transform="matrix(&st17;  1262.59  422.77 )" ewd:textID="27">Tail</text><text style="&st18;" transform="matrix(&st16;  1277.37  400.91 )">B</text><text style="&st18;" transform="matrix(&st16;  1266.09  450.21 )">5</text><path style="stroke-width:1.42 ;&st7;   " d=" M  1279.32,   448.24  C  1279.32    445.74   1277.29    443.71   1274.79    443.71  " /><path style="stroke-width:1.42 ;&st7;   " d=" M  1274.79,   443.71  C  1272.28    443.71   1270.25    445.74   1270.25    448.24  " /><path style="stroke-width:1.42 ;&st7;   " d=" M  1270.25,   448.24  C  1270.25    450.75   1272.28    452.78   1274.79    452.78  " /><path style="stroke-width:1.42 ;&st7;   " d=" M  1274.79,   452.78  C  1277.29    452.78   1279.32    450.75   1279.32    448.24  " /><text style="&st18;" transform="matrix(&st16;  1272.6  450.21 )">B</text><text style="&st18;" transform="matrix(&st16;  1266.09  390.16 )">3</text><path style="stroke-width:1.42 ;&st7;   " d=" M  1279.32,   388.19  C  1279.32    385.68   1277.29    383.65   1274.79    383.65  " /><path style="stroke-width:1.42 ;&st7;   " d=" M  1274.79,   383.65  C  1272.28    383.65   1270.25    385.68   1270.25    388.19  " /><path style="stroke-width:1.42 ;&st7;   " d=" M  1270.25,   388.19  C  1270.25    390.69   1272.28    392.72   1274.79    392.72  " /><path style="stroke-width:1.42 ;&st7;   " d=" M  1274.79,   392.72  C  1277.29    392.72   1279.32    390.69   1279.32    388.19  " /><text style="&st18;" transform="matrix(&st16;  1272.6  390.16 )">B</text><g ewd:figtype="title"><text style="&st18;" transform="matrix(&st17;  1299.68  446.61 )">T5(B)</text><text style="&st18;" transform="matrix(&st17;  1306.5  446.62 )" ewd:textID="24">Rear Combination Light Assembly LH</text></g></g><g ewd:figtype="conn" ewd:figID="19" ewd:code="T1"><path style="stroke-width:0.85 ;&st7;  " d=" M  1351.27,   409.72  L  1351.27,   413.97  " /><path style="stroke-width:0.85 ;&st7;  " d=" M  1351.27,   422.46  L  1351.27,   426.71  " /><path style="stroke-width:0.85 ;&st7;   " d=" M  1351.27,   422.46  C  1352.83    422.47   1354.10    421.22   1354.11    419.67  " /><path style="stroke-width:0.85 ;&st7;   " d=" M  1354.11,   419.67  C  1354.12    418.11   1352.86    416.84   1351.31    416.83  " /><path style="stroke-width:0.85 ;&st7;   " d=" M  1351.31,   416.83  C  1350.28    416.83   1349.39    417.33   1348.87    418.22  " /><path style="stroke-width:0.85 ;&st7;   " d=" M  1348.87,   418.22  C  1349.66    419.55   1351.39    420.00   1352.72    419.21  " /><path style="stroke-width:0.85 ;&st7;   " d=" M  1352.72,   419.21  C  1354.06    418.42   1354.51    416.69   1353.72    415.35  " /><path style="stroke-width:0.85 ;&st7;   " d=" M  1353.72,   415.35  C  1353.19    414.46   1352.31    413.96   1351.27    413.97  " /><path style="stroke-width:1.42 ;&st7;   " d=" M  1359.77,   418.22  C  1359.77    413.52   1355.97    409.72   1351.27    409.72  " /><path style="stroke-width:1.42 ;&st7;   " d=" M  1351.27,   409.72  C  1346.58    409.72   1342.78    413.52   1342.78    418.22  " /><path style="stroke-width:1.42 ;&st7;   " d=" M  1342.78,   418.22  C  1342.78    422.91   1346.58    426.71   1351.27    426.71  " /><path style="stroke-width:1.42 ;&st7;   " d=" M  1351.27,   426.71  C  1355.97    426.71   1359.77    422.91   1359.77    418.22  " /><path style="stroke-width:0.85 ;&st7;  " d=" M  1351.27,   426.71  L  1351.27,   443.71  " /><path style="stroke-width:0.85 ;&st7;  " d=" M  1351.27,   409.72  L  1351.27,   392.72  " /><path style="stroke-width:1.42 ;&st7;  " d=" M  1325.78,   392.72  L  1325.78,   443.71  L  1368.27,   443.71  L  1368.27,   392.72  L  1325.78,   392.72  " /><text style="&st18;" transform="matrix(&st16;  1353.86  440.02 )">E</text><text style="&st18;" transform="matrix(&st17;  1339.08  422.77 )" ewd:textID="27">Tail</text><text style="&st18;" transform="matrix(&st16;  1353.86  400.91 )">B</text><text style="&st18;" transform="matrix(&st16;  1342.58  450.21 )">5</text><path style="stroke-width:1.42 ;&st7;   " d=" M  1355.81,   448.24  C  1355.81    445.74   1353.78    443.71   1351.27    443.71  " /><path style="stroke-width:1.42 ;&st7;   " d=" M  1351.27,   443.71  C  1348.77    443.71   1346.74    445.74   1346.74    448.24  " /><path style="stroke-width:1.42 ;&st7;   " d=" M  1346.74,   448.24  C  1346.74    450.75   1348.77    452.78   1351.27    452.78  " /><path style="stroke-width:1.42 ;&st7;   " d=" M  1351.27,   452.78  C  1353.78    452.78   1355.81    450.75   1355.81    448.24  " /><text style="&st18;" transform="matrix(&st16;  1349.09  450.21 )">B</text><text style="&st18;" transform="matrix(&st16;  1342.58  390.16 )">3</text><path style="stroke-width:1.42 ;&st7;   " d=" M  1355.81,   388.19  C  1355.81    385.68   1353.78    383.65   1351.27    383.65  " /><path style="stroke-width:1.42 ;&st7;   " d=" M  1351.27,   383.65  C  1348.77    383.65   1346.74    385.68   1346.74    388.19  " /><path style="stroke-width:1.42 ;&st7;   " d=" M  1346.74,   388.19  C  1346.74    390.69   1348.77    392.72   1351.27    392.72  " /><path style="stroke-width:1.42 ;&st7;   " d=" M  1351.27,   392.72  C  1353.78    392.72   1355.81    390.69   1355.81    388.19  " /><text style="&st18;" transform="matrix(&st16;  1349.09  390.16 )">B</text><g ewd:figtype="title"><text style="&st18;" transform="matrix(&st17;  1382.99  446.62 )" ewd:textID="25">Rear Combination Light Assembly RH</text><text style="&st18;" transform="matrix(&st17;  1376.17  446.61 )">T1(B)</text></g></g><g ewd:figtype="conn" ewd:figID="20" ewd:code="T7"><path style="stroke-width:0.85 ;&st7;  " d=" M  1427.76,   422.46  L  1427.76,   426.71  " /><path style="stroke-width:0.85 ;&st7;  " d=" M  1427.76,   409.72  L  1427.76,   413.97  " /><path style="stroke-width:1.42 ;&st7;   " d=" M  1436.26,   418.22  C  1436.26    413.52   1432.46    409.72   1427.76    409.72  " /><path style="stroke-width:1.42 ;&st7;   " d=" M  1427.76,   409.72  C  1423.07    409.72   1419.26    413.52   1419.26    418.22  " /><path style="stroke-width:1.42 ;&st7;   " d=" M  1419.26,   418.22  C  1419.26    422.91   1423.07    426.71   1427.76    426.71  " /><path style="stroke-width:1.42 ;&st7;   " d=" M  1427.76,   426.71  C  1432.46    426.71   1436.26    422.91   1436.26    418.22  " /><path style="stroke-width:0.85 ;&st7;   " d=" M  1425.35,   418.22  C  1426.15    419.55   1427.87    420.00   1429.21    419.21  " /><path style="stroke-width:0.85 ;&st7;   " d=" M  1429.21,   419.21  C  1430.55    418.42   1431.00    416.69   1430.20    415.35  " /><path style="stroke-width:0.85 ;&st7;   " d=" M  1430.20,   415.35  C  1429.68    414.46   1428.79    413.96   1427.76    413.97  " /><path style="stroke-width:0.85 ;&st7;   " d=" M  1427.76,   422.46  C  1429.32    422.47   1430.58    421.22   1430.59    419.67  " /><path style="stroke-width:0.85 ;&st7;   " d=" M  1430.59,   419.67  C  1430.60    418.11   1429.35    416.84   1427.80    416.83  " /><path style="stroke-width:0.85 ;&st7;   " d=" M  1427.80,   416.83  C  1426.76    416.83   1425.88    417.33   1425.35    418.22  " /><path style="stroke-width:1.42 ;&st7;  " d=" M  1402.27,   392.72  L  1402.27,   443.71  L  1444.76,   443.71  L  1444.76,   392.72  L  1402.27,   392.72  " /><path style="stroke-width:0.85 ;&st7;  " d=" M  1427.76,   409.72  L  1427.76,   392.72  " /><path style="stroke-width:0.85 ;&st7;  " d=" M  1427.76,   426.71  L  1427.76,   443.71  " /><text style="&st18;" transform="matrix(&st17;  1415.57  422.77 )" ewd:textID="27">Tail</text><text style="&st18;" transform="matrix(&st16;  1430.34  440.02 )">TE</text><text style="&st18;" transform="matrix(&st16;  1430.34  400.91 )">E2</text><text style="&st18;" transform="matrix(&st16;  1419.07  450.21 )">1</text><path style="stroke-width:1.42 ;&st7;   " d=" M  1432.29,   448.24  C  1432.29    445.74   1430.26    443.71   1427.76    443.71  " /><path style="stroke-width:1.42 ;&st7;   " d=" M  1427.76,   443.71  C  1425.26    443.71   1423.23    445.74   1423.23    448.24  " /><path style="stroke-width:1.42 ;&st7;   " d=" M  1423.23,   448.24  C  1423.23    450.75   1425.26    452.78   1427.76    452.78  " /><path style="stroke-width:1.42 ;&st7;   " d=" M  1427.76,   452.78  C  1430.26    452.78   1432.29    450.75   1432.29    448.24  " /><text style="&st18;" transform="matrix(&st16;  1425.34  450.21 )">C</text><text style="&st18;" transform="matrix(&st16;  1419.07  390.16 )">2</text><path style="stroke-width:1.42 ;&st7;   " d=" M  1432.29,   388.19  C  1432.29    385.68   1430.26    383.65   1427.76    383.65  " /><path style="stroke-width:1.42 ;&st7;   " d=" M  1427.76,   383.65  C  1425.26    383.65   1423.23    385.68   1423.23    388.19  " /><path style="stroke-width:1.42 ;&st7;   " d=" M  1423.23,   388.19  C  1423.23    390.69   1425.26    392.72   1427.76    392.72  " /><path style="stroke-width:1.42 ;&st7;   " d=" M  1427.76,   392.72  C  1430.26    392.72   1432.29    390.69   1432.29    388.19  " /><text style="&st18;" transform="matrix(&st16;  1425.34  390.16 )">C</text><g ewd:figtype="title"><text style="&st18;" transform="matrix(&st17;  1452.65  446.61 )">T7(C)</text><text style="&st18;" transform="matrix(&st17;  1459.48  446.62 )" ewd:textID="24">Rear Combination Light Assembly LH</text></g></g><g ewd:figtype="conn" ewd:figID="21" ewd:code="T6"><path style="stroke-width:0.85 ;&st7;  " d=" M  1504.25,   409.72  L  1504.25,   413.97  " /><path style="stroke-width:0.85 ;&st7;  " d=" M  1504.25,   422.46  L  1504.25,   426.71  " /><path style="stroke-width:0.85 ;&st7;   " d=" M  1504.25,   422.46  C  1505.80    422.47   1507.07    421.22   1507.08    419.67  " /><path style="stroke-width:0.85 ;&st7;   " d=" M  1507.08,   419.67  C  1507.09    418.11   1505.84    416.84   1504.28    416.83  " /><path style="stroke-width:0.85 ;&st7;   " d=" M  1504.28,   416.83  C  1503.25    416.83   1502.37    417.33   1501.84    418.22  " /><path style="stroke-width:0.85 ;&st7;   " d=" M  1501.84,   418.22  C  1502.63    419.55   1504.36    420.00   1505.70    419.21  " /><path style="stroke-width:0.85 ;&st7;   " d=" M  1505.70,   419.21  C  1507.04    418.42   1507.48    416.69   1506.69    415.35  " /><path style="stroke-width:0.85 ;&st7;   " d=" M  1506.69,   415.35  C  1506.16    414.46   1505.28    413.96   1504.25    413.97  " /><path style="stroke-width:1.42 ;&st7;   " d=" M  1512.75,   418.22  C  1512.75    413.52   1508.94    409.72   1504.25    409.72  " /><path style="stroke-width:1.42 ;&st7;   " d=" M  1504.25,   409.72  C  1499.56    409.72   1495.75    413.52   1495.75    418.22  " /><path style="stroke-width:1.42 ;&st7;   " d=" M  1495.75,   418.22  C  1495.75    422.91   1499.56    426.71   1504.25    426.71  " /><path style="stroke-width:1.42 ;&st7;   " d=" M  1504.25,   426.71  C  1508.94    426.71   1512.75    422.91   1512.75    418.22  " /><path style="stroke-width:0.85 ;&st7;  " d=" M  1504.25,   426.71  L  1504.25,   443.71  " /><path style="stroke-width:0.85 ;&st7;  " d=" M  1504.25,   409.72  L  1504.25,   392.72  " /><path style="stroke-width:1.42 ;&st7;  " d=" M  1478.75,   392.72  L  1478.75,   443.71  L  1521.25,   443.71  L  1521.25,   392.72  L  1478.75,   392.72  " /><text style="&st18;" transform="matrix(&st17;  1492.05  422.77 )" ewd:textID="27">Tail</text><text style="&st18;" transform="matrix(&st16;  1506.83  440.02 )">TE</text><text style="&st18;" transform="matrix(&st16;  1506.83  400.91 )">E2</text><text style="&st18;" transform="matrix(&st16;  1495.55  450.21 )">1</text><path style="stroke-width:1.42 ;&st7;   " d=" M  1508.78,   448.24  C  1508.78    445.74   1506.75    443.71   1504.25    443.71  " /><path style="stroke-width:1.42 ;&st7;   " d=" M  1504.25,   443.71  C  1501.75    443.71   1499.72    445.74   1499.72    448.24  " /><path style="stroke-width:1.42 ;&st7;   " d=" M  1499.72,   448.24  C  1499.72    450.75   1501.75    452.78   1504.25    452.78  " /><path style="stroke-width:1.42 ;&st7;   " d=" M  1504.25,   452.78  C  1506.75    452.78   1508.78    450.75   1508.78    448.24  " /><text style="&st18;" transform="matrix(&st16;  1501.83  450.21 )">C</text><text style="&st18;" transform="matrix(&st16;  1495.55  390.16 )">2</text><path style="stroke-width:1.42 ;&st7;   " d=" M  1508.78,   388.19  C  1508.78    385.68   1506.75    383.65   1504.25    383.65  " /><path style="stroke-width:1.42 ;&st7;   " d=" M  1504.25,   383.65  C  1501.75    383.65   1499.72    385.68   1499.72    388.19  " /><path style="stroke-width:1.42 ;&st7;   " d=" M  1499.72,   388.19  C  1499.72    390.69   1501.75    392.72   1504.25    392.72  " /><path style="stroke-width:1.42 ;&st7;   " d=" M  1504.25,   392.72  C  1506.75    392.72   1508.78    390.69   1508.78    388.19  " /><text style="&st18;" transform="matrix(&st16;  1501.83  390.16 )">C</text><g ewd:figtype="title"><text style="&st18;" transform="matrix(&st17;  1529.14  446.61 )">T6(C)</text><text style="&st18;" transform="matrix(&st17;  1535.96  446.62 )" ewd:textID="25">Rear Combination Light Assembly RH</text></g></g><g ewd:figtype="w2w" ewd:figID="32" ewd:code="bT1"><path style="stroke-width:1.42 ;&st7;  " d=" M  1202.55,   571.76  L  1198.30,   567.51  L  1194.05,   571.76  " /><path style="stroke-width:1.42 ;&st7;  " d=" M  1202.55,   568.36  L  1198.30,   564.11  L  1194.05,   568.36  " /><text style="&st18;" transform="matrix(&st16;  1185.67  560.41 )">2</text></g><g ewd:figtype="w2w" ewd:figID="33" ewd:code="eb2"><path style="stroke-width:1.42 ;&st7;  " d=" M  1202.55,   469.77  L  1198.30,   465.52  L  1194.05,   469.77  " /><path style="stroke-width:1.42 ;&st7;  " d=" M  1202.55,   466.37  L  1198.30,   462.12  L  1194.05,   466.37  " /><text style="&st18;" transform="matrix(&st16;  1185.67  458.43 )">2</text></g><g ewd:figtype="w2w" ewd:figID="34" ewd:code="eb2"><path style="stroke-width:1.42 ;&st7;  " d=" M  1202.55,   353.06  L  1198.30,   357.31  L  1194.05,   353.06  " /><path style="stroke-width:1.42 ;&st7;  " d=" M  1194.05,   349.66  L  1198.30,   353.91  L  1202.55,   349.66  " /><text style="&st18;" transform="matrix(&st16;  1185.67  364.94 )">1</text></g><g ewd:figtype="w2w" ewd:figID="35" ewd:code="bT1"><path style="stroke-width:1.42 ;&st7;  " d=" M  1202.55,   293.57  L  1198.30,   297.82  L  1194.05,   293.57  " /><path style="stroke-width:1.42 ;&st7;  " d=" M  1194.05,   290.17  L  1198.30,   294.42  L  1202.55,   290.17  " /><text style="&st18;" transform="matrix(&st16;  1185.67  305.45 )">3</text></g><g ewd:figtype="gp" ewd:figID="43" ewd:code="TA"><path style="stroke-width:0.85 ;&st7;  " d=" M  1274.79,   697.25  L  1274.79,   701.50  " /><path style="stroke-width:0.85 ;&st7;  " d=" M  1266.29,   701.50  L  1283.29,   701.50  " /><path style="stroke-width:0.85 ;&st7;  " d=" M  1270.54,   704.33  L  1279.04,   704.33  " /><path style="stroke-width:0.85 ;&st7;  " d=" M  1271.95,   707.17  L  1277.62,   707.17  " /><path style="stroke-width:0.85 ;&st7;  " d=" M  1273.37,   710.00  L  1276.20,   710.00  " /></g><g ewd:code="14" ewd:figID="92" ewd:comment="" ewd:figtype="comment"><text style="&st18;" transform="matrix(&st16;  1330.87  71.74 )" ewd:textID="9">*14 :Back Door w/ Fuel Tank</text></g><g ewd:code="2" ewd:figID="68" ewd:comment="" ewd:figtype="comment"><text style="&st18;" transform="matrix(&st16;  1330.87  46.25 )" ewd:textID="2">* 2 :Except Pick-Up Body Type</text></g><g ewd:code="4" ewd:figID="90" ewd:comment="3" ewd:figtype="comment"><text style="&st18;" transform="matrix(&st16;  1330.87  63.24 )" ewd:textID="4">* 4 :Except *3</text></g><g ewd:code="15" ewd:figID="91" ewd:comment="" ewd:figtype="comment"><text style="&st18;" transform="matrix(&st16;  1330.87  80.24 )" ewd:textID="10">*15 :Back Door w/o Fuel Tank</text></g><g ewd:code="3" ewd:figID="69" ewd:comment="" ewd:figtype="comment"><text style="&st18;" transform="matrix(&st16;  1330.87  54.75 )" ewd:textID="3">* 3 :Algeria, Australia</text></g></svg>