<?xml version="1.0" encoding="utf-8"?>
<!DOCTYPE svg PUBLIC "-//W3C//DTD SVG 1.0//EN" "http://www.w3.org/TR/2001/REC-SVG-20010904/DTD/svg10.dtd"[
	<!ENTITY ns_flows "http://ns.adobe.com/Flows/1.0/">
	<!ENTITY ns_svg "http://www.w3.org/2000/svg">
	<!ENTITY ns_xlink "http://www.w3.org/1999/xlink">
	<!ENTITY st0 "font-size:7px;font-family:'MS-PGothic';adobe-font-script:japanese;">
	<!ENTITY st1 "font-size:6px;font-family:'ArialMT';">
	<!-- White fill  -->
	<!ENTITY st2 "fill:#FFFFFF;stroke:#000000; stroke-width:1.41;stroke-linecap:round;stroke-linejoin:round;">
	<!-- Yellow fill  -->
	<!ENTITY st3 "fill:#FFFFCC;stroke:#FFFFCC; stroke-width:0.1;stroke-linecap:round;stroke-linejoin:round;">
	<!-- Gray fill  -->
	<!ENTITY st4 "fill:#CCCCCC;stroke:#CCCCCC; stroke-width:0.1;stroke-linecap:round;stroke-linejoin:round;">
	<!-- Light-blue fill -->
	<!ENTITY st5 "fill:#CCECF4;stroke:#000000; stroke-width:1.133;stroke-linecap:round;stroke-linejoin:round;">
	<!ENTITY st6 "fill:none;stroke-linecap:butt; stroke-linejoin:round;">
	<!ENTITY st7 "fill:none;stroke:#000000;stroke-linecap:round;stroke-linejoin:round;">
	<!ENTITY st8 "enable-background:new    ;">
	<!-- Black fill -->
	<!ENTITY st9 "fill:#000000;stroke:#000000; stroke-linecap:round;stroke-linejoin:round;">
	<!-- SRS note   -->
	<!ENTITY st10 "font-size:9px;font-family:'ArialMT';">
	<!ENTITY st11 "font-size:9px;font-family:'Svg Symbol';">
	<!ENTITY st12 "font-size:6px;font-family:'Svg Symbol';">
	<!ENTITY st13 "fill:none;stroke:#ff0000;stroke-linecap:round;stroke-linejoin:round;">
	<!-- Yellow fill  -->
	<!ENTITY st14 "fill:#FFFF00;stroke:#FFFF00; stroke-width:0.1;stroke-linecap:round;stroke-linejoin:round;">
	<!ENTITY st15 "font-size:6px;font-family:'MS-PGothic';adobe-font-script:japanese;">
	<!ENTITY st16 "1.00 0.00 0.00 1.00">
	<!ENTITY st17 "0.00 -1.00 1.00 0.00">
	<!ENTITY st18 "font-size:6px;font-family:'Arial';">
	<!ENTITY st19 "font-size:9px;font-family:'Arial';">
	<!ENTITY st20 "font-size:6px;font-family:'MS-PGothic','MS PGothic';adobe-font-script:japanese;">
	<!ENTITY st21 "font-size:7px;font-family:'MS-PGothic','MS PGothic';adobe-font-script:japanese;">
	<!ATTLIST svg
		xmlns:ewd CDATA #FIXED "http://shcl.co.jp/ewd"
		xmlns:a CDATA #FIXED "http://ns.adobe.com/AdobeSVGViewerExtensions/3.0/"
		ewd:ver CDATA #IMPLIED
	>
	<!ATTLIST a
		ewd:lineID CDATA #IMPLIED
		ewd:groupID CDATA #IMPLIED
		ewd:figtype CDATA #IMPLIED
		ewd:code CDATA #IMPLIED
		ewd:figID CDATA #IMPLIED
		ewd:pinNo CDATA #IMPLIED
		ewd:comment CDATA #IMPLIED >
	<!ATTLIST g
		ewd:lineID CDATA #IMPLIED
		ewd:groupID CDATA #IMPLIED
		ewd:figtype CDATA #IMPLIED
		ewd:code CDATA #IMPLIED
		ewd:figID CDATA #IMPLIED
		ewd:pinNo CDATA #IMPLIED
		ewd:comment CDATA #IMPLIED >
	<!ATTLIST text
		ewd:textID CDATA #IMPLIED >
	<!ATTLIST title
		ewd:textID CDATA #IMPLIED >
]>
<!-- Generator: Shintec Hozumi YS   -->
<svg onload="call_execInitLoadProc_svg('system')" style="overflow:visible;  enable-background:new 0 0 2055.240 710.000" viewBox="0 0 2055.240 710.000" height="710.000" width="2055.240" xml:space="preserve" ewd:ver="2.1.2.9" xmlns="&ns_svg;" xmlns:a="http://ns.adobe.com/AdobeSVGViewerExtensions/3.0/" xmlns:ewd="http://shcl.co.jp/ewd" xmlns:xlink="&ns_xlink;">
<path style="stroke-width:1.42 ;&st7;  " d=" M   713.88,   562.69  L   722.38,   562.69  " /><path style="stroke-width:1.42 ;&st7;  " d=" M   611.90,   435.21  L   620.40,   435.21  " /><path style="stroke-width:1.42 ;&st7;  " d=" M   730.88,   443.71  L   722.38,   443.71  " /><path style="stroke-width:1.42 ;&st7;  " d=" M   696.88,   443.71  L   688.38,   443.71  " /><path style="stroke-width:1.42 ;&st7;  " d=" M   841.36,   562.69  L   849.86,   562.69  " /><path style="stroke-width:1.42 ;&st7;  " d=" M   909.35,   435.21  L   917.85,   435.21  " /><path style="stroke-width:1.42 ;&st7;  " d=" M   824.36,   443.71  L   815.86,   443.71  " /><path style="stroke-width:1.42 ;&st7;  " d=" M   858.36,   443.71  L   849.86,   443.71  " /><text style="&st18;" transform="matrix(&st17;  574.21  539.16 )">G</text><text style="&st18;" transform="matrix(&st17;  628.03  545.94 )">(*2,*3)</text><text style="&st18;" transform="matrix(&st17;  616.7  539.16 )">G</text><text style="&st18;" transform="matrix(&st17;  718.68  539.16 )">G</text><text style="&st18;" transform="matrix(&st17;  730.02  545.94 )">(*2,*3)</text><text style="&st18;" transform="matrix(&st17;  684.69  411.68 )">G</text><text style="&st18;" transform="matrix(&st17;  696.02  414.43 )">(*2)</text><text style="&st18;" transform="matrix(&st17;  730.02  414.43 )">(*3)</text><text style="&st18;" transform="matrix(&st17;  718.68  411.68 )">G</text><text style="&st18;" transform="matrix(&st17;  628.03  414.43 )">(*1)</text><text style="&st18;" transform="matrix(&st17;  616.7  411.68 )">G</text><text style="&st18;" transform="matrix(&st17;  616.7  471.17 )">G</text><text style="&st18;" transform="matrix(&st17;  628.03  473.92 )">(*1)</text><text style="&st18;" transform="matrix(&st17;  718.68  471.17 )">G</text><text style="&st18;" transform="matrix(&st17;  730.02  473.92 )">(*3)</text><text style="&st18;" transform="matrix(&st17;  696.02  473.92 )">(*2)</text><text style="&st18;" transform="matrix(&st17;  684.69  471.17 )">G</text><text style="&st18;" transform="matrix(&st17;  925.48  545.94 )">(*2,*3)</text><text style="&st18;" transform="matrix(&st17;  914.15  538.69 )">P</text><text style="&st18;" transform="matrix(&st17;  846.16  538.69 )">P</text><text style="&st18;" transform="matrix(&st17;  857.49  545.94 )">(*2,*3)</text><text style="&st18;" transform="matrix(&st17;  846.16  411.21 )">P</text><text style="&st18;" transform="matrix(&st17;  857.49  414.43 )">(*2)</text><text style="&st18;" transform="matrix(&st17;  823.5  414.43 )">(*3)</text><text style="&st18;" transform="matrix(&st17;  812.17  411.21 )">P</text><text style="&st18;" transform="matrix(&st17;  925.48  414.43 )">(*1)</text><text style="&st18;" transform="matrix(&st17;  914.15  411.21 )">P</text><text style="&st18;" transform="matrix(&st17;  914.15  470.7 )">P</text><text style="&st18;" transform="matrix(&st17;  925.48  473.92 )">(*1)</text><text style="&st18;" transform="matrix(&st17;  812.17  470.7 )">P</text><text style="&st18;" transform="matrix(&st17;  823.5  473.92 )">(*3)</text><text style="&st18;" transform="matrix(&st17;  857.49  473.92 )">(*2)</text><text style="&st18;" transform="matrix(&st17;  846.16  470.7 )">P</text><text style="&st18;" transform="matrix(&st17;  956.64  538.69 )">P</text><text style="&st18;" transform="matrix(&st16;  786.96  297.21 )">S30(A),U5(B),Y7(C)</text><text style="&st18;" transform="matrix(&st16;  786.96  304.04 )" ewd:textID="14">Tire Pressure Warning ECU and Receiver</text><g ewd:figtype="conn" ewd:figID="8" ewd:code="L57"><path style="stroke-width:0.85 ;&st7;  " d=" M   577.90,   511.70  L   577.90,   503.20  L   620.40,   503.20  " /><path style="stroke-width:1.42 ;&st7;  " d=" M   569.40,   494.70  L   569.40,   511.70  L   628.89,   511.70  L   628.89,   494.70  L   569.40,   494.70  " /><path style="stroke-width:0.85 ;&st7;  " d=" M   620.40,   494.70  L   620.40,   511.70  " /><path style="stroke-width:0.85 ;&st7;  " d=" M   619.20,   502.20  L   618.93,   502.67  L   618.84,   503.20  L   618.93,   503.73  L   619.20,   504.20  L   619.62,   504.55  L   620.12,   504.74  L   620.67,   504.74  L   621.18,   504.55  L   621.59,   504.20  L   621.86,   503.73  L   621.95,   503.20  L   621.86,   502.67  L   621.59,   502.20  L   621.18,   501.85  L   620.67,   501.67  L   620.12,   501.67  L   619.62,   501.85  L   619.20,   502.20  L   619.60,   502.91  L   619.60,   503.49  L   619.97,   503.94  L   620.54,   504.04  L   621.05,   503.75  L   621.25,   503.20  L   621.05,   502.65  L   620.54,   502.37  L   619.97,   502.46  L   620.40,   503.20  " /><text style="&st18;" transform="matrix(&st16;  611.11  519.89 )">17</text><text style="&st18;" transform="matrix(&st16;  611.11  491.01 )">18</text><text style="&st18;" transform="matrix(&st16;  568.62  519.89 )">16</text><g ewd:figtype="title"><text style="&st18;" transform="matrix(&st17;  643.61  514.61 )" ewd:textID="12">No. 37 <tspan x="0 " dy="6.0">Junction </tspan><tspan x="0 " dy="6.0">Connector</tspan></text><text style="&st18;" transform="matrix(&st17;  636.79  514.6 )">L57</text></g></g><g ewd:figtype="conn" ewd:figID="9" ewd:code="I117"><path style="stroke-width:0.85 ;&st7;  " d=" M   721.19,   502.20  L   720.91,   502.67  L   720.82,   503.20  L   720.91,   503.73  L   721.19,   504.20  L   721.60,   504.55  L   722.11,   504.74  L   722.65,   504.74  L   723.16,   504.55  L   723.57,   504.20  L   723.84,   503.73  L   723.94,   503.20  L   723.84,   502.67  L   723.57,   502.20  L   723.16,   501.85  L   722.65,   501.67  L   722.11,   501.67  L   721.60,   501.85  L   721.19,   502.20  L   721.58,   502.91  L   721.58,   503.49  L   721.95,   503.94  L   722.53,   504.04  L   723.03,   503.75  L   723.23,   503.20  L   723.03,   502.65  L   722.53,   502.37  L   721.95,   502.46  L   722.38,   503.20  " /><path style="stroke-width:0.85 ;&st7;  " d=" M   722.38,   503.20  L   713.88,   503.20  " /><path style="stroke-width:0.85 ;&st7;  " d=" M   722.38,   494.70  L   722.38,   511.70  " /><path style="stroke-width:1.42 ;&st7;  " d=" M   713.88,   494.70  L   713.88,   511.70  L   730.88,   511.70  L   730.88,   494.70  L   713.88,   494.70  " /><text style="&st18;" transform="matrix(&st16;  707.7  499.51 )">2</text><text style="&st18;" transform="matrix(&st16;  716.2  519.89 )">3</text><text style="&st18;" transform="matrix(&st16;  716.2  491.01 )">8</text><g ewd:figtype="title"><text style="&st18;" transform="matrix(&st17;  738.77  514.6 )">I117</text><text style="&st18;" transform="matrix(&st17;  745.6  514.61 )" ewd:textID="10">No. 35 <tspan x="0 " dy="6.0">Junction </tspan><tspan x="0 " dy="6.0">Connector</tspan></text></g></g><g ewd:figtype="conn" ewd:figID="10" ewd:code="I117"><path style="stroke-width:0.85 ;&st7;  " d=" M   849.86,   503.20  L   815.86,   503.20  L   815.86,   494.70  " /><path style="stroke-width:0.85 ;&st7;  " d=" M   848.67,   502.20  L   848.39,   502.67  L   848.30,   503.20  L   848.39,   503.73  L   848.67,   504.20  L   849.08,   504.55  L   849.59,   504.74  L   850.13,   504.74  L   850.64,   504.55  L   851.05,   504.20  L   851.32,   503.73  L   851.42,   503.20  L   851.32,   502.67  L   851.05,   502.20  L   850.64,   501.85  L   850.13,   501.67  L   849.59,   501.67  L   849.08,   501.85  L   848.67,   502.20  L   849.06,   502.91  L   849.06,   503.49  L   849.43,   503.94  L   850.00,   504.04  L   850.51,   503.75  L   850.71,   503.20  L   850.51,   502.65  L   850.00,   502.37  L   849.43,   502.46  L   849.86,   503.20  " /><path style="stroke-width:0.85 ;&st7;  " d=" M   849.86,   494.70  L   849.86,   511.70  " /><path style="stroke-width:1.42 ;&st7;  " d=" M   807.36,   511.70  L   858.36,   511.70  L   858.36,   494.70  L   807.36,   494.70  L   807.36,   511.70  " /><text style="&st18;" transform="matrix(&st16;  809.68  491.01 )">7</text><text style="&st18;" transform="matrix(&st16;  843.67  519.89 )">6</text><text style="&st18;" transform="matrix(&st16;  843.67  491.01 )">1</text><g ewd:figtype="title"><text style="&st18;" transform="matrix(&st17;  866.25  514.6 )">I117</text><text style="&st18;" transform="matrix(&st17;  873.07  514.61 )" ewd:textID="10">No. 35 <tspan x="0 " dy="6.0">Junction </tspan><tspan x="0 " dy="6.0">Connector</tspan></text></g></g><g ewd:figtype="conn" ewd:figID="11" ewd:code="L57"><path style="stroke-width:0.85 ;&st7;  " d=" M   917.85,   503.20  L   960.34,   503.20  L   960.34,   511.70  " /><path style="stroke-width:1.42 ;&st7;  " d=" M   909.35,   494.70  L   909.35,   511.70  L   968.84,   511.70  L   968.84,   494.70  L   909.35,   494.70  " /><path style="stroke-width:0.85 ;&st7;  " d=" M   917.85,   494.70  L   917.85,   511.70  " /><path style="stroke-width:0.85 ;&st7;  " d=" M   916.65,   502.20  L   916.38,   502.67  L   916.29,   503.20  L   916.38,   503.73  L   916.65,   504.20  L   917.07,   504.55  L   917.57,   504.74  L   918.12,   504.74  L   918.63,   504.55  L   919.04,   504.20  L   919.31,   503.73  L   919.40,   503.20  L   919.31,   502.67  L   919.04,   502.20  L   918.63,   501.85  L   918.12,   501.67  L   917.57,   501.67  L   917.07,   501.85  L   916.65,   502.20  L   917.05,   502.91  L   917.05,   503.49  L   917.42,   503.94  L   917.99,   504.04  L   918.50,   503.75  L   918.70,   503.20  L   918.50,   502.65  L   917.99,   502.37  L   917.42,   502.46  L   917.85,   503.20  " /><text style="&st18;" transform="matrix(&st16;  911.66  519.89 )">7</text><text style="&st18;" transform="matrix(&st16;  911.66  491.01 )">6</text><text style="&st18;" transform="matrix(&st16;  954.16  519.89 )">5</text><g ewd:figtype="title"><text style="&st18;" transform="matrix(&st17;  983.56  514.61 )" ewd:textID="12">No. 37 <tspan x="0 " dy="6.0">Junction </tspan><tspan x="0 " dy="6.0">Connector</tspan></text><text style="&st18;" transform="matrix(&st17;  976.73  514.6 )">L57</text></g></g><g ewd:figtype="conn" ewd:figID="21" ewd:code="S30,U5,Y7"><path style="stroke-width: 0.85 ;&st7; stroke-dasharray:3, 1.5;" d=" M   696.88,   354.76  L   837.11,   354.76  " /><path style="stroke-width: 0.85 ;&st7; stroke-dasharray:3, 1.5;" d=" M   696.88,   363.82  L   837.11,   363.82  " /><path style="stroke-width: 0.85 ;&st7; stroke-dasharray:3, 1.5;" d=" M   696.88,   372.89  L   837.11,   372.89  " /><g ewd:lineID="33,35,38"><text style="&st18;" transform="matrix(&st16;  679.69  374.86 )">2</text><text style="&st18;" transform="matrix(&st16;  679.69  365.79 )">2</text><text style="&st18;" transform="matrix(&st16;  679.69  356.73 )">2</text><text style="&st18;" transform="matrix(&st16;  686.08  356.73 )">A</text><text style="&st18;" transform="matrix(&st16;  686.2  365.79 )">B</text><text style="&st18;" transform="matrix(&st16;  685.96  374.86 )">C</text><path style="stroke-width:1.42 ;&st7;   " d=" M   692.92,   363.82  C   692.92    361.32    690.89    359.29    688.38    359.29  " /><path style="stroke-width:1.42 ;&st7;   " d=" M   688.38,   359.29  C   685.88    359.29    683.85    361.32    683.85    363.82  " /><path style="stroke-width:1.42 ;&st7;   " d=" M   683.85,   363.82  C   683.85    366.33    685.88    368.36    688.38    368.36  " /><path style="stroke-width:1.42 ;&st7;   " d=" M   688.38,   368.36  C   690.89    368.36    692.92    366.33    692.92    363.82  " /><path style="stroke-width:1.42 ;&st7;   " d=" M   692.92,   372.89  C   692.92    370.39    690.89    368.36    688.38    368.36  " /><path style="stroke-width:1.42 ;&st7;   " d=" M   688.38,   368.36  C   685.88    368.36    683.85    370.39    683.85    372.89  " /><path style="stroke-width:1.42 ;&st7;   " d=" M   683.85,   372.89  C   683.85    375.39    685.88    377.42    688.38    377.42  " /><path style="stroke-width:1.42 ;&st7;   " d=" M   688.38,   377.42  C   690.89    377.42    692.92    375.39    692.92    372.89  " /><path style="stroke-width:1.42 ;&st7;   " d=" M   692.92,   354.76  C   692.92    352.26    690.89    350.23    688.38    350.23  " /><path style="stroke-width:1.42 ;&st7;   " d=" M   688.38,   350.23  C   685.88    350.23    683.85    352.26    683.85    354.76  " /><path style="stroke-width:1.42 ;&st7;   " d=" M   683.85,   354.76  C   683.85    357.26    685.88    359.29    688.38    359.29  " /><path style="stroke-width:1.42 ;&st7;   " d=" M   688.38,   359.29  C   690.89    359.29    692.92    357.26    692.92    354.76  " /><text style="&st18;" transform="matrix(&st16;  682.71  346.53 )">SPD</text></g><g ewd:lineID="40,43,46"><text style="&st18;" transform="matrix(&st16;  841.16  374.86 )">5</text><text style="&st18;" transform="matrix(&st16;  841.16  365.79 )">5</text><text style="&st18;" transform="matrix(&st16;  841.16  356.73 )">5</text><text style="&st18;" transform="matrix(&st16;  847.55  356.73 )">A</text><text style="&st18;" transform="matrix(&st16;  847.67  365.79 )">B</text><text style="&st18;" transform="matrix(&st16;  847.44  374.86 )">C</text><path style="stroke-width:1.42 ;&st7;   " d=" M   854.39,   363.82  C   854.39    361.32    852.36    359.29    849.86    359.29  " /><path style="stroke-width:1.42 ;&st7;   " d=" M   849.86,   359.29  C   847.35    359.29    845.33    361.32    845.33    363.82  " /><path style="stroke-width:1.42 ;&st7;   " d=" M   845.33,   363.82  C   845.33    366.33    847.35    368.36    849.86    368.36  " /><path style="stroke-width:1.42 ;&st7;   " d=" M   849.86,   368.36  C   852.36    368.36    854.39    366.33    854.39    363.82  " /><path style="stroke-width:1.42 ;&st7;   " d=" M   854.39,   354.76  C   854.39    352.26    852.36    350.23    849.86    350.23  " /><path style="stroke-width:1.42 ;&st7;   " d=" M   849.86,   350.23  C   847.35    350.23    845.33    352.26    845.33    354.76  " /><path style="stroke-width:1.42 ;&st7;   " d=" M   845.33,   354.76  C   845.33    357.26    847.35    359.29    849.86    359.29  " /><path style="stroke-width:1.42 ;&st7;   " d=" M   849.86,   359.29  C   852.36    359.29    854.39    357.26    854.39    354.76  " /><path style="stroke-width:1.42 ;&st7;   " d=" M   854.39,   372.89  C   854.39    370.39    852.36    368.36    849.86    368.36  " /><path style="stroke-width:1.42 ;&st7;   " d=" M   849.86,   368.36  C   847.35    368.36    845.33    370.39    845.33    372.89  " /><path style="stroke-width:1.42 ;&st7;   " d=" M   845.33,   372.89  C   845.33    375.39    847.35    377.42    849.86    377.42  " /><path style="stroke-width:1.42 ;&st7;   " d=" M   849.86,   377.42  C   852.36    377.42    854.39    375.39    854.39    372.89  " /><text style="&st18;" transform="matrix(&st16;  844.53  346.53 )">IND</text></g></g><g ewd:figtype="w2w" ewd:figID="35" ewd:code="LS2"><path style="stroke-width:1.42 ;&st7;  " d=" M   624.65,   429.55  L   620.40,   433.80  L   616.15,   429.55  " /><path style="stroke-width:1.42 ;&st7;  " d=" M   616.15,   426.15  L   620.40,   430.40  L   624.65,   426.15  " /><text style="&st18;" transform="matrix(&st16;  604.66  441.43 )">10</text></g><g ewd:figtype="w2w" ewd:figID="36" ewd:code="UI5"><path style="stroke-width:1.42 ;&st7;  " d=" M   692.63,   449.38  L   688.38,   445.13  L   684.14,   449.38  " /><path style="stroke-width:1.42 ;&st7;  " d=" M   692.63,   452.78  L   688.38,   448.53  L   684.14,   452.78  " /><text style="&st18;" transform="matrix(&st16;  675.75  441.43 )">6</text></g><g ewd:figtype="w2w" ewd:figID="37" ewd:code="LI1"><path style="stroke-width:1.42 ;&st7;  " d=" M   718.13,   553.63  L   722.38,   557.88  L   726.63,   553.63  " /><path style="stroke-width:1.42 ;&st7;  " d=" M   726.63,   557.03  L   722.38,   561.27  L   718.13,   557.03  " /><text style="&st18;" transform="matrix(&st16;  709.75  568.91 )">5</text></g><g ewd:figtype="w2w" ewd:figID="38" ewd:code="YI3"><path style="stroke-width:1.42 ;&st7;  " d=" M   726.63,   452.78  L   722.38,   448.53  L   718.13,   452.78  " /><path style="stroke-width:1.42 ;&st7;  " d=" M   726.63,   449.38  L   722.38,   445.13  L   718.13,   449.38  " /><text style="&st18;" transform="matrix(&st16;  709.75  441.43 )">7</text></g><g ewd:figtype="w2w" ewd:figID="39" ewd:code="YI3"><path style="stroke-width:1.42 ;&st7;  " d=" M   820.11,   452.78  L   815.86,   448.53  L   811.61,   452.78  " /><path style="stroke-width:1.42 ;&st7;  " d=" M   820.11,   449.38  L   815.86,   445.13  L   811.61,   449.38  " /><text style="&st18;" transform="matrix(&st16;  803.23  441.43 )">9</text></g><g ewd:figtype="w2w" ewd:figID="40" ewd:code="LI1"><path style="stroke-width:1.42 ;&st7;  " d=" M   845.61,   553.63  L   849.86,   557.88  L   854.11,   553.63  " /><path style="stroke-width:1.42 ;&st7;  " d=" M   854.11,   557.03  L   849.86,   561.27  L   845.61,   557.03  " /><text style="&st18;" transform="matrix(&st16;  837.23  568.91 )">4</text></g><g ewd:figtype="w2w" ewd:figID="41" ewd:code="UI5"><path style="stroke-width:1.42 ;&st7;  " d=" M   854.11,   449.38  L   849.86,   445.13  L   845.61,   449.38  " /><path style="stroke-width:1.42 ;&st7;  " d=" M   854.11,   452.78  L   849.86,   448.53  L   845.61,   452.78  " /><text style="&st18;" transform="matrix(&st16;  837.23  441.43 )">7</text></g><g ewd:figtype="w2w" ewd:figID="42" ewd:code="LS2"><path style="stroke-width:1.42 ;&st7;  " d=" M   922.10,   429.55  L   917.85,   433.80  L   913.60,   429.55  " /><path style="stroke-width:1.42 ;&st7;  " d=" M   913.60,   426.15  L   917.85,   430.40  L   922.10,   426.15  " /><text style="&st18;" transform="matrix(&st16;  905.22  441.43 )">1</text></g><g ewd:code="" ewd:figID="94" ewd:comment="2" ewd:figtype="commref"><text style="&st18;" transform="matrix(&st16;  854.95  365.79 )">(*2)</text></g><g ewd:code="" ewd:figID="95" ewd:comment="1" ewd:figtype="commref"><text style="&st18;" transform="matrix(&st16;  854.95  356.73 )">(*1)</text></g><g ewd:code="" ewd:figID="96" ewd:comment="3" ewd:figtype="commref"><text style="&st18;" transform="matrix(&st16;  854.95  374.86 )">(*3)</text></g><g ewd:code="2" ewd:figID="81" ewd:comment="" ewd:figtype="comment"><text style="&st18;" transform="matrix(&st16;  837.95  71.74 )" ewd:textID="2">* 2 :Except Pick-Up Body Type</text></g><g ewd:code="1" ewd:figID="85" ewd:comment="" ewd:figtype="comment"><text style="&st18;" transform="matrix(&st16;  837.95  63.24 )" ewd:textID="1">* 1 :2-Door Pick-Up Body Type</text></g><g ewd:code="3" ewd:figID="80" ewd:comment="" ewd:figtype="comment"><text style="&st18;" transform="matrix(&st16;  837.95  80.24 )" ewd:textID="3">* 3 :4-Door Pick-Up Body Type</text></g></svg>