<?xml version="1.0" encoding="utf-8"?>
<!DOCTYPE svg PUBLIC "-//W3C//DTD SVG 1.0//EN" "http://www.w3.org/TR/2001/REC-SVG-20010904/DTD/svg10.dtd"[
	<!ENTITY ns_flows "http://ns.adobe.com/Flows/1.0/">
	<!ENTITY ns_svg "http://www.w3.org/2000/svg">
	<!ENTITY ns_xlink "http://www.w3.org/1999/xlink">
	<!ENTITY st0 "font-size:7px;font-family:'MS-PGothic';adobe-font-script:japanese;">
	<!ENTITY st1 "font-size:6px;font-family:'ArialMT';">
	<!-- White fill  -->
	<!ENTITY st2 "fill:#FFFFFF;stroke:#000000; stroke-width:1.41;stroke-linecap:round;stroke-linejoin:round;">
	<!-- Yellow fill  -->
	<!ENTITY st3 "fill:#FFFFCC;stroke:#FFFFCC; stroke-width:0.1;stroke-linecap:round;stroke-linejoin:round;">
	<!-- Gray fill  -->
	<!ENTITY st4 "fill:#CCCCCC;stroke:#CCCCCC; stroke-width:0.1;stroke-linecap:round;stroke-linejoin:round;">
	<!-- Light-blue fill -->
	<!ENTITY st5 "fill:#CCECF4;stroke:#000000; stroke-width:1.133;stroke-linecap:round;stroke-linejoin:round;">
	<!ENTITY st6 "fill:none;stroke-linecap:butt; stroke-linejoin:round;">
	<!ENTITY st7 "fill:none;stroke:#000000;stroke-linecap:round;stroke-linejoin:round;">
	<!ENTITY st8 "enable-background:new    ;">
	<!-- Black fill -->
	<!ENTITY st9 "fill:#000000;stroke:#000000; stroke-linecap:round;stroke-linejoin:round;">
	<!-- SRS note   -->
	<!ENTITY st10 "font-size:9px;font-family:'ArialMT';">
	<!ENTITY st11 "font-size:9px;font-family:'Svg Symbol';">
	<!ENTITY st12 "font-size:6px;font-family:'Svg Symbol';">
	<!ENTITY st13 "fill:none;stroke:#ff0000;stroke-linecap:round;stroke-linejoin:round;">
	<!-- Yellow fill  -->
	<!ENTITY st14 "fill:#FFFF00;stroke:#FFFF00; stroke-width:0.1;stroke-linecap:round;stroke-linejoin:round;">
	<!ENTITY st15 "font-size:6px;font-family:'MS-PGothic';adobe-font-script:japanese;">
	<!ENTITY st16 "1.00 0.00 0.00 1.00">
	<!ENTITY st17 "0.00 -1.00 1.00 0.00">
	<!ENTITY st18 "font-size:6px;font-family:'Arial';">
	<!ENTITY st19 "font-size:9px;font-family:'Arial';">
	<!ENTITY st20 "font-size:6px;font-family:'MS-PGothic','MS PGothic';adobe-font-script:japanese;">
	<!ENTITY st21 "font-size:7px;font-family:'MS-PGothic','MS PGothic';adobe-font-script:japanese;">
	<!ATTLIST svg
		xmlns:ewd CDATA #FIXED "http://shcl.co.jp/ewd"
		xmlns:a CDATA #FIXED "http://ns.adobe.com/AdobeSVGViewerExtensions/3.0/"
		ewd:ver CDATA #IMPLIED
	>
	<!ATTLIST a
		ewd:lineID CDATA #IMPLIED
		ewd:groupID CDATA #IMPLIED
		ewd:figtype CDATA #IMPLIED
		ewd:code CDATA #IMPLIED
		ewd:figID CDATA #IMPLIED
		ewd:pinNo CDATA #IMPLIED
		ewd:comment CDATA #IMPLIED >
	<!ATTLIST g
		ewd:lineID CDATA #IMPLIED
		ewd:groupID CDATA #IMPLIED
		ewd:figtype CDATA #IMPLIED
		ewd:code CDATA #IMPLIED
		ewd:figID CDATA #IMPLIED
		ewd:pinNo CDATA #IMPLIED
		ewd:comment CDATA #IMPLIED >
	<!ATTLIST text
		ewd:textID CDATA #IMPLIED >
	<!ATTLIST title
		ewd:textID CDATA #IMPLIED >
]>
<!-- Generator: Shintec Hozumi YS   -->
<svg onload="call_execInitLoadProc_svg('system')" style="overflow:visible;  enable-background:new 0 0 2833.399 710.000" viewBox="0 0 2833.399 710.000" height="710.000" width="2833.399" xml:space="preserve" ewd:ver="2.1.2.9" xmlns="&ns_svg;" xmlns:a="http://ns.adobe.com/AdobeSVGViewerExtensions/3.0/" xmlns:ewd="http://shcl.co.jp/ewd" xmlns:xlink="&ns_xlink;">
<path style="stroke-width:1.42 ;&st7;  " d=" M  2741.51,   486.20  L  2736.54,   491.18  " /><path style="stroke-width:1.42 ;&st7;  " d=" M  2748.57,   503.20  L  2753.54,   498.23  " /><path style="stroke-width:1.42 ;&st7;  " d=" M  2736.54,   498.23  L  2741.51,   503.20  " /><path style="stroke-width:1.42 ;&st7;  " d=" M  2753.54,   491.18  L  2748.57,   486.20  " /><path style="stroke-width:1.42 ;&st7;  " d=" M  2515.58,   350.23  L  2524.08,   350.23  " /><text style="&st18;" transform="matrix(&st16;  2560.23  168.06 )">L-W</text><text style="&st18;" transform="matrix(&st16;  2611.23  168.06 )">L-W</text><text style="&st18;" transform="matrix(&st16;  2564.38  142.56 )">B</text><text style="&st18;" transform="matrix(&st16;  2615.37  142.56 )">B</text><text style="&st18;" transform="matrix(&st17;  2690.35  636.63 )">W-B</text><text style="&st18;" transform="matrix(&st17;  2520.38  390.06 )">L-W</text><text style="&st18;" transform="matrix(&st17;  2520.38  288.08 )">L-W</text><text style="&st18;" transform="matrix(&st17;  2741.35  530.4 )">W-B</text><text style="&st18;" transform="matrix(&st17;  2741.35  636.63 )">W-B</text><text style="&st18;" transform="matrix(&st17;  2707.35  283.93 )">B</text><text style="&st18;" transform="matrix(&st17;  2775.34  288.08 )">L-W</text><text style="&st18;" transform="matrix(&st17;  2741.35  466.66 )">W-B</text><text style="&st18;" transform="matrix(&st17;  2531.71  388.93 )">(*9)</text><text style="&st18;" transform="matrix(&st17;  2531.71  286.95 )">(*9)</text><text style="&st18;" transform="matrix(&st17;  2718.68  286.95 )">(*9)</text><text style="&st18;" transform="matrix(&st17;  2786.67  286.95 )">(*9)</text><text style="&st18;" transform="matrix(&st17;  2752.68  465.42 )">(*9)</text><text style="&st18;" transform="matrix(&st17;  2752.68  529.16 )">(*9)</text><text style="&st18;" transform="matrix(&st17;  2701.69  635.39 )">(*9)</text><text style="&st18;" transform="matrix(&st17;  2752.68  635.39 )">(*9)</text><text style="&st18;" transform="matrix(&st16;  2561.36  153.9 )">(*9)</text><text style="&st18;" transform="matrix(&st16;  2612.35  153.9 )">(*9)</text><text style="&st18;" transform="matrix(&st16;  2561.36  179.39 )">(*9)</text><text style="&st18;" transform="matrix(&st16;  2612.35  179.39 )">(*9)</text><g ewd:figtype="conn" ewd:figID="19" ewd:code="L39"><path style="stroke-width:0.85 ;&st7;  " d=" M  2745.04,   562.69  L  2736.54,   562.69  " /><path style="stroke-width:0.85 ;&st7;  " d=" M  2745.04,   554.19  L  2745.04,   571.19  " /><path style="stroke-width:1.42 ;&st7;  " d=" M  2736.54,   554.19  L  2753.54,   554.19  L  2753.54,   571.19  L  2736.54,   571.19  L  2736.54,   554.19  " /><path style="stroke-width:0.85 ;&st7;  " d=" M  2743.85,   561.69  L  2743.58,   562.16  L  2743.48,   562.69  L  2743.58,   563.22  L  2743.85,   563.69  L  2744.26,   564.04  L  2744.77,   564.23  L  2745.31,   564.23  L  2745.82,   564.04  L  2746.23,   563.69  L  2746.50,   563.22  L  2746.60,   562.69  L  2746.50,   562.16  L  2746.23,   561.69  L  2745.82,   561.34  L  2745.31,   561.16  L  2744.77,   561.16  L  2744.26,   561.34  L  2743.85,   561.69  L  2744.24,   562.40  L  2744.24,   562.98  L  2744.62,   563.43  L  2745.19,   563.53  L  2745.69,   563.24  L  2745.89,   562.69  L  2745.69,   562.14  L  2745.19,   561.86  L  2744.62,   561.95  L  2745.04,   562.69  " /><text style="&st18;" transform="matrix(&st16;  2730.36  559.0 )">5</text><text style="&st18;" transform="matrix(&st16;  2738.86  579.38 )">4</text><text style="&st18;" transform="matrix(&st16;  2735.76  550.5 )">13</text><g ewd:figtype="title"><text style="&st18;" transform="matrix(&st17;  2761.43  574.09 )">L39</text><text style="&st18;" transform="matrix(&st17;  2768.26  574.1 )" ewd:textID="25">No. 31 Junction Connector</text></g></g><g ewd:figtype="conn" ewd:figID="20" ewd:code="L24"><path style="stroke-width:0.85 ;&st7;   " d=" M  2780.45,   367.22  C  2780.45    366.44   2779.82    365.81   2779.04    365.81  " /><path style="stroke-width:0.85 ;&st7;   " d=" M  2779.04,   365.81  C  2778.25    365.81   2777.62    366.44   2777.62    367.22  " /><path style="stroke-width:0.85 ;&st7;   " d=" M  2777.62,   367.22  C  2777.62    368.01   2778.25    368.64   2779.04    368.64  " /><path style="stroke-width:0.85 ;&st7;   " d=" M  2779.04,   368.64  C  2779.82    368.64   2780.45    368.01   2780.45    367.22  " /><path style="stroke-width:0.85 ;&st7;   " d=" M  2712.46,   401.22  C  2712.46    400.44   2711.83    399.80   2711.05    399.80  " /><path style="stroke-width:0.85 ;&st7;   " d=" M  2711.05,   399.80  C  2710.26    399.80   2709.63    400.44   2709.63    401.22  " /><path style="stroke-width:0.85 ;&st7;   " d=" M  2709.63,   401.22  C  2709.63    402.00   2710.26    402.63   2711.05    402.63  " /><path style="stroke-width:0.85 ;&st7;   " d=" M  2711.05,   402.63  C  2711.83    402.63   2712.46    402.00   2712.46    401.22  " /><path style="stroke-width:0.85 ;&st7;   " d=" M  2746.46,   401.22  C  2746.46    400.44   2745.82    399.80   2745.04    399.80  " /><path style="stroke-width:0.85 ;&st7;   " d=" M  2745.04,   399.80  C  2744.26    399.80   2743.62    400.44   2743.62    401.22  " /><path style="stroke-width:0.85 ;&st7;   " d=" M  2743.62,   401.22  C  2743.62    402.00   2744.26    402.63   2745.04    402.63  " /><path style="stroke-width:0.85 ;&st7;   " d=" M  2745.04,   402.63  C  2745.82    402.63   2746.46    402.00   2746.46    401.22  " /><path style="stroke-width:0.85 ;&st7;   " d=" M  2746.46,   367.22  C  2746.46    366.44   2745.82    365.81   2745.04    365.81  " /><path style="stroke-width:0.85 ;&st7;   " d=" M  2745.04,   365.81  C  2744.26    365.81   2743.62    366.44   2743.62    367.22  " /><path style="stroke-width:0.85 ;&st7;   " d=" M  2743.62,   367.22  C  2743.62    368.01   2744.26    368.64   2745.04    368.64  " /><path style="stroke-width:0.85 ;&st7;   " d=" M  2745.04,   368.64  C  2745.82    368.64   2746.46    368.01   2746.46    367.22  " /><path style="stroke-width:0.85 ;&st7;  " d=" M  2779.03,   341.73  L  2779.03,   324.73  " /><path style="stroke-width:0.85 ;&st7;  " d=" M  2762.04,   341.73  L  2762.04,   409.72  " /><path style="stroke-width:1.42 ;&st7;  " d=" M  2643.06,   341.73  L  2643.06,   409.72  L  2796.03,   409.72  L  2796.03,   341.73  L  2643.06,   341.73  " /><path style="stroke-width:0.85 ;&st7;  " d=" M  2668.55,   358.73  L  2796.03,   358.73  " /><path style="stroke-width:0.85 ;&st7;  " d=" M  2668.55,   375.72  L  2796.03,   375.72  " /><path style="stroke-width:0.85 ;&st7;  " d=" M  2668.55,   392.72  L  2796.03,   392.72  " /><path style="stroke-width:0.85 ;&st7;  " d=" M  2728.04,   341.73  L  2728.04,   409.72  " /><path style="stroke-width:0.85 ;&st7;  " d=" M  2694.05,   341.73  L  2694.05,   409.72  " /><path style="stroke-width:0.85 ;&st7;  " d=" M  2668.55,   341.73  L  2668.55,   409.72  " /><path style="stroke-width:0.85 ;&st7;  " d=" M  2746.46,   367.22  L  2777.62,   367.22  " /><path style="stroke-width:0.85 ;&st7;  " d=" M  2745.04,   409.72  L  2745.04,   426.71  " /><path style="stroke-width:0.85 ;&st7;  " d=" M  2711.05,   341.73  L  2711.05,   324.73  " /><path style="stroke-width:1.42 ;&st7;  " d=" M  2626.06,   426.71  L  2813.03,   426.71  L  2813.03,   324.73  L  2626.06,   324.73  L  2626.06,   426.71  " /><path style="stroke-width:0.85 ;&st7;  " d=" M  2712.46,   401.22  L  2743.62,   401.22  " /><text style="&st18;" transform="matrix(&st16;  2781.62  332.92 )">TL</text><text style="&st18;" transform="matrix(&st16;  2775.03  352.2 )">TL</text><text style="&st18;" transform="matrix(&st16;  2713.63  332.92 )">TR</text><text style="&st18;" transform="matrix(&st16;  2747.62  423.02 )">EL</text><text style="&st18;" transform="matrix(&st17;  2657.78  390.79 )" ewd:textID="31">Turn Switch</text><text style="&st18;" transform="matrix(&st16;  2676.94  403.19 )">RH</text><text style="&st18;" transform="matrix(&st16;  2679.0  386.19 )">N</text><text style="&st18;" transform="matrix(&st16;  2676.98  369.19 )">LH</text><text style="&st18;" transform="matrix(&st16;  2707.0  352.2 )">TR</text><text style="&st18;" transform="matrix(&st16;  2741.11  352.2 )">EL</text><text style="&st18;" transform="matrix(&st16;  2699.25  322.17 )">16</text><text style="&st18;" transform="matrix(&st16;  2708.66  322.17 )">D</text><path style="stroke-width:1.42 ;&st7;   " d=" M  2715.58,   320.20  C  2715.58    317.70   2713.55    315.67   2711.05    315.67  " /><path style="stroke-width:1.42 ;&st7;   " d=" M  2711.05,   315.67  C  2708.54    315.67   2706.51    317.70   2706.51    320.20  " /><path style="stroke-width:1.42 ;&st7;   " d=" M  2706.51,   320.20  C  2706.51    322.70   2708.54    324.73   2711.05    324.73  " /><path style="stroke-width:1.42 ;&st7;   " d=" M  2711.05,   324.73  C  2713.55    324.73   2715.58    322.70   2715.58    320.20  " /><text style="&st18;" transform="matrix(&st16;  2733.25  433.22 )">19</text><text style="&st18;" transform="matrix(&st16;  2742.66  433.22 )">D</text><path style="stroke-width:1.42 ;&st7;   " d=" M  2749.57,   431.25  C  2749.57    428.74   2747.54    426.71   2745.04    426.71  " /><path style="stroke-width:1.42 ;&st7;   " d=" M  2745.04,   426.71  C  2742.54    426.71   2740.51    428.74   2740.51    431.25  " /><path style="stroke-width:1.42 ;&st7;   " d=" M  2740.51,   431.25  C  2740.51    433.75   2742.54    435.78   2745.04    435.78  " /><path style="stroke-width:1.42 ;&st7;   " d=" M  2745.04,   435.78  C  2747.54    435.78   2749.57    433.75   2749.57    431.25  " /><text style="&st18;" transform="matrix(&st16;  2767.24  322.17 )">18</text><path style="stroke-width:1.42 ;&st7;   " d=" M  2783.57,   320.20  C  2783.57    317.70   2781.54    315.67   2779.04    315.67  " /><path style="stroke-width:1.42 ;&st7;   " d=" M  2779.04,   315.67  C  2776.53    315.67   2774.50    317.70   2774.50    320.20  " /><path style="stroke-width:1.42 ;&st7;   " d=" M  2774.50,   320.20  C  2774.50    322.70   2776.53    324.73   2779.04    324.73  " /><path style="stroke-width:1.42 ;&st7;   " d=" M  2779.04,   324.73  C  2781.54    324.73   2783.57    322.70   2783.57    320.20  " /><text style="&st18;" transform="matrix(&st16;  2776.65  322.17 )">D</text><g ewd:figtype="title"><text style="&st18;" transform="matrix(&st17;  2827.75  429.62 )" ewd:textID="16">Headlight Dimmer Switch Assembly</text><text style="&st18;" transform="matrix(&st17;  2820.92  429.61 )">L24(D)</text></g></g><g ewd:figtype="w2w" ewd:figID="87" ewd:code="IL2"><path style="stroke-width:1.42 ;&st7;  " d=" M  2528.33,   344.56  L  2524.08,   348.81  L  2519.83,   344.56  " /><path style="stroke-width:1.42 ;&st7;  " d=" M  2519.83,   341.16  L  2524.08,   345.41  L  2528.33,   341.16  " /><text style="&st18;" transform="matrix(&st16;  2508.34  356.45 )">22</text></g><g ewd:figtype="gp" ewd:figID="96" ewd:code="LB"><path style="stroke-width: 0.85 ;&st7;  " d=" M  2694.05,   697.25  L  2694.05,   701.50  " /><path style="stroke-width: 0.85 ;&st7;  " d=" M  2685.55,   701.50  L  2702.55,   701.50  " /><path style="stroke-width: 0.85 ;&st7;  " d=" M  2689.80,   704.33  L  2698.30,   704.33  " /><path style="stroke-width: 0.85 ;&st7;  " d=" M  2691.22,   707.17  L  2696.88,   707.17  " /><path style="stroke-width: 0.85 ;&st7;  " d=" M  2692.63,   710.00  L  2695.47,   710.00  " /></g><g ewd:figtype="gp" ewd:figID="97" ewd:code="LA"><path style="stroke-width: 0.85 ;&st7;  " d=" M  2743.62,   710.00  L  2746.46,   710.00  " /><path style="stroke-width: 0.85 ;&st7;  " d=" M  2742.21,   707.17  L  2747.87,   707.17  " /><path style="stroke-width: 0.85 ;&st7;  " d=" M  2740.79,   704.33  L  2749.29,   704.33  " /><path style="stroke-width: 0.85 ;&st7;  " d=" M  2736.54,   701.50  L  2753.54,   701.50  " /><path style="stroke-width: 0.85 ;&st7;  " d=" M  2745.04,   697.25  L  2745.04,   701.50  " /></g></svg>