<?xml version="1.0" encoding="utf-8"?>
<!DOCTYPE svg PUBLIC "-//W3C//DTD SVG 1.0//EN" "http://www.w3.org/TR/2001/REC-SVG-20010904/DTD/svg10.dtd"[
	<!ENTITY ns_flows "http://ns.adobe.com/Flows/1.0/">
	<!ENTITY ns_svg "http://www.w3.org/2000/svg">
	<!ENTITY ns_xlink "http://www.w3.org/1999/xlink">
	<!ENTITY st0 "font-size:7px;font-family:'MS-PGothic';adobe-font-script:japanese;">
	<!ENTITY st1 "font-size:6px;font-family:'ArialMT';">
	<!-- White fill  -->
	<!ENTITY st2 "fill:#FFFFFF;stroke:#000000; stroke-width:1.41;stroke-linecap:round;stroke-linejoin:round;">
	<!-- Yellow fill  -->
	<!ENTITY st3 "fill:#FFFFCC;stroke:#FFFFCC; stroke-width:0.1;stroke-linecap:round;stroke-linejoin:round;">
	<!-- Gray fill  -->
	<!ENTITY st4 "fill:#CCCCCC;stroke:#CCCCCC; stroke-width:0.1;stroke-linecap:round;stroke-linejoin:round;">
	<!-- Light-blue fill -->
	<!ENTITY st5 "fill:#CCECF4;stroke:#000000; stroke-width:1.133;stroke-linecap:round;stroke-linejoin:round;">
	<!ENTITY st6 "fill:none;stroke-linecap:butt; stroke-linejoin:round;">
	<!ENTITY st7 "fill:none;stroke:#000000;stroke-linecap:round;stroke-linejoin:round;">
	<!ENTITY st8 "enable-background:new    ;">
	<!-- Black fill -->
	<!ENTITY st9 "fill:#000000;stroke:#000000; stroke-linecap:round;stroke-linejoin:round;">
	<!-- SRS note   -->
	<!ENTITY st10 "font-size:9px;font-family:'ArialMT';">
	<!ENTITY st11 "font-size:9px;font-family:'Svg Symbol';">
	<!ENTITY st12 "font-size:6px;font-family:'Svg Symbol';">
	<!ENTITY st13 "fill:none;stroke:#ff0000;stroke-linecap:round;stroke-linejoin:round;">
	<!-- Yellow fill  -->
	<!ENTITY st14 "fill:#FFFF00;stroke:#FFFF00; stroke-width:0.1;stroke-linecap:round;stroke-linejoin:round;">
	<!ENTITY st15 "font-size:6px;font-family:'MS-PGothic';adobe-font-script:japanese;">
	<!ENTITY st16 "1.00 0.00 0.00 1.00">
	<!ENTITY st17 "0.00 -1.00 1.00 0.00">
	<!ENTITY st18 "font-size:6px;font-family:'Arial';">
	<!ENTITY st19 "font-size:9px;font-family:'Arial';">
	<!ENTITY st20 "font-size:6px;font-family:'MS-PGothic','MS PGothic';adobe-font-script:japanese;">
	<!ENTITY st21 "font-size:7px;font-family:'MS-PGothic','MS PGothic';adobe-font-script:japanese;">
	<!ATTLIST svg
		xmlns:ewd CDATA #FIXED "http://shcl.co.jp/ewd"
		xmlns:a CDATA #FIXED "http://ns.adobe.com/AdobeSVGViewerExtensions/3.0/"
		ewd:ver CDATA #IMPLIED
	>
	<!ATTLIST a
		ewd:lineID CDATA #IMPLIED
		ewd:groupID CDATA #IMPLIED
		ewd:figtype CDATA #IMPLIED
		ewd:code CDATA #IMPLIED
		ewd:figID CDATA #IMPLIED
		ewd:pinNo CDATA #IMPLIED
		ewd:comment CDATA #IMPLIED >
	<!ATTLIST g
		ewd:lineID CDATA #IMPLIED
		ewd:groupID CDATA #IMPLIED
		ewd:figtype CDATA #IMPLIED
		ewd:code CDATA #IMPLIED
		ewd:figID CDATA #IMPLIED
		ewd:pinNo CDATA #IMPLIED
		ewd:comment CDATA #IMPLIED >
	<!ATTLIST text
		ewd:textID CDATA #IMPLIED >
	<!ATTLIST title
		ewd:textID CDATA #IMPLIED >
]>
<!-- Generator: Shintec Hozumi YS   -->
<svg onload="call_execInitLoadProc_svg('system')" style="overflow:visible;  enable-background:new 0 0 2833.399 710.000" viewBox="0 0 2833.399 710.000" height="710.000" width="2833.399" xml:space="preserve" ewd:ver="2.1.2.9" xmlns="&ns_svg;" xmlns:a="http://ns.adobe.com/AdobeSVGViewerExtensions/3.0/" xmlns:ewd="http://shcl.co.jp/ewd" xmlns:xlink="&ns_xlink;">
<path style="stroke-width:1.42 ;&st7;  " d=" M  2172.11,   528.70  L  2167.14,   533.67  " /><path style="stroke-width:1.42 ;&st7;  " d=" M  2179.16,   545.69  L  2184.14,   540.73  " /><path style="stroke-width:1.42 ;&st7;  " d=" M  2167.14,   540.73  L  2172.11,   545.69  " /><path style="stroke-width:1.42 ;&st7;  " d=" M  2184.14,   533.67  L  2179.16,   528.70  " /><path style="stroke-width:1.42 ;&st7;  " d=" M  2481.59,   350.23  L  2490.08,   350.23  " /><text style="&st18;" transform="matrix(&st16;  2045.97  253.05 )">B</text><text style="&st18;" transform="matrix(&st16;  2096.96  253.05 )">B</text><text style="&st18;" transform="matrix(&st16;  2092.81  227.55 )">L-W</text><text style="&st18;" transform="matrix(&st17;  2486.39  385.91 )">B</text><text style="&st18;" transform="matrix(&st17;  2171.94  594.14 )">W-B</text><text style="&st18;" transform="matrix(&st17;  2409.9  283.81 )">L</text><text style="&st18;" transform="matrix(&st17;  2324.91  283.81 )">L</text><text style="&st18;" transform="matrix(&st17;  2324.92  415.55 )">L-W</text><text style="&st18;" transform="matrix(&st17;  2409.9  411.41 )">B</text><text style="&st18;" transform="matrix(&st17;  2409.9  496.39 )">B</text><text style="&st18;" transform="matrix(&st17;  2358.91  500.54 )">L-W</text><text style="&st18;" transform="matrix(&st17;  2324.92  500.54 )">L-W</text><text style="&st18;" transform="matrix(&st17;  2256.93  500.66 )">W-B</text><text style="&st18;" transform="matrix(&st17;  2231.43  500.54 )">L-W</text><text style="&st18;" transform="matrix(&st17;  2171.94  500.66 )">W-B</text><text style="&st18;" transform="matrix(&st17;  2146.44  496.39 )">B</text><text style="&st18;" transform="matrix(&st17;  2256.93  288.08 )">L-W</text><text style="&st18;" transform="matrix(&st17;  2231.43  283.81 )">L</text><text style="&st18;" transform="matrix(&st17;  2171.94  283.93 )">B</text><text style="&st18;" transform="matrix(&st17;  2146.44  283.81 )">L</text><text style="&st18;" transform="matrix(&st17;  2486.39  283.93 )">B</text><text style="&st18;" transform="matrix(&st17;  2146.44  130.84 )">L</text><text style="&st18;" transform="matrix(&st16;  2041.82  227.55 )">L-W</text><text style="&st18;" transform="matrix(&st16;  2042.95  238.88 )">(*9)</text><text style="&st18;" transform="matrix(&st16;  2093.94  238.88 )">(*9)</text><text style="&st18;" transform="matrix(&st16;  2042.95  264.38 )">(*9)</text><text style="&st18;" transform="matrix(&st16;  2093.94  264.38 )">(*9)</text><text style="&st18;" transform="matrix(&st17;  2157.78  133.98 )">(*9)</text><text style="&st18;" transform="matrix(&st17;  2157.78  286.95 )">(*9)</text><text style="&st18;" transform="matrix(&st17;  2183.27  286.95 )">(*9)</text><text style="&st18;" transform="matrix(&st17;  2242.76  286.95 )">(*9)</text><text style="&st18;" transform="matrix(&st17;  2268.26  286.95 )">(*9)</text><text style="&st18;" transform="matrix(&st17;  2336.25  286.95 )">(*9)</text><text style="&st18;" transform="matrix(&st17;  2157.78  499.42 )">(*9)</text><text style="&st18;" transform="matrix(&st17;  2183.27  499.42 )">(*9)</text><text style="&st18;" transform="matrix(&st17;  2183.27  592.9 )">(*9)</text><text style="&st18;" transform="matrix(&st17;  2242.76  499.42 )">(*9)</text><text style="&st18;" transform="matrix(&st17;  2268.26  499.42 )">(*9)</text><text style="&st18;" transform="matrix(&st17;  2336.25  499.42 )">(*9)</text><text style="&st18;" transform="matrix(&st17;  2370.24  499.42 )">(*9)</text><text style="&st18;" transform="matrix(&st17;  2336.25  414.43 )">(*9)</text><text style="&st18;" transform="matrix(&st17;  2421.23  414.43 )">(*9)</text><text style="&st18;" transform="matrix(&st17;  2421.23  499.42 )">(*9)</text><text style="&st18;" transform="matrix(&st17;  2421.23  286.95 )">(*9)</text><text style="&st18;" transform="matrix(&st17;  2497.72  286.95 )">(*9)</text><text style="&st18;" transform="matrix(&st17;  2497.72  388.93 )">(*9)</text><g ewd:figtype="conn" ewd:figID="17" ewd:code="I63,I65"><path style="stroke-width:0.85 ;&st7;  " d=" M  2327.42,   451.21  L  2327.15,   451.68  L  2327.05,   452.21  L  2327.15,   452.74  L  2327.42,   453.21  L  2327.83,   453.56  L  2328.34,   453.75  L  2328.88,   453.75  L  2329.39,   453.56  L  2329.80,   453.21  L  2330.07,   452.74  L  2330.17,   452.21  L  2330.07,   451.68  L  2329.80,   451.21  L  2329.39,   450.86  L  2328.88,   450.67  L  2328.34,   450.67  L  2327.83,   450.86  L  2327.42,   451.21  L  2327.81,   451.92  L  2327.81,   452.50  L  2328.19,   452.95  L  2328.76,   453.05  L  2329.26,   452.76  L  2329.46,   452.21  L  2329.26,   451.66  L  2328.76,   451.37  L  2328.19,   451.47  L  2328.61,   452.21  " /><path style="stroke-width:0.85 ;&st7;  " d=" M  2362.60,   460.71  L  2362.60,   452.21  L  2328.61,   452.21  " /><path style="stroke-width:0.85 ;&st7;  " d=" M  2328.61,   443.71  L  2328.61,   460.71  " /><path style="stroke-width:1.42 ;&st7;  " d=" M  2320.11,   443.71  L  2320.11,   460.71  L  2371.10,   460.71  L  2371.10,   443.71  L  2320.11,   443.71  " /><text style="&st18;" transform="matrix(&st16;  2319.92  467.21 )">8</text><text style="&st18;" transform="matrix(&st16;  2326.31  467.21 )">A</text><path style="stroke-width:1.42 ;&st7;   " d=" M  2333.14,   465.24  C  2333.14    462.74   2331.11    460.71   2328.61    460.71  " /><path style="stroke-width:1.42 ;&st7;   " d=" M  2328.61,   460.71  C  2326.11    460.71   2324.08    462.74   2324.08    465.24  " /><path style="stroke-width:1.42 ;&st7;   " d=" M  2324.08,   465.24  C  2324.08    467.74   2326.11    469.77   2328.61    469.77  " /><path style="stroke-width:1.42 ;&st7;   " d=" M  2328.61,   469.77  C  2331.11    469.77   2333.14    467.74   2333.14    465.24  " /><text style="&st18;" transform="matrix(&st16;  2316.82  441.15 )">11</text><path style="stroke-width:1.42 ;&st7;   " d=" M  2333.14,   439.18  C  2333.14    436.68   2331.11    434.65   2328.61    434.65  " /><path style="stroke-width:1.42 ;&st7;   " d=" M  2328.61,   434.65  C  2326.11    434.65   2324.08    436.68   2324.08    439.18  " /><path style="stroke-width:1.42 ;&st7;   " d=" M  2324.08,   439.18  C  2324.08    441.68   2326.11    443.71   2328.61    443.71  " /><path style="stroke-width:1.42 ;&st7;   " d=" M  2328.61,   443.71  C  2331.11    443.71   2333.14    441.68   2333.14    439.18  " /><text style="&st18;" transform="matrix(&st16;  2326.42  441.15 )">B</text><text style="&st18;" transform="matrix(&st16;  2353.91  467.21 )">7</text><text style="&st18;" transform="matrix(&st16;  2360.3  467.21 )">A</text><path style="stroke-width:1.42 ;&st7;   " d=" M  2367.14,   465.24  C  2367.14    462.74   2365.11    460.71   2362.61    460.71  " /><path style="stroke-width:1.42 ;&st7;   " d=" M  2362.61,   460.71  C  2360.10    460.71   2358.07    462.74   2358.07    465.24  " /><path style="stroke-width:1.42 ;&st7;   " d=" M  2358.07,   465.24  C  2358.07    467.74   2360.10    469.77   2362.61    469.77  " /><path style="stroke-width:1.42 ;&st7;   " d=" M  2362.61,   469.77  C  2365.11    469.77   2367.14    467.74   2367.14    465.24  " /><g ewd:figtype="title"><text style="&st18;" transform="matrix(&st17;  2379.0  463.61 )">I63(A),I65(B)</text><text style="&st18;" transform="matrix(&st17;  2385.82  463.61 )" ewd:textID="21">No. 13 Junction Connector</text></g></g><g ewd:figtype="conn" ewd:figID="18" ewd:code="I63,I65"><path style="stroke-width:0.85 ;&st7;  " d=" M  2412.40,   451.21  L  2412.13,   451.68  L  2412.04,   452.21  L  2412.13,   452.74  L  2412.40,   453.21  L  2412.82,   453.56  L  2413.32,   453.75  L  2413.87,   453.75  L  2414.37,   453.56  L  2414.79,   453.21  L  2415.06,   452.74  L  2415.15,   452.21  L  2415.06,   451.68  L  2414.79,   451.21  L  2414.37,   450.86  L  2413.87,   450.67  L  2413.32,   450.67  L  2412.82,   450.86  L  2412.40,   451.21  L  2412.80,   451.92  L  2412.80,   452.50  L  2413.17,   452.95  L  2413.74,   453.05  L  2414.25,   452.76  L  2414.45,   452.21  L  2414.25,   451.66  L  2413.74,   451.37  L  2413.17,   451.47  L  2413.60,   452.21  " /><path style="stroke-width:0.85 ;&st7;  " d=" M  2413.60,   452.21  L  2447.59,   452.21  L  2447.59,   443.71  " /><path style="stroke-width:0.85 ;&st7;  " d=" M  2413.60,   443.71  L  2413.60,   460.71  " /><path style="stroke-width:1.42 ;&st7;  " d=" M  2405.10,   443.71  L  2405.10,   460.71  L  2456.09,   460.71  L  2456.09,   443.71  L  2405.10,   443.71  " /><text style="&st18;" transform="matrix(&st16;  2404.9  467.21 )">3</text><text style="&st18;" transform="matrix(&st16;  2411.41  467.21 )">B</text><path style="stroke-width:1.42 ;&st7;   " d=" M  2418.13,   465.24  C  2418.13    462.74   2416.10    460.71   2413.60    460.71  " /><path style="stroke-width:1.42 ;&st7;   " d=" M  2413.60,   460.71  C  2411.09    460.71   2409.06    462.74   2409.06    465.24  " /><path style="stroke-width:1.42 ;&st7;   " d=" M  2409.06,   465.24  C  2409.06    467.74   2411.09    469.77   2413.60    469.77  " /><path style="stroke-width:1.42 ;&st7;   " d=" M  2413.60,   469.77  C  2416.10    469.77   2418.13    467.74   2418.13    465.24  " /><text style="&st18;" transform="matrix(&st16;  2404.9  441.15 )">4</text><text style="&st18;" transform="matrix(&st16;  2411.29  441.15 )">A</text><path style="stroke-width:1.42 ;&st7;   " d=" M  2418.13,   439.18  C  2418.13    436.68   2416.10    434.65   2413.60    434.65  " /><path style="stroke-width:1.42 ;&st7;   " d=" M  2413.60,   434.65  C  2411.09    434.65   2409.06    436.68   2409.06    439.18  " /><path style="stroke-width:1.42 ;&st7;   " d=" M  2409.06,   439.18  C  2409.06    441.68   2411.09    443.71   2413.60    443.71  " /><path style="stroke-width:1.42 ;&st7;   " d=" M  2413.60,   443.71  C  2416.10    443.71   2418.13    441.68   2418.13    439.18  " /><text style="&st18;" transform="matrix(&st16;  2438.9  441.15 )">3</text><text style="&st18;" transform="matrix(&st16;  2445.29  441.15 )">A</text><path style="stroke-width:1.42 ;&st7;   " d=" M  2452.12,   439.18  C  2452.12    436.68   2450.09    434.65   2447.59    434.65  " /><path style="stroke-width:1.42 ;&st7;   " d=" M  2447.59,   434.65  C  2445.09    434.65   2443.06    436.68   2443.06    439.18  " /><path style="stroke-width:1.42 ;&st7;   " d=" M  2443.06,   439.18  C  2443.06    441.68   2445.09    443.71   2447.59    443.71  " /><path style="stroke-width:1.42 ;&st7;   " d=" M  2447.59,   443.71  C  2450.09    443.71   2452.12    441.68   2452.12    439.18  " /><g ewd:figtype="title"><text style="&st18;" transform="matrix(&st17;  2463.98  463.61 )">I63(A),I65(B)</text><text style="&st18;" transform="matrix(&st17;  2470.81  463.61 )" ewd:textID="21">No. 13 <tspan x="0 " dy="6.0">Junction </tspan><tspan x="0 " dy="6.0">Connector</tspan></text></g></g><g ewd:figtype="conn" ewd:figID="21" ewd:code="I22"><path style="stroke-width:0.85 ;&st7;  " d=" M  2409.35,   358.73  L  2417.85,   358.73  " /><path style="stroke-width:0.85 ;&st7;  " d=" M  2413.60,   350.23  L  2413.60,   375.72  " /><path style="stroke-width:1.42 ;&st7;  " d=" M  2405.10,   375.72  L  2422.09,   375.72  L  2422.09,   350.23  L  2405.10,   350.23  L  2405.10,   375.72  " /><path style="stroke-width:0.28 ;&st9;  " d=" M  2413.60,   358.73  L  2419.26,   367.22  L  2407.93,   367.22  L  2413.60,   358.73  " /><text style="&st18;" transform="matrix(&st16;  2407.41  346.54 )">2</text><text style="&st18;" transform="matrix(&st16;  2407.41  383.92 )">1</text><g ewd:figtype="title"><text style="&st18;" transform="matrix(&st17;  2429.99  378.62 )">I22</text><text style="&st18;" transform="matrix(&st17;  2436.81  378.63 )" ewd:textID="12">Diode (Turn Signal Light RH)</text></g></g><g ewd:figtype="conn" ewd:figID="22" ewd:code="I23"><path style="stroke-width:0.85 ;&st7;  " d=" M  2324.36,   358.73  L  2332.86,   358.73  " /><path style="stroke-width:0.85 ;&st7;  " d=" M  2328.61,   350.23  L  2328.61,   375.72  " /><path style="stroke-width:1.42 ;&st7;  " d=" M  2320.11,   375.72  L  2337.11,   375.72  L  2337.11,   350.23  L  2320.11,   350.23  L  2320.11,   375.72  " /><path style="stroke-width:0.28 ;&st9;  " d=" M  2328.61,   358.73  L  2334.28,   367.22  L  2322.94,   367.22  L  2328.61,   358.73  " /><text style="&st18;" transform="matrix(&st16;  2322.43  383.92 )">1</text><text style="&st18;" transform="matrix(&st16;  2322.43  346.54 )">2</text><g ewd:figtype="title"><text style="&st18;" transform="matrix(&st17;  2345.0  378.62 )">I23</text><text style="&st18;" transform="matrix(&st17;  2351.83  378.63 )" ewd:textID="11">Diode (Turn Signal Light LH)</text></g></g><g ewd:figtype="rb" ewd:figID="23" ewd:code="2"><path style="stroke-width:1.42 ;&st7;  " d=" M  2262.75,   367.22  L  2258.50,   367.22  " /><path style="stroke-width:1.42 ;&st7;  " d=" M  2262.75,   375.72  L  2258.50,   375.72  " /><path style="stroke-width:1.42 ;&st7;  " d=" M  2237.25,   367.22  L  2233.00,   367.22  " /><path style="stroke-width:1.42 ;&st7;  " d=" M  2237.25,   375.72  L  2233.00,   375.72  " /><path style="stroke-width:1.42 ;&st7;  " d=" M  2237.25,   469.21  L  2233.00,   469.21  " /><path style="stroke-width:1.42 ;&st7;  " d=" M  2237.25,   460.71  L  2233.00,   460.71  " /><path style="stroke-width:1.42 ;&st7;  " d=" M  2262.75,   469.21  L  2258.50,   469.21  " /><path style="stroke-width:1.42 ;&st7;  " d=" M  2262.75,   460.71  L  2258.50,   460.71  " /><path style="stroke-width:1.42 ;&st7;   " d=" M  2258.50,   367.22  C  2256.15    367.22   2254.25    369.13   2254.25    371.47  " /><path style="stroke-width:1.42 ;&st7;   " d=" M  2254.25,   371.47  C  2254.25    373.82   2256.15    375.72   2258.50    375.72  " /><path style="stroke-width:1.42 ;&st7;   " d=" M  2262.75,   375.72  C  2265.09    375.72   2267.00    373.82   2267.00    371.47  " /><path style="stroke-width:1.42 ;&st7;   " d=" M  2267.00,   371.47  C  2267.00    369.13   2265.09    367.22   2262.75    367.22  " /><path style="stroke-width:1.42 ;&st7;   " d=" M  2233.00,   367.22  C  2230.66    367.22   2228.75    369.13   2228.75    371.47  " /><path style="stroke-width:1.42 ;&st7;   " d=" M  2228.75,   371.47  C  2228.75    373.82   2230.66    375.72   2233.00    375.72  " /><path style="stroke-width:1.42 ;&st7;   " d=" M  2237.25,   375.72  C  2239.60    375.72   2241.50    373.82   2241.50    371.47  " /><path style="stroke-width:1.42 ;&st7;   " d=" M  2241.50,   371.47  C  2241.50    369.13   2239.60    367.22   2237.25    367.22  " /><path style="stroke-width:1.42 ;&st7;   " d=" M  2228.75,   464.96  C  2228.75    467.30   2230.66    469.21   2233.00    469.21  " /><path style="stroke-width:1.42 ;&st7;   " d=" M  2233.00,   460.71  C  2230.66    460.71   2228.75    462.61   2228.75    464.96  " /><path style="stroke-width:1.42 ;&st7;   " d=" M  2267.00,   464.96  C  2267.00    462.61   2265.09    460.71   2262.75    460.71  " /><path style="stroke-width:1.42 ;&st7;   " d=" M  2262.75,   469.21  C  2265.09    469.21   2267.00    467.30   2267.00    464.96  " /><path style="stroke-width:1.42 ;&st7;   " d=" M  2254.25,   464.96  C  2254.25    467.30   2256.15    469.21   2258.50    469.21  " /><path style="stroke-width:1.42 ;&st7;   " d=" M  2258.50,   460.71  C  2256.15    460.71   2254.25    462.61   2254.25    464.96  " /><path style="stroke-width:1.42 ;&st7;   " d=" M  2241.50,   464.96  C  2241.50    462.61   2239.60    460.71   2237.25    460.71  " /><path style="stroke-width:1.42 ;&st7;   " d=" M  2237.25,   469.21  C  2239.60    469.21   2241.50    467.30   2241.50    464.96  " /><path style="stroke-width:0.85 ;&st7;  " d=" M  2260.62,   401.22  L  2260.62,   375.72  " /><path style="stroke-width:0.28 ;&st9;  " d=" M  2260.62,   380.62  L  2263.45,   383.45  L  2263.45,   379.20  L  2260.62,   376.37  L  2257.79,   379.20  L  2257.79,   383.45  L  2260.62,   380.62  " /><path style="stroke-width:0.85 ;&st7;  " d=" M  2235.13,   401.22  L  2235.13,   375.72  " /><path style="stroke-width:0.28 ;&st9;  " d=" M  2235.13,   380.62  L  2237.96,   383.45  L  2237.96,   379.20  L  2235.13,   376.37  L  2232.29,   379.20  L  2232.29,   383.45  L  2235.13,   380.62  " /><path style="stroke-width:0.85 ;&st7;  " d=" M  2260.62,   460.71  L  2260.62,   435.21  " /><path style="stroke-width:0.28 ;&st9;  " d=" M  2260.62,   455.81  L  2257.79,   452.98  L  2257.79,   457.23  L  2260.62,   460.06  L  2263.45,   457.23  L  2263.45,   452.98  L  2260.62,   455.81  " /><path style="stroke-width:0.28 ;&st9;  " d=" M  2235.13,   455.81  L  2232.29,   452.98  L  2232.29,   457.23  L  2235.13,   460.06  L  2237.96,   457.23  L  2237.96,   452.98  L  2235.13,   455.81  " /><path style="stroke-width:0.85 ;&st7;  " d=" M  2235.13,   460.71  L  2235.13,   435.21  " /><text style="&st18;" transform="matrix(&st16;  2254.44  397.53 )">5</text><text style="&st18;" transform="matrix(&st16;  2228.94  397.53 )">1</text><text style="&st18;" transform="matrix(&st16;  2254.44  443.41 )">3</text><text style="&st18;" transform="matrix(&st16;  2228.94  443.41 )">2</text><text style="&st18;" transform="matrix(&st16;  2258.82  373.44 )">2</text><text style="&st18;" transform="matrix(&st16;  2233.33  373.44 )">2</text><text style="&st18;" transform="matrix(&st16;  2258.82  466.93 )">2</text><text style="&st18;" transform="matrix(&st16;  2233.33  466.93 )">2</text><text style="&st18;" transform="matrix(&st17;  2276.76  425.45 )" ewd:textID="14">FLSH <tspan x="0 " dy="6.0">Relay</tspan></text><path style="stroke-width:0.85 ;&st7;  " d=" M  2235.13,   426.71  L  2235.13,   435.21  " /><path style="stroke-width:0.85 ;&st7;  " d=" M  2235.13,   401.22  L  2235.13,   409.72  " /><path style="stroke-width:0.85 ;&st7;  " d=" M  2260.62,   401.22  L  2260.62,   405.47  " /><path style="stroke-width:0.85 ;&st7;  " d=" M  2260.62,   435.21  L  2260.62,   430.96  " /><path style="stroke-width:1.42 ;&st7;  " d=" M  2260.62,   428.13  L  2266.29,   405.47  " /><path style="stroke-width:0.85 ;&st7;   " d=" M  2235.13,   426.71  C  2237.08    426.71   2238.67    425.13   2238.67    423.17  " /><path style="stroke-width:0.85 ;&st7;   " d=" M  2238.67,   423.17  C  2238.67    421.22   2237.08    419.63   2235.13    419.63  " /><path style="stroke-width:0.85 ;&st7;   " d=" M  2235.13,   419.63  C  2234.14    419.63   2233.29    419.99   2232.60    420.69  " /><path style="stroke-width:0.85 ;&st7;   " d=" M  2232.60,   420.69  C  2233.97    422.09   2236.21    422.11   2237.61    420.75  " /><path style="stroke-width:0.85 ;&st7;   " d=" M  2237.61,   420.75  C  2239.00    419.38   2239.03    417.13   2237.66    415.74  " /><path style="stroke-width:0.85 ;&st7;   " d=" M  2237.66,   415.74  C  2236.29    414.34   2234.04    414.32   2232.65    415.69  " /><path style="stroke-width:0.85 ;&st7;   " d=" M  2232.65,   415.69  C  2232.63    415.70   2232.61    415.72   2232.60    415.74  " /><path style="stroke-width:0.85 ;&st7;   " d=" M  2232.60,   415.74  C  2233.97    417.13   2236.21    417.16   2237.61    415.79  " /><path style="stroke-width:0.85 ;&st7;   " d=" M  2237.61,   415.79  C  2239.00    414.42   2239.03    412.18   2237.66    410.78  " /><path style="stroke-width:0.85 ;&st7;   " d=" M  2237.66,   410.78  C  2236.96    410.07   2236.12    409.72   2235.13    409.72  " /><path style="stroke-width:0.85 ;&st7;   " d=" M  2262.04,   406.88  C  2262.04    406.10   2261.40    405.47   2260.62    405.47  " /><path style="stroke-width:0.85 ;&st7;   " d=" M  2260.62,   405.47  C  2259.84    405.47   2259.21    406.10   2259.21    406.88  " /><path style="stroke-width:0.85 ;&st7;   " d=" M  2259.21,   406.88  C  2259.21    407.67   2259.84    408.30   2260.62    408.30  " /><path style="stroke-width:0.85 ;&st7;   " d=" M  2260.62,   408.30  C  2261.40    408.30   2262.04    407.67   2262.04    406.88  " /><path style="stroke-width:0.85 ;&st7;   " d=" M  2262.04,   429.55  C  2262.04    428.76   2261.40    428.13   2260.62    428.13  " /><path style="stroke-width:0.85 ;&st7;   " d=" M  2260.62,   428.13  C  2259.84    428.13   2259.21    428.76   2259.21    429.55  " /><path style="stroke-width:0.85 ;&st7;   " d=" M  2259.21,   429.55  C  2259.21    430.33   2259.84    430.96   2260.62    430.96  " /><path style="stroke-width:0.85 ;&st7;   " d=" M  2260.62,   430.96  C  2261.40    430.96   2262.04    430.33   2262.04    429.55  " /><path style="stroke-width:1.42 ;&st7;  " d=" M  2269.12,   401.22  L  2226.63,   401.22  L  2226.63,   435.21  L  2269.12,   435.21  L  2269.12,   401.22  " /></g><g ewd:figtype="rb" ewd:figID="24" ewd:code="2"><path style="stroke-width:1.42 ;&st7;  " d=" M  2177.76,   367.22  L  2173.51,   367.22  " /><path style="stroke-width:1.42 ;&st7;  " d=" M  2177.76,   375.72  L  2173.51,   375.72  " /><path style="stroke-width:1.42 ;&st7;  " d=" M  2152.27,   367.22  L  2148.02,   367.22  " /><path style="stroke-width:1.42 ;&st7;  " d=" M  2152.27,   375.72  L  2148.02,   375.72  " /><path style="stroke-width:1.42 ;&st7;  " d=" M  2152.27,   469.21  L  2148.02,   469.21  " /><path style="stroke-width:1.42 ;&st7;  " d=" M  2152.27,   460.71  L  2148.02,   460.71  " /><path style="stroke-width:1.42 ;&st7;  " d=" M  2177.76,   469.21  L  2173.51,   469.21  " /><path style="stroke-width:1.42 ;&st7;  " d=" M  2177.76,   460.71  L  2173.51,   460.71  " /><path style="stroke-width:1.42 ;&st7;   " d=" M  2173.51,   367.22  C  2171.17    367.22   2169.26    369.13   2169.26    371.47  " /><path style="stroke-width:1.42 ;&st7;   " d=" M  2169.26,   371.47  C  2169.26    373.82   2171.17    375.72   2173.51    375.72  " /><path style="stroke-width:1.42 ;&st7;   " d=" M  2177.76,   375.72  C  2180.11    375.72   2182.01    373.82   2182.01    371.47  " /><path style="stroke-width:1.42 ;&st7;   " d=" M  2182.01,   371.47  C  2182.01    369.13   2180.11    367.22   2177.76    367.22  " /><path style="stroke-width:1.42 ;&st7;   " d=" M  2148.02,   367.22  C  2145.67    367.22   2143.77    369.13   2143.77    371.47  " /><path style="stroke-width:1.42 ;&st7;   " d=" M  2143.77,   371.47  C  2143.77    373.82   2145.67    375.72   2148.02    375.72  " /><path style="stroke-width:1.42 ;&st7;   " d=" M  2152.27,   375.72  C  2154.61    375.72   2156.51    373.82   2156.51    371.47  " /><path style="stroke-width:1.42 ;&st7;   " d=" M  2156.51,   371.47  C  2156.51    369.13   2154.61    367.22   2152.27    367.22  " /><path style="stroke-width:1.42 ;&st7;   " d=" M  2143.77,   464.96  C  2143.77    467.30   2145.67    469.21   2148.02    469.21  " /><path style="stroke-width:1.42 ;&st7;   " d=" M  2148.02,   460.71  C  2145.67    460.71   2143.77    462.61   2143.77    464.96  " /><path style="stroke-width:1.42 ;&st7;   " d=" M  2182.01,   464.96  C  2182.01    462.61   2180.11    460.71   2177.76    460.71  " /><path style="stroke-width:1.42 ;&st7;   " d=" M  2177.76,   469.21  C  2180.11    469.21   2182.01    467.30   2182.01    464.96  " /><path style="stroke-width:1.42 ;&st7;   " d=" M  2169.26,   464.96  C  2169.26    467.30   2171.17    469.21   2173.51    469.21  " /><path style="stroke-width:1.42 ;&st7;   " d=" M  2173.51,   460.71  C  2171.17    460.71   2169.26    462.61   2169.26    464.96  " /><path style="stroke-width:1.42 ;&st7;   " d=" M  2156.51,   464.96  C  2156.51    462.61   2154.61    460.71   2152.27    460.71  " /><path style="stroke-width:1.42 ;&st7;   " d=" M  2152.27,   469.21  C  2154.61    469.21   2156.51    467.30   2156.51    464.96  " /><path style="stroke-width:0.85 ;&st7;  " d=" M  2175.64,   401.22  L  2175.64,   375.72  " /><path style="stroke-width:0.28 ;&st9;  " d=" M  2175.64,   380.62  L  2178.47,   383.45  L  2178.47,   379.20  L  2175.64,   376.37  L  2172.80,   379.20  L  2172.80,   383.45  L  2175.64,   380.62  " /><path style="stroke-width:0.85 ;&st7;  " d=" M  2150.14,   401.22  L  2150.14,   375.72  " /><path style="stroke-width:0.28 ;&st9;  " d=" M  2150.14,   380.62  L  2152.97,   383.45  L  2152.97,   379.20  L  2150.14,   376.37  L  2147.31,   379.20  L  2147.31,   383.45  L  2150.14,   380.62  " /><path style="stroke-width:0.85 ;&st7;  " d=" M  2175.64,   460.71  L  2175.64,   435.21  " /><path style="stroke-width:0.28 ;&st9;  " d=" M  2175.64,   455.81  L  2172.80,   452.98  L  2172.80,   457.23  L  2175.64,   460.06  L  2178.47,   457.23  L  2178.47,   452.98  L  2175.64,   455.81  " /><path style="stroke-width:0.28 ;&st9;  " d=" M  2150.14,   455.81  L  2147.31,   452.98  L  2147.31,   457.23  L  2150.14,   460.06  L  2152.97,   457.23  L  2152.97,   452.98  L  2150.14,   455.81  " /><path style="stroke-width:0.85 ;&st7;  " d=" M  2150.14,   460.71  L  2150.14,   435.21  " /><text style="&st18;" transform="matrix(&st16;  2169.45  397.53 )">5</text><text style="&st18;" transform="matrix(&st16;  2143.96  397.53 )">1</text><text style="&st18;" transform="matrix(&st16;  2169.45  443.41 )">3</text><text style="&st18;" transform="matrix(&st16;  2143.96  443.41 )">2</text><text style="&st18;" transform="matrix(&st16;  2173.84  373.44 )">2</text><text style="&st18;" transform="matrix(&st16;  2148.34  373.44 )">2</text><text style="&st18;" transform="matrix(&st16;  2173.84  466.93 )">2</text><text style="&st18;" transform="matrix(&st16;  2148.34  466.93 )">2</text><text style="&st18;" transform="matrix(&st17;  2191.77  427.0 )" ewd:textID="13">FLSH2 <tspan x="0 " dy="6.0">Relay</tspan></text><path style="stroke-width:0.85 ;&st7;  " d=" M  2150.14,   426.71  L  2150.14,   435.21  " /><path style="stroke-width:0.85 ;&st7;  " d=" M  2150.14,   401.22  L  2150.14,   409.72  " /><path style="stroke-width:0.85 ;&st7;  " d=" M  2175.64,   401.22  L  2175.64,   405.47  " /><path style="stroke-width:0.85 ;&st7;  " d=" M  2175.64,   435.21  L  2175.64,   430.96  " /><path style="stroke-width:1.42 ;&st7;  " d=" M  2175.64,   428.13  L  2181.30,   405.47  " /><path style="stroke-width:0.85 ;&st7;   " d=" M  2150.14,   426.71  C  2152.10    426.71   2153.68    425.13   2153.68    423.17  " /><path style="stroke-width:0.85 ;&st7;   " d=" M  2153.68,   423.17  C  2153.68    421.22   2152.10    419.63   2150.14    419.63  " /><path style="stroke-width:0.85 ;&st7;   " d=" M  2150.14,   419.63  C  2149.15    419.63   2148.30    419.99   2147.61    420.69  " /><path style="stroke-width:0.85 ;&st7;   " d=" M  2147.61,   420.69  C  2148.98    422.09   2151.22    422.11   2152.62    420.75  " /><path style="stroke-width:0.85 ;&st7;   " d=" M  2152.62,   420.75  C  2154.02    419.38   2154.04    417.13   2152.67    415.74  " /><path style="stroke-width:0.85 ;&st7;   " d=" M  2152.67,   415.74  C  2151.30    414.34   2149.06    414.32   2147.66    415.69  " /><path style="stroke-width:0.85 ;&st7;   " d=" M  2147.66,   415.69  C  2147.64    415.70   2147.63    415.72   2147.61    415.74  " /><path style="stroke-width:0.85 ;&st7;   " d=" M  2147.61,   415.74  C  2148.98    417.13   2151.22    417.16   2152.62    415.79  " /><path style="stroke-width:0.85 ;&st7;   " d=" M  2152.62,   415.79  C  2154.02    414.42   2154.04    412.18   2152.67    410.78  " /><path style="stroke-width:0.85 ;&st7;   " d=" M  2152.67,   410.78  C  2151.98    410.07   2151.13    409.72   2150.14    409.72  " /><path style="stroke-width:0.85 ;&st7;   " d=" M  2177.05,   406.88  C  2177.05    406.10   2176.42    405.47   2175.64    405.47  " /><path style="stroke-width:0.85 ;&st7;   " d=" M  2175.64,   405.47  C  2174.85    405.47   2174.22    406.10   2174.22    406.88  " /><path style="stroke-width:0.85 ;&st7;   " d=" M  2174.22,   406.88  C  2174.22    407.67   2174.85    408.30   2175.64    408.30  " /><path style="stroke-width:0.85 ;&st7;   " d=" M  2175.64,   408.30  C  2176.42    408.30   2177.05    407.67   2177.05    406.88  " /><path style="stroke-width:0.85 ;&st7;   " d=" M  2177.05,   429.55  C  2177.05    428.76   2176.42    428.13   2175.64    428.13  " /><path style="stroke-width:0.85 ;&st7;   " d=" M  2175.64,   428.13  C  2174.85    428.13   2174.22    428.76   2174.22    429.55  " /><path style="stroke-width:0.85 ;&st7;   " d=" M  2174.22,   429.55  C  2174.22    430.33   2174.85    430.96   2175.64    430.96  " /><path style="stroke-width:0.85 ;&st7;   " d=" M  2175.64,   430.96  C  2176.42    430.96   2177.05    430.33   2177.05    429.55  " /><path style="stroke-width:1.42 ;&st7;  " d=" M  2184.13,   401.22  L  2141.64,   401.22  L  2141.64,   435.21  L  2184.13,   435.21  L  2184.13,   401.22  " /></g><g ewd:figtype="conn" ewd:figID="25" ewd:code="L14"><g ewd:figtype="title"><text style="&st18;" transform="matrix(&st17;  2013.56  463.61 )">L14(A)</text><text style="&st18;" transform="matrix(&st17;  2020.38  463.61 )" ewd:textID="15">Hazard Warning Signal Switch Assembly</text></g></g><g ewd:figtype="rb" ewd:figID="26" ewd:code="FUSE23"><path style="stroke-width:0.85 ;&st7;  " d=" M  2150.14,    78.27  L  2150.14,    95.27  " /><path style="stroke-width:1.42 ;&st7;  " d=" M  2152.27,   103.77  L  2148.02,   103.77  " /><path style="stroke-width:1.42 ;&st7;  " d=" M  2152.27,    95.27  L  2148.02,    95.27  " /><path style="stroke-width:1.42 ;&st7;   " d=" M  2156.51,    99.52  C  2156.51     97.17   2154.61     95.27   2152.27     95.27  " /><path style="stroke-width:1.42 ;&st7;   " d=" M  2152.27,   103.77  C  2154.61    103.77   2156.51    101.87   2156.51     99.52  " /><path style="stroke-width:1.42 ;&st7;   " d=" M  2143.77,    99.52  C  2143.77    101.87   2145.67    103.77   2148.02    103.77  " /><path style="stroke-width:1.42 ;&st7;   " d=" M  2148.02,    95.27  C  2145.67     95.27   2143.77     97.17   2143.77     99.52  " /><path style="stroke-width:0.28 ;&st9;  " d=" M  2150.14,    90.37  L  2147.31,    87.54  L  2147.31,    91.79  L  2150.14,    94.62  L  2152.97,    91.79  L  2152.97,    87.54  L  2150.14,    90.37  " /><text style="&st18;" transform="matrix(&st16;  2144.93  32.08 )">(IG)</text><text style="&st18;" transform="matrix(&st16;  2143.96  86.47 )">2</text><text style="&st18;" transform="matrix(&st16;  2148.34  101.49 )">2</text><text style="&st18;" transform="matrix(&st16;  2166.57  56.17 )">15A <tspan x="0 " dy="6.0">GAUGE</tspan></text><path style="stroke-width:0.85 ;&st7;  " d=" M  2150.14,    69.77  L  2150.14,    78.27  " /><path style="stroke-width:0.85 ;&st7;   " d=" M  2151.56,    68.36  C  2151.56     67.57   2150.92     66.94   2150.14     66.94  " /><path style="stroke-width:0.85 ;&st7;   " d=" M  2150.14,    66.94  C  2149.36     66.94   2148.72     67.57   2148.72     68.36  " /><path style="stroke-width:0.85 ;&st7;   " d=" M  2148.72,    68.36  C  2148.72     69.14   2149.36     69.77   2150.14     69.77  " /><path style="stroke-width:0.85 ;&st7;   " d=" M  2150.14,    69.77  C  2150.92     69.77   2151.56     69.14   2151.56     68.36  " /><path style="stroke-width:0.85 ;&st7;   " d=" M  2151.56,    45.69  C  2151.56     44.91   2150.92     44.28   2150.14     44.28  " /><path style="stroke-width:0.85 ;&st7;   " d=" M  2150.14,    44.28  C  2149.36     44.28   2148.72     44.91   2148.72     45.69  " /><path style="stroke-width:0.85 ;&st7;   " d=" M  2148.72,    45.69  C  2148.72     46.48   2149.36     47.11   2150.14     47.11  " /><path style="stroke-width:0.85 ;&st7;   " d=" M  2150.14,    47.11  C  2150.92     47.11   2151.56     46.48   2151.56     45.69  " /><path style="stroke-width:1.42 ;&st7;   " d=" M  2150.14,    66.94  C  2152.88     65.33   2153.79     61.80   2152.18     59.06  " /><path style="stroke-width:1.42 ;&st7;   " d=" M  2152.18,    59.06  C  2151.66     58.18   2151.02     57.55   2150.14     57.03  " /><path style="stroke-width:1.42 ;&st7;   " d=" M  2150.14,    47.11  C  2147.40     48.72   2146.49     52.25   2148.10     54.99  " /><path style="stroke-width:1.42 ;&st7;   " d=" M  2148.10,    54.99  C  2148.62     55.87   2149.26     56.51   2150.14     57.03  " /><path style="stroke-width:1.42 ;&st7;  " d=" M  2137.39,    35.78  L  2137.39,    78.27  L  2162.89,    78.27  L  2162.89,    35.78  L  2137.39,    35.78  " /></g><g ewd:figtype="conn" ewd:figID="27" ewd:code="I57"><path style="stroke-width:0.85 ;&st7;  " d=" M  2327.42,   179.25  L  2327.15,   179.72  L  2327.05,   180.26  L  2327.15,   180.79  L  2327.42,   181.26  L  2327.83,   181.60  L  2328.34,   181.79  L  2328.88,   181.79  L  2329.39,   181.60  L  2329.80,   181.26  L  2330.07,   180.79  L  2330.17,   180.26  L  2330.07,   179.72  L  2329.80,   179.25  L  2329.39,   178.91  L  2328.88,   178.72  L  2328.34,   178.72  L  2327.83,   178.91  L  2327.42,   179.25  L  2327.81,   179.96  L  2327.81,   180.55  L  2328.19,   180.99  L  2328.76,   181.09  L  2329.26,   180.80  L  2329.46,   180.26  L  2329.26,   179.71  L  2328.76,   179.42  L  2328.19,   179.52  L  2328.61,   180.26  " /><path style="stroke-width:0.85 ;&st7;  " d=" M  2233.93,   179.25  L  2233.66,   179.72  L  2233.57,   180.26  L  2233.66,   180.79  L  2233.93,   181.26  L  2234.35,   181.60  L  2234.85,   181.79  L  2235.40,   181.79  L  2235.90,   181.60  L  2236.32,   181.26  L  2236.59,   180.79  L  2236.68,   180.26  L  2236.59,   179.72  L  2236.32,   179.25  L  2235.90,   178.91  L  2235.40,   178.72  L  2234.85,   178.72  L  2234.35,   178.91  L  2233.93,   179.25  L  2234.33,   179.96  L  2234.33,   180.55  L  2234.70,   180.99  L  2235.27,   181.09  L  2235.78,   180.80  L  2235.98,   180.26  L  2235.78,   179.71  L  2235.27,   179.42  L  2234.70,   179.52  L  2235.13,   180.26  " /><path style="stroke-width:0.85 ;&st7;  " d=" M  2148.95,   179.25  L  2148.68,   179.72  L  2148.58,   180.26  L  2148.68,   180.79  L  2148.95,   181.26  L  2149.36,   181.60  L  2149.87,   181.79  L  2150.41,   181.79  L  2150.92,   181.60  L  2151.33,   181.26  L  2151.60,   180.79  L  2151.70,   180.26  L  2151.60,   179.72  L  2151.33,   179.25  L  2150.92,   178.91  L  2150.41,   178.72  L  2149.87,   178.72  L  2149.36,   178.91  L  2148.95,   179.25  L  2149.34,   179.96  L  2149.34,   180.55  L  2149.71,   180.99  L  2150.29,   181.09  L  2150.79,   180.80  L  2150.99,   180.26  L  2150.79,   179.71  L  2150.29,   179.42  L  2149.71,   179.52  L  2150.14,   180.26  " /><path style="stroke-width:0.85 ;&st7;  " d=" M  2235.13,   180.26  L  2235.13,   188.75  " /><path style="stroke-width:0.85 ;&st7;  " d=" M  2150.14,   180.26  L  2328.61,   180.26  " /><path style="stroke-width:0.85 ;&st7;  " d=" M  2328.61,   171.76  L  2328.61,   188.75  " /><path style="stroke-width:0.85 ;&st7;  " d=" M  2150.14,   171.76  L  2150.14,   188.75  " /><path style="stroke-width:1.42 ;&st7;  " d=" M  2141.64,   188.75  L  2337.11,   188.75  L  2337.11,   171.76  L  2141.64,   171.76  L  2141.64,   188.75  " /><text style="&st18;" transform="matrix(&st16;  2141.45  195.26 )">4</text><path style="stroke-width:1.42 ;&st7;   " d=" M  2154.67,   193.29  C  2154.67    190.78   2152.64    188.75   2150.14    188.75  " /><path style="stroke-width:1.42 ;&st7;   " d=" M  2150.14,   188.75  C  2147.64    188.75   2145.61    190.78   2145.61    193.29  " /><path style="stroke-width:1.42 ;&st7;   " d=" M  2145.61,   193.29  C  2145.61    195.79   2147.64    197.82   2150.14    197.82  " /><path style="stroke-width:1.42 ;&st7;   " d=" M  2150.14,   197.82  C  2152.64    197.82   2154.67    195.79   2154.67    193.29  " /><text style="&st18;" transform="matrix(&st16;  2147.84  195.26 )">A</text><text style="&st18;" transform="matrix(&st16;  2141.45  169.19 )">9</text><path style="stroke-width:1.42 ;&st7;   " d=" M  2154.67,   167.22  C  2154.67    164.72   2152.64    162.69   2150.14    162.69  " /><path style="stroke-width:1.42 ;&st7;   " d=" M  2150.14,   162.69  C  2147.64    162.69   2145.61    164.72   2145.61    167.22  " /><path style="stroke-width:1.42 ;&st7;   " d=" M  2145.61,   167.22  C  2145.61    169.73   2147.64    171.76   2150.14    171.76  " /><path style="stroke-width:1.42 ;&st7;   " d=" M  2150.14,   171.76  C  2152.64    171.76   2154.67    169.73   2154.67    167.22  " /><text style="&st18;" transform="matrix(&st16;  2147.84  169.19 )">A</text><text style="&st18;" transform="matrix(&st16;  2223.33  195.26 )">12</text><path style="stroke-width:1.42 ;&st7;   " d=" M  2239.66,   193.29  C  2239.66    190.78   2237.63    188.75   2235.13    188.75  " /><path style="stroke-width:1.42 ;&st7;   " d=" M  2235.13,   188.75  C  2232.62    188.75   2230.59    190.78   2230.59    193.29  " /><path style="stroke-width:1.42 ;&st7;   " d=" M  2230.59,   193.29  C  2230.59    195.79   2232.62    197.82   2235.13    197.82  " /><path style="stroke-width:1.42 ;&st7;   " d=" M  2235.13,   197.82  C  2237.63    197.82   2239.66    195.79   2239.66    193.29  " /><text style="&st18;" transform="matrix(&st16;  2232.82  195.26 )">A</text><text style="&st18;" transform="matrix(&st16;  2316.82  195.26 )">13</text><path style="stroke-width:1.42 ;&st7;   " d=" M  2333.14,   193.29  C  2333.14    190.78   2331.11    188.75   2328.61    188.75  " /><path style="stroke-width:1.42 ;&st7;   " d=" M  2328.61,   188.75  C  2326.11    188.75   2324.08    190.78   2324.08    193.29  " /><path style="stroke-width:1.42 ;&st7;   " d=" M  2324.08,   193.29  C  2324.08    195.79   2326.11    197.82   2328.61    197.82  " /><path style="stroke-width:1.42 ;&st7;   " d=" M  2328.61,   197.82  C  2331.11    197.82   2333.14    195.79   2333.14    193.29  " /><text style="&st18;" transform="matrix(&st16;  2326.31  195.26 )">A</text><text style="&st18;" transform="matrix(&st16;  2319.92  169.19 )">5</text><text style="&st18;" transform="matrix(&st16;  2326.31  169.19 )">A</text><path style="stroke-width:1.42 ;&st7;   " d=" M  2333.14,   167.22  C  2333.14    164.72   2331.11    162.69   2328.61    162.69  " /><path style="stroke-width:1.42 ;&st7;   " d=" M  2328.61,   162.69  C  2326.11    162.69   2324.08    164.72   2324.08    167.22  " /><path style="stroke-width:1.42 ;&st7;   " d=" M  2324.08,   167.22  C  2324.08    169.73   2326.11    171.76   2328.61    171.76  " /><path style="stroke-width:1.42 ;&st7;   " d=" M  2328.61,   171.76  C  2331.11    171.76   2333.14    169.73   2333.14    167.22  " /><g ewd:figtype="title"><text style="&st18;" transform="matrix(&st16;  2189.22  161.24 )">I57(A)</text><text style="&st18;" transform="matrix(&st16;  2189.23  168.06 )" ewd:textID="18">No. 8 Junction Connector</text></g></g><g ewd:figtype="w2w" ewd:figID="86" ewd:code="IL2"><path style="stroke-width:1.42 ;&st7;  " d=" M  2494.33,   344.56  L  2490.08,   348.81  L  2485.83,   344.56  " /><path style="stroke-width:1.42 ;&st7;  " d=" M  2485.83,   341.16  L  2490.08,   345.41  L  2494.33,   341.16  " /><text style="&st18;" transform="matrix(&st16;  2474.35  356.45 )">21</text></g><g ewd:figtype="gp" ewd:figID="95" ewd:code="IC"><path style="stroke-width:0.85 ;&st7;  " d=" M  2174.22,   710.00  L  2177.05,   710.00  " /><path style="stroke-width:0.85 ;&st7;  " d=" M  2172.80,   707.17  L  2178.47,   707.17  " /><path style="stroke-width:0.85 ;&st7;  " d=" M  2171.39,   704.33  L  2179.88,   704.33  " /><path style="stroke-width:0.85 ;&st7;  " d=" M  2167.14,   701.50  L  2184.13,   701.50  " /><path style="stroke-width:0.85 ;&st7;  " d=" M  2175.64,   697.25  L  2175.64,   701.50  " /></g><g ewd:code="9" ewd:figID="184" ewd:comment="" ewd:figtype="comment"><text style="&st18;" transform="matrix(&st16;  2231.72  29.25 )" ewd:textID="5">* 9 :24V Battery Type</text></g></svg>