<?xml version="1.0" encoding="utf-8"?>
<!DOCTYPE svg PUBLIC "-//W3C//DTD SVG 1.0//EN" "http://www.w3.org/TR/2001/REC-SVG-20010904/DTD/svg10.dtd"[
	<!ENTITY ns_flows "http://ns.adobe.com/Flows/1.0/">
	<!ENTITY ns_svg "http://www.w3.org/2000/svg">
	<!ENTITY ns_xlink "http://www.w3.org/1999/xlink">
	<!ENTITY st0 "font-size:7px;font-family:'MS-PGothic';adobe-font-script:japanese;">
	<!ENTITY st1 "font-size:6px;font-family:'ArialMT';">
	<!-- White fill  -->
	<!ENTITY st2 "fill:#FFFFFF;stroke:#000000; stroke-width:1.41;stroke-linecap:round;stroke-linejoin:round;">
	<!-- Yellow fill  -->
	<!ENTITY st3 "fill:#FFFFCC;stroke:#FFFFCC; stroke-width:0.1;stroke-linecap:round;stroke-linejoin:round;">
	<!-- Gray fill  -->
	<!ENTITY st4 "fill:#CCCCCC;stroke:#CCCCCC; stroke-width:0.1;stroke-linecap:round;stroke-linejoin:round;">
	<!-- Light-blue fill -->
	<!ENTITY st5 "fill:#CCECF4;stroke:#000000; stroke-width:1.133;stroke-linecap:round;stroke-linejoin:round;">
	<!ENTITY st6 "fill:none;stroke-linecap:butt; stroke-linejoin:round;">
	<!ENTITY st7 "fill:none;stroke:#000000;stroke-linecap:round;stroke-linejoin:round;">
	<!ENTITY st8 "enable-background:new    ;">
	<!-- Black fill -->
	<!ENTITY st9 "fill:#000000;stroke:#000000; stroke-linecap:round;stroke-linejoin:round;">
	<!-- SRS note   -->
	<!ENTITY st10 "font-size:9px;font-family:'ArialMT';">
	<!ENTITY st11 "font-size:9px;font-family:'Svg Symbol';">
	<!ENTITY st12 "font-size:6px;font-family:'Svg Symbol';">
	<!ENTITY st13 "fill:none;stroke:#ff0000;stroke-linecap:round;stroke-linejoin:round;">
	<!-- Yellow fill  -->
	<!ENTITY st14 "fill:#FFFF00;stroke:#FFFF00; stroke-width:0.1;stroke-linecap:round;stroke-linejoin:round;">
	<!ENTITY st15 "font-size:6px;font-family:'MS-PGothic';adobe-font-script:japanese;">
	<!ENTITY st16 "1.00 0.00 0.00 1.00">
	<!ENTITY st17 "0.00 -1.00 1.00 0.00">
	<!ENTITY st18 "font-size:6px;font-family:'Arial';">
	<!ENTITY st19 "font-size:9px;font-family:'Arial';">
	<!ENTITY st20 "font-size:6px;font-family:'MS-PGothic','MS PGothic';adobe-font-script:japanese;">
	<!ENTITY st21 "font-size:7px;font-family:'MS-PGothic','MS PGothic';adobe-font-script:japanese;">
	<!ATTLIST svg
		xmlns:ewd CDATA #FIXED "http://shcl.co.jp/ewd"
		xmlns:a CDATA #FIXED "http://ns.adobe.com/AdobeSVGViewerExtensions/3.0/"
		ewd:ver CDATA #IMPLIED
	>
	<!ATTLIST a
		ewd:lineID CDATA #IMPLIED
		ewd:groupID CDATA #IMPLIED
		ewd:figtype CDATA #IMPLIED
		ewd:code CDATA #IMPLIED
		ewd:figID CDATA #IMPLIED
		ewd:pinNo CDATA #IMPLIED
		ewd:comment CDATA #IMPLIED >
	<!ATTLIST g
		ewd:lineID CDATA #IMPLIED
		ewd:groupID CDATA #IMPLIED
		ewd:figtype CDATA #IMPLIED
		ewd:code CDATA #IMPLIED
		ewd:figID CDATA #IMPLIED
		ewd:pinNo CDATA #IMPLIED
		ewd:comment CDATA #IMPLIED >
	<!ATTLIST text
		ewd:textID CDATA #IMPLIED >
	<!ATTLIST title
		ewd:textID CDATA #IMPLIED >
]>
<!-- Generator: Shintec Hozumi YS   -->
<svg onload="call_execInitLoadProc_svg('system')" style="overflow:visible;  enable-background:new 0 0 2833.399 710.000" viewBox="0 0 2833.399 710.000" height="710.000" width="2833.399" xml:space="preserve" ewd:ver="2.1.2.9" xmlns="&ns_svg;" xmlns:a="http://ns.adobe.com/AdobeSVGViewerExtensions/3.0/" xmlns:ewd="http://shcl.co.jp/ewd" xmlns:xlink="&ns_xlink;"><script type="text/javascript" xlink:href="../../../../../system/js/ewd/fig/svgfig.js" xmlns:xlink="http://www.w3.org/1999/xlink" />
<g id="ewd_top"><a ewd:figtype="rb" style="cursor:pointer;" ewd:code="FUSE34" ewd:figID="1"><path style="fill:#CCECF4;stroke:#000000; stroke-width:0; stroke-linecap:round;stroke-linejoin:round; " d=" M   879.60,    35.78  L   879.60,    78.27  L   905.10,    78.27  L   905.10,    35.78  L   879.60,    35.78 " /></a><a ewd:figtype="rb" style="cursor:pointer;" ewd:code="FUSE33" ewd:figID="2"><path style="fill:#CCECF4;stroke:#000000; stroke-width:0; stroke-linecap:round;stroke-linejoin:round; " d=" M  1083.57,    35.78  L  1083.57,    78.27  L  1109.06,    78.27  L  1109.06,    35.78  L  1083.57,    35.78 " /></a><a ewd:figtype="rb" style="cursor:pointer;" ewd:code="FUSE27" ewd:figID="3"><path style="fill:#CCECF4;stroke:#000000; stroke-width:0; stroke-linecap:round;stroke-linejoin:round; " d=" M  1194.05,    69.77  L  1194.05,   112.27  L  1219.55,   112.27  L  1219.55,    69.77  L  1194.05,    69.77 " /></a><a ewd:figtype="conn" style="cursor:pointer;" ewd:code="I19" ewd:figID="4"><path style="fill:#CCECF4;stroke:#000000; stroke-width:1.133; stroke-linecap:round;stroke-linejoin:round; " d=" M  1104.82,   205.75  L  1104.82,   171.76  L  1087.82,   171.76  L  1087.82,   205.75  L  1104.82,   205.75 " /><title ewd:textID="27">Stop Light Switch Assembly</title></a><a ewd:figtype="conn" style="cursor:pointer;" ewd:code="T10" ewd:figID="5"><path style="fill:#CCECF4;stroke:#000000; stroke-width:1.133; stroke-linecap:round;stroke-linejoin:round; " d=" M   875.35,   358.73  L  1283.29,   358.73  L  1283.29,   316.23  L   875.35,   316.23  L   875.35,   358.73 " /><title ewd:textID="29">Trailer Socket</title></a><a ewd:figtype="conn" style="cursor:pointer;" ewd:code="I62" ewd:figID="6"><path style="fill:#CCECF4;stroke:#000000; stroke-width:1.133; stroke-linecap:round;stroke-linejoin:round; " d=" M    59.49,   256.74  L    76.49,   256.74  L    76.49,   273.74  L    59.49,   273.74  L    59.49,   256.74 " /><title ewd:textID="20">No. 12 Junction Connector</title></a><a ewd:figtype="rb" style="cursor:pointer;" ewd:code="2" ewd:figID="7"><path style="fill:#CCECF4;stroke:#000000; stroke-width:0; stroke-linecap:round;stroke-linejoin:round; " d=" M   798.87,   197.25  L   756.37,   197.25  L   756.37,   231.25  L   798.87,   231.25  L   798.87,   197.25 " /></a><a ewd:figtype="rb" style="cursor:pointer;" ewd:code="FUSE57" ewd:figID="8"><path style="fill:#CCECF4;stroke:#000000; stroke-width:0; stroke-linecap:round;stroke-linejoin:round; " d=" M   539.66,    35.78  L   539.66,    78.27  L   565.16,    78.27  L   565.16,    35.78  L   539.66,    35.78 " /></a><a ewd:figtype="rb" style="cursor:pointer;" ewd:code="FUSE18" ewd:figID="9"><path style="fill:#CCECF4;stroke:#000000; stroke-width:0; stroke-linecap:round;stroke-linejoin:round; " d=" M   658.64,   154.76  L   658.64,   197.25  L   684.14,   197.25  L   684.14,   154.76  L   658.64,   154.76 " /></a><a ewd:figtype="rb" style="cursor:pointer;" ewd:code="2" ewd:figID="10"><path style="fill:#CCECF4;stroke:#000000; stroke-width:0; stroke-linecap:round;stroke-linejoin:round; " d=" M   586.40,   324.73  L   543.91,   324.73  L   543.91,   358.73  L   586.40,   358.73  L   586.40,   324.73 " /></a><a ewd:figtype="rb" style="cursor:pointer;" ewd:code="FUSE23" ewd:figID="11"><path style="fill:#CCECF4;stroke:#000000; stroke-width:0; stroke-linecap:round;stroke-linejoin:round; " d=" M   123.23,    35.78  L   123.23,    78.27  L   148.73,    78.27  L   148.73,    35.78  L   123.23,    35.78 " /></a><a ewd:figtype="rb" style="cursor:pointer;" ewd:code="FUSE25" ewd:figID="12"><path style="fill:#CCECF4;stroke:#000000; stroke-width:0; stroke-linecap:round;stroke-linejoin:round; " d=" M   777.62,    35.78  L   777.62,    78.27  L   803.12,    78.27  L   803.12,    35.78  L   777.62,    35.78 " /></a><a ewd:figtype="conn" style="cursor:pointer;" ewd:code="I57" ewd:figID="13"><path style="fill:#CCECF4;stroke:#000000; stroke-width:1.133; stroke-linecap:round;stroke-linejoin:round; " d=" M    59.49,   180.26  L    76.49,   180.26  L    76.49,   197.25  L    59.49,   197.25  L    59.49,   180.26 " /><title ewd:textID="18">No. 8 Junction Connector</title></a><a ewd:figtype="conn" style="cursor:pointer;" ewd:code="C32,C95" ewd:figID="14"><path style="fill:#CCECF4;stroke:#000000; stroke-width:1.133; stroke-linecap:round;stroke-linejoin:round; " d=" M   144.48,   588.19  L   144.48,   554.19  L   127.48,   554.19  L   127.48,   588.19  L   144.48,   588.19 " /><title ewd:textID="10">Back-Up Light Switch Assembly</title></a><a ewd:figtype="conn" style="cursor:pointer;" ewd:code="I55" ewd:figID="15"><path style="fill:#CCECF4;stroke:#000000; stroke-width:1.133; stroke-linecap:round;stroke-linejoin:round; " d=" M   705.38,   341.73  L   722.38,   341.73  L   722.38,   358.73  L   705.38,   358.73  L   705.38,   341.73 " /><title ewd:textID="17">No. 6 Junction Connector</title></a><a ewd:figtype="conn" style="cursor:pointer;" ewd:code="I58" ewd:figID="16"><path style="fill:#CCECF4;stroke:#000000; stroke-width:1.133; stroke-linecap:round;stroke-linejoin:round; " d=" M   705.38,   273.74  L   722.38,   273.74  L   722.38,   290.74  L   705.38,   290.74  L   705.38,   273.74 " /><title ewd:textID="19">No. 9 Junction Connector</title></a><a ewd:figtype="conn" style="cursor:pointer;" ewd:code="I63,I65" ewd:figID="17"><path style="fill:#CCECF4;stroke:#000000; stroke-width:1.133; stroke-linecap:round;stroke-linejoin:round; " d=" M  2320.11,   443.71  L  2320.11,   460.71  L  2371.10,   460.71  L  2371.10,   443.71  L  2320.11,   443.71 " /><title ewd:textID="21">No. 13 Junction Connector</title></a><a ewd:figtype="conn" style="cursor:pointer;" ewd:code="I63,I65" ewd:figID="18"><path style="fill:#CCECF4;stroke:#000000; stroke-width:1.133; stroke-linecap:round;stroke-linejoin:round; " d=" M  2405.10,   443.71  L  2405.10,   460.71  L  2456.09,   460.71  L  2456.09,   443.71  L  2405.10,   443.71 " /><title ewd:textID="21">No. 13 Junction Connector</title></a><a ewd:figtype="conn" style="cursor:pointer;" ewd:code="L39" ewd:figID="19"><path style="fill:#CCECF4;stroke:#000000; stroke-width:1.133; stroke-linecap:round;stroke-linejoin:round; " d=" M  2736.54,   554.19  L  2753.54,   554.19  L  2753.54,   571.19  L  2736.54,   571.19  L  2736.54,   554.19 " /><title ewd:textID="25">No. 31 Junction Connector</title></a><a ewd:figtype="conn" style="cursor:pointer;" ewd:code="L24" ewd:figID="20"><path style="fill:#CCECF4;stroke:#000000; stroke-width:1.133; stroke-linecap:round;stroke-linejoin:round; " d=" M  2626.06,   426.71  L  2813.03,   426.71  L  2813.03,   324.73  L  2626.06,   324.73  L  2626.06,   426.71 " /><title ewd:textID="16">Headlight Dimmer Switch Assembly</title></a><a ewd:figtype="conn" style="cursor:pointer;" ewd:code="I22" ewd:figID="21"><path style="fill:#CCECF4;stroke:#000000; stroke-width:1.133; stroke-linecap:round;stroke-linejoin:round; " d=" M  2405.10,   375.72  L  2422.10,   375.72  L  2422.10,   350.23  L  2405.10,   350.23  L  2405.10,   375.72 " /><title ewd:textID="12">Diode (Turn Signal Light RH)</title></a><a ewd:figtype="conn" style="cursor:pointer;" ewd:code="I23" ewd:figID="22"><path style="fill:#CCECF4;stroke:#000000; stroke-width:1.133; stroke-linecap:round;stroke-linejoin:round; " d=" M  2320.11,   375.72  L  2337.11,   375.72  L  2337.11,   350.23  L  2320.11,   350.23  L  2320.11,   375.72 " /><title ewd:textID="11">Diode (Turn Signal Light LH)</title></a><a ewd:figtype="rb" style="cursor:pointer;" ewd:code="2" ewd:figID="23"><path style="fill:#CCECF4;stroke:#000000; stroke-width:0; stroke-linecap:round;stroke-linejoin:round; " d=" M  2269.12,   401.22  L  2226.63,   401.22  L  2226.63,   435.21  L  2269.12,   435.21  L  2269.12,   401.22 " /></a><a ewd:figtype="rb" style="cursor:pointer;" ewd:code="2" ewd:figID="24"><path style="fill:#CCECF4;stroke:#000000; stroke-width:0; stroke-linecap:round;stroke-linejoin:round; " d=" M  2184.14,   401.22  L  2141.64,   401.22  L  2141.64,   435.21  L  2184.14,   435.21  L  2184.14,   401.22 " /></a><a ewd:figtype="conn" style="cursor:pointer;" ewd:code="L14" ewd:figID="25"><path style="fill:#CCECF4;stroke:#000000; stroke-width:1.133; stroke-linecap:round;stroke-linejoin:round; " d=" M  1929.18,   460.71  L  2005.66,   460.71  L  2005.66,   426.71  L  1929.18,   426.71  L  1929.18,   460.71 " /><title ewd:textID="15">Hazard Warning Signal Switch Assembly</title></a><a ewd:figtype="rb" style="cursor:pointer;" ewd:code="FUSE23" ewd:figID="26"><path style="fill:#CCECF4;stroke:#000000; stroke-width:0; stroke-linecap:round;stroke-linejoin:round; " d=" M  2137.39,    35.78  L  2137.39,    78.27  L  2162.89,    78.27  L  2162.89,    35.78  L  2137.39,    35.78 " /></a><a ewd:figtype="conn" style="cursor:pointer;" ewd:code="I57" ewd:figID="27"><path style="fill:#CCECF4;stroke:#000000; stroke-width:1.133; stroke-linecap:round;stroke-linejoin:round; " d=" M  2141.64,   188.75  L  2337.11,   188.75  L  2337.11,   171.76  L  2141.64,   171.76  L  2141.64,   188.75 " /><title ewd:textID="18">No. 8 Junction Connector</title></a><a ewd:figtype="conn" style="cursor:pointer;" ewd:code="L24" ewd:figID="28"><path style="fill:#CCECF4;stroke:#000000; stroke-width:1.133; stroke-linecap:round;stroke-linejoin:round; " d=" M  1708.21,   477.71  L  1895.18,   477.71  L  1895.18,   375.72  L  1708.21,   375.72  L  1708.21,   477.71 " /><title ewd:textID="16">Headlight Dimmer Switch Assembly</title></a><a ewd:figtype="conn" style="cursor:pointer;" ewd:code="L39" ewd:figID="29"><path style="fill:#CCECF4;stroke:#000000; stroke-width:1.133; stroke-linecap:round;stroke-linejoin:round; " d=" M  1818.70,   605.18  L  1835.69,   605.18  L  1835.69,   622.18  L  1818.70,   622.18  L  1818.70,   605.18 " /><title ewd:textID="25">No. 31 Junction Connector</title></a><a ewd:figtype="conn" style="cursor:pointer;" ewd:code="L32,L34" ewd:figID="30"><path style="fill:#CCECF4;stroke:#000000; stroke-width:1.133; stroke-linecap:round;stroke-linejoin:round; " d=" M  1614.73,   316.23  L  1631.73,   316.23  L  1631.73,   299.24  L  1614.73,   299.24  L  1614.73,   316.23 " /><title ewd:textID="23">No. 24 Junction Connector , No. 26 Junction Connector</title></a><a ewd:figtype="conn" style="cursor:pointer;" ewd:code="L14,M1" ewd:figID="31"><path style="fill:#CCECF4;stroke:#000000; stroke-width:1.133; stroke-linecap:round;stroke-linejoin:round; " d=" M  1606.23,   537.20  L  1640.23,   537.20  L  1640.23,   503.20  L  1606.23,   503.20  L  1606.23,   537.20 " /><title ewd:textID="15">Hazard Warning Signal Switch Assembly</title></a><a ewd:figtype="conn" style="cursor:pointer;" ewd:code="I28,I29" ewd:figID="32"><path style="fill:#CCECF4;stroke:#000000; stroke-width:1.133; stroke-linecap:round;stroke-linejoin:round; " d=" M  1359.77,    95.27  L  1963.17,    95.27  L  1963.17,    52.78  L  1359.77,    52.78  L  1359.77,    95.27 " /><title ewd:textID="30">Turn Signal Flasher Assembly</title></a><a ewd:figtype="fuse" style="cursor:pointer;" ewd:code="FUSE23" ewd:figID="120"><path style="&st7; stroke-width:0;" d=" M   123.23,    35.78  L   123.23,    78.27  L   148.73,    78.27  L   148.73,    35.78  L   123.23,    35.78 " /></a><a ewd:figtype="fuse" style="cursor:pointer;" ewd:code="FUSE57" ewd:figID="121"><path style="&st7; stroke-width:0;" d=" M   539.66,    35.78  L   539.66,    78.27  L   565.16,    78.27  L   565.16,    35.78  L   539.66,    35.78 " /></a><a ewd:figtype="fuse" style="cursor:pointer;" ewd:code="FUSE18" ewd:figID="122"><path style="&st7; stroke-width:0;" d=" M   658.64,   154.76  L   658.64,   197.25  L   684.14,   197.25  L   684.14,   154.76  L   658.64,   154.76 " /></a><a ewd:figtype="fuse" style="cursor:pointer;" ewd:code="FUSE25" ewd:figID="123"><path style="&st7; stroke-width:0;" d=" M   777.62,    35.78  L   777.62,    78.27  L   803.12,    78.27  L   803.12,    35.78  L   777.62,    35.78 " /></a><a ewd:figtype="fuse" style="cursor:pointer;" ewd:code="FUSE34" ewd:figID="124"><path style="&st7; stroke-width:0;" d=" M   879.60,    35.78  L   879.60,    78.27  L   905.10,    78.27  L   905.10,    35.78  L   879.60,    35.78 " /></a><a ewd:figtype="fuse" style="cursor:pointer;" ewd:code="FUSE33" ewd:figID="125"><path style="&st7; stroke-width:0;" d=" M  1083.57,    35.78  L  1083.57,    78.27  L  1109.06,    78.27  L  1109.06,    35.78  L  1083.57,    35.78 " /></a><a ewd:figtype="fuse" style="cursor:pointer;" ewd:code="FUSE27" ewd:figID="126"><path style="&st7; stroke-width:0;" d=" M  1194.05,    69.77  L  1194.05,   112.27  L  1219.55,   112.27  L  1219.55,    69.77  L  1194.05,    69.77 " /></a><a ewd:figtype="fuse" style="cursor:pointer;" ewd:code="FUSE23" ewd:figID="127"><path style="&st7; stroke-width:0;" d=" M  2137.39,    35.78  L  2137.39,    78.27  L  2162.89,    78.27  L  2162.89,    35.78  L  2137.39,    35.78 " /></a><a ewd:comment="10" style="cursor:pointer;" ewd:lineID="1"><path style="stroke:#00A0C6;stroke-width:5.10 ;&st6;" d=" M    33.99,   468.07  L    33.99,   520.20  L   128.61,   520.20  L   135.98,   527.56  L   135.98,   536.06  " /></a><a ewd:comment="10" style="cursor:pointer;" ewd:lineID="2"><path style="stroke:#00A0C6;stroke-width:5.10 ;&st6;" d=" M    33.99,   350.23  L    33.99,   453.34  " /></a><a ewd:comment="10" style="cursor:pointer;" ewd:lineID="3"><path style="stroke:#00A0C6;stroke-width:5.10 ;&st6;" d=" M    67.99,   282.80  L    67.99,   290.74  L    59.49,   299.24  L    33.99,   299.24  L    33.99,   335.50  " /></a><a ewd:comment="11" style="cursor:pointer;" ewd:lineID="4"><path style="stroke:#00A0C6;stroke-width:5.10 ;&st6;" d=" M    67.99,   282.80  L    67.99,   307.73  L   195.47,   307.73  L   203.97,   316.23  L   203.97,   318.50  " /></a><a style="cursor:pointer;" ewd:lineID="5"><path style="stroke:#00A0C6;stroke-width:5.10 ;&st6;" d=" M    67.99,   215.38  L    67.99,   247.68  " /></a><a ewd:comment="10" style="cursor:pointer;" ewd:lineID="6"><path style="stroke:#FF0000;stroke-width:5.10 ;&st6;" d=" M   118.98,   664.67  L   305.95,   664.67  L   305.95,   112.27  L   356.94,   112.27  L   356.94,   154.76  " /><path style="stroke:#FFFFFF;stroke-width:2.27 ;&st6;" d=" M   118.98,   664.67  L   305.95,   664.67  L   305.95,   112.27  L   356.94,   112.27  L   356.94,   154.76  " /><path style="stroke:#000000;stroke-width:1.13 ;&st6;" d=" M   118.98,   664.67  L   305.95,   664.67  L   305.95,   112.27  L   356.94,   112.27  L   356.94,   154.76  " /></a><a ewd:comment="10" style="cursor:pointer;" ewd:lineID="7"><path style="stroke:#FF0000;stroke-width:5.10 ;&st6;" d=" M   135.98,   606.32  L   135.98,   613.68  L   127.48,   622.18  L   110.48,   622.18  L   110.48,   656.18  " /><path style="stroke:#FFFFFF;stroke-width:2.27 ;&st6;" d=" M   135.98,   606.32  L   135.98,   613.68  L   127.48,   622.18  L   110.48,   622.18  L   110.48,   656.18  " /><path style="stroke:#000000;stroke-width:1.13 ;&st6;" d=" M   135.98,   606.32  L   135.98,   613.68  L   127.48,   622.18  L   110.48,   622.18  L   110.48,   656.18  " /></a><a ewd:comment="6" style="cursor:pointer;" ewd:lineID="8"><path style="stroke:#FF0000;stroke-width:5.10 ;&st6;" d=" M   135.98,   606.32  L   135.98,   613.68  L   144.48,   622.18  L   254.96,   622.18  L   254.96,    78.27  L   458.92,    78.27  L   458.92,   139.75  " /><path style="stroke:#FFFFFF;stroke-width:2.27 ;&st6;" d=" M   135.98,   606.32  L   135.98,   613.68  L   144.48,   622.18  L   254.96,   622.18  L   254.96,    78.27  L   458.92,    78.27  L   458.92,   139.75  " /><path style="stroke:#000000;stroke-width:1.13 ;&st6;" d=" M   135.98,   606.32  L   135.98,   613.68  L   144.48,   622.18  L   254.96,   622.18  L   254.96,    78.27  L   458.92,    78.27  L   458.92,   139.75  " /></a><a ewd:comment="6" style="cursor:pointer;" ewd:lineID="9"><path style="stroke:#00A0C6;stroke-width:5.10 ;&st6;" d=" M   135.98,   536.06  L   135.98,   527.56  L   143.34,   520.20  L   203.97,   520.20  L   203.97,   475.44  " /></a><a ewd:comment="4" style="cursor:pointer;" ewd:lineID="10"><path style="stroke:#00A0C6;stroke-width:5.10 ;&st6;" d=" M   135.98,   288.47  L   135.98,   536.06  " /></a><a ewd:comment="4" style="cursor:pointer;" ewd:lineID="11"><path style="stroke:#00A0C6;stroke-width:5.10 ;&st6;" d=" M   135.98,   222.75  L   135.98,   273.74  " /></a><a style="cursor:pointer;" ewd:lineID="12"><path style="stroke:#00A0C6;stroke-width:5.10 ;&st6;" d=" M   135.98,   103.77  L   135.98,   112.27  L   127.48,   120.77  L    67.99,   120.77  L    67.99,   162.12  " /></a><a style="cursor:pointer;" ewd:lineID="13"><path style="stroke:#00A0C6;stroke-width:5.10 ;&st6;" d=" M   135.98,   103.77  L   135.98,   205.75  " /></a><a ewd:comment="7" style="cursor:pointer;" ewd:lineID="14"><path style="stroke:#00A0C6;stroke-width:5.10 ;&st6;" d=" M   144.48,   214.25  L   203.97,   214.25  L   203.97,   318.50  " /></a><a ewd:comment="13" style="cursor:pointer;" ewd:lineID="15"><path style="stroke:#00A0C6;stroke-width:5.10 ;&st6;" d=" M   203.97,   401.22  L   203.97,   452.21  " /></a><a ewd:comment="14" style="cursor:pointer;" ewd:lineID="16"><path style="stroke:#00A0C6;stroke-width:5.10 ;&st6;" d=" M   203.97,   333.23  L   203.97,   341.73  L   195.47,   350.23  L   178.47,   350.23  L   178.47,   435.21  L   195.47,   435.21  L   203.97,   443.71  L   203.97,   452.21  " /></a><a ewd:comment="13" style="cursor:pointer;" ewd:lineID="17"><path style="stroke:#00A0C6;stroke-width:5.10 ;&st6;" d=" M   203.97,   333.23  L   203.97,   384.22  " /></a><a ewd:comment="10" style="cursor:pointer;" ewd:lineID="18"><path style="stroke:#FF0000;stroke-width:5.10 ;&st6;" d=" M   356.94,   237.76  L   356.94,   299.24  L   399.43,   299.24  L   407.93,   307.73  L   407.93,   316.23  " /><path style="stroke:#FFFFFF;stroke-width:2.27 ;&st6;" d=" M   356.94,   237.76  L   356.94,   299.24  L   399.43,   299.24  L   407.93,   307.73  L   407.93,   316.23  " /><path style="stroke:#000000;stroke-width:1.13 ;&st6;" d=" M   356.94,   237.76  L   356.94,   299.24  L   399.43,   299.24  L   407.93,   307.73  L   407.93,   316.23  " /></a><a ewd:comment="10" style="cursor:pointer;" ewd:lineID="19"><path style="stroke:#FF0000;stroke-width:5.10 ;&st6;" d=" M   356.94,   169.77  L   356.94,   222.75  " /><path style="stroke:#FFFFFF;stroke-width:2.27 ;&st6;" d=" M   356.94,   169.77  L   356.94,   222.75  " /><path style="stroke:#000000;stroke-width:1.13 ;&st6;" d=" M   356.94,   169.77  L   356.94,   222.75  " /></a><a ewd:comment="1" style="cursor:pointer;" ewd:lineID="20"><path style="stroke:#FF0000;stroke-width:5.10 ;&st6;" d=" M   407.93,   469.21  L   407.93,   596.69  L  1002.83,   596.69  L  1002.83,   375.72  L   985.84,   375.72  L   977.34,   367.22  L   977.34,   358.73  " /><path style="stroke:#FFFFFF;stroke-width:2.27 ;&st6;" d=" M   407.93,   469.21  L   407.93,   596.69  L  1002.83,   596.69  L  1002.83,   375.72  L   985.84,   375.72  L   977.34,   367.22  L   977.34,   358.73  " /><path style="stroke:#000000;stroke-width:1.13 ;&st6;" d=" M   407.93,   469.21  L   407.93,   596.69  L  1002.83,   596.69  L  1002.83,   375.72  L   985.84,   375.72  L   977.34,   367.22  L   977.34,   358.73  " /></a><a ewd:comment="1" style="cursor:pointer;" ewd:lineID="21"><path style="stroke:#FF0000;stroke-width:5.10 ;&st6;" d=" M   407.93,   399.24  L   407.93,   452.21  " /><path style="stroke:#FFFFFF;stroke-width:2.27 ;&st6;" d=" M   407.93,   399.24  L   407.93,   452.21  " /><path style="stroke:#000000;stroke-width:1.13 ;&st6;" d=" M   407.93,   399.24  L   407.93,   452.21  " /></a><a ewd:comment="1" style="cursor:pointer;" ewd:lineID="22"><path style="stroke:#FF0000;stroke-width:5.10 ;&st6;" d=" M   407.93,   331.25  L   407.93,   384.22  " /><path style="stroke:#FFFFFF;stroke-width:2.27 ;&st6;" d=" M   407.93,   331.25  L   407.93,   384.22  " /><path style="stroke:#000000;stroke-width:1.13 ;&st6;" d=" M   407.93,   331.25  L   407.93,   384.22  " /></a><a ewd:comment="2" style="cursor:pointer;" ewd:lineID="23"><path style="stroke:#FF0000;stroke-width:5.10 ;&st6;" d=" M   407.93,   331.25  L   407.93,   333.23  L   416.43,   341.73  L   458.92,   341.73  L   458.92,   377.71  " /><path style="stroke:#FFFFFF;stroke-width:2.27 ;&st6;" d=" M   407.93,   331.25  L   407.93,   333.23  L   416.43,   341.73  L   458.92,   341.73  L   458.92,   377.71  " /><path style="stroke:#000000;stroke-width:1.13 ;&st6;" d=" M   407.93,   331.25  L   407.93,   333.23  L   416.43,   341.73  L   458.92,   341.73  L   458.92,   377.71  " /></a><a ewd:comment="4" style="cursor:pointer;" ewd:lineID="24"><path style="stroke:#FF0000;stroke-width:5.10 ;&st6;" d=" M   407.93,   231.25  L   407.93,   316.23  " /><path style="stroke:#FFFFFF;stroke-width:2.27 ;&st6;" d=" M   407.93,   231.25  L   407.93,   316.23  " /><path style="stroke:#000000;stroke-width:1.13 ;&st6;" d=" M   407.93,   231.25  L   407.93,   316.23  " /></a><a ewd:comment="4" style="cursor:pointer;" ewd:lineID="25"><path style="stroke:#FF0000;stroke-width:5.10 ;&st6;" d=" M   407.93,   216.23  L   407.93,    95.27  L   280.45,    95.27  L   280.45,   639.18  L   135.98,   639.18  L   135.98,   606.32  " /><path style="stroke:#FFFFFF;stroke-width:2.27 ;&st6;" d=" M   407.93,   216.23  L   407.93,    95.27  L   280.45,    95.27  L   280.45,   639.18  L   135.98,   639.18  L   135.98,   606.32  " /><path style="stroke:#000000;stroke-width:1.13 ;&st6;" d=" M   407.93,   216.23  L   407.93,    95.27  L   280.45,    95.27  L   280.45,   639.18  L   135.98,   639.18  L   135.98,   606.32  " /></a><a ewd:comment="2" style="cursor:pointer;" ewd:lineID="26"><path style="stroke:#FF0000;stroke-width:5.10 ;&st6;" d=" M   458.92,   469.21  L   458.92,   579.69  L   977.34,   579.69  L   977.34,   358.73  " /><path style="stroke:#FFFFFF;stroke-width:2.27 ;&st6;" d=" M   458.92,   469.21  L   458.92,   579.69  L   977.34,   579.69  L   977.34,   358.73  " /><path style="stroke:#000000;stroke-width:1.13 ;&st6;" d=" M   458.92,   469.21  L   458.92,   579.69  L   977.34,   579.69  L   977.34,   358.73  " /></a><a ewd:comment="2" style="cursor:pointer;" ewd:lineID="27"><path style="stroke:#FF0000;stroke-width:5.10 ;&st6;" d=" M   458.92,   392.72  L   458.92,   452.21  " /><path style="stroke:#FFFFFF;stroke-width:2.27 ;&st6;" d=" M   458.92,   392.72  L   458.92,   452.21  " /><path style="stroke:#000000;stroke-width:1.13 ;&st6;" d=" M   458.92,   392.72  L   458.92,   452.21  " /></a><a ewd:comment="6" style="cursor:pointer;" ewd:lineID="28"><path style="stroke:#FF0000;stroke-width:5.10 ;&st6;" d=" M   458.92,   246.26  L   458.92,   299.24  L   416.43,   299.24  L   407.93,   307.73  L   407.93,   316.23  " /><path style="stroke:#FFFFFF;stroke-width:2.27 ;&st6;" d=" M   458.92,   246.26  L   458.92,   299.24  L   416.43,   299.24  L   407.93,   307.73  L   407.93,   316.23  " /><path style="stroke:#000000;stroke-width:1.13 ;&st6;" d=" M   458.92,   246.26  L   458.92,   299.24  L   416.43,   299.24  L   407.93,   307.73  L   407.93,   316.23  " /></a><a ewd:comment="6" style="cursor:pointer;" ewd:lineID="29"><path style="stroke:#FF0000;stroke-width:5.10 ;&st6;" d=" M   458.92,   163.26  L   458.92,   222.75  " /><path style="stroke:#FFFFFF;stroke-width:2.27 ;&st6;" d=" M   458.92,   163.26  L   458.92,   222.75  " /><path style="stroke:#000000;stroke-width:1.13 ;&st6;" d=" M   458.92,   163.26  L   458.92,   222.75  " /></a><a style="cursor:pointer;" ewd:lineID="30"><path style="stroke:#000000;stroke-width:5.10 ;&st6;" d=" M   552.41,   256.74  L   552.41,   290.74  " /><path style="stroke:#FFFFFF;stroke-width:4.53 ;&st6;" d=" M   552.41,   256.74  L   552.41,   290.74  " /><path style="stroke:#00A0C6;stroke-width:1.13 ;&st6;" d=" M   552.41,   256.74  L   552.41,   290.74  " /></a><a style="cursor:pointer;" ewd:lineID="31"><path style="stroke:#000000;stroke-width:5.10 ;&st6;" d=" M   552.41,   239.75  L   552.41,   186.49  " /><path style="stroke:#FFFFFF;stroke-width:4.53 ;&st6;" d=" M   552.41,   239.75  L   552.41,   186.49  " /><path style="stroke:#00A0C6;stroke-width:1.13 ;&st6;" d=" M   552.41,   239.75  L   552.41,   186.49  " /></a><a style="cursor:pointer;" ewd:lineID="32"><path style="stroke:#000000;stroke-width:5.10 ;&st6;" d=" M   552.41,   103.77  L   552.41,   171.76  " /><path style="stroke:#FFFFFF;stroke-width:4.53 ;&st6;" d=" M   552.41,   103.77  L   552.41,   171.76  " /><path style="stroke:#00A0C6;stroke-width:1.13 ;&st6;" d=" M   552.41,   103.77  L   552.41,   171.76  " /></a><a style="cursor:pointer;" ewd:lineID="33"><path style="stroke:#000000;stroke-width:5.10 ;&st6;" d=" M   560.91,   248.24  L   577.90,   248.24  L   577.90,   290.74  " /><path style="stroke:#FFFFFF;stroke-width:4.53 ;&st6;" d=" M   560.91,   248.24  L   577.90,   248.24  L   577.90,   290.74  " /><path style="stroke:#00A0C6;stroke-width:1.13 ;&st6;" d=" M   560.91,   248.24  L   577.90,   248.24  L   577.90,   290.74  " /></a><a style="cursor:pointer;" ewd:lineID="34"><path style="stroke:#008837;stroke-width:5.10 ;&st6;" d=" M   577.90,   392.72  L   577.90,   409.72  L   628.89,   409.72  L   628.89,   103.77  L   671.39,   103.77  L   671.39,   120.77  " /></a><a ewd:comment="1" style="cursor:pointer;" ewd:lineID="35"><path style="stroke:#008837;stroke-width:5.10 ;&st6;" d=" M   671.39,   500.93  L   671.39,   554.19  L   722.38,   554.19  " /></a><a ewd:comment="1" style="cursor:pointer;" ewd:lineID="36"><path style="stroke:#008837;stroke-width:5.10 ;&st6;" d=" M   671.39,   486.20  L   671.39,   415.95  " /></a><a style="cursor:pointer;" ewd:lineID="37"><path style="stroke:#008837;stroke-width:5.10 ;&st6;" d=" M   671.39,   401.22  L   671.39,   392.72  L   679.89,   384.22  L   713.88,   384.22  L   713.88,   367.79  " /><path style="stroke:#FFFFFF;stroke-width:2.27 ;&st6;" d=" M   671.39,   401.22  L   671.39,   392.72  L   679.89,   384.22  L   713.88,   384.22  L   713.88,   367.79  " /><path style="stroke:#FF0000;stroke-width:1.13 ;&st6;" d=" M   671.39,   401.22  L   671.39,   392.72  L   679.89,   384.22  L   713.88,   384.22  L   713.88,   367.79  " /></a><a style="cursor:pointer;" ewd:lineID="38"><path style="stroke:#008837;stroke-width:5.10 ;&st6;" d=" M   671.39,   316.23  L   671.39,   401.22  " /><path style="stroke:#FFFFFF;stroke-width:2.27 ;&st6;" d=" M   671.39,   316.23  L   671.39,   401.22  " /><path style="stroke:#FF0000;stroke-width:1.13 ;&st6;" d=" M   671.39,   316.23  L   671.39,   401.22  " /></a><a style="cursor:pointer;" ewd:lineID="39"><path style="stroke:#008837;stroke-width:5.10 ;&st6;" d=" M   671.39,   231.25  L   671.39,   299.24  " /><path style="stroke:#FFFFFF;stroke-width:2.27 ;&st6;" d=" M   671.39,   231.25  L   671.39,   299.24  " /><path style="stroke:#FF0000;stroke-width:1.13 ;&st6;" d=" M   671.39,   231.25  L   671.39,   299.24  " /></a><a style="cursor:pointer;" ewd:lineID="40"><path style="stroke:#008837;stroke-width:5.10 ;&st6;" d=" M   671.39,   231.25  L   671.39,   239.75  L   679.89,   248.24  L   713.88,   248.24  L   713.88,   264.67  " /><path style="stroke:#FFFFFF;stroke-width:2.27 ;&st6;" d=" M   671.39,   231.25  L   671.39,   239.75  L   679.89,   248.24  L   713.88,   248.24  L   713.88,   264.67  " /><path style="stroke:#FF0000;stroke-width:1.13 ;&st6;" d=" M   671.39,   231.25  L   671.39,   239.75  L   679.89,   248.24  L   713.88,   248.24  L   713.88,   264.67  " /></a><a style="cursor:pointer;" ewd:lineID="41"><path style="stroke:#008837;stroke-width:5.10 ;&st6;" d=" M   713.88,   299.80  L   713.88,   332.66  " /><path style="stroke:#FFFFFF;stroke-width:2.27 ;&st6;" d=" M   713.88,   299.80  L   713.88,   332.66  " /><path style="stroke:#FF0000;stroke-width:1.13 ;&st6;" d=" M   713.88,   299.80  L   713.88,   332.66  " /></a><a ewd:comment="2" style="cursor:pointer;" ewd:lineID="42"><path style="stroke:#008837;stroke-width:5.10 ;&st6;" d=" M   730.88,   494.70  L   730.88,   545.69  " /></a><a ewd:comment="2" style="cursor:pointer;" ewd:lineID="43"><path style="stroke:#008837;stroke-width:5.10 ;&st6;" d=" M   730.88,   479.97  L   730.88,   426.71  L   679.89,   426.71  L   671.39,   418.22  L   671.39,   415.95  " /></a><a ewd:comment="3" style="cursor:pointer;" ewd:lineID="44"><path style="stroke:#FF0000;stroke-width:5.10 ;&st6;" d=" M   790.37,   443.71  L   790.37,   477.71  " /><path style="stroke:#FFFFFF;stroke-width:2.27 ;&st6;" d=" M   790.37,   443.71  L   790.37,   477.71  " /><path style="stroke:#000000;stroke-width:1.13 ;&st6;" d=" M   790.37,   443.71  L   790.37,   477.71  " /></a><a ewd:comment="3" style="cursor:pointer;" ewd:lineID="45"><path style="stroke:#FF0000;stroke-width:5.10 ;&st6;" d=" M   790.37,   373.74  L   790.37,   428.70  " /><path style="stroke:#FFFFFF;stroke-width:2.27 ;&st6;" d=" M   790.37,   373.74  L   790.37,   428.70  " /><path style="stroke:#00A0C6;stroke-width:1.13 ;&st6;" d=" M   790.37,   373.74  L   790.37,   428.70  " /></a><a ewd:comment="3" style="cursor:pointer;" ewd:lineID="46"><path style="stroke:#FF0000;stroke-width:5.10 ;&st6;" d=" M   790.37,   316.23  L   790.37,   358.73  " /><path style="stroke:#FFFFFF;stroke-width:2.27 ;&st6;" d=" M   790.37,   316.23  L   790.37,   358.73  " /><path style="stroke:#00A0C6;stroke-width:1.13 ;&st6;" d=" M   790.37,   316.23  L   790.37,   358.73  " /></a><a ewd:comment="3" style="cursor:pointer;" ewd:lineID="47"><path style="stroke:#FF0000;stroke-width:5.10 ;&st6;" d=" M   790.37,   265.24  L   790.37,   299.24  " /><path style="stroke:#FFFFFF;stroke-width:2.27 ;&st6;" d=" M   790.37,   265.24  L   790.37,   299.24  " /><path style="stroke:#00A0C6;stroke-width:1.13 ;&st6;" d=" M   790.37,   265.24  L   790.37,   299.24  " /></a><a ewd:comment="3" style="cursor:pointer;" ewd:lineID="48"><path style="stroke:#FF0000;stroke-width:5.10 ;&st6;" d=" M   790.37,   103.77  L   790.37,   163.26  " /><path style="stroke:#FFFFFF;stroke-width:1.13 ;&st6;" d=" M   790.37,   103.77  L   790.37,   163.26  " /></a><a ewd:comment="3" style="cursor:pointer;" ewd:lineID="49"><path style="stroke:#FF0000;stroke-width:5.10 ;&st6;" d=" M   892.35,   358.73  L   892.35,   486.20  L   798.87,   486.20  " /><path style="stroke:#FFFFFF;stroke-width:2.27 ;&st6;" d=" M   892.35,   358.73  L   892.35,   486.20  L   798.87,   486.20  " /><path style="stroke:#000000;stroke-width:1.13 ;&st6;" d=" M   892.35,   358.73  L   892.35,   486.20  L   798.87,   486.20  " /></a><a ewd:comment="2" style="cursor:pointer;" ewd:lineID="50"><path style="stroke:#000000;stroke-width:5.10 ;&st6;" d=" M   892.35,   256.74  L   892.35,   316.23  " /><path style="stroke:#FFFFFF;stroke-width:4.53 ;&st6;" d=" M   892.35,   256.74  L   892.35,   316.23  " /><path style="stroke:#00A0C6;stroke-width:1.13 ;&st6;" d=" M   892.35,   256.74  L   892.35,   316.23  " /></a><a ewd:comment="2" style="cursor:pointer;" ewd:lineID="51"><path style="stroke:#000000;stroke-width:5.10 ;&st6;" d=" M   892.35,   242.01  L   892.35,   186.49  " /><path style="stroke:#FFFFFF;stroke-width:4.53 ;&st6;" d=" M   892.35,   242.01  L   892.35,   186.49  " /><path style="stroke:#00A0C6;stroke-width:1.13 ;&st6;" d=" M   892.35,   242.01  L   892.35,   186.49  " /></a><a ewd:comment="1" style="cursor:pointer;" ewd:lineID="52"><path style="stroke:#000000;stroke-width:5.10 ;&st6;" d=" M   892.35,   186.49  L   892.35,   188.75  L   900.85,   197.25  L   943.34,   197.25  L   943.34,   248.24  " /><path style="stroke:#FFFFFF;stroke-width:4.53 ;&st6;" d=" M   892.35,   186.49  L   892.35,   188.75  L   900.85,   197.25  L   943.34,   197.25  L   943.34,   248.24  " /><path style="stroke:#00A0C6;stroke-width:1.13 ;&st6;" d=" M   892.35,   186.49  L   892.35,   188.75  L   900.85,   197.25  L   943.34,   197.25  L   943.34,   248.24  " /></a><a style="cursor:pointer;" ewd:lineID="53"><path style="stroke:#000000;stroke-width:5.10 ;&st6;" d=" M   892.35,   171.76  L   892.35,   103.77  " /><path style="stroke:#FFFFFF;stroke-width:4.53 ;&st6;" d=" M   892.35,   171.76  L   892.35,   103.77  " /><path style="stroke:#00A0C6;stroke-width:1.13 ;&st6;" d=" M   892.35,   171.76  L   892.35,   103.77  " /></a><a style="cursor:pointer;" ewd:lineID="54"><path style="stroke:#008837;stroke-width:5.10 ;&st6;" d=" M   934.84,   358.73  L   934.84,   554.19  L   739.38,   554.19  " /></a><a ewd:comment="1" style="cursor:pointer;" ewd:lineID="55"><path style="stroke:#000000;stroke-width:5.10 ;&st6;" d=" M   943.34,   262.97  L   943.34,   299.24  L   900.85,   299.24  L   892.35,   307.73  L   892.35,   316.23  " /><path style="stroke:#FFFFFF;stroke-width:4.53 ;&st6;" d=" M   943.34,   262.97  L   943.34,   299.24  L   900.85,   299.24  L   892.35,   307.73  L   892.35,   316.23  " /><path style="stroke:#00A0C6;stroke-width:1.13 ;&st6;" d=" M   943.34,   262.97  L   943.34,   299.24  L   900.85,   299.24  L   892.35,   307.73  L   892.35,   316.23  " /></a><a style="cursor:pointer;" ewd:lineID="56"><path style="stroke:#008837;stroke-width:5.10 ;&st6;" d=" M  1096.32,   223.88  L  1096.32,   248.24  L  1155.81,   248.24  L  1155.81,    27.28  L  1206.80,    27.28  L  1206.80,    44.28  " /></a><a style="cursor:pointer;" ewd:lineID="57"><path style="stroke:#008837;stroke-width:5.10 ;&st6;" d=" M  1096.32,   103.77  L  1096.32,   153.63  " /><path style="stroke:#FFFFFF;stroke-width:2.27 ;&st6;" d=" M  1096.32,   103.77  L  1096.32,   153.63  " /><path style="stroke:#FFE600;stroke-width:1.13 ;&st6;" d=" M  1096.32,   103.77  L  1096.32,   153.63  " /></a><a ewd:comment="2" style="cursor:pointer;" ewd:lineID="58"><path style="stroke:#000000;stroke-width:5.10 ;&st6;" d=" M  1104.82,   511.70  L  1070.82,   511.70  L  1070.82,   681.67  " /><path style="stroke:#FFFFFF;stroke-width:4.53 ;&st6;" d=" M  1104.82,   511.70  L  1070.82,   511.70  L  1070.82,   681.67  " /><path style="stroke:#000000;stroke-width:1.13 ;&st6;" d=" M  1104.82,   511.70  L  1070.82,   511.70  L  1070.82,   681.67  " /></a><a ewd:comment="1" style="cursor:pointer;" ewd:lineID="59"><path style="stroke:#000000;stroke-width:5.10 ;&st6;" d=" M  1113.31,   520.20  L  1113.31,   681.67  " /><path style="stroke:#FFFFFF;stroke-width:4.53 ;&st6;" d=" M  1113.31,   520.20  L  1113.31,   681.67  " /><path style="stroke:#000000;stroke-width:1.13 ;&st6;" d=" M  1113.31,   520.20  L  1113.31,   681.67  " /></a><a style="cursor:pointer;" ewd:lineID="60"><path style="stroke:#000000;stroke-width:5.10 ;&st6;" d=" M  1113.31,   358.73  L  1113.31,   503.20  " /><path style="stroke:#FFFFFF;stroke-width:4.53 ;&st6;" d=" M  1113.31,   358.73  L  1113.31,   503.20  " /><path style="stroke:#000000;stroke-width:1.13 ;&st6;" d=" M  1113.31,   358.73  L  1113.31,   503.20  " /></a><a ewd:comment="1" style="cursor:pointer;" ewd:lineID="61"><path style="stroke:#000000;stroke-width:5.10 ;&st6;" d=" M  1121.81,   511.70  L  1155.81,   511.70  L  1155.81,   681.67  " /><path style="stroke:#FFFFFF;stroke-width:4.53 ;&st6;" d=" M  1121.81,   511.70  L  1155.81,   511.70  L  1155.81,   681.67  " /><path style="stroke:#000000;stroke-width:1.13 ;&st6;" d=" M  1121.81,   511.70  L  1155.81,   511.70  L  1155.81,   681.67  " /></a><a ewd:comment="1" style="cursor:pointer;" ewd:lineID="62"><path style="stroke:#008837;stroke-width:5.10 ;&st6;" d=" M  1206.80,   358.73  L  1206.80,   367.22  L  1215.30,   375.72  L  1232.29,   375.72  L  1232.29,   554.19  L  1470.25,   554.19  " /></a><a ewd:comment="2" style="cursor:pointer;" ewd:lineID="63"><path style="stroke:#00A0C6;stroke-width:5.10 ;&st6;" d=" M  1206.80,   316.23  L  1206.80,   256.74  " /></a><a ewd:comment="1" style="cursor:pointer;" ewd:lineID="64"><path style="stroke:#00A0C6;stroke-width:5.10 ;&st6;" d=" M  1206.80,   316.23  L  1206.80,   307.73  L  1215.30,   299.24  L  1257.79,   299.24  L  1257.79,   262.97  " /></a><a ewd:comment="2" style="cursor:pointer;" ewd:lineID="65"><path style="stroke:#00A0C6;stroke-width:5.10 ;&st6;" d=" M  1206.80,   242.01  L  1206.80,   186.49  " /></a><a ewd:comment="1" style="cursor:pointer;" ewd:lineID="66"><path style="stroke:#00A0C6;stroke-width:5.10 ;&st6;" d=" M  1206.80,   186.49  L  1206.80,   188.75  L  1215.30,   197.25  L  1257.79,   197.25  L  1257.79,   248.24  " /></a><a style="cursor:pointer;" ewd:lineID="67"><path style="stroke:#00A0C6;stroke-width:5.10 ;&st6;" d=" M  1206.80,   171.76  L  1206.80,   137.76  " /></a><a ewd:comment="1" style="cursor:pointer;" ewd:lineID="68"><path style="stroke:#008837;stroke-width:5.10 ;&st6;" d=" M  1266.29,   358.73  L  1266.29,   367.22  L  1274.79,   375.72  L  1291.78,   375.72  L  1291.78,   511.70  L  1368.27,   511.70  " /></a><a ewd:comment="1" style="cursor:pointer;" ewd:lineID="69"><path style="stroke:#008837;stroke-width:5.10 ;&st6;" d=" M  1376.77,   449.94  L  1376.77,   503.20  " /></a><a ewd:comment="1" style="cursor:pointer;" ewd:lineID="70"><path style="stroke:#008837;stroke-width:5.10 ;&st6;" d=" M  1376.77,   339.75  L  1376.77,   435.21  " /><path style="stroke:#FFFFFF;stroke-width:2.27 ;&st6;" d=" M  1376.77,   339.75  L  1376.77,   435.21  " /><path style="stroke:#FFE600;stroke-width:1.13 ;&st6;" d=" M  1376.77,   339.75  L  1376.77,   435.21  " /></a><a ewd:comment="2" style="cursor:pointer;" ewd:lineID="71"><path style="stroke:#008837;stroke-width:5.10 ;&st6;" d=" M  1376.77,   339.75  L  1376.77,   341.73  L  1385.27,   350.23  L  1419.26,   350.23  L  1419.26,   428.70  " /><path style="stroke:#FFFFFF;stroke-width:2.27 ;&st6;" d=" M  1376.77,   339.75  L  1376.77,   341.73  L  1385.27,   350.23  L  1419.26,   350.23  L  1419.26,   428.70  " /><path style="stroke:#FFE600;stroke-width:1.13 ;&st6;" d=" M  1376.77,   339.75  L  1376.77,   341.73  L  1385.27,   350.23  L  1419.26,   350.23  L  1419.26,   428.70  " /></a><a style="cursor:pointer;" ewd:lineID="72"><path style="stroke:#008837;stroke-width:5.10 ;&st6;" d=" M  1376.77,   324.73  L  1376.77,   273.74  " /><path style="stroke:#FFFFFF;stroke-width:2.27 ;&st6;" d=" M  1376.77,   324.73  L  1376.77,   273.74  " /><path style="stroke:#FFE600;stroke-width:1.13 ;&st6;" d=" M  1376.77,   324.73  L  1376.77,   273.74  " /></a><a style="cursor:pointer;" ewd:lineID="73"><path style="stroke:#008837;stroke-width:5.10 ;&st6;" d=" M  1376.77,   113.40  L  1376.77,   256.74  " /><path style="stroke:#FFFFFF;stroke-width:2.27 ;&st6;" d=" M  1376.77,   113.40  L  1376.77,   256.74  " /><path style="stroke:#FFE600;stroke-width:1.13 ;&st6;" d=" M  1376.77,   113.40  L  1376.77,   256.74  " /></a><a ewd:comment="2" style="cursor:pointer;" ewd:lineID="74"><path style="stroke:#008837;stroke-width:5.10 ;&st6;" d=" M  1419.26,   520.20  L  1419.26,   537.20  L  1266.29,   537.20  L  1266.29,   358.73  " /></a><a ewd:comment="2" style="cursor:pointer;" ewd:lineID="75"><path style="stroke:#008837;stroke-width:5.10 ;&st6;" d=" M  1419.26,   443.71  L  1419.26,   503.20  " /></a><a ewd:comment="1" style="cursor:pointer;" ewd:lineID="76"><path style="stroke:#008837;stroke-width:5.10 ;&st6;" d=" M  1478.75,   449.94  L  1478.75,   545.69  " /></a><a ewd:comment="1" style="cursor:pointer;" ewd:lineID="77"><path style="stroke:#008837;stroke-width:5.10 ;&st6;" d=" M  1478.75,   339.75  L  1478.75,   435.21  " /><path style="stroke:#FFFFFF;stroke-width:2.27 ;&st6;" d=" M  1478.75,   339.75  L  1478.75,   435.21  " /><path style="stroke:#000000;stroke-width:1.13 ;&st6;" d=" M  1478.75,   339.75  L  1478.75,   435.21  " /></a><a ewd:comment="2" style="cursor:pointer;" ewd:lineID="78"><path style="stroke:#008837;stroke-width:5.10 ;&st6;" d=" M  1478.75,   339.75  L  1478.75,   341.73  L  1487.25,   350.23  L  1521.25,   350.23  L  1521.25,   428.70  " /><path style="stroke:#FFFFFF;stroke-width:2.27 ;&st6;" d=" M  1478.75,   339.75  L  1478.75,   341.73  L  1487.25,   350.23  L  1521.25,   350.23  L  1521.25,   428.70  " /><path style="stroke:#000000;stroke-width:1.13 ;&st6;" d=" M  1478.75,   339.75  L  1478.75,   341.73  L  1487.25,   350.23  L  1521.25,   350.23  L  1521.25,   428.70  " /></a><a style="cursor:pointer;" ewd:lineID="79"><path style="stroke:#008837;stroke-width:5.10 ;&st6;" d=" M  1478.75,   273.74  L  1478.75,   324.73  " /><path style="stroke:#FFFFFF;stroke-width:2.27 ;&st6;" d=" M  1478.75,   273.74  L  1478.75,   324.73  " /><path style="stroke:#000000;stroke-width:1.13 ;&st6;" d=" M  1478.75,   273.74  L  1478.75,   324.73  " /></a><a style="cursor:pointer;" ewd:lineID="80"><path style="stroke:#008837;stroke-width:5.10 ;&st6;" d=" M  1478.75,   113.40  L  1478.75,   256.74  " /><path style="stroke:#FFFFFF;stroke-width:2.27 ;&st6;" d=" M  1478.75,   113.40  L  1478.75,   256.74  " /><path style="stroke:#000000;stroke-width:1.13 ;&st6;" d=" M  1478.75,   113.40  L  1478.75,   256.74  " /></a><a ewd:comment="2" style="cursor:pointer;" ewd:lineID="81"><path style="stroke:#008837;stroke-width:5.10 ;&st6;" d=" M  1521.25,   562.69  L  1521.25,   579.69  L  1206.80,   579.69  L  1206.80,   358.73  " /></a><a ewd:comment="2" style="cursor:pointer;" ewd:lineID="82"><path style="stroke:#008837;stroke-width:5.10 ;&st6;" d=" M  1521.25,   443.71  L  1521.25,   545.69  " /></a><a ewd:comment="8,16" style="cursor:pointer;" ewd:lineID="83"><path style="stroke:#000000;stroke-width:5.10 ;&st6;" d=" M  1623.23,   681.67  L  1623.23,   555.33  " /><path style="stroke:#FFFFFF;stroke-width:4.53 ;&st6;" d=" M  1623.23,   681.67  L  1623.23,   555.33  " /><path style="stroke:#000000;stroke-width:1.13 ;&st6;" d=" M  1623.23,   681.67  L  1623.23,   555.33  " /></a><a ewd:comment="8,17" style="cursor:pointer;" ewd:lineID="84"><path style="stroke:#000000;stroke-width:5.10 ;&st6;" d=" M  1623.23,   681.67  L  1623.23,   673.17  L  1631.73,   664.67  L  1674.22,   664.67  L  1674.22,   622.18  " /><path style="stroke:#FFFFFF;stroke-width:4.53 ;&st6;" d=" M  1623.23,   681.67  L  1623.23,   673.17  L  1631.73,   664.67  L  1674.22,   664.67  L  1674.22,   622.18  " /><path style="stroke:#000000;stroke-width:1.13 ;&st6;" d=" M  1623.23,   681.67  L  1623.23,   673.17  L  1631.73,   664.67  L  1674.22,   664.67  L  1674.22,   622.18  " /></a><a ewd:comment="8,17" style="cursor:pointer;" ewd:lineID="85"><path style="stroke:#008837;stroke-width:5.10 ;&st6;" d=" M  1623.23,   485.07  L  1623.23,   416.23  " /><path style="stroke:#FFFFFF;stroke-width:2.27 ;&st6;" d=" M  1623.23,   485.07  L  1623.23,   416.23  " /><path style="stroke:#FF0000;stroke-width:1.13 ;&st6;" d=" M  1623.23,   485.07  L  1623.23,   416.23  " /></a><a ewd:comment="8,16" style="cursor:pointer;" ewd:lineID="86"><path style="stroke:#008837;stroke-width:5.10 ;&st6;" d=" M  1623.23,   485.07  L  1623.23,   477.71  L  1631.73,   469.21  L  1657.22,   469.21  L  1657.22,   350.23  L  1631.73,   350.23  L  1623.23,   341.73  L  1623.23,   334.36  " /><path style="stroke:#FFFFFF;stroke-width:2.27 ;&st6;" d=" M  1623.23,   485.07  L  1623.23,   477.71  L  1631.73,   469.21  L  1657.22,   469.21  L  1657.22,   350.23  L  1631.73,   350.23  L  1623.23,   341.73  L  1623.23,   334.36  " /><path style="stroke:#FF0000;stroke-width:1.13 ;&st6;" d=" M  1623.23,   485.07  L  1623.23,   477.71  L  1631.73,   469.21  L  1657.22,   469.21  L  1657.22,   350.23  L  1631.73,   350.23  L  1623.23,   341.73  L  1623.23,   334.36  " /></a><a ewd:comment="8,17" style="cursor:pointer;" ewd:lineID="87"><path style="stroke:#008837;stroke-width:5.10 ;&st6;" d=" M  1623.23,   401.22  L  1623.23,   334.36  " /><path style="stroke:#FFFFFF;stroke-width:2.27 ;&st6;" d=" M  1623.23,   401.22  L  1623.23,   334.36  " /><path style="stroke:#FF0000;stroke-width:1.13 ;&st6;" d=" M  1623.23,   401.22  L  1623.23,   334.36  " /></a><a ewd:comment="8" style="cursor:pointer;" ewd:lineID="88"><path style="stroke:#008837;stroke-width:5.10 ;&st6;" d=" M  1623.23,   281.10  L  1623.23,   212.27  " /><path style="stroke:#FFFFFF;stroke-width:2.27 ;&st6;" d=" M  1623.23,   281.10  L  1623.23,   212.27  " /><path style="stroke:#FF0000;stroke-width:1.13 ;&st6;" d=" M  1623.23,   281.10  L  1623.23,   212.27  " /></a><a ewd:comment="8" style="cursor:pointer;" ewd:lineID="89"><path style="stroke:#008837;stroke-width:5.10 ;&st6;" d=" M  1623.23,   104.33  L  1623.23,   197.25  " /><path style="stroke:#FFFFFF;stroke-width:2.27 ;&st6;" d=" M  1623.23,   104.33  L  1623.23,   197.25  " /><path style="stroke:#FF0000;stroke-width:1.13 ;&st6;" d=" M  1623.23,   104.33  L  1623.23,   197.25  " /></a><a ewd:comment="8,17" style="cursor:pointer;" ewd:lineID="90"><path style="stroke:#000000;stroke-width:5.10 ;&st6;" d=" M  1674.22,   607.45  L  1674.22,   571.19  L  1631.73,   571.19  L  1623.23,   562.69  L  1623.23,   555.33  " /><path style="stroke:#FFFFFF;stroke-width:4.53 ;&st6;" d=" M  1674.22,   607.45  L  1674.22,   571.19  L  1631.73,   571.19  L  1623.23,   562.69  L  1623.23,   555.33  " /><path style="stroke:#000000;stroke-width:1.13 ;&st6;" d=" M  1674.22,   607.45  L  1674.22,   571.19  L  1631.73,   571.19  L  1623.23,   562.69  L  1623.23,   555.33  " /></a><a ewd:comment="8" style="cursor:pointer;" ewd:lineID="91"><path style="stroke:#000000;stroke-width:5.10 ;&st6;" d=" M  1793.20,   279.97  L  1793.20,   357.59  " /></a><a ewd:comment="8" style="cursor:pointer;" ewd:lineID="92"><path style="stroke:#000000;stroke-width:5.10 ;&st6;" d=" M  1793.20,   265.24  L  1793.20,   137.76  L  1886.68,   137.76  L  1903.68,   120.77  L  1903.68,   113.40  " /></a><a ewd:comment="8" style="cursor:pointer;" ewd:lineID="93"><path style="stroke:#000000;stroke-width:5.10 ;&st6;" d=" M  1818.70,   613.68  L  1784.70,   613.68  L  1784.70,   681.67  " /><path style="stroke:#FFFFFF;stroke-width:4.53 ;&st6;" d=" M  1818.70,   613.68  L  1784.70,   613.68  L  1784.70,   681.67  " /><path style="stroke:#000000;stroke-width:1.13 ;&st6;" d=" M  1818.70,   613.68  L  1784.70,   613.68  L  1784.70,   681.67  " /></a><a ewd:comment="8" style="cursor:pointer;" ewd:lineID="94"><path style="stroke:#000000;stroke-width:5.10 ;&st6;" d=" M  1827.19,   622.18  L  1827.19,   681.67  " /><path style="stroke:#FFFFFF;stroke-width:4.53 ;&st6;" d=" M  1827.19,   622.18  L  1827.19,   681.67  " /><path style="stroke:#000000;stroke-width:1.13 ;&st6;" d=" M  1827.19,   622.18  L  1827.19,   681.67  " /></a><a ewd:comment="8" style="cursor:pointer;" ewd:lineID="95"><path style="stroke:#000000;stroke-width:5.10 ;&st6;" d=" M  1827.19,   605.18  L  1827.19,   554.19  " /><path style="stroke:#FFFFFF;stroke-width:4.53 ;&st6;" d=" M  1827.19,   605.18  L  1827.19,   554.19  " /><path style="stroke:#000000;stroke-width:1.13 ;&st6;" d=" M  1827.19,   605.18  L  1827.19,   554.19  " /></a><a ewd:comment="8" style="cursor:pointer;" ewd:lineID="96"><path style="stroke:#000000;stroke-width:5.10 ;&st6;" d=" M  1827.19,   537.20  L  1827.19,   495.84  " /><path style="stroke:#FFFFFF;stroke-width:4.53 ;&st6;" d=" M  1827.19,   537.20  L  1827.19,   495.84  " /><path style="stroke:#000000;stroke-width:1.13 ;&st6;" d=" M  1827.19,   537.20  L  1827.19,   495.84  " /></a><a ewd:comment="8" style="cursor:pointer;" ewd:lineID="97"><path style="stroke:#00A0C6;stroke-width:5.10 ;&st6;" d=" M  1861.19,   279.97  L  1861.19,   357.59  " /><path style="stroke:#FFFFFF;stroke-width:1.13 ;&st6;" d=" M  1861.19,   279.97  L  1861.19,   357.59  " /></a><a ewd:comment="8" style="cursor:pointer;" ewd:lineID="98"><path style="stroke:#00A0C6;stroke-width:5.10 ;&st6;" d=" M  1861.19,   265.24  L  1861.19,   171.76  L  1929.18,   171.76  L  1929.18,   137.76  L  1946.17,   120.77  L  1946.17,   113.40  " /><path style="stroke:#FFFFFF;stroke-width:1.13 ;&st6;" d=" M  1861.19,   265.24  L  1861.19,   171.76  L  1929.18,   171.76  L  1929.18,   137.76  L  1946.17,   120.77  L  1946.17,   113.40  " /></a><a ewd:comment="9" style="cursor:pointer;" ewd:lineID="99"><path style="stroke:#000000;stroke-width:5.10 ;&st6;" d=" M  1903.68,   113.40  L  1903.68,   256.74  L  1980.17,   256.74  " /></a><a ewd:comment="9" style="cursor:pointer;" ewd:lineID="100"><path style="stroke:#000000;stroke-width:5.10 ;&st6;" d=" M  1946.17,   681.67  L  1946.17,   469.77  " /><path style="stroke:#FFFFFF;stroke-width:4.53 ;&st6;" d=" M  1946.17,   681.67  L  1946.17,   469.77  " /><path style="stroke:#000000;stroke-width:1.13 ;&st6;" d=" M  1946.17,   681.67  L  1946.17,   469.77  " /></a><a ewd:comment="9" style="cursor:pointer;" ewd:lineID="101"><path style="stroke:#00A0C6;stroke-width:5.10 ;&st6;" d=" M  1946.17,   417.65  L  1946.17,   382.24  " /><path style="stroke:#FFFFFF;stroke-width:1.13 ;&st6;" d=" M  1946.17,   417.65  L  1946.17,   382.24  " /></a><a ewd:comment="9" style="cursor:pointer;" ewd:lineID="102"><path style="stroke:#00A0C6;stroke-width:5.10 ;&st6;" d=" M  1946.17,   367.22  L  1946.17,   239.75  " /><path style="stroke:#FFFFFF;stroke-width:1.13 ;&st6;" d=" M  1946.17,   367.22  L  1946.17,   239.75  " /></a><a ewd:comment="9" style="cursor:pointer;" ewd:lineID="103"><path style="stroke:#00A0C6;stroke-width:5.10 ;&st6;" d=" M  1946.17,   222.75  L  1946.17,   113.40  " /><path style="stroke:#FFFFFF;stroke-width:1.13 ;&st6;" d=" M  1946.17,   222.75  L  1946.17,   113.40  " /></a><a ewd:comment="9" style="cursor:pointer;" ewd:lineID="104"><path style="stroke:#000000;stroke-width:5.10 ;&st6;" d=" M  1988.67,   417.65  L  1988.67,   381.95  " /></a><a ewd:comment="9" style="cursor:pointer;" ewd:lineID="105"><path style="stroke:#000000;stroke-width:5.10 ;&st6;" d=" M  1988.67,   367.22  L  1988.67,   265.24  " /></a><a ewd:comment="9" style="cursor:pointer;" ewd:lineID="106"><path style="stroke:#000000;stroke-width:5.10 ;&st6;" d=" M  2150.14,   469.21  L  2150.14,   571.19  L  2413.60,   571.19  L  2413.60,   469.77  " /></a><a ewd:comment="9" style="cursor:pointer;" ewd:lineID="107"><path style="stroke:#00A0C6;stroke-width:5.10 ;&st6;" d=" M  2150.14,   367.22  L  2150.14,   197.82  " /></a><a ewd:comment="9" style="cursor:pointer;" ewd:lineID="108"><path style="stroke:#00A0C6;stroke-width:5.10 ;&st6;" d=" M  2150.14,   162.69  L  2150.14,   103.77  " /></a><a ewd:comment="9" style="cursor:pointer;" ewd:lineID="109"><path style="stroke:#000000;stroke-width:5.10 ;&st6;" d=" M  2175.64,   545.69  L  2175.64,   681.67  " /><path style="stroke:#FFFFFF;stroke-width:4.53 ;&st6;" d=" M  2175.64,   545.69  L  2175.64,   681.67  " /><path style="stroke:#000000;stroke-width:1.13 ;&st6;" d=" M  2175.64,   545.69  L  2175.64,   681.67  " /></a><a ewd:comment="9" style="cursor:pointer;" ewd:lineID="110"><path style="stroke:#000000;stroke-width:5.10 ;&st6;" d=" M  2175.64,   469.21  L  2175.64,   528.70  " /><path style="stroke:#FFFFFF;stroke-width:4.53 ;&st6;" d=" M  2175.64,   469.21  L  2175.64,   528.70  " /><path style="stroke:#000000;stroke-width:1.13 ;&st6;" d=" M  2175.64,   469.21  L  2175.64,   528.70  " /></a><a ewd:comment="9" style="cursor:pointer;" ewd:lineID="111"><path style="stroke:#000000;stroke-width:5.10 ;&st6;" d=" M  2175.64,   367.22  L  2175.64,   256.74  L  1997.17,   256.74  " /></a><a ewd:comment="9" style="cursor:pointer;" ewd:lineID="112"><path style="stroke:#00A0C6;stroke-width:5.10 ;&st6;" d=" M  2235.13,   469.21  L  2235.13,   520.20  L  2328.61,   520.20  L  2328.61,   469.77  " /><path style="stroke:#FFFFFF;stroke-width:1.13 ;&st6;" d=" M  2235.13,   469.21  L  2235.13,   520.20  L  2328.61,   520.20  L  2328.61,   469.77  " /></a><a ewd:comment="9" style="cursor:pointer;" ewd:lineID="113"><path style="stroke:#00A0C6;stroke-width:5.10 ;&st6;" d=" M  2235.13,   367.22  L  2235.13,   197.82  " /></a><a ewd:comment="9" style="cursor:pointer;" ewd:lineID="114"><path style="stroke:#000000;stroke-width:5.10 ;&st6;" d=" M  2260.62,   469.21  L  2260.62,   537.20  L  2184.14,   537.20  " /><path style="stroke:#FFFFFF;stroke-width:4.53 ;&st6;" d=" M  2260.62,   469.21  L  2260.62,   537.20  L  2184.14,   537.20  " /><path style="stroke:#000000;stroke-width:1.13 ;&st6;" d=" M  2260.62,   469.21  L  2260.62,   537.20  L  2184.14,   537.20  " /></a><a ewd:comment="9" style="cursor:pointer;" ewd:lineID="115"><path style="stroke:#00A0C6;stroke-width:5.10 ;&st6;" d=" M  2260.62,   367.22  L  2260.62,   231.25  L  1954.67,   231.25  " /><path style="stroke:#FFFFFF;stroke-width:1.13 ;&st6;" d=" M  2260.62,   367.22  L  2260.62,   231.25  L  1954.67,   231.25  " /></a><a ewd:comment="9" style="cursor:pointer;" ewd:lineID="116"><path style="stroke:#00A0C6;stroke-width:5.10 ;&st6;" d=" M  2328.61,   434.65  L  2328.61,   375.72  " /><path style="stroke:#FFFFFF;stroke-width:1.13 ;&st6;" d=" M  2328.61,   434.65  L  2328.61,   375.72  " /></a><a ewd:comment="9" style="cursor:pointer;" ewd:lineID="117"><path style="stroke:#00A0C6;stroke-width:5.10 ;&st6;" d=" M  2328.61,   350.23  L  2328.61,   197.82  " /></a><a ewd:comment="9" style="cursor:pointer;" ewd:lineID="118"><path style="stroke:#00A0C6;stroke-width:5.10 ;&st6;" d=" M  2328.61,   162.69  L  2328.61,   146.26  L  2413.60,   146.26  L  2413.60,   350.23  " /></a><a ewd:comment="9" style="cursor:pointer;" ewd:lineID="119"><path style="stroke:#000000;stroke-width:5.10 ;&st6;" d=" M  2413.60,   434.65  L  2413.60,   375.72  " /></a><a ewd:comment="9" style="cursor:pointer;" ewd:lineID="120"><path style="stroke:#000000;stroke-width:5.10 ;&st6;" d=" M  2447.59,   434.65  L  2447.59,   401.22  L  2490.08,   401.22  L  2490.08,   358.73  " /></a><a ewd:comment="9" style="cursor:pointer;" ewd:lineID="121"><path style="stroke:#00A0C6;stroke-width:5.10 ;&st6;" d=" M  2524.08,   358.73  L  2524.08,   520.20  L  2362.61,   520.20  L  2362.61,   469.77  " /><path style="stroke:#FFFFFF;stroke-width:1.13 ;&st6;" d=" M  2524.08,   358.73  L  2524.08,   520.20  L  2362.61,   520.20  L  2362.61,   469.77  " /></a><a ewd:comment="9" style="cursor:pointer;" ewd:lineID="122"><path style="stroke:#000000;stroke-width:5.10 ;&st6;" d=" M  2711.05,   315.67  L  2711.05,   146.26  L  2490.08,   146.26  L  2490.08,   343.99  " /></a><a ewd:comment="9" style="cursor:pointer;" ewd:lineID="123"><path style="stroke:#000000;stroke-width:5.10 ;&st6;" d=" M  2736.54,   562.69  L  2694.05,   562.69  L  2694.05,   681.67  " /><path style="stroke:#FFFFFF;stroke-width:4.53 ;&st6;" d=" M  2736.54,   562.69  L  2694.05,   562.69  L  2694.05,   681.67  " /><path style="stroke:#000000;stroke-width:1.13 ;&st6;" d=" M  2736.54,   562.69  L  2694.05,   562.69  L  2694.05,   681.67  " /></a><a ewd:comment="9" style="cursor:pointer;" ewd:lineID="124"><path style="stroke:#000000;stroke-width:5.10 ;&st6;" d=" M  2745.04,   571.19  L  2745.04,   681.67  " /><path style="stroke:#FFFFFF;stroke-width:4.53 ;&st6;" d=" M  2745.04,   571.19  L  2745.04,   681.67  " /><path style="stroke:#000000;stroke-width:1.13 ;&st6;" d=" M  2745.04,   571.19  L  2745.04,   681.67  " /></a><a ewd:comment="9" style="cursor:pointer;" ewd:lineID="125"><path style="stroke:#000000;stroke-width:5.10 ;&st6;" d=" M  2745.04,   554.19  L  2745.04,   503.20  " /><path style="stroke:#FFFFFF;stroke-width:4.53 ;&st6;" d=" M  2745.04,   554.19  L  2745.04,   503.20  " /><path style="stroke:#000000;stroke-width:1.13 ;&st6;" d=" M  2745.04,   554.19  L  2745.04,   503.20  " /></a><a ewd:comment="9" style="cursor:pointer;" ewd:lineID="126"><path style="stroke:#000000;stroke-width:5.10 ;&st6;" d=" M  2745.04,   486.20  L  2745.04,   435.78  " /><path style="stroke:#FFFFFF;stroke-width:4.53 ;&st6;" d=" M  2745.04,   486.20  L  2745.04,   435.78  " /><path style="stroke:#000000;stroke-width:1.13 ;&st6;" d=" M  2745.04,   486.20  L  2745.04,   435.78  " /></a><a ewd:comment="9" style="cursor:pointer;" ewd:lineID="127"><path style="stroke:#00A0C6;stroke-width:5.10 ;&st6;" d=" M  2779.04,   315.67  L  2779.04,   171.76  L  2524.08,   171.76  L  2524.08,   343.71  " /><path style="stroke:#FFFFFF;stroke-width:1.13 ;&st6;" d=" M  2779.04,   315.67  L  2779.04,   171.76  L  2524.08,   171.76  L  2524.08,   343.71  " /></a><a ewd:figtype="w2w" style="cursor:pointer;" ewd:pinNo="8" ewd:code="CA2" ewd:figID="45"><path style="&st2;" d=" M    42.49,   459.58  L    25.50,   459.58  L    25.50,   468.07  L    42.49,   468.07  L    42.49,   459.58 " /><text style="&st8;" transform="matrix(&st16;  28.39  465.94 )"><tspan x="0" style="&st18;" y="0">CA2</tspan></text></a><a ewd:figtype="w2w" style="cursor:pointer;" ewd:pinNo="42" ewd:code="AI3" ewd:figID="46"><path style="&st2;" d=" M    42.49,   341.73  L    25.50,   341.73  L    25.50,   350.23  L    42.49,   350.23  L    42.49,   341.73 " /><text style="&st8;" transform="matrix(&st16;  29.63  348.1 )"><tspan x="0" style="&st18;" y="0">AI3</tspan></text></a><a ewd:figtype="w2w" style="cursor:pointer;" ewd:pinNo="8" ewd:code="IC1" ewd:figID="47"><path style="&st2;" d=" M   144.48,   273.74  L   127.48,   273.74  L   127.48,   282.24  L   144.48,   282.24  L   144.48,   273.74 " /><text style="&st8;" transform="matrix(&st16;  131.5  280.11 )"><tspan x="0" style="&st18;" y="0">IC1</tspan></text></a><a ewd:figtype="w2w" style="cursor:pointer;" ewd:pinNo="2" ewd:code="AC3" ewd:figID="48"><path style="&st2;" d=" M   212.46,   460.71  L   195.47,   460.71  L   195.47,   469.21  L   212.46,   469.21  L   212.46,   460.71 " /><text style="&st8;" transform="matrix(&st16;  198.36  467.08 )"><tspan x="0" style="&st18;" y="0">AC3</tspan></text></a><a ewd:figtype="w2w" style="cursor:pointer;" ewd:pinNo="5" ewd:code="AC7" ewd:figID="49"><path style="&st2;" d=" M   212.46,   452.21  L   195.47,   452.21  L   195.47,   460.71  L   212.46,   460.71  L   212.46,   452.21 " /><text style="&st8;" transform="matrix(&st16;  198.36  458.58 )"><tspan x="0" style="&st18;" y="0">AC7</tspan></text></a><a ewd:figtype="w2w" style="cursor:pointer;" ewd:pinNo="5" ewd:code="AI3" ewd:figID="50"><path style="&st2;" d=" M   212.46,   324.73  L   195.47,   324.73  L   195.47,   333.23  L   212.46,   333.23  L   212.46,   324.73 " /><text style="&st8;" transform="matrix(&st16;  199.6  331.1 )"><tspan x="0" style="&st18;" y="0">AI3</tspan></text></a><a ewd:figtype="w2w" style="cursor:pointer;" ewd:pinNo="12" ewd:code="AI2" ewd:figID="51"><path style="&st2;" d=" M   365.44,   222.75  L   348.44,   222.75  L   348.44,   231.25  L   365.44,   231.25  L   365.44,   222.75 " /><text style="&st8;" transform="matrix(&st16;  352.58  229.12 )"><tspan x="0" style="&st18;" y="0">AI2</tspan></text></a><a ewd:figtype="w2w" style="cursor:pointer;" ewd:pinNo="7" ewd:code="CA2" ewd:figID="52"><path style="&st2;" d=" M   365.44,   154.76  L   348.44,   154.76  L   348.44,   163.26  L   365.44,   163.26  L   365.44,   154.76 " /><text style="&st8;" transform="matrix(&st16;  351.33  161.13 )"><tspan x="0" style="&st18;" y="0">CA2</tspan></text></a><a ewd:figtype="w2w" style="cursor:pointer;" ewd:pinNo="11" ewd:code="ST2" ewd:figID="53"><path style="&st2;" d=" M   416.43,   384.22  L   399.43,   384.22  L   399.43,   392.72  L   416.43,   392.72  L   416.43,   384.22 " /><text style="&st8;" transform="matrix(&st16;  403.04  390.59 )"><tspan x="0" style="&st18;" y="0">ST2</tspan></text></a><a ewd:figtype="w2w" style="cursor:pointer;" ewd:pinNo="1" ewd:code="IS1" ewd:figID="54"><path style="&st2;" d=" M   416.43,   316.23  L   399.43,   316.23  L   399.43,   324.73  L   416.43,   324.73  L   416.43,   316.23 " /><text style="&st8;" transform="matrix(&st16;  404.06  322.6 )"><tspan x="0" style="&st18;" y="0">IS1</tspan></text></a><a ewd:figtype="w2w" style="cursor:pointer;" ewd:pinNo="7" ewd:code="IC1" ewd:figID="55"><path style="&st2;" d=" M   416.43,   222.75  L   399.43,   222.75  L   399.43,   231.25  L   416.43,   231.25  L   416.43,   222.75 " /><text style="&st8;" transform="matrix(&st16;  403.45  229.12 )"><tspan x="0" style="&st18;" y="0">IC1</tspan></text></a><a ewd:figtype="w2w" style="cursor:pointer;" ewd:pinNo="9" ewd:code="TS2" ewd:figID="56"><path style="&st2;" d=" M   467.42,   384.22  L   450.42,   384.22  L   450.42,   392.72  L   467.42,   392.72  L   467.42,   384.22 " /><text style="&st8;" transform="matrix(&st16;  454.03  390.59 )"><tspan x="0" style="&st18;" y="0">TS2</tspan></text></a><a ewd:figtype="w2w" style="cursor:pointer;" ewd:pinNo="2" ewd:code="AI2" ewd:figID="57"><path style="&st2;" d=" M   467.42,   231.25  L   450.42,   231.25  L   450.42,   239.75  L   467.42,   239.75  L   467.42,   231.25 " /><text style="&st8;" transform="matrix(&st16;  454.56  237.62 )"><tspan x="0" style="&st18;" y="0">AI2</tspan></text></a><a ewd:figtype="w2w" style="cursor:pointer;" ewd:pinNo="2" ewd:code="AI6" ewd:figID="58"><path style="&st2;" d=" M   467.42,   222.75  L   450.42,   222.75  L   450.42,   231.25  L   467.42,   231.25  L   467.42,   222.75 " /><text style="&st8;" transform="matrix(&st16;  454.56  229.12 )"><tspan x="0" style="&st18;" y="0">AI6</tspan></text></a><a ewd:figtype="w2w" style="cursor:pointer;" ewd:pinNo="1" ewd:code="AC3" ewd:figID="59"><path style="&st2;" d=" M   467.42,   154.76  L   450.42,   154.76  L   450.42,   163.26  L   467.42,   163.26  L   467.42,   154.76 " /><text style="&st8;" transform="matrix(&st16;  453.32  161.13 )"><tspan x="0" style="&st18;" y="0">AC3</tspan></text></a><a ewd:figtype="w2w" style="cursor:pointer;" ewd:pinNo="7" ewd:code="AC8" ewd:figID="60"><path style="&st2;" d=" M   467.42,   146.26  L   450.42,   146.26  L   450.42,   154.76  L   467.42,   154.76  L   467.42,   146.26 " /><text style="&st8;" transform="matrix(&st16;  453.32  152.63 )"><tspan x="0" style="&st18;" y="0">AC8</tspan></text></a><a ewd:figtype="w2w" style="cursor:pointer;" ewd:pinNo="1" ewd:code="AI1" ewd:figID="61"><path style="&st2;" d=" M   560.91,   171.76  L   543.91,   171.76  L   543.91,   180.26  L   560.91,   180.26  L   560.91,   171.76 " /><text style="&st8;" transform="matrix(&st16;  548.04  178.13 )"><tspan x="0" style="&st18;" y="0">AI1</tspan></text></a><a ewd:figtype="w2w" style="cursor:pointer;" ewd:pinNo="4" ewd:code="ST2" ewd:figID="62"><path style="&st2;" d=" M   679.89,   486.20  L   662.89,   486.20  L   662.89,   494.70  L   679.89,   494.70  L   679.89,   486.20 " /><text style="&st8;" transform="matrix(&st16;  666.5  492.57 )"><tspan x="0" style="&st18;" y="0">ST2</tspan></text></a><a ewd:figtype="w2w" style="cursor:pointer;" ewd:pinNo="3" ewd:code="IS1" ewd:figID="63"><path style="&st2;" d=" M   679.89,   401.22  L   662.89,   401.22  L   662.89,   409.72  L   679.89,   409.72  L   679.89,   401.22 " /><text style="&st8;" transform="matrix(&st16;  667.51  407.59 )"><tspan x="0" style="&st18;" y="0">IS1</tspan></text></a><a ewd:figtype="w2w" style="cursor:pointer;" ewd:pinNo="2" ewd:code="TS2" ewd:figID="64"><path style="&st2;" d=" M   739.38,   486.20  L   722.38,   486.20  L   722.38,   494.70  L   739.38,   494.70  L   739.38,   486.20 " /><text style="&st8;" transform="matrix(&st16;  725.99  492.57 )"><tspan x="0" style="&st18;" y="0">TS2</tspan></text></a><a ewd:figtype="w2w" style="cursor:pointer;" ewd:pinNo="7" ewd:code="TS2" ewd:figID="65"><path style="&st2;" d=" M   798.87,   435.21  L   781.87,   435.21  L   781.87,   443.71  L   798.87,   443.71  L   798.87,   435.21 " /><text style="&st8;" transform="matrix(&st16;  785.48  441.58 )"><tspan x="0" style="&st18;" y="0">TS2</tspan></text></a><a ewd:figtype="w2w" style="cursor:pointer;" ewd:pinNo="9" ewd:code="IS1" ewd:figID="66"><path style="&st2;" d=" M   798.87,   358.73  L   781.87,   358.73  L   781.87,   367.22  L   798.87,   367.22  L   798.87,   358.73 " /><text style="&st8;" transform="matrix(&st16;  786.49  365.09 )"><tspan x="0" style="&st18;" y="0">IS1</tspan></text></a><a ewd:figtype="w2w" style="cursor:pointer;" ewd:pinNo="12" ewd:code="TS2" ewd:figID="67"><path style="&st2;" d=" M   900.85,   248.24  L   883.85,   248.24  L   883.85,   256.74  L   900.85,   256.74  L   900.85,   248.24 " /><text style="&st8;" transform="matrix(&st16;  887.46  254.61 )"><tspan x="0" style="&st18;" y="0">TS2</tspan></text></a><a ewd:figtype="w2w" style="cursor:pointer;" ewd:pinNo="23" ewd:code="IS1" ewd:figID="68"><path style="&st2;" d=" M   900.85,   171.76  L   883.85,   171.76  L   883.85,   180.26  L   900.85,   180.26  L   900.85,   171.76 " /><text style="&st8;" transform="matrix(&st16;  888.48  178.13 )"><tspan x="0" style="&st18;" y="0">IS1</tspan></text></a><a ewd:figtype="w2w" style="cursor:pointer;" ewd:pinNo="8" ewd:code="ST2" ewd:figID="69"><path style="&st2;" d=" M   951.84,   248.24  L   934.84,   248.24  L   934.84,   256.74  L   951.84,   256.74  L   951.84,   248.24 " /><text style="&st8;" transform="matrix(&st16;  938.45  254.61 )"><tspan x="0" style="&st18;" y="0">ST2</tspan></text></a><a ewd:figtype="w2w" style="cursor:pointer;" ewd:pinNo="11" ewd:code="TS2" ewd:figID="70"><path style="&st2;" d=" M  1215.30,   248.24  L  1198.30,   248.24  L  1198.30,   256.74  L  1215.30,   256.74  L  1215.30,   248.24 " /><text style="&st8;" transform="matrix(&st16;  1201.91  254.61 )"><tspan x="0" style="&st18;" y="0">TS2</tspan></text></a><a ewd:figtype="w2w" style="cursor:pointer;" ewd:pinNo="4" ewd:code="IS1" ewd:figID="71"><path style="&st2;" d=" M  1215.30,   171.76  L  1198.30,   171.76  L  1198.30,   180.26  L  1215.30,   180.26  L  1215.30,   171.76 " /><text style="&st8;" transform="matrix(&st16;  1202.92  178.13 )"><tspan x="0" style="&st18;" y="0">IS1</tspan></text></a><a ewd:figtype="w2w" style="cursor:pointer;" ewd:pinNo="3" ewd:code="ST2" ewd:figID="72"><path style="&st2;" d=" M  1266.29,   248.24  L  1249.29,   248.24  L  1249.29,   256.74  L  1266.29,   256.74  L  1266.29,   248.24 " /><text style="&st8;" transform="matrix(&st16;  1252.9  254.61 )"><tspan x="0" style="&st18;" y="0">ST2</tspan></text></a><a ewd:figtype="w2w" style="cursor:pointer;" ewd:pinNo="6" ewd:code="ST2" ewd:figID="73"><path style="&st2;" d=" M  1385.27,   435.21  L  1368.27,   435.21  L  1368.27,   443.71  L  1385.27,   443.71  L  1385.27,   435.21 " /><text style="&st8;" transform="matrix(&st16;  1371.88  441.58 )"><tspan x="0" style="&st18;" y="0">ST2</tspan></text></a><a ewd:figtype="w2w" style="cursor:pointer;" ewd:pinNo="19" ewd:code="IS1" ewd:figID="74"><path style="&st2;" d=" M  1385.27,   324.73  L  1368.27,   324.73  L  1368.27,   333.23  L  1385.27,   333.23  L  1385.27,   324.73 " /><text style="&st8;" transform="matrix(&st16;  1372.89  331.1 )"><tspan x="0" style="&st18;" y="0">IS1</tspan></text></a><a ewd:figtype="w2w" style="cursor:pointer;" ewd:pinNo="5" ewd:code="TS2" ewd:figID="75"><path style="&st2;" d=" M  1427.76,   435.21  L  1410.76,   435.21  L  1410.76,   443.71  L  1427.76,   443.71  L  1427.76,   435.21 " /><text style="&st8;" transform="matrix(&st16;  1414.37  441.58 )"><tspan x="0" style="&st18;" y="0">TS2</tspan></text></a><a ewd:figtype="w2w" style="cursor:pointer;" ewd:pinNo="10" ewd:code="ST2" ewd:figID="76"><path style="&st2;" d=" M  1487.25,   435.21  L  1470.25,   435.21  L  1470.25,   443.71  L  1487.25,   443.71  L  1487.25,   435.21 " /><text style="&st8;" transform="matrix(&st16;  1473.86  441.58 )"><tspan x="0" style="&st18;" y="0">ST2</tspan></text></a><a ewd:figtype="w2w" style="cursor:pointer;" ewd:pinNo="20" ewd:code="IS1" ewd:figID="77"><path style="&st2;" d=" M  1487.25,   324.73  L  1470.25,   324.73  L  1470.25,   333.23  L  1487.25,   333.23  L  1487.25,   324.73 " /><text style="&st8;" transform="matrix(&st16;  1474.88  331.1 )"><tspan x="0" style="&st18;" y="0">IS1</tspan></text></a><a ewd:figtype="w2w" style="cursor:pointer;" ewd:pinNo="4" ewd:code="TS2" ewd:figID="78"><path style="&st2;" d=" M  1529.74,   435.21  L  1512.75,   435.21  L  1512.75,   443.71  L  1529.74,   443.71  L  1529.74,   435.21 " /><text style="&st8;" transform="matrix(&st16;  1516.35  441.58 )"><tspan x="0" style="&st18;" y="0">TS2</tspan></text></a><a ewd:figtype="w2w" style="cursor:pointer;" ewd:pinNo="5" ewd:code="LM1" ewd:figID="79"><path style="&st2;" d=" M  1631.73,   401.22  L  1614.73,   401.22  L  1614.73,   409.72  L  1631.73,   409.72  L  1631.73,   401.22 " /><text style="&st8;" transform="matrix(&st16;  1617.55  407.59 )"><tspan x="0" style="&st18;" y="0">LM1</tspan></text></a><a ewd:figtype="w2w" style="cursor:pointer;" ewd:pinNo="37" ewd:code="IL1" ewd:figID="80"><path style="&st2;" d=" M  1631.73,   197.25  L  1614.73,   197.25  L  1614.73,   205.75  L  1631.73,   205.75  L  1631.73,   197.25 " /><text style="&st8;" transform="matrix(&st16;  1619.09  203.62 )"><tspan x="0" style="&st18;" y="0">IL1</tspan></text></a><a ewd:figtype="w2w" style="cursor:pointer;" ewd:pinNo="6" ewd:code="LM1" ewd:figID="81"><path style="&st2;" d=" M  1682.72,   613.68  L  1665.72,   613.68  L  1665.72,   622.18  L  1682.72,   622.18  L  1682.72,   613.68 " /><text style="&st8;" transform="matrix(&st16;  1668.54  620.05 )"><tspan x="0" style="&st18;" y="0">LM1</tspan></text></a><a ewd:figtype="w2w" style="cursor:pointer;" ewd:pinNo="46" ewd:code="IL1" ewd:figID="82"><path style="&st2;" d=" M  1801.70,   265.24  L  1784.70,   265.24  L  1784.70,   273.74  L  1801.70,   273.74  L  1801.70,   265.24 " /><text style="&st8;" transform="matrix(&st16;  1789.06  271.61 )"><tspan x="0" style="&st18;" y="0">IL1</tspan></text></a><a ewd:figtype="w2w" style="cursor:pointer;" ewd:pinNo="24" ewd:code="IL1" ewd:figID="83"><path style="&st2;" d=" M  1869.69,   265.24  L  1852.69,   265.24  L  1852.69,   273.74  L  1869.69,   273.74  L  1869.69,   265.24 " /><text style="&st8;" transform="matrix(&st16;  1857.05  271.61 )"><tspan x="0" style="&st18;" y="0">IL1</tspan></text></a><a ewd:figtype="w2w" style="cursor:pointer;" ewd:pinNo="24" ewd:code="IL1" ewd:figID="84"><path style="&st2;" d=" M  1954.67,   367.22  L  1937.68,   367.22  L  1937.68,   375.72  L  1954.67,   375.72  L  1954.67,   367.22 " /><text style="&st8;" transform="matrix(&st16;  1942.04  373.59 )"><tspan x="0" style="&st18;" y="0">IL1</tspan></text></a><a ewd:figtype="w2w" style="cursor:pointer;" ewd:pinNo="46" ewd:code="IL1" ewd:figID="85"><path style="&st2;" d=" M  1997.17,   367.22  L  1980.17,   367.22  L  1980.17,   375.72  L  1997.17,   375.72  L  1997.17,   367.22 " /><text style="&st8;" transform="matrix(&st16;  1984.53  373.59 )"><tspan x="0" style="&st18;" y="0">IL1</tspan></text></a><a ewd:figtype="w2w" style="cursor:pointer;" ewd:pinNo="21" ewd:code="IL2" ewd:figID="86"><path style="&st2;" d=" M  2498.58,   350.23  L  2481.59,   350.23  L  2481.59,   358.73  L  2498.58,   358.73  L  2498.58,   350.23 " /><text style="&st8;" transform="matrix(&st16;  2485.95  356.6 )"><tspan x="0" style="&st18;" y="0">IL2</tspan></text></a><a ewd:figtype="w2w" style="cursor:pointer;" ewd:pinNo="22" ewd:code="IL2" ewd:figID="87"><path style="&st2;" d=" M  2532.58,   350.23  L  2515.58,   350.23  L  2515.58,   358.73  L  2532.58,   358.73  L  2532.58,   350.23 " /><text style="&st8;" transform="matrix(&st16;  2519.94  356.6 )"><tspan x="0" style="&st18;" y="0">IL2</tspan></text></a><a ewd:figtype="gp" style="cursor:pointer;" ewd:code="TA" ewd:figID="88"><path style="&st2;" d=" M  1060.20,   681.67  L  1081.44,   681.67  L  1070.82,   697.25  L  1060.20,   681.67 " /><text style="&st8;" transform="matrix(&st16;  1066.95  689.46 )"><tspan x="0" style="&st18;" y="0">TA</tspan></text></a><a ewd:figtype="gp" style="cursor:pointer;" ewd:code="TB" ewd:figID="89"><path style="&st2;" d=" M  1102.69,   681.67  L  1123.94,   681.67  L  1113.31,   697.25  L  1102.69,   681.67 " /><text style="&st8;" transform="matrix(&st16;  1109.55  689.46 )"><tspan x="0" style="&st18;" y="0">TB</tspan></text></a><a ewd:figtype="gp" style="cursor:pointer;" ewd:code="TC" ewd:figID="90"><path style="&st2;" d=" M  1145.18,   681.67  L  1166.43,   681.67  L  1155.81,   697.25  L  1145.18,   681.67 " /><text style="&st8;" transform="matrix(&st16;  1151.82  689.46 )"><tspan x="0" style="&st18;" y="0">TC</tspan></text></a><a ewd:figtype="gp" style="cursor:pointer;" ewd:code="LB" ewd:figID="91"><path style="&st2;" d=" M  1612.61,   681.67  L  1633.85,   681.67  L  1623.23,   697.25  L  1612.61,   681.67 " /><text style="&st8;" transform="matrix(&st16;  1619.58  689.46 )"><tspan x="0" style="&st18;" y="0">LB</tspan></text></a><a ewd:figtype="gp" style="cursor:pointer;" ewd:code="LB" ewd:figID="92"><path style="&st2;" d=" M  1774.08,   681.67  L  1795.33,   681.67  L  1784.70,   697.25  L  1774.08,   681.67 " /><text style="&st8;" transform="matrix(&st16;  1781.05  689.46 )"><tspan x="0" style="&st18;" y="0">LB</tspan></text></a><a ewd:figtype="gp" style="cursor:pointer;" ewd:code="LA" ewd:figID="93"><path style="&st2;" d=" M  1816.57,   681.67  L  1837.82,   681.67  L  1827.19,   697.25  L  1816.57,   681.67 " /><text style="&st8;" transform="matrix(&st16;  1823.43  689.46 )"><tspan x="0" style="&st18;" y="0">LA</tspan></text></a><a ewd:figtype="gp" style="cursor:pointer;" ewd:code="LB" ewd:figID="94"><path style="&st2;" d=" M  1935.55,   681.67  L  1956.80,   681.67  L  1946.17,   697.25  L  1935.55,   681.67 " /><text style="&st8;" transform="matrix(&st16;  1942.53  689.46 )"><tspan x="0" style="&st18;" y="0">LB</tspan></text></a><a ewd:figtype="gp" style="cursor:pointer;" ewd:code="IC" ewd:figID="95"><path style="&st2;" d=" M  2165.01,   681.67  L  2186.26,   681.67  L  2175.64,   697.25  L  2165.01,   681.67 " /><text style="&st8;" transform="matrix(&st16;  2172.66  689.46 )"><tspan x="0" style="&st18;" y="0">IC</tspan></text></a><a ewd:figtype="gp" style="cursor:pointer;" ewd:code="LB" ewd:figID="96"><path style="&st2;" d=" M  2683.43,   681.67  L  2704.67,   681.67  L  2694.05,   697.25  L  2683.43,   681.67 " /><text style="&st8;" transform="matrix(&st16;  2690.4  689.46 )"><tspan x="0" style="&st18;" y="0">LB</tspan></text></a><a ewd:figtype="gp" style="cursor:pointer;" ewd:code="LA" ewd:figID="97"><path style="&st2;" d=" M  2734.42,   681.67  L  2755.66,   681.67  L  2745.04,   697.25  L  2734.42,   681.67 " /><text style="&st8;" transform="matrix(&st16;  2741.28  689.46 )"><tspan x="0" style="&st18;" y="0">LA</tspan></text></a><a ewd:figtype="sp" style="cursor:pointer;" ewd:code="SP41" ewd:figID="98"><path style="&st2;" d=" M   106.23,   656.18  L   114.73,   656.18  L   118.98,   660.42  L   118.98,   668.92  L   114.73,   673.17  L   106.23,   673.17  L   101.98,   668.92  L   101.98,   660.42  L   106.23,   656.18 " /></a><a ewd:figtype="sp" style="cursor:pointer;" ewd:code="SP69" ewd:figID="99"><path style="&st2;" d=" M   131.73,   205.75  L   140.23,   205.75  L   144.48,   210.00  L   144.48,   218.50  L   140.23,   222.75  L   131.73,   222.75  L   127.48,   218.50  L   127.48,   210.00  L   131.73,   205.75 " /></a><a ewd:figtype="sp" style="cursor:pointer;" ewd:code="SP7" ewd:figID="100"><path style="&st2;" d=" M   199.72,   384.22  L   208.22,   384.22  L   212.46,   388.47  L   212.46,   396.97  L   208.22,   401.22  L   199.72,   401.22  L   195.47,   396.97  L   195.47,   388.47  L   199.72,   384.22 " /></a><a ewd:figtype="sp" style="cursor:pointer;" ewd:code="SP109" ewd:figID="101"><path style="&st2;" d=" M   403.68,   452.21  L   412.18,   452.21  L   416.43,   456.46  L   416.43,   464.96  L   412.18,   469.21  L   403.68,   469.21  L   399.43,   464.96  L   399.43,   456.46  L   403.68,   452.21 " /></a><a ewd:figtype="sp" style="cursor:pointer;" ewd:code="SP109" ewd:figID="102"><path style="&st2;" d=" M   454.67,   452.21  L   463.17,   452.21  L   467.42,   456.46  L   467.42,   464.96  L   463.17,   469.21  L   454.67,   469.21  L   450.42,   464.96  L   450.42,   456.46  L   454.67,   452.21 " /></a><a ewd:figtype="sp" style="cursor:pointer;" ewd:code="SP71" ewd:figID="103"><path style="&st2;" d=" M   548.16,   239.75  L   556.66,   239.75  L   560.91,   243.99  L   560.91,   252.49  L   556.66,   256.74  L   548.16,   256.74  L   543.91,   252.49  L   543.91,   243.99  L   548.16,   239.75 " /></a><a ewd:figtype="sp" style="cursor:pointer;" ewd:code="SP45" ewd:figID="104"><path style="&st2;" d=" M   667.14,   299.24  L   675.64,   299.24  L   679.89,   303.48  L   679.89,   311.98  L   675.64,   316.23  L   667.14,   316.23  L   662.89,   311.98  L   662.89,   303.48  L   667.14,   299.24 " /></a><a ewd:figtype="sp" style="cursor:pointer;" ewd:code="SP110" ewd:figID="105"><path style="&st2;" d=" M   726.63,   545.69  L   735.13,   545.69  L   739.38,   549.94  L   739.38,   558.44  L   735.13,   562.69  L   726.63,   562.69  L   722.38,   558.44  L   722.38,   549.94  L   726.63,   545.69 " /></a><a ewd:figtype="sp" style="cursor:pointer;" ewd:code="SP113" ewd:figID="106"><path style="&st2;" d=" M   786.12,   477.71  L   794.62,   477.71  L   798.87,   481.95  L   798.87,   490.45  L   794.62,   494.70  L   786.12,   494.70  L   781.87,   490.45  L   781.87,   481.95  L   786.12,   477.71 " /></a><a ewd:figtype="sp" style="cursor:pointer;" ewd:code="SP58" ewd:figID="107"><path style="&st2;" d=" M   786.12,   299.24  L   794.62,   299.24  L   798.87,   303.48  L   798.87,   311.98  L   794.62,   316.23  L   786.12,   316.23  L   781.87,   311.98  L   781.87,   303.48  L   786.12,   299.24 " /></a><a ewd:figtype="sp" style="cursor:pointer;" ewd:code="SP106" ewd:figID="108"><path style="&st2;" d=" M  1109.06,   503.20  L  1117.56,   503.20  L  1121.81,   507.45  L  1121.81,   515.95  L  1117.56,   520.20  L  1109.06,   520.20  L  1104.82,   515.95  L  1104.82,   507.45  L  1109.06,   503.20 " /></a><a ewd:figtype="sp" style="cursor:pointer;" ewd:code="SP112" ewd:figID="109"><path style="&st2;" d=" M  1372.52,   503.20  L  1381.02,   503.20  L  1385.27,   507.45  L  1385.27,   515.95  L  1381.02,   520.20  L  1372.52,   520.20  L  1368.27,   515.95  L  1368.27,   507.45  L  1372.52,   503.20 " /></a><a ewd:figtype="sp" style="cursor:pointer;" ewd:code="SP53" ewd:figID="110"><path style="&st2;" d=" M  1372.52,   256.74  L  1381.02,   256.74  L  1385.27,   260.99  L  1385.27,   269.49  L  1381.02,   273.74  L  1372.52,   273.74  L  1368.27,   269.49  L  1368.27,   260.99  L  1372.52,   256.74 " /></a><a ewd:figtype="sp" style="cursor:pointer;" ewd:code="SP112" ewd:figID="111"><path style="&st2;" d=" M  1415.01,   503.20  L  1423.51,   503.20  L  1427.76,   507.45  L  1427.76,   515.95  L  1423.51,   520.20  L  1415.01,   520.20  L  1410.76,   515.95  L  1410.76,   507.45  L  1415.01,   503.20 " /></a><a ewd:figtype="sp" style="cursor:pointer;" ewd:code="SP111" ewd:figID="112"><path style="&st2;" d=" M  1474.50,   545.69  L  1483.00,   545.69  L  1487.25,   549.94  L  1487.25,   558.44  L  1483.00,   562.69  L  1474.50,   562.69  L  1470.25,   558.44  L  1470.25,   549.94  L  1474.50,   545.69 " /></a><a ewd:figtype="sp" style="cursor:pointer;" ewd:code="SP48" ewd:figID="113"><path style="&st2;" d=" M  1474.50,   256.74  L  1483.00,   256.74  L  1487.25,   260.99  L  1487.25,   269.49  L  1483.00,   273.74  L  1474.50,   273.74  L  1470.25,   269.49  L  1470.25,   260.99  L  1474.50,   256.74 " /></a><a ewd:figtype="sp" style="cursor:pointer;" ewd:code="SP111" ewd:figID="114"><path style="&st2;" d=" M  1517.00,   545.69  L  1525.50,   545.69  L  1529.74,   549.94  L  1529.74,   558.44  L  1525.50,   562.69  L  1517.00,   562.69  L  1512.75,   558.44  L  1512.75,   549.94  L  1517.00,   545.69 " /></a><a ewd:figtype="sp" style="cursor:pointer;" ewd:code="SP82" ewd:figID="115"><path style="&st2;" d=" M  1822.95,   537.20  L  1831.44,   537.20  L  1835.69,   541.44  L  1835.69,   549.94  L  1831.44,   554.19  L  1822.95,   554.19  L  1818.70,   549.94  L  1818.70,   541.44  L  1822.95,   537.20 " /></a><a ewd:figtype="sp" style="cursor:pointer;" ewd:code="SP63" ewd:figID="116"><path style="&st2;" d=" M  1941.93,   222.75  L  1950.42,   222.75  L  1954.67,   227.00  L  1954.67,   235.50  L  1950.42,   239.75  L  1941.93,   239.75  L  1937.68,   235.50  L  1937.68,   227.00  L  1941.93,   222.75 " /></a><a ewd:figtype="sp" style="cursor:pointer;" ewd:code="SP62" ewd:figID="117"><path style="&st2;" d=" M  1984.42,   248.24  L  1992.92,   248.24  L  1997.17,   252.49  L  1997.17,   260.99  L  1992.92,   265.24  L  1984.42,   265.24  L  1980.17,   260.99  L  1980.17,   252.49  L  1984.42,   248.24 " /></a><a ewd:figtype="sp" style="cursor:pointer;" ewd:code="SP66" ewd:figID="118"><path style="&st2;" d=" M  2171.39,   528.70  L  2179.89,   528.70  L  2184.14,   532.95  L  2184.14,   541.44  L  2179.89,   545.69  L  2171.39,   545.69  L  2167.14,   541.44  L  2167.14,   532.95  L  2171.39,   528.70 " /></a><a ewd:figtype="sp" style="cursor:pointer;" ewd:code="SP82" ewd:figID="119"><path style="&st2;" d=" M  2740.79,   486.20  L  2749.29,   486.20  L  2753.54,   490.45  L  2753.54,   498.95  L  2749.29,   503.20  L  2740.79,   503.20  L  2736.54,   498.95  L  2736.54,   490.45  L  2740.79,   486.20 " /></a></g></svg>