<?xml version="1.0" encoding="utf-8"?>
<!DOCTYPE svg PUBLIC "-//W3C//DTD SVG 1.0//EN" "http://www.w3.org/TR/2001/REC-SVG-20010904/DTD/svg10.dtd"[
	<!ENTITY ns_flows "http://ns.adobe.com/Flows/1.0/">
	<!ENTITY ns_svg "http://www.w3.org/2000/svg">
	<!ENTITY ns_xlink "http://www.w3.org/1999/xlink">
	<!ENTITY st0 "font-size:7px;font-family:'MS-PGothic';adobe-font-script:japanese;">
	<!ENTITY st1 "font-size:6px;font-family:'ArialMT';">
	<!-- White fill  -->
	<!ENTITY st2 "fill:#FFFFFF;stroke:#000000; stroke-width:1.41;stroke-linecap:round;stroke-linejoin:round;">
	<!-- Yellow fill  -->
	<!ENTITY st3 "fill:#FFFFCC;stroke:#FFFFCC; stroke-width:0.1;stroke-linecap:round;stroke-linejoin:round;">
	<!-- Gray fill  -->
	<!ENTITY st4 "fill:#CCCCCC;stroke:#CCCCCC; stroke-width:0.1;stroke-linecap:round;stroke-linejoin:round;">
	<!-- Light-blue fill -->
	<!ENTITY st5 "fill:#CCECF4;stroke:#000000; stroke-width:1.133;stroke-linecap:round;stroke-linejoin:round;">
	<!ENTITY st6 "fill:none;stroke-linecap:butt; stroke-linejoin:round;">
	<!ENTITY st7 "fill:none;stroke:#000000;stroke-linecap:round;stroke-linejoin:round;">
	<!ENTITY st8 "enable-background:new    ;">
	<!-- Black fill -->
	<!ENTITY st9 "fill:#000000;stroke:#000000; stroke-linecap:round;stroke-linejoin:round;">
	<!-- SRS note   -->
	<!ENTITY st10 "font-size:9px;font-family:'ArialMT';">
	<!ENTITY st11 "font-size:9px;font-family:'Svg Symbol';">
	<!ENTITY st12 "font-size:6px;font-family:'Svg Symbol';">
	<!ENTITY st13 "fill:none;stroke:#ff0000;stroke-linecap:round;stroke-linejoin:round;">
	<!-- Yellow fill  -->
	<!ENTITY st14 "fill:#FFFF00;stroke:#FFFF00; stroke-width:0.1;stroke-linecap:round;stroke-linejoin:round;">
	<!ENTITY st15 "font-size:6px;font-family:'MS-PGothic';adobe-font-script:japanese;">
	<!ENTITY st16 "1.00 0.00 0.00 1.00">
	<!ENTITY st17 "0.00 -1.00 1.00 0.00">
	<!ENTITY st18 "font-size:6px;font-family:'Arial';">
	<!ENTITY st19 "font-size:9px;font-family:'Arial';">
	<!ENTITY st20 "font-size:6px;font-family:'MS-PGothic','MS PGothic';adobe-font-script:japanese;">
	<!ENTITY st21 "font-size:7px;font-family:'MS-PGothic','MS PGothic';adobe-font-script:japanese;">
	<!ATTLIST svg
		xmlns:ewd CDATA #FIXED "http://shcl.co.jp/ewd"
		xmlns:a CDATA #FIXED "http://ns.adobe.com/AdobeSVGViewerExtensions/3.0/"
		ewd:ver CDATA #IMPLIED
	>
	<!ATTLIST a
		ewd:lineID CDATA #IMPLIED
		ewd:groupID CDATA #IMPLIED
		ewd:figtype CDATA #IMPLIED
		ewd:code CDATA #IMPLIED
		ewd:figID CDATA #IMPLIED
		ewd:pinNo CDATA #IMPLIED
		ewd:comment CDATA #IMPLIED >
	<!ATTLIST g
		ewd:lineID CDATA #IMPLIED
		ewd:groupID CDATA #IMPLIED
		ewd:figtype CDATA #IMPLIED
		ewd:code CDATA #IMPLIED
		ewd:figID CDATA #IMPLIED
		ewd:pinNo CDATA #IMPLIED
		ewd:comment CDATA #IMPLIED >
	<!ATTLIST text
		ewd:textID CDATA #IMPLIED >
	<!ATTLIST title
		ewd:textID CDATA #IMPLIED >
]>
<!-- Generator: Shintec Hozumi YS   -->
<svg onload="call_execInitLoadProc_svg('system')" style="overflow:visible;  enable-background:new 0 0 3599.688 710.000" viewBox="0 0 3599.688 710.000" height="710.000" width="3599.688" xml:space="preserve" ewd:ver="2.1.2.9" xmlns="&ns_svg;" xmlns:a="http://ns.adobe.com/AdobeSVGViewerExtensions/3.0/" xmlns:ewd="http://shcl.co.jp/ewd" xmlns:xlink="&ns_xlink;">
<path style="stroke-width:1.42 ;&st7;  " d=" M  1529.74,   550.67  L  1524.77,   545.69  " /><path style="stroke-width:1.42 ;&st7;  " d=" M  1512.75,   557.72  L  1517.72,   562.69  " /><path style="stroke-width:1.42 ;&st7;  " d=" M  1524.77,   562.69  L  1529.74,   557.72  " /><path style="stroke-width:1.42 ;&st7;  " d=" M  1517.72,   545.69  L  1512.75,   550.67  " /><path style="stroke-width:1.42 ;&st7;  " d=" M  1521.25,   435.21  L  1512.75,   435.21  " /><text style="&st18;" transform="matrix(&st17;  1528.88  482.42 )">(*2)</text><text style="&st18;" transform="matrix(&st17;  1517.55  402.42 )">G-B</text><text style="&st18;" transform="matrix(&st17;  1528.88  401.68 )">(*2)</text><text style="&st18;" transform="matrix(&st17;  1517.55  479.67 )">G</text><path style="stroke-width:1.42 ;&st7;  " d=" M  1840.66,   528.70  L  1835.69,   533.67  " /><path style="stroke-width:1.42 ;&st7;  " d=" M  1847.72,   545.69  L  1852.69,   540.73  " /><path style="stroke-width:1.42 ;&st7;  " d=" M  1835.69,   540.73  L  1840.66,   545.69  " /><path style="stroke-width:1.42 ;&st7;  " d=" M  1852.69,   533.67  L  1847.72,   528.70  " /><path style="stroke-width:1.42 ;&st7;  " d=" M  1747.18,   248.24  L  1742.21,   253.22  " /><path style="stroke-width:1.42 ;&st7;  " d=" M  1754.23,   265.24  L  1759.21,   260.27  " /><path style="stroke-width:1.42 ;&st7;  " d=" M  1742.21,   260.27  L  1747.18,   265.24  " /><path style="stroke-width:1.42 ;&st7;  " d=" M  1759.21,   253.22  L  1754.23,   248.24  " /><path style="stroke-width:1.42 ;&st7;  " d=" M  1704.69,   222.75  L  1699.72,   227.72  " /><path style="stroke-width:1.42 ;&st7;  " d=" M  1711.74,   239.75  L  1716.71,   234.78  " /><path style="stroke-width:1.42 ;&st7;  " d=" M  1699.72,   234.78  L  1704.68,   239.75  " /><path style="stroke-width:1.42 ;&st7;  " d=" M  1716.71,   227.72  L  1711.74,   222.75  " /><path style="stroke-width:1.42 ;&st7;  " d=" M  1742.21,   367.22  L  1750.71,   367.22  " /><text style="&st18;" transform="matrix(&st17;  1840.5  594.14 )">W-B</text><text style="&st18;" transform="matrix(&st17;  1993.47  283.81 )">L</text><text style="&st18;" transform="matrix(&st17;  1993.47  415.55 )">L-W</text><text style="&st18;" transform="matrix(&st17;  1993.47  500.54 )">L-W</text><text style="&st18;" transform="matrix(&st17;  1925.48  500.66 )">W-B</text><text style="&st18;" transform="matrix(&st17;  1899.99  500.54 )">L-W</text><text style="&st18;" transform="matrix(&st17;  1840.5  500.66 )">W-B</text><text style="&st18;" transform="matrix(&st17;  1815.0  496.39 )">B</text><text style="&st18;" transform="matrix(&st17;  1925.48  288.08 )">L-W</text><text style="&st18;" transform="matrix(&st17;  1899.99  283.81 )">L</text><text style="&st18;" transform="matrix(&st17;  1840.5  283.93 )">B</text><text style="&st18;" transform="matrix(&st17;  1815.0  283.81 )">L</text><text style="&st18;" transform="matrix(&st17;  1662.03  207.44 )">B</text><text style="&st18;" transform="matrix(&st17;  1704.52  211.59 )">L-W</text><text style="&st18;" transform="matrix(&st17;  1747.01  334.92 )">B</text><text style="&st18;" transform="matrix(&st17;  1747.01  402.91 )">B</text><text style="&st18;" transform="matrix(&st17;  1704.52  339.07 )">L-W</text><text style="&st18;" transform="matrix(&st17;  1704.52  407.06 )">L-W</text><text style="&st18;" transform="matrix(&st17;  1704.52  585.64 )">W-B</text><text style="&st18;" transform="matrix(&st17;  1815.0  130.84 )">L</text><path style="stroke-width:1.42 ;&st7;  " d=" M  1699.72,   367.22  L  1708.21,   367.22  " /><text style="&st18;" transform="matrix(&st16;  1619.82  42.26 )">I29(B)</text><text style="&st18;" transform="matrix(&st16;  1619.82  49.08 )" ewd:textID="38">Turn Signal Flasher Assembly</text><text style="&st18;" transform="matrix(&st17;  1673.36  210.46 )">(*9)</text><text style="&st18;" transform="matrix(&st17;  1715.85  210.46 )">(*9)</text><text style="&st18;" transform="matrix(&st17;  1715.85  337.94 )">(*9)</text><text style="&st18;" transform="matrix(&st17;  1758.34  337.94 )">(*9)</text><text style="&st18;" transform="matrix(&st17;  1715.85  405.93 )">(*9)</text><text style="&st18;" transform="matrix(&st17;  1758.34  405.93 )">(*9)</text><text style="&st18;" transform="matrix(&st17;  1715.85  584.4 )">(*9)</text><text style="&st18;" transform="matrix(&st17;  1826.33  133.98 )">(*9)</text><text style="&st18;" transform="matrix(&st17;  1826.33  286.95 )">(*9)</text><text style="&st18;" transform="matrix(&st17;  1851.83  286.95 )">(*9)</text><text style="&st18;" transform="matrix(&st17;  1911.32  286.95 )">(*9)</text><text style="&st18;" transform="matrix(&st17;  1936.81  286.95 )">(*9)</text><text style="&st18;" transform="matrix(&st17;  1826.33  499.42 )">(*9)</text><text style="&st18;" transform="matrix(&st17;  1851.83  499.42 )">(*9)</text><text style="&st18;" transform="matrix(&st17;  1851.83  592.9 )">(*9)</text><text style="&st18;" transform="matrix(&st17;  1911.32  499.42 )">(*9)</text><text style="&st18;" transform="matrix(&st17;  1936.81  499.42 )">(*9)</text><text style="&st18;" transform="matrix(&st16;  1518.83  304.04 )">G-B(*8)</text><text style="&st18;" transform="matrix(&st16;  1569.82  304.04 )">G-B(*8)</text><text style="&st18;" transform="matrix(&st16;  1518.83  287.04 )">G-Y(*8)</text><text style="&st18;" transform="matrix(&st16;  1569.82  287.04 )">G-Y(*8)</text><g ewd:figtype="conn" ewd:figID="17" ewd:code="I108,I109"><path style="stroke-width:0.85 ;&st7;  " d=" M  1995.97,   451.21  L  1995.70,   451.68  L  1995.61,   452.21  L  1995.70,   452.74  L  1995.97,   453.21  L  1996.39,   453.56  L  1996.89,   453.75  L  1997.44,   453.75  L  1997.94,   453.56  L  1998.36,   453.21  L  1998.63,   452.74  L  1998.72,   452.21  L  1998.63,   451.68  L  1998.36,   451.21  L  1997.94,   450.86  L  1997.44,   450.67  L  1996.89,   450.67  L  1996.39,   450.86  L  1995.97,   451.21  L  1996.37,   451.92  L  1996.37,   452.50  L  1996.74,   452.95  L  1997.31,   453.05  L  1997.82,   452.76  L  1998.02,   452.21  L  1997.82,   451.66  L  1997.31,   451.37  L  1996.74,   451.47  L  1997.17,   452.21  " /><path style="stroke-width:0.85 ;&st7;  " d=" M  2031.16,   460.71  L  2031.16,   452.21  L  1997.17,   452.21  " /><path style="stroke-width:0.85 ;&st7;  " d=" M  1997.17,   443.71  L  1997.17,   460.71  " /><path style="stroke-width:1.42 ;&st7;  " d=" M  1988.67,   443.71  L  1988.67,   460.71  L  2039.66,   460.71  L  2039.66,   443.71  L  1988.67,   443.71  " /><text style="&st18;" transform="matrix(&st16;  1988.47  467.21 )">8</text><text style="&st18;" transform="matrix(&st16;  1994.86  467.21 )">A</text><path style="stroke-width:1.42 ;&st7;   " d=" M  2001.70,   465.24  C  2001.70    462.74   1999.67    460.71   1997.17    460.71  " /><path style="stroke-width:1.42 ;&st7;   " d=" M  1997.17,   460.71  C  1994.66    460.71   1992.63    462.74   1992.63    465.24  " /><path style="stroke-width:1.42 ;&st7;   " d=" M  1992.63,   465.24  C  1992.63    467.74   1994.66    469.77   1997.17    469.77  " /><path style="stroke-width:1.42 ;&st7;   " d=" M  1997.17,   469.77  C  1999.67    469.77   2001.70    467.74   2001.70    465.24  " /><text style="&st18;" transform="matrix(&st16;  1985.37  441.15 )">11</text><path style="stroke-width:1.42 ;&st7;   " d=" M  2001.70,   439.18  C  2001.70    436.68   1999.67    434.65   1997.17    434.65  " /><path style="stroke-width:1.42 ;&st7;   " d=" M  1997.17,   434.65  C  1994.66    434.65   1992.63    436.68   1992.63    439.18  " /><path style="stroke-width:1.42 ;&st7;   " d=" M  1992.63,   439.18  C  1992.63    441.68   1994.66    443.71   1997.17    443.71  " /><path style="stroke-width:1.42 ;&st7;   " d=" M  1997.17,   443.71  C  1999.67    443.71   2001.70    441.68   2001.70    439.18  " /><text style="&st18;" transform="matrix(&st16;  1994.98  441.15 )">B</text><text style="&st18;" transform="matrix(&st16;  2022.47  467.21 )">7</text><text style="&st18;" transform="matrix(&st16;  2028.86  467.21 )">A</text><path style="stroke-width:1.42 ;&st7;   " d=" M  2035.69,   465.24  C  2035.69    462.74   2033.66    460.71   2031.16    460.71  " /><path style="stroke-width:1.42 ;&st7;   " d=" M  2031.16,   460.71  C  2028.66    460.71   2026.63    462.74   2026.63    465.24  " /><path style="stroke-width:1.42 ;&st7;   " d=" M  2026.63,   465.24  C  2026.63    467.74   2028.66    469.77   2031.16    469.77  " /><path style="stroke-width:1.42 ;&st7;   " d=" M  2031.16,   469.77  C  2033.66    469.77   2035.69    467.74   2035.69    465.24  " /><g ewd:figtype="title"><text style="&st18;" transform="matrix(&st17;  2047.55  463.61 )">I108(A),I109(B)</text><text style="&st18;" transform="matrix(&st17;  2054.38  463.61 )" ewd:textID="26">No. 13 <tspan x="0 " dy="6.0">Junction Connector</tspan></text></g></g><g ewd:figtype="conn" ewd:figID="22" ewd:code="I23"><path style="stroke-width:0.85 ;&st7;  " d=" M  1992.92,   358.73  L  2001.42,   358.73  " /><path style="stroke-width:0.85 ;&st7;  " d=" M  1997.17,   350.23  L  1997.17,   375.72  " /><path style="stroke-width:1.42 ;&st7;  " d=" M  1988.67,   375.72  L  2005.66,   375.72  L  2005.66,   350.23  L  1988.67,   350.23  L  1988.67,   375.72  " /><path style="stroke-width:0.28 ;&st9;  " d=" M  1997.17,   358.73  L  2002.83,   367.22  L  1991.50,   367.22  L  1997.17,   358.73  " /><text style="&st18;" transform="matrix(&st16;  1990.98  383.92 )">1</text><text style="&st18;" transform="matrix(&st16;  1990.98  346.54 )">2</text><g ewd:figtype="title"><text style="&st18;" transform="matrix(&st17;  2013.56  378.62 )">I23</text><text style="&st18;" transform="matrix(&st17;  2020.38  378.63 )" ewd:textID="14">Diode (Turn Signal Light LH)</text></g></g><g ewd:figtype="rb" ewd:figID="23" ewd:code="2"><path style="stroke-width:1.42 ;&st7;  " d=" M  1931.30,   367.22  L  1927.05,   367.22  " /><path style="stroke-width:1.42 ;&st7;  " d=" M  1931.30,   375.72  L  1927.05,   375.72  " /><path style="stroke-width:1.42 ;&st7;  " d=" M  1905.81,   367.22  L  1901.56,   367.22  " /><path style="stroke-width:1.42 ;&st7;  " d=" M  1905.81,   375.72  L  1901.56,   375.72  " /><path style="stroke-width:1.42 ;&st7;  " d=" M  1905.81,   469.21  L  1901.56,   469.21  " /><path style="stroke-width:1.42 ;&st7;  " d=" M  1905.81,   460.71  L  1901.56,   460.71  " /><path style="stroke-width:1.42 ;&st7;  " d=" M  1931.30,   469.21  L  1927.05,   469.21  " /><path style="stroke-width:1.42 ;&st7;  " d=" M  1931.30,   460.71  L  1927.05,   460.71  " /><path style="stroke-width:1.42 ;&st7;   " d=" M  1927.05,   367.22  C  1924.71    367.22   1922.80    369.13   1922.80    371.47  " /><path style="stroke-width:1.42 ;&st7;   " d=" M  1922.80,   371.47  C  1922.80    373.82   1924.71    375.72   1927.05    375.72  " /><path style="stroke-width:1.42 ;&st7;   " d=" M  1931.30,   375.72  C  1933.65    375.72   1935.55    373.82   1935.55    371.47  " /><path style="stroke-width:1.42 ;&st7;   " d=" M  1935.55,   371.47  C  1935.55    369.13   1933.65    367.22   1931.30    367.22  " /><path style="stroke-width:1.42 ;&st7;   " d=" M  1901.56,   367.22  C  1899.21    367.22   1897.31    369.13   1897.31    371.47  " /><path style="stroke-width:1.42 ;&st7;   " d=" M  1897.31,   371.47  C  1897.31    373.82   1899.21    375.72   1901.56    375.72  " /><path style="stroke-width:1.42 ;&st7;   " d=" M  1905.81,   375.72  C  1908.15    375.72   1910.06    373.82   1910.06    371.47  " /><path style="stroke-width:1.42 ;&st7;   " d=" M  1910.06,   371.47  C  1910.06    369.13   1908.15    367.22   1905.81    367.22  " /><path style="stroke-width:1.42 ;&st7;   " d=" M  1897.31,   464.96  C  1897.31    467.30   1899.21    469.21   1901.56    469.21  " /><path style="stroke-width:1.42 ;&st7;   " d=" M  1901.56,   460.71  C  1899.21    460.71   1897.31    462.61   1897.31    464.96  " /><path style="stroke-width:1.42 ;&st7;   " d=" M  1935.55,   464.96  C  1935.55    462.61   1933.65    460.71   1931.30    460.71  " /><path style="stroke-width:1.42 ;&st7;   " d=" M  1931.30,   469.21  C  1933.65    469.21   1935.55    467.30   1935.55    464.96  " /><path style="stroke-width:1.42 ;&st7;   " d=" M  1922.80,   464.96  C  1922.80    467.30   1924.71    469.21   1927.05    469.21  " /><path style="stroke-width:1.42 ;&st7;   " d=" M  1927.05,   460.71  C  1924.71    460.71   1922.80    462.61   1922.80    464.96  " /><path style="stroke-width:1.42 ;&st7;   " d=" M  1910.06,   464.96  C  1910.06    462.61   1908.15    460.71   1905.81    460.71  " /><path style="stroke-width:1.42 ;&st7;   " d=" M  1905.81,   469.21  C  1908.15    469.21   1910.06    467.30   1910.06    464.96  " /><path style="stroke-width:0.85 ;&st7;  " d=" M  1929.18,   401.22  L  1929.18,   375.72  " /><path style="stroke-width:0.28 ;&st9;  " d=" M  1929.18,   380.62  L  1932.01,   383.45  L  1932.01,   379.20  L  1929.18,   376.37  L  1926.34,   379.20  L  1926.34,   383.45  L  1929.18,   380.62  " /><path style="stroke-width:0.85 ;&st7;  " d=" M  1903.68,   401.22  L  1903.68,   375.72  " /><path style="stroke-width:0.28 ;&st9;  " d=" M  1903.68,   380.62  L  1906.51,   383.45  L  1906.51,   379.20  L  1903.68,   376.37  L  1900.85,   379.20  L  1900.85,   383.45  L  1903.68,   380.62  " /><path style="stroke-width:0.85 ;&st7;  " d=" M  1929.18,   460.71  L  1929.18,   435.21  " /><path style="stroke-width:0.28 ;&st9;  " d=" M  1929.18,   455.81  L  1926.34,   452.98  L  1926.34,   457.23  L  1929.18,   460.06  L  1932.01,   457.23  L  1932.01,   452.98  L  1929.18,   455.81  " /><path style="stroke-width:0.28 ;&st9;  " d=" M  1903.68,   455.81  L  1900.85,   452.98  L  1900.85,   457.23  L  1903.68,   460.06  L  1906.51,   457.23  L  1906.51,   452.98  L  1903.68,   455.81  " /><path style="stroke-width:0.85 ;&st7;  " d=" M  1903.68,   460.71  L  1903.68,   435.21  " /><text style="&st18;" transform="matrix(&st16;  1922.99  397.53 )">5</text><text style="&st18;" transform="matrix(&st16;  1897.5  397.53 )">1</text><text style="&st18;" transform="matrix(&st16;  1922.99  443.41 )">3</text><text style="&st18;" transform="matrix(&st16;  1897.5  443.41 )">2</text><text style="&st18;" transform="matrix(&st16;  1927.38  373.44 )">2</text><text style="&st18;" transform="matrix(&st16;  1901.88  373.44 )">2</text><text style="&st18;" transform="matrix(&st16;  1927.38  466.93 )">2</text><text style="&st18;" transform="matrix(&st16;  1901.88  466.93 )">2</text><text style="&st18;" transform="matrix(&st17;  1945.31  425.45 )" ewd:textID="17">FLSH <tspan x="0 " dy="6.0">Relay</tspan></text><path style="stroke-width:0.85 ;&st7;  " d=" M  1903.68,   426.71  L  1903.68,   435.21  " /><path style="stroke-width:0.85 ;&st7;  " d=" M  1903.68,   401.22  L  1903.68,   409.72  " /><path style="stroke-width:0.85 ;&st7;  " d=" M  1929.18,   401.22  L  1929.18,   405.47  " /><path style="stroke-width:0.85 ;&st7;  " d=" M  1929.18,   435.21  L  1929.18,   430.96  " /><path style="stroke-width:1.42 ;&st7;  " d=" M  1929.18,   428.13  L  1934.84,   405.47  " /><path style="stroke-width:0.85 ;&st7;   " d=" M  1903.68,   426.71  C  1905.64    426.71   1907.22    425.13   1907.22    423.17  " /><path style="stroke-width:0.85 ;&st7;   " d=" M  1907.22,   423.17  C  1907.22    421.22   1905.64    419.63   1903.68    419.63  " /><path style="stroke-width:0.85 ;&st7;   " d=" M  1903.68,   419.63  C  1902.69    419.63   1901.85    419.99   1901.15    420.69  " /><path style="stroke-width:0.85 ;&st7;   " d=" M  1901.15,   420.69  C  1902.52    422.09   1904.76    422.11   1906.16    420.75  " /><path style="stroke-width:0.85 ;&st7;   " d=" M  1906.16,   420.75  C  1907.56    419.38   1907.58    417.13   1906.21    415.74  " /><path style="stroke-width:0.85 ;&st7;   " d=" M  1906.21,   415.74  C  1904.84    414.34   1902.60    414.32   1901.20    415.69  " /><path style="stroke-width:0.85 ;&st7;   " d=" M  1901.20,   415.69  C  1901.19    415.70   1901.17    415.72   1901.15    415.74  " /><path style="stroke-width:0.85 ;&st7;   " d=" M  1901.15,   415.74  C  1902.52    417.13   1904.76    417.16   1906.16    415.79  " /><path style="stroke-width:0.85 ;&st7;   " d=" M  1906.16,   415.79  C  1907.56    414.42   1907.58    412.18   1906.21    410.78  " /><path style="stroke-width:0.85 ;&st7;   " d=" M  1906.21,   410.78  C  1905.52    410.07   1904.67    409.72   1903.68    409.72  " /><path style="stroke-width:0.85 ;&st7;   " d=" M  1930.59,   406.88  C  1930.59    406.10   1929.96    405.47   1929.18    405.47  " /><path style="stroke-width:0.85 ;&st7;   " d=" M  1929.18,   405.47  C  1928.40    405.47   1927.76    406.10   1927.76    406.88  " /><path style="stroke-width:0.85 ;&st7;   " d=" M  1927.76,   406.88  C  1927.76    407.67   1928.40    408.30   1929.18    408.30  " /><path style="stroke-width:0.85 ;&st7;   " d=" M  1929.18,   408.30  C  1929.96    408.30   1930.59    407.67   1930.59    406.88  " /><path style="stroke-width:0.85 ;&st7;   " d=" M  1930.59,   429.55  C  1930.59    428.76   1929.96    428.13   1929.18    428.13  " /><path style="stroke-width:0.85 ;&st7;   " d=" M  1929.18,   428.13  C  1928.40    428.13   1927.76    428.76   1927.76    429.55  " /><path style="stroke-width:0.85 ;&st7;   " d=" M  1927.76,   429.55  C  1927.76    430.33   1928.40    430.96   1929.18    430.96  " /><path style="stroke-width:0.85 ;&st7;   " d=" M  1929.18,   430.96  C  1929.96    430.96   1930.59    430.33   1930.59    429.55  " /><path style="stroke-width:1.42 ;&st7;  " d=" M  1937.68,   401.22  L  1895.18,   401.22  L  1895.18,   435.21  L  1937.68,   435.21  L  1937.68,   401.22  " /></g><g ewd:figtype="rb" ewd:figID="24" ewd:code="2"><path style="stroke-width:1.42 ;&st7;  " d=" M  1846.32,   367.22  L  1842.07,   367.22  " /><path style="stroke-width:1.42 ;&st7;  " d=" M  1846.32,   375.72  L  1842.07,   375.72  " /><path style="stroke-width:1.42 ;&st7;  " d=" M  1820.82,   367.22  L  1816.57,   367.22  " /><path style="stroke-width:1.42 ;&st7;  " d=" M  1820.82,   375.72  L  1816.57,   375.72  " /><path style="stroke-width:1.42 ;&st7;  " d=" M  1820.82,   469.21  L  1816.57,   469.21  " /><path style="stroke-width:1.42 ;&st7;  " d=" M  1820.82,   460.71  L  1816.57,   460.71  " /><path style="stroke-width:1.42 ;&st7;  " d=" M  1846.32,   469.21  L  1842.07,   469.21  " /><path style="stroke-width:1.42 ;&st7;  " d=" M  1846.32,   460.71  L  1842.07,   460.71  " /><path style="stroke-width:1.42 ;&st7;   " d=" M  1842.07,   367.22  C  1839.72    367.22   1837.82    369.13   1837.82    371.47  " /><path style="stroke-width:1.42 ;&st7;   " d=" M  1837.82,   371.47  C  1837.82    373.82   1839.72    375.72   1842.07    375.72  " /><path style="stroke-width:1.42 ;&st7;   " d=" M  1846.32,   375.72  C  1848.66    375.72   1850.57    373.82   1850.57    371.47  " /><path style="stroke-width:1.42 ;&st7;   " d=" M  1850.57,   371.47  C  1850.57    369.13   1848.66    367.22   1846.32    367.22  " /><path style="stroke-width:1.42 ;&st7;   " d=" M  1816.57,   367.22  C  1814.22    367.22   1812.32    369.13   1812.32    371.47  " /><path style="stroke-width:1.42 ;&st7;   " d=" M  1812.32,   371.47  C  1812.32    373.82   1814.22    375.72   1816.57    375.72  " /><path style="stroke-width:1.42 ;&st7;   " d=" M  1820.82,   375.72  C  1823.17    375.72   1825.07    373.82   1825.07    371.47  " /><path style="stroke-width:1.42 ;&st7;   " d=" M  1825.07,   371.47  C  1825.07    369.13   1823.17    367.22   1820.82    367.22  " /><path style="stroke-width:1.42 ;&st7;   " d=" M  1812.32,   464.96  C  1812.32    467.30   1814.22    469.21   1816.57    469.21  " /><path style="stroke-width:1.42 ;&st7;   " d=" M  1816.57,   460.71  C  1814.22    460.71   1812.32    462.61   1812.32    464.96  " /><path style="stroke-width:1.42 ;&st7;   " d=" M  1850.57,   464.96  C  1850.57    462.61   1848.66    460.71   1846.32    460.71  " /><path style="stroke-width:1.42 ;&st7;   " d=" M  1846.32,   469.21  C  1848.66    469.21   1850.57    467.30   1850.57    464.96  " /><path style="stroke-width:1.42 ;&st7;   " d=" M  1837.82,   464.96  C  1837.82    467.30   1839.72    469.21   1842.07    469.21  " /><path style="stroke-width:1.42 ;&st7;   " d=" M  1842.07,   460.71  C  1839.72    460.71   1837.82    462.61   1837.82    464.96  " /><path style="stroke-width:1.42 ;&st7;   " d=" M  1825.07,   464.96  C  1825.07    462.61   1823.17    460.71   1820.82    460.71  " /><path style="stroke-width:1.42 ;&st7;   " d=" M  1820.82,   469.21  C  1823.17    469.21   1825.07    467.30   1825.07    464.96  " /><path style="stroke-width:0.85 ;&st7;  " d=" M  1844.19,   401.22  L  1844.19,   375.72  " /><path style="stroke-width:0.28 ;&st9;  " d=" M  1844.19,   380.62  L  1847.02,   383.45  L  1847.02,   379.20  L  1844.19,   376.37  L  1841.36,   379.20  L  1841.36,   383.45  L  1844.19,   380.62  " /><path style="stroke-width:0.85 ;&st7;  " d=" M  1818.70,   401.22  L  1818.70,   375.72  " /><path style="stroke-width:0.28 ;&st9;  " d=" M  1818.70,   380.62  L  1821.53,   383.45  L  1821.53,   379.20  L  1818.70,   376.37  L  1815.86,   379.20  L  1815.86,   383.45  L  1818.70,   380.62  " /><path style="stroke-width:0.85 ;&st7;  " d=" M  1844.19,   460.71  L  1844.19,   435.21  " /><path style="stroke-width:0.28 ;&st9;  " d=" M  1844.19,   455.81  L  1841.36,   452.98  L  1841.36,   457.23  L  1844.19,   460.06  L  1847.02,   457.23  L  1847.02,   452.98  L  1844.19,   455.81  " /><path style="stroke-width:0.28 ;&st9;  " d=" M  1818.70,   455.81  L  1815.86,   452.98  L  1815.86,   457.23  L  1818.70,   460.06  L  1821.53,   457.23  L  1821.53,   452.98  L  1818.70,   455.81  " /><path style="stroke-width:0.85 ;&st7;  " d=" M  1818.70,   460.71  L  1818.70,   435.21  " /><text style="&st18;" transform="matrix(&st16;  1838.01  397.53 )">5</text><text style="&st18;" transform="matrix(&st16;  1812.51  397.53 )">1</text><text style="&st18;" transform="matrix(&st16;  1838.01  443.41 )">3</text><text style="&st18;" transform="matrix(&st16;  1812.51  443.41 )">2</text><text style="&st18;" transform="matrix(&st16;  1842.39  373.44 )">2</text><text style="&st18;" transform="matrix(&st16;  1816.9  373.44 )">2</text><text style="&st18;" transform="matrix(&st16;  1842.39  466.93 )">2</text><text style="&st18;" transform="matrix(&st16;  1816.9  466.93 )">2</text><text style="&st18;" transform="matrix(&st17;  1860.33  427.0 )" ewd:textID="16">FLSH2 <tspan x="0 " dy="6.0">Relay</tspan></text><path style="stroke-width:0.85 ;&st7;  " d=" M  1818.70,   426.71  L  1818.70,   435.21  " /><path style="stroke-width:0.85 ;&st7;  " d=" M  1818.70,   401.22  L  1818.70,   409.72  " /><path style="stroke-width:0.85 ;&st7;  " d=" M  1844.19,   401.22  L  1844.19,   405.47  " /><path style="stroke-width:0.85 ;&st7;  " d=" M  1844.19,   435.21  L  1844.19,   430.96  " /><path style="stroke-width:1.42 ;&st7;  " d=" M  1844.19,   428.13  L  1849.86,   405.47  " /><path style="stroke-width:0.85 ;&st7;   " d=" M  1818.70,   426.71  C  1820.65    426.71   1822.24    425.13   1822.24    423.17  " /><path style="stroke-width:0.85 ;&st7;   " d=" M  1822.24,   423.17  C  1822.24    421.22   1820.65    419.63   1818.70    419.63  " /><path style="stroke-width:0.85 ;&st7;   " d=" M  1818.70,   419.63  C  1817.71    419.63   1816.86    419.99   1816.17    420.69  " /><path style="stroke-width:0.85 ;&st7;   " d=" M  1816.17,   420.69  C  1817.54    422.09   1819.78    422.11   1821.17    420.75  " /><path style="stroke-width:0.85 ;&st7;   " d=" M  1821.17,   420.75  C  1822.57    419.38   1822.59    417.13   1821.23    415.74  " /><path style="stroke-width:0.85 ;&st7;   " d=" M  1821.23,   415.74  C  1819.86    414.34   1817.61    414.32   1816.22    415.69  " /><path style="stroke-width:0.85 ;&st7;   " d=" M  1816.22,   415.69  C  1816.20    415.70   1816.18    415.72   1816.17    415.74  " /><path style="stroke-width:0.85 ;&st7;   " d=" M  1816.17,   415.74  C  1817.54    417.13   1819.78    417.16   1821.17    415.79  " /><path style="stroke-width:0.85 ;&st7;   " d=" M  1821.17,   415.79  C  1822.57    414.42   1822.59    412.18   1821.23    410.78  " /><path style="stroke-width:0.85 ;&st7;   " d=" M  1821.23,   410.78  C  1820.53    410.07   1819.69    409.72   1818.70    409.72  " /><path style="stroke-width:0.85 ;&st7;   " d=" M  1845.61,   406.88  C  1845.61    406.10   1844.97    405.47   1844.19    405.47  " /><path style="stroke-width:0.85 ;&st7;   " d=" M  1844.19,   405.47  C  1843.41    405.47   1842.78    406.10   1842.78    406.88  " /><path style="stroke-width:0.85 ;&st7;   " d=" M  1842.78,   406.88  C  1842.78    407.67   1843.41    408.30   1844.19    408.30  " /><path style="stroke-width:0.85 ;&st7;   " d=" M  1844.19,   408.30  C  1844.97    408.30   1845.61    407.67   1845.61    406.88  " /><path style="stroke-width:0.85 ;&st7;   " d=" M  1845.61,   429.55  C  1845.61    428.76   1844.97    428.13   1844.19    428.13  " /><path style="stroke-width:0.85 ;&st7;   " d=" M  1844.19,   428.13  C  1843.41    428.13   1842.78    428.76   1842.78    429.55  " /><path style="stroke-width:0.85 ;&st7;   " d=" M  1842.78,   429.55  C  1842.78    430.33   1843.41    430.96   1844.19    430.96  " /><path style="stroke-width:0.85 ;&st7;   " d=" M  1844.19,   430.96  C  1844.97    430.96   1845.61    430.33   1845.61    429.55  " /><path style="stroke-width:1.42 ;&st7;  " d=" M  1852.69,   401.22  L  1810.20,   401.22  L  1810.20,   435.21  L  1852.69,   435.21  L  1852.69,   401.22  " /></g><g ewd:figtype="conn" ewd:figID="25" ewd:code="L14"><path style="stroke-width:1.42 ;&st7;  " d=" M  1691.22,   460.71  L  1767.70,   460.71  L  1767.70,   426.71  L  1691.22,   426.71  L  1691.22,   460.71  " /><g ewd:lineID="93"><text style="&st18;" transform="matrix(&st16;  1699.52  467.21 )">4</text><path style="stroke-width:1.42 ;&st7;   " d=" M  1712.75,   465.24  C  1712.75    462.74   1710.72    460.71   1708.21    460.71  " /><path style="stroke-width:1.42 ;&st7;   " d=" M  1708.21,   460.71  C  1705.71    460.71   1703.68    462.74   1703.68    465.24  " /><path style="stroke-width:1.42 ;&st7;   " d=" M  1703.68,   465.24  C  1703.68    467.74   1705.71    469.77   1708.21    469.77  " /><path style="stroke-width:1.42 ;&st7;   " d=" M  1708.21,   469.77  C  1710.72    469.77   1712.75    467.74   1712.75    465.24  " /><text style="&st18;" transform="matrix(&st16;  1705.91  467.21 )">A</text><text style="&st18;" transform="matrix(&st16;  1706.1  457.01 )">E</text></g><g ewd:lineID="94"><text style="&st18;" transform="matrix(&st16;  1699.52  424.15 )">1</text><text style="&st18;" transform="matrix(&st16;  1705.91  424.15 )">A</text><path style="stroke-width:1.42 ;&st7;   " d=" M  1712.75,   422.18  C  1712.75    419.68   1710.72    417.65   1708.21    417.65  " /><path style="stroke-width:1.42 ;&st7;   " d=" M  1708.21,   417.65  C  1705.71    417.65   1703.68    419.68   1703.68    422.18  " /><path style="stroke-width:1.42 ;&st7;   " d=" M  1703.68,   422.18  C  1703.68    424.68   1705.71    426.71   1708.21    426.71  " /><path style="stroke-width:1.42 ;&st7;   " d=" M  1708.21,   426.71  C  1710.72    426.71   1712.75    424.68   1712.75    422.18  " /><text style="&st18;" transform="matrix(&st16;  1704.2  434.35 )">TL</text></g><g ewd:lineID="97"><text style="&st18;" transform="matrix(&st16;  1742.01  424.15 )">2</text><path style="stroke-width:1.42 ;&st7;   " d=" M  1755.24,   422.18  C  1755.24    419.68   1753.21    417.65   1750.71    417.65  " /><path style="stroke-width:1.42 ;&st7;   " d=" M  1750.71,   417.65  C  1748.20    417.65   1746.17    419.68   1746.17    422.18  " /><path style="stroke-width:1.42 ;&st7;   " d=" M  1746.17,   422.18  C  1746.17    424.68   1748.20    426.71   1750.71    426.71  " /><path style="stroke-width:1.42 ;&st7;   " d=" M  1750.71,   426.71  C  1753.21    426.71   1755.24    424.68   1755.24    422.18  " /><text style="&st18;" transform="matrix(&st16;  1748.4  424.15 )">A</text><text style="&st18;" transform="matrix(&st16;  1746.66  434.35 )">TR</text></g><g ewd:figtype="title"><text style="&st18;" transform="matrix(&st17;  1775.6  463.61 )">L14(A)</text><text style="&st18;" transform="matrix(&st17;  1782.42  463.61 )" ewd:textID="19">Hazard Warning Signal Switch Assembly</text></g></g><g ewd:figtype="rb" ewd:figID="26" ewd:code="FUSE23"><path style="stroke-width:0.85 ;&st7;  " d=" M  1818.70,    78.27  L  1818.70,    95.27  " /><path style="stroke-width:1.42 ;&st7;  " d=" M  1820.82,   103.77  L  1816.57,   103.77  " /><path style="stroke-width:1.42 ;&st7;  " d=" M  1820.82,    95.27  L  1816.57,    95.27  " /><path style="stroke-width:1.42 ;&st7;   " d=" M  1825.07,    99.52  C  1825.07     97.17   1823.17     95.27   1820.82     95.27  " /><path style="stroke-width:1.42 ;&st7;   " d=" M  1820.82,   103.77  C  1823.17    103.77   1825.07    101.87   1825.07     99.52  " /><path style="stroke-width:1.42 ;&st7;   " d=" M  1812.32,    99.52  C  1812.32    101.87   1814.22    103.77   1816.57    103.77  " /><path style="stroke-width:1.42 ;&st7;   " d=" M  1816.57,    95.27  C  1814.22     95.27   1812.32     97.17   1812.32     99.52  " /><path style="stroke-width:0.28 ;&st9;  " d=" M  1818.70,    90.37  L  1815.86,    87.54  L  1815.86,    91.79  L  1818.70,    94.62  L  1821.53,    91.79  L  1821.53,    87.54  L  1818.70,    90.37  " /><text style="&st18;" transform="matrix(&st16;  1813.48  32.08 )">(IG)</text><text style="&st18;" transform="matrix(&st16;  1812.51  86.47 )">2</text><text style="&st18;" transform="matrix(&st16;  1816.9  101.49 )">2</text><text style="&st18;" transform="matrix(&st16;  1835.12  56.17 )">15A <tspan x="0 " dy="6.0">GAUGE</tspan></text><path style="stroke-width:0.85 ;&st7;  " d=" M  1818.70,    69.77  L  1818.70,    78.27  " /><path style="stroke-width:0.85 ;&st7;   " d=" M  1820.11,    68.36  C  1820.11     67.57   1819.48     66.94   1818.70     66.94  " /><path style="stroke-width:0.85 ;&st7;   " d=" M  1818.70,    66.94  C  1817.91     66.94   1817.28     67.57   1817.28     68.36  " /><path style="stroke-width:0.85 ;&st7;   " d=" M  1817.28,    68.36  C  1817.28     69.14   1817.91     69.77   1818.70     69.77  " /><path style="stroke-width:0.85 ;&st7;   " d=" M  1818.70,    69.77  C  1819.48     69.77   1820.11     69.14   1820.11     68.36  " /><path style="stroke-width:0.85 ;&st7;   " d=" M  1820.11,    45.69  C  1820.11     44.91   1819.48     44.28   1818.70     44.28  " /><path style="stroke-width:0.85 ;&st7;   " d=" M  1818.70,    44.28  C  1817.91     44.28   1817.28     44.91   1817.28     45.69  " /><path style="stroke-width:0.85 ;&st7;   " d=" M  1817.28,    45.69  C  1817.28     46.48   1817.91     47.11   1818.70     47.11  " /><path style="stroke-width:0.85 ;&st7;   " d=" M  1818.70,    47.11  C  1819.48     47.11   1820.11     46.48   1820.11     45.69  " /><path style="stroke-width:1.42 ;&st7;   " d=" M  1818.70,    66.94  C  1821.43     65.33   1822.35     61.80   1820.73     59.06  " /><path style="stroke-width:1.42 ;&st7;   " d=" M  1820.73,    59.06  C  1820.21     58.18   1819.58     57.55   1818.70     57.03  " /><path style="stroke-width:1.42 ;&st7;   " d=" M  1818.70,    47.11  C  1815.96     48.72   1815.05     52.25   1816.66     54.99  " /><path style="stroke-width:1.42 ;&st7;   " d=" M  1816.66,    54.99  C  1817.18     55.87   1817.81     56.51   1818.70     57.03  " /><path style="stroke-width:1.42 ;&st7;  " d=" M  1805.95,    35.78  L  1805.95,    78.27  L  1831.44,    78.27  L  1831.44,    35.78  L  1805.95,    35.78  " /></g><g ewd:figtype="conn" ewd:figID="27" ewd:code="I105"><path style="stroke-width:0.85 ;&st7;  " d=" M  1995.97,   179.25  L  1995.70,   179.72  L  1995.61,   180.26  L  1995.70,   180.79  L  1995.97,   181.26  L  1996.39,   181.60  L  1996.89,   181.79  L  1997.44,   181.79  L  1997.94,   181.60  L  1998.36,   181.26  L  1998.63,   180.79  L  1998.72,   180.26  L  1998.63,   179.72  L  1998.36,   179.25  L  1997.94,   178.91  L  1997.44,   178.72  L  1996.89,   178.72  L  1996.39,   178.91  L  1995.97,   179.25  L  1996.37,   179.96  L  1996.37,   180.55  L  1996.74,   180.99  L  1997.31,   181.09  L  1997.82,   180.80  L  1998.02,   180.26  L  1997.82,   179.71  L  1997.31,   179.42  L  1996.74,   179.52  L  1997.17,   180.26  " /><path style="stroke-width:0.85 ;&st7;  " d=" M  1902.49,   179.25  L  1902.22,   179.72  L  1902.12,   180.26  L  1902.22,   180.79  L  1902.49,   181.26  L  1902.90,   181.60  L  1903.41,   181.79  L  1903.95,   181.79  L  1904.46,   181.60  L  1904.87,   181.26  L  1905.15,   180.79  L  1905.24,   180.26  L  1905.15,   179.72  L  1904.87,   179.25  L  1904.46,   178.91  L  1903.95,   178.72  L  1903.41,   178.72  L  1902.90,   178.91  L  1902.49,   179.25  L  1902.88,   179.96  L  1902.88,   180.55  L  1903.26,   180.99  L  1903.83,   181.09  L  1904.33,   180.80  L  1904.53,   180.26  L  1904.33,   179.71  L  1903.83,   179.42  L  1903.26,   179.52  L  1903.68,   180.26  " /><path style="stroke-width:0.85 ;&st7;  " d=" M  1817.50,   179.25  L  1817.23,   179.72  L  1817.14,   180.26  L  1817.23,   180.79  L  1817.50,   181.26  L  1817.92,   181.60  L  1818.42,   181.79  L  1818.97,   181.79  L  1819.47,   181.60  L  1819.89,   181.26  L  1820.16,   180.79  L  1820.25,   180.26  L  1820.16,   179.72  L  1819.89,   179.25  L  1819.47,   178.91  L  1818.97,   178.72  L  1818.42,   178.72  L  1817.92,   178.91  L  1817.50,   179.25  L  1817.90,   179.96  L  1817.90,   180.55  L  1818.27,   180.99  L  1818.84,   181.09  L  1819.35,   180.80  L  1819.55,   180.26  L  1819.35,   179.71  L  1818.84,   179.42  L  1818.27,   179.52  L  1818.70,   180.26  " /><path style="stroke-width:0.85 ;&st7;  " d=" M  1903.68,   180.26  L  1903.68,   188.75  " /><path style="stroke-width:0.85 ;&st7;  " d=" M  1818.70,   180.26  L  1997.17,   180.26  " /><path style="stroke-width:0.85 ;&st7;  " d=" M  1997.17,   171.76  L  1997.17,   188.75  " /><path style="stroke-width:0.85 ;&st7;  " d=" M  1818.70,   171.76  L  1818.70,   188.75  " /><path style="stroke-width:1.42 ;&st7;  " d=" M  1810.20,   188.75  L  2005.66,   188.75  L  2005.66,   171.76  L  1810.20,   171.76  L  1810.20,   188.75  " /><text style="&st18;" transform="matrix(&st16;  1810.0  195.26 )">4</text><path style="stroke-width:1.42 ;&st7;   " d=" M  1823.23,   193.29  C  1823.23    190.78   1821.20    188.75   1818.70    188.75  " /><path style="stroke-width:1.42 ;&st7;   " d=" M  1818.70,   188.75  C  1816.19    188.75   1814.16    190.78   1814.16    193.29  " /><path style="stroke-width:1.42 ;&st7;   " d=" M  1814.16,   193.29  C  1814.16    195.79   1816.19    197.82   1818.70    197.82  " /><path style="stroke-width:1.42 ;&st7;   " d=" M  1818.70,   197.82  C  1821.20    197.82   1823.23    195.79   1823.23    193.29  " /><text style="&st18;" transform="matrix(&st16;  1816.39  195.26 )">A</text><text style="&st18;" transform="matrix(&st16;  1810.0  169.19 )">9</text><path style="stroke-width:1.42 ;&st7;   " d=" M  1823.23,   167.22  C  1823.23    164.72   1821.20    162.69   1818.70    162.69  " /><path style="stroke-width:1.42 ;&st7;   " d=" M  1818.70,   162.69  C  1816.19    162.69   1814.16    164.72   1814.16    167.22  " /><path style="stroke-width:1.42 ;&st7;   " d=" M  1814.16,   167.22  C  1814.16    169.73   1816.19    171.76   1818.70    171.76  " /><path style="stroke-width:1.42 ;&st7;   " d=" M  1818.70,   171.76  C  1821.20    171.76   1823.23    169.73   1823.23    167.22  " /><text style="&st18;" transform="matrix(&st16;  1816.39  169.19 )">A</text><text style="&st18;" transform="matrix(&st16;  1891.89  195.26 )">12</text><path style="stroke-width:1.42 ;&st7;   " d=" M  1908.21,   193.29  C  1908.21    190.78   1906.19    188.75   1903.68    188.75  " /><path style="stroke-width:1.42 ;&st7;   " d=" M  1903.68,   188.75  C  1901.18    188.75   1899.15    190.78   1899.15    193.29  " /><path style="stroke-width:1.42 ;&st7;   " d=" M  1899.15,   193.29  C  1899.15    195.79   1901.18    197.82   1903.68    197.82  " /><path style="stroke-width:1.42 ;&st7;   " d=" M  1903.68,   197.82  C  1906.19    197.82   1908.21    195.79   1908.21    193.29  " /><text style="&st18;" transform="matrix(&st16;  1901.38  195.26 )">A</text><text style="&st18;" transform="matrix(&st16;  1985.37  195.26 )">13</text><path style="stroke-width:1.42 ;&st7;   " d=" M  2001.70,   193.29  C  2001.70    190.78   1999.67    188.75   1997.17    188.75  " /><path style="stroke-width:1.42 ;&st7;   " d=" M  1997.17,   188.75  C  1994.66    188.75   1992.63    190.78   1992.63    193.29  " /><path style="stroke-width:1.42 ;&st7;   " d=" M  1992.63,   193.29  C  1992.63    195.79   1994.66    197.82   1997.17    197.82  " /><path style="stroke-width:1.42 ;&st7;   " d=" M  1997.17,   197.82  C  1999.67    197.82   2001.70    195.79   2001.70    193.29  " /><text style="&st18;" transform="matrix(&st16;  1994.86  195.26 )">A</text><text style="&st18;" transform="matrix(&st16;  1988.47  169.19 )">5</text><text style="&st18;" transform="matrix(&st16;  1994.86  169.19 )">A</text><path style="stroke-width:1.42 ;&st7;   " d=" M  2001.70,   167.22  C  2001.70    164.72   1999.67    162.69   1997.17    162.69  " /><path style="stroke-width:1.42 ;&st7;   " d=" M  1997.17,   162.69  C  1994.66    162.69   1992.63    164.72   1992.63    167.22  " /><path style="stroke-width:1.42 ;&st7;   " d=" M  1992.63,   167.22  C  1992.63    169.73   1994.66    171.76   1997.17    171.76  " /><path style="stroke-width:1.42 ;&st7;   " d=" M  1997.17,   171.76  C  1999.67    171.76   2001.70    169.73   2001.70    167.22  " /><g ewd:figtype="title"><text style="&st18;" transform="matrix(&st16;  1857.78  161.24 )">I105(A)</text><text style="&st18;" transform="matrix(&st16;  1857.78  168.06 )" ewd:textID="22">No. 8 Junction Connector</text></g></g><g ewd:figtype="conn" ewd:figID="36" ewd:code="I29"><g ewd:lineID="92"><text style="&st18;" transform="matrix(&st16;  1657.03  101.77 )">5</text><text style="&st18;" transform="matrix(&st16;  1663.53  101.77 )">B</text><path style="stroke-width:1.42 ;&st7;   " d=" M  1670.25,    99.80  C  1670.25     97.30   1668.22     95.27   1665.72     95.27  " /><path style="stroke-width:1.42 ;&st7;   " d=" M  1665.72,    95.27  C  1663.22     95.27   1661.19     97.30   1661.19     99.80  " /><path style="stroke-width:1.42 ;&st7;   " d=" M  1661.19,    99.80  C  1661.19    102.31   1663.22    104.33   1665.72    104.33  " /><path style="stroke-width:1.42 ;&st7;   " d=" M  1665.72,   104.33  C  1668.22    104.33   1670.25    102.31   1670.25     99.80  " /><text style="&st18;" transform="matrix(&st16;  1661.75  91.57 )">ER</text></g><g ewd:lineID="96"><text style="&st18;" transform="matrix(&st16;  1699.52  101.77 )">6</text><path style="stroke-width:1.42 ;&st7;   " d=" M  1712.75,    99.80  C  1712.75     97.30   1710.72     95.27   1708.21     95.27  " /><path style="stroke-width:1.42 ;&st7;   " d=" M  1708.21,    95.27  C  1705.71     95.27   1703.68     97.30   1703.68     99.80  " /><path style="stroke-width:1.42 ;&st7;   " d=" M  1703.68,    99.80  C  1703.68    102.31   1705.71    104.33   1708.21    104.33  " /><path style="stroke-width:1.42 ;&st7;   " d=" M  1708.21,   104.33  C  1710.72    104.33   1712.75    102.31   1712.75     99.80  " /><text style="&st18;" transform="matrix(&st16;  1706.03  101.77 )">B</text><text style="&st18;" transform="matrix(&st16;  1704.28  91.57 )">EL</text></g></g><g ewd:figtype="w2w" ewd:figID="83" ewd:code="TS2"><path style="stroke-width:1.42 ;&st7;  " d=" M  1525.49,   429.55  L  1521.25,   433.80  L  1517.00,   429.55  " /><path style="stroke-width:1.42 ;&st7;  " d=" M  1517.00,   426.15  L  1521.25,   430.40  L  1525.49,   426.15  " /><text style="&st18;" transform="matrix(&st16;  1508.61  441.43 )">4</text></g><g ewd:figtype="w2w" ewd:figID="84" ewd:code="LI1"><path style="stroke-width:1.42 ;&st7;  " d=" M  1712.46,   361.56  L  1708.21,   365.81  L  1703.96,   361.56  " /><path style="stroke-width:1.42 ;&st7;  " d=" M  1703.96,   358.16  L  1708.21,   362.41  L  1712.46,   358.16  " /><text style="&st18;" transform="matrix(&st16;  1692.48  373.44 )">24</text></g><g ewd:figtype="w2w" ewd:figID="85" ewd:code="LI1"><path style="stroke-width:1.42 ;&st7;  " d=" M  1746.46,   358.16  L  1750.71,   362.41  L  1754.96,   358.16  " /><text style="&st18;" transform="matrix(&st16;  1734.97  373.44 )">23</text><path style="stroke-width: 1.42 ;&st7;  " d=" M  1754.96,   361.56  L  1750.71,   365.81  L  1746.46,   361.56  " /></g><g ewd:figtype="gp" ewd:figID="113" ewd:code="LB"><path style="stroke-width: 0.85 ;&st7;  " d=" M  1706.80,   710.00  L  1709.63,   710.00  " /><path style="stroke-width: 0.85 ;&st7;  " d=" M  1705.38,   707.17  L  1711.05,   707.17  " /><path style="stroke-width: 0.85 ;&st7;  " d=" M  1703.96,   704.33  L  1712.46,   704.33  " /><path style="stroke-width: 0.85 ;&st7;  " d=" M  1699.72,   701.50  L  1716.71,   701.50  " /><path style="stroke-width: 0.85 ;&st7;  " d=" M  1708.21,   697.25  L  1708.21,   701.50  " /></g><g ewd:figtype="gp" ewd:figID="114" ewd:code="IC"><path style="stroke-width: 0.85 ;&st7;  " d=" M  1842.77,   710.00  L  1845.61,   710.00  " /><path style="stroke-width: 0.85 ;&st7;  " d=" M  1841.36,   707.17  L  1847.02,   707.17  " /><path style="stroke-width: 0.85 ;&st7;  " d=" M  1839.94,   704.33  L  1848.44,   704.33  " /><path style="stroke-width: 0.85 ;&st7;  " d=" M  1835.69,   701.50  L  1852.69,   701.50  " /><path style="stroke-width: 0.85 ;&st7;  " d=" M  1844.19,   697.25  L  1844.19,   701.50  " /></g></svg>