<?xml version="1.0" encoding="utf-8"?>
<!DOCTYPE svg PUBLIC "-//W3C//DTD SVG 1.0//EN" "http://www.w3.org/TR/2001/REC-SVG-20010904/DTD/svg10.dtd"[
	<!ENTITY ns_flows "http://ns.adobe.com/Flows/1.0/">
	<!ENTITY ns_svg "http://www.w3.org/2000/svg">
	<!ENTITY ns_xlink "http://www.w3.org/1999/xlink">
	<!ENTITY st0 "font-size:7px;font-family:'MS-PGothic';adobe-font-script:japanese;">
	<!ENTITY st1 "font-size:6px;font-family:'ArialMT';">
	<!-- White fill  -->
	<!ENTITY st2 "fill:#FFFFFF;stroke:#000000; stroke-width:1.41;stroke-linecap:round;stroke-linejoin:round;">
	<!-- Yellow fill  -->
	<!ENTITY st3 "fill:#FFFFCC;stroke:#FFFFCC; stroke-width:0.1;stroke-linecap:round;stroke-linejoin:round;">
	<!-- Gray fill  -->
	<!ENTITY st4 "fill:#CCCCCC;stroke:#CCCCCC; stroke-width:0.1;stroke-linecap:round;stroke-linejoin:round;">
	<!-- Light-blue fill -->
	<!ENTITY st5 "fill:#CCECF4;stroke:#000000; stroke-width:1.133;stroke-linecap:round;stroke-linejoin:round;">
	<!ENTITY st6 "fill:none;stroke-linecap:butt; stroke-linejoin:round;">
	<!ENTITY st7 "fill:none;stroke:#000000;stroke-linecap:round;stroke-linejoin:round;">
	<!ENTITY st8 "enable-background:new    ;">
	<!-- Black fill -->
	<!ENTITY st9 "fill:#000000;stroke:#000000; stroke-linecap:round;stroke-linejoin:round;">
	<!-- SRS note   -->
	<!ENTITY st10 "font-size:9px;font-family:'ArialMT';">
	<!ENTITY st11 "font-size:9px;font-family:'Svg Symbol';">
	<!ENTITY st12 "font-size:6px;font-family:'Svg Symbol';">
	<!ENTITY st13 "fill:none;stroke:#ff0000;stroke-linecap:round;stroke-linejoin:round;">
	<!-- Yellow fill  -->
	<!ENTITY st14 "fill:#FFFF00;stroke:#FFFF00; stroke-width:0.1;stroke-linecap:round;stroke-linejoin:round;">
	<!ENTITY st15 "font-size:6px;font-family:'MS-PGothic';adobe-font-script:japanese;">
	<!ENTITY st16 "1.00 0.00 0.00 1.00">
	<!ENTITY st17 "0.00 -1.00 1.00 0.00">
	<!ENTITY st18 "font-size:6px;font-family:'Arial';">
	<!ENTITY st19 "font-size:9px;font-family:'Arial';">
	<!ENTITY st20 "font-size:6px;font-family:'MS-PGothic','MS PGothic';adobe-font-script:japanese;">
	<!ENTITY st21 "font-size:7px;font-family:'MS-PGothic','MS PGothic';adobe-font-script:japanese;">
	<!ATTLIST svg
		xmlns:ewd CDATA #FIXED "http://shcl.co.jp/ewd"
		xmlns:a CDATA #FIXED "http://ns.adobe.com/AdobeSVGViewerExtensions/3.0/"
		ewd:ver CDATA #IMPLIED
	>
	<!ATTLIST a
		ewd:lineID CDATA #IMPLIED
		ewd:groupID CDATA #IMPLIED
		ewd:figtype CDATA #IMPLIED
		ewd:code CDATA #IMPLIED
		ewd:figID CDATA #IMPLIED
		ewd:pinNo CDATA #IMPLIED
		ewd:comment CDATA #IMPLIED >
	<!ATTLIST g
		ewd:lineID CDATA #IMPLIED
		ewd:groupID CDATA #IMPLIED
		ewd:figtype CDATA #IMPLIED
		ewd:code CDATA #IMPLIED
		ewd:figID CDATA #IMPLIED
		ewd:pinNo CDATA #IMPLIED
		ewd:comment CDATA #IMPLIED >
	<!ATTLIST text
		ewd:textID CDATA #IMPLIED >
	<!ATTLIST title
		ewd:textID CDATA #IMPLIED >
]>
<!-- Generator: Shintec Hozumi YS   -->
<svg onload="call_execInitLoadProc_svg('system')" style="overflow:visible;  enable-background:new 0 0 1796.573 710.000" viewBox="0 0 1796.573 710.000" height="710.000" width="1796.573" xml:space="preserve" ewd:ver="2.1.2.9" xmlns="&ns_svg;" xmlns:a="http://ns.adobe.com/AdobeSVGViewerExtensions/3.0/" xmlns:ewd="http://shcl.co.jp/ewd" xmlns:xlink="&ns_xlink;">
<path style="stroke-width:1.42 ;&st7;  " d=" M   917.85,   375.72  L   909.35,   375.72  " /><path style="stroke-width:1.42 ;&st7;  " d=" M   960.34,   375.72  L   951.84,   375.72  " /><path style="stroke-width:1.42 ;&st7;  " d=" M   917.85,   227.72  L   912.87,   222.75  " /><path style="stroke-width:1.42 ;&st7;  " d=" M   900.85,   234.78  L   905.82,   239.75  " /><path style="stroke-width:1.42 ;&st7;  " d=" M   912.87,   239.75  L   917.85,   234.78  " /><path style="stroke-width:1.42 ;&st7;  " d=" M   905.82,   222.75  L   900.85,   227.72  " /><path style="stroke-width:1.42 ;&st7;  " d=" M   960.34,   253.22  L   955.37,   248.24  " /><path style="stroke-width:1.42 ;&st7;  " d=" M   943.34,   260.27  L   948.31,   265.24  " /><path style="stroke-width:1.42 ;&st7;  " d=" M   955.37,   265.24  L   960.34,   260.27  " /><path style="stroke-width:1.42 ;&st7;  " d=" M   948.31,   248.24  L   943.34,   253.22  " /><path style="stroke-width:1.42 ;&st7;  " d=" M   718.85,   392.72  L   713.88,   397.69  " /><path style="stroke-width:1.42 ;&st7;  " d=" M   725.91,   409.72  L   730.88,   404.75  " /><path style="stroke-width:1.42 ;&st7;  " d=" M   713.88,   404.75  L   718.85,   409.72  " /><path style="stroke-width:1.42 ;&st7;  " d=" M   730.88,   397.69  L   725.91,   392.72  " /><path style="stroke-width:1.42 ;&st7;  " d=" M   820.83,   579.69  L   815.86,   584.66  " /><path style="stroke-width:1.42 ;&st7;  " d=" M   827.89,   596.69  L   832.86,   591.72  " /><path style="stroke-width:1.42 ;&st7;  " d=" M   815.86,   591.72  L   820.83,   596.69  " /><path style="stroke-width:1.42 ;&st7;  " d=" M   832.86,   584.66  L   827.89,   579.69  " /><path style="stroke-width:1.42 ;&st7;  " d=" M   718.85,   579.69  L   713.88,   584.66  " /><path style="stroke-width:1.42 ;&st7;  " d=" M   725.91,   596.69  L   730.88,   591.72  " /><path style="stroke-width:1.42 ;&st7;  " d=" M   713.88,   591.72  L   718.85,   596.69  " /><path style="stroke-width:1.42 ;&st7;  " d=" M   730.88,   584.66  L   725.91,   579.69  " /><path style="stroke-width:1.42 ;&st7;  " d=" M   713.88,   341.73  L   722.38,   341.73  " /><path style="stroke-width:1.42 ;&st7;  " d=" M   620.40,   406.19  L   615.42,   401.22  " /><path style="stroke-width:1.42 ;&st7;  " d=" M   603.40,   413.25  L   608.37,   418.22  " /><path style="stroke-width:1.42 ;&st7;  " d=" M   615.42,   418.22  L   620.40,   413.25  " /><path style="stroke-width:1.42 ;&st7;  " d=" M   608.37,   401.22  L   603.40,   406.19  " /><path style="stroke-width:1.42 ;&st7;  " d=" M   620.40,   350.23  L   611.90,   350.23  " /><path style="stroke-width:1.42 ;&st7;  " d=" M   620.40,   265.24  L   611.90,   265.24  " /><path style="stroke-width:1.42 ;&st7;  " d=" M   832.86,   397.69  L   827.89,   392.72  " /><path style="stroke-width:1.42 ;&st7;  " d=" M   815.86,   404.75  L   820.83,   409.72  " /><path style="stroke-width:1.42 ;&st7;  " d=" M   827.89,   409.72  L   832.86,   404.75  " /><path style="stroke-width:1.42 ;&st7;  " d=" M   820.83,   392.72  L   815.86,   397.69  " /><path style="stroke-width:1.42 ;&st7;  " d=" M   824.36,   341.73  L   815.86,   341.73  " /><text style="&st18;" transform="matrix(&st17;  905.65  500.66 )">W-B</text><text style="&st18;" transform="matrix(&st17;  905.65  407.06 )">L-W</text><text style="&st18;" transform="matrix(&st17;  905.65  339.07 )">L-W</text><text style="&st18;" transform="matrix(&st17;  948.14  402.91 )">B</text><text style="&st18;" transform="matrix(&st17;  948.14  334.92 )">B</text><text style="&st18;" transform="matrix(&st16;  591.49  127.24 )">I29(B)</text><text style="&st18;" transform="matrix(&st17;  905.65  211.59 )">L-W</text><text style="&st18;" transform="matrix(&st17;  948.14  207.44 )">B</text><text style="&st18;" transform="matrix(&st16;  591.5  134.07 )" ewd:textID="23">Turn Signal Flasher Assembly</text><text style="&st18;" transform="matrix(&st17;  832.0  643.89 )">(*2)</text><text style="&st18;" transform="matrix(&st17;  820.67  645.13 )">W-B</text><text style="&st18;" transform="matrix(&st17;  730.02  643.89 )">(*2)</text><text style="&st18;" transform="matrix(&st17;  718.68  645.13 )">W-B</text><text style="&st18;" transform="matrix(&st17;  832.0  563.16 )">(*2)</text><text style="&st18;" transform="matrix(&st17;  820.67  564.4 )">W-B</text><text style="&st18;" transform="matrix(&st17;  730.02  563.16 )">(*2)</text><text style="&st18;" transform="matrix(&st17;  718.68  564.4 )">W-B</text><text style="&st18;" transform="matrix(&st17;  619.53  563.16 )">(*1)</text><text style="&st18;" transform="matrix(&st17;  608.2  564.4 )">W-B</text><text style="&st18;" transform="matrix(&st17;  832.0  427.18 )">(*3)</text><text style="&st18;" transform="matrix(&st17;  820.67  424.43 )">G</text><text style="&st18;" transform="matrix(&st17;  730.02  427.18 )">(*3)</text><text style="&st18;" transform="matrix(&st17;  718.68  424.43 )">G</text><text style="&st18;" transform="matrix(&st17;  619.53  435.68 )">(*3)</text><text style="&st18;" transform="matrix(&st17;  608.2  432.92 )">G</text><text style="&st18;" transform="matrix(&st17;  730.02  320.95 )">(*2)</text><text style="&st18;" transform="matrix(&st17;  718.68  321.68 )">G-Y</text><text style="&st18;" transform="matrix(&st17;  730.02  384.69 )">(*3)</text><text style="&st18;" transform="matrix(&st17;  718.68  381.93 )">G</text><text style="&st18;" transform="matrix(&st17;  608.2  386.18 )">G</text><text style="&st18;" transform="matrix(&st17;  619.53  388.93 )">(*3)</text><text style="&st18;" transform="matrix(&st17;  608.2  321.68 )">G-B</text><text style="&st18;" transform="matrix(&st17;  619.53  320.95 )">(*1)</text><text style="&st18;" transform="matrix(&st17;  820.67  321.68 )">G-B</text><text style="&st18;" transform="matrix(&st17;  832.0  320.95 )">(*2)</text><text style="&st18;" transform="matrix(&st17;  820.67  381.93 )">G</text><text style="&st18;" transform="matrix(&st17;  832.0  384.69 )">(*3)</text><text style="&st18;" transform="matrix(&st17;  846.16  403.18 )">G</text><text style="&st18;" transform="matrix(&st17;  857.49  405.93 )">(*6)</text><text style="&st18;" transform="matrix(&st17;  744.18  403.18 )">G</text><text style="&st18;" transform="matrix(&st17;  755.51  405.93 )">(*6)</text><text style="&st18;" transform="matrix(&st17;  633.7  403.18 )">G</text><text style="&st18;" transform="matrix(&st17;  645.03  405.93 )">(*6)</text><text style="&st18;" transform="matrix(&st16;  537.96  219.05 )">G-B</text><text style="&st18;" transform="matrix(&st16;  538.7  578.82 )">(*1)</text><text style="&st18;" transform="matrix(&st16;  537.46  567.49 )">W-B</text><text style="&st18;" transform="matrix(&st16;  538.7  306.87 )">(*2)</text><text style="&st18;" transform="matrix(&st16;  537.96  295.54 )">G-Y</text><g ewd:figtype="conn" ewd:figID="1" ewd:code="T1"><path style="stroke-width:0.85 ;&st7;  " d=" M   722.38,   498.95  L   722.38,   503.20  " /><path style="stroke-width:0.85 ;&st7;  " d=" M   722.38,   486.20  L   722.38,   490.45  " /><path style="stroke-width:1.42 ;&st7;   " d=" M   730.88,   494.70  C   730.88    490.01    727.07    486.20    722.38    486.20  " /><path style="stroke-width:1.42 ;&st7;   " d=" M   722.38,   486.20  C   717.69    486.20    713.88    490.01    713.88    494.70  " /><path style="stroke-width:1.42 ;&st7;   " d=" M   713.88,   494.70  C   713.88    499.40    717.69    503.20    722.38    503.20  " /><path style="stroke-width:1.42 ;&st7;   " d=" M   722.38,   503.20  C   727.07    503.20    730.88    499.40    730.88    494.70  " /><path style="stroke-width:0.85 ;&st7;   " d=" M   719.97,   494.70  C   720.76    496.04    722.49    496.49    723.83    495.69  " /><path style="stroke-width:0.85 ;&st7;   " d=" M   723.83,   495.69  C   725.17    494.90    725.61    493.18    724.82    491.84  " /><path style="stroke-width:0.85 ;&st7;   " d=" M   724.82,   491.84  C   724.30    490.95    723.41    490.45    722.38    490.45  " /><path style="stroke-width:0.85 ;&st7;   " d=" M   722.38,   498.95  C   723.93    498.96    725.20    497.71    725.21    496.15  " /><path style="stroke-width:0.85 ;&st7;   " d=" M   725.21,   496.15  C   725.22    494.60    723.97    493.33    722.41    493.32  " /><path style="stroke-width:0.85 ;&st7;   " d=" M   722.41,   493.32  C   721.38    493.31    720.50    493.81    719.97    494.70  " /><path style="stroke-width:0.85 ;&st7;  " d=" M   722.38,   503.20  L   722.38,   520.20  " /><path style="stroke-width:0.85 ;&st7;  " d=" M   722.38,   469.21  L   722.38,   486.20  " /><path style="stroke-width:1.42 ;&st7;  " d=" M   696.88,   469.21  L   747.87,   469.21  L   747.87,   520.20  L   696.88,   520.20  L   696.88,   469.21  " /><text style="&st18;" transform="matrix(&st16;  724.96  477.4 )">TRN</text><text style="&st18;" transform="matrix(&st16;  724.96  516.51 )">E</text><text style="&st18;" transform="matrix(&st17;  710.19  500.62 )" ewd:textID="20">Turn</text><text style="&st18;" transform="matrix(&st16;  713.69  526.7 )">5</text><text style="&st18;" transform="matrix(&st16;  720.19  526.7 )">B</text><path style="stroke-width:1.42 ;&st7;   " d=" M   726.91,   524.73  C   726.91    522.23    724.88    520.20    722.38    520.20  " /><path style="stroke-width:1.42 ;&st7;   " d=" M   722.38,   520.20  C   719.88    520.20    717.85    522.23    717.85    524.73  " /><path style="stroke-width:1.42 ;&st7;   " d=" M   717.85,   524.73  C   717.85    527.23    719.88    529.26    722.38    529.26  " /><path style="stroke-width:1.42 ;&st7;   " d=" M   722.38,   529.26  C   724.88    529.26    726.91    527.23    726.91    524.73  " /><text style="&st18;" transform="matrix(&st16;  713.69  466.64 )">2</text><text style="&st18;" transform="matrix(&st16;  720.19  466.64 )">B</text><path style="stroke-width:1.42 ;&st7;   " d=" M   726.91,   464.67  C   726.91    462.17    724.88    460.14    722.38    460.14  " /><path style="stroke-width:1.42 ;&st7;   " d=" M   722.38,   460.14  C   719.88    460.14    717.85    462.17    717.85    464.67  " /><path style="stroke-width:1.42 ;&st7;   " d=" M   717.85,   464.67  C   717.85    467.18    719.88    469.21    722.38    469.21  " /><path style="stroke-width:1.42 ;&st7;   " d=" M   722.38,   469.21  C   724.88    469.21    726.91    467.18    726.91    464.67  " /><g ewd:figtype="title"><text style="&st18;" transform="matrix(&st17;  687.24  523.1 )" ewd:textID="19">Rear Combination <tspan x="0 " dy="6.0">Light Assembly RH</tspan></text><text style="&st18;" transform="matrix(&st17;  680.41  523.1 )">T1(B)</text></g></g><g ewd:figtype="conn" ewd:figID="2" ewd:code="T5"><path style="stroke-width:0.85 ;&st7;  " d=" M   824.36,   498.95  L   824.36,   503.20  " /><path style="stroke-width:0.85 ;&st7;  " d=" M   824.36,   486.20  L   824.36,   490.45  " /><path style="stroke-width:1.42 ;&st7;   " d=" M   832.86,   494.70  C   832.86    490.01    829.06    486.20    824.36    486.20  " /><path style="stroke-width:1.42 ;&st7;   " d=" M   824.36,   486.20  C   819.67    486.20    815.86    490.01    815.86    494.70  " /><path style="stroke-width:1.42 ;&st7;   " d=" M   815.86,   494.70  C   815.86    499.40    819.67    503.20    824.36    503.20  " /><path style="stroke-width:1.42 ;&st7;   " d=" M   824.36,   503.20  C   829.06    503.20    832.86    499.40    832.86    494.70  " /><path style="stroke-width:0.85 ;&st7;   " d=" M   821.95,   494.70  C   822.75    496.04    824.47    496.49    825.81    495.69  " /><path style="stroke-width:0.85 ;&st7;   " d=" M   825.81,   495.69  C   827.15    494.90    827.60    493.18    826.80    491.84  " /><path style="stroke-width:0.85 ;&st7;   " d=" M   826.80,   491.84  C   826.28    490.95    825.40    490.45    824.36    490.45  " /><path style="stroke-width:0.85 ;&st7;   " d=" M   824.36,   498.95  C   825.92    498.96    827.19    497.71    827.20    496.15  " /><path style="stroke-width:0.85 ;&st7;   " d=" M   827.20,   496.15  C   827.20    494.60    825.95    493.33    824.40    493.32  " /><path style="stroke-width:0.85 ;&st7;   " d=" M   824.40,   493.32  C   823.36    493.31    822.48    493.81    821.96    494.70  " /><path style="stroke-width:0.85 ;&st7;  " d=" M   824.36,   486.20  L   824.36,   469.21  " /><path style="stroke-width:0.85 ;&st7;  " d=" M   824.36,   520.20  L   824.36,   503.20  " /><path style="stroke-width:1.42 ;&st7;  " d=" M   798.87,   469.21  L   849.86,   469.21  L   849.86,   520.20  L   798.87,   520.20  L   798.87,   469.21  " /><text style="&st18;" transform="matrix(&st16;  826.95  477.4 )">TRN</text><text style="&st18;" transform="matrix(&st16;  826.95  516.51 )">E</text><text style="&st18;" transform="matrix(&st17;  812.17  500.62 )" ewd:textID="20">Turn</text><text style="&st18;" transform="matrix(&st16;  815.67  526.7 )">5</text><text style="&st18;" transform="matrix(&st16;  822.17  526.7 )">B</text><path style="stroke-width:1.42 ;&st7;   " d=" M   828.89,   524.73  C   828.89    522.23    826.87    520.20    824.36    520.20  " /><path style="stroke-width:1.42 ;&st7;   " d=" M   824.36,   520.20  C   821.86    520.20    819.83    522.23    819.83    524.73  " /><path style="stroke-width:1.42 ;&st7;   " d=" M   819.83,   524.73  C   819.83    527.23    821.86    529.26    824.36    529.26  " /><path style="stroke-width:1.42 ;&st7;   " d=" M   824.36,   529.26  C   826.87    529.26    828.89    527.23    828.89    524.73  " /><text style="&st18;" transform="matrix(&st16;  815.67  466.64 )">2</text><text style="&st18;" transform="matrix(&st16;  822.17  466.64 )">B</text><path style="stroke-width:1.42 ;&st7;   " d=" M   828.89,   464.67  C   828.89    462.17    826.87    460.14    824.36    460.14  " /><path style="stroke-width:1.42 ;&st7;   " d=" M   824.36,   460.14  C   821.86    460.14    819.83    462.17    819.83    464.67  " /><path style="stroke-width:1.42 ;&st7;   " d=" M   819.83,   464.67  C   819.83    467.18    821.86    469.21    824.36    469.21  " /><path style="stroke-width:1.42 ;&st7;   " d=" M   824.36,   469.21  C   826.87    469.21    828.89    467.18    828.89    464.67  " /><g ewd:figtype="title"><text style="&st18;" transform="matrix(&st17;  789.22  523.1 )" ewd:textID="18">Rear Combination <tspan x="0 " dy="6.0">Light Assembly LH</tspan></text><text style="&st18;" transform="matrix(&st17;  782.4  523.1 )">T5(B)</text></g></g><g ewd:figtype="conn" ewd:figID="6" ewd:code="I29"><g ewd:lineID="50"><text style="&st18;" transform="matrix(&st16;  900.65  186.76 )">6</text><path style="stroke-width:1.42 ;&st7;   " d=" M   913.88,   184.79  C   913.88    182.28    911.85    180.26    909.35    180.26  " /><path style="stroke-width:1.42 ;&st7;   " d=" M   909.35,   180.26  C   906.84    180.26    904.82    182.28    904.82    184.79  " /><path style="stroke-width:1.42 ;&st7;   " d=" M   904.82,   184.79  C   904.82    187.29    906.84    189.32    909.35    189.32  " /><path style="stroke-width:1.42 ;&st7;   " d=" M   909.35,   189.32  C   911.85    189.32    913.88    187.29    913.88    184.79  " /><text style="&st18;" transform="matrix(&st16;  907.16  186.76 )">B</text><text style="&st18;" transform="matrix(&st16;  905.42  176.56 )">EL</text></g><g ewd:lineID="53"><text style="&st18;" transform="matrix(&st16;  943.15  186.76 )">5</text><path style="stroke-width:1.42 ;&st7;   " d=" M   956.37,   184.79  C   956.37    182.28    954.34    180.26    951.84    180.26  " /><path style="stroke-width:1.42 ;&st7;   " d=" M   951.84,   180.26  C   949.34    180.26    947.31    182.28    947.31    184.79  " /><path style="stroke-width:1.42 ;&st7;   " d=" M   947.31,   184.79  C   947.31    187.29    949.34    189.32    951.84    189.32  " /><path style="stroke-width:1.42 ;&st7;   " d=" M   951.84,   189.32  C   954.34    189.32    956.37    187.29    956.37    184.79  " /><text style="&st18;" transform="matrix(&st16;  949.65  186.76 )">B</text><text style="&st18;" transform="matrix(&st16;  947.87  176.56 )">ER</text></g></g><g ewd:figtype="conn" ewd:figID="10" ewd:code="T17"><path style="stroke-width:0.85 ;&st7;  " d=" M   611.90,   498.95  L   611.90,   503.20  " /><path style="stroke-width:0.85 ;&st7;  " d=" M   611.90,   486.20  L   611.90,   490.45  " /><path style="stroke-width:1.42 ;&st7;   " d=" M   620.40,   494.70  C   620.40    490.01    616.59    486.20    611.90    486.20  " /><path style="stroke-width:1.42 ;&st7;   " d=" M   611.90,   486.20  C   607.20    486.20    603.40    490.01    603.40    494.70  " /><path style="stroke-width:1.42 ;&st7;   " d=" M   603.40,   494.70  C   603.40    499.40    607.20    503.20    611.90    503.20  " /><path style="stroke-width:1.42 ;&st7;   " d=" M   611.90,   503.20  C   616.59    503.20    620.40    499.40    620.40    494.70  " /><path style="stroke-width:0.85 ;&st7;   " d=" M   609.49,   494.70  C   610.28    496.04    612.01    496.49    613.35    495.69  " /><path style="stroke-width:0.85 ;&st7;   " d=" M   613.35,   495.69  C   614.69    494.90    615.13    493.18    614.34    491.84  " /><path style="stroke-width:0.85 ;&st7;   " d=" M   614.34,   491.84  C   613.81    490.95    612.93    490.45    611.90    490.45  " /><path style="stroke-width:0.85 ;&st7;   " d=" M   611.90,   498.95  C   613.45    498.96    614.72    497.71    614.73    496.15  " /><path style="stroke-width:0.85 ;&st7;   " d=" M   614.73,   496.15  C   614.74    494.60    613.49    493.33    611.93    493.32  " /><path style="stroke-width:0.85 ;&st7;   " d=" M   611.93,   493.32  C   610.90    493.31    610.02    493.81    609.49    494.70  " /><path style="stroke-width:0.85 ;&st7;  " d=" M   611.90,   486.20  L   611.90,   469.21  " /><path style="stroke-width:0.85 ;&st7;  " d=" M   611.90,   520.20  L   611.90,   503.20  " /><path style="stroke-width:1.42 ;&st7;  " d=" M   586.40,   469.21  L   637.39,   469.21  L   637.39,   520.20  L   586.40,   520.20  L   586.40,   469.21  " /><text style="&st18;" transform="matrix(&st16;  614.48  477.4 )">TRN</text><text style="&st18;" transform="matrix(&st16;  614.48  516.51 )">E</text><text style="&st18;" transform="matrix(&st17;  599.7  500.62 )" ewd:textID="20">Turn</text><text style="&st18;" transform="matrix(&st16;  603.2  526.7 )">2</text><path style="stroke-width:1.42 ;&st7;   " d=" M   616.43,   524.73  C   616.43    522.23    614.40    520.20    611.90    520.20  " /><path style="stroke-width:1.42 ;&st7;   " d=" M   611.90,   520.20  C   609.39    520.20    607.37    522.23    607.37    524.73  " /><path style="stroke-width:1.42 ;&st7;   " d=" M   607.37,   524.73  C   607.37    527.23    609.39    529.26    611.90    529.26  " /><path style="stroke-width:1.42 ;&st7;   " d=" M   611.90,   529.26  C   614.40    529.26    616.43    527.23    616.43    524.73  " /><text style="&st18;" transform="matrix(&st16;  609.59  526.7 )">A</text><text style="&st18;" transform="matrix(&st16;  603.2  466.64 )">3</text><path style="stroke-width:1.42 ;&st7;   " d=" M   616.43,   464.67  C   616.43    462.17    614.40    460.14    611.90    460.14  " /><path style="stroke-width:1.42 ;&st7;   " d=" M   611.90,   460.14  C   609.39    460.14    607.37    462.17    607.37    464.67  " /><path style="stroke-width:1.42 ;&st7;   " d=" M   607.37,   464.67  C   607.37    467.18    609.39    469.21    611.90    469.21  " /><path style="stroke-width:1.42 ;&st7;   " d=" M   611.90,   469.21  C   614.40    469.21    616.43    467.18    616.43    464.67  " /><text style="&st18;" transform="matrix(&st16;  609.59  466.64 )">A</text><g ewd:figtype="title"><text style="&st18;" transform="matrix(&st17;  569.93  523.1 )">T17(A)</text><text style="&st18;" transform="matrix(&st17;  576.76  523.1 )" ewd:textID="18">Rear Combination <tspan x="0 " dy="6.0">Light Assembly LH</tspan></text></g></g><g ewd:figtype="conn" ewd:figID="11" ewd:code="L14"><path style="stroke-width:1.42 ;&st7;  " d=" M   892.35,   460.71  L   968.84,   460.71  L   968.84,   426.71  L   892.35,   426.71  L   892.35,   460.71  " /><g ewd:lineID="47"><text style="&st18;" transform="matrix(&st16;  900.65  467.21 )">4</text><path style="stroke-width:1.42 ;&st7;   " d=" M   913.88,   465.24  C   913.88    462.74    911.85    460.71    909.35    460.71  " /><path style="stroke-width:1.42 ;&st7;   " d=" M   909.35,   460.71  C   906.84    460.71    904.82    462.74    904.82    465.24  " /><path style="stroke-width:1.42 ;&st7;   " d=" M   904.82,   465.24  C   904.82    467.74    906.84    469.77    909.35    469.77  " /><path style="stroke-width:1.42 ;&st7;   " d=" M   909.35,   469.77  C   911.85    469.77    913.88    467.74    913.88    465.24  " /><text style="&st18;" transform="matrix(&st16;  907.04  467.21 )">A</text><text style="&st18;" transform="matrix(&st16;  907.24  457.01 )">E</text></g><g ewd:lineID="48"><text style="&st18;" transform="matrix(&st16;  900.65  424.15 )">1</text><text style="&st18;" transform="matrix(&st16;  907.04  424.15 )">A</text><path style="stroke-width:1.42 ;&st7;   " d=" M   913.88,   422.18  C   913.88    419.68    911.85    417.65    909.35    417.65  " /><path style="stroke-width:1.42 ;&st7;   " d=" M   909.35,   417.65  C   906.84    417.65    904.82    419.68    904.82    422.18  " /><path style="stroke-width:1.42 ;&st7;   " d=" M   904.82,   422.18  C   904.82    424.68    906.84    426.71    909.35    426.71  " /><path style="stroke-width:1.42 ;&st7;   " d=" M   909.35,   426.71  C   911.85    426.71    913.88    424.68    913.88    422.18  " /><text style="&st18;" transform="matrix(&st16;  905.34  434.35 )">TL</text></g><g ewd:lineID="51"><text style="&st18;" transform="matrix(&st16;  943.15  424.15 )">2</text><text style="&st18;" transform="matrix(&st16;  949.54  424.15 )">A</text><path style="stroke-width:1.42 ;&st7;   " d=" M   956.37,   422.18  C   956.37    419.68    954.34    417.65    951.84    417.65  " /><path style="stroke-width:1.42 ;&st7;   " d=" M   951.84,   417.65  C   949.34    417.65    947.31    419.68    947.31    422.18  " /><path style="stroke-width:1.42 ;&st7;   " d=" M   947.31,   422.18  C   947.31    424.68    949.34    426.71    951.84    426.71  " /><path style="stroke-width:1.42 ;&st7;   " d=" M   951.84,   426.71  C   954.34    426.71    956.37    424.68    956.37    422.18  " /><text style="&st18;" transform="matrix(&st16;  947.79  434.35 )">TR</text></g><g ewd:figtype="title"><text style="&st18;" transform="matrix(&st17;  983.56  463.61 )" ewd:textID="10">Hazard Warning Signal Switch Assembly</text><text style="&st18;" transform="matrix(&st17;  976.73  463.61 )">L14(A)</text></g></g><g ewd:figtype="w2w" ewd:figID="35" ewd:code="ST2"><path style="stroke-width:1.42 ;&st7;  " d=" M   616.15,   359.29  L   611.90,   355.04  L   607.65,   359.29  " /><path style="stroke-width:1.42 ;&st7;  " d=" M   616.15,   355.89  L   611.90,   351.64  L   607.65,   355.89  " /><text style="&st18;" transform="matrix(&st16;  596.16  347.95 )">10</text></g><g ewd:figtype="w2w" ewd:figID="36" ewd:code="IS1"><path style="stroke-width:1.42 ;&st7;  " d=" M   616.15,   270.91  L   611.90,   266.66  L   607.65,   270.91  " /><path style="stroke-width:1.42 ;&st7;  " d=" M   616.15,   274.31  L   611.90,   270.06  L   607.65,   274.31  " /><text style="&st18;" transform="matrix(&st16;  596.16  262.96 )">20</text></g><g ewd:figtype="w2w" ewd:figID="37" ewd:code="TS2"><path style="stroke-width:1.42 ;&st7;  " d=" M   726.63,   336.06  L   722.38,   340.31  L   718.13,   336.06  " /><path style="stroke-width:1.42 ;&st7;  " d=" M   718.13,   332.66  L   722.38,   336.91  L   726.63,   332.66  " /><text style="&st18;" transform="matrix(&st16;  709.75  347.95 )">5</text></g><g ewd:figtype="w2w" ewd:figID="38" ewd:code="TS2"><path style="stroke-width:1.42 ;&st7;  " d=" M   828.61,   336.06  L   824.36,   340.31  L   820.11,   336.06  " /><path style="stroke-width:1.42 ;&st7;  " d=" M   820.11,   332.66  L   824.36,   336.91  L   828.61,   332.66  " /><text style="&st18;" transform="matrix(&st16;  811.73  347.95 )">4</text></g><g ewd:figtype="w2w" ewd:figID="39" ewd:code="IL1"><path style="stroke-width:1.42 ;&st7;  " d=" M   913.60,   384.79  L   909.35,   380.54  L   905.10,   384.79  " /><path style="stroke-width:1.42 ;&st7;  " d=" M   913.60,   381.39  L   909.35,   377.14  L   905.10,   381.39  " /><text style="&st18;" transform="matrix(&st16;  893.61  373.44 )">24</text></g><g ewd:figtype="w2w" ewd:figID="40" ewd:code="IL1"><path style="stroke-width:1.42 ;&st7;  " d=" M   956.09,   384.79  L   951.84,   380.54  L   947.59,   384.79  " /><path style="stroke-width:1.42 ;&st7;  " d=" M   956.09,   381.39  L   951.84,   377.14  L   947.59,   381.39  " /><text style="&st18;" transform="matrix(&st16;  936.11  373.44 )">46</text></g><g ewd:figtype="gp" ewd:figID="47" ewd:code="TC"><path style="stroke-width:0.85 ;&st7;  " d=" M   610.48,   710.00  L   613.31,   710.00  " /><path style="stroke-width:0.85 ;&st7;  " d=" M   609.06,   707.17  L   614.73,   707.17  " /><path style="stroke-width:0.85 ;&st7;  " d=" M   607.65,   704.33  L   616.15,   704.33  " /><path style="stroke-width:0.85 ;&st7;  " d=" M   603.40,   701.50  L   620.40,   701.50  " /><path style="stroke-width:0.85 ;&st7;  " d=" M   611.90,   697.25  L   611.90,   701.50  " /></g><g ewd:figtype="gp" ewd:figID="48" ewd:code="TA"><path style="stroke-width:0.85 ;&st7;  " d=" M   720.96,   710.00  L   723.80,   710.00  " /><path style="stroke-width:0.85 ;&st7;  " d=" M   719.55,   707.17  L   725.21,   707.17  " /><path style="stroke-width:0.85 ;&st7;  " d=" M   718.13,   704.33  L   726.63,   704.33  " /><path style="stroke-width:0.85 ;&st7;  " d=" M   713.88,   701.50  L   730.88,   701.50  " /><path style="stroke-width:0.85 ;&st7;  " d=" M   722.38,   697.25  L   722.38,   701.50  " /></g><g ewd:figtype="gp" ewd:figID="49" ewd:code="LB"><path style="stroke-width:0.85 ;&st7;  " d=" M   909.35,   697.25  L   909.35,   701.50  " /><path style="stroke-width:0.85 ;&st7;  " d=" M   900.85,   701.50  L   917.85,   701.50  " /><path style="stroke-width:0.85 ;&st7;  " d=" M   905.10,   704.33  L   913.60,   704.33  " /><path style="stroke-width:0.85 ;&st7;  " d=" M   906.51,   707.17  L   912.18,   707.17  " /><path style="stroke-width:0.85 ;&st7;  " d=" M   907.93,   710.00  L   910.76,   710.00  " /></g><g ewd:code="1" ewd:figID="73" ewd:comment="" ewd:figtype="comment"><text style="&st18;" transform="matrix(&st16;  863.45  37.75 )" ewd:textID="1">* 1 :Pick-Up Body Type</text></g><g ewd:code="6" ewd:figID="70" ewd:comment="" ewd:figtype="comment"><text style="&st18;" transform="matrix(&st16;  863.45  63.24 )" ewd:textID="4">* 6 :w/o Trailer Socket</text></g><g ewd:code="2" ewd:figID="72" ewd:comment="" ewd:figtype="comment"><text style="&st18;" transform="matrix(&st16;  863.45  46.25 )" ewd:textID="2">* 2 :Except Pick-Up Body Type</text></g><g ewd:code="3" ewd:figID="71" ewd:comment="" ewd:figtype="comment"><text style="&st18;" transform="matrix(&st16;  863.45  54.75 )" ewd:textID="3">* 3 :w/ Trailer Socket</text></g></svg>