<?xml version="1.0" encoding="utf-8"?>
<!DOCTYPE svg PUBLIC "-//W3C//DTD SVG 1.0//EN" "http://www.w3.org/TR/2001/REC-SVG-20010904/DTD/svg10.dtd"[
	<!ENTITY ns_flows "http://ns.adobe.com/Flows/1.0/">
	<!ENTITY ns_svg "http://www.w3.org/2000/svg">
	<!ENTITY ns_xlink "http://www.w3.org/1999/xlink">
	<!ENTITY st0 "font-size:7px;font-family:'MS-PGothic';adobe-font-script:japanese;">
	<!ENTITY st1 "font-size:6px;font-family:'ArialMT';">
	<!-- White fill  -->
	<!ENTITY st2 "fill:#FFFFFF;stroke:#000000; stroke-width:1.41;stroke-linecap:round;stroke-linejoin:round;">
	<!-- Yellow fill  -->
	<!ENTITY st3 "fill:#FFFFCC;stroke:#FFFFCC; stroke-width:0.1;stroke-linecap:round;stroke-linejoin:round;">
	<!-- Gray fill  -->
	<!ENTITY st4 "fill:#CCCCCC;stroke:#CCCCCC; stroke-width:0.1;stroke-linecap:round;stroke-linejoin:round;">
	<!-- Light-blue fill -->
	<!ENTITY st5 "fill:#CCECF4;stroke:#000000; stroke-width:1.133;stroke-linecap:round;stroke-linejoin:round;">
	<!ENTITY st6 "fill:none;stroke-linecap:butt; stroke-linejoin:round;">
	<!ENTITY st7 "fill:none;stroke:#000000;stroke-linecap:round;stroke-linejoin:round;">
	<!ENTITY st8 "enable-background:new    ;">
	<!-- Black fill -->
	<!ENTITY st9 "fill:#000000;stroke:#000000; stroke-linecap:round;stroke-linejoin:round;">
	<!-- SRS note   -->
	<!ENTITY st10 "font-size:9px;font-family:'ArialMT';">
	<!ENTITY st11 "font-size:9px;font-family:'Svg Symbol';">
	<!ENTITY st12 "font-size:6px;font-family:'Svg Symbol';">
	<!ENTITY st13 "fill:none;stroke:#ff0000;stroke-linecap:round;stroke-linejoin:round;">
	<!-- Yellow fill  -->
	<!ENTITY st14 "fill:#FFFF00;stroke:#FFFF00; stroke-width:0.1;stroke-linecap:round;stroke-linejoin:round;">
	<!ENTITY st15 "font-size:6px;font-family:'MS-PGothic';adobe-font-script:japanese;">
	<!ENTITY st16 "1.00 0.00 0.00 1.00">
	<!ENTITY st17 "0.00 -1.00 1.00 0.00">
	<!ENTITY st18 "font-size:6px;font-family:'Arial';">
	<!ENTITY st19 "font-size:9px;font-family:'Arial';">
	<!ENTITY st20 "font-size:6px;font-family:'MS-PGothic','MS PGothic';adobe-font-script:japanese;">
	<!ENTITY st21 "font-size:7px;font-family:'MS-PGothic','MS PGothic';adobe-font-script:japanese;">
	<!ATTLIST svg
		xmlns:ewd CDATA #FIXED "http://shcl.co.jp/ewd"
		xmlns:a CDATA #FIXED "http://ns.adobe.com/AdobeSVGViewerExtensions/3.0/"
		ewd:ver CDATA #IMPLIED
	>
	<!ATTLIST a
		ewd:lineID CDATA #IMPLIED
		ewd:groupID CDATA #IMPLIED
		ewd:figtype CDATA #IMPLIED
		ewd:code CDATA #IMPLIED
		ewd:figID CDATA #IMPLIED
		ewd:pinNo CDATA #IMPLIED
		ewd:comment CDATA #IMPLIED >
	<!ATTLIST g
		ewd:lineID CDATA #IMPLIED
		ewd:groupID CDATA #IMPLIED
		ewd:figtype CDATA #IMPLIED
		ewd:code CDATA #IMPLIED
		ewd:figID CDATA #IMPLIED
		ewd:pinNo CDATA #IMPLIED
		ewd:comment CDATA #IMPLIED >
	<!ATTLIST text
		ewd:textID CDATA #IMPLIED >
	<!ATTLIST title
		ewd:textID CDATA #IMPLIED >
]>
<!-- Generator: Shintec Hozumi YS   -->
<svg onload="call_execInitLoadProc_svg('system')" style="overflow:visible;  enable-background:new 0 0 1999.816 710.000" viewBox="0 0 1999.816 710.000" height="710.000" width="1999.816" xml:space="preserve" ewd:ver="2.1.2.9" xmlns="&ns_svg;" xmlns:a="http://ns.adobe.com/AdobeSVGViewerExtensions/3.0/" xmlns:ewd="http://shcl.co.jp/ewd" xmlns:xlink="&ns_xlink;">
<text style="&st18;" transform="matrix(&st17;  778.17  117.72 )">G-B</text><text style="&st18;" transform="matrix(&st17;  744.18  117.72 )">G-Y</text><text style="&st18;" transform="matrix(&st17;  967.98  297.0 )">(*17)</text><text style="&st18;" transform="matrix(&st17;  967.98  398.98 )">(*17)</text><text style="&st18;" transform="matrix(&st17;  967.98  500.97 )">(*17)</text><text style="&st18;" transform="matrix(&st17;  967.98  619.95 )">(*17)</text><text style="&st18;" transform="matrix(&st17;  956.64  619.64 )">W-B</text><text style="&st18;" transform="matrix(&st16;  656.13  553.33 )">(*14)</text><text style="&st18;" transform="matrix(&st16;  657.02  542.0 )">G-R</text><text style="&st18;" transform="matrix(&st16;  596.64  672.31 )">(*15)</text><text style="&st18;" transform="matrix(&st16;  596.95  660.98 )">W-B</text><text style="&st18;" transform="matrix(&st16;  596.95  567.49 )">W-B</text><text style="&st18;" transform="matrix(&st16;  596.64  578.82 )">(*15)</text><text style="&st18;" transform="matrix(&st16;  903.4  236.05 )">G-B</text><text style="&st18;" transform="matrix(&st17;  854.66  296.19 )">G-B</text><text style="&st18;" transform="matrix(&st17;  956.64  296.19 )">G-B</text><text style="&st18;" transform="matrix(&st17;  956.64  398.17 )">G-B</text><text style="&st18;" transform="matrix(&st17;  854.66  398.17 )">G-B</text><text style="&st18;" transform="matrix(&st17;  956.64  500.66 )">W-B</text><text style="&st18;" transform="matrix(&st17;  854.66  500.66 )">W-B</text><text style="&st18;" transform="matrix(&st17;  854.66  619.64 )">W-B</text><text style="&st18;" transform="matrix(&st17;  585.54  619.95 )">(*14)</text><text style="&st18;" transform="matrix(&st17;  574.21  619.64 )">W-B</text><text style="&st18;" transform="matrix(&st17;  585.54  458.47 )">(*15)</text><text style="&st18;" transform="matrix(&st17;  574.21  457.58 )">G-R</text><text style="&st18;" transform="matrix(&st17;  645.03  458.47 )">(*15)</text><text style="&st18;" transform="matrix(&st17;  633.7  457.58 )">G-R</text><text style="&st18;" transform="matrix(&st17;  684.69  372.6 )">G-R</text><text style="&st18;" transform="matrix(&st17;  778.17  177.21 )">G-B</text><text style="&st18;" transform="matrix(&st17;  744.18  177.21 )">G-Y</text><text style="&st18;" transform="matrix(&st17;  582.71  114.23 )">G</text><text style="&st18;" transform="matrix(&st17;  684.69  173.72 )">G</text><text style="&st18;" transform="matrix(&st17;  582.71  182.22 )">G</text><path style="stroke-width:1.42 ;&st7;  " d=" M   620.40,   613.68  L   628.89,   613.68  " /><path style="stroke-width:1.42 ;&st7;  " d=" M   756.37,   146.26  L   747.88,   146.26  " /><path style="stroke-width:1.42 ;&st7;  " d=" M   951.84,   333.23  L   960.34,   333.23  " /><path style="stroke-width:1.42 ;&st7;  " d=" M   849.86,   350.23  L   858.36,   350.23  " /><path style="stroke-width:1.42 ;&st7;  " d=" M   586.40,   426.71  L   577.90,   426.71  " /><path style="stroke-width:1.42 ;&st7;  " d=" M   790.37,   146.26  L   781.87,   146.26  " /><path style="stroke-width:1.42 ;&st7;  " d=" M   696.88,   146.26  L   688.38,   146.26  " /><path style="stroke-width:1.42 ;&st7;  " d=" M   594.90,   154.76  L   586.40,   154.76  " /><path style="stroke-width:1.42 ;&st7;  " d=" M   956.81,   231.25  L   951.84,   236.22  " /><path style="stroke-width:1.42 ;&st7;  " d=" M   963.87,   248.24  L   968.84,   243.27  " /><path style="stroke-width:1.42 ;&st7;  " d=" M   951.84,   243.27  L   956.81,   248.24  " /><path style="stroke-width:1.42 ;&st7;  " d=" M   968.84,   236.22  L   963.87,   231.25  " /><path style="stroke-width:1.42 ;&st7;  " d=" M   854.83,   231.25  L   849.86,   236.22  " /><path style="stroke-width:1.42 ;&st7;  " d=" M   861.88,   248.24  L   866.86,   243.27  " /><path style="stroke-width:1.42 ;&st7;  " d=" M   849.86,   243.27  L   854.83,   248.24  " /><path style="stroke-width:1.42 ;&st7;  " d=" M   866.86,   236.22  L   861.88,   231.25  " /><text style="&st18;" transform="matrix(&st16;  549.0  349.62 )">L25(A),L26(B),L50(C)</text><text style="&st18;" transform="matrix(&st16;  549.0  356.45 )" ewd:textID="12">Combination Meter Assembly</text><g ewd:figtype="conn" ewd:figID="1" ewd:code="L32,L34"><path style="stroke-width:0.85 ;&st7;  " d=" M   688.38,   477.71  L   688.38,   494.70  " /><path style="stroke-width:1.42 ;&st7;  " d=" M   679.89,   494.70  L   696.88,   494.70  L   696.88,   477.71  L   679.89,   477.71  L   679.89,   494.70  " /><text style="&st18;" transform="matrix(&st16;  679.69  501.2 )">2</text><text style="&st18;" transform="matrix(&st16;  676.59  510.27 )">17</text><path style="stroke-width:1.42 ;&st7;   " d=" M   692.92,   499.24  C   692.92    496.73    690.89    494.70    688.38    494.70  " /><path style="stroke-width:1.42 ;&st7;   " d=" M   688.38,   494.70  C   685.88    494.70    683.85    496.73    683.85    499.24  " /><path style="stroke-width:1.42 ;&st7;   " d=" M   683.85,   499.24  C   683.85    501.74    685.88    503.77    688.38    503.77  " /><path style="stroke-width:1.42 ;&st7;   " d=" M   688.38,   503.77  C   690.89    503.77    692.92    501.74    692.92    499.24  " /><path style="stroke-width:1.42 ;&st7;   " d=" M   692.92,   508.30  C   692.92    505.80    690.89    503.77    688.38    503.77  " /><path style="stroke-width:1.42 ;&st7;   " d=" M   688.38,   503.77  C   685.88    503.77    683.85    505.80    683.85    508.30  " /><path style="stroke-width:1.42 ;&st7;   " d=" M   683.85,   508.30  C   683.85    510.80    685.88    512.83    688.38    512.83  " /><path style="stroke-width:1.42 ;&st7;   " d=" M   688.38,   512.83  C   690.89    512.83    692.92    510.80    692.92    508.30  " /><text style="&st18;" transform="matrix(&st16;  686.08  501.2 )">A</text><text style="&st18;" transform="matrix(&st16;  686.2  510.27 )">B</text><text style="&st18;" transform="matrix(&st16;  676.59  475.14 )">16</text><text style="&st18;" transform="matrix(&st16;  679.69  466.08 )">1</text><path style="stroke-width:1.42 ;&st7;   " d=" M   692.92,   473.17  C   692.92    470.67    690.89    468.64    688.38    468.64  " /><path style="stroke-width:1.42 ;&st7;   " d=" M   688.38,   468.64  C   685.88    468.64    683.85    470.67    683.85    473.17  " /><path style="stroke-width:1.42 ;&st7;   " d=" M   683.85,   473.17  C   683.85    475.68    685.88    477.71    688.38    477.71  " /><path style="stroke-width:1.42 ;&st7;   " d=" M   688.38,   477.71  C   690.89    477.71    692.92    475.68    692.92    473.17  " /><path style="stroke-width:1.42 ;&st7;   " d=" M   692.92,   464.11  C   692.92    461.60    690.89    459.58    688.38    459.58  " /><path style="stroke-width:1.42 ;&st7;   " d=" M   688.38,   459.58  C   685.88    459.58    683.85    461.60    683.85    464.11  " /><path style="stroke-width:1.42 ;&st7;   " d=" M   683.85,   464.11  C   683.85    466.61    685.88    468.64    688.38    468.64  " /><path style="stroke-width:1.42 ;&st7;   " d=" M   688.38,   468.64  C   690.89    468.64    692.92    466.61    692.92    464.11  " /><text style="&st18;" transform="matrix(&st16;  686.08  466.08 )">A</text><text style="&st18;" transform="matrix(&st16;  686.2  475.14 )">B</text><g ewd:figtype="title"><text style="&st18;" transform="matrix(&st17;  652.37  497.6 )">L34(A)</text><text style="&st18;" transform="matrix(&st17;  659.19  497.61 )" ewd:textID="22">No. 26 Junction Connector</text><text style="&st18;" transform="matrix(&st17;  666.53  497.6 )">L32(B)</text><text style="&st18;" transform="matrix(&st17;  673.36  497.61 )" ewd:textID="20">No. 24 Junction Connector</text></g><g ewd:code="" ewd:figID="128" ewd:comment="" ewd:figtype="commref"><text style="&st18;" transform="matrix(&st16;  693.48  466.08 )">(LHD)</text></g><g ewd:code="" ewd:figID="129" ewd:comment="" ewd:figtype="commref"><text style="&st18;" transform="matrix(&st16;  693.48  475.14 )">(RHD)</text></g><g ewd:code="" ewd:figID="140" ewd:comment="" ewd:figtype="commref"><text style="&st18;" transform="matrix(&st16;  693.48  510.27 )">(RHD)</text></g><g ewd:code="" ewd:figID="141" ewd:comment="" ewd:figtype="commref"><text style="&st18;" transform="matrix(&st16;  693.48  501.2 )">(LHD)</text></g></g><g ewd:figtype="conn" ewd:figID="2" ewd:code="L14,M1"><path style="stroke-width:1.42 ;&st7;  " d=" M   560.91,   537.20  L   594.90,   537.20  L   594.90,   503.20  L   560.91,   503.20  L   560.91,   537.20  " /><g ewd:comment="14,15" ewd:lineID="20,22"><text style="&st18;" transform="matrix(&st16;  569.21  543.7 )">6</text><text style="&st18;" transform="matrix(&st16;  569.21  552.76 )">6</text><text style="&st18;" transform="matrix(&st16;  575.72  552.76 )">B</text><path style="stroke-width:1.42 ;&st7;   " d=" M   582.44,   550.79  C   582.44    548.29    580.41    546.26    577.90    546.26  " /><path style="stroke-width:1.42 ;&st7;   " d=" M   577.90,   546.26  C   575.40    546.26    573.37    548.29    573.37    550.79  " /><path style="stroke-width:1.42 ;&st7;   " d=" M   573.37,   550.79  C   573.37    553.30    575.40    555.33    577.90    555.33  " /><path style="stroke-width:1.42 ;&st7;   " d=" M   577.90,   555.33  C   580.41    555.33    582.44    553.30    582.44    550.79  " /><path style="stroke-width:1.42 ;&st7;   " d=" M   582.44,   541.73  C   582.44    539.22    580.41    537.20    577.90    537.20  " /><path style="stroke-width:1.42 ;&st7;   " d=" M   577.90,   537.20  C   575.40    537.20    573.37    539.22    573.37    541.73  " /><path style="stroke-width:1.42 ;&st7;   " d=" M   573.37,   541.73  C   573.37    544.23    575.40    546.26    577.90    546.26  " /><path style="stroke-width:1.42 ;&st7;   " d=" M   577.90,   546.26  C   580.41    546.26    582.44    544.23    582.44    541.73  " /><text style="&st18;" transform="matrix(&st16;  575.6  543.7 )">A</text><text style="&st18;" transform="matrix(&st16;  575.79  533.5 )">E</text><g ewd:code="" ewd:figID="92" ewd:comment="14" ewd:figtype="commref"><text style="&st18;" transform="matrix(&st16;  583.0  543.7 )">(*14)</text></g><g ewd:code="" ewd:figID="93" ewd:comment="15" ewd:figtype="commref"><text style="&st18;" transform="matrix(&st16;  583.0  552.76 )">(*15)</text></g></g><g ewd:comment="14,15" ewd:lineID="23,24"><text style="&st18;" transform="matrix(&st16;  569.21  500.64 )">5</text><text style="&st18;" transform="matrix(&st16;  569.21  491.57 )">5</text><text style="&st18;" transform="matrix(&st16;  575.6  491.57 )">A</text><text style="&st18;" transform="matrix(&st16;  575.72  500.64 )">B</text><path style="stroke-width:1.42 ;&st7;   " d=" M   582.44,   498.67  C   582.44    496.17    580.41    494.14    577.90    494.14  " /><path style="stroke-width:1.42 ;&st7;   " d=" M   577.90,   494.14  C   575.40    494.14    573.37    496.17    573.37    498.67  " /><path style="stroke-width:1.42 ;&st7;   " d=" M   573.37,   498.67  C   573.37    501.17    575.40    503.20    577.90    503.20  " /><path style="stroke-width:1.42 ;&st7;   " d=" M   577.90,   503.20  C   580.41    503.20    582.44    501.17    582.44    498.67  " /><path style="stroke-width:1.42 ;&st7;   " d=" M   582.44,   489.60  C   582.44    487.10    580.41    485.07    577.90    485.07  " /><path style="stroke-width:1.42 ;&st7;   " d=" M   577.90,   485.07  C   575.40    485.07    573.37    487.10    573.37    489.60  " /><path style="stroke-width:1.42 ;&st7;   " d=" M   573.37,   489.60  C   573.37    492.11    575.40    494.14    577.90    494.14  " /><path style="stroke-width:1.42 ;&st7;   " d=" M   577.90,   494.14  C   580.41    494.14    582.44    492.11    582.44    489.60  " /><text style="&st18;" transform="matrix(&st16;  575.79  510.84 )">F</text><g ewd:code="" ewd:figID="94" ewd:comment="14" ewd:figtype="commref"><text style="&st18;" transform="matrix(&st16;  583.0  491.57 )">(*14)</text></g><g ewd:code="" ewd:figID="95" ewd:comment="15" ewd:figtype="commref"><text style="&st18;" transform="matrix(&st16;  583.0  500.64 )">(*15)</text></g></g><g ewd:figtype="title"><text style="&st18;" transform="matrix(&st17;  538.49  540.09 )">L14(A),M1(B)</text><text style="&st18;" transform="matrix(&st17;  545.31  540.1 )" ewd:textID="14">Hazard Warning <tspan x="0 " dy="6.0">Signal Switch </tspan><tspan x="0 " dy="6.0">Assembly</tspan></text></g></g><g ewd:figtype="rb" ewd:figID="3" ewd:code="FUSE51"><text style="&st18;" transform="matrix(&st16;  578.36  32.08 )">(BAT)</text><text style="&st18;" transform="matrix(&st16;  580.22  86.47 )">2</text><text style="&st18;" transform="matrix(&st16;  584.6  101.49 )">4</text><text style="&st18;" transform="matrix(&st16;  602.83  56.17 )">15A <tspan x="0 " dy="6.0">TURN&amp;HAZ</tspan></text><path style="stroke-width:0.28 ;&st9;  " d=" M   586.40,    90.37  L   583.57,    87.54  L   583.57,    91.79  L   586.40,    94.62  L   589.23,    91.79  L   589.23,    87.54  L   586.40,    90.37  " /><path style="stroke-width:1.42 ;&st7;   " d=" M   592.78,    99.52  C   592.78     97.17    590.87     95.27    588.53     95.27  " /><path style="stroke-width:1.42 ;&st7;   " d=" M   588.53,   103.77  C   590.87    103.77    592.78    101.87    592.78     99.52  " /><path style="stroke-width:1.42 ;&st7;   " d=" M   580.03,    99.52  C   580.03    101.87    581.93    103.77    584.28    103.77  " /><path style="stroke-width:1.42 ;&st7;   " d=" M   584.28,    95.27  C   581.93     95.27    580.03     97.17    580.03     99.52  " /><path style="stroke-width:0.85 ;&st7;  " d=" M   586.40,    78.27  L   586.40,    95.27  " /><path style="stroke-width:1.42 ;&st7;  " d=" M   588.53,   103.77  L   584.28,   103.77  " /><path style="stroke-width:1.42 ;&st7;  " d=" M   588.53,    95.27  L   584.28,    95.27  " /><path style="stroke-width:1.42 ;&st7;  " d=" M   573.65,    35.78  L   573.65,    78.27  L   599.15,    78.27  L   599.15,    35.78  L   573.65,    35.78  " /><path style="stroke-width:0.85 ;&st7;   " d=" M   587.82,    68.36  C   587.82     67.57    587.18     66.94    586.40     66.94  " /><path style="stroke-width:0.85 ;&st7;   " d=" M   586.40,    66.94  C   585.62     66.94    584.99     67.57    584.99     68.36  " /><path style="stroke-width:0.85 ;&st7;   " d=" M   584.99,    68.36  C   584.99     69.14    585.62     69.77    586.40     69.77  " /><path style="stroke-width:0.85 ;&st7;   " d=" M   586.40,    69.77  C   587.18     69.77    587.82     69.14    587.82     68.36  " /><path style="stroke-width:0.85 ;&st7;   " d=" M   587.82,    45.69  C   587.82     44.91    587.18     44.28    586.40     44.28  " /><path style="stroke-width:0.85 ;&st7;   " d=" M   586.40,    44.28  C   585.62     44.28    584.99     44.91    584.99     45.69  " /><path style="stroke-width:0.85 ;&st7;   " d=" M   584.99,    45.69  C   584.99     46.48    585.62     47.11    586.40     47.11  " /><path style="stroke-width:0.85 ;&st7;   " d=" M   586.40,    47.11  C   587.18     47.11    587.82     46.48    587.82     45.69  " /><path style="stroke-width:1.42 ;&st7;   " d=" M   586.40,    66.94  C   589.14     65.33    590.05     61.80    588.44     59.06  " /><path style="stroke-width:1.42 ;&st7;   " d=" M   588.44,    59.06  C   587.92     58.18    587.28     57.55    586.40     57.03  " /><path style="stroke-width:1.42 ;&st7;   " d=" M   586.40,    47.11  C   583.66     48.72    582.75     52.25    584.37     54.99  " /><path style="stroke-width:1.42 ;&st7;   " d=" M   584.37,    54.99  C   584.88     55.87    585.52     56.51    586.40     57.03  " /><path style="stroke-width:0.85 ;&st7;  " d=" M   586.40,    69.77  L   586.40,    78.27  " /></g><g ewd:code="A22" ewd:figID="9" ewd:comment="3,6,11" ewd:figtype="conn"><path style="stroke-width:0.85 ;&st7;  " d=" M   858.36,   554.19  L   858.36,   537.20  " /><path style="stroke-width:1.42 ;&st7;  " d=" M   849.86,   554.19  L   866.85,   554.19  L   866.85,   537.20  L   849.86,   537.20  L   849.86,   554.19  " /><text style="&st18;" transform="matrix(&st16;  849.66  560.69 )">2</text><text style="&st18;" transform="matrix(&st16;  849.66  578.82 )">3</text><text style="&st18;" transform="matrix(&st16;  849.66  569.76 )">4</text><text style="&st18;" transform="matrix(&st16;  856.05  578.82 )">A</text><path style="stroke-width:1.42 ;&st7;   " d=" M   862.89,   567.79  C   862.89    565.29    860.86    563.26    858.36    563.26  " /><path style="stroke-width:1.42 ;&st7;   " d=" M   858.36,   563.26  C   855.85    563.26    853.82    565.29    853.82    567.79  " /><path style="stroke-width:1.42 ;&st7;   " d=" M   853.82,   567.79  C   853.82    570.29    855.85    572.32    858.36    572.32  " /><path style="stroke-width:1.42 ;&st7;   " d=" M   858.36,   572.32  C   860.86    572.32    862.89    570.29    862.89    567.79  " /><path style="stroke-width:1.42 ;&st7;   " d=" M   862.89,   576.86  C   862.89    574.35    860.86    572.32    858.36    572.32  " /><path style="stroke-width:1.42 ;&st7;   " d=" M   858.36,   572.32  C   855.85    572.32    853.82    574.35    853.82    576.86  " /><path style="stroke-width:1.42 ;&st7;   " d=" M   853.82,   576.86  C   853.82    579.36    855.85    581.39    858.36    581.39  " /><path style="stroke-width:1.42 ;&st7;   " d=" M   858.36,   581.39  C   860.86    581.39    862.89    579.36    862.89    576.86  " /><path style="stroke-width:1.42 ;&st7;   " d=" M   862.89,   558.73  C   862.89    556.22    860.86    554.19    858.36    554.19  " /><path style="stroke-width:1.42 ;&st7;   " d=" M   858.36,   554.19  C   855.85    554.19    853.82    556.22    853.82    558.73  " /><path style="stroke-width:1.42 ;&st7;   " d=" M   853.82,   558.73  C   853.82    561.23    855.85    563.26    858.36    563.26  " /><path style="stroke-width:1.42 ;&st7;   " d=" M   858.36,   563.26  C   860.86    563.26    862.89    561.23    862.89    558.73  " /><text style="&st18;" transform="matrix(&st16;  856.05  569.76 )">A</text><text style="&st18;" transform="matrix(&st16;  856.05  560.69 )">A</text><text style="&st18;" transform="matrix(&st16;  849.66  534.63 )">8</text><path style="stroke-width:1.42 ;&st7;   " d=" M   862.89,   532.66  C   862.89    530.16    860.86    528.13    858.36    528.13  " /><path style="stroke-width:1.42 ;&st7;   " d=" M   858.36,   528.13  C   855.85    528.13    853.82    530.16    853.82    532.66  " /><path style="stroke-width:1.42 ;&st7;   " d=" M   853.82,   532.66  C   853.82    535.17    855.85    537.20    858.36    537.20  " /><path style="stroke-width:1.42 ;&st7;   " d=" M   858.36,   537.20  C   860.86    537.20    862.89    535.17    862.89    532.66  " /><text style="&st18;" transform="matrix(&st16;  856.05  534.63 )">A</text><g ewd:figtype="title"><text style="&st18;" transform="matrix(&st17;  833.39  557.09 )">A22(A)</text><text style="&st18;" transform="matrix(&st17;  840.21  557.1 )" ewd:textID="18">No. 1 Junction <tspan x="0 " dy="6.0">Connector</tspan></text></g><g ewd:code="" ewd:figID="105" ewd:comment="11" ewd:figtype="commref"><text style="&st18;" transform="matrix(&st16;  863.45  578.82 )">(*11)</text></g><g ewd:code="" ewd:figID="106" ewd:comment="6" ewd:figtype="commref"><text style="&st18;" transform="matrix(&st16;  863.45  569.76 )">(*6)</text></g><g ewd:code="" ewd:figID="107" ewd:comment="3" ewd:figtype="commref"><text style="&st18;" transform="matrix(&st16;  863.45  560.69 )">(*3)</text></g></g><g ewd:figtype="conn" ewd:figID="10" ewd:code="A11"><path style="stroke-width:0.85 ;&st7;   " d=" M   960.34,   447.96  C   961.89    447.97    963.16    446.72    963.17    445.16  " /><path style="stroke-width:0.85 ;&st7;   " d=" M   963.17,   445.16  C   963.18    443.61    961.93    442.34    960.37    442.33  " /><path style="stroke-width:0.85 ;&st7;   " d=" M   960.37,   442.33  C   959.34    442.32    958.46    442.82    957.93    443.71  " /><path style="stroke-width:0.85 ;&st7;   " d=" M   957.93,   443.71  C   958.72    445.05    960.45    445.49    961.79    444.70  " /><path style="stroke-width:0.85 ;&st7;   " d=" M   961.79,   444.70  C   963.13    443.91    963.57    442.18    962.78    440.84  " /><path style="stroke-width:0.85 ;&st7;   " d=" M   962.78,   440.84  C   962.26    439.96    961.37    439.45    960.34    439.46  " /><path style="stroke-width:1.42 ;&st7;   " d=" M   968.84,   443.71  C   968.84    439.02    965.03    435.21    960.34    435.21  " /><path style="stroke-width:1.42 ;&st7;   " d=" M   960.34,   435.21  C   955.65    435.21    951.84    439.02    951.84    443.71  " /><path style="stroke-width:1.42 ;&st7;   " d=" M   951.84,   443.71  C   951.84    448.40    955.65    452.21    960.34    452.21  " /><path style="stroke-width:1.42 ;&st7;   " d=" M   960.34,   452.21  C   965.03    452.21    968.84    448.40    968.84    443.71  " /><path style="stroke-width:0.85 ;&st7;  " d=" M   960.34,   435.21  L   960.34,   439.46  " /><path style="stroke-width:0.85 ;&st7;  " d=" M   960.34,   447.96  L   960.34,   452.21  " /><text style="&st18;" transform="matrix(&st16;  954.16  460.4 )">1</text><text style="&st18;" transform="matrix(&st16;  954.16  431.52 )">2</text><g ewd:figtype="title"><text style="&st18;" transform="matrix(&st17;  983.56  455.12 )" ewd:textID="26">Side Turn Signal <tspan x="0 " dy="6.0">Light Assembly LH</tspan></text><text style="&st18;" transform="matrix(&st17;  976.73  455.11 )">A11</text></g></g><g ewd:figtype="conn" ewd:figID="12" ewd:code="A3"><text style="&st18;" transform="matrix(&st17;  846.16  449.63 )" ewd:textID="28">Turn</text><text style="&st18;" transform="matrix(&st16;  860.94  465.52 )">E</text><text style="&st18;" transform="matrix(&st16;  860.94  426.41 )">B</text><path style="stroke-width:0.85 ;&st7;  " d=" M   858.36,   452.21  L   858.36,   469.21  " /><path style="stroke-width:0.85 ;&st7;  " d=" M   858.36,   418.22  L   858.36,   435.21  " /><path style="stroke-width:1.42 ;&st7;  " d=" M   832.86,   418.22  L   883.85,   418.22  L   883.85,   469.21  L   832.86,   469.21  L   832.86,   418.22  " /><path style="stroke-width:1.42 ;&st7;   " d=" M   866.86,   443.71  C   866.86    439.02    863.05    435.21    858.36    435.21  " /><path style="stroke-width:1.42 ;&st7;   " d=" M   858.36,   435.21  C   853.66    435.21    849.86    439.02    849.86    443.71  " /><path style="stroke-width:1.42 ;&st7;   " d=" M   849.86,   443.71  C   849.86    448.40    853.66    452.21    858.36    452.21  " /><path style="stroke-width:1.42 ;&st7;   " d=" M   858.36,   452.21  C   863.05    452.21    866.86    448.40    866.86    443.71  " /><path style="stroke-width:0.85 ;&st7;   " d=" M   855.95,   443.71  C   856.74    445.05    858.47    445.49    859.81    444.70  " /><path style="stroke-width:0.85 ;&st7;   " d=" M   859.81,   444.70  C   861.15    443.91    861.59    442.18    860.80    440.84  " /><path style="stroke-width:0.85 ;&st7;   " d=" M   860.80,   440.84  C   860.27    439.96    859.39    439.45    858.36    439.46  " /><path style="stroke-width:0.85 ;&st7;   " d=" M   858.36,   447.96  C   859.91    447.97    861.18    446.72    861.19    445.16  " /><path style="stroke-width:0.85 ;&st7;   " d=" M   861.19,   445.16  C   861.20    443.61    859.95    442.34    858.39    442.33  " /><path style="stroke-width:0.85 ;&st7;   " d=" M   858.39,   442.33  C   857.36    442.32    856.47    442.82    855.95    443.71  " /><path style="stroke-width:0.85 ;&st7;  " d=" M   858.36,   447.96  L   858.36,   452.21  " /><path style="stroke-width:0.85 ;&st7;  " d=" M   858.36,   435.21  L   858.36,   439.46  " /><text style="&st18;" transform="matrix(&st16;  852.17  477.4 )">1</text><text style="&st18;" transform="matrix(&st16;  852.17  414.53 )">2</text><g ewd:figtype="title"><text style="&st18;" transform="matrix(&st17;  891.75  472.11 )">A3</text><text style="&st18;" transform="matrix(&st17;  898.57  472.11 )" ewd:textID="15">Headlight <tspan x="0 " dy="6.0">Assembly LH</tspan></text></g></g><g ewd:figtype="conn" ewd:figID="13" ewd:code="A23"><path style="stroke-width:0.85 ;&st7;  " d=" M   960.34,   554.19  L   960.34,   537.20  " /><path style="stroke-width:1.42 ;&st7;  " d=" M   951.84,   554.19  L   968.84,   554.19  L   968.84,   537.20  L   951.84,   537.20  L   951.84,   554.19  " /><text style="&st18;" transform="matrix(&st16;  951.65  560.69 )">1</text><path style="stroke-width:1.42 ;&st7;   " d=" M   964.87,   558.73  C   964.87    556.22    962.84    554.19    960.34    554.19  " /><path style="stroke-width:1.42 ;&st7;   " d=" M   960.34,   554.19  C   957.84    554.19    955.81    556.22    955.81    558.73  " /><path style="stroke-width:1.42 ;&st7;   " d=" M   955.81,   558.73  C   955.81    561.23    957.84    563.26    960.34    563.26  " /><path style="stroke-width:1.42 ;&st7;   " d=" M   960.34,   563.26  C   962.84    563.26    964.87    561.23    964.87    558.73  " /><text style="&st18;" transform="matrix(&st16;  958.04  560.69 )">A</text><text style="&st18;" transform="matrix(&st16;  951.65  534.63 )">8</text><path style="stroke-width:1.42 ;&st7;   " d=" M   964.87,   532.66  C   964.87    530.16    962.84    528.13    960.34    528.13  " /><path style="stroke-width:1.42 ;&st7;   " d=" M   960.34,   528.13  C   957.84    528.13    955.81    530.16    955.81    532.66  " /><path style="stroke-width:1.42 ;&st7;   " d=" M   955.81,   532.66  C   955.81    535.17    957.84    537.20    960.34    537.20  " /><path style="stroke-width:1.42 ;&st7;   " d=" M   960.34,   537.20  C   962.84    537.20    964.87    535.17    964.87    532.66  " /><text style="&st18;" transform="matrix(&st16;  958.04  534.63 )">A</text><g ewd:figtype="title"><text style="&st18;" transform="matrix(&st17;  976.73  557.09 )">A23(A)</text><text style="&st18;" transform="matrix(&st17;  983.56  557.1 )" ewd:textID="19">No. 2 <tspan x="0 " dy="6.0">Junction Connector</tspan></text></g></g><g ewd:figtype="w2w" ewd:figID="29" ewd:code="LM1"><text style="&st18;" transform="matrix(&st16;  565.27  424.43 )">5</text><path style="stroke-width:1.42 ;&st7;  " d=" M   582.15,   432.38  L   577.90,   428.13  L   573.65,   432.38  " /><path style="stroke-width:1.42 ;&st7;  " d=" M   582.15,   435.78  L   577.90,   431.53  L   573.65,   435.78  " /></g><g ewd:code="AI3" ewd:figID="30" ewd:comment="2,6,4,22" ewd:figtype="w2w"><text style="&st18;" transform="matrix(&st16;  570.67  152.48 )">44</text><path style="stroke-width:1.42 ;&st7;  " d=" M   590.65,   163.82  L   586.40,   159.58  L   582.15,   163.82  " /><path style="stroke-width:1.42 ;&st7;  " d=" M   590.65,   160.43  L   586.40,   156.18  L   582.15,   160.43  " /><g ewd:code="" ewd:figID="132" ewd:comment="2,4,22,6" ewd:figtype="commref"><text style="&st18;" transform="matrix(&st16;  595.43  152.48 )">(*2,*4 *22,*6)</text></g></g><g ewd:code="AI2" ewd:figID="31" ewd:comment="7" ewd:figtype="w2w"><text style="&st18;" transform="matrix(&st16;  570.67  143.98 )">11</text><g ewd:code="" ewd:figID="131" ewd:comment="7" ewd:figtype="commref"><text style="&st18;" transform="matrix(&st16;  595.43  143.98 )">(*7)</text></g></g><g ewd:code="AI1" ewd:figID="32" ewd:comment="21,1,4,23" ewd:figtype="w2w"><text style="&st18;" transform="matrix(&st16;  573.77  135.48 )">3</text><g ewd:code="" ewd:figID="130" ewd:comment="4,21,1,23" ewd:figtype="commref"><text style="&st18;" transform="matrix(&st16;  595.43  135.48 )">(*4 *21,*1,*23)</text></g></g><g ewd:figtype="w2w" ewd:figID="33" ewd:code="LM1"><path style="stroke-width:1.42 ;&st7;  " d=" M   624.65,   604.62  L   628.89,   608.87  L   633.14,   604.62  " /><path style="stroke-width:1.42 ;&st7;  " d=" M   633.14,   608.02  L   628.89,   612.27  L   624.65,   608.02  " /><text style="&st18;" transform="matrix(&st16;  616.26  619.9 )">6</text></g><g ewd:figtype="w2w" ewd:figID="34" ewd:code="IL5"><text style="&st18;" transform="matrix(&st16;  675.75  143.98 )">5</text><path style="stroke-width:1.42 ;&st7;  " d=" M   692.63,   151.93  L   688.38,   147.68  L   684.14,   151.93  " /><path style="stroke-width:1.42 ;&st7;  " d=" M   692.63,   155.33  L   688.38,   151.08  L   684.14,   155.33  " /><g ewd:code="" ewd:figID="133" ewd:comment="" ewd:figtype="commref"><text style="&st18;" transform="matrix(&st16;  697.42  143.98 )">(RHD)</text></g></g><g ewd:figtype="w2w" ewd:figID="35" ewd:code="IL1"><text style="&st18;" transform="matrix(&st16;  675.75  135.48 )">3</text><g ewd:code="" ewd:figID="134" ewd:comment="" ewd:figtype="commref"><text style="&st18;" transform="matrix(&st16;  697.42  135.48 )">(LHD)</text></g></g><g ewd:figtype="w2w" ewd:figID="36" ewd:code="IL5"><text style="&st18;" transform="matrix(&st16;  735.24  143.98 )">4</text><path style="stroke-width:1.42 ;&st7;  " d=" M   752.12,   155.33  L   747.87,   151.08  L   743.63,   155.33  " /><path style="stroke-width:1.42 ;&st7;  " d=" M   752.12,   151.93  L   747.87,   147.68  L   743.63,   151.93  " /></g><g ewd:figtype="w2w" ewd:figID="37" ewd:code="IL1"><text style="&st18;" transform="matrix(&st16;  735.24  135.48 )">2</text></g><g ewd:figtype="w2w" ewd:figID="38" ewd:code="IL5"><text style="&st18;" transform="matrix(&st16;  769.24  143.98 )">3</text><path style="stroke-width:1.42 ;&st7;  " d=" M   786.12,   151.93  L   781.87,   147.68  L   777.62,   151.93  " /><path style="stroke-width:1.42 ;&st7;  " d=" M   786.12,   155.33  L   781.87,   151.08  L   777.62,   155.33  " /></g><g ewd:figtype="w2w" ewd:figID="39" ewd:code="IL1"><text style="&st18;" transform="matrix(&st16;  769.24  135.48 )">1</text></g><g ewd:figtype="w2w" ewd:figID="40" ewd:code="AI3"><text style="&st18;" transform="matrix(&st16;  842.62  356.45 )">41</text><path style="stroke-width:1.42 ;&st7;  " d=" M   862.61,   344.56  L   858.36,   348.81  L   854.11,   344.56  " /><path style="stroke-width:1.42 ;&st7;  " d=" M   854.11,   341.16  L   858.36,   345.41  L   862.61,   341.16  " /></g><g ewd:code="AI2" ewd:figID="41" ewd:comment="4" ewd:figtype="w2w"><text style="&st18;" transform="matrix(&st16;  947.71  356.45 )">9</text><g ewd:code="" ewd:figID="125" ewd:comment="4" ewd:figtype="commref"><text style="&st18;" transform="matrix(&st16;  969.37  356.45 )">(*4)</text></g></g><g ewd:code="AI2" ewd:figID="42" ewd:comment="2" ewd:figtype="w2w"><text style="&st18;" transform="matrix(&st16;  944.61  347.95 )">10</text><g ewd:code="" ewd:figID="127" ewd:comment="2" ewd:figtype="commref"><text style="&st18;" transform="matrix(&st16;  969.37  347.95 )">(*2)</text></g></g><g ewd:figtype="w2w" ewd:figID="43" ewd:code="AI7"><text style="&st18;" transform="matrix(&st16;  947.71  339.45 )">3</text><path style="stroke-width:1.42 ;&st7;  " d=" M   956.09,   324.16  L   960.34,   328.41  L   964.59,   324.16  " /><path style="stroke-width:1.42 ;&st7;  " d=" M   964.59,   327.56  L   960.34,   331.81  L   956.09,   327.56  " /><g ewd:code="" ewd:figID="126" ewd:comment="" ewd:figtype="commref"><text style="&st18;" transform="matrix(&st16;  969.37  339.45 )">(LHD)</text></g></g><g ewd:figtype="gp" ewd:figID="55" ewd:code="LB"><path style="stroke-width:0.85 ;&st7;  " d=" M   576.49,   710.00  L   579.32,   710.00  " /><path style="stroke-width:0.85 ;&st7;  " d=" M   575.07,   707.17  L   580.74,   707.17  " /><path style="stroke-width:0.85 ;&st7;  " d=" M   573.65,   704.33  L   582.15,   704.33  " /><path style="stroke-width:0.85 ;&st7;  " d=" M   569.40,   701.50  L   586.40,   701.50  " /><path style="stroke-width:0.85 ;&st7;  " d=" M   577.90,   697.25  L   577.90,   701.50  " /></g><g ewd:figtype="gp" ewd:figID="56" ewd:code="AA"><path style="stroke-width:0.85 ;&st7;  " d=" M   856.94,   710.00  L   859.77,   710.00  " /><path style="stroke-width:0.85 ;&st7;  " d=" M   855.52,   707.17  L   861.19,   707.17  " /><path style="stroke-width:0.85 ;&st7;  " d=" M   854.11,   704.33  L   862.61,   704.33  " /><path style="stroke-width:0.85 ;&st7;  " d=" M   849.86,   701.50  L   866.85,   701.50  " /><path style="stroke-width:0.85 ;&st7;  " d=" M   858.36,   697.25  L   858.36,   701.50  " /></g><g ewd:code="" ewd:figID="89" ewd:comment="" ewd:figtype="commref"><text style="&st18;" transform="matrix(&st16;  790.9  135.48 )">(LHD)</text></g><g ewd:code="" ewd:figID="139" ewd:comment="" ewd:figtype="commref"><text style="&st18;" transform="matrix(&st16;  790.9  143.98 )">(RHD)</text></g></svg>