<?xml version="1.0" encoding="utf-8"?>
<!DOCTYPE svg PUBLIC "-//W3C//DTD SVG 1.0//EN" "http://www.w3.org/TR/2001/REC-SVG-20010904/DTD/svg10.dtd"[
	<!ENTITY ns_flows "http://ns.adobe.com/Flows/1.0/">
	<!ENTITY ns_svg "http://www.w3.org/2000/svg">
	<!ENTITY ns_xlink "http://www.w3.org/1999/xlink">
	<!ENTITY st0 "font-size:7px;font-family:'MS-PGothic';adobe-font-script:japanese;">
	<!ENTITY st1 "font-size:6px;font-family:'ArialMT';">
	<!-- White fill  -->
	<!ENTITY st2 "fill:#FFFFFF;stroke:#000000; stroke-width:1.41;stroke-linecap:round;stroke-linejoin:round;">
	<!-- Yellow fill  -->
	<!ENTITY st3 "fill:#FFFFCC;stroke:#FFFFCC; stroke-width:0.1;stroke-linecap:round;stroke-linejoin:round;">
	<!-- Gray fill  -->
	<!ENTITY st4 "fill:#CCCCCC;stroke:#CCCCCC; stroke-width:0.1;stroke-linecap:round;stroke-linejoin:round;">
	<!-- Light-blue fill -->
	<!ENTITY st5 "fill:#CCECF4;stroke:#000000; stroke-width:1.133;stroke-linecap:round;stroke-linejoin:round;">
	<!ENTITY st6 "fill:none;stroke-linecap:butt; stroke-linejoin:round;">
	<!ENTITY st7 "fill:none;stroke:#000000;stroke-linecap:round;stroke-linejoin:round;">
	<!ENTITY st8 "enable-background:new    ;">
	<!-- Black fill -->
	<!ENTITY st9 "fill:#000000;stroke:#000000; stroke-linecap:round;stroke-linejoin:round;">
	<!-- SRS note   -->
	<!ENTITY st10 "font-size:9px;font-family:'ArialMT';">
	<!ENTITY st11 "font-size:9px;font-family:'Svg Symbol';">
	<!ENTITY st12 "font-size:6px;font-family:'Svg Symbol';">
	<!ENTITY st13 "fill:none;stroke:#ff0000;stroke-linecap:round;stroke-linejoin:round;">
	<!-- Yellow fill  -->
	<!ENTITY st14 "fill:#FFFF00;stroke:#FFFF00; stroke-width:0.1;stroke-linecap:round;stroke-linejoin:round;">
	<!ENTITY st15 "font-size:6px;font-family:'MS-PGothic';adobe-font-script:japanese;">
	<!ENTITY st16 "1.00 0.00 0.00 1.00">
	<!ENTITY st17 "0.00 -1.00 1.00 0.00">
	<!ENTITY st18 "font-size:6px;font-family:'Arial';">
	<!ENTITY st19 "font-size:9px;font-family:'Arial';">
	<!ENTITY st20 "font-size:6px;font-family:'MS-PGothic','MS PGothic';adobe-font-script:japanese;">
	<!ENTITY st21 "font-size:7px;font-family:'MS-PGothic','MS PGothic';adobe-font-script:japanese;">
	<!ATTLIST svg
		xmlns:ewd CDATA #FIXED "http://shcl.co.jp/ewd"
		xmlns:a CDATA #FIXED "http://ns.adobe.com/AdobeSVGViewerExtensions/3.0/"
		ewd:ver CDATA #IMPLIED
	>
	<!ATTLIST a
		ewd:lineID CDATA #IMPLIED
		ewd:groupID CDATA #IMPLIED
		ewd:figtype CDATA #IMPLIED
		ewd:code CDATA #IMPLIED
		ewd:figID CDATA #IMPLIED
		ewd:pinNo CDATA #IMPLIED
		ewd:comment CDATA #IMPLIED >
	<!ATTLIST g
		ewd:lineID CDATA #IMPLIED
		ewd:groupID CDATA #IMPLIED
		ewd:figtype CDATA #IMPLIED
		ewd:code CDATA #IMPLIED
		ewd:figID CDATA #IMPLIED
		ewd:pinNo CDATA #IMPLIED
		ewd:comment CDATA #IMPLIED >
	<!ATTLIST text
		ewd:textID CDATA #IMPLIED >
	<!ATTLIST title
		ewd:textID CDATA #IMPLIED >
]>
<!-- Generator: Shintec Hozumi YS   -->
<svg onload="call_execInitLoadProc_svg('system')" style="overflow:visible;  enable-background:new 0 0 2050.807 710.000" viewBox="0 0 2050.807 710.000" height="710.000" width="2050.807" xml:space="preserve" ewd:ver="2.1.2.9" xmlns="&ns_svg;" xmlns:a="http://ns.adobe.com/AdobeSVGViewerExtensions/3.0/" xmlns:ewd="http://shcl.co.jp/ewd" xmlns:xlink="&ns_xlink;">
<path style="stroke-width:1.42 ;&st7;  " d=" M   195.47,   273.74  L   186.97,   273.74  " /><path style="stroke-width:1.42 ;&st7;  " d=" M   127.48,   273.74  L   118.98,   273.74  " /><path style="stroke-width:1.42 ;&st7;  " d=" M   407.93,   185.23  L   402.96,   180.26  " /><path style="stroke-width:1.42 ;&st7;  " d=" M   390.93,   192.28  L   395.90,   197.25  " /><path style="stroke-width:1.42 ;&st7;  " d=" M   402.96,   197.25  L   407.93,   192.28  " /><path style="stroke-width:1.42 ;&st7;  " d=" M   395.90,   180.26  L   390.93,   185.23  " /><path style="stroke-width:1.42 ;&st7;  " d=" M   161.47,   542.17  L   156.50,   537.20  " /><path style="stroke-width:1.42 ;&st7;  " d=" M   144.48,   549.22  L   149.44,   554.19  " /><path style="stroke-width:1.42 ;&st7;  " d=" M   156.50,   554.19  L   161.47,   549.22  " /><path style="stroke-width:1.42 ;&st7;  " d=" M   149.44,   537.20  L   144.48,   542.17  " /><path style="stroke-width:1.42 ;&st7;  " d=" M   331.44,   440.18  L   326.47,   435.21  " /><path style="stroke-width:1.42 ;&st7;  " d=" M   314.45,   447.24  L   319.42,   452.21  " /><path style="stroke-width:1.42 ;&st7;  " d=" M   326.47,   452.21  L   331.44,   447.24  " /><path style="stroke-width:1.42 ;&st7;  " d=" M   319.42,   435.21  L   314.45,   440.18  " /><text style="&st18;" transform="matrix(&st17;  149.28  521.9 )">W-B</text><text style="&st18;" transform="matrix(&st17;  183.27  339.07 )">L-W</text><text style="&st18;" transform="matrix(&st17;  115.28  334.92 )">B</text><text style="&st18;" transform="matrix(&st17;  149.28  653.63 )">W-B</text><text style="&st18;" transform="matrix(&st17;  149.28  581.39 )">W-B</text><text style="&st18;" transform="matrix(&st17;  183.27  254.08 )">L-W</text><text style="&st18;" transform="matrix(&st17;  115.28  249.93 )">B</text><text style="&st18;" transform="matrix(&st16;  427.11  253.05 )">L</text><text style="&st18;" transform="matrix(&st16;  420.82  264.38 )">(RHD)</text><text style="&st18;" transform="matrix(&st17;  446.73  190.33 )">L</text><text style="&st18;" transform="matrix(&st17;  458.06  196.61 )">(RHD)</text><text style="&st18;" transform="matrix(&st17;  395.74  147.83 )">L</text><text style="&st18;" transform="matrix(&st17;  407.07  154.08 )">(LHD)</text><text style="&st18;" transform="matrix(&st16;  427.11  117.07 )">L</text><text style="&st18;" transform="matrix(&st16;  420.82  128.4 )">(RHD)</text><text style="&st18;" transform="matrix(&st17;  276.76  398.67 )">W-B</text><text style="&st18;" transform="matrix(&st17;  395.74  232.82 )">L</text><text style="&st18;" transform="matrix(&st17;  407.07  239.06 )">(LHD)</text><text style="&st18;" transform="matrix(&st17;  319.25  398.67 )">W-B</text><text style="&st18;" transform="matrix(&st17;  319.25  517.65 )">W-B</text><text style="&st18;" transform="matrix(&st17;  106.79  653.63 )">W-B</text><text style="&st18;" transform="matrix(&st17;  330.58  400.57 )">(RHD)</text><text style="&st18;" transform="matrix(&st17;  288.09  400.53 )">(LHD)</text><text style="&st18;" transform="matrix(&st17;  330.58  519.55 )">(RHD)</text><g ewd:figtype="rb" ewd:figID="4" ewd:code="FUSE23"><path style="stroke-width:1.42 ;&st7;  " d=" M   401.56,    95.27  L   397.31,    95.27  " /><path style="stroke-width:1.42 ;&st7;  " d=" M   401.56,   103.77  L   397.31,   103.77  " /><path style="stroke-width:0.85 ;&st7;  " d=" M   399.43,    78.27  L   399.43,    95.27  " /><path style="stroke-width:1.42 ;&st7;   " d=" M   397.31,    95.27  C   394.96     95.27    393.06     97.17    393.06     99.52  " /><path style="stroke-width:1.42 ;&st7;   " d=" M   393.06,    99.52  C   393.06    101.87    394.96    103.77    397.31    103.77  " /><path style="stroke-width:1.42 ;&st7;   " d=" M   401.56,   103.77  C   403.90    103.77    405.81    101.87    405.81     99.52  " /><path style="stroke-width:1.42 ;&st7;   " d=" M   405.81,    99.52  C   405.81     97.17    403.90     95.27    401.56     95.27  " /><path style="stroke-width:0.28 ;&st9;  " d=" M   399.43,    90.37  L   396.60,    87.54  L   396.60,    91.79  L   399.43,    94.62  L   402.27,    91.79  L   402.27,    87.54  L   399.43,    90.37  " /><text style="&st18;" transform="matrix(&st16;  415.86  56.17 )">15A <tspan x="0 " dy="6.0">GAUGE</tspan></text><text style="&st18;" transform="matrix(&st16;  397.63  101.49 )">2</text><text style="&st18;" transform="matrix(&st16;  393.25  86.47 )">2</text><text style="&st18;" transform="matrix(&st16;  394.22  32.08 )">(IG)</text><path style="stroke-width:0.85 ;&st7;  " d=" M   399.43,    69.77  L   399.43,    78.27  " /><path style="stroke-width:1.42 ;&st7;   " d=" M   399.43,    47.11  C   396.70     48.72    395.78     52.25    397.40     54.99  " /><path style="stroke-width:1.42 ;&st7;   " d=" M   397.40,    54.99  C   397.92     55.87    398.55     56.51    399.43     57.03  " /><path style="stroke-width:1.42 ;&st7;   " d=" M   399.43,    66.94  C   402.17     65.33    403.08     61.80    401.47     59.06  " /><path style="stroke-width:1.42 ;&st7;   " d=" M   401.47,    59.06  C   400.95     58.18    400.32     57.55    399.43     57.03  " /><path style="stroke-width:0.85 ;&st7;   " d=" M   400.85,    45.69  C   400.85     44.91    400.22     44.28    399.43     44.28  " /><path style="stroke-width:0.85 ;&st7;   " d=" M   399.43,    44.28  C   398.65     44.28    398.02     44.91    398.02     45.69  " /><path style="stroke-width:0.85 ;&st7;   " d=" M   398.02,    45.69  C   398.02     46.48    398.65     47.11    399.43     47.11  " /><path style="stroke-width:0.85 ;&st7;   " d=" M   399.43,    47.11  C   400.22     47.11    400.85     46.48    400.85     45.69  " /><path style="stroke-width:0.85 ;&st7;   " d=" M   400.85,    68.36  C   400.85     67.57    400.22     66.94    399.43     66.94  " /><path style="stroke-width:0.85 ;&st7;   " d=" M   399.43,    66.94  C   398.65     66.94    398.02     67.57    398.02     68.36  " /><path style="stroke-width:0.85 ;&st7;   " d=" M   398.02,    68.36  C   398.02     69.14    398.65     69.77    399.43     69.77  " /><path style="stroke-width:0.85 ;&st7;   " d=" M   399.43,    69.77  C   400.22     69.77    400.85     69.14    400.85     68.36  " /><path style="stroke-width:1.42 ;&st7;  " d=" M   386.69,    35.78  L   386.69,    78.27  L   412.18,    78.27  L   412.18,    35.78  L   386.69,    35.78  " /></g><g ewd:figtype="conn" ewd:figID="6" ewd:code="I28"><path style="stroke-width:1.42 ;&st7;  " d=" M   263.46,   316.23  L   790.37,   316.23  L   790.37,   282.24  L   263.46,   282.24  L   263.46,   316.23  " /><g ewd:lineID="10,8"><text style="&st18;" transform="matrix(&st16;  271.76  322.73 )">7</text><path style="stroke-width:1.42 ;&st7;   " d=" M   284.99,   320.77  C   284.99    318.26    282.96    316.23    280.45    316.23  " /><path style="stroke-width:1.42 ;&st7;   " d=" M   280.45,   316.23  C   277.95    316.23    275.92    318.26    275.92    320.77  " /><path style="stroke-width:1.42 ;&st7;   " d=" M   275.92,   320.77  C   275.92    323.27    277.95    325.30    280.45    325.30  " /><path style="stroke-width:1.42 ;&st7;   " d=" M   280.45,   325.30  C   282.96    325.30    284.99    323.27    284.99    320.77  " /><text style="&st18;" transform="matrix(&st16;  278.15  322.73 )">A</text><text style="&st18;" transform="matrix(&st16;  278.34  312.54 )">E</text></g><g ewd:lineID="11"><text style="&st18;" transform="matrix(&st16;  322.75  279.67 )">6</text><path style="stroke-width:1.42 ;&st7;   " d=" M   335.98,   277.71  C   335.98    275.20    333.95    273.17    331.44    273.17  " /><path style="stroke-width:1.42 ;&st7;   " d=" M   331.44,   273.17  C   328.94    273.17    326.91    275.20    326.91    277.71  " /><path style="stroke-width:1.42 ;&st7;   " d=" M   326.91,   277.71  C   326.91    280.21    328.94    282.24    331.44    282.24  " /><path style="stroke-width:1.42 ;&st7;   " d=" M   331.44,   282.24  C   333.95    282.24    335.98    280.21    335.98    277.71  " /><text style="&st18;" transform="matrix(&st16;  329.14  279.67 )">A</text><text style="&st18;" transform="matrix(&st16;  327.47  289.87 )">ER</text></g><g ewd:lineID="12,14"><text style="&st18;" transform="matrix(&st16;  390.74  279.67 )">1</text><path style="stroke-width:1.42 ;&st7;   " d=" M   403.97,   277.71  C   403.97    275.20    401.94    273.17    399.43    273.17  " /><path style="stroke-width:1.42 ;&st7;   " d=" M   399.43,   273.17  C   396.93    273.17    394.90    275.20    394.90    277.71  " /><path style="stroke-width:1.42 ;&st7;   " d=" M   394.90,   277.71  C   394.90    280.21    396.93    282.24    399.43    282.24  " /><path style="stroke-width:1.42 ;&st7;   " d=" M   399.43,   282.24  C   401.94    282.24    403.97    280.21    403.97    277.71  " /><text style="&st18;" transform="matrix(&st16;  397.13  279.67 )">A</text><text style="&st18;" transform="matrix(&st16;  396.08  289.87 )">IG</text></g><g ewd:lineID="7"><text style="&st18;" transform="matrix(&st16;  271.76  279.67 )">5</text><text style="&st18;" transform="matrix(&st16;  278.15  279.67 )">A</text><path style="stroke-width:1.42 ;&st7;   " d=" M   284.99,   277.71  C   284.99    275.20    282.96    273.17    280.45    273.17  " /><path style="stroke-width:1.42 ;&st7;   " d=" M   280.45,   273.17  C   277.95    273.17    275.92    275.20    275.92    277.71  " /><path style="stroke-width:1.42 ;&st7;   " d=" M   275.92,   277.71  C   275.92    280.21    277.95    282.24    280.45    282.24  " /><path style="stroke-width:1.42 ;&st7;   " d=" M   280.45,   282.24  C   282.96    282.24    284.99    280.21    284.99    277.71  " /><text style="&st18;" transform="matrix(&st16;  276.52  289.87 )">EL</text></g><g ewd:figtype="title"><text style="&st18;" transform="matrix(&st16;  370.52  324.13 )">I28(A)</text><text style="&st18;" transform="matrix(&st16;  370.53  330.95 )" ewd:textID="30">Turn Signal Flasher Assembly</text></g></g><g ewd:figtype="conn" ewd:figID="7" ewd:code="L24"><path style="stroke-width: 0.85 ;&st7; stroke-dasharray:3, 1.5;" d=" M   169.97,   362.12  L   127.48,   362.12  " /><path style="stroke-width: 0.85 ;&st7; stroke-dasharray:3, 1.5;" d=" M   127.48,   371.19  L   169.97,   371.19  " /><path style="stroke-width:0.85 ;&st7;   " d=" M   188.39,   418.22  C   188.39    417.43    187.75    416.80    186.97    416.80  " /><path style="stroke-width:0.85 ;&st7;   " d=" M   186.97,   416.80  C   186.19    416.80    185.55    417.43    185.55    418.22  " /><path style="stroke-width:0.85 ;&st7;   " d=" M   185.55,   418.22  C   185.55    419.00    186.19    419.63    186.97    419.63  " /><path style="stroke-width:0.85 ;&st7;   " d=" M   186.97,   419.63  C   187.75    419.63    188.39    419.00    188.39    418.22  " /><path style="stroke-width:0.85 ;&st7;   " d=" M   154.39,   418.22  C   154.39    417.43    153.76    416.80    152.97    416.80  " /><path style="stroke-width:0.85 ;&st7;   " d=" M   152.97,   416.80  C   152.19    416.80    151.56    417.43    151.56    418.22  " /><path style="stroke-width:0.85 ;&st7;   " d=" M   151.56,   418.22  C   151.56    419.00    152.19    419.63    152.97    419.63  " /><path style="stroke-width:0.85 ;&st7;   " d=" M   152.97,   419.63  C   153.76    419.63    154.39    419.00    154.39    418.22  " /><path style="stroke-width:0.85 ;&st7;   " d=" M   154.39,   452.21  C   154.39    451.43    153.76    450.79    152.97    450.79  " /><path style="stroke-width:0.85 ;&st7;   " d=" M   152.97,   450.79  C   152.19    450.79    151.56    451.43    151.56    452.21  " /><path style="stroke-width:0.85 ;&st7;   " d=" M   151.56,   452.21  C   151.56    452.99    152.19    453.63    152.97    453.63  " /><path style="stroke-width:0.85 ;&st7;   " d=" M   152.97,   453.63  C   153.76    453.63    154.39    452.99    154.39    452.21  " /><path style="stroke-width:0.85 ;&st7;   " d=" M   120.40,   452.21  C   120.40    451.43    119.76    450.79    118.98    450.79  " /><path style="stroke-width:0.85 ;&st7;   " d=" M   118.98,   450.79  C   118.20    450.79    117.56    451.43    117.56    452.21  " /><path style="stroke-width:0.85 ;&st7;   " d=" M   117.56,   452.21  C   117.56    452.99    118.20    453.63    118.98    453.63  " /><path style="stroke-width:0.85 ;&st7;   " d=" M   118.98,   453.63  C   119.76    453.63    120.40    452.99    120.40    452.21  " /><path style="stroke-width:0.85 ;&st7;  " d=" M   120.40,   452.21  L   151.56,   452.21  " /><path style="stroke-width:1.42 ;&st7;  " d=" M    33.99,   477.71  L   220.96,   477.71  L   220.96,   375.72  L    33.99,   375.72  L    33.99,   477.71  " /><path style="stroke-width:0.85 ;&st7;  " d=" M   118.98,   392.72  L   118.98,   375.72  " /><path style="stroke-width:0.85 ;&st7;  " d=" M   152.97,   460.71  L   152.97,   477.71  " /><path style="stroke-width:0.85 ;&st7;  " d=" M   154.39,   418.22  L   185.55,   418.22  " /><path style="stroke-width:0.85 ;&st7;  " d=" M    76.49,   392.72  L    76.49,   460.71  " /><path style="stroke-width:0.85 ;&st7;  " d=" M   101.98,   392.72  L   101.98,   460.71  " /><path style="stroke-width:0.85 ;&st7;  " d=" M   135.98,   392.72  L   135.98,   460.71  " /><path style="stroke-width:0.85 ;&st7;  " d=" M    76.49,   443.71  L   203.97,   443.71  " /><path style="stroke-width:0.85 ;&st7;  " d=" M    76.49,   426.71  L   203.97,   426.71  " /><path style="stroke-width:0.85 ;&st7;  " d=" M    76.49,   409.72  L   203.97,   409.72  " /><path style="stroke-width:1.42 ;&st7;  " d=" M    50.99,   392.72  L    50.99,   460.71  L   203.97,   460.71  L   203.97,   392.72  L    50.99,   392.72  " /><path style="stroke-width:0.85 ;&st7;  " d=" M   169.97,   392.72  L   169.97,   460.71  " /><path style="stroke-width:0.85 ;&st7;  " d=" M   186.97,   392.72  L   186.97,   375.72  " /><text style="&st18;" transform="matrix(&st16;  149.04  403.19 )">EL</text><text style="&st18;" transform="matrix(&st16;  114.93  403.19 )">TR</text><text style="&st18;" transform="matrix(&st16;  84.91  420.18 )">LH</text><text style="&st18;" transform="matrix(&st16;  86.93  437.18 )">N</text><text style="&st18;" transform="matrix(&st16;  84.88  454.18 )">RH</text><text style="&st18;" transform="matrix(&st17;  65.71  441.78 )" ewd:textID="31">Turn Switch</text><text style="&st18;" transform="matrix(&st16;  155.56  474.02 )">EL</text><text style="&st18;" transform="matrix(&st16;  121.56  383.92 )">TR</text><text style="&st18;" transform="matrix(&st16;  182.96  403.19 )">TL</text><text style="&st18;" transform="matrix(&st16;  189.55  383.92 )">TL</text><text style="&st18;" transform="matrix(&st16;  107.18  373.16 )">16</text><text style="&st18;" transform="matrix(&st16;  107.18  364.09 )">13</text><path style="stroke-width:1.42 ;&st7;   " d=" M   123.51,   362.12  C   123.51    359.62    121.48    357.59    118.98    357.59  " /><path style="stroke-width:1.42 ;&st7;   " d=" M   118.98,   357.59  C   116.48    357.59    114.45    359.62    114.45    362.12  " /><path style="stroke-width:1.42 ;&st7;   " d=" M   114.45,   362.12  C   114.45    364.63    116.48    366.66    118.98    366.66  " /><path style="stroke-width:1.42 ;&st7;   " d=" M   118.98,   366.66  C   121.48    366.66    123.51    364.63    123.51    362.12  " /><path style="stroke-width:1.42 ;&st7;   " d=" M   123.51,   371.19  C   123.51    368.69    121.48    366.66    118.98    366.66  " /><path style="stroke-width:1.42 ;&st7;   " d=" M   118.98,   366.66  C   116.48    366.66    114.45    368.69    114.45    371.19  " /><path style="stroke-width:1.42 ;&st7;   " d=" M   114.45,   371.19  C   114.45    373.69    116.48    375.72    118.98    375.72  " /><path style="stroke-width:1.42 ;&st7;   " d=" M   118.98,   375.72  C   121.48    375.72    123.51    373.69    123.51    371.19  " /><text style="&st18;" transform="matrix(&st16;  116.56  364.09 )">C</text><text style="&st18;" transform="matrix(&st16;  116.6  373.16 )">D</text><text style="&st18;" transform="matrix(&st16;  141.18  493.27 )">19</text><text style="&st18;" transform="matrix(&st16;  141.18  484.21 )">12</text><path style="stroke-width:1.42 ;&st7;   " d=" M   157.51,   491.30  C   157.51    488.80    155.48    486.77    152.97    486.77  " /><path style="stroke-width:1.42 ;&st7;   " d=" M   152.97,   486.77  C   150.47    486.77    148.44    488.80    148.44    491.30  " /><path style="stroke-width:1.42 ;&st7;   " d=" M   148.44,   491.30  C   148.44    493.81    150.47    495.84    152.97    495.84  " /><path style="stroke-width:1.42 ;&st7;   " d=" M   152.97,   495.84  C   155.48    495.84    157.51    493.81    157.51    491.30  " /><path style="stroke-width:1.42 ;&st7;   " d=" M   157.51,   482.24  C   157.51    479.73    155.48    477.71    152.97    477.71  " /><path style="stroke-width:1.42 ;&st7;   " d=" M   152.97,   477.71  C   150.47    477.71    148.44    479.73    148.44    482.24  " /><path style="stroke-width:1.42 ;&st7;   " d=" M   148.44,   482.24  C   148.44    484.74    150.47    486.77    152.97    486.77  " /><path style="stroke-width:1.42 ;&st7;   " d=" M   152.97,   486.77  C   155.48    486.77    157.51    484.74    157.51    482.24  " /><text style="&st18;" transform="matrix(&st16;  150.55  484.21 )">C</text><text style="&st18;" transform="matrix(&st16;  150.59  493.27 )">D</text><text style="&st18;" transform="matrix(&st16;  175.17  373.16 )">18</text><text style="&st18;" transform="matrix(&st16;  175.17  364.09 )">15</text><path style="stroke-width:1.42 ;&st7;   " d=" M   191.50,   371.19  C   191.50    368.69    189.47    366.66    186.97    366.66  " /><path style="stroke-width:1.42 ;&st7;   " d=" M   186.97,   366.66  C   184.47    366.66    182.44    368.69    182.44    371.19  " /><path style="stroke-width:1.42 ;&st7;   " d=" M   182.44,   371.19  C   182.44    373.69    184.47    375.72    186.97    375.72  " /><path style="stroke-width:1.42 ;&st7;   " d=" M   186.97,   375.72  C   189.47    375.72    191.50    373.69    191.50    371.19  " /><path style="stroke-width:1.42 ;&st7;   " d=" M   191.50,   362.12  C   191.50    359.62    189.47    357.59    186.97    357.59  " /><path style="stroke-width:1.42 ;&st7;   " d=" M   186.97,   357.59  C   184.47    357.59    182.44    359.62    182.44    362.12  " /><path style="stroke-width:1.42 ;&st7;   " d=" M   182.44,   362.12  C   182.44    364.63    184.47    366.66    186.97    366.66  " /><path style="stroke-width:1.42 ;&st7;   " d=" M   186.97,   366.66  C   189.47    366.66    191.50    364.63    191.50    362.12  " /><text style="&st18;" transform="matrix(&st16;  184.59  373.16 )">D</text><text style="&st18;" transform="matrix(&st16;  184.55  364.09 )">C</text><g ewd:figtype="title"><text style="&st18;" transform="matrix(&st17;  235.68  480.61 )" ewd:textID="14">Headlight Dimmer Switch Assembly</text><text style="&st18;" transform="matrix(&st17;  228.86  480.6 )">L24(C),(D)</text></g><g ewd:code="" ewd:figID="95" ewd:comment="" ewd:figtype="commref"><text style="&st18;" transform="matrix(&st16;  192.06  373.16 )">(RHD)</text></g><g ewd:code="" ewd:figID="96" ewd:comment="" ewd:figtype="commref"><text style="&st18;" transform="matrix(&st16;  192.06  364.09 )">(LHD)</text></g><g ewd:code="" ewd:figID="97" ewd:comment="" ewd:figtype="commref"><text style="&st18;" transform="matrix(&st16;  158.07  493.27 )">(RHD)</text></g><g ewd:code="" ewd:figID="98" ewd:comment="" ewd:figtype="commref"><text style="&st18;" transform="matrix(&st16;  158.07  484.21 )">(LHD)</text></g></g><g ewd:figtype="conn" ewd:figID="9" ewd:code="L39"><path style="stroke-width:1.42 ;&st7;  " d=" M   144.48,   605.18  L   161.47,   605.18  L   161.47,   622.18  L   144.48,   622.18  L   144.48,   605.18  " /><path style="stroke-width:0.85 ;&st7;  " d=" M   152.97,   605.18  L   152.97,   622.18  " /><path style="stroke-width:0.85 ;&st7;  " d=" M   144.48,   613.68  L   152.97,   613.68  " /><path style="stroke-width:0.85 ;&st7;  " d=" M   151.78,   612.68  L   151.51,   613.15  L   151.42,   613.68  L   151.51,   614.22  L   151.78,   614.69  L   152.20,   615.03  L   152.70,   615.22  L   153.25,   615.22  L   153.75,   615.03  L   154.17,   614.69  L   154.44,   614.22  L   154.53,   613.68  L   154.44,   613.15  L   154.17,   612.68  L   153.75,   612.33  L   153.25,   612.15  L   152.70,   612.15  L   152.20,   612.33  L   151.78,   612.68  L   152.18,   613.39  L   152.18,   613.97  L   152.55,   614.42  L   153.12,   614.52  L   153.63,   614.23  L   153.82,   613.68  L   153.63,   613.14  L   153.12,   612.85  L   152.55,   612.95  L   152.97,   613.68  " /><text style="&st18;" transform="matrix(&st16;  138.29  609.99 )">5</text><text style="&st18;" transform="matrix(&st16;  146.79  630.37 )">4</text><text style="&st18;" transform="matrix(&st16;  143.69  601.49 )">13</text><g ewd:figtype="title"><text style="&st18;" transform="matrix(&st17;  169.37  625.08 )">L39</text><text style="&st18;" transform="matrix(&st17;  176.19  625.09 )" ewd:textID="22">No. 31 Junction <tspan x="0 " dy="6.0">Connector</tspan></text></g></g><g ewd:figtype="conn" ewd:figID="14" ewd:code="I62"><path style="stroke-width:1.42 ;&st7;  " d=" M   441.93,   214.25  L   458.92,   214.25  L   458.92,   231.25  L   441.93,   231.25  L   441.93,   214.25  " /><path style="stroke-width:0.85 ;&st7;  " d=" M   450.42,   214.25  L   450.42,   231.25  " /><text style="&st18;" transform="matrix(&st16;  438.63  237.75 )">12</text><path style="stroke-width:1.42 ;&st7;   " d=" M   454.96,   235.78  C   454.96    233.28    452.93    231.25    450.42    231.25  " /><path style="stroke-width:1.42 ;&st7;   " d=" M   450.42,   231.25  C   447.92    231.25    445.89    233.28    445.89    235.78  " /><path style="stroke-width:1.42 ;&st7;   " d=" M   445.89,   235.78  C   445.89    238.28    447.92    240.31    450.42    240.31  " /><path style="stroke-width:1.42 ;&st7;   " d=" M   450.42,   240.31  C   452.93    240.31    454.96    238.28    454.96    235.78  " /><text style="&st18;" transform="matrix(&st16;  448.24  237.75 )">B</text><text style="&st18;" transform="matrix(&st16;  441.73  211.69 )">5</text><path style="stroke-width:1.42 ;&st7;   " d=" M   454.96,   209.72  C   454.96    207.21    452.93    205.18    450.42    205.18  " /><path style="stroke-width:1.42 ;&st7;   " d=" M   450.42,   205.18  C   447.92    205.18    445.89    207.21    445.89    209.72  " /><path style="stroke-width:1.42 ;&st7;   " d=" M   445.89,   209.72  C   445.89    212.22    447.92    214.25    450.42    214.25  " /><path style="stroke-width:1.42 ;&st7;   " d=" M   450.42,   214.25  C   452.93    214.25    454.96    212.22    454.96    209.72  " /><text style="&st18;" transform="matrix(&st16;  448.24  211.69 )">B</text><g ewd:figtype="title"><text style="&st18;" transform="matrix(&st17;  466.82  234.15 )">I62(B)</text><text style="&st18;" transform="matrix(&st17;  473.64  234.15 )" ewd:textID="18">No. 12 <tspan x="0 " dy="6.0">Junction </tspan><tspan x="0 " dy="6.0">Connector</tspan></text></g></g><g ewd:figtype="conn" ewd:figID="17" ewd:code="I57"><path style="stroke-width:1.42 ;&st7;  " d=" M   441.93,   146.26  L   458.92,   146.26  L   458.92,   163.26  L   441.93,   163.26  L   441.93,   146.26  " /><path style="stroke-width:0.85 ;&st7;  " d=" M   450.42,   146.26  L   450.42,   163.26  " /><text style="&st18;" transform="matrix(&st16;  441.73  169.76 )">8</text><path style="stroke-width:1.42 ;&st7;   " d=" M   454.96,   167.79  C   454.96    165.29    452.93    163.26    450.42    163.26  " /><path style="stroke-width:1.42 ;&st7;   " d=" M   450.42,   163.26  C   447.92    163.26    445.89    165.29    445.89    167.79  " /><path style="stroke-width:1.42 ;&st7;   " d=" M   445.89,   167.79  C   445.89    170.29    447.92    172.32    450.42    172.32  " /><path style="stroke-width:1.42 ;&st7;   " d=" M   450.42,   172.32  C   452.93    172.32    454.96    170.29    454.96    167.79  " /><text style="&st18;" transform="matrix(&st16;  448.12  169.76 )">A</text><text style="&st18;" transform="matrix(&st16;  441.73  143.7 )">1</text><path style="stroke-width:1.42 ;&st7;   " d=" M   454.96,   141.73  C   454.96    139.23    452.93    137.20    450.42    137.20  " /><path style="stroke-width:1.42 ;&st7;   " d=" M   450.42,   137.20  C   447.92    137.20    445.89    139.23    445.89    141.73  " /><path style="stroke-width:1.42 ;&st7;   " d=" M   445.89,   141.73  C   445.89    144.23    447.92    146.26    450.42    146.26  " /><path style="stroke-width:1.42 ;&st7;   " d=" M   450.42,   146.26  C   452.93    146.26    454.96    144.23    454.96    141.73  " /><text style="&st18;" transform="matrix(&st16;  448.12  143.7 )">A</text><g ewd:figtype="title"><text style="&st18;" transform="matrix(&st17;  466.82  166.16 )">I57(A)</text><text style="&st18;" transform="matrix(&st17;  473.64  166.16 )" ewd:textID="17">No. 8 <tspan x="0 " dy="6.0">Junction Connector</tspan></text></g></g><g ewd:figtype="w2w" ewd:figID="23" ewd:code="IL1"><path style="stroke-width:1.42 ;&st7;  " d=" M   123.23,   282.80  L   118.98,   278.56  L   114.73,   282.80  " /><path style="stroke-width:1.42 ;&st7;  " d=" M   123.23,   279.41  L   118.98,   275.16  L   114.73,   279.41  " /><text style="&st18;" transform="matrix(&st16;  103.25  271.46 )">46</text></g><g ewd:figtype="w2w" ewd:figID="24" ewd:code="IL1"><path style="stroke-width:1.42 ;&st7;  " d=" M   191.22,   282.80  L   186.97,   278.56  L   182.72,   282.80  " /><path style="stroke-width:1.42 ;&st7;  " d=" M   191.22,   279.41  L   186.97,   275.16  L   182.72,   279.41  " /><text style="&st18;" transform="matrix(&st16;  171.24  271.46 )">24</text></g><g ewd:figtype="gp" ewd:figID="53" ewd:code="LB"><path style="stroke-width:0.85 ;&st7;  " d=" M   110.48,   697.25  L   110.48,   701.50  " /><path style="stroke-width:0.85 ;&st7;  " d=" M   101.98,   701.50  L   118.98,   701.50  " /><path style="stroke-width:0.85 ;&st7;  " d=" M   106.23,   704.33  L   114.73,   704.33  " /><path style="stroke-width:0.85 ;&st7;  " d=" M   107.65,   707.17  L   113.31,   707.17  " /><path style="stroke-width:0.85 ;&st7;  " d=" M   109.07,   710.00  L   111.90,   710.00  " /></g><g ewd:figtype="gp" ewd:figID="54" ewd:code="LA"><path style="stroke-width:0.85 ;&st7;  " d=" M   152.97,   697.25  L   152.97,   701.50  " /><path style="stroke-width:0.85 ;&st7;  " d=" M   144.48,   701.50  L   161.47,   701.50  " /><path style="stroke-width:0.85 ;&st7;  " d=" M   148.73,   704.33  L   157.22,   704.33  " /><path style="stroke-width:0.85 ;&st7;  " d=" M   150.14,   707.17  L   155.81,   707.17  " /><path style="stroke-width:0.85 ;&st7;  " d=" M   151.56,   710.00  L   154.39,   710.00  " /></g><g ewd:figtype="gp" ewd:figID="55" ewd:code="IC"><path style="stroke-width:0.85 ;&st7;  " d=" M   280.45,   697.25  L   280.45,   701.50  " /><path style="stroke-width:0.85 ;&st7;  " d=" M   271.95,   701.50  L   288.95,   701.50  " /><path style="stroke-width:0.85 ;&st7;  " d=" M   276.20,   704.33  L   284.70,   704.33  " /><path style="stroke-width:0.85 ;&st7;  " d=" M   277.62,   707.17  L   283.29,   707.17  " /><path style="stroke-width:0.85 ;&st7;  " d=" M   279.04,   710.00  L   281.87,   710.00  " /></g><g ewd:figtype="gp" ewd:figID="56" ewd:code="IA"><path style="stroke-width:0.85 ;&st7;  " d=" M   322.95,   697.25  L   322.95,   701.50  " /><path style="stroke-width:0.85 ;&st7;  " d=" M   314.45,   701.50  L   331.44,   701.50  " /><path style="stroke-width:0.85 ;&st7;  " d=" M   318.70,   704.33  L   327.20,   704.33  " /><path style="stroke-width:0.85 ;&st7;  " d=" M   320.11,   707.17  L   325.78,   707.17  " /><path style="stroke-width:0.85 ;&st7;  " d=" M   321.53,   710.00  L   324.36,   710.00  " /></g><g ewd:code="15" ewd:figID="111" ewd:comment="" ewd:figtype="comment"><text style="&st18;" transform="matrix(&st16;  56.08  105.74 )" ewd:textID="7">*15 :Soft Top Body Type</text></g><g ewd:code="1" ewd:figID="116" ewd:comment="" ewd:figtype="comment"><text style="&st18;" transform="matrix(&st16;  56.08  29.25 )">* 1 :LHD 1GR-FE</text></g><g ewd:code="4" ewd:figID="115" ewd:comment="" ewd:figtype="comment"><text style="&st18;" transform="matrix(&st16;  56.08  54.75 )">* 4 :1VD-FTV</text></g><g ewd:code="7" ewd:figID="112" ewd:comment="" ewd:figtype="comment"><text style="&st18;" transform="matrix(&st16;  56.08  80.24 )">* 7 :RHD 1HZ</text></g><g ewd:code="2" ewd:figID="128" ewd:comment="" ewd:figtype="comment"><text style="&st18;" transform="matrix(&st16;  56.08  37.75 )">* 2 :RHD 1GR-FE</text></g><g ewd:code="11" ewd:figID="129" ewd:comment="" ewd:figtype="comment"><text style="&st18;" transform="matrix(&st16;  56.08  88.74 )">*11 :1VD-FTV, RHD 1HZ</text></g><g ewd:code="5" ewd:figID="114" ewd:comment="" ewd:figtype="comment"><text style="&st18;" transform="matrix(&st16;  56.08  63.24 )">* 5 :1HZ</text></g><g ewd:code="17" ewd:figID="149" ewd:comment="" ewd:figtype="comment"><text style="&st18;" transform="matrix(&st16;  56.08  114.24 )" ewd:textID="8">*17 :w/ Side Turn Signal Light</text></g><g ewd:code="6" ewd:figID="113" ewd:comment="" ewd:figtype="comment"><text style="&st18;" transform="matrix(&st16;  56.08  71.74 )">* 6 :LHD 1HZ</text></g><g ewd:code="14" ewd:figID="110" ewd:comment="" ewd:figtype="comment"><text style="&st18;" transform="matrix(&st16;  56.08  97.24 )" ewd:textID="6">*14 :Except Soft Top Body Type</text></g><g ewd:code="3" ewd:figID="148" ewd:comment="" ewd:figtype="comment"><text style="&st18;" transform="matrix(&st16;  56.08  46.25 )">* 3 :1GR-FE</text></g></svg>