<?xml version="1.0" encoding="utf-8"?>
<!DOCTYPE svg PUBLIC "-//W3C//DTD SVG 1.0//EN" "http://www.w3.org/TR/2001/REC-SVG-20010904/DTD/svg10.dtd"[
	<!ENTITY ns_flows "http://ns.adobe.com/Flows/1.0/">
	<!ENTITY ns_svg "http://www.w3.org/2000/svg">
	<!ENTITY ns_xlink "http://www.w3.org/1999/xlink">
	<!ENTITY st0 "font-size:7px;font-family:'MS-PGothic';adobe-font-script:japanese;">
	<!ENTITY st1 "font-size:6px;font-family:'ArialMT';">
	<!-- White fill  -->
	<!ENTITY st2 "fill:#FFFFFF;stroke:#000000; stroke-width:1.41;stroke-linecap:round;stroke-linejoin:round;">
	<!-- Yellow fill  -->
	<!ENTITY st3 "fill:#FFFFCC;stroke:#FFFFCC; stroke-width:0.1;stroke-linecap:round;stroke-linejoin:round;">
	<!-- Gray fill  -->
	<!ENTITY st4 "fill:#CCCCCC;stroke:#CCCCCC; stroke-width:0.1;stroke-linecap:round;stroke-linejoin:round;">
	<!-- Light-blue fill -->
	<!ENTITY st5 "fill:#CCECF4;stroke:#000000; stroke-width:1.133;stroke-linecap:round;stroke-linejoin:round;">
	<!ENTITY st6 "fill:none;stroke-linecap:butt; stroke-linejoin:round;">
	<!ENTITY st7 "fill:none;stroke:#000000;stroke-linecap:round;stroke-linejoin:round;">
	<!ENTITY st8 "enable-background:new    ;">
	<!-- Black fill -->
	<!ENTITY st9 "fill:#000000;stroke:#000000; stroke-linecap:round;stroke-linejoin:round;">
	<!-- SRS note   -->
	<!ENTITY st10 "font-size:9px;font-family:'ArialMT';">
	<!ENTITY st11 "font-size:9px;font-family:'Svg Symbol';">
	<!ENTITY st12 "font-size:6px;font-family:'Svg Symbol';">
	<!ENTITY st13 "fill:none;stroke:#ff0000;stroke-linecap:round;stroke-linejoin:round;">
	<!-- Yellow fill  -->
	<!ENTITY st14 "fill:#FFFF00;stroke:#FFFF00; stroke-width:0.1;stroke-linecap:round;stroke-linejoin:round;">
	<!ENTITY st15 "font-size:6px;font-family:'MS-PGothic';adobe-font-script:japanese;">
	<!ENTITY st16 "1.00 0.00 0.00 1.00">
	<!ENTITY st17 "0.00 -1.00 1.00 0.00">
	<!ENTITY st18 "font-size:6px;font-family:'Arial';">
	<!ENTITY st19 "font-size:9px;font-family:'Arial';">
	<!ENTITY st20 "font-size:6px;font-family:'MS-PGothic','MS PGothic';adobe-font-script:japanese;">
	<!ENTITY st21 "font-size:7px;font-family:'MS-PGothic','MS PGothic';adobe-font-script:japanese;">
	<!ATTLIST svg
		xmlns:ewd CDATA #FIXED "http://shcl.co.jp/ewd"
		xmlns:a CDATA #FIXED "http://ns.adobe.com/AdobeSVGViewerExtensions/3.0/"
		ewd:ver CDATA #IMPLIED
	>
	<!ATTLIST a
		ewd:lineID CDATA #IMPLIED
		ewd:groupID CDATA #IMPLIED
		ewd:figtype CDATA #IMPLIED
		ewd:code CDATA #IMPLIED
		ewd:figID CDATA #IMPLIED
		ewd:pinNo CDATA #IMPLIED
		ewd:comment CDATA #IMPLIED >
	<!ATTLIST g
		ewd:lineID CDATA #IMPLIED
		ewd:groupID CDATA #IMPLIED
		ewd:figtype CDATA #IMPLIED
		ewd:code CDATA #IMPLIED
		ewd:figID CDATA #IMPLIED
		ewd:pinNo CDATA #IMPLIED
		ewd:comment CDATA #IMPLIED >
	<!ATTLIST text
		ewd:textID CDATA #IMPLIED >
	<!ATTLIST title
		ewd:textID CDATA #IMPLIED >
]>
<!-- Generator: Shintec Hozumi YS   -->
<svg onload="call_execInitLoadProc_svg('system')" style="overflow:visible;  enable-background:new 0 0 1796.573 710.000" viewBox="0 0 1796.573 710.000" height="710.000" width="1796.573" xml:space="preserve" ewd:ver="2.1.2.9" xmlns="&ns_svg;" xmlns:a="http://ns.adobe.com/AdobeSVGViewerExtensions/3.0/" xmlns:ewd="http://shcl.co.jp/ewd" xmlns:xlink="&ns_xlink;">
<path style="stroke-width:1.42 ;&st7;  " d=" M  1716.71,   491.18  L  1711.74,   486.20  " /><path style="stroke-width:1.42 ;&st7;  " d=" M  1699.72,   498.23  L  1704.68,   503.20  " /><path style="stroke-width:1.42 ;&st7;  " d=" M  1711.74,   503.20  L  1716.71,   498.23  " /><path style="stroke-width:1.42 ;&st7;  " d=" M  1704.69,   486.20  L  1699.72,   491.18  " /><text style="&st18;" transform="matrix(&st17;  1704.52  466.66 )">W-B</text><text style="&st18;" transform="matrix(&st17;  1738.51  288.08 )">L-W</text><text style="&st18;" transform="matrix(&st17;  1670.52  283.93 )">B</text><text style="&st18;" transform="matrix(&st17;  1704.52  636.63 )">W-B</text><text style="&st18;" transform="matrix(&st17;  1704.52  530.4 )">W-B</text><text style="&st18;" transform="matrix(&st17;  1653.53  636.63 )">W-B</text><text style="&st18;" transform="matrix(&st16;  1578.55  142.56 )">B</text><text style="&st18;" transform="matrix(&st16;  1527.56  142.56 )">B</text><text style="&st18;" transform="matrix(&st16;  1574.4  159.56 )">L-W</text><text style="&st18;" transform="matrix(&st16;  1523.41  159.56 )">L-W</text><g ewd:figtype="conn" ewd:figID="16" ewd:code="L24"><path style="stroke-width:0.85 ;&st7;   " d=" M  1709.63,   367.22  C  1709.63    366.44   1709.00    365.81   1708.21    365.81  " /><path style="stroke-width:0.85 ;&st7;   " d=" M  1708.21,   365.81  C  1707.43    365.81   1706.80    366.44   1706.80    367.22  " /><path style="stroke-width:0.85 ;&st7;   " d=" M  1706.80,   367.22  C  1706.80    368.01   1707.43    368.64   1708.21    368.64  " /><path style="stroke-width:0.85 ;&st7;   " d=" M  1708.21,   368.64  C  1709.00    368.64   1709.63    368.01   1709.63    367.22  " /><path style="stroke-width:0.85 ;&st7;   " d=" M  1709.63,   401.22  C  1709.63    400.44   1709.00    399.80   1708.21    399.80  " /><path style="stroke-width:0.85 ;&st7;   " d=" M  1708.21,   399.80  C  1707.43    399.80   1706.80    400.44   1706.80    401.22  " /><path style="stroke-width:0.85 ;&st7;   " d=" M  1706.80,   401.22  C  1706.80    402.00   1707.43    402.63   1708.21    402.63  " /><path style="stroke-width:0.85 ;&st7;   " d=" M  1708.21,   402.63  C  1709.00    402.63   1709.63    402.00   1709.63    401.22  " /><path style="stroke-width:0.85 ;&st7;   " d=" M  1675.64,   401.22  C  1675.64    400.44   1675.00    399.80   1674.22    399.80  " /><path style="stroke-width:0.85 ;&st7;   " d=" M  1674.22,   399.80  C  1673.44    399.80   1672.80    400.44   1672.80    401.22  " /><path style="stroke-width:0.85 ;&st7;   " d=" M  1672.80,   401.22  C  1672.80    402.00   1673.44    402.63   1674.22    402.63  " /><path style="stroke-width:0.85 ;&st7;   " d=" M  1674.22,   402.63  C  1675.00    402.63   1675.64    402.00   1675.64    401.22  " /><path style="stroke-width:0.85 ;&st7;  " d=" M  1675.64,   401.22  L  1706.80,   401.22  " /><path style="stroke-width:1.42 ;&st7;  " d=" M  1589.23,   426.71  L  1776.20,   426.71  L  1776.20,   324.73  L  1589.23,   324.73  L  1589.23,   426.71  " /><path style="stroke-width:0.85 ;&st7;  " d=" M  1674.22,   341.73  L  1674.22,   324.73  " /><path style="stroke-width:0.85 ;&st7;  " d=" M  1708.21,   409.72  L  1708.21,   426.71  " /><path style="stroke-width:0.85 ;&st7;  " d=" M  1709.63,   367.22  L  1740.79,   367.22  " /><path style="stroke-width:0.85 ;&st7;  " d=" M  1631.73,   341.73  L  1631.73,   409.72  " /><path style="stroke-width:0.85 ;&st7;  " d=" M  1657.22,   341.73  L  1657.22,   409.72  " /><path style="stroke-width:0.85 ;&st7;  " d=" M  1691.22,   341.73  L  1691.22,   409.72  " /><path style="stroke-width:0.85 ;&st7;  " d=" M  1631.73,   392.72  L  1759.21,   392.72  " /><path style="stroke-width:0.85 ;&st7;  " d=" M  1631.73,   375.72  L  1759.21,   375.72  " /><path style="stroke-width:0.85 ;&st7;  " d=" M  1631.73,   358.73  L  1759.21,   358.73  " /><path style="stroke-width:1.42 ;&st7;  " d=" M  1606.23,   341.73  L  1606.23,   409.72  L  1759.21,   409.72  L  1759.21,   341.73  L  1606.23,   341.73  " /><path style="stroke-width:0.85 ;&st7;  " d=" M  1725.21,   341.73  L  1725.21,   409.72  " /><path style="stroke-width:0.85 ;&st7;  " d=" M  1742.21,   341.73  L  1742.21,   324.73  " /><path style="stroke-width:0.85 ;&st7;   " d=" M  1743.63,   367.22  C  1743.63    366.44   1742.99    365.81   1742.21    365.81  " /><path style="stroke-width:0.85 ;&st7;   " d=" M  1742.21,   365.81  C  1741.43    365.81   1740.79    366.44   1740.79    367.22  " /><path style="stroke-width:0.85 ;&st7;   " d=" M  1740.79,   367.22  C  1740.79    368.01   1741.43    368.64   1742.21    368.64  " /><path style="stroke-width:0.85 ;&st7;   " d=" M  1742.21,   368.64  C  1742.99    368.64   1743.63    368.01   1743.63    367.22  " /><text style="&st18;" transform="matrix(&st16;  1704.28  352.2 )">EL</text><text style="&st18;" transform="matrix(&st16;  1670.17  352.2 )">TR</text><text style="&st18;" transform="matrix(&st16;  1640.15  369.19 )">LH</text><text style="&st18;" transform="matrix(&st16;  1642.17  386.19 )">N</text><text style="&st18;" transform="matrix(&st16;  1640.12  403.19 )">RH</text><text style="&st18;" transform="matrix(&st17;  1620.95  390.79 )" ewd:textID="24">Turn Switch</text><text style="&st18;" transform="matrix(&st16;  1710.8  423.02 )">EL</text><text style="&st18;" transform="matrix(&st16;  1676.8  332.92 )">TR</text><text style="&st18;" transform="matrix(&st16;  1738.2  352.2 )">TL</text><text style="&st18;" transform="matrix(&st16;  1744.79  332.92 )">TL</text><text style="&st18;" transform="matrix(&st16;  1662.42  322.17 )">16</text><text style="&st18;" transform="matrix(&st16;  1671.84  322.17 )">D</text><path style="stroke-width:1.42 ;&st7;   " d=" M  1678.75,   320.20  C  1678.75    317.70   1676.72    315.67   1674.22    315.67  " /><path style="stroke-width:1.42 ;&st7;   " d=" M  1674.22,   315.67  C  1671.72    315.67   1669.69    317.70   1669.69    320.20  " /><path style="stroke-width:1.42 ;&st7;   " d=" M  1669.69,   320.20  C  1669.69    322.70   1671.72    324.73   1674.22    324.73  " /><path style="stroke-width:1.42 ;&st7;   " d=" M  1674.22,   324.73  C  1676.72    324.73   1678.75    322.70   1678.75    320.20  " /><text style="&st18;" transform="matrix(&st16;  1696.42  433.22 )">19</text><path style="stroke-width:1.42 ;&st7;   " d=" M  1712.75,   431.25  C  1712.75    428.74   1710.72    426.71   1708.21    426.71  " /><path style="stroke-width:1.42 ;&st7;   " d=" M  1708.21,   426.71  C  1705.71    426.71   1703.68    428.74   1703.68    431.25  " /><path style="stroke-width:1.42 ;&st7;   " d=" M  1703.68,   431.25  C  1703.68    433.75   1705.71    435.78   1708.21    435.78  " /><path style="stroke-width:1.42 ;&st7;   " d=" M  1708.21,   435.78  C  1710.72    435.78   1712.75    433.75   1712.75    431.25  " /><text style="&st18;" transform="matrix(&st16;  1705.83  433.22 )">D</text><text style="&st18;" transform="matrix(&st16;  1730.41  322.17 )">18</text><text style="&st18;" transform="matrix(&st16;  1739.83  322.17 )">D</text><path style="stroke-width:1.42 ;&st7;   " d=" M  1746.74,   320.20  C  1746.74    317.70   1744.71    315.67   1742.21    315.67  " /><path style="stroke-width:1.42 ;&st7;   " d=" M  1742.21,   315.67  C  1739.71    315.67   1737.68    317.70   1737.68    320.20  " /><path style="stroke-width:1.42 ;&st7;   " d=" M  1737.68,   320.20  C  1737.68    322.70   1739.71    324.73   1742.21    324.73  " /><path style="stroke-width:1.42 ;&st7;   " d=" M  1742.21,   324.73  C  1744.71    324.73   1746.74    322.70   1746.74    320.20  " /><g ewd:figtype="title"><text style="&st18;" transform="matrix(&st17;  1784.1  429.61 )">L24(D)</text><text style="&st18;" transform="matrix(&st17;  1790.92  429.62 )" ewd:textID="13">Headlight Dimmer Switch Assembly</text></g></g><g ewd:figtype="conn" ewd:figID="17" ewd:code="L39"><path style="stroke-width:0.85 ;&st7;  " d=" M  1707.02,   561.69  L  1706.75,   562.16  L  1706.66,   562.69  L  1706.75,   563.22  L  1707.02,   563.69  L  1707.43,   564.04  L  1707.94,   564.23  L  1708.49,   564.23  L  1708.99,   564.04  L  1709.41,   563.69  L  1709.68,   563.22  L  1709.77,   562.69  L  1709.68,   562.16  L  1709.41,   561.69  L  1708.99,   561.34  L  1708.49,   561.16  L  1707.94,   561.16  L  1707.43,   561.34  L  1707.02,   561.69  L  1707.41,   562.40  L  1707.41,   562.98  L  1707.79,   563.43  L  1708.36,   563.53  L  1708.87,   563.24  L  1709.06,   562.69  L  1708.87,   562.14  L  1708.36,   561.86  L  1707.79,   561.95  L  1708.21,   562.69  " /><path style="stroke-width:1.42 ;&st7;  " d=" M  1699.72,   554.19  L  1716.71,   554.19  L  1716.71,   571.19  L  1699.72,   571.19  L  1699.72,   554.19  " /><path style="stroke-width:0.85 ;&st7;  " d=" M  1708.21,   554.19  L  1708.21,   571.19  " /><path style="stroke-width:0.85 ;&st7;  " d=" M  1708.21,   562.69  L  1699.72,   562.69  " /><text style="&st18;" transform="matrix(&st16;  1693.53  559.0 )">5</text><text style="&st18;" transform="matrix(&st16;  1702.03  579.38 )">4</text><text style="&st18;" transform="matrix(&st16;  1698.93  550.5 )">13</text><g ewd:figtype="title"><text style="&st18;" transform="matrix(&st17;  1731.43  574.1 )" ewd:textID="17">No. 31 Junction Connector</text><text style="&st18;" transform="matrix(&st17;  1724.61  574.09 )">L39</text></g></g><g ewd:figtype="gp" ewd:figID="51" ewd:code="LB"><path style="stroke-width: 0.85 ;&st7;  " d=" M  1655.81,   710.00  L  1658.64,   710.00  " /><path style="stroke-width: 0.85 ;&st7;  " d=" M  1654.39,   707.17  L  1660.06,   707.17  " /><path style="stroke-width: 0.85 ;&st7;  " d=" M  1652.97,   704.33  L  1661.47,   704.33  " /><path style="stroke-width: 0.85 ;&st7;  " d=" M  1648.72,   701.50  L  1665.72,   701.50  " /><path style="stroke-width: 0.85 ;&st7;  " d=" M  1657.22,   697.25  L  1657.22,   701.50  " /></g><g ewd:figtype="gp" ewd:figID="52" ewd:code="LA"><path style="stroke-width: 0.85 ;&st7;  " d=" M  1708.21,   697.25  L  1708.21,   701.50  " /><path style="stroke-width: 0.85 ;&st7;  " d=" M  1699.72,   701.50  L  1716.71,   701.50  " /><path style="stroke-width: 0.85 ;&st7;  " d=" M  1703.96,   704.33  L  1712.46,   704.33  " /><path style="stroke-width: 0.85 ;&st7;  " d=" M  1705.38,   707.17  L  1711.05,   707.17  " /><path style="stroke-width: 0.85 ;&st7;  " d=" M  1706.80,   710.00  L  1709.63,   710.00  " /></g></svg>