<?xml version="1.0" encoding="utf-8"?>
<!DOCTYPE svg PUBLIC "-//W3C//DTD SVG 1.0//EN" "http://www.w3.org/TR/2001/REC-SVG-20010904/DTD/svg10.dtd"[
	<!ENTITY ns_flows "http://ns.adobe.com/Flows/1.0/">
	<!ENTITY ns_svg "http://www.w3.org/2000/svg">
	<!ENTITY ns_xlink "http://www.w3.org/1999/xlink">
	<!ENTITY st0 "font-size:7px;font-family:'MS-PGothic';adobe-font-script:japanese;">
	<!ENTITY st1 "font-size:6px;font-family:'ArialMT';">
	<!-- White fill  -->
	<!ENTITY st2 "fill:#FFFFFF;stroke:#000000; stroke-width:1.41;stroke-linecap:round;stroke-linejoin:round;">
	<!-- Yellow fill  -->
	<!ENTITY st3 "fill:#FFFFCC;stroke:#FFFFCC; stroke-width:0.1;stroke-linecap:round;stroke-linejoin:round;">
	<!-- Gray fill  -->
	<!ENTITY st4 "fill:#CCCCCC;stroke:#CCCCCC; stroke-width:0.1;stroke-linecap:round;stroke-linejoin:round;">
	<!-- Light-blue fill -->
	<!ENTITY st5 "fill:#CCECF4;stroke:#000000; stroke-width:1.133;stroke-linecap:round;stroke-linejoin:round;">
	<!ENTITY st6 "fill:none;stroke-linecap:butt; stroke-linejoin:round;">
	<!ENTITY st7 "fill:none;stroke:#000000;stroke-linecap:round;stroke-linejoin:round;">
	<!ENTITY st8 "enable-background:new    ;">
	<!-- Black fill -->
	<!ENTITY st9 "fill:#000000;stroke:#000000; stroke-linecap:round;stroke-linejoin:round;">
	<!-- SRS note   -->
	<!ENTITY st10 "font-size:9px;font-family:'ArialMT';">
	<!ENTITY st11 "font-size:9px;font-family:'Svg Symbol';">
	<!ENTITY st12 "font-size:6px;font-family:'Svg Symbol';">
	<!ENTITY st13 "fill:none;stroke:#ff0000;stroke-linecap:round;stroke-linejoin:round;">
	<!-- Yellow fill  -->
	<!ENTITY st14 "fill:#FFFF00;stroke:#FFFF00; stroke-width:0.1;stroke-linecap:round;stroke-linejoin:round;">
	<!ENTITY st15 "font-size:6px;font-family:'MS-PGothic';adobe-font-script:japanese;">
	<!ENTITY st16 "1.00 0.00 0.00 1.00">
	<!ENTITY st17 "0.00 -1.00 1.00 0.00">
	<!ENTITY st18 "font-size:6px;font-family:'Arial';">
	<!ENTITY st19 "font-size:9px;font-family:'Arial';">
	<!ENTITY st20 "font-size:6px;font-family:'MS-PGothic','MS PGothic';adobe-font-script:japanese;">
	<!ENTITY st21 "font-size:7px;font-family:'MS-PGothic','MS PGothic';adobe-font-script:japanese;">
	<!ATTLIST svg
		xmlns:ewd CDATA #FIXED "http://shcl.co.jp/ewd"
		xmlns:a CDATA #FIXED "http://ns.adobe.com/AdobeSVGViewerExtensions/3.0/"
		ewd:ver CDATA #IMPLIED
	>
	<!ATTLIST a
		ewd:lineID CDATA #IMPLIED
		ewd:groupID CDATA #IMPLIED
		ewd:figtype CDATA #IMPLIED
		ewd:code CDATA #IMPLIED
		ewd:figID CDATA #IMPLIED
		ewd:pinNo CDATA #IMPLIED
		ewd:comment CDATA #IMPLIED >
	<!ATTLIST g
		ewd:lineID CDATA #IMPLIED
		ewd:groupID CDATA #IMPLIED
		ewd:figtype CDATA #IMPLIED
		ewd:code CDATA #IMPLIED
		ewd:figID CDATA #IMPLIED
		ewd:pinNo CDATA #IMPLIED
		ewd:comment CDATA #IMPLIED >
	<!ATTLIST text
		ewd:textID CDATA #IMPLIED >
	<!ATTLIST title
		ewd:textID CDATA #IMPLIED >
]>
<!-- Generator: Shintec Hozumi YS   -->
<svg onload="call_execInitLoadProc_svg('system')" style="overflow:visible;  enable-background:new 0 0 1999.816 710.000" viewBox="0 0 1999.816 710.000" height="710.000" width="1999.816" xml:space="preserve" ewd:ver="2.1.2.9" xmlns="&ns_svg;" xmlns:a="http://ns.adobe.com/AdobeSVGViewerExtensions/3.0/" xmlns:ewd="http://shcl.co.jp/ewd" xmlns:xlink="&ns_xlink;">
<text style="&st18;" transform="matrix(&st17;  1749.85  322.5 )">(*17)</text><text style="&st18;" transform="matrix(&st17;  1520.38  407.48 )">(*18)</text><text style="&st18;" transform="matrix(&st17;  1509.05  403.18 )">G</text><text style="&st18;" transform="matrix(&st17;  1749.85  483.76 )">(RHD *17,*6 *17)</text><text style="&st18;" transform="matrix(&st17;  1622.37  471.01 )">(*1,*23)</text><text style="&st18;" transform="matrix(&st17;  1647.86  579.04 )">(RHD)</text><text style="&st18;" transform="matrix(&st17;  1636.53  577.14 )">W-B</text><text style="&st18;" transform="matrix(&st17;  1724.35  482.17 )">(*1 *17,*23 *17)</text><text style="&st18;" transform="matrix(&st17;  1713.02  466.66 )">W-B</text><text style="&st18;" transform="matrix(&st17;  1647.86  472.59 )">(RHD,*6)</text><text style="&st18;" transform="matrix(&st17;  1636.53  466.66 )">W-B</text><text style="&st18;" transform="matrix(&st17;  1749.84  575.9 )">(*6)</text><text style="&st18;" transform="matrix(&st17;  1738.51  577.14 )">W-B</text><text style="&st18;" transform="matrix(&st17;  1622.37  581.49 )">(*1,*23)</text><text style="&st18;" transform="matrix(&st17;  1611.04  577.14 )">W-B</text><text style="&st18;" transform="matrix(&st17;  1738.51  321.68 )">G-Y</text><text style="&st18;" transform="matrix(&st17;  1611.03  321.68 )">G-Y</text><text style="&st18;" transform="matrix(&st17;  1738.51  466.66 )">W-B</text><text style="&st18;" transform="matrix(&st17;  1611.04  466.66 )">W-B</text><text style="&st18;" transform="matrix(&st16;  1523.8  83.07 )">G-Y</text><text style="&st18;" transform="matrix(&st16;  1574.79  83.07 )">G-Y</text><path style="stroke-width:1.42 ;&st7;  " d=" M  1618.26,    95.27  L  1623.23,    90.30  " /><path style="stroke-width:1.42 ;&st7;  " d=" M  1738.68,   494.70  L  1733.71,   499.67  " /><path style="stroke-width:1.42 ;&st7;  " d=" M  1745.74,   511.70  L  1750.71,   506.73  " /><path style="stroke-width:1.42 ;&st7;  " d=" M  1733.71,   506.73  L  1738.68,   511.70  " /><path style="stroke-width:1.42 ;&st7;  " d=" M  1750.71,   499.67  L  1745.74,   494.70  " /><path style="stroke-width:1.42 ;&st7;  " d=" M  1611.20,   477.71  L  1606.23,   482.68  " /><path style="stroke-width:1.42 ;&st7;  " d=" M  1618.26,   494.70  L  1623.23,   489.73  " /><path style="stroke-width:1.42 ;&st7;  " d=" M  1606.23,   489.73  L  1611.20,   494.70  " /><path style="stroke-width:1.42 ;&st7;  " d=" M  1623.23,   482.68  L  1618.26,   477.71  " /><path style="stroke-width:1.42 ;&st7;  " d=" M  1606.23,    90.30  L  1611.20,    95.27  " /><path style="stroke-width:1.42 ;&st7;  " d=" M  1623.23,    83.24  L  1618.26,    78.27  " /><path style="stroke-width:1.42 ;&st7;  " d=" M  1611.20,    78.27  L  1606.23,    83.24  " /><g ewd:figtype="conn" ewd:figID="4" ewd:code="I38"><text style="&st18;" transform="matrix(&st17;  1602.54  390.14 )" ewd:textID="28">Turn</text><text style="&st18;" transform="matrix(&st16;  1617.31  406.03 )">E</text><text style="&st18;" transform="matrix(&st16;  1617.31  366.92 )">B</text><path style="stroke-width:0.85 ;&st7;  " d=" M  1614.73,   409.72  L  1614.73,   392.72  " /><path style="stroke-width:0.85 ;&st7;  " d=" M  1614.73,   358.73  L  1614.73,   375.72  " /><path style="stroke-width:1.42 ;&st7;  " d=" M  1589.23,   358.73  L  1640.23,   358.73  L  1640.23,   409.72  L  1589.23,   409.72  L  1589.23,   358.73  " /><path style="stroke-width:1.42 ;&st7;   " d=" M  1623.23,   384.22  C  1623.23    379.53   1619.42    375.72   1614.73    375.72  " /><path style="stroke-width:1.42 ;&st7;   " d=" M  1614.73,   375.72  C  1610.04    375.72   1606.23    379.53   1606.23    384.22  " /><path style="stroke-width:1.42 ;&st7;   " d=" M  1606.23,   384.22  C  1606.23    388.91   1610.04    392.72   1614.73    392.72  " /><path style="stroke-width:1.42 ;&st7;   " d=" M  1614.73,   392.72  C  1619.42    392.72   1623.23    388.91   1623.23    384.22  " /><path style="stroke-width:0.85 ;&st7;   " d=" M  1612.32,   384.22  C  1613.11    385.56   1614.84    386.00   1616.18    385.21  " /><path style="stroke-width:0.85 ;&st7;   " d=" M  1616.18,   385.21  C  1617.52    384.42   1617.96    382.69   1617.17    381.35  " /><path style="stroke-width:0.85 ;&st7;   " d=" M  1617.17,   381.35  C  1616.65    380.47   1615.76    379.96   1614.73    379.97  " /><path style="stroke-width:0.85 ;&st7;   " d=" M  1614.73,   388.47  C  1616.29    388.48   1617.55    387.23   1617.56    385.67  " /><path style="stroke-width:0.85 ;&st7;   " d=" M  1617.56,   385.67  C  1617.57    384.12   1616.32    382.85   1614.76    382.84  " /><path style="stroke-width:0.85 ;&st7;   " d=" M  1614.76,   382.84  C  1613.73    382.83   1612.85    383.33   1612.32    384.22  " /><path style="stroke-width:0.85 ;&st7;  " d=" M  1614.73,   388.47  L  1614.73,   392.72  " /><path style="stroke-width:0.85 ;&st7;  " d=" M  1614.73,   375.72  L  1614.73,   379.97  " /><text style="&st18;" transform="matrix(&st16;  1608.55  417.91 )">1</text><text style="&st18;" transform="matrix(&st16;  1608.55  355.04 )">2</text><g ewd:figtype="title"><text style="&st18;" transform="matrix(&st17;  1648.12  412.62 )">I38</text><text style="&st18;" transform="matrix(&st17;  1654.94  412.62 )" ewd:textID="16">Headlight <tspan x="0 " dy="6.0">Assembly RH</tspan></text></g></g><g ewd:figtype="conn" ewd:figID="5" ewd:code="I25"><path style="stroke-width:0.85 ;&st7;   " d=" M  1742.21,   405.47  C  1743.76    405.48   1745.03    404.22   1745.04    402.67  " /><path style="stroke-width:0.85 ;&st7;   " d=" M  1745.04,   402.67  C  1745.05    401.11   1743.80    399.85   1742.24    399.84  " /><path style="stroke-width:0.85 ;&st7;   " d=" M  1742.24,   399.84  C  1741.21    399.83   1740.33    400.33   1739.80    401.22  " /><path style="stroke-width:0.85 ;&st7;   " d=" M  1739.80,   401.22  C  1740.59    402.56   1742.32    403.00   1743.66    402.21  " /><path style="stroke-width:0.85 ;&st7;   " d=" M  1743.66,   402.21  C  1745.00    401.42   1745.44    399.69   1744.65    398.35  " /><path style="stroke-width:0.85 ;&st7;   " d=" M  1744.65,   398.35  C  1744.13    397.46   1743.24    396.96   1742.21    396.97  " /><path style="stroke-width:1.42 ;&st7;   " d=" M  1750.71,   401.22  C  1750.71    396.52   1746.90    392.72   1742.21    392.72  " /><path style="stroke-width:1.42 ;&st7;   " d=" M  1742.21,   392.72  C  1737.52    392.72   1733.71    396.52   1733.71    401.22  " /><path style="stroke-width:1.42 ;&st7;   " d=" M  1733.71,   401.22  C  1733.71    405.91   1737.52    409.72   1742.21    409.72  " /><path style="stroke-width:1.42 ;&st7;   " d=" M  1742.21,   409.72  C  1746.90    409.72   1750.71    405.91   1750.71    401.22  " /><path style="stroke-width:0.85 ;&st7;  " d=" M  1742.21,   392.72  L  1742.21,   396.97  " /><path style="stroke-width:0.85 ;&st7;  " d=" M  1742.21,   405.47  L  1742.21,   409.72  " /><text style="&st18;" transform="matrix(&st16;  1736.02  417.91 )">1</text><text style="&st18;" transform="matrix(&st16;  1736.02  389.03 )">2</text><g ewd:figtype="title"><text style="&st18;" transform="matrix(&st17;  1765.43  412.62 )" ewd:textID="27">Side Turn Signal <tspan x="0 " dy="6.0">Light Assembly RH</tspan></text><text style="&st18;" transform="matrix(&st17;  1758.6  412.62 )">I25</text></g></g><g ewd:figtype="gp" ewd:figID="60" ewd:code="IE"><path style="stroke-width:0.85 ;&st7;  " d=" M  1613.31,   710.00  L  1616.15,   710.00  " /><path style="stroke-width:0.85 ;&st7;  " d=" M  1611.90,   707.17  L  1617.56,   707.17  " /><path style="stroke-width:0.85 ;&st7;  " d=" M  1610.48,   704.33  L  1618.98,   704.33  " /><path style="stroke-width:0.85 ;&st7;  " d=" M  1606.23,   701.50  L  1623.23,   701.50  " /><path style="stroke-width:0.85 ;&st7;  " d=" M  1614.73,   697.25  L  1614.73,   701.50  " /></g><g ewd:figtype="gp" ewd:figID="61" ewd:code="IG"><path style="stroke-width:0.85 ;&st7;  " d=" M  1740.79,   710.00  L  1743.62,   710.00  " /><path style="stroke-width:0.85 ;&st7;  " d=" M  1739.38,   707.17  L  1745.04,   707.17  " /><path style="stroke-width:0.85 ;&st7;  " d=" M  1737.96,   704.33  L  1746.46,   704.33  " /><path style="stroke-width:0.85 ;&st7;  " d=" M  1733.71,   701.50  L  1750.71,   701.50  " /><path style="stroke-width:0.85 ;&st7;  " d=" M  1742.21,   697.25  L  1742.21,   701.50  " /></g><g ewd:code="17" ewd:figID="88" ewd:comment="" ewd:figtype="comment"><text style="&st18;" transform="matrix(&st16;  1883.28  148.23 )" ewd:textID="8">*17 :w/ Side Turn Signal Light</text></g><g ewd:code="6" ewd:figID="111" ewd:comment="" ewd:figtype="comment"><text style="&st18;" transform="matrix(&st16;  1883.28  97.24 )">* 6 :LHD 1HZ</text></g><g ewd:code="8" ewd:figID="112" ewd:comment="" ewd:figtype="comment"><text style="&st18;" transform="matrix(&st16;  1883.28  105.74 )" ewd:textID="1">* 8 :Pick-Up Body Type</text></g><g ewd:code="13" ewd:figID="116" ewd:comment="12" ewd:figtype="comment"><text style="&st18;" transform="matrix(&st16;  1883.28  139.73 )" ewd:textID="5">*13 :Except *12</text></g><g ewd:code="12" ewd:figID="115" ewd:comment="" ewd:figtype="comment"><text style="&st18;" transform="matrix(&st16;  1883.28  131.23 )" ewd:textID="4">*12 :Algeria, Australia</text></g><g ewd:code="1" ewd:figID="110" ewd:comment="" ewd:figtype="comment"><text style="&st18;" transform="matrix(&st16;  1883.28  88.74 )">* 1 :LHD 1GR-FE</text></g><g ewd:code="9" ewd:figID="113" ewd:comment="" ewd:figtype="comment"><text style="&st18;" transform="matrix(&st16;  1883.28  114.24 )" ewd:textID="2">* 9 :Except Pick-Up Body Type</text></g><g ewd:code="23" ewd:figID="144" ewd:comment="" ewd:figtype="comment"><text style="&st18;" transform="matrix(&st16;  1883.28  165.23 )">*23 :LHD 1VD-FTV</text></g><g ewd:code="10" ewd:figID="114" ewd:comment="" ewd:figtype="comment"><text style="&st18;" transform="matrix(&st16;  1883.28  122.73 )" ewd:textID="3">*10 :w/ Trailer Socket</text></g><g ewd:code="18" ewd:figID="87" ewd:comment="" ewd:figtype="comment"><text style="&st18;" transform="matrix(&st16;  1883.28  156.73 )" ewd:textID="9">*18 :w/o Trailer Socket</text></g></svg>