<?xml version="1.0" encoding="utf-8"?>
<!DOCTYPE svg PUBLIC "-//W3C//DTD SVG 1.0//EN" "http://www.w3.org/TR/2001/REC-SVG-20010904/DTD/svg10.dtd"[
	<!ENTITY ns_flows "http://ns.adobe.com/Flows/1.0/">
	<!ENTITY ns_svg "http://www.w3.org/2000/svg">
	<!ENTITY ns_xlink "http://www.w3.org/1999/xlink">
	<!ENTITY st0 "font-size:7px;font-family:'MS-PGothic';adobe-font-script:japanese;">
	<!ENTITY st1 "font-size:6px;font-family:'ArialMT';">
	<!-- White fill  -->
	<!ENTITY st2 "fill:#FFFFFF;stroke:#000000; stroke-width:1.41;stroke-linecap:round;stroke-linejoin:round;">
	<!-- Yellow fill  -->
	<!ENTITY st3 "fill:#FFFFCC;stroke:#FFFFCC; stroke-width:0.1;stroke-linecap:round;stroke-linejoin:round;">
	<!-- Gray fill  -->
	<!ENTITY st4 "fill:#CCCCCC;stroke:#CCCCCC; stroke-width:0.1;stroke-linecap:round;stroke-linejoin:round;">
	<!-- Light-blue fill -->
	<!ENTITY st5 "fill:#CCECF4;stroke:#000000; stroke-width:1.133;stroke-linecap:round;stroke-linejoin:round;">
	<!ENTITY st6 "fill:none;stroke-linecap:butt; stroke-linejoin:round;">
	<!ENTITY st7 "fill:none;stroke:#000000;stroke-linecap:round;stroke-linejoin:round;">
	<!ENTITY st8 "enable-background:new    ;">
	<!-- Black fill -->
	<!ENTITY st9 "fill:#000000;stroke:#000000; stroke-linecap:round;stroke-linejoin:round;">
	<!-- SRS note   -->
	<!ENTITY st10 "font-size:9px;font-family:'ArialMT';">
	<!ENTITY st11 "font-size:9px;font-family:'Svg Symbol';">
	<!ENTITY st12 "font-size:6px;font-family:'Svg Symbol';">
	<!ENTITY st13 "fill:none;stroke:#ff0000;stroke-linecap:round;stroke-linejoin:round;">
	<!-- Yellow fill  -->
	<!ENTITY st14 "fill:#FFFF00;stroke:#FFFF00; stroke-width:0.1;stroke-linecap:round;stroke-linejoin:round;">
	<!ENTITY st15 "font-size:6px;font-family:'MS-PGothic';adobe-font-script:japanese;">
	<!ENTITY st16 "1.00 0.00 0.00 1.00">
	<!ENTITY st17 "0.00 -1.00 1.00 0.00">
	<!ENTITY st18 "font-size:6px;font-family:'Arial';">
	<!ENTITY st19 "font-size:9px;font-family:'Arial';">
	<!ENTITY st20 "font-size:6px;font-family:'MS-PGothic','MS PGothic';adobe-font-script:japanese;">
	<!ENTITY st21 "font-size:7px;font-family:'MS-PGothic','MS PGothic';adobe-font-script:japanese;">
	<!ATTLIST svg
		xmlns:ewd CDATA #FIXED "http://shcl.co.jp/ewd"
		xmlns:a CDATA #FIXED "http://ns.adobe.com/AdobeSVGViewerExtensions/3.0/"
		ewd:ver CDATA #IMPLIED
	>
	<!ATTLIST a
		ewd:lineID CDATA #IMPLIED
		ewd:groupID CDATA #IMPLIED
		ewd:figtype CDATA #IMPLIED
		ewd:code CDATA #IMPLIED
		ewd:figID CDATA #IMPLIED
		ewd:pinNo CDATA #IMPLIED
		ewd:comment CDATA #IMPLIED >
	<!ATTLIST g
		ewd:lineID CDATA #IMPLIED
		ewd:groupID CDATA #IMPLIED
		ewd:figtype CDATA #IMPLIED
		ewd:code CDATA #IMPLIED
		ewd:figID CDATA #IMPLIED
		ewd:pinNo CDATA #IMPLIED
		ewd:comment CDATA #IMPLIED >
	<!ATTLIST text
		ewd:textID CDATA #IMPLIED >
	<!ATTLIST title
		ewd:textID CDATA #IMPLIED >
]>
<!-- Generator: Shintec Hozumi YS   -->
<svg onload="call_execInitLoadProc_svg('system')" style="overflow:visible;  enable-background:new 0 0 1020.355 710.000" viewBox="0 0 1020.355 710.000" height="710.000" width="1020.355" xml:space="preserve" ewd:ver="2.1.2.9" xmlns="&ns_svg;" xmlns:a="http://ns.adobe.com/AdobeSVGViewerExtensions/3.0/" xmlns:ewd="http://shcl.co.jp/ewd" xmlns:xlink="&ns_xlink;"><script type="text/javascript" xlink:href="../../../../../system/js/ewd/fig/svgfig.js" xmlns:xlink="http://www.w3.org/1999/xlink" />
<g id="ewd_top"><a ewd:figtype="conn" style="cursor:pointer;" ewd:code="m1,m2,s2,t1" ewd:figID="1"><path style="fill:#CCECF4;stroke:#000000; stroke-width:1.133; stroke-linecap:round;stroke-linejoin:round; " d=" M   543.91,   316.23  L   866.86,   316.23  L   866.86,   273.74  L   543.91,   273.74  L   543.91,   316.23 " /><title ewd:textID="13">Winch Motor with Magnet Switch Assembly</title></a><a ewd:figtype="conn" style="cursor:pointer;" ewd:code="s1" ewd:figID="2"><path style="fill:#CCECF4;stroke:#000000; stroke-width:1.133; stroke-linecap:round;stroke-linejoin:round; " d=" M   594.90,   426.71  L   594.90,   528.70  L   815.86,   528.70  L   815.86,   426.71  L   594.90,   426.71 " /><title ewd:textID="12">Winch Assembly</title></a><a ewd:figtype="conn" style="cursor:pointer;" ewd:code="I105" ewd:figID="3"><path style="fill:#CCECF4;stroke:#000000; stroke-width:1.133; stroke-linecap:round;stroke-linejoin:round; " d=" M   977.34,   188.75  L   994.33,   188.75  L   994.33,   205.75  L   977.34,   205.75  L   977.34,   188.75 " /><title ewd:textID="9">No. 8 Junction Connector</title></a><a ewd:figtype="rb" style="cursor:pointer;" ewd:code="FUSE23" ewd:figID="4"><path style="fill:#CCECF4;stroke:#000000; stroke-width:0; stroke-linecap:round;stroke-linejoin:round; " d=" M   939.09,    35.78  L   939.09,    78.27  L   964.59,    78.27  L   964.59,    35.78  L   939.09,    35.78 " /></a><a ewd:figtype="conn" style="cursor:pointer;" ewd:code="I107" ewd:figID="5"><path style="fill:#CCECF4;stroke:#000000; stroke-width:1.133; stroke-linecap:round;stroke-linejoin:round; " d=" M   977.34,   273.74  L   994.33,   273.74  L   994.33,   290.74  L   977.34,   290.74  L   977.34,   273.74 " /><title ewd:textID="10">No. 12 Junction Connector</title></a><a ewd:figtype="conn" style="cursor:pointer;" ewd:code="A36,D9,E1,F1,k2" ewd:figID="6"><path style="fill:#CCECF4;stroke:#000000; stroke-width:1.133; stroke-linecap:round;stroke-linejoin:round; " d=" M   212.46,   511.70  L   314.45,   511.70  L   314.45,   571.19  L   212.46,   571.19  L   212.46,   511.70 " /><title ewd:textID="5">Battery (Main)</title></a><a ewd:figtype="conn" style="cursor:pointer;" ewd:code="k1,m3,m4" ewd:figID="7"><path style="fill:#CCECF4;stroke:#000000; stroke-width:1.133; stroke-linecap:round;stroke-linejoin:round; " d=" M   331.44,   282.24  L   288.95,   282.24  L   288.95,   316.23  L   331.44,   316.23  L   331.44,   282.24 " /><title ewd:textID="7">No. 1 Magnet Switch Assembly</title></a><a ewd:figtype="conn" style="cursor:pointer;" ewd:code="E2,F2" ewd:figID="8"><path style="fill:#CCECF4;stroke:#000000; stroke-width:1.133; stroke-linecap:round;stroke-linejoin:round; " d=" M   127.48,   511.70  L   161.47,   511.70  L   161.47,   571.19  L   127.48,   571.19  L   127.48,   511.70 " /><title ewd:textID="6">Battery (Sub)</title></a><a ewd:figtype="conn" style="cursor:pointer;" ewd:code="A43" ewd:figID="9"><path style="fill:#CCECF4;stroke:#000000; stroke-width:1.133; stroke-linecap:round;stroke-linejoin:round; " d=" M   390.93,   503.20  L   390.93,   520.20  L   407.93,   520.20  L   407.93,   503.20  L   390.93,   503.20 " /><title ewd:textID="11">No. 34 Junction Connector</title></a><a ewd:figtype="conn" style="cursor:pointer;" ewd:code="A23" ewd:figID="10"><path style="fill:#CCECF4;stroke:#000000; stroke-width:1.133; stroke-linecap:round;stroke-linejoin:round; " d=" M   356.94,   579.69  L   407.93,   579.69  L   407.93,   596.69  L   356.94,   596.69  L   356.94,   579.69 " /><title ewd:textID="8">No. 2 Junction Connector</title></a><a ewd:figtype="fuse" style="cursor:pointer;" ewd:code="FUSE23" ewd:figID="25"><path style="&st7; stroke-width:0;" d=" M   939.09,    35.78  L   939.09,    78.27  L   964.59,    78.27  L   964.59,    35.78  L   939.09,    35.78 " /></a><a ewd:comment="2" style="cursor:pointer;" ewd:lineID="1"><path style="stroke:#000000;stroke-width:5.10 ;&st6;" d=" M   144.48,   580.26  L   144.48,   588.19  L   135.98,   596.69  L   110.48,   596.69  L   110.48,   681.67  " /><path style="stroke:#FFFFFF;stroke-width:2.27 ;&st6;" d=" M   144.48,   580.26  L   144.48,   588.19  L   135.98,   596.69  L   110.48,   596.69  L   110.48,   681.67  " /><path style="stroke:#666666;stroke-width:1.13 ;&st6;" d=" M   144.48,   580.26  L   144.48,   588.19  L   135.98,   596.69  L   110.48,   596.69  L   110.48,   681.67  " /></a><a ewd:comment="2" style="cursor:pointer;" ewd:lineID="2"><path style="stroke:#000000;stroke-width:5.10 ;&st6;" d=" M   144.48,   580.26  L   144.48,   681.67  " /><path style="stroke:#FFFFFF;stroke-width:2.27 ;&st6;" d=" M   144.48,   580.26  L   144.48,   681.67  " /><path style="stroke:#666666;stroke-width:1.13 ;&st6;" d=" M   144.48,   580.26  L   144.48,   681.67  " /></a><a ewd:comment="2" style="cursor:pointer;" ewd:lineID="3"><path style="stroke:#000000;stroke-width:5.10 ;&st6;" d=" M   144.48,   502.63  L   144.48,   469.21  L   263.46,   469.21  L   263.46,   502.63  " /></a><a ewd:comment="8" style="cursor:pointer;" ewd:lineID="4"><path style="stroke:#000000;stroke-width:5.10 ;&st6;" d=" M   229.46,   681.67  L   229.46,   673.17  L   220.96,   664.67  L   203.97,   664.67  L   203.97,   596.69  L   220.96,   596.69  L   229.46,   588.19  L   229.46,   580.26  " /><path style="stroke:#FFFFFF;stroke-width:2.27 ;&st6;" d=" M   229.46,   681.67  L   229.46,   673.17  L   220.96,   664.67  L   203.97,   664.67  L   203.97,   596.69  L   220.96,   596.69  L   229.46,   588.19  L   229.46,   580.26  " /><path style="stroke:#666666;stroke-width:1.13 ;&st6;" d=" M   229.46,   681.67  L   229.46,   673.17  L   220.96,   664.67  L   203.97,   664.67  L   203.97,   596.69  L   220.96,   596.69  L   229.46,   588.19  L   229.46,   580.26  " /></a><a ewd:comment="7" style="cursor:pointer;" ewd:lineID="5"><path style="stroke:#000000;stroke-width:5.10 ;&st6;" d=" M   229.46,   580.26  L   229.46,   681.67  " /></a><a ewd:comment="1" style="cursor:pointer;" ewd:lineID="6"><path style="stroke:#000000;stroke-width:5.10 ;&st6;" d=" M   263.46,   681.67  L   263.46,   580.26  " /><path style="stroke:#FFFFFF;stroke-width:2.27 ;&st6;" d=" M   263.46,   681.67  L   263.46,   580.26  " /><path style="stroke:#666666;stroke-width:1.13 ;&st6;" d=" M   263.46,   681.67  L   263.46,   580.26  " /></a><a style="cursor:pointer;" ewd:lineID="7"><path style="stroke:#000000;stroke-width:5.10 ;&st6;" d=" M   297.45,   580.26  L   297.45,   681.67  " /><path style="stroke:#FFFFFF;stroke-width:2.27 ;&st6;" d=" M   297.45,   580.26  L   297.45,   681.67  " /><path style="stroke:#666666;stroke-width:1.13 ;&st6;" d=" M   297.45,   580.26  L   297.45,   681.67  " /></a><a style="cursor:pointer;" ewd:lineID="8"><path style="stroke:#000000;stroke-width:5.10 ;&st6;" d=" M   297.45,   325.30  L   297.45,   502.63  " /></a><a style="cursor:pointer;" ewd:lineID="9"><path style="stroke:#000000;stroke-width:5.10 ;&st6;" d=" M   297.45,   273.17  L   297.45,   197.25  L   849.86,   197.25  L   849.86,   264.67  " /></a><a style="cursor:pointer;" ewd:lineID="10"><path style="stroke:#008837;stroke-width:5.10 ;&st6;" d=" M   322.95,   273.17  L   322.95,   214.25  L   790.37,   214.25  L   790.37,   264.67  " /></a><a style="cursor:pointer;" ewd:lineID="11"><path style="stroke:#000000;stroke-width:5.10 ;&st6;" d=" M   365.44,   605.75  L   365.44,   681.67  " /><path style="stroke:#FFFFFF;stroke-width:4.53 ;&st6;" d=" M   365.44,   605.75  L   365.44,   681.67  " /><path style="stroke:#000000;stroke-width:1.13 ;&st6;" d=" M   365.44,   605.75  L   365.44,   681.67  " /></a><a ewd:comment="10" style="cursor:pointer;" ewd:lineID="12"><path style="stroke:#000000;stroke-width:5.10 ;&st6;" d=" M   365.44,   449.94  L   365.44,   570.62  " /><path style="stroke:#FFFFFF;stroke-width:4.53 ;&st6;" d=" M   365.44,   449.94  L   365.44,   570.62  " /><path style="stroke:#000000;stroke-width:1.13 ;&st6;" d=" M   365.44,   449.94  L   365.44,   570.62  " /></a><a ewd:comment="9" style="cursor:pointer;" ewd:lineID="13"><path style="stroke:#000000;stroke-width:5.10 ;&st6;" d=" M   365.44,   449.94  L   365.44,   452.21  L   373.94,   460.71  L   399.43,   460.71  L   399.43,   503.20  " /><path style="stroke:#FFFFFF;stroke-width:4.53 ;&st6;" d=" M   365.44,   449.94  L   365.44,   452.21  L   373.94,   460.71  L   399.43,   460.71  L   399.43,   503.20  " /><path style="stroke:#000000;stroke-width:1.13 ;&st6;" d=" M   365.44,   449.94  L   365.44,   452.21  L   373.94,   460.71  L   399.43,   460.71  L   399.43,   503.20  " /></a><a style="cursor:pointer;" ewd:lineID="14"><path style="stroke:#000000;stroke-width:5.10 ;&st6;" d=" M   365.44,   435.21  L   365.44,   375.72  L   322.95,   375.72  L   322.95,   325.30  " /><path style="stroke:#FFFFFF;stroke-width:4.53 ;&st6;" d=" M   365.44,   435.21  L   365.44,   375.72  L   322.95,   375.72  L   322.95,   325.30  " /><path style="stroke:#000000;stroke-width:1.13 ;&st6;" d=" M   365.44,   435.21  L   365.44,   375.72  L   322.95,   375.72  L   322.95,   325.30  " /></a><a ewd:comment="9" style="cursor:pointer;" ewd:lineID="15"><path style="stroke:#000000;stroke-width:5.10 ;&st6;" d=" M   399.43,   520.20  L   399.43,   561.56  " /><path style="stroke:#FFFFFF;stroke-width:4.53 ;&st6;" d=" M   399.43,   520.20  L   399.43,   561.56  " /><path style="stroke:#000000;stroke-width:1.13 ;&st6;" d=" M   399.43,   520.20  L   399.43,   561.56  " /></a><a style="cursor:pointer;" ewd:lineID="16"><path style="stroke:#000000;stroke-width:5.10 ;&st6;" d=" M   560.91,   325.30  L   560.91,   681.67  " /><path style="stroke:#FFFFFF;stroke-width:2.27 ;&st6;" d=" M   560.91,   325.30  L   560.91,   681.67  " /><path style="stroke:#666666;stroke-width:1.13 ;&st6;" d=" M   560.91,   325.30  L   560.91,   681.67  " /></a><a style="cursor:pointer;" ewd:lineID="17"><path style="stroke:#00A0C6;stroke-width:5.10 ;&st6;" d=" M   620.40,   325.30  L   620.40,   426.71  " /><path style="stroke:#FFFFFF;stroke-width:1.13 ;&st6;" d=" M   620.40,   325.30  L   620.40,   426.71  " /></a><a style="cursor:pointer;" ewd:lineID="18"><path style="stroke:#000000;stroke-width:5.10 ;&st6;" d=" M   654.39,   325.30  L   654.39,   426.71  " /><path style="stroke:#FFFFFF;stroke-width:4.53 ;&st6;" d=" M   654.39,   325.30  L   654.39,   426.71  " /><path style="stroke:#000000;stroke-width:1.13 ;&st6;" d=" M   654.39,   325.30  L   654.39,   426.71  " /></a><a style="cursor:pointer;" ewd:lineID="19"><path style="stroke:#00A0C6;stroke-width:5.10 ;&st6;" d=" M   688.38,   325.30  L   688.38,   426.71  " /><path style="stroke:#FFFFFF;stroke-width:2.27 ;&st6;" d=" M   688.38,   325.30  L   688.38,   426.71  " /><path style="stroke:#FF0000;stroke-width:1.13 ;&st6;" d=" M   688.38,   325.30  L   688.38,   426.71  " /></a><a style="cursor:pointer;" ewd:lineID="20"><path style="stroke:#FFE600;stroke-width:5.10 ;&st6;" d=" M   722.38,   325.30  L   722.38,   426.71  " /></a><a style="cursor:pointer;" ewd:lineID="21"> d=" M   756.37,   325.30  L   756.37,   426.71 
	
		<path style="stroke:#000000;stroke-width:5.10 ;&st6;" d=" M   756.37,   325.30  L   756.37,   426.71  " /><path style="stroke:#FFFFFF;stroke-width:4.53 ;&st6;" d=" M   756.37,   325.30  L   756.37,   426.71  " /></a><a style="cursor:pointer;" ewd:lineID="22"><path style="stroke:#008837;stroke-width:5.10 ;&st6;" d=" M   790.37,   325.30  L   790.37,   426.71  " /></a><a style="cursor:pointer;" ewd:lineID="23"><path style="stroke:#00A0C6;stroke-width:5.10 ;&st6;" d=" M   909.35,   452.21  L   909.35,   469.21  L   849.86,   469.21  L   849.86,   325.30  " /></a><a ewd:comment="6,8" style="cursor:pointer;" ewd:lineID="24"><path style="stroke:#00A0C6;stroke-width:5.10 ;&st6;" d=" M   909.35,   437.48  L   909.35,   435.21  L   917.85,   426.71  L   951.84,   426.71  L   951.84,   409.72  " /></a><a ewd:comment="3" style="cursor:pointer;" ewd:lineID="25"><path style="stroke:#00A0C6;stroke-width:5.10 ;&st6;" d=" M   909.35,   358.73  L   909.35,   437.48  " /></a><a ewd:comment="3" style="cursor:pointer;" ewd:lineID="26"><path style="stroke:#00A0C6;stroke-width:5.10 ;&st6;" d=" M   909.35,   343.99  L   909.35,   188.75  L   943.34,   188.75  " /></a><a ewd:comment="6,8" style="cursor:pointer;" ewd:lineID="27"><path style="stroke:#00A0C6;stroke-width:5.10 ;&st6;" d=" M   951.84,   358.73  L   951.84,   392.72  " /></a><a ewd:comment="4,8" style="cursor:pointer;" ewd:lineID="28"><path style="stroke:#00A0C6;stroke-width:5.10 ;&st6;" d=" M   951.84,   343.99  L   951.84,   197.25  " /></a><a style="cursor:pointer;" ewd:lineID="29"><path style="stroke:#00A0C6;stroke-width:5.10 ;&st6;" d=" M   951.84,   343.99  L   951.84,   341.73  L   960.34,   333.23  L   985.84,   333.23  L   985.84,   299.80  " /></a><a ewd:comment="3,4,8" style="cursor:pointer;" ewd:lineID="30"><path style="stroke:#00A0C6;stroke-width:5.10 ;&st6;" d=" M   951.84,   103.77  L   951.84,   180.26  " /></a><a style="cursor:pointer;" ewd:lineID="31"><path style="stroke:#00A0C6;stroke-width:5.10 ;&st6;" d=" M   985.84,   214.82  L   985.84,   264.67  " /></a><a style="cursor:pointer;" ewd:lineID="32"><path style="stroke:#00A0C6;stroke-width:5.10 ;&st6;" d=" M   985.84,   179.69  L   985.84,   120.77  L   960.34,   120.77  L   951.84,   112.27  L   951.84,   103.77  " /></a><a ewd:figtype="w2w" style="cursor:pointer;" ewd:pinNo="1" ewd:code="mA1" ewd:figID="12"><path style="&st2;" d=" M   373.94,   435.21  L   356.94,   435.21  L   356.94,   443.71  L   373.94,   443.71  L   373.94,   435.21 " /><text style="&st8;" transform="matrix(&st16;  359.83  441.58 )"><tspan x="0" style="&st18;" y="0">mA1</tspan></text></a><a ewd:figtype="w2w" style="cursor:pointer;" ewd:pinNo="2" ewd:code="mA1" ewd:figID="13"><path style="&st2;" d=" M   917.85,   443.71  L   900.85,   443.71  L   900.85,   452.21  L   917.85,   452.21  L   917.85,   443.71 " /><text style="&st8;" transform="matrix(&st16;  903.74  450.08 )"><tspan x="0" style="&st18;" y="0">mA1</tspan></text></a><a ewd:figtype="w2w" style="cursor:pointer;" ewd:pinNo="3" ewd:code="AI3" ewd:figID="14"><path style="&st2;" d=" M   917.85,   350.23  L   900.85,   350.23  L   900.85,   358.73  L   917.85,   358.73  L   917.85,   350.23 " /><text style="&st8;" transform="matrix(&st16;  904.98  356.6 )"><tspan x="0" style="&st18;" y="0">AI3</tspan></text></a><a ewd:figtype="w2w" style="cursor:pointer;" ewd:pinNo="5" ewd:code="AI3" ewd:figID="15"><path style="&st2;" d=" M   960.34,   350.23  L   943.34,   350.23  L   943.34,   358.73  L   960.34,   358.73  L   960.34,   350.23 " /><text style="&st8;" transform="matrix(&st16;  947.48  356.6 )"><tspan x="0" style="&st18;" y="0">AI3</tspan></text></a><a ewd:figtype="gp" style="cursor:pointer;" ewd:code="FC" ewd:figID="16"><path style="&st2;" d=" M    99.86,   681.67  L   121.10,   681.67  L   110.48,   697.25  L    99.86,   681.67 " /><text style="&st8;" transform="matrix(&st16;  106.57  689.46 )"><tspan x="0" style="&st18;" y="0">FC</tspan></text></a><a ewd:figtype="gp" style="cursor:pointer;" ewd:code="FB" ewd:figID="17"><path style="&st2;" d=" M   133.85,   681.67  L   155.10,   681.67  L   144.48,   697.25  L   133.85,   681.67 " /><text style="&st8;" transform="matrix(&st16;  140.79  689.46 )"><tspan x="0" style="&st18;" y="0">FB</tspan></text></a><a ewd:figtype="gp" style="cursor:pointer;" ewd:code="DA" ewd:figID="18"><path style="&st2;" d=" M   218.84,   681.67  L   240.08,   681.67  L   229.46,   697.25  L   218.84,   681.67 " /><text style="&st8;" transform="matrix(&st16;  225.4  689.46 )"><tspan x="0" style="&st18;" y="0">DA</tspan></text></a><a ewd:figtype="gp" style="cursor:pointer;" ewd:code="FA" ewd:figID="19"><path style="&st2;" d=" M   252.83,   681.67  L   274.08,   681.67  L   263.46,   697.25  L   252.83,   681.67 " /><text style="&st8;" transform="matrix(&st16;  259.66  689.46 )"><tspan x="0" style="&st18;" y="0">FA</tspan></text></a><a ewd:figtype="gp" style="cursor:pointer;" ewd:code="AC" ewd:figID="20"><path style="&st2;" d=" M   286.83,   681.67  L   308.07,   681.67  L   297.45,   697.25  L   286.83,   681.67 " /><text style="&st8;" transform="matrix(&st16;  293.35  689.46 )"><tspan x="0" style="&st18;" y="0">AC</tspan></text></a><a ewd:figtype="gp" style="cursor:pointer;" ewd:code="AA" ewd:figID="21"><path style="&st2;" d=" M   354.82,   681.67  L   376.06,   681.67  L   365.44,   697.25  L   354.82,   681.67 " /><text style="&st8;" transform="matrix(&st16;  361.45  689.46 )"><tspan x="0" style="&st18;" y="0">AA</tspan></text></a><a ewd:figtype="gp" style="cursor:pointer;" ewd:code="tA" ewd:figID="22"><path style="&st2;" d=" M   550.28,   681.67  L   571.53,   681.67  L   560.91,   697.25  L   550.28,   681.67 " /><text style="&st8;" transform="matrix(&st16;  557.86  689.46 )" ewd:textID="14"><tspan x="0" style="&st18;" y="0">tA</tspan></text></a><a ewd:figtype="sp" style="cursor:pointer;" ewd:code="SP7" ewd:figID="23"><path style="&st2;" d=" M   947.59,   392.72  L   956.09,   392.72  L   960.34,   396.97  L   960.34,   405.47  L   956.09,   409.72  L   947.59,   409.72  L   943.34,   405.47  L   943.34,   396.97  L   947.59,   392.72 " /></a><a ewd:figtype="sp" style="cursor:pointer;" ewd:code="SP69" ewd:figID="24"><path style="&st2;" d=" M   947.59,   180.26  L   956.09,   180.26  L   960.34,   184.50  L   960.34,   193.00  L   956.09,   197.25  L   947.59,   197.25  L   943.34,   193.00  L   943.34,   184.50  L   947.59,   180.26 " /></a></g></svg>