<?xml version="1.0"?>
<!-- Generator: Adobe Illustrator 10.0, SVG Export Plug-In . SVG Version: 3.0.0 Build 77)  -->
<!DOCTYPE svg PUBLIC "-//W3C//DTD SVG 1.0//EN" "http://www.w3.org/TR/2001/REC-SVG-20010904/DTD/svg10.dtd"[
	<!ENTITY ns_flows "http://ns.adobe.com/Flows/1.0/">
	<!ENTITY ns_svg "http://www.w3.org/2000/svg">
	<!ENTITY ns_xlink "http://www.w3.org/1999/xlink">
	<!ENTITY st0 "fill:none;stroke:#000000;stroke-width:0.3;stroke-linecap:round;stroke-linejoin:round;">
	<!ENTITY st1 "fill:none;stroke:#000000;stroke-width:0.5;">
	<!ENTITY st2 "fill:none;stroke:#FFFFFF;stroke-width:2;">
	<!ENTITY st3 "fill:#FFFFFF;stroke:#000000;stroke-width:0.3;stroke-linecap:round;stroke-linejoin:round;">
	<!ENTITY st4 "fill:none;stroke:#000000;stroke-width:0.15;stroke-linecap:round;stroke-linejoin:round;">
	<!ENTITY st5 "fill:none;">
	<!ENTITY st6 "font-family:'Arial';">
	<!ENTITY st7 "font-size:10px;">
	<!ENTITY st8 "fill:none;stroke:#FFFFFF;stroke-width:0.6;stroke-linecap:round;stroke-linejoin:round;">
	<!ATTLIST svg
		xmlns:ewd CDATA #FIXED "http://shcl.co.jp/ewd"
		xmlns:a CDATA #FIXED "http://ns.adobe.com/AdobeSVGViewerExtensions/3.0/"
		ewd:ver CDATA #IMPLIED>
	<!ATTLIST a
		ewd:innerGroupID CDATA #IMPLIED
		ewd:figtype CDATA #IMPLIED
		ewd:code CDATA #IMPLIED
		ewd:pinNo CDATA #IMPLIED>
]>
<svg width="518.74" height="311.811" viewBox="0 0 518.74 311.811" style="overflow:visible;enable-background:new 0 0 518.74 311.811" xml:space="preserve" onload="call_execInitLoadProc_svg('location')" ewd:ver="2.1.2.9" xmlns="&ns_svg;" xmlns:ewd="http://shcl.co.jp/ewd" xmlns:a="http://ns.adobe.com/AdobeSVGViewerExtensions/3.0/" xmlns:xlink="&ns_xlink;">
<script type="text/javascript" xlink:href="../../../../../system/js/ewd/fig/svgfig.js"/>
<g id="waku">
	<path style="&st5;" d="M0,311.811h518.74V0H0V311.811z"/>
</g>
<g id="イラスト">
	<g>
		<path style="&st0;" d="M190.059,165.302l-1.648-0.844l-1.514,0.469v2.27l1.647,0.844l1.515-0.469V165.302z"/>
		<path style="&st4;" d="M188.544,165.771l1.515-0.469"/>
		<path style="&st4;" d="M188.544,168.04v-2.27l-1.647-0.844"/>
		<path style="&st3;" d="M190.586,162.697c0-0.167-0.121-0.364-0.269-0.44l-1.774-0.909c-0.148-0.076-0.398-0.095-0.556-0.042     l-1.331,0.408c-0.158,0.053-0.287,0.231-0.287,0.397v3.655l2.313,1.185l1.904-0.599V162.697z"/>
		<path style="&st4;" d="M188.85,162.938l1.427-0.44"/>
		<path style="&st4;" d="M188.682,166.951v-3.655c0-0.166-0.121-0.363-0.269-0.439l-1.645-0.844"/>
	</g>
	<g>
		<g>
			<path style="&st0;" d="M336.126,165.482l-2.36-1.21l-1.439,0.447v3.249l2.36,1.21l1.439-0.446V165.482z"/>
			<path style="&st4;" d="M334.687,165.928l1.439-0.445"/>
			<path style="&st4;" d="M334.687,169.179v-3.251l-2.36-1.208"/>
		</g>
		<g>
			<path style="&st3;" d="M336.909,162.283l-3.334-1.709l-2.033,0.63v4.591l3.335,1.709l2.032-0.631V162.283z"/>
			<path style="&st4;" d="M334.877,162.913l2.032-0.63"/>
			<path style="&st4;" d="M334.877,167.505v-4.592l-3.335-1.708"/>
		</g>
	</g>
	<g>
		<path style="&st0;" d="M259.351,134.388l-1.647-0.844l-1.514,0.469v2.269l1.647,0.844l1.515-0.469V134.388z"/>
		<path style="&st4;" d="M257.836,134.856l1.515-0.469"/>
		<path style="&st4;" d="M257.836,137.125v-2.269l-1.647-0.844"/>
		<path style="&st3;" d="M259.878,131.782c0-0.166-0.121-0.364-0.269-0.44l-1.775-0.909c-0.148-0.076-0.398-0.095-0.556-0.042     l-1.331,0.408c-0.158,0.052-0.287,0.231-0.287,0.398v3.655l2.313,1.185l1.904-0.599V131.782z"/>
		<path style="&st4;" d="M258.142,132.023l1.428-0.439"/>
		<path style="&st4;" d="M257.974,136.037v-3.655c0-0.166-0.121-0.364-0.269-0.44l-1.645-0.843"/>
	</g>
	<g>
		<g>
			<path style="&st0;" d="M213.971,166.026l-1.295-0.664l-0.964,0.299v1.444l1.295,0.663l0.964-0.299V166.026z"/>
			<path style="&st4;" d="M213.007,166.325l0.964-0.299"/>
			<path style="&st4;" d="M213.007,167.769v-1.443l-1.295-0.664"/>
		</g>
		<g>
			<path style="&st3;" d="M214.473,166.413l-1.287,0.409c-0.267,0.084-0.489,0.069-0.717-0.054l-2.674-1.371      c-0.271-0.139-0.359-0.329-0.359-0.639v-5.009c0-0.222,0.172-0.46,0.382-0.53l1.233-0.376c0.209-0.07,0.542-0.045,0.739,0.056      l2.657,1.36c0.197,0.101,0.358,0.365,0.358,0.585v5.1C214.804,166.181,214.72,166.335,214.473,166.413z"/>
			<path style="&st4;" d="M213.264,160.928l0.964-0.296"/>
			<path style="&st4;" d="M212.449,160.892l-2.483-1.272"/>
			<path style="&st4;" d="M212.807,166.448v-4.971"/>
		</g>
	</g>
	<g>
		<g>
			<path style="&st0;" d="M225.824,172.335l-1.294-0.664l-0.965,0.299v1.444l1.295,0.663l0.964-0.299V172.335z"/>
			<path style="&st4;" d="M224.859,172.633l0.964-0.298"/>
			<path style="&st4;" d="M224.859,174.077v-1.444l-1.295-0.663"/>
		</g>
		<g>
			<path style="&st3;" d="M226.325,172.722l-1.287,0.409c-0.267,0.084-0.489,0.069-0.717-0.055l-2.674-1.37      c-0.271-0.139-0.359-0.329-0.359-0.639v-5.01c0-0.221,0.172-0.459,0.382-0.529l1.233-0.377c0.21-0.07,0.542-0.045,0.739,0.057      l2.657,1.36c0.197,0.101,0.358,0.364,0.358,0.585v5.101C226.657,172.489,226.573,172.644,226.325,172.722z"/>
			<path style="&st4;" d="M225.117,167.237l0.964-0.297"/>
			<path style="&st4;" d="M224.302,167.2l-2.484-1.272"/>
			<path style="&st4;" d="M224.66,172.757v-4.971"/>
		</g>
	</g>
	<path style="&st8;" d="M126.779,132.501c0.109,0.197,0.139,0.345,0.139,0.345s0.094,7.08-0.189,7.93s-1.51,0.944-1.51,0.944    s-1.416-0.566-2.266-0.944c-0.85-0.378-1.274-0.944-1.699-1.794s-0.802-5.145-0.377-6.844c0.188-0.75,0.926-1.334,1.693-1.753"/>
	<path style="&st8;" d="M297.595,210.265l-102.928-55.09l-35.842-18.93c0,0-0.098-0.053-0.282-0.151c0,0-0.659-0.181-1.222-1.456    s-2.888-6.45-3.15-6.975c-0.263-0.525-0.675-1.05-1.5-1.5c-0.825-0.45-19.2-9.487-19.2-9.487"/>
	<path style="&st8;" d="M127.012,139.454l4.246-1.362"/>
	<path style="&st8;" d="M155.804,163.903c0,0-0.472,1.133,0.377,1.605c0.85,0.472,34.172,20.106,34.172,20.106    s1.416,0.472,1.982,0.094c0.566-0.377,1.982-1.793,2.549-2.643"/>
	<path style="&st8;" d="M195.923,183.633c0,0-1.699,2.171-2.266,2.549c-0.566,0.377-0.661,0.85-0.661,0.85l0.094,1.227"/>
	<path style="&st8;" d="M154.86,159.938c0,0-0.283,1.605-0.755,2.455c-0.472,0.85-0.755,1.32-0.755,1.982c0,0.66,0,1.32,0,1.32    s0.377,0.756,0.755,1.039s37.099,21.9,37.099,21.9s1.228,0.661,2.36,0.472c1.133-0.188,5.759-1.699,5.759-1.699    s1.133-0.66,1.416-1.321"/>
	<path style="&st8;" d="M149.479,148.233c0,0-0.377,0.472-0.188,1.417c0.188,0.944,3.964,22.088,3.964,22.088    s0.566,1.512,2.455,1.134l5.853-1.794"/>
	<path style="&st8;" d="M149.385,147.478l44.698,25.44l30.868,17.559"/>
	<path style="&st8;" d="M226.792,201.521c0,0-2.266-1.416-1.982-4.248s0.566-5.239,0.566-5.239s0.283-2.124,1.133-3.682    s2.407-3.257,3.54-4.248s3.115-2.407,6.23-0.85c3.115,1.558,17.275,9.771,17.275,9.771s4.106,2.124,5.522,7.362    c1.554,5.75,2.973,11.187,2.973,11.187s-0.991,0.566-0.613,1.982c0.377,1.416,4.814,25.487,4.814,25.487s0.283,3.494,3.21,2.927    c2.926-0.566,7.552-2.266,8.213-2.737c0.66-0.473,1.669-0.485,1.981-3.775c0.189-1.982,0-3.682,0-3.682"/>
	<path style="&st8;" d="M165.338,115.666c0,0,0.189-1.51,1.699-2.266c1.51-0.755,2.926-1.227,4.154-0.85    c1.227,0.378,2.266,0.661,2.266,3.021s0,7.93,0,7.93s-0.283,1.604-1.699,2.171s-4.154,1.039-5.098,0.472s-1.416-1.322-1.416-2.549    S165.338,115.666,165.338,115.666z"/>
	<path style="&st8;" d="M172.701,114.911c0,0-0.377-1.039-1.605-0.944c-1.227,0.095-2.737,0.472-3.493,1.699    c-0.33,0.537-0.377,2.644-0.377,2.644v5.758c0,0,0.094,1.322,1.51,1.605s3.587-0.661,3.871-1.793"/>
	<path style="&st8;" d="M171.379,114.155c0,0,0.661,0.566,0.661,1.605c0,1.038,0,7.552,0,7.552s0.188,1.51-1.228,1.982"/>
	<path style="&st8;" d="M170.341,112.267l12.649-18.313c0,0,1.383-1.722,3.587-3.682c2.549-2.266,4.154-3.304,4.154-3.304    s1.321-1.228,5.192-2.36c3.87-1.133,11.705-3.209,26.715-5.569c15.009-2.36,24.782-2.751,32.473-2.549    c0,0,8.685,0.094,23.695,2.926c15.009,2.832,28.886,5.853,50.22,12.461s45.783,14.82,47.766,15.67s2.927,2.171,4.153,6.23    c1.228,4.059,4.626,17.463,6.514,30.396c1.888,12.933,3.304,27.563,3.304,27.563s0,1.605-0.188,2.172s-0.566,1.133-0.566,1.133    l0.472,8.213c0,0,1.605,2.549,1.511,3.493c-0.066,0.657,0,9.063,0,9.063s-0.095,4.908-0.095,6.984    c0,2.077-1.888,6.986-3.209,7.741c-1.322,0.755-1.982,0.944-1.982,0.944c-2.612,1.124-9.087,3.336-16.069,5.635l-10.664,3.459    c-7.223,2.314-13.009,4.122-13.009,4.122s-36.815,10.101-37.099,10.194c-0.283,0.095-0.473-0.094-0.473-0.094    c0.077-0.295,0.155-0.591,0.223-0.89c0.371-1.619,1.336-4.102,1.415-8.485c0.009-0.478,0.063-0.853,0.063-1.104    c0-1.321,0.188-10.195,0.094-11.705c-0.094-1.511-0.282-2.172-0.282-2.172s0,0.095-0.473-1.51s-0.188-2.455-0.188-2.455    l0.386-16.136c0-19.245,0.058-19.231-0.386-55.701"/>
	<path style="&st8;" d="M380.188,117.271c0,0,3.776,15.198,5.665,30.396c1.888,15.198,2.643,27.517,2.643,27.517    s0.426,5.947,0.566,8.496"/>
	<path style="&st8;" d="M389.063,183.68v23.506c0,0-0.07,0.349-0.308,0.654"/>
	<path style="&st8;" d="M388.755,207.84c-3.608,1.213-35.271,11.305-40.446,12.973"/>
	<path style="&st8;" d="M348.309,220.813c-10.014,2.754-32.228,9.078-36.172,10.09"/>
	<path style="&st8;" d="M372.706,172.335c4.004-1.191,8.025-2.439,12.108-3.806l0.565-0.413    c-0.422-5.016-1.097-12.121-2.075-19.998c-1.208-9.717-3.187-19.435-4.457-25.18c0,0-0.139-0.748-0.484-0.518    c0,0-21.82,6.979-33.007,9.104c0,0-0.897,0.325-0.685,1.012c0,0,2.87,19.795,5.099,45.781c0,0,0.349,0.524,0.837,0.382    c5.836-1.705,11.553-3.294,17.273-4.949L372.706,172.335z"/>
	<path style="&st8;" d="M348.141,180.989c-2.266-28.036-5.381-49.559-5.381-49.559c-0.047-1.133,0.992-1.227,0.992-1.227    c11.186-2.124,35.115-9.534,35.115-9.534s0.828-0.388,1.052,0.443c1.442,5.367,3.479,16.071,4.802,26.723    c1.094,8.808,1.808,16.648,2.215,21.686l-0.847,0.424c-3.864,1.294-7.808,2.551-11.763,3.762l-6.578,1.972    c-28.42,8.344-55.432,14.091-55.432,14.091l-1.415,0.142"/>
	<path style="&st8;" d="M347.008,181.414c-2.266-28.036-5.397-49.86-5.397-49.86s-0.125-0.596-0.974-0.407    c0,0-25.205,5.381-27.754,5.806c0,0-1.155,0.047-1.098,1.274"/>
	<path style="&st8;" d="M313.875,187.078c0-5.74-0.033-11.465-0.083-16.851l-0.375-25.649c-0.064-3.212-0.109-5.077-0.109-5.077    c-0.047-0.331,0.425-0.566,0.425-0.566c2.549-0.425,25.865-5.995,25.865-5.995c0.283-0.188,0.517,0.171,0.517,0.171    s2.894,20.161,5.131,46.621l-0.714,0.561c-0.299,0.077-0.595,0.153-0.891,0.229l-7.973,2.002    c-12.894,3.167-21.652,4.979-21.652,4.979"/>
	<path style="&st8;" d="M306.983,135.988c0.099,6.436,0.33,19.608,0.33,19.608s-0.187,15.239-0.381,29.632l-0.076,5.551    c-0.102,7.267-0.198,13.729-0.266,17.087"/>
	<path style="&st8;" d="M346.772,201.38l-19.314,5.309"/>
	<path style="&st8;" d="M322.28,202.35c-1.035,0.278-1.656,0.445-1.656,0.445s-0.755,0.331-0.755,1.039v4.679    c0,0.426,0.139,0.8,0.689,1c0.55,0.2,3.125,1.2,3.574,1.375c0.45,0.175,0.825,0.101,1.601-0.1c0.774-0.2,17.036-4.729,20.55-5.675    c0.65-0.176,1.244-0.226,1.244-1.885c0-0.547,0-1.119,0-1.377c0-0.566-0.283-0.755-0.283-0.755s-0.837-0.78-1.634-1.509    l-1.103-0.925l-0.024-0.4c0,0-1.025-0.6-1.425-0.85c-0.4-0.25-1.175-0.4-1.9-0.2c-0.725,0.2-7.39,2.042-10.686,2.929    L322.28,202.35z"/>
	<path style="&st8;" d="M342.483,198.438c-1.844,0.53-7.563,2.232-9.771,2.864l-8.472,2.409c-0.668,0.186-1.086,0.299-1.162,0.311    c-0.566,0.095-0.095,0.661-0.095,0.661s0.938,0.752,1.857,1.333c0.468,0.297,1.793,1.046,1.768,2.521    c-0.024,1.475-0.024,1.475-0.024,1.475"/>
	<path style="&st8;" d="M319.774,205.061l-1.02,0.266l-4.788,1.245l-3.633,0.944"/>
	<path style="&st8;" d="M319.869,203.834c0,0.755,0.755,0.944,0.755,0.944l3.965,2.737c0,0,0.378,0.472,0.378,0.85    c0,0.041,0,0.105,0,0.188v1.66"/>
	<path style="&st8;" d="M311.562,211.197l8.222-2.209"/>
	<path style="&st8;" d="M349.132,200.53c0,0,0.095,0.566-1.604,1.038"/>
	<path style="&st8;" d="M351.397,232.909l2.549,1.604c0,0,1.228,0.473,2.077-0.377"/>
	<path style="&st8;" d="M350.549,234.702l-3.588,1.038c0,0-0.472,0.095-0.85-0.188s-0.378-0.661-0.378-0.661"/>
	<path style="&st8;" d="M342.901,243.481c0,0,27.093-7.93,28.037-8.213s1.133-0.66,1.133-0.66s0-0.182,0-0.756    c0-0.755-0.473-0.943-0.473-0.943l-6.136-3.776l-9.505,2.855l1.292,0.921c0,0,0.378,0.282,0.378,0.849c0,0.567,0,1.228,0,1.228    s-0.405,0.647-0.85,0.944c-0.85,0.566-2.454,0.661-3.021,0.472s-3.553-2.073-3.553-2.073"/>
	<path style="&st8;" d="M345.797,234.975l-2.896,0.86"/>
	<path style="&st8;" d="M332.329,228.944l9.439,5.381c0,0,1.039,0.472,1.133,1.981c0.095,1.511,0,7.175,0,7.175    s0,1.133-1.793,2.266c-1.321,0.834-2.549-0.283-2.549-0.283"/>
	<path style="&st8;" d="M329.259,229.888l9.867,5.476c0,0,0.944,0.755,0.944,1.698c0,0.945,0,6.798,0,6.798    s-0.095,0.849-0.944,1.321c-0.85,0.472-20.579,6.324-20.579,6.324"/>
	<path style="&st8;" d="M339.283,236.388l-20.45,6.15"/>
	<path style="&st8;" d="M324.503,243.632v3.02c0,0,0,0.756,0.755,0.661c0.756-0.095,8.393-2.51,8.393-2.51s0.566-0.566,0.566-1.038    c0-0.473,0-3.021,0-3.021s-0.094-0.85-0.944-0.473c-0.545,0.243-8.203,2.416-8.203,2.416S324.503,242.854,324.503,243.632z"/>
	<path style="&st8;" d="M316.7,241.409c-1.049-0.688-2.348-1.531-2.968-1.893c-1.132-0.661-1.794-1.133-2.831-1.699    c-1.039-0.566-0.756-1.605-0.756-1.605c-0.094-0.377-1.227-0.188-1.605,0.095c-0.377,0.284-1.321,0.661-1.321,0.661    c-1.982,0.661-4.436,0.378-6.419-0.472c-1.982-0.85-13.31-7.552-13.31-7.552s-0.566-0.378-0.944-0.283    c-0.756,0.188-0.85,0.85-0.85,2.076c0,1.228,1.699,8.779,2.266,11.422c0.566,2.644,1.888,3.021,1.888,3.021    s15.293,8.307,17.181,9.063c1.889,0.755,2.926,1.132,3.871,0.943c0.943-0.188,3.303-0.755,5.003-1.321    c1.698-0.566,2.737-1.793,2.643-3.682c-0.008-0.172-0.013-0.354-0.013-0.546c0,0,0-5.125,0-5.575c0-0.449,0.124-1.35-0.676-1.875    C317.059,241.663,316.7,241.409,316.7,241.409z"/>
	<path style="&st8;" d="M287.018,230.266c0,0,9.534,5.946,19.635,11.517c0,0,3.588,2.077,5.003,2.266    c1.416,0.188,3.871-0.472,3.871-0.472l2.454-0.661"/>
	<path style="&st8;" d="M309.769,207.609c0,0-0.61,0.152-1.38,0.354"/>
	<path style="&st8;" d="M300.117,208.981c-0.381,0.79-0.799,1.924-0.899,3.232l-0.022,9.765c0,4.527,0,8.948,0,8.948    s0.095,4.531,3.021,5.946"/>
	<path style="&st8;" d="M299.667,215.351c0,0,1.227,0.755,2.738,1.038c1.51,0.283,2.234,0.472,4.437-0.188    c1.888-0.566,3.965-1.511,3.965-1.511s0.283-0.094,0.377-0.66"/>
	<path style="&st8;" d="M299.667,223.186c0,0,1.511,1.039,3.021,1.321c1.511,0.284,2.738,0.095,4.626-0.378    c1.511-0.377,3.398-1.321,3.398-1.321"/>
	<path style="&st8;" d="M262.285,211.669c0,0,0.566,0.472,1.133,1.511c0.566,1.038,5.381,11.705,5.381,11.705    s0.473,1.133,1.228,1.51c0.755,0.379,16.52,9.252,16.52,9.252"/>
	<path style="&st8;" d="M261.625,209.781l37.571,21.712"/>
	<path style="&st8;" d="M275.124,187.691c0,0-0.095-1.416,1.51-0.755c1.605,0.66,11.611,5.947,11.611,5.947s0.661,0.472,0.85,1.604    s0.095,3.682-0.095,4.343c-0.188,0.661-0.85,0.943-1.699,0.472s-10.761-5.664-10.761-5.664s-1.511-0.755-1.511-2.266    C275.029,189.863,275.124,187.691,275.124,187.691z"/>
	<path style="&st8;" d="M348.188,181.272c0,0,0.566,0.661,0.66,1.322c0.095,0.66,0.473,5.475-0.188,5.852"/>
	<path style="&st8;" d="M348,188.824v8.024c0,0-0.095,0.566,0.094,0.944c0.188,0.377,1.133,2.076,1.133,3.02    c0,0.283,0.356,7.625-0.918,20"/>
	<path style="&st8;" d="M391.895,197.51c0,0-0.188,1.982-2.643,1.982"/>
	<path style="&st8;" d="M391.8,200.813c0,0-0.85,0.473-1.321,0.567c-0.472,0.094-0.378,0.66-0.378,0.66l-0.094,1.228    c0,0,0,0.755,0.378,0.661c0.377-0.095,0.943,0,1.415-0.567"/>
	<path style="&st8;" d="M388.755,207.84c-0.133,0.284-2.043,4.113-2.146,4.301c-0.364,0.669,0.378,0.85,0.378,0.85l7.552,4.531    c0,0,1.133,0.755,0.755,1.982s-2.359,8.024-2.359,8.024s-0.661,1.321-2.644,1.793s-14.727,4.437-14.727,4.437"/>
	<path style="&st8;" d="M389.346,210.064l8.023,5.192c0,0,1.605,1.321,1.228,3.114c-0.378,1.794-2.266,7.741-3.493,9.157    c-1.227,1.416-2.359,1.888-3.02,2.076c-0.661,0.188-2.077,0.472-2.832,0"/>
	<path style="&st8;" d="M393.499,228c0,0-0.565,1.416-2.266,1.793"/>
	<path style="&st8;" d="M397.842,217.145l-1.699,0.755"/>
	<path style="&st8;" d="M366.974,218.466c0,0,6.608,3.776,7.269,4.248s1.321,0.755,1.511,2.549    c0.188,1.793-0.022,6.322-0.095,7.269c-0.095,1.227-0.566,2.077-2.171,2.643c-1.604,0.566-2.172,0.095-2.172,0.095"/>
	<path style="&st8;" d="M375.941,224.507c0,0,17.275-5.003,18.597-5.663"/>
	<path style="&st8;" d="M385.307,223.921c1.771-0.538,3.379-1.019,3.379-1.019s0.566-0.283,0.755,0.378c0.188,0.66,0,3.21,0,3.21    s-0.188,0.754-0.755,0.943c-0.566,0.188-7.458,2.266-7.458,2.266S380,229.888,380,229.038"/>
	<path style="&st8;" d="M373.298,232.625c0,0,0-4.531,0-5.852c0-1.322-1.227-2.549-1.227-2.549s-5.759-3.588-6.325-3.776    c-0.566-0.189-0.566,0.377-0.566,0.377v8.119"/>
	<path style="&st8;" d="M370.749,233.758l-27.659,8.024"/>
	<path style="&st8;" d="M391.518,186.465c0,0-0.944,0.85-1.982,1.132"/>
	<path style="&st8;" d="M389.535,187.597c-4.95,1.875-36.164,12.174-40.309,13.216"/>
	<path style="&st8;" d="M390.479,183.255l-1.699,0.661"/>
	<path style="&st8;" d="M388.779,183.916c-5.254,1.675-34.278,11.559-40.779,13.404l-3.493,0.85"/>
	<path style="&st8;" d="M390.007,175.042l-1.511,0.472"/>
	<path style="&st8;" d="M364.146,107.323c0,0-26.436-9.343-54.024-17.027c-13.997-3.898-44.099-11.275-55.534-13.099"/>
	<path style="&st8;" d="M355.15,108.987c0,0-29.099-9.983-57.135-18.054c-12.83-3.693-43.511-11.416-53.455-13.238"/>
	<path style="&st8;" d="M345.805,110.898c0,0-28.151-10.115-56.188-18.187c-16.975-4.887-49.888-13.216-55.165-14.271"/>
	<path style="&st8;" d="M336.445,112.8c-11.12-3.724-39.2-13.489-57.333-19.106c-6.671-2.066-46.153-13.182-52.202-14.094"/>
	<path style="&st8;" d="M326.966,115.117c-14.217-4.989-48.797-17.554-55.925-19.724c-10.666-3.246-43.302-12.976-50.677-14.467"/>
	<path style="&st8;" d="M211.332,82.833c7.126,1.243,39.801,11.33,48.453,14.26c29.396,9.957,56.285,20.815,56.285,20.815"/>
	<path style="&st8;" d="M190.119,87.565c0,0,6.582-0.858,14.229,0.182c6.852,0.933,8.284,1.274,15.081,3.611    c6.189,2.128,43.234,16.406,73.877,28.955c1.952,0.8,5.953,2.5,6.952,2.95c1,0.45,3.75,2.6,3.45,7.8"/>
	<path style="&st8;" d="M187.83,91.953c0,0,15.074,1.402,23.74,4.291c1.443,0.481,45.344,18.878,66.797,27.876l7.503,3.147    c2.578,1.082,4.074,1.709,4.074,1.709s4.153,1.794,5.569,2.36s5.098,2.077,8.591,3.021c0.997,0.27,2.015,0.389,2.958,0.422"/>
	<path style="&st8;" d="M307.063,134.779c2.36,0.083,4.263-0.375,4.263-0.375s20.249-4.814,41.347-10.195    c21.099-5.38,28.319-7.08,28.319-7.08s0.85-0.142,0.85-0.708"/>
	<path style="&st8;" d="M211.57,96.243c0,0-2.136,5.572-5.303,18.867"/>
	<path style="&st8;" d="M206.318,114.862c-0.855,4.155-4.664,21.952-5.581,27.046c-0.217,1.205-0.254,3.455,0.046,4.767"/>
	<path style="&st8;" d="M173.457,123.501l21.759,11.186l0.425-0.142c0,0,5.239-22.514,8.496-32.426c0,0,0.708-1.841-0.708-2.549    c-1.417-0.708-14.585-5.947-14.585-5.947s-2.926-0.944-5.286,2.218l-11.525,16.853"/>
	<path style="&st8;" d="M303.006,134.729l0.1,16.4l0.048,6.399c-0.021,4.144-0.103,15.156-0.416,27.401l-0.184,6.394    c-0.074,2.336-0.157,4.681-0.252,6.998"/>
	<path style="&st8;" d="M202.224,135.961l89.844,44.178c0,0,3.186,1.274,4.673,0.212c1.486-1.062,1.486-3.822,1.486-3.822    l0.064-4.052l0.136-7l0.274-18.548l0.091-6.1l0.028-1.9c0-1.066,0.1-6.167-1.888-7.029"/>
	<path style="&st8;" d="M219.57,99.571c-3.964-0.991-4.389,1.699-4.389,1.699s-1.08,9.156-1.973,16.466l-0.762,6.552    c-0.038,0.659-0.21,1.948-0.239,2.612c0,0-0.474,3.351,2.69,5.239c0,0,13.72,6.726,29.89,14.549    c1.221,0.59,1.875,0.262,2.496,0.026c0.648-0.247,1.399-0.836,1.538-2.212c0.227-2.254,0.111-3.521,0.111-3.521"/>
	<path style="&st8;" d="M248.932,140.979c0-3.598,0.365-8.009,0.677-11.817l1.361-11.75c0,0,0.885-3.682-1.805-5.522"/>
	<path style="&st8;" d="M247.356,141.729c0.053-4.284,0.346-8.605,0.703-12.404l1.355-11.094c0.108-0.711,0.174-1.102,0.174-1.102    s0.654-3.196-1.603-4.194l-0.59-0.249l-22.764-9.656l-5.345-2.185c-2.124-0.708-2.752,0.77-2.752,0.77s-1.115,9.396-2.036,17.014    l-0.703,6.521c-0.028,0.522-0.212,1.569-0.235,2.094c0,0-0.221,2.204,1.761,3.478c0,0,13.802,6.667,29.713,14.349    c0,0,0.405,0.193,0.841,0.098c1.33-0.29,1.48-1.04,1.48-1.939C247.356,142.329,247.356,141.729,247.356,141.729"/>
	<path style="&st8;" d="M257.235,115.288c-1.841-0.425-2.266,1.699-2.266,1.699s-0.327,2.14-0.767,5.364l-1.06,8.438    c-0.548,4.807-1.035,10.012-1.147,14.092c0,0-0.975,4.932,4.327,7.493c16.414,7.928,32.074,15.718,35.294,17.23    c1.004,0.471,2.616,1.371,3.517,0.809c0.485-0.305,0.837-0.727,0.887-4.582c0.106-8.144,0.721-28.337,0.721-30.578    c0-2.974-1.558-3.965-1.558-3.965"/>
	<path style="&st8;" d="M294.531,166.222l0.511-31.393c-0.142-2.124-1.699-2.832-1.699-2.832l-7.144-3l-13.928-5.85l-14.106-5.924    c-1.478-0.615-1.7,0.49-1.7,0.49s-0.291,1.9-0.692,4.819l-1.067,8.397c-0.576,4.966-1.098,10.432-1.214,14.679    c0,0-0.189,3.469,3.122,5.053c17.801,8.516,34.726,16.776,35.596,17.16C293.071,168.2,294.604,169.494,294.531,166.222    l-0.006,0.307"/>
	<path style="&st8;" d="M274.171,123.988c-1.313,8.1-3.278,29.317-3.201,33.497"/>
	<path style="&st8;" d="M275.858,124.775c-1.575,8.137-3.411,29.1-3.331,33.417"/>
	<path style="&st8;" d="M197.056,183.963c0,0-1.982-3.257-2.974-7.787c0,0-0.566-1.7-0.566-3.399s0.832-14.682,0.991-16.142    c0.159-1.46,0.85-1.982,0.85-1.982l0.566-0.85c0,0,0.425-0.85,0.425-1.274s0-7.929,0-7.929s-0.425-0.708-0.425-1.841    c0-1.132,0.142-2.549,0.85-5.805c0.708-3.257,5.098-23.505,8.637-34.975c0,0,0.708-2.266-0.142-2.832s-16.425-6.938-16.425-6.938    s-3.209-1.463-5.853,1.747"/>
	<path style="&st8;" d="M173.551,124.208c0,0,1.133,0.425,1.558,0.85s-0.275,0.955-0.275,0.955c-0.375,0.425-0.675,1.1-0.925,2.1    s-0.151,1.633-2,0.867c0,0-1.755-0.665-2.322-1.089s-0.566-1.558-0.566-1.558"/>
	<path style="&st8;" d="M163.781,121.377c0,0-2.266,1.557-2.69,4.531c0,0,0.142,0.567,0.283,1.133l-0.991,6.514    c0,0-0.566,0.991-0.991,1.416s-0.991,1.416-1.133,2.266s-1.416,9.628-0.85,14.868l0.283,0.425c0,0-0.142,3.965,3.54,10.762"/>
	<path style="&st8;" d="M156.984,151.82l0.142,8.071c0,0,0.142,1.133,0.708,1.558"/>
	<path style="&st8;" d="M187.286,146.581c0,0-0.425-0.708-0.425-1.558c0-0.849-0.142-2.124,0.283-2.548s0.672-0.429,1.133-0.142    c0.461,0.288,4.814,2.549,4.814,2.549s0.566,0.283,0.708,1.558s-0.142,2.69-0.708,2.974"/>
	<path style="&st8;" d="M186.861,143.75c0,0,4.956,2.832,5.664,3.256s1.274,0.142,1.274,0.142"/>
	<path style="&st8;" d="M236.961,197.952c8.481-2.292,18.562,7.705,22.513,22.328c3.953,14.624,0.28,28.338-8.202,30.63"/>
	<path style="&st8;" d="M261.271,248.393l-9.999,2.518c-8.482,2.292-18.562-7.705-22.514-22.329    c-3.952-14.623-0.28-28.337,8.203-30.629l9.998-2.517"/>
	<path style="&st8;" d="M246.959,195.436c3.738-1.011,7.787,0.366,11.484,3.474"/>
	<path style="&st8;" d="M268.365,242.094c-1.674,3.228-4.08,5.484-7.094,6.299"/>
	<path style="&st8;" d="M236.37,200.182c7.865-2.125,17.211,7.146,20.875,20.704c3.664,13.56,0.259,26.275-7.605,28.4"/>
	<path style="&st8;" d="M249.64,249.286c-7.865,2.126-17.211-7.145-20.875-20.704c-3.665-13.559-0.259-26.275,7.605-28.4"/>
	<path style="&st8;" d="M237.824,208.599c5.243-1.417,11.473,4.763,13.916,13.802c2.442,9.038,0.173,17.515-5.07,18.932"/>
	<path style="&st8;" d="M246.67,241.332c-5.243,1.417-11.473-4.763-13.916-13.802c-2.443-9.038-0.173-17.515,5.07-18.932"/>
	<path style="&st8;" d="M135.589,134.443c4.215-1.114,9.164,2.884,12.734,9.601"/>
	<path style="&st8;" d="M152.521,168.394c-0.897,4.312-2.905,7.362-5.81,8.13"/>
	<path style="&st8;" d="M158.46,172.161c-0.908,1.119-2.005,1.89-3.273,2.225"/>
	<path style="&st8;" d="M155.187,174.386l-8.475,2.138c-5.81,1.536-13.011-6.64-16.082-18.259    c-3.071-11.62-0.852-22.285,4.958-23.821l6.544-1.714"/>
	<path style="&st8;" d="M135.157,136.4c5.221-1.38,11.666,5.783,14.58,16.092"/>
	<path style="&st8;" d="M151.153,160.989c0.339,7.268-1.806,12.988-5.786,14.04"/>
	<path style="&st8;" d="M145.367,175.029c-5.333,1.41-11.943-6.095-14.763-16.762s-0.781-20.458,4.552-21.867"/>
	<path style="&st8;" d="M136.165,143.421c3.451-0.912,7.728,3.944,9.552,10.847c1.824,6.902,0.506,13.237-2.945,14.149"/>
	<path style="&st8;" d="M142.772,168.417c-3.451,0.912-7.729-3.943-9.553-10.846s-0.505-13.237,2.946-14.15"/>
	<path style="&st8;" d="M179.658,98.763c-6.15,0.05-19.1,2.55-24.05,3.5c-4.95,0.95-18.013,3.688-22.45,5.9    c-4.807,2.397-8.05,7.4-9.3,12.55s-0.35,9.95,0.05,11c0,0,1.725,0.825,2.025,0.938c0.3,0.112,0.712,0,1.087-0.45    c0.375-0.45,4.319-4.646,4.319-4.646s0.944-1.039,1.793-0.566s11.154,6.897,11.154,6.897s2.36,1.321,3.021,4.059    c0.661,2.737,1.227,7.363,1.416,7.835c0.189,0.472,0.567,1.699,0.755,2.171c0.189,0.472,3.398,10.195,3.587,10.573    c0.188,0.378,0.944,0.85,0.944,0.85l7.222,3.918c0,0,3.965,2.266,5.664,3.115c1.699,0.85,58.905,34.407,58.905,34.407    s1.274,0.851,2.266,1.417c0.991,0.565,1.699,0.991,1.699,0.991l0.283-1.134c0,0-3.115-1.557-3.54-3.822s0.283-5.947,0.708-7.363    s0.566-2.549,2.407-4.39s3.115-3.257,3.115-3.257s1.133-0.708,2.407-0.425"/>
	<path style="&st8;" d="M126.233,131.713c0.188-0.712,1.5-3.375,2.662-4.462c1.163-1.088,4.463-3.038,6.788-1.613    c2.325,1.425,9.225,5.513,10.35,6.263s2.962,2.1,3.563,5.063s1.913,11.4,1.913,11.4"/>
	<path style="&st8;" d="M123.271,124.888c0.525-0.75,4.242-5.842,9.413-8.737c0.938-0.525,2.813-2.025,0.263-3.3    c-2.55-1.275-3.375-1.537-2.775-2.662"/>
	<path style="&st8;" d="M133.621,113.3c0.563,0.375,21,10.538,21,10.538s1.462,0.45,2.212,2.362s2.888,6.225,3.188,6.938    c0.3,0.712,0.6,1.163,1.425,1.613c0.825,0.45,32.286,17.376,35.469,18.911l101.714,54.138c0,0,0.566,0.378,1.228,0.378"/>
	<path style="&st8;" d="M154.771,123.875l78.434,39.657l62.026,31.806c0,0,4.909,3.021,11.517,2.927c0,0,3.154-0.444,3.776-0.566    c17.652-3.493,36.721-8.779,36.721-8.779c7.858-2.2,12.396-3.479,18.461-5.49l10.978-3.821c7.229-2.552,11.53-4.282,11.53-4.282"/>
	<path style="&st8;" d="M228.946,137.3c0-1.35,1.05-12.45,1.425-16.95s1.763-14.063,1.763-14.063"/>
	<path style="&st8;" d="M230.521,138.013c0-1.35,1.05-12.45,1.425-16.95S233.708,107,233.708,107"/>
	<path style="&st8;" d="M137.783,107.9c4.05,0.862,18.563,5.025,27.563,10.275"/>
	<path style="&st8;" d="M133.696,112.363c8.775,0.188,18.975,2.325,31.163,7.65"/>
	<path style="&st8;" d="M308.333,236.438c0.601-0.449,0.84-1.057,1.057-1.641"/>
	<path style="&st8;" d="M309.908,132.513c0-1.25-0.162-4.604-1.2-6.55c-0.4-0.75-0.569-2.347,0.866-2.798    c4.741-1.493,14.392-3.979,25.032-6.678l10.562-2.604c12.1-2.887,23.965-5.345,30.443-5.675"/>
	<path style="&st8;" d="M334.858,128.713c-0.551-0.4-2-1.4-1.2-2.6c0.8-1.2,1.5-2.1,2.65-2.4c1.149-0.3,20.5-5.25,21.649-5.5    c1.15-0.25,2.6-0.35,3.851,0.6c1.25,0.95,0.899,1.8-0.75,3.15"/>
	<path style="&st8;" d="M335.559,128.463c0.1-0.65,0.35-2.2,2.8-2.95s18.9-4.8,23.05-5.7"/>
	<path style="&st8;" d="M338.008,189.863c-0.8-0.051-1.8,0.1-2.1-1.101c-0.3-1.199-0.25-2,1.05-2.399    c1.301-0.4,5.601-1.4,6.3-1.551c0.7-0.149,1.5-0.149,1.601,0.95c0.1,1.101-0.351,2.3-0.8,2.75"/>
	<path style="&st8;" d="M336.158,187.813c0.65,0.351,0.95,0.2,1.45,0.101c0.5-0.101,5.2-1.2,5.8-1.4s1.15-0.449,1.15-0.85"/>
	<path style="&st4;" d="M126.779,132.501c0.109,0.197,0.139,0.345,0.139,0.345s0.094,7.08-0.189,7.93s-1.51,0.944-1.51,0.944    s-1.416-0.566-2.266-0.944c-0.85-0.378-1.274-0.944-1.699-1.794s-0.802-5.145-0.377-6.844c0.188-0.75,0.926-1.334,1.693-1.753"/>
	<path style="&st4;" d="M297.595,210.265l-102.928-55.09l-35.842-18.93c0,0-0.098-0.053-0.282-0.151c0,0-0.659-0.181-1.222-1.456    s-2.888-6.45-3.15-6.975c-0.263-0.525-0.675-1.05-1.5-1.5c-0.825-0.45-19.2-9.487-19.2-9.487"/>
	<path style="&st4;" d="M127.012,139.454l4.246-1.362"/>
	<path style="&st4;" d="M155.804,163.903c0,0-0.472,1.133,0.377,1.605c0.85,0.472,34.172,20.106,34.172,20.106    s1.416,0.472,1.982,0.094c0.566-0.377,1.982-1.793,2.549-2.643"/>
	<path style="&st4;" d="M195.923,183.633c0,0-1.699,2.171-2.266,2.549c-0.566,0.377-0.661,0.85-0.661,0.85l0.094,1.227"/>
	<path style="&st4;" d="M154.86,159.938c0,0-0.283,1.605-0.755,2.455c-0.472,0.85-0.755,1.32-0.755,1.982c0,0.66,0,1.32,0,1.32    s0.377,0.756,0.755,1.039s37.099,21.9,37.099,21.9s1.228,0.661,2.36,0.472c1.133-0.188,5.759-1.699,5.759-1.699    s1.133-0.66,1.416-1.321"/>
	<path style="&st4;" d="M149.479,148.233c0,0-0.377,0.472-0.188,1.417c0.188,0.944,3.964,22.088,3.964,22.088    s0.566,1.512,2.455,1.134l5.853-1.794"/>
	<path style="&st4;" d="M149.385,147.478l44.698,25.44l30.868,17.559"/>
	<path style="&st4;" d="M226.792,201.521c0,0-2.266-1.416-1.982-4.248s0.566-5.239,0.566-5.239s0.283-2.124,1.133-3.682    s2.407-3.257,3.54-4.248s3.115-2.407,6.23-0.85c3.115,1.558,17.275,9.771,17.275,9.771s4.106,2.124,5.522,7.362    c1.554,5.75,2.973,11.187,2.973,11.187s-0.991,0.566-0.613,1.982c0.377,1.416,4.814,25.487,4.814,25.487s0.283,3.494,3.21,2.927    c2.926-0.566,7.552-2.266,8.213-2.737c0.66-0.473,1.669-0.485,1.981-3.775c0.189-1.982,0-3.682,0-3.682"/>
	<path style="&st4;" d="M165.338,115.666c0,0,0.189-1.51,1.699-2.266c1.51-0.755,2.926-1.227,4.154-0.85    c1.227,0.378,2.266,0.661,2.266,3.021s0,7.93,0,7.93s-0.283,1.604-1.699,2.171s-4.154,1.039-5.098,0.472s-1.416-1.322-1.416-2.549    S165.338,115.666,165.338,115.666z"/>
	<path style="&st4;" d="M172.701,114.911c0,0-0.377-1.039-1.605-0.944c-1.227,0.095-2.737,0.472-3.493,1.699    c-0.33,0.537-0.377,2.644-0.377,2.644v5.758c0,0,0.094,1.322,1.51,1.605s3.587-0.661,3.871-1.793"/>
	<path style="&st4;" d="M171.379,114.155c0,0,0.661,0.566,0.661,1.605c0,1.038,0,7.552,0,7.552s0.188,1.51-1.228,1.982"/>
	<path style="&st4;" d="M170.341,112.267l12.649-18.313c0,0,1.383-1.722,3.587-3.682c2.549-2.266,4.154-3.304,4.154-3.304    s1.321-1.228,5.192-2.36c3.87-1.133,11.705-3.209,26.715-5.569c15.009-2.36,24.782-2.751,32.473-2.549    c0,0,8.685,0.094,23.695,2.926c15.009,2.832,28.886,5.853,50.22,12.461s45.783,14.82,47.766,15.67s2.927,2.171,4.153,6.23    c1.228,4.059,4.626,17.463,6.514,30.396c1.888,12.933,3.304,27.563,3.304,27.563s0,1.605-0.188,2.172s-0.566,1.133-0.566,1.133    l0.472,8.213c0,0,1.605,2.549,1.511,3.493c-0.066,0.657,0,9.063,0,9.063s-0.095,4.908-0.095,6.984    c0,2.077-1.888,6.986-3.209,7.741c-1.322,0.755-1.982,0.944-1.982,0.944c-2.612,1.124-9.087,3.336-16.069,5.635l-10.664,3.459    c-7.223,2.314-13.009,4.122-13.009,4.122s-36.815,10.101-37.099,10.194c-0.283,0.095-0.473-0.094-0.473-0.094    c0.077-0.295,0.155-0.591,0.223-0.89c0.371-1.619,1.336-4.102,1.415-8.485c0.009-0.478,0.063-0.853,0.063-1.104    c0-1.321,0.188-10.195,0.094-11.705c-0.094-1.511-0.282-2.172-0.282-2.172s0,0.095-0.473-1.51s-0.188-2.455-0.188-2.455    l0.386-16.136c0-19.245,0.058-19.231-0.386-55.701"/>
	<path style="&st4;" d="M380.188,117.271c0,0,3.776,15.198,5.665,30.396c1.888,15.198,2.643,27.517,2.643,27.517    s0.426,5.947,0.566,8.496"/>
	<path style="&st4;" d="M389.063,183.68v23.506c0,0-0.07,0.349-0.308,0.654"/>
	<path style="&st4;" d="M388.755,207.84c-3.608,1.213-35.271,11.305-40.446,12.973"/>
	<path style="&st4;" d="M348.309,220.813c-10.014,2.754-32.228,9.078-36.172,10.09"/>
	<path style="&st4;" d="M372.706,172.335c4.004-1.191,8.025-2.439,12.108-3.806l0.565-0.413    c-0.422-5.016-1.097-12.121-2.075-19.998c-1.208-9.717-3.187-19.435-4.457-25.18c0,0-0.139-0.748-0.484-0.518    c0,0-21.82,6.979-33.007,9.104c0,0-0.897,0.325-0.685,1.012c0,0,2.87,19.795,5.099,45.781c0,0,0.349,0.524,0.837,0.382    c5.836-1.705,11.553-3.294,17.273-4.949L372.706,172.335z"/>
	<path style="&st4;" d="M348.141,180.989c-2.266-28.036-5.381-49.559-5.381-49.559c-0.047-1.133,0.992-1.227,0.992-1.227    c11.186-2.124,35.115-9.534,35.115-9.534s0.828-0.388,1.052,0.443c1.442,5.367,3.479,16.071,4.802,26.723    c1.094,8.808,1.808,16.648,2.215,21.686l-0.847,0.424c-3.864,1.294-7.808,2.551-11.763,3.762l-6.578,1.972    c-28.42,8.344-55.432,14.091-55.432,14.091l-1.415,0.142"/>
	<path style="&st4;" d="M347.008,181.414c-2.266-28.036-5.397-49.86-5.397-49.86s-0.125-0.596-0.974-0.407    c0,0-25.205,5.381-27.754,5.806c0,0-1.155,0.047-1.098,1.274"/>
	<path style="&st4;" d="M313.875,187.078c0-5.74-0.033-11.465-0.083-16.851l-0.375-25.649c-0.064-3.212-0.109-5.077-0.109-5.077    c-0.047-0.331,0.425-0.566,0.425-0.566c2.549-0.425,25.865-5.995,25.865-5.995c0.283-0.188,0.517,0.171,0.517,0.171    s2.894,20.161,5.131,46.621l-0.714,0.561c-0.299,0.077-0.595,0.153-0.891,0.229l-7.973,2.002    c-12.894,3.167-21.652,4.979-21.652,4.979"/>
	<path style="&st4;" d="M306.983,135.988c0.099,6.436,0.33,19.608,0.33,19.608s-0.187,15.239-0.381,29.632l-0.076,5.551    c-0.102,7.267-0.198,13.729-0.266,17.087"/>
	<path style="&st4;" d="M346.772,201.38l-19.314,5.309"/>
	<path style="&st4;" d="M322.28,202.35c-1.035,0.278-1.656,0.445-1.656,0.445s-0.755,0.331-0.755,1.039v4.679    c0,0.426,0.139,0.8,0.689,1c0.55,0.2,3.125,1.2,3.574,1.375c0.45,0.175,0.825,0.101,1.601-0.1c0.774-0.2,17.036-4.729,20.55-5.675    c0.65-0.176,1.244-0.226,1.244-1.885c0-0.547,0-1.119,0-1.377c0-0.566-0.283-0.755-0.283-0.755s-0.837-0.78-1.634-1.509    l-1.103-0.925l-0.024-0.4c0,0-1.025-0.6-1.425-0.85c-0.4-0.25-1.175-0.4-1.9-0.2c-0.725,0.2-7.39,2.042-10.686,2.929    L322.28,202.35z"/>
	<path style="&st4;" d="M342.483,198.438c-1.844,0.53-7.563,2.232-9.771,2.864l-8.472,2.409c-0.668,0.186-1.086,0.299-1.162,0.311    c-0.566,0.095-0.095,0.661-0.095,0.661s0.938,0.752,1.857,1.333c0.468,0.297,1.793,1.046,1.768,2.521    c-0.024,1.475-0.024,1.475-0.024,1.475"/>
	<path style="&st4;" d="M319.774,205.061l-1.02,0.266l-4.788,1.245l-3.633,0.944"/>
	<path style="&st4;" d="M319.869,203.834c0,0.755,0.755,0.944,0.755,0.944l3.965,2.737c0,0,0.378,0.472,0.378,0.85    c0,0.041,0,0.105,0,0.188v1.66"/>
	<path style="&st4;" d="M311.562,211.197l8.222-2.209"/>
	<path style="&st4;" d="M349.132,200.53c0,0,0.095,0.566-1.604,1.038"/>
	<path style="&st4;" d="M351.397,232.909l2.549,1.604c0,0,1.228,0.473,2.077-0.377"/>
	<path style="&st4;" d="M350.549,234.702l-3.588,1.038c0,0-0.472,0.095-0.85-0.188s-0.378-0.661-0.378-0.661"/>
	<path style="&st4;" d="M342.901,243.481c0,0,27.093-7.93,28.037-8.213s1.133-0.66,1.133-0.66s0-0.182,0-0.756    c0-0.755-0.473-0.943-0.473-0.943l-6.136-3.776l-9.505,2.855l1.292,0.921c0,0,0.378,0.282,0.378,0.849c0,0.567,0,1.228,0,1.228    s-0.405,0.647-0.85,0.944c-0.85,0.566-2.454,0.661-3.021,0.472s-3.553-2.073-3.553-2.073"/>
	<path style="&st4;" d="M345.797,234.975l-2.896,0.86"/>
	<path style="&st4;" d="M332.329,228.944l9.439,5.381c0,0,1.039,0.472,1.133,1.981c0.095,1.511,0,7.175,0,7.175    s0,1.133-1.793,2.266c-1.321,0.834-2.549-0.283-2.549-0.283"/>
	<path style="&st4;" d="M329.259,229.888l9.867,5.476c0,0,0.944,0.755,0.944,1.698c0,0.945,0,6.798,0,6.798    s-0.095,0.849-0.944,1.321c-0.85,0.472-20.579,6.324-20.579,6.324"/>
	<path style="&st4;" d="M339.283,236.388l-20.45,6.15"/>
	<path style="&st4;" d="M324.503,243.632v3.02c0,0,0,0.756,0.755,0.661c0.756-0.095,8.393-2.51,8.393-2.51s0.566-0.566,0.566-1.038    c0-0.473,0-3.021,0-3.021s-0.094-0.85-0.944-0.473c-0.545,0.243-8.203,2.416-8.203,2.416S324.503,242.854,324.503,243.632z"/>
	<path style="&st4;" d="M316.7,241.409c-1.049-0.688-2.348-1.531-2.968-1.893c-1.132-0.661-1.794-1.133-2.831-1.699    c-1.039-0.566-0.756-1.605-0.756-1.605c-0.094-0.377-1.227-0.188-1.605,0.095c-0.377,0.284-1.321,0.661-1.321,0.661    c-1.982,0.661-4.436,0.378-6.419-0.472c-1.982-0.85-13.31-7.552-13.31-7.552s-0.566-0.378-0.944-0.283    c-0.756,0.188-0.85,0.85-0.85,2.076c0,1.228,1.699,8.779,2.266,11.422c0.566,2.644,1.888,3.021,1.888,3.021    s15.293,8.307,17.181,9.063c1.889,0.755,2.926,1.132,3.871,0.943c0.943-0.188,3.303-0.755,5.003-1.321    c1.698-0.566,2.737-1.793,2.643-3.682c-0.008-0.172-0.013-0.354-0.013-0.546c0,0,0-5.125,0-5.575c0-0.449,0.124-1.35-0.676-1.875    C317.059,241.663,316.7,241.409,316.7,241.409z"/>
	<path style="&st4;" d="M287.018,230.266c0,0,9.534,5.946,19.635,11.517c0,0,3.588,2.077,5.003,2.266    c1.416,0.188,3.871-0.472,3.871-0.472l2.454-0.661"/>
	<path style="&st4;" d="M302.216,236.873c-2.926-1.415-3.021-5.946-3.021-5.946s0-4.421,0-8.948l0.022-9.765    c0.101-1.309,0.519-2.442,0.899-3.232l0.591-1.151"/>
	<path style="&st4;" d="M299.667,215.351c0,0,1.227,0.755,2.738,1.038c1.51,0.283,2.234,0.472,4.437-0.188    c1.888-0.566,3.965-1.511,3.965-1.511s0.283-0.094,0.377-0.66"/>
	<path style="&st4;" d="M299.667,223.186c0,0,1.511,1.039,3.021,1.321c1.511,0.284,2.738,0.095,4.626-0.378    c1.511-0.377,3.398-1.321,3.398-1.321"/>
	<path style="&st4;" d="M262.285,211.669c0,0,0.566,0.472,1.133,1.511c0.566,1.038,5.381,11.705,5.381,11.705    s0.473,1.133,1.228,1.51c0.755,0.379,16.52,9.252,16.52,9.252"/>
	<path style="&st4;" d="M261.625,209.781l37.571,21.712"/>
	<path style="&st4;" d="M275.124,187.691c0,0-0.095-1.416,1.51-0.755c1.605,0.66,11.611,5.947,11.611,5.947s0.661,0.472,0.85,1.604    s0.095,3.682-0.095,4.343c-0.188,0.661-0.85,0.943-1.699,0.472s-10.761-5.664-10.761-5.664s-1.511-0.755-1.511-2.266    C275.029,189.863,275.124,187.691,275.124,187.691z"/>
	<path style="&st4;" d="M348.188,181.272c0,0,0.566,0.661,0.66,1.322c0.095,0.66,0.473,5.475-0.188,5.852"/>
	<path style="&st4;" d="M348,188.824v8.024c0,0-0.095,0.566,0.094,0.944c0.188,0.377,1.133,2.076,1.133,3.02    c0,0.283,0.356,7.625-0.918,20"/>
	<path style="&st4;" d="M391.895,197.51c0,0-0.188,1.982-2.643,1.982"/>
	<path style="&st4;" d="M391.8,200.813c0,0-0.85,0.473-1.321,0.567c-0.472,0.094-0.378,0.66-0.378,0.66l-0.094,1.228    c0,0,0,0.755,0.378,0.661c0.377-0.095,0.943,0,1.415-0.567"/>
	<path style="&st4;" d="M388.755,207.84c-0.133,0.284-2.043,4.113-2.146,4.301c-0.364,0.669,0.378,0.85,0.378,0.85l7.552,4.531    c0,0,1.133,0.755,0.755,1.982s-2.359,8.024-2.359,8.024s-0.661,1.321-2.644,1.793s-14.727,4.437-14.727,4.437"/>
	<path style="&st4;" d="M389.346,210.064l8.023,5.192c0,0,1.605,1.321,1.228,3.114c-0.378,1.794-2.266,7.741-3.493,9.157    c-1.227,1.416-2.359,1.888-3.02,2.076c-0.661,0.188-2.077,0.472-2.832,0"/>
	<path style="&st4;" d="M393.499,228c0,0-0.565,1.416-2.266,1.793"/>
	<path style="&st4;" d="M397.842,217.145l-1.699,0.755"/>
	<path style="&st4;" d="M366.974,218.466c0,0,6.608,3.776,7.269,4.248s1.321,0.755,1.511,2.549    c0.188,1.793-0.022,6.322-0.095,7.269c-0.095,1.227-0.566,2.077-2.171,2.643c-1.604,0.566-2.172,0.095-2.172,0.095"/>
	<path style="&st4;" d="M375.941,224.507c0,0,17.275-5.003,18.597-5.663"/>
	<path style="&st4;" d="M385.307,223.921c1.771-0.538,3.379-1.019,3.379-1.019s0.566-0.283,0.755,0.378c0.188,0.66,0,3.21,0,3.21    s-0.188,0.754-0.755,0.943c-0.566,0.188-7.458,2.266-7.458,2.266S380,229.888,380,229.038"/>
	<path style="&st4;" d="M373.298,232.625c0,0,0-4.531,0-5.852c0-1.322-1.227-2.549-1.227-2.549s-5.759-3.588-6.325-3.776    c-0.566-0.189-0.566,0.377-0.566,0.377v8.119"/>
	<path style="&st4;" d="M370.749,233.758l-27.659,8.024"/>
	<path style="&st4;" d="M391.518,186.465c0,0-0.944,0.85-1.982,1.132"/>
	<path style="&st4;" d="M389.535,187.597c-4.95,1.875-36.164,12.174-40.309,13.216"/>
	<path style="&st4;" d="M390.479,183.255l-1.699,0.661"/>
	<path style="&st4;" d="M388.779,183.916c-5.254,1.675-34.278,11.559-40.779,13.404l-3.493,0.85"/>
	<path style="&st4;" d="M390.007,175.042l-1.511,0.472"/>
	<path style="&st4;" d="M364.146,107.323c0,0-26.436-9.343-54.024-17.027c-13.997-3.898-44.099-11.275-55.534-13.099"/>
	<path style="&st4;" d="M355.15,108.987c0,0-29.099-9.983-57.135-18.054c-12.83-3.693-43.511-11.416-53.455-13.238"/>
	<path style="&st4;" d="M345.805,110.898c0,0-28.151-10.115-56.188-18.187c-16.975-4.887-49.888-13.216-55.165-14.271"/>
	<path style="&st4;" d="M336.445,112.8c-11.12-3.724-39.2-13.489-57.333-19.106c-6.671-2.066-46.153-13.182-52.202-14.094"/>
	<path style="&st4;" d="M326.966,115.117c-14.217-4.989-48.797-17.554-55.925-19.724c-10.666-3.246-43.302-12.976-50.677-14.467"/>
	<path style="&st4;" d="M211.332,82.833c7.126,1.243,39.801,11.33,48.453,14.26c29.396,9.957,56.285,20.815,56.285,20.815"/>
	<path style="&st4;" d="M190.119,87.565c0,0,6.582-0.858,14.229,0.182c6.852,0.933,8.284,1.274,15.081,3.611    c6.189,2.128,43.234,16.406,73.877,28.955c1.952,0.8,5.953,2.5,6.952,2.95c1,0.45,3.75,2.6,3.45,7.8"/>
	<path style="&st4;" d="M187.83,91.953c0,0,15.074,1.402,23.74,4.291c1.443,0.481,45.344,18.878,66.797,27.876l7.503,3.147    c2.578,1.082,4.074,1.709,4.074,1.709s4.153,1.794,5.569,2.36s5.098,2.077,8.591,3.021c0.997,0.27,2.015,0.389,2.958,0.422"/>
	<path style="&st4;" d="M307.063,134.779c2.36,0.083,4.263-0.375,4.263-0.375s20.249-4.814,41.347-10.195    c21.099-5.38,28.319-7.08,28.319-7.08s0.85-0.142,0.85-0.708"/>
	<path style="&st4;" d="M211.57,96.243c0,0-2.136,5.572-5.303,18.867"/>
	<path style="&st4;" d="M206.318,114.862c-0.855,4.155-4.664,21.952-5.581,27.046c-0.217,1.205-0.254,3.455,0.046,4.767"/>
	<path style="&st4;" d="M173.457,123.501l21.759,11.186l0.425-0.142c0,0,5.239-22.514,8.496-32.426c0,0,0.708-1.841-0.708-2.549    c-1.417-0.708-14.585-5.947-14.585-5.947s-2.926-0.944-5.286,2.218l-11.525,16.853"/>
	<path style="&st4;" d="M303.006,134.729l0.1,16.4l0.048,6.399c-0.021,4.144-0.103,15.156-0.416,27.401l-0.184,6.394    c-0.074,2.336-0.194,4.68-0.252,6.998c-0.043,1.759-0.043,7.009,0.106,8.358"/>
	<path style="&st4;" d="M202.224,135.961l89.844,44.178c0,0,3.186,1.274,4.673,0.212c1.486-1.062,1.486-3.822,1.486-3.822    l0.064-4.052l0.136-7l0.274-18.548l0.091-6.1l0.028-1.9c0-1.066,0.1-6.167-1.888-7.029"/>
	<path style="&st4;" d="M219.57,99.571c-3.964-0.991-4.389,1.699-4.389,1.699s-1.08,9.156-1.973,16.466l-0.762,6.552    c-0.038,0.659-0.21,1.948-0.239,2.612c0,0-0.474,3.351,2.69,5.239c0,0,13.72,6.726,29.89,14.549    c1.221,0.59,1.875,0.262,2.496,0.026c0.648-0.247,1.399-0.836,1.538-2.212c0.227-2.254,0.111-3.521,0.111-3.521"/>
	<path style="&st4;" d="M248.932,140.979c0-3.598,0.365-8.009,0.677-11.817l1.361-11.75c0,0,0.885-3.682-1.805-5.522"/>
	<path style="&st4;" d="M247.356,141.729c0.053-4.284,0.346-8.605,0.703-12.404l1.355-11.094c0.108-0.711,0.174-1.102,0.174-1.102    s0.654-3.196-1.603-4.194l-0.59-0.249l-22.764-9.656l-5.345-2.185c-2.124-0.708-2.752,0.77-2.752,0.77s-1.115,9.396-2.036,17.014    l-0.703,6.521c-0.028,0.522-0.212,1.569-0.235,2.094c0,0-0.221,2.204,1.761,3.478c0,0,13.802,6.667,29.713,14.349    c0,0,0.405,0.193,0.841,0.098c1.33-0.29,1.48-1.04,1.48-1.939C247.356,142.329,247.356,141.729,247.356,141.729"/>
	<path style="&st4;" d="M257.235,115.288c-1.841-0.425-2.266,1.699-2.266,1.699s-0.327,2.14-0.767,5.364l-1.06,8.438    c-0.548,4.807-1.035,10.012-1.147,14.092c0,0-0.975,4.932,4.327,7.493c16.414,7.928,32.074,15.718,35.294,17.23    c1.004,0.471,2.616,1.371,3.517,0.809c0.485-0.305,0.837-0.727,0.887-4.582c0.106-8.144,0.721-28.337,0.721-30.578    c0-2.974-1.558-3.965-1.558-3.965"/>
	<path style="&st4;" d="M294.531,166.222l0.511-31.393c-0.142-2.124-1.699-2.832-1.699-2.832l-7.144-3l-13.928-5.85l-14.106-5.924    c-1.478-0.615-1.7,0.49-1.7,0.49s-0.291,1.9-0.692,4.819l-1.067,8.397c-0.576,4.966-1.098,10.432-1.214,14.679    c0,0-0.189,3.469,3.122,5.053c17.801,8.516,34.726,16.776,35.596,17.16C293.071,168.2,294.604,169.494,294.531,166.222    l-0.006,0.307"/>
	<path style="&st4;" d="M274.171,123.988c-1.313,8.1-3.278,29.317-3.201,33.497"/>
	<path style="&st4;" d="M275.858,124.775c-1.575,8.137-3.411,29.1-3.331,33.417"/>
	<path style="&st4;" d="M197.056,183.963c0,0-1.982-3.257-2.974-7.787c0,0-0.566-1.7-0.566-3.399s0.832-14.682,0.991-16.142    c0.159-1.46,0.85-1.982,0.85-1.982l0.566-0.85c0,0,0.425-0.85,0.425-1.274s0-7.929,0-7.929s-0.425-0.708-0.425-1.841    c0-1.132,0.142-2.549,0.85-5.805c0.708-3.257,5.098-23.505,8.637-34.975c0,0,0.708-2.266-0.142-2.832s-16.425-6.938-16.425-6.938    s-3.209-1.463-5.853,1.747"/>
	<path style="&st4;" d="M173.551,124.208c0,0,1.133,0.425,1.558,0.85s-0.275,0.955-0.275,0.955c-0.375,0.425-0.675,1.1-0.925,2.1    s-0.151,1.633-2,0.867c0,0-1.755-0.665-2.322-1.089s-0.566-1.558-0.566-1.558"/>
	<path style="&st4;" d="M163.781,121.377c0,0-2.266,1.557-2.69,4.531c0,0,0.142,0.567,0.283,1.133l-0.991,6.514    c0,0-0.566,0.991-0.991,1.416s-0.991,1.416-1.133,2.266s-1.416,9.628-0.85,14.868l0.283,0.425c0,0-0.142,3.965,3.54,10.762"/>
	<path style="&st4;" d="M156.984,151.82l0.142,8.071c0,0,0.142,1.133,0.708,1.558"/>
	<path style="&st4;" d="M187.286,146.581c0,0-0.425-0.708-0.425-1.558c0-0.849-0.142-2.124,0.283-2.548s0.672-0.429,1.133-0.142    c0.461,0.288,4.814,2.549,4.814,2.549s0.566,0.283,0.708,1.558s-0.142,2.69-0.708,2.974"/>
	<path style="&st4;" d="M186.861,143.75c0,0,4.956,2.832,5.664,3.256s1.274,0.142,1.274,0.142"/>
	<path style="&st4;" d="M236.961,197.952c8.481-2.292,18.562,7.705,22.513,22.328c3.953,14.624,0.28,28.338-8.202,30.63"/>
	<path style="&st4;" d="M261.271,248.393l-9.999,2.518c-8.482,2.292-18.562-7.705-22.514-22.329    c-3.952-14.623-0.28-28.337,8.203-30.629l9.998-2.517"/>
	<path style="&st4;" d="M246.959,195.436c3.738-1.011,7.787,0.366,11.484,3.474"/>
	<path style="&st4;" d="M268.365,242.094c-1.674,3.228-4.08,5.484-7.094,6.299"/>
	<path style="&st4;" d="M236.37,200.182c7.865-2.125,17.211,7.146,20.875,20.704c3.664,13.56,0.259,26.275-7.605,28.4"/>
	<path style="&st4;" d="M249.64,249.286c-7.865,2.126-17.211-7.145-20.875-20.704c-3.665-13.559-0.259-26.275,7.605-28.4"/>
	<path style="&st4;" d="M237.824,208.599c5.243-1.417,11.473,4.763,13.916,13.802c2.442,9.038,0.173,17.515-5.07,18.932"/>
	<path style="&st4;" d="M246.67,241.332c-5.243,1.417-11.473-4.763-13.916-13.802c-2.443-9.038-0.173-17.515,5.07-18.932"/>
	<path style="&st4;" d="M135.589,134.443c4.215-1.114,9.164,2.884,12.734,9.601"/>
	<path style="&st4;" d="M152.521,168.394c-0.897,4.312-2.905,7.362-5.81,8.13"/>
	<path style="&st4;" d="M158.46,172.161c-0.908,1.119-2.005,1.89-3.273,2.225"/>
	<path style="&st4;" d="M155.187,174.386l-8.475,2.138c-5.81,1.536-13.011-6.64-16.082-18.259    c-3.071-11.62-0.852-22.285,4.958-23.821l6.544-1.714"/>
	<path style="&st4;" d="M135.157,136.4c5.221-1.38,11.666,5.783,14.58,16.092"/>
	<path style="&st4;" d="M151.153,160.989c0.339,7.268-1.806,12.988-5.786,14.04"/>
	<path style="&st4;" d="M145.367,175.029c-5.333,1.41-11.943-6.095-14.763-16.762s-0.781-20.458,4.552-21.867"/>
	<path style="&st4;" d="M136.165,143.421c3.451-0.912,7.728,3.944,9.552,10.847c1.824,6.902,0.506,13.237-2.945,14.149"/>
	<path style="&st4;" d="M142.772,168.417c-3.451,0.912-7.729-3.943-9.553-10.846s-0.505-13.237,2.946-14.15"/>
	<path style="&st4;" d="M179.658,98.763c-6.15,0.05-19.1,2.55-24.05,3.5c-4.95,0.95-18.013,3.688-22.45,5.9    c-4.807,2.397-8.05,7.4-9.3,12.55s-0.35,9.95,0.05,11c0,0,1.725,0.825,2.025,0.938c0.3,0.112,0.712,0,1.087-0.45    c0.375-0.45,4.319-4.646,4.319-4.646s0.944-1.039,1.793-0.566s11.154,6.897,11.154,6.897s2.36,1.321,3.021,4.059    c0.661,2.737,1.227,7.363,1.416,7.835c0.189,0.472,0.567,1.699,0.755,2.171c0.189,0.472,3.398,10.195,3.587,10.573    c0.188,0.378,0.944,0.85,0.944,0.85l7.222,3.918c0,0,3.965,2.266,5.664,3.115c1.699,0.85,58.905,34.407,58.905,34.407    s1.274,0.851,2.266,1.417c0.991,0.565,1.699,0.991,1.699,0.991l0.283-1.134c0,0-3.115-1.557-3.54-3.822s0.283-5.947,0.708-7.363    s0.566-2.549,2.407-4.39s3.115-3.257,3.115-3.257s1.133-0.708,2.407-0.425"/>
	<path style="&st4;" d="M126.233,131.713c0.188-0.712,1.5-3.375,2.662-4.462c1.163-1.088,4.463-3.038,6.788-1.613    c2.325,1.425,9.225,5.513,10.35,6.263s2.962,2.1,3.563,5.063s1.913,11.4,1.913,11.4"/>
	<path style="&st4;" d="M123.271,124.888c0.525-0.75,4.242-5.842,9.413-8.737c0.938-0.525,2.813-2.025,0.263-3.3    c-2.55-1.275-3.375-1.537-2.775-2.662"/>
	<path style="&st4;" d="M154.771,123.875l78.434,39.657l62.026,31.806c0,0,4.909,3.021,11.517,2.927c0,0,3.154-0.444,3.776-0.566    c17.652-3.493,36.721-8.779,36.721-8.779c7.858-2.2,12.396-3.479,18.461-5.49l10.978-3.821c7.229-2.552,11.53-4.282,11.53-4.282"/>
	<path style="&st4;" d="M228.946,137.3c0-1.35,1.05-12.45,1.425-16.95s1.763-14.063,1.763-14.063"/>
	<path style="&st4;" d="M230.521,138.013c0-1.35,1.05-12.45,1.425-16.95S233.708,107,233.708,107"/>
	<path style="&st4;" d="M137.783,107.9c4.05,0.862,18.563,5.025,27.563,10.275"/>
	<path style="&st4;" d="M133.696,112.363c8.775,0.188,18.975,2.325,31.163,7.65"/>
	<path style="&st4;" d="M308.333,236.438c0.601-0.449,0.84-1.057,1.057-1.641"/>
	<path style="&st4;" d="M309.908,132.513c0-1.25-0.162-4.604-1.2-6.55c-0.4-0.75-0.569-2.347,0.866-2.798    c4.741-1.493,14.392-3.979,25.032-6.678l10.562-2.604c12.1-2.887,23.965-5.345,30.443-5.675"/>
	<path style="&st4;" d="M334.858,128.713c-0.551-0.4-2-1.4-1.2-2.6c0.8-1.2,1.5-2.1,2.65-2.4c1.149-0.3,20.5-5.25,21.649-5.5    c1.15-0.25,2.6-0.35,3.851,0.6c1.25,0.95,0.899,1.8-0.75,3.15"/>
	<path style="&st4;" d="M335.559,128.463c0.1-0.65,0.35-2.2,2.8-2.95s18.9-4.8,23.05-5.7"/>
	<path style="&st4;" d="M338.008,189.863c-0.8-0.051-1.8,0.1-2.1-1.101c-0.3-1.199-0.25-2,1.05-2.399    c1.301-0.4,5.601-1.4,6.3-1.551c0.7-0.149,1.5-0.149,1.601,0.95c0.1,1.101-0.351,2.3-0.8,2.75"/>
	<path style="&st4;" d="M336.158,187.813c0.65,0.351,0.95,0.2,1.45,0.101c0.5-0.101,5.2-1.2,5.8-1.4s1.15-0.449,1.15-0.85"/>
	<path style="&st4;" d="M309.769,207.61c0,0-0.594,0.232-1.38,0.353c-2.983,0.453-5.711,0.23-7.887-0.187l-0.646,0.4    c-0.661,0-1.228-0.378-1.228-0.378l-101.714-54.138c-3.183-1.534-34.644-18.461-35.469-18.911c-0.825-0.45-1.125-0.9-1.425-1.613    c-0.3-0.712-2.438-5.025-3.188-6.938s-2.212-2.362-2.212-2.362s-20.438-10.163-21-10.538"/>
</g>
<g id="キャプション">
	<text transform="matrix(1 0 0 1 410.165 294.3789)"><tspan x="0" y="0" style="&st6; &st7;">* 1:Short Wheel Base</tspan></text>
	<text transform="matrix(1 0 0 1 410.165 304.2998)"><tspan x="0" y="0" style="&st6; &st7;">* 2:Long Wheel Base</tspan></text>
	<text transform="matrix(1 0 0 1 439.1826 149.8462)"><tspan x="0" y="0" style="&st6; &st7;">Rear Wiper Relay</tspan><tspan x="0" y="10" style="&st6; &st7;">Assembly</tspan></text>
	<path style="&st2;" d="M437.717,151.789h-16.312l-87.535,12.616"/>
	<path style="&st1;" d="M437.717,151.789h-16.312l-87.535,12.616"/>
	<text transform="matrix(1 0 0 1 83.6323 306.0596)"><tspan x="0" y="0" style="&st6; &st7;">Door Control Relay Assembly  (LHD)</tspan></text>
	<path style="&st2;" d="M165.322,293.06V272.41l22.548-109.005"/>
	<path style="&st1;" d="M165.322,293.06V272.41l22.548-109.005"/>
	<text transform="matrix(1 0 0 1 292.9141 13.6074)"><tspan x="0" y="0" style="&st6; &st7;">Door Control Relay Assembly  (RHD)</tspan></text>
	<path style="&st2;" d="M375.397,17.572v13.64L257.87,132.905"/>
	<path style="&st1;" d="M375.397,17.572v13.64L257.87,132.905"/>
	<text transform="matrix(1 0 0 1 52.3853 13.6074)"><tspan x="0" y="0" style="&st6; &st7;">Tire Pressure Warning </tspan><tspan x="0" y="10" style="&st6; &st7;">ECU and Receiver (*1)</tspan></text>
	<path style="&st2;" d="M103.349,26.739v4.474l108.099,131.211"/>
	<path style="&st1;" d="M103.349,26.739v4.474l108.099,131.211"/>
	<text transform="matrix(1 0 0 1 173.1924 13.6074)"><tspan x="0" y="0" style="&st6; &st7;">Tire Pressure Warning </tspan><tspan x="0" y="10" style="&st6; &st7;">ECU and Receiver (*2)</tspan></text>
	<path style="&st2;" d="M223.656,25.072v6.141l-0.198,137.896"/>
	<path style="&st1;" d="M223.656,25.072v6.141l-0.198,137.896"/>
</g>
</svg>