<?xml version="1.0"?>
<!-- Generator: Adobe Illustrator 10.0, SVG Export Plug-In . SVG Version: 3.0.0 Build 77)  -->
<!DOCTYPE svg PUBLIC "-//W3C//DTD SVG 1.0//EN" "http://www.w3.org/TR/2001/REC-SVG-20010904/DTD/svg10.dtd"[
	<!ENTITY ns_flows "http://ns.adobe.com/Flows/1.0/">
	<!ENTITY ns_svg "http://www.w3.org/2000/svg">
	<!ENTITY ns_xlink "http://www.w3.org/1999/xlink">
	<!ENTITY st0 "fill:none;stroke:#030203;stroke-width:0.6;stroke-linecap:round;stroke-linejoin:round;">
	<!ENTITY st1 "fill:none;stroke:#000000;stroke-linecap:round;stroke-linejoin:round;">
	<!ENTITY st2 "fill:none;stroke:#000000;stroke-width:0.6;stroke-linecap:round;stroke-linejoin:round;">
	<!ENTITY st3 "fill:none;stroke:#000000;stroke-width:0.8;">
	<!ENTITY st4 "font-family:'Arial';font-weight:bold;">
	<!ENTITY st5 "font-size:8px;">
	<!ENTITY st6 "fill:none;stroke:#000000;stroke-width:0.5;stroke-linecap:round;stroke-linejoin:round;">
	<!ENTITY st7 "font-family:'Arial';">
	<!ENTITY st8 "fill:none;stroke:#030203;stroke-linecap:round;stroke-linejoin:round;">
	<!ENTITY st9 "fill:#030203;">
	<!ENTITY st10 "font-size:10px;">
	<!ENTITY st11 "fill:none;stroke:#FFFFFF;stroke-width:0.2;">
	<!ENTITY st12 "fill:none;stroke:#000000;stroke-width:0.4;stroke-linecap:round;stroke-linejoin:round;">
	<!ENTITY st13 "fill:none;stroke:#FFFFFF;stroke-width:2;stroke-linecap:round;stroke-linejoin:round;">
	<!ATTLIST svg
		xmlns:ewd CDATA #FIXED "http://shcl.co.jp/ewd"
		xmlns:a CDATA #FIXED "http://ns.adobe.com/AdobeSVGViewerExtensions/3.0/"
		ewd:ver CDATA #IMPLIED>
	<!ATTLIST a
		ewd:innerGroupID CDATA #IMPLIED
		ewd:figtype CDATA #IMPLIED
		ewd:code CDATA #IMPLIED
		ewd:pinNo CDATA #IMPLIED>
]>
<svg width="510.437" height="680.515" viewBox="0 0 510.437 680.515" style="overflow:visible;enable-background:new 0 0 510.437 680.515" xml:space="preserve" onload="call_execInitLoadProc_svg('location')" ewd:ver="2.1.2.9" xmlns="&ns_svg;" xmlns:ewd="http://shcl.co.jp/ewd" xmlns:a="http://ns.adobe.com/AdobeSVGViewerExtensions/3.0/" xmlns:xlink="&ns_xlink;">
<script type="text/javascript" xlink:href="../../../../../system/js/ewd/fig/svgfig.js"/>
<g id="WAKU">
	<path style="&st11;" d="M510.337,680.415V0.1H0.1v680.315H510.337z"/>
</g>
<g id="レイヤー_1">
	<g>
		<path style="&st2;" d="M220.451,439.274V328.313c0-1.411,1.156-2.567,2.568-2.567"/>
		<path style="&st2;" d="M238.326,337.196h20.642v-11.451"/>
		<path style="&st2;" d="M152.486,392.641h67.965"/>
		<path style="&st1;" d="M269.036,439.274h56.714c1.412,0,2.94,1.092,3.395,2.433l1.935,5.705c0.455,1.34,1.982,2.435,3.396,2.435     h48.542c1.414,0,2.57-1.156,2.57-2.57V328.313c0-1.411-1.156-2.567-2.57-2.567H269.036h-113.98c-1.413,0-2.569,1.156-2.569,2.567     v118.964c0,1.414,1.156,2.57,2.569,2.57h48.542c1.413,0,2.942-1.095,3.395-2.435l1.936-5.705     c0.454-1.341,1.982-2.433,3.396-2.433H269.036z"/>
		<path style="&st2;" d="M317.623,439.274V328.313c0-1.411-1.156-2.567-2.57-2.567"/>
		<path style="&st2;" d="M305.539,439.274l-5.288-8.057V377.84c0-1.411-1.156-2.567-2.568-2.567h-14.562     c-1.411,0-2.568,1.156-2.568,2.567v19.405c0,1.413-1.156,2.57-2.568,2.57h-8.948h-8.946c-1.412,0-2.568-1.157-2.568-2.57V377.84     c0-1.411-1.156-2.567-2.57-2.567h-14.559c-1.413,0-2.57,1.156-2.57,2.567v53.378l-5.286,8.057"/>
		<path style="&st2;" d="M300.25,431.093h-31.215h-31.214"/>
		<path style="&st2;" d="M299.748,330.778v14.421c0,1.413-1.156,2.57-2.57,2.57h-28.142h-28.141c-1.412,0-2.569-1.157-2.569-2.57     v-14.421"/>
		<path style="&st2;" d="M299.748,337.196h-20.643v-11.451"/>
		<path style="&st2;" d="M385.587,392.641h-67.965"/>
	</g>
	<g>
	</g>
	<path style="&st0;" d="M193.535,126.907v-5.666h-11.332v5.666"/>
	<path style="&st8;" d="M179.37,126.907l-2.833-2.833"/>
	<path style="&st8;" d="M199.2,124.075l-2.833,2.833"/>
	<path style="&st0;" d="M182.203,81.581v-2.834h-5.666"/>
	<path style="&st0;" d="M196.368,81.581v-5.666"/>
	<path style="&st0;" d="M193.535,81.581v-5.666"/>
	<path style="&st8;" d="M199.2,81.581v-2.834l-2.833-2.832H179.37l-2.833,2.832v2.834"/>
	<path style="&st8;" d="M196.368,126.907h-16.997"/>
	<path style="&st8;" d="M176.538,124.075V81.581"/>
	<path style="&st0;" d="M199.2,81.581h-22.663"/>
	<path style="&st8;" d="M199.2,124.075V81.581"/>
	<path style="&st0;" d="M193.535,98.579h-11.332"/>
	<path style="&st0;" d="M193.535,109.91V87.247h-11.332v22.663H193.535"/>
	<path style="&st0;" d="M248.035,126.907v-5.666h-11.332v5.666"/>
	<path style="&st8;" d="M233.87,126.907l-2.833-2.833"/>
	<path style="&st8;" d="M253.7,124.075l-2.833,2.833"/>
	<path style="&st0;" d="M236.703,81.581v-2.834h-5.666"/>
	<path style="&st0;" d="M250.868,81.581v-5.666"/>
	<path style="&st0;" d="M248.035,81.581v-5.666"/>
	<path style="&st8;" d="M253.7,81.581v-2.834l-2.833-2.832H233.87l-2.833,2.832v2.834"/>
	<path style="&st8;" d="M250.868,126.907h-16.997"/>
	<path style="&st8;" d="M231.038,124.075V81.581"/>
	<path style="&st0;" d="M253.7,81.581h-22.663"/>
	<path style="&st8;" d="M253.7,124.075V81.581"/>
	<path style="&st0;" d="M248.035,98.579h-11.332"/>
	<path style="&st0;" d="M248.035,109.91V87.247h-11.332v22.663H248.035"/>
	<path style="&st0;" d="M302.535,126.907v-5.666h-11.332v5.666"/>
	<path style="&st8;" d="M288.37,126.907l-2.833-2.833"/>
	<path style="&st8;" d="M308.2,124.075l-2.833,2.833"/>
	<path style="&st0;" d="M291.203,81.581v-2.834h-5.666"/>
	<path style="&st0;" d="M305.368,81.581v-5.666"/>
	<path style="&st0;" d="M302.535,81.581v-5.666"/>
	<path style="&st8;" d="M308.2,81.581v-2.834l-2.833-2.832H288.37l-2.833,2.832v2.834"/>
	<path style="&st8;" d="M305.368,126.907h-16.997"/>
	<path style="&st8;" d="M285.538,124.075V81.581"/>
	<path style="&st0;" d="M308.2,81.581h-22.663"/>
	<path style="&st8;" d="M308.2,124.075V81.581"/>
	<path style="&st0;" d="M302.535,98.579h-11.332"/>
	<path style="&st0;" d="M302.535,109.91V87.247h-11.332v22.663H302.535"/>
	<path style="&st0;" d="M357.035,126.907v-5.666h-11.332v5.666"/>
	<path style="&st8;" d="M342.87,126.907l-2.833-2.833"/>
	<path style="&st8;" d="M362.7,124.075l-2.833,2.833"/>
	<path style="&st0;" d="M345.703,81.581v-2.834h-5.666"/>
	<path style="&st0;" d="M359.868,81.581v-5.666"/>
	<path style="&st0;" d="M357.035,81.581v-5.666"/>
	<path style="&st8;" d="M362.7,81.581v-2.834l-2.833-2.832H342.87l-2.833,2.832v2.834"/>
	<path style="&st8;" d="M359.868,126.907h-16.997"/>
	<path style="&st8;" d="M340.038,124.075V81.581"/>
	<path style="&st0;" d="M362.7,81.581h-22.663"/>
	<path style="&st8;" d="M362.7,124.075V81.581"/>
	<path style="&st0;" d="M357.035,98.579h-11.332"/>
	<path style="&st0;" d="M357.035,109.91V87.247h-11.332v22.663H357.035"/>
	<path style="&st0;" d="M411.535,126.907v-5.666h-11.332v5.666"/>
	<path style="&st8;" d="M397.37,126.907l-2.833-2.833"/>
	<path style="&st8;" d="M417.2,124.075l-2.833,2.833"/>
	<path style="&st0;" d="M400.203,81.581v-2.834h-5.666"/>
	<path style="&st0;" d="M414.368,81.581v-5.666"/>
	<path style="&st0;" d="M411.535,81.581v-5.666"/>
	<path style="&st8;" d="M417.2,81.581v-2.834l-2.833-2.832H397.37l-2.833,2.832v2.834"/>
	<path style="&st8;" d="M414.368,126.907h-16.997"/>
	<path style="&st8;" d="M394.538,124.075V81.581"/>
	<path style="&st0;" d="M417.2,81.581h-22.663"/>
	<path style="&st8;" d="M417.2,124.075V81.581"/>
	<path style="&st0;" d="M411.535,98.579h-11.332"/>
	<path style="&st0;" d="M411.535,109.91V87.247h-11.332v22.663H411.535"/>
	<path style="&st0;" d="M466.035,126.907v-5.666h-11.332v5.666"/>
	<path style="&st8;" d="M451.87,126.907l-2.833-2.833"/>
	<path style="&st8;" d="M471.7,124.075l-2.833,2.833"/>
	<path style="&st0;" d="M454.703,81.581v-2.834h-5.666"/>
	<path style="&st0;" d="M468.868,81.581v-5.666"/>
	<path style="&st0;" d="M466.035,81.581v-5.666"/>
	<path style="&st8;" d="M471.7,81.581v-2.834l-2.833-2.832H451.87l-2.833,2.832v2.834"/>
	<path style="&st8;" d="M468.868,126.907h-16.997"/>
	<path style="&st8;" d="M449.038,124.075V81.581"/>
	<path style="&st0;" d="M471.7,81.581h-22.663"/>
	<path style="&st8;" d="M471.7,124.075V81.581"/>
	<path style="&st0;" d="M466.035,98.579h-11.332"/>
	<path style="&st0;" d="M466.035,109.91V87.247h-11.332v22.663H466.035"/>
	<g>
		<g>
			<path style="&st1;" d="M269.036,287.527h46.015c1.412,0,2.568-1.156,2.568-2.57v-14.549h67.073l4.279-4.279v-64.315      l-4.884-4.884H269.036H156.992l-4.882,4.884v64.315l4.279,4.279h64.065v14.549c0,1.414,1.157,2.57,2.569,2.57H269.036z"/>
			<path style="&st2;" d="M369.912,206.808v19.654v25.269H357.66v8.679h-10.209v-53.601H369.912z"/>
			<path style="&st2;" d="M372.764,227.1v14.166h4.977V227.1H372.764z"/>
			<path style="&st2;" d="M374.201,206.042c-0.955,0-1.736,0.782-1.736,1.737v7.876v3.964c0,0.955,0.781,1.737,1.736,1.737h5.63      c0.956,0,1.739-0.782,1.739-1.737v-11.841c0-0.955-0.783-1.737-1.739-1.737H374.201z"/>
			<path style="&st2;" d="M381.57,215.656h-9.105"/>
			<path style="&st2;" d="M379.831,261.942c0.955,0,1.736-0.781,1.736-1.737v-7.877v-3.963c0-0.955-0.781-1.737-1.736-1.737h-5.632      c-0.953,0-1.734,0.782-1.734,1.737v11.84c0,0.956,0.781,1.737,1.734,1.737H379.831z"/>
			<path style="&st2;" d="M367.324,261.942c0.957,0,1.738-0.781,1.738-1.737v-0.68v-3.964c0-0.955-0.781-1.737-1.738-1.737h-5.63      c-0.955,0-1.736,0.782-1.736,1.737v4.644c0,0.956,0.781,1.737,1.736,1.737H367.324z"/>
			<path style="&st2;" d="M344.269,206.808v19.654v25.269h-12.251v8.679h-10.211v-53.601H344.269z"/>
			<path style="&st2;" d="M318.746,206.808v19.654v25.269h-12.251v8.679h-10.212v-53.601H318.746z"/>
			<path style="&st2;" d="M293.221,206.808v19.654v25.269H280.97v8.679h-10.212v-53.601H293.221z"/>
			<path style="&st2;" d="M267.697,206.808v19.654v25.269h-12.251v8.679h-10.212v-53.601H267.697z"/>
			<path style="&st2;" d="M242.172,206.808v19.654v25.269h-12.251v8.679h-10.212v-53.601H242.172z"/>
			<path style="&st2;" d="M216.648,206.808v19.654v25.269h-12.251v8.679h-10.212v-53.601H216.648z"/>
			<path style="&st2;" d="M191.124,206.808v19.654v25.269h-12.251v8.679h-10.212v-53.601H191.124z"/>
			<path style="&st2;" d="M341.681,261.942c0.956,0,1.737-0.781,1.737-1.737v-0.68v-3.964c0-0.955-0.781-1.737-1.737-1.737h-5.629      c-0.957,0-1.739,0.782-1.739,1.737v4.644c0,0.956,0.782,1.737,1.739,1.737H341.681z"/>
			<path style="&st2;" d="M214.179,261.942c0.955,0,1.737-0.781,1.737-1.737v-0.68v-3.964c0-0.955-0.782-1.737-1.737-1.737h-5.63      c-0.955,0-1.737,0.782-1.737,1.737v4.644c0,0.956,0.782,1.737,1.737,1.737H214.179z"/>
			<path style="&st2;" d="M188.57,261.942c0.955,0,1.737-0.781,1.737-1.737v-0.68v-3.964c0-0.955-0.782-1.737-1.737-1.737h-5.63      c-0.956,0-1.737,0.782-1.737,1.737v4.644c0,0.956,0.781,1.737,1.737,1.737H188.57z"/>
			<path style="&st2;" d="M372.464,252.329h9.103"/>
			<path style="&st2;" d="M160.145,227.1v14.166h4.978V227.1H160.145z"/>
			<path style="&st2;" d="M157.755,206.042c-0.956,0-1.737,0.782-1.737,1.737v7.876v3.964c0,0.955,0.782,1.737,1.737,1.737h5.63      c0.955,0,1.737-0.782,1.737-1.737v-11.841c0-0.955-0.782-1.737-1.737-1.737H157.755z"/>
			<path style="&st2;" d="M165.123,215.656h-9.104"/>
			<path style="&st2;" d="M163.384,261.942c0.955,0,1.737-0.781,1.737-1.737v-7.877v-3.963c0-0.955-0.782-1.737-1.737-1.737h-5.63      c-0.955,0-1.737,0.782-1.737,1.737v11.84c0,0.956,0.782,1.737,1.737,1.737H163.384z"/>
			<path style="&st2;" d="M156.017,252.329h9.104"/>
			<path style="&st2;" d="M235.859,254.283c-0.955,0-1.737,0.782-1.737,1.737v4.608c0,0.955-0.782,1.737-1.737,1.737h-5.205      c-0.955,0-1.737,0.782-1.737,1.737v1.803c0,0.956,0.782,1.737,1.737,1.737h12.182c0.955,0,1.737-0.781,1.737-1.737v-9.885      c0-0.955-0.782-1.737-1.737-1.737H235.859z"/>
			<path style="&st2;" d="M261.342,254.283c-0.958,0-1.739,0.782-1.739,1.737v4.608c0,0.955-0.781,1.737-1.734,1.737H247.77      c-0.953,0-1.735,0.782-1.735,1.737v1.803c0,0.956,0.782,1.737,1.735,1.737h17.073c0.957,0,1.739-0.781,1.739-1.737v-9.885      c0-0.955-0.782-1.737-1.739-1.737H261.342z"/>
			<path style="&st2;" d="M286.101,254.283c-0.958,0-1.739,0.782-1.739,1.737v4.608c0,0.955-0.781,1.737-1.735,1.737h-10.099      c-0.952,0-1.734,0.782-1.734,1.737v1.803c0,0.956,0.782,1.737,1.734,1.737h17.074c0.957,0,1.738-0.781,1.738-1.737v-9.885      c0-0.955-0.781-1.737-1.738-1.737H286.101z"/>
			<path style="&st2;" d="M311.581,254.283c-0.956,0-1.739,0.782-1.739,1.737v4.608c0,0.955-0.781,1.737-1.734,1.737h-10.098      c-0.953,0-1.735,0.782-1.735,1.737v1.803c0,0.956,0.782,1.737,1.735,1.737h14.353c0.958,0,1.739-0.781,1.739-1.737v-9.885      c0-0.955-0.781-1.737-1.739-1.737H311.581z"/>
			<path style="&st2;" d="M152.11,263.472h71.123c0,0,0,5.233,0,7.02s0.596,1.787,2.51,1.787c1.915,0,43.433,0,43.433,0"/>
			<path style="&st2;" d="M388.971,263.472h-73.851c0,0,0,5.233,0,7.02s-0.597,1.787-2.511,1.787c-1.915,0-43.434,0-43.434,0"/>
			<path style="&st12;" d="M235.953,287.527c0,0,0.658,0,1.468,0c0.806,0,1.468-0.782,1.468-1.737v-6.415      c0-0.955,0.781-1.737,1.734-1.737h16.181c0.956,0,1.737-0.782,1.737-1.737v-1.886c0-0.955,0.746-1.737,1.659-1.737      c0.911,0,1.659,0,1.659,0"/>
			<path style="&st12;" d="M238.889,279.936h30.288"/>
			<path style="&st12;" d="M269.176,273.618h-6.933v6.317"/>
			<path style="&st12;" d="M264.837,279.936v4.297h4.339"/>
			<path style="&st12;" d="M264.837,282.107l4.339-0.086"/>
			<path style="&st12;" d="M302.4,287.527c0,0-0.658,0-1.467,0c-0.806,0-1.469-0.782-1.469-1.737v-6.415      c0-0.955-0.781-1.737-1.734-1.737h-16.18c-0.958,0-1.739-0.782-1.739-1.737v-1.886c0-0.955-0.746-1.737-1.659-1.737      c-0.911,0-1.659,0-1.659,0"/>
			<path style="&st12;" d="M299.464,279.936h-30.288"/>
			<path style="&st12;" d="M269.176,273.618h6.934v6.317"/>
			<path style="&st12;" d="M273.516,279.936v4.297h-4.34"/>
			<path style="&st12;" d="M273.516,282.107l-4.34-0.086"/>
			<path style="&st12;" d="M186.734,214.976H172.95v-8.168h13.784V214.976z"/>
			<path style="&st12;" d="M212.215,214.976H198.43v-8.168h13.785V214.976z"/>
			<path style="&st12;" d="M237.696,214.976h-13.785v-8.168h13.785V214.976z"/>
			<path style="&st12;" d="M263.176,214.976h-13.785v-8.168h13.785V214.976z"/>
			<path style="&st12;" d="M288.657,214.976h-13.785v-8.168h13.785V214.976z"/>
			<path style="&st12;" d="M314.137,214.976h-13.785v-8.168h13.785V214.976z"/>
			<path style="&st12;" d="M339.618,214.976h-13.785v-8.168h13.785V214.976z"/>
			<path style="&st12;" d="M365.098,214.976h-13.785v-8.168h13.785V214.976z"/>
			<path style="&st2;" d="M194.185,226.803v13.356h-3.061v-13.356H194.185z"/>
			<path style="&st2;" d="M219.709,226.803v13.356h-3.061v-13.356H219.709z"/>
			<path style="&st2;" d="M245.233,226.803v13.356h-3.061v-13.356H245.233z"/>
			<path style="&st2;" d="M270.758,226.803v13.356h-3.062v-13.356H270.758z"/>
			<path style="&st2;" d="M296.283,226.803v13.356h-3.062v-13.356H296.283z"/>
			<path style="&st2;" d="M321.807,226.803v13.356h-3.062v-13.356H321.807z"/>
			<path style="&st2;" d="M347.331,226.803v13.356h-3.062v-13.356H347.331z"/>
		</g>
		<path style="&st0;" d="M174.195,233.461h11.332"/>
		<path style="&st0;" d="M174.195,222.13v22.663h11.332V222.13H174.195"/>
		<path style="&st0;" d="M199.636,233.461h11.332"/>
		<path style="&st0;" d="M199.636,222.13v22.663h11.332V222.13H199.636"/>
		<path style="&st0;" d="M225.077,233.461h11.332"/>
		<path style="&st0;" d="M225.077,222.13v22.663h11.332V222.13H225.077"/>
		<path style="&st0;" d="M250.518,233.461h11.332"/>
		<path style="&st0;" d="M250.518,222.13v22.663h11.332V222.13H250.518"/>
		<path style="&st0;" d="M276.636,233.461h11.332"/>
		<path style="&st0;" d="M276.636,222.13v22.663h11.332V222.13H276.636"/>
		<path style="&st0;" d="M302.137,233.461h11.332"/>
		<path style="&st0;" d="M302.137,222.13v22.663h11.332V222.13H302.137"/>
		<path style="&st0;" d="M327.553,233.461h11.332"/>
		<path style="&st0;" d="M327.553,222.13v22.663h11.332V222.13H327.553"/>
		<path style="&st0;" d="M353.22,233.461h11.332"/>
		<path style="&st0;" d="M353.22,222.13v22.663h11.332V222.13H353.22"/>
	</g>
</g>
<g id="キャプション">
	<text transform="matrix(1 0 0 1 196.2295 513.3643)"><tspan x="0" y="0" style="&st4; &st10;">* I119, I120, I121, I122, I123 </tspan><tspan x="0" y="10" style="&st4; &st10;">  and I124 are Interchangeable.</tspan></text>
	<path style="&st13;" d="M256.285,209.157v-64.875"/>
	<path style="&st13;" d="M281.766,209.157v-64.875"/>
	<path style="&st6;" d="M281.766,209.157v-64.875h15.344v-12.836"/>
	<path style="&st6;" d="M256.285,209.157v-64.875h-13.804v-12.836"/>
	<path style="&st13;" d="M332.727,209.157v-22.083"/>
	<path style="&st6;" d="M332.727,209.157v-48.084h73.221v-29.627"/>
	<path style="&st13;" d="M307.394,209.157v-22.083"/>
	<path style="&st6;" d="M307.394,209.157v-56.75h44.765v-20.96"/>
	<path style="&st13;" d="M358.208,209.157v-34.75"/>
	<path style="&st6;" d="M358.208,209.157v-33.085h102.368v-44.626"/>
	<path style="&st13;" d="M230.803,209.157v-22.083"/>
	<path style="&st6;" d="M230.803,209.157v-56.75h-42.531v-20.96"/>
	<text transform="matrix(0.88 0 0 1 185.6309 107.4443)"><tspan x="0" y="0" style="&st9; &st7; &st5;">1</tspan></text>
	<text transform="matrix(0.88 0 0 1 185.6309 96.1123)"><tspan x="0" y="0" style="&st9; &st7; &st5;">2</tspan></text>
	<text transform="matrix(0.88 0 0 1 240.1304 107.4443)"><tspan x="0" y="0" style="&st9; &st7; &st5;">1</tspan></text>
	<text transform="matrix(0.88 0 0 1 240.1304 96.1123)"><tspan x="0" y="0" style="&st9; &st7; &st5;">2</tspan></text>
	<text transform="matrix(0.88 0 0 1 294.6294 107.4443)"><tspan x="0" y="0" style="&st9; &st7; &st5;">1</tspan></text>
	<text transform="matrix(0.88 0 0 1 294.6294 96.1123)"><tspan x="0" y="0" style="&st9; &st7; &st5;">2</tspan></text>
	<text transform="matrix(0.88 0 0 1 349.1294 107.4443)"><tspan x="0" y="0" style="&st9; &st7; &st5;">1</tspan></text>
	<text transform="matrix(0.88 0 0 1 349.1294 96.1123)"><tspan x="0" y="0" style="&st9; &st7; &st5;">2</tspan></text>
	<text transform="matrix(0.88 0 0 1 403.6294 107.4443)"><tspan x="0" y="0" style="&st9; &st7; &st5;">1</tspan></text>
	<text transform="matrix(0.88 0 0 1 403.6294 96.1123)"><tspan x="0" y="0" style="&st9; &st7; &st5;">2</tspan></text>
	<text transform="matrix(0.88 0 0 1 458.1294 107.4443)"><tspan x="0" y="0" style="&st9; &st7; &st5;">1</tspan></text>
	<text transform="matrix(0.88 0 0 1 458.1294 96.1123)"><tspan x="0" y="0" style="&st9; &st7; &st5;">2</tspan></text>
	<text transform="matrix(0.88 0 0 1 228.5898 230.5947)"><tspan x="0" y="0" style="&st9; &st7; &st5;">1</tspan></text>
	<text transform="matrix(0.88 0 0 1 228.5898 241.9268)"><tspan x="0" y="0" style="&st9; &st7; &st5;">2</tspan></text>
	<text transform="matrix(0.88 0 0 1 254.0303 230.5947)"><tspan x="0" y="0" style="&st9; &st7; &st5;">1</tspan></text>
	<text transform="matrix(0.88 0 0 1 254.0303 241.9268)"><tspan x="0" y="0" style="&st9; &st7; &st5;">2</tspan></text>
	<text transform="matrix(0.88 0 0 1 280.1489 230.5947)"><tspan x="0" y="0" style="&st9; &st7; &st5;">1</tspan></text>
	<text transform="matrix(0.88 0 0 1 280.1489 241.9268)"><tspan x="0" y="0" style="&st9; &st7; &st5;">2</tspan></text>
	<text transform="matrix(0.88 0 0 1 305.6489 230.5947)"><tspan x="0" y="0" style="&st9; &st7; &st5;">1</tspan></text>
	<text transform="matrix(0.88 0 0 1 305.6489 241.9268)"><tspan x="0" y="0" style="&st9; &st7; &st5;">2</tspan></text>
	<text transform="matrix(0.88 0 0 1 331.0649 230.5947)"><tspan x="0" y="0" style="&st9; &st7; &st5;">1</tspan></text>
	<text transform="matrix(0.88 0 0 1 331.0649 241.9268)"><tspan x="0" y="0" style="&st9; &st7; &st5;">2</tspan></text>
	<text transform="matrix(0.88 0 0 1 356.7329 230.5947)"><tspan x="0" y="0" style="&st9; &st7; &st5;">1</tspan></text>
	<text transform="matrix(0.88 0 0 1 356.7329 241.9268)"><tspan x="0" y="0" style="&st9; &st7; &st5;">2</tspan></text>
	<a ewd:code="I119" ewd:figtype="conn" style="cursor:pointer;">
		<path style="fill:#FFFFFF;stroke:#000000;stroke-width:0.8;" d="M194.784,61.419c2.977,0,5.389-2.414,5.389-5.391c0-2.977-2.412-5.39-5.389-5.39h-13.605     c-2.977,0-5.39,2.414-5.39,5.39c0,2.977,2.413,5.391,5.39,5.391H194.784z"/>
		<text transform="matrix(1 0 0 1 180.1958 58.8213)"><tspan x="0" y="0" style="&st7; &st5;">I119</tspan></text>
		<title>No. 6 CAN Junction Connector</title>
	</a>
	<text transform="matrix(1 0 0 1 175.2002 71.5771)"><tspan x="0" y="0" style="&st7; &st10;">White</tspan></text>
	<a ewd:code="I120" ewd:figtype="conn" style="cursor:pointer;">
		<path style="fill:#FFFFFF;stroke:#000000;stroke-width:0.8;" d="M249.284,61.419c2.977,0,5.389-2.414,5.389-5.391c0-2.977-2.412-5.39-5.389-5.39h-13.605     c-2.977,0-5.39,2.414-5.39,5.39c0,2.977,2.413,5.391,5.39,5.391H249.284z"/>
		<text transform="matrix(1 0 0 1 234.6958 58.8213)"><tspan x="0" y="0" style="&st7; &st5;">I120</tspan></text>
		<title>No. 6 CAN Junction Connector</title>
	</a>
	<text transform="matrix(1 0 0 1 229.7002 71.5771)"><tspan x="0" y="0" style="&st7; &st10;">White</tspan></text>
	<a ewd:code="I121" ewd:figtype="conn" style="cursor:pointer;">
		<path style="fill:#FFFFFF;stroke:#000000;stroke-width:0.8;" d="M303.784,61.419c2.977,0,5.389-2.414,5.389-5.391c0-2.977-2.412-5.39-5.389-5.39h-13.605     c-2.977,0-5.39,2.414-5.39,5.39c0,2.977,2.413,5.391,5.39,5.391H303.784z"/>
		<text transform="matrix(1 0 0 1 289.1958 58.8213)"><tspan x="0" y="0" style="&st7; &st5;">I121</tspan></text>
		<title>No. 6 CAN Junction Connector</title>
	</a>
	<text transform="matrix(1 0 0 1 284.2007 71.5771)"><tspan x="0" y="0" style="&st7; &st10;">White</tspan></text>
	<a ewd:code="I122" ewd:figtype="conn" style="cursor:pointer;">
		<path style="fill:#FFFFFF;stroke:#000000;stroke-width:0.8;" d="M358.284,61.419c2.977,0,5.389-2.414,5.389-5.391c0-2.977-2.412-5.39-5.389-5.39h-13.605     c-2.977,0-5.39,2.414-5.39,5.39c0,2.977,2.413,5.391,5.39,5.391H358.284z"/>
		<text transform="matrix(1 0 0 1 343.6958 58.8213)"><tspan x="0" y="0" style="&st7; &st5;">I122</tspan></text>
		<title>No. 6 CAN Junction Connector</title>
	</a>
	<text transform="matrix(1 0 0 1 338.7007 71.5771)"><tspan x="0" y="0" style="&st7; &st10;">White</tspan></text>
	<a ewd:code="I123" ewd:figtype="conn" style="cursor:pointer;">
		<path style="fill:#FFFFFF;stroke:#000000;stroke-width:0.8;" d="M412.784,61.419c2.977,0,5.389-2.414,5.389-5.391c0-2.977-2.412-5.39-5.389-5.39h-13.605     c-2.977,0-5.39,2.414-5.39,5.39c0,2.977,2.413,5.391,5.39,5.391H412.784z"/>
		<text transform="matrix(1 0 0 1 398.1958 58.8213)"><tspan x="0" y="0" style="&st7; &st5;">I123</tspan></text>
		<title>No. 6 CAN Junction Connector</title>
	</a>
	<text transform="matrix(1 0 0 1 393.2007 71.5771)"><tspan x="0" y="0" style="&st7; &st10;">White</tspan></text>
	<a ewd:code="I124" ewd:figtype="conn" style="cursor:pointer;">
		<path style="fill:#FFFFFF;stroke:#000000;stroke-width:0.8;" d="M467.284,61.419c2.977,0,5.389-2.414,5.389-5.391c0-2.977-2.412-5.39-5.389-5.39h-13.605     c-2.977,0-5.39,2.414-5.39,5.39c0,2.977,2.413,5.391,5.39,5.391H467.284z"/>
		<text transform="matrix(1 0 0 1 452.6958 58.8213)"><tspan x="0" y="0" style="&st7; &st5;">I124</tspan></text>
		<title>No. 6 CAN Junction Connector</title>
	</a>
	<text transform="matrix(1 0 0 1 447.7007 71.5771)"><tspan x="0" y="0" style="&st7; &st10;">White</tspan></text>
</g>
</svg>