<?xml version="1.0"?>
<!-- Generator: Adobe Illustrator 10.0, SVG Export Plug-In . SVG Version: 3.0.0 Build 77)  -->
<!DOCTYPE svg PUBLIC "-//W3C//DTD SVG 1.0//EN" "http://www.w3.org/TR/2001/REC-SVG-20010904/DTD/svg10.dtd"[
	<!ENTITY ns_flows "http://ns.adobe.com/Flows/1.0/">
	<!ENTITY ns_svg "http://www.w3.org/2000/svg">
	<!ENTITY ns_xlink "http://www.w3.org/1999/xlink">
	<!ENTITY st0 "fill:none;stroke:#000000;stroke-linecap:round;stroke-linejoin:round;">
	<!ENTITY st1 "fill:none;stroke:#000000;stroke-width:0.6;stroke-linecap:round;stroke-linejoin:round;">
	<!ENTITY st2 "fill:none;stroke:#000000;stroke-width:0.8;">
	<!ENTITY st3 "font-family:'Arial';font-weight:bold;">
	<!ENTITY st4 "font-size:8px;">
	<!ENTITY st5 "fill:none;stroke:#000000;stroke-width:0.5;stroke-linecap:round;stroke-linejoin:round;">
	<!ENTITY st6 "font-family:'Arial';">
	<!ENTITY st7 "font-size:10px;">
	<!ENTITY st8 "fill:none;stroke:#FFFFFF;stroke-width:0.2;">
	<!ENTITY st9 "fill:none;stroke:#FFFFFF;stroke-width:2;stroke-linecap:round;stroke-linejoin:round;">
	<!ATTLIST svg
		xmlns:ewd CDATA #FIXED "http://shcl.co.jp/ewd"
		xmlns:a CDATA #FIXED "http://ns.adobe.com/AdobeSVGViewerExtensions/3.0/"
		ewd:ver CDATA #IMPLIED>
	<!ATTLIST a
		ewd:innerGroupID CDATA #IMPLIED
		ewd:figtype CDATA #IMPLIED
		ewd:code CDATA #IMPLIED
		ewd:pinNo CDATA #IMPLIED>
]>
<svg width="510.436" height="643.664" viewBox="0 0 510.436 643.664" style="overflow:visible;enable-background:new 0 0 510.436 643.664" xml:space="preserve" onload="call_execInitLoadProc_svg('location')" ewd:ver="2.1.2.9" xmlns="&ns_svg;" xmlns:ewd="http://shcl.co.jp/ewd" xmlns:a="http://ns.adobe.com/AdobeSVGViewerExtensions/3.0/" xmlns:xlink="&ns_xlink;">
<script type="text/javascript" xlink:href="../../../../../system/js/ewd/fig/svgfig.js"/>
<g id="WAKU">
	<path style="&st8;" d="M510.336,643.564V0.1H0.1v643.464H510.336z"/>
</g>
<g id="レイヤ_xFF0D__1">
	<path style="&st0;" d="M261.343,242.525c1.564,0,2.833-1.268,2.833-2.833"/>
	<path style="&st0;" d="M196.188,239.692c0,1.564,1.268,2.833,2.833,2.833"/>
	<path style="&st1;" d="M210.352,235.443c-1.564,0-2.833,1.269-2.833,2.833"/>
	<path style="&st1;" d="M252.845,238.276c0-1.564-1.269-2.833-2.833-2.833"/>
	<path style="&st0;" d="M284.574,163.205c-1.096,0-1.983,0.888-1.983,1.983"/>
	<path style="&st0;" d="M315.167,165.188c0-1.095-0.887-1.983-1.982-1.983"/>
	<path style="&st0;" d="M278.341,165.188c0-1.095-0.889-1.983-1.983-1.983"/>
	<path style="&st0;" d="M260.494,163.205c-1.096,0-1.982,0.888-1.982,1.983"/>
	<path style="&st0;" d="M148.596,171.704c-1.095,0-1.983,0.888-1.983,1.983"/>
	<path style="&st0;" d="M146.613,223.545c0,1.095,0.888,1.983,1.983,1.983"/>
	<path style="&st1;" d="M259.361,202.865c-1.096,0-1.983,0.888-1.983,1.983"/>
	<path style="&st1;" d="M281.457,204.848c0-1.095-0.888-1.983-1.982-1.983"/>
	<path style="&st1;" d="M257.377,219.295c0,1.095,0.888,1.983,1.983,1.983"/>
	<path style="&st1;" d="M279.474,221.279c1.095,0,1.982-0.888,1.982-1.983"/>
	<path style="&st1;" d="M208.936,289.267c0,1.563,1.269,2.834,2.833,2.834"/>
	<path style="&st1;" d="M251.429,292.101c1.564,0,2.832-1.271,2.832-2.834"/>
	<path style="&st1;" d="M200.437,276.519c-1.564,0-2.833,1.27-2.833,2.834"/>
	<path style="&st1;" d="M265.593,279.353c0-1.564-1.269-2.834-2.833-2.834"/>
	<path style="&st1;" d="M214.602,311.93c-1.564,0-2.833,1.269-2.833,2.833"/>
	<path style="&st1;" d="M224.517,314.763c0-1.564-1.27-2.833-2.834-2.833"/>
	<path style="&st1;" d="M241.513,311.93c-1.564,0-2.832,1.269-2.832,2.833"/>
	<path style="&st1;" d="M251.429,314.763c0-1.564-1.27-2.833-2.834-2.833"/>
	<path style="&st0;" d="M148.596,412.497c-1.095,0-1.983,0.887-1.983,1.982"/>
	<path style="&st0;" d="M199.021,395.501c-1.564,0-2.833,1.266-2.833,2.83"/>
	<path style="&st0;" d="M264.176,398.331c0-1.564-1.269-2.83-2.833-2.83"/>
	<path style="&st0;" d="M258.511,472.835c0,1.096,0.887,1.984,1.982,1.984"/>
	<path style="&st0;" d="M276.358,474.819c1.095,0,1.983-0.889,1.983-1.984"/>
	<path style="&st0;" d="M282.59,472.835c0,1.096,0.888,1.984,1.983,1.984"/>
	<path style="&st0;" d="M146.613,464.339c0,1.096,0.888,1.98,1.983,1.98"/>
	<path style="&st0;" d="M313.185,474.819c1.096,0,1.982-0.889,1.982-1.984"/>
	<path style="&st1;" d="M282.59,466.319c1.564,0,2.833-1.268,2.833-2.832"/>
	<path style="&st0;" d="M240.346,55.363c-1.059,0-1.961,0.531-2.476,1.457"/>
	<path style="&st0;" d="M247.99,56.819c-0.516-0.925-1.417-1.456-2.476-1.456"/>
	<path style="&st0;" d="M257.802,118.252c1.174,0,2.125-0.951,2.125-2.125"/>
	<path style="&st0;" d="M255.677,116.128c0,1.173,0.951,2.125,2.125,2.125"/>
	<path style="&st0;" d="M254.261,101.255c-0.782,0-1.416,0.634-1.416,1.417"/>
	<path style="&st0;" d="M250.862,116.128c1.095,0,1.983-0.888,1.983-1.983"/>
	<path style="&st0;" d="M254.261,81.708c0,1.095,0.889,1.983,1.983,1.983"/>
	<path style="&st0;" d="M225.933,116.128c0,1.173,0.952,2.125,2.125,2.125"/>
	<path style="&st0;" d="M259.927,85.675c0-1.095-0.889-1.983-1.983-1.983"/>
	<path style="&st0;" d="M229.616,83.692c1.095,0,1.983-0.888,1.983-1.983"/>
	<path style="&st0;" d="M228.058,118.252c1.173,0,2.125-0.951,2.125-2.125"/>
	<path style="&st0;" d="M233.015,102.672c0-0.782-0.634-1.417-1.417-1.417"/>
	<path style="&st0;" d="M233.015,114.145c0,1.095,0.888,1.983,1.983,1.983"/>
	<path style="&st1;" d="M232.165,98.423c-1.095,0-1.983,0.888-1.983,1.983"/>
	<path style="&st0;" d="M227.916,83.692c-1.095,0-1.983,0.888-1.983,1.983"/>
	<path style="&st1;" d="M255.677,100.406c0-1.095-0.887-1.983-1.982-1.983"/>
	<path style="&st0;" d="M272.425,595.321c1.06,0,1.961-0.531,2.477-1.457"/>
	<path style="&st0;" d="M264.783,593.864c0.515,0.926,1.417,1.457,2.477,1.457"/>
	<path style="&st0;" d="M254.97,532.433c-1.174,0-2.125,0.951-2.125,2.123"/>
	<path style="&st0;" d="M257.094,534.556c0-1.172-0.951-2.123-2.124-2.123"/>
	<path style="&st0;" d="M258.511,549.431c0.781,0,1.416-0.637,1.416-1.418"/>
	<path style="&st0;" d="M261.91,534.556c-1.095,0-1.982,0.889-1.982,1.984"/>
	<path style="&st0;" d="M258.511,568.976c0-1.096-0.889-1.982-1.983-1.982"/>
	<path style="&st0;" d="M286.839,534.556c0-1.172-0.951-2.123-2.125-2.123"/>
	<path style="&st0;" d="M252.845,565.009c0,1.096,0.888,1.984,1.982,1.984"/>
	<path style="&st0;" d="M283.157,566.993c-1.095,0-1.983,0.887-1.983,1.982"/>
	<path style="&st0;" d="M284.714,532.433c-1.173,0-2.125,0.951-2.125,2.123"/>
	<path style="&st0;" d="M279.757,548.013c0,0.781,0.634,1.418,1.416,1.418"/>
	<path style="&st0;" d="M279.757,536.54c0-1.096-0.889-1.984-1.983-1.984"/>
	<path style="&st1;" d="M280.607,552.263c1.096,0,1.982-0.887,1.982-1.982"/>
	<path style="&st0;" d="M284.857,566.993c1.095,0,1.982-0.889,1.982-1.984"/>
	<path style="&st1;" d="M257.094,550.28c0,1.096,0.888,1.982,1.983,1.982"/>
	<path style="&st0;" d="M213.791,593.864c0.515,0.926,1.417,1.457,2.476,1.457"/>
	<path style="&st0;" d="M203.978,532.433c-1.173,0-2.125,0.951-2.125,2.123"/>
	<path style="&st0;" d="M206.103,534.556c0-1.172-0.952-2.123-2.125-2.123"/>
	<path style="&st1;" d="M206.103,550.28c0,1.096,0.888,1.982,1.983,1.982"/>
	<path style="&st0;" d="M233.865,566.993c1.095,0,1.983-0.889,1.983-1.984"/>
	<path style="&st1;" d="M229.616,552.263c1.095,0,1.983-0.887,1.983-1.982"/>
	<path style="&st0;" d="M228.766,536.54c0-1.096-0.888-1.984-1.983-1.984"/>
	<path style="&st0;" d="M228.766,548.013c0,0.781,0.634,1.418,1.417,1.418"/>
	<path style="&st0;" d="M233.723,532.433c-1.173,0-2.125,0.951-2.125,2.123"/>
	<path style="&st0;" d="M232.165,566.993c-1.095,0-1.983,0.887-1.983,1.982"/>
	<path style="&st0;" d="M201.854,565.009c0,1.096,0.888,1.984,1.983,1.984"/>
	<path style="&st0;" d="M235.848,534.556c0-1.172-0.951-2.123-2.125-2.123"/>
	<path style="&st0;" d="M207.519,568.976c0-1.096-0.888-1.982-1.983-1.982"/>
	<path style="&st0;" d="M210.918,534.556c-1.095,0-1.983,0.889-1.983,1.984"/>
	<path style="&st0;" d="M207.519,549.431c0.782,0,1.417-0.637,1.417-1.418"/>
	<path style="&st0;" d="M221.434,595.321c1.059,0,1.961-0.531,2.476-1.457"/>
	<path style="&st1;" d="M199.021,225.528v5.666h62.323v-5.666"/>
	<path style="&st0;" d="M196.188,225.528v14.165"/>
	<path style="&st0;" d="M264.176,239.692v-14.165"/>
	<path style="&st0;" d="M199.021,242.525h62.323"/>
	<path style="&st1;" d="M224.517,231.194v4.249h11.33v-4.249"/>
	<path style="&st1;" d="M225.933,235.443v2.833h8.498v-2.833"/>
	<path style="&st1;" d="M207.519,242.525v-4.249"/>
	<path style="&st1;" d="M210.352,235.443h11.331l1.417-4.249"/>
	<path style="&st1;" d="M237.264,231.194l1.417,4.249h11.331"/>
	<path style="&st1;" d="M252.845,238.276v4.249"/>
	<path style="&st0;" d="M264.176,225.528h50.991"/>
	<path style="&st0;" d="M196.188,225.528h-47.592"/>
	<path style="&st1;" d="M196.188,225.528h67.988"/>
	<path style="&st0;" d="M315.167,225.528v-60.34"/>
	<path style="&st0;" d="M284.574,163.205h28.611"/>
	<path style="&st0;" d="M282.59,165.188v5.099h-4.249v-5.099"/>
	<path style="&st0;" d="M254.261,171.704H148.596"/>
	<path style="&st0;" d="M146.613,173.687v49.858"/>
	<path style="&st0;" d="M260.494,163.205h15.864"/>
	<path style="&st0;" d="M254.261,171.704l1.416-1.417h2.834v-5.099"/>
	<path style="&st1;" d="M152.278,221.279h5.666l1.417,1.417h5.666l1.417-1.417h5.666"/>
	<path style="&st1;" d="M152.278,221.279v-31.162h-2.833v-5.666h2.833v-7.082"/>
	<path style="&st1;" d="M172.108,177.369v19.83h2.833v5.666h-2.833v18.414"/>
	<path style="&st1;" d="M152.278,204.282h19.83"/>
	<path style="&st1;" d="M152.278,190.117l1.983-1.983h15.864l1.983,1.983"/>
	<path style="&st1;" d="M152.278,182.468l1.983,1.983h15.864l1.983-1.983"/>
	<path style="&st1;" d="M152.278,177.369h19.83"/>
	<path style="&st1;" d="M157.944,177.369v2.833h8.499v-2.833"/>
	<path style="&st1;" d="M179.191,221.279h5.666l1.417,1.417h5.666l1.417-1.417h5.666"/>
	<path style="&st1;" d="M179.191,221.279v-31.162h-2.833v-5.666h2.833v-7.082"/>
	<path style="&st1;" d="M199.021,177.369v19.83h2.833v5.666h-2.833v18.414"/>
	<path style="&st1;" d="M179.191,204.282h19.83"/>
	<path style="&st1;" d="M179.191,190.117l1.983-1.983h15.864l1.983,1.983"/>
	<path style="&st1;" d="M179.191,182.468l1.983,1.983h15.864l1.983-1.983"/>
	<path style="&st1;" d="M179.191,177.369h19.83"/>
	<path style="&st1;" d="M184.856,177.369v2.833h8.499v-2.833"/>
	<path style="&st1;" d="M211.769,177.369v2.833h8.499v-2.833"/>
	<path style="&st1;" d="M206.103,177.369h19.83"/>
	<path style="&st1;" d="M206.103,182.468l1.983,1.983h15.864l1.983-1.983"/>
	<path style="&st1;" d="M206.103,190.117l1.983-1.983h15.864l1.983,1.983"/>
	<path style="&st1;" d="M206.103,204.282h19.83"/>
	<path style="&st1;" d="M225.933,177.369v19.83h2.832v5.666h-2.832v18.414"/>
	<path style="&st1;" d="M252.845,177.369v19.83h2.832v5.666h-2.832v18.414"/>
	<path style="&st1;" d="M199.021,177.369v19.83h2.832v5.666h-2.832v18.414"/>
	<path style="&st1;" d="M206.103,221.279v-31.162h-2.833v-5.666h2.833v-7.082"/>
	<path style="&st1;" d="M206.103,221.279h5.666l1.417,1.417h5.666l1.417-1.417h5.666"/>
	<path style="&st1;" d="M233.015,221.279h5.666l1.416,1.417h5.666l1.416-1.417h5.666"/>
	<path style="&st1;" d="M233.015,221.279v-31.162h-2.833v-5.666h2.833v-7.082"/>
	<path style="&st1;" d="M252.845,177.369v19.83h2.832v5.666h-2.832v18.414"/>
	<path style="&st1;" d="M233.015,204.282h19.83"/>
	<path style="&st1;" d="M233.015,190.117l1.982-1.983h15.864l1.983,1.983"/>
	<path style="&st1;" d="M233.015,182.468l1.982,1.983h15.864l1.983-1.983"/>
	<path style="&st1;" d="M233.015,177.369h19.83"/>
	<path style="&st1;" d="M238.681,177.369v2.833h8.498v-2.833"/>
	<path style="&st1;" d="M265.876,168.871h5.1"/>
	<path style="&st1;" d="M265.876,166.038v2.833h-2.833v5.666h-5.666v25.496h22.097v-25.496h-5.666v-5.666h-2.832v-2.833H265.876"/>
	<path style="&st1;" d="M260.21,177.369v19.83h16.431v-19.83H260.21"/>
	<path style="&st1;" d="M265.876,177.369v-8.499"/>
	<path style="&st1;" d="M270.976,177.369v-8.499"/>
	<path style="&st1;" d="M265.876,171.704h5.1"/>
	<path style="&st1;" d="M259.361,202.865h20.113"/>
	<path style="&st1;" d="M259.361,221.279h20.113"/>
	<path style="&st1;" d="M257.377,204.848v14.447"/>
	<path style="&st1;" d="M281.457,219.295v-14.447"/>
	<path style="&st1;" d="M284.29,222.695h22.38"/>
	<path style="&st1;" d="M306.669,222.695v-4.25h5.666v-8.499h-5.666v-5.666"/>
	<path style="&st1;" d="M306.669,190.117v5.666h5.666v8.499h-5.666"/>
	<path style="&st1;" d="M284.29,205.698h22.38"/>
	<path style="&st1;" d="M284.29,191.534h22.38"/>
	<path style="&st1;" d="M284.29,222.695v-55.241h28.046v8.499h-5.666v5.666h5.666v8.499h-5.666"/>
	<path style="&st1;" d="M284.29,175.953h22.38"/>
	<path style="&st0;" d="M146.613,259.522v118.979"/>
	<path style="&st0;" d="M315.167,259.522v93.482h-28.328v25.496"/>
	<path style="&st0;" d="M146.613,259.522h168.555"/>
	<path style="&st0;" d="M146.613,378.501h140.227"/>
	<path style="&st1;" d="M173.525,259.522v50.991h4.25v-50.991"/>
	<path style="&st1;" d="M173.525,378.501v-48.158h4.25v48.158"/>
	<path style="&st1;" d="M200.437,259.522v16.997"/>
	<path style="&st1;" d="M204.687,276.519v-16.997"/>
	<path style="&st1;" d="M227.349,276.519v-16.997"/>
	<path style="&st1;" d="M231.599,276.519v-16.997"/>
	<path style="&st1;" d="M197.604,279.353v93.482"/>
	<path style="&st1;" d="M200.437,276.519h62.323"/>
	<path style="&st1;" d="M265.593,372.835v-93.482"/>
	<path style="&st1;" d="M208.936,276.519v12.748"/>
	<path style="&st1;" d="M254.261,276.519v12.748"/>
	<path style="&st1;" d="M211.769,292.101h39.661"/>
	<path style="&st1;" d="M208.936,284.309h16.998"/>
	<path style="&st1;" d="M213.185,292.101v-7.792"/>
	<path style="&st1;" d="M225.933,278.503v11.614"/>
	<path style="&st1;" d="M254.261,284.309h-16.997"/>
	<path style="&st1;" d="M250.012,292.101v-7.792"/>
	<path style="&st1;" d="M237.264,278.503v11.614"/>
	<path style="&st1;" d="M211.769,378.501v-63.738"/>
	<path style="&st1;" d="M251.429,378.501v-63.738"/>
	<path style="&st1;" d="M224.517,314.763v15.58h14.164v-15.58"/>
	<path style="&st1;" d="M214.602,311.93h7.082"/>
	<path style="&st1;" d="M241.513,311.93h7.082"/>
	<path style="&st1;" d="M214.602,313.346v59.489l-2.833,5.666"/>
	<path style="&st1;" d="M221.683,314.763v50.425l2.834,11.33h1.416v-43.342"/>
	<path style="&st1;" d="M228.765,378.501v-19.83h5.666v19.83"/>
	<path style="&st1;" d="M197.604,372.835l2.833,5.666"/>
	<path style="&st1;" d="M201.854,376.519v-16.43"/>
	<path style="&st1;" d="M206.103,376.519v-16.43"/>
	<path style="&st1;" d="M199.587,358.671h10.198"/>
	<path style="&st1;" d="M202.42,354.423h4.533"/>
	<path style="&st1;" d="M200.437,280.416v74.007l-1.417,2.832"/>
	<path style="&st1;" d="M241.513,314.763v50.425l-2.832,11.33h-1.417v-43.342"/>
	<path style="&st1;" d="M265.593,372.835l-2.833,5.666"/>
	<path style="&st1;" d="M260.777,354.423h-4.532"/>
	<path style="&st1;" d="M257.094,376.519v-16.43"/>
	<path style="&st1;" d="M261.343,376.519v-16.43"/>
	<path style="&st1;" d="M262.76,280.416v74.007l1.416,2.832"/>
	<path style="&st1;" d="M248.595,313.346v59.489l2.834,5.666"/>
	<path style="&st1;" d="M263.61,358.671h-10.198"/>
	<path style="&st1;" d="M233.015,447.907l1.982,1.982h15.864l1.983-1.982"/>
	<path style="&st1;" d="M152.278,416.747h5.666l1.417-1.418h5.666l1.417,1.418h5.666"/>
	<path style="&st1;" d="M172.109,416.747v31.16h2.833v5.666h-2.833v7.082"/>
	<path style="&st1;" d="M233.015,433.743h19.83"/>
	<path style="&st0;" d="M196.188,412.497v-14.166"/>
	<path style="&st0;" d="M264.176,398.331v14.166"/>
	<path style="&st0;" d="M199.021,395.501h62.323"/>
	<path style="&st0;" d="M282.59,472.835v-6.516h-4.249v6.516"/>
	<path style="&st0;" d="M260.494,474.819h15.864"/>
	<path style="&st0;" d="M284.574,474.819h28.611"/>
	<path style="&st0;" d="M315.167,412.497v60.338"/>
	<path style="&st1;" d="M233.015,416.747h5.666l1.416-1.418h5.666l1.416,1.418h5.666"/>
	<path style="&st1;" d="M206.103,416.747h5.666l1.417-1.418h5.666l1.417,1.418h5.666"/>
	<path style="&st0;" d="M146.613,464.339v-49.859"/>
	<path style="&st1;" d="M206.103,433.743h19.83"/>
	<path style="&st0;" d="M254.261,466.319H148.596"/>
	<path style="&st1;" d="M206.103,447.907l1.983,1.982h15.864l1.983-1.982"/>
	<path style="&st0;" d="M196.188,412.497h-47.592"/>
	<path style="&st0;" d="M264.176,412.497h50.991"/>
	<path style="&st0;" d="M254.261,466.319l1.416,1.418h2.834v5.098"/>
	<path style="&st1;" d="M152.279,460.655v-19.83h-2.833v-5.666h2.833v-18.412"/>
	<path style="&st1;" d="M199.021,416.747v31.16h2.833v5.666h-2.833v7.082"/>
	<path style="&st1;" d="M179.191,460.655v-19.83h-2.833v-5.666h2.833v-18.412"/>
	<path style="&st1;" d="M225.933,416.747v31.16h2.833v5.666h-2.833v7.082"/>
	<path style="&st1;" d="M206.103,460.655v-19.83h-2.833v-5.666h2.833v-18.412"/>
	<path style="&st1;" d="M252.845,416.747v31.16h2.833v5.666h-2.833v7.082"/>
	<path style="&st1;" d="M233.015,460.655v-19.83h-2.833v-5.666h2.833v-18.412"/>
	<path style="&st1;" d="M279.757,416.747v31.16h2.832v5.666h-2.832v7.082"/>
	<path style="&st1;" d="M259.927,460.655v-19.83h-2.833v-5.666h2.833v-18.412"/>
	<path style="&st1;" d="M152.278,433.743h19.83"/>
	<path style="&st1;" d="M152.278,447.907l1.983,1.982h15.864l1.983-1.982"/>
	<path style="&st1;" d="M152.278,455.556l1.983-1.982h15.864l1.983,1.982"/>
	<path style="&st1;" d="M152.278,460.655h19.83"/>
	<path style="&st1;" d="M157.944,460.655v-2.834h8.499v2.834"/>
	<path style="&st1;" d="M206.103,455.556l1.983-1.982h15.864l1.983,1.982"/>
	<path style="&st1;" d="M206.103,460.655h19.83"/>
	<path style="&st1;" d="M211.769,460.655v-2.834h8.499v2.834"/>
	<path style="&st1;" d="M238.681,460.655v-2.834h8.499v2.834"/>
	<path style="&st1;" d="M184.856,460.655v-2.834h8.499v2.834"/>
	<path style="&st1;" d="M179.191,460.655h19.83"/>
	<path style="&st1;" d="M179.191,455.556l1.983-1.982h15.864l1.983,1.982"/>
	<path style="&st1;" d="M179.191,447.907l1.983,1.982h15.864l1.983-1.982"/>
	<path style="&st1;" d="M179.191,433.743h19.83"/>
	<path style="&st1;" d="M179.191,416.747h5.666l1.417-1.418h5.666l1.417,1.418h5.666"/>
	<path style="&st1;" d="M233.015,455.556l1.982-1.982h15.864l1.983,1.982"/>
	<path style="&st1;" d="M233.015,460.655h19.83"/>
	<path style="&st1;" d="M265.593,460.655v-2.834h8.498v2.834"/>
	<path style="&st1;" d="M254.261,466.319h24.08"/>
	<path style="&st1;" d="M259.927,433.743h19.83"/>
	<path style="&st1;" d="M259.927,447.907l1.982,1.982h15.864l1.983-1.982"/>
	<path style="&st1;" d="M259.927,416.747h5.666l1.416-1.418h5.666l1.416,1.418h5.666"/>
	<path style="&st1;" d="M259.927,455.556l1.982-1.982h15.864l1.983,1.982"/>
	<path style="&st1;" d="M259.927,460.655h19.83"/>
	<path style="&st1;" d="M265.593,460.655v-2.834h8.498v2.834"/>
	<path style="&st1;" d="M285.423,412.497v50.99"/>
	<path style="&st1;" d="M264.884,474.819v-8.5"/>
	<path style="&st1;" d="M271.966,474.819v-8.5"/>
	<path style="&st1;" d="M264.884,469.155h7.082"/>
	<path style="&st1;" d="M315.167,426.661h-4.249v8.498h4.249"/>
	<path style="&st1;" d="M207.519,399.749v-4.248"/>
	<path style="&st1;" d="M221.683,399.749v-4.248"/>
	<path style="&st1;" d="M238.681,399.749v-4.248"/>
	<path style="&st1;" d="M252.845,399.749v-4.248"/>
	<path style="&st1;" d="M224.517,399.749v4.248h11.33v-4.248"/>
	<path style="&st1;" d="M224.517,399.749h-22.664v5.664h9.915v7.084"/>
	<path style="&st1;" d="M235.847,399.749h22.664v5.664h-9.916v7.084"/>
	<path style="&st1;" d="M220.267,412.497v-6.518h19.83v6.518"/>
	<path style="&st1;" d="M196.188,412.497h24.079"/>
	<path style="&st1;" d="M240.097,412.497h24.079"/>
	<path style="&st1;" d="M224.517,397.765h11.33"/>
	<path style="&st1;" d="M248.595,96.439V65.278h-11.331v31.162H248.595"/>
	<path style="&st1;" d="M248.595,80.859h-11.331"/>
	<path style="&st1;" d="M247.179,63.862v-4.25h-8.499v4.25H247.179"/>
	<path style="&st0;" d="M254.261,68.111l-6.271-11.292"/>
	<path style="&st0;" d="M231.599,68.111l6.272-11.292"/>
	<path style="&st0;" d="M245.514,55.363h-5.167"/>
	<path style="&st0;" d="M231.599,68.111v13.598"/>
	<path style="&st0;" d="M254.261,81.708V68.111"/>
	<path style="&st1;" d="M247.888,101.255v2.833"/>
	<path style="&st0;" d="M257.944,83.692h-1.699"/>
	<path style="&st0;" d="M229.616,83.692h-1.7"/>
	<path style="&st0;" d="M252.845,114.145v-11.473"/>
	<path style="&st0;" d="M259.927,85.675v30.453"/>
	<path style="&st0;" d="M255.677,101.255h-1.416"/>
	<path style="&st0;" d="M255.677,101.255v14.873"/>
	<path style="&st0;" d="M250.862,116.128h-15.864"/>
	<path style="&st1;" d="M252.845,105.505h-19.83"/>
	<path style="&st1;" d="M254.261,101.255h-22.663"/>
	<path style="&st0;" d="M230.182,101.255h1.417"/>
	<path style="&st0;" d="M225.933,85.675v30.453"/>
	<path style="&st0;" d="M233.015,114.145v-11.473"/>
	<path style="&st0;" d="M230.182,101.255v14.873"/>
	<path style="&st1;" d="M237.973,101.255v2.833"/>
	<path style="&st1;" d="M242.93,107.488h-4.958v5.807h9.916v-5.807H242.93"/>
	<path style="&st1;" d="M230.182,100.406v0.85"/>
	<path style="&st1;" d="M253.695,98.423h-21.53"/>
	<path style="&st1;" d="M255.677,100.406v0.85"/>
	<path style="&st1;" d="M264.176,554.247v31.16h11.331v-31.16H264.176"/>
	<path style="&st1;" d="M264.176,569.825h11.331"/>
	<path style="&st1;" d="M265.593,586.823v4.248h8.498v-4.248H265.593"/>
	<path style="&st0;" d="M258.511,582.573l6.271,11.291"/>
	<path style="&st0;" d="M281.173,582.573l-6.271,11.291"/>
	<path style="&st0;" d="M267.259,595.321h5.166"/>
	<path style="&st0;" d="M281.173,582.573v-13.598"/>
	<path style="&st0;" d="M258.511,568.976v13.598"/>
	<path style="&st1;" d="M264.884,549.431v-2.834"/>
	<path style="&st0;" d="M254.828,566.993h1.7"/>
	<path style="&st0;" d="M283.157,566.993h1.7"/>
	<path style="&st0;" d="M259.927,536.54v11.473"/>
	<path style="&st0;" d="M252.845,565.009v-30.453"/>
	<path style="&st0;" d="M257.094,549.431h1.417"/>
	<path style="&st0;" d="M257.094,549.431v-14.875"/>
	<path style="&st0;" d="M261.91,534.556h15.864"/>
	<path style="&st1;" d="M259.927,545.181h19.83"/>
	<path style="&st1;" d="M258.511,549.431h22.662"/>
	<path style="&st0;" d="M282.589,549.431h-1.416"/>
	<path style="&st0;" d="M286.839,565.009v-30.453"/>
	<path style="&st0;" d="M279.757,536.54v11.473"/>
	<path style="&st0;" d="M282.589,549.431v-14.875"/>
	<path style="&st1;" d="M274.8,549.431v-2.834"/>
	<path style="&st1;" d="M269.842,543.196h4.958v-5.807h-9.916v5.807H269.842"/>
	<path style="&st1;" d="M282.589,550.28v-0.85"/>
	<path style="&st1;" d="M259.078,552.263h21.529"/>
	<path style="&st1;" d="M257.094,550.28v-0.85"/>
	<path style="&st1;" d="M206.103,550.28v-0.85"/>
	<path style="&st1;" d="M208.086,552.263h21.53"/>
	<path style="&st1;" d="M231.599,550.28v-0.85"/>
	<path style="&st1;" d="M218.851,543.196h4.958v-5.807h-9.915v5.807H218.851"/>
	<path style="&st1;" d="M223.808,549.431v-2.834"/>
	<path style="&st0;" d="M231.599,549.431v-14.875"/>
	<path style="&st0;" d="M228.766,536.54v11.473"/>
	<path style="&st0;" d="M235.848,565.009v-30.453"/>
	<path style="&st0;" d="M231.599,549.431h-1.417"/>
	<path style="&st1;" d="M207.519,549.431h22.663"/>
	<path style="&st1;" d="M208.936,545.181h19.83"/>
	<path style="&st0;" d="M210.918,534.556h15.864"/>
	<path style="&st0;" d="M206.103,549.431v-14.875"/>
	<path style="&st0;" d="M206.103,549.431h1.416"/>
	<path style="&st0;" d="M201.854,565.009v-30.453"/>
	<path style="&st0;" d="M208.936,536.54v11.473"/>
	<path style="&st0;" d="M232.165,566.993h1.7"/>
	<path style="&st0;" d="M203.836,566.993h1.7"/>
	<path style="&st1;" d="M213.893,549.431v-2.834"/>
	<path style="&st0;" d="M207.519,568.976v13.598"/>
	<path style="&st0;" d="M230.182,582.573v-13.598"/>
	<path style="&st0;" d="M216.267,595.321h5.167"/>
	<path style="&st0;" d="M230.182,582.573l-6.272,11.291"/>
	<path style="&st0;" d="M207.519,582.573l6.272,11.291"/>
	<path style="&st1;" d="M214.602,586.823v4.248h8.499v-4.248H214.602"/>
	<path style="&st1;" d="M213.185,569.825h11.332"/>
	<path style="&st1;" d="M213.185,554.247v31.16h11.332v-31.16H213.185"/>
	<text transform="matrix(1 0 0 1 104.2344 620.2754)"><tspan x="0" y="0" style="&st3; &st7;">* I112, I113, I114, I115 and I116 are Interchangeable.</tspan></text>
	<path style="&st0;" d="M181.561,55.363c-1.059,0-1.961,0.531-2.476,1.457"/>
	<path style="&st0;" d="M189.204,56.819c-0.516-0.925-1.417-1.456-2.476-1.456"/>
	<path style="&st0;" d="M199.017,118.252c1.174,0,2.125-0.951,2.125-2.125"/>
	<path style="&st0;" d="M196.892,116.128c0,1.173,0.951,2.125,2.125,2.125"/>
	<path style="&st0;" d="M195.476,101.255c-0.782,0-1.416,0.634-1.416,1.417"/>
	<path style="&st0;" d="M192.076,116.128c1.095,0,1.983-0.888,1.983-1.983"/>
	<path style="&st0;" d="M195.476,81.708c0,1.095,0.889,1.983,1.983,1.983"/>
	<path style="&st0;" d="M167.147,116.128c0,1.173,0.952,2.125,2.125,2.125"/>
	<path style="&st0;" d="M201.142,85.675c0-1.095-0.889-1.983-1.983-1.983"/>
	<path style="&st0;" d="M170.83,83.692c1.095,0,1.983-0.888,1.983-1.983"/>
	<path style="&st0;" d="M169.272,118.252c1.173,0,2.125-0.951,2.125-2.125"/>
	<path style="&st0;" d="M174.229,102.672c0-0.782-0.634-1.417-1.417-1.417"/>
	<path style="&st0;" d="M174.229,114.145c0,1.095,0.888,1.983,1.983,1.983"/>
	<path style="&st1;" d="M173.379,98.423c-1.095,0-1.983,0.888-1.983,1.983"/>
	<path style="&st0;" d="M169.13,83.692c-1.095,0-1.983,0.888-1.983,1.983"/>
	<path style="&st1;" d="M196.892,100.406c0-1.095-0.887-1.983-1.982-1.983"/>
	<path style="&st1;" d="M189.81,96.439V65.278h-11.331v31.162H189.81"/>
	<path style="&st1;" d="M189.81,80.859h-11.331"/>
	<path style="&st1;" d="M188.394,63.862v-4.25h-8.499v4.25H188.394"/>
	<path style="&st0;" d="M195.476,68.111l-6.271-11.292"/>
	<path style="&st0;" d="M172.813,68.111l6.272-11.292"/>
	<path style="&st0;" d="M186.728,55.363h-5.167"/>
	<path style="&st0;" d="M172.813,68.111v13.598"/>
	<path style="&st0;" d="M195.476,81.708V68.111"/>
	<path style="&st1;" d="M189.103,101.255v2.833"/>
	<path style="&st0;" d="M199.158,83.692h-1.699"/>
	<path style="&st0;" d="M170.83,83.692h-1.7"/>
	<path style="&st0;" d="M194.06,114.145v-11.473"/>
	<path style="&st0;" d="M201.142,85.675v30.453"/>
	<path style="&st0;" d="M196.892,101.255h-1.416"/>
	<path style="&st0;" d="M196.892,101.255v14.873"/>
	<path style="&st0;" d="M192.076,116.128h-15.864"/>
	<path style="&st1;" d="M194.06,105.505h-19.83"/>
	<path style="&st1;" d="M195.476,101.255h-22.663"/>
	<path style="&st0;" d="M171.396,101.255h1.417"/>
	<path style="&st0;" d="M167.147,85.675v30.453"/>
	<path style="&st0;" d="M174.229,114.145v-11.473"/>
	<path style="&st0;" d="M171.396,101.255v14.873"/>
	<path style="&st1;" d="M179.187,101.255v2.833"/>
	<path style="&st1;" d="M184.145,107.488h-4.958v5.807h9.916v-5.807H184.145"/>
	<path style="&st1;" d="M171.396,100.406v0.85"/>
	<path style="&st1;" d="M194.909,98.423h-21.53"/>
	<path style="&st1;" d="M196.892,100.406v0.85"/>
	<path style="&st0;" d="M122.775,55.363c-1.059,0-1.961,0.531-2.476,1.457"/>
	<path style="&st0;" d="M130.418,56.819c-0.516-0.925-1.417-1.456-2.476-1.456"/>
	<path style="&st0;" d="M140.231,118.252c1.174,0,2.125-0.951,2.125-2.125"/>
	<path style="&st0;" d="M138.106,116.128c0,1.173,0.951,2.125,2.125,2.125"/>
	<path style="&st0;" d="M136.69,101.255c-0.782,0-1.416,0.634-1.416,1.417"/>
	<path style="&st0;" d="M133.291,116.128c1.095,0,1.983-0.888,1.983-1.983"/>
	<path style="&st0;" d="M136.69,81.708c0,1.095,0.889,1.983,1.983,1.983"/>
	<path style="&st0;" d="M108.361,116.128c0,1.173,0.952,2.125,2.125,2.125"/>
	<path style="&st0;" d="M142.356,85.675c0-1.095-0.889-1.983-1.983-1.983"/>
	<path style="&st0;" d="M112.044,83.692c1.095,0,1.983-0.888,1.983-1.983"/>
	<path style="&st0;" d="M110.486,118.252c1.173,0,2.125-0.951,2.125-2.125"/>
	<path style="&st0;" d="M115.444,102.672c0-0.782-0.634-1.417-1.417-1.417"/>
	<path style="&st0;" d="M115.444,114.145c0,1.095,0.888,1.983,1.983,1.983"/>
	<path style="&st1;" d="M114.594,98.423c-1.095,0-1.983,0.888-1.983,1.983"/>
	<path style="&st0;" d="M110.345,83.692c-1.095,0-1.983,0.888-1.983,1.983"/>
	<path style="&st1;" d="M138.106,100.406c0-1.095-0.887-1.983-1.982-1.983"/>
	<path style="&st1;" d="M131.024,96.439V65.278h-11.331v31.162H131.024"/>
	<path style="&st1;" d="M131.024,80.859h-11.331"/>
	<path style="&st1;" d="M129.608,63.862v-4.25h-8.499v4.25H129.608"/>
	<path style="&st0;" d="M136.69,68.111l-6.271-11.292"/>
	<path style="&st0;" d="M114.027,68.111l6.272-11.292"/>
	<path style="&st0;" d="M127.942,55.363h-5.167"/>
	<path style="&st0;" d="M114.027,68.111v13.598"/>
	<path style="&st0;" d="M136.69,81.708V68.111"/>
	<path style="&st1;" d="M130.317,101.255v2.833"/>
	<path style="&st0;" d="M140.373,83.692h-1.699"/>
	<path style="&st0;" d="M112.044,83.692h-1.7"/>
	<path style="&st0;" d="M135.274,114.145v-11.473"/>
	<path style="&st0;" d="M142.356,85.675v30.453"/>
	<path style="&st0;" d="M138.106,101.255h-1.416"/>
	<path style="&st0;" d="M138.106,101.255v14.873"/>
	<path style="&st0;" d="M133.291,116.128h-15.864"/>
	<path style="&st1;" d="M135.274,105.505h-19.83"/>
	<path style="&st1;" d="M136.69,101.255h-22.663"/>
	<path style="&st0;" d="M112.611,101.255h1.417"/>
	<path style="&st0;" d="M108.361,85.675v30.453"/>
	<path style="&st0;" d="M115.444,114.145v-11.473"/>
	<path style="&st0;" d="M112.611,101.255v14.873"/>
	<path style="&st1;" d="M120.401,101.255v2.833"/>
	<path style="&st1;" d="M125.359,107.488h-4.958v5.807h9.916v-5.807H125.359"/>
	<path style="&st1;" d="M112.611,100.406v0.85"/>
	<path style="&st1;" d="M136.124,98.423h-21.53"/>
	<path style="&st1;" d="M138.106,100.406v0.85"/>
</g>
<g id="キャプション">
	<g>
		<text transform="matrix(1 0 0 1 240.9937 215.9995)"><tspan x="0" y="0" style="&st6; &st4;">2</tspan></text>
	</g>
	<g>
		<text transform="matrix(1 0 0 1 240.9937 199.4272)"><tspan x="0" y="0" style="&st6; &st4;">1</tspan></text>
	</g>
	<g>
		<text transform="matrix(1 0 0 1 240.5166 91.9316)"><tspan x="0" y="0" style="&st6; &st4;">1</tspan></text>
	</g>
	<g>
		<text transform="matrix(1 0 0 1 240.5166 76.3506)"><tspan x="0" y="0" style="&st6; &st4;">2</tspan></text>
	</g>
	<g>
		<text transform="matrix(1 0 0 1 213.7153 199.4272)"><tspan x="0" y="0" style="&st6; &st4;">1</tspan></text>
	</g>
	<g>
		<text transform="matrix(1 0 0 1 213.7153 215.9995)"><tspan x="0" y="0" style="&st6; &st4;">2</tspan></text>
	</g>
	<g>
		<text transform="matrix(1 0 0 1 186.8032 199.4272)"><tspan x="0" y="0" style="&st6; &st4;">1</tspan></text>
	</g>
	<g>
		<text transform="matrix(1 0 0 1 186.8032 215.9995)"><tspan x="0" y="0" style="&st6; &st4;">2</tspan></text>
	</g>
	<path style="&st9;" d="M269.842,460.655v37.492"/>
	<path style="&st9;" d="M218.851,498.147v-18.414h24.08v-19.078"/>
	<path style="&st9;" d="M242.93,177.369v-48.352"/>
	<path style="&st5;" d="M242.93,177.369v-48.352"/>
	<path style="&st5;" d="M269.842,460.655v37.492"/>
	<path style="&st5;" d="M218.851,498.147v-18.414h24.08v-19.078"/>
	<a ewd:code="I113" ewd:figtype="conn" style="cursor:pointer;">
		<path style="fill:#FFFFFF;stroke:#000000;stroke-width:0.8;" d="M249.472,37.605c2.977,0,5.391-2.414,5.391-5.39c0-2.977-2.414-5.391-5.391-5.391h-13.604     c-2.977,0-5.39,2.414-5.39,5.391c0,2.977,2.413,5.39,5.39,5.39H249.472z"/>
		<text transform="matrix(1 0 0 1 234.8843 35.0078)"><tspan x="0" y="0" style="&st6; &st4;">I113</tspan></text>
		<title>No. 4 CAN Junction Connector</title>
	</a>
	<text transform="matrix(1 0 0 1 229.8887 49.6543)"><tspan x="0" y="0" style="&st6; &st7;">White</tspan></text>
	<path style="&st5;" d="M269.13,109.097"/>
	<path style="&st9;" d="M189.105,177.369v-21.716h-63.747v-26.635"/>
	<path style="&st5;" d="M189.105,177.369v-21.716h-63.747v-26.635"/>
	<path style="&st9;" d="M216.018,177.369v-33.383h-31.874v-14.969"/>
	<path style="&st5;" d="M216.018,177.369v-33.383h-31.874v-14.969"/>
	<g>
		<text transform="matrix(1 0 0 1 181.731 91.9316)"><tspan x="0" y="0" style="&st6; &st4;">1</tspan></text>
	</g>
	<g>
		<text transform="matrix(1 0 0 1 181.731 76.3506)"><tspan x="0" y="0" style="&st6; &st4;">2</tspan></text>
	</g>
	<a ewd:code="I115" ewd:figtype="conn" style="cursor:pointer;">
		<path style="fill:#FFFFFF;stroke:#000000;stroke-width:0.8;" d="M190.687,37.605c2.977,0,5.391-2.414,5.391-5.39c0-2.977-2.414-5.391-5.391-5.391h-13.604     c-2.977,0-5.39,2.414-5.39,5.391c0,2.977,2.413,5.39,5.39,5.39H190.687z"/>
		<text transform="matrix(1 0 0 1 176.0986 35.0078)"><tspan x="0" y="0" style="&st6; &st4;">I115</tspan></text>
		<title>No. 4 CAN Junction Connector</title>
	</a>
	<text transform="matrix(1 0 0 1 171.103 49.6543)"><tspan x="0" y="0" style="&st6; &st7;">White</tspan></text>
	<g>
		<text transform="matrix(1 0 0 1 122.9453 91.9316)"><tspan x="0" y="0" style="&st6; &st4;">1</tspan></text>
	</g>
	<g>
		<text transform="matrix(1 0 0 1 122.9453 76.3506)"><tspan x="0" y="0" style="&st6; &st4;">2</tspan></text>
	</g>
	<a ewd:code="I116" ewd:figtype="conn" style="cursor:pointer;">
		<path style="fill:#FFFFFF;stroke:#000000;stroke-width:0.8;" d="M131.901,37.605c2.977,0,5.391-2.414,5.391-5.39c0-2.977-2.414-5.391-5.391-5.391h-13.604     c-2.977,0-5.39,2.414-5.39,5.391c0,2.977,2.413,5.39,5.39,5.39H131.901z"/>
		<text transform="matrix(1 0 0 1 117.313 35.0078)"><tspan x="0" y="0" style="&st6; &st4;">I116</tspan></text>
		<title>No. 4 CAN Junction Connector</title>
	</a>
	<text transform="matrix(1 0 0 1 112.3174 49.6543)"><tspan x="0" y="0" style="&st6; &st7;">White</tspan></text>
	<g>
		<text transform="matrix(1 0 0 1 267.6177 427.9463)"><tspan x="0" y="0" style="&st6; &st4;">2</tspan></text>
	</g>
	<g>
		<text transform="matrix(1 0 0 1 240.7056 427.9463)"><tspan x="0" y="0" style="&st6; &st4;">2</tspan></text>
	</g>
	<g>
		<text transform="matrix(1 0 0 1 240.7056 444.5186)"><tspan x="0" y="0" style="&st6; &st4;">1</tspan></text>
	</g>
	<g>
		<text transform="matrix(1 0 0 1 267.6177 444.5186)"><tspan x="0" y="0" style="&st6; &st4;">1</tspan></text>
	</g>
	<a ewd:code="I114" ewd:figtype="conn" style="cursor:pointer;">
		<path style="fill:#FFFFFF;stroke:#000000;stroke-width:0.8;" d="M225.393,513.981c2.977,0,5.391-2.414,5.391-5.391c0-2.977-2.414-5.391-5.391-5.391h-13.604     c-2.977,0-5.39,2.414-5.39,5.391c0,2.977,2.413,5.391,5.39,5.391H225.393z"/>
		<text transform="matrix(1 0 0 1 210.8052 511.3838)"><tspan x="0" y="0" style="&st6; &st4;">I114</tspan></text>
		<title>No. 4 CAN Junction Connector</title>
	</a>
	<text transform="matrix(1 0 0 1 205.8096 526.0303)"><tspan x="0" y="0" style="&st6; &st7;">White</tspan></text>
	<a ewd:code="I112" ewd:figtype="conn" style="cursor:pointer;">
		<path style="fill:#FFFFFF;stroke:#000000;stroke-width:0.8;" d="M276.384,513.981c2.977,0,5.391-2.414,5.391-5.391c0-2.977-2.414-5.391-5.391-5.391H262.78     c-2.977,0-5.39,2.414-5.39,5.391c0,2.977,2.413,5.391,5.39,5.391H276.384z"/>
		<text transform="matrix(1 0 0 1 261.7964 511.3838)"><tspan x="0" y="0" style="&st6; &st4;">I112</tspan></text>
		<title>No. 4 CAN Junction Connector</title>
	</a>
	<text transform="matrix(1 0 0 1 256.8003 526.0303)"><tspan x="0" y="0" style="&st6; &st7;">White</tspan></text>
	<g>
		<text transform="matrix(1 0 0 1 267.4292 580.8984)"><tspan x="0" y="0" style="&st6; &st4;">2</tspan></text>
	</g>
	<g>
		<text transform="matrix(1 0 0 1 267.4292 565.3174)"><tspan x="0" y="0" style="&st6; &st4;">1</tspan></text>
	</g>
	<g>
		<text transform="matrix(1 0 0 1 216.4375 580.8984)"><tspan x="0" y="0" style="&st6; &st4;">2</tspan></text>
	</g>
	<g>
		<text transform="matrix(1 0 0 1 216.4375 565.3174)"><tspan x="0" y="0" style="&st6; &st4;">1</tspan></text>
	</g>
</g>
</svg>